<?xml version="1.0" encoding="us-ascii" standalone="no"?><svg xmlns="http://www.w3.org/2000/svg" xmlns:xlink="http://www.w3.org/1999/xlink" contentStyleType="text/css" height="2135px" preserveAspectRatio="none" style="width:1414px;height:2135px;background:#CED4DA;" version="1.1" viewBox="0 0 1414 2135" width="1414px" zoomAndPan="magnify"><defs/><g><rect fill="#CED4DA" height="2135" style="stroke:none;stroke-width:1.0;" width="1414" x="0" y="0"/><!--class AbstractTimePicker<P, C>--><g id="elem_AbstractTimePicker&lt;P, C&gt;"><rect codeLine="7" fill="#FFFFFF" height="553.2031" id="AbstractTimePicker&lt;P, C&gt;" rx="2.5" ry="2.5" style="stroke:#272B30;stroke-width:0.5;" width="707" x="413.5" y="653"/><ellipse cx="671.75" cy="669" fill="#A9DCDF" rx="11" ry="11" style="stroke:#181818;stroke-width:1.0;"/><path d="M671.8594,664.3438 L670.7031,669.4219 L673.0313,669.4219 L671.8594,664.3438 Z M670.375,662.1094 L673.3594,662.1094 L676.7188,674.5 L674.2656,674.5 L673.5,671.4375 L670.2188,671.4375 L669.4688,674.5 L667.0313,674.5 L670.375,662.1094 Z " fill="#000000"/><text fill="#000000" font-family="sans-serif" font-size="14" font-style="italic" lengthAdjust="spacing" textLength="182" x="692.25" y="673.8467">AbstractTimePicker&lt;P, C&gt;</text><line style="stroke:#272B30;stroke-width:0.5;" x1="414.5" x2="1119.5" y1="685" y2="685"/><polygon fill="none" points="424.5,693.6484,428.5,697.6484,424.5,701.6484,420.5,697.6484" style="stroke:#B38D22;stroke-width:1.0;"/><text fill="#000000" font-family="sans-serif" font-size="14" lengthAdjust="spacing" textLength="180" x="433.5" y="701.9951">isProviderBased : boolean</text><polygon fill="none" points="424.5,709.9453,428.5,713.9453,424.5,717.9453,420.5,713.9453" style="stroke:#B38D22;stroke-width:1.0;"/><text fill="#000000" font-family="sans-serif" font-size="14" lengthAdjust="spacing" textLength="393" x="433.5" y="718.292">providerEventsManagerInstance : IProviderEventManager</text><line style="stroke:#272B30;stroke-width:0.5;" x1="414.5" x2="1119.5" y1="725.5938" y2="725.5938"/><ellipse cx="424.5" cy="739.2422" fill="#84BE84" rx="3" ry="3" style="stroke:#038048;stroke-width:1.0;"/><text fill="#000000" font-family="sans-serif" font-size="14" lengthAdjust="spacing" textLength="84" x="433.5" y="742.5889">build() : void</text><ellipse cx="424.5" cy="755.5391" fill="#84BE84" rx="3" ry="3" style="stroke:#038048;stroke-width:1.0;"/><text fill="#000000" font-family="sans-serif" font-size="14" lengthAdjust="spacing" textLength="484" x="433.5" y="758.8857">changeProperty(propertyName: string, propertyValue: unknown) : void</text><ellipse cx="424.5" cy="771.8359" fill="#84BE84" rx="3" ry="3" style="stroke:#038048;stroke-width:1.0;"/><text fill="#000000" font-family="sans-serif" font-size="14" lengthAdjust="spacing" textLength="241" x="433.5" y="775.1826">checkAddedProviderEvents() : void</text><ellipse cx="424.5" cy="788.1328" fill="#84BE84" rx="3" ry="3" style="stroke:#038048;stroke-width:1.0;"/><text fill="#000000" font-family="sans-serif" font-size="14" lengthAdjust="spacing" textLength="253" x="433.5" y="791.4795">checkPendingProviderEvents() : void</text><ellipse cx="424.5" cy="804.4297" fill="#84BE84" rx="3" ry="3" style="stroke:#038048;stroke-width:1.0;"/><text fill="#000000" font-family="sans-serif" font-size="14" font-style="italic" lengthAdjust="spacing" textLength="85" x="433.5" y="807.7764">clear() : void</text><ellipse cx="424.5" cy="820.7266" fill="#84BE84" rx="3" ry="3" style="stroke:#038048;stroke-width:1.0;"/><text fill="#000000" font-family="sans-serif" font-size="14" font-style="italic" lengthAdjust="spacing" textLength="88" x="433.5" y="824.0732">close() : void</text><ellipse cx="424.5" cy="837.0234" fill="#84BE84" rx="3" ry="3" style="stroke:#038048;stroke-width:1.0;"/><text fill="#000000" font-family="sans-serif" font-size="14" lengthAdjust="spacing" textLength="106" x="433.5" y="840.3701">dispose() : void</text><ellipse cx="424.5" cy="853.3203" fill="#84BE84" rx="3" ry="3" style="stroke:#038048;stroke-width:1.0;"/><text fill="#000000" font-family="sans-serif" font-size="14" lengthAdjust="spacing" textLength="267" x="433.5" y="856.667">equalsToID(patternId: string) : boolean</text><ellipse cx="424.5" cy="869.6172" fill="#84BE84" rx="3" ry="3" style="stroke:#038048;stroke-width:1.0;"/><text fill="#000000" font-family="sans-serif" font-size="14" font-style="italic" lengthAdjust="spacing" textLength="121" x="433.5" y="872.9639">onRender() : void</text><ellipse cx="424.5" cy="885.9141" fill="#84BE84" rx="3" ry="3" style="stroke:#038048;stroke-width:1.0;"/><text fill="#000000" font-family="sans-serif" font-size="14" font-style="italic" lengthAdjust="spacing" textLength="88" x="433.5" y="889.2607">open() : void</text><ellipse cx="424.5" cy="902.2109" fill="#84BE84" rx="3" ry="3" style="stroke:#038048;stroke-width:1.0;"/><text fill="#000000" font-family="sans-serif" font-size="14" lengthAdjust="spacing" textLength="434" x="433.5" y="905.5576">registerCallback(eventName: string, callback: OSGeneric) : void</text><ellipse cx="424.5" cy="918.5078" fill="#84BE84" rx="3" ry="3" style="stroke:#038048;stroke-width:1.0;"/><text fill="#000000" font-family="sans-serif" font-size="14" font-style="italic" lengthAdjust="spacing" textLength="226" x="433.5" y="921.8545">setLanguage(value: string) : void</text><ellipse cx="424.5" cy="934.8047" fill="#84BE84" rx="3" ry="3" style="stroke:#038048;stroke-width:1.0;"/><text fill="#000000" font-family="sans-serif" font-size="14" lengthAdjust="spacing" textLength="362" x="433.5" y="938.1514">setProviderConfigs(providerConfigs: unknown) : void</text><ellipse cx="424.5" cy="951.1016" fill="#84BE84" rx="3" ry="3" style="stroke:#038048;stroke-width:1.0;"/><text fill="#000000" font-family="sans-serif" font-size="14" lengthAdjust="spacing" textLength="681" x="433.5" y="954.4482">setProviderEvent(eventName: string, callback: Generic, uniqueId: string, saveEvent: boolean) : void</text><ellipse cx="424.5" cy="967.3984" fill="#84BE84" rx="3" ry="3" style="stroke:#038048;stroke-width:1.0;"/><text fill="#000000" font-family="sans-serif" font-size="14" lengthAdjust="spacing" textLength="285" x="433.5" y="970.7451">unsetProviderEvent(eventId: string) : void</text><ellipse cx="424.5" cy="983.6953" fill="#84BE84" rx="3" ry="3" style="stroke:#038048;stroke-width:1.0;"/><text fill="#000000" font-family="sans-serif" font-size="14" font-style="italic" lengthAdjust="spacing" textLength="247" x="433.5" y="987.042">updateInitialTime(time: string) : void</text><ellipse cx="424.5" cy="999.9922" fill="#84BE84" rx="3" ry="3" style="stroke:#038048;stroke-width:1.0;"/><text fill="#000000" font-family="sans-serif" font-size="14" font-style="italic" lengthAdjust="spacing" textLength="308" x="433.5" y="1003.3389">updatePrompt(promptMessage: string) : void</text><ellipse cx="424.5" cy="1016.2891" fill="#84BE84" rx="3" ry="3" style="stroke:#038048;stroke-width:1.0;"/><text fill="#000000" font-family="sans-serif" font-size="14" lengthAdjust="spacing" textLength="374" x="433.5" y="1019.6357">updateProviderEvents(providerInfo: ProviderInfo) : void</text><polygon fill="#FFFF44" points="424.5,1027.5859,428.5,1031.5859,424.5,1035.5859,420.5,1031.5859" style="stroke:#B38D22;stroke-width:1.0;"/><text fill="#000000" font-family="sans-serif" font-size="14" lengthAdjust="spacing" textLength="121" x="433.5" y="1035.9326">finishBuild() : void</text><polygon fill="#FFFF44" points="424.5,1043.8828,428.5,1047.8828,424.5,1051.8828,420.5,1047.8828" style="stroke:#B38D22;stroke-width:1.0;"/><text fill="#000000" font-family="sans-serif" font-size="14" font-style="italic" lengthAdjust="spacing" textLength="157" x="433.5" y="1052.2295">prepareConfigs() : void</text><polygon fill="#FFFF44" points="424.5,1060.1797,428.5,1064.1797,424.5,1068.1797,420.5,1064.1797" style="stroke:#B38D22;stroke-width:1.0;"/><text fill="#000000" font-family="sans-serif" font-size="14" lengthAdjust="spacing" textLength="98" x="433.5" y="1068.5264">redraw() : void</text><polygon fill="#FFFF44" points="424.5,1076.4766,428.5,1080.4766,424.5,1084.4766,420.5,1080.4766" style="stroke:#B38D22;stroke-width:1.0;"/><text fill="#000000" font-family="sans-serif" font-size="14" font-style="italic" lengthAdjust="spacing" textLength="179" x="433.5" y="1084.8232">setA11YProperties() : void</text><polygon fill="#FFFF44" points="424.5,1092.7734,428.5,1096.7734,424.5,1100.7734,420.5,1096.7734" style="stroke:#B38D22;stroke-width:1.0;"/><text fill="#000000" font-family="sans-serif" font-size="14" font-style="italic" lengthAdjust="spacing" textLength="137" x="433.5" y="1101.1201">setCallbacks() : void</text><polygon fill="#FFFF44" points="424.5,1109.0703,428.5,1113.0703,424.5,1117.0703,420.5,1113.0703" style="stroke:#B38D22;stroke-width:1.0;"/><text fill="#000000" font-family="sans-serif" font-size="14" font-style="italic" lengthAdjust="spacing" textLength="169" x="433.5" y="1117.417">setHtmlElements() : void</text><polygon fill="#FFFF44" points="424.5,1125.3672,428.5,1129.3672,424.5,1133.3672,420.5,1129.3672" style="stroke:#B38D22;stroke-width:1.0;"/><text fill="#000000" font-family="sans-serif" font-size="14" lengthAdjust="spacing" textLength="569" x="433.5" y="1133.7139">triggerPlatformEventCallback(platFormCallback: OSGeneric, args: unknown[]) : void</text><polygon fill="#FFFF44" points="424.5,1141.6641,428.5,1145.6641,424.5,1149.6641,420.5,1145.6641" style="stroke:#B38D22;stroke-width:1.0;"/><text fill="#000000" font-family="sans-serif" font-size="14" lengthAdjust="spacing" textLength="311" x="433.5" y="1150.0107">triggerPlatformInitializedEventCallback() : void</text><polygon fill="#FFFF44" points="424.5,1157.9609,428.5,1161.9609,424.5,1165.9609,420.5,1161.9609" style="stroke:#B38D22;stroke-width:1.0;"/><text fill="#000000" font-family="sans-serif" font-size="14" lengthAdjust="spacing" textLength="156" x="433.5" y="1166.3076">unsetCallbacks() : void</text><polygon fill="#FFFF44" points="424.5,1174.2578,428.5,1178.2578,424.5,1182.2578,420.5,1178.2578" style="stroke:#B38D22;stroke-width:1.0;"/><text fill="#000000" font-family="sans-serif" font-size="14" lengthAdjust="spacing" textLength="199" x="433.5" y="1182.6045">unsetGlobalCallbacks() : void</text><polygon fill="#FFFF44" points="424.5,1190.5547,428.5,1194.5547,424.5,1198.5547,420.5,1194.5547" style="stroke:#B38D22;stroke-width:1.0;"/><text fill="#000000" font-family="sans-serif" font-size="14" font-style="italic" lengthAdjust="spacing" textLength="187" x="433.5" y="1198.9014">unsetHtmlElements() : void</text></g><!--class AbstractProviderPattern<P, C>--><g id="elem_AbstractProviderPattern&lt;P, C&gt;"><rect codeLine="40" fill="#FFFFFF" height="585.7969" id="AbstractProviderPattern&lt;P, C&gt;" rx="2.5" ry="2.5" style="stroke:#272B30;stroke-width:0.5;" width="800" x="9" y="7"/><ellipse cx="298.75" cy="23" fill="#A9DCDF" rx="11" ry="11" style="stroke:#181818;stroke-width:1.0;"/><path d="M298.8594,18.3438 L297.7031,23.4219 L300.0313,23.4219 L298.8594,18.3438 Z M297.375,16.1094 L300.3594,16.1094 L303.7188,28.5 L301.2656,28.5 L300.5,25.4375 L297.2188,25.4375 L296.4688,28.5 L294.0313,28.5 L297.375,16.1094 Z " fill="#000000"/><text fill="#000000" font-family="sans-serif" font-size="14" font-style="italic" lengthAdjust="spacing" textLength="212" x="319.25" y="27.8467">AbstractProviderPattern&lt;P, C&gt;</text><line style="stroke:#272B30;stroke-width:0.5;" x1="10" x2="808" y1="39" y2="39"/><polygon fill="none" points="20,47.6484,24,51.6484,20,55.6484,16,51.6484" style="stroke:#B38D22;stroke-width:1.0;"/><text fill="#000000" font-family="sans-serif" font-size="14" lengthAdjust="spacing" textLength="180" x="29" y="55.9951">isProviderBased : boolean</text><polygon fill="none" points="20,63.9453,24,67.9453,20,71.9453,16,67.9453" style="stroke:#B38D22;stroke-width:1.0;"/><text fill="#000000" font-family="sans-serif" font-size="14" lengthAdjust="spacing" textLength="393" x="29" y="72.292">providerEventsManagerInstance : IProviderEventManager</text><rect fill="none" height="6" style="stroke:#C82930;stroke-width:1.0;" width="6" x="17" y="82.2422"/><text fill="#000000" font-family="sans-serif" font-size="14" lengthAdjust="spacing" textLength="196" x="29" y="88.5889">_asyncInvocationId : number</text><rect fill="none" height="6" style="stroke:#C82930;stroke-width:1.0;" width="6" x="17" y="98.5391"/><text fill="#000000" font-family="sans-serif" font-size="14" lengthAdjust="spacing" textLength="405" x="29" y="104.8857">_platformEventProviderConfigsAppliedCallback : OSGeneric</text><rect fill="none" height="6" style="stroke:#C82930;stroke-width:1.0;" width="6" x="17" y="114.8359"/><text fill="#000000" font-family="sans-serif" font-size="14" lengthAdjust="spacing" textLength="85" x="29" y="121.1826">_provider : P</text><rect fill="none" height="6" style="stroke:#C82930;stroke-width:1.0;" width="6" x="17" y="131.1328"/><text fill="#000000" font-family="sans-serif" font-size="14" lengthAdjust="spacing" textLength="182" x="29" y="137.4795">_providerInfo : ProviderInfo</text><rect fill="none" height="6" style="stroke:#C82930;stroke-width:1.0;" width="6" x="17" y="147.4297"/><text fill="#000000" font-family="sans-serif" font-size="14" lengthAdjust="spacing" textLength="178" x="29" y="153.7764">_redrawCallback : Generic</text><line style="stroke:#272B30;stroke-width:0.5;" x1="10" x2="808" y1="161.0781" y2="161.0781"/><ellipse cx="20" cy="174.7266" fill="#84BE84" rx="3" ry="3" style="stroke:#038048;stroke-width:1.0;"/><text fill="#000000" font-family="sans-serif" font-size="14" lengthAdjust="spacing" textLength="84" x="29" y="178.0732">build() : void</text><ellipse cx="20" cy="191.0234" fill="#84BE84" rx="3" ry="3" style="stroke:#038048;stroke-width:1.0;"/><text fill="#000000" font-family="sans-serif" font-size="14" lengthAdjust="spacing" textLength="484" x="29" y="194.3701">changeProperty(propertyName: string, propertyValue: unknown) : void</text><ellipse cx="20" cy="207.3203" fill="#84BE84" rx="3" ry="3" style="stroke:#038048;stroke-width:1.0;"/><text fill="#000000" font-family="sans-serif" font-size="14" lengthAdjust="spacing" textLength="241" x="29" y="210.667">checkAddedProviderEvents() : void</text><ellipse cx="20" cy="223.6172" fill="#84BE84" rx="3" ry="3" style="stroke:#038048;stroke-width:1.0;"/><text fill="#000000" font-family="sans-serif" font-size="14" lengthAdjust="spacing" textLength="253" x="29" y="226.9639">checkPendingProviderEvents() : void</text><ellipse cx="20" cy="239.9141" fill="#84BE84" rx="3" ry="3" style="stroke:#038048;stroke-width:1.0;"/><text fill="#000000" font-family="sans-serif" font-size="14" lengthAdjust="spacing" textLength="106" x="29" y="243.2607">dispose() : void</text><ellipse cx="20" cy="256.2109" fill="#84BE84" rx="3" ry="3" style="stroke:#038048;stroke-width:1.0;"/><text fill="#000000" font-family="sans-serif" font-size="14" lengthAdjust="spacing" textLength="267" x="29" y="259.5576">equalsToID(patternId: string) : boolean</text><ellipse cx="20" cy="272.5078" fill="#84BE84" rx="3" ry="3" style="stroke:#038048;stroke-width:1.0;"/><text fill="#000000" font-family="sans-serif" font-size="14" lengthAdjust="spacing" textLength="434" x="29" y="275.8545">registerCallback(eventName: string, callback: OSGeneric) : void</text><ellipse cx="20" cy="288.8047" fill="#84BE84" rx="3" ry="3" style="stroke:#038048;stroke-width:1.0;"/><text fill="#000000" font-family="sans-serif" font-size="14" lengthAdjust="spacing" textLength="362" x="29" y="292.1514">setProviderConfigs(providerConfigs: unknown) : void</text><ellipse cx="20" cy="305.1016" fill="#84BE84" rx="3" ry="3" style="stroke:#038048;stroke-width:1.0;"/><text fill="#000000" font-family="sans-serif" font-size="14" lengthAdjust="spacing" textLength="681" x="29" y="308.4482">setProviderEvent(eventName: string, callback: Generic, uniqueId: string, saveEvent: boolean) : void</text><ellipse cx="20" cy="321.3984" fill="#84BE84" rx="3" ry="3" style="stroke:#038048;stroke-width:1.0;"/><text fill="#000000" font-family="sans-serif" font-size="14" lengthAdjust="spacing" textLength="285" x="29" y="324.7451">unsetProviderEvent(eventId: string) : void</text><ellipse cx="20" cy="337.6953" fill="#84BE84" rx="3" ry="3" style="stroke:#038048;stroke-width:1.0;"/><text fill="#000000" font-family="sans-serif" font-size="14" lengthAdjust="spacing" textLength="374" x="29" y="341.042">updateProviderEvents(providerInfo: ProviderInfo) : void</text><polygon fill="#FFFF44" points="20,348.9922,24,352.9922,20,356.9922,16,352.9922" style="stroke:#B38D22;stroke-width:1.0;"/><text fill="#000000" font-family="sans-serif" font-size="14" lengthAdjust="spacing" textLength="121" x="29" y="357.3389">finishBuild() : void</text><polygon fill="#FFFF44" points="20,365.2891,24,369.2891,20,373.2891,16,369.2891" style="stroke:#B38D22;stroke-width:1.0;"/><text fill="#000000" font-family="sans-serif" font-size="14" font-style="italic" lengthAdjust="spacing" textLength="157" x="29" y="373.6357">prepareConfigs() : void</text><polygon fill="#FFFF44" points="20,381.5859,24,385.5859,20,389.5859,16,385.5859" style="stroke:#B38D22;stroke-width:1.0;"/><text fill="#000000" font-family="sans-serif" font-size="14" lengthAdjust="spacing" textLength="98" x="29" y="389.9326">redraw() : void</text><polygon fill="#FFFF44" points="20,397.8828,24,401.8828,20,405.8828,16,401.8828" style="stroke:#B38D22;stroke-width:1.0;"/><text fill="#000000" font-family="sans-serif" font-size="14" font-style="italic" lengthAdjust="spacing" textLength="179" x="29" y="406.2295">setA11YProperties() : void</text><polygon fill="#FFFF44" points="20,414.1797,24,418.1797,20,422.1797,16,418.1797" style="stroke:#B38D22;stroke-width:1.0;"/><text fill="#000000" font-family="sans-serif" font-size="14" font-style="italic" lengthAdjust="spacing" textLength="137" x="29" y="422.5264">setCallbacks() : void</text><polygon fill="#FFFF44" points="20,430.4766,24,434.4766,20,438.4766,16,434.4766" style="stroke:#B38D22;stroke-width:1.0;"/><text fill="#000000" font-family="sans-serif" font-size="14" font-style="italic" lengthAdjust="spacing" textLength="169" x="29" y="438.8232">setHtmlElements() : void</text><polygon fill="#FFFF44" points="20,446.7734,24,450.7734,20,454.7734,16,450.7734" style="stroke:#B38D22;stroke-width:1.0;"/><text fill="#000000" font-family="sans-serif" font-size="14" lengthAdjust="spacing" textLength="569" x="29" y="455.1201">triggerPlatformEventCallback(platFormCallback: OSGeneric, args: unknown[]) : void</text><polygon fill="#FFFF44" points="20,463.0703,24,467.0703,20,471.0703,16,467.0703" style="stroke:#B38D22;stroke-width:1.0;"/><text fill="#000000" font-family="sans-serif" font-size="14" lengthAdjust="spacing" textLength="311" x="29" y="471.417">triggerPlatformInitializedEventCallback() : void</text><polygon fill="#FFFF44" points="20,479.3672,24,483.3672,20,487.3672,16,483.3672" style="stroke:#B38D22;stroke-width:1.0;"/><text fill="#000000" font-family="sans-serif" font-size="14" lengthAdjust="spacing" textLength="156" x="29" y="487.7139">unsetCallbacks() : void</text><polygon fill="#FFFF44" points="20,495.6641,24,499.6641,20,503.6641,16,499.6641" style="stroke:#B38D22;stroke-width:1.0;"/><text fill="#000000" font-family="sans-serif" font-size="14" lengthAdjust="spacing" textLength="199" x="29" y="504.0107">unsetGlobalCallbacks() : void</text><polygon fill="#FFFF44" points="20,511.9609,24,515.9609,20,519.9609,16,515.9609" style="stroke:#B38D22;stroke-width:1.0;"/><text fill="#000000" font-family="sans-serif" font-size="14" font-style="italic" lengthAdjust="spacing" textLength="187" x="29" y="520.3076">unsetHtmlElements() : void</text><rect fill="#F24D5C" height="6" style="stroke:#C82930;stroke-width:1.0;" width="6" x="17" y="530.2578"/><text fill="#000000" font-family="sans-serif" font-size="14" lengthAdjust="spacing" textLength="155" x="29" y="536.6045">_cancelRedraw() : void</text><rect fill="#F24D5C" height="6" style="stroke:#C82930;stroke-width:1.0;" width="6" x="17" y="546.5547"/><text fill="#000000" font-family="sans-serif" font-size="14" lengthAdjust="spacing" textLength="398" x="29" y="552.9014">_getEventIndexFromArray(event: IProviderEvent) : number</text><rect fill="#F24D5C" height="6" style="stroke:#C82930;stroke-width:1.0;" width="6" x="17" y="562.8516"/><text fill="#000000" font-family="sans-serif" font-size="14" lengthAdjust="spacing" textLength="774" x="29" y="569.1982">_handleProviderEventsAPI(eventName: string, callback: Generic, addEvent: boolean, event: IProviderEvent) : void</text><rect fill="#F24D5C" height="6" style="stroke:#C82930;stroke-width:1.0;" width="6" x="17" y="579.1484"/><text fill="#000000" font-family="sans-serif" font-size="14" lengthAdjust="spacing" textLength="157" x="29" y="585.4951">_handleRedraw() : void</text></g><!--class ITimePicker--><g id="elem_ITimePicker"><rect codeLine="76" fill="#FFFFFF" height="357.6406" id="ITimePicker" rx="2.5" ry="2.5" style="stroke:#272B30;stroke-width:0.5;" width="563" x="844.5" y="121"/><ellipse cx="1082.25" cy="137" fill="#B4A7E5" rx="11" ry="11" style="stroke:#181818;stroke-width:1.0;"/><path d="M1078.1719,132.7656 L1078.1719,130.6094 L1085.5625,130.6094 L1085.5625,132.7656 L1083.0938,132.7656 L1083.0938,140.8438 L1085.5625,140.8438 L1085.5625,143 L1078.1719,143 L1078.1719,140.8438 L1080.6406,140.8438 L1080.6406,132.7656 L1078.1719,132.7656 Z " fill="#000000"/><text fill="#000000" font-family="sans-serif" font-size="14" font-style="italic" lengthAdjust="spacing" textLength="79" x="1102.75" y="141.8467">ITimePicker</text><line style="stroke:#272B30;stroke-width:0.5;" x1="845.5" x2="1406.5" y1="153" y2="153"/><ellipse cx="855.5" cy="166.6484" fill="none" rx="3" ry="3" style="stroke:#038048;stroke-width:1.0;"/><text fill="#000000" font-family="sans-serif" font-size="14" lengthAdjust="spacing" textLength="110" x="864.5" y="169.9951">isBuilt : boolean</text><ellipse cx="855.5" cy="182.9453" fill="none" rx="3" ry="3" style="stroke:#038048;stroke-width:1.0;"/><text fill="#000000" font-family="sans-serif" font-size="14" lengthAdjust="spacing" textLength="118" x="864.5" y="186.292">isOpen : boolean</text><ellipse cx="855.5" cy="199.2422" fill="none" rx="3" ry="3" style="stroke:#038048;stroke-width:1.0;"/><text fill="#000000" font-family="sans-serif" font-size="14" lengthAdjust="spacing" textLength="189" x="864.5" y="202.5889">selfElement : HTMLElement</text><ellipse cx="855.5" cy="215.5391" fill="none" rx="3" ry="3" style="stroke:#038048;stroke-width:1.0;"/><text fill="#000000" font-family="sans-serif" font-size="14" lengthAdjust="spacing" textLength="112" x="864.5" y="218.8857">uniqueId : string</text><ellipse cx="855.5" cy="231.8359" fill="none" rx="3" ry="3" style="stroke:#038048;stroke-width:1.0;"/><text fill="#000000" font-family="sans-serif" font-size="14" lengthAdjust="spacing" textLength="110" x="864.5" y="235.1826">widgetId : string</text><line style="stroke:#272B30;stroke-width:0.5;" x1="845.5" x2="1406.5" y1="242.4844" y2="242.4844"/><ellipse cx="855.5" cy="256.1328" fill="#84BE84" rx="3" ry="3" style="stroke:#038048;stroke-width:1.0;"/><text fill="#000000" font-family="sans-serif" font-size="14" lengthAdjust="spacing" textLength="84" x="864.5" y="259.4795">build() : void</text><ellipse cx="855.5" cy="272.4297" fill="#84BE84" rx="3" ry="3" style="stroke:#038048;stroke-width:1.0;"/><text fill="#000000" font-family="sans-serif" font-size="14" lengthAdjust="spacing" textLength="484" x="864.5" y="275.7764">changeProperty(propertyName: string, propertyValue: unknown) : void</text><ellipse cx="855.5" cy="288.7266" fill="#84BE84" rx="3" ry="3" style="stroke:#038048;stroke-width:1.0;"/><text fill="#000000" font-family="sans-serif" font-size="14" lengthAdjust="spacing" textLength="84" x="864.5" y="292.0732">clear() : void</text><ellipse cx="855.5" cy="305.0234" fill="#84BE84" rx="3" ry="3" style="stroke:#038048;stroke-width:1.0;"/><text fill="#000000" font-family="sans-serif" font-size="14" lengthAdjust="spacing" textLength="88" x="864.5" y="308.3701">close() : void</text><ellipse cx="855.5" cy="321.3203" fill="#84BE84" rx="3" ry="3" style="stroke:#038048;stroke-width:1.0;"/><text fill="#000000" font-family="sans-serif" font-size="14" lengthAdjust="spacing" textLength="106" x="864.5" y="324.667">dispose() : void</text><ellipse cx="855.5" cy="337.6172" fill="#84BE84" rx="3" ry="3" style="stroke:#038048;stroke-width:1.0;"/><text fill="#000000" font-family="sans-serif" font-size="14" lengthAdjust="spacing" textLength="217" x="864.5" y="340.9639">equalsToID(id: string) : boolean</text><ellipse cx="855.5" cy="353.9141" fill="#84BE84" rx="3" ry="3" style="stroke:#038048;stroke-width:1.0;"/><text fill="#000000" font-family="sans-serif" font-size="14" lengthAdjust="spacing" textLength="120" x="864.5" y="357.2607">onRender() : void</text><ellipse cx="855.5" cy="370.2109" fill="#84BE84" rx="3" ry="3" style="stroke:#038048;stroke-width:1.0;"/><text fill="#000000" font-family="sans-serif" font-size="14" lengthAdjust="spacing" textLength="257" x="864.5" y="373.5576">open(isOpenedByApi: boolean) : void</text><ellipse cx="855.5" cy="386.5078" fill="#84BE84" rx="3" ry="3" style="stroke:#038048;stroke-width:1.0;"/><text fill="#000000" font-family="sans-serif" font-size="14" lengthAdjust="spacing" textLength="434" x="864.5" y="389.8545">registerCallback(eventName: string, callback: OSGeneric) : void</text><ellipse cx="855.5" cy="402.8047" fill="#84BE84" rx="3" ry="3" style="stroke:#038048;stroke-width:1.0;"/><text fill="#000000" font-family="sans-serif" font-size="14" lengthAdjust="spacing" textLength="225" x="864.5" y="406.1514">setLanguage(value: string) : void</text><ellipse cx="855.5" cy="419.1016" fill="#84BE84" rx="3" ry="3" style="stroke:#038048;stroke-width:1.0;"/><text fill="#000000" font-family="sans-serif" font-size="14" lengthAdjust="spacing" textLength="322" x="864.5" y="422.4482">setProviderConfigs(providerConfigs: any) : void</text><ellipse cx="855.5" cy="435.3984" fill="#84BE84" rx="3" ry="3" style="stroke:#038048;stroke-width:1.0;"/><text fill="#000000" font-family="sans-serif" font-size="14" lengthAdjust="spacing" textLength="537" x="864.5" y="438.7451">setProviderEvent(eventName: string, callback: Generic, uniqueId: string) : void</text><ellipse cx="855.5" cy="451.6953" fill="#84BE84" rx="3" ry="3" style="stroke:#038048;stroke-width:1.0;"/><text fill="#000000" font-family="sans-serif" font-size="14" lengthAdjust="spacing" textLength="285" x="864.5" y="455.042">unsetProviderEvent(eventId: string) : void</text><ellipse cx="855.5" cy="467.9922" fill="#84BE84" rx="3" ry="3" style="stroke:#038048;stroke-width:1.0;"/><text fill="#000000" font-family="sans-serif" font-size="14" lengthAdjust="spacing" textLength="246" x="864.5" y="471.3389">updateInitialTime(time: string) : void</text></g><!--class OSUIFlatpickrTime--><g id="elem_OSUIFlatpickrTime"><rect codeLine="98" fill="#FFFFFF" height="862.8438" id="OSUIFlatpickrTime" rx="2.5" ry="2.5" style="stroke:#272B30;stroke-width:0.5;" width="707" x="413.5" y="1266"/><ellipse cx="700.75" cy="1282" fill="#ADD1B2" rx="11" ry="11" style="stroke:#181818;stroke-width:1.0;"/><path d="M703.7188,1287.6406 Q703.1406,1287.9375 702.5,1288.0781 Q701.8594,1288.2344 701.1563,1288.2344 Q698.6563,1288.2344 697.3281,1286.5938 Q696.0156,1284.9375 696.0156,1281.8125 Q696.0156,1278.6875 697.3281,1277.0313 Q698.6563,1275.375 701.1563,1275.375 Q701.8594,1275.375 702.5,1275.5313 Q703.1563,1275.6875 703.7188,1275.9844 L703.7188,1278.7031 Q703.0938,1278.125 702.5,1277.8594 Q701.9063,1277.5781 701.2813,1277.5781 Q699.9375,1277.5781 699.25,1278.6563 Q698.5625,1279.7188 698.5625,1281.8125 Q698.5625,1283.9063 699.25,1284.9844 Q699.9375,1286.0469 701.2813,1286.0469 Q701.9063,1286.0469 702.5,1285.7813 Q703.0938,1285.5 703.7188,1284.9219 L703.7188,1287.6406 Z " fill="#000000"/><text fill="#000000" font-family="sans-serif" font-size="14" lengthAdjust="spacing" textLength="124" x="721.25" y="1286.8467">OSUIFlatpickrTime</text><line style="stroke:#272B30;stroke-width:0.5;" x1="414.5" x2="1119.5" y1="1298" y2="1298"/><polygon fill="none" points="424.5,1306.6484,428.5,1310.6484,424.5,1314.6484,420.5,1310.6484" style="stroke:#B38D22;stroke-width:1.0;"/><text fill="#000000" font-family="sans-serif" font-size="14" lengthAdjust="spacing" textLength="265" x="433.5" y="1314.9951">flatpickrInputElem : HTMLInputElement</text><polygon fill="none" points="424.5,1322.9453,428.5,1326.9453,424.5,1330.9453,420.5,1326.9453" style="stroke:#B38D22;stroke-width:1.0;"/><text fill="#000000" font-family="sans-serif" font-size="14" lengthAdjust="spacing" textLength="180" x="433.5" y="1331.292">isProviderBased : boolean</text><polygon fill="none" points="424.5,1339.2422,428.5,1343.2422,424.5,1347.2422,420.5,1343.2422" style="stroke:#B38D22;stroke-width:1.0;"/><text fill="#000000" font-family="sans-serif" font-size="14" lengthAdjust="spacing" textLength="314" x="433.5" y="1347.5889">onChangeCallbackEvent : OSOnChangeEvent</text><polygon fill="none" points="424.5,1355.5391,428.5,1359.5391,424.5,1363.5391,420.5,1359.5391" style="stroke:#B38D22;stroke-width:1.0;"/><text fill="#000000" font-family="sans-serif" font-size="14" lengthAdjust="spacing" textLength="393" x="433.5" y="1363.8857">providerEventsManagerInstance : IProviderEventManager</text><polygon fill="none" points="424.5,1371.8359,428.5,1375.8359,424.5,1379.8359,420.5,1375.8359" style="stroke:#B38D22;stroke-width:1.0;"/><text fill="#000000" font-family="sans-serif" font-size="14" lengthAdjust="spacing" textLength="340" x="433.5" y="1380.1826">timePickerPlatformInputElem : HTMLInputElement</text><rect fill="none" height="6" style="stroke:#C82930;stroke-width:1.0;" width="6" x="421.5" y="1390.1328"/><text fill="#000000" font-family="sans-serif" font-size="14" lengthAdjust="spacing" textLength="246" x="433.5" y="1396.4795">_bodyOnClickGlobalEvent : IListener</text><rect fill="none" height="6" style="stroke:#C82930;stroke-width:1.0;" width="6" x="421.5" y="1406.4297"/><text fill="#000000" font-family="sans-serif" font-size="14" lengthAdjust="spacing" textLength="385" x="433.5" y="1412.7764">_bodyScrollCommonBehaviour : UpdatePositionOnScroll</text><rect fill="none" height="6" style="stroke:#C82930;stroke-width:1.0;" width="6" x="421.5" y="1422.7266"/><text fill="#000000" font-family="sans-serif" font-size="14" lengthAdjust="spacing" textLength="217" x="433.5" y="1429.0732">_flatpickrOpts : FlatpickrOptions</text><rect fill="none" height="6" style="stroke:#C82930;stroke-width:1.0;" width="6" x="421.5" y="1439.0234"/><text fill="#000000" font-family="sans-serif" font-size="14" lengthAdjust="spacing" textLength="238" x="433.5" y="1445.3701">_isPlatformInputDisabled : boolean</text><rect fill="none" height="6" style="stroke:#C82930;stroke-width:1.0;" width="6" x="421.5" y="1455.3203"/><text fill="#000000" font-family="sans-serif" font-size="14" lengthAdjust="spacing" textLength="285" x="433.5" y="1461.667">_zindexCommonBehavior : UpdateZindex</text><line style="stroke:#272B30;stroke-width:0.5;" x1="414.5" x2="1119.5" y1="1468.9688" y2="1468.9688"/><ellipse cx="424.5" cy="1482.6172" fill="#84BE84" rx="3" ry="3" style="stroke:#038048;stroke-width:1.0;"/><text fill="#000000" font-family="sans-serif" font-size="14" lengthAdjust="spacing" textLength="84" x="433.5" y="1485.9639">build() : void</text><ellipse cx="424.5" cy="1498.9141" fill="#84BE84" rx="3" ry="3" style="stroke:#038048;stroke-width:1.0;"/><text fill="#000000" font-family="sans-serif" font-size="14" lengthAdjust="spacing" textLength="484" x="433.5" y="1502.2607">changeProperty(propertyName: string, propertyValue: unknown) : void</text><ellipse cx="424.5" cy="1515.2109" fill="#84BE84" rx="3" ry="3" style="stroke:#038048;stroke-width:1.0;"/><text fill="#000000" font-family="sans-serif" font-size="14" lengthAdjust="spacing" textLength="241" x="433.5" y="1518.5576">checkAddedProviderEvents() : void</text><ellipse cx="424.5" cy="1531.5078" fill="#84BE84" rx="3" ry="3" style="stroke:#038048;stroke-width:1.0;"/><text fill="#000000" font-family="sans-serif" font-size="14" lengthAdjust="spacing" textLength="253" x="433.5" y="1534.8545">checkPendingProviderEvents() : void</text><ellipse cx="424.5" cy="1547.8047" fill="#84BE84" rx="3" ry="3" style="stroke:#038048;stroke-width:1.0;"/><text fill="#000000" font-family="sans-serif" font-size="14" lengthAdjust="spacing" textLength="84" x="433.5" y="1551.1514">clear() : void</text><ellipse cx="424.5" cy="1564.1016" fill="#84BE84" rx="3" ry="3" style="stroke:#038048;stroke-width:1.0;"/><text fill="#000000" font-family="sans-serif" font-size="14" lengthAdjust="spacing" textLength="88" x="433.5" y="1567.4482">close() : void</text><ellipse cx="424.5" cy="1580.3984" fill="#84BE84" rx="3" ry="3" style="stroke:#038048;stroke-width:1.0;"/><text fill="#000000" font-family="sans-serif" font-size="14" lengthAdjust="spacing" textLength="106" x="433.5" y="1583.7451">dispose() : void</text><ellipse cx="424.5" cy="1596.6953" fill="#84BE84" rx="3" ry="3" style="stroke:#038048;stroke-width:1.0;"/><text fill="#000000" font-family="sans-serif" font-size="14" lengthAdjust="spacing" textLength="267" x="433.5" y="1600.042">equalsToID(patternId: string) : boolean</text><ellipse cx="424.5" cy="1612.9922" fill="#84BE84" rx="3" ry="3" style="stroke:#038048;stroke-width:1.0;"/><text fill="#000000" font-family="sans-serif" font-size="14" lengthAdjust="spacing" textLength="120" x="433.5" y="1616.3389">onRender() : void</text><ellipse cx="424.5" cy="1629.2891" fill="#84BE84" rx="3" ry="3" style="stroke:#038048;stroke-width:1.0;"/><text fill="#000000" font-family="sans-serif" font-size="14" lengthAdjust="spacing" textLength="87" x="433.5" y="1632.6357">open() : void</text><ellipse cx="424.5" cy="1645.5859" fill="#84BE84" rx="3" ry="3" style="stroke:#038048;stroke-width:1.0;"/><text fill="#000000" font-family="sans-serif" font-size="14" lengthAdjust="spacing" textLength="434" x="433.5" y="1648.9326">registerCallback(eventName: string, callback: OSGeneric) : void</text><ellipse cx="424.5" cy="1661.8828" fill="#84BE84" rx="3" ry="3" style="stroke:#038048;stroke-width:1.0;"/><text fill="#000000" font-family="sans-serif" font-size="14" lengthAdjust="spacing" textLength="294" x="433.5" y="1665.2295">setEditableInput(isEditable: boolean) : void</text><ellipse cx="424.5" cy="1678.1797" fill="#84BE84" rx="3" ry="3" style="stroke:#038048;stroke-width:1.0;"/><text fill="#000000" font-family="sans-serif" font-size="14" lengthAdjust="spacing" textLength="225" x="433.5" y="1681.5264">setLanguage(value: string) : void</text><ellipse cx="424.5" cy="1694.4766" fill="#84BE84" rx="3" ry="3" style="stroke:#038048;stroke-width:1.0;"/><text fill="#000000" font-family="sans-serif" font-size="14" lengthAdjust="spacing" textLength="382" x="433.5" y="1697.8232">setProviderConfigs(newConfigs: FlatpickrOptions) : void</text><ellipse cx="424.5" cy="1710.7734" fill="#84BE84" rx="3" ry="3" style="stroke:#038048;stroke-width:1.0;"/><text fill="#000000" font-family="sans-serif" font-size="14" lengthAdjust="spacing" textLength="681" x="433.5" y="1714.1201">setProviderEvent(eventName: string, callback: Generic, uniqueId: string, saveEvent: boolean) : void</text><ellipse cx="424.5" cy="1727.0703" fill="#84BE84" rx="3" ry="3" style="stroke:#038048;stroke-width:1.0;"/><text fill="#000000" font-family="sans-serif" font-size="14" lengthAdjust="spacing" textLength="315" x="433.5" y="1730.417">toggleNativeBehavior(isNative: boolean) : void</text><ellipse cx="424.5" cy="1743.3672" fill="#84BE84" rx="3" ry="3" style="stroke:#038048;stroke-width:1.0;"/><text fill="#000000" font-family="sans-serif" font-size="14" lengthAdjust="spacing" textLength="285" x="433.5" y="1746.7139">unsetProviderEvent(eventId: string) : void</text><ellipse cx="424.5" cy="1759.6641" fill="#84BE84" rx="3" ry="3" style="stroke:#038048;stroke-width:1.0;"/><text fill="#000000" font-family="sans-serif" font-size="14" lengthAdjust="spacing" textLength="252" x="433.5" y="1763.0107">updateInitialTime(value: string) : void</text><ellipse cx="424.5" cy="1775.9609" fill="#84BE84" rx="3" ry="3" style="stroke:#038048;stroke-width:1.0;"/><text fill="#000000" font-family="sans-serif" font-size="14" lengthAdjust="spacing" textLength="311" x="433.5" y="1779.3076">updatePrompt(promptMessage: string) : void</text><ellipse cx="424.5" cy="1792.2578" fill="#84BE84" rx="3" ry="3" style="stroke:#038048;stroke-width:1.0;"/><text fill="#000000" font-family="sans-serif" font-size="14" lengthAdjust="spacing" textLength="374" x="433.5" y="1795.6045">updateProviderEvents(providerInfo: ProviderInfo) : void</text><polygon fill="#FFFF44" points="424.5,1803.5547,428.5,1807.5547,424.5,1811.5547,420.5,1807.5547" style="stroke:#B38D22;stroke-width:1.0;"/><text fill="#000000" font-family="sans-serif" font-size="14" lengthAdjust="spacing" textLength="210" x="433.5" y="1811.9014">createProviderInstance() : void</text><polygon fill="#FFFF44" points="424.5,1819.8516,428.5,1823.8516,424.5,1827.8516,420.5,1823.8516" style="stroke:#B38D22;stroke-width:1.0;"/><text fill="#000000" font-family="sans-serif" font-size="14" lengthAdjust="spacing" textLength="121" x="433.5" y="1828.1982">finishBuild() : void</text><polygon fill="#FFFF44" points="424.5,1836.1484,428.5,1840.1484,424.5,1844.1484,420.5,1840.1484" style="stroke:#B38D22;stroke-width:1.0;"/><text fill="#000000" font-family="sans-serif" font-size="14" lengthAdjust="spacing" textLength="108" x="433.5" y="1844.4951">onClose() : void</text><polygon fill="#FFFF44" points="424.5,1852.4453,428.5,1856.4453,424.5,1860.4453,420.5,1856.4453" style="stroke:#B38D22;stroke-width:1.0;"/><text fill="#000000" font-family="sans-serif" font-size="14" lengthAdjust="spacing" textLength="107" x="433.5" y="1860.792">onOpen() : void</text><polygon fill="#FFFF44" points="424.5,1868.7422,428.5,1872.7422,424.5,1876.7422,420.5,1872.7422" style="stroke:#B38D22;stroke-width:1.0;"/><text fill="#000000" font-family="sans-serif" font-size="14" lengthAdjust="spacing" textLength="349" x="433.5" y="1877.0889">onTimeSelectedEvent(selectedTime: Date[]) : void</text><polygon fill="#FFFF44" points="424.5,1885.0391,428.5,1889.0391,424.5,1893.0391,420.5,1889.0391" style="stroke:#B38D22;stroke-width:1.0;"/><text fill="#000000" font-family="sans-serif" font-size="14" lengthAdjust="spacing" textLength="157" x="433.5" y="1893.3857">prepareConfigs() : void</text><polygon fill="#FFFF44" points="424.5,1901.3359,428.5,1905.3359,424.5,1909.3359,420.5,1905.3359" style="stroke:#B38D22;stroke-width:1.0;"/><text fill="#000000" font-family="sans-serif" font-size="14" lengthAdjust="spacing" textLength="98" x="433.5" y="1909.6826">redraw() : void</text><polygon fill="#FFFF44" points="424.5,1917.6328,428.5,1921.6328,424.5,1925.6328,420.5,1921.6328" style="stroke:#B38D22;stroke-width:1.0;"/><text fill="#000000" font-family="sans-serif" font-size="14" lengthAdjust="spacing" textLength="180" x="433.5" y="1925.9795">setA11YProperties() : void</text><polygon fill="#FFFF44" points="424.5,1933.9297,428.5,1937.9297,424.5,1941.9297,420.5,1937.9297" style="stroke:#B38D22;stroke-width:1.0;"/><text fill="#000000" font-family="sans-serif" font-size="14" lengthAdjust="spacing" textLength="138" x="433.5" y="1942.2764">setCallbacks() : void</text><polygon fill="#FFFF44" points="424.5,1950.2266,428.5,1954.2266,424.5,1958.2266,420.5,1954.2266" style="stroke:#B38D22;stroke-width:1.0;"/><text fill="#000000" font-family="sans-serif" font-size="14" lengthAdjust="spacing" textLength="169" x="433.5" y="1958.5732">setHtmlElements() : void</text><polygon fill="#FFFF44" points="424.5,1966.5234,428.5,1970.5234,424.5,1974.5234,420.5,1970.5234" style="stroke:#B38D22;stroke-width:1.0;"/><text fill="#000000" font-family="sans-serif" font-size="14" lengthAdjust="spacing" textLength="569" x="433.5" y="1974.8701">triggerPlatformEventCallback(platFormCallback: OSGeneric, args: unknown[]) : void</text><polygon fill="#FFFF44" points="424.5,1982.8203,428.5,1986.8203,424.5,1990.8203,420.5,1986.8203" style="stroke:#B38D22;stroke-width:1.0;"/><text fill="#000000" font-family="sans-serif" font-size="14" lengthAdjust="spacing" textLength="311" x="433.5" y="1991.167">triggerPlatformInitializedEventCallback() : void</text><polygon fill="#FFFF44" points="424.5,1999.1172,428.5,2003.1172,424.5,2007.1172,420.5,2003.1172" style="stroke:#B38D22;stroke-width:1.0;"/><text fill="#000000" font-family="sans-serif" font-size="14" lengthAdjust="spacing" textLength="156" x="433.5" y="2007.4639">unsetCallbacks() : void</text><polygon fill="#FFFF44" points="424.5,2015.4141,428.5,2019.4141,424.5,2023.4141,420.5,2019.4141" style="stroke:#B38D22;stroke-width:1.0;"/><text fill="#000000" font-family="sans-serif" font-size="14" lengthAdjust="spacing" textLength="199" x="433.5" y="2023.7607">unsetGlobalCallbacks() : void</text><polygon fill="#FFFF44" points="424.5,2031.7109,428.5,2035.7109,424.5,2039.7109,420.5,2035.7109" style="stroke:#B38D22;stroke-width:1.0;"/><text fill="#000000" font-family="sans-serif" font-size="14" lengthAdjust="spacing" textLength="187" x="433.5" y="2040.0576">unsetHtmlElements() : void</text><polygon fill="#FFFF44" points="424.5,2048.0078,428.5,2052.0078,424.5,2056.0078,420.5,2052.0078" style="stroke:#B38D22;stroke-width:1.0;"/><text fill="#000000" font-family="sans-serif" font-size="14" lengthAdjust="spacing" textLength="223" x="433.5" y="2056.3545">updatePlatformInputAttrs() : void</text><rect fill="#F24D5C" height="6" style="stroke:#C82930;stroke-width:1.0;" width="6" x="421.5" y="2066.3047"/><text fill="#000000" font-family="sans-serif" font-size="14" lengthAdjust="spacing" textLength="250" x="433.5" y="2072.6514">_getBodyOnClickGlobalEvent() : void</text><rect fill="#F24D5C" height="6" style="stroke:#C82930;stroke-width:1.0;" width="6" x="421.5" y="2082.6016"/><text fill="#000000" font-family="sans-serif" font-size="14" lengthAdjust="spacing" textLength="147" x="433.5" y="2088.9482">_setAttributes() : void</text><rect fill="#F24D5C" height="6" style="stroke:#C82930;stroke-width:1.0;" width="6" x="421.5" y="2098.8984"/><text fill="#000000" font-family="sans-serif" font-size="14" lengthAdjust="spacing" textLength="221" x="433.5" y="2105.2451">_setCalendarCssClasses() : void</text><rect fill="#F24D5C" height="6" style="stroke:#C82930;stroke-width:1.0;" width="6" x="421.5" y="2115.1953"/><text fill="#000000" font-family="sans-serif" font-size="14" lengthAdjust="spacing" textLength="212" x="433.5" y="2121.542">_updateA11yProperties() : void</text></g><!--reverse link AbstractProviderPattern<P, C> to AbstractTimePicker<P, C>--><g id="link_AbstractProviderPattern&lt;P, C&gt;_AbstractTimePicker&lt;P, C&gt;"><path codeLine="75" d="M584.6037,608.7923 C595.9237,628.6223 598.37,632.93 609.64,652.67 " fill="none" id="AbstractProviderPattern&lt;P, C&gt;-backto-AbstractTimePicker&lt;P, C&gt;" style="stroke:#272B30;stroke-width:1.0;"/><polygon fill="none" points="575.68,593.16,579.393,611.7668,589.8145,605.8177,575.68,593.16" style="stroke:#272B30;stroke-width:1.0;"/></g><!--reverse link ITimePicker to AbstractTimePicker<P, C>--><g id="link_ITimePicker_AbstractTimePicker&lt;P, C&gt;"><path codeLine="97" d="M1015.1514,494.7638 C984.2114,548.8438 958.4,593.95 924.69,652.87 " fill="none" id="ITimePicker-backto-AbstractTimePicker&lt;P, C&gt;" style="stroke:#272B30;stroke-width:1.0;stroke-dasharray:7.0,7.0;"/><polygon fill="none" points="1024.09,479.14,1009.9435,491.7842,1020.3593,497.7433,1024.09,479.14" style="stroke:#272B30;stroke-width:1.0;"/></g><!--reverse link AbstractTimePicker<P, C> to OSUIFlatpickrTime--><g id="link_AbstractTimePicker&lt;P, C&gt;_OSUIFlatpickrTime"><path codeLine="150" d="M767,1224.23 C767,1243.74 767,1245.66 767,1265.75 " fill="none" id="AbstractTimePicker&lt;P, C&gt;-backto-OSUIFlatpickrTime" style="stroke:#272B30;stroke-width:1.0;"/><polygon fill="none" points="767,1206.23,761,1224.23,773,1224.23,767,1206.23" style="stroke:#272B30;stroke-width:1.0;"/></g><!--SRC=[xLXjRzis4FxkNq74NnpKBjPkm80W660xIIiWgOqc7R0DGq2B9vimHQeaPTTjyzztaYXRRvQppkdGTVdYy5vunxlZmySsIouZgcb8ne8QCzHQhSTAA4swBtz-EVlnXuufMuoKPg3RJQY_d6iLI-RCWY0esDJKFh2V6EqiE0C2OMGt90IxKCmKHG47WH8wCrPJtn8_YKHEXcvznqEOSdy9-dpQ9-DVJiYd3i6_BZTJhLQuZnvH0uoSaPbI0gZCr95JNgv0MdD39Ps3zgInLFg0njwqQE3qgUkpMSm5wvsYqKfnbidy1PLpG9y8jDtq8lVF6nh26S5CkPptIIxzbOeOnR5SIhMMrOt0NmuP0rPAmFGQpAOW6MxSPlWfhzi3-k3fTPjQ6QY4OTn4TIcyZwamTygxw4NKMj3IO_afJok5BaPGyYrc32qvO7ra9PY6EJSOOqo5cE44zI0vPhcmljETaSdjAv2WkRytX05xZRsAiP-zLTQ8NUQxi6YMrtMiPC3dfXULrtiQM71C6zAUhyksZtlnzp7iwjWdXguWtM5Rq7AWM3Q7AlUYiGPnnAW5JtBBgKXkKC_o41xfXY7nOYRLm8yRC0OhsLp3hNrnFFCgUZ9GPsHQM9MSkm6Nt2n6zRjMo0XlCI2sGDwXyWuQcARh_SvOlk6B5x-vIyl1j9hcyzTkzTg6ub90MB-9NIpG735aAgWDb0xJSco7EaBf5Kh7zKdk4weBq_R7dwtRkgRoZy3A4SfUwV3iELAcV2NKZ8f7d3grRZxtmrxOpli-pV3ZQs7tu9wQZVGzkL8-jLmXSA6zZCFPrY0gzgS20SCe4XnONXHIw5BkxHnGDQs8aX4dvObt5jcW5dOjxlbDFJT7U32E0lZ_FVZ-7qo_Tp3DiC9FC4wyRUZ6u7uEDatJGvBruGhVPsJrT9EDLHKLJwkuXuZ2H6M-XbFlaVDF6IiFUv_i3Ll8E0jQFSr3vz0xSVvvC6Zv3j3X4gq3Yg_1YRVJvk_BCswIgs2hoCFD1FbdLMf01AuRg7fzTtFjLlazpcu-oUkJYTUSOJjgugS5yph1_p9Mp_UZSpE7puXxLZzWeyqmudjWxrZeVYmEJ-NcIHw0Ou3zGOAE5wKqtkUVdpzlknQEX4rkttbN274HAdLYjILUGIxrP1JRPCxTo6_N-TmVucXAZjEnplkS7ZebJ1EdIIN_bD1rxVQGEz0-aFhWVgRO1jCGw9SXSvwTTvqCfzo2Oc9uwsibn5Y5eP8ZMD0LLt72xzvb3x8oF26I4vdPESTj8IUHDMXyLLYZjN5cMCHYrXVSq9ce5NDm_v4da5xAOPV2xwdo6oIBHyEhmwIo3RQU1g0k6RT9CzF68ZJcwpsu-EMG9c6zHRFgcFrBtDQg-Lp06_o6jO9yNB44cU2eVBW8aIrb-wg_NFWQ2iuvZFKUoSWJvApV0PHEQhEAmkJWjo30juwYzenRtQKFnWLcKYMvVvld7oBtBOp-EwBnXxXxrmrL4V27rchJGED7ZGzKrJ1f2sx0Px45qw34H17qg1uRa_u-NpVAKiBURffwM-3XzP_PCmfUfn9_0G00]--></g></svg>