<?xml version="1.0" encoding="UTF-8" standalone="no"?><svg xmlns="http://www.w3.org/2000/svg" xmlns:xlink="http://www.w3.org/1999/xlink" contentScriptType="application/ecmascript" contentStyleType="text/css" height="700px" preserveAspectRatio="none" style="width:1814px;height:700px;background:#CED4DA;" version="1.1" viewBox="0 0 1814 700" width="1814px" zoomAndPan="magnify"><defs><filter height="300%" id="fvf7fo5kjlvv1" width="300%" x="-1" y="-1"><feGaussianBlur result="blurOut" stdDeviation="2.0"/><feColorMatrix in="blurOut" result="blurOut2" type="matrix" values="0 0 0 0 0 0 0 0 0 0 0 0 0 0 0 0 0 0 .4 0"/><feOffset dx="4.0" dy="4.0" in="blurOut2" result="blurOut3"/><feBlend in="SourceGraphic" in2="blurOut3" mode="normal"/></filter></defs><g><!--MD5=[6720e1b98bdda1aecd6997eb2c2587d4]
class AbstractListener<T>--><rect codeLine="7" fill="#FFFFFF" filter="url(#fvf7fo5kjlvv1)" height="190.5059" id="AbstractListener&lt;T&gt;" style="stroke:#272B30;stroke-width:1.5;" width="293" x="757" y="232"/><ellipse cx="838.75" cy="248" fill="#A9DCDF" rx="11" ry="11" style="stroke:#272B30;stroke-width:1.0;"/><path d="M838.6133,243.3481 L837.4595,248.4199 L839.7754,248.4199 Z M837.1191,241.1069 L840.1157,241.1069 L843.4609,253.5 L841.0122,253.5 L840.2485,250.437 L836.9697,250.437 L836.2227,253.5 L833.7739,253.5 Z " fill="#000000"/><text fill="#000000" font-family="sans-serif" font-size="12" font-style="italic" lengthAdjust="spacing" textLength="121" x="859.25" y="252.5352">AbstractListener&lt;T&gt;</text><line style="stroke:#272B30;stroke-width:1.5;" x1="758" x2="1049" y1="264" y2="264"/><polygon fill="none" points="768,270,772,274,768,278,764,274" style="stroke:#B38D22;stroke-width:1.0;"/><text fill="#000000" font-family="sans-serif" font-size="11" lengthAdjust="spacing" textLength="190" x="777" y="278.6348">eventCallback : EventListenerObject</text><polygon fill="none" points="768,282.9551,772,286.9551,768,290.9551,764,286.9551" style="stroke:#B38D22;stroke-width:1.0;"/><text fill="#000000" font-family="sans-serif" font-size="11" lengthAdjust="spacing" textLength="114" x="777" y="291.5898">useCapture : boolean</text><rect fill="none" height="6" style="stroke:#C82930;stroke-width:1.0;" width="6" x="765" y="297.9102"/><text fill="#000000" font-family="sans-serif" font-size="11" lengthAdjust="spacing" textLength="106" x="777" y="304.5449">_eventName : string</text><rect fill="none" height="6" style="stroke:#C82930;stroke-width:1.0;" width="6" x="765" y="310.8652"/><text fill="#000000" font-family="sans-serif" font-size="11" lengthAdjust="spacing" textLength="267" x="777" y="317.5">_eventTarget : HTMLElement | Document | Window</text><rect fill="none" height="6" style="stroke:#C82930;stroke-width:1.0;" width="6" x="765" y="323.8203"/><text fill="#000000" font-family="sans-serif" font-size="11" lengthAdjust="spacing" textLength="231" x="777" y="330.4551">_eventType : HTMLEvent | BalloonOnToggle</text><line style="stroke:#272B30;stroke-width:1.5;" x1="758" x2="1049" y1="336.7754" y2="336.7754"/><ellipse cx="768" cy="347.7754" fill="#84BE84" rx="3" ry="3" style="stroke:#038048;stroke-width:1.0;"/><text fill="#000000" font-family="sans-serif" font-size="11" lengthAdjust="spacing" textLength="89" x="777" y="351.4102">addEvent() : void</text><ellipse cx="768" cy="360.7305" fill="#84BE84" rx="3" ry="3" style="stroke:#038048;stroke-width:1.0;"/><text fill="#000000" font-family="sans-serif" font-size="11" lengthAdjust="spacing" textLength="205" x="777" y="364.3652">addHandler(handler: OSGeneric) : void</text><ellipse cx="768" cy="373.6855" fill="#84BE84" rx="3" ry="3" style="stroke:#038048;stroke-width:1.0;"/><text fill="#000000" font-family="sans-serif" font-size="11" lengthAdjust="spacing" textLength="127" x="777" y="377.3203">hasHandlers() : boolean</text><ellipse cx="768" cy="386.6406" fill="#84BE84" rx="3" ry="3" style="stroke:#038048;stroke-width:1.0;"/><text fill="#000000" font-family="sans-serif" font-size="11" lengthAdjust="spacing" textLength="109" x="777" y="390.2754">removeEvent() : void</text><ellipse cx="768" cy="399.5957" fill="#84BE84" rx="3" ry="3" style="stroke:#038048;stroke-width:1.0;"/><text fill="#000000" font-family="sans-serif" font-size="11" lengthAdjust="spacing" textLength="225" x="777" y="403.2305">removeHandler(handler: OSGeneric) : void</text><ellipse cx="768" cy="412.5508" fill="#84BE84" rx="3" ry="3" style="stroke:#038048;stroke-width:1.0;"/><text fill="#000000" font-family="sans-serif" font-size="11" lengthAdjust="spacing" textLength="206" x="777" y="416.1855">trigger(data: T, args: unknown[]) : void</text><!--MD5=[b34db940d64e2f9919e2291db51dfe71]
class AbstractEvent<T>--><rect codeLine="20" fill="#FFFFFF" filter="url(#fvf7fo5kjlvv1)" height="138.6855" id="AbstractEvent&lt;T&gt;" style="stroke:#272B30;stroke-width:1.5;" width="251" x="623" y="20"/><ellipse cx="690.75" cy="36" fill="#A9DCDF" rx="11" ry="11" style="stroke:#272B30;stroke-width:1.0;"/><path d="M690.6133,31.3481 L689.4595,36.4199 L691.7754,36.4199 Z M689.1191,29.1069 L692.1157,29.1069 L695.4609,41.5 L693.0122,41.5 L692.2485,38.437 L688.9697,38.437 L688.2227,41.5 L685.7739,41.5 Z " fill="#000000"/><text fill="#000000" font-family="sans-serif" font-size="12" font-style="italic" lengthAdjust="spacing" textLength="107" x="711.25" y="40.5352">AbstractEvent&lt;T&gt;</text><line style="stroke:#272B30;stroke-width:1.5;" x1="624" x2="873" y1="52" y2="52"/><rect fill="none" height="6" style="stroke:#C82930;stroke-width:1.0;" width="6" x="631" y="60"/><text fill="#000000" font-family="sans-serif" font-size="11" lengthAdjust="spacing" textLength="126" x="643" y="66.6348">_handlers : OSGeneric[]</text><line style="stroke:#272B30;stroke-width:1.5;" x1="624" x2="873" y1="72.9551" y2="72.9551"/><ellipse cx="634" cy="83.9551" fill="#84BE84" rx="3" ry="3" style="stroke:#038048;stroke-width:1.0;"/><text fill="#000000" font-family="sans-serif" font-size="11" font-style="italic" lengthAdjust="spacing" textLength="89" x="643" y="87.5898">addEvent() : void</text><ellipse cx="634" cy="96.9102" fill="#84BE84" rx="3" ry="3" style="stroke:#038048;stroke-width:1.0;"/><text fill="#000000" font-family="sans-serif" font-size="11" lengthAdjust="spacing" textLength="205" x="643" y="100.5449">addHandler(handler: OSGeneric) : void</text><ellipse cx="634" cy="109.8652" fill="#84BE84" rx="3" ry="3" style="stroke:#038048;stroke-width:1.0;"/><text fill="#000000" font-family="sans-serif" font-size="11" lengthAdjust="spacing" textLength="127" x="643" y="113.5">hasHandlers() : boolean</text><ellipse cx="634" cy="122.8203" fill="#84BE84" rx="3" ry="3" style="stroke:#038048;stroke-width:1.0;"/><text fill="#000000" font-family="sans-serif" font-size="11" font-style="italic" lengthAdjust="spacing" textLength="109" x="643" y="126.4551">removeEvent() : void</text><ellipse cx="634" cy="135.7754" fill="#84BE84" rx="3" ry="3" style="stroke:#038048;stroke-width:1.0;"/><text fill="#000000" font-family="sans-serif" font-size="11" lengthAdjust="spacing" textLength="225" x="643" y="139.4102">removeHandler(handler: OSGeneric) : void</text><ellipse cx="634" cy="148.7305" fill="#84BE84" rx="3" ry="3" style="stroke:#038048;stroke-width:1.0;"/><text fill="#000000" font-family="sans-serif" font-size="11" lengthAdjust="spacing" textLength="206" x="643" y="152.3652">trigger(data: T, args: unknown[]) : void</text><!--MD5=[4b5526c0eeddf33290291ea40b068ad5]
class IListener--><rect codeLine="30" fill="#FFFFFF" filter="url(#fvf7fo5kjlvv1)" height="164.5957" id="IListener" style="stroke:#272B30;stroke-width:1.5;" width="300" x="909.5" y="7"/><ellipse cx="1031.25" cy="23" fill="#B4A7E5" rx="11" ry="11" style="stroke:#272B30;stroke-width:1.0;"/><path d="M1027.6777,19.2651 L1027.6777,17.1069 L1035.0571,17.1069 L1035.0571,19.2651 L1032.5918,19.2651 L1032.5918,27.3418 L1035.0571,27.3418 L1035.0571,29.5 L1027.6777,29.5 L1027.6777,27.3418 L1030.1431,27.3418 L1030.1431,19.2651 Z " fill="#000000"/><text fill="#000000" font-family="sans-serif" font-size="12" font-style="italic" lengthAdjust="spacing" textLength="48" x="1051.75" y="27.5352">IListener</text><line style="stroke:#272B30;stroke-width:1.5;" x1="910.5" x2="1208.5" y1="39" y2="39"/><ellipse cx="920.5" cy="50" rx="3" ry="3" style="stroke:#038048;stroke-width:1.0;fill:none;"/><text fill="#000000" font-family="sans-serif" font-size="11" lengthAdjust="spacing" textLength="120" x="929.5" y="53.6348">handlers : OSGeneric[]</text><line style="stroke:#272B30;stroke-width:1.5;" x1="910.5" x2="1208.5" y1="59.9551" y2="59.9551"/><ellipse cx="920.5" cy="70.9551" fill="#84BE84" rx="3" ry="3" style="stroke:#038048;stroke-width:1.0;"/><text fill="#000000" font-family="sans-serif" font-size="11" lengthAdjust="spacing" textLength="89" x="929.5" y="74.5898">addEvent() : void</text><ellipse cx="920.5" cy="83.9102" fill="#84BE84" rx="3" ry="3" style="stroke:#038048;stroke-width:1.0;"/><text fill="#000000" font-family="sans-serif" font-size="11" lengthAdjust="spacing" textLength="268" x="929.5" y="87.5449">addHandler(handler: OSGeneric, args: any[]) : void</text><ellipse cx="920.5" cy="96.8652" fill="#84BE84" rx="3" ry="3" style="stroke:#038048;stroke-width:1.0;"/><text fill="#000000" font-family="sans-serif" font-size="11" lengthAdjust="spacing" textLength="159" x="929.5" y="100.5">disableBodyClickEvent() : void</text><ellipse cx="920.5" cy="109.8203" fill="#84BE84" rx="3" ry="3" style="stroke:#038048;stroke-width:1.0;"/><text fill="#000000" font-family="sans-serif" font-size="11" lengthAdjust="spacing" textLength="156" x="929.5" y="113.4551">enableBodyClickEvent() : void</text><ellipse cx="920.5" cy="122.7754" fill="#84BE84" rx="3" ry="3" style="stroke:#038048;stroke-width:1.0;"/><text fill="#000000" font-family="sans-serif" font-size="11" lengthAdjust="spacing" textLength="127" x="929.5" y="126.4102">hasHandlers() : boolean</text><ellipse cx="920.5" cy="135.7305" fill="#84BE84" rx="3" ry="3" style="stroke:#038048;stroke-width:1.0;"/><text fill="#000000" font-family="sans-serif" font-size="11" lengthAdjust="spacing" textLength="109" x="929.5" y="139.3652">removeEvent() : void</text><ellipse cx="920.5" cy="148.6855" fill="#84BE84" rx="3" ry="3" style="stroke:#038048;stroke-width:1.0;"/><text fill="#000000" font-family="sans-serif" font-size="11" lengthAdjust="spacing" textLength="225" x="929.5" y="152.3203">removeHandler(handler: OSGeneric) : void</text><ellipse cx="920.5" cy="161.6406" fill="#84BE84" rx="3" ry="3" style="stroke:#038048;stroke-width:1.0;"/><text fill="#000000" font-family="sans-serif" font-size="11" lengthAdjust="spacing" textLength="274" x="929.5" y="165.2754">trigger(data: unknown, args: unknown[]) : unknown</text><!--MD5=[45c930f37b244302e43e19bec5e3424b]
class BalloonOnToggle--><rect codeLine="42" fill="#FFFFFF" filter="url(#fvf7fo5kjlvv1)" height="164.5957" id="BalloonOnToggle" style="stroke:#272B30;stroke-width:1.5;" width="293" x="9" y="502"/><ellipse cx="103.25" cy="518" fill="#ADD1B2" rx="11" ry="11" style="stroke:#272B30;stroke-width:1.0;"/><path d="M105.7231,524.1431 Q105.1421,524.4419 104.5029,524.5913 Q103.8638,524.7407 103.1582,524.7407 Q100.6514,524.7407 99.3315,523.0889 Q98.0117,521.437 98.0117,518.3159 Q98.0117,515.1865 99.3315,513.5347 Q100.6514,511.8828 103.1582,511.8828 Q103.8638,511.8828 104.5112,512.0322 Q105.1587,512.1816 105.7231,512.4805 L105.7231,515.2031 Q105.0923,514.6221 104.4988,514.3523 Q103.9053,514.0825 103.2744,514.0825 Q101.9297,514.0825 101.2449,515.1492 Q100.5601,516.2158 100.5601,518.3159 Q100.5601,520.4077 101.2449,521.4744 Q101.9297,522.541 103.2744,522.541 Q103.9053,522.541 104.4988,522.2712 Q105.0923,522.0015 105.7231,521.4204 Z " fill="#000000"/><text fill="#000000" font-family="sans-serif" font-size="12" lengthAdjust="spacing" textLength="96" x="123.75" y="522.5352">BalloonOnToggle</text><line style="stroke:#272B30;stroke-width:1.5;" x1="10" x2="301" y1="534" y2="534"/><polygon fill="none" points="20,540,24,544,20,548,16,544" style="stroke:#B38D22;stroke-width:1.0;"/><text fill="#000000" font-family="sans-serif" font-size="11" lengthAdjust="spacing" textLength="190" x="29" y="548.6348">eventCallback : EventListenerObject</text><polygon fill="none" points="20,552.9551,24,556.9551,20,560.9551,16,556.9551" style="stroke:#B38D22;stroke-width:1.0;"/><text fill="#000000" font-family="sans-serif" font-size="11" lengthAdjust="spacing" textLength="114" x="29" y="561.5898">useCapture : boolean</text><line style="stroke:#272B30;stroke-width:1.5;" x1="10" x2="301" y1="567.9102" y2="567.9102"/><ellipse cx="20" cy="578.9102" fill="#84BE84" rx="3" ry="3" style="stroke:#038048;stroke-width:1.0;"/><text fill="#000000" font-family="sans-serif" font-size="11" lengthAdjust="spacing" textLength="89" x="29" y="582.5449">addEvent() : void</text><ellipse cx="20" cy="591.8652" fill="#84BE84" rx="3" ry="3" style="stroke:#038048;stroke-width:1.0;"/><text fill="#000000" font-family="sans-serif" font-size="11" lengthAdjust="spacing" textLength="205" x="29" y="595.5">addHandler(handler: OSGeneric) : void</text><ellipse cx="20" cy="604.8203" fill="#84BE84" rx="3" ry="3" style="stroke:#038048;stroke-width:1.0;"/><text fill="#000000" font-family="sans-serif" font-size="11" lengthAdjust="spacing" textLength="127" x="29" y="608.4551">hasHandlers() : boolean</text><ellipse cx="20" cy="617.7754" fill="#84BE84" rx="3" ry="3" style="stroke:#038048;stroke-width:1.0;"/><text fill="#000000" font-family="sans-serif" font-size="11" lengthAdjust="spacing" textLength="109" x="29" y="621.4102">removeEvent() : void</text><ellipse cx="20" cy="630.7305" fill="#84BE84" rx="3" ry="3" style="stroke:#038048;stroke-width:1.0;"/><text fill="#000000" font-family="sans-serif" font-size="11" lengthAdjust="spacing" textLength="225" x="29" y="634.3652">removeHandler(handler: OSGeneric) : void</text><ellipse cx="20" cy="643.6855" fill="#84BE84" rx="3" ry="3" style="stroke:#038048;stroke-width:1.0;"/><text fill="#000000" font-family="sans-serif" font-size="11" lengthAdjust="spacing" textLength="231" x="29" y="647.3203">trigger(data: string, args: unknown[]) : void</text><rect fill="#F24D5C" height="6" style="stroke:#C82930;stroke-width:1.0;" width="6" x="17" y="653.6406"/><text fill="#000000" font-family="sans-serif" font-size="11" lengthAdjust="spacing" textLength="267" x="29" y="660.2754">_onToggleTrigger(evt: CustomEvent&lt;any&gt;) : void</text><!--MD5=[c175eb58d2f43432ba7d33f94acc81ba]
class BodyOnClick--><rect codeLine="54" fill="#FFFFFF" filter="url(#fvf7fo5kjlvv1)" height="203.4609" id="BodyOnClick" style="stroke:#272B30;stroke-width:1.5;" width="257" x="337" y="483"/><ellipse cx="425.75" cy="499" fill="#ADD1B2" rx="11" ry="11" style="stroke:#272B30;stroke-width:1.0;"/><path d="M428.2231,505.1431 Q427.6421,505.4419 427.0029,505.5913 Q426.3638,505.7407 425.6582,505.7407 Q423.1514,505.7407 421.8315,504.0889 Q420.5117,502.437 420.5117,499.3159 Q420.5117,496.1865 421.8315,494.5347 Q423.1514,492.8828 425.6582,492.8828 Q426.3638,492.8828 427.0112,493.0322 Q427.6587,493.1816 428.2231,493.4805 L428.2231,496.2031 Q427.5923,495.6221 426.9988,495.3523 Q426.4053,495.0825 425.7744,495.0825 Q424.4297,495.0825 423.7449,496.1492 Q423.0601,497.2158 423.0601,499.3159 Q423.0601,501.4077 423.7449,502.4744 Q424.4297,503.541 425.7744,503.541 Q426.4053,503.541 426.9988,503.2712 Q427.5923,503.0015 428.2231,502.4204 Z " fill="#000000"/><text fill="#000000" font-family="sans-serif" font-size="12" lengthAdjust="spacing" textLength="71" x="446.25" y="503.5352">BodyOnClick</text><line style="stroke:#272B30;stroke-width:1.5;" x1="338" x2="593" y1="515" y2="515"/><polygon fill="none" points="348,521,352,525,348,529,344,525" style="stroke:#B38D22;stroke-width:1.0;"/><text fill="#000000" font-family="sans-serif" font-size="11" lengthAdjust="spacing" textLength="190" x="357" y="529.6348">eventCallback : EventListenerObject</text><polygon fill="none" points="348,533.9551,352,537.9551,348,541.9551,344,537.9551" style="stroke:#B38D22;stroke-width:1.0;"/><text fill="#000000" font-family="sans-serif" font-size="11" lengthAdjust="spacing" textLength="114" x="357" y="542.5898">useCapture : boolean</text><rect fill="none" height="6" style="stroke:#C82930;stroke-width:1.0;" width="6" x="345" y="548.9102"/><text fill="#000000" font-family="sans-serif" font-size="11" lengthAdjust="spacing" textLength="145" x="357" y="555.5449">_enableBodyClick : boolean</text><line style="stroke:#272B30;stroke-width:1.5;" x1="338" x2="593" y1="561.8652" y2="561.8652"/><ellipse cx="348" cy="572.8652" fill="#84BE84" rx="3" ry="3" style="stroke:#038048;stroke-width:1.0;"/><text fill="#000000" font-family="sans-serif" font-size="11" lengthAdjust="spacing" textLength="89" x="357" y="576.5">addEvent() : void</text><ellipse cx="348" cy="585.8203" fill="#84BE84" rx="3" ry="3" style="stroke:#038048;stroke-width:1.0;"/><text fill="#000000" font-family="sans-serif" font-size="11" lengthAdjust="spacing" textLength="205" x="357" y="589.4551">addHandler(handler: OSGeneric) : void</text><ellipse cx="348" cy="598.7754" fill="#84BE84" rx="3" ry="3" style="stroke:#038048;stroke-width:1.0;"/><text fill="#000000" font-family="sans-serif" font-size="11" lengthAdjust="spacing" textLength="159" x="357" y="602.4102">disableBodyClickEvent() : void</text><ellipse cx="348" cy="611.7305" fill="#84BE84" rx="3" ry="3" style="stroke:#038048;stroke-width:1.0;"/><text fill="#000000" font-family="sans-serif" font-size="11" lengthAdjust="spacing" textLength="156" x="357" y="615.3652">enableBodyClickEvent() : void</text><ellipse cx="348" cy="624.6855" fill="#84BE84" rx="3" ry="3" style="stroke:#038048;stroke-width:1.0;"/><text fill="#000000" font-family="sans-serif" font-size="11" lengthAdjust="spacing" textLength="127" x="357" y="628.3203">hasHandlers() : boolean</text><ellipse cx="348" cy="637.6406" fill="#84BE84" rx="3" ry="3" style="stroke:#038048;stroke-width:1.0;"/><text fill="#000000" font-family="sans-serif" font-size="11" lengthAdjust="spacing" textLength="109" x="357" y="641.2754">removeEvent() : void</text><ellipse cx="348" cy="650.5957" fill="#84BE84" rx="3" ry="3" style="stroke:#038048;stroke-width:1.0;"/><text fill="#000000" font-family="sans-serif" font-size="11" lengthAdjust="spacing" textLength="225" x="357" y="654.2305">removeHandler(handler: OSGeneric) : void</text><ellipse cx="348" cy="663.5508" fill="#84BE84" rx="3" ry="3" style="stroke:#038048;stroke-width:1.0;"/><text fill="#000000" font-family="sans-serif" font-size="11" lengthAdjust="spacing" textLength="231" x="357" y="667.1855">trigger(data: string, args: unknown[]) : void</text><rect fill="#F24D5C" height="6" style="stroke:#C82930;stroke-width:1.0;" width="6" x="345" y="673.5059"/><text fill="#000000" font-family="sans-serif" font-size="11" lengthAdjust="spacing" textLength="202" x="357" y="680.1406">_bodyTrigger(evt: PointerEvent) : void</text><!--MD5=[806d9c77c553b6fc086ce8613a144d4d]
class BodyOnMouseDown--><rect codeLine="69" fill="#FFFFFF" filter="url(#fvf7fo5kjlvv1)" height="164.5957" id="BodyOnMouseDown" style="stroke:#272B30;stroke-width:1.5;" width="257" x="629" y="502"/><ellipse cx="696.75" cy="518" fill="#ADD1B2" rx="11" ry="11" style="stroke:#272B30;stroke-width:1.0;"/><path d="M699.2231,524.1431 Q698.6421,524.4419 698.0029,524.5913 Q697.3638,524.7407 696.6582,524.7407 Q694.1514,524.7407 692.8315,523.0889 Q691.5117,521.437 691.5117,518.3159 Q691.5117,515.1865 692.8315,513.5347 Q694.1514,511.8828 696.6582,511.8828 Q697.3638,511.8828 698.0112,512.0322 Q698.6587,512.1816 699.2231,512.4805 L699.2231,515.2031 Q698.5923,514.6221 697.9988,514.3523 Q697.4053,514.0825 696.7744,514.0825 Q695.4297,514.0825 694.7449,515.1492 Q694.0601,516.2158 694.0601,518.3159 Q694.0601,520.4077 694.7449,521.4744 Q695.4297,522.541 696.7744,522.541 Q697.4053,522.541 697.9988,522.2712 Q698.5923,522.0015 699.2231,521.4204 Z " fill="#000000"/><text fill="#000000" font-family="sans-serif" font-size="12" lengthAdjust="spacing" textLength="113" x="717.25" y="522.5352">BodyOnMouseDown</text><line style="stroke:#272B30;stroke-width:1.5;" x1="630" x2="885" y1="534" y2="534"/><polygon fill="none" points="640,540,644,544,640,548,636,544" style="stroke:#B38D22;stroke-width:1.0;"/><text fill="#000000" font-family="sans-serif" font-size="11" lengthAdjust="spacing" textLength="190" x="649" y="548.6348">eventCallback : EventListenerObject</text><polygon fill="none" points="640,552.9551,644,556.9551,640,560.9551,636,556.9551" style="stroke:#B38D22;stroke-width:1.0;"/><text fill="#000000" font-family="sans-serif" font-size="11" lengthAdjust="spacing" textLength="114" x="649" y="561.5898">useCapture : boolean</text><line style="stroke:#272B30;stroke-width:1.5;" x1="630" x2="885" y1="567.9102" y2="567.9102"/><ellipse cx="640" cy="578.9102" fill="#84BE84" rx="3" ry="3" style="stroke:#038048;stroke-width:1.0;"/><text fill="#000000" font-family="sans-serif" font-size="11" lengthAdjust="spacing" textLength="89" x="649" y="582.5449">addEvent() : void</text><ellipse cx="640" cy="591.8652" fill="#84BE84" rx="3" ry="3" style="stroke:#038048;stroke-width:1.0;"/><text fill="#000000" font-family="sans-serif" font-size="11" lengthAdjust="spacing" textLength="205" x="649" y="595.5">addHandler(handler: OSGeneric) : void</text><ellipse cx="640" cy="604.8203" fill="#84BE84" rx="3" ry="3" style="stroke:#038048;stroke-width:1.0;"/><text fill="#000000" font-family="sans-serif" font-size="11" lengthAdjust="spacing" textLength="127" x="649" y="608.4551">hasHandlers() : boolean</text><ellipse cx="640" cy="617.7754" fill="#84BE84" rx="3" ry="3" style="stroke:#038048;stroke-width:1.0;"/><text fill="#000000" font-family="sans-serif" font-size="11" lengthAdjust="spacing" textLength="109" x="649" y="621.4102">removeEvent() : void</text><ellipse cx="640" cy="630.7305" fill="#84BE84" rx="3" ry="3" style="stroke:#038048;stroke-width:1.0;"/><text fill="#000000" font-family="sans-serif" font-size="11" lengthAdjust="spacing" textLength="225" x="649" y="634.3652">removeHandler(handler: OSGeneric) : void</text><ellipse cx="640" cy="643.6855" fill="#84BE84" rx="3" ry="3" style="stroke:#038048;stroke-width:1.0;"/><text fill="#000000" font-family="sans-serif" font-size="11" lengthAdjust="spacing" textLength="231" x="649" y="647.3203">trigger(data: string, args: unknown[]) : void</text><rect fill="#F24D5C" height="6" style="stroke:#C82930;stroke-width:1.0;" width="6" x="637" y="653.6406"/><text fill="#000000" font-family="sans-serif" font-size="11" lengthAdjust="spacing" textLength="202" x="649" y="660.2754">_bodyTrigger(evt: PointerEvent) : void</text><!--MD5=[830c8b07968a2df2e4eb8d8684addd7c]
class BodyOnScroll--><rect codeLine="81" fill="#FFFFFF" filter="url(#fvf7fo5kjlvv1)" height="164.5957" id="BodyOnScroll" style="stroke:#272B30;stroke-width:1.5;" width="257" x="921" y="502"/><ellipse cx="1008.25" cy="518" fill="#ADD1B2" rx="11" ry="11" style="stroke:#272B30;stroke-width:1.0;"/><path d="M1010.7231,524.1431 Q1010.1421,524.4419 1009.5029,524.5913 Q1008.8638,524.7407 1008.1582,524.7407 Q1005.6514,524.7407 1004.3315,523.0889 Q1003.0117,521.437 1003.0117,518.3159 Q1003.0117,515.1865 1004.3315,513.5347 Q1005.6514,511.8828 1008.1582,511.8828 Q1008.8638,511.8828 1009.5112,512.0322 Q1010.1587,512.1816 1010.7231,512.4805 L1010.7231,515.2031 Q1010.0923,514.6221 1009.4988,514.3523 Q1008.9053,514.0825 1008.2744,514.0825 Q1006.9297,514.0825 1006.2449,515.1492 Q1005.5601,516.2158 1005.5601,518.3159 Q1005.5601,520.4077 1006.2449,521.4744 Q1006.9297,522.541 1008.2744,522.541 Q1008.9053,522.541 1009.4988,522.2712 Q1010.0923,522.0015 1010.7231,521.4204 Z " fill="#000000"/><text fill="#000000" font-family="sans-serif" font-size="12" lengthAdjust="spacing" textLength="74" x="1028.75" y="522.5352">BodyOnScroll</text><line style="stroke:#272B30;stroke-width:1.5;" x1="922" x2="1177" y1="534" y2="534"/><polygon fill="none" points="932,540,936,544,932,548,928,544" style="stroke:#B38D22;stroke-width:1.0;"/><text fill="#000000" font-family="sans-serif" font-size="11" lengthAdjust="spacing" textLength="190" x="941" y="548.6348">eventCallback : EventListenerObject</text><polygon fill="none" points="932,552.9551,936,556.9551,932,560.9551,928,556.9551" style="stroke:#B38D22;stroke-width:1.0;"/><text fill="#000000" font-family="sans-serif" font-size="11" lengthAdjust="spacing" textLength="114" x="941" y="561.5898">useCapture : boolean</text><line style="stroke:#272B30;stroke-width:1.5;" x1="922" x2="1177" y1="567.9102" y2="567.9102"/><ellipse cx="932" cy="578.9102" fill="#84BE84" rx="3" ry="3" style="stroke:#038048;stroke-width:1.0;"/><text fill="#000000" font-family="sans-serif" font-size="11" lengthAdjust="spacing" textLength="89" x="941" y="582.5449">addEvent() : void</text><ellipse cx="932" cy="591.8652" fill="#84BE84" rx="3" ry="3" style="stroke:#038048;stroke-width:1.0;"/><text fill="#000000" font-family="sans-serif" font-size="11" lengthAdjust="spacing" textLength="205" x="941" y="595.5">addHandler(handler: OSGeneric) : void</text><ellipse cx="932" cy="604.8203" fill="#84BE84" rx="3" ry="3" style="stroke:#038048;stroke-width:1.0;"/><text fill="#000000" font-family="sans-serif" font-size="11" lengthAdjust="spacing" textLength="127" x="941" y="608.4551">hasHandlers() : boolean</text><ellipse cx="932" cy="617.7754" fill="#84BE84" rx="3" ry="3" style="stroke:#038048;stroke-width:1.0;"/><text fill="#000000" font-family="sans-serif" font-size="11" lengthAdjust="spacing" textLength="109" x="941" y="621.4102">removeEvent() : void</text><ellipse cx="932" cy="630.7305" fill="#84BE84" rx="3" ry="3" style="stroke:#038048;stroke-width:1.0;"/><text fill="#000000" font-family="sans-serif" font-size="11" lengthAdjust="spacing" textLength="225" x="941" y="634.3652">removeHandler(handler: OSGeneric) : void</text><ellipse cx="932" cy="643.6855" fill="#84BE84" rx="3" ry="3" style="stroke:#038048;stroke-width:1.0;"/><text fill="#000000" font-family="sans-serif" font-size="11" lengthAdjust="spacing" textLength="231" x="941" y="647.3203">trigger(data: string, args: unknown[]) : void</text><rect fill="#F24D5C" height="6" style="stroke:#C82930;stroke-width:1.0;" width="6" x="929" y="653.6406"/><text fill="#000000" font-family="sans-serif" font-size="11" lengthAdjust="spacing" textLength="164" x="941" y="660.2754">_bodyTrigger(evt: Event) : void</text><!--MD5=[a6511191e08b4cc3c43deebe64ad29c8]
class OrientationChange--><rect codeLine="93" fill="#FFFFFF" filter="url(#fvf7fo5kjlvv1)" height="164.5957" id="OrientationChange" style="stroke:#272B30;stroke-width:1.5;" width="295" x="1213" y="502"/><ellipse cx="1303.25" cy="518" fill="#ADD1B2" rx="11" ry="11" style="stroke:#272B30;stroke-width:1.0;"/><path d="M1305.7231,524.1431 Q1305.1421,524.4419 1304.5029,524.5913 Q1303.8638,524.7407 1303.1582,524.7407 Q1300.6514,524.7407 1299.3315,523.0889 Q1298.0117,521.437 1298.0117,518.3159 Q1298.0117,515.1865 1299.3315,513.5347 Q1300.6514,511.8828 1303.1582,511.8828 Q1303.8638,511.8828 1304.5112,512.0322 Q1305.1587,512.1816 1305.7231,512.4805 L1305.7231,515.2031 Q1305.0923,514.6221 1304.4988,514.3523 Q1303.9053,514.0825 1303.2744,514.0825 Q1301.9297,514.0825 1301.2449,515.1492 Q1300.5601,516.2158 1300.5601,518.3159 Q1300.5601,520.4077 1301.2449,521.4744 Q1301.9297,522.541 1303.2744,522.541 Q1303.9053,522.541 1304.4988,522.2712 Q1305.0923,522.0015 1305.7231,521.4204 Z " fill="#000000"/><text fill="#000000" font-family="sans-serif" font-size="12" lengthAdjust="spacing" textLength="106" x="1323.75" y="522.5352">OrientationChange</text><line style="stroke:#272B30;stroke-width:1.5;" x1="1214" x2="1507" y1="534" y2="534"/><polygon fill="none" points="1224,540,1228,544,1224,548,1220,544" style="stroke:#B38D22;stroke-width:1.0;"/><text fill="#000000" font-family="sans-serif" font-size="11" lengthAdjust="spacing" textLength="190" x="1233" y="548.6348">eventCallback : EventListenerObject</text><polygon fill="none" points="1224,552.9551,1228,556.9551,1224,560.9551,1220,556.9551" style="stroke:#B38D22;stroke-width:1.0;"/><text fill="#000000" font-family="sans-serif" font-size="11" lengthAdjust="spacing" textLength="114" x="1233" y="561.5898">useCapture : boolean</text><line style="stroke:#272B30;stroke-width:1.5;" x1="1214" x2="1507" y1="567.9102" y2="567.9102"/><ellipse cx="1224" cy="578.9102" fill="#84BE84" rx="3" ry="3" style="stroke:#038048;stroke-width:1.0;"/><text fill="#000000" font-family="sans-serif" font-size="11" lengthAdjust="spacing" textLength="89" x="1233" y="582.5449">addEvent() : void</text><ellipse cx="1224" cy="591.8652" fill="#84BE84" rx="3" ry="3" style="stroke:#038048;stroke-width:1.0;"/><text fill="#000000" font-family="sans-serif" font-size="11" lengthAdjust="spacing" textLength="205" x="1233" y="595.5">addHandler(handler: OSGeneric) : void</text><ellipse cx="1224" cy="604.8203" fill="#84BE84" rx="3" ry="3" style="stroke:#038048;stroke-width:1.0;"/><text fill="#000000" font-family="sans-serif" font-size="11" lengthAdjust="spacing" textLength="127" x="1233" y="608.4551">hasHandlers() : boolean</text><ellipse cx="1224" cy="617.7754" fill="#84BE84" rx="3" ry="3" style="stroke:#038048;stroke-width:1.0;"/><text fill="#000000" font-family="sans-serif" font-size="11" lengthAdjust="spacing" textLength="109" x="1233" y="621.4102">removeEvent() : void</text><ellipse cx="1224" cy="630.7305" fill="#84BE84" rx="3" ry="3" style="stroke:#038048;stroke-width:1.0;"/><text fill="#000000" font-family="sans-serif" font-size="11" lengthAdjust="spacing" textLength="225" x="1233" y="634.3652">removeHandler(handler: OSGeneric) : void</text><ellipse cx="1224" cy="643.6855" fill="#84BE84" rx="3" ry="3" style="stroke:#038048;stroke-width:1.0;"/><text fill="#000000" font-family="sans-serif" font-size="11" lengthAdjust="spacing" textLength="231" x="1233" y="647.3203">trigger(data: string, args: unknown[]) : void</text><rect fill="#F24D5C" height="6" style="stroke:#C82930;stroke-width:1.0;" width="6" x="1221" y="653.6406"/><text fill="#000000" font-family="sans-serif" font-size="11" lengthAdjust="spacing" textLength="269" x="1233" y="660.2754">_orientationTrigger(evt: OrientationChange) : void</text><!--MD5=[cd84bac72777306b7212405d8f5fec3a]
class WindowResize--><rect codeLine="105" fill="#FFFFFF" filter="url(#fvf7fo5kjlvv1)" height="177.5508" id="WindowResize" style="stroke:#272B30;stroke-width:1.5;" width="257" x="1543" y="495.5"/><ellipse cx="1626.25" cy="511.5" fill="#ADD1B2" rx="11" ry="11" style="stroke:#272B30;stroke-width:1.0;"/><path d="M1628.7231,517.6431 Q1628.1421,517.9419 1627.5029,518.0913 Q1626.8638,518.2407 1626.1582,518.2407 Q1623.6514,518.2407 1622.3315,516.5889 Q1621.0117,514.937 1621.0117,511.8159 Q1621.0117,508.6865 1622.3315,507.0347 Q1623.6514,505.3828 1626.1582,505.3828 Q1626.8638,505.3828 1627.5112,505.5322 Q1628.1587,505.6816 1628.7231,505.9805 L1628.7231,508.7031 Q1628.0923,508.1221 1627.4988,507.8523 Q1626.9053,507.5825 1626.2744,507.5825 Q1624.9297,507.5825 1624.2449,508.6492 Q1623.5601,509.7158 1623.5601,511.8159 Q1623.5601,513.9077 1624.2449,514.9744 Q1624.9297,516.041 1626.2744,516.041 Q1626.9053,516.041 1627.4988,515.7712 Q1628.0923,515.5015 1628.7231,514.9204 Z " fill="#000000"/><text fill="#000000" font-family="sans-serif" font-size="12" lengthAdjust="spacing" textLength="82" x="1646.75" y="516.0352">WindowResize</text><line style="stroke:#272B30;stroke-width:1.5;" x1="1544" x2="1799" y1="527.5" y2="527.5"/><polygon fill="none" points="1554,533.5,1558,537.5,1554,541.5,1550,537.5" style="stroke:#B38D22;stroke-width:1.0;"/><text fill="#000000" font-family="sans-serif" font-size="11" lengthAdjust="spacing" textLength="190" x="1563" y="542.1348">eventCallback : EventListenerObject</text><polygon fill="none" points="1554,546.4551,1558,550.4551,1554,554.4551,1550,550.4551" style="stroke:#B38D22;stroke-width:1.0;"/><text fill="#000000" font-family="sans-serif" font-size="11" lengthAdjust="spacing" textLength="114" x="1563" y="555.0898">useCapture : boolean</text><rect fill="none" height="6" style="stroke:#C82930;stroke-width:1.0;" width="6" x="1551" y="561.4102"/><text fill="#000000" font-family="sans-serif" font-size="11" lengthAdjust="spacing" textLength="98" x="1563" y="568.0449">_timeout : number</text><line style="stroke:#272B30;stroke-width:1.5;" x1="1544" x2="1799" y1="574.3652" y2="574.3652"/><ellipse cx="1554" cy="585.3652" fill="#84BE84" rx="3" ry="3" style="stroke:#038048;stroke-width:1.0;"/><text fill="#000000" font-family="sans-serif" font-size="11" lengthAdjust="spacing" textLength="89" x="1563" y="589">addEvent() : void</text><ellipse cx="1554" cy="598.3203" fill="#84BE84" rx="3" ry="3" style="stroke:#038048;stroke-width:1.0;"/><text fill="#000000" font-family="sans-serif" font-size="11" lengthAdjust="spacing" textLength="205" x="1563" y="601.9551">addHandler(handler: OSGeneric) : void</text><ellipse cx="1554" cy="611.2754" fill="#84BE84" rx="3" ry="3" style="stroke:#038048;stroke-width:1.0;"/><text fill="#000000" font-family="sans-serif" font-size="11" lengthAdjust="spacing" textLength="127" x="1563" y="614.9102">hasHandlers() : boolean</text><ellipse cx="1554" cy="624.2305" fill="#84BE84" rx="3" ry="3" style="stroke:#038048;stroke-width:1.0;"/><text fill="#000000" font-family="sans-serif" font-size="11" lengthAdjust="spacing" textLength="109" x="1563" y="627.8652">removeEvent() : void</text><ellipse cx="1554" cy="637.1855" fill="#84BE84" rx="3" ry="3" style="stroke:#038048;stroke-width:1.0;"/><text fill="#000000" font-family="sans-serif" font-size="11" lengthAdjust="spacing" textLength="225" x="1563" y="640.8203">removeHandler(handler: OSGeneric) : void</text><ellipse cx="1554" cy="650.1406" fill="#84BE84" rx="3" ry="3" style="stroke:#038048;stroke-width:1.0;"/><text fill="#000000" font-family="sans-serif" font-size="11" lengthAdjust="spacing" textLength="231" x="1563" y="653.7754">trigger(data: string, args: unknown[]) : void</text><rect fill="#F24D5C" height="6" style="stroke:#C82930;stroke-width:1.0;" width="6" x="1551" y="660.0957"/><text fill="#000000" font-family="sans-serif" font-size="11" lengthAdjust="spacing" textLength="223" x="1563" y="666.7305">_windowTrigger(evt: WindowResize) : void</text><!--MD5=[95477cf7c5d9bbc342d91cd855712f4e]
reverse link AbstractEvent<T> to AbstractListener<T>--><path codeLine="29" d="M804.69,176.05 C816.59,194.18 829.23,213.41 841.34,231.85 " fill="none" id="AbstractEvent&lt;T&gt;-backto-AbstractListener&lt;T&gt;" style="stroke:#272B30;stroke-width:1.0;"/><polygon fill="none" points="798.67,179.64,793.54,159.08,810.37,171.95,798.67,179.64" style="stroke:#272B30;stroke-width:1.0;"/><!--MD5=[2fb2b9077e2818cc1e99c7fa73c98ce0]
reverse link IListener to AbstractListener<T>--><path codeLine="41" d="M994.32,189.11 C984.94,203.29 975.31,217.87 965.98,231.97 " fill="none" id="IListener-backto-AbstractListener&lt;T&gt;" style="stroke:#272B30;stroke-width:1.0;stroke-dasharray:7.0,7.0;"/><polygon fill="none" points="988.73,184.87,1005.6,172.05,1000.41,192.59,988.73,184.87" style="stroke:#272B30;stroke-width:1.0;"/><!--MD5=[3def18c85825fdb7fb75d717b2ff9e5a]
reverse link AbstractListener<T> to BalloonOnToggle--><path codeLine="53" d="M736.93,359.07 C617.71,384.16 455,425.04 319.5,483 C306.61,488.52 293.53,494.93 280.67,501.79 " fill="none" id="AbstractListener&lt;T&gt;-backto-BalloonOnToggle" style="stroke:#272B30;stroke-width:1.0;"/><polygon fill="none" points="735.79,352.15,756.8,354.95,738.64,365.86,735.79,352.15" style="stroke:#272B30;stroke-width:1.0;"/><!--MD5=[d42b402542a7d3dd42b737f22c31e806]
reverse link AbstractListener<T> to BodyOnClick--><path codeLine="68" d="M738.98,411.26 C696.88,433.61 652.06,458.42 611.5,483 C605.84,486.43 600.1,489.99 594.34,493.64 " fill="none" id="AbstractListener&lt;T&gt;-backto-BodyOnClick" style="stroke:#272B30;stroke-width:1.0;"/><polygon fill="none" points="735.88,404.99,756.84,401.85,742.41,417.37,735.88,404.99" style="stroke:#272B30;stroke-width:1.0;"/><!--MD5=[e4541e4442391374792eb25c41a718bb]
reverse link AbstractListener<T> to BodyOnMouseDown--><path codeLine="80" d="M839.34,440.56 C827.58,461.1 815.51,482.18 804.37,501.64 " fill="none" id="AbstractListener&lt;T&gt;-backto-BodyOnMouseDown" style="stroke:#272B30;stroke-width:1.0;"/><polygon fill="none" points="833.33,436.97,849.34,423.09,845.48,443.92,833.33,436.97" style="stroke:#272B30;stroke-width:1.0;"/><!--MD5=[bac199b1e0bc28cb6be49fb23c6c37a4]
reverse link AbstractListener<T> to BodyOnScroll--><path codeLine="92" d="M967.66,440.56 C979.42,461.1 991.49,482.18 1002.63,501.64 " fill="none" id="AbstractListener&lt;T&gt;-backto-BodyOnScroll" style="stroke:#272B30;stroke-width:1.0;"/><polygon fill="none" points="961.52,443.92,957.66,423.09,973.67,436.97,961.52,443.92" style="stroke:#272B30;stroke-width:1.0;"/><!--MD5=[231184352d98a1a578805c44dc34a5a4]
reverse link AbstractListener<T> to OrientationChange--><path codeLine="104" d="M1068.1,413.37 C1109.93,435.54 1154.6,459.75 1195.5,483 C1206.14,489.05 1217.11,495.42 1228.08,501.89 " fill="none" id="AbstractListener&lt;T&gt;-backto-OrientationChange" style="stroke:#272B30;stroke-width:1.0;"/><polygon fill="none" points="1064.78,419.53,1050.37,404,1071.32,407.15,1064.78,419.53" style="stroke:#272B30;stroke-width:1.0;"/><!--MD5=[69ecf2ebe5428a37f261e88ced4abcf2]
reverse link AbstractListener<T> to WindowResize--><path codeLine="117" d="M1069.87,353.07 C1198.32,375.97 1378.37,416.74 1525.5,483 C1533.78,486.73 1542.09,490.93 1550.31,495.45 " fill="none" id="AbstractListener&lt;T&gt;-backto-WindowResize" style="stroke:#272B30;stroke-width:1.0;"/><polygon fill="none" points="1068.61,359.96,1050.11,349.62,1071.02,346.17,1068.61,359.96" style="stroke:#272B30;stroke-width:1.0;"/><!--MD5=[fef571d4fe4263b91213977792d6edd1]
@startuml
skinparam ClassArrowColor #272b30
skinparam ClassBorderColor #272b30
skinparam ClassBackgroundColor #fff
skinparam BackgroundColor #ced4da
hide empty methods
hide empty fields
abstract class "AbstractListener<T>" {
    #eventCallback : EventListenerObject
    #useCapture : boolean
    -_eventName : string
    -_eventTarget : HTMLElement | Document | Window
    -_eventType : HTMLEvent | BalloonOnToggle
    +addEvent() : void
    +addHandler(handler: OSGeneric) : void
    +hasHandlers() : boolean
    +removeEvent() : void
    +removeHandler(handler: OSGeneric) : void
    +trigger(data: T, args: unknown[]) : void
}
abstract class "AbstractEvent<T>" {
    -_handlers : OSGeneric[]
    {abstract} +addEvent() : void
    +addHandler(handler: OSGeneric) : void
    +hasHandlers() : boolean
    {abstract} +removeEvent() : void
    +removeHandler(handler: OSGeneric) : void
    +trigger(data: T, args: unknown[]) : void
}
"AbstractEvent<T>" <|- - "AbstractListener<T>"
interface "IListener" {
    +handlers : OSGeneric[]
    +addEvent() : void
    +addHandler(handler: OSGeneric, args: any[]) : void
    +disableBodyClickEvent() : void
    +enableBodyClickEvent() : void
    +hasHandlers() : boolean
    +removeEvent() : void
    +removeHandler(handler: OSGeneric) : void
    +trigger(data: unknown, args: unknown[]) : unknown
}
"IListener" <|.. "AbstractListener<T>"
class "BalloonOnToggle" {
    #eventCallback : EventListenerObject
    #useCapture : boolean
    +addEvent() : void
    +addHandler(handler: OSGeneric) : void
    +hasHandlers() : boolean
    +removeEvent() : void
    +removeHandler(handler: OSGeneric) : void
    +trigger(data: string, args: unknown[]) : void
    -_onToggleTrigger(evt: CustomEvent<any>) : void
}
"AbstractListener<T>" <|- - "BalloonOnToggle"
class "BodyOnClick" {
    #eventCallback : EventListenerObject
    #useCapture : boolean
    -_enableBodyClick : boolean
    +addEvent() : void
    +addHandler(handler: OSGeneric) : void
    +disableBodyClickEvent() : void
    +enableBodyClickEvent() : void
    +hasHandlers() : boolean
    +removeEvent() : void
    +removeHandler(handler: OSGeneric) : void
    +trigger(data: string, args: unknown[]) : void
    -_bodyTrigger(evt: PointerEvent) : void
}
"AbstractListener<T>" <|- - "BodyOnClick"
class "BodyOnMouseDown" {
    #eventCallback : EventListenerObject
    #useCapture : boolean
    +addEvent() : void
    +addHandler(handler: OSGeneric) : void
    +hasHandlers() : boolean
    +removeEvent() : void
    +removeHandler(handler: OSGeneric) : void
    +trigger(data: string, args: unknown[]) : void
    -_bodyTrigger(evt: PointerEvent) : void
}
"AbstractListener<T>" <|- - "BodyOnMouseDown"
class "BodyOnScroll" {
    #eventCallback : EventListenerObject
    #useCapture : boolean
    +addEvent() : void
    +addHandler(handler: OSGeneric) : void
    +hasHandlers() : boolean
    +removeEvent() : void
    +removeHandler(handler: OSGeneric) : void
    +trigger(data: string, args: unknown[]) : void
    -_bodyTrigger(evt: Event) : void
}
"AbstractListener<T>" <|- - "BodyOnScroll"
class "OrientationChange" {
    #eventCallback : EventListenerObject
    #useCapture : boolean
    +addEvent() : void
    +addHandler(handler: OSGeneric) : void
    +hasHandlers() : boolean
    +removeEvent() : void
    +removeHandler(handler: OSGeneric) : void
    +trigger(data: string, args: unknown[]) : void
    -_orientationTrigger(evt: OrientationChange) : void
}
"AbstractListener<T>" <|- - "OrientationChange"
class "WindowResize" {
    #eventCallback : EventListenerObject
    #useCapture : boolean
    -_timeout : number
    +addEvent() : void
    +addHandler(handler: OSGeneric) : void
    +hasHandlers() : boolean
    +removeEvent() : void
    +removeHandler(handler: OSGeneric) : void
    +trigger(data: string, args: unknown[]) : void
    -_windowTrigger(evt: WindowResize) : void
}
"AbstractListener<T>" <|- - "WindowResize"
@enduml

PlantUML version 1.2021.14(Fri Nov 12 16:46:50 WET 2021)
(GPL source distribution)
Java Runtime: Java(TM) SE Runtime Environment
JVM: Java HotSpot(TM) 64-Bit Server VM
Default Encoding: UTF-8
Language: en
Country: PT
--></g></svg>