<?xml version="1.0" encoding="us-ascii" standalone="no"?><svg xmlns="http://www.w3.org/2000/svg" xmlns:xlink="http://www.w3.org/1999/xlink" contentStyleType="text/css" height="341px" preserveAspectRatio="none" style="width:1071px;height:341px;background:#CED4DA;" version="1.1" viewBox="0 0 1071 341" width="1071px" zoomAndPan="magnify"><defs/><g><rect fill="#CED4DA" height="341" style="stroke:none;stroke-width:1.0;" width="1071" x="0" y="0"/><!--class AbstractEventsManager<ET, D>--><g id="elem_AbstractEventsManager&lt;ET, D&gt;"><rect codeLine="7" fill="#FFFFFF" height="145.7813" id="AbstractEventsManager&lt;ET, D&gt;" rx="2.5" ry="2.5" style="stroke:#272B30;stroke-width:0.5;" width="405" x="301" y="7"/><ellipse cx="386.75" cy="23" fill="#A9DCDF" rx="11" ry="11" style="stroke:#181818;stroke-width:1.0;"/><path d="M386.8594,18.3438 L385.7031,23.4219 L388.0313,23.4219 L386.8594,18.3438 Z M385.375,16.1094 L388.3594,16.1094 L391.7188,28.5 L389.2656,28.5 L388.5,25.4375 L385.2188,25.4375 L384.4688,28.5 L382.0313,28.5 L385.375,16.1094 Z " fill="#000000"/><text fill="#000000" font-family="sans-serif" font-size="14" font-style="italic" lengthAdjust="spacing" textLength="225" x="407.25" y="27.8467">AbstractEventsManager&lt;ET, D&gt;</text><line style="stroke:#272B30;stroke-width:0.5;" x1="302" x2="705" y1="39" y2="39"/><rect fill="none" height="6" style="stroke:#C82930;stroke-width:1.0;" width="6" x="309" y="49.6484"/><text fill="#000000" font-family="sans-serif" font-size="14" lengthAdjust="spacing" textLength="223" x="321" y="55.9951">_events : Map&lt;ET, IEvent&lt;D&gt;&gt;</text><line style="stroke:#272B30;stroke-width:0.5;" x1="302" x2="705" y1="63.2969" y2="63.2969"/><ellipse cx="312" cy="76.9453" fill="#84BE84" rx="3" ry="3" style="stroke:#038048;stroke-width:1.0;"/><text fill="#000000" font-family="sans-serif" font-size="14" lengthAdjust="spacing" textLength="353" x="321" y="80.292">addHandler(eventType: ET, handler: Generic) : void</text><ellipse cx="312" cy="93.2422" fill="#84BE84" rx="3" ry="3" style="stroke:#038048;stroke-width:1.0;"/><text fill="#000000" font-family="sans-serif" font-size="14" lengthAdjust="spacing" textLength="265" x="321" y="96.5889">hasHandlers(eventType: ET) : boolean</text><ellipse cx="312" cy="109.5391" fill="#84BE84" rx="3" ry="3" style="stroke:#038048;stroke-width:1.0;"/><text fill="#000000" font-family="sans-serif" font-size="14" lengthAdjust="spacing" textLength="379" x="321" y="112.8857">removeHandler(eventType: ET, handler: Generic) : void</text><ellipse cx="312" cy="125.8359" fill="#84BE84" rx="3" ry="3" style="stroke:#038048;stroke-width:1.0;"/><text fill="#000000" font-family="sans-serif" font-size="14" lengthAdjust="spacing" textLength="375" x="321" y="129.1826">trigger(eventType: ET, data: D, args: unknown[]) : void</text><polygon fill="#FFFF44" points="312,137.1328,316,141.1328,312,145.1328,308,141.1328" style="stroke:#B38D22;stroke-width:1.0;"/><text fill="#000000" font-family="sans-serif" font-size="14" font-style="italic" lengthAdjust="spacing" textLength="376" x="321" y="145.4795">getInstanceOfEventType(eventType: ET) : IEvent&lt;D&gt;</text></g><!--class ListenerManager--><g id="elem_ListenerManager"><rect codeLine="15" fill="#FFFFFF" height="121.4844" id="ListenerManager" rx="2.5" ry="2.5" style="stroke:#272B30;stroke-width:0.5;" width="445" x="9" y="213"/><ellipse cx="169.75" cy="229" fill="#ADD1B2" rx="11" ry="11" style="stroke:#181818;stroke-width:1.0;"/><path d="M172.7188,234.6406 Q172.1406,234.9375 171.5,235.0781 Q170.8594,235.2344 170.1563,235.2344 Q167.6563,235.2344 166.3281,233.5938 Q165.0156,231.9375 165.0156,228.8125 Q165.0156,225.6875 166.3281,224.0313 Q167.6563,222.375 170.1563,222.375 Q170.8594,222.375 171.5,222.5313 Q172.1563,222.6875 172.7188,222.9844 L172.7188,225.7031 Q172.0938,225.125 171.5,224.8594 Q170.9063,224.5781 170.2813,224.5781 Q168.9375,224.5781 168.25,225.6563 Q167.5625,226.7188 167.5625,228.8125 Q167.5625,230.9063 168.25,231.9844 Q168.9375,233.0469 170.2813,233.0469 Q170.9063,233.0469 171.5,232.7813 Q172.0938,232.5 172.7188,231.9219 L172.7188,234.6406 Z " fill="#000000"/><text fill="#000000" font-family="sans-serif" font-size="14" lengthAdjust="spacing" textLength="115" x="190.25" y="233.8467">ListenerManager</text><line style="stroke:#272B30;stroke-width:0.5;" x1="10" x2="453" y1="245" y2="245"/><ellipse cx="20" cy="258.6484" fill="#84BE84" rx="3" ry="3" style="stroke:#038048;stroke-width:1.0;"/><text fill="#000000" font-family="sans-serif" font-size="14" lengthAdjust="spacing" textLength="369" x="29" y="261.9951">addHandler(eventType: Type, handler: Generic) : void</text><ellipse cx="20" cy="274.9453" fill="#84BE84" rx="3" ry="3" style="stroke:#038048;stroke-width:1.0;"/><text fill="#000000" font-family="sans-serif" font-size="14" lengthAdjust="spacing" textLength="281" x="29" y="278.292">hasHandlers(eventType: Type) : boolean</text><ellipse cx="20" cy="291.2422" fill="#84BE84" rx="3" ry="3" style="stroke:#038048;stroke-width:1.0;"/><text fill="#000000" font-family="sans-serif" font-size="14" lengthAdjust="spacing" textLength="395" x="29" y="294.5889">removeHandler(eventType: Type, handler: Generic) : void</text><ellipse cx="20" cy="307.5391" fill="#84BE84" rx="3" ry="3" style="stroke:#038048;stroke-width:1.0;"/><text fill="#000000" font-family="sans-serif" font-size="14" lengthAdjust="spacing" textLength="419" x="29" y="310.8857">trigger(eventType: Type, data: string, args: unknown[]) : void</text><polygon fill="#FFFF44" points="20,318.8359,24,322.8359,20,326.8359,16,322.8359" style="stroke:#B38D22;stroke-width:1.0;"/><text fill="#000000" font-family="sans-serif" font-size="14" lengthAdjust="spacing" textLength="379" x="29" y="327.1826">getInstanceOfEventType(listenerType: Type) : IListener</text></g><!--class ObserverManager--><g id="elem_ObserverManager"><rect codeLine="23" fill="#FFFFFF" height="121.4844" id="ObserverManager" rx="2.5" ry="2.5" style="stroke:#272B30;stroke-width:0.5;" width="575" x="489" y="213"/><ellipse cx="710.75" cy="229" fill="#ADD1B2" rx="11" ry="11" style="stroke:#181818;stroke-width:1.0;"/><path d="M713.7188,234.6406 Q713.1406,234.9375 712.5,235.0781 Q711.8594,235.2344 711.1563,235.2344 Q708.6563,235.2344 707.3281,233.5938 Q706.0156,231.9375 706.0156,228.8125 Q706.0156,225.6875 707.3281,224.0313 Q708.6563,222.375 711.1563,222.375 Q711.8594,222.375 712.5,222.5313 Q713.1563,222.6875 713.7188,222.9844 L713.7188,225.7031 Q713.0938,225.125 712.5,224.8594 Q711.9063,224.5781 711.2813,224.5781 Q709.9375,224.5781 709.25,225.6563 Q708.5625,226.7188 708.5625,228.8125 Q708.5625,230.9063 709.25,231.9844 Q709.9375,233.0469 711.2813,233.0469 Q711.9063,233.0469 712.5,232.7813 Q713.0938,232.5 713.7188,231.9219 L713.7188,234.6406 Z " fill="#000000"/><text fill="#000000" font-family="sans-serif" font-size="14" lengthAdjust="spacing" textLength="123" x="731.25" y="233.8467">ObserverManager</text><line style="stroke:#272B30;stroke-width:0.5;" x1="490" x2="1063" y1="245" y2="245"/><ellipse cx="500" cy="258.6484" fill="#84BE84" rx="3" ry="3" style="stroke:#038048;stroke-width:1.0;"/><text fill="#000000" font-family="sans-serif" font-size="14" lengthAdjust="spacing" textLength="399" x="509" y="261.9951">addHandler(eventType: unknown, handler: Generic) : void</text><ellipse cx="500" cy="274.9453" fill="#84BE84" rx="3" ry="3" style="stroke:#038048;stroke-width:1.0;"/><text fill="#000000" font-family="sans-serif" font-size="14" lengthAdjust="spacing" textLength="311" x="509" y="278.292">hasHandlers(eventType: unknown) : boolean</text><ellipse cx="500" cy="291.2422" fill="#84BE84" rx="3" ry="3" style="stroke:#038048;stroke-width:1.0;"/><text fill="#000000" font-family="sans-serif" font-size="14" lengthAdjust="spacing" textLength="425" x="509" y="294.5889">removeHandler(eventType: unknown, handler: Generic) : void</text><ellipse cx="500" cy="307.5391" fill="#84BE84" rx="3" ry="3" style="stroke:#038048;stroke-width:1.0;"/><text fill="#000000" font-family="sans-serif" font-size="14" lengthAdjust="spacing" textLength="449" x="509" y="310.8857">trigger(eventType: unknown, data: string, args: unknown[]) : void</text><polygon fill="#FFFF44" points="500,318.8359,504,322.8359,500,326.8359,496,322.8359" style="stroke:#B38D22;stroke-width:1.0;"/><text fill="#000000" font-family="sans-serif" font-size="14" lengthAdjust="spacing" textLength="549" x="509" y="327.1826">getInstanceOfEventType(observerType: RTL) : IObserver&lt;unknown, unknown&gt;</text></g><!--reverse link AbstractEventsManager<ET, D> to ListenerManager--><g id="link_AbstractEventsManager&lt;ET, D&gt;_ListenerManager"><path codeLine="22" d="M386.3418,163.4921 C358.3318,183.2121 343.01,193.99 316.12,212.93 " fill="none" id="AbstractEventsManager&lt;ET, D&gt;-backto-ListenerManager" style="stroke:#272B30;stroke-width:1.0;"/><polygon fill="none" points="401.06,153.13,382.8877,158.5861,389.7958,168.3982,401.06,153.13" style="stroke:#272B30;stroke-width:1.0;"/></g><!--reverse link AbstractEventsManager<ET, D> to ObserverManager--><g id="link_AbstractEventsManager&lt;ET, D&gt;_ObserverManager"><path codeLine="30" d="M621.0556,163.4674 C649.1656,183.1874 664.58,193.99 691.57,212.93 " fill="none" id="AbstractEventsManager&lt;ET, D&gt;-backto-ObserverManager" style="stroke:#272B30;stroke-width:1.0;"/><polygon fill="none" points="606.32,153.13,617.6098,168.3793,624.5014,158.5556,606.32,153.13" style="stroke:#272B30;stroke-width:1.0;"/></g><!--SRC=[fP9RQy9048NVyok6-j9IXM8BXI01gz8AYb1yAwLCifDaCTcLtLKHwtzlBXlHUccmULYIcNFc3Dz6pxYOey8KUWbgtLLAhdeoaGeQxUUs__ZWw4F5YrICr6K91hD8oOLWLXQ6uPxcg1qGUsBen9mHK3etQqZ9n9Bf_LB8ASagw6kZC30Gv4bmqxNVWoK9eySeC2BL6KoRqFTkOED0zhI-gEY22sES5yrXeU_qFQzGt2DZRoXOGkgsq4xNSt8XLyPbsOLN4gHuS9TDMKhEIb-CslhqeJ6N-L8cXA9KAahbaguACOf7qR69eK4N-ar05MaN5c8cv4fyV1wODnMmBJGYCaEX3Og09k6W6dQyzmwEitKivX7N9b_D0gx8dk6MdrUIoy_wxEe4dQ1Nsaf-6HqkeiiGpv5BB9N3rOSLh0pV7_zdvxlLEePRGP_ucjIoBdIx-fNShRi- -ffn9-ZldF-_06a9bOFVfwE2VyMjiqkoBrxT6_bD_WS0]--></g></svg>