<?xml version="1.0" encoding="UTF-8" standalone="no"?><svg xmlns="http://www.w3.org/2000/svg" xmlns:xlink="http://www.w3.org/1999/xlink" contentScriptType="application/ecmascript" contentStyleType="text/css" height="1257px" preserveAspectRatio="none" style="width:1102px;height:1257px;background:#CED4DA;" version="1.1" viewBox="0 0 1102 1257" width="1102px" zoomAndPan="magnify"><defs><filter height="300%" id="f14w0l6jrcd528" width="300%" x="-1" y="-1"><feGaussianBlur result="blurOut" stdDeviation="2.0"/><feColorMatrix in="blurOut" result="blurOut2" type="matrix" values="0 0 0 0 0 0 0 0 0 0 0 0 0 0 0 0 0 0 .4 0"/><feOffset dx="4.0" dy="4.0" in="blurOut2" result="blurOut3"/><feBlend in="SourceGraphic" in2="blurOut3" mode="normal"/></filter></defs><g><!--MD5=[2ee60d4cd41bf605aef3f90cc9d1cc0d]
class AbstractFlatpickrConfig--><rect codeLine="7" fill="#FFFFFF" filter="url(#f14w0l6jrcd528)" height="444.9453" id="AbstractFlatpickrConfig" style="stroke:#272B30;stroke-width:1.5;" width="522" x="287" y="345"/><ellipse cx="471.75" cy="361" fill="#A9DCDF" rx="11" ry="11" style="stroke:#272B30;stroke-width:1.0;"/><path d="M471.8594,356.3438 L470.7031,361.4219 L473.0313,361.4219 L471.8594,356.3438 Z M470.375,354.1094 L473.3594,354.1094 L476.7188,366.5 L474.2656,366.5 L473.5,363.4375 L470.2188,363.4375 L469.4688,366.5 L467.0313,366.5 L470.375,354.1094 Z " fill="#000000"/><text fill="#000000" font-family="sans-serif" font-size="12" font-style="italic" lengthAdjust="spacing" textLength="144" x="492.25" y="365.1543">AbstractFlatpickrConfig</text><line style="stroke:#272B30;stroke-width:1.5;" x1="288" x2="808" y1="377" y2="377"/><ellipse cx="298" cy="388" rx="3" ry="3" style="stroke:#038048;stroke-width:1.0;fill:none;"/><text fill="#000000" font-family="sans-serif" font-size="11" lengthAdjust="spacing" textLength="114" x="307" y="391.2104">AllowInput : boolean</text><ellipse cx="298" cy="400.8047" rx="3" ry="3" style="stroke:#038048;stroke-width:1.0;fill:none;"/><text fill="#000000" font-family="sans-serif" font-size="11" lengthAdjust="spacing" textLength="123" x="307" y="404.0151">CalendarMode : Mode</text><ellipse cx="298" cy="413.6094" rx="3" ry="3" style="stroke:#038048;stroke-width:1.0;fill:none;"/><text fill="#000000" font-family="sans-serif" font-size="11" lengthAdjust="spacing" textLength="111" x="307" y="416.8198">DateFormat : string</text><ellipse cx="298" cy="426.4141" rx="3" ry="3" style="stroke:#038048;stroke-width:1.0;fill:none;"/><text fill="#000000" font-family="sans-serif" font-size="11" lengthAdjust="spacing" textLength="135" x="307" y="429.6245">DisableMobile : boolean</text><ellipse cx="298" cy="439.2188" rx="3" ry="3" style="stroke:#038048;stroke-width:1.0;fill:none;"/><text fill="#000000" font-family="sans-serif" font-size="11" lengthAdjust="spacing" textLength="129" x="307" y="442.4292">ExtendedClass : string</text><ellipse cx="298" cy="452.0234" rx="3" ry="3" style="stroke:#038048;stroke-width:1.0;fill:none;"/><text fill="#000000" font-family="sans-serif" font-size="11" lengthAdjust="spacing" textLength="131" x="307" y="455.2339">FirstWeekDay : number</text><ellipse cx="298" cy="464.8281" rx="3" ry="3" style="stroke:#038048;stroke-width:1.0;fill:none;"/><text fill="#000000" font-family="sans-serif" font-size="11" lengthAdjust="spacing" textLength="93" x="307" y="468.0386">MaxDate : string</text><ellipse cx="298" cy="477.6328" rx="3" ry="3" style="stroke:#038048;stroke-width:1.0;fill:none;"/><text fill="#000000" font-family="sans-serif" font-size="11" lengthAdjust="spacing" textLength="90" x="307" y="480.8433">MinDate : string</text><ellipse cx="298" cy="490.4375" rx="3" ry="3" style="stroke:#038048;stroke-width:1.0;fill:none;"/><text fill="#000000" font-family="sans-serif" font-size="11" lengthAdjust="spacing" textLength="115" x="307" y="493.6479">OnChange : Generic</text><ellipse cx="298" cy="503.2422" rx="3" ry="3" style="stroke:#038048;stroke-width:1.0;fill:none;"/><text fill="#000000" font-family="sans-serif" font-size="11" lengthAdjust="spacing" textLength="149" x="307" y="506.4526">ServerDateFormat : string</text><ellipse cx="298" cy="516.0469" rx="3" ry="3" style="stroke:#038048;stroke-width:1.0;fill:none;"/><text fill="#000000" font-family="sans-serif" font-size="11" lengthAdjust="spacing" textLength="159" x="307" y="519.2573">ShowTodayButton : boolean</text><ellipse cx="298" cy="528.8516" rx="3" ry="3" style="stroke:#038048;stroke-width:1.0;fill:none;"/><text fill="#000000" font-family="sans-serif" font-size="11" lengthAdjust="spacing" textLength="169" x="307" y="532.062">ShowWeekNumbers : boolean</text><ellipse cx="298" cy="541.6563" rx="3" ry="3" style="stroke:#038048;stroke-width:1.0;fill:none;"/><text fill="#000000" font-family="sans-serif" font-size="11" lengthAdjust="spacing" textLength="113" x="307" y="544.8667">TimeFormat : string</text><rect fill="none" height="6" style="stroke:#C82930;stroke-width:1.0;" width="6" x="295" y="551.4609"/><text fill="#000000" font-family="sans-serif" font-size="11" lengthAdjust="spacing" textLength="75" x="307" y="557.6714">_lang : string</text><rect fill="none" height="6" style="stroke:#C82930;stroke-width:1.0;" width="6" x="295" y="564.2656"/><text fill="#000000" font-family="sans-serif" font-size="11" lengthAdjust="spacing" textLength="234" x="307" y="570.4761">_providerExtendedOptions : BaseOptions</text><rect fill="none" height="6" style="stroke:#C82930;stroke-width:1.0;" width="6" x="295" y="577.0703"/><text fill="#000000" font-family="sans-serif" font-size="11" lengthAdjust="spacing" textLength="182" x="307" y="583.2808">_providerOptions : BaseOptions</text><line style="stroke:#272B30;stroke-width:1.5;" x1="288" x2="808" y1="589.875" y2="589.875"/><ellipse cx="298" cy="600.875" fill="#84BE84" rx="3" ry="3" style="stroke:#038048;stroke-width:1.0;"/><text fill="#000000" font-family="sans-serif" font-size="11" lengthAdjust="spacing" textLength="252" x="307" y="604.0854">getCommonProviderConfigs() : BaseOptions</text><ellipse cx="298" cy="613.6797" fill="#84BE84" rx="3" ry="3" style="stroke:#038048;stroke-width:1.0;"/><text fill="#000000" font-family="sans-serif" font-size="11" font-style="italic" lengthAdjust="spacing" textLength="143" x="307" y="616.8901">getProviderConfig() : any</text><ellipse cx="298" cy="626.4844" fill="#84BE84" rx="3" ry="3" style="stroke:#038048;stroke-width:1.0;"/><text fill="#000000" font-family="sans-serif" font-size="11" lengthAdjust="spacing" textLength="342" x="307" y="629.6948">validateCanChange(_isBuilt: boolean, _key: string) : boolean</text><ellipse cx="298" cy="639.2891" fill="#84BE84" rx="3" ry="3" style="stroke:#038048;stroke-width:1.0;"/><text fill="#000000" font-family="sans-serif" font-size="11" lengthAdjust="spacing" textLength="310" x="307" y="642.4995">validateDefault(key: string, value: unknown) : unknown</text><ellipse cx="298" cy="652.0938" fill="#84BE84" rx="3" ry="3" style="stroke:#038048;stroke-width:1.0;"/><text fill="#000000" font-family="sans-serif" font-size="11" lengthAdjust="spacing" textLength="496" x="307" y="655.3042">validateExtensibilityConfigs(newConfigs: BaseOptions, providerInfo: ProviderInfo) : void</text><polygon fill="#FFFF44" points="298,659.8984,302,663.8984,298,667.8984,294,663.8984" style="stroke:#B38D22;stroke-width:1.0;"/><text fill="#000000" font-family="sans-serif" font-size="11" lengthAdjust="spacing" textLength="418" x="307" y="668.1089">mergeConfigs(providerOptions: any, providerExtendedOptions: any) : any</text><polygon fill="#FFFF44" points="298,672.7031,302,676.7031,298,680.7031,294,676.7031" style="stroke:#B38D22;stroke-width:1.0;"/><text fill="#000000" font-family="sans-serif" font-size="11" lengthAdjust="spacing" textLength="369" x="307" y="680.9136">validateBoolean(value: boolean, defaultValue: boolean) : boolean</text><polygon fill="#FFFF44" points="298,685.5078,302,689.5078,298,693.5078,294,689.5078" style="stroke:#B38D22;stroke-width:1.0;"/><text fill="#000000" font-family="sans-serif" font-size="11" lengthAdjust="spacing" textLength="389" x="307" y="693.7183">validateDate(value: string | Date, defaultValue: string) : string | Date</text><polygon fill="#FFFF44" points="298,698.3125,302,702.3125,298,706.3125,294,702.3125" style="stroke:#B38D22;stroke-width:1.0;"/><text fill="#000000" font-family="sans-serif" font-size="11" lengthAdjust="spacing" textLength="483" x="307" y="706.5229">validateInRange(value: unknown, defaultValue: unknown, args: unknown[]) : unknown</text><polygon fill="#FFFF44" points="298,711.1172,302,715.1172,298,719.1172,294,715.1172" style="stroke:#B38D22;stroke-width:1.0;"/><text fill="#000000" font-family="sans-serif" font-size="11" lengthAdjust="spacing" textLength="365" x="307" y="719.3276">validateNumber(value: number, defaultValue: number) : number</text><polygon fill="#FFFF44" points="298,723.9219,302,727.9219,298,731.9219,294,727.9219" style="stroke:#B38D22;stroke-width:1.0;"/><text fill="#000000" font-family="sans-serif" font-size="11" lengthAdjust="spacing" textLength="321" x="307" y="732.1323">validateString(value: string, defaultValue: string) : string</text><rect fill="#F24D5C" height="6" style="stroke:#C82930;stroke-width:1.0;" width="6" x="295" y="738.7266"/><text fill="#000000" font-family="sans-serif" font-size="11" lengthAdjust="spacing" textLength="145" x="307" y="744.937">_checkAltFormat() : string</text><rect fill="#F24D5C" height="6" style="stroke:#C82930;stroke-width:1.0;" width="6" x="295" y="751.5313"/><text fill="#000000" font-family="sans-serif" font-size="11" lengthAdjust="spacing" textLength="174" x="307" y="757.7417">_checkLocale() : CustomLocale</text><rect fill="#F24D5C" height="6" style="stroke:#C82930;stroke-width:1.0;" width="6" x="295" y="764.3359"/><text fill="#000000" font-family="sans-serif" font-size="11" lengthAdjust="spacing" textLength="185" x="307" y="770.5464">_checkServerDateFormat() : void</text><rect fill="#F24D5C" height="6" style="stroke:#C82930;stroke-width:1.0;" width="6" x="295" y="777.1406"/><text fill="#000000" font-family="sans-serif" font-size="11" lengthAdjust="spacing" textLength="197" x="307" y="783.3511">_mapProviderDateFormat() : string</text><!--MD5=[307a44b026a897ed9e0d7632f1d56949]
class AbstractDatePickerConfig--><rect codeLine="40" fill="#FFFFFF" filter="url(#f14w0l6jrcd528)" height="278.4844" id="AbstractDatePickerConfig" style="stroke:#272B30;stroke-width:1.5;" width="509" x="293.5" y="7"/><ellipse cx="464.75" cy="23" fill="#A9DCDF" rx="11" ry="11" style="stroke:#272B30;stroke-width:1.0;"/><path d="M464.8594,18.3438 L463.7031,23.4219 L466.0313,23.4219 L464.8594,18.3438 Z M463.375,16.1094 L466.3594,16.1094 L469.7188,28.5 L467.2656,28.5 L466.5,25.4375 L463.2188,25.4375 L462.4688,28.5 L460.0313,28.5 L463.375,16.1094 Z " fill="#000000"/><text fill="#000000" font-family="sans-serif" font-size="12" font-style="italic" lengthAdjust="spacing" textLength="158" x="485.25" y="27.1543">AbstractDatePickerConfig</text><line style="stroke:#272B30;stroke-width:1.5;" x1="294.5" x2="801.5" y1="39" y2="39"/><ellipse cx="304.5" cy="50" rx="3" ry="3" style="stroke:#038048;stroke-width:1.0;fill:none;"/><text fill="#000000" font-family="sans-serif" font-size="11" lengthAdjust="spacing" textLength="111" x="313.5" y="53.2104">DateFormat : string</text><ellipse cx="304.5" cy="62.8047" rx="3" ry="3" style="stroke:#038048;stroke-width:1.0;fill:none;"/><text fill="#000000" font-family="sans-serif" font-size="11" lengthAdjust="spacing" textLength="129" x="313.5" y="66.0151">ExtendedClass : string</text><ellipse cx="304.5" cy="75.6094" rx="3" ry="3" style="stroke:#038048;stroke-width:1.0;fill:none;"/><text fill="#000000" font-family="sans-serif" font-size="11" lengthAdjust="spacing" textLength="131" x="313.5" y="78.8198">FirstWeekDay : number</text><ellipse cx="304.5" cy="88.4141" rx="3" ry="3" style="stroke:#038048;stroke-width:1.0;fill:none;"/><text fill="#000000" font-family="sans-serif" font-size="11" lengthAdjust="spacing" textLength="93" x="313.5" y="91.6245">MaxDate : string</text><ellipse cx="304.5" cy="101.2188" rx="3" ry="3" style="stroke:#038048;stroke-width:1.0;fill:none;"/><text fill="#000000" font-family="sans-serif" font-size="11" lengthAdjust="spacing" textLength="90" x="313.5" y="104.4292">MinDate : string</text><ellipse cx="304.5" cy="114.0234" rx="3" ry="3" style="stroke:#038048;stroke-width:1.0;fill:none;"/><text fill="#000000" font-family="sans-serif" font-size="11" lengthAdjust="spacing" textLength="159" x="313.5" y="117.2339">ShowTodayButton : boolean</text><ellipse cx="304.5" cy="126.8281" rx="3" ry="3" style="stroke:#038048;stroke-width:1.0;fill:none;"/><text fill="#000000" font-family="sans-serif" font-size="11" lengthAdjust="spacing" textLength="169" x="313.5" y="130.0386">ShowWeekNumbers : boolean</text><ellipse cx="304.5" cy="139.6328" rx="3" ry="3" style="stroke:#038048;stroke-width:1.0;fill:none;"/><text fill="#000000" font-family="sans-serif" font-size="11" lengthAdjust="spacing" textLength="113" x="313.5" y="142.8433">TimeFormat : string</text><line style="stroke:#272B30;stroke-width:1.5;" x1="294.5" x2="801.5" y1="149.4375" y2="149.4375"/><ellipse cx="304.5" cy="160.4375" fill="#84BE84" rx="3" ry="3" style="stroke:#038048;stroke-width:1.0;"/><text fill="#000000" font-family="sans-serif" font-size="11" font-style="italic" lengthAdjust="spacing" textLength="143" x="313.5" y="163.6479">getProviderConfig() : any</text><ellipse cx="304.5" cy="173.2422" fill="#84BE84" rx="3" ry="3" style="stroke:#038048;stroke-width:1.0;"/><text fill="#000000" font-family="sans-serif" font-size="11" lengthAdjust="spacing" textLength="342" x="313.5" y="176.4526">validateCanChange(_isBuilt: boolean, _key: string) : boolean</text><ellipse cx="304.5" cy="186.0469" fill="#84BE84" rx="3" ry="3" style="stroke:#038048;stroke-width:1.0;"/><text fill="#000000" font-family="sans-serif" font-size="11" lengthAdjust="spacing" textLength="310" x="313.5" y="189.2573">validateDefault(key: string, value: unknown) : unknown</text><polygon fill="#FFFF44" points="304.5,193.8516,308.5,197.8516,304.5,201.8516,300.5,197.8516" style="stroke:#B38D22;stroke-width:1.0;"/><text fill="#000000" font-family="sans-serif" font-size="11" lengthAdjust="spacing" textLength="418" x="313.5" y="202.062">mergeConfigs(providerOptions: any, providerExtendedOptions: any) : any</text><polygon fill="#FFFF44" points="304.5,206.6563,308.5,210.6563,304.5,214.6563,300.5,210.6563" style="stroke:#B38D22;stroke-width:1.0;"/><text fill="#000000" font-family="sans-serif" font-size="11" lengthAdjust="spacing" textLength="369" x="313.5" y="214.8667">validateBoolean(value: boolean, defaultValue: boolean) : boolean</text><polygon fill="#FFFF44" points="304.5,219.4609,308.5,223.4609,304.5,227.4609,300.5,223.4609" style="stroke:#B38D22;stroke-width:1.0;"/><text fill="#000000" font-family="sans-serif" font-size="11" lengthAdjust="spacing" textLength="389" x="313.5" y="227.6714">validateDate(value: string | Date, defaultValue: string) : string | Date</text><polygon fill="#FFFF44" points="304.5,232.2656,308.5,236.2656,304.5,240.2656,300.5,236.2656" style="stroke:#B38D22;stroke-width:1.0;"/><text fill="#000000" font-family="sans-serif" font-size="11" lengthAdjust="spacing" textLength="440" x="313.5" y="240.4761">validateExtensibilityConfigs(newConfigs: any, providerInfo: ProviderInfo) : any</text><polygon fill="#FFFF44" points="304.5,245.0703,308.5,249.0703,304.5,253.0703,300.5,249.0703" style="stroke:#B38D22;stroke-width:1.0;"/><text fill="#000000" font-family="sans-serif" font-size="11" lengthAdjust="spacing" textLength="483" x="313.5" y="253.2808">validateInRange(value: unknown, defaultValue: unknown, args: unknown[]) : unknown</text><polygon fill="#FFFF44" points="304.5,257.875,308.5,261.875,304.5,265.875,300.5,261.875" style="stroke:#B38D22;stroke-width:1.0;"/><text fill="#000000" font-family="sans-serif" font-size="11" lengthAdjust="spacing" textLength="365" x="313.5" y="266.0854">validateNumber(value: number, defaultValue: number) : number</text><polygon fill="#FFFF44" points="304.5,270.6797,308.5,274.6797,304.5,278.6797,300.5,274.6797" style="stroke:#B38D22;stroke-width:1.0;"/><text fill="#000000" font-family="sans-serif" font-size="11" lengthAdjust="spacing" textLength="321" x="313.5" y="278.8901">validateString(value: string, defaultValue: string) : string</text><!--MD5=[53d53903351628601b8dce17181f1097]
class FlatpickrRangeDateConfig--><rect codeLine="61" fill="#FFFFFF" filter="url(#f14w0l6jrcd528)" height="393.7266" id="FlatpickrRangeDateConfig" style="stroke:#272B30;stroke-width:1.5;" width="522" x="9" y="850"/><ellipse cx="184.75" cy="866" fill="#ADD1B2" rx="11" ry="11" style="stroke:#272B30;stroke-width:1.0;"/><path d="M187.7188,871.6406 Q187.1406,871.9375 186.5,872.0781 Q185.8594,872.2344 185.1563,872.2344 Q182.6563,872.2344 181.3281,870.5938 Q180.0156,868.9375 180.0156,865.8125 Q180.0156,862.6875 181.3281,861.0313 Q182.6563,859.375 185.1563,859.375 Q185.8594,859.375 186.5,859.5313 Q187.1563,859.6875 187.7188,859.9844 L187.7188,862.7031 Q187.0938,862.125 186.5,861.8594 Q185.9063,861.5781 185.2813,861.5781 Q183.9375,861.5781 183.25,862.6563 Q182.5625,863.7188 182.5625,865.8125 Q182.5625,867.9063 183.25,868.9844 Q183.9375,870.0469 185.2813,870.0469 Q185.9063,870.0469 186.5,869.7813 Q187.0938,869.5 187.7188,868.9219 L187.7188,871.6406 Z " fill="#000000"/><text fill="#000000" font-family="sans-serif" font-size="12" lengthAdjust="spacing" textLength="162" x="205.25" y="870.1543">FlatpickrRangeDateConfig</text><line style="stroke:#272B30;stroke-width:1.5;" x1="10" x2="530" y1="882" y2="882"/><ellipse cx="20" cy="893" rx="3" ry="3" style="stroke:#038048;stroke-width:1.0;fill:none;"/><text fill="#000000" font-family="sans-serif" font-size="11" lengthAdjust="spacing" textLength="114" x="29" y="896.2104">AllowInput : boolean</text><ellipse cx="20" cy="905.8047" rx="3" ry="3" style="stroke:#038048;stroke-width:1.0;fill:none;"/><text fill="#000000" font-family="sans-serif" font-size="11" lengthAdjust="spacing" textLength="123" x="29" y="909.0151">CalendarMode : Mode</text><ellipse cx="20" cy="918.6094" rx="3" ry="3" style="stroke:#038048;stroke-width:1.0;fill:none;"/><text fill="#000000" font-family="sans-serif" font-size="11" lengthAdjust="spacing" textLength="111" x="29" y="921.8198">DateFormat : string</text><ellipse cx="20" cy="931.4141" rx="3" ry="3" style="stroke:#038048;stroke-width:1.0;fill:none;"/><text fill="#000000" font-family="sans-serif" font-size="11" lengthAdjust="spacing" textLength="135" x="29" y="934.6245">DisableMobile : boolean</text><ellipse cx="20" cy="944.2188" rx="3" ry="3" style="stroke:#038048;stroke-width:1.0;fill:none;"/><text fill="#000000" font-family="sans-serif" font-size="11" lengthAdjust="spacing" textLength="129" x="29" y="947.4292">ExtendedClass : string</text><ellipse cx="20" cy="957.0234" rx="3" ry="3" style="stroke:#038048;stroke-width:1.0;fill:none;"/><text fill="#000000" font-family="sans-serif" font-size="11" lengthAdjust="spacing" textLength="131" x="29" y="960.2339">FirstWeekDay : number</text><ellipse cx="20" cy="969.8281" rx="3" ry="3" style="stroke:#038048;stroke-width:1.0;fill:none;"/><text fill="#000000" font-family="sans-serif" font-size="11" lengthAdjust="spacing" textLength="122" x="29" y="973.0386">InitialEndDate : string</text><ellipse cx="20" cy="982.6328" rx="3" ry="3" style="stroke:#038048;stroke-width:1.0;fill:none;"/><text fill="#000000" font-family="sans-serif" font-size="11" lengthAdjust="spacing" textLength="129" x="29" y="985.8433">InitialStartDate : string</text><ellipse cx="20" cy="995.4375" rx="3" ry="3" style="stroke:#038048;stroke-width:1.0;fill:none;"/><text fill="#000000" font-family="sans-serif" font-size="11" lengthAdjust="spacing" textLength="93" x="29" y="998.6479">MaxDate : string</text><ellipse cx="20" cy="1008.2422" rx="3" ry="3" style="stroke:#038048;stroke-width:1.0;fill:none;"/><text fill="#000000" font-family="sans-serif" font-size="11" lengthAdjust="spacing" textLength="90" x="29" y="1011.4526">MinDate : string</text><ellipse cx="20" cy="1021.0469" rx="3" ry="3" style="stroke:#038048;stroke-width:1.0;fill:none;"/><text fill="#000000" font-family="sans-serif" font-size="11" lengthAdjust="spacing" textLength="115" x="29" y="1024.2573">OnChange : Generic</text><ellipse cx="20" cy="1033.8516" rx="3" ry="3" style="stroke:#038048;stroke-width:1.0;fill:none;"/><text fill="#000000" font-family="sans-serif" font-size="11" lengthAdjust="spacing" textLength="149" x="29" y="1037.062">ServerDateFormat : string</text><ellipse cx="20" cy="1046.6563" rx="3" ry="3" style="stroke:#038048;stroke-width:1.0;fill:none;"/><text fill="#000000" font-family="sans-serif" font-size="11" lengthAdjust="spacing" textLength="159" x="29" y="1049.8667">ShowTodayButton : boolean</text><ellipse cx="20" cy="1059.4609" rx="3" ry="3" style="stroke:#038048;stroke-width:1.0;fill:none;"/><text fill="#000000" font-family="sans-serif" font-size="11" lengthAdjust="spacing" textLength="169" x="29" y="1062.6714">ShowWeekNumbers : boolean</text><ellipse cx="20" cy="1072.2656" rx="3" ry="3" style="stroke:#038048;stroke-width:1.0;fill:none;"/><text fill="#000000" font-family="sans-serif" font-size="11" lengthAdjust="spacing" textLength="113" x="29" y="1075.4761">TimeFormat : string</text><line style="stroke:#272B30;stroke-width:1.5;" x1="10" x2="530" y1="1082.0703" y2="1082.0703"/><ellipse cx="20" cy="1093.0703" fill="#84BE84" rx="3" ry="3" style="stroke:#038048;stroke-width:1.0;"/><text fill="#000000" font-family="sans-serif" font-size="11" lengthAdjust="spacing" textLength="252" x="29" y="1096.2808">getCommonProviderConfigs() : BaseOptions</text><ellipse cx="20" cy="1105.875" fill="#84BE84" rx="3" ry="3" style="stroke:#038048;stroke-width:1.0;"/><text fill="#000000" font-family="sans-serif" font-size="11" lengthAdjust="spacing" textLength="194" x="29" y="1109.0854">getProviderConfig() : BaseOptions</text><ellipse cx="20" cy="1118.6797" fill="#84BE84" rx="3" ry="3" style="stroke:#038048;stroke-width:1.0;"/><text fill="#000000" font-family="sans-serif" font-size="11" lengthAdjust="spacing" textLength="330" x="29" y="1121.8901">validateCanChange(isBuilt: boolean, key: string) : boolean</text><ellipse cx="20" cy="1131.4844" fill="#84BE84" rx="3" ry="3" style="stroke:#038048;stroke-width:1.0;"/><text fill="#000000" font-family="sans-serif" font-size="11" lengthAdjust="spacing" textLength="310" x="29" y="1134.6948">validateDefault(key: string, value: unknown) : unknown</text><ellipse cx="20" cy="1144.2891" fill="#84BE84" rx="3" ry="3" style="stroke:#038048;stroke-width:1.0;"/><text fill="#000000" font-family="sans-serif" font-size="11" lengthAdjust="spacing" textLength="496" x="29" y="1147.4995">validateExtensibilityConfigs(newConfigs: BaseOptions, providerInfo: ProviderInfo) : void</text><polygon fill="#FFFF44" points="20,1152.0938,24,1156.0938,20,1160.0938,16,1156.0938" style="stroke:#B38D22;stroke-width:1.0;"/><text fill="#000000" font-family="sans-serif" font-size="11" lengthAdjust="spacing" textLength="418" x="29" y="1160.3042">mergeConfigs(providerOptions: any, providerExtendedOptions: any) : any</text><polygon fill="#FFFF44" points="20,1164.8984,24,1168.8984,20,1172.8984,16,1168.8984" style="stroke:#B38D22;stroke-width:1.0;"/><text fill="#000000" font-family="sans-serif" font-size="11" lengthAdjust="spacing" textLength="369" x="29" y="1173.1089">validateBoolean(value: boolean, defaultValue: boolean) : boolean</text><polygon fill="#FFFF44" points="20,1177.7031,24,1181.7031,20,1185.7031,16,1181.7031" style="stroke:#B38D22;stroke-width:1.0;"/><text fill="#000000" font-family="sans-serif" font-size="11" lengthAdjust="spacing" textLength="389" x="29" y="1185.9136">validateDate(value: string | Date, defaultValue: string) : string | Date</text><polygon fill="#FFFF44" points="20,1190.5078,24,1194.5078,20,1198.5078,16,1194.5078" style="stroke:#B38D22;stroke-width:1.0;"/><text fill="#000000" font-family="sans-serif" font-size="11" lengthAdjust="spacing" textLength="483" x="29" y="1198.7183">validateInRange(value: unknown, defaultValue: unknown, args: unknown[]) : unknown</text><polygon fill="#FFFF44" points="20,1203.3125,24,1207.3125,20,1211.3125,16,1207.3125" style="stroke:#B38D22;stroke-width:1.0;"/><text fill="#000000" font-family="sans-serif" font-size="11" lengthAdjust="spacing" textLength="365" x="29" y="1211.5229">validateNumber(value: number, defaultValue: number) : number</text><polygon fill="#FFFF44" points="20,1216.1172,24,1220.1172,20,1224.1172,16,1220.1172" style="stroke:#B38D22;stroke-width:1.0;"/><text fill="#000000" font-family="sans-serif" font-size="11" lengthAdjust="spacing" textLength="321" x="29" y="1224.3276">validateString(value: string, defaultValue: string) : string</text><rect fill="#F24D5C" height="6" style="stroke:#C82930;stroke-width:1.0;" width="6" x="17" y="1230.9219"/><text fill="#000000" font-family="sans-serif" font-size="11" lengthAdjust="spacing" textLength="151" x="29" y="1237.1323">_setDefaultDate() : string[]</text><!--MD5=[913c2400295892439efff32354771724]
class FlatpickrSingleDateConfig--><rect codeLine="91" fill="#FFFFFF" filter="url(#f14w0l6jrcd528)" height="368.1172" id="FlatpickrSingleDateConfig" style="stroke:#272B30;stroke-width:1.5;" width="522" x="566" y="863"/><ellipse cx="742.75" cy="879" fill="#ADD1B2" rx="11" ry="11" style="stroke:#272B30;stroke-width:1.0;"/><path d="M745.7188,884.6406 Q745.1406,884.9375 744.5,885.0781 Q743.8594,885.2344 743.1563,885.2344 Q740.6563,885.2344 739.3281,883.5938 Q738.0156,881.9375 738.0156,878.8125 Q738.0156,875.6875 739.3281,874.0313 Q740.6563,872.375 743.1563,872.375 Q743.8594,872.375 744.5,872.5313 Q745.1563,872.6875 745.7188,872.9844 L745.7188,875.7031 Q745.0938,875.125 744.5,874.8594 Q743.9063,874.5781 743.2813,874.5781 Q741.9375,874.5781 741.25,875.6563 Q740.5625,876.7188 740.5625,878.8125 Q740.5625,880.9063 741.25,881.9844 Q741.9375,883.0469 743.2813,883.0469 Q743.9063,883.0469 744.5,882.7813 Q745.0938,882.5 745.7188,881.9219 L745.7188,884.6406 Z " fill="#000000"/><text fill="#000000" font-family="sans-serif" font-size="12" lengthAdjust="spacing" textLength="160" x="763.25" y="883.1543">FlatpickrSingleDateConfig</text><line style="stroke:#272B30;stroke-width:1.5;" x1="567" x2="1087" y1="895" y2="895"/><ellipse cx="577" cy="906" rx="3" ry="3" style="stroke:#038048;stroke-width:1.0;fill:none;"/><text fill="#000000" font-family="sans-serif" font-size="11" lengthAdjust="spacing" textLength="114" x="586" y="909.2104">AllowInput : boolean</text><ellipse cx="577" cy="918.8047" rx="3" ry="3" style="stroke:#038048;stroke-width:1.0;fill:none;"/><text fill="#000000" font-family="sans-serif" font-size="11" lengthAdjust="spacing" textLength="123" x="586" y="922.0151">CalendarMode : Mode</text><ellipse cx="577" cy="931.6094" rx="3" ry="3" style="stroke:#038048;stroke-width:1.0;fill:none;"/><text fill="#000000" font-family="sans-serif" font-size="11" lengthAdjust="spacing" textLength="111" x="586" y="934.8198">DateFormat : string</text><ellipse cx="577" cy="944.4141" rx="3" ry="3" style="stroke:#038048;stroke-width:1.0;fill:none;"/><text fill="#000000" font-family="sans-serif" font-size="11" lengthAdjust="spacing" textLength="135" x="586" y="947.6245">DisableMobile : boolean</text><ellipse cx="577" cy="957.2188" rx="3" ry="3" style="stroke:#038048;stroke-width:1.0;fill:none;"/><text fill="#000000" font-family="sans-serif" font-size="11" lengthAdjust="spacing" textLength="129" x="586" y="960.4292">ExtendedClass : string</text><ellipse cx="577" cy="970.0234" rx="3" ry="3" style="stroke:#038048;stroke-width:1.0;fill:none;"/><text fill="#000000" font-family="sans-serif" font-size="11" lengthAdjust="spacing" textLength="131" x="586" y="973.2339">FirstWeekDay : number</text><ellipse cx="577" cy="982.8281" rx="3" ry="3" style="stroke:#038048;stroke-width:1.0;fill:none;"/><text fill="#000000" font-family="sans-serif" font-size="11" lengthAdjust="spacing" textLength="101" x="586" y="986.0386">InitialDate : string</text><ellipse cx="577" cy="995.6328" rx="3" ry="3" style="stroke:#038048;stroke-width:1.0;fill:none;"/><text fill="#000000" font-family="sans-serif" font-size="11" lengthAdjust="spacing" textLength="93" x="586" y="998.8433">MaxDate : string</text><ellipse cx="577" cy="1008.4375" rx="3" ry="3" style="stroke:#038048;stroke-width:1.0;fill:none;"/><text fill="#000000" font-family="sans-serif" font-size="11" lengthAdjust="spacing" textLength="90" x="586" y="1011.6479">MinDate : string</text><ellipse cx="577" cy="1021.2422" rx="3" ry="3" style="stroke:#038048;stroke-width:1.0;fill:none;"/><text fill="#000000" font-family="sans-serif" font-size="11" lengthAdjust="spacing" textLength="115" x="586" y="1024.4526">OnChange : Generic</text><ellipse cx="577" cy="1034.0469" rx="3" ry="3" style="stroke:#038048;stroke-width:1.0;fill:none;"/><text fill="#000000" font-family="sans-serif" font-size="11" lengthAdjust="spacing" textLength="149" x="586" y="1037.2573">ServerDateFormat : string</text><ellipse cx="577" cy="1046.8516" rx="3" ry="3" style="stroke:#038048;stroke-width:1.0;fill:none;"/><text fill="#000000" font-family="sans-serif" font-size="11" lengthAdjust="spacing" textLength="159" x="586" y="1050.062">ShowTodayButton : boolean</text><ellipse cx="577" cy="1059.6563" rx="3" ry="3" style="stroke:#038048;stroke-width:1.0;fill:none;"/><text fill="#000000" font-family="sans-serif" font-size="11" lengthAdjust="spacing" textLength="169" x="586" y="1062.8667">ShowWeekNumbers : boolean</text><ellipse cx="577" cy="1072.4609" rx="3" ry="3" style="stroke:#038048;stroke-width:1.0;fill:none;"/><text fill="#000000" font-family="sans-serif" font-size="11" lengthAdjust="spacing" textLength="113" x="586" y="1075.6714">TimeFormat : string</text><line style="stroke:#272B30;stroke-width:1.5;" x1="567" x2="1087" y1="1082.2656" y2="1082.2656"/><ellipse cx="577" cy="1093.2656" fill="#84BE84" rx="3" ry="3" style="stroke:#038048;stroke-width:1.0;"/><text fill="#000000" font-family="sans-serif" font-size="11" lengthAdjust="spacing" textLength="252" x="586" y="1096.4761">getCommonProviderConfigs() : BaseOptions</text><ellipse cx="577" cy="1106.0703" fill="#84BE84" rx="3" ry="3" style="stroke:#038048;stroke-width:1.0;"/><text fill="#000000" font-family="sans-serif" font-size="11" lengthAdjust="spacing" textLength="194" x="586" y="1109.2808">getProviderConfig() : BaseOptions</text><ellipse cx="577" cy="1118.875" fill="#84BE84" rx="3" ry="3" style="stroke:#038048;stroke-width:1.0;"/><text fill="#000000" font-family="sans-serif" font-size="11" lengthAdjust="spacing" textLength="330" x="586" y="1122.0854">validateCanChange(isBuilt: boolean, key: string) : boolean</text><ellipse cx="577" cy="1131.6797" fill="#84BE84" rx="3" ry="3" style="stroke:#038048;stroke-width:1.0;"/><text fill="#000000" font-family="sans-serif" font-size="11" lengthAdjust="spacing" textLength="310" x="586" y="1134.8901">validateDefault(key: string, value: unknown) : unknown</text><ellipse cx="577" cy="1144.4844" fill="#84BE84" rx="3" ry="3" style="stroke:#038048;stroke-width:1.0;"/><text fill="#000000" font-family="sans-serif" font-size="11" lengthAdjust="spacing" textLength="496" x="586" y="1147.6948">validateExtensibilityConfigs(newConfigs: BaseOptions, providerInfo: ProviderInfo) : void</text><polygon fill="#FFFF44" points="577,1152.2891,581,1156.2891,577,1160.2891,573,1156.2891" style="stroke:#B38D22;stroke-width:1.0;"/><text fill="#000000" font-family="sans-serif" font-size="11" lengthAdjust="spacing" textLength="418" x="586" y="1160.4995">mergeConfigs(providerOptions: any, providerExtendedOptions: any) : any</text><polygon fill="#FFFF44" points="577,1165.0938,581,1169.0938,577,1173.0938,573,1169.0938" style="stroke:#B38D22;stroke-width:1.0;"/><text fill="#000000" font-family="sans-serif" font-size="11" lengthAdjust="spacing" textLength="369" x="586" y="1173.3042">validateBoolean(value: boolean, defaultValue: boolean) : boolean</text><polygon fill="#FFFF44" points="577,1177.8984,581,1181.8984,577,1185.8984,573,1181.8984" style="stroke:#B38D22;stroke-width:1.0;"/><text fill="#000000" font-family="sans-serif" font-size="11" lengthAdjust="spacing" textLength="389" x="586" y="1186.1089">validateDate(value: string | Date, defaultValue: string) : string | Date</text><polygon fill="#FFFF44" points="577,1190.7031,581,1194.7031,577,1198.7031,573,1194.7031" style="stroke:#B38D22;stroke-width:1.0;"/><text fill="#000000" font-family="sans-serif" font-size="11" lengthAdjust="spacing" textLength="483" x="586" y="1198.9136">validateInRange(value: unknown, defaultValue: unknown, args: unknown[]) : unknown</text><polygon fill="#FFFF44" points="577,1203.5078,581,1207.5078,577,1211.5078,573,1207.5078" style="stroke:#B38D22;stroke-width:1.0;"/><text fill="#000000" font-family="sans-serif" font-size="11" lengthAdjust="spacing" textLength="365" x="586" y="1211.7183">validateNumber(value: number, defaultValue: number) : number</text><polygon fill="#FFFF44" points="577,1216.3125,581,1220.3125,577,1224.3125,573,1220.3125" style="stroke:#B38D22;stroke-width:1.0;"/><text fill="#000000" font-family="sans-serif" font-size="11" lengthAdjust="spacing" textLength="321" x="586" y="1224.5229">validateString(value: string, defaultValue: string) : string</text><!--MD5=[41e870c7de32ee43f987de164f0c9608]
reverse link AbstractDatePickerConfig to AbstractFlatpickrConfig--><path codeLine="60" d="M548,305.34 C548,318.3 548,331.55 548,344.85 " fill="none" id="AbstractDatePickerConfig-backto-AbstractFlatpickrConfig" style="stroke:#272B30;stroke-width:1.0;"/><polygon fill="none" points="541,305.23,548,285.23,555,305.23,541,305.23" style="stroke:#272B30;stroke-width:1.0;"/><!--MD5=[59fa236cc3a956adb0335c2b44b6ab12]
reverse link AbstractFlatpickrConfig to FlatpickrRangeDateConfig--><path codeLine="90" d="M408.65,807.85 C400.5,821.85 392.35,835.84 384.32,849.65 " fill="none" id="AbstractFlatpickrConfig-backto-FlatpickrRangeDateConfig" style="stroke:#272B30;stroke-width:1.0;"/><polygon fill="none" points="402.86,803.89,418.97,790.13,414.96,810.93,402.86,803.89" style="stroke:#272B30;stroke-width:1.0;"/><!--MD5=[e6f81ab80d1ae706f74a1e011f8510a1]
reverse link AbstractFlatpickrConfig to FlatpickrSingleDateConfig--><path codeLine="118" d="M687.69,807.58 C698.56,826.19 709.44,844.79 720.04,862.95 " fill="none" id="AbstractFlatpickrConfig-backto-FlatpickrSingleDateConfig" style="stroke:#272B30;stroke-width:1.0;"/><polygon fill="none" points="681.54,810.93,677.49,790.13,693.63,803.86,681.54,810.93" style="stroke:#272B30;stroke-width:1.0;"/><!--MD5=[16064680b17bf0a92fed8400af2caa7e]
@startuml
skinparam ClassArrowColor #272b30
skinparam ClassBorderColor #272b30
skinparam ClassBackgroundColor #fff
skinparam BackgroundColor #ced4da
hide empty methods
hide empty fields
abstract class "AbstractFlatpickrConfig" {
    +AllowInput : boolean
    +CalendarMode : Mode
    +DateFormat : string
    +DisableMobile : boolean
    +ExtendedClass : string
    +FirstWeekDay : number
    +MaxDate : string
    +MinDate : string
    +OnChange : Generic
    +ServerDateFormat : string
    +ShowTodayButton : boolean
    +ShowWeekNumbers : boolean
    +TimeFormat : string
    -_lang : string
    -_providerExtendedOptions : BaseOptions
    -_providerOptions : BaseOptions
    +getCommonProviderConfigs() : BaseOptions
    {abstract} +getProviderConfig() : any
    +validateCanChange(_isBuilt: boolean, _key: string) : boolean
    +validateDefault(key: string, value: unknown) : unknown
    +validateExtensibilityConfigs(newConfigs: BaseOptions, providerInfo: ProviderInfo) : void
    #mergeConfigs(providerOptions: any, providerExtendedOptions: any) : any
    #validateBoolean(value: boolean, defaultValue: boolean) : boolean
    #validateDate(value: string | Date, defaultValue: string) : string | Date
    #validateInRange(value: unknown, defaultValue: unknown, args: unknown[]) : unknown
    #validateNumber(value: number, defaultValue: number) : number
    #validateString(value: string, defaultValue: string) : string
    -_checkAltFormat() : string
    -_checkLocale() : CustomLocale
    -_checkServerDateFormat() : void
    -_mapProviderDateFormat() : string
}
abstract class "AbstractDatePickerConfig" {
    +DateFormat : string
    +ExtendedClass : string
    +FirstWeekDay : number
    +MaxDate : string
    +MinDate : string
    +ShowTodayButton : boolean
    +ShowWeekNumbers : boolean
    +TimeFormat : string
    {abstract} +getProviderConfig() : any
    +validateCanChange(_isBuilt: boolean, _key: string) : boolean
    +validateDefault(key: string, value: unknown) : unknown
    #mergeConfigs(providerOptions: any, providerExtendedOptions: any) : any
    #validateBoolean(value: boolean, defaultValue: boolean) : boolean
    #validateDate(value: string | Date, defaultValue: string) : string | Date
    #validateExtensibilityConfigs(newConfigs: any, providerInfo: ProviderInfo) : any
    #validateInRange(value: unknown, defaultValue: unknown, args: unknown[]) : unknown
    #validateNumber(value: number, defaultValue: number) : number
    #validateString(value: string, defaultValue: string) : string
}
"AbstractDatePickerConfig" <|- - "AbstractFlatpickrConfig"
class "FlatpickrRangeDateConfig" {
    +AllowInput : boolean
    +CalendarMode : Mode
    +DateFormat : string
    +DisableMobile : boolean
    +ExtendedClass : string
    +FirstWeekDay : number
    +InitialEndDate : string
    +InitialStartDate : string
    +MaxDate : string
    +MinDate : string
    +OnChange : Generic
    +ServerDateFormat : string
    +ShowTodayButton : boolean
    +ShowWeekNumbers : boolean
    +TimeFormat : string
    +getCommonProviderConfigs() : BaseOptions
    +getProviderConfig() : BaseOptions
    +validateCanChange(isBuilt: boolean, key: string) : boolean
    +validateDefault(key: string, value: unknown) : unknown
    +validateExtensibilityConfigs(newConfigs: BaseOptions, providerInfo: ProviderInfo) : void
    #mergeConfigs(providerOptions: any, providerExtendedOptions: any) : any
    #validateBoolean(value: boolean, defaultValue: boolean) : boolean
    #validateDate(value: string | Date, defaultValue: string) : string | Date
    #validateInRange(value: unknown, defaultValue: unknown, args: unknown[]) : unknown
    #validateNumber(value: number, defaultValue: number) : number
    #validateString(value: string, defaultValue: string) : string
    -_setDefaultDate() : string[]
}
"AbstractFlatpickrConfig" <|- - "FlatpickrRangeDateConfig"
class "FlatpickrSingleDateConfig" {
    +AllowInput : boolean
    +CalendarMode : Mode
    +DateFormat : string
    +DisableMobile : boolean
    +ExtendedClass : string
    +FirstWeekDay : number
    +InitialDate : string
    +MaxDate : string
    +MinDate : string
    +OnChange : Generic
    +ServerDateFormat : string
    +ShowTodayButton : boolean
    +ShowWeekNumbers : boolean
    +TimeFormat : string
    +getCommonProviderConfigs() : BaseOptions
    +getProviderConfig() : BaseOptions
    +validateCanChange(isBuilt: boolean, key: string) : boolean
    +validateDefault(key: string, value: unknown) : unknown
    +validateExtensibilityConfigs(newConfigs: BaseOptions, providerInfo: ProviderInfo) : void
    #mergeConfigs(providerOptions: any, providerExtendedOptions: any) : any
    #validateBoolean(value: boolean, defaultValue: boolean) : boolean
    #validateDate(value: string | Date, defaultValue: string) : string | Date
    #validateInRange(value: unknown, defaultValue: unknown, args: unknown[]) : unknown
    #validateNumber(value: number, defaultValue: number) : number
    #validateString(value: string, defaultValue: string) : string
}
"AbstractFlatpickrConfig" <|- - "FlatpickrSingleDateConfig"
@enduml

PlantUML version 1.2021.14(Fri Nov 12 16:46:50 UTC 2021)
(GPL source distribution)
Java Runtime: OpenJDK Runtime Environment
JVM: OpenJDK 64-Bit Server VM
Default Encoding: UTF-8
Language: en
Country: null
--></g></svg>