<?xml version="1.0" encoding="us-ascii" standalone="no"?><svg xmlns="http://www.w3.org/2000/svg" xmlns:xlink="http://www.w3.org/1999/xlink" contentStyleType="text/css" height="1893px" preserveAspectRatio="none" style="width:1393px;height:1893px;background:#CED4DA;" version="1.1" viewBox="0 0 1393 1893" width="1393px" zoomAndPan="magnify"><defs/><g><rect fill="#CED4DA" height="1893" style="stroke:none;stroke-width:1.0;" width="1393" x="0" y="0"/><!--class AbstractRangeSlider<P, C>--><g id="elem_AbstractRangeSlider&lt;P, C&gt;"><rect codeLine="7" fill="#FFFFFF" height="493.1836" id="AbstractRangeSlider&lt;P, C&gt;" rx="2.5" ry="2.5" style="stroke:#272B30;stroke-width:0.5;" width="694" x="408.5" y="593"/><ellipse cx="657.75" cy="609" fill="#A9DCDF" rx="11" ry="11" style="stroke:#181818;stroke-width:1.0;"/><path d="M657.6133,604.3481 L656.4595,609.4199 L658.7754,609.4199 Z M656.1191,602.1069 L659.1157,602.1069 L662.4609,614.5 L660.0122,614.5 L659.2485,611.437 L655.9697,611.437 L655.2227,614.5 L652.7739,614.5 Z " fill="#000000"/><text fill="#000000" font-family="sans-serif" font-size="14" font-style="italic" lengthAdjust="spacing" textLength="187" x="678.25" y="614.291">AbstractRangeSlider&lt;P, C&gt;</text><line style="stroke:#272B30;stroke-width:0.5;" x1="409.5" x2="1101.5" y1="625" y2="625"/><polygon fill="none" points="419.5,633.7441,423.5,637.7441,419.5,641.7441,415.5,637.7441" style="stroke:#B38D22;stroke-width:1.0;"/><text fill="#000000" font-family="sans-serif" font-size="14" lengthAdjust="spacing" textLength="176" x="428.5" y="642.5352">isProviderBased : boolean</text><polygon fill="none" points="419.5,650.2324,423.5,654.2324,419.5,658.2324,415.5,654.2324" style="stroke:#B38D22;stroke-width:1.0;"/><text fill="#000000" font-family="sans-serif" font-size="14" lengthAdjust="spacing" textLength="389" x="428.5" y="659.0234">providerEventsManagerInstance : IProviderEventManager</text><line style="stroke:#272B30;stroke-width:0.5;" x1="409.5" x2="1101.5" y1="665.9766" y2="665.9766"/><ellipse cx="419.5" cy="679.7207" fill="#84BE84" rx="3" ry="3" style="stroke:#038048;stroke-width:1.0;"/><text fill="#000000" font-family="sans-serif" font-size="14" lengthAdjust="spacing" textLength="86" x="428.5" y="683.5117">build() : void</text><ellipse cx="419.5" cy="696.209" fill="#84BE84" rx="3" ry="3" style="stroke:#038048;stroke-width:1.0;"/><text fill="#000000" font-family="sans-serif" font-size="14" lengthAdjust="spacing" textLength="482" x="428.5" y="700">changeProperty(propertyName: string, propertyValue: unknown) : void</text><ellipse cx="419.5" cy="712.6973" fill="#84BE84" rx="3" ry="3" style="stroke:#038048;stroke-width:1.0;"/><text fill="#000000" font-family="sans-serif" font-size="14" lengthAdjust="spacing" textLength="236" x="428.5" y="716.4883">checkAddedProviderEvents() : void</text><ellipse cx="419.5" cy="729.1855" fill="#84BE84" rx="3" ry="3" style="stroke:#038048;stroke-width:1.0;"/><text fill="#000000" font-family="sans-serif" font-size="14" lengthAdjust="spacing" textLength="247" x="428.5" y="732.9766">checkPendingProviderEvents() : void</text><ellipse cx="419.5" cy="745.6738" fill="#84BE84" rx="3" ry="3" style="stroke:#038048;stroke-width:1.0;"/><text fill="#000000" font-family="sans-serif" font-size="14" font-style="italic" lengthAdjust="spacing" textLength="100" x="428.5" y="749.4648">disable() : void</text><ellipse cx="419.5" cy="762.1621" fill="#84BE84" rx="3" ry="3" style="stroke:#038048;stroke-width:1.0;"/><text fill="#000000" font-family="sans-serif" font-size="14" lengthAdjust="spacing" textLength="104" x="428.5" y="765.9531">dispose() : void</text><ellipse cx="419.5" cy="778.6504" fill="#84BE84" rx="3" ry="3" style="stroke:#038048;stroke-width:1.0;"/><text fill="#000000" font-family="sans-serif" font-size="14" font-style="italic" lengthAdjust="spacing" textLength="97" x="428.5" y="782.4414">enable() : void</text><ellipse cx="419.5" cy="795.1387" fill="#84BE84" rx="3" ry="3" style="stroke:#038048;stroke-width:1.0;"/><text fill="#000000" font-family="sans-serif" font-size="14" lengthAdjust="spacing" textLength="266" x="428.5" y="798.9297">equalsToID(patternId: string) : boolean</text><ellipse cx="419.5" cy="811.627" fill="#84BE84" rx="3" ry="3" style="stroke:#038048;stroke-width:1.0;"/><text fill="#000000" font-family="sans-serif" font-size="14" lengthAdjust="spacing" textLength="428" x="428.5" y="815.418">registerCallback(eventName: string, callback: OSGeneric) : void</text><ellipse cx="419.5" cy="828.1152" fill="#84BE84" rx="3" ry="3" style="stroke:#038048;stroke-width:1.0;"/><text fill="#000000" font-family="sans-serif" font-size="14" lengthAdjust="spacing" textLength="364" x="428.5" y="831.9063">setProviderConfigs(providerConfigs: unknown) : void</text><ellipse cx="419.5" cy="844.6035" fill="#84BE84" rx="3" ry="3" style="stroke:#038048;stroke-width:1.0;"/><text fill="#000000" font-family="sans-serif" font-size="14" lengthAdjust="spacing" textLength="668" x="428.5" y="848.3945">setProviderEvent(eventName: string, callback: Generic, uniqueId: string, saveEvent: boolean) : void</text><ellipse cx="419.5" cy="861.0918" fill="#84BE84" rx="3" ry="3" style="stroke:#038048;stroke-width:1.0;"/><text fill="#000000" font-family="sans-serif" font-size="14" font-style="italic" lengthAdjust="spacing" textLength="297" x="428.5" y="864.8828">setRangeIntervalChangeOnDragEnd() : void</text><ellipse cx="419.5" cy="877.5801" fill="#84BE84" rx="3" ry="3" style="stroke:#038048;stroke-width:1.0;"/><text fill="#000000" font-family="sans-serif" font-size="14" lengthAdjust="spacing" textLength="281" x="428.5" y="881.3711">unsetProviderEvent(eventId: string) : void</text><ellipse cx="419.5" cy="894.0684" fill="#84BE84" rx="3" ry="3" style="stroke:#038048;stroke-width:1.0;"/><text fill="#000000" font-family="sans-serif" font-size="14" lengthAdjust="spacing" textLength="377" x="428.5" y="897.8594">updateProviderEvents(providerInfo: ProviderInfo) : void</text><polygon fill="#FFFF44" points="419.5,905.5566,423.5,909.5566,419.5,913.5566,415.5,909.5566" style="stroke:#B38D22;stroke-width:1.0;"/><text fill="#000000" font-family="sans-serif" font-size="14" lengthAdjust="spacing" textLength="123" x="428.5" y="914.3477">finishBuild() : void</text><polygon fill="#FFFF44" points="419.5,922.0449,423.5,926.0449,419.5,930.0449,415.5,926.0449" style="stroke:#B38D22;stroke-width:1.0;"/><text fill="#000000" font-family="sans-serif" font-size="14" font-style="italic" lengthAdjust="spacing" textLength="158" x="428.5" y="930.8359">prepareConfigs() : void</text><polygon fill="#FFFF44" points="419.5,938.5332,423.5,942.5332,419.5,946.5332,415.5,942.5332" style="stroke:#B38D22;stroke-width:1.0;"/><text fill="#000000" font-family="sans-serif" font-size="14" lengthAdjust="spacing" textLength="99" x="428.5" y="947.3242">redraw() : void</text><polygon fill="#FFFF44" points="419.5,955.0215,423.5,959.0215,419.5,963.0215,415.5,959.0215" style="stroke:#B38D22;stroke-width:1.0;"/><text fill="#000000" font-family="sans-serif" font-size="14" font-style="italic" lengthAdjust="spacing" textLength="178" x="428.5" y="963.8125">setA11YProperties() : void</text><polygon fill="#FFFF44" points="419.5,971.5098,423.5,975.5098,419.5,979.5098,415.5,975.5098" style="stroke:#B38D22;stroke-width:1.0;"/><text fill="#000000" font-family="sans-serif" font-size="14" font-style="italic" lengthAdjust="spacing" textLength="136" x="428.5" y="980.3008">setCallbacks() : void</text><polygon fill="#FFFF44" points="419.5,987.998,423.5,991.998,419.5,995.998,415.5,991.998" style="stroke:#B38D22;stroke-width:1.0;"/><text fill="#000000" font-family="sans-serif" font-size="14" font-style="italic" lengthAdjust="spacing" textLength="165" x="428.5" y="996.7891">setHtmlElements() : void</text><polygon fill="#FFFF44" points="419.5,1004.4863,423.5,1008.4863,419.5,1012.4863,415.5,1008.4863" style="stroke:#B38D22;stroke-width:1.0;"/><text fill="#000000" font-family="sans-serif" font-size="14" lengthAdjust="spacing" textLength="570" x="428.5" y="1013.2773">triggerPlatformEventCallback(platFormCallback: OSGeneric, args: unknown[]) : void</text><polygon fill="#FFFF44" points="419.5,1020.9746,423.5,1024.9746,419.5,1028.9746,415.5,1024.9746" style="stroke:#B38D22;stroke-width:1.0;"/><text fill="#000000" font-family="sans-serif" font-size="14" lengthAdjust="spacing" textLength="318" x="428.5" y="1029.7656">triggerPlatformInitializedEventCallback() : void</text><polygon fill="#FFFF44" points="419.5,1037.4629,423.5,1041.4629,419.5,1045.4629,415.5,1041.4629" style="stroke:#B38D22;stroke-width:1.0;"/><text fill="#000000" font-family="sans-serif" font-size="14" lengthAdjust="spacing" textLength="154" x="428.5" y="1046.2539">unsetCallbacks() : void</text><polygon fill="#FFFF44" points="419.5,1053.9512,423.5,1057.9512,419.5,1061.9512,415.5,1057.9512" style="stroke:#B38D22;stroke-width:1.0;"/><text fill="#000000" font-family="sans-serif" font-size="14" lengthAdjust="spacing" textLength="198" x="428.5" y="1062.7422">unsetGlobalCallbacks() : void</text><polygon fill="#FFFF44" points="419.5,1070.4395,423.5,1074.4395,419.5,1078.4395,415.5,1074.4395" style="stroke:#B38D22;stroke-width:1.0;"/><text fill="#000000" font-family="sans-serif" font-size="14" font-style="italic" lengthAdjust="spacing" textLength="183" x="428.5" y="1079.2305">unsetHtmlElements() : void</text></g><!--class AbstractProviderPattern<P, C>--><g id="elem_AbstractProviderPattern&lt;P, C&gt;"><rect codeLine="36" fill="#FFFFFF" height="526.1602" id="AbstractProviderPattern&lt;P, C&gt;" rx="2.5" ry="2.5" style="stroke:#272B30;stroke-width:0.5;" width="787" x="9" y="7"/><ellipse cx="292.75" cy="23" fill="#A9DCDF" rx="11" ry="11" style="stroke:#181818;stroke-width:1.0;"/><path d="M292.6133,18.3481 L291.4595,23.4199 L293.7754,23.4199 Z M291.1191,16.1069 L294.1157,16.1069 L297.4609,28.5 L295.0122,28.5 L294.2485,25.437 L290.9697,25.437 L290.2227,28.5 L287.7739,28.5 Z " fill="#000000"/><text fill="#000000" font-family="sans-serif" font-size="14" font-style="italic" lengthAdjust="spacing" textLength="211" x="313.25" y="28.291">AbstractProviderPattern&lt;P, C&gt;</text><line style="stroke:#272B30;stroke-width:0.5;" x1="10" x2="795" y1="39" y2="39"/><polygon fill="none" points="20,47.7441,24,51.7441,20,55.7441,16,51.7441" style="stroke:#B38D22;stroke-width:1.0;"/><text fill="#000000" font-family="sans-serif" font-size="14" lengthAdjust="spacing" textLength="176" x="29" y="56.5352">isProviderBased : boolean</text><polygon fill="none" points="20,64.2324,24,68.2324,20,72.2324,16,68.2324" style="stroke:#B38D22;stroke-width:1.0;"/><text fill="#000000" font-family="sans-serif" font-size="14" lengthAdjust="spacing" textLength="389" x="29" y="73.0234">providerEventsManagerInstance : IProviderEventManager</text><rect fill="none" height="6" style="stroke:#C82930;stroke-width:1.0;" width="6" x="17" y="82.7207"/><text fill="#000000" font-family="sans-serif" font-size="14" lengthAdjust="spacing" textLength="407" x="29" y="89.5117">_platformEventProviderConfigsAppliedCallback : OSGeneric</text><rect fill="none" height="6" style="stroke:#C82930;stroke-width:1.0;" width="6" x="17" y="99.209"/><text fill="#000000" font-family="sans-serif" font-size="14" lengthAdjust="spacing" textLength="85" x="29" y="106">_provider : P</text><rect fill="none" height="6" style="stroke:#C82930;stroke-width:1.0;" width="6" x="17" y="115.6973"/><text fill="#000000" font-family="sans-serif" font-size="14" lengthAdjust="spacing" textLength="188" x="29" y="122.4883">_providerInfo : ProviderInfo</text><line style="stroke:#272B30;stroke-width:0.5;" x1="10" x2="795" y1="129.4414" y2="129.4414"/><ellipse cx="20" cy="143.1855" fill="#84BE84" rx="3" ry="3" style="stroke:#038048;stroke-width:1.0;"/><text fill="#000000" font-family="sans-serif" font-size="14" lengthAdjust="spacing" textLength="86" x="29" y="146.9766">build() : void</text><ellipse cx="20" cy="159.6738" fill="#84BE84" rx="3" ry="3" style="stroke:#038048;stroke-width:1.0;"/><text fill="#000000" font-family="sans-serif" font-size="14" lengthAdjust="spacing" textLength="482" x="29" y="163.4648">changeProperty(propertyName: string, propertyValue: unknown) : void</text><ellipse cx="20" cy="176.1621" fill="#84BE84" rx="3" ry="3" style="stroke:#038048;stroke-width:1.0;"/><text fill="#000000" font-family="sans-serif" font-size="14" lengthAdjust="spacing" textLength="236" x="29" y="179.9531">checkAddedProviderEvents() : void</text><ellipse cx="20" cy="192.6504" fill="#84BE84" rx="3" ry="3" style="stroke:#038048;stroke-width:1.0;"/><text fill="#000000" font-family="sans-serif" font-size="14" lengthAdjust="spacing" textLength="247" x="29" y="196.4414">checkPendingProviderEvents() : void</text><ellipse cx="20" cy="209.1387" fill="#84BE84" rx="3" ry="3" style="stroke:#038048;stroke-width:1.0;"/><text fill="#000000" font-family="sans-serif" font-size="14" lengthAdjust="spacing" textLength="104" x="29" y="212.9297">dispose() : void</text><ellipse cx="20" cy="225.627" fill="#84BE84" rx="3" ry="3" style="stroke:#038048;stroke-width:1.0;"/><text fill="#000000" font-family="sans-serif" font-size="14" lengthAdjust="spacing" textLength="266" x="29" y="229.418">equalsToID(patternId: string) : boolean</text><ellipse cx="20" cy="242.1152" fill="#84BE84" rx="3" ry="3" style="stroke:#038048;stroke-width:1.0;"/><text fill="#000000" font-family="sans-serif" font-size="14" lengthAdjust="spacing" textLength="428" x="29" y="245.9063">registerCallback(eventName: string, callback: OSGeneric) : void</text><ellipse cx="20" cy="258.6035" fill="#84BE84" rx="3" ry="3" style="stroke:#038048;stroke-width:1.0;"/><text fill="#000000" font-family="sans-serif" font-size="14" lengthAdjust="spacing" textLength="364" x="29" y="262.3945">setProviderConfigs(providerConfigs: unknown) : void</text><ellipse cx="20" cy="275.0918" fill="#84BE84" rx="3" ry="3" style="stroke:#038048;stroke-width:1.0;"/><text fill="#000000" font-family="sans-serif" font-size="14" lengthAdjust="spacing" textLength="668" x="29" y="278.8828">setProviderEvent(eventName: string, callback: Generic, uniqueId: string, saveEvent: boolean) : void</text><ellipse cx="20" cy="291.5801" fill="#84BE84" rx="3" ry="3" style="stroke:#038048;stroke-width:1.0;"/><text fill="#000000" font-family="sans-serif" font-size="14" lengthAdjust="spacing" textLength="281" x="29" y="295.3711">unsetProviderEvent(eventId: string) : void</text><ellipse cx="20" cy="308.0684" fill="#84BE84" rx="3" ry="3" style="stroke:#038048;stroke-width:1.0;"/><text fill="#000000" font-family="sans-serif" font-size="14" lengthAdjust="spacing" textLength="377" x="29" y="311.8594">updateProviderEvents(providerInfo: ProviderInfo) : void</text><polygon fill="#FFFF44" points="20,319.5566,24,323.5566,20,327.5566,16,323.5566" style="stroke:#B38D22;stroke-width:1.0;"/><text fill="#000000" font-family="sans-serif" font-size="14" lengthAdjust="spacing" textLength="123" x="29" y="328.3477">finishBuild() : void</text><polygon fill="#FFFF44" points="20,336.0449,24,340.0449,20,344.0449,16,340.0449" style="stroke:#B38D22;stroke-width:1.0;"/><text fill="#000000" font-family="sans-serif" font-size="14" font-style="italic" lengthAdjust="spacing" textLength="158" x="29" y="344.8359">prepareConfigs() : void</text><polygon fill="#FFFF44" points="20,352.5332,24,356.5332,20,360.5332,16,356.5332" style="stroke:#B38D22;stroke-width:1.0;"/><text fill="#000000" font-family="sans-serif" font-size="14" lengthAdjust="spacing" textLength="99" x="29" y="361.3242">redraw() : void</text><polygon fill="#FFFF44" points="20,369.0215,24,373.0215,20,377.0215,16,373.0215" style="stroke:#B38D22;stroke-width:1.0;"/><text fill="#000000" font-family="sans-serif" font-size="14" font-style="italic" lengthAdjust="spacing" textLength="178" x="29" y="377.8125">setA11YProperties() : void</text><polygon fill="#FFFF44" points="20,385.5098,24,389.5098,20,393.5098,16,389.5098" style="stroke:#B38D22;stroke-width:1.0;"/><text fill="#000000" font-family="sans-serif" font-size="14" font-style="italic" lengthAdjust="spacing" textLength="136" x="29" y="394.3008">setCallbacks() : void</text><polygon fill="#FFFF44" points="20,401.998,24,405.998,20,409.998,16,405.998" style="stroke:#B38D22;stroke-width:1.0;"/><text fill="#000000" font-family="sans-serif" font-size="14" font-style="italic" lengthAdjust="spacing" textLength="165" x="29" y="410.7891">setHtmlElements() : void</text><polygon fill="#FFFF44" points="20,418.4863,24,422.4863,20,426.4863,16,422.4863" style="stroke:#B38D22;stroke-width:1.0;"/><text fill="#000000" font-family="sans-serif" font-size="14" lengthAdjust="spacing" textLength="570" x="29" y="427.2773">triggerPlatformEventCallback(platFormCallback: OSGeneric, args: unknown[]) : void</text><polygon fill="#FFFF44" points="20,434.9746,24,438.9746,20,442.9746,16,438.9746" style="stroke:#B38D22;stroke-width:1.0;"/><text fill="#000000" font-family="sans-serif" font-size="14" lengthAdjust="spacing" textLength="318" x="29" y="443.7656">triggerPlatformInitializedEventCallback() : void</text><polygon fill="#FFFF44" points="20,451.4629,24,455.4629,20,459.4629,16,455.4629" style="stroke:#B38D22;stroke-width:1.0;"/><text fill="#000000" font-family="sans-serif" font-size="14" lengthAdjust="spacing" textLength="154" x="29" y="460.2539">unsetCallbacks() : void</text><polygon fill="#FFFF44" points="20,467.9512,24,471.9512,20,475.9512,16,471.9512" style="stroke:#B38D22;stroke-width:1.0;"/><text fill="#000000" font-family="sans-serif" font-size="14" lengthAdjust="spacing" textLength="198" x="29" y="476.7422">unsetGlobalCallbacks() : void</text><polygon fill="#FFFF44" points="20,484.4395,24,488.4395,20,492.4395,16,488.4395" style="stroke:#B38D22;stroke-width:1.0;"/><text fill="#000000" font-family="sans-serif" font-size="14" font-style="italic" lengthAdjust="spacing" textLength="183" x="29" y="493.2305">unsetHtmlElements() : void</text><rect fill="#F24D5C" height="6" style="stroke:#C82930;stroke-width:1.0;" width="6" x="17" y="502.9277"/><text fill="#000000" font-family="sans-serif" font-size="14" lengthAdjust="spacing" textLength="397" x="29" y="509.7188">_getEventIndexFromArray(event: IProviderEvent) : number</text><rect fill="#F24D5C" height="6" style="stroke:#C82930;stroke-width:1.0;" width="6" x="17" y="519.416"/><text fill="#000000" font-family="sans-serif" font-size="14" lengthAdjust="spacing" textLength="761" x="29" y="526.207">_handleProviderEventsAPI(eventName: string, callback: Generic, addEvent: boolean, event: IProviderEvent) : void</text></g><!--class IRangeSlider--><g id="elem_IRangeSlider"><rect codeLine="68" fill="#FFFFFF" height="278.8359" id="IRangeSlider" rx="2.5" ry="2.5" style="stroke:#272B30;stroke-width:0.5;" width="555" x="831" y="130.5"/><ellipse cx="1061.25" cy="146.5" fill="#B4A7E5" rx="11" ry="11" style="stroke:#181818;stroke-width:1.0;"/><path d="M1057.6777,142.7651 L1057.6777,140.6069 L1065.0571,140.6069 L1065.0571,142.7651 L1062.5918,142.7651 L1062.5918,150.8418 L1065.0571,150.8418 L1065.0571,153 L1057.6777,153 L1057.6777,150.8418 L1060.1431,150.8418 L1060.1431,142.7651 Z " fill="#000000"/><text fill="#000000" font-family="sans-serif" font-size="14" font-style="italic" lengthAdjust="spacing" textLength="86" x="1081.75" y="151.791">IRangeSlider</text><line style="stroke:#272B30;stroke-width:0.5;" x1="832" x2="1385" y1="162.5" y2="162.5"/><ellipse cx="842" cy="176.2441" fill="none" rx="3" ry="3" style="stroke:#038048;stroke-width:1.0;"/><text fill="#000000" font-family="sans-serif" font-size="14" lengthAdjust="spacing" textLength="109" x="851" y="180.0352">isBuilt : boolean</text><ellipse cx="842" cy="192.7324" fill="none" rx="3" ry="3" style="stroke:#038048;stroke-width:1.0;"/><text fill="#000000" font-family="sans-serif" font-size="14" lengthAdjust="spacing" textLength="184" x="851" y="196.5234">selfElement : HTMLElement</text><ellipse cx="842" cy="209.2207" fill="none" rx="3" ry="3" style="stroke:#038048;stroke-width:1.0;"/><text fill="#000000" font-family="sans-serif" font-size="14" lengthAdjust="spacing" textLength="113" x="851" y="213.0117">uniqueId : string</text><ellipse cx="842" cy="225.709" fill="none" rx="3" ry="3" style="stroke:#038048;stroke-width:1.0;"/><text fill="#000000" font-family="sans-serif" font-size="14" lengthAdjust="spacing" textLength="111" x="851" y="229.5">widgetId : string</text><line style="stroke:#272B30;stroke-width:0.5;" x1="832" x2="1385" y1="236.4531" y2="236.4531"/><ellipse cx="842" cy="250.1973" fill="#84BE84" rx="3" ry="3" style="stroke:#038048;stroke-width:1.0;"/><text fill="#000000" font-family="sans-serif" font-size="14" lengthAdjust="spacing" textLength="86" x="851" y="253.9883">build() : void</text><ellipse cx="842" cy="266.6855" fill="#84BE84" rx="3" ry="3" style="stroke:#038048;stroke-width:1.0;"/><text fill="#000000" font-family="sans-serif" font-size="14" lengthAdjust="spacing" textLength="482" x="851" y="270.4766">changeProperty(propertyName: string, propertyValue: unknown) : void</text><ellipse cx="842" cy="283.1738" fill="#84BE84" rx="3" ry="3" style="stroke:#038048;stroke-width:1.0;"/><text fill="#000000" font-family="sans-serif" font-size="14" lengthAdjust="spacing" textLength="209" x="851" y="286.9648">disable(uniqueId: string) : void</text><ellipse cx="842" cy="299.6621" fill="#84BE84" rx="3" ry="3" style="stroke:#038048;stroke-width:1.0;"/><text fill="#000000" font-family="sans-serif" font-size="14" lengthAdjust="spacing" textLength="104" x="851" y="303.4531">dispose() : void</text><ellipse cx="842" cy="316.1504" fill="#84BE84" rx="3" ry="3" style="stroke:#038048;stroke-width:1.0;"/><text fill="#000000" font-family="sans-serif" font-size="14" lengthAdjust="spacing" textLength="206" x="851" y="319.9414">enable(uniqueId: string) : void</text><ellipse cx="842" cy="332.6387" fill="#84BE84" rx="3" ry="3" style="stroke:#038048;stroke-width:1.0;"/><text fill="#000000" font-family="sans-serif" font-size="14" lengthAdjust="spacing" textLength="216" x="851" y="336.4297">equalsToID(id: string) : boolean</text><ellipse cx="842" cy="349.127" fill="#84BE84" rx="3" ry="3" style="stroke:#038048;stroke-width:1.0;"/><text fill="#000000" font-family="sans-serif" font-size="14" lengthAdjust="spacing" textLength="428" x="851" y="352.918">registerCallback(eventName: string, callback: OSGeneric) : void</text><ellipse cx="842" cy="365.6152" fill="#84BE84" rx="3" ry="3" style="stroke:#038048;stroke-width:1.0;"/><text fill="#000000" font-family="sans-serif" font-size="14" lengthAdjust="spacing" textLength="324" x="851" y="369.4063">setProviderConfigs(providerConfigs: any) : void</text><ellipse cx="842" cy="382.1035" fill="#84BE84" rx="3" ry="3" style="stroke:#038048;stroke-width:1.0;"/><text fill="#000000" font-family="sans-serif" font-size="14" lengthAdjust="spacing" textLength="529" x="851" y="385.8945">setProviderEvent(eventName: string, callback: Generic, uniqueId: string) : void</text><ellipse cx="842" cy="398.5918" fill="#84BE84" rx="3" ry="3" style="stroke:#038048;stroke-width:1.0;"/><text fill="#000000" font-family="sans-serif" font-size="14" lengthAdjust="spacing" textLength="281" x="851" y="402.3828">unsetProviderEvent(eventId: string) : void</text></g><!--class AbstractNoUiSlider<C>--><g id="elem_AbstractNoUiSlider&lt;C&gt;"><rect codeLine="85" fill="#FFFFFF" height="740.5078" id="AbstractNoUiSlider&lt;C&gt;" rx="2.5" ry="2.5" style="stroke:#272B30;stroke-width:0.5;" width="694" x="408.5" y="1146"/><ellipse cx="670.75" cy="1162" fill="#A9DCDF" rx="11" ry="11" style="stroke:#181818;stroke-width:1.0;"/><path d="M670.6133,1157.3481 L669.4595,1162.4199 L671.7754,1162.4199 Z M669.1191,1155.1069 L672.1157,1155.1069 L675.4609,1167.5 L673.0122,1167.5 L672.2485,1164.437 L668.9697,1164.437 L668.2227,1167.5 L665.7739,1167.5 Z " fill="#000000"/><text fill="#000000" font-family="sans-serif" font-size="14" font-style="italic" lengthAdjust="spacing" textLength="161" x="691.25" y="1167.291">AbstractNoUiSlider&lt;C&gt;</text><line style="stroke:#272B30;stroke-width:0.5;" x1="409.5" x2="1101.5" y1="1178" y2="1178"/><polygon fill="none" points="419.5,1186.7441,423.5,1190.7441,419.5,1194.7441,415.5,1190.7441" style="stroke:#B38D22;stroke-width:1.0;"/><text fill="#000000" font-family="sans-serif" font-size="14" lengthAdjust="spacing" textLength="258" x="428.5" y="1195.5352">eventProviderValueChanged : Generic</text><polygon fill="none" points="419.5,1203.2324,423.5,1207.2324,419.5,1211.2324,415.5,1207.2324" style="stroke:#B38D22;stroke-width:1.0;"/><text fill="#000000" font-family="sans-serif" font-size="14" lengthAdjust="spacing" textLength="176" x="428.5" y="1212.0234">isProviderBased : boolean</text><polygon fill="none" points="419.5,1219.7207,423.5,1223.7207,419.5,1227.7207,415.5,1223.7207" style="stroke:#B38D22;stroke-width:1.0;"/><text fill="#000000" font-family="sans-serif" font-size="14" lengthAdjust="spacing" textLength="169" x="428.5" y="1228.5117">noUiSliderOpts : Options</text><polygon fill="none" points="419.5,1236.209,423.5,1240.209,419.5,1244.209,415.5,1240.209" style="stroke:#B38D22;stroke-width:1.0;"/><text fill="#000000" font-family="sans-serif" font-size="14" lengthAdjust="spacing" textLength="366" x="428.5" y="1245">platformEventValueChange : OSOnValueChangeEvent</text><polygon fill="none" points="419.5,1252.6973,423.5,1256.6973,419.5,1260.6973,415.5,1256.6973" style="stroke:#B38D22;stroke-width:1.0;"/><text fill="#000000" font-family="sans-serif" font-size="14" lengthAdjust="spacing" textLength="389" x="428.5" y="1261.4883">providerEventsManagerInstance : IProviderEventManager</text><polygon fill="none" points="419.5,1269.1855,423.5,1273.1855,419.5,1277.1855,415.5,1273.1855" style="stroke:#B38D22;stroke-width:1.0;"/><text fill="#000000" font-family="sans-serif" font-size="14" lengthAdjust="spacing" textLength="127" x="428.5" y="1277.9766">throttleTimer : any</text><polygon fill="none" points="419.5,1285.6738,423.5,1289.6738,419.5,1293.6738,415.5,1289.6738" style="stroke:#B38D22;stroke-width:1.0;"/><text fill="#000000" font-family="sans-serif" font-size="14" lengthAdjust="spacing" textLength="189" x="428.5" y="1294.4648">throttleTimeValue : number</text><rect fill="none" height="6" style="stroke:#C82930;stroke-width:1.0;" width="6" x="416.5" y="1304.1621"/><text fill="#000000" font-family="sans-serif" font-size="14" lengthAdjust="spacing" textLength="137" x="428.5" y="1310.9531">_isInterval : boolean</text><rect fill="none" height="6" style="stroke:#C82930;stroke-width:1.0;" width="6" x="416.5" y="1320.6504"/><text fill="#000000" font-family="sans-serif" font-size="14" lengthAdjust="spacing" textLength="281" x="428.5" y="1327.4414">_rangeSliderProviderElem : HTMLElement</text><line style="stroke:#272B30;stroke-width:0.5;" x1="409.5" x2="1101.5" y1="1334.3945" y2="1334.3945"/><ellipse cx="419.5" cy="1348.1387" fill="#84BE84" rx="3" ry="3" style="stroke:#038048;stroke-width:1.0;"/><text fill="#000000" font-family="sans-serif" font-size="14" lengthAdjust="spacing" textLength="86" x="428.5" y="1351.9297">build() : void</text><ellipse cx="419.5" cy="1364.627" fill="#84BE84" rx="3" ry="3" style="stroke:#038048;stroke-width:1.0;"/><text fill="#000000" font-family="sans-serif" font-size="14" lengthAdjust="spacing" textLength="482" x="428.5" y="1368.418">changeProperty(propertyName: string, propertyValue: unknown) : void</text><ellipse cx="419.5" cy="1381.1152" fill="#84BE84" rx="3" ry="3" style="stroke:#038048;stroke-width:1.0;"/><text fill="#000000" font-family="sans-serif" font-size="14" lengthAdjust="spacing" textLength="236" x="428.5" y="1384.9063">checkAddedProviderEvents() : void</text><ellipse cx="419.5" cy="1397.6035" fill="#84BE84" rx="3" ry="3" style="stroke:#038048;stroke-width:1.0;"/><text fill="#000000" font-family="sans-serif" font-size="14" lengthAdjust="spacing" textLength="247" x="428.5" y="1401.3945">checkPendingProviderEvents() : void</text><ellipse cx="419.5" cy="1414.0918" fill="#84BE84" rx="3" ry="3" style="stroke:#038048;stroke-width:1.0;"/><text fill="#000000" font-family="sans-serif" font-size="14" lengthAdjust="spacing" textLength="100" x="428.5" y="1417.8828">disable() : void</text><ellipse cx="419.5" cy="1430.5801" fill="#84BE84" rx="3" ry="3" style="stroke:#038048;stroke-width:1.0;"/><text fill="#000000" font-family="sans-serif" font-size="14" lengthAdjust="spacing" textLength="104" x="428.5" y="1434.3711">dispose() : void</text><ellipse cx="419.5" cy="1447.0684" fill="#84BE84" rx="3" ry="3" style="stroke:#038048;stroke-width:1.0;"/><text fill="#000000" font-family="sans-serif" font-size="14" lengthAdjust="spacing" textLength="97" x="428.5" y="1450.8594">enable() : void</text><ellipse cx="419.5" cy="1463.5566" fill="#84BE84" rx="3" ry="3" style="stroke:#038048;stroke-width:1.0;"/><text fill="#000000" font-family="sans-serif" font-size="14" lengthAdjust="spacing" textLength="266" x="428.5" y="1467.3477">equalsToID(patternId: string) : boolean</text><ellipse cx="419.5" cy="1480.0449" fill="#84BE84" rx="3" ry="3" style="stroke:#038048;stroke-width:1.0;"/><text fill="#000000" font-family="sans-serif" font-size="14" lengthAdjust="spacing" textLength="213" x="428.5" y="1483.8359">getValue() : number | number[]</text><ellipse cx="419.5" cy="1496.5332" fill="#84BE84" rx="3" ry="3" style="stroke:#038048;stroke-width:1.0;"/><text fill="#000000" font-family="sans-serif" font-size="14" lengthAdjust="spacing" textLength="428" x="428.5" y="1500.3242">registerCallback(eventName: string, callback: OSGeneric) : void</text><ellipse cx="419.5" cy="1513.0215" fill="#84BE84" rx="3" ry="3" style="stroke:#038048;stroke-width:1.0;"/><text fill="#000000" font-family="sans-serif" font-size="14" lengthAdjust="spacing" textLength="324" x="428.5" y="1516.8125">setProviderConfigs(newConfigs: Options) : void</text><ellipse cx="419.5" cy="1529.5098" fill="#84BE84" rx="3" ry="3" style="stroke:#038048;stroke-width:1.0;"/><text fill="#000000" font-family="sans-serif" font-size="14" lengthAdjust="spacing" textLength="668" x="428.5" y="1533.3008">setProviderEvent(eventName: string, callback: Generic, uniqueId: string, saveEvent: boolean) : void</text><ellipse cx="419.5" cy="1545.998" fill="#84BE84" rx="3" ry="3" style="stroke:#038048;stroke-width:1.0;"/><text fill="#000000" font-family="sans-serif" font-size="14" lengthAdjust="spacing" textLength="297" x="428.5" y="1549.7891">setRangeIntervalChangeOnDragEnd() : void</text><ellipse cx="419.5" cy="1562.4863" fill="#84BE84" rx="3" ry="3" style="stroke:#038048;stroke-width:1.0;"/><text fill="#000000" font-family="sans-serif" font-size="14" lengthAdjust="spacing" textLength="281" x="428.5" y="1566.2773">unsetProviderEvent(eventId: string) : void</text><ellipse cx="419.5" cy="1578.9746" fill="#84BE84" rx="3" ry="3" style="stroke:#038048;stroke-width:1.0;"/><text fill="#000000" font-family="sans-serif" font-size="14" lengthAdjust="spacing" textLength="377" x="428.5" y="1582.7656">updateProviderEvents(providerInfo: ProviderInfo) : void</text><polygon fill="#FFFF44" points="419.5,1590.4629,423.5,1594.4629,419.5,1598.4629,415.5,1594.4629" style="stroke:#B38D22;stroke-width:1.0;"/><text fill="#000000" font-family="sans-serif" font-size="14" lengthAdjust="spacing" textLength="123" x="428.5" y="1599.2539">finishBuild() : void</text><polygon fill="#FFFF44" points="419.5,1606.9512,423.5,1610.9512,419.5,1614.9512,415.5,1610.9512" style="stroke:#B38D22;stroke-width:1.0;"/><text fill="#000000" font-family="sans-serif" font-size="14" font-style="italic" lengthAdjust="spacing" textLength="158" x="428.5" y="1615.7422">prepareConfigs() : void</text><polygon fill="#FFFF44" points="419.5,1623.4395,423.5,1627.4395,419.5,1631.4395,415.5,1627.4395" style="stroke:#B38D22;stroke-width:1.0;"/><text fill="#000000" font-family="sans-serif" font-size="14" lengthAdjust="spacing" textLength="99" x="428.5" y="1632.2305">redraw() : void</text><polygon fill="#FFFF44" points="419.5,1639.9277,423.5,1643.9277,419.5,1647.9277,415.5,1643.9277" style="stroke:#B38D22;stroke-width:1.0;"/><text fill="#000000" font-family="sans-serif" font-size="14" font-style="italic" lengthAdjust="spacing" textLength="178" x="428.5" y="1648.7188">setA11YProperties() : void</text><polygon fill="#FFFF44" points="419.5,1656.416,423.5,1660.416,419.5,1664.416,415.5,1660.416" style="stroke:#B38D22;stroke-width:1.0;"/><text fill="#000000" font-family="sans-serif" font-size="14" font-style="italic" lengthAdjust="spacing" textLength="136" x="428.5" y="1665.207">setCallbacks() : void</text><polygon fill="#FFFF44" points="419.5,1672.9043,423.5,1676.9043,419.5,1680.9043,415.5,1676.9043" style="stroke:#B38D22;stroke-width:1.0;"/><text fill="#000000" font-family="sans-serif" font-size="14" lengthAdjust="spacing" textLength="165" x="428.5" y="1681.6953">setHtmlElements() : void</text><polygon fill="#FFFF44" points="419.5,1689.3926,423.5,1693.3926,419.5,1697.3926,415.5,1693.3926" style="stroke:#B38D22;stroke-width:1.0;"/><text fill="#000000" font-family="sans-serif" font-size="14" lengthAdjust="spacing" textLength="186" x="428.5" y="1698.1836">setInitialCSSClasses() : void</text><polygon fill="#FFFF44" points="419.5,1705.8809,423.5,1709.8809,419.5,1713.8809,415.5,1709.8809" style="stroke:#B38D22;stroke-width:1.0;"/><text fill="#000000" font-family="sans-serif" font-size="14" lengthAdjust="spacing" textLength="570" x="428.5" y="1714.6719">triggerPlatformEventCallback(platFormCallback: OSGeneric, args: unknown[]) : void</text><polygon fill="#FFFF44" points="419.5,1722.3691,423.5,1726.3691,419.5,1730.3691,415.5,1726.3691" style="stroke:#B38D22;stroke-width:1.0;"/><text fill="#000000" font-family="sans-serif" font-size="14" lengthAdjust="spacing" textLength="318" x="428.5" y="1731.1602">triggerPlatformInitializedEventCallback() : void</text><polygon fill="#FFFF44" points="419.5,1738.8574,423.5,1742.8574,419.5,1746.8574,415.5,1742.8574" style="stroke:#B38D22;stroke-width:1.0;"/><text fill="#000000" font-family="sans-serif" font-size="14" lengthAdjust="spacing" textLength="154" x="428.5" y="1747.6484">unsetCallbacks() : void</text><polygon fill="#FFFF44" points="419.5,1755.3457,423.5,1759.3457,419.5,1763.3457,415.5,1759.3457" style="stroke:#B38D22;stroke-width:1.0;"/><text fill="#000000" font-family="sans-serif" font-size="14" lengthAdjust="spacing" textLength="198" x="428.5" y="1764.1367">unsetGlobalCallbacks() : void</text><polygon fill="#FFFF44" points="419.5,1771.834,423.5,1775.834,419.5,1779.834,415.5,1775.834" style="stroke:#B38D22;stroke-width:1.0;"/><text fill="#000000" font-family="sans-serif" font-size="14" lengthAdjust="spacing" textLength="183" x="428.5" y="1780.625">unsetHtmlElements() : void</text><rect fill="#F24D5C" height="6" style="stroke:#C82930;stroke-width:1.0;" width="6" x="416.5" y="1790.3223"/><text fill="#000000" font-family="sans-serif" font-size="14" lengthAdjust="spacing" textLength="207" x="428.5" y="1797.1133">createProviderInstance() : void</text><rect fill="#F24D5C" height="6" style="stroke:#C82930;stroke-width:1.0;" width="6" x="416.5" y="1806.8105"/><text fill="#000000" font-family="sans-serif" font-size="14" lengthAdjust="spacing" textLength="150" x="428.5" y="1813.6016">setInitialStates() : void</text><rect fill="#F24D5C" height="6" style="stroke:#C82930;stroke-width:1.0;" width="6" x="416.5" y="1823.2988"/><text fill="#000000" font-family="sans-serif" font-size="14" lengthAdjust="spacing" textLength="282" x="428.5" y="1830.0898">_setIsDisabled(isDisabled: boolean) : void</text><rect fill="#F24D5C" height="6" style="stroke:#C82930;stroke-width:1.0;" width="6" x="416.5" y="1839.7871"/><text fill="#000000" font-family="sans-serif" font-size="14" lengthAdjust="spacing" textLength="437" x="428.5" y="1846.5781">_setOnValueChangeEvent(changeEvent: NoUISliderEvents) : void</text><rect fill="#F24D5C" height="6" style="stroke:#C82930;stroke-width:1.0;" width="6" x="416.5" y="1856.2754"/><text fill="#000000" font-family="sans-serif" font-size="14" lengthAdjust="spacing" textLength="106" x="428.5" y="1863.0664">_setSize() : void</text><rect fill="#F24D5C" height="6" style="stroke:#C82930;stroke-width:1.0;" width="6" x="416.5" y="1872.7637"/><text fill="#000000" font-family="sans-serif" font-size="14" lengthAdjust="spacing" textLength="194" x="428.5" y="1879.5547">_updateRangeValues() : void</text></g><!--reverse link AbstractProviderPattern<P, C> to AbstractRangeSlider<P, C>--><g id="link_AbstractProviderPattern&lt;P, C&gt;_AbstractRangeSlider&lt;P, C&gt;"><path codeLine="67" d="M576.31,550.43 C585.13,564.61 593.96,578.8 602.71,592.87 " fill="none" id="AbstractProviderPattern&lt;P, C&gt;-backto-AbstractRangeSlider&lt;P, C&gt;" style="stroke:#272B30;stroke-width:1.0;"/><polygon fill="none" points="570.19,553.83,565.57,533.15,582.07,546.44,570.19,553.83" style="stroke:#272B30;stroke-width:1.0;"/></g><!--reverse link IRangeSlider to AbstractRangeSlider<P, C>--><g id="link_IRangeSlider_AbstractRangeSlider&lt;P, C&gt;"><path codeLine="84" d="M1011.5,426.94 C979.58,478.26 943.28,536.62 908.25,592.93 " fill="none" id="IRangeSlider-backto-AbstractRangeSlider&lt;P, C&gt;" style="stroke:#272B30;stroke-width:1.0;stroke-dasharray:7.0,7.0;"/><polygon fill="none" points="1005.64,423.11,1022.15,409.83,1017.53,430.51,1005.64,423.11" style="stroke:#272B30;stroke-width:1.0;"/></g><!--reverse link AbstractRangeSlider<P, C> to AbstractNoUiSlider<C>--><g id="link_AbstractRangeSlider&lt;P, C&gt;_AbstractNoUiSlider&lt;C&gt;"><path codeLine="129" d="M755.5,1106.46 C755.5,1119.5 755.5,1132.7 755.5,1145.95 " fill="none" id="AbstractRangeSlider&lt;P, C&gt;-backto-AbstractNoUiSlider&lt;C&gt;" style="stroke:#272B30;stroke-width:1.0;"/><polygon fill="none" points="748.5,1106.1,755.5,1086.1,762.5,1106.1,748.5,1106.1" style="stroke:#272B30;stroke-width:1.0;"/></g><!--SRC=[xLZRRjiu47tFLn3nYueunVO253221HmdRGLi6w5E2nH5KT3YI2P2aIf9sqsR_dj7b6HJaYrdjvlTxI9-akP2SaPdZevihhZCgQOPcGXgp5XhjPeeeJGPF7xsUFRajmFJZ3XLce7k3w7nLQhLGh8gB4aIBwRZZe4zPVHWpXaGo79xJJAmSyMCRqeu2BJGcR6QnfR4nKxaS5pTlw4oXQd0U7qI3SdazqFoxO3WRy1DfDMoS9nI0uoCo4mf0LIMxhnodYz1MlEAIfg23gMnLCQ0mM7a1rH-bteqMt31WWSOj5ISbRPuNXm4StBGzZh8gulND8CHmQDocGv9RNr7nGBD2tabrKgs5uBuQimOiCO1JB0bB0B9SE6-m6zruxwJ8yODdGbehOJMN1dOdGPoInPyNb1XBbLu5kJKMj0oP7MX3rgzFjAGSeCn4oh4354GG77IPc_YoZSY5zCN847pkBcZ0LiNEb4ouQa9ykRzZevwYQv3_RjNUmznBVvv0PkgXiJG9RWLrkNjx1dkwP0PIYnxISN4mUD2dccQdiisU1Po-ncRBVNYSqOjj1vxtOnG9cf48k-kaJn8kEHcVjh5i7T-d0x0eOMwqSqLD31DLxkJiPZneqVlgs7WO7f3Qr3qHxsqcJWNa7KHFi06fJYRaQ0sKJfpxLWZBKVhSxHEkl0Q4gezq7pusBjiABdbLF2lm9exDBFSeznHKkby8TGC0R6_QXUzlUxlE_cmVkvHEPJ_52SUVyhzzhS6TPpdWWEhQoRUGwYpgmHqHIrJWM3I1FIlHyFRMVQUHRiiUa-6zsJuvyYmf8iKh3jAA1byUQvLXfAMNfVGQJDNaIeNsMnDNiWQJBGmD8x2MsASCjO4z93itBQYxtryVN9pVDmdSWzu8ImIYhHy67hkckcFk2b0RTiSOa0aLGVHzVBorH_LNJrxvRIIkjxIlE8Cszintoa1rsArJI2tebLvYrIFU_b_W7IflBuJmltBv8eWRIBhvERXmrvCxj8ahzLRNaLwMWHyeU2GK8ha0cM-EDWdMkHwzOlSca9Rv9OhQIf9unEXjulJ81VIixY8dzL10plNobe1bpnpQWOVQzVXTcrp43VrnqAhmkDFUjFhzSuujjic-5SJHRVz8FqRlaAHmbnnmOR-oKrryU7ZtOwxXDLwqYjy_alowlxBz6V5s1u5XjvA7ascK_U_6FoVHTfUPHPhy21HisWhQDEqgSNeZheh_EQif0iMyFNbTf2x-2wv1_7cUaJmhHIMd5h2jBl255lNFaW9S3T1Rld6HtdVlv9DHTTy9Vu0]--></g></svg>