<?xml version="1.0" encoding="UTF-8" standalone="no"?><svg xmlns="http://www.w3.org/2000/svg" xmlns:xlink="http://www.w3.org/1999/xlink" contentScriptType="application/ecmascript" contentStyleType="text/css" height="1373px" preserveAspectRatio="none" style="width:1337px;height:1373px;background:#CED4DA;" version="1.1" viewBox="0 0 1337 1373" width="1337px" zoomAndPan="magnify"><defs><filter height="300%" id="fygw9c45svryl" width="300%" x="-1" y="-1"><feGaussianBlur result="blurOut" stdDeviation="2.0"/><feColorMatrix in="blurOut" result="blurOut2" type="matrix" values="0 0 0 0 0 0 0 0 0 0 0 0 0 0 0 0 0 0 .4 0"/><feOffset dx="4.0" dy="4.0" in="blurOut2" result="blurOut3"/><feBlend in="SourceGraphic" in2="blurOut3" mode="normal"/></filter></defs><g><!--MD5=[2bf91b6da089adb23b06c491154e329c]
class AbstractProgress<C>--><rect codeLine="7" fill="#FFFFFF" filter="url(#fygw9c45svryl)" height="355.3125" id="AbstractProgress&lt;C&gt;" style="stroke:#272B30;stroke-width:1.5;" width="445" x="346" y="333"/><ellipse cx="497.75" cy="349" fill="#A9DCDF" rx="11" ry="11" style="stroke:#272B30;stroke-width:1.0;"/><path d="M497.8594,344.3438 L496.7031,349.4219 L499.0313,349.4219 L497.8594,344.3438 Z M496.375,342.1094 L499.3594,342.1094 L502.7188,354.5 L500.2656,354.5 L499.5,351.4375 L496.2188,351.4375 L495.4688,354.5 L493.0313,354.5 L496.375,342.1094 Z " fill="#000000"/><text fill="#000000" font-family="sans-serif" font-size="12" font-style="italic" lengthAdjust="spacing" textLength="133" x="518.25" y="353.1543">AbstractProgress&lt;C&gt;</text><line style="stroke:#272B30;stroke-width:1.5;" x1="347" x2="790" y1="365" y2="365"/><polygon fill="none" points="357,371,361,375,357,379,353,375" style="stroke:#B38D22;stroke-width:1.0;"/><text fill="#000000" font-family="sans-serif" font-size="11" lengthAdjust="spacing" textLength="141" x="366" y="379.2104">gradientLength : number</text><polygon fill="none" points="357,383.8047,361,387.8047,357,391.8047,353,387.8047" style="stroke:#B38D22;stroke-width:1.0;"/><text fill="#000000" font-family="sans-serif" font-size="11" lengthAdjust="spacing" textLength="168" x="366" y="392.0151">progressElem : HTMLElement</text><polygon fill="none" points="357,396.6094,361,400.6094,357,404.6094,353,400.6094" style="stroke:#B38D22;stroke-width:1.0;"/><text fill="#000000" font-family="sans-serif" font-size="11" lengthAdjust="spacing" textLength="177" x="366" y="404.8198">progressType : ProgressTypes</text><rect fill="none" height="6" style="stroke:#C82930;stroke-width:1.0;" width="6" x="354" y="411.4141"/><text fill="#000000" font-family="sans-serif" font-size="11" lengthAdjust="spacing" textLength="210" x="366" y="417.6245">_eventAnimateEntranceEnd : Generic</text><line style="stroke:#272B30;stroke-width:1.5;" x1="347" x2="790" y1="424.2188" y2="424.2188"/><ellipse cx="357" cy="435.2188" fill="#84BE84" rx="3" ry="3" style="stroke:#038048;stroke-width:1.0;"/><text fill="#000000" font-family="sans-serif" font-size="11" lengthAdjust="spacing" textLength="70" x="366" y="438.4292">build() : void</text><ellipse cx="357" cy="448.0234" fill="#84BE84" rx="3" ry="3" style="stroke:#038048;stroke-width:1.0;"/><text fill="#000000" font-family="sans-serif" font-size="11" lengthAdjust="spacing" textLength="399" x="366" y="451.2339">changeProperty(propertyName: string, propertyValue: unknown) : void</text><ellipse cx="357" cy="460.8281" fill="#84BE84" rx="3" ry="3" style="stroke:#038048;stroke-width:1.0;"/><text fill="#000000" font-family="sans-serif" font-size="11" lengthAdjust="spacing" textLength="88" x="366" y="464.0386">dispose() : void</text><ellipse cx="357" cy="473.6328" fill="#84BE84" rx="3" ry="3" style="stroke:#038048;stroke-width:1.0;"/><text fill="#000000" font-family="sans-serif" font-size="11" lengthAdjust="spacing" textLength="220" x="366" y="476.8433">equalsToID(patternId: string) : boolean</text><ellipse cx="357" cy="486.4375" fill="#84BE84" rx="3" ry="3" style="stroke:#038048;stroke-width:1.0;"/><text fill="#000000" font-family="sans-serif" font-size="11" lengthAdjust="spacing" textLength="419" x="366" y="489.6479">progressApplyGradient(gradientType: string, colors: GradientColor) : void</text><polygon fill="#FFFF44" points="357,494.2422,361,498.2422,357,502.2422,353,498.2422" style="stroke:#B38D22;stroke-width:1.0;"/><text fill="#000000" font-family="sans-serif" font-size="11" font-style="italic" lengthAdjust="spacing" textLength="152" x="366" y="502.4526">addInitialAnimation() : void</text><polygon fill="#FFFF44" points="357,507.0469,361,511.0469,357,515.0469,353,511.0469" style="stroke:#B38D22;stroke-width:1.0;"/><text fill="#000000" font-family="sans-serif" font-size="11" lengthAdjust="spacing" textLength="119" x="366" y="515.2573">animateInitial() : void</text><polygon fill="#FFFF44" points="357,519.8516,361,523.8516,357,527.8516,353,523.8516" style="stroke:#B38D22;stroke-width:1.0;"/><text fill="#000000" font-family="sans-serif" font-size="11" lengthAdjust="spacing" textLength="179" x="366" y="528.062">animateOnValueChange() : void</text><polygon fill="#FFFF44" points="357,532.6563,361,536.6563,357,540.6563,353,536.6563" style="stroke:#B38D22;stroke-width:1.0;"/><text fill="#000000" font-family="sans-serif" font-size="11" lengthAdjust="spacing" textLength="102" x="366" y="540.8667">finishBuild() : void</text><polygon fill="#FFFF44" points="357,545.4609,361,549.4609,357,553.4609,353,549.4609" style="stroke:#B38D22;stroke-width:1.0;"/><text fill="#000000" font-family="sans-serif" font-size="11" lengthAdjust="spacing" textLength="156" x="366" y="553.6714">resetProgressValue() : void</text><polygon fill="#FFFF44" points="357,558.2656,361,562.2656,357,566.2656,353,562.2656" style="stroke:#B38D22;stroke-width:1.0;"/><text fill="#000000" font-family="sans-serif" font-size="11" font-style="italic" lengthAdjust="spacing" textLength="148" x="366" y="566.4761">setA11YProperties() : void</text><polygon fill="#FFFF44" points="357,571.0703,361,575.0703,357,579.0703,353,575.0703" style="stroke:#B38D22;stroke-width:1.0;"/><text fill="#000000" font-family="sans-serif" font-size="11" lengthAdjust="spacing" textLength="115" x="366" y="579.2808">setCallbacks() : void</text><polygon fill="#FFFF44" points="357,583.875,361,587.875,357,591.875,353,587.875" style="stroke:#B38D22;stroke-width:1.0;"/><text fill="#000000" font-family="sans-serif" font-size="11" font-style="italic" lengthAdjust="spacing" textLength="272" x="366" y="592.0854">setElementProgressValue(value: number) : void</text><polygon fill="#FFFF44" points="357,596.6797,361,600.6797,357,604.6797,353,600.6797" style="stroke:#B38D22;stroke-width:1.0;"/><text fill="#000000" font-family="sans-serif" font-size="11" font-style="italic" lengthAdjust="spacing" textLength="139" x="366" y="604.8901">setHtmlElements() : void</text><polygon fill="#FFFF44" points="357,609.4844,361,613.4844,357,617.4844,353,613.4844" style="stroke:#B38D22;stroke-width:1.0;"/><text fill="#000000" font-family="sans-serif" font-size="11" lengthAdjust="spacing" textLength="226" x="366" y="617.6948">setProgressValue(value: number) : void</text><polygon fill="#FFFF44" points="357,622.2891,361,626.2891,357,630.2891,353,626.2891" style="stroke:#B38D22;stroke-width:1.0;"/><text fill="#000000" font-family="sans-serif" font-size="11" lengthAdjust="spacing" textLength="129" x="366" y="630.4995">unsetCallbacks() : void</text><polygon fill="#FFFF44" points="357,635.0938,361,639.0938,357,643.0938,353,639.0938" style="stroke:#B38D22;stroke-width:1.0;"/><text fill="#000000" font-family="sans-serif" font-size="11" lengthAdjust="spacing" textLength="154" x="366" y="643.3042">unsetHtmlElements() : void</text><polygon fill="#FFFF44" points="357,647.8984,361,651.8984,357,655.8984,353,651.8984" style="stroke:#B38D22;stroke-width:1.0;"/><text fill="#000000" font-family="sans-serif" font-size="11" lengthAdjust="spacing" textLength="172" x="366" y="656.1089">updatedProgressValue() : void</text><rect fill="#F24D5C" height="6" style="stroke:#C82930;stroke-width:1.0;" width="6" x="354" y="662.7031"/><text fill="#000000" font-family="sans-serif" font-size="11" lengthAdjust="spacing" textLength="166" x="366" y="668.9136">_animateEntranceEnd() : void</text><rect fill="#F24D5C" height="6" style="stroke:#C82930;stroke-width:1.0;" width="6" x="354" y="675.5078"/><text fill="#000000" font-family="sans-serif" font-size="11" lengthAdjust="spacing" textLength="169" x="366" y="681.7183">_setAccessibilityProps() : void</text><!--MD5=[9535f12e0f372b236ea6317b881381d1]
class AbstractPattern<C>--><rect codeLine="33" fill="#FFFFFF" filter="url(#fygw9c45svryl)" height="265.6797" id="AbstractPattern&lt;C&gt;" style="stroke:#272B30;stroke-width:1.5;" width="425" x="121" y="7"/><ellipse cx="266.25" cy="23" fill="#A9DCDF" rx="11" ry="11" style="stroke:#272B30;stroke-width:1.0;"/><path d="M266.3594,18.3438 L265.2031,23.4219 L267.5313,23.4219 L266.3594,18.3438 Z M264.875,16.1094 L267.8594,16.1094 L271.2188,28.5 L268.7656,28.5 L268,25.4375 L264.7188,25.4375 L263.9688,28.5 L261.5313,28.5 L264.875,16.1094 Z " fill="#000000"/><text fill="#000000" font-family="sans-serif" font-size="12" font-style="italic" lengthAdjust="spacing" textLength="126" x="286.75" y="27.1543">AbstractPattern&lt;C&gt;</text><line style="stroke:#272B30;stroke-width:1.5;" x1="122" x2="545" y1="39" y2="39"/><rect fill="none" height="6" style="stroke:#C82930;stroke-width:1.0;" width="6" x="129" y="47"/><text fill="#000000" font-family="sans-serif" font-size="11" lengthAdjust="spacing" textLength="67" x="141" y="53.2104">_configs : C</text><rect fill="none" height="6" style="stroke:#C82930;stroke-width:1.0;" width="6" x="129" y="59.8047"/><text fill="#000000" font-family="sans-serif" font-size="11" lengthAdjust="spacing" textLength="98" x="141" y="66.0151">_isBuilt : boolean</text><rect fill="none" height="6" style="stroke:#C82930;stroke-width:1.0;" width="6" x="129" y="72.6094"/><text fill="#000000" font-family="sans-serif" font-size="11" lengthAdjust="spacing" textLength="143" x="141" y="78.8198">_selfElem : HTMLElement</text><rect fill="none" height="6" style="stroke:#C82930;stroke-width:1.0;" width="6" x="129" y="85.4141"/><text fill="#000000" font-family="sans-serif" font-size="11" lengthAdjust="spacing" textLength="99" x="141" y="91.6245">_uniqueId : string</text><rect fill="none" height="6" style="stroke:#C82930;stroke-width:1.0;" width="6" x="129" y="98.2188"/><text fill="#000000" font-family="sans-serif" font-size="11" lengthAdjust="spacing" textLength="98" x="141" y="104.4292">_widgetId : string</text><line style="stroke:#272B30;stroke-width:1.5;" x1="122" x2="545" y1="111.0234" y2="111.0234"/><ellipse cx="132" cy="122.0234" fill="#84BE84" rx="3" ry="3" style="stroke:#038048;stroke-width:1.0;"/><text fill="#000000" font-family="sans-serif" font-size="11" lengthAdjust="spacing" textLength="70" x="141" y="125.2339">build() : void</text><ellipse cx="132" cy="134.8281" fill="#84BE84" rx="3" ry="3" style="stroke:#038048;stroke-width:1.0;"/><text fill="#000000" font-family="sans-serif" font-size="11" lengthAdjust="spacing" textLength="399" x="141" y="138.0386">changeProperty(propertyName: string, propertyValue: unknown) : void</text><ellipse cx="132" cy="147.6328" fill="#84BE84" rx="3" ry="3" style="stroke:#038048;stroke-width:1.0;"/><text fill="#000000" font-family="sans-serif" font-size="11" lengthAdjust="spacing" textLength="88" x="141" y="150.8433">dispose() : void</text><ellipse cx="132" cy="160.4375" fill="#84BE84" rx="3" ry="3" style="stroke:#038048;stroke-width:1.0;"/><text fill="#000000" font-family="sans-serif" font-size="11" lengthAdjust="spacing" textLength="220" x="141" y="163.6479">equalsToID(patternId: string) : boolean</text><polygon fill="#FFFF44" points="132,168.2422,136,172.2422,132,176.2422,128,172.2422" style="stroke:#B38D22;stroke-width:1.0;"/><text fill="#000000" font-family="sans-serif" font-size="11" lengthAdjust="spacing" textLength="102" x="141" y="176.4526">finishBuild() : void</text><polygon fill="#FFFF44" points="132,181.0469,136,185.0469,132,189.0469,128,185.0469" style="stroke:#B38D22;stroke-width:1.0;"/><text fill="#000000" font-family="sans-serif" font-size="11" font-style="italic" lengthAdjust="spacing" textLength="148" x="141" y="189.2573">setA11YProperties() : void</text><polygon fill="#FFFF44" points="132,193.8516,136,197.8516,132,201.8516,128,197.8516" style="stroke:#B38D22;stroke-width:1.0;"/><text fill="#000000" font-family="sans-serif" font-size="11" font-style="italic" lengthAdjust="spacing" textLength="114" x="141" y="202.062">setCallbacks() : void</text><polygon fill="#FFFF44" points="132,206.6563,136,210.6563,132,214.6563,128,210.6563" style="stroke:#B38D22;stroke-width:1.0;"/><text fill="#000000" font-family="sans-serif" font-size="11" font-style="italic" lengthAdjust="spacing" textLength="139" x="141" y="214.8667">setHtmlElements() : void</text><polygon fill="#FFFF44" points="132,219.4609,136,223.4609,132,227.4609,128,223.4609" style="stroke:#B38D22;stroke-width:1.0;"/><text fill="#000000" font-family="sans-serif" font-size="11" font-style="italic" lengthAdjust="spacing" textLength="128" x="141" y="227.6714">unsetCallbacks() : void</text><polygon fill="#FFFF44" points="132,232.2656,136,236.2656,132,240.2656,128,236.2656" style="stroke:#B38D22;stroke-width:1.0;"/><text fill="#000000" font-family="sans-serif" font-size="11" font-style="italic" lengthAdjust="spacing" textLength="153" x="141" y="240.4761">unsetHtmlElements() : void</text><rect fill="#F24D5C" height="6" style="stroke:#C82930;stroke-width:1.0;" width="6" x="129" y="247.0703"/><text fill="#000000" font-family="sans-serif" font-size="11" lengthAdjust="spacing" textLength="197" x="141" y="253.2808">_setCommonHtmlElements() : void</text><rect fill="#F24D5C" height="6" style="stroke:#C82930;stroke-width:1.0;" width="6" x="129" y="259.875"/><text fill="#000000" font-family="sans-serif" font-size="11" lengthAdjust="spacing" textLength="211" x="141" y="266.0854">_unsetCommonHtmlElements() : void</text><!--MD5=[cc3bf36fa48987570ec0b92f2985dcfb]
class IProgress--><rect codeLine="53" fill="#FFFFFF" filter="url(#fygw9c45svryl)" height="188.8516" id="IProgress" style="stroke:#272B30;stroke-width:1.5;" width="445" x="581" y="45.5"/><ellipse cx="770.75" cy="61.5" fill="#B4A7E5" rx="11" ry="11" style="stroke:#272B30;stroke-width:1.0;"/><path d="M766.6719,57.2656 L766.6719,55.1094 L774.0625,55.1094 L774.0625,57.2656 L771.5938,57.2656 L771.5938,65.3438 L774.0625,65.3438 L774.0625,67.5 L766.6719,67.5 L766.6719,65.3438 L769.1406,65.3438 L769.1406,57.2656 L766.6719,57.2656 Z " fill="#000000"/><text fill="#000000" font-family="sans-serif" font-size="12" font-style="italic" lengthAdjust="spacing" textLength="57" x="791.25" y="65.6543">IProgress</text><line style="stroke:#272B30;stroke-width:1.5;" x1="582" x2="1025" y1="77.5" y2="77.5"/><ellipse cx="592" cy="88.5" rx="3" ry="3" style="stroke:#038048;stroke-width:1.0;fill:none;"/><text fill="#000000" font-family="sans-serif" font-size="11" lengthAdjust="spacing" textLength="92" x="601" y="91.7104">isBuilt : boolean</text><ellipse cx="592" cy="101.3047" rx="3" ry="3" style="stroke:#038048;stroke-width:1.0;fill:none;"/><text fill="#000000" font-family="sans-serif" font-size="11" lengthAdjust="spacing" textLength="155" x="601" y="104.5151">selfElement : HTMLElement</text><ellipse cx="592" cy="114.1094" rx="3" ry="3" style="stroke:#038048;stroke-width:1.0;fill:none;"/><text fill="#000000" font-family="sans-serif" font-size="11" lengthAdjust="spacing" textLength="93" x="601" y="117.3198">uniqueId : string</text><ellipse cx="592" cy="126.9141" rx="3" ry="3" style="stroke:#038048;stroke-width:1.0;fill:none;"/><text fill="#000000" font-family="sans-serif" font-size="11" lengthAdjust="spacing" textLength="92" x="601" y="130.1245">widgetId : string</text><line style="stroke:#272B30;stroke-width:1.5;" x1="582" x2="1025" y1="136.7188" y2="136.7188"/><ellipse cx="592" cy="147.7188" fill="#84BE84" rx="3" ry="3" style="stroke:#038048;stroke-width:1.0;"/><text fill="#000000" font-family="sans-serif" font-size="11" lengthAdjust="spacing" textLength="70" x="601" y="150.9292">build() : void</text><ellipse cx="592" cy="160.5234" fill="#84BE84" rx="3" ry="3" style="stroke:#038048;stroke-width:1.0;"/><text fill="#000000" font-family="sans-serif" font-size="11" lengthAdjust="spacing" textLength="399" x="601" y="163.7339">changeProperty(propertyName: string, propertyValue: unknown) : void</text><ellipse cx="592" cy="173.3281" fill="#84BE84" rx="3" ry="3" style="stroke:#038048;stroke-width:1.0;"/><text fill="#000000" font-family="sans-serif" font-size="11" lengthAdjust="spacing" textLength="88" x="601" y="176.5386">dispose() : void</text><ellipse cx="592" cy="186.1328" fill="#84BE84" rx="3" ry="3" style="stroke:#038048;stroke-width:1.0;"/><text fill="#000000" font-family="sans-serif" font-size="11" lengthAdjust="spacing" textLength="179" x="601" y="189.3433">equalsToID(id: string) : boolean</text><ellipse cx="592" cy="198.9375" fill="#84BE84" rx="3" ry="3" style="stroke:#038048;stroke-width:1.0;"/><text fill="#000000" font-family="sans-serif" font-size="11" lengthAdjust="spacing" textLength="419" x="601" y="202.1479">progressApplyGradient(gradientType: string, colors: GradientColor) : void</text><ellipse cx="592" cy="211.7422" fill="#84BE84" rx="3" ry="3" style="stroke:#038048;stroke-width:1.0;"/><text fill="#000000" font-family="sans-serif" font-size="11" lengthAdjust="spacing" textLength="156" x="601" y="214.9526">resetProgressValue() : void</text><ellipse cx="592" cy="224.5469" fill="#84BE84" rx="3" ry="3" style="stroke:#038048;stroke-width:1.0;"/><text fill="#000000" font-family="sans-serif" font-size="11" lengthAdjust="spacing" textLength="226" x="601" y="227.7573">setProgressValue(value: number) : void</text><!--MD5=[fea15f7924bd848149aeb562f3a4d86b]
class Bar--><rect codeLine="67" fill="#FFFFFF" filter="url(#fygw9c45svryl)" height="380.9219" id="Bar" style="stroke:#272B30;stroke-width:1.5;" width="445" x="9" y="863"/><ellipse cx="216.75" cy="879" fill="#ADD1B2" rx="11" ry="11" style="stroke:#272B30;stroke-width:1.0;"/><path d="M219.7188,884.6406 Q219.1406,884.9375 218.5,885.0781 Q217.8594,885.2344 217.1563,885.2344 Q214.6563,885.2344 213.3281,883.5938 Q212.0156,881.9375 212.0156,878.8125 Q212.0156,875.6875 213.3281,874.0313 Q214.6563,872.375 217.1563,872.375 Q217.8594,872.375 218.5,872.5313 Q219.1563,872.6875 219.7188,872.9844 L219.7188,875.7031 Q219.0938,875.125 218.5,874.8594 Q217.9063,874.5781 217.2813,874.5781 Q215.9375,874.5781 215.25,875.6563 Q214.5625,876.7188 214.5625,878.8125 Q214.5625,880.9063 215.25,881.9844 Q215.9375,883.0469 217.2813,883.0469 Q217.9063,883.0469 218.5,882.7813 Q219.0938,882.5 219.7188,881.9219 L219.7188,884.6406 Z " fill="#000000"/><text fill="#000000" font-family="sans-serif" font-size="12" lengthAdjust="spacing" textLength="21" x="237.25" y="883.1543">Bar</text><line style="stroke:#272B30;stroke-width:1.5;" x1="10" x2="453" y1="895" y2="895"/><polygon fill="none" points="20,901,24,905,20,909,16,905" style="stroke:#B38D22;stroke-width:1.0;"/><text fill="#000000" font-family="sans-serif" font-size="11" lengthAdjust="spacing" textLength="141" x="29" y="909.2104">gradientLength : number</text><polygon fill="none" points="20,913.8047,24,917.8047,20,921.8047,16,917.8047" style="stroke:#B38D22;stroke-width:1.0;"/><text fill="#000000" font-family="sans-serif" font-size="11" lengthAdjust="spacing" textLength="168" x="29" y="922.0151">progressElem : HTMLElement</text><polygon fill="none" points="20,926.6094,24,930.6094,20,934.6094,16,930.6094" style="stroke:#B38D22;stroke-width:1.0;"/><text fill="#000000" font-family="sans-serif" font-size="11" lengthAdjust="spacing" textLength="177" x="29" y="934.8198">progressType : ProgressTypes</text><line style="stroke:#272B30;stroke-width:1.5;" x1="10" x2="453" y1="941.4141" y2="941.4141"/><ellipse cx="20" cy="952.4141" fill="#84BE84" rx="3" ry="3" style="stroke:#038048;stroke-width:1.0;"/><text fill="#000000" font-family="sans-serif" font-size="11" lengthAdjust="spacing" textLength="70" x="29" y="955.6245">build() : void</text><ellipse cx="20" cy="965.2188" fill="#84BE84" rx="3" ry="3" style="stroke:#038048;stroke-width:1.0;"/><text fill="#000000" font-family="sans-serif" font-size="11" lengthAdjust="spacing" textLength="399" x="29" y="968.4292">changeProperty(propertyName: string, propertyValue: unknown) : void</text><ellipse cx="20" cy="978.0234" fill="#84BE84" rx="3" ry="3" style="stroke:#038048;stroke-width:1.0;"/><text fill="#000000" font-family="sans-serif" font-size="11" lengthAdjust="spacing" textLength="88" x="29" y="981.2339">dispose() : void</text><ellipse cx="20" cy="990.8281" fill="#84BE84" rx="3" ry="3" style="stroke:#038048;stroke-width:1.0;"/><text fill="#000000" font-family="sans-serif" font-size="11" lengthAdjust="spacing" textLength="220" x="29" y="994.0386">equalsToID(patternId: string) : boolean</text><ellipse cx="20" cy="1003.6328" fill="#84BE84" rx="3" ry="3" style="stroke:#038048;stroke-width:1.0;"/><text fill="#000000" font-family="sans-serif" font-size="11" lengthAdjust="spacing" textLength="419" x="29" y="1006.8433">progressApplyGradient(gradientType: string, colors: GradientColor) : void</text><polygon fill="#FFFF44" points="20,1011.4375,24,1015.4375,20,1019.4375,16,1015.4375" style="stroke:#B38D22;stroke-width:1.0;"/><text fill="#000000" font-family="sans-serif" font-size="11" lengthAdjust="spacing" textLength="150" x="29" y="1019.6479">addInitialAnimation() : void</text><polygon fill="#FFFF44" points="20,1024.2422,24,1028.2422,20,1032.2422,16,1028.2422" style="stroke:#B38D22;stroke-width:1.0;"/><text fill="#000000" font-family="sans-serif" font-size="11" lengthAdjust="spacing" textLength="119" x="29" y="1032.4526">animateInitial() : void</text><polygon fill="#FFFF44" points="20,1037.0469,24,1041.0469,20,1045.0469,16,1041.0469" style="stroke:#B38D22;stroke-width:1.0;"/><text fill="#000000" font-family="sans-serif" font-size="11" lengthAdjust="spacing" textLength="179" x="29" y="1045.2573">animateOnValueChange() : void</text><polygon fill="#FFFF44" points="20,1049.8516,24,1053.8516,20,1057.8516,16,1053.8516" style="stroke:#B38D22;stroke-width:1.0;"/><text fill="#000000" font-family="sans-serif" font-size="11" lengthAdjust="spacing" textLength="102" x="29" y="1058.062">finishBuild() : void</text><polygon fill="#FFFF44" points="20,1062.6563,24,1066.6563,20,1070.6563,16,1066.6563" style="stroke:#B38D22;stroke-width:1.0;"/><text fill="#000000" font-family="sans-serif" font-size="11" lengthAdjust="spacing" textLength="156" x="29" y="1070.8667">resetProgressValue() : void</text><polygon fill="#FFFF44" points="20,1075.4609,24,1079.4609,20,1083.4609,16,1079.4609" style="stroke:#B38D22;stroke-width:1.0;"/><text fill="#000000" font-family="sans-serif" font-size="11" lengthAdjust="spacing" textLength="148" x="29" y="1083.6714">setA11YProperties() : void</text><polygon fill="#FFFF44" points="20,1088.2656,24,1092.2656,20,1096.2656,16,1092.2656" style="stroke:#B38D22;stroke-width:1.0;"/><text fill="#000000" font-family="sans-serif" font-size="11" lengthAdjust="spacing" textLength="115" x="29" y="1096.4761">setCallbacks() : void</text><polygon fill="#FFFF44" points="20,1101.0703,24,1105.0703,20,1109.0703,16,1105.0703" style="stroke:#B38D22;stroke-width:1.0;"/><text fill="#000000" font-family="sans-serif" font-size="11" lengthAdjust="spacing" textLength="272" x="29" y="1109.2808">setElementProgressValue(value: number) : void</text><polygon fill="#FFFF44" points="20,1113.875,24,1117.875,20,1121.875,16,1117.875" style="stroke:#B38D22;stroke-width:1.0;"/><text fill="#000000" font-family="sans-serif" font-size="11" lengthAdjust="spacing" textLength="140" x="29" y="1122.0854">setHtmlElements() : void</text><polygon fill="#FFFF44" points="20,1126.6797,24,1130.6797,20,1134.6797,16,1130.6797" style="stroke:#B38D22;stroke-width:1.0;"/><text fill="#000000" font-family="sans-serif" font-size="11" lengthAdjust="spacing" textLength="226" x="29" y="1134.8901">setProgressValue(value: number) : void</text><polygon fill="#FFFF44" points="20,1139.4844,24,1143.4844,20,1147.4844,16,1143.4844" style="stroke:#B38D22;stroke-width:1.0;"/><text fill="#000000" font-family="sans-serif" font-size="11" lengthAdjust="spacing" textLength="129" x="29" y="1147.6948">unsetCallbacks() : void</text><polygon fill="#FFFF44" points="20,1152.2891,24,1156.2891,20,1160.2891,16,1156.2891" style="stroke:#B38D22;stroke-width:1.0;"/><text fill="#000000" font-family="sans-serif" font-size="11" lengthAdjust="spacing" textLength="154" x="29" y="1160.4995">unsetHtmlElements() : void</text><polygon fill="#FFFF44" points="20,1165.0938,24,1169.0938,20,1173.0938,16,1169.0938" style="stroke:#B38D22;stroke-width:1.0;"/><text fill="#000000" font-family="sans-serif" font-size="11" lengthAdjust="spacing" textLength="172" x="29" y="1173.3042">updatedProgressValue() : void</text><rect fill="#F24D5C" height="6" style="stroke:#C82930;stroke-width:1.0;" width="6" x="17" y="1179.8984"/><text fill="#000000" font-family="sans-serif" font-size="11" lengthAdjust="spacing" textLength="142" x="29" y="1186.1089">_setCssVariables() : void</text><rect fill="#F24D5C" height="6" style="stroke:#C82930;stroke-width:1.0;" width="6" x="17" y="1192.7031"/><text fill="#000000" font-family="sans-serif" font-size="11" lengthAdjust="spacing" textLength="170" x="29" y="1198.9136">_updateProgressColor() : void</text><rect fill="#F24D5C" height="6" style="stroke:#C82930;stroke-width:1.0;" width="6" x="17" y="1205.5078"/><text fill="#000000" font-family="sans-serif" font-size="11" lengthAdjust="spacing" textLength="124" x="29" y="1211.7183">_updateShape() : void</text><rect fill="#F24D5C" height="6" style="stroke:#C82930;stroke-width:1.0;" width="6" x="17" y="1218.3125"/><text fill="#000000" font-family="sans-serif" font-size="11" lengthAdjust="spacing" textLength="145" x="29" y="1224.5229">_updateThickness() : void</text><rect fill="#F24D5C" height="6" style="stroke:#C82930;stroke-width:1.0;" width="6" x="17" y="1231.1172"/><text fill="#000000" font-family="sans-serif" font-size="11" lengthAdjust="spacing" textLength="143" x="29" y="1237.3276">_updateTrailColor() : void</text><!--MD5=[a7f9118cae7621dd25d25149752faef0]
class Circle--><rect codeLine="96" fill="#FFFFFF" filter="url(#fygw9c45svryl)" height="611.4063" id="Circle" style="stroke:#272B30;stroke-width:1.5;" width="834" x="489.5" y="748"/><ellipse cx="885.25" cy="764" fill="#ADD1B2" rx="11" ry="11" style="stroke:#272B30;stroke-width:1.0;"/><path d="M888.2188,769.6406 Q887.6406,769.9375 887,770.0781 Q886.3594,770.2344 885.6563,770.2344 Q883.1563,770.2344 881.8281,768.5938 Q880.5156,766.9375 880.5156,763.8125 Q880.5156,760.6875 881.8281,759.0313 Q883.1563,757.375 885.6563,757.375 Q886.3594,757.375 887,757.5313 Q887.6563,757.6875 888.2188,757.9844 L888.2188,760.7031 Q887.5938,760.125 887,759.8594 Q886.4063,759.5781 885.7813,759.5781 Q884.4375,759.5781 883.75,760.6563 Q883.0625,761.7188 883.0625,763.8125 Q883.0625,765.9063 883.75,766.9844 Q884.4375,768.0469 885.7813,768.0469 Q886.4063,768.0469 887,767.7813 Q887.5938,767.5 888.2188,766.9219 L888.2188,769.6406 Z " fill="#000000"/><text fill="#000000" font-family="sans-serif" font-size="12" lengthAdjust="spacing" textLength="34" x="905.75" y="768.1543">Circle</text><line style="stroke:#272B30;stroke-width:1.5;" x1="490.5" x2="1322.5" y1="780" y2="780"/><ellipse cx="500.5" cy="791" rx="3" ry="3" style="stroke:#038048;stroke-width:1.0;fill:none;"/><text fill="#000000" font-family="sans-serif" font-size="11" lengthAdjust="spacing" textLength="170" x="509.5" y="794.2104">linearGradientCoords : Object</text><ellipse cx="500.5" cy="803.8047" rx="3" ry="3" style="stroke:#038048;stroke-width:1.0;fill:none;"/><text fill="#000000" font-family="sans-serif" font-size="11" lengthAdjust="spacing" textLength="170" x="509.5" y="807.0151">radialGradientCoords : Object</text><polygon fill="none" points="500.5,811.6094,504.5,815.6094,500.5,819.6094,496.5,815.6094" style="stroke:#B38D22;stroke-width:1.0;"/><text fill="#000000" font-family="sans-serif" font-size="11" lengthAdjust="spacing" textLength="141" x="509.5" y="819.8198">gradientLength : number</text><polygon fill="none" points="500.5,824.4141,504.5,828.4141,500.5,832.4141,496.5,828.4141" style="stroke:#B38D22;stroke-width:1.0;"/><text fill="#000000" font-family="sans-serif" font-size="11" lengthAdjust="spacing" textLength="168" x="509.5" y="832.6245">progressElem : HTMLElement</text><polygon fill="none" points="500.5,837.2188,504.5,841.2188,500.5,845.2188,496.5,841.2188" style="stroke:#B38D22;stroke-width:1.0;"/><text fill="#000000" font-family="sans-serif" font-size="11" lengthAdjust="spacing" textLength="177" x="509.5" y="845.4292">progressType : ProgressTypes</text><rect fill="none" height="6" style="stroke:#C82930;stroke-width:1.0;" width="6" x="497.5" y="852.0234"/><text fill="#000000" font-family="sans-serif" font-size="11" lengthAdjust="spacing" textLength="160" x="509.5" y="858.2339">_blockParent : HTMLElement</text><rect fill="none" height="6" style="stroke:#C82930;stroke-width:1.0;" width="6" x="497.5" y="864.8281"/><text fill="#000000" font-family="sans-serif" font-size="11" lengthAdjust="spacing" textLength="175" x="509.5" y="871.0386">_circleCircumference : number</text><rect fill="none" height="6" style="stroke:#C82930;stroke-width:1.0;" width="6" x="497.5" y="877.6328"/><text fill="#000000" font-family="sans-serif" font-size="11" lengthAdjust="spacing" textLength="115" x="509.5" y="883.8433">_circleSize : number</text><rect fill="none" height="6" style="stroke:#C82930;stroke-width:1.0;" width="6" x="497.5" y="890.4375"/><text fill="#000000" font-family="sans-serif" font-size="11" lengthAdjust="spacing" textLength="189" x="509.5" y="896.6479">_gradientElem : SVGDefsElement</text><rect fill="none" height="6" style="stroke:#C82930;stroke-width:1.0;" width="6" x="497.5" y="903.2422"/><text fill="#000000" font-family="sans-serif" font-size="11" lengthAdjust="spacing" textLength="187" x="509.5" y="909.4526">_needsResizeObserver : boolean</text><rect fill="none" height="6" style="stroke:#C82930;stroke-width:1.0;" width="6" x="497.5" y="916.0469"/><text fill="#000000" font-family="sans-serif" font-size="11" lengthAdjust="spacing" textLength="194" x="509.5" y="922.2573">_resizeObserver : ResizeObserver</text><rect fill="none" height="6" style="stroke:#C82930;stroke-width:1.0;" width="6" x="497.5" y="928.8516"/><text fill="#000000" font-family="sans-serif" font-size="11" lengthAdjust="spacing" textLength="157" x="509.5" y="935.062">_strokeDasharray : number</text><rect fill="none" height="6" style="stroke:#C82930;stroke-width:1.0;" width="6" x="497.5" y="941.6563"/><text fill="#000000" font-family="sans-serif" font-size="11" lengthAdjust="spacing" textLength="160" x="509.5" y="947.8667">_strokeDashoffset : number</text><line style="stroke:#272B30;stroke-width:1.5;" x1="490.5" x2="1322.5" y1="954.4609" y2="954.4609"/><ellipse cx="500.5" cy="965.4609" fill="#84BE84" rx="3" ry="3" style="stroke:#038048;stroke-width:1.0;"/><text fill="#000000" font-family="sans-serif" font-size="11" lengthAdjust="spacing" textLength="70" x="509.5" y="968.6714">build() : void</text><ellipse cx="500.5" cy="978.2656" fill="#84BE84" rx="3" ry="3" style="stroke:#038048;stroke-width:1.0;"/><text fill="#000000" font-family="sans-serif" font-size="11" lengthAdjust="spacing" textLength="399" x="509.5" y="981.4761">changeProperty(propertyName: string, propertyValue: unknown) : void</text><ellipse cx="500.5" cy="991.0703" fill="#84BE84" rx="3" ry="3" style="stroke:#038048;stroke-width:1.0;"/><text fill="#000000" font-family="sans-serif" font-size="11" lengthAdjust="spacing" textLength="808" x="509.5" y="994.2808">createSVGGradient(gradientId: string, gradientName: string, gradientCoords: unknown, gradientLenght: number, colors: GradientColor) : void</text><ellipse cx="500.5" cy="1003.875" fill="#84BE84" rx="3" ry="3" style="stroke:#038048;stroke-width:1.0;"/><text fill="#000000" font-family="sans-serif" font-size="11" lengthAdjust="spacing" textLength="88" x="509.5" y="1007.0854">dispose() : void</text><ellipse cx="500.5" cy="1016.6797" fill="#84BE84" rx="3" ry="3" style="stroke:#038048;stroke-width:1.0;"/><text fill="#000000" font-family="sans-serif" font-size="11" lengthAdjust="spacing" textLength="220" x="509.5" y="1019.8901">equalsToID(patternId: string) : boolean</text><ellipse cx="500.5" cy="1029.4844" fill="#84BE84" rx="3" ry="3" style="stroke:#038048;stroke-width:1.0;"/><text fill="#000000" font-family="sans-serif" font-size="11" lengthAdjust="spacing" textLength="419" x="509.5" y="1032.6948">progressApplyGradient(gradientType: string, colors: GradientColor) : void</text><polygon fill="#FFFF44" points="500.5,1037.2891,504.5,1041.2891,500.5,1045.2891,496.5,1041.2891" style="stroke:#B38D22;stroke-width:1.0;"/><text fill="#000000" font-family="sans-serif" font-size="11" lengthAdjust="spacing" textLength="150" x="509.5" y="1045.4995">addInitialAnimation() : void</text><polygon fill="#FFFF44" points="500.5,1050.0938,504.5,1054.0938,500.5,1058.0938,496.5,1054.0938" style="stroke:#B38D22;stroke-width:1.0;"/><text fill="#000000" font-family="sans-serif" font-size="11" lengthAdjust="spacing" textLength="119" x="509.5" y="1058.3042">animateInitial() : void</text><polygon fill="#FFFF44" points="500.5,1062.8984,504.5,1066.8984,500.5,1070.8984,496.5,1066.8984" style="stroke:#B38D22;stroke-width:1.0;"/><text fill="#000000" font-family="sans-serif" font-size="11" lengthAdjust="spacing" textLength="179" x="509.5" y="1071.1089">animateOnValueChange() : void</text><polygon fill="#FFFF44" points="500.5,1075.7031,504.5,1079.7031,500.5,1083.7031,496.5,1079.7031" style="stroke:#B38D22;stroke-width:1.0;"/><text fill="#000000" font-family="sans-serif" font-size="11" lengthAdjust="spacing" textLength="102" x="509.5" y="1083.9136">finishBuild() : void</text><polygon fill="#FFFF44" points="500.5,1088.5078,504.5,1092.5078,500.5,1096.5078,496.5,1092.5078" style="stroke:#B38D22;stroke-width:1.0;"/><text fill="#000000" font-family="sans-serif" font-size="11" lengthAdjust="spacing" textLength="156" x="509.5" y="1096.7183">resetProgressValue() : void</text><polygon fill="#FFFF44" points="500.5,1101.3125,504.5,1105.3125,500.5,1109.3125,496.5,1105.3125" style="stroke:#B38D22;stroke-width:1.0;"/><text fill="#000000" font-family="sans-serif" font-size="11" lengthAdjust="spacing" textLength="148" x="509.5" y="1109.5229">setA11YProperties() : void</text><polygon fill="#FFFF44" points="500.5,1114.1172,504.5,1118.1172,500.5,1122.1172,496.5,1118.1172" style="stroke:#B38D22;stroke-width:1.0;"/><text fill="#000000" font-family="sans-serif" font-size="11" lengthAdjust="spacing" textLength="115" x="509.5" y="1122.3276">setCallbacks() : void</text><polygon fill="#FFFF44" points="500.5,1126.9219,504.5,1130.9219,500.5,1134.9219,496.5,1130.9219" style="stroke:#B38D22;stroke-width:1.0;"/><text fill="#000000" font-family="sans-serif" font-size="11" lengthAdjust="spacing" textLength="272" x="509.5" y="1135.1323">setElementProgressValue(value: number) : void</text><polygon fill="#FFFF44" points="500.5,1139.7266,504.5,1143.7266,500.5,1147.7266,496.5,1143.7266" style="stroke:#B38D22;stroke-width:1.0;"/><text fill="#000000" font-family="sans-serif" font-size="11" lengthAdjust="spacing" textLength="140" x="509.5" y="1147.937">setHtmlElements() : void</text><polygon fill="#FFFF44" points="500.5,1152.5313,504.5,1156.5313,500.5,1160.5313,496.5,1156.5313" style="stroke:#B38D22;stroke-width:1.0;"/><text fill="#000000" font-family="sans-serif" font-size="11" lengthAdjust="spacing" textLength="226" x="509.5" y="1160.7417">setProgressValue(value: number) : void</text><polygon fill="#FFFF44" points="500.5,1165.3359,504.5,1169.3359,500.5,1173.3359,496.5,1169.3359" style="stroke:#B38D22;stroke-width:1.0;"/><text fill="#000000" font-family="sans-serif" font-size="11" lengthAdjust="spacing" textLength="129" x="509.5" y="1173.5464">unsetCallbacks() : void</text><polygon fill="#FFFF44" points="500.5,1178.1406,504.5,1182.1406,500.5,1186.1406,496.5,1182.1406" style="stroke:#B38D22;stroke-width:1.0;"/><text fill="#000000" font-family="sans-serif" font-size="11" lengthAdjust="spacing" textLength="154" x="509.5" y="1186.3511">unsetHtmlElements() : void</text><polygon fill="#FFFF44" points="500.5,1190.9453,504.5,1194.9453,500.5,1198.9453,496.5,1194.9453" style="stroke:#B38D22;stroke-width:1.0;"/><text fill="#000000" font-family="sans-serif" font-size="11" lengthAdjust="spacing" textLength="172" x="509.5" y="1199.1558">updatedProgressValue() : void</text><polygon fill="#FFFF44" points="500.5,1203.75,504.5,1207.75,500.5,1211.75,496.5,1207.75" style="stroke:#B38D22;stroke-width:1.0;"/><text fill="#000000" font-family="sans-serif" font-size="11" lengthAdjust="spacing" textLength="164" x="509.5" y="1211.9604">updateProgressColor() : void</text><polygon fill="#FFFF44" points="500.5,1216.5547,504.5,1220.5547,500.5,1224.5547,496.5,1220.5547" style="stroke:#B38D22;stroke-width:1.0;"/><text fill="#000000" font-family="sans-serif" font-size="11" lengthAdjust="spacing" textLength="118" x="509.5" y="1224.7651">updateShape() : void</text><polygon fill="#FFFF44" points="500.5,1229.3594,504.5,1233.3594,500.5,1237.3594,496.5,1233.3594" style="stroke:#B38D22;stroke-width:1.0;"/><text fill="#000000" font-family="sans-serif" font-size="11" lengthAdjust="spacing" textLength="139" x="509.5" y="1237.5698">updateThickness() : void</text><polygon fill="#FFFF44" points="500.5,1242.1641,504.5,1246.1641,500.5,1250.1641,496.5,1246.1641" style="stroke:#B38D22;stroke-width:1.0;"/><text fill="#000000" font-family="sans-serif" font-size="11" lengthAdjust="spacing" textLength="137" x="509.5" y="1250.3745">updateTrailColor() : void</text><rect fill="#F24D5C" height="6" style="stroke:#C82930;stroke-width:1.0;" width="6" x="497.5" y="1256.9688"/><text fill="#000000" font-family="sans-serif" font-size="11" lengthAdjust="spacing" textLength="153" x="509.5" y="1263.1792">_addResizeOberser() : void</text><rect fill="#F24D5C" height="6" style="stroke:#C82930;stroke-width:1.0;" width="6" x="497.5" y="1269.7734"/><text fill="#000000" font-family="sans-serif" font-size="11" lengthAdjust="spacing" textLength="170" x="509.5" y="1275.9839">_checkResizeObserver() : void</text><rect fill="#F24D5C" height="6" style="stroke:#C82930;stroke-width:1.0;" width="6" x="497.5" y="1282.5781"/><text fill="#000000" font-family="sans-serif" font-size="11" lengthAdjust="spacing" textLength="150" x="509.5" y="1288.7886">_progressToOffset() : void</text><rect fill="#F24D5C" height="6" style="stroke:#C82930;stroke-width:1.0;" width="6" x="497.5" y="1295.3828"/><text fill="#000000" font-family="sans-serif" font-size="11" lengthAdjust="spacing" textLength="174" x="509.5" y="1301.5933">_removeResizeOberver() : void</text><rect fill="#F24D5C" height="6" style="stroke:#C82930;stroke-width:1.0;" width="6" x="497.5" y="1308.1875"/><text fill="#000000" font-family="sans-serif" font-size="11" lengthAdjust="spacing" textLength="142" x="509.5" y="1314.3979">_setCssVariables() : void</text><rect fill="#F24D5C" height="6" style="stroke:#C82930;stroke-width:1.0;" width="6" x="497.5" y="1320.9922"/><text fill="#000000" font-family="sans-serif" font-size="11" lengthAdjust="spacing" textLength="282" x="509.5" y="1327.2026">_setGradientCoords(gradientType: string) : string</text><rect fill="#F24D5C" height="6" style="stroke:#C82930;stroke-width:1.0;" width="6" x="497.5" y="1333.7969"/><text fill="#000000" font-family="sans-serif" font-size="11" lengthAdjust="spacing" textLength="153" x="509.5" y="1340.0073">_updateCircleProps() : void</text><rect fill="#F24D5C" height="6" style="stroke:#C82930;stroke-width:1.0;" width="6" x="497.5" y="1346.6016"/><text fill="#000000" font-family="sans-serif" font-size="11" lengthAdjust="spacing" textLength="171" x="509.5" y="1352.812">_updateProgressValue() : void</text><!--MD5=[03d9d9ff913e6eabea1030eab6fc123d]
reverse link AbstractPattern<C> to AbstractProgress<C>--><path codeLine="52" d="M428.63,290.18 C437.57,304.19 446.68,318.47 455.75,332.7 " fill="none" id="AbstractPattern&lt;C&gt;-backto-AbstractProgress&lt;C&gt;" style="stroke:#272B30;stroke-width:1.0;"/><polygon fill="none" points="422.69,293.88,417.84,273.26,434.5,286.36,422.69,293.88" style="stroke:#272B30;stroke-width:1.0;"/><!--MD5=[fb6355972f83e389b5f0bce6225ba49b]
reverse link IProgress to AbstractProgress<C>--><path codeLine="66" d="M732.81,251.84 C716.49,277.44 698.72,305.31 681.1,332.94 " fill="none" id="IProgress-backto-AbstractProgress&lt;C&gt;" style="stroke:#272B30;stroke-width:1.0;stroke-dasharray:7.0,7.0;"/><polygon fill="none" points="726.94,248.04,743.59,234.94,738.74,255.57,726.94,248.04" style="stroke:#272B30;stroke-width:1.0;"/><!--MD5=[78e4ea7f0391394e45ff453b8439e9db]
reverse link AbstractProgress<C> to Bar--><path codeLine="95" d="M447.69,705.45 C415.84,756.58 381.51,811.68 349.79,862.6 " fill="none" id="AbstractProgress&lt;C&gt;-backto-Bar" style="stroke:#272B30;stroke-width:1.0;"/><polygon fill="none" points="441.87,701.54,458.39,688.27,453.75,708.95,441.87,701.54" style="stroke:#272B30;stroke-width:1.0;"/><!--MD5=[589764563100a7898677761d33787f82]
reverse link AbstractProgress<C> to Circle--><path codeLine="142" d="M689.77,705.61 C698.41,719.43 707.22,733.54 716.12,747.77 " fill="none" id="AbstractProgress&lt;C&gt;-backto-Circle" style="stroke:#272B30;stroke-width:1.0;"/><polygon fill="none" points="683.6,708.94,678.94,688.27,695.47,701.52,683.6,708.94" style="stroke:#272B30;stroke-width:1.0;"/><!--MD5=[ab719123741a12c71bcb61e104c7423a]
@startuml
skinparam ClassArrowColor #272b30
skinparam ClassBorderColor #272b30
skinparam ClassBackgroundColor #fff
skinparam BackgroundColor #ced4da
hide empty methods
hide empty fields
abstract class "AbstractProgress<C>" {
    #gradientLength : number
    #progressElem : HTMLElement
    #progressType : ProgressTypes
    -_eventAnimateEntranceEnd : Generic
    +build() : void
    +changeProperty(propertyName: string, propertyValue: unknown) : void
    +dispose() : void
    +equalsToID(patternId: string) : boolean
    +progressApplyGradient(gradientType: string, colors: GradientColor) : void
    {abstract} #addInitialAnimation() : void
    #animateInitial() : void
    #animateOnValueChange() : void
    #finishBuild() : void
    #resetProgressValue() : void
    {abstract} #setA11YProperties() : void
    #setCallbacks() : void
    {abstract} #setElementProgressValue(value: number) : void
    {abstract} #setHtmlElements() : void
    #setProgressValue(value: number) : void
    #unsetCallbacks() : void
    #unsetHtmlElements() : void
    #updatedProgressValue() : void
    -_animateEntranceEnd() : void
    -_setAccessibilityProps() : void
}
abstract class "AbstractPattern<C>" {
    -_configs : C
    -_isBuilt : boolean
    -_selfElem : HTMLElement
    -_uniqueId : string
    -_widgetId : string
    +build() : void
    +changeProperty(propertyName: string, propertyValue: unknown) : void
    +dispose() : void
    +equalsToID(patternId: string) : boolean
    #finishBuild() : void
    {abstract} #setA11YProperties() : void
    {abstract} #setCallbacks() : void
    {abstract} #setHtmlElements() : void
    {abstract} #unsetCallbacks() : void
    {abstract} #unsetHtmlElements() : void
    -_setCommonHtmlElements() : void
    -_unsetCommonHtmlElements() : void
}
"AbstractPattern<C>" <|- - "AbstractProgress<C>"
interface "IProgress" {
    +isBuilt : boolean
    +selfElement : HTMLElement
    +uniqueId : string
    +widgetId : string
    +build() : void
    +changeProperty(propertyName: string, propertyValue: unknown) : void
    +dispose() : void
    +equalsToID(id: string) : boolean
    +progressApplyGradient(gradientType: string, colors: GradientColor) : void
    +resetProgressValue() : void
    +setProgressValue(value: number) : void
}
"IProgress" <|.. "AbstractProgress<C>"
class "Bar" {
    #gradientLength : number
    #progressElem : HTMLElement
    #progressType : ProgressTypes
    +build() : void
    +changeProperty(propertyName: string, propertyValue: unknown) : void
    +dispose() : void
    +equalsToID(patternId: string) : boolean
    +progressApplyGradient(gradientType: string, colors: GradientColor) : void
    #addInitialAnimation() : void
    #animateInitial() : void
    #animateOnValueChange() : void
    #finishBuild() : void
    #resetProgressValue() : void
    #setA11YProperties() : void
    #setCallbacks() : void
    #setElementProgressValue(value: number) : void
    #setHtmlElements() : void
    #setProgressValue(value: number) : void
    #unsetCallbacks() : void
    #unsetHtmlElements() : void
    #updatedProgressValue() : void
    -_setCssVariables() : void
    -_updateProgressColor() : void
    -_updateShape() : void
    -_updateThickness() : void
    -_updateTrailColor() : void
}
"AbstractProgress<C>" <|- - "Bar"
class "Circle" {
    +linearGradientCoords : Object
    +radialGradientCoords : Object
    #gradientLength : number
    #progressElem : HTMLElement
    #progressType : ProgressTypes
    -_blockParent : HTMLElement
    -_circleCircumference : number
    -_circleSize : number
    -_gradientElem : SVGDefsElement
    -_needsResizeObserver : boolean
    -_resizeObserver : ResizeObserver
    -_strokeDasharray : number
    -_strokeDashoffset : number
    +build() : void
    +changeProperty(propertyName: string, propertyValue: unknown) : void
    +createSVGGradient(gradientId: string, gradientName: string, gradientCoords: unknown, gradientLenght: number, colors: GradientColor) : void
    +dispose() : void
    +equalsToID(patternId: string) : boolean
    +progressApplyGradient(gradientType: string, colors: GradientColor) : void
    #addInitialAnimation() : void
    #animateInitial() : void
    #animateOnValueChange() : void
    #finishBuild() : void
    #resetProgressValue() : void
    #setA11YProperties() : void
    #setCallbacks() : void
    #setElementProgressValue(value: number) : void
    #setHtmlElements() : void
    #setProgressValue(value: number) : void
    #unsetCallbacks() : void
    #unsetHtmlElements() : void
    #updatedProgressValue() : void
    #updateProgressColor() : void
    #updateShape() : void
    #updateThickness() : void
    #updateTrailColor() : void
    -_addResizeOberser() : void
    -_checkResizeObserver() : void
    -_progressToOffset() : void
    -_removeResizeOberver() : void
    -_setCssVariables() : void
    -_setGradientCoords(gradientType: string) : string
    -_updateCircleProps() : void
    -_updateProgressValue() : void
}
"AbstractProgress<C>" <|- - "Circle"
@enduml

PlantUML version 1.2021.14(Fri Nov 12 16:46:50 UTC 2021)
(GPL source distribution)
Java Runtime: OpenJDK Runtime Environment
JVM: OpenJDK 64-Bit Server VM
Default Encoding: UTF-8
Language: en
Country: null
--></g></svg>