<?xml version="1.0" encoding="UTF-8" standalone="no"?><svg xmlns="http://www.w3.org/2000/svg" xmlns:xlink="http://www.w3.org/1999/xlink" contentScriptType="application/ecmascript" contentStyleType="text/css" height="848px" preserveAspectRatio="none" style="width:2164px;height:848px;background:#CED4DA;" version="1.1" viewBox="0 0 2164 848" width="2164px" zoomAndPan="magnify"><defs><filter height="300%" id="f1rell0wlsjoau" width="300%" x="-1" y="-1"><feGaussianBlur result="blurOut" stdDeviation="2.0"/><feColorMatrix in="blurOut" result="blurOut2" type="matrix" values="0 0 0 0 0 0 0 0 0 0 0 0 0 0 0 0 0 0 .4 0"/><feOffset dx="4.0" dy="4.0" in="blurOut2" result="blurOut3"/><feBlend in="SourceGraphic" in2="blurOut3" mode="normal"/></filter></defs><g><!--MD5=[47fd2436be5b925c048b5effed0ac731]
class AbstractProviderConfiguration--><rect codeLine="7" fill="#FFFFFF" filter="url(#f1rell0wlsjoau)" height="188.8516" id="AbstractProviderConfiguration" style="stroke:#272B30;stroke-width:1.5;" width="509" x="825" y="217"/><ellipse cx="982.25" cy="233" fill="#A9DCDF" rx="11" ry="11" style="stroke:#272B30;stroke-width:1.0;"/><path d="M982.3594,228.3438 L981.2031,233.4219 L983.5313,233.4219 L982.3594,228.3438 Z M980.875,226.1094 L983.8594,226.1094 L987.2188,238.5 L984.7656,238.5 L984,235.4375 L980.7188,235.4375 L979.9688,238.5 L977.5313,238.5 L980.875,226.1094 Z " fill="#000000"/><text fill="#000000" font-family="sans-serif" font-size="12" font-style="italic" lengthAdjust="spacing" textLength="186" x="1002.75" y="237.1543">AbstractProviderConfiguration</text><line style="stroke:#272B30;stroke-width:1.5;" x1="826" x2="1333" y1="249" y2="249"/><ellipse cx="836" cy="260" rx="3" ry="3" style="stroke:#038048;stroke-width:1.0;fill:none;"/><text fill="#000000" font-family="sans-serif" font-size="11" lengthAdjust="spacing" textLength="129" x="845" y="263.2104">ExtendedClass : string</text><line style="stroke:#272B30;stroke-width:1.5;" x1="826" x2="1333" y1="269.8047" y2="269.8047"/><ellipse cx="836" cy="280.8047" fill="#84BE84" rx="3" ry="3" style="stroke:#038048;stroke-width:1.0;"/><text fill="#000000" font-family="sans-serif" font-size="11" font-style="italic" lengthAdjust="spacing" textLength="143" x="845" y="284.0151">getProviderConfig() : any</text><ellipse cx="836" cy="293.6094" fill="#84BE84" rx="3" ry="3" style="stroke:#038048;stroke-width:1.0;"/><text fill="#000000" font-family="sans-serif" font-size="11" lengthAdjust="spacing" textLength="342" x="845" y="296.8198">validateCanChange(_isBuilt: boolean, _key: string) : boolean</text><ellipse cx="836" cy="306.4141" fill="#84BE84" rx="3" ry="3" style="stroke:#038048;stroke-width:1.0;"/><text fill="#000000" font-family="sans-serif" font-size="11" lengthAdjust="spacing" textLength="316" x="845" y="309.6245">validateDefault(_key: string, value: unknown) : unknown</text><polygon fill="#FFFF44" points="836,314.2188,840,318.2188,836,322.2188,832,318.2188" style="stroke:#B38D22;stroke-width:1.0;"/><text fill="#000000" font-family="sans-serif" font-size="11" lengthAdjust="spacing" textLength="418" x="845" y="322.4292">mergeConfigs(providerOptions: any, providerExtendedOptions: any) : any</text><polygon fill="#FFFF44" points="836,327.0234,840,331.0234,836,335.0234,832,331.0234" style="stroke:#B38D22;stroke-width:1.0;"/><text fill="#000000" font-family="sans-serif" font-size="11" lengthAdjust="spacing" textLength="369" x="845" y="335.2339">validateBoolean(value: boolean, defaultValue: boolean) : boolean</text><polygon fill="#FFFF44" points="836,339.8281,840,343.8281,836,347.8281,832,343.8281" style="stroke:#B38D22;stroke-width:1.0;"/><text fill="#000000" font-family="sans-serif" font-size="11" lengthAdjust="spacing" textLength="389" x="845" y="348.0386">validateDate(value: string | Date, defaultValue: string) : string | Date</text><polygon fill="#FFFF44" points="836,352.6328,840,356.6328,836,360.6328,832,356.6328" style="stroke:#B38D22;stroke-width:1.0;"/><text fill="#000000" font-family="sans-serif" font-size="11" lengthAdjust="spacing" textLength="440" x="845" y="360.8433">validateExtensibilityConfigs(newConfigs: any, providerInfo: ProviderInfo) : any</text><polygon fill="#FFFF44" points="836,365.4375,840,369.4375,836,373.4375,832,369.4375" style="stroke:#B38D22;stroke-width:1.0;"/><text fill="#000000" font-family="sans-serif" font-size="11" lengthAdjust="spacing" textLength="483" x="845" y="373.6479">validateInRange(value: unknown, defaultValue: unknown, args: unknown[]) : unknown</text><polygon fill="#FFFF44" points="836,378.2422,840,382.2422,836,386.2422,832,382.2422" style="stroke:#B38D22;stroke-width:1.0;"/><text fill="#000000" font-family="sans-serif" font-size="11" lengthAdjust="spacing" textLength="365" x="845" y="386.4526">validateNumber(value: number, defaultValue: number) : number</text><polygon fill="#FFFF44" points="836,391.0469,840,395.0469,836,399.0469,832,395.0469" style="stroke:#B38D22;stroke-width:1.0;"/><text fill="#000000" font-family="sans-serif" font-size="11" lengthAdjust="spacing" textLength="321" x="845" y="399.2573">validateString(value: string, defaultValue: string) : string</text><!--MD5=[cf034526073bc6863bceac2b0caf27a3]
class AbstractConfiguration--><rect codeLine="20" fill="#FFFFFF" filter="url(#f1rell0wlsjoau)" height="150.4375" id="AbstractConfiguration" style="stroke:#272B30;stroke-width:1.5;" width="509" x="825" y="7"/><ellipse cx="1007.25" cy="23" fill="#A9DCDF" rx="11" ry="11" style="stroke:#272B30;stroke-width:1.0;"/><path d="M1007.3594,18.3438 L1006.2031,23.4219 L1008.5313,23.4219 L1007.3594,18.3438 Z M1005.875,16.1094 L1008.8594,16.1094 L1012.2188,28.5 L1009.7656,28.5 L1009,25.4375 L1005.7188,25.4375 L1004.9688,28.5 L1002.5313,28.5 L1005.875,16.1094 Z " fill="#000000"/><text fill="#000000" font-family="sans-serif" font-size="12" font-style="italic" lengthAdjust="spacing" textLength="136" x="1027.75" y="27.1543">AbstractConfiguration</text><line style="stroke:#272B30;stroke-width:1.5;" x1="826" x2="1333" y1="39" y2="39"/><ellipse cx="836" cy="50" rx="3" ry="3" style="stroke:#038048;stroke-width:1.0;fill:none;"/><text fill="#000000" font-family="sans-serif" font-size="11" lengthAdjust="spacing" textLength="129" x="845" y="53.2104">ExtendedClass : string</text><line style="stroke:#272B30;stroke-width:1.5;" x1="826" x2="1333" y1="59.8047" y2="59.8047"/><ellipse cx="836" cy="70.8047" fill="#84BE84" rx="3" ry="3" style="stroke:#038048;stroke-width:1.0;"/><text fill="#000000" font-family="sans-serif" font-size="11" lengthAdjust="spacing" textLength="342" x="845" y="74.0151">validateCanChange(_isBuilt: boolean, _key: string) : boolean</text><ellipse cx="836" cy="83.6094" fill="#84BE84" rx="3" ry="3" style="stroke:#038048;stroke-width:1.0;"/><text fill="#000000" font-family="sans-serif" font-size="11" lengthAdjust="spacing" textLength="316" x="845" y="86.8198">validateDefault(_key: string, value: unknown) : unknown</text><polygon fill="#FFFF44" points="836,91.4141,840,95.4141,836,99.4141,832,95.4141" style="stroke:#B38D22;stroke-width:1.0;"/><text fill="#000000" font-family="sans-serif" font-size="11" lengthAdjust="spacing" textLength="369" x="845" y="99.6245">validateBoolean(value: boolean, defaultValue: boolean) : boolean</text><polygon fill="#FFFF44" points="836,104.2188,840,108.2188,836,112.2188,832,108.2188" style="stroke:#B38D22;stroke-width:1.0;"/><text fill="#000000" font-family="sans-serif" font-size="11" lengthAdjust="spacing" textLength="389" x="845" y="112.4292">validateDate(value: string | Date, defaultValue: string) : string | Date</text><polygon fill="#FFFF44" points="836,117.0234,840,121.0234,836,125.0234,832,121.0234" style="stroke:#B38D22;stroke-width:1.0;"/><text fill="#000000" font-family="sans-serif" font-size="11" lengthAdjust="spacing" textLength="483" x="845" y="125.2339">validateInRange(value: unknown, defaultValue: unknown, args: unknown[]) : unknown</text><polygon fill="#FFFF44" points="836,129.8281,840,133.8281,836,137.8281,832,133.8281" style="stroke:#B38D22;stroke-width:1.0;"/><text fill="#000000" font-family="sans-serif" font-size="11" lengthAdjust="spacing" textLength="365" x="845" y="138.0386">validateNumber(value: number, defaultValue: number) : number</text><polygon fill="#FFFF44" points="836,142.6328,840,146.6328,836,150.6328,832,146.6328" style="stroke:#B38D22;stroke-width:1.0;"/><text fill="#000000" font-family="sans-serif" font-size="11" lengthAdjust="spacing" textLength="321" x="845" y="150.8433">validateString(value: string, defaultValue: string) : string</text><!--MD5=[eb6a85cabefbf3cc45c514bc4cf0b019]
class AbstractCarouselConfig--><rect codeLine="31" fill="#FFFFFF" filter="url(#f1rell0wlsjoau)" height="329.7031" id="AbstractCarouselConfig" style="stroke:#272B30;stroke-width:1.5;" width="509" x="9" y="485"/><ellipse cx="186.75" cy="501" fill="#A9DCDF" rx="11" ry="11" style="stroke:#272B30;stroke-width:1.0;"/><path d="M186.8594,496.3438 L185.7031,501.4219 L188.0313,501.4219 L186.8594,496.3438 Z M185.375,494.1094 L188.3594,494.1094 L191.7188,506.5 L189.2656,506.5 L188.5,503.4375 L185.2188,503.4375 L184.4688,506.5 L182.0313,506.5 L185.375,494.1094 Z " fill="#000000"/><text fill="#000000" font-family="sans-serif" font-size="12" font-style="italic" lengthAdjust="spacing" textLength="145" x="207.25" y="505.1543">AbstractCarouselConfig</text><line style="stroke:#272B30;stroke-width:1.5;" x1="10" x2="517" y1="517" y2="517"/><ellipse cx="20" cy="528" rx="3" ry="3" style="stroke:#038048;stroke-width:1.0;fill:none;"/><text fill="#000000" font-family="sans-serif" font-size="11" lengthAdjust="spacing" textLength="105" x="29" y="531.2104">AutoPlay : boolean</text><ellipse cx="20" cy="540.8047" rx="3" ry="3" style="stroke:#038048;stroke-width:1.0;fill:none;"/><text fill="#000000" font-family="sans-serif" font-size="11" lengthAdjust="spacing" textLength="95" x="29" y="544.0151">Direction : string</text><ellipse cx="20" cy="553.6094" rx="3" ry="3" style="stroke:#038048;stroke-width:1.0;fill:none;"/><text fill="#000000" font-family="sans-serif" font-size="11" lengthAdjust="spacing" textLength="129" x="29" y="556.8198">ExtendedClass : string</text><ellipse cx="20" cy="566.4141" rx="3" ry="3" style="stroke:#038048;stroke-width:1.0;fill:none;"/><text fill="#000000" font-family="sans-serif" font-size="11" lengthAdjust="spacing" textLength="137" x="29" y="569.6245">Height : string | number</text><ellipse cx="20" cy="579.2188" rx="3" ry="3" style="stroke:#038048;stroke-width:1.0;fill:none;"/><text fill="#000000" font-family="sans-serif" font-size="11" lengthAdjust="spacing" textLength="134" x="29" y="582.4292">ItemsDesktop : number</text><ellipse cx="20" cy="592.0234" rx="3" ry="3" style="stroke:#038048;stroke-width:1.0;fill:none;"/><text fill="#000000" font-family="sans-serif" font-size="11" lengthAdjust="spacing" textLength="156" x="29" y="595.2339">ItemsGap : string | number</text><ellipse cx="20" cy="604.8281" rx="3" ry="3" style="stroke:#038048;stroke-width:1.0;fill:none;"/><text fill="#000000" font-family="sans-serif" font-size="11" lengthAdjust="spacing" textLength="123" x="29" y="608.0386">ItemsPhone : number</text><ellipse cx="20" cy="617.6328" rx="3" ry="3" style="stroke:#038048;stroke-width:1.0;fill:none;"/><text fill="#000000" font-family="sans-serif" font-size="11" lengthAdjust="spacing" textLength="123" x="29" y="620.8433">ItemsTablet : number</text><ellipse cx="20" cy="630.4375" rx="3" ry="3" style="stroke:#038048;stroke-width:1.0;fill:none;"/><text fill="#000000" font-family="sans-serif" font-size="11" lengthAdjust="spacing" textLength="84" x="29" y="633.6479">Loop : boolean</text><ellipse cx="20" cy="643.2422" rx="3" ry="3" style="stroke:#038048;stroke-width:1.0;fill:none;"/><text fill="#000000" font-family="sans-serif" font-size="11" lengthAdjust="spacing" textLength="130" x="29" y="646.4526">Navigation : Navigation</text><ellipse cx="20" cy="656.0469" rx="3" ry="3" style="stroke:#038048;stroke-width:1.0;fill:none;"/><text fill="#000000" font-family="sans-serif" font-size="11" lengthAdjust="spacing" textLength="146" x="29" y="659.2573">Padding : string | number</text><ellipse cx="20" cy="668.8516" rx="3" ry="3" style="stroke:#038048;stroke-width:1.0;fill:none;"/><text fill="#000000" font-family="sans-serif" font-size="11" lengthAdjust="spacing" textLength="146" x="29" y="672.062">StartingPosition : number</text><line style="stroke:#272B30;stroke-width:1.5;" x1="10" x2="517" y1="678.6563" y2="678.6563"/><ellipse cx="20" cy="689.6563" fill="#84BE84" rx="3" ry="3" style="stroke:#038048;stroke-width:1.0;"/><text fill="#000000" font-family="sans-serif" font-size="11" font-style="italic" lengthAdjust="spacing" textLength="143" x="29" y="692.8667">getProviderConfig() : any</text><ellipse cx="20" cy="702.4609" fill="#84BE84" rx="3" ry="3" style="stroke:#038048;stroke-width:1.0;"/><text fill="#000000" font-family="sans-serif" font-size="11" lengthAdjust="spacing" textLength="330" x="29" y="705.6714">validateCanChange(isBuilt: boolean, key: string) : boolean</text><ellipse cx="20" cy="715.2656" fill="#84BE84" rx="3" ry="3" style="stroke:#038048;stroke-width:1.0;"/><text fill="#000000" font-family="sans-serif" font-size="11" lengthAdjust="spacing" textLength="310" x="29" y="718.4761">validateDefault(key: string, value: unknown) : unknown</text><polygon fill="#FFFF44" points="20,723.0703,24,727.0703,20,731.0703,16,727.0703" style="stroke:#B38D22;stroke-width:1.0;"/><text fill="#000000" font-family="sans-serif" font-size="11" lengthAdjust="spacing" textLength="418" x="29" y="731.2808">mergeConfigs(providerOptions: any, providerExtendedOptions: any) : any</text><polygon fill="#FFFF44" points="20,735.875,24,739.875,20,743.875,16,739.875" style="stroke:#B38D22;stroke-width:1.0;"/><text fill="#000000" font-family="sans-serif" font-size="11" lengthAdjust="spacing" textLength="369" x="29" y="744.0854">validateBoolean(value: boolean, defaultValue: boolean) : boolean</text><polygon fill="#FFFF44" points="20,748.6797,24,752.6797,20,756.6797,16,752.6797" style="stroke:#B38D22;stroke-width:1.0;"/><text fill="#000000" font-family="sans-serif" font-size="11" lengthAdjust="spacing" textLength="389" x="29" y="756.8901">validateDate(value: string | Date, defaultValue: string) : string | Date</text><polygon fill="#FFFF44" points="20,761.4844,24,765.4844,20,769.4844,16,765.4844" style="stroke:#B38D22;stroke-width:1.0;"/><text fill="#000000" font-family="sans-serif" font-size="11" lengthAdjust="spacing" textLength="440" x="29" y="769.6948">validateExtensibilityConfigs(newConfigs: any, providerInfo: ProviderInfo) : any</text><polygon fill="#FFFF44" points="20,774.2891,24,778.2891,20,782.2891,16,778.2891" style="stroke:#B38D22;stroke-width:1.0;"/><text fill="#000000" font-family="sans-serif" font-size="11" lengthAdjust="spacing" textLength="483" x="29" y="782.4995">validateInRange(value: unknown, defaultValue: unknown, args: unknown[]) : unknown</text><polygon fill="#FFFF44" points="20,787.0938,24,791.0938,20,795.0938,16,791.0938" style="stroke:#B38D22;stroke-width:1.0;"/><text fill="#000000" font-family="sans-serif" font-size="11" lengthAdjust="spacing" textLength="365" x="29" y="795.3042">validateNumber(value: number, defaultValue: number) : number</text><polygon fill="#FFFF44" points="20,799.8984,24,803.8984,20,807.8984,16,803.8984" style="stroke:#B38D22;stroke-width:1.0;"/><text fill="#000000" font-family="sans-serif" font-size="11" lengthAdjust="spacing" textLength="321" x="29" y="808.1089">validateString(value: string, defaultValue: string) : string</text><!--MD5=[307a44b026a897ed9e0d7632f1d56949]
class AbstractDatePickerConfig--><rect codeLine="56" fill="#FFFFFF" filter="url(#f1rell0wlsjoau)" height="278.4844" id="AbstractDatePickerConfig" style="stroke:#272B30;stroke-width:1.5;" width="509" x="553" y="511"/><ellipse cx="724.25" cy="527" fill="#A9DCDF" rx="11" ry="11" style="stroke:#272B30;stroke-width:1.0;"/><path d="M724.3594,522.3438 L723.2031,527.4219 L725.5313,527.4219 L724.3594,522.3438 Z M722.875,520.1094 L725.8594,520.1094 L729.2188,532.5 L726.7656,532.5 L726,529.4375 L722.7188,529.4375 L721.9688,532.5 L719.5313,532.5 L722.875,520.1094 Z " fill="#000000"/><text fill="#000000" font-family="sans-serif" font-size="12" font-style="italic" lengthAdjust="spacing" textLength="158" x="744.75" y="531.1543">AbstractDatePickerConfig</text><line style="stroke:#272B30;stroke-width:1.5;" x1="554" x2="1061" y1="543" y2="543"/><ellipse cx="564" cy="554" rx="3" ry="3" style="stroke:#038048;stroke-width:1.0;fill:none;"/><text fill="#000000" font-family="sans-serif" font-size="11" lengthAdjust="spacing" textLength="111" x="573" y="557.2104">DateFormat : string</text><ellipse cx="564" cy="566.8047" rx="3" ry="3" style="stroke:#038048;stroke-width:1.0;fill:none;"/><text fill="#000000" font-family="sans-serif" font-size="11" lengthAdjust="spacing" textLength="129" x="573" y="570.0151">ExtendedClass : string</text><ellipse cx="564" cy="579.6094" rx="3" ry="3" style="stroke:#038048;stroke-width:1.0;fill:none;"/><text fill="#000000" font-family="sans-serif" font-size="11" lengthAdjust="spacing" textLength="131" x="573" y="582.8198">FirstWeekDay : number</text><ellipse cx="564" cy="592.4141" rx="3" ry="3" style="stroke:#038048;stroke-width:1.0;fill:none;"/><text fill="#000000" font-family="sans-serif" font-size="11" lengthAdjust="spacing" textLength="93" x="573" y="595.6245">MaxDate : string</text><ellipse cx="564" cy="605.2188" rx="3" ry="3" style="stroke:#038048;stroke-width:1.0;fill:none;"/><text fill="#000000" font-family="sans-serif" font-size="11" lengthAdjust="spacing" textLength="90" x="573" y="608.4292">MinDate : string</text><ellipse cx="564" cy="618.0234" rx="3" ry="3" style="stroke:#038048;stroke-width:1.0;fill:none;"/><text fill="#000000" font-family="sans-serif" font-size="11" lengthAdjust="spacing" textLength="159" x="573" y="621.2339">ShowTodayButton : boolean</text><ellipse cx="564" cy="630.8281" rx="3" ry="3" style="stroke:#038048;stroke-width:1.0;fill:none;"/><text fill="#000000" font-family="sans-serif" font-size="11" lengthAdjust="spacing" textLength="169" x="573" y="634.0386">ShowWeekNumbers : boolean</text><ellipse cx="564" cy="643.6328" rx="3" ry="3" style="stroke:#038048;stroke-width:1.0;fill:none;"/><text fill="#000000" font-family="sans-serif" font-size="11" lengthAdjust="spacing" textLength="113" x="573" y="646.8433">TimeFormat : string</text><line style="stroke:#272B30;stroke-width:1.5;" x1="554" x2="1061" y1="653.4375" y2="653.4375"/><ellipse cx="564" cy="664.4375" fill="#84BE84" rx="3" ry="3" style="stroke:#038048;stroke-width:1.0;"/><text fill="#000000" font-family="sans-serif" font-size="11" font-style="italic" lengthAdjust="spacing" textLength="143" x="573" y="667.6479">getProviderConfig() : any</text><ellipse cx="564" cy="677.2422" fill="#84BE84" rx="3" ry="3" style="stroke:#038048;stroke-width:1.0;"/><text fill="#000000" font-family="sans-serif" font-size="11" lengthAdjust="spacing" textLength="342" x="573" y="680.4526">validateCanChange(_isBuilt: boolean, _key: string) : boolean</text><ellipse cx="564" cy="690.0469" fill="#84BE84" rx="3" ry="3" style="stroke:#038048;stroke-width:1.0;"/><text fill="#000000" font-family="sans-serif" font-size="11" lengthAdjust="spacing" textLength="310" x="573" y="693.2573">validateDefault(key: string, value: unknown) : unknown</text><polygon fill="#FFFF44" points="564,697.8516,568,701.8516,564,705.8516,560,701.8516" style="stroke:#B38D22;stroke-width:1.0;"/><text fill="#000000" font-family="sans-serif" font-size="11" lengthAdjust="spacing" textLength="418" x="573" y="706.062">mergeConfigs(providerOptions: any, providerExtendedOptions: any) : any</text><polygon fill="#FFFF44" points="564,710.6563,568,714.6563,564,718.6563,560,714.6563" style="stroke:#B38D22;stroke-width:1.0;"/><text fill="#000000" font-family="sans-serif" font-size="11" lengthAdjust="spacing" textLength="369" x="573" y="718.8667">validateBoolean(value: boolean, defaultValue: boolean) : boolean</text><polygon fill="#FFFF44" points="564,723.4609,568,727.4609,564,731.4609,560,727.4609" style="stroke:#B38D22;stroke-width:1.0;"/><text fill="#000000" font-family="sans-serif" font-size="11" lengthAdjust="spacing" textLength="389" x="573" y="731.6714">validateDate(value: string | Date, defaultValue: string) : string | Date</text><polygon fill="#FFFF44" points="564,736.2656,568,740.2656,564,744.2656,560,740.2656" style="stroke:#B38D22;stroke-width:1.0;"/><text fill="#000000" font-family="sans-serif" font-size="11" lengthAdjust="spacing" textLength="440" x="573" y="744.4761">validateExtensibilityConfigs(newConfigs: any, providerInfo: ProviderInfo) : any</text><polygon fill="#FFFF44" points="564,749.0703,568,753.0703,564,757.0703,560,753.0703" style="stroke:#B38D22;stroke-width:1.0;"/><text fill="#000000" font-family="sans-serif" font-size="11" lengthAdjust="spacing" textLength="483" x="573" y="757.2808">validateInRange(value: unknown, defaultValue: unknown, args: unknown[]) : unknown</text><polygon fill="#FFFF44" points="564,761.875,568,765.875,564,769.875,560,765.875" style="stroke:#B38D22;stroke-width:1.0;"/><text fill="#000000" font-family="sans-serif" font-size="11" lengthAdjust="spacing" textLength="365" x="573" y="770.0854">validateNumber(value: number, defaultValue: number) : number</text><polygon fill="#FFFF44" points="564,774.6797,568,778.6797,564,782.6797,560,778.6797" style="stroke:#B38D22;stroke-width:1.0;"/><text fill="#000000" font-family="sans-serif" font-size="11" lengthAdjust="spacing" textLength="321" x="573" y="782.8901">validateString(value: string, defaultValue: string) : string</text><!--MD5=[612f0beba086b767c3bffd4bfd67ddbc]
class AbstractDropdownConfig--><rect codeLine="77" fill="#FFFFFF" filter="url(#f1rell0wlsjoau)" height="214.4609" id="AbstractDropdownConfig" style="stroke:#272B30;stroke-width:1.5;" width="509" x="1097" y="543"/><ellipse cx="1269.75" cy="559" fill="#A9DCDF" rx="11" ry="11" style="stroke:#272B30;stroke-width:1.0;"/><path d="M1269.8594,554.3438 L1268.7031,559.4219 L1271.0313,559.4219 L1269.8594,554.3438 Z M1268.375,552.1094 L1271.3594,552.1094 L1274.7188,564.5 L1272.2656,564.5 L1271.5,561.4375 L1268.2188,561.4375 L1267.4688,564.5 L1265.0313,564.5 L1268.375,552.1094 Z " fill="#000000"/><text fill="#000000" font-family="sans-serif" font-size="12" font-style="italic" lengthAdjust="spacing" textLength="155" x="1290.25" y="563.1543">AbstractDropdownConfig</text><line style="stroke:#272B30;stroke-width:1.5;" x1="1098" x2="1605" y1="575" y2="575"/><ellipse cx="1108" cy="586" rx="3" ry="3" style="stroke:#038048;stroke-width:1.0;fill:none;"/><text fill="#000000" font-family="sans-serif" font-size="11" lengthAdjust="spacing" textLength="129" x="1117" y="589.2104">ExtendedClass : string</text><ellipse cx="1108" cy="598.8047" rx="3" ry="3" style="stroke:#038048;stroke-width:1.0;fill:none;"/><text fill="#000000" font-family="sans-serif" font-size="11" lengthAdjust="spacing" textLength="116" x="1117" y="602.0151">IsDisabled : boolean</text><ellipse cx="1108" cy="611.6094" rx="3" ry="3" style="stroke:#038048;stroke-width:1.0;fill:none;"/><text fill="#000000" font-family="sans-serif" font-size="11" lengthAdjust="spacing" textLength="184" x="1117" y="614.8198">ShowDropboxAsPopup : boolean</text><line style="stroke:#272B30;stroke-width:1.5;" x1="1098" x2="1605" y1="621.4141" y2="621.4141"/><ellipse cx="1108" cy="632.4141" fill="#84BE84" rx="3" ry="3" style="stroke:#038048;stroke-width:1.0;"/><text fill="#000000" font-family="sans-serif" font-size="11" font-style="italic" lengthAdjust="spacing" textLength="143" x="1117" y="635.6245">getProviderConfig() : any</text><ellipse cx="1108" cy="645.2188" fill="#84BE84" rx="3" ry="3" style="stroke:#038048;stroke-width:1.0;"/><text fill="#000000" font-family="sans-serif" font-size="11" lengthAdjust="spacing" textLength="342" x="1117" y="648.4292">validateCanChange(_isBuilt: boolean, _key: string) : boolean</text><ellipse cx="1108" cy="658.0234" fill="#84BE84" rx="3" ry="3" style="stroke:#038048;stroke-width:1.0;"/><text fill="#000000" font-family="sans-serif" font-size="11" lengthAdjust="spacing" textLength="310" x="1117" y="661.2339">validateDefault(key: string, value: unknown) : unknown</text><polygon fill="#FFFF44" points="1108,665.8281,1112,669.8281,1108,673.8281,1104,669.8281" style="stroke:#B38D22;stroke-width:1.0;"/><text fill="#000000" font-family="sans-serif" font-size="11" lengthAdjust="spacing" textLength="418" x="1117" y="674.0386">mergeConfigs(providerOptions: any, providerExtendedOptions: any) : any</text><polygon fill="#FFFF44" points="1108,678.6328,1112,682.6328,1108,686.6328,1104,682.6328" style="stroke:#B38D22;stroke-width:1.0;"/><text fill="#000000" font-family="sans-serif" font-size="11" lengthAdjust="spacing" textLength="369" x="1117" y="686.8433">validateBoolean(value: boolean, defaultValue: boolean) : boolean</text><polygon fill="#FFFF44" points="1108,691.4375,1112,695.4375,1108,699.4375,1104,695.4375" style="stroke:#B38D22;stroke-width:1.0;"/><text fill="#000000" font-family="sans-serif" font-size="11" lengthAdjust="spacing" textLength="389" x="1117" y="699.6479">validateDate(value: string | Date, defaultValue: string) : string | Date</text><polygon fill="#FFFF44" points="1108,704.2422,1112,708.2422,1108,712.2422,1104,708.2422" style="stroke:#B38D22;stroke-width:1.0;"/><text fill="#000000" font-family="sans-serif" font-size="11" lengthAdjust="spacing" textLength="440" x="1117" y="712.4526">validateExtensibilityConfigs(newConfigs: any, providerInfo: ProviderInfo) : any</text><polygon fill="#FFFF44" points="1108,717.0469,1112,721.0469,1108,725.0469,1104,721.0469" style="stroke:#B38D22;stroke-width:1.0;"/><text fill="#000000" font-family="sans-serif" font-size="11" lengthAdjust="spacing" textLength="483" x="1117" y="725.2573">validateInRange(value: unknown, defaultValue: unknown, args: unknown[]) : unknown</text><polygon fill="#FFFF44" points="1108,729.8516,1112,733.8516,1108,737.8516,1104,733.8516" style="stroke:#B38D22;stroke-width:1.0;"/><text fill="#000000" font-family="sans-serif" font-size="11" lengthAdjust="spacing" textLength="365" x="1117" y="738.062">validateNumber(value: number, defaultValue: number) : number</text><polygon fill="#FFFF44" points="1108,742.6563,1112,746.6563,1108,750.6563,1104,746.6563" style="stroke:#B38D22;stroke-width:1.0;"/><text fill="#000000" font-family="sans-serif" font-size="11" lengthAdjust="spacing" textLength="321" x="1117" y="750.8667">validateString(value: string, defaultValue: string) : string</text><!--MD5=[de2996d2e203890475b90d61a5cf54d4]
class AbstractRangeSliderConfig--><rect codeLine="93" fill="#FFFFFF" filter="url(#f1rell0wlsjoau)" height="368.1172" id="AbstractRangeSliderConfig" style="stroke:#272B30;stroke-width:1.5;" width="509" x="1641" y="466"/><ellipse cx="1808.25" cy="482" fill="#A9DCDF" rx="11" ry="11" style="stroke:#272B30;stroke-width:1.0;"/><path d="M1808.3594,477.3438 L1807.2031,482.4219 L1809.5313,482.4219 L1808.3594,477.3438 Z M1806.875,475.1094 L1809.8594,475.1094 L1813.2188,487.5 L1810.7656,487.5 L1810,484.4375 L1806.7188,484.4375 L1805.9688,487.5 L1803.5313,487.5 L1806.875,475.1094 Z " fill="#000000"/><text fill="#000000" font-family="sans-serif" font-size="12" font-style="italic" lengthAdjust="spacing" textLength="166" x="1828.75" y="486.1543">AbstractRangeSliderConfig</text><line style="stroke:#272B30;stroke-width:1.5;" x1="1642" x2="2149" y1="498" y2="498"/><ellipse cx="1652" cy="509" rx="3" ry="3" style="stroke:#038048;stroke-width:1.0;fill:none;"/><text fill="#000000" font-family="sans-serif" font-size="11" lengthAdjust="spacing" textLength="129" x="1661" y="512.2104">ExtendedClass : string</text><ellipse cx="1652" cy="521.8047" rx="3" ry="3" style="stroke:#038048;stroke-width:1.0;fill:none;"/><text fill="#000000" font-family="sans-serif" font-size="11" lengthAdjust="spacing" textLength="146" x="1661" y="525.0151">InitialValueFrom : number</text><ellipse cx="1652" cy="534.6094" rx="3" ry="3" style="stroke:#038048;stroke-width:1.0;fill:none;"/><text fill="#000000" font-family="sans-serif" font-size="11" lengthAdjust="spacing" textLength="131" x="1661" y="537.8198">InitialValueTo : number</text><ellipse cx="1652" cy="547.4141" rx="3" ry="3" style="stroke:#038048;stroke-width:1.0;fill:none;"/><text fill="#000000" font-family="sans-serif" font-size="11" lengthAdjust="spacing" textLength="116" x="1661" y="550.6245">IsDisabled : boolean</text><ellipse cx="1652" cy="560.2188" rx="3" ry="3" style="stroke:#038048;stroke-width:1.0;fill:none;"/><text fill="#000000" font-family="sans-serif" font-size="11" lengthAdjust="spacing" textLength="109" x="1661" y="563.4292">IsInterval : boolean</text><ellipse cx="1652" cy="573.0234" rx="3" ry="3" style="stroke:#038048;stroke-width:1.0;fill:none;"/><text fill="#000000" font-family="sans-serif" font-size="11" lengthAdjust="spacing" textLength="109" x="1661" y="576.2339">MaxValue : number</text><ellipse cx="1652" cy="585.8281" rx="3" ry="3" style="stroke:#038048;stroke-width:1.0;fill:none;"/><text fill="#000000" font-family="sans-serif" font-size="11" lengthAdjust="spacing" textLength="106" x="1661" y="589.0386">MinValue : number</text><ellipse cx="1652" cy="598.6328" rx="3" ry="3" style="stroke:#038048;stroke-width:1.0;fill:none;"/><text fill="#000000" font-family="sans-serif" font-size="11" lengthAdjust="spacing" textLength="108" x="1661" y="601.8433">Orientation : string</text><ellipse cx="1652" cy="611.4375" rx="3" ry="3" style="stroke:#038048;stroke-width:1.0;fill:none;"/><text fill="#000000" font-family="sans-serif" font-size="11" lengthAdjust="spacing" textLength="162" x="1661" y="614.6479">ShowFloatingLabel : boolean</text><ellipse cx="1652" cy="624.2422" rx="3" ry="3" style="stroke:#038048;stroke-width:1.0;fill:none;"/><text fill="#000000" font-family="sans-serif" font-size="11" lengthAdjust="spacing" textLength="144" x="1661" y="627.4526">ShowTickMarks : boolean</text><ellipse cx="1652" cy="637.0469" rx="3" ry="3" style="stroke:#038048;stroke-width:1.0;fill:none;"/><text fill="#000000" font-family="sans-serif" font-size="11" lengthAdjust="spacing" textLength="68" x="1661" y="640.2573">Size : string</text><ellipse cx="1652" cy="649.8516" rx="3" ry="3" style="stroke:#038048;stroke-width:1.0;fill:none;"/><text fill="#000000" font-family="sans-serif" font-size="11" lengthAdjust="spacing" textLength="161" x="1661" y="653.062">StartingValueFrom : number</text><ellipse cx="1652" cy="662.6563" rx="3" ry="3" style="stroke:#038048;stroke-width:1.0;fill:none;"/><text fill="#000000" font-family="sans-serif" font-size="11" lengthAdjust="spacing" textLength="146" x="1661" y="665.8667">StartingValueTo : number</text><ellipse cx="1652" cy="675.4609" rx="3" ry="3" style="stroke:#038048;stroke-width:1.0;fill:none;"/><text fill="#000000" font-family="sans-serif" font-size="11" lengthAdjust="spacing" textLength="82" x="1661" y="678.6714">Step : number</text><ellipse cx="1652" cy="688.2656" rx="3" ry="3" style="stroke:#038048;stroke-width:1.0;fill:none;"/><text fill="#000000" font-family="sans-serif" font-size="11" lengthAdjust="spacing" textLength="154" x="1661" y="691.4761">TickMarksInterval : number</text><line style="stroke:#272B30;stroke-width:1.5;" x1="1642" x2="2149" y1="698.0703" y2="698.0703"/><ellipse cx="1652" cy="709.0703" fill="#84BE84" rx="3" ry="3" style="stroke:#038048;stroke-width:1.0;"/><text fill="#000000" font-family="sans-serif" font-size="11" font-style="italic" lengthAdjust="spacing" textLength="143" x="1661" y="712.2808">getProviderConfig() : any</text><ellipse cx="1652" cy="721.875" fill="#84BE84" rx="3" ry="3" style="stroke:#038048;stroke-width:1.0;"/><text fill="#000000" font-family="sans-serif" font-size="11" lengthAdjust="spacing" textLength="330" x="1661" y="725.0854">validateCanChange(isBuilt: boolean, key: string) : boolean</text><ellipse cx="1652" cy="734.6797" fill="#84BE84" rx="3" ry="3" style="stroke:#038048;stroke-width:1.0;"/><text fill="#000000" font-family="sans-serif" font-size="11" lengthAdjust="spacing" textLength="310" x="1661" y="737.8901">validateDefault(key: string, value: unknown) : unknown</text><polygon fill="#FFFF44" points="1652,742.4844,1656,746.4844,1652,750.4844,1648,746.4844" style="stroke:#B38D22;stroke-width:1.0;"/><text fill="#000000" font-family="sans-serif" font-size="11" lengthAdjust="spacing" textLength="418" x="1661" y="750.6948">mergeConfigs(providerOptions: any, providerExtendedOptions: any) : any</text><polygon fill="#FFFF44" points="1652,755.2891,1656,759.2891,1652,763.2891,1648,759.2891" style="stroke:#B38D22;stroke-width:1.0;"/><text fill="#000000" font-family="sans-serif" font-size="11" lengthAdjust="spacing" textLength="369" x="1661" y="763.4995">validateBoolean(value: boolean, defaultValue: boolean) : boolean</text><polygon fill="#FFFF44" points="1652,768.0938,1656,772.0938,1652,776.0938,1648,772.0938" style="stroke:#B38D22;stroke-width:1.0;"/><text fill="#000000" font-family="sans-serif" font-size="11" lengthAdjust="spacing" textLength="389" x="1661" y="776.3042">validateDate(value: string | Date, defaultValue: string) : string | Date</text><polygon fill="#FFFF44" points="1652,780.8984,1656,784.8984,1652,788.8984,1648,784.8984" style="stroke:#B38D22;stroke-width:1.0;"/><text fill="#000000" font-family="sans-serif" font-size="11" lengthAdjust="spacing" textLength="440" x="1661" y="789.1089">validateExtensibilityConfigs(newConfigs: any, providerInfo: ProviderInfo) : any</text><polygon fill="#FFFF44" points="1652,793.7031,1656,797.7031,1652,801.7031,1648,797.7031" style="stroke:#B38D22;stroke-width:1.0;"/><text fill="#000000" font-family="sans-serif" font-size="11" lengthAdjust="spacing" textLength="483" x="1661" y="801.9136">validateInRange(value: unknown, defaultValue: unknown, args: unknown[]) : unknown</text><polygon fill="#FFFF44" points="1652,806.5078,1656,810.5078,1652,814.5078,1648,810.5078" style="stroke:#B38D22;stroke-width:1.0;"/><text fill="#000000" font-family="sans-serif" font-size="11" lengthAdjust="spacing" textLength="365" x="1661" y="814.7183">validateNumber(value: number, defaultValue: number) : number</text><polygon fill="#FFFF44" points="1652,819.3125,1656,823.3125,1652,827.3125,1648,823.3125" style="stroke:#B38D22;stroke-width:1.0;"/><text fill="#000000" font-family="sans-serif" font-size="11" lengthAdjust="spacing" textLength="321" x="1661" y="827.5229">validateString(value: string, defaultValue: string) : string</text><!--MD5=[3d740975ab053d77084373e2b3f009c7]
reverse link AbstractConfiguration to AbstractProviderConfiguration--><path codeLine="30" d="M1079.5,177.33 C1079.5,190.41 1079.5,203.83 1079.5,216.9 " fill="none" id="AbstractConfiguration-backto-AbstractProviderConfiguration" style="stroke:#272B30;stroke-width:1.0;"/><polygon fill="none" points="1072.5,177.18,1079.5,157.18,1086.5,177.18,1072.5,177.18" style="stroke:#272B30;stroke-width:1.0;"/><!--MD5=[77b6b3a277a450dd4cc655b0dc98ebe3]
reverse link AbstractProviderConfiguration to AbstractCarouselConfig--><path codeLine="55" d="M805.15,371.76 C716.91,395.56 620.14,426.81 535.5,466 C522.98,471.8 510.38,478.14 497.85,484.87 " fill="none" id="AbstractProviderConfiguration-backto-AbstractCarouselConfig" style="stroke:#272B30;stroke-width:1.0;"/><polygon fill="none" points="803.59,364.93,824.72,366.57,807.18,378.46,803.59,364.93" style="stroke:#272B30;stroke-width:1.0;"/><!--MD5=[e83267dcd5777eeed138cc28e4917a72]
reverse link AbstractProviderConfiguration to AbstractDatePickerConfig--><path codeLine="76" d="M990.89,422.12 C968.02,450.42 943.1,481.24 919.22,510.79 " fill="none" id="AbstractProviderConfiguration-backto-AbstractDatePickerConfig" style="stroke:#272B30;stroke-width:1.0;"/><polygon fill="none" points="985.72,417.39,1003.73,406.23,996.6,426.19,985.72,417.39" style="stroke:#272B30;stroke-width:1.0;"/><!--MD5=[df61e24adda53fd4654eb531aca37806]
reverse link AbstractProviderConfiguration to AbstractDropdownConfig--><path codeLine="92" d="M1167.98,421.96 C1199.31,460.72 1234.48,504.23 1265.6,542.72 " fill="none" id="AbstractProviderConfiguration-backto-AbstractDropdownConfig" style="stroke:#272B30;stroke-width:1.0;"/><polygon fill="none" points="1162.4,426.19,1155.27,406.23,1173.28,417.39,1162.4,426.19" style="stroke:#272B30;stroke-width:1.0;"/><!--MD5=[4f85b1d6da015decd3f7721284413b98]
reverse link AbstractProviderConfiguration to AbstractRangeSliderConfig--><path codeLine="120" d="M1353.85,371.76 C1442.09,395.56 1538.86,426.81 1623.5,466 C1629.31,468.69 1635.14,471.5 1640.96,474.41 " fill="none" id="AbstractProviderConfiguration-backto-AbstractRangeSliderConfig" style="stroke:#272B30;stroke-width:1.0;"/><polygon fill="none" points="1351.82,378.46,1334.28,366.57,1355.41,364.93,1351.82,378.46" style="stroke:#272B30;stroke-width:1.0;"/><!--MD5=[97766ce8b559fdd9caa57626c46694e6]
@startuml
skinparam ClassArrowColor #272b30
skinparam ClassBorderColor #272b30
skinparam ClassBackgroundColor #fff
skinparam BackgroundColor #ced4da
hide empty methods
hide empty fields
abstract class "AbstractProviderConfiguration" {
    +ExtendedClass : string
    {abstract} +getProviderConfig() : any
    +validateCanChange(_isBuilt: boolean, _key: string) : boolean
    +validateDefault(_key: string, value: unknown) : unknown
    #mergeConfigs(providerOptions: any, providerExtendedOptions: any) : any
    #validateBoolean(value: boolean, defaultValue: boolean) : boolean
    #validateDate(value: string | Date, defaultValue: string) : string | Date
    #validateExtensibilityConfigs(newConfigs: any, providerInfo: ProviderInfo) : any
    #validateInRange(value: unknown, defaultValue: unknown, args: unknown[]) : unknown
    #validateNumber(value: number, defaultValue: number) : number
    #validateString(value: string, defaultValue: string) : string
}
abstract class "AbstractConfiguration" {
    +ExtendedClass : string
    +validateCanChange(_isBuilt: boolean, _key: string) : boolean
    +validateDefault(_key: string, value: unknown) : unknown
    #validateBoolean(value: boolean, defaultValue: boolean) : boolean
    #validateDate(value: string | Date, defaultValue: string) : string | Date
    #validateInRange(value: unknown, defaultValue: unknown, args: unknown[]) : unknown
    #validateNumber(value: number, defaultValue: number) : number
    #validateString(value: string, defaultValue: string) : string
}
"AbstractConfiguration" <|- - "AbstractProviderConfiguration"
abstract class "AbstractCarouselConfig" {
    +AutoPlay : boolean
    +Direction : string
    +ExtendedClass : string
    +Height : string | number
    +ItemsDesktop : number
    +ItemsGap : string | number
    +ItemsPhone : number
    +ItemsTablet : number
    +Loop : boolean
    +Navigation : Navigation
    +Padding : string | number
    +StartingPosition : number
    {abstract} +getProviderConfig() : any
    +validateCanChange(isBuilt: boolean, key: string) : boolean
    +validateDefault(key: string, value: unknown) : unknown
    #mergeConfigs(providerOptions: any, providerExtendedOptions: any) : any
    #validateBoolean(value: boolean, defaultValue: boolean) : boolean
    #validateDate(value: string | Date, defaultValue: string) : string | Date
    #validateExtensibilityConfigs(newConfigs: any, providerInfo: ProviderInfo) : any
    #validateInRange(value: unknown, defaultValue: unknown, args: unknown[]) : unknown
    #validateNumber(value: number, defaultValue: number) : number
    #validateString(value: string, defaultValue: string) : string
}
"AbstractProviderConfiguration" <|- - "AbstractCarouselConfig"
abstract class "AbstractDatePickerConfig" {
    +DateFormat : string
    +ExtendedClass : string
    +FirstWeekDay : number
    +MaxDate : string
    +MinDate : string
    +ShowTodayButton : boolean
    +ShowWeekNumbers : boolean
    +TimeFormat : string
    {abstract} +getProviderConfig() : any
    +validateCanChange(_isBuilt: boolean, _key: string) : boolean
    +validateDefault(key: string, value: unknown) : unknown
    #mergeConfigs(providerOptions: any, providerExtendedOptions: any) : any
    #validateBoolean(value: boolean, defaultValue: boolean) : boolean
    #validateDate(value: string | Date, defaultValue: string) : string | Date
    #validateExtensibilityConfigs(newConfigs: any, providerInfo: ProviderInfo) : any
    #validateInRange(value: unknown, defaultValue: unknown, args: unknown[]) : unknown
    #validateNumber(value: number, defaultValue: number) : number
    #validateString(value: string, defaultValue: string) : string
}
"AbstractProviderConfiguration" <|- - "AbstractDatePickerConfig"
abstract class "AbstractDropdownConfig" {
    +ExtendedClass : string
    +IsDisabled : boolean
    +ShowDropboxAsPopup : boolean
    {abstract} +getProviderConfig() : any
    +validateCanChange(_isBuilt: boolean, _key: string) : boolean
    +validateDefault(key: string, value: unknown) : unknown
    #mergeConfigs(providerOptions: any, providerExtendedOptions: any) : any
    #validateBoolean(value: boolean, defaultValue: boolean) : boolean
    #validateDate(value: string | Date, defaultValue: string) : string | Date
    #validateExtensibilityConfigs(newConfigs: any, providerInfo: ProviderInfo) : any
    #validateInRange(value: unknown, defaultValue: unknown, args: unknown[]) : unknown
    #validateNumber(value: number, defaultValue: number) : number
    #validateString(value: string, defaultValue: string) : string
}
"AbstractProviderConfiguration" <|- - "AbstractDropdownConfig"
abstract class "AbstractRangeSliderConfig" {
    +ExtendedClass : string
    +InitialValueFrom : number
    +InitialValueTo : number
    +IsDisabled : boolean
    +IsInterval : boolean
    +MaxValue : number
    +MinValue : number
    +Orientation : string
    +ShowFloatingLabel : boolean
    +ShowTickMarks : boolean
    +Size : string
    +StartingValueFrom : number
    +StartingValueTo : number
    +Step : number
    +TickMarksInterval : number
    {abstract} +getProviderConfig() : any
    +validateCanChange(isBuilt: boolean, key: string) : boolean
    +validateDefault(key: string, value: unknown) : unknown
    #mergeConfigs(providerOptions: any, providerExtendedOptions: any) : any
    #validateBoolean(value: boolean, defaultValue: boolean) : boolean
    #validateDate(value: string | Date, defaultValue: string) : string | Date
    #validateExtensibilityConfigs(newConfigs: any, providerInfo: ProviderInfo) : any
    #validateInRange(value: unknown, defaultValue: unknown, args: unknown[]) : unknown
    #validateNumber(value: number, defaultValue: number) : number
    #validateString(value: string, defaultValue: string) : string
}
"AbstractProviderConfiguration" <|- - "AbstractRangeSliderConfig"
@enduml

PlantUML version 1.2021.14(Fri Nov 12 16:46:50 UTC 2021)
(GPL source distribution)
Java Runtime: OpenJDK Runtime Environment
JVM: OpenJDK 64-Bit Server VM
Default Encoding: UTF-8
Language: en
Country: null
--></g></svg>