<?xml version="1.0" encoding="UTF-8" standalone="no"?><svg xmlns="http://www.w3.org/2000/svg" xmlns:xlink="http://www.w3.org/1999/xlink" contentScriptType="application/ecmascript" contentStyleType="text/css" height="1061px" preserveAspectRatio="none" style="width:864px;height:1061px;background:#CED4DA;" version="1.1" viewBox="0 0 864 1061" width="864px" zoomAndPan="magnify"><defs><filter height="300%" id="f10a2hh7k7c6eo" width="300%" x="-1" y="-1"><feGaussianBlur result="blurOut" stdDeviation="2.0"/><feColorMatrix in="blurOut" result="blurOut2" type="matrix" values="0 0 0 0 0 0 0 0 0 0 0 0 0 0 0 0 0 0 .4 0"/><feOffset dx="4.0" dy="4.0" in="blurOut2" result="blurOut3"/><feBlend in="SourceGraphic" in2="blurOut3" mode="normal"/></filter></defs><g><!--MD5=[587f656ebd930550678cbbe244f358fc]
class AbstractDropdown<P, C>--><rect codeLine="7" fill="#FFFFFF" filter="url(#f10a2hh7k7c6eo)" height="229.3711" id="AbstractDropdown&lt;P, C&gt;" style="stroke:#272B30;stroke-width:1.5;" width="403" x="228" y="283"/><ellipse cx="349.75" cy="299" fill="#A9DCDF" rx="11" ry="11" style="stroke:#272B30;stroke-width:1.0;"/><path d="M349.6133,294.3481 L348.4595,299.4199 L350.7754,299.4199 Z M348.1191,292.1069 L351.1157,292.1069 L354.4609,304.5 L352.0122,304.5 L351.2485,301.437 L347.9697,301.437 L347.2227,304.5 L344.7739,304.5 Z " fill="#000000"/><text fill="#000000" font-family="sans-serif" font-size="12" font-style="italic" lengthAdjust="spacing" textLength="151" x="370.25" y="303.5352">AbstractDropdown&lt;P, C&gt;</text><line style="stroke:#272B30;stroke-width:1.5;" x1="229" x2="630" y1="315" y2="315"/><polygon fill="none" points="239,321,243,325,239,329,235,325" style="stroke:#B38D22;stroke-width:1.0;"/><text fill="#000000" font-family="sans-serif" font-size="11" lengthAdjust="spacing" textLength="67" x="248" y="329.6348">_provider : P</text><polygon fill="none" points="239,333.9551,243,337.9551,239,341.9551,235,337.9551" style="stroke:#B38D22;stroke-width:1.0;"/><text fill="#000000" font-family="sans-serif" font-size="11" lengthAdjust="spacing" textLength="131" x="248" y="342.5898">_selfElem : HTMLElement</text><polygon fill="none" points="239,346.9102,243,350.9102,239,354.9102,235,350.9102" style="stroke:#B38D22;stroke-width:1.0;"/><text fill="#000000" font-family="sans-serif" font-size="11" lengthAdjust="spacing" textLength="92" x="248" y="355.5449">_widgetId : string</text><line style="stroke:#272B30;stroke-width:1.5;" x1="229" x2="630" y1="361.8652" y2="361.8652"/><ellipse cx="239" cy="372.8652" fill="#84BE84" rx="3" ry="3" style="stroke:#038048;stroke-width:1.0;"/><text fill="#000000" font-family="sans-serif" font-size="11" lengthAdjust="spacing" textLength="67" x="248" y="376.5">build() : void</text><ellipse cx="239" cy="385.8203" fill="#84BE84" rx="3" ry="3" style="stroke:#038048;stroke-width:1.0;"/><text fill="#000000" font-family="sans-serif" font-size="11" lengthAdjust="spacing" textLength="377" x="248" y="389.4551">changeProperty(propertyName: string, propertyValue: unknown) : void</text><ellipse cx="239" cy="398.7754" fill="#84BE84" rx="3" ry="3" style="stroke:#038048;stroke-width:1.0;"/><text fill="#000000" font-family="sans-serif" font-size="11" font-style="italic" lengthAdjust="spacing" textLength="66" x="248" y="402.4102">clear() : void</text><ellipse cx="239" cy="411.7305" fill="#84BE84" rx="3" ry="3" style="stroke:#038048;stroke-width:1.0;"/><text fill="#000000" font-family="sans-serif" font-size="11" font-style="italic" lengthAdjust="spacing" textLength="78" x="248" y="415.3652">disable() : void</text><ellipse cx="239" cy="424.6855" fill="#84BE84" rx="3" ry="3" style="stroke:#038048;stroke-width:1.0;"/><text fill="#000000" font-family="sans-serif" font-size="11" lengthAdjust="spacing" textLength="82" x="248" y="428.3203">dispose() : void</text><ellipse cx="239" cy="437.6406" fill="#84BE84" rx="3" ry="3" style="stroke:#038048;stroke-width:1.0;"/><text fill="#000000" font-family="sans-serif" font-size="11" font-style="italic" lengthAdjust="spacing" textLength="75" x="248" y="441.2754">enable() : void</text><ellipse cx="239" cy="450.5957" fill="#84BE84" rx="3" ry="3" style="stroke:#038048;stroke-width:1.0;"/><text fill="#000000" font-family="sans-serif" font-size="11" lengthAdjust="spacing" textLength="207" x="248" y="454.2305">equalsToID(patternId: string) : boolean</text><ellipse cx="239" cy="463.5508" fill="#84BE84" rx="3" ry="3" style="stroke:#038048;stroke-width:1.0;"/><text fill="#000000" font-family="sans-serif" font-size="11" font-style="italic" lengthAdjust="spacing" textLength="145" x="248" y="467.1855">getSelectedValues() : string</text><ellipse cx="239" cy="476.5059" fill="#84BE84" rx="3" ry="3" style="stroke:#038048;stroke-width:1.0;"/><text fill="#000000" font-family="sans-serif" font-size="11" font-style="italic" lengthAdjust="spacing" textLength="335" x="248" y="480.1406">registerCallback(eventName: string, callback: OSGeneric) : void</text><ellipse cx="239" cy="489.4609" fill="#84BE84" rx="3" ry="3" style="stroke:#038048;stroke-width:1.0;"/><text fill="#000000" font-family="sans-serif" font-size="11" font-style="italic" lengthAdjust="spacing" textLength="318" x="248" y="493.0957">validation(isValid: boolean, validationMessage: string) : void</text><polygon fill="#FFFF44" points="239,497.416,243,501.416,239,505.416,235,501.416" style="stroke:#B38D22;stroke-width:1.0;"/><text fill="#000000" font-family="sans-serif" font-size="11" lengthAdjust="spacing" textLength="96" x="248" y="506.0508">finishBuild() : void</text><!--MD5=[6df760f7a67571235232bfd37d596799]
class AbstractProviderPattern<P, C>--><rect codeLine="23" fill="#FFFFFF" filter="url(#f10a2hh7k7c6eo)" height="164.5957" id="AbstractProviderPattern&lt;P, C&gt;" style="stroke:#272B30;stroke-width:1.5;" width="403" x="9" y="32.5"/><ellipse cx="116.25" cy="48.5" fill="#A9DCDF" rx="11" ry="11" style="stroke:#272B30;stroke-width:1.0;"/><path d="M116.1133,43.8481 L114.9595,48.9199 L117.2754,48.9199 Z M114.6191,41.6069 L117.6157,41.6069 L120.9609,54 L118.5122,54 L117.7485,50.937 L114.4697,50.937 L113.7227,54 L111.2739,54 Z " fill="#000000"/><text fill="#000000" font-family="sans-serif" font-size="12" font-style="italic" lengthAdjust="spacing" textLength="180" x="136.75" y="53.0352">AbstractProviderPattern&lt;P, C&gt;</text><line style="stroke:#272B30;stroke-width:1.5;" x1="10" x2="411" y1="64.5" y2="64.5"/><polygon fill="none" points="20,70.5,24,74.5,20,78.5,16,74.5" style="stroke:#B38D22;stroke-width:1.0;"/><text fill="#000000" font-family="sans-serif" font-size="11" lengthAdjust="spacing" textLength="67" x="29" y="79.1348">_provider : P</text><polygon fill="none" points="20,83.4551,24,87.4551,20,91.4551,16,87.4551" style="stroke:#B38D22;stroke-width:1.0;"/><text fill="#000000" font-family="sans-serif" font-size="11" lengthAdjust="spacing" textLength="131" x="29" y="92.0898">_selfElem : HTMLElement</text><polygon fill="none" points="20,96.4102,24,100.4102,20,104.4102,16,100.4102" style="stroke:#B38D22;stroke-width:1.0;"/><text fill="#000000" font-family="sans-serif" font-size="11" lengthAdjust="spacing" textLength="92" x="29" y="105.0449">_widgetId : string</text><line style="stroke:#272B30;stroke-width:1.5;" x1="10" x2="411" y1="111.3652" y2="111.3652"/><ellipse cx="20" cy="122.3652" fill="#84BE84" rx="3" ry="3" style="stroke:#038048;stroke-width:1.0;"/><text fill="#000000" font-family="sans-serif" font-size="11" lengthAdjust="spacing" textLength="67" x="29" y="126">build() : void</text><ellipse cx="20" cy="135.3203" fill="#84BE84" rx="3" ry="3" style="stroke:#038048;stroke-width:1.0;"/><text fill="#000000" font-family="sans-serif" font-size="11" lengthAdjust="spacing" textLength="377" x="29" y="138.9551">changeProperty(propertyName: string, propertyValue: unknown) : void</text><ellipse cx="20" cy="148.2754" fill="#84BE84" rx="3" ry="3" style="stroke:#038048;stroke-width:1.0;"/><text fill="#000000" font-family="sans-serif" font-size="11" lengthAdjust="spacing" textLength="82" x="29" y="151.9102">dispose() : void</text><ellipse cx="20" cy="161.2305" fill="#84BE84" rx="3" ry="3" style="stroke:#038048;stroke-width:1.0;"/><text fill="#000000" font-family="sans-serif" font-size="11" lengthAdjust="spacing" textLength="207" x="29" y="164.8652">equalsToID(patternId: string) : boolean</text><ellipse cx="20" cy="174.1855" fill="#84BE84" rx="3" ry="3" style="stroke:#038048;stroke-width:1.0;"/><text fill="#000000" font-family="sans-serif" font-size="11" font-style="italic" lengthAdjust="spacing" textLength="335" x="29" y="177.8203">registerCallback(eventName: string, callback: OSGeneric) : void</text><polygon fill="#FFFF44" points="20,182.1406,24,186.1406,20,190.1406,16,186.1406" style="stroke:#B38D22;stroke-width:1.0;"/><text fill="#000000" font-family="sans-serif" font-size="11" lengthAdjust="spacing" textLength="96" x="29" y="190.7754">finishBuild() : void</text><!--MD5=[87dcdc4a32bddc5e8e80f3277c026140]
class IDropdown--><rect codeLine="35" fill="#FFFFFF" filter="url(#f10a2hh7k7c6eo)" height="216.416" id="IDropdown" style="stroke:#272B30;stroke-width:1.5;" width="403" x="447" y="7"/><ellipse cx="612.75" cy="23" fill="#B4A7E5" rx="11" ry="11" style="stroke:#272B30;stroke-width:1.0;"/><path d="M609.1777,19.2651 L609.1777,17.1069 L616.5571,17.1069 L616.5571,19.2651 L614.0918,19.2651 L614.0918,27.3418 L616.5571,27.3418 L616.5571,29.5 L609.1777,29.5 L609.1777,27.3418 L611.6431,27.3418 L611.6431,19.2651 Z " fill="#000000"/><text fill="#000000" font-family="sans-serif" font-size="12" font-style="italic" lengthAdjust="spacing" textLength="63" x="633.25" y="27.5352">IDropdown</text><line style="stroke:#272B30;stroke-width:1.5;" x1="448" x2="849" y1="39" y2="39"/><ellipse cx="458" cy="50" rx="3" ry="3" style="stroke:#038048;stroke-width:1.0;fill:none;"/><text fill="#000000" font-family="sans-serif" font-size="11" lengthAdjust="spacing" textLength="84" x="467" y="53.6348">isBuilt : boolean</text><ellipse cx="458" cy="62.9551" rx="3" ry="3" style="stroke:#038048;stroke-width:1.0;fill:none;"/><text fill="#000000" font-family="sans-serif" font-size="11" lengthAdjust="spacing" textLength="142" x="467" y="66.5898">selfElement : HTMLElement</text><ellipse cx="458" cy="75.9102" rx="3" ry="3" style="stroke:#038048;stroke-width:1.0;fill:none;"/><text fill="#000000" font-family="sans-serif" font-size="11" lengthAdjust="spacing" textLength="88" x="467" y="79.5449">uniqueId : string</text><ellipse cx="458" cy="88.8652" rx="3" ry="3" style="stroke:#038048;stroke-width:1.0;fill:none;"/><text fill="#000000" font-family="sans-serif" font-size="11" lengthAdjust="spacing" textLength="86" x="467" y="92.5">widgetId : string</text><line style="stroke:#272B30;stroke-width:1.5;" x1="448" x2="849" y1="98.8203" y2="98.8203"/><ellipse cx="458" cy="109.8203" fill="#84BE84" rx="3" ry="3" style="stroke:#038048;stroke-width:1.0;"/><text fill="#000000" font-family="sans-serif" font-size="11" lengthAdjust="spacing" textLength="67" x="467" y="113.4551">build() : void</text><ellipse cx="458" cy="122.7754" fill="#84BE84" rx="3" ry="3" style="stroke:#038048;stroke-width:1.0;"/><text fill="#000000" font-family="sans-serif" font-size="11" lengthAdjust="spacing" textLength="377" x="467" y="126.4102">changeProperty(propertyName: string, propertyValue: unknown) : void</text><ellipse cx="458" cy="135.7305" fill="#84BE84" rx="3" ry="3" style="stroke:#038048;stroke-width:1.0;"/><text fill="#000000" font-family="sans-serif" font-size="11" lengthAdjust="spacing" textLength="66" x="467" y="139.3652">clear() : void</text><ellipse cx="458" cy="148.6855" fill="#84BE84" rx="3" ry="3" style="stroke:#038048;stroke-width:1.0;"/><text fill="#000000" font-family="sans-serif" font-size="11" lengthAdjust="spacing" textLength="78" x="467" y="152.3203">disable() : void</text><ellipse cx="458" cy="161.6406" fill="#84BE84" rx="3" ry="3" style="stroke:#038048;stroke-width:1.0;"/><text fill="#000000" font-family="sans-serif" font-size="11" lengthAdjust="spacing" textLength="82" x="467" y="165.2754">dispose() : void</text><ellipse cx="458" cy="174.5957" fill="#84BE84" rx="3" ry="3" style="stroke:#038048;stroke-width:1.0;"/><text fill="#000000" font-family="sans-serif" font-size="11" lengthAdjust="spacing" textLength="75" x="467" y="178.2305">enable() : void</text><ellipse cx="458" cy="187.5508" fill="#84BE84" rx="3" ry="3" style="stroke:#038048;stroke-width:1.0;"/><text fill="#000000" font-family="sans-serif" font-size="11" lengthAdjust="spacing" textLength="168" x="467" y="191.1855">equalsToID(id: string) : boolean</text><ellipse cx="458" cy="200.5059" fill="#84BE84" rx="3" ry="3" style="stroke:#038048;stroke-width:1.0;"/><text fill="#000000" font-family="sans-serif" font-size="11" lengthAdjust="spacing" textLength="145" x="467" y="204.1406">getSelectedValues() : string</text><ellipse cx="458" cy="213.4609" fill="#84BE84" rx="3" ry="3" style="stroke:#038048;stroke-width:1.0;"/><text fill="#000000" font-family="sans-serif" font-size="11" lengthAdjust="spacing" textLength="318" x="467" y="217.0957">validation(isValid: boolean, validationMessage: string) : void</text><!--MD5=[5656e28e84771dfc49d2499de866fa68]
class AbstractVirtualSelect<C>--><rect codeLine="51" fill="#FFFFFF" filter="url(#f10a2hh7k7c6eo)" height="475.5176" id="AbstractVirtualSelect&lt;C&gt;" style="stroke:#272B30;stroke-width:1.5;" width="403" x="228" y="572"/><ellipse cx="352.25" cy="588" fill="#A9DCDF" rx="11" ry="11" style="stroke:#272B30;stroke-width:1.0;"/><path d="M352.1133,583.3481 L350.9595,588.4199 L353.2754,588.4199 Z M350.6191,581.1069 L353.6157,581.1069 L356.9609,593.5 L354.5122,593.5 L353.7485,590.437 L350.4697,590.437 L349.7227,593.5 L347.2739,593.5 Z " fill="#000000"/><text fill="#000000" font-family="sans-serif" font-size="12" font-style="italic" lengthAdjust="spacing" textLength="146" x="372.75" y="592.5352">AbstractVirtualSelect&lt;C&gt;</text><line style="stroke:#272B30;stroke-width:1.5;" x1="229" x2="630" y1="604" y2="604"/><polygon fill="none" points="239,610,243,614,239,618,235,614" style="stroke:#B38D22;stroke-width:1.0;"/><text fill="#000000" font-family="sans-serif" font-size="11" lengthAdjust="spacing" textLength="80" x="248" y="618.6348">_provider : any</text><polygon fill="none" points="239,622.9551,243,626.9551,239,630.9551,235,626.9551" style="stroke:#B38D22;stroke-width:1.0;"/><text fill="#000000" font-family="sans-serif" font-size="11" lengthAdjust="spacing" textLength="131" x="248" y="631.5898">_selfElem : HTMLElement</text><polygon fill="none" points="239,635.9102,243,639.9102,239,643.9102,235,639.9102" style="stroke:#B38D22;stroke-width:1.0;"/><text fill="#000000" font-family="sans-serif" font-size="11" lengthAdjust="spacing" textLength="238" x="248" y="644.5449">_virtualselectMethods : VirtualSelectMethods</text><polygon fill="none" points="239,648.8652,243,652.8652,239,656.8652,235,652.8652" style="stroke:#B38D22;stroke-width:1.0;"/><text fill="#000000" font-family="sans-serif" font-size="11" lengthAdjust="spacing" textLength="198" x="248" y="657.5">_virtualselectOpts : VirtualSelectOpts</text><polygon fill="none" points="239,661.8203,243,665.8203,239,669.8203,235,665.8203" style="stroke:#B38D22;stroke-width:1.0;"/><text fill="#000000" font-family="sans-serif" font-size="11" lengthAdjust="spacing" textLength="92" x="248" y="670.4551">_widgetId : string</text><rect fill="none" height="6" style="stroke:#C82930;stroke-width:1.0;" width="6" x="236" y="676.7754"/><text fill="#000000" font-family="sans-serif" font-size="11" lengthAdjust="spacing" textLength="180" x="248" y="683.4102">_onSelectedOptionEvent : Generic</text><rect fill="none" height="6" style="stroke:#C82930;stroke-width:1.0;" width="6" x="236" y="689.7305"/><text fill="#000000" font-family="sans-serif" font-size="11" lengthAdjust="spacing" textLength="242" x="248" y="696.3652">_platformEventInitializedCallback : OSGeneric</text><rect fill="none" height="6" style="stroke:#C82930;stroke-width:1.0;" width="6" x="236" y="702.6855"/><text fill="#000000" font-family="sans-serif" font-size="11" lengthAdjust="spacing" textLength="290" x="248" y="709.3203">_platformEventSelectedOptCallback : OSOnSelectEvent</text><line style="stroke:#272B30;stroke-width:1.5;" x1="229" x2="630" y1="715.6406" y2="715.6406"/><ellipse cx="239" cy="726.6406" fill="#84BE84" rx="3" ry="3" style="stroke:#038048;stroke-width:1.0;"/><text fill="#000000" font-family="sans-serif" font-size="11" lengthAdjust="spacing" textLength="67" x="248" y="730.2754">build() : void</text><ellipse cx="239" cy="739.5957" fill="#84BE84" rx="3" ry="3" style="stroke:#038048;stroke-width:1.0;"/><text fill="#000000" font-family="sans-serif" font-size="11" lengthAdjust="spacing" textLength="377" x="248" y="743.2305">changeProperty(propertyName: string, propertyValue: unknown) : void</text><ellipse cx="239" cy="752.5508" fill="#84BE84" rx="3" ry="3" style="stroke:#038048;stroke-width:1.0;"/><text fill="#000000" font-family="sans-serif" font-size="11" lengthAdjust="spacing" textLength="66" x="248" y="756.1855">clear() : void</text><ellipse cx="239" cy="765.5059" fill="#84BE84" rx="3" ry="3" style="stroke:#038048;stroke-width:1.0;"/><text fill="#000000" font-family="sans-serif" font-size="11" lengthAdjust="spacing" textLength="78" x="248" y="769.1406">disable() : void</text><ellipse cx="239" cy="778.4609" fill="#84BE84" rx="3" ry="3" style="stroke:#038048;stroke-width:1.0;"/><text fill="#000000" font-family="sans-serif" font-size="11" lengthAdjust="spacing" textLength="82" x="248" y="782.0957">dispose() : void</text><ellipse cx="239" cy="791.416" fill="#84BE84" rx="3" ry="3" style="stroke:#038048;stroke-width:1.0;"/><text fill="#000000" font-family="sans-serif" font-size="11" lengthAdjust="spacing" textLength="75" x="248" y="795.0508">enable() : void</text><ellipse cx="239" cy="804.3711" fill="#84BE84" rx="3" ry="3" style="stroke:#038048;stroke-width:1.0;"/><text fill="#000000" font-family="sans-serif" font-size="11" lengthAdjust="spacing" textLength="207" x="248" y="808.0059">equalsToID(patternId: string) : boolean</text><ellipse cx="239" cy="817.3262" fill="#84BE84" rx="3" ry="3" style="stroke:#038048;stroke-width:1.0;"/><text fill="#000000" font-family="sans-serif" font-size="11" lengthAdjust="spacing" textLength="145" x="248" y="820.9609">getSelectedValues() : string</text><ellipse cx="239" cy="830.2813" fill="#84BE84" rx="3" ry="3" style="stroke:#038048;stroke-width:1.0;"/><text fill="#000000" font-family="sans-serif" font-size="11" lengthAdjust="spacing" textLength="335" x="248" y="833.916">registerCallback(eventName: string, callback: OSGeneric) : void</text><ellipse cx="239" cy="843.2363" fill="#84BE84" rx="3" ry="3" style="stroke:#038048;stroke-width:1.0;"/><text fill="#000000" font-family="sans-serif" font-size="11" lengthAdjust="spacing" textLength="208" x="248" y="846.8711">togglePopup(isEnabled: boolean) : void</text><ellipse cx="239" cy="856.1914" fill="#84BE84" rx="3" ry="3" style="stroke:#038048;stroke-width:1.0;"/><text fill="#000000" font-family="sans-serif" font-size="11" lengthAdjust="spacing" textLength="318" x="248" y="859.8262">validation(isValid: boolean, validationMessage: string) : void</text><polygon fill="#FFFF44" points="239,864.1465,243,868.1465,239,872.1465,235,868.1465" style="stroke:#B38D22;stroke-width:1.0;"/><text fill="#000000" font-family="sans-serif" font-size="11" lengthAdjust="spacing" textLength="163" x="248" y="872.7813">createProviderInstance() : void</text><polygon fill="#FFFF44" points="239,877.1016,243,881.1016,239,885.1016,235,881.1016" style="stroke:#B38D22;stroke-width:1.0;"/><text fill="#000000" font-family="sans-serif" font-size="11" lengthAdjust="spacing" textLength="96" x="248" y="885.7363">finishBuild() : void</text><polygon fill="#FFFF44" points="239,890.0566,243,894.0566,239,898.0566,235,894.0566" style="stroke:#B38D22;stroke-width:1.0;"/><text fill="#000000" font-family="sans-serif" font-size="11" font-style="italic" lengthAdjust="spacing" textLength="203" x="248" y="898.6914">getSelectedOptionsStructure() : string</text><polygon fill="#FFFF44" points="239,903.0117,243,907.0117,239,911.0117,235,907.0117" style="stroke:#B38D22;stroke-width:1.0;"/><text fill="#000000" font-family="sans-serif" font-size="11" font-style="italic" lengthAdjust="spacing" textLength="124" x="248" y="911.6465">prepareConfigs() : void</text><polygon fill="#FFFF44" points="239,915.9668,243,919.9668,239,923.9668,235,919.9668" style="stroke:#B38D22;stroke-width:1.0;"/><text fill="#000000" font-family="sans-serif" font-size="11" lengthAdjust="spacing" textLength="77" x="248" y="924.6016">redraw() : void</text><polygon fill="#FFFF44" points="239,928.9219,243,932.9219,239,936.9219,235,932.9219" style="stroke:#B38D22;stroke-width:1.0;"/><text fill="#000000" font-family="sans-serif" font-size="11" lengthAdjust="spacing" textLength="107" x="248" y="937.5566">setCallbacks() : void</text><polygon fill="#FFFF44" points="239,941.877,243,945.877,239,949.877,235,945.877" style="stroke:#B38D22;stroke-width:1.0;"/><text fill="#000000" font-family="sans-serif" font-size="11" lengthAdjust="spacing" textLength="121" x="248" y="950.5117">unsetCallbacks() : void</text><rect fill="#F24D5C" height="6" style="stroke:#C82930;stroke-width:1.0;" width="6" x="236" y="956.832"/><text fill="#000000" font-family="sans-serif" font-size="11" lengthAdjust="spacing" textLength="199" x="248" y="963.4668">_addErrorMessage(text: string) : void</text><rect fill="#F24D5C" height="6" style="stroke:#C82930;stroke-width:1.0;" width="6" x="236" y="969.7871"/><text fill="#000000" font-family="sans-serif" font-size="11" lengthAdjust="spacing" textLength="142" x="248" y="976.4219">_manageAttributes() : void</text><rect fill="#F24D5C" height="6" style="stroke:#C82930;stroke-width:1.0;" width="6" x="236" y="982.7422"/><text fill="#000000" font-family="sans-serif" font-size="11" lengthAdjust="spacing" textLength="160" x="248" y="989.377">_manageDisableStatus() : void</text><rect fill="#F24D5C" height="6" style="stroke:#C82930;stroke-width:1.0;" width="6" x="236" y="995.6973"/><text fill="#000000" font-family="sans-serif" font-size="11" lengthAdjust="spacing" textLength="141" x="248" y="1002.332">_onSelectedOption() : void</text><rect fill="#F24D5C" height="6" style="stroke:#C82930;stroke-width:1.0;" width="6" x="236" y="1008.6523"/><text fill="#000000" font-family="sans-serif" font-size="11" lengthAdjust="spacing" textLength="114" x="248" y="1015.2871">_setElementId() : void</text><rect fill="#F24D5C" height="6" style="stroke:#C82930;stroke-width:1.0;" width="6" x="236" y="1021.6074"/><text fill="#000000" font-family="sans-serif" font-size="11" lengthAdjust="spacing" textLength="112" x="248" y="1028.2422">_setUpEvents() : void</text><rect fill="#F24D5C" height="6" style="stroke:#C82930;stroke-width:1.0;" width="6" x="236" y="1034.5625"/><text fill="#000000" font-family="sans-serif" font-size="11" lengthAdjust="spacing" textLength="111" x="248" y="1041.1973">_unsetEvents() : void</text><!--MD5=[cefcd336b3838f4bd808d91b9768362a]
reverse link AbstractProviderPattern<P, C> to AbstractDropdown<P, C>--><path codeLine="34" d="M286.63,213.51 C304.13,235.92 322.88,259.94 340.86,282.97 " fill="none" id="AbstractProviderPattern&lt;P, C&gt;-backto-AbstractDropdown&lt;P, C&gt;" style="stroke:#272B30;stroke-width:1.0;"/><polygon fill="none" points="280.93,217.58,274.14,197.51,291.96,208.97,280.93,217.58" style="stroke:#272B30;stroke-width:1.0;"/><!--MD5=[cdda3ae4a2e61c74663e4ba1c4170fe4]
reverse link IDropdown to AbstractDropdown<P, C>--><path codeLine="50" d="M552.16,239.4 C540.89,253.83 529.44,268.5 518.28,282.79 " fill="none" id="IDropdown-backto-AbstractDropdown&lt;P, C&gt;" style="stroke:#272B30;stroke-width:1.0;stroke-dasharray:7.0,7.0;"/><polygon fill="none" points="546.94,234.7,564.77,223.25,557.98,243.32,546.94,234.7" style="stroke:#272B30;stroke-width:1.0;"/><!--MD5=[a3d73f8d191225894aba19cfa8b966ed]
reverse link AbstractDropdown<P, C> to AbstractVirtualSelect<C>--><path codeLine="86" d="M429.5,532.37 C429.5,545.13 429.5,558.31 429.5,571.67 " fill="none" id="AbstractDropdown&lt;P, C&gt;-backto-AbstractVirtualSelect&lt;C&gt;" style="stroke:#272B30;stroke-width:1.0;"/><polygon fill="none" points="422.5,532.03,429.5,512.03,436.5,532.03,422.5,532.03" style="stroke:#272B30;stroke-width:1.0;"/><!--MD5=[1f02f05b738ca2e562e3bb75a4666654]
@startuml
skinparam ClassArrowColor #272b30
skinparam ClassBorderColor #272b30
skinparam ClassBackgroundColor #fff
skinparam BackgroundColor #ced4da
hide empty methods
hide empty fields
abstract class "AbstractDropdown<P, C>" {
    #_provider : P
    #_selfElem : HTMLElement
    #_widgetId : string
    +build() : void
    +changeProperty(propertyName: string, propertyValue: unknown) : void
    {abstract} +clear() : void
    {abstract} +disable() : void
    +dispose() : void
    {abstract} +enable() : void
    +equalsToID(patternId: string) : boolean
    {abstract} +getSelectedValues() : string
    {abstract} +registerCallback(eventName: string, callback: OSGeneric) : void
    {abstract} +validation(isValid: boolean, validationMessage: string) : void
    #finishBuild() : void
}
abstract class "AbstractProviderPattern<P, C>" {
    #_provider : P
    #_selfElem : HTMLElement
    #_widgetId : string
    +build() : void
    +changeProperty(propertyName: string, propertyValue: unknown) : void
    +dispose() : void
    +equalsToID(patternId: string) : boolean
    {abstract} +registerCallback(eventName: string, callback: OSGeneric) : void
    #finishBuild() : void
}
"AbstractProviderPattern<P, C>" <|- - "AbstractDropdown<P, C>"
interface "IDropdown" {
    +isBuilt : boolean
    +selfElement : HTMLElement
    +uniqueId : string
    +widgetId : string
    +build() : void
    +changeProperty(propertyName: string, propertyValue: unknown) : void
    +clear() : void
    +disable() : void
    +dispose() : void
    +enable() : void
    +equalsToID(id: string) : boolean
    +getSelectedValues() : string
    +validation(isValid: boolean, validationMessage: string) : void
}
"IDropdown" <|.. "AbstractDropdown<P, C>"
abstract class "AbstractVirtualSelect<C>" {
    #_provider : any
    #_selfElem : HTMLElement
    #_virtualselectMethods : VirtualSelectMethods
    #_virtualselectOpts : VirtualSelectOpts
    #_widgetId : string
    -_onSelectedOptionEvent : Generic
    -_platformEventInitializedCallback : OSGeneric
    -_platformEventSelectedOptCallback : OSOnSelectEvent
    +build() : void
    +changeProperty(propertyName: string, propertyValue: unknown) : void
    +clear() : void
    +disable() : void
    +dispose() : void
    +enable() : void
    +equalsToID(patternId: string) : boolean
    +getSelectedValues() : string
    +registerCallback(eventName: string, callback: OSGeneric) : void
    +togglePopup(isEnabled: boolean) : void
    +validation(isValid: boolean, validationMessage: string) : void
    #createProviderInstance() : void
    #finishBuild() : void
    {abstract} #getSelectedOptionsStructure() : string
    {abstract} #prepareConfigs() : void
    #redraw() : void
    #setCallbacks() : void
    #unsetCallbacks() : void
    -_addErrorMessage(text: string) : void
    -_manageAttributes() : void
    -_manageDisableStatus() : void
    -_onSelectedOption() : void
    -_setElementId() : void
    -_setUpEvents() : void
    -_unsetEvents() : void
}
"AbstractDropdown<P, C>" <|- - "AbstractVirtualSelect<C>"
@enduml

PlantUML version 1.2021.14(Fri Nov 12 16:46:50 WET 2021)
(GPL source distribution)
Java Runtime: Java(TM) SE Runtime Environment
JVM: Java HotSpot(TM) 64-Bit Server VM
Default Encoding: UTF-8
Language: en
Country: PT
--></g></svg>