<?xml version="1.0" encoding="us-ascii" standalone="no"?><svg xmlns="http://www.w3.org/2000/svg" xmlns:xlink="http://www.w3.org/1999/xlink" contentStyleType="text/css" height="1200px" preserveAspectRatio="none" style="width:632px;height:1200px;background:#CED4DA;" version="1.1" viewBox="0 0 632 1200" width="632px" zoomAndPan="magnify"><defs/><g><rect fill="#CED4DA" height="1200" style="stroke:none;stroke-width:1.0;" width="632" x="0" y="0"/><!--class AbstractMonthPickerConfig--><g id="elem_AbstractMonthPickerConfig"><rect codeLine="7" fill="#FFFFFF" height="295.3242" id="AbstractMonthPickerConfig" rx="2.5" ry="2.5" style="stroke:#272B30;stroke-width:0.5;" width="616" x="9" y="296"/><ellipse cx="218.75" cy="312" fill="#A9DCDF" rx="11" ry="11" style="stroke:#181818;stroke-width:1.0;"/><path d="M218.6133,307.3481 L217.4595,312.4199 L219.7754,312.4199 Z M217.1191,305.1069 L220.1157,305.1069 L223.4609,317.5 L221.0122,317.5 L220.2485,314.437 L216.9697,314.437 L216.2227,317.5 L213.7739,317.5 Z " fill="#000000"/><text fill="#000000" font-family="sans-serif" font-size="14" font-style="italic" lengthAdjust="spacing" textLength="188" x="239.25" y="317.291">AbstractMonthPickerConfig</text><line style="stroke:#272B30;stroke-width:0.5;" x1="10" x2="624" y1="328" y2="328"/><ellipse cx="20" cy="341.7441" fill="none" rx="3" ry="3" style="stroke:#038048;stroke-width:1.0;"/><text fill="#000000" font-family="sans-serif" font-size="14" lengthAdjust="spacing" textLength="132" x="29" y="345.5352">DateFormat : string</text><ellipse cx="20" cy="358.2324" fill="none" rx="3" ry="3" style="stroke:#038048;stroke-width:1.0;"/><text fill="#000000" font-family="sans-serif" font-size="14" lengthAdjust="spacing" textLength="153" x="29" y="362.0234">ExtendedClass : string</text><ellipse cx="20" cy="374.7207" fill="none" rx="3" ry="3" style="stroke:#038048;stroke-width:1.0;"/><text fill="#000000" font-family="sans-serif" font-size="14" lengthAdjust="spacing" textLength="169" x="29" y="378.5117">InitialMonth : MonthYear</text><ellipse cx="20" cy="391.209" fill="none" rx="3" ry="3" style="stroke:#038048;stroke-width:1.0;"/><text fill="#000000" font-family="sans-serif" font-size="14" lengthAdjust="spacing" textLength="160" x="29" y="395">MaxMonth : MonthYear</text><ellipse cx="20" cy="407.6973" fill="none" rx="3" ry="3" style="stroke:#038048;stroke-width:1.0;"/><text fill="#000000" font-family="sans-serif" font-size="14" lengthAdjust="spacing" textLength="156" x="29" y="411.4883">MinMonth : MonthYear</text><line style="stroke:#272B30;stroke-width:0.5;" x1="10" x2="624" y1="418.4414" y2="418.4414"/><ellipse cx="20" cy="432.1855" fill="#84BE84" rx="3" ry="3" style="stroke:#038048;stroke-width:1.0;"/><text fill="#000000" font-family="sans-serif" font-size="14" font-style="italic" lengthAdjust="spacing" textLength="171" x="29" y="435.9766">getProviderConfig() : any</text><ellipse cx="20" cy="448.6738" fill="#84BE84" rx="3" ry="3" style="stroke:#038048;stroke-width:1.0;"/><text fill="#000000" font-family="sans-serif" font-size="14" lengthAdjust="spacing" textLength="409" x="29" y="452.4648">validateCanChange(_isBuilt: boolean, _key: string) : boolean</text><ellipse cx="20" cy="465.1621" fill="#84BE84" rx="3" ry="3" style="stroke:#038048;stroke-width:1.0;"/><text fill="#000000" font-family="sans-serif" font-size="14" lengthAdjust="spacing" textLength="375" x="29" y="468.9531">validateDefault(key: string, value: unknown) : unknown</text><polygon fill="#FFFF44" points="20,476.6504,24,480.6504,20,484.6504,16,480.6504" style="stroke:#B38D22;stroke-width:1.0;"/><text fill="#000000" font-family="sans-serif" font-size="14" lengthAdjust="spacing" textLength="590" x="29" y="485.4414">mergeConfigs(commonConfigs: any, specificConfigs: any, extendedConfigs: any) : any</text><polygon fill="#FFFF44" points="20,493.1387,24,497.1387,20,501.1387,16,497.1387" style="stroke:#B38D22;stroke-width:1.0;"/><text fill="#000000" font-family="sans-serif" font-size="14" lengthAdjust="spacing" textLength="444" x="29" y="501.9297">validateBoolean(value: boolean, defaultValue: boolean) : boolean</text><polygon fill="#FFFF44" points="20,509.627,24,513.627,20,517.627,16,513.627" style="stroke:#B38D22;stroke-width:1.0;"/><text fill="#000000" font-family="sans-serif" font-size="14" lengthAdjust="spacing" textLength="460" x="29" y="518.418">validateDate(value: string | Date, defaultValue: string) : string | Date</text><polygon fill="#FFFF44" points="20,526.1152,24,530.1152,20,534.1152,16,530.1152" style="stroke:#B38D22;stroke-width:1.0;"/><text fill="#000000" font-family="sans-serif" font-size="14" lengthAdjust="spacing" textLength="589" x="29" y="534.9063">validateInRange(value: unknown, defaultValue: unknown, args: unknown[]) : unknown</text><polygon fill="#FFFF44" points="20,542.6035,24,546.6035,20,550.6035,16,546.6035" style="stroke:#B38D22;stroke-width:1.0;"/><text fill="#000000" font-family="sans-serif" font-size="14" lengthAdjust="spacing" textLength="438" x="29" y="551.3945">validateNumber(value: number, defaultValue: number) : number</text><polygon fill="#FFFF44" points="20,559.0918,24,563.0918,20,567.0918,16,563.0918" style="stroke:#B38D22;stroke-width:1.0;"/><text fill="#000000" font-family="sans-serif" font-size="14" lengthAdjust="spacing" textLength="382" x="29" y="567.8828">validateString(value: string, defaultValue: string) : string</text><polygon fill="#FFFF44" points="20,575.5801,24,579.5801,20,583.5801,16,579.5801" style="stroke:#B38D22;stroke-width:1.0;"/><text fill="#000000" font-family="sans-serif" font-size="14" lengthAdjust="spacing" textLength="375" x="29" y="584.3711">validateTime(value: string, defaultValue: string) : string</text></g><!--class AbstractProviderConfiguration--><g id="elem_AbstractProviderConfiguration"><rect codeLine="24" fill="#FFFFFF" height="229.3711" id="AbstractProviderConfiguration" rx="2.5" ry="2.5" style="stroke:#272B30;stroke-width:0.5;" width="616" x="9" y="7"/><ellipse cx="207.75" cy="23" fill="#A9DCDF" rx="11" ry="11" style="stroke:#181818;stroke-width:1.0;"/><path d="M207.6133,18.3481 L206.4595,23.4199 L208.7754,23.4199 Z M206.1191,16.1069 L209.1157,16.1069 L212.4609,28.5 L210.0122,28.5 L209.2485,25.437 L205.9697,25.437 L205.2227,28.5 L202.7739,28.5 Z " fill="#000000"/><text fill="#000000" font-family="sans-serif" font-size="14" font-style="italic" lengthAdjust="spacing" textLength="210" x="228.25" y="28.291">AbstractProviderConfiguration</text><line style="stroke:#272B30;stroke-width:0.5;" x1="10" x2="624" y1="39" y2="39"/><ellipse cx="20" cy="52.7441" fill="none" rx="3" ry="3" style="stroke:#038048;stroke-width:1.0;"/><text fill="#000000" font-family="sans-serif" font-size="14" lengthAdjust="spacing" textLength="153" x="29" y="56.5352">ExtendedClass : string</text><line style="stroke:#272B30;stroke-width:0.5;" x1="10" x2="624" y1="63.4883" y2="63.4883"/><ellipse cx="20" cy="77.2324" fill="#84BE84" rx="3" ry="3" style="stroke:#038048;stroke-width:1.0;"/><text fill="#000000" font-family="sans-serif" font-size="14" font-style="italic" lengthAdjust="spacing" textLength="171" x="29" y="81.0234">getProviderConfig() : any</text><ellipse cx="20" cy="93.7207" fill="#84BE84" rx="3" ry="3" style="stroke:#038048;stroke-width:1.0;"/><text fill="#000000" font-family="sans-serif" font-size="14" lengthAdjust="spacing" textLength="409" x="29" y="97.5117">validateCanChange(_isBuilt: boolean, _key: string) : boolean</text><ellipse cx="20" cy="110.209" fill="#84BE84" rx="3" ry="3" style="stroke:#038048;stroke-width:1.0;"/><text fill="#000000" font-family="sans-serif" font-size="14" lengthAdjust="spacing" textLength="382" x="29" y="114">validateDefault(_key: string, value: unknown) : unknown</text><polygon fill="#FFFF44" points="20,121.6973,24,125.6973,20,129.6973,16,125.6973" style="stroke:#B38D22;stroke-width:1.0;"/><text fill="#000000" font-family="sans-serif" font-size="14" lengthAdjust="spacing" textLength="590" x="29" y="130.4883">mergeConfigs(commonConfigs: any, specificConfigs: any, extendedConfigs: any) : any</text><polygon fill="#FFFF44" points="20,138.1855,24,142.1855,20,146.1855,16,142.1855" style="stroke:#B38D22;stroke-width:1.0;"/><text fill="#000000" font-family="sans-serif" font-size="14" lengthAdjust="spacing" textLength="444" x="29" y="146.9766">validateBoolean(value: boolean, defaultValue: boolean) : boolean</text><polygon fill="#FFFF44" points="20,154.6738,24,158.6738,20,162.6738,16,158.6738" style="stroke:#B38D22;stroke-width:1.0;"/><text fill="#000000" font-family="sans-serif" font-size="14" lengthAdjust="spacing" textLength="460" x="29" y="163.4648">validateDate(value: string | Date, defaultValue: string) : string | Date</text><polygon fill="#FFFF44" points="20,171.1621,24,175.1621,20,179.1621,16,175.1621" style="stroke:#B38D22;stroke-width:1.0;"/><text fill="#000000" font-family="sans-serif" font-size="14" lengthAdjust="spacing" textLength="589" x="29" y="179.9531">validateInRange(value: unknown, defaultValue: unknown, args: unknown[]) : unknown</text><polygon fill="#FFFF44" points="20,187.6504,24,191.6504,20,195.6504,16,191.6504" style="stroke:#B38D22;stroke-width:1.0;"/><text fill="#000000" font-family="sans-serif" font-size="14" lengthAdjust="spacing" textLength="438" x="29" y="196.4414">validateNumber(value: number, defaultValue: number) : number</text><polygon fill="#FFFF44" points="20,204.1387,24,208.1387,20,212.1387,16,208.1387" style="stroke:#B38D22;stroke-width:1.0;"/><text fill="#000000" font-family="sans-serif" font-size="14" lengthAdjust="spacing" textLength="382" x="29" y="212.9297">validateString(value: string, defaultValue: string) : string</text><polygon fill="#FFFF44" points="20,220.627,24,224.627,20,228.627,16,224.627" style="stroke:#B38D22;stroke-width:1.0;"/><text fill="#000000" font-family="sans-serif" font-size="14" lengthAdjust="spacing" textLength="375" x="29" y="229.418">validateTime(value: string, defaultValue: string) : string</text></g><!--class FlatpickrMonthConfig--><g id="elem_FlatpickrMonthConfig"><rect codeLine="38" fill="#FFFFFF" height="542.6484" id="FlatpickrMonthConfig" rx="2.5" ry="2.5" style="stroke:#272B30;stroke-width:0.5;" width="616" x="9" y="651"/><ellipse cx="238.25" cy="667" fill="#ADD1B2" rx="11" ry="11" style="stroke:#181818;stroke-width:1.0;"/><path d="M240.7231,673.1431 Q240.1421,673.4419 239.5029,673.5913 Q238.8638,673.7407 238.1582,673.7407 Q235.6514,673.7407 234.3315,672.0889 Q233.0117,670.437 233.0117,667.3159 Q233.0117,664.1865 234.3315,662.5347 Q235.6514,660.8828 238.1582,660.8828 Q238.8638,660.8828 239.5112,661.0322 Q240.1587,661.1816 240.7231,661.4805 L240.7231,664.2031 Q240.0923,663.6221 239.4988,663.3523 Q238.9053,663.0825 238.2744,663.0825 Q236.9297,663.0825 236.2449,664.1492 Q235.5601,665.2158 235.5601,667.3159 Q235.5601,669.4077 236.2449,670.4744 Q236.9297,671.541 238.2744,671.541 Q238.9053,671.541 239.4988,671.2712 Q240.0923,671.0015 240.7231,670.4204 Z " fill="#000000"/><text fill="#000000" font-family="sans-serif" font-size="14" lengthAdjust="spacing" textLength="149" x="258.75" y="672.291">FlatpickrMonthConfig</text><line style="stroke:#272B30;stroke-width:0.5;" x1="10" x2="624" y1="683" y2="683"/><ellipse cx="20" cy="696.7441" fill="none" rx="3" ry="3" style="stroke:#038048;stroke-width:1.0;"/><text fill="#000000" font-family="sans-serif" font-size="14" lengthAdjust="spacing" textLength="142" x="29" y="700.5352">AllowInput : boolean</text><ellipse cx="20" cy="713.2324" fill="none" rx="3" ry="3" style="stroke:#038048;stroke-width:1.0;"/><text fill="#000000" font-family="sans-serif" font-size="14" lengthAdjust="spacing" textLength="132" x="29" y="717.0234">DateFormat : string</text><ellipse cx="20" cy="729.7207" fill="none" rx="3" ry="3" style="stroke:#038048;stroke-width:1.0;"/><text fill="#000000" font-family="sans-serif" font-size="14" lengthAdjust="spacing" textLength="164" x="29" y="733.5117">DisableMobile : boolean</text><ellipse cx="20" cy="746.209" fill="none" rx="3" ry="3" style="stroke:#038048;stroke-width:1.0;"/><text fill="#000000" font-family="sans-serif" font-size="14" lengthAdjust="spacing" textLength="153" x="29" y="750">ExtendedClass : string</text><ellipse cx="20" cy="762.6973" fill="none" rx="3" ry="3" style="stroke:#038048;stroke-width:1.0;"/><text fill="#000000" font-family="sans-serif" font-size="14" lengthAdjust="spacing" textLength="169" x="29" y="766.4883">InitialMonth : MonthYear</text><ellipse cx="20" cy="779.1855" fill="none" rx="3" ry="3" style="stroke:#038048;stroke-width:1.0;"/><text fill="#000000" font-family="sans-serif" font-size="14" lengthAdjust="spacing" textLength="160" x="29" y="782.9766">MaxMonth : MonthYear</text><ellipse cx="20" cy="795.6738" fill="none" rx="3" ry="3" style="stroke:#038048;stroke-width:1.0;"/><text fill="#000000" font-family="sans-serif" font-size="14" lengthAdjust="spacing" textLength="156" x="29" y="799.4648">MinMonth : MonthYear</text><ellipse cx="20" cy="812.1621" fill="none" rx="3" ry="3" style="stroke:#038048;stroke-width:1.0;"/><text fill="#000000" font-family="sans-serif" font-size="14" lengthAdjust="spacing" textLength="232" x="29" y="815.9531">OnChangeEventCallback : Generic</text><ellipse cx="20" cy="828.6504" fill="none" rx="3" ry="3" style="stroke:#038048;stroke-width:1.0;"/><text fill="#000000" font-family="sans-serif" font-size="14" lengthAdjust="spacing" textLength="217" x="29" y="832.4414">OnCloseEventCallback : Generic</text><ellipse cx="20" cy="845.1387" fill="none" rx="3" ry="3" style="stroke:#038048;stroke-width:1.0;"/><text fill="#000000" font-family="sans-serif" font-size="14" lengthAdjust="spacing" textLength="216" x="29" y="848.9297">OnOpenEventCallback : Generic</text><ellipse cx="20" cy="861.627" fill="none" rx="3" ry="3" style="stroke:#038048;stroke-width:1.0;"/><text fill="#000000" font-family="sans-serif" font-size="14" lengthAdjust="spacing" textLength="175" x="29" y="865.418">ServerDateFormat : string</text><polygon fill="none" points="20,873.1152,24,877.1152,20,881.1152,16,877.1152" style="stroke:#B38D22;stroke-width:1.0;"/><text fill="#000000" font-family="sans-serif" font-size="14" lengthAdjust="spacing" textLength="302" x="29" y="881.9063">providerExtendedOptions : FlatpickrOptions</text><rect fill="none" height="6" style="stroke:#C82930;stroke-width:1.0;" width="6" x="17" y="891.6035"/><text fill="#000000" font-family="sans-serif" font-size="14" lengthAdjust="spacing" textLength="89" x="29" y="898.3945">_lang : string</text><rect fill="none" height="6" style="stroke:#C82930;stroke-width:1.0;" width="6" x="17" y="908.0918"/><text fill="#000000" font-family="sans-serif" font-size="14" lengthAdjust="spacing" textLength="244" x="29" y="914.8828">_providerOptions : FlatpickrOptions</text><line style="stroke:#272B30;stroke-width:0.5;" x1="10" x2="624" y1="921.8359" y2="921.8359"/><ellipse cx="20" cy="935.5801" fill="#84BE84" rx="3" ry="3" style="stroke:#038048;stroke-width:1.0;"/><text fill="#000000" font-family="sans-serif" font-size="14" lengthAdjust="spacing" textLength="260" x="29" y="939.3711">getProviderConfig() : FlatpickrOptions</text><ellipse cx="20" cy="952.0684" fill="#84BE84" rx="3" ry="3" style="stroke:#038048;stroke-width:1.0;"/><text fill="#000000" font-family="sans-serif" font-size="14" lengthAdjust="spacing" textLength="409" x="29" y="955.8594">setExtensibilityConfigs(newConfigs: FlatpickrOptions) : void</text><ellipse cx="20" cy="968.5566" fill="#84BE84" rx="3" ry="3" style="stroke:#038048;stroke-width:1.0;"/><text fill="#000000" font-family="sans-serif" font-size="14" lengthAdjust="spacing" textLength="409" x="29" y="972.3477">validateCanChange(_isBuilt: boolean, _key: string) : boolean</text><ellipse cx="20" cy="985.0449" fill="#84BE84" rx="3" ry="3" style="stroke:#038048;stroke-width:1.0;"/><text fill="#000000" font-family="sans-serif" font-size="14" lengthAdjust="spacing" textLength="375" x="29" y="988.8359">validateDefault(key: string, value: unknown) : unknown</text><polygon fill="#FFFF44" points="20,996.5332,24,1000.5332,20,1004.5332,16,1000.5332" style="stroke:#B38D22;stroke-width:1.0;"/><text fill="#000000" font-family="sans-serif" font-size="14" lengthAdjust="spacing" textLength="590" x="29" y="1005.3242">mergeConfigs(commonConfigs: any, specificConfigs: any, extendedConfigs: any) : any</text><polygon fill="#FFFF44" points="20,1013.0215,24,1017.0215,20,1021.0215,16,1017.0215" style="stroke:#B38D22;stroke-width:1.0;"/><text fill="#000000" font-family="sans-serif" font-size="14" lengthAdjust="spacing" textLength="444" x="29" y="1021.8125">validateBoolean(value: boolean, defaultValue: boolean) : boolean</text><polygon fill="#FFFF44" points="20,1029.5098,24,1033.5098,20,1037.5098,16,1033.5098" style="stroke:#B38D22;stroke-width:1.0;"/><text fill="#000000" font-family="sans-serif" font-size="14" lengthAdjust="spacing" textLength="460" x="29" y="1038.3008">validateDate(value: string | Date, defaultValue: string) : string | Date</text><polygon fill="#FFFF44" points="20,1045.998,24,1049.998,20,1053.998,16,1049.998" style="stroke:#B38D22;stroke-width:1.0;"/><text fill="#000000" font-family="sans-serif" font-size="14" lengthAdjust="spacing" textLength="589" x="29" y="1054.7891">validateInRange(value: unknown, defaultValue: unknown, args: unknown[]) : unknown</text><polygon fill="#FFFF44" points="20,1062.4863,24,1066.4863,20,1070.4863,16,1066.4863" style="stroke:#B38D22;stroke-width:1.0;"/><text fill="#000000" font-family="sans-serif" font-size="14" lengthAdjust="spacing" textLength="438" x="29" y="1071.2773">validateNumber(value: number, defaultValue: number) : number</text><polygon fill="#FFFF44" points="20,1078.9746,24,1082.9746,20,1086.9746,16,1082.9746" style="stroke:#B38D22;stroke-width:1.0;"/><text fill="#000000" font-family="sans-serif" font-size="14" lengthAdjust="spacing" textLength="382" x="29" y="1087.7656">validateString(value: string, defaultValue: string) : string</text><polygon fill="#FFFF44" points="20,1095.4629,24,1099.4629,20,1103.4629,16,1099.4629" style="stroke:#B38D22;stroke-width:1.0;"/><text fill="#000000" font-family="sans-serif" font-size="14" lengthAdjust="spacing" textLength="375" x="29" y="1104.2539">validateTime(value: string, defaultValue: string) : string</text><rect fill="#F24D5C" height="6" style="stroke:#C82930;stroke-width:1.0;" width="6" x="17" y="1113.9512"/><text fill="#000000" font-family="sans-serif" font-size="14" lengthAdjust="spacing" textLength="188" x="29" y="1120.7422">_checkDateFormat() : string</text><rect fill="#F24D5C" height="6" style="stroke:#C82930;stroke-width:1.0;" width="6" x="17" y="1130.4395"/><text fill="#000000" font-family="sans-serif" font-size="14" lengthAdjust="spacing" textLength="207" x="29" y="1137.2305">_checkLocale() : CustomLocale</text><rect fill="#F24D5C" height="6" style="stroke:#C82930;stroke-width:1.0;" width="6" x="17" y="1146.9277"/><text fill="#000000" font-family="sans-serif" font-size="14" lengthAdjust="spacing" textLength="220" x="29" y="1153.7188">_checkServerDateFormat() : void</text><rect fill="#F24D5C" height="6" style="stroke:#C82930;stroke-width:1.0;" width="6" x="17" y="1163.416"/><text fill="#000000" font-family="sans-serif" font-size="14" lengthAdjust="spacing" textLength="383" x="29" y="1170.207">_getDateFromMonthYear(monthYear: MonthYear) : Date</text><rect fill="#F24D5C" height="6" style="stroke:#C82930;stroke-width:1.0;" width="6" x="17" y="1179.9043"/><text fill="#000000" font-family="sans-serif" font-size="14" lengthAdjust="spacing" textLength="236" x="29" y="1186.6953">_mapProviderDateFormat() : string</text></g><!--reverse link AbstractProviderConfiguration to AbstractMonthPickerConfig--><g id="link_AbstractProviderConfiguration_AbstractMonthPickerConfig"><path codeLine="37" d="M317,256.43 C317,269.45 317,282.71 317,295.84 " fill="none" id="AbstractProviderConfiguration-backto-AbstractMonthPickerConfig" style="stroke:#272B30;stroke-width:1.0;"/><polygon fill="none" points="310,256.22,317,236.22,324,256.22,310,256.22" style="stroke:#272B30;stroke-width:1.0;"/></g><!--reverse link AbstractMonthPickerConfig to FlatpickrMonthConfig--><g id="link_AbstractMonthPickerConfig_FlatpickrMonthConfig"><path codeLine="70" d="M317,611.25 C317,624.2 317,637.47 317,650.87 " fill="none" id="AbstractMonthPickerConfig-backto-FlatpickrMonthConfig" style="stroke:#272B30;stroke-width:1.0;"/><polygon fill="none" points="310,611.18,317,591.18,324,611.18,310,611.18" style="stroke:#272B30;stroke-width:1.0;"/></g><!--SRC=[xLVVQzim47xFNo6Q5uysCBh1eEobJTiHMDQoZi4OmvpjSoAY7qQIauQs_tjbsN8jDp_eo_gIlCIw- -xBfzFToT4BAWfGmCcOWTRdIidLM3AfoF3qosdowUD0XuWBgJ9Kko6GBcPAbY9hO7cUTp2lt2bcdpCOp6c617bXreIZcSjCTqqvHMOja6YZ83KahNw979qtwwaKPdvBqqMbJUHqTaGU1iH-ZY_1uBLK70mv8nPCnQnsNDqR51bcJdFFDn7KK62ErRhSzny4LNkdSB_DGyLcpuCN_aIEPsXkbLpIp6kDFbWyY7NDiGH6Cojw368y1p73AARwegJCd954IeOWJaYymBMNN4KtZf3X4dCecOaws1DYdIMUaL8iX5o9AhPvTB53Zcg6jImTfP9pAPgLatX2T84fpMaQMj4disFjxcheDLtKGgD6HhkXhDRwEp3tTzQoL8VgAUgDaKTI6Vj4BnaAO27RHFnqUGvJqwTgpQ2g3JRBl_zUfT3J_YXvWigp2hVgazRMYg9-2XdkdEPme_js63ByeXpV6F-qjSd2gYqL62f5ssWx-kbTgpy-bF-X_DzI_llg_UlZQBJhvXaqRNFDm1JMeHoaTosTCoPN4r6Kfb-_Mo-iIweXOJYL2MNOZ_gljzdnJTESLqiKPWoC9VPIjx1lA53Hj0KngVTXRWeKEo5tg9QejcLbM3I7v1DmKrIdLAMWpNzZSlXHpApma6CKUv8zmLk6rsQiHkCqQMhFYvgrdoe2L-sOw4TMR4j9iyERm64Kllyeh7iZdMEwU6c_Q3FWkqo1eNEEIsqahmrTIB-Hew3QHx5jBkTKahVZ9kB-gJE3ghZsx4OnXy8tvMQPdP6-uNz2FSut3kjd]--></g></svg>