<?xml version="1.0" encoding="UTF-8" standalone="no"?><svg xmlns="http://www.w3.org/2000/svg" xmlns:xlink="http://www.w3.org/1999/xlink" contentScriptType="application/ecmascript" contentStyleType="text/css" height="971px" preserveAspectRatio="none" style="width:1302px;height:971px;background:#CED4DA;" version="1.1" viewBox="0 0 1302 971" width="1302px" zoomAndPan="magnify"><defs><filter height="300%" id="fj9u0kwqqktjd" width="300%" x="-1" y="-1"><feGaussianBlur result="blurOut" stdDeviation="2.0"/><feColorMatrix in="blurOut" result="blurOut2" type="matrix" values="0 0 0 0 0 0 0 0 0 0 0 0 0 0 0 0 0 0 .4 0"/><feOffset dx="4.0" dy="4.0" in="blurOut2" result="blurOut3"/><feBlend in="SourceGraphic" in2="blurOut3" mode="normal"/></filter></defs><g><!--MD5=[99d7fd0faeafe5edafd44853e0335d67]
class AbstractRangeSlider<P, C>--><rect codeLine="7" fill="#FFFFFF" filter="url(#fj9u0kwqqktjd)" height="177.5508" id="AbstractRangeSlider&lt;P, C&gt;" style="stroke:#272B30;stroke-width:1.5;" width="403" x="447" y="270"/><ellipse cx="564.75" cy="286" fill="#A9DCDF" rx="11" ry="11" style="stroke:#272B30;stroke-width:1.0;"/><path d="M564.6133,281.3481 L563.4595,286.4199 L565.7754,286.4199 Z M563.1191,279.1069 L566.1157,279.1069 L569.4609,291.5 L567.0122,291.5 L566.2485,288.437 L562.9697,288.437 L562.2227,291.5 L559.7739,291.5 Z " fill="#000000"/><text fill="#000000" font-family="sans-serif" font-size="12" font-style="italic" lengthAdjust="spacing" textLength="159" x="585.25" y="290.5352">AbstractRangeSlider&lt;P, C&gt;</text><line style="stroke:#272B30;stroke-width:1.5;" x1="448" x2="849" y1="302" y2="302"/><polygon fill="none" points="458,308,462,312,458,316,454,312" style="stroke:#B38D22;stroke-width:1.0;"/><text fill="#000000" font-family="sans-serif" font-size="11" lengthAdjust="spacing" textLength="131" x="467" y="316.6348">_selfElem : HTMLElement</text><polygon fill="none" points="458,320.9551,462,324.9551,458,328.9551,454,324.9551" style="stroke:#B38D22;stroke-width:1.0;"/><text fill="#000000" font-family="sans-serif" font-size="11" lengthAdjust="spacing" textLength="92" x="467" y="329.5898">_widgetId : string</text><rect fill="none" height="6" style="stroke:#C82930;stroke-width:1.0;" width="6" x="455" y="335.9102"/><text fill="#000000" font-family="sans-serif" font-size="11" lengthAdjust="spacing" textLength="67" x="467" y="342.5449">_provider : P</text><line style="stroke:#272B30;stroke-width:1.5;" x1="448" x2="849" y1="348.8652" y2="348.8652"/><ellipse cx="458" cy="359.8652" fill="#84BE84" rx="3" ry="3" style="stroke:#038048;stroke-width:1.0;"/><text fill="#000000" font-family="sans-serif" font-size="11" lengthAdjust="spacing" textLength="67" x="467" y="363.5">build() : void</text><ellipse cx="458" cy="372.8203" fill="#84BE84" rx="3" ry="3" style="stroke:#038048;stroke-width:1.0;"/><text fill="#000000" font-family="sans-serif" font-size="11" lengthAdjust="spacing" textLength="377" x="467" y="376.4551">changeProperty(propertyName: string, propertyValue: unknown) : void</text><ellipse cx="458" cy="385.7754" fill="#84BE84" rx="3" ry="3" style="stroke:#038048;stroke-width:1.0;"/><text fill="#000000" font-family="sans-serif" font-size="11" lengthAdjust="spacing" textLength="82" x="467" y="389.4102">dispose() : void</text><ellipse cx="458" cy="398.7305" fill="#84BE84" rx="3" ry="3" style="stroke:#038048;stroke-width:1.0;"/><text fill="#000000" font-family="sans-serif" font-size="11" lengthAdjust="spacing" textLength="207" x="467" y="402.3652">equalsToID(patternId: string) : boolean</text><ellipse cx="458" cy="411.6855" fill="#84BE84" rx="3" ry="3" style="stroke:#038048;stroke-width:1.0;"/><text fill="#000000" font-family="sans-serif" font-size="11" font-style="italic" lengthAdjust="spacing" textLength="335" x="467" y="415.3203">registerCallback(eventName: string, callback: OSGeneric) : void</text><ellipse cx="458" cy="424.6406" fill="#84BE84" rx="3" ry="3" style="stroke:#038048;stroke-width:1.0;"/><text fill="#000000" font-family="sans-serif" font-size="11" font-style="italic" lengthAdjust="spacing" textLength="232" x="467" y="428.2754">setRangeIntervalChangeOnDragEnd() : void</text><polygon fill="#FFFF44" points="458,432.5957,462,436.5957,458,440.5957,454,436.5957" style="stroke:#B38D22;stroke-width:1.0;"/><text fill="#000000" font-family="sans-serif" font-size="11" lengthAdjust="spacing" textLength="96" x="467" y="441.2305">finishBuild() : void</text><!--MD5=[9535f12e0f372b236ea6317b881381d1]
class AbstractPattern<C>--><rect codeLine="19" fill="#FFFFFF" filter="url(#fj9u0kwqqktjd)" height="203.4609" id="AbstractPattern&lt;C&gt;" style="stroke:#272B30;stroke-width:1.5;" width="403" x="9" y="7"/><ellipse cx="147.75" cy="23" fill="#A9DCDF" rx="11" ry="11" style="stroke:#272B30;stroke-width:1.0;"/><path d="M147.6133,18.3481 L146.4595,23.4199 L148.7754,23.4199 Z M146.1191,16.1069 L149.1157,16.1069 L152.4609,28.5 L150.0122,28.5 L149.2485,25.437 L145.9697,25.437 L145.2227,28.5 L142.7739,28.5 Z " fill="#000000"/><text fill="#000000" font-family="sans-serif" font-size="12" font-style="italic" lengthAdjust="spacing" textLength="117" x="168.25" y="27.5352">AbstractPattern&lt;C&gt;</text><line style="stroke:#272B30;stroke-width:1.5;" x1="10" x2="411" y1="39" y2="39"/><polygon fill="none" points="20,45,24,49,20,53,16,49" style="stroke:#B38D22;stroke-width:1.0;"/><text fill="#000000" font-family="sans-serif" font-size="11" lengthAdjust="spacing" textLength="131" x="29" y="53.6348">_selfElem : HTMLElement</text><polygon fill="none" points="20,57.9551,24,61.9551,20,65.9551,16,61.9551" style="stroke:#B38D22;stroke-width:1.0;"/><text fill="#000000" font-family="sans-serif" font-size="11" lengthAdjust="spacing" textLength="92" x="29" y="66.5898">_widgetId : string</text><rect fill="none" height="6" style="stroke:#C82930;stroke-width:1.0;" width="6" x="17" y="72.9102"/><text fill="#000000" font-family="sans-serif" font-size="11" lengthAdjust="spacing" textLength="63" x="29" y="79.5449">_configs : C</text><rect fill="none" height="6" style="stroke:#C82930;stroke-width:1.0;" width="6" x="17" y="85.8652"/><text fill="#000000" font-family="sans-serif" font-size="11" lengthAdjust="spacing" textLength="90" x="29" y="92.5">_isBuilt : boolean</text><rect fill="none" height="6" style="stroke:#C82930;stroke-width:1.0;" width="6" x="17" y="98.8203"/><text fill="#000000" font-family="sans-serif" font-size="11" lengthAdjust="spacing" textLength="94" x="29" y="105.4551">_uniqueId : string</text><line style="stroke:#272B30;stroke-width:1.5;" x1="10" x2="411" y1="111.7754" y2="111.7754"/><ellipse cx="20" cy="122.7754" fill="#84BE84" rx="3" ry="3" style="stroke:#038048;stroke-width:1.0;"/><text fill="#000000" font-family="sans-serif" font-size="11" lengthAdjust="spacing" textLength="67" x="29" y="126.4102">build() : void</text><ellipse cx="20" cy="135.7305" fill="#84BE84" rx="3" ry="3" style="stroke:#038048;stroke-width:1.0;"/><text fill="#000000" font-family="sans-serif" font-size="11" lengthAdjust="spacing" textLength="377" x="29" y="139.3652">changeProperty(propertyName: string, propertyValue: unknown) : void</text><ellipse cx="20" cy="148.6855" fill="#84BE84" rx="3" ry="3" style="stroke:#038048;stroke-width:1.0;"/><text fill="#000000" font-family="sans-serif" font-size="11" lengthAdjust="spacing" textLength="82" x="29" y="152.3203">dispose() : void</text><ellipse cx="20" cy="161.6406" fill="#84BE84" rx="3" ry="3" style="stroke:#038048;stroke-width:1.0;"/><text fill="#000000" font-family="sans-serif" font-size="11" lengthAdjust="spacing" textLength="207" x="29" y="165.2754">equalsToID(patternId: string) : boolean</text><polygon fill="#FFFF44" points="20,169.5957,24,173.5957,20,177.5957,16,173.5957" style="stroke:#B38D22;stroke-width:1.0;"/><text fill="#000000" font-family="sans-serif" font-size="11" lengthAdjust="spacing" textLength="96" x="29" y="178.2305">finishBuild() : void</text><polygon fill="#FFFF44" points="20,182.5508,24,186.5508,20,190.5508,16,186.5508" style="stroke:#B38D22;stroke-width:1.0;"/><text fill="#000000" font-family="sans-serif" font-size="11" lengthAdjust="spacing" textLength="198" x="29" y="191.1855">_unsetCommonHtmlElements() : void</text><rect fill="#F24D5C" height="6" style="stroke:#C82930;stroke-width:1.0;" width="6" x="17" y="197.5059"/><text fill="#000000" font-family="sans-serif" font-size="11" lengthAdjust="spacing" textLength="184" x="29" y="204.1406">_setCommonHtmlElements() : void</text><!--MD5=[bed2d126a4d0ed931c02a0aac4b26ac4]
class IRangeSlider--><rect codeLine="34" fill="#FFFFFF" filter="url(#fj9u0kwqqktjd)" height="151.6406" id="IRangeSlider" style="stroke:#272B30;stroke-width:1.5;" width="403" x="447" y="32.5"/><ellipse cx="608.75" cy="48.5" fill="#B4A7E5" rx="11" ry="11" style="stroke:#272B30;stroke-width:1.0;"/><path d="M605.1777,44.7651 L605.1777,42.6069 L612.5571,42.6069 L612.5571,44.7651 L610.0918,44.7651 L610.0918,52.8418 L612.5571,52.8418 L612.5571,55 L605.1777,55 L605.1777,52.8418 L607.6431,52.8418 L607.6431,44.7651 Z " fill="#000000"/><text fill="#000000" font-family="sans-serif" font-size="12" font-style="italic" lengthAdjust="spacing" textLength="71" x="629.25" y="53.0352">IRangeSlider</text><line style="stroke:#272B30;stroke-width:1.5;" x1="448" x2="849" y1="64.5" y2="64.5"/><ellipse cx="458" cy="75.5" rx="3" ry="3" style="stroke:#038048;stroke-width:1.0;fill:none;"/><text fill="#000000" font-family="sans-serif" font-size="11" lengthAdjust="spacing" textLength="84" x="467" y="79.1348">isBuilt : boolean</text><ellipse cx="458" cy="88.4551" rx="3" ry="3" style="stroke:#038048;stroke-width:1.0;fill:none;"/><text fill="#000000" font-family="sans-serif" font-size="11" lengthAdjust="spacing" textLength="142" x="467" y="92.0898">selfElement : HTMLElement</text><ellipse cx="458" cy="101.4102" rx="3" ry="3" style="stroke:#038048;stroke-width:1.0;fill:none;"/><text fill="#000000" font-family="sans-serif" font-size="11" lengthAdjust="spacing" textLength="88" x="467" y="105.0449">uniqueId : string</text><ellipse cx="458" cy="114.3652" rx="3" ry="3" style="stroke:#038048;stroke-width:1.0;fill:none;"/><text fill="#000000" font-family="sans-serif" font-size="11" lengthAdjust="spacing" textLength="86" x="467" y="118">widgetId : string</text><line style="stroke:#272B30;stroke-width:1.5;" x1="448" x2="849" y1="124.3203" y2="124.3203"/><ellipse cx="458" cy="135.3203" fill="#84BE84" rx="3" ry="3" style="stroke:#038048;stroke-width:1.0;"/><text fill="#000000" font-family="sans-serif" font-size="11" lengthAdjust="spacing" textLength="67" x="467" y="138.9551">build() : void</text><ellipse cx="458" cy="148.2754" fill="#84BE84" rx="3" ry="3" style="stroke:#038048;stroke-width:1.0;"/><text fill="#000000" font-family="sans-serif" font-size="11" lengthAdjust="spacing" textLength="377" x="467" y="151.9102">changeProperty(propertyName: string, propertyValue: unknown) : void</text><ellipse cx="458" cy="161.2305" fill="#84BE84" rx="3" ry="3" style="stroke:#038048;stroke-width:1.0;"/><text fill="#000000" font-family="sans-serif" font-size="11" lengthAdjust="spacing" textLength="82" x="467" y="164.8652">dispose() : void</text><ellipse cx="458" cy="174.1855" fill="#84BE84" rx="3" ry="3" style="stroke:#038048;stroke-width:1.0;"/><text fill="#000000" font-family="sans-serif" font-size="11" lengthAdjust="spacing" textLength="168" x="467" y="177.8203">equalsToID(id: string) : boolean</text><!--MD5=[2bf72ae0fb4f70eca4ad2d149d35be6e]
class IProviderPattern<P>--><rect codeLine="45" fill="#FFFFFF" filter="url(#fj9u0kwqqktjd)" height="177.5508" id="IProviderPattern&lt;P&gt;" style="stroke:#272B30;stroke-width:1.5;" width="403" x="885" y="19.5"/><ellipse cx="1022.75" cy="35.5" fill="#B4A7E5" rx="11" ry="11" style="stroke:#272B30;stroke-width:1.0;"/><path d="M1019.1777,31.7651 L1019.1777,29.6069 L1026.5571,29.6069 L1026.5571,31.7651 L1024.0918,31.7651 L1024.0918,39.8418 L1026.5571,39.8418 L1026.5571,42 L1019.1777,42 L1019.1777,39.8418 L1021.6431,39.8418 L1021.6431,31.7651 Z " fill="#000000"/><text fill="#000000" font-family="sans-serif" font-size="12" font-style="italic" lengthAdjust="spacing" textLength="119" x="1043.25" y="40.0352">IProviderPattern&lt;P&gt;</text><line style="stroke:#272B30;stroke-width:1.5;" x1="886" x2="1287" y1="51.5" y2="51.5"/><ellipse cx="896" cy="62.5" rx="3" ry="3" style="stroke:#038048;stroke-width:1.0;fill:none;"/><text fill="#000000" font-family="sans-serif" font-size="11" lengthAdjust="spacing" textLength="84" x="905" y="66.1348">isBuilt : boolean</text><ellipse cx="896" cy="75.4551" rx="3" ry="3" style="stroke:#038048;stroke-width:1.0;fill:none;"/><text fill="#000000" font-family="sans-serif" font-size="11" lengthAdjust="spacing" textLength="61" x="905" y="79.0898">provider : P</text><ellipse cx="896" cy="88.4102" rx="3" ry="3" style="stroke:#038048;stroke-width:1.0;fill:none;"/><text fill="#000000" font-family="sans-serif" font-size="11" lengthAdjust="spacing" textLength="142" x="905" y="92.0449">selfElement : HTMLElement</text><ellipse cx="896" cy="101.3652" rx="3" ry="3" style="stroke:#038048;stroke-width:1.0;fill:none;"/><text fill="#000000" font-family="sans-serif" font-size="11" lengthAdjust="spacing" textLength="88" x="905" y="105">uniqueId : string</text><ellipse cx="896" cy="114.3203" rx="3" ry="3" style="stroke:#038048;stroke-width:1.0;fill:none;"/><text fill="#000000" font-family="sans-serif" font-size="11" lengthAdjust="spacing" textLength="86" x="905" y="117.9551">widgetId : string</text><line style="stroke:#272B30;stroke-width:1.5;" x1="886" x2="1287" y1="124.2754" y2="124.2754"/><ellipse cx="896" cy="135.2754" fill="#84BE84" rx="3" ry="3" style="stroke:#038048;stroke-width:1.0;"/><text fill="#000000" font-family="sans-serif" font-size="11" lengthAdjust="spacing" textLength="67" x="905" y="138.9102">build() : void</text><ellipse cx="896" cy="148.2305" fill="#84BE84" rx="3" ry="3" style="stroke:#038048;stroke-width:1.0;"/><text fill="#000000" font-family="sans-serif" font-size="11" lengthAdjust="spacing" textLength="377" x="905" y="151.8652">changeProperty(propertyName: string, propertyValue: unknown) : void</text><ellipse cx="896" cy="161.1855" fill="#84BE84" rx="3" ry="3" style="stroke:#038048;stroke-width:1.0;"/><text fill="#000000" font-family="sans-serif" font-size="11" lengthAdjust="spacing" textLength="82" x="905" y="164.8203">dispose() : void</text><ellipse cx="896" cy="174.1406" fill="#84BE84" rx="3" ry="3" style="stroke:#038048;stroke-width:1.0;"/><text fill="#000000" font-family="sans-serif" font-size="11" lengthAdjust="spacing" textLength="168" x="905" y="177.7754">equalsToID(id: string) : boolean</text><ellipse cx="896" cy="187.0957" fill="#84BE84" rx="3" ry="3" style="stroke:#038048;stroke-width:1.0;"/><text fill="#000000" font-family="sans-serif" font-size="11" lengthAdjust="spacing" textLength="335" x="905" y="190.7305">registerCallback(eventName: string, callback: OSGeneric) : void</text><!--MD5=[c07cd65f6f551fa6414b6a2087967a9b]
class AbstractNoUiSlider<C>--><rect codeLine="58" fill="#FFFFFF" filter="url(#fj9u0kwqqktjd)" height="449.6074" id="AbstractNoUiSlider&lt;C&gt;" style="stroke:#272B30;stroke-width:1.5;" width="403" x="447" y="508"/><ellipse cx="576.75" cy="524" fill="#A9DCDF" rx="11" ry="11" style="stroke:#272B30;stroke-width:1.0;"/><path d="M576.6133,519.3481 L575.4595,524.4199 L577.7754,524.4199 Z M575.1191,517.1069 L578.1157,517.1069 L581.4609,529.5 L579.0122,529.5 L578.2485,526.437 L574.9697,526.437 L574.2227,529.5 L571.7739,529.5 Z " fill="#000000"/><text fill="#000000" font-family="sans-serif" font-size="12" font-style="italic" lengthAdjust="spacing" textLength="135" x="597.25" y="528.5352">AbstractNoUiSlider&lt;C&gt;</text><line style="stroke:#272B30;stroke-width:1.5;" x1="448" x2="849" y1="540" y2="540"/><polygon fill="none" points="458,546,462,550,458,554,454,550" style="stroke:#B38D22;stroke-width:1.0;"/><text fill="#000000" font-family="sans-serif" font-size="11" lengthAdjust="spacing" textLength="201" x="467" y="554.6348">eventProviderValueChanged : Generic</text><polygon fill="none" points="458,558.9551,462,562.9551,458,566.9551,454,562.9551" style="stroke:#B38D22;stroke-width:1.0;"/><text fill="#000000" font-family="sans-serif" font-size="11" lengthAdjust="spacing" textLength="279" x="467" y="567.5898">platformEventInitialize : OSRangeSliderInitializeEvent</text><polygon fill="none" points="458,571.9102,462,575.9102,458,579.9102,454,575.9102" style="stroke:#B38D22;stroke-width:1.0;"/><text fill="#000000" font-family="sans-serif" font-size="11" lengthAdjust="spacing" textLength="347" x="467" y="580.5449">platformEventValueChange : OSRangeSliderOnValueChangeEvent</text><polygon fill="none" points="458,584.8652,462,588.8652,458,592.8652,454,588.8652" style="stroke:#B38D22;stroke-width:1.0;"/><text fill="#000000" font-family="sans-serif" font-size="11" lengthAdjust="spacing" textLength="196" x="467" y="593.5">providerOptions : noUiSliderOptions</text><polygon fill="none" points="458,597.8203,462,601.8203,458,605.8203,454,601.8203" style="stroke:#B38D22;stroke-width:1.0;"/><text fill="#000000" font-family="sans-serif" font-size="11" lengthAdjust="spacing" textLength="99" x="467" y="606.4551">throttleTimer : any</text><polygon fill="none" points="458,610.7754,462,614.7754,458,618.7754,454,614.7754" style="stroke:#B38D22;stroke-width:1.0;"/><text fill="#000000" font-family="sans-serif" font-size="11" lengthAdjust="spacing" textLength="146" x="467" y="619.4102">throttleTimeValue : number</text><polygon fill="none" points="458,623.7305,462,627.7305,458,631.7305,454,627.7305" style="stroke:#B38D22;stroke-width:1.0;"/><text fill="#000000" font-family="sans-serif" font-size="11" lengthAdjust="spacing" textLength="131" x="467" y="632.3652">_selfElem : HTMLElement</text><polygon fill="none" points="458,636.6855,462,640.6855,458,644.6855,454,640.6855" style="stroke:#B38D22;stroke-width:1.0;"/><text fill="#000000" font-family="sans-serif" font-size="11" lengthAdjust="spacing" textLength="92" x="467" y="645.3203">_widgetId : string</text><rect fill="none" height="6" style="stroke:#C82930;stroke-width:1.0;" width="6" x="455" y="651.6406"/><text fill="#000000" font-family="sans-serif" font-size="11" lengthAdjust="spacing" textLength="107" x="467" y="658.2754">_isInterval : boolean</text><rect fill="none" height="6" style="stroke:#C82930;stroke-width:1.0;" width="6" x="455" y="664.5957"/><text fill="#000000" font-family="sans-serif" font-size="11" lengthAdjust="spacing" textLength="218" x="467" y="671.2305">_rangeSliderProviderElem : HTMLElement</text><line style="stroke:#272B30;stroke-width:1.5;" x1="448" x2="849" y1="677.5508" y2="677.5508"/><ellipse cx="458" cy="688.5508" fill="#84BE84" rx="3" ry="3" style="stroke:#038048;stroke-width:1.0;"/><text fill="#000000" font-family="sans-serif" font-size="11" lengthAdjust="spacing" textLength="67" x="467" y="692.1855">build() : void</text><ellipse cx="458" cy="701.5059" fill="#84BE84" rx="3" ry="3" style="stroke:#038048;stroke-width:1.0;"/><text fill="#000000" font-family="sans-serif" font-size="11" lengthAdjust="spacing" textLength="377" x="467" y="705.1406">changeProperty(propertyName: string, propertyValue: unknown) : void</text><ellipse cx="458" cy="714.4609" fill="#84BE84" rx="3" ry="3" style="stroke:#038048;stroke-width:1.0;"/><text fill="#000000" font-family="sans-serif" font-size="11" lengthAdjust="spacing" textLength="82" x="467" y="718.0957">dispose() : void</text><ellipse cx="458" cy="727.416" fill="#84BE84" rx="3" ry="3" style="stroke:#038048;stroke-width:1.0;"/><text fill="#000000" font-family="sans-serif" font-size="11" lengthAdjust="spacing" textLength="207" x="467" y="731.0508">equalsToID(patternId: string) : boolean</text><ellipse cx="458" cy="740.3711" fill="#84BE84" rx="3" ry="3" style="stroke:#038048;stroke-width:1.0;"/><text fill="#000000" font-family="sans-serif" font-size="11" lengthAdjust="spacing" textLength="165" x="467" y="744.0059">getValue() : number | number[]</text><ellipse cx="458" cy="753.3262" fill="#84BE84" rx="3" ry="3" style="stroke:#038048;stroke-width:1.0;"/><text fill="#000000" font-family="sans-serif" font-size="11" lengthAdjust="spacing" textLength="335" x="467" y="756.9609">registerCallback(eventName: string, callback: OSGeneric) : void</text><ellipse cx="458" cy="766.2813" fill="#84BE84" rx="3" ry="3" style="stroke:#038048;stroke-width:1.0;"/><text fill="#000000" font-family="sans-serif" font-size="11" lengthAdjust="spacing" textLength="232" x="467" y="769.916">setRangeIntervalChangeOnDragEnd() : void</text><polygon fill="#FFFF44" points="458,774.2363,462,778.2363,458,782.2363,454,778.2363" style="stroke:#B38D22;stroke-width:1.0;"/><text fill="#000000" font-family="sans-serif" font-size="11" lengthAdjust="spacing" textLength="96" x="467" y="782.8711">finishBuild() : void</text><polygon fill="#FFFF44" points="458,787.1914,462,791.1914,458,795.1914,454,791.1914" style="stroke:#B38D22;stroke-width:1.0;"/><text fill="#000000" font-family="sans-serif" font-size="11" font-style="italic" lengthAdjust="spacing" textLength="124" x="467" y="795.8262">prepareConfigs() : void</text><polygon fill="#FFFF44" points="458,800.1465,462,804.1465,458,808.1465,454,804.1465" style="stroke:#B38D22;stroke-width:1.0;"/><text fill="#000000" font-family="sans-serif" font-size="11" lengthAdjust="spacing" textLength="129" x="467" y="808.7813">setHtmlElements() : void</text><polygon fill="#FFFF44" points="458,813.1016,462,817.1016,458,821.1016,454,817.1016" style="stroke:#B38D22;stroke-width:1.0;"/><text fill="#000000" font-family="sans-serif" font-size="11" lengthAdjust="spacing" textLength="146" x="467" y="821.7363">setInitialCSSClasses() : void</text><polygon fill="#FFFF44" points="458,826.0566,462,830.0566,458,834.0566,454,830.0566" style="stroke:#B38D22;stroke-width:1.0;"/><text fill="#000000" font-family="sans-serif" font-size="11" lengthAdjust="spacing" textLength="121" x="467" y="834.6914">unsetCallbacks() : void</text><polygon fill="#FFFF44" points="458,839.0117,462,843.0117,458,847.0117,454,843.0117" style="stroke:#B38D22;stroke-width:1.0;"/><text fill="#000000" font-family="sans-serif" font-size="11" lengthAdjust="spacing" textLength="143" x="467" y="847.6465">unsetHtmlElements() : void</text><rect fill="#F24D5C" height="6" style="stroke:#C82930;stroke-width:1.0;" width="6" x="455" y="853.9668"/><text fill="#000000" font-family="sans-serif" font-size="11" lengthAdjust="spacing" textLength="163" x="467" y="860.6016">createProviderInstance() : void</text><rect fill="#F24D5C" height="6" style="stroke:#C82930;stroke-width:1.0;" width="6" x="455" y="866.9219"/><text fill="#000000" font-family="sans-serif" font-size="11" lengthAdjust="spacing" textLength="117" x="467" y="873.5566">setInitialStates() : void</text><rect fill="#F24D5C" height="6" style="stroke:#C82930;stroke-width:1.0;" width="6" x="455" y="879.877"/><text fill="#000000" font-family="sans-serif" font-size="11" lengthAdjust="spacing" textLength="140" x="467" y="886.5117">updateRangeSlider() : void</text><rect fill="#F24D5C" height="6" style="stroke:#C82930;stroke-width:1.0;" width="6" x="455" y="892.832"/><text fill="#000000" font-family="sans-serif" font-size="11" lengthAdjust="spacing" textLength="117" x="467" y="899.4668">_setIsDisabled() : void</text><rect fill="#F24D5C" height="6" style="stroke:#C82930;stroke-width:1.0;" width="6" x="455" y="905.7871"/><text fill="#000000" font-family="sans-serif" font-size="11" lengthAdjust="spacing" textLength="158" x="467" y="912.4219">_setOnInitializedEvent() : void</text><rect fill="#F24D5C" height="6" style="stroke:#C82930;stroke-width:1.0;" width="6" x="455" y="918.7422"/><text fill="#000000" font-family="sans-serif" font-size="11" lengthAdjust="spacing" textLength="342" x="467" y="925.377">_setOnValueChangeEvent(changeEvent: NoUISliderEvents) : void</text><rect fill="#F24D5C" height="6" style="stroke:#C82930;stroke-width:1.0;" width="6" x="455" y="931.6973"/><text fill="#000000" font-family="sans-serif" font-size="11" lengthAdjust="spacing" textLength="83" x="467" y="938.332">_setSize() : void</text><rect fill="#F24D5C" height="6" style="stroke:#C82930;stroke-width:1.0;" width="6" x="455" y="944.6523"/><text fill="#000000" font-family="sans-serif" font-size="11" lengthAdjust="spacing" textLength="151" x="467" y="951.2871">_updateRangeValues() : void</text><!--MD5=[5b4d3e7173750205ae2b90c43f9185f2]
reverse link AbstractPattern<C> to AbstractRangeSlider<P, C>--><path codeLine="33" d="M405.45,220.1 C434.89,236.81 464.93,253.85 493.38,269.99 " fill="none" id="AbstractPattern&lt;C&gt;-backto-AbstractRangeSlider&lt;P, C&gt;" style="stroke:#272B30;stroke-width:1.0;"/><polygon fill="none" points="401.65,225.99,387.7,210.04,408.55,213.82,401.65,225.99" style="stroke:#272B30;stroke-width:1.0;"/><!--MD5=[57d154e01b52757678f39df071940e68]
reverse link IRangeSlider to AbstractRangeSlider<P, C>--><path codeLine="44" d="M648.5,204.8 C648.5,226.2 648.5,248.83 648.5,269.92 " fill="none" id="IRangeSlider-backto-AbstractRangeSlider&lt;P, C&gt;" style="stroke:#272B30;stroke-width:1.0;stroke-dasharray:7.0,7.0;"/><polygon fill="none" points="641.5,204.73,648.5,184.73,655.5,204.73,641.5,204.73" style="stroke:#272B30;stroke-width:1.0;"/><!--MD5=[49419e48bdb3eac2254ac519dbceae01]
reverse link IProviderPattern<P> to AbstractRangeSlider<P, C>--><path codeLine="57" d="M913.54,207.63 C877.34,228.17 839.38,249.71 803.86,269.86 " fill="none" id="IProviderPattern&lt;P&gt;-backto-AbstractRangeSlider&lt;P, C&gt;" style="stroke:#272B30;stroke-width:1.0;stroke-dasharray:7.0,7.0;"/><polygon fill="none" points="910.3,201.42,931.15,197.64,917.21,213.59,910.3,201.42" style="stroke:#272B30;stroke-width:1.0;"/><!--MD5=[19a89398be582b81041b79fab45fe0b8]
reverse link AbstractRangeSlider<P, C> to AbstractNoUiSlider<C>--><path codeLine="91" d="M648.5,468.27 C648.5,480.98 648.5,494.28 648.5,507.87 " fill="none" id="AbstractRangeSlider&lt;P, C&gt;-backto-AbstractNoUiSlider&lt;C&gt;" style="stroke:#272B30;stroke-width:1.0;"/><polygon fill="none" points="641.5,468.16,648.5,448.16,655.5,468.16,641.5,468.16" style="stroke:#272B30;stroke-width:1.0;"/><!--MD5=[7ad1a84ff6c997a281309920c8f697df]
@startuml
skinparam ClassArrowColor #272b30
skinparam ClassBorderColor #272b30
skinparam ClassBackgroundColor #fff
skinparam BackgroundColor #ced4da
hide empty methods
hide empty fields
abstract class "AbstractRangeSlider<P, C>" {
    #_selfElem : HTMLElement
    #_widgetId : string
    -_provider : P
    +build() : void
    +changeProperty(propertyName: string, propertyValue: unknown) : void
    +dispose() : void
    +equalsToID(patternId: string) : boolean
    {abstract} +registerCallback(eventName: string, callback: OSGeneric) : void
    {abstract} +setRangeIntervalChangeOnDragEnd() : void
    #finishBuild() : void
}
abstract class "AbstractPattern<C>" {
    #_selfElem : HTMLElement
    #_widgetId : string
    -_configs : C
    -_isBuilt : boolean
    -_uniqueId : string
    +build() : void
    +changeProperty(propertyName: string, propertyValue: unknown) : void
    +dispose() : void
    +equalsToID(patternId: string) : boolean
    #finishBuild() : void
    #_unsetCommonHtmlElements() : void
    -_setCommonHtmlElements() : void
}
"AbstractPattern<C>" <|- - "AbstractRangeSlider<P, C>"
interface "IRangeSlider" {
    +isBuilt : boolean
    +selfElement : HTMLElement
    +uniqueId : string
    +widgetId : string
    +build() : void
    +changeProperty(propertyName: string, propertyValue: unknown) : void
    +dispose() : void
    +equalsToID(id: string) : boolean
}
"IRangeSlider" <|.. "AbstractRangeSlider<P, C>"
interface "IProviderPattern<P>" {
    +isBuilt : boolean
    +provider : P
    +selfElement : HTMLElement
    +uniqueId : string
    +widgetId : string
    +build() : void
    +changeProperty(propertyName: string, propertyValue: unknown) : void
    +dispose() : void
    +equalsToID(id: string) : boolean
    +registerCallback(eventName: string, callback: OSGeneric) : void
}
"IProviderPattern<P>" <|.. "AbstractRangeSlider<P, C>"
abstract class "AbstractNoUiSlider<C>" {
    #eventProviderValueChanged : Generic
    #platformEventInitialize : OSRangeSliderInitializeEvent
    #platformEventValueChange : OSRangeSliderOnValueChangeEvent
    #providerOptions : noUiSliderOptions
    #throttleTimer : any
    #throttleTimeValue : number
    #_selfElem : HTMLElement
    #_widgetId : string
    -_isInterval : boolean
    -_rangeSliderProviderElem : HTMLElement
    +build() : void
    +changeProperty(propertyName: string, propertyValue: unknown) : void
    +dispose() : void
    +equalsToID(patternId: string) : boolean
    +getValue() : number | number[]
    +registerCallback(eventName: string, callback: OSGeneric) : void
    +setRangeIntervalChangeOnDragEnd() : void
    #finishBuild() : void
    {abstract} #prepareConfigs() : void
    #setHtmlElements() : void
    #setInitialCSSClasses() : void
    #unsetCallbacks() : void
    #unsetHtmlElements() : void
    -createProviderInstance() : void
    -setInitialStates() : void
    -updateRangeSlider() : void
    -_setIsDisabled() : void
    -_setOnInitializedEvent() : void
    -_setOnValueChangeEvent(changeEvent: NoUISliderEvents) : void
    -_setSize() : void
    -_updateRangeValues() : void
}
"AbstractRangeSlider<P, C>" <|- - "AbstractNoUiSlider<C>"
@enduml

PlantUML version 1.2021.14(Fri Nov 12 16:46:50 WET 2021)
(GPL source distribution)
Java Runtime: Java(TM) SE Runtime Environment
JVM: Java HotSpot(TM) 64-Bit Server VM
Default Encoding: UTF-8
Language: en
Country: PT
--></g></svg>