<?xml version="1.0" encoding="UTF-8" standalone="no"?><svg xmlns="http://www.w3.org/2000/svg" xmlns:xlink="http://www.w3.org/1999/xlink" contentScriptType="application/ecmascript" contentStyleType="text/css" height="1308px" preserveAspectRatio="none" style="width:1016px;height:1308px;background:#CED4DA;" version="1.1" viewBox="0 0 1016 1308" width="1016px" zoomAndPan="magnify"><defs><filter height="300%" id="f1p1t3z04z7tae" width="300%" x="-1" y="-1"><feGaussianBlur result="blurOut" stdDeviation="2.0"/><feColorMatrix in="blurOut" result="blurOut2" type="matrix" values="0 0 0 0 0 0 0 0 0 0 0 0 0 0 0 0 0 0 .4 0"/><feOffset dx="4.0" dy="4.0" in="blurOut2" result="blurOut3"/><feBlend in="SourceGraphic" in2="blurOut3" mode="normal"/></filter></defs><g><!--MD5=[ac6f130f703cb83dc3d6d9b08f2ee10e]
class AbstractNoUiSliderConfig--><rect codeLine="7" fill="#FFFFFF" filter="url(#f1p1t3z04z7tae)" height="410.7422" id="AbstractNoUiSliderConfig" style="stroke:#272B30;stroke-width:1.5;" width="479" x="266" y="413"/><ellipse cx="429.75" cy="429" fill="#A9DCDF" rx="11" ry="11" style="stroke:#272B30;stroke-width:1.0;"/><path d="M429.6133,424.3481 L428.4595,429.4199 L430.7754,429.4199 Z M428.1191,422.1069 L431.1157,422.1069 L434.4609,434.5 L432.0122,434.5 L431.2485,431.437 L427.9697,431.437 L427.2227,434.5 L424.7739,434.5 Z " fill="#000000"/><text fill="#000000" font-family="sans-serif" font-size="12" font-style="italic" lengthAdjust="spacing" textLength="143" x="450.25" y="433.5352">AbstractNoUiSliderConfig</text><line style="stroke:#272B30;stroke-width:1.5;" x1="267" x2="744" y1="445" y2="445"/><ellipse cx="277" cy="456" rx="3" ry="3" style="stroke:#038048;stroke-width:1.0;fill:none;"/><text fill="#000000" font-family="sans-serif" font-size="11" lengthAdjust="spacing" textLength="120" x="286" y="459.6348">ExtendedClass : string</text><ellipse cx="277" cy="468.9551" rx="3" ry="3" style="stroke:#038048;stroke-width:1.0;fill:none;"/><text fill="#000000" font-family="sans-serif" font-size="11" lengthAdjust="spacing" textLength="137" x="286" y="472.5898">InitialValueFrom : number</text><ellipse cx="277" cy="481.9102" rx="3" ry="3" style="stroke:#038048;stroke-width:1.0;fill:none;"/><text fill="#000000" font-family="sans-serif" font-size="11" lengthAdjust="spacing" textLength="123" x="286" y="485.5449">InitialValueTo : number</text><ellipse cx="277" cy="494.8652" rx="3" ry="3" style="stroke:#038048;stroke-width:1.0;fill:none;"/><text fill="#000000" font-family="sans-serif" font-size="11" lengthAdjust="spacing" textLength="107" x="286" y="498.5">IsDisabled : boolean</text><ellipse cx="277" cy="507.8203" rx="3" ry="3" style="stroke:#038048;stroke-width:1.0;fill:none;"/><text fill="#000000" font-family="sans-serif" font-size="11" lengthAdjust="spacing" textLength="101" x="286" y="511.4551">IsInterval : boolean</text><ellipse cx="277" cy="520.7754" rx="3" ry="3" style="stroke:#038048;stroke-width:1.0;fill:none;"/><text fill="#000000" font-family="sans-serif" font-size="11" lengthAdjust="spacing" textLength="102" x="286" y="524.4102">MaxValue : number</text><ellipse cx="277" cy="533.7305" rx="3" ry="3" style="stroke:#038048;stroke-width:1.0;fill:none;"/><text fill="#000000" font-family="sans-serif" font-size="11" lengthAdjust="spacing" textLength="99" x="286" y="537.3652">MinValue : number</text><ellipse cx="277" cy="546.6855" rx="3" ry="3" style="stroke:#038048;stroke-width:1.0;fill:none;"/><text fill="#000000" font-family="sans-serif" font-size="11" lengthAdjust="spacing" textLength="102" x="286" y="550.3203">Orientation : string</text><ellipse cx="277" cy="559.6406" rx="3" ry="3" style="stroke:#038048;stroke-width:1.0;fill:none;"/><text fill="#000000" font-family="sans-serif" font-size="11" lengthAdjust="spacing" textLength="128" x="286" y="563.2754">rangeSliderMode : Mode</text><ellipse cx="277" cy="572.5957" rx="3" ry="3" style="stroke:#038048;stroke-width:1.0;fill:none;"/><text fill="#000000" font-family="sans-serif" font-size="11" lengthAdjust="spacing" textLength="151" x="286" y="576.2305">ShowFloatingLabel : boolean</text><ellipse cx="277" cy="585.5508" rx="3" ry="3" style="stroke:#038048;stroke-width:1.0;fill:none;"/><text fill="#000000" font-family="sans-serif" font-size="11" lengthAdjust="spacing" textLength="134" x="286" y="589.1855">ShowTickMarks : boolean</text><ellipse cx="277" cy="598.5059" rx="3" ry="3" style="stroke:#038048;stroke-width:1.0;fill:none;"/><text fill="#000000" font-family="sans-serif" font-size="11" lengthAdjust="spacing" textLength="62" x="286" y="602.1406">Size : string</text><ellipse cx="277" cy="611.4609" rx="3" ry="3" style="stroke:#038048;stroke-width:1.0;fill:none;"/><text fill="#000000" font-family="sans-serif" font-size="11" lengthAdjust="spacing" textLength="150" x="286" y="615.0957">StartingValueFrom : number</text><ellipse cx="277" cy="624.416" rx="3" ry="3" style="stroke:#038048;stroke-width:1.0;fill:none;"/><text fill="#000000" font-family="sans-serif" font-size="11" lengthAdjust="spacing" textLength="136" x="286" y="628.0508">StartingValueTo : number</text><ellipse cx="277" cy="637.3711" rx="3" ry="3" style="stroke:#038048;stroke-width:1.0;fill:none;"/><text fill="#000000" font-family="sans-serif" font-size="11" lengthAdjust="spacing" textLength="74" x="286" y="641.0059">Step : number</text><ellipse cx="277" cy="650.3262" rx="3" ry="3" style="stroke:#038048;stroke-width:1.0;fill:none;"/><text fill="#000000" font-family="sans-serif" font-size="11" lengthAdjust="spacing" textLength="145" x="286" y="653.9609">TickMarksInterval : number</text><line style="stroke:#272B30;stroke-width:1.5;" x1="267" x2="744" y1="660.2813" y2="660.2813"/><ellipse cx="277" cy="671.2813" fill="#84BE84" rx="3" ry="3" style="stroke:#038048;stroke-width:1.0;"/><text fill="#000000" font-family="sans-serif" font-size="11" lengthAdjust="spacing" textLength="141" x="286" y="674.916">getPipsConfig() : unknown</text><ellipse cx="277" cy="684.2363" fill="#84BE84" rx="3" ry="3" style="stroke:#038048;stroke-width:1.0;"/><text fill="#000000" font-family="sans-serif" font-size="11" font-style="italic" lengthAdjust="spacing" textLength="138" x="286" y="687.8711">getProviderConfig() : void</text><ellipse cx="277" cy="697.1914" fill="#84BE84" rx="3" ry="3" style="stroke:#038048;stroke-width:1.0;"/><text fill="#000000" font-family="sans-serif" font-size="11" lengthAdjust="spacing" textLength="152" x="286" y="700.8262">getRangeConfig() : unknown</text><ellipse cx="277" cy="710.1465" fill="#84BE84" rx="3" ry="3" style="stroke:#038048;stroke-width:1.0;"/><text fill="#000000" font-family="sans-serif" font-size="11" lengthAdjust="spacing" textLength="150" x="286" y="713.7813">getTooltipFormat() : string[]</text><ellipse cx="277" cy="723.1016" fill="#84BE84" rx="3" ry="3" style="stroke:#038048;stroke-width:1.0;"/><text fill="#000000" font-family="sans-serif" font-size="11" lengthAdjust="spacing" textLength="306" x="286" y="726.7363">validateCanChange(isBuilt: boolean, key: string) : boolean</text><ellipse cx="277" cy="736.0566" fill="#84BE84" rx="3" ry="3" style="stroke:#038048;stroke-width:1.0;"/><text fill="#000000" font-family="sans-serif" font-size="11" lengthAdjust="spacing" textLength="290" x="286" y="739.6914">validateDefault(key: string, value: unknown) : unknown</text><polygon fill="#FFFF44" points="277,744.0117,281,748.0117,277,752.0117,273,748.0117" style="stroke:#B38D22;stroke-width:1.0;"/><text fill="#000000" font-family="sans-serif" font-size="11" lengthAdjust="spacing" textLength="262" x="286" y="752.6465">getCommonProviderConfig() : noUiSliderOptions</text><polygon fill="#FFFF44" points="277,756.9668,281,760.9668,277,764.9668,273,760.9668" style="stroke:#B38D22;stroke-width:1.0;"/><text fill="#000000" font-family="sans-serif" font-size="11" lengthAdjust="spacing" textLength="341" x="286" y="765.6016">validateBoolean(value: boolean, defaultValue: boolean) : boolean</text><polygon fill="#FFFF44" points="277,769.9219,281,773.9219,277,777.9219,273,773.9219" style="stroke:#B38D22;stroke-width:1.0;"/><text fill="#000000" font-family="sans-serif" font-size="11" lengthAdjust="spacing" textLength="358" x="286" y="778.5566">validateDate(value: string | Date, defaultValue: string) : string | Date</text><polygon fill="#FFFF44" points="277,782.877,281,786.877,277,790.877,273,786.877" style="stroke:#B38D22;stroke-width:1.0;"/><text fill="#000000" font-family="sans-serif" font-size="11" lengthAdjust="spacing" textLength="453" x="286" y="791.5117">validateInRange(value: unknown, defaultValue: unknown, args: unknown[]) : unknown</text><polygon fill="#FFFF44" points="277,795.832,281,799.832,277,803.832,273,799.832" style="stroke:#B38D22;stroke-width:1.0;"/><text fill="#000000" font-family="sans-serif" font-size="11" lengthAdjust="spacing" textLength="339" x="286" y="804.4668">validateNumber(value: number, defaultValue: number) : number</text><polygon fill="#FFFF44" points="277,808.7871,281,812.7871,277,816.7871,273,812.7871" style="stroke:#B38D22;stroke-width:1.0;"/><text fill="#000000" font-family="sans-serif" font-size="11" lengthAdjust="spacing" textLength="298" x="286" y="817.4219">validateString(value: string, defaultValue: string) : string</text><!--MD5=[de2996d2e203890475b90d61a5cf54d4]
class AbstractRangeSliderConfig--><rect codeLine="37" fill="#FFFFFF" filter="url(#f1p1t3z04z7tae)" height="345.9668" id="AbstractRangeSliderConfig" style="stroke:#272B30;stroke-width:1.5;" width="479" x="266" y="7"/><ellipse cx="425.25" cy="23" fill="#A9DCDF" rx="11" ry="11" style="stroke:#272B30;stroke-width:1.0;"/><path d="M425.1133,18.3481 L423.9595,23.4199 L426.2754,23.4199 Z M423.6191,16.1069 L426.6157,16.1069 L429.9609,28.5 L427.5122,28.5 L426.7485,25.437 L423.4697,25.437 L422.7227,28.5 L420.2739,28.5 Z " fill="#000000"/><text fill="#000000" font-family="sans-serif" font-size="12" font-style="italic" lengthAdjust="spacing" textLength="152" x="445.75" y="27.5352">AbstractRangeSliderConfig</text><line style="stroke:#272B30;stroke-width:1.5;" x1="267" x2="744" y1="39" y2="39"/><ellipse cx="277" cy="50" rx="3" ry="3" style="stroke:#038048;stroke-width:1.0;fill:none;"/><text fill="#000000" font-family="sans-serif" font-size="11" lengthAdjust="spacing" textLength="120" x="286" y="53.6348">ExtendedClass : string</text><ellipse cx="277" cy="62.9551" rx="3" ry="3" style="stroke:#038048;stroke-width:1.0;fill:none;"/><text fill="#000000" font-family="sans-serif" font-size="11" lengthAdjust="spacing" textLength="137" x="286" y="66.5898">InitialValueFrom : number</text><ellipse cx="277" cy="75.9102" rx="3" ry="3" style="stroke:#038048;stroke-width:1.0;fill:none;"/><text fill="#000000" font-family="sans-serif" font-size="11" lengthAdjust="spacing" textLength="123" x="286" y="79.5449">InitialValueTo : number</text><ellipse cx="277" cy="88.8652" rx="3" ry="3" style="stroke:#038048;stroke-width:1.0;fill:none;"/><text fill="#000000" font-family="sans-serif" font-size="11" lengthAdjust="spacing" textLength="107" x="286" y="92.5">IsDisabled : boolean</text><ellipse cx="277" cy="101.8203" rx="3" ry="3" style="stroke:#038048;stroke-width:1.0;fill:none;"/><text fill="#000000" font-family="sans-serif" font-size="11" lengthAdjust="spacing" textLength="101" x="286" y="105.4551">IsInterval : boolean</text><ellipse cx="277" cy="114.7754" rx="3" ry="3" style="stroke:#038048;stroke-width:1.0;fill:none;"/><text fill="#000000" font-family="sans-serif" font-size="11" lengthAdjust="spacing" textLength="102" x="286" y="118.4102">MaxValue : number</text><ellipse cx="277" cy="127.7305" rx="3" ry="3" style="stroke:#038048;stroke-width:1.0;fill:none;"/><text fill="#000000" font-family="sans-serif" font-size="11" lengthAdjust="spacing" textLength="99" x="286" y="131.3652">MinValue : number</text><ellipse cx="277" cy="140.6855" rx="3" ry="3" style="stroke:#038048;stroke-width:1.0;fill:none;"/><text fill="#000000" font-family="sans-serif" font-size="11" lengthAdjust="spacing" textLength="102" x="286" y="144.3203">Orientation : string</text><ellipse cx="277" cy="153.6406" rx="3" ry="3" style="stroke:#038048;stroke-width:1.0;fill:none;"/><text fill="#000000" font-family="sans-serif" font-size="11" lengthAdjust="spacing" textLength="151" x="286" y="157.2754">ShowFloatingLabel : boolean</text><ellipse cx="277" cy="166.5957" rx="3" ry="3" style="stroke:#038048;stroke-width:1.0;fill:none;"/><text fill="#000000" font-family="sans-serif" font-size="11" lengthAdjust="spacing" textLength="134" x="286" y="170.2305">ShowTickMarks : boolean</text><ellipse cx="277" cy="179.5508" rx="3" ry="3" style="stroke:#038048;stroke-width:1.0;fill:none;"/><text fill="#000000" font-family="sans-serif" font-size="11" lengthAdjust="spacing" textLength="62" x="286" y="183.1855">Size : string</text><ellipse cx="277" cy="192.5059" rx="3" ry="3" style="stroke:#038048;stroke-width:1.0;fill:none;"/><text fill="#000000" font-family="sans-serif" font-size="11" lengthAdjust="spacing" textLength="150" x="286" y="196.1406">StartingValueFrom : number</text><ellipse cx="277" cy="205.4609" rx="3" ry="3" style="stroke:#038048;stroke-width:1.0;fill:none;"/><text fill="#000000" font-family="sans-serif" font-size="11" lengthAdjust="spacing" textLength="136" x="286" y="209.0957">StartingValueTo : number</text><ellipse cx="277" cy="218.416" rx="3" ry="3" style="stroke:#038048;stroke-width:1.0;fill:none;"/><text fill="#000000" font-family="sans-serif" font-size="11" lengthAdjust="spacing" textLength="74" x="286" y="222.0508">Step : number</text><ellipse cx="277" cy="231.3711" rx="3" ry="3" style="stroke:#038048;stroke-width:1.0;fill:none;"/><text fill="#000000" font-family="sans-serif" font-size="11" lengthAdjust="spacing" textLength="145" x="286" y="235.0059">TickMarksInterval : number</text><line style="stroke:#272B30;stroke-width:1.5;" x1="267" x2="744" y1="241.3262" y2="241.3262"/><ellipse cx="277" cy="252.3262" fill="#84BE84" rx="3" ry="3" style="stroke:#038048;stroke-width:1.0;"/><text fill="#000000" font-family="sans-serif" font-size="11" font-style="italic" lengthAdjust="spacing" textLength="138" x="286" y="255.9609">getProviderConfig() : void</text><ellipse cx="277" cy="265.2813" fill="#84BE84" rx="3" ry="3" style="stroke:#038048;stroke-width:1.0;"/><text fill="#000000" font-family="sans-serif" font-size="11" lengthAdjust="spacing" textLength="306" x="286" y="268.916">validateCanChange(isBuilt: boolean, key: string) : boolean</text><ellipse cx="277" cy="278.2363" fill="#84BE84" rx="3" ry="3" style="stroke:#038048;stroke-width:1.0;"/><text fill="#000000" font-family="sans-serif" font-size="11" lengthAdjust="spacing" textLength="290" x="286" y="281.8711">validateDefault(key: string, value: unknown) : unknown</text><polygon fill="#FFFF44" points="277,286.1914,281,290.1914,277,294.1914,273,290.1914" style="stroke:#B38D22;stroke-width:1.0;"/><text fill="#000000" font-family="sans-serif" font-size="11" lengthAdjust="spacing" textLength="341" x="286" y="294.8262">validateBoolean(value: boolean, defaultValue: boolean) : boolean</text><polygon fill="#FFFF44" points="277,299.1465,281,303.1465,277,307.1465,273,303.1465" style="stroke:#B38D22;stroke-width:1.0;"/><text fill="#000000" font-family="sans-serif" font-size="11" lengthAdjust="spacing" textLength="358" x="286" y="307.7813">validateDate(value: string | Date, defaultValue: string) : string | Date</text><polygon fill="#FFFF44" points="277,312.1016,281,316.1016,277,320.1016,273,316.1016" style="stroke:#B38D22;stroke-width:1.0;"/><text fill="#000000" font-family="sans-serif" font-size="11" lengthAdjust="spacing" textLength="453" x="286" y="320.7363">validateInRange(value: unknown, defaultValue: unknown, args: unknown[]) : unknown</text><polygon fill="#FFFF44" points="277,325.0566,281,329.0566,277,333.0566,273,329.0566" style="stroke:#B38D22;stroke-width:1.0;"/><text fill="#000000" font-family="sans-serif" font-size="11" lengthAdjust="spacing" textLength="339" x="286" y="333.6914">validateNumber(value: number, defaultValue: number) : number</text><polygon fill="#FFFF44" points="277,338.0117,281,342.0117,277,346.0117,273,342.0117" style="stroke:#B38D22;stroke-width:1.0;"/><text fill="#000000" font-family="sans-serif" font-size="11" lengthAdjust="spacing" textLength="298" x="286" y="346.6465">validateString(value: string, defaultValue: string) : string</text><!--MD5=[e36ae57112631eedc9d5aad9ca2fa621]
class NoUiSliderIntervalConfig--><rect codeLine="63" fill="#FFFFFF" filter="url(#f1p1t3z04z7tae)" height="410.7422" id="NoUiSliderIntervalConfig" style="stroke:#272B30;stroke-width:1.5;" width="479" x="9" y="884"/><ellipse cx="175.75" cy="900" fill="#ADD1B2" rx="11" ry="11" style="stroke:#272B30;stroke-width:1.0;"/><path d="M178.2231,906.1431 Q177.6421,906.4419 177.0029,906.5913 Q176.3638,906.7407 175.6582,906.7407 Q173.1514,906.7407 171.8315,905.0889 Q170.5117,903.437 170.5117,900.3159 Q170.5117,897.1865 171.8315,895.5347 Q173.1514,893.8828 175.6582,893.8828 Q176.3638,893.8828 177.0112,894.0322 Q177.6587,894.1816 178.2231,894.4805 L178.2231,897.2031 Q177.5923,896.6221 176.9988,896.3523 Q176.4053,896.0825 175.7744,896.0825 Q174.4297,896.0825 173.7449,897.1492 Q173.0601,898.2158 173.0601,900.3159 Q173.0601,902.4077 173.7449,903.4744 Q174.4297,904.541 175.7744,904.541 Q176.4053,904.541 176.9988,904.2712 Q177.5923,904.0015 178.2231,903.4204 Z " fill="#000000"/><text fill="#000000" font-family="sans-serif" font-size="12" lengthAdjust="spacing" textLength="137" x="196.25" y="904.5352">NoUiSliderIntervalConfig</text><line style="stroke:#272B30;stroke-width:1.5;" x1="10" x2="487" y1="916" y2="916"/><ellipse cx="20" cy="927" rx="3" ry="3" style="stroke:#038048;stroke-width:1.0;fill:none;"/><text fill="#000000" font-family="sans-serif" font-size="11" lengthAdjust="spacing" textLength="120" x="29" y="930.6348">ExtendedClass : string</text><ellipse cx="20" cy="939.9551" rx="3" ry="3" style="stroke:#038048;stroke-width:1.0;fill:none;"/><text fill="#000000" font-family="sans-serif" font-size="11" lengthAdjust="spacing" textLength="137" x="29" y="943.5898">InitialValueFrom : number</text><ellipse cx="20" cy="952.9102" rx="3" ry="3" style="stroke:#038048;stroke-width:1.0;fill:none;"/><text fill="#000000" font-family="sans-serif" font-size="11" lengthAdjust="spacing" textLength="123" x="29" y="956.5449">InitialValueTo : number</text><ellipse cx="20" cy="965.8652" rx="3" ry="3" style="stroke:#038048;stroke-width:1.0;fill:none;"/><text fill="#000000" font-family="sans-serif" font-size="11" lengthAdjust="spacing" textLength="107" x="29" y="969.5">IsDisabled : boolean</text><ellipse cx="20" cy="978.8203" rx="3" ry="3" style="stroke:#038048;stroke-width:1.0;fill:none;"/><text fill="#000000" font-family="sans-serif" font-size="11" lengthAdjust="spacing" textLength="101" x="29" y="982.4551">IsInterval : boolean</text><ellipse cx="20" cy="991.7754" rx="3" ry="3" style="stroke:#038048;stroke-width:1.0;fill:none;"/><text fill="#000000" font-family="sans-serif" font-size="11" lengthAdjust="spacing" textLength="102" x="29" y="995.4102">MaxValue : number</text><ellipse cx="20" cy="1004.7305" rx="3" ry="3" style="stroke:#038048;stroke-width:1.0;fill:none;"/><text fill="#000000" font-family="sans-serif" font-size="11" lengthAdjust="spacing" textLength="99" x="29" y="1008.3652">MinValue : number</text><ellipse cx="20" cy="1017.6855" rx="3" ry="3" style="stroke:#038048;stroke-width:1.0;fill:none;"/><text fill="#000000" font-family="sans-serif" font-size="11" lengthAdjust="spacing" textLength="102" x="29" y="1021.3203">Orientation : string</text><ellipse cx="20" cy="1030.6406" rx="3" ry="3" style="stroke:#038048;stroke-width:1.0;fill:none;"/><text fill="#000000" font-family="sans-serif" font-size="11" lengthAdjust="spacing" textLength="128" x="29" y="1034.2754">rangeSliderMode : Mode</text><ellipse cx="20" cy="1043.5957" rx="3" ry="3" style="stroke:#038048;stroke-width:1.0;fill:none;"/><text fill="#000000" font-family="sans-serif" font-size="11" lengthAdjust="spacing" textLength="151" x="29" y="1047.2305">ShowFloatingLabel : boolean</text><ellipse cx="20" cy="1056.5508" rx="3" ry="3" style="stroke:#038048;stroke-width:1.0;fill:none;"/><text fill="#000000" font-family="sans-serif" font-size="11" lengthAdjust="spacing" textLength="134" x="29" y="1060.1855">ShowTickMarks : boolean</text><ellipse cx="20" cy="1069.5059" rx="3" ry="3" style="stroke:#038048;stroke-width:1.0;fill:none;"/><text fill="#000000" font-family="sans-serif" font-size="11" lengthAdjust="spacing" textLength="62" x="29" y="1073.1406">Size : string</text><ellipse cx="20" cy="1082.4609" rx="3" ry="3" style="stroke:#038048;stroke-width:1.0;fill:none;"/><text fill="#000000" font-family="sans-serif" font-size="11" lengthAdjust="spacing" textLength="150" x="29" y="1086.0957">StartingValueFrom : number</text><ellipse cx="20" cy="1095.416" rx="3" ry="3" style="stroke:#038048;stroke-width:1.0;fill:none;"/><text fill="#000000" font-family="sans-serif" font-size="11" lengthAdjust="spacing" textLength="136" x="29" y="1099.0508">StartingValueTo : number</text><ellipse cx="20" cy="1108.3711" rx="3" ry="3" style="stroke:#038048;stroke-width:1.0;fill:none;"/><text fill="#000000" font-family="sans-serif" font-size="11" lengthAdjust="spacing" textLength="74" x="29" y="1112.0059">Step : number</text><ellipse cx="20" cy="1121.3262" rx="3" ry="3" style="stroke:#038048;stroke-width:1.0;fill:none;"/><text fill="#000000" font-family="sans-serif" font-size="11" lengthAdjust="spacing" textLength="145" x="29" y="1124.9609">TickMarksInterval : number</text><line style="stroke:#272B30;stroke-width:1.5;" x1="10" x2="487" y1="1131.2813" y2="1131.2813"/><ellipse cx="20" cy="1142.2813" fill="#84BE84" rx="3" ry="3" style="stroke:#038048;stroke-width:1.0;"/><text fill="#000000" font-family="sans-serif" font-size="11" lengthAdjust="spacing" textLength="141" x="29" y="1145.916">getPipsConfig() : unknown</text><ellipse cx="20" cy="1155.2363" fill="#84BE84" rx="3" ry="3" style="stroke:#038048;stroke-width:1.0;"/><text fill="#000000" font-family="sans-serif" font-size="11" lengthAdjust="spacing" textLength="213" x="29" y="1158.8711">getProviderConfig() : noUiSliderOptions</text><ellipse cx="20" cy="1168.1914" fill="#84BE84" rx="3" ry="3" style="stroke:#038048;stroke-width:1.0;"/><text fill="#000000" font-family="sans-serif" font-size="11" lengthAdjust="spacing" textLength="152" x="29" y="1171.8262">getRangeConfig() : unknown</text><ellipse cx="20" cy="1181.1465" fill="#84BE84" rx="3" ry="3" style="stroke:#038048;stroke-width:1.0;"/><text fill="#000000" font-family="sans-serif" font-size="11" lengthAdjust="spacing" textLength="150" x="29" y="1184.7813">getTooltipFormat() : string[]</text><ellipse cx="20" cy="1194.1016" fill="#84BE84" rx="3" ry="3" style="stroke:#038048;stroke-width:1.0;"/><text fill="#000000" font-family="sans-serif" font-size="11" lengthAdjust="spacing" textLength="306" x="29" y="1197.7363">validateCanChange(isBuilt: boolean, key: string) : boolean</text><ellipse cx="20" cy="1207.0566" fill="#84BE84" rx="3" ry="3" style="stroke:#038048;stroke-width:1.0;"/><text fill="#000000" font-family="sans-serif" font-size="11" lengthAdjust="spacing" textLength="290" x="29" y="1210.6914">validateDefault(key: string, value: unknown) : unknown</text><polygon fill="#FFFF44" points="20,1215.0117,24,1219.0117,20,1223.0117,16,1219.0117" style="stroke:#B38D22;stroke-width:1.0;"/><text fill="#000000" font-family="sans-serif" font-size="11" lengthAdjust="spacing" textLength="262" x="29" y="1223.6465">getCommonProviderConfig() : noUiSliderOptions</text><polygon fill="#FFFF44" points="20,1227.9668,24,1231.9668,20,1235.9668,16,1231.9668" style="stroke:#B38D22;stroke-width:1.0;"/><text fill="#000000" font-family="sans-serif" font-size="11" lengthAdjust="spacing" textLength="341" x="29" y="1236.6016">validateBoolean(value: boolean, defaultValue: boolean) : boolean</text><polygon fill="#FFFF44" points="20,1240.9219,24,1244.9219,20,1248.9219,16,1244.9219" style="stroke:#B38D22;stroke-width:1.0;"/><text fill="#000000" font-family="sans-serif" font-size="11" lengthAdjust="spacing" textLength="358" x="29" y="1249.5566">validateDate(value: string | Date, defaultValue: string) : string | Date</text><polygon fill="#FFFF44" points="20,1253.877,24,1257.877,20,1261.877,16,1257.877" style="stroke:#B38D22;stroke-width:1.0;"/><text fill="#000000" font-family="sans-serif" font-size="11" lengthAdjust="spacing" textLength="453" x="29" y="1262.5117">validateInRange(value: unknown, defaultValue: unknown, args: unknown[]) : unknown</text><polygon fill="#FFFF44" points="20,1266.832,24,1270.832,20,1274.832,16,1270.832" style="stroke:#B38D22;stroke-width:1.0;"/><text fill="#000000" font-family="sans-serif" font-size="11" lengthAdjust="spacing" textLength="339" x="29" y="1275.4668">validateNumber(value: number, defaultValue: number) : number</text><polygon fill="#FFFF44" points="20,1279.7871,24,1283.7871,20,1287.7871,16,1283.7871" style="stroke:#B38D22;stroke-width:1.0;"/><text fill="#000000" font-family="sans-serif" font-size="11" lengthAdjust="spacing" textLength="298" x="29" y="1288.4219">validateString(value: string, defaultValue: string) : string</text><!--MD5=[f68c74b117c79033dd775292fe305175]
class NoUiSliderSingleConfig--><rect codeLine="94" fill="#FFFFFF" filter="url(#f1p1t3z04z7tae)" height="410.7422" id="NoUiSliderSingleConfig" style="stroke:#272B30;stroke-width:1.5;" width="479" x="523" y="884"/><ellipse cx="694.25" cy="900" fill="#ADD1B2" rx="11" ry="11" style="stroke:#272B30;stroke-width:1.0;"/><path d="M696.7231,906.1431 Q696.1421,906.4419 695.5029,906.5913 Q694.8638,906.7407 694.1582,906.7407 Q691.6514,906.7407 690.3315,905.0889 Q689.0117,903.437 689.0117,900.3159 Q689.0117,897.1865 690.3315,895.5347 Q691.6514,893.8828 694.1582,893.8828 Q694.8638,893.8828 695.5112,894.0322 Q696.1587,894.1816 696.7231,894.4805 L696.7231,897.2031 Q696.0923,896.6221 695.4988,896.3523 Q694.9053,896.0825 694.2744,896.0825 Q692.9297,896.0825 692.2449,897.1492 Q691.5601,898.2158 691.5601,900.3159 Q691.5601,902.4077 692.2449,903.4744 Q692.9297,904.541 694.2744,904.541 Q694.9053,904.541 695.4988,904.2712 Q696.0923,904.0015 696.7231,903.4204 Z " fill="#000000"/><text fill="#000000" font-family="sans-serif" font-size="12" lengthAdjust="spacing" textLength="128" x="714.75" y="904.5352">NoUiSliderSingleConfig</text><line style="stroke:#272B30;stroke-width:1.5;" x1="524" x2="1001" y1="916" y2="916"/><ellipse cx="534" cy="927" rx="3" ry="3" style="stroke:#038048;stroke-width:1.0;fill:none;"/><text fill="#000000" font-family="sans-serif" font-size="11" lengthAdjust="spacing" textLength="120" x="543" y="930.6348">ExtendedClass : string</text><ellipse cx="534" cy="939.9551" rx="3" ry="3" style="stroke:#038048;stroke-width:1.0;fill:none;"/><text fill="#000000" font-family="sans-serif" font-size="11" lengthAdjust="spacing" textLength="137" x="543" y="943.5898">InitialValueFrom : number</text><ellipse cx="534" cy="952.9102" rx="3" ry="3" style="stroke:#038048;stroke-width:1.0;fill:none;"/><text fill="#000000" font-family="sans-serif" font-size="11" lengthAdjust="spacing" textLength="123" x="543" y="956.5449">InitialValueTo : number</text><ellipse cx="534" cy="965.8652" rx="3" ry="3" style="stroke:#038048;stroke-width:1.0;fill:none;"/><text fill="#000000" font-family="sans-serif" font-size="11" lengthAdjust="spacing" textLength="107" x="543" y="969.5">IsDisabled : boolean</text><ellipse cx="534" cy="978.8203" rx="3" ry="3" style="stroke:#038048;stroke-width:1.0;fill:none;"/><text fill="#000000" font-family="sans-serif" font-size="11" lengthAdjust="spacing" textLength="101" x="543" y="982.4551">IsInterval : boolean</text><ellipse cx="534" cy="991.7754" rx="3" ry="3" style="stroke:#038048;stroke-width:1.0;fill:none;"/><text fill="#000000" font-family="sans-serif" font-size="11" lengthAdjust="spacing" textLength="102" x="543" y="995.4102">MaxValue : number</text><ellipse cx="534" cy="1004.7305" rx="3" ry="3" style="stroke:#038048;stroke-width:1.0;fill:none;"/><text fill="#000000" font-family="sans-serif" font-size="11" lengthAdjust="spacing" textLength="99" x="543" y="1008.3652">MinValue : number</text><ellipse cx="534" cy="1017.6855" rx="3" ry="3" style="stroke:#038048;stroke-width:1.0;fill:none;"/><text fill="#000000" font-family="sans-serif" font-size="11" lengthAdjust="spacing" textLength="102" x="543" y="1021.3203">Orientation : string</text><ellipse cx="534" cy="1030.6406" rx="3" ry="3" style="stroke:#038048;stroke-width:1.0;fill:none;"/><text fill="#000000" font-family="sans-serif" font-size="11" lengthAdjust="spacing" textLength="128" x="543" y="1034.2754">rangeSliderMode : Mode</text><ellipse cx="534" cy="1043.5957" rx="3" ry="3" style="stroke:#038048;stroke-width:1.0;fill:none;"/><text fill="#000000" font-family="sans-serif" font-size="11" lengthAdjust="spacing" textLength="151" x="543" y="1047.2305">ShowFloatingLabel : boolean</text><ellipse cx="534" cy="1056.5508" rx="3" ry="3" style="stroke:#038048;stroke-width:1.0;fill:none;"/><text fill="#000000" font-family="sans-serif" font-size="11" lengthAdjust="spacing" textLength="134" x="543" y="1060.1855">ShowTickMarks : boolean</text><ellipse cx="534" cy="1069.5059" rx="3" ry="3" style="stroke:#038048;stroke-width:1.0;fill:none;"/><text fill="#000000" font-family="sans-serif" font-size="11" lengthAdjust="spacing" textLength="62" x="543" y="1073.1406">Size : string</text><ellipse cx="534" cy="1082.4609" rx="3" ry="3" style="stroke:#038048;stroke-width:1.0;fill:none;"/><text fill="#000000" font-family="sans-serif" font-size="11" lengthAdjust="spacing" textLength="150" x="543" y="1086.0957">StartingValueFrom : number</text><ellipse cx="534" cy="1095.416" rx="3" ry="3" style="stroke:#038048;stroke-width:1.0;fill:none;"/><text fill="#000000" font-family="sans-serif" font-size="11" lengthAdjust="spacing" textLength="136" x="543" y="1099.0508">StartingValueTo : number</text><ellipse cx="534" cy="1108.3711" rx="3" ry="3" style="stroke:#038048;stroke-width:1.0;fill:none;"/><text fill="#000000" font-family="sans-serif" font-size="11" lengthAdjust="spacing" textLength="74" x="543" y="1112.0059">Step : number</text><ellipse cx="534" cy="1121.3262" rx="3" ry="3" style="stroke:#038048;stroke-width:1.0;fill:none;"/><text fill="#000000" font-family="sans-serif" font-size="11" lengthAdjust="spacing" textLength="145" x="543" y="1124.9609">TickMarksInterval : number</text><line style="stroke:#272B30;stroke-width:1.5;" x1="524" x2="1001" y1="1131.2813" y2="1131.2813"/><ellipse cx="534" cy="1142.2813" fill="#84BE84" rx="3" ry="3" style="stroke:#038048;stroke-width:1.0;"/><text fill="#000000" font-family="sans-serif" font-size="11" lengthAdjust="spacing" textLength="141" x="543" y="1145.916">getPipsConfig() : unknown</text><ellipse cx="534" cy="1155.2363" fill="#84BE84" rx="3" ry="3" style="stroke:#038048;stroke-width:1.0;"/><text fill="#000000" font-family="sans-serif" font-size="11" lengthAdjust="spacing" textLength="213" x="543" y="1158.8711">getProviderConfig() : noUiSliderOptions</text><ellipse cx="534" cy="1168.1914" fill="#84BE84" rx="3" ry="3" style="stroke:#038048;stroke-width:1.0;"/><text fill="#000000" font-family="sans-serif" font-size="11" lengthAdjust="spacing" textLength="152" x="543" y="1171.8262">getRangeConfig() : unknown</text><ellipse cx="534" cy="1181.1465" fill="#84BE84" rx="3" ry="3" style="stroke:#038048;stroke-width:1.0;"/><text fill="#000000" font-family="sans-serif" font-size="11" lengthAdjust="spacing" textLength="150" x="543" y="1184.7813">getTooltipFormat() : string[]</text><ellipse cx="534" cy="1194.1016" fill="#84BE84" rx="3" ry="3" style="stroke:#038048;stroke-width:1.0;"/><text fill="#000000" font-family="sans-serif" font-size="11" lengthAdjust="spacing" textLength="306" x="543" y="1197.7363">validateCanChange(isBuilt: boolean, key: string) : boolean</text><ellipse cx="534" cy="1207.0566" fill="#84BE84" rx="3" ry="3" style="stroke:#038048;stroke-width:1.0;"/><text fill="#000000" font-family="sans-serif" font-size="11" lengthAdjust="spacing" textLength="290" x="543" y="1210.6914">validateDefault(key: string, value: unknown) : unknown</text><polygon fill="#FFFF44" points="534,1215.0117,538,1219.0117,534,1223.0117,530,1219.0117" style="stroke:#B38D22;stroke-width:1.0;"/><text fill="#000000" font-family="sans-serif" font-size="11" lengthAdjust="spacing" textLength="262" x="543" y="1223.6465">getCommonProviderConfig() : noUiSliderOptions</text><polygon fill="#FFFF44" points="534,1227.9668,538,1231.9668,534,1235.9668,530,1231.9668" style="stroke:#B38D22;stroke-width:1.0;"/><text fill="#000000" font-family="sans-serif" font-size="11" lengthAdjust="spacing" textLength="341" x="543" y="1236.6016">validateBoolean(value: boolean, defaultValue: boolean) : boolean</text><polygon fill="#FFFF44" points="534,1240.9219,538,1244.9219,534,1248.9219,530,1244.9219" style="stroke:#B38D22;stroke-width:1.0;"/><text fill="#000000" font-family="sans-serif" font-size="11" lengthAdjust="spacing" textLength="358" x="543" y="1249.5566">validateDate(value: string | Date, defaultValue: string) : string | Date</text><polygon fill="#FFFF44" points="534,1253.877,538,1257.877,534,1261.877,530,1257.877" style="stroke:#B38D22;stroke-width:1.0;"/><text fill="#000000" font-family="sans-serif" font-size="11" lengthAdjust="spacing" textLength="453" x="543" y="1262.5117">validateInRange(value: unknown, defaultValue: unknown, args: unknown[]) : unknown</text><polygon fill="#FFFF44" points="534,1266.832,538,1270.832,534,1274.832,530,1270.832" style="stroke:#B38D22;stroke-width:1.0;"/><text fill="#000000" font-family="sans-serif" font-size="11" lengthAdjust="spacing" textLength="339" x="543" y="1275.4668">validateNumber(value: number, defaultValue: number) : number</text><polygon fill="#FFFF44" points="534,1279.7871,538,1283.7871,534,1287.7871,530,1283.7871" style="stroke:#B38D22;stroke-width:1.0;"/><text fill="#000000" font-family="sans-serif" font-size="11" lengthAdjust="spacing" textLength="298" x="543" y="1288.4219">validateString(value: string, defaultValue: string) : string</text><!--MD5=[71b5f7b076088d1b0e97cb2e213fdc69]
reverse link AbstractRangeSliderConfig to AbstractNoUiSliderConfig--><path codeLine="62" d="M505.5,373.52 C505.5,386.53 505.5,399.67 505.5,412.74 " fill="none" id="AbstractRangeSliderConfig-backto-AbstractNoUiSliderConfig" style="stroke:#272B30;stroke-width:1.0;"/><polygon fill="none" points="498.5,373.2,505.5,353.2,512.5,373.2,498.5,373.2" style="stroke:#272B30;stroke-width:1.0;"/><!--MD5=[e13eb85a753c2d23d114dad82332cfba]
reverse link AbstractNoUiSliderConfig to NoUiSliderIntervalConfig--><path codeLine="93" d="M383.67,841.82 C376.02,855.78 368.34,869.8 360.74,883.67 " fill="none" id="AbstractNoUiSliderConfig-backto-NoUiSliderIntervalConfig" style="stroke:#272B30;stroke-width:1.0;"/><polygon fill="none" points="377.59,838.36,393.34,824.19,389.86,845.09,377.59,838.36" style="stroke:#272B30;stroke-width:1.0;"/><!--MD5=[ab1035134505a00198e579e7f97399bc]
reverse link AbstractNoUiSliderConfig to NoUiSliderSingleConfig--><path codeLine="124" d="M627.33,841.82 C634.98,855.78 642.66,869.8 650.26,883.67 " fill="none" id="AbstractNoUiSliderConfig-backto-NoUiSliderSingleConfig" style="stroke:#272B30;stroke-width:1.0;"/><polygon fill="none" points="621.14,845.09,617.66,824.19,633.41,838.36,621.14,845.09" style="stroke:#272B30;stroke-width:1.0;"/><!--MD5=[c88fae44f6da4bbbd62707b98941c704]
@startuml
skinparam ClassArrowColor #272b30
skinparam ClassBorderColor #272b30
skinparam ClassBackgroundColor #fff
skinparam BackgroundColor #ced4da
hide empty methods
hide empty fields
abstract class "AbstractNoUiSliderConfig" {
    +ExtendedClass : string
    +InitialValueFrom : number
    +InitialValueTo : number
    +IsDisabled : boolean
    +IsInterval : boolean
    +MaxValue : number
    +MinValue : number
    +Orientation : string
    +rangeSliderMode : Mode
    +ShowFloatingLabel : boolean
    +ShowTickMarks : boolean
    +Size : string
    +StartingValueFrom : number
    +StartingValueTo : number
    +Step : number
    +TickMarksInterval : number
    +getPipsConfig() : unknown
    {abstract} +getProviderConfig() : void
    +getRangeConfig() : unknown
    +getTooltipFormat() : string[]
    +validateCanChange(isBuilt: boolean, key: string) : boolean
    +validateDefault(key: string, value: unknown) : unknown
    #getCommonProviderConfig() : noUiSliderOptions
    #validateBoolean(value: boolean, defaultValue: boolean) : boolean
    #validateDate(value: string | Date, defaultValue: string) : string | Date
    #validateInRange(value: unknown, defaultValue: unknown, args: unknown[]) : unknown
    #validateNumber(value: number, defaultValue: number) : number
    #validateString(value: string, defaultValue: string) : string
}
abstract class "AbstractRangeSliderConfig" {
    +ExtendedClass : string
    +InitialValueFrom : number
    +InitialValueTo : number
    +IsDisabled : boolean
    +IsInterval : boolean
    +MaxValue : number
    +MinValue : number
    +Orientation : string
    +ShowFloatingLabel : boolean
    +ShowTickMarks : boolean
    +Size : string
    +StartingValueFrom : number
    +StartingValueTo : number
    +Step : number
    +TickMarksInterval : number
    {abstract} +getProviderConfig() : void
    +validateCanChange(isBuilt: boolean, key: string) : boolean
    +validateDefault(key: string, value: unknown) : unknown
    #validateBoolean(value: boolean, defaultValue: boolean) : boolean
    #validateDate(value: string | Date, defaultValue: string) : string | Date
    #validateInRange(value: unknown, defaultValue: unknown, args: unknown[]) : unknown
    #validateNumber(value: number, defaultValue: number) : number
    #validateString(value: string, defaultValue: string) : string
}
"AbstractRangeSliderConfig" <|- - "AbstractNoUiSliderConfig"
class "NoUiSliderIntervalConfig" {
    +ExtendedClass : string
    +InitialValueFrom : number
    +InitialValueTo : number
    +IsDisabled : boolean
    +IsInterval : boolean
    +MaxValue : number
    +MinValue : number
    +Orientation : string
    +rangeSliderMode : Mode
    +ShowFloatingLabel : boolean
    +ShowTickMarks : boolean
    +Size : string
    +StartingValueFrom : number
    +StartingValueTo : number
    +Step : number
    +TickMarksInterval : number
    +getPipsConfig() : unknown
    +getProviderConfig() : noUiSliderOptions
    +getRangeConfig() : unknown
    +getTooltipFormat() : string[]
    +validateCanChange(isBuilt: boolean, key: string) : boolean
    +validateDefault(key: string, value: unknown) : unknown
    #getCommonProviderConfig() : noUiSliderOptions
    #validateBoolean(value: boolean, defaultValue: boolean) : boolean
    #validateDate(value: string | Date, defaultValue: string) : string | Date
    #validateInRange(value: unknown, defaultValue: unknown, args: unknown[]) : unknown
    #validateNumber(value: number, defaultValue: number) : number
    #validateString(value: string, defaultValue: string) : string
}
"AbstractNoUiSliderConfig" <|- - "NoUiSliderIntervalConfig"
class "NoUiSliderSingleConfig" {
    +ExtendedClass : string
    +InitialValueFrom : number
    +InitialValueTo : number
    +IsDisabled : boolean
    +IsInterval : boolean
    +MaxValue : number
    +MinValue : number
    +Orientation : string
    +rangeSliderMode : Mode
    +ShowFloatingLabel : boolean
    +ShowTickMarks : boolean
    +Size : string
    +StartingValueFrom : number
    +StartingValueTo : number
    +Step : number
    +TickMarksInterval : number
    +getPipsConfig() : unknown
    +getProviderConfig() : noUiSliderOptions
    +getRangeConfig() : unknown
    +getTooltipFormat() : string[]
    +validateCanChange(isBuilt: boolean, key: string) : boolean
    +validateDefault(key: string, value: unknown) : unknown
    #getCommonProviderConfig() : noUiSliderOptions
    #validateBoolean(value: boolean, defaultValue: boolean) : boolean
    #validateDate(value: string | Date, defaultValue: string) : string | Date
    #validateInRange(value: unknown, defaultValue: unknown, args: unknown[]) : unknown
    #validateNumber(value: number, defaultValue: number) : number
    #validateString(value: string, defaultValue: string) : string
}
"AbstractNoUiSliderConfig" <|- - "NoUiSliderSingleConfig"
@enduml

PlantUML version 1.2021.14(Fri Nov 12 16:46:50 WET 2021)
(GPL source distribution)
Java Runtime: Java(TM) SE Runtime Environment
JVM: Java HotSpot(TM) 64-Bit Server VM
Default Encoding: UTF-8
Language: en
Country: PT
--></g></svg>