<?xml version="1.0" encoding="UTF-8" standalone="no"?><svg xmlns="http://www.w3.org/2000/svg" xmlns:xlink="http://www.w3.org/1999/xlink" contentScriptType="application/ecmascript" contentStyleType="text/css" height="1230px" preserveAspectRatio="none" style="width:864px;height:1230px;background:#CED4DA;" version="1.1" viewBox="0 0 864 1230" width="864px" zoomAndPan="magnify"><defs><filter height="300%" id="fsvosyx5oc845" width="300%" x="-1" y="-1"><feGaussianBlur result="blurOut" stdDeviation="2.0"/><feColorMatrix in="blurOut" result="blurOut2" type="matrix" values="0 0 0 0 0 0 0 0 0 0 0 0 0 0 0 0 0 0 .4 0"/><feOffset dx="4.0" dy="4.0" in="blurOut2" result="blurOut3"/><feBlend in="SourceGraphic" in2="blurOut3" mode="normal"/></filter></defs><g><!--MD5=[2bf91b6da089adb23b06c491154e329c]
class AbstractProgress<C>--><rect codeLine="7" fill="#FFFFFF" filter="url(#fsvosyx5oc845)" height="333.0117" id="AbstractProgress&lt;C&gt;" style="stroke:#272B30;stroke-width:1.5;" width="403" x="228" y="335"/><ellipse cx="362.25" cy="351" fill="#A9DCDF" rx="11" ry="11" style="stroke:#272B30;stroke-width:1.0;"/><path d="M362.1133,346.3481 L360.9595,351.4199 L363.2754,351.4199 Z M360.6191,344.1069 L363.6157,344.1069 L366.9609,356.5 L364.5122,356.5 L363.7485,353.437 L360.4697,353.437 L359.7227,356.5 L357.2739,356.5 Z " fill="#000000"/><text fill="#000000" font-family="sans-serif" font-size="12" font-style="italic" lengthAdjust="spacing" textLength="126" x="382.75" y="355.5352">AbstractProgress&lt;C&gt;</text><line style="stroke:#272B30;stroke-width:1.5;" x1="229" x2="630" y1="367" y2="367"/><polygon fill="none" points="239,373,243,377,239,381,235,377" style="stroke:#B38D22;stroke-width:1.0;"/><text fill="#000000" font-family="sans-serif" font-size="11" lengthAdjust="spacing" textLength="161" x="248" y="381.6348">_progressElem : HTMLElement</text><polygon fill="none" points="239,385.9551,243,389.9551,239,393.9551,235,389.9551" style="stroke:#B38D22;stroke-width:1.0;"/><text fill="#000000" font-family="sans-serif" font-size="11" lengthAdjust="spacing" textLength="170" x="248" y="394.5898">_progressType : ProgressTypes</text><rect fill="none" height="6" style="stroke:#C82930;stroke-width:1.0;" width="6" x="236" y="400.9102"/><text fill="#000000" font-family="sans-serif" font-size="11" lengthAdjust="spacing" textLength="196" x="248" y="407.5449">_eventAnimateEntranceEnd : Generic</text><line style="stroke:#272B30;stroke-width:1.5;" x1="229" x2="630" y1="413.8652" y2="413.8652"/><ellipse cx="239" cy="424.8652" fill="#84BE84" rx="3" ry="3" style="stroke:#038048;stroke-width:1.0;"/><text fill="#000000" font-family="sans-serif" font-size="11" lengthAdjust="spacing" textLength="67" x="248" y="428.5">build() : void</text><ellipse cx="239" cy="437.8203" fill="#84BE84" rx="3" ry="3" style="stroke:#038048;stroke-width:1.0;"/><text fill="#000000" font-family="sans-serif" font-size="11" lengthAdjust="spacing" textLength="377" x="248" y="441.4551">changeProperty(propertyName: string, propertyValue: unknown) : void</text><ellipse cx="239" cy="450.7754" fill="#84BE84" rx="3" ry="3" style="stroke:#038048;stroke-width:1.0;"/><text fill="#000000" font-family="sans-serif" font-size="11" lengthAdjust="spacing" textLength="82" x="248" y="454.4102">dispose() : void</text><ellipse cx="239" cy="463.7305" fill="#84BE84" rx="3" ry="3" style="stroke:#038048;stroke-width:1.0;"/><text fill="#000000" font-family="sans-serif" font-size="11" lengthAdjust="spacing" textLength="207" x="248" y="467.3652">equalsToID(patternId: string) : boolean</text><polygon fill="#FFFF44" points="239,471.6855,243,475.6855,239,479.6855,235,475.6855" style="stroke:#B38D22;stroke-width:1.0;"/><text fill="#000000" font-family="sans-serif" font-size="11" font-style="italic" lengthAdjust="spacing" textLength="144" x="248" y="480.3203">addInitialAnimation() : void</text><polygon fill="#FFFF44" points="239,484.6406,243,488.6406,239,492.6406,235,488.6406" style="stroke:#B38D22;stroke-width:1.0;"/><text fill="#000000" font-family="sans-serif" font-size="11" lengthAdjust="spacing" textLength="111" x="248" y="493.2754">animateInitial() : void</text><polygon fill="#FFFF44" points="239,497.5957,243,501.5957,239,505.5957,235,501.5957" style="stroke:#B38D22;stroke-width:1.0;"/><text fill="#000000" font-family="sans-serif" font-size="11" lengthAdjust="spacing" textLength="168" x="248" y="506.2305">animateOnValueChange() : void</text><polygon fill="#FFFF44" points="239,510.5508,243,514.5508,239,518.5508,235,514.5508" style="stroke:#B38D22;stroke-width:1.0;"/><text fill="#000000" font-family="sans-serif" font-size="11" lengthAdjust="spacing" textLength="96" x="248" y="519.1855">finishBuild() : void</text><polygon fill="#FFFF44" points="239,523.5059,243,527.5059,239,531.5059,235,527.5059" style="stroke:#B38D22;stroke-width:1.0;"/><text fill="#000000" font-family="sans-serif" font-size="11" lengthAdjust="spacing" textLength="144" x="248" y="532.1406">resetProgressValue() : void</text><polygon fill="#FFFF44" points="239,536.4609,243,540.4609,239,544.4609,235,540.4609" style="stroke:#B38D22;stroke-width:1.0;"/><text fill="#000000" font-family="sans-serif" font-size="11" font-style="italic" lengthAdjust="spacing" textLength="140" x="248" y="545.0957">setA11YProperties() : void</text><polygon fill="#FFFF44" points="239,549.416,243,553.416,239,557.416,235,553.416" style="stroke:#B38D22;stroke-width:1.0;"/><text fill="#000000" font-family="sans-serif" font-size="11" lengthAdjust="spacing" textLength="107" x="248" y="558.0508">setCallbacks() : void</text><polygon fill="#FFFF44" points="239,562.3711,243,566.3711,239,570.3711,235,566.3711" style="stroke:#B38D22;stroke-width:1.0;"/><text fill="#000000" font-family="sans-serif" font-size="11" font-style="italic" lengthAdjust="spacing" textLength="251" x="248" y="571.0059">setElementProgressValue(value: number) : void</text><polygon fill="#FFFF44" points="239,575.3262,243,579.3262,239,583.3262,235,579.3262" style="stroke:#B38D22;stroke-width:1.0;"/><text fill="#000000" font-family="sans-serif" font-size="11" font-style="italic" lengthAdjust="spacing" textLength="129" x="248" y="583.9609">setHtmlElements() : void</text><polygon fill="#FFFF44" points="239,588.2813,243,592.2813,239,596.2813,235,592.2813" style="stroke:#B38D22;stroke-width:1.0;"/><text fill="#000000" font-family="sans-serif" font-size="11" lengthAdjust="spacing" textLength="209" x="248" y="596.916">setProgressValue(value: number) : void</text><polygon fill="#FFFF44" points="239,601.2363,243,605.2363,239,609.2363,235,605.2363" style="stroke:#B38D22;stroke-width:1.0;"/><text fill="#000000" font-family="sans-serif" font-size="11" lengthAdjust="spacing" textLength="121" x="248" y="609.8711">unsetCallbacks() : void</text><polygon fill="#FFFF44" points="239,614.1914,243,618.1914,239,622.1914,235,618.1914" style="stroke:#B38D22;stroke-width:1.0;"/><text fill="#000000" font-family="sans-serif" font-size="11" lengthAdjust="spacing" textLength="143" x="248" y="622.8262">unsetHtmlElements() : void</text><polygon fill="#FFFF44" points="239,627.1465,243,631.1465,239,635.1465,235,631.1465" style="stroke:#B38D22;stroke-width:1.0;"/><text fill="#000000" font-family="sans-serif" font-size="11" lengthAdjust="spacing" textLength="161" x="248" y="635.7813">updatedProgressValue() : void</text><rect fill="#F24D5C" height="6" style="stroke:#C82930;stroke-width:1.0;" width="6" x="236" y="642.1016"/><text fill="#000000" font-family="sans-serif" font-size="11" lengthAdjust="spacing" textLength="155" x="248" y="648.7363">_animateEntranceEnd() : void</text><rect fill="#F24D5C" height="6" style="stroke:#C82930;stroke-width:1.0;" width="6" x="236" y="655.0566"/><text fill="#000000" font-family="sans-serif" font-size="11" lengthAdjust="spacing" textLength="160" x="248" y="661.6914">_setAccessibilityProps() : void</text><!--MD5=[9535f12e0f372b236ea6317b881381d1]
class AbstractPattern<C>--><rect codeLine="31" fill="#FFFFFF" filter="url(#fsvosyx5oc845)" height="268.2363" id="AbstractPattern&lt;C&gt;" style="stroke:#272B30;stroke-width:1.5;" width="403" x="9" y="7"/><ellipse cx="147.75" cy="23" fill="#A9DCDF" rx="11" ry="11" style="stroke:#272B30;stroke-width:1.0;"/><path d="M147.6133,18.3481 L146.4595,23.4199 L148.7754,23.4199 Z M146.1191,16.1069 L149.1157,16.1069 L152.4609,28.5 L150.0122,28.5 L149.2485,25.437 L145.9697,25.437 L145.2227,28.5 L142.7739,28.5 Z " fill="#000000"/><text fill="#000000" font-family="sans-serif" font-size="12" font-style="italic" lengthAdjust="spacing" textLength="117" x="168.25" y="27.5352">AbstractPattern&lt;C&gt;</text><line style="stroke:#272B30;stroke-width:1.5;" x1="10" x2="411" y1="39" y2="39"/><rect fill="none" height="6" style="stroke:#C82930;stroke-width:1.0;" width="6" x="17" y="47"/><text fill="#000000" font-family="sans-serif" font-size="11" lengthAdjust="spacing" textLength="63" x="29" y="53.6348">_configs : C</text><rect fill="none" height="6" style="stroke:#C82930;stroke-width:1.0;" width="6" x="17" y="59.9551"/><text fill="#000000" font-family="sans-serif" font-size="11" lengthAdjust="spacing" textLength="90" x="29" y="66.5898">_isBuilt : boolean</text><rect fill="none" height="6" style="stroke:#C82930;stroke-width:1.0;" width="6" x="17" y="72.9102"/><text fill="#000000" font-family="sans-serif" font-size="11" lengthAdjust="spacing" textLength="131" x="29" y="79.5449">_selfElem : HTMLElement</text><rect fill="none" height="6" style="stroke:#C82930;stroke-width:1.0;" width="6" x="17" y="85.8652"/><text fill="#000000" font-family="sans-serif" font-size="11" lengthAdjust="spacing" textLength="94" x="29" y="92.5">_uniqueId : string</text><rect fill="none" height="6" style="stroke:#C82930;stroke-width:1.0;" width="6" x="17" y="98.8203"/><text fill="#000000" font-family="sans-serif" font-size="11" lengthAdjust="spacing" textLength="92" x="29" y="105.4551">_widgetId : string</text><line style="stroke:#272B30;stroke-width:1.5;" x1="10" x2="411" y1="111.7754" y2="111.7754"/><ellipse cx="20" cy="122.7754" fill="#84BE84" rx="3" ry="3" style="stroke:#038048;stroke-width:1.0;"/><text fill="#000000" font-family="sans-serif" font-size="11" lengthAdjust="spacing" textLength="67" x="29" y="126.4102">build() : void</text><ellipse cx="20" cy="135.7305" fill="#84BE84" rx="3" ry="3" style="stroke:#038048;stroke-width:1.0;"/><text fill="#000000" font-family="sans-serif" font-size="11" lengthAdjust="spacing" textLength="377" x="29" y="139.3652">changeProperty(propertyName: string, propertyValue: unknown) : void</text><ellipse cx="20" cy="148.6855" fill="#84BE84" rx="3" ry="3" style="stroke:#038048;stroke-width:1.0;"/><text fill="#000000" font-family="sans-serif" font-size="11" lengthAdjust="spacing" textLength="82" x="29" y="152.3203">dispose() : void</text><ellipse cx="20" cy="161.6406" fill="#84BE84" rx="3" ry="3" style="stroke:#038048;stroke-width:1.0;"/><text fill="#000000" font-family="sans-serif" font-size="11" lengthAdjust="spacing" textLength="207" x="29" y="165.2754">equalsToID(patternId: string) : boolean</text><polygon fill="#FFFF44" points="20,169.5957,24,173.5957,20,177.5957,16,173.5957" style="stroke:#B38D22;stroke-width:1.0;"/><text fill="#000000" font-family="sans-serif" font-size="11" lengthAdjust="spacing" textLength="96" x="29" y="178.2305">finishBuild() : void</text><polygon fill="#FFFF44" points="20,182.5508,24,186.5508,20,190.5508,16,186.5508" style="stroke:#B38D22;stroke-width:1.0;"/><text fill="#000000" font-family="sans-serif" font-size="11" font-style="italic" lengthAdjust="spacing" textLength="140" x="29" y="191.1855">setA11YProperties() : void</text><polygon fill="#FFFF44" points="20,195.5059,24,199.5059,20,203.5059,16,199.5059" style="stroke:#B38D22;stroke-width:1.0;"/><text fill="#000000" font-family="sans-serif" font-size="11" font-style="italic" lengthAdjust="spacing" textLength="107" x="29" y="204.1406">setCallbacks() : void</text><polygon fill="#FFFF44" points="20,208.4609,24,212.4609,20,216.4609,16,212.4609" style="stroke:#B38D22;stroke-width:1.0;"/><text fill="#000000" font-family="sans-serif" font-size="11" font-style="italic" lengthAdjust="spacing" textLength="129" x="29" y="217.0957">setHtmlElements() : void</text><polygon fill="#FFFF44" points="20,221.416,24,225.416,20,229.416,16,225.416" style="stroke:#B38D22;stroke-width:1.0;"/><text fill="#000000" font-family="sans-serif" font-size="11" font-style="italic" lengthAdjust="spacing" textLength="121" x="29" y="230.0508">unsetCallbacks() : void</text><polygon fill="#FFFF44" points="20,234.3711,24,238.3711,20,242.3711,16,238.3711" style="stroke:#B38D22;stroke-width:1.0;"/><text fill="#000000" font-family="sans-serif" font-size="11" font-style="italic" lengthAdjust="spacing" textLength="143" x="29" y="243.0059">unsetHtmlElements() : void</text><rect fill="#F24D5C" height="6" style="stroke:#C82930;stroke-width:1.0;" width="6" x="17" y="249.3262"/><text fill="#000000" font-family="sans-serif" font-size="11" lengthAdjust="spacing" textLength="184" x="29" y="255.9609">_setCommonHtmlElements() : void</text><rect fill="#F24D5C" height="6" style="stroke:#C82930;stroke-width:1.0;" width="6" x="17" y="262.2813"/><text fill="#000000" font-family="sans-serif" font-size="11" lengthAdjust="spacing" textLength="198" x="29" y="268.916">_unsetCommonHtmlElements() : void</text><!--MD5=[cc3bf36fa48987570ec0b92f2985dcfb]
class IProgress--><rect codeLine="51" fill="#FFFFFF" filter="url(#fsvosyx5oc845)" height="177.5508" id="IProgress" style="stroke:#272B30;stroke-width:1.5;" width="403" x="447" y="52"/><ellipse cx="617.75" cy="68" fill="#B4A7E5" rx="11" ry="11" style="stroke:#272B30;stroke-width:1.0;"/><path d="M614.1777,64.2651 L614.1777,62.1069 L621.5571,62.1069 L621.5571,64.2651 L619.0918,64.2651 L619.0918,72.3418 L621.5571,72.3418 L621.5571,74.5 L614.1777,74.5 L614.1777,72.3418 L616.6431,72.3418 L616.6431,64.2651 Z " fill="#000000"/><text fill="#000000" font-family="sans-serif" font-size="12" font-style="italic" lengthAdjust="spacing" textLength="53" x="638.25" y="72.5352">IProgress</text><line style="stroke:#272B30;stroke-width:1.5;" x1="448" x2="849" y1="84" y2="84"/><ellipse cx="458" cy="95" rx="3" ry="3" style="stroke:#038048;stroke-width:1.0;fill:none;"/><text fill="#000000" font-family="sans-serif" font-size="11" lengthAdjust="spacing" textLength="84" x="467" y="98.6348">isBuilt : boolean</text><ellipse cx="458" cy="107.9551" rx="3" ry="3" style="stroke:#038048;stroke-width:1.0;fill:none;"/><text fill="#000000" font-family="sans-serif" font-size="11" lengthAdjust="spacing" textLength="142" x="467" y="111.5898">selfElement : HTMLElement</text><ellipse cx="458" cy="120.9102" rx="3" ry="3" style="stroke:#038048;stroke-width:1.0;fill:none;"/><text fill="#000000" font-family="sans-serif" font-size="11" lengthAdjust="spacing" textLength="88" x="467" y="124.5449">uniqueId : string</text><ellipse cx="458" cy="133.8652" rx="3" ry="3" style="stroke:#038048;stroke-width:1.0;fill:none;"/><text fill="#000000" font-family="sans-serif" font-size="11" lengthAdjust="spacing" textLength="86" x="467" y="137.5">widgetId : string</text><line style="stroke:#272B30;stroke-width:1.5;" x1="448" x2="849" y1="143.8203" y2="143.8203"/><ellipse cx="458" cy="154.8203" fill="#84BE84" rx="3" ry="3" style="stroke:#038048;stroke-width:1.0;"/><text fill="#000000" font-family="sans-serif" font-size="11" lengthAdjust="spacing" textLength="67" x="467" y="158.4551">build() : void</text><ellipse cx="458" cy="167.7754" fill="#84BE84" rx="3" ry="3" style="stroke:#038048;stroke-width:1.0;"/><text fill="#000000" font-family="sans-serif" font-size="11" lengthAdjust="spacing" textLength="377" x="467" y="171.4102">changeProperty(propertyName: string, propertyValue: unknown) : void</text><ellipse cx="458" cy="180.7305" fill="#84BE84" rx="3" ry="3" style="stroke:#038048;stroke-width:1.0;"/><text fill="#000000" font-family="sans-serif" font-size="11" lengthAdjust="spacing" textLength="82" x="467" y="184.3652">dispose() : void</text><ellipse cx="458" cy="193.6855" fill="#84BE84" rx="3" ry="3" style="stroke:#038048;stroke-width:1.0;"/><text fill="#000000" font-family="sans-serif" font-size="11" lengthAdjust="spacing" textLength="168" x="467" y="197.3203">equalsToID(id: string) : boolean</text><ellipse cx="458" cy="206.6406" fill="#84BE84" rx="3" ry="3" style="stroke:#038048;stroke-width:1.0;"/><text fill="#000000" font-family="sans-serif" font-size="11" lengthAdjust="spacing" textLength="144" x="467" y="210.2754">resetProgressValue() : void</text><ellipse cx="458" cy="219.5957" fill="#84BE84" rx="3" ry="3" style="stroke:#038048;stroke-width:1.0;"/><text fill="#000000" font-family="sans-serif" font-size="11" lengthAdjust="spacing" textLength="209" x="467" y="223.2305">setProgressValue(value: number) : void</text><!--MD5=[fea15f7924bd848149aeb562f3a4d86b]
class Bar--><rect codeLine="64" fill="#FFFFFF" filter="url(#fsvosyx5oc845)" height="358.9219" id="Bar" style="stroke:#272B30;stroke-width:1.5;" width="403" x="9" y="792.5"/><ellipse cx="196.75" cy="808.5" fill="#ADD1B2" rx="11" ry="11" style="stroke:#272B30;stroke-width:1.0;"/><path d="M199.2231,814.6431 Q198.6421,814.9419 198.0029,815.0913 Q197.3638,815.2407 196.6582,815.2407 Q194.1514,815.2407 192.8315,813.5889 Q191.5117,811.937 191.5117,808.8159 Q191.5117,805.6865 192.8315,804.0347 Q194.1514,802.3828 196.6582,802.3828 Q197.3638,802.3828 198.0112,802.5322 Q198.6587,802.6816 199.2231,802.9805 L199.2231,805.7031 Q198.5923,805.1221 197.9988,804.8523 Q197.4053,804.5825 196.7744,804.5825 Q195.4297,804.5825 194.7449,805.6492 Q194.0601,806.7158 194.0601,808.8159 Q194.0601,810.9077 194.7449,811.9744 Q195.4297,813.041 196.7744,813.041 Q197.4053,813.041 197.9988,812.7712 Q198.5923,812.5015 199.2231,811.9204 Z " fill="#000000"/><text fill="#000000" font-family="sans-serif" font-size="12" lengthAdjust="spacing" textLength="19" x="217.25" y="813.0352">Bar</text><line style="stroke:#272B30;stroke-width:1.5;" x1="10" x2="411" y1="824.5" y2="824.5"/><polygon fill="none" points="20,830.5,24,834.5,20,838.5,16,834.5" style="stroke:#B38D22;stroke-width:1.0;"/><text fill="#000000" font-family="sans-serif" font-size="11" lengthAdjust="spacing" textLength="161" x="29" y="839.1348">_progressElem : HTMLElement</text><polygon fill="none" points="20,843.4551,24,847.4551,20,851.4551,16,847.4551" style="stroke:#B38D22;stroke-width:1.0;"/><text fill="#000000" font-family="sans-serif" font-size="11" lengthAdjust="spacing" textLength="170" x="29" y="852.0898">_progressType : ProgressTypes</text><line style="stroke:#272B30;stroke-width:1.5;" x1="10" x2="411" y1="858.4102" y2="858.4102"/><ellipse cx="20" cy="869.4102" fill="#84BE84" rx="3" ry="3" style="stroke:#038048;stroke-width:1.0;"/><text fill="#000000" font-family="sans-serif" font-size="11" lengthAdjust="spacing" textLength="67" x="29" y="873.0449">build() : void</text><ellipse cx="20" cy="882.3652" fill="#84BE84" rx="3" ry="3" style="stroke:#038048;stroke-width:1.0;"/><text fill="#000000" font-family="sans-serif" font-size="11" lengthAdjust="spacing" textLength="377" x="29" y="886">changeProperty(propertyName: string, propertyValue: unknown) : void</text><ellipse cx="20" cy="895.3203" fill="#84BE84" rx="3" ry="3" style="stroke:#038048;stroke-width:1.0;"/><text fill="#000000" font-family="sans-serif" font-size="11" lengthAdjust="spacing" textLength="82" x="29" y="898.9551">dispose() : void</text><ellipse cx="20" cy="908.2754" fill="#84BE84" rx="3" ry="3" style="stroke:#038048;stroke-width:1.0;"/><text fill="#000000" font-family="sans-serif" font-size="11" lengthAdjust="spacing" textLength="207" x="29" y="911.9102">equalsToID(patternId: string) : boolean</text><polygon fill="#FFFF44" points="20,916.2305,24,920.2305,20,924.2305,16,920.2305" style="stroke:#B38D22;stroke-width:1.0;"/><text fill="#000000" font-family="sans-serif" font-size="11" lengthAdjust="spacing" textLength="144" x="29" y="924.8652">addInitialAnimation() : void</text><polygon fill="#FFFF44" points="20,929.1855,24,933.1855,20,937.1855,16,933.1855" style="stroke:#B38D22;stroke-width:1.0;"/><text fill="#000000" font-family="sans-serif" font-size="11" lengthAdjust="spacing" textLength="111" x="29" y="937.8203">animateInitial() : void</text><polygon fill="#FFFF44" points="20,942.1406,24,946.1406,20,950.1406,16,946.1406" style="stroke:#B38D22;stroke-width:1.0;"/><text fill="#000000" font-family="sans-serif" font-size="11" lengthAdjust="spacing" textLength="168" x="29" y="950.7754">animateOnValueChange() : void</text><polygon fill="#FFFF44" points="20,955.0957,24,959.0957,20,963.0957,16,959.0957" style="stroke:#B38D22;stroke-width:1.0;"/><text fill="#000000" font-family="sans-serif" font-size="11" lengthAdjust="spacing" textLength="96" x="29" y="963.7305">finishBuild() : void</text><polygon fill="#FFFF44" points="20,968.0508,24,972.0508,20,976.0508,16,972.0508" style="stroke:#B38D22;stroke-width:1.0;"/><text fill="#000000" font-family="sans-serif" font-size="11" lengthAdjust="spacing" textLength="144" x="29" y="976.6855">resetProgressValue() : void</text><polygon fill="#FFFF44" points="20,981.0059,24,985.0059,20,989.0059,16,985.0059" style="stroke:#B38D22;stroke-width:1.0;"/><text fill="#000000" font-family="sans-serif" font-size="11" lengthAdjust="spacing" textLength="140" x="29" y="989.6406">setA11YProperties() : void</text><polygon fill="#FFFF44" points="20,993.9609,24,997.9609,20,1001.9609,16,997.9609" style="stroke:#B38D22;stroke-width:1.0;"/><text fill="#000000" font-family="sans-serif" font-size="11" lengthAdjust="spacing" textLength="107" x="29" y="1002.5957">setCallbacks() : void</text><polygon fill="#FFFF44" points="20,1006.916,24,1010.916,20,1014.916,16,1010.916" style="stroke:#B38D22;stroke-width:1.0;"/><text fill="#000000" font-family="sans-serif" font-size="11" lengthAdjust="spacing" textLength="251" x="29" y="1015.5508">setElementProgressValue(value: number) : void</text><polygon fill="#FFFF44" points="20,1019.8711,24,1023.8711,20,1027.8711,16,1023.8711" style="stroke:#B38D22;stroke-width:1.0;"/><text fill="#000000" font-family="sans-serif" font-size="11" lengthAdjust="spacing" textLength="129" x="29" y="1028.5059">setHtmlElements() : void</text><polygon fill="#FFFF44" points="20,1032.8262,24,1036.8262,20,1040.8262,16,1036.8262" style="stroke:#B38D22;stroke-width:1.0;"/><text fill="#000000" font-family="sans-serif" font-size="11" lengthAdjust="spacing" textLength="209" x="29" y="1041.4609">setProgressValue(value: number) : void</text><polygon fill="#FFFF44" points="20,1045.7813,24,1049.7813,20,1053.7813,16,1049.7813" style="stroke:#B38D22;stroke-width:1.0;"/><text fill="#000000" font-family="sans-serif" font-size="11" lengthAdjust="spacing" textLength="121" x="29" y="1054.416">unsetCallbacks() : void</text><polygon fill="#FFFF44" points="20,1058.7363,24,1062.7363,20,1066.7363,16,1062.7363" style="stroke:#B38D22;stroke-width:1.0;"/><text fill="#000000" font-family="sans-serif" font-size="11" lengthAdjust="spacing" textLength="143" x="29" y="1067.3711">unsetHtmlElements() : void</text><polygon fill="#FFFF44" points="20,1071.6914,24,1075.6914,20,1079.6914,16,1075.6914" style="stroke:#B38D22;stroke-width:1.0;"/><text fill="#000000" font-family="sans-serif" font-size="11" lengthAdjust="spacing" textLength="161" x="29" y="1080.3262">updatedProgressValue() : void</text><rect fill="#F24D5C" height="6" style="stroke:#C82930;stroke-width:1.0;" width="6" x="17" y="1086.6465"/><text fill="#000000" font-family="sans-serif" font-size="11" lengthAdjust="spacing" textLength="131" x="29" y="1093.2813">_setCssVariables() : void</text><rect fill="#F24D5C" height="6" style="stroke:#C82930;stroke-width:1.0;" width="6" x="17" y="1099.6016"/><text fill="#000000" font-family="sans-serif" font-size="11" lengthAdjust="spacing" textLength="227" x="29" y="1106.2363">_updateProgressColor(value: string) : void</text><rect fill="#F24D5C" height="6" style="stroke:#C82930;stroke-width:1.0;" width="6" x="17" y="1112.5566"/><text fill="#000000" font-family="sans-serif" font-size="11" lengthAdjust="spacing" textLength="181" x="29" y="1119.1914">_updateShape(value: string) : void</text><rect fill="#F24D5C" height="6" style="stroke:#C82930;stroke-width:1.0;" width="6" x="17" y="1125.5117"/><text fill="#000000" font-family="sans-serif" font-size="11" lengthAdjust="spacing" textLength="213" x="29" y="1132.1465">_updateThickness(value: number) : void</text><rect fill="#F24D5C" height="6" style="stroke:#C82930;stroke-width:1.0;" width="6" x="17" y="1138.4668"/><text fill="#000000" font-family="sans-serif" font-size="11" lengthAdjust="spacing" textLength="203" x="29" y="1145.1016">_updateTrailColor(value: string) : void</text><!--MD5=[a7f9118cae7621dd25d25149752faef0]
class Circle--><rect codeLine="91" fill="#FFFFFF" filter="url(#fsvosyx5oc845)" height="488.4727" id="Circle" style="stroke:#272B30;stroke-width:1.5;" width="403" x="447" y="728"/><ellipse cx="628.25" cy="744" fill="#ADD1B2" rx="11" ry="11" style="stroke:#272B30;stroke-width:1.0;"/><path d="M630.7231,750.1431 Q630.1421,750.4419 629.5029,750.5913 Q628.8638,750.7407 628.1582,750.7407 Q625.6514,750.7407 624.3315,749.0889 Q623.0117,747.437 623.0117,744.3159 Q623.0117,741.1865 624.3315,739.5347 Q625.6514,737.8828 628.1582,737.8828 Q628.8638,737.8828 629.5112,738.0322 Q630.1587,738.1816 630.7231,738.4805 L630.7231,741.2031 Q630.0923,740.6221 629.4988,740.3523 Q628.9053,740.0825 628.2744,740.0825 Q626.9297,740.0825 626.2449,741.1492 Q625.5601,742.2158 625.5601,744.3159 Q625.5601,746.4077 626.2449,747.4744 Q626.9297,748.541 628.2744,748.541 Q628.9053,748.541 629.4988,748.2712 Q630.0923,748.0015 630.7231,747.4204 Z " fill="#000000"/><text fill="#000000" font-family="sans-serif" font-size="12" lengthAdjust="spacing" textLength="32" x="648.75" y="748.5352">Circle</text><line style="stroke:#272B30;stroke-width:1.5;" x1="448" x2="849" y1="760" y2="760"/><polygon fill="none" points="458,766,462,770,458,774,454,770" style="stroke:#B38D22;stroke-width:1.0;"/><text fill="#000000" font-family="sans-serif" font-size="11" lengthAdjust="spacing" textLength="161" x="467" y="774.6348">_progressElem : HTMLElement</text><polygon fill="none" points="458,778.9551,462,782.9551,458,786.9551,454,782.9551" style="stroke:#B38D22;stroke-width:1.0;"/><text fill="#000000" font-family="sans-serif" font-size="11" lengthAdjust="spacing" textLength="170" x="467" y="787.5898">_progressType : ProgressTypes</text><rect fill="none" height="6" style="stroke:#C82930;stroke-width:1.0;" width="6" x="455" y="793.9102"/><text fill="#000000" font-family="sans-serif" font-size="11" lengthAdjust="spacing" textLength="165" x="467" y="800.5449">_circleCircumference : number</text><rect fill="none" height="6" style="stroke:#C82930;stroke-width:1.0;" width="6" x="455" y="806.8652"/><text fill="#000000" font-family="sans-serif" font-size="11" lengthAdjust="spacing" textLength="111" x="467" y="813.5">_circletSize : number</text><rect fill="none" height="6" style="stroke:#C82930;stroke-width:1.0;" width="6" x="455" y="819.8203"/><text fill="#000000" font-family="sans-serif" font-size="11" lengthAdjust="spacing" textLength="181" x="467" y="826.4551">_resizeObserver : ResizeObserver</text><rect fill="none" height="6" style="stroke:#C82930;stroke-width:1.0;" width="6" x="455" y="832.7754"/><text fill="#000000" font-family="sans-serif" font-size="11" lengthAdjust="spacing" textLength="146" x="467" y="839.4102">_strokeDasharray : number</text><rect fill="none" height="6" style="stroke:#C82930;stroke-width:1.0;" width="6" x="455" y="845.7305"/><text fill="#000000" font-family="sans-serif" font-size="11" lengthAdjust="spacing" textLength="149" x="467" y="852.3652">_strokeDashoffset : number</text><line style="stroke:#272B30;stroke-width:1.5;" x1="448" x2="849" y1="858.6855" y2="858.6855"/><ellipse cx="458" cy="869.6855" fill="#84BE84" rx="3" ry="3" style="stroke:#038048;stroke-width:1.0;"/><text fill="#000000" font-family="sans-serif" font-size="11" lengthAdjust="spacing" textLength="67" x="467" y="873.3203">build() : void</text><ellipse cx="458" cy="882.6406" fill="#84BE84" rx="3" ry="3" style="stroke:#038048;stroke-width:1.0;"/><text fill="#000000" font-family="sans-serif" font-size="11" lengthAdjust="spacing" textLength="377" x="467" y="886.2754">changeProperty(propertyName: string, propertyValue: unknown) : void</text><ellipse cx="458" cy="895.5957" fill="#84BE84" rx="3" ry="3" style="stroke:#038048;stroke-width:1.0;"/><text fill="#000000" font-family="sans-serif" font-size="11" lengthAdjust="spacing" textLength="82" x="467" y="899.2305">dispose() : void</text><ellipse cx="458" cy="908.5508" fill="#84BE84" rx="3" ry="3" style="stroke:#038048;stroke-width:1.0;"/><text fill="#000000" font-family="sans-serif" font-size="11" lengthAdjust="spacing" textLength="207" x="467" y="912.1855">equalsToID(patternId: string) : boolean</text><polygon fill="#FFFF44" points="458,916.5059,462,920.5059,458,924.5059,454,920.5059" style="stroke:#B38D22;stroke-width:1.0;"/><text fill="#000000" font-family="sans-serif" font-size="11" lengthAdjust="spacing" textLength="144" x="467" y="925.1406">addInitialAnimation() : void</text><polygon fill="#FFFF44" points="458,929.4609,462,933.4609,458,937.4609,454,933.4609" style="stroke:#B38D22;stroke-width:1.0;"/><text fill="#000000" font-family="sans-serif" font-size="11" lengthAdjust="spacing" textLength="111" x="467" y="938.0957">animateInitial() : void</text><polygon fill="#FFFF44" points="458,942.416,462,946.416,458,950.416,454,946.416" style="stroke:#B38D22;stroke-width:1.0;"/><text fill="#000000" font-family="sans-serif" font-size="11" lengthAdjust="spacing" textLength="168" x="467" y="951.0508">animateOnValueChange() : void</text><polygon fill="#FFFF44" points="458,955.3711,462,959.3711,458,963.3711,454,959.3711" style="stroke:#B38D22;stroke-width:1.0;"/><text fill="#000000" font-family="sans-serif" font-size="11" lengthAdjust="spacing" textLength="96" x="467" y="964.0059">finishBuild() : void</text><polygon fill="#FFFF44" points="458,968.3262,462,972.3262,458,976.3262,454,972.3262" style="stroke:#B38D22;stroke-width:1.0;"/><text fill="#000000" font-family="sans-serif" font-size="11" lengthAdjust="spacing" textLength="144" x="467" y="976.9609">resetProgressValue() : void</text><polygon fill="#FFFF44" points="458,981.2813,462,985.2813,458,989.2813,454,985.2813" style="stroke:#B38D22;stroke-width:1.0;"/><text fill="#000000" font-family="sans-serif" font-size="11" lengthAdjust="spacing" textLength="140" x="467" y="989.916">setA11YProperties() : void</text><polygon fill="#FFFF44" points="458,994.2363,462,998.2363,458,1002.2363,454,998.2363" style="stroke:#B38D22;stroke-width:1.0;"/><text fill="#000000" font-family="sans-serif" font-size="11" lengthAdjust="spacing" textLength="107" x="467" y="1002.8711">setCallbacks() : void</text><polygon fill="#FFFF44" points="458,1007.1914,462,1011.1914,458,1015.1914,454,1011.1914" style="stroke:#B38D22;stroke-width:1.0;"/><text fill="#000000" font-family="sans-serif" font-size="11" lengthAdjust="spacing" textLength="251" x="467" y="1015.8262">setElementProgressValue(value: number) : void</text><polygon fill="#FFFF44" points="458,1020.1465,462,1024.1465,458,1028.1465,454,1024.1465" style="stroke:#B38D22;stroke-width:1.0;"/><text fill="#000000" font-family="sans-serif" font-size="11" lengthAdjust="spacing" textLength="129" x="467" y="1028.7813">setHtmlElements() : void</text><polygon fill="#FFFF44" points="458,1033.1016,462,1037.1016,458,1041.1016,454,1037.1016" style="stroke:#B38D22;stroke-width:1.0;"/><text fill="#000000" font-family="sans-serif" font-size="11" lengthAdjust="spacing" textLength="209" x="467" y="1041.7363">setProgressValue(value: number) : void</text><polygon fill="#FFFF44" points="458,1046.0566,462,1050.0566,458,1054.0566,454,1050.0566" style="stroke:#B38D22;stroke-width:1.0;"/><text fill="#000000" font-family="sans-serif" font-size="11" lengthAdjust="spacing" textLength="121" x="467" y="1054.6914">unsetCallbacks() : void</text><polygon fill="#FFFF44" points="458,1059.0117,462,1063.0117,458,1067.0117,454,1063.0117" style="stroke:#B38D22;stroke-width:1.0;"/><text fill="#000000" font-family="sans-serif" font-size="11" lengthAdjust="spacing" textLength="143" x="467" y="1067.6465">unsetHtmlElements() : void</text><polygon fill="#FFFF44" points="458,1071.9668,462,1075.9668,458,1079.9668,454,1075.9668" style="stroke:#B38D22;stroke-width:1.0;"/><text fill="#000000" font-family="sans-serif" font-size="11" lengthAdjust="spacing" textLength="161" x="467" y="1080.6016">updatedProgressValue() : void</text><polygon fill="#FFFF44" points="458,1084.9219,462,1088.9219,458,1092.9219,454,1088.9219" style="stroke:#B38D22;stroke-width:1.0;"/><text fill="#000000" font-family="sans-serif" font-size="11" lengthAdjust="spacing" textLength="221" x="467" y="1093.5566">updateProgressColor(value: string) : void</text><polygon fill="#FFFF44" points="458,1097.877,462,1101.877,458,1105.877,454,1101.877" style="stroke:#B38D22;stroke-width:1.0;"/><text fill="#000000" font-family="sans-serif" font-size="11" lengthAdjust="spacing" textLength="175" x="467" y="1106.5117">updateShape(value: string) : void</text><polygon fill="#FFFF44" points="458,1110.832,462,1114.832,458,1118.832,454,1114.832" style="stroke:#B38D22;stroke-width:1.0;"/><text fill="#000000" font-family="sans-serif" font-size="11" lengthAdjust="spacing" textLength="207" x="467" y="1119.4668">updateThickness(value: number) : void</text><polygon fill="#FFFF44" points="458,1123.7871,462,1127.7871,458,1131.7871,454,1127.7871" style="stroke:#B38D22;stroke-width:1.0;"/><text fill="#000000" font-family="sans-serif" font-size="11" lengthAdjust="spacing" textLength="197" x="467" y="1132.4219">updateTrailColor(value: string) : void</text><rect fill="#F24D5C" height="6" style="stroke:#C82930;stroke-width:1.0;" width="6" x="455" y="1138.7422"/><text fill="#000000" font-family="sans-serif" font-size="11" lengthAdjust="spacing" textLength="144" x="467" y="1145.377">_addResizeOberser() : void</text><rect fill="#F24D5C" height="6" style="stroke:#C82930;stroke-width:1.0;" width="6" x="455" y="1151.6973"/><text fill="#000000" font-family="sans-serif" font-size="11" lengthAdjust="spacing" textLength="161" x="467" y="1158.332">_checkResizeObserver() : void</text><rect fill="#F24D5C" height="6" style="stroke:#C82930;stroke-width:1.0;" width="6" x="455" y="1164.6523"/><text fill="#000000" font-family="sans-serif" font-size="11" lengthAdjust="spacing" textLength="142" x="467" y="1171.2871">_progressToOffset() : void</text><rect fill="#F24D5C" height="6" style="stroke:#C82930;stroke-width:1.0;" width="6" x="455" y="1177.6074"/><text fill="#000000" font-family="sans-serif" font-size="11" lengthAdjust="spacing" textLength="131" x="467" y="1184.2422">_setCssVariables() : void</text><rect fill="#F24D5C" height="6" style="stroke:#C82930;stroke-width:1.0;" width="6" x="455" y="1190.5625"/><text fill="#000000" font-family="sans-serif" font-size="11" lengthAdjust="spacing" textLength="145" x="467" y="1197.1973">_updateCircleProps() : void</text><rect fill="#F24D5C" height="6" style="stroke:#C82930;stroke-width:1.0;" width="6" x="455" y="1203.5176"/><text fill="#000000" font-family="sans-serif" font-size="11" lengthAdjust="spacing" textLength="160" x="467" y="1210.1523">_updateProgressValue() : void</text><!--MD5=[03d9d9ff913e6eabea1030eab6fc123d]
reverse link AbstractPattern<C> to AbstractProgress<C>--><path codeLine="50" d="M302.57,292.71 C311.07,306.63 319.71,320.78 328.29,334.82 " fill="none" id="AbstractPattern&lt;C&gt;-backto-AbstractProgress&lt;C&gt;" style="stroke:#272B30;stroke-width:1.0;"/><polygon fill="none" points="296.34,295.95,291.89,275.24,308.29,288.66,296.34,295.95" style="stroke:#272B30;stroke-width:1.0;"/><!--MD5=[fb6355972f83e389b5f0bce6225ba49b]
reverse link IProgress to AbstractProgress<C>--><path codeLine="63" d="M584.15,247.33 C567.36,274.83 548.84,305.14 530.64,334.94 " fill="none" id="IProgress-backto-AbstractProgress&lt;C&gt;" style="stroke:#272B30;stroke-width:1.0;stroke-dasharray:7.0,7.0;"/><polygon fill="none" points="578.25,243.58,594.65,230.16,590.19,250.87,578.25,243.58" style="stroke:#272B30;stroke-width:1.0;"/><!--MD5=[78e4ea7f0391394e45ff453b8439e9db]
reverse link AbstractProgress<C> to Bar--><path codeLine="90" d="M343.66,686.13 C327.32,721.09 310.24,757.63 293.97,792.43 " fill="none" id="AbstractProgress&lt;C&gt;-backto-Bar" style="stroke:#272B30;stroke-width:1.0;"/><polygon fill="none" points="337.32,683.16,352.13,668.01,350.01,689.09,337.32,683.16" style="stroke:#272B30;stroke-width:1.0;"/><!--MD5=[589764563100a7898677761d33787f82]
reverse link AbstractProgress<C> to Circle--><path codeLine="127" d="M515.49,686.46 C521.88,700.12 528.37,714.01 534.88,727.95 " fill="none" id="AbstractProgress&lt;C&gt;-backto-Circle" style="stroke:#272B30;stroke-width:1.0;"/><polygon fill="none" points="508.99,689.09,506.87,668.01,521.68,683.16,508.99,689.09" style="stroke:#272B30;stroke-width:1.0;"/><!--MD5=[84c5aa63be054d580b958355b4690fe5]
@startuml
skinparam ClassArrowColor #272b30
skinparam ClassBorderColor #272b30
skinparam ClassBackgroundColor #fff
skinparam BackgroundColor #ced4da
hide empty methods
hide empty fields
abstract class "AbstractProgress<C>" {
    #_progressElem : HTMLElement
    #_progressType : ProgressTypes
    -_eventAnimateEntranceEnd : Generic
    +build() : void
    +changeProperty(propertyName: string, propertyValue: unknown) : void
    +dispose() : void
    +equalsToID(patternId: string) : boolean
    {abstract} #addInitialAnimation() : void
    #animateInitial() : void
    #animateOnValueChange() : void
    #finishBuild() : void
    #resetProgressValue() : void
    {abstract} #setA11YProperties() : void
    #setCallbacks() : void
    {abstract} #setElementProgressValue(value: number) : void
    {abstract} #setHtmlElements() : void
    #setProgressValue(value: number) : void
    #unsetCallbacks() : void
    #unsetHtmlElements() : void
    #updatedProgressValue() : void
    -_animateEntranceEnd() : void
    -_setAccessibilityProps() : void
}
abstract class "AbstractPattern<C>" {
    -_configs : C
    -_isBuilt : boolean
    -_selfElem : HTMLElement
    -_uniqueId : string
    -_widgetId : string
    +build() : void
    +changeProperty(propertyName: string, propertyValue: unknown) : void
    +dispose() : void
    +equalsToID(patternId: string) : boolean
    #finishBuild() : void
    {abstract} #setA11YProperties() : void
    {abstract} #setCallbacks() : void
    {abstract} #setHtmlElements() : void
    {abstract} #unsetCallbacks() : void
    {abstract} #unsetHtmlElements() : void
    -_setCommonHtmlElements() : void
    -_unsetCommonHtmlElements() : void
}
"AbstractPattern<C>" <|- - "AbstractProgress<C>"
interface "IProgress" {
    +isBuilt : boolean
    +selfElement : HTMLElement
    +uniqueId : string
    +widgetId : string
    +build() : void
    +changeProperty(propertyName: string, propertyValue: unknown) : void
    +dispose() : void
    +equalsToID(id: string) : boolean
    +resetProgressValue() : void
    +setProgressValue(value: number) : void
}
"IProgress" <|.. "AbstractProgress<C>"
class "Bar" {
    #_progressElem : HTMLElement
    #_progressType : ProgressTypes
    +build() : void
    +changeProperty(propertyName: string, propertyValue: unknown) : void
    +dispose() : void
    +equalsToID(patternId: string) : boolean
    #addInitialAnimation() : void
    #animateInitial() : void
    #animateOnValueChange() : void
    #finishBuild() : void
    #resetProgressValue() : void
    #setA11YProperties() : void
    #setCallbacks() : void
    #setElementProgressValue(value: number) : void
    #setHtmlElements() : void
    #setProgressValue(value: number) : void
    #unsetCallbacks() : void
    #unsetHtmlElements() : void
    #updatedProgressValue() : void
    -_setCssVariables() : void
    -_updateProgressColor(value: string) : void
    -_updateShape(value: string) : void
    -_updateThickness(value: number) : void
    -_updateTrailColor(value: string) : void
}
"AbstractProgress<C>" <|- - "Bar"
class "Circle" {
    #_progressElem : HTMLElement
    #_progressType : ProgressTypes
    -_circleCircumference : number
    -_circletSize : number
    -_resizeObserver : ResizeObserver
    -_strokeDasharray : number
    -_strokeDashoffset : number
    +build() : void
    +changeProperty(propertyName: string, propertyValue: unknown) : void
    +dispose() : void
    +equalsToID(patternId: string) : boolean
    #addInitialAnimation() : void
    #animateInitial() : void
    #animateOnValueChange() : void
    #finishBuild() : void
    #resetProgressValue() : void
    #setA11YProperties() : void
    #setCallbacks() : void
    #setElementProgressValue(value: number) : void
    #setHtmlElements() : void
    #setProgressValue(value: number) : void
    #unsetCallbacks() : void
    #unsetHtmlElements() : void
    #updatedProgressValue() : void
    #updateProgressColor(value: string) : void
    #updateShape(value: string) : void
    #updateThickness(value: number) : void
    #updateTrailColor(value: string) : void
    -_addResizeOberser() : void
    -_checkResizeObserver() : void
    -_progressToOffset() : void
    -_setCssVariables() : void
    -_updateCircleProps() : void
    -_updateProgressValue() : void
}
"AbstractProgress<C>" <|- - "Circle"
@enduml

PlantUML version 1.2021.14(Fri Nov 12 16:46:50 WET 2021)
(GPL source distribution)
Java Runtime: Java(TM) SE Runtime Environment
JVM: Java HotSpot(TM) 64-Bit Server VM
Default Encoding: UTF-8
Language: en
Country: PT
--></g></svg>