<?xml version="1.0" encoding="us-ascii" standalone="no"?><svg xmlns="http://www.w3.org/2000/svg" xmlns:xlink="http://www.w3.org/1999/xlink" contentStyleType="text/css" height="2091px" preserveAspectRatio="none" style="width:1393px;height:2091px;background:#CED4DA;" version="1.1" viewBox="0 0 1393 2091" width="1393px" zoomAndPan="magnify"><defs/><g><rect fill="#CED4DA" height="2091" style="stroke:none;stroke-width:1.0;" width="1393" x="0" y="0"/><!--class AbstractCarousel<P, C>--><g id="elem_AbstractCarousel&lt;P, C&gt;"><rect codeLine="7" fill="#FFFFFF" height="559.1367" id="AbstractCarousel&lt;P, C&gt;" rx="2.5" ry="2.5" style="stroke:#272B30;stroke-width:0.5;" width="694" x="408.5" y="593"/><ellipse cx="668.25" cy="609" fill="#A9DCDF" rx="11" ry="11" style="stroke:#181818;stroke-width:1.0;"/><path d="M668.1133,604.3481 L666.9595,609.4199 L669.2754,609.4199 Z M666.6191,602.1069 L669.6157,602.1069 L672.9609,614.5 L670.5122,614.5 L669.7485,611.437 L666.4697,611.437 L665.7227,614.5 L663.2739,614.5 Z " fill="#000000"/><text fill="#000000" font-family="sans-serif" font-size="14" font-style="italic" lengthAdjust="spacing" textLength="166" x="688.75" y="614.291">AbstractCarousel&lt;P, C&gt;</text><line style="stroke:#272B30;stroke-width:0.5;" x1="409.5" x2="1101.5" y1="625" y2="625"/><polygon fill="none" points="419.5,633.7441,423.5,637.7441,419.5,641.7441,415.5,637.7441" style="stroke:#B38D22;stroke-width:1.0;"/><text fill="#000000" font-family="sans-serif" font-size="14" lengthAdjust="spacing" textLength="176" x="428.5" y="642.5352">isProviderBased : boolean</text><polygon fill="none" points="419.5,650.2324,423.5,654.2324,419.5,658.2324,415.5,654.2324" style="stroke:#B38D22;stroke-width:1.0;"/><text fill="#000000" font-family="sans-serif" font-size="14" lengthAdjust="spacing" textLength="389" x="428.5" y="659.0234">providerEventsManagerInstance : IProviderEventManager</text><line style="stroke:#272B30;stroke-width:0.5;" x1="409.5" x2="1101.5" y1="665.9766" y2="665.9766"/><ellipse cx="419.5" cy="679.7207" fill="#84BE84" rx="3" ry="3" style="stroke:#038048;stroke-width:1.0;"/><text fill="#000000" font-family="sans-serif" font-size="14" lengthAdjust="spacing" textLength="86" x="428.5" y="683.5117">build() : void</text><ellipse cx="419.5" cy="696.209" fill="#84BE84" rx="3" ry="3" style="stroke:#038048;stroke-width:1.0;"/><text fill="#000000" font-family="sans-serif" font-size="14" lengthAdjust="spacing" textLength="482" x="428.5" y="700">changeProperty(propertyName: string, propertyValue: unknown) : void</text><ellipse cx="419.5" cy="712.6973" fill="#84BE84" rx="3" ry="3" style="stroke:#038048;stroke-width:1.0;"/><text fill="#000000" font-family="sans-serif" font-size="14" lengthAdjust="spacing" textLength="236" x="428.5" y="716.4883">checkAddedProviderEvents() : void</text><ellipse cx="419.5" cy="729.1855" fill="#84BE84" rx="3" ry="3" style="stroke:#038048;stroke-width:1.0;"/><text fill="#000000" font-family="sans-serif" font-size="14" lengthAdjust="spacing" textLength="247" x="428.5" y="732.9766">checkPendingProviderEvents() : void</text><ellipse cx="419.5" cy="745.6738" fill="#84BE84" rx="3" ry="3" style="stroke:#038048;stroke-width:1.0;"/><text fill="#000000" font-family="sans-serif" font-size="14" lengthAdjust="spacing" textLength="104" x="428.5" y="749.4648">dispose() : void</text><ellipse cx="419.5" cy="762.1621" fill="#84BE84" rx="3" ry="3" style="stroke:#038048;stroke-width:1.0;"/><text fill="#000000" font-family="sans-serif" font-size="14" lengthAdjust="spacing" textLength="266" x="428.5" y="765.9531">equalsToID(patternId: string) : boolean</text><ellipse cx="419.5" cy="778.6504" fill="#84BE84" rx="3" ry="3" style="stroke:#038048;stroke-width:1.0;"/><text fill="#000000" font-family="sans-serif" font-size="14" font-style="italic" lengthAdjust="spacing" textLength="188" x="428.5" y="782.4414">goTo(index: number) : void</text><ellipse cx="419.5" cy="795.1387" fill="#84BE84" rx="3" ry="3" style="stroke:#038048;stroke-width:1.0;"/><text fill="#000000" font-family="sans-serif" font-size="14" font-style="italic" lengthAdjust="spacing" textLength="82" x="428.5" y="798.9297">next() : void</text><ellipse cx="419.5" cy="811.627" fill="#84BE84" rx="3" ry="3" style="stroke:#038048;stroke-width:1.0;"/><text fill="#000000" font-family="sans-serif" font-size="14" font-style="italic" lengthAdjust="spacing" textLength="110" x="428.5" y="815.418">previous() : void</text><ellipse cx="419.5" cy="828.1152" fill="#84BE84" rx="3" ry="3" style="stroke:#038048;stroke-width:1.0;"/><text fill="#000000" font-family="sans-serif" font-size="14" lengthAdjust="spacing" textLength="428" x="428.5" y="831.9063">registerCallback(eventName: string, callback: OSGeneric) : void</text><ellipse cx="419.5" cy="844.6035" fill="#84BE84" rx="3" ry="3" style="stroke:#038048;stroke-width:1.0;"/><text fill="#000000" font-family="sans-serif" font-size="14" font-style="italic" lengthAdjust="spacing" textLength="303" x="428.5" y="848.3945">setCarouselDirection(direction: string) : void</text><ellipse cx="419.5" cy="861.0918" fill="#84BE84" rx="3" ry="3" style="stroke:#038048;stroke-width:1.0;"/><text fill="#000000" font-family="sans-serif" font-size="14" lengthAdjust="spacing" textLength="364" x="428.5" y="864.8828">setProviderConfigs(providerConfigs: unknown) : void</text><ellipse cx="419.5" cy="877.5801" fill="#84BE84" rx="3" ry="3" style="stroke:#038048;stroke-width:1.0;"/><text fill="#000000" font-family="sans-serif" font-size="14" lengthAdjust="spacing" textLength="668" x="428.5" y="881.3711">setProviderEvent(eventName: string, callback: Generic, uniqueId: string, saveEvent: boolean) : void</text><ellipse cx="419.5" cy="894.0684" fill="#84BE84" rx="3" ry="3" style="stroke:#038048;stroke-width:1.0;"/><text fill="#000000" font-family="sans-serif" font-size="14" font-style="italic" lengthAdjust="spacing" textLength="249" x="428.5" y="897.8594">toggleDrag(hasDrag: boolean) : void</text><ellipse cx="419.5" cy="910.5566" fill="#84BE84" rx="3" ry="3" style="stroke:#038048;stroke-width:1.0;"/><text fill="#000000" font-family="sans-serif" font-size="14" font-style="italic" lengthAdjust="spacing" textLength="334" x="428.5" y="914.3477">toggleOnRender(blockOnRender: boolean) : void</text><ellipse cx="419.5" cy="927.0449" fill="#84BE84" rx="3" ry="3" style="stroke:#038048;stroke-width:1.0;"/><text fill="#000000" font-family="sans-serif" font-size="14" lengthAdjust="spacing" textLength="281" x="428.5" y="930.8359">unsetProviderEvent(eventId: string) : void</text><ellipse cx="419.5" cy="943.5332" fill="#84BE84" rx="3" ry="3" style="stroke:#038048;stroke-width:1.0;"/><text fill="#000000" font-family="sans-serif" font-size="14" font-style="italic" lengthAdjust="spacing" textLength="168" x="428.5" y="947.3242">updateOnRender() : void</text><ellipse cx="419.5" cy="960.0215" fill="#84BE84" rx="3" ry="3" style="stroke:#038048;stroke-width:1.0;"/><text fill="#000000" font-family="sans-serif" font-size="14" lengthAdjust="spacing" textLength="377" x="428.5" y="963.8125">updateProviderEvents(providerInfo: ProviderInfo) : void</text><polygon fill="#FFFF44" points="419.5,971.5098,423.5,975.5098,419.5,979.5098,415.5,975.5098" style="stroke:#B38D22;stroke-width:1.0;"/><text fill="#000000" font-family="sans-serif" font-size="14" lengthAdjust="spacing" textLength="123" x="428.5" y="980.3008">finishBuild() : void</text><polygon fill="#FFFF44" points="419.5,987.998,423.5,991.998,419.5,995.998,415.5,991.998" style="stroke:#B38D22;stroke-width:1.0;"/><text fill="#000000" font-family="sans-serif" font-size="14" font-style="italic" lengthAdjust="spacing" textLength="158" x="428.5" y="996.7891">prepareConfigs() : void</text><polygon fill="#FFFF44" points="419.5,1004.4863,423.5,1008.4863,419.5,1012.4863,415.5,1008.4863" style="stroke:#B38D22;stroke-width:1.0;"/><text fill="#000000" font-family="sans-serif" font-size="14" lengthAdjust="spacing" textLength="99" x="428.5" y="1013.2773">redraw() : void</text><polygon fill="#FFFF44" points="419.5,1020.9746,423.5,1024.9746,419.5,1028.9746,415.5,1024.9746" style="stroke:#B38D22;stroke-width:1.0;"/><text fill="#000000" font-family="sans-serif" font-size="14" font-style="italic" lengthAdjust="spacing" textLength="178" x="428.5" y="1029.7656">setA11YProperties() : void</text><polygon fill="#FFFF44" points="419.5,1037.4629,423.5,1041.4629,419.5,1045.4629,415.5,1041.4629" style="stroke:#B38D22;stroke-width:1.0;"/><text fill="#000000" font-family="sans-serif" font-size="14" font-style="italic" lengthAdjust="spacing" textLength="136" x="428.5" y="1046.2539">setCallbacks() : void</text><polygon fill="#FFFF44" points="419.5,1053.9512,423.5,1057.9512,419.5,1061.9512,415.5,1057.9512" style="stroke:#B38D22;stroke-width:1.0;"/><text fill="#000000" font-family="sans-serif" font-size="14" font-style="italic" lengthAdjust="spacing" textLength="165" x="428.5" y="1062.7422">setHtmlElements() : void</text><polygon fill="#FFFF44" points="419.5,1070.4395,423.5,1074.4395,419.5,1078.4395,415.5,1074.4395" style="stroke:#B38D22;stroke-width:1.0;"/><text fill="#000000" font-family="sans-serif" font-size="14" lengthAdjust="spacing" textLength="570" x="428.5" y="1079.2305">triggerPlatformEventCallback(platFormCallback: OSGeneric, args: unknown[]) : void</text><polygon fill="#FFFF44" points="419.5,1086.9277,423.5,1090.9277,419.5,1094.9277,415.5,1090.9277" style="stroke:#B38D22;stroke-width:1.0;"/><text fill="#000000" font-family="sans-serif" font-size="14" lengthAdjust="spacing" textLength="318" x="428.5" y="1095.7188">triggerPlatformInitializedEventCallback() : void</text><polygon fill="#FFFF44" points="419.5,1103.416,423.5,1107.416,419.5,1111.416,415.5,1107.416" style="stroke:#B38D22;stroke-width:1.0;"/><text fill="#000000" font-family="sans-serif" font-size="14" lengthAdjust="spacing" textLength="154" x="428.5" y="1112.207">unsetCallbacks() : void</text><polygon fill="#FFFF44" points="419.5,1119.9043,423.5,1123.9043,419.5,1127.9043,415.5,1123.9043" style="stroke:#B38D22;stroke-width:1.0;"/><text fill="#000000" font-family="sans-serif" font-size="14" lengthAdjust="spacing" textLength="198" x="428.5" y="1128.6953">unsetGlobalCallbacks() : void</text><polygon fill="#FFFF44" points="419.5,1136.3926,423.5,1140.3926,419.5,1144.3926,415.5,1140.3926" style="stroke:#B38D22;stroke-width:1.0;"/><text fill="#000000" font-family="sans-serif" font-size="14" font-style="italic" lengthAdjust="spacing" textLength="183" x="428.5" y="1145.1836">unsetHtmlElements() : void</text></g><!--class AbstractProviderPattern<P, C>--><g id="elem_AbstractProviderPattern&lt;P, C&gt;"><rect codeLine="40" fill="#FFFFFF" height="526.1602" id="AbstractProviderPattern&lt;P, C&gt;" rx="2.5" ry="2.5" style="stroke:#272B30;stroke-width:0.5;" width="787" x="9" y="7"/><ellipse cx="292.75" cy="23" fill="#A9DCDF" rx="11" ry="11" style="stroke:#181818;stroke-width:1.0;"/><path d="M292.6133,18.3481 L291.4595,23.4199 L293.7754,23.4199 Z M291.1191,16.1069 L294.1157,16.1069 L297.4609,28.5 L295.0122,28.5 L294.2485,25.437 L290.9697,25.437 L290.2227,28.5 L287.7739,28.5 Z " fill="#000000"/><text fill="#000000" font-family="sans-serif" font-size="14" font-style="italic" lengthAdjust="spacing" textLength="211" x="313.25" y="28.291">AbstractProviderPattern&lt;P, C&gt;</text><line style="stroke:#272B30;stroke-width:0.5;" x1="10" x2="795" y1="39" y2="39"/><polygon fill="none" points="20,47.7441,24,51.7441,20,55.7441,16,51.7441" style="stroke:#B38D22;stroke-width:1.0;"/><text fill="#000000" font-family="sans-serif" font-size="14" lengthAdjust="spacing" textLength="176" x="29" y="56.5352">isProviderBased : boolean</text><polygon fill="none" points="20,64.2324,24,68.2324,20,72.2324,16,68.2324" style="stroke:#B38D22;stroke-width:1.0;"/><text fill="#000000" font-family="sans-serif" font-size="14" lengthAdjust="spacing" textLength="389" x="29" y="73.0234">providerEventsManagerInstance : IProviderEventManager</text><rect fill="none" height="6" style="stroke:#C82930;stroke-width:1.0;" width="6" x="17" y="82.7207"/><text fill="#000000" font-family="sans-serif" font-size="14" lengthAdjust="spacing" textLength="407" x="29" y="89.5117">_platformEventProviderConfigsAppliedCallback : OSGeneric</text><rect fill="none" height="6" style="stroke:#C82930;stroke-width:1.0;" width="6" x="17" y="99.209"/><text fill="#000000" font-family="sans-serif" font-size="14" lengthAdjust="spacing" textLength="85" x="29" y="106">_provider : P</text><rect fill="none" height="6" style="stroke:#C82930;stroke-width:1.0;" width="6" x="17" y="115.6973"/><text fill="#000000" font-family="sans-serif" font-size="14" lengthAdjust="spacing" textLength="188" x="29" y="122.4883">_providerInfo : ProviderInfo</text><line style="stroke:#272B30;stroke-width:0.5;" x1="10" x2="795" y1="129.4414" y2="129.4414"/><ellipse cx="20" cy="143.1855" fill="#84BE84" rx="3" ry="3" style="stroke:#038048;stroke-width:1.0;"/><text fill="#000000" font-family="sans-serif" font-size="14" lengthAdjust="spacing" textLength="86" x="29" y="146.9766">build() : void</text><ellipse cx="20" cy="159.6738" fill="#84BE84" rx="3" ry="3" style="stroke:#038048;stroke-width:1.0;"/><text fill="#000000" font-family="sans-serif" font-size="14" lengthAdjust="spacing" textLength="482" x="29" y="163.4648">changeProperty(propertyName: string, propertyValue: unknown) : void</text><ellipse cx="20" cy="176.1621" fill="#84BE84" rx="3" ry="3" style="stroke:#038048;stroke-width:1.0;"/><text fill="#000000" font-family="sans-serif" font-size="14" lengthAdjust="spacing" textLength="236" x="29" y="179.9531">checkAddedProviderEvents() : void</text><ellipse cx="20" cy="192.6504" fill="#84BE84" rx="3" ry="3" style="stroke:#038048;stroke-width:1.0;"/><text fill="#000000" font-family="sans-serif" font-size="14" lengthAdjust="spacing" textLength="247" x="29" y="196.4414">checkPendingProviderEvents() : void</text><ellipse cx="20" cy="209.1387" fill="#84BE84" rx="3" ry="3" style="stroke:#038048;stroke-width:1.0;"/><text fill="#000000" font-family="sans-serif" font-size="14" lengthAdjust="spacing" textLength="104" x="29" y="212.9297">dispose() : void</text><ellipse cx="20" cy="225.627" fill="#84BE84" rx="3" ry="3" style="stroke:#038048;stroke-width:1.0;"/><text fill="#000000" font-family="sans-serif" font-size="14" lengthAdjust="spacing" textLength="266" x="29" y="229.418">equalsToID(patternId: string) : boolean</text><ellipse cx="20" cy="242.1152" fill="#84BE84" rx="3" ry="3" style="stroke:#038048;stroke-width:1.0;"/><text fill="#000000" font-family="sans-serif" font-size="14" lengthAdjust="spacing" textLength="428" x="29" y="245.9063">registerCallback(eventName: string, callback: OSGeneric) : void</text><ellipse cx="20" cy="258.6035" fill="#84BE84" rx="3" ry="3" style="stroke:#038048;stroke-width:1.0;"/><text fill="#000000" font-family="sans-serif" font-size="14" lengthAdjust="spacing" textLength="364" x="29" y="262.3945">setProviderConfigs(providerConfigs: unknown) : void</text><ellipse cx="20" cy="275.0918" fill="#84BE84" rx="3" ry="3" style="stroke:#038048;stroke-width:1.0;"/><text fill="#000000" font-family="sans-serif" font-size="14" lengthAdjust="spacing" textLength="668" x="29" y="278.8828">setProviderEvent(eventName: string, callback: Generic, uniqueId: string, saveEvent: boolean) : void</text><ellipse cx="20" cy="291.5801" fill="#84BE84" rx="3" ry="3" style="stroke:#038048;stroke-width:1.0;"/><text fill="#000000" font-family="sans-serif" font-size="14" lengthAdjust="spacing" textLength="281" x="29" y="295.3711">unsetProviderEvent(eventId: string) : void</text><ellipse cx="20" cy="308.0684" fill="#84BE84" rx="3" ry="3" style="stroke:#038048;stroke-width:1.0;"/><text fill="#000000" font-family="sans-serif" font-size="14" lengthAdjust="spacing" textLength="377" x="29" y="311.8594">updateProviderEvents(providerInfo: ProviderInfo) : void</text><polygon fill="#FFFF44" points="20,319.5566,24,323.5566,20,327.5566,16,323.5566" style="stroke:#B38D22;stroke-width:1.0;"/><text fill="#000000" font-family="sans-serif" font-size="14" lengthAdjust="spacing" textLength="123" x="29" y="328.3477">finishBuild() : void</text><polygon fill="#FFFF44" points="20,336.0449,24,340.0449,20,344.0449,16,340.0449" style="stroke:#B38D22;stroke-width:1.0;"/><text fill="#000000" font-family="sans-serif" font-size="14" font-style="italic" lengthAdjust="spacing" textLength="158" x="29" y="344.8359">prepareConfigs() : void</text><polygon fill="#FFFF44" points="20,352.5332,24,356.5332,20,360.5332,16,356.5332" style="stroke:#B38D22;stroke-width:1.0;"/><text fill="#000000" font-family="sans-serif" font-size="14" lengthAdjust="spacing" textLength="99" x="29" y="361.3242">redraw() : void</text><polygon fill="#FFFF44" points="20,369.0215,24,373.0215,20,377.0215,16,373.0215" style="stroke:#B38D22;stroke-width:1.0;"/><text fill="#000000" font-family="sans-serif" font-size="14" font-style="italic" lengthAdjust="spacing" textLength="178" x="29" y="377.8125">setA11YProperties() : void</text><polygon fill="#FFFF44" points="20,385.5098,24,389.5098,20,393.5098,16,389.5098" style="stroke:#B38D22;stroke-width:1.0;"/><text fill="#000000" font-family="sans-serif" font-size="14" font-style="italic" lengthAdjust="spacing" textLength="136" x="29" y="394.3008">setCallbacks() : void</text><polygon fill="#FFFF44" points="20,401.998,24,405.998,20,409.998,16,405.998" style="stroke:#B38D22;stroke-width:1.0;"/><text fill="#000000" font-family="sans-serif" font-size="14" font-style="italic" lengthAdjust="spacing" textLength="165" x="29" y="410.7891">setHtmlElements() : void</text><polygon fill="#FFFF44" points="20,418.4863,24,422.4863,20,426.4863,16,422.4863" style="stroke:#B38D22;stroke-width:1.0;"/><text fill="#000000" font-family="sans-serif" font-size="14" lengthAdjust="spacing" textLength="570" x="29" y="427.2773">triggerPlatformEventCallback(platFormCallback: OSGeneric, args: unknown[]) : void</text><polygon fill="#FFFF44" points="20,434.9746,24,438.9746,20,442.9746,16,438.9746" style="stroke:#B38D22;stroke-width:1.0;"/><text fill="#000000" font-family="sans-serif" font-size="14" lengthAdjust="spacing" textLength="318" x="29" y="443.7656">triggerPlatformInitializedEventCallback() : void</text><polygon fill="#FFFF44" points="20,451.4629,24,455.4629,20,459.4629,16,455.4629" style="stroke:#B38D22;stroke-width:1.0;"/><text fill="#000000" font-family="sans-serif" font-size="14" lengthAdjust="spacing" textLength="154" x="29" y="460.2539">unsetCallbacks() : void</text><polygon fill="#FFFF44" points="20,467.9512,24,471.9512,20,475.9512,16,471.9512" style="stroke:#B38D22;stroke-width:1.0;"/><text fill="#000000" font-family="sans-serif" font-size="14" lengthAdjust="spacing" textLength="198" x="29" y="476.7422">unsetGlobalCallbacks() : void</text><polygon fill="#FFFF44" points="20,484.4395,24,488.4395,20,492.4395,16,488.4395" style="stroke:#B38D22;stroke-width:1.0;"/><text fill="#000000" font-family="sans-serif" font-size="14" font-style="italic" lengthAdjust="spacing" textLength="183" x="29" y="493.2305">unsetHtmlElements() : void</text><rect fill="#F24D5C" height="6" style="stroke:#C82930;stroke-width:1.0;" width="6" x="17" y="502.9277"/><text fill="#000000" font-family="sans-serif" font-size="14" lengthAdjust="spacing" textLength="397" x="29" y="509.7188">_getEventIndexFromArray(event: IProviderEvent) : number</text><rect fill="#F24D5C" height="6" style="stroke:#C82930;stroke-width:1.0;" width="6" x="17" y="519.416"/><text fill="#000000" font-family="sans-serif" font-size="14" lengthAdjust="spacing" textLength="761" x="29" y="526.207">_handleProviderEventsAPI(eventName: string, callback: Generic, addEvent: boolean, event: IProviderEvent) : void</text></g><!--class ICarousel--><g id="elem_ICarousel"><rect codeLine="72" fill="#FFFFFF" height="361.2773" id="ICarousel" rx="2.5" ry="2.5" style="stroke:#272B30;stroke-width:0.5;" width="555" x="831" y="89.5"/><ellipse cx="1071.75" cy="105.5" fill="#B4A7E5" rx="11" ry="11" style="stroke:#181818;stroke-width:1.0;"/><path d="M1068.1777,101.7651 L1068.1777,99.6069 L1075.5571,99.6069 L1075.5571,101.7651 L1073.0918,101.7651 L1073.0918,109.8418 L1075.5571,109.8418 L1075.5571,112 L1068.1777,112 L1068.1777,109.8418 L1070.6431,109.8418 L1070.6431,101.7651 Z " fill="#000000"/><text fill="#000000" font-family="sans-serif" font-size="14" font-style="italic" lengthAdjust="spacing" textLength="65" x="1092.25" y="110.791">ICarousel</text><line style="stroke:#272B30;stroke-width:0.5;" x1="832" x2="1385" y1="121.5" y2="121.5"/><ellipse cx="842" cy="135.2441" fill="none" rx="3" ry="3" style="stroke:#038048;stroke-width:1.0;"/><text fill="#000000" font-family="sans-serif" font-size="14" lengthAdjust="spacing" textLength="109" x="851" y="139.0352">isBuilt : boolean</text><ellipse cx="842" cy="151.7324" fill="none" rx="3" ry="3" style="stroke:#038048;stroke-width:1.0;"/><text fill="#000000" font-family="sans-serif" font-size="14" lengthAdjust="spacing" textLength="184" x="851" y="155.5234">selfElement : HTMLElement</text><ellipse cx="842" cy="168.2207" fill="none" rx="3" ry="3" style="stroke:#038048;stroke-width:1.0;"/><text fill="#000000" font-family="sans-serif" font-size="14" lengthAdjust="spacing" textLength="113" x="851" y="172.0117">uniqueId : string</text><ellipse cx="842" cy="184.709" fill="none" rx="3" ry="3" style="stroke:#038048;stroke-width:1.0;"/><text fill="#000000" font-family="sans-serif" font-size="14" lengthAdjust="spacing" textLength="111" x="851" y="188.5">widgetId : string</text><line style="stroke:#272B30;stroke-width:0.5;" x1="832" x2="1385" y1="195.4531" y2="195.4531"/><ellipse cx="842" cy="209.1973" fill="#84BE84" rx="3" ry="3" style="stroke:#038048;stroke-width:1.0;"/><text fill="#000000" font-family="sans-serif" font-size="14" lengthAdjust="spacing" textLength="86" x="851" y="212.9883">build() : void</text><ellipse cx="842" cy="225.6855" fill="#84BE84" rx="3" ry="3" style="stroke:#038048;stroke-width:1.0;"/><text fill="#000000" font-family="sans-serif" font-size="14" lengthAdjust="spacing" textLength="482" x="851" y="229.4766">changeProperty(propertyName: string, propertyValue: unknown) : void</text><ellipse cx="842" cy="242.1738" fill="#84BE84" rx="3" ry="3" style="stroke:#038048;stroke-width:1.0;"/><text fill="#000000" font-family="sans-serif" font-size="14" lengthAdjust="spacing" textLength="104" x="851" y="245.9648">dispose() : void</text><ellipse cx="842" cy="258.6621" fill="#84BE84" rx="3" ry="3" style="stroke:#038048;stroke-width:1.0;"/><text fill="#000000" font-family="sans-serif" font-size="14" lengthAdjust="spacing" textLength="216" x="851" y="262.4531">equalsToID(id: string) : boolean</text><ellipse cx="842" cy="275.1504" fill="#84BE84" rx="3" ry="3" style="stroke:#038048;stroke-width:1.0;"/><text fill="#000000" font-family="sans-serif" font-size="14" lengthAdjust="spacing" textLength="188" x="851" y="278.9414">goTo(index: number) : void</text><ellipse cx="842" cy="291.6387" fill="#84BE84" rx="3" ry="3" style="stroke:#038048;stroke-width:1.0;"/><text fill="#000000" font-family="sans-serif" font-size="14" lengthAdjust="spacing" textLength="82" x="851" y="295.4297">next() : void</text><ellipse cx="842" cy="308.127" fill="#84BE84" rx="3" ry="3" style="stroke:#038048;stroke-width:1.0;"/><text fill="#000000" font-family="sans-serif" font-size="14" lengthAdjust="spacing" textLength="110" x="851" y="311.918">previous() : void</text><ellipse cx="842" cy="324.6152" fill="#84BE84" rx="3" ry="3" style="stroke:#038048;stroke-width:1.0;"/><text fill="#000000" font-family="sans-serif" font-size="14" lengthAdjust="spacing" textLength="428" x="851" y="328.4063">registerCallback(eventName: string, callback: OSGeneric) : void</text><ellipse cx="842" cy="341.1035" fill="#84BE84" rx="3" ry="3" style="stroke:#038048;stroke-width:1.0;"/><text fill="#000000" font-family="sans-serif" font-size="14" lengthAdjust="spacing" textLength="303" x="851" y="344.8945">setCarouselDirection(direction: string) : void</text><ellipse cx="842" cy="357.5918" fill="#84BE84" rx="3" ry="3" style="stroke:#038048;stroke-width:1.0;"/><text fill="#000000" font-family="sans-serif" font-size="14" lengthAdjust="spacing" textLength="324" x="851" y="361.3828">setProviderConfigs(providerConfigs: any) : void</text><ellipse cx="842" cy="374.0801" fill="#84BE84" rx="3" ry="3" style="stroke:#038048;stroke-width:1.0;"/><text fill="#000000" font-family="sans-serif" font-size="14" lengthAdjust="spacing" textLength="529" x="851" y="377.8711">setProviderEvent(eventName: string, callback: Generic, uniqueId: string) : void</text><ellipse cx="842" cy="390.5684" fill="#84BE84" rx="3" ry="3" style="stroke:#038048;stroke-width:1.0;"/><text fill="#000000" font-family="sans-serif" font-size="14" lengthAdjust="spacing" textLength="249" x="851" y="394.3594">toggleDrag(hasDrag: boolean) : void</text><ellipse cx="842" cy="407.0566" fill="#84BE84" rx="3" ry="3" style="stroke:#038048;stroke-width:1.0;"/><text fill="#000000" font-family="sans-serif" font-size="14" lengthAdjust="spacing" textLength="334" x="851" y="410.8477">toggleOnRender(blockOnRender: boolean) : void</text><ellipse cx="842" cy="423.5449" fill="#84BE84" rx="3" ry="3" style="stroke:#038048;stroke-width:1.0;"/><text fill="#000000" font-family="sans-serif" font-size="14" lengthAdjust="spacing" textLength="281" x="851" y="427.3359">unsetProviderEvent(eventId: string) : void</text><ellipse cx="842" cy="440.0332" fill="#84BE84" rx="3" ry="3" style="stroke:#038048;stroke-width:1.0;"/><text fill="#000000" font-family="sans-serif" font-size="14" lengthAdjust="spacing" textLength="168" x="851" y="443.8242">updateOnRender() : void</text></g><!--class OSUISplide--><g id="elem_OSUISplide"><rect codeLine="94" fill="#FFFFFF" height="872.4141" id="OSUISplide" rx="2.5" ry="2.5" style="stroke:#272B30;stroke-width:0.5;" width="694" x="408.5" y="1212"/><ellipse cx="713.75" cy="1228" fill="#ADD1B2" rx="11" ry="11" style="stroke:#181818;stroke-width:1.0;"/><path d="M716.2231,1234.1431 Q715.6421,1234.4419 715.0029,1234.5913 Q714.3638,1234.7407 713.6582,1234.7407 Q711.1514,1234.7407 709.8315,1233.0889 Q708.5117,1231.437 708.5117,1228.3159 Q708.5117,1225.1865 709.8315,1223.5347 Q711.1514,1221.8828 713.6582,1221.8828 Q714.3638,1221.8828 715.0112,1222.0322 Q715.6587,1222.1816 716.2231,1222.4805 L716.2231,1225.2031 Q715.5923,1224.6221 714.9988,1224.3523 Q714.4053,1224.0825 713.7744,1224.0825 Q712.4297,1224.0825 711.7449,1225.1492 Q711.0601,1226.2158 711.0601,1228.3159 Q711.0601,1230.4077 711.7449,1231.4744 Q712.4297,1232.541 713.7744,1232.541 Q714.4053,1232.541 714.9988,1232.2712 Q715.5923,1232.0015 716.2231,1231.4204 Z " fill="#000000"/><text fill="#000000" font-family="sans-serif" font-size="14" lengthAdjust="spacing" textLength="75" x="734.25" y="1233.291">OSUISplide</text><line style="stroke:#272B30;stroke-width:0.5;" x1="409.5" x2="1101.5" y1="1244" y2="1244"/><polygon fill="none" points="419.5,1252.7441,423.5,1256.7441,419.5,1260.7441,415.5,1256.7441" style="stroke:#B38D22;stroke-width:1.0;"/><text fill="#000000" font-family="sans-serif" font-size="14" lengthAdjust="spacing" textLength="176" x="428.5" y="1261.5352">isProviderBased : boolean</text><polygon fill="none" points="419.5,1269.2324,423.5,1273.2324,419.5,1277.2324,415.5,1273.2324" style="stroke:#B38D22;stroke-width:1.0;"/><text fill="#000000" font-family="sans-serif" font-size="14" lengthAdjust="spacing" textLength="389" x="428.5" y="1278.0234">providerEventsManagerInstance : IProviderEventManager</text><rect fill="none" height="6" style="stroke:#C82930;stroke-width:1.0;" width="6" x="416.5" y="1287.7207"/><text fill="#000000" font-family="sans-serif" font-size="14" lengthAdjust="spacing" textLength="181" x="428.5" y="1294.5117">_blockOnRender : boolean</text><rect fill="none" height="6" style="stroke:#C82930;stroke-width:1.0;" width="6" x="416.5" y="1304.209"/><text fill="#000000" font-family="sans-serif" font-size="14" lengthAdjust="spacing" textLength="273" x="428.5" y="1311">_carouselListWidgetElem : HTMLElement</text><rect fill="none" height="6" style="stroke:#C82930;stroke-width:1.0;" width="6" x="416.5" y="1320.6973"/><text fill="#000000" font-family="sans-serif" font-size="14" lengthAdjust="spacing" textLength="283" x="428.5" y="1327.4883">_carouselPlaceholderElem : HTMLElement</text><rect fill="none" height="6" style="stroke:#C82930;stroke-width:1.0;" width="6" x="416.5" y="1337.1855"/><text fill="#000000" font-family="sans-serif" font-size="14" lengthAdjust="spacing" textLength="260" x="428.5" y="1343.9766">_carouselProviderElem : HTMLElement</text><rect fill="none" height="6" style="stroke:#C82930;stroke-width:1.0;" width="6" x="416.5" y="1353.6738"/><text fill="#000000" font-family="sans-serif" font-size="14" lengthAdjust="spacing" textLength="241" x="428.5" y="1360.4648">_carouselTrackElem : HTMLElement</text><rect fill="none" height="6" style="stroke:#C82930;stroke-width:1.0;" width="6" x="416.5" y="1370.1621"/><text fill="#000000" font-family="sans-serif" font-size="14" lengthAdjust="spacing" textLength="162" x="428.5" y="1376.9531">_currentIndex : number</text><rect fill="none" height="6" style="stroke:#C82930;stroke-width:1.0;" width="6" x="416.5" y="1386.6504"/><text fill="#000000" font-family="sans-serif" font-size="14" lengthAdjust="spacing" textLength="172" x="428.5" y="1393.4414">_eventOnResize : Generic</text><rect fill="none" height="6" style="stroke:#C82930;stroke-width:1.0;" width="6" x="416.5" y="1403.1387"/><text fill="#000000" font-family="sans-serif" font-size="14" lengthAdjust="spacing" textLength="122" x="428.5" y="1409.9297">_hasList : boolean</text><rect fill="none" height="6" style="stroke:#C82930;stroke-width:1.0;" width="6" x="416.5" y="1419.627"/><text fill="#000000" font-family="sans-serif" font-size="14" lengthAdjust="spacing" textLength="367" x="428.5" y="1426.418">_platformEventOnSlideMoved : OSOnSlideMovedEvent</text><rect fill="none" height="6" style="stroke:#C82930;stroke-width:1.0;" width="6" x="416.5" y="1436.1152"/><text fill="#000000" font-family="sans-serif" font-size="14" lengthAdjust="spacing" textLength="168" x="428.5" y="1442.9063">_splideOptions : Options</text><line style="stroke:#272B30;stroke-width:0.5;" x1="409.5" x2="1101.5" y1="1449.8594" y2="1449.8594"/><ellipse cx="419.5" cy="1463.6035" fill="#84BE84" rx="3" ry="3" style="stroke:#038048;stroke-width:1.0;"/><text fill="#000000" font-family="sans-serif" font-size="14" lengthAdjust="spacing" textLength="86" x="428.5" y="1467.3945">build() : void</text><ellipse cx="419.5" cy="1480.0918" fill="#84BE84" rx="3" ry="3" style="stroke:#038048;stroke-width:1.0;"/><text fill="#000000" font-family="sans-serif" font-size="14" lengthAdjust="spacing" textLength="482" x="428.5" y="1483.8828">changeProperty(propertyName: string, propertyValue: unknown) : void</text><ellipse cx="419.5" cy="1496.5801" fill="#84BE84" rx="3" ry="3" style="stroke:#038048;stroke-width:1.0;"/><text fill="#000000" font-family="sans-serif" font-size="14" lengthAdjust="spacing" textLength="236" x="428.5" y="1500.3711">checkAddedProviderEvents() : void</text><ellipse cx="419.5" cy="1513.0684" fill="#84BE84" rx="3" ry="3" style="stroke:#038048;stroke-width:1.0;"/><text fill="#000000" font-family="sans-serif" font-size="14" lengthAdjust="spacing" textLength="247" x="428.5" y="1516.8594">checkPendingProviderEvents() : void</text><ellipse cx="419.5" cy="1529.5566" fill="#84BE84" rx="3" ry="3" style="stroke:#038048;stroke-width:1.0;"/><text fill="#000000" font-family="sans-serif" font-size="14" lengthAdjust="spacing" textLength="104" x="428.5" y="1533.3477">dispose() : void</text><ellipse cx="419.5" cy="1546.0449" fill="#84BE84" rx="3" ry="3" style="stroke:#038048;stroke-width:1.0;"/><text fill="#000000" font-family="sans-serif" font-size="14" lengthAdjust="spacing" textLength="266" x="428.5" y="1549.8359">equalsToID(patternId: string) : boolean</text><ellipse cx="419.5" cy="1562.5332" fill="#84BE84" rx="3" ry="3" style="stroke:#038048;stroke-width:1.0;"/><text fill="#000000" font-family="sans-serif" font-size="14" lengthAdjust="spacing" textLength="188" x="428.5" y="1566.3242">goTo(index: number) : void</text><ellipse cx="419.5" cy="1579.0215" fill="#84BE84" rx="3" ry="3" style="stroke:#038048;stroke-width:1.0;"/><text fill="#000000" font-family="sans-serif" font-size="14" lengthAdjust="spacing" textLength="82" x="428.5" y="1582.8125">next() : void</text><ellipse cx="419.5" cy="1595.5098" fill="#84BE84" rx="3" ry="3" style="stroke:#038048;stroke-width:1.0;"/><text fill="#000000" font-family="sans-serif" font-size="14" lengthAdjust="spacing" textLength="110" x="428.5" y="1599.3008">previous() : void</text><ellipse cx="419.5" cy="1611.998" fill="#84BE84" rx="3" ry="3" style="stroke:#038048;stroke-width:1.0;"/><text fill="#000000" font-family="sans-serif" font-size="14" lengthAdjust="spacing" textLength="428" x="428.5" y="1615.7891">registerCallback(eventName: string, callback: OSGeneric) : void</text><ellipse cx="419.5" cy="1628.4863" fill="#84BE84" rx="3" ry="3" style="stroke:#038048;stroke-width:1.0;"/><text fill="#000000" font-family="sans-serif" font-size="14" lengthAdjust="spacing" textLength="303" x="428.5" y="1632.2773">setCarouselDirection(direction: string) : void</text><ellipse cx="419.5" cy="1644.9746" fill="#84BE84" rx="3" ry="3" style="stroke:#038048;stroke-width:1.0;"/><text fill="#000000" font-family="sans-serif" font-size="14" lengthAdjust="spacing" textLength="324" x="428.5" y="1648.7656">setProviderConfigs(newConfigs: Options) : void</text><ellipse cx="419.5" cy="1661.4629" fill="#84BE84" rx="3" ry="3" style="stroke:#038048;stroke-width:1.0;"/><text fill="#000000" font-family="sans-serif" font-size="14" lengthAdjust="spacing" textLength="668" x="428.5" y="1665.2539">setProviderEvent(eventName: string, callback: Generic, uniqueId: string, saveEvent: boolean) : void</text><ellipse cx="419.5" cy="1677.9512" fill="#84BE84" rx="3" ry="3" style="stroke:#038048;stroke-width:1.0;"/><text fill="#000000" font-family="sans-serif" font-size="14" lengthAdjust="spacing" textLength="249" x="428.5" y="1681.7422">toggleDrag(hasDrag: boolean) : void</text><ellipse cx="419.5" cy="1694.4395" fill="#84BE84" rx="3" ry="3" style="stroke:#038048;stroke-width:1.0;"/><text fill="#000000" font-family="sans-serif" font-size="14" lengthAdjust="spacing" textLength="334" x="428.5" y="1698.2305">toggleOnRender(blockOnRender: boolean) : void</text><ellipse cx="419.5" cy="1710.9277" fill="#84BE84" rx="3" ry="3" style="stroke:#038048;stroke-width:1.0;"/><text fill="#000000" font-family="sans-serif" font-size="14" lengthAdjust="spacing" textLength="281" x="428.5" y="1714.7188">unsetProviderEvent(eventId: string) : void</text><ellipse cx="419.5" cy="1727.416" fill="#84BE84" rx="3" ry="3" style="stroke:#038048;stroke-width:1.0;"/><text fill="#000000" font-family="sans-serif" font-size="14" lengthAdjust="spacing" textLength="168" x="428.5" y="1731.207">updateOnRender() : void</text><ellipse cx="419.5" cy="1743.9043" fill="#84BE84" rx="3" ry="3" style="stroke:#038048;stroke-width:1.0;"/><text fill="#000000" font-family="sans-serif" font-size="14" lengthAdjust="spacing" textLength="377" x="428.5" y="1747.6953">updateProviderEvents(providerInfo: ProviderInfo) : void</text><polygon fill="#FFFF44" points="419.5,1755.3926,423.5,1759.3926,419.5,1763.3926,415.5,1759.3926" style="stroke:#B38D22;stroke-width:1.0;"/><text fill="#000000" font-family="sans-serif" font-size="14" lengthAdjust="spacing" textLength="123" x="428.5" y="1764.1836">finishBuild() : void</text><polygon fill="#FFFF44" points="419.5,1771.8809,423.5,1775.8809,419.5,1779.8809,415.5,1775.8809" style="stroke:#B38D22;stroke-width:1.0;"/><text fill="#000000" font-family="sans-serif" font-size="14" lengthAdjust="spacing" textLength="158" x="428.5" y="1780.6719">prepareConfigs() : void</text><polygon fill="#FFFF44" points="419.5,1788.3691,423.5,1792.3691,419.5,1796.3691,415.5,1792.3691" style="stroke:#B38D22;stroke-width:1.0;"/><text fill="#000000" font-family="sans-serif" font-size="14" lengthAdjust="spacing" textLength="99" x="428.5" y="1797.1602">redraw() : void</text><polygon fill="#FFFF44" points="419.5,1804.8574,423.5,1808.8574,419.5,1812.8574,415.5,1808.8574" style="stroke:#B38D22;stroke-width:1.0;"/><text fill="#000000" font-family="sans-serif" font-size="14" lengthAdjust="spacing" textLength="178" x="428.5" y="1813.6484">setA11YProperties() : void</text><polygon fill="#FFFF44" points="419.5,1821.3457,423.5,1825.3457,419.5,1829.3457,415.5,1825.3457" style="stroke:#B38D22;stroke-width:1.0;"/><text fill="#000000" font-family="sans-serif" font-size="14" lengthAdjust="spacing" textLength="136" x="428.5" y="1830.1367">setCallbacks() : void</text><polygon fill="#FFFF44" points="419.5,1837.834,423.5,1841.834,419.5,1845.834,415.5,1841.834" style="stroke:#B38D22;stroke-width:1.0;"/><text fill="#000000" font-family="sans-serif" font-size="14" lengthAdjust="spacing" textLength="165" x="428.5" y="1846.625">setHtmlElements() : void</text><polygon fill="#FFFF44" points="419.5,1854.3223,423.5,1858.3223,419.5,1862.3223,415.5,1858.3223" style="stroke:#B38D22;stroke-width:1.0;"/><text fill="#000000" font-family="sans-serif" font-size="14" lengthAdjust="spacing" textLength="184" x="428.5" y="1863.1133">setInitialCssClasses() : void</text><polygon fill="#FFFF44" points="419.5,1870.8105,423.5,1874.8105,419.5,1878.8105,415.5,1874.8105" style="stroke:#B38D22;stroke-width:1.0;"/><text fill="#000000" font-family="sans-serif" font-size="14" lengthAdjust="spacing" textLength="570" x="428.5" y="1879.6016">triggerPlatformEventCallback(platFormCallback: OSGeneric, args: unknown[]) : void</text><polygon fill="#FFFF44" points="419.5,1887.2988,423.5,1891.2988,419.5,1895.2988,415.5,1891.2988" style="stroke:#B38D22;stroke-width:1.0;"/><text fill="#000000" font-family="sans-serif" font-size="14" lengthAdjust="spacing" textLength="318" x="428.5" y="1896.0898">triggerPlatformInitializedEventCallback() : void</text><polygon fill="#FFFF44" points="419.5,1903.7871,423.5,1907.7871,419.5,1911.7871,415.5,1907.7871" style="stroke:#B38D22;stroke-width:1.0;"/><text fill="#000000" font-family="sans-serif" font-size="14" lengthAdjust="spacing" textLength="154" x="428.5" y="1912.5781">unsetCallbacks() : void</text><polygon fill="#FFFF44" points="419.5,1920.2754,423.5,1924.2754,419.5,1928.2754,415.5,1924.2754" style="stroke:#B38D22;stroke-width:1.0;"/><text fill="#000000" font-family="sans-serif" font-size="14" lengthAdjust="spacing" textLength="198" x="428.5" y="1929.0664">unsetGlobalCallbacks() : void</text><polygon fill="#FFFF44" points="419.5,1936.7637,423.5,1940.7637,419.5,1944.7637,415.5,1940.7637" style="stroke:#B38D22;stroke-width:1.0;"/><text fill="#000000" font-family="sans-serif" font-size="14" lengthAdjust="spacing" textLength="183" x="428.5" y="1945.5547">unsetHtmlElements() : void</text><rect fill="#F24D5C" height="6" style="stroke:#C82930;stroke-width:1.0;" width="6" x="416.5" y="1955.252"/><text fill="#000000" font-family="sans-serif" font-size="14" lengthAdjust="spacing" textLength="167" x="428.5" y="1962.043">_checkListWidget() : void</text><rect fill="#F24D5C" height="6" style="stroke:#C82930;stroke-width:1.0;" width="6" x="416.5" y="1971.7402"/><text fill="#000000" font-family="sans-serif" font-size="14" lengthAdjust="spacing" textLength="137" x="428.5" y="1978.5313">_initProvider() : void</text><rect fill="#F24D5C" height="6" style="stroke:#C82930;stroke-width:1.0;" width="6" x="416.5" y="1988.2285"/><text fill="#000000" font-family="sans-serif" font-size="14" lengthAdjust="spacing" textLength="210" x="428.5" y="1995.0195">_prepareCarouselItems() : void</text><rect fill="#F24D5C" height="6" style="stroke:#C82930;stroke-width:1.0;" width="6" x="416.5" y="2004.7168"/><text fill="#000000" font-family="sans-serif" font-size="14" lengthAdjust="spacing" textLength="215" x="428.5" y="2011.5078">_redefineCarouselWidth() : void</text><rect fill="#F24D5C" height="6" style="stroke:#C82930;stroke-width:1.0;" width="6" x="416.5" y="2021.2051"/><text fill="#000000" font-family="sans-serif" font-size="14" lengthAdjust="spacing" textLength="178" x="428.5" y="2027.9961">_setCarouselWidth() : void</text><rect fill="#F24D5C" height="6" style="stroke:#C82930;stroke-width:1.0;" width="6" x="416.5" y="2037.6934"/><text fill="#000000" font-family="sans-serif" font-size="14" lengthAdjust="spacing" textLength="202" x="428.5" y="2044.4844">_setOnInitializedEvent() : void</text><rect fill="#F24D5C" height="6" style="stroke:#C82930;stroke-width:1.0;" width="6" x="416.5" y="2054.1816"/><text fill="#000000" font-family="sans-serif" font-size="14" lengthAdjust="spacing" textLength="213" x="428.5" y="2060.9727">_setOnSlideMovedEvent() : void</text><rect fill="#F24D5C" height="6" style="stroke:#C82930;stroke-width:1.0;" width="6" x="416.5" y="2070.6699"/><text fill="#000000" font-family="sans-serif" font-size="14" lengthAdjust="spacing" textLength="211" x="428.5" y="2077.4609">_togglePaginationClass() : void</text></g><!--reverse link AbstractProviderPattern<P, C> to AbstractCarousel<P, C>--><g id="link_AbstractProviderPattern&lt;P, C&gt;_AbstractCarousel&lt;P, C&gt;"><path codeLine="71" d="M566.92,550.71 C575.13,564.66 583.36,578.67 591.56,592.62 " fill="none" id="AbstractProviderPattern&lt;P, C&gt;-backto-AbstractCarousel&lt;P, C&gt;" style="stroke:#272B30;stroke-width:1.0;"/><polygon fill="none" points="560.66,553.87,556.56,533.08,572.73,546.77,560.66,553.87" style="stroke:#272B30;stroke-width:1.0;"/></g><!--reverse link ICarousel to AbstractCarousel<P, C>--><g id="link_ICarousel_AbstractCarousel&lt;P, C&gt;"><path codeLine="93" d="M992.54,468.27 C969.1,508.14 944.04,550.76 919.32,592.82 " fill="none" id="ICarousel-backto-AbstractCarousel&lt;P, C&gt;" style="stroke:#272B30;stroke-width:1.0;stroke-dasharray:7.0,7.0;"/><polygon fill="none" points="986.66,464.46,1002.83,450.76,998.73,471.55,986.66,464.46" style="stroke:#272B30;stroke-width:1.0;"/></g><!--reverse link AbstractCarousel<P, C> to OSUISplide--><g id="link_AbstractCarousel&lt;P, C&gt;_OSUISplide"><path codeLine="146" d="M755.5,1172.54 C755.5,1185.56 755.5,1198.72 755.5,1211.96 " fill="none" id="AbstractCarousel&lt;P, C&gt;-backto-OSUISplide" style="stroke:#272B30;stroke-width:1.0;"/><polygon fill="none" points="748.5,1172.2,755.5,1152.2,762.5,1172.2,748.5,1172.2" style="stroke:#272B30;stroke-width:1.0;"/></g><!--SRC=[xLXRRzis57xFho2I5nLnYhKRCC081ZXEBmAQMPZJ3iCm5BHu91EcI9Max6Pj__kEBhGbsh9JOCwsPdc9T6xakNtwOBFWCgUQPcGig34ZhTLgh8JIvEpvZyzdttztOheMLqepqFjDQBn8jIeaQyoI96dPRAbZO3ymUZBd30XakRqZ6TYvOgOjIZW8bD2PiPh6biJbIUHqrBoFAKOq82wZ0Hd_T4e-dH3yE-Ccqcg9KVGLDS38aCoK4a1bhSuRvOibI6jkgAGfw50QIsKCQ1n6ROD6NxcUpmekMF04ZPQAireMpwbC0NroqFOko9k7dsa6GuBtv38T42TzHqM1ua8kf5f9Fn34Yn5Zm3eNCC4EimWamy1x3HatkJBWIU53GOMvLU5ra5DhGSkGkNi-yKhroHN-2pbFrQqAk6JmSKXaaSr0T-AsJILyj46lDjUmvDWsxruQKcxmEcCgn0o79O0ofsuLuqOt99FfAv2WUTnxZ87rU5np3R7bIWRCFRKptjm1VLn5nqecF3L1tdtlQLtBiMh5_iitLnzWBFwXW4tz1yJG9LGHreteJT2gD1LmhMaQpAaf_z_NPo9_mV417So4YXVkRRVtUI5t9zUTcfsd5JcZTdEQ5xTIUWFigXtAH0r9r7hhE9ybN78plzhUnjRnkEU0s0Ekazq86fYcgtvdJ7hqxDblpLfpC7jDtT3kjtfjC_52GBQzgsTOo1HH9XBK9afdLJdMcv2Zz2LAnzlZFo1KjwRozp_sXWqbjvmA_YUmxWbThwhbFIdLobT2pQYuHzQLzUwyl_J2kkjxLEFJGw7xnVkyNNuF2KPvBZWmbpDfDS5vDmweYZnHES6aEz2FyeFojw3yln-clnOq_mV3nmw6DLoaOAkhX2NDUgbLXioStjMZuoDNwLhpiCOPKOC9RuP6KNZF6QUCTGTwG7gFRU3x45vVVhwuwENg9roYRK8Haqz3ftCOVyvDESxMHmyqIPhQeUhrxSsRvirjNRsdn6LQYrUSOM6tn4U5teDGoVinyW3Jta6lZycfZqQagRmx2ZftWzwN9Jy0DUxbmxXAhHMu_FpqQV_QD5HfCdqRJf6GC7W8NjGfXXVuudtSNF4DpjglrQwLMxbZGJUcYC4np9KeZpjew-vroF0MwxNejogqTj3gGsVLjJ8_Wry3ifwjDR2QChMjl3jiSIAdPJTkrB8g_MJQ5bGMZPUfkZR9o-KnfMNzz3ZfuBS9TH9MQvHhsliFyT3_0leTaG1_FUizH7NtyDi3f1Qr3UCS6rFzOWhVCkyzJ7OhdDbyCtmrzdGzNRxEjRNPrT12jXKUkmiu66iZFCNEVQFMmlVf9z8ls4uZ3-nzctg_8ffoIKj0g0OWs4Mc_T-qQnRT-jx_1G00]--></g></svg>