<?xml version="1.0" encoding="us-ascii" standalone="no"?><svg xmlns="http://www.w3.org/2000/svg" xmlns:xlink="http://www.w3.org/1999/xlink" contentStyleType="text/css" height="750px" preserveAspectRatio="none" style="width:859px;height:750px;background:#CED4DA;" version="1.1" viewBox="0 0 859 750" width="859px" zoomAndPan="magnify"><defs/><g><rect fill="#CED4DA" height="750" style="stroke:none;stroke-width:1.0;" width="859" x="0" y="0"/><!--class AbstractMutationObserver--><g id="elem_AbstractMutationObserver"><rect codeLine="7" fill="#FFFFFF" height="194.6719" id="AbstractMutationObserver" rx="2.5" ry="2.5" style="stroke:#272B30;stroke-width:0.5;" width="406" x="227" y="278"/><ellipse cx="335.75" cy="294" fill="#A9DCDF" rx="11" ry="11" style="stroke:#181818;stroke-width:1.0;"/><path d="M335.8594,289.3438 L334.7031,294.4219 L337.0313,294.4219 L335.8594,289.3438 Z M334.375,287.1094 L337.3594,287.1094 L340.7188,299.5 L338.2656,299.5 L337.5,296.4375 L334.2188,296.4375 L333.4688,299.5 L331.0313,299.5 L334.375,287.1094 Z " fill="#000000"/><text fill="#000000" font-family="sans-serif" font-size="14" font-style="italic" lengthAdjust="spacing" textLength="180" x="356.25" y="298.8467">AbstractMutationObserver</text><line style="stroke:#272B30;stroke-width:0.5;" x1="228" x2="632" y1="310" y2="310"/><polygon fill="none" points="238,318.6484,242,322.6484,238,326.6484,234,322.6484" style="stroke:#B38D22;stroke-width:1.0;"/><text fill="#000000" font-family="sans-serif" font-size="14" lengthAdjust="spacing" textLength="320" x="247" y="326.9951">observer : ResizeObserver | MutationObserver</text><line style="stroke:#272B30;stroke-width:0.5;" x1="228" x2="632" y1="334.2969" y2="334.2969"/><ellipse cx="238" cy="347.9453" fill="#84BE84" rx="3" ry="3" style="stroke:#038048;stroke-width:1.0;"/><text fill="#000000" font-family="sans-serif" font-size="14" lengthAdjust="spacing" textLength="116" x="247" y="351.292">addEvent() : void</text><ellipse cx="238" cy="364.2422" fill="#84BE84" rx="3" ry="3" style="stroke:#038048;stroke-width:1.0;"/><text fill="#000000" font-family="sans-serif" font-size="14" lengthAdjust="spacing" textLength="265" x="247" y="367.5889">addHandler(handler: OSGeneric) : void</text><ellipse cx="238" cy="380.5391" fill="#84BE84" rx="3" ry="3" style="stroke:#038048;stroke-width:1.0;"/><text fill="#000000" font-family="sans-serif" font-size="14" lengthAdjust="spacing" textLength="165" x="247" y="383.8857">hasHandlers() : boolean</text><ellipse cx="238" cy="396.8359" fill="#84BE84" rx="3" ry="3" style="stroke:#038048;stroke-width:1.0;"/><text fill="#000000" font-family="sans-serif" font-size="14" lengthAdjust="spacing" textLength="142" x="247" y="400.1826">removeEvent() : void</text><ellipse cx="238" cy="413.1328" fill="#84BE84" rx="3" ry="3" style="stroke:#038048;stroke-width:1.0;"/><text fill="#000000" font-family="sans-serif" font-size="14" lengthAdjust="spacing" textLength="291" x="247" y="416.4795">removeHandler(handler: OSGeneric) : void</text><ellipse cx="238" cy="429.4297" fill="#84BE84" rx="3" ry="3" style="stroke:#038048;stroke-width:1.0;"/><text fill="#000000" font-family="sans-serif" font-size="14" lengthAdjust="spacing" textLength="295" x="247" y="432.7764">trigger(data: string, args: unknown[]) : void</text><polygon fill="#FFFF44" points="238,440.7266,242,444.7266,238,448.7266,234,444.7266" style="stroke:#B38D22;stroke-width:1.0;"/><text fill="#000000" font-family="sans-serif" font-size="14" font-style="italic" lengthAdjust="spacing" textLength="380" x="247" y="449.0732">observerHandler(mutationList: MutationRecord[]) : void</text><polygon fill="#FFFF44" points="238,457.0234,242,461.0234,238,465.0234,234,461.0234" style="stroke:#B38D22;stroke-width:1.0;"/><text fill="#000000" font-family="sans-serif" font-size="14" lengthAdjust="spacing" textLength="145" x="247" y="465.3701">startObserver() : void</text></g><!--class AbstractObserver<MutationObserverInit>--><g id="elem_AbstractObserver&lt;MutationObserverInit&gt;"><rect codeLine="18" fill="#FFFFFF" height="210.9688" id="AbstractObserver&lt;MutationObserverInit&gt;" rx="2.5" ry="2.5" style="stroke:#272B30;stroke-width:0.5;" width="346" x="257" y="7"/><ellipse cx="283.7" cy="23" fill="#A9DCDF" rx="11" ry="11" style="stroke:#181818;stroke-width:1.0;"/><path d="M283.8094,18.3438 L282.6531,23.4219 L284.9813,23.4219 L283.8094,18.3438 Z M282.325,16.1094 L285.3094,16.1094 L288.6688,28.5 L286.2156,28.5 L285.45,25.4375 L282.1688,25.4375 L281.4188,28.5 L278.9813,28.5 L282.325,16.1094 Z " fill="#000000"/><text fill="#000000" font-family="sans-serif" font-size="14" font-style="italic" lengthAdjust="spacing" textLength="288" x="300.3" y="27.8467">AbstractObserver&lt;MutationObserverInit&gt;</text><line style="stroke:#272B30;stroke-width:0.5;" x1="258" x2="602" y1="39" y2="39"/><polygon fill="none" points="268,47.6484,272,51.6484,268,55.6484,264,51.6484" style="stroke:#B38D22;stroke-width:1.0;"/><text fill="#000000" font-family="sans-serif" font-size="14" lengthAdjust="spacing" textLength="320" x="277" y="55.9951">observer : ResizeObserver | MutationObserver</text><rect fill="none" height="6" style="stroke:#C82930;stroke-width:1.0;" width="6" x="265" y="65.9453"/><text fill="#000000" font-family="sans-serif" font-size="14" lengthAdjust="spacing" textLength="278" x="277" y="72.292">_observerOptions : MutationObserverInit</text><rect fill="none" height="6" style="stroke:#C82930;stroke-width:1.0;" width="6" x="265" y="82.2422"/><text fill="#000000" font-family="sans-serif" font-size="14" lengthAdjust="spacing" textLength="221" x="277" y="88.5889">_observerTarget : HTMLElement</text><line style="stroke:#272B30;stroke-width:0.5;" x1="258" x2="602" y1="95.8906" y2="95.8906"/><ellipse cx="268" cy="109.5391" fill="#84BE84" rx="3" ry="3" style="stroke:#038048;stroke-width:1.0;"/><text fill="#000000" font-family="sans-serif" font-size="14" font-style="italic" lengthAdjust="spacing" textLength="118" x="277" y="112.8857">addEvent() : void</text><ellipse cx="268" cy="125.8359" fill="#84BE84" rx="3" ry="3" style="stroke:#038048;stroke-width:1.0;"/><text fill="#000000" font-family="sans-serif" font-size="14" lengthAdjust="spacing" textLength="265" x="277" y="129.1826">addHandler(handler: OSGeneric) : void</text><ellipse cx="268" cy="142.1328" fill="#84BE84" rx="3" ry="3" style="stroke:#038048;stroke-width:1.0;"/><text fill="#000000" font-family="sans-serif" font-size="14" lengthAdjust="spacing" textLength="165" x="277" y="145.4795">hasHandlers() : boolean</text><ellipse cx="268" cy="158.4297" fill="#84BE84" rx="3" ry="3" style="stroke:#038048;stroke-width:1.0;"/><text fill="#000000" font-family="sans-serif" font-size="14" lengthAdjust="spacing" textLength="142" x="277" y="161.7764">removeEvent() : void</text><ellipse cx="268" cy="174.7266" fill="#84BE84" rx="3" ry="3" style="stroke:#038048;stroke-width:1.0;"/><text fill="#000000" font-family="sans-serif" font-size="14" lengthAdjust="spacing" textLength="291" x="277" y="178.0732">removeHandler(handler: OSGeneric) : void</text><ellipse cx="268" cy="191.0234" fill="#84BE84" rx="3" ry="3" style="stroke:#038048;stroke-width:1.0;"/><text fill="#000000" font-family="sans-serif" font-size="14" lengthAdjust="spacing" textLength="295" x="277" y="194.3701">trigger(data: string, args: unknown[]) : void</text><polygon fill="#FFFF44" points="268,202.3203,272,206.3203,268,210.3203,264,206.3203" style="stroke:#B38D22;stroke-width:1.0;"/><text fill="#000000" font-family="sans-serif" font-size="14" lengthAdjust="spacing" textLength="145" x="277" y="210.667">startObserver() : void</text></g><!--class LangObserver--><g id="elem_LangObserver"><rect codeLine="31" fill="#FFFFFF" height="210.9688" id="LangObserver" rx="2.5" ry="2.5" style="stroke:#272B30;stroke-width:0.5;" width="404" x="9" y="533"/><ellipse cx="158.75" cy="549" fill="#ADD1B2" rx="11" ry="11" style="stroke:#181818;stroke-width:1.0;"/><path d="M161.7188,554.6406 Q161.1406,554.9375 160.5,555.0781 Q159.8594,555.2344 159.1563,555.2344 Q156.6563,555.2344 155.3281,553.5938 Q154.0156,551.9375 154.0156,548.8125 Q154.0156,545.6875 155.3281,544.0313 Q156.6563,542.375 159.1563,542.375 Q159.8594,542.375 160.5,542.5313 Q161.1563,542.6875 161.7188,542.9844 L161.7188,545.7031 Q161.0938,545.125 160.5,544.8594 Q159.9063,544.5781 159.2813,544.5781 Q157.9375,544.5781 157.25,545.6563 Q156.5625,546.7188 156.5625,548.8125 Q156.5625,550.9063 157.25,551.9844 Q157.9375,553.0469 159.2813,553.0469 Q159.9063,553.0469 160.5,552.7813 Q161.0938,552.5 161.7188,551.9219 L161.7188,554.6406 Z " fill="#000000"/><text fill="#000000" font-family="sans-serif" font-size="14" lengthAdjust="spacing" textLength="96" x="179.25" y="553.8467">LangObserver</text><line style="stroke:#272B30;stroke-width:0.5;" x1="10" x2="412" y1="565" y2="565"/><polygon fill="none" points="20,573.6484,24,577.6484,20,581.6484,16,577.6484" style="stroke:#B38D22;stroke-width:1.0;"/><text fill="#000000" font-family="sans-serif" font-size="14" lengthAdjust="spacing" textLength="320" x="29" y="581.9951">observer : ResizeObserver | MutationObserver</text><rect fill="none" height="6" style="stroke:#C82930;stroke-width:1.0;" width="6" x="17" y="591.9453"/><text fill="#000000" font-family="sans-serif" font-size="14" lengthAdjust="spacing" textLength="142" x="29" y="598.292">_currentLang : string</text><line style="stroke:#272B30;stroke-width:0.5;" x1="10" x2="412" y1="605.5938" y2="605.5938"/><ellipse cx="20" cy="619.2422" fill="#84BE84" rx="3" ry="3" style="stroke:#038048;stroke-width:1.0;"/><text fill="#000000" font-family="sans-serif" font-size="14" lengthAdjust="spacing" textLength="116" x="29" y="622.5889">addEvent() : void</text><ellipse cx="20" cy="635.5391" fill="#84BE84" rx="3" ry="3" style="stroke:#038048;stroke-width:1.0;"/><text fill="#000000" font-family="sans-serif" font-size="14" lengthAdjust="spacing" textLength="265" x="29" y="638.8857">addHandler(handler: OSGeneric) : void</text><ellipse cx="20" cy="651.8359" fill="#84BE84" rx="3" ry="3" style="stroke:#038048;stroke-width:1.0;"/><text fill="#000000" font-family="sans-serif" font-size="14" lengthAdjust="spacing" textLength="165" x="29" y="655.1826">hasHandlers() : boolean</text><ellipse cx="20" cy="668.1328" fill="#84BE84" rx="3" ry="3" style="stroke:#038048;stroke-width:1.0;"/><text fill="#000000" font-family="sans-serif" font-size="14" lengthAdjust="spacing" textLength="378" x="29" y="671.4795">observerHandler(mutationList: MutationRecord[]) : void</text><ellipse cx="20" cy="684.4297" fill="#84BE84" rx="3" ry="3" style="stroke:#038048;stroke-width:1.0;"/><text fill="#000000" font-family="sans-serif" font-size="14" lengthAdjust="spacing" textLength="142" x="29" y="687.7764">removeEvent() : void</text><ellipse cx="20" cy="700.7266" fill="#84BE84" rx="3" ry="3" style="stroke:#038048;stroke-width:1.0;"/><text fill="#000000" font-family="sans-serif" font-size="14" lengthAdjust="spacing" textLength="291" x="29" y="704.0732">removeHandler(handler: OSGeneric) : void</text><ellipse cx="20" cy="717.0234" fill="#84BE84" rx="3" ry="3" style="stroke:#038048;stroke-width:1.0;"/><text fill="#000000" font-family="sans-serif" font-size="14" lengthAdjust="spacing" textLength="295" x="29" y="720.3701">trigger(data: string, args: unknown[]) : void</text><polygon fill="#FFFF44" points="20,728.3203,24,732.3203,20,736.3203,16,732.3203" style="stroke:#B38D22;stroke-width:1.0;"/><text fill="#000000" font-family="sans-serif" font-size="14" lengthAdjust="spacing" textLength="145" x="29" y="736.667">startObserver() : void</text></g><!--class RTLObserver--><g id="elem_RTLObserver"><rect codeLine="44" fill="#FFFFFF" height="210.9688" id="RTLObserver" rx="2.5" ry="2.5" style="stroke:#272B30;stroke-width:0.5;" width="404" x="448" y="533"/><ellipse cx="601.25" cy="549" fill="#ADD1B2" rx="11" ry="11" style="stroke:#181818;stroke-width:1.0;"/><path d="M604.2188,554.6406 Q603.6406,554.9375 603,555.0781 Q602.3594,555.2344 601.6563,555.2344 Q599.1563,555.2344 597.8281,553.5938 Q596.5156,551.9375 596.5156,548.8125 Q596.5156,545.6875 597.8281,544.0313 Q599.1563,542.375 601.6563,542.375 Q602.3594,542.375 603,542.5313 Q603.6563,542.6875 604.2188,542.9844 L604.2188,545.7031 Q603.5938,545.125 603,544.8594 Q602.4063,544.5781 601.7813,544.5781 Q600.4375,544.5781 599.75,545.6563 Q599.0625,546.7188 599.0625,548.8125 Q599.0625,550.9063 599.75,551.9844 Q600.4375,553.0469 601.7813,553.0469 Q602.4063,553.0469 603,552.7813 Q603.5938,552.5 604.2188,551.9219 L604.2188,554.6406 Z " fill="#000000"/><text fill="#000000" font-family="sans-serif" font-size="14" lengthAdjust="spacing" textLength="89" x="621.75" y="553.8467">RTLObserver</text><line style="stroke:#272B30;stroke-width:0.5;" x1="449" x2="851" y1="565" y2="565"/><polygon fill="none" points="459,573.6484,463,577.6484,459,581.6484,455,577.6484" style="stroke:#B38D22;stroke-width:1.0;"/><text fill="#000000" font-family="sans-serif" font-size="14" lengthAdjust="spacing" textLength="320" x="468" y="581.9951">observer : ResizeObserver | MutationObserver</text><rect fill="none" height="6" style="stroke:#C82930;stroke-width:1.0;" width="6" x="456" y="591.9453"/><text fill="#000000" font-family="sans-serif" font-size="14" lengthAdjust="spacing" textLength="145" x="468" y="598.292">_hasAlreadyRTL : any</text><line style="stroke:#272B30;stroke-width:0.5;" x1="449" x2="851" y1="605.5938" y2="605.5938"/><ellipse cx="459" cy="619.2422" fill="#84BE84" rx="3" ry="3" style="stroke:#038048;stroke-width:1.0;"/><text fill="#000000" font-family="sans-serif" font-size="14" lengthAdjust="spacing" textLength="116" x="468" y="622.5889">addEvent() : void</text><ellipse cx="459" cy="635.5391" fill="#84BE84" rx="3" ry="3" style="stroke:#038048;stroke-width:1.0;"/><text fill="#000000" font-family="sans-serif" font-size="14" lengthAdjust="spacing" textLength="265" x="468" y="638.8857">addHandler(handler: OSGeneric) : void</text><ellipse cx="459" cy="651.8359" fill="#84BE84" rx="3" ry="3" style="stroke:#038048;stroke-width:1.0;"/><text fill="#000000" font-family="sans-serif" font-size="14" lengthAdjust="spacing" textLength="165" x="468" y="655.1826">hasHandlers() : boolean</text><ellipse cx="459" cy="668.1328" fill="#84BE84" rx="3" ry="3" style="stroke:#038048;stroke-width:1.0;"/><text fill="#000000" font-family="sans-serif" font-size="14" lengthAdjust="spacing" textLength="378" x="468" y="671.4795">observerHandler(mutationList: MutationRecord[]) : void</text><ellipse cx="459" cy="684.4297" fill="#84BE84" rx="3" ry="3" style="stroke:#038048;stroke-width:1.0;"/><text fill="#000000" font-family="sans-serif" font-size="14" lengthAdjust="spacing" textLength="142" x="468" y="687.7764">removeEvent() : void</text><ellipse cx="459" cy="700.7266" fill="#84BE84" rx="3" ry="3" style="stroke:#038048;stroke-width:1.0;"/><text fill="#000000" font-family="sans-serif" font-size="14" lengthAdjust="spacing" textLength="291" x="468" y="704.0732">removeHandler(handler: OSGeneric) : void</text><ellipse cx="459" cy="717.0234" fill="#84BE84" rx="3" ry="3" style="stroke:#038048;stroke-width:1.0;"/><text fill="#000000" font-family="sans-serif" font-size="14" lengthAdjust="spacing" textLength="295" x="468" y="720.3701">trigger(data: string, args: unknown[]) : void</text><polygon fill="#FFFF44" points="459,728.3203,463,732.3203,459,736.3203,455,732.3203" style="stroke:#B38D22;stroke-width:1.0;"/><text fill="#000000" font-family="sans-serif" font-size="14" lengthAdjust="spacing" textLength="145" x="468" y="736.667">startObserver() : void</text></g><!--reverse link AbstractObserver<MutationObserverInit> to AbstractMutationObserver--><g id="link_AbstractObserver&lt;MutationObserverInit&gt;_AbstractMutationObserver"><path codeLine="30" d="M430,236.15 C430,255.87 430,258.4 430,277.86 " fill="none" id="AbstractObserver&lt;MutationObserverInit&gt;-backto-AbstractMutationObserver" style="stroke:#272B30;stroke-width:1.0;"/><polygon fill="none" points="430,218.15,424,236.15,436,236.15,430,218.15" style="stroke:#272B30;stroke-width:1.0;"/></g><!--reverse link AbstractMutationObserver to LangObserver--><g id="link_AbstractMutationObserver_LangObserver"><path codeLine="43" d="M337.1907,487.1095 C320.8807,506.5495 315.24,513.27 298.72,532.96 " fill="none" id="AbstractMutationObserver-backto-LangObserver" style="stroke:#272B30;stroke-width:1.0;"/><polygon fill="none" points="348.76,473.32,332.5942,483.2531,341.7872,490.966,348.76,473.32" style="stroke:#272B30;stroke-width:1.0;"/></g><!--reverse link AbstractMutationObserver to RTLObserver--><g id="link_AbstractMutationObserver_RTLObserver"><path codeLine="56" d="M523.2084,487.0851 C539.5884,506.5251 545.28,513.27 561.88,532.96 " fill="none" id="AbstractMutationObserver-backto-RTLObserver" style="stroke:#272B30;stroke-width:1.0;"/><polygon fill="none" points="511.61,473.32,518.62,490.9512,527.7967,483.219,511.61,473.32" style="stroke:#272B30;stroke-width:1.0;"/></g><!--SRC=[xPHHIm914CVV_HH3lXGbH0N18O55LA08vbk4ZBVZkNYtAxFhYQNVlJLlpRjI92iYkfVbPlupm_v_DsS6KWsHCO6h68sfCUlnbOurG_da_AHxUbmoUSMbPa6yMOBX868zKYAJzNgz5SsxT4ZYJ62fBmK19KCxWOHiNmkp6kf9Ybq4kyOoXXR2-IJOgsNlZP55AxLgTWrnIhm7poLmJrbd0GYWHKO-aLV058f5hnM7ACHrIihk7xYQL4kn3D-Y4Z7nVdzn1j2ylo55BCEyj8ycavhN9bsjOqArI38bEgMF9YmosmwnBAF8wGHQ3C2v85Lq1CYH2M2a1agFrSDZhkJPcpTxiyLFIp8hwjBOO6bCYqA7kz2cR2oozPwztM6s5exNLek6tobfBpwFgjBn9StXF6aWW8z65CHjPn9PfxrjD-hNCIKEHT6Wl_iLhCUtDQ_gj5BPi7gb37yTLRJxFbOwuOZP-JHl1_wEFxAgEop9xmRy_c-vG9eZvZ6sslMleEYShiLCA2QkeQj3DVc7-1qGLtcz0000]--></g></svg>