<?xml version="1.0" encoding="us-ascii" standalone="no"?><svg xmlns="http://www.w3.org/2000/svg" xmlns:xlink="http://www.w3.org/1999/xlink" contentStyleType="text/css" height="839px" preserveAspectRatio="none" style="width:745px;height:839px;background:#CED4DA;" version="1.1" viewBox="0 0 745 839" width="745px" zoomAndPan="magnify"><defs/><g><rect fill="#CED4DA" height="839" style="stroke:none;stroke-width:1.0;" width="745" x="0" y="0"/><!--class AbstractFeature<PT, O>--><g id="elem_AbstractFeature&lt;PT, O&gt;"><rect codeLine="7" fill="#FFFFFF" height="113.1875" id="AbstractFeature&lt;PT, O&gt;" rx="2.5" ry="2.5" style="stroke:#272B30;stroke-width:0.5;" width="224" x="260.5" y="123"/><ellipse cx="285.4" cy="139" fill="#A9DCDF" rx="11" ry="11" style="stroke:#181818;stroke-width:1.0;"/><path d="M285.5094,134.3438 L284.3531,139.4219 L286.6813,139.4219 L285.5094,134.3438 Z M284.025,132.1094 L287.0094,132.1094 L290.3688,144.5 L287.9156,144.5 L287.15,141.4375 L283.8688,141.4375 L283.1188,144.5 L280.6813,144.5 L284.025,132.1094 Z " fill="#000000"/><text fill="#000000" font-family="sans-serif" font-size="14" font-style="italic" lengthAdjust="spacing" textLength="170" x="301.6" y="143.8467">AbstractFeature&lt;PT, O&gt;</text><line style="stroke:#272B30;stroke-width:0.5;" x1="261.5" x2="483.5" y1="155" y2="155"/><rect fill="none" height="6" style="stroke:#C82930;stroke-width:1.0;" width="6" x="268.5" y="165.6484"/><text fill="#000000" font-family="sans-serif" font-size="14" lengthAdjust="spacing" textLength="198" x="280.5" y="171.9951">_featureElem : HTMLElement</text><rect fill="none" height="6" style="stroke:#C82930;stroke-width:1.0;" width="6" x="268.5" y="181.9453"/><text fill="#000000" font-family="sans-serif" font-size="14" lengthAdjust="spacing" textLength="134" x="280.5" y="188.292">_featureOptions : O</text><rect fill="none" height="6" style="stroke:#C82930;stroke-width:1.0;" width="6" x="268.5" y="198.2422"/><text fill="#000000" font-family="sans-serif" font-size="14" lengthAdjust="spacing" textLength="137" x="280.5" y="204.5889">_featurePattern : PT</text><line style="stroke:#272B30;stroke-width:0.5;" x1="261.5" x2="483.5" y1="211.8906" y2="211.8906"/><ellipse cx="271.5" cy="225.5391" fill="#84BE84" rx="3" ry="3" style="stroke:#038048;stroke-width:1.0;"/><text fill="#000000" font-family="sans-serif" font-size="14" lengthAdjust="spacing" textLength="106" x="280.5" y="228.8857">dispose() : void</text></g><!--class IFeature--><g id="elem_IFeature"><rect codeLine="13" fill="#FFFFFF" height="56.2969" id="IFeature" rx="2.5" ry="2.5" style="stroke:#272B30;stroke-width:0.5;" width="132" x="306.5" y="7"/><ellipse cx="340.85" cy="23" fill="#B4A7E5" rx="11" ry="11" style="stroke:#181818;stroke-width:1.0;"/><path d="M336.7719,18.7656 L336.7719,16.6094 L344.1625,16.6094 L344.1625,18.7656 L341.6938,18.7656 L341.6938,26.8438 L344.1625,26.8438 L344.1625,29 L336.7719,29 L336.7719,26.8438 L339.2406,26.8438 L339.2406,18.7656 L336.7719,18.7656 Z " fill="#000000"/><text fill="#000000" font-family="sans-serif" font-size="14" font-style="italic" lengthAdjust="spacing" textLength="57" x="359.15" y="27.8467">IFeature</text><line style="stroke:#272B30;stroke-width:0.5;" x1="307.5" x2="437.5" y1="39" y2="39"/><ellipse cx="317.5" cy="52.6484" fill="#84BE84" rx="3" ry="3" style="stroke:#038048;stroke-width:1.0;"/><text fill="#000000" font-family="sans-serif" font-size="14" lengthAdjust="spacing" textLength="106" x="326.5" y="55.9951">dispose() : void</text></g><!--class Balloon<PT>--><g id="elem_Balloon&lt;PT&gt;"><rect codeLine="17" fill="#FFFFFF" height="536.9063" id="Balloon&lt;PT&gt;" rx="2.5" ry="2.5" style="stroke:#272B30;stroke-width:0.5;" width="731" x="7" y="296"/><ellipse cx="321.75" cy="312" fill="#ADD1B2" rx="11" ry="11" style="stroke:#181818;stroke-width:1.0;"/><path d="M324.7188,317.6406 Q324.1406,317.9375 323.5,318.0781 Q322.8594,318.2344 322.1563,318.2344 Q319.6563,318.2344 318.3281,316.5938 Q317.0156,314.9375 317.0156,311.8125 Q317.0156,308.6875 318.3281,307.0313 Q319.6563,305.375 322.1563,305.375 Q322.8594,305.375 323.5,305.5313 Q324.1563,305.6875 324.7188,305.9844 L324.7188,308.7031 Q324.0938,308.125 323.5,307.8594 Q322.9063,307.5781 322.2813,307.5781 Q320.9375,307.5781 320.25,308.6563 Q319.5625,309.7188 319.5625,311.8125 Q319.5625,313.9063 320.25,314.9844 Q320.9375,316.0469 322.2813,316.0469 Q322.9063,316.0469 323.5,315.7813 Q324.0938,315.5 324.7188,314.9219 L324.7188,317.6406 Z " fill="#000000"/><text fill="#000000" font-family="sans-serif" font-size="14" lengthAdjust="spacing" textLength="93" x="342.25" y="316.8467">Balloon&lt;PT&gt;</text><line style="stroke:#272B30;stroke-width:0.5;" x1="8" x2="737" y1="328" y2="328"/><ellipse cx="18" cy="341.6484" fill="none" rx="3" ry="3" style="stroke:#038048;stroke-width:1.0;"/><text fill="#000000" font-family="sans-serif" font-size="14" lengthAdjust="spacing" textLength="118" x="27" y="344.9951">isOpen : boolean</text><rect fill="none" height="6" style="stroke:#C82930;stroke-width:1.0;" width="6" x="15" y="354.9453"/><text fill="#000000" font-family="sans-serif" font-size="14" lengthAdjust="spacing" textLength="278" x="27" y="361.292">_currentFocusedElementIndex : number</text><rect fill="none" height="6" style="stroke:#C82930;stroke-width:1.0;" width="6" x="15" y="371.2422"/><text fill="#000000" font-family="sans-serif" font-size="14" lengthAdjust="spacing" textLength="180" x="27" y="377.5889">_eventBodyClick : Generic</text><rect fill="none" height="6" style="stroke:#C82930;stroke-width:1.0;" width="6" x="15" y="387.5391"/><text fill="#000000" font-family="sans-serif" font-size="14" lengthAdjust="spacing" textLength="197" x="27" y="393.8857">_eventOnKeypress : Generic</text><rect fill="none" height="6" style="stroke:#C82930;stroke-width:1.0;" width="6" x="15" y="403.8359"/><text fill="#000000" font-family="sans-serif" font-size="14" lengthAdjust="spacing" textLength="238" x="27" y="410.1826">_floatingInstance : FloatingPosition</text><rect fill="none" height="6" style="stroke:#C82930;stroke-width:1.0;" width="6" x="15" y="420.1328"/><text fill="#000000" font-family="sans-serif" font-size="14" lengthAdjust="spacing" textLength="277" x="27" y="426.4795">_floatingOptions : FloatingPositionConfig</text><rect fill="none" height="6" style="stroke:#C82930;stroke-width:1.0;" width="6" x="15" y="436.4297"/><text fill="#000000" font-family="sans-serif" font-size="14" lengthAdjust="spacing" textLength="359" x="27" y="442.7764">_focusableBalloonElements : NodeListOf&lt;Element&gt;</text><rect fill="none" height="6" style="stroke:#C82930;stroke-width:1.0;" width="6" x="15" y="452.7266"/><text fill="#000000" font-family="sans-serif" font-size="14" lengthAdjust="spacing" textLength="279" x="27" y="459.0732">_focusManagerInstance : FocusManager</text><rect fill="none" height="6" style="stroke:#C82930;stroke-width:1.0;" width="6" x="15" y="469.0234"/><text fill="#000000" font-family="sans-serif" font-size="14" lengthAdjust="spacing" textLength="221" x="27" y="475.3701">_focusTrapInstance : FocusTrap</text><rect fill="none" height="6" style="stroke:#C82930;stroke-width:1.0;" width="6" x="15" y="485.3203"/><text fill="#000000" font-family="sans-serif" font-size="14" lengthAdjust="spacing" textLength="181" x="27" y="491.667">_isOpenedByApi : boolean</text><rect fill="none" height="6" style="stroke:#C82930;stroke-width:1.0;" width="6" x="15" y="501.6172"/><text fill="#000000" font-family="sans-serif" font-size="14" lengthAdjust="spacing" textLength="179" x="27" y="507.9639">_onToggleEvent : Generic</text><line style="stroke:#272B30;stroke-width:0.5;" x1="8" x2="737" y1="515.2656" y2="515.2656"/><ellipse cx="18" cy="528.9141" fill="#84BE84" rx="3" ry="3" style="stroke:#038048;stroke-width:1.0;"/><text fill="#000000" font-family="sans-serif" font-size="14" lengthAdjust="spacing" textLength="84" x="27" y="532.2607">build() : void</text><ellipse cx="18" cy="545.2109" fill="#84BE84" rx="3" ry="3" style="stroke:#038048;stroke-width:1.0;"/><text fill="#000000" font-family="sans-serif" font-size="14" lengthAdjust="spacing" textLength="88" x="27" y="548.5576">close() : void</text><ellipse cx="18" cy="561.5078" fill="#84BE84" rx="3" ry="3" style="stroke:#038048;stroke-width:1.0;"/><text fill="#000000" font-family="sans-serif" font-size="14" lengthAdjust="spacing" textLength="106" x="27" y="564.8545">dispose() : void</text><ellipse cx="18" cy="577.8047" fill="#84BE84" rx="3" ry="3" style="stroke:#038048;stroke-width:1.0;"/><text fill="#000000" font-family="sans-serif" font-size="14" lengthAdjust="spacing" textLength="544" x="27" y="581.1514">open(isOpenedByApi: boolean, arrowKeyPressed: ArrowDown | ArrowUp) : void</text><ellipse cx="18" cy="594.1016" fill="#84BE84" rx="3" ry="3" style="stroke:#038048;stroke-width:1.0;"/><text fill="#000000" font-family="sans-serif" font-size="14" lengthAdjust="spacing" textLength="306" x="27" y="597.4482">setBalloonShape(shape: ShapeTypes) : void</text><ellipse cx="18" cy="610.3984" fill="#84BE84" rx="3" ry="3" style="stroke:#038048;stroke-width:1.0;"/><text fill="#000000" font-family="sans-serif" font-size="14" lengthAdjust="spacing" textLength="322" x="27" y="613.7451">setFloatingBehaviour(isUpdate: boolean) : void</text><ellipse cx="18" cy="626.6953" fill="#84BE84" rx="3" ry="3" style="stroke:#038048;stroke-width:1.0;"/><text fill="#000000" font-family="sans-serif" font-size="14" lengthAdjust="spacing" textLength="179" x="27" y="630.042">setFloatingConfigs() : void</text><ellipse cx="18" cy="642.9922" fill="#84BE84" rx="3" ry="3" style="stroke:#038048;stroke-width:1.0;"/><text fill="#000000" font-family="sans-serif" font-size="14" lengthAdjust="spacing" textLength="470" x="27" y="646.3389">updateFloatingConfigs(floatingConfigs: FloatingPositionConfig) : void</text><ellipse cx="18" cy="659.2891" fill="#84BE84" rx="3" ry="3" style="stroke:#038048;stroke-width:1.0;"/><text fill="#000000" font-family="sans-serif" font-size="14" lengthAdjust="spacing" textLength="374" x="27" y="662.6357">updatePositionOption(position: FloatingPosition) : void</text><rect fill="#F24D5C" height="6" style="stroke:#C82930;stroke-width:1.0;" width="6" x="15" y="672.5859"/><text fill="#000000" font-family="sans-serif" font-size="14" lengthAdjust="spacing" textLength="378" x="27" y="678.9326">_bodyClickCallback(_args: string, e: MouseEvent) : void</text><rect fill="#F24D5C" height="6" style="stroke:#C82930;stroke-width:1.0;" width="6" x="15" y="688.8828"/><text fill="#000000" font-family="sans-serif" font-size="14" lengthAdjust="spacing" textLength="207" x="27" y="695.2295">_handleFocusBehavior() : void</text><rect fill="#F24D5C" height="6" style="stroke:#C82930;stroke-width:1.0;" width="6" x="15" y="705.1797"/><text fill="#000000" font-family="sans-serif" font-size="14" lengthAdjust="spacing" textLength="527" x="27" y="711.5264">_manageFocusInsideBalloon(arrowKeyPressed: ArrowDown | ArrowUp) : void</text><rect fill="#F24D5C" height="6" style="stroke:#C82930;stroke-width:1.0;" width="6" x="15" y="721.4766"/><text fill="#000000" font-family="sans-serif" font-size="14" lengthAdjust="spacing" textLength="318" x="27" y="727.8232">_onkeypressCallback(e: KeyboardEvent) : void</text><rect fill="#F24D5C" height="6" style="stroke:#C82930;stroke-width:1.0;" width="6" x="15" y="737.7734"/><text fill="#000000" font-family="sans-serif" font-size="14" lengthAdjust="spacing" textLength="212" x="27" y="744.1201">_removeEventListeners() : void</text><rect fill="#F24D5C" height="6" style="stroke:#C82930;stroke-width:1.0;" width="6" x="15" y="754.0703"/><text fill="#000000" font-family="sans-serif" font-size="14" lengthAdjust="spacing" textLength="187" x="27" y="760.417">_setA11YProperties() : void</text><rect fill="#F24D5C" height="6" style="stroke:#C82930;stroke-width:1.0;" width="6" x="15" y="770.3672"/><text fill="#000000" font-family="sans-serif" font-size="14" lengthAdjust="spacing" textLength="145" x="27" y="776.7139">_setCallbacks() : void</text><rect fill="#F24D5C" height="6" style="stroke:#C82930;stroke-width:1.0;" width="6" x="15" y="786.6641"/><text fill="#000000" font-family="sans-serif" font-size="14" lengthAdjust="spacing" textLength="182" x="27" y="793.0107">_setEventListeners() : void</text><rect fill="#F24D5C" height="6" style="stroke:#C82930;stroke-width:1.0;" width="6" x="15" y="802.9609"/><text fill="#000000" font-family="sans-serif" font-size="14" lengthAdjust="spacing" textLength="705" x="27" y="809.3076">_toggleBalloon(isOpen: boolean, isBodyClick: boolean, arrowKeyPressed: ArrowDown | ArrowUp) : void</text><rect fill="#F24D5C" height="6" style="stroke:#C82930;stroke-width:1.0;" width="6" x="15" y="819.2578"/><text fill="#000000" font-family="sans-serif" font-size="14" lengthAdjust="spacing" textLength="163" x="27" y="825.6045">_unsetCallbacks() : void</text></g><!--reverse link IFeature to AbstractFeature<PT, O>--><g id="link_IFeature_AbstractFeature&lt;PT, O&gt;"><path codeLine="16" d="M372.5,81.14 C372.5,98.02 372.5,102.34 372.5,122.85 " fill="none" id="IFeature-backto-AbstractFeature&lt;PT, O&gt;" style="stroke:#272B30;stroke-width:1.0;stroke-dasharray:7.0,7.0;"/><polygon fill="none" points="372.5,63.14,366.5,81.14,378.5,81.14,372.5,63.14" style="stroke:#272B30;stroke-width:1.0;"/></g><!--reverse link AbstractFeature<PT, O> to Balloon<PT>--><g id="link_AbstractFeature&lt;PT, O&gt;_Balloon&lt;PT&gt;"><path codeLine="49" d="M372.5,254.19 C372.5,271.52 372.5,273.89 372.5,295.87 " fill="none" id="AbstractFeature&lt;PT, O&gt;-backto-Balloon&lt;PT&gt;" style="stroke:#272B30;stroke-width:1.0;"/><polygon fill="none" points="372.5,236.19,366.5,254.19,378.5,254.19,372.5,236.19" style="stroke:#272B30;stroke-width:1.0;"/></g><!--SRC=[fLLHRzem47xdLrZTIwQMQkqcJKAe4h1sgxOEfD67FI4dle25uujiXmwj- -yx9mvDGgWqZGU4xxxpVNVtdR5RgNDkUCPcYbixCGQVPgZGi3VN7w_Zz-y6jesOeX5WNeVmPBisM6WHO6cQDZ17xWJ41y476oc0GPQxFSl0RL3OfYcLeCZ2O-iCJnnBV2PsDWddE-2kC31UB2_O_EQC_Hum-WnNQMM_LP2n4VkoVFZcVu9sRVyyTnAr9SYyxLXmvy1eSYoMfUTSI9kZXUWjsNOenU3FG6h2f3m1TdOVYDGC-k0DqFZvyl9a4ODGuvGhXQZ9V2ZiNDfv3fvMZAY0wy0wAOoXukumAIo8KEgz5l2BeBh8OZ012JloJ57iPqecM_9-1Wr69attN7-5VMx0sYD_gf0xgTVtsZgkgV8Hkmkc1Lhfkzb1lhIu2voXJkMwXdlgF5OGgWur-BZlAE2Rj6wUZeFrfXdqm3LVWsaoQfYRoANXUHVcRG5JzHR4T3_9vL6BKIznlLPmwplKwSjvN4WbNcPTsXBLcd-_AaehKjgebVsG_89nlveqZuMV1uWHAtVr4pvfzbpzVipRrrbmeOa_DZo7oFhl4IiFotqEzWXUJsOA6xwJM1XYyvWBxk10v6HCDKNRAQaeexkOj7q-9Oc-gsf49QSe3yVZArh1mrLSItr6BOdf2OfMtFZKj7eKTS6en0UahIddsWdUS2qKb3e9hJ5H1vALCYiX92rwjqBhet-UcvVODkpTWIonepjYv4Rq4JIGuQwYxZV4Iz9s6TAi9bTNFnU6P6QSX3v0dQ_Fz_hjhboAkkXAn0trIdjuQ_v7qyDLeVjfqhDwwhzW_3mSjb_Hlm00]--></g></svg>