<?xml version="1.0" encoding="UTF-8" standalone="no"?><svg xmlns="http://www.w3.org/2000/svg" xmlns:xlink="http://www.w3.org/1999/xlink" contentScriptType="application/ecmascript" contentStyleType="text/css" height="1088px" preserveAspectRatio="none" style="width:1098px;height:1088px;background:#CED4DA;" version="1.1" viewBox="0 0 1098 1088" width="1098px" zoomAndPan="magnify"><defs><filter height="300%" id="fnhahaalqfcrg" width="300%" x="-1" y="-1"><feGaussianBlur result="blurOut" stdDeviation="2.0"/><feColorMatrix in="blurOut" result="blurOut2" type="matrix" values="0 0 0 0 0 0 0 0 0 0 0 0 0 0 0 0 0 0 .4 0"/><feOffset dx="4.0" dy="4.0" in="blurOut2" result="blurOut3"/><feBlend in="SourceGraphic" in2="blurOut3" mode="normal"/></filter></defs><g><!--MD5=[d083cb4325ddab693ce4333aca45f609]
class AbstractVirtualSelectConfig--><rect codeLine="7" fill="#FFFFFF" filter="url(#fnhahaalqfcrg)" height="397.7871" id="AbstractVirtualSelectConfig" style="stroke:#272B30;stroke-width:1.5;" width="520" x="286" y="283"/><ellipse cx="464.75" cy="299" fill="#A9DCDF" rx="11" ry="11" style="stroke:#272B30;stroke-width:1.0;"/><path d="M464.6133,294.3481 L463.4595,299.4199 L465.7754,299.4199 Z M463.1191,292.1069 L466.1157,292.1069 L469.4609,304.5 L467.0122,304.5 L466.2485,301.437 L462.9697,301.437 L462.2227,304.5 L459.7739,304.5 Z " fill="#000000"/><text fill="#000000" font-family="sans-serif" font-size="12" font-style="italic" lengthAdjust="spacing" textLength="154" x="485.25" y="303.5352">AbstractVirtualSelectConfig</text><line style="stroke:#272B30;stroke-width:1.5;" x1="287" x2="805" y1="315" y2="315"/><ellipse cx="297" cy="326" rx="3" ry="3" style="stroke:#038048;stroke-width:1.0;fill:none;"/><text fill="#000000" font-family="sans-serif" font-size="11" lengthAdjust="spacing" textLength="93" x="306" y="329.6348">ElementId : string</text><ellipse cx="297" cy="338.9551" rx="3" ry="3" style="stroke:#038048;stroke-width:1.0;fill:none;"/><text fill="#000000" font-family="sans-serif" font-size="11" lengthAdjust="spacing" textLength="120" x="306" y="342.5898">ExtendedClass : string</text><ellipse cx="297" cy="351.9102" rx="3" ry="3" style="stroke:#038048;stroke-width:1.0;fill:none;"/><text fill="#000000" font-family="sans-serif" font-size="11" lengthAdjust="spacing" textLength="107" x="306" y="355.5449">IsDisabled : boolean</text><ellipse cx="297" cy="364.8652" rx="3" ry="3" style="stroke:#038048;stroke-width:1.0;fill:none;"/><text fill="#000000" font-family="sans-serif" font-size="11" lengthAdjust="spacing" textLength="119" x="306" y="368.5">NoResultsText : string</text><ellipse cx="297" cy="377.8203" rx="3" ry="3" style="stroke:#038048;stroke-width:1.0;fill:none;"/><text fill="#000000" font-family="sans-serif" font-size="11" lengthAdjust="spacing" textLength="173" x="306" y="381.4551">OptionsList : DropDownOption[]</text><ellipse cx="297" cy="390.7754" rx="3" ry="3" style="stroke:#038048;stroke-width:1.0;fill:none;"/><text fill="#000000" font-family="sans-serif" font-size="11" lengthAdjust="spacing" textLength="80" x="306" y="394.4102">Prompt : string</text><ellipse cx="297" cy="403.7305" rx="3" ry="3" style="stroke:#038048;stroke-width:1.0;fill:none;"/><text fill="#000000" font-family="sans-serif" font-size="11" lengthAdjust="spacing" textLength="116" x="306" y="407.3652">SearchPrompt : string</text><ellipse cx="297" cy="416.6855" rx="3" ry="3" style="stroke:#038048;stroke-width:1.0;fill:none;"/><text fill="#000000" font-family="sans-serif" font-size="11" lengthAdjust="spacing" textLength="198" x="306" y="420.3203">SelectedOptions : DropDownOption[]</text><ellipse cx="297" cy="429.6406" rx="3" ry="3" style="stroke:#038048;stroke-width:1.0;fill:none;"/><text fill="#000000" font-family="sans-serif" font-size="11" lengthAdjust="spacing" textLength="176" x="306" y="433.2754">ShowDropboxAsPopup : boolean</text><rect fill="none" height="6" style="stroke:#C82930;stroke-width:1.0;" width="6" x="294" y="439.5957"/><text fill="#000000" font-family="sans-serif" font-size="11" lengthAdjust="spacing" textLength="246" x="306" y="446.2305">_providerExtendedOptions : VirtualSelectOpts</text><rect fill="none" height="6" style="stroke:#C82930;stroke-width:1.0;" width="6" x="294" y="452.5508"/><text fill="#000000" font-family="sans-serif" font-size="11" lengthAdjust="spacing" textLength="196" x="306" y="459.1855">_providerOptions : VirtualSelectOpts</text><line style="stroke:#272B30;stroke-width:1.5;" x1="287" x2="805" y1="465.5059" y2="465.5059"/><ellipse cx="297" cy="476.5059" fill="#84BE84" rx="3" ry="3" style="stroke:#038048;stroke-width:1.0;"/><text fill="#000000" font-family="sans-serif" font-size="11" lengthAdjust="spacing" textLength="207" x="306" y="480.1406">getProviderConfig() : VirtualSelectOpts</text><ellipse cx="297" cy="489.4609" fill="#84BE84" rx="3" ry="3" style="stroke:#038048;stroke-width:1.0;"/><text fill="#000000" font-family="sans-serif" font-size="11" lengthAdjust="spacing" textLength="319" x="306" y="493.0957">setDropboxWrapperConfig(showAsPopup: boolean) : string</text><ellipse cx="297" cy="502.416" fill="#84BE84" rx="3" ry="3" style="stroke:#038048;stroke-width:1.0;"/><text fill="#000000" font-family="sans-serif" font-size="11" lengthAdjust="spacing" textLength="318" x="306" y="506.0508">validateCanChange(_isBuilt: boolean, _key: string) : boolean</text><ellipse cx="297" cy="515.3711" fill="#84BE84" rx="3" ry="3" style="stroke:#038048;stroke-width:1.0;"/><text fill="#000000" font-family="sans-serif" font-size="11" lengthAdjust="spacing" textLength="290" x="306" y="519.0059">validateDefault(key: string, value: unknown) : unknown</text><ellipse cx="297" cy="528.3262" fill="#84BE84" rx="3" ry="3" style="stroke:#038048;stroke-width:1.0;"/><text fill="#000000" font-family="sans-serif" font-size="11" lengthAdjust="spacing" textLength="494" x="306" y="531.9609">validateExtensibilityConfigs(newConfigs: VirtualSelectOpts, providerInfo: ProviderInfo) : void</text><polygon fill="#FFFF44" points="297,536.2813,301,540.2813,297,544.2813,293,540.2813" style="stroke:#B38D22;stroke-width:1.0;"/><text fill="#000000" font-family="sans-serif" font-size="11" lengthAdjust="spacing" textLength="396" x="306" y="544.916">mergeConfigs(providerOptions: any, providerExtendedOptions: any) : any</text><polygon fill="#FFFF44" points="297,549.2363,301,553.2363,297,557.2363,293,553.2363" style="stroke:#B38D22;stroke-width:1.0;"/><text fill="#000000" font-family="sans-serif" font-size="11" lengthAdjust="spacing" textLength="341" x="306" y="557.8711">validateBoolean(value: boolean, defaultValue: boolean) : boolean</text><polygon fill="#FFFF44" points="297,562.1914,301,566.1914,297,570.1914,293,566.1914" style="stroke:#B38D22;stroke-width:1.0;"/><text fill="#000000" font-family="sans-serif" font-size="11" lengthAdjust="spacing" textLength="358" x="306" y="570.8262">validateDate(value: string | Date, defaultValue: string) : string | Date</text><polygon fill="#FFFF44" points="297,575.1465,301,579.1465,297,583.1465,293,579.1465" style="stroke:#B38D22;stroke-width:1.0;"/><text fill="#000000" font-family="sans-serif" font-size="11" lengthAdjust="spacing" textLength="453" x="306" y="583.7813">validateInRange(value: unknown, defaultValue: unknown, args: unknown[]) : unknown</text><polygon fill="#FFFF44" points="297,588.1016,301,592.1016,297,596.1016,293,592.1016" style="stroke:#B38D22;stroke-width:1.0;"/><text fill="#000000" font-family="sans-serif" font-size="11" lengthAdjust="spacing" textLength="339" x="306" y="596.7363">validateNumber(value: number, defaultValue: number) : number</text><polygon fill="#FFFF44" points="297,601.0566,301,605.0566,297,609.0566,293,605.0566" style="stroke:#B38D22;stroke-width:1.0;"/><text fill="#000000" font-family="sans-serif" font-size="11" lengthAdjust="spacing" textLength="298" x="306" y="609.6914">validateString(value: string, defaultValue: string) : string</text><polygon fill="#FFFF44" points="297,614.0117,301,618.0117,297,622.0117,293,618.0117" style="stroke:#B38D22;stroke-width:1.0;"/><text fill="#000000" font-family="sans-serif" font-size="11" font-style="italic" lengthAdjust="spacing" textLength="159" x="306" y="622.6465">_getSelectedValues() : string[]</text><rect fill="#F24D5C" height="6" style="stroke:#C82930;stroke-width:1.0;" width="6" x="294" y="628.9668"/><text fill="#000000" font-family="sans-serif" font-size="11" lengthAdjust="spacing" textLength="252" x="306" y="635.6016">_checkForFigType(index: number) : FigureType</text><rect fill="#F24D5C" height="6" style="stroke:#C82930;stroke-width:1.0;" width="6" x="294" y="641.9219"/><text fill="#000000" font-family="sans-serif" font-size="11" lengthAdjust="spacing" textLength="241" x="306" y="648.5566">_getOptionIconPrefix(index: number) : string</text><rect fill="#F24D5C" height="6" style="stroke:#C82930;stroke-width:1.0;" width="6" x="294" y="654.877"/><text fill="#000000" font-family="sans-serif" font-size="11" lengthAdjust="spacing" textLength="250" x="306" y="661.5117">_getOptionImagePrefix(index: number) : string</text><rect fill="#F24D5C" height="6" style="stroke:#C82930;stroke-width:1.0;" width="6" x="294" y="667.832"/><text fill="#000000" font-family="sans-serif" font-size="11" lengthAdjust="spacing" textLength="283" x="306" y="674.4668">_getOptionInfo(data: VirtualSelectOptionInfo) : string</text><!--MD5=[612f0beba086b767c3bffd4bfd67ddbc]
class AbstractDropdownConfig--><rect codeLine="36" fill="#FFFFFF" filter="url(#fnhahaalqfcrg)" height="216.416" id="AbstractDropdownConfig" style="stroke:#272B30;stroke-width:1.5;" width="479" x="306.5" y="7"/><ellipse cx="469.75" cy="23" fill="#A9DCDF" rx="11" ry="11" style="stroke:#272B30;stroke-width:1.0;"/><path d="M469.6133,18.3481 L468.4595,23.4199 L470.7754,23.4199 Z M468.1191,16.1069 L471.1157,16.1069 L474.4609,28.5 L472.0122,28.5 L471.2485,25.437 L467.9697,25.437 L467.2227,28.5 L464.7739,28.5 Z " fill="#000000"/><text fill="#000000" font-family="sans-serif" font-size="12" font-style="italic" lengthAdjust="spacing" textLength="144" x="490.25" y="27.5352">AbstractDropdownConfig</text><line style="stroke:#272B30;stroke-width:1.5;" x1="307.5" x2="784.5" y1="39" y2="39"/><ellipse cx="317.5" cy="50" rx="3" ry="3" style="stroke:#038048;stroke-width:1.0;fill:none;"/><text fill="#000000" font-family="sans-serif" font-size="11" lengthAdjust="spacing" textLength="120" x="326.5" y="53.6348">ExtendedClass : string</text><ellipse cx="317.5" cy="62.9551" rx="3" ry="3" style="stroke:#038048;stroke-width:1.0;fill:none;"/><text fill="#000000" font-family="sans-serif" font-size="11" lengthAdjust="spacing" textLength="107" x="326.5" y="66.5898">IsDisabled : boolean</text><ellipse cx="317.5" cy="75.9102" rx="3" ry="3" style="stroke:#038048;stroke-width:1.0;fill:none;"/><text fill="#000000" font-family="sans-serif" font-size="11" lengthAdjust="spacing" textLength="176" x="326.5" y="79.5449">ShowDropboxAsPopup : boolean</text><line style="stroke:#272B30;stroke-width:1.5;" x1="307.5" x2="784.5" y1="85.8652" y2="85.8652"/><ellipse cx="317.5" cy="96.8652" fill="#84BE84" rx="3" ry="3" style="stroke:#038048;stroke-width:1.0;"/><text fill="#000000" font-family="sans-serif" font-size="11" font-style="italic" lengthAdjust="spacing" textLength="138" x="326.5" y="100.5">getProviderConfig() : void</text><ellipse cx="317.5" cy="109.8203" fill="#84BE84" rx="3" ry="3" style="stroke:#038048;stroke-width:1.0;"/><text fill="#000000" font-family="sans-serif" font-size="11" lengthAdjust="spacing" textLength="318" x="326.5" y="113.4551">validateCanChange(_isBuilt: boolean, _key: string) : boolean</text><ellipse cx="317.5" cy="122.7754" fill="#84BE84" rx="3" ry="3" style="stroke:#038048;stroke-width:1.0;"/><text fill="#000000" font-family="sans-serif" font-size="11" lengthAdjust="spacing" textLength="290" x="326.5" y="126.4102">validateDefault(key: string, value: unknown) : unknown</text><polygon fill="#FFFF44" points="317.5,130.7305,321.5,134.7305,317.5,138.7305,313.5,134.7305" style="stroke:#B38D22;stroke-width:1.0;"/><text fill="#000000" font-family="sans-serif" font-size="11" lengthAdjust="spacing" textLength="396" x="326.5" y="139.3652">mergeConfigs(providerOptions: any, providerExtendedOptions: any) : any</text><polygon fill="#FFFF44" points="317.5,143.6855,321.5,147.6855,317.5,151.6855,313.5,147.6855" style="stroke:#B38D22;stroke-width:1.0;"/><text fill="#000000" font-family="sans-serif" font-size="11" lengthAdjust="spacing" textLength="341" x="326.5" y="152.3203">validateBoolean(value: boolean, defaultValue: boolean) : boolean</text><polygon fill="#FFFF44" points="317.5,156.6406,321.5,160.6406,317.5,164.6406,313.5,160.6406" style="stroke:#B38D22;stroke-width:1.0;"/><text fill="#000000" font-family="sans-serif" font-size="11" lengthAdjust="spacing" textLength="358" x="326.5" y="165.2754">validateDate(value: string | Date, defaultValue: string) : string | Date</text><polygon fill="#FFFF44" points="317.5,169.5957,321.5,173.5957,317.5,177.5957,313.5,173.5957" style="stroke:#B38D22;stroke-width:1.0;"/><text fill="#000000" font-family="sans-serif" font-size="11" lengthAdjust="spacing" textLength="417" x="326.5" y="178.2305">validateExtensibilityConfigs(newConfigs: any, providerInfo: ProviderInfo) : any</text><polygon fill="#FFFF44" points="317.5,182.5508,321.5,186.5508,317.5,190.5508,313.5,186.5508" style="stroke:#B38D22;stroke-width:1.0;"/><text fill="#000000" font-family="sans-serif" font-size="11" lengthAdjust="spacing" textLength="453" x="326.5" y="191.1855">validateInRange(value: unknown, defaultValue: unknown, args: unknown[]) : unknown</text><polygon fill="#FFFF44" points="317.5,195.5059,321.5,199.5059,317.5,203.5059,313.5,199.5059" style="stroke:#B38D22;stroke-width:1.0;"/><text fill="#000000" font-family="sans-serif" font-size="11" lengthAdjust="spacing" textLength="339" x="326.5" y="204.1406">validateNumber(value: number, defaultValue: number) : number</text><polygon fill="#FFFF44" points="317.5,208.4609,321.5,212.4609,317.5,216.4609,313.5,212.4609" style="stroke:#B38D22;stroke-width:1.0;"/><text fill="#000000" font-family="sans-serif" font-size="11" lengthAdjust="spacing" textLength="298" x="326.5" y="217.0957">validateString(value: string, defaultValue: string) : string</text><!--MD5=[5fa763e222f257fed8d57e365afe5ba7]
class VirtualSelectSearchConfig--><rect codeLine="52" fill="#FFFFFF" filter="url(#fnhahaalqfcrg)" height="333.0117" id="VirtualSelectSearchConfig" style="stroke:#272B30;stroke-width:1.5;" width="520" x="9" y="741"/><ellipse cx="192.75" cy="757" fill="#ADD1B2" rx="11" ry="11" style="stroke:#272B30;stroke-width:1.0;"/><path d="M195.2231,763.1431 Q194.6421,763.4419 194.0029,763.5913 Q193.3638,763.7407 192.6582,763.7407 Q190.1514,763.7407 188.8315,762.0889 Q187.5117,760.437 187.5117,757.3159 Q187.5117,754.1865 188.8315,752.5347 Q190.1514,750.8828 192.6582,750.8828 Q193.3638,750.8828 194.0112,751.0322 Q194.6587,751.1816 195.2231,751.4805 L195.2231,754.2031 Q194.5923,753.6221 193.9988,753.3523 Q193.4053,753.0825 192.7744,753.0825 Q191.4297,753.0825 190.7449,754.1492 Q190.0601,755.2158 190.0601,757.3159 Q190.0601,759.4077 190.7449,760.4744 Q191.4297,761.541 192.7744,761.541 Q193.4053,761.541 193.9988,761.2712 Q194.5923,761.0015 195.2231,760.4204 Z " fill="#000000"/><text fill="#000000" font-family="sans-serif" font-size="12" lengthAdjust="spacing" textLength="144" x="213.25" y="761.5352">VirtualSelectSearchConfig</text><line style="stroke:#272B30;stroke-width:1.5;" x1="10" x2="528" y1="773" y2="773"/><ellipse cx="20" cy="784" rx="3" ry="3" style="stroke:#038048;stroke-width:1.0;fill:none;"/><text fill="#000000" font-family="sans-serif" font-size="11" lengthAdjust="spacing" textLength="171" x="29" y="787.6348">AllowMultipleSelection : boolean</text><ellipse cx="20" cy="796.9551" rx="3" ry="3" style="stroke:#038048;stroke-width:1.0;fill:none;"/><text fill="#000000" font-family="sans-serif" font-size="11" lengthAdjust="spacing" textLength="93" x="29" y="800.5898">ElementId : string</text><ellipse cx="20" cy="809.9102" rx="3" ry="3" style="stroke:#038048;stroke-width:1.0;fill:none;"/><text fill="#000000" font-family="sans-serif" font-size="11" lengthAdjust="spacing" textLength="120" x="29" y="813.5449">ExtendedClass : string</text><ellipse cx="20" cy="822.8652" rx="3" ry="3" style="stroke:#038048;stroke-width:1.0;fill:none;"/><text fill="#000000" font-family="sans-serif" font-size="11" lengthAdjust="spacing" textLength="107" x="29" y="826.5">IsDisabled : boolean</text><ellipse cx="20" cy="835.8203" rx="3" ry="3" style="stroke:#038048;stroke-width:1.0;fill:none;"/><text fill="#000000" font-family="sans-serif" font-size="11" lengthAdjust="spacing" textLength="119" x="29" y="839.4551">NoResultsText : string</text><ellipse cx="20" cy="848.7754" rx="3" ry="3" style="stroke:#038048;stroke-width:1.0;fill:none;"/><text fill="#000000" font-family="sans-serif" font-size="11" lengthAdjust="spacing" textLength="173" x="29" y="852.4102">OptionsList : DropDownOption[]</text><ellipse cx="20" cy="861.7305" rx="3" ry="3" style="stroke:#038048;stroke-width:1.0;fill:none;"/><text fill="#000000" font-family="sans-serif" font-size="11" lengthAdjust="spacing" textLength="80" x="29" y="865.3652">Prompt : string</text><ellipse cx="20" cy="874.6855" rx="3" ry="3" style="stroke:#038048;stroke-width:1.0;fill:none;"/><text fill="#000000" font-family="sans-serif" font-size="11" lengthAdjust="spacing" textLength="116" x="29" y="878.3203">SearchPrompt : string</text><ellipse cx="20" cy="887.6406" rx="3" ry="3" style="stroke:#038048;stroke-width:1.0;fill:none;"/><text fill="#000000" font-family="sans-serif" font-size="11" lengthAdjust="spacing" textLength="198" x="29" y="891.2754">SelectedOptions : DropDownOption[]</text><ellipse cx="20" cy="900.5957" rx="3" ry="3" style="stroke:#038048;stroke-width:1.0;fill:none;"/><text fill="#000000" font-family="sans-serif" font-size="11" lengthAdjust="spacing" textLength="176" x="29" y="904.2305">ShowDropboxAsPopup : boolean</text><line style="stroke:#272B30;stroke-width:1.5;" x1="10" x2="528" y1="910.5508" y2="910.5508"/><ellipse cx="20" cy="921.5508" fill="#84BE84" rx="3" ry="3" style="stroke:#038048;stroke-width:1.0;"/><text fill="#000000" font-family="sans-serif" font-size="11" lengthAdjust="spacing" textLength="207" x="29" y="925.1855">getProviderConfig() : VirtualSelectOpts</text><ellipse cx="20" cy="934.5059" fill="#84BE84" rx="3" ry="3" style="stroke:#038048;stroke-width:1.0;"/><text fill="#000000" font-family="sans-serif" font-size="11" lengthAdjust="spacing" textLength="319" x="29" y="938.1406">setDropboxWrapperConfig(showAsPopup: boolean) : string</text><ellipse cx="20" cy="947.4609" fill="#84BE84" rx="3" ry="3" style="stroke:#038048;stroke-width:1.0;"/><text fill="#000000" font-family="sans-serif" font-size="11" lengthAdjust="spacing" textLength="318" x="29" y="951.0957">validateCanChange(_isBuilt: boolean, _key: string) : boolean</text><ellipse cx="20" cy="960.416" fill="#84BE84" rx="3" ry="3" style="stroke:#038048;stroke-width:1.0;"/><text fill="#000000" font-family="sans-serif" font-size="11" lengthAdjust="spacing" textLength="290" x="29" y="964.0508">validateDefault(key: string, value: unknown) : unknown</text><ellipse cx="20" cy="973.3711" fill="#84BE84" rx="3" ry="3" style="stroke:#038048;stroke-width:1.0;"/><text fill="#000000" font-family="sans-serif" font-size="11" lengthAdjust="spacing" textLength="494" x="29" y="977.0059">validateExtensibilityConfigs(newConfigs: VirtualSelectOpts, providerInfo: ProviderInfo) : void</text><polygon fill="#FFFF44" points="20,981.3262,24,985.3262,20,989.3262,16,985.3262" style="stroke:#B38D22;stroke-width:1.0;"/><text fill="#000000" font-family="sans-serif" font-size="11" lengthAdjust="spacing" textLength="396" x="29" y="989.9609">mergeConfigs(providerOptions: any, providerExtendedOptions: any) : any</text><polygon fill="#FFFF44" points="20,994.2813,24,998.2813,20,1002.2813,16,998.2813" style="stroke:#B38D22;stroke-width:1.0;"/><text fill="#000000" font-family="sans-serif" font-size="11" lengthAdjust="spacing" textLength="341" x="29" y="1002.916">validateBoolean(value: boolean, defaultValue: boolean) : boolean</text><polygon fill="#FFFF44" points="20,1007.2363,24,1011.2363,20,1015.2363,16,1011.2363" style="stroke:#B38D22;stroke-width:1.0;"/><text fill="#000000" font-family="sans-serif" font-size="11" lengthAdjust="spacing" textLength="358" x="29" y="1015.8711">validateDate(value: string | Date, defaultValue: string) : string | Date</text><polygon fill="#FFFF44" points="20,1020.1914,24,1024.1914,20,1028.1914,16,1024.1914" style="stroke:#B38D22;stroke-width:1.0;"/><text fill="#000000" font-family="sans-serif" font-size="11" lengthAdjust="spacing" textLength="453" x="29" y="1028.8262">validateInRange(value: unknown, defaultValue: unknown, args: unknown[]) : unknown</text><polygon fill="#FFFF44" points="20,1033.1465,24,1037.1465,20,1041.1465,16,1037.1465" style="stroke:#B38D22;stroke-width:1.0;"/><text fill="#000000" font-family="sans-serif" font-size="11" lengthAdjust="spacing" textLength="339" x="29" y="1041.7813">validateNumber(value: number, defaultValue: number) : number</text><polygon fill="#FFFF44" points="20,1046.1016,24,1050.1016,20,1054.1016,16,1050.1016" style="stroke:#B38D22;stroke-width:1.0;"/><text fill="#000000" font-family="sans-serif" font-size="11" lengthAdjust="spacing" textLength="298" x="29" y="1054.7363">validateString(value: string, defaultValue: string) : string</text><polygon fill="#FFFF44" points="20,1059.0566,24,1063.0566,20,1067.0566,16,1063.0566" style="stroke:#B38D22;stroke-width:1.0;"/><text fill="#000000" font-family="sans-serif" font-size="11" lengthAdjust="spacing" textLength="159" x="29" y="1067.6914">_getSelectedValues() : string[]</text><!--MD5=[983c72bc973049137026ec4fffd0c0e8]
class VirtualSelectTagsConfig--><rect codeLine="77" fill="#FFFFFF" filter="url(#fnhahaalqfcrg)" height="320.0566" id="VirtualSelectTagsConfig" style="stroke:#272B30;stroke-width:1.5;" width="520" x="564" y="747.5"/><ellipse cx="752.75" cy="763.5" fill="#ADD1B2" rx="11" ry="11" style="stroke:#272B30;stroke-width:1.0;"/><path d="M755.2231,769.6431 Q754.6421,769.9419 754.0029,770.0913 Q753.3638,770.2407 752.6582,770.2407 Q750.1514,770.2407 748.8315,768.5889 Q747.5117,766.937 747.5117,763.8159 Q747.5117,760.6865 748.8315,759.0347 Q750.1514,757.3828 752.6582,757.3828 Q753.3638,757.3828 754.0112,757.5322 Q754.6587,757.6816 755.2231,757.9805 L755.2231,760.7031 Q754.5923,760.1221 753.9988,759.8523 Q753.4053,759.5825 752.7744,759.5825 Q751.4297,759.5825 750.7449,760.6492 Q750.0601,761.7158 750.0601,763.8159 Q750.0601,765.9077 750.7449,766.9744 Q751.4297,768.041 752.7744,768.041 Q753.4053,768.041 753.9988,767.7712 Q754.5923,767.5015 755.2231,766.9204 Z " fill="#000000"/><text fill="#000000" font-family="sans-serif" font-size="12" lengthAdjust="spacing" textLength="134" x="773.25" y="768.0352">VirtualSelectTagsConfig</text><line style="stroke:#272B30;stroke-width:1.5;" x1="565" x2="1083" y1="779.5" y2="779.5"/><ellipse cx="575" cy="790.5" rx="3" ry="3" style="stroke:#038048;stroke-width:1.0;fill:none;"/><text fill="#000000" font-family="sans-serif" font-size="11" lengthAdjust="spacing" textLength="93" x="584" y="794.1348">ElementId : string</text><ellipse cx="575" cy="803.4551" rx="3" ry="3" style="stroke:#038048;stroke-width:1.0;fill:none;"/><text fill="#000000" font-family="sans-serif" font-size="11" lengthAdjust="spacing" textLength="120" x="584" y="807.0898">ExtendedClass : string</text><ellipse cx="575" cy="816.4102" rx="3" ry="3" style="stroke:#038048;stroke-width:1.0;fill:none;"/><text fill="#000000" font-family="sans-serif" font-size="11" lengthAdjust="spacing" textLength="107" x="584" y="820.0449">IsDisabled : boolean</text><ellipse cx="575" cy="829.3652" rx="3" ry="3" style="stroke:#038048;stroke-width:1.0;fill:none;"/><text fill="#000000" font-family="sans-serif" font-size="11" lengthAdjust="spacing" textLength="119" x="584" y="833">NoResultsText : string</text><ellipse cx="575" cy="842.3203" rx="3" ry="3" style="stroke:#038048;stroke-width:1.0;fill:none;"/><text fill="#000000" font-family="sans-serif" font-size="11" lengthAdjust="spacing" textLength="173" x="584" y="845.9551">OptionsList : DropDownOption[]</text><ellipse cx="575" cy="855.2754" rx="3" ry="3" style="stroke:#038048;stroke-width:1.0;fill:none;"/><text fill="#000000" font-family="sans-serif" font-size="11" lengthAdjust="spacing" textLength="80" x="584" y="858.9102">Prompt : string</text><ellipse cx="575" cy="868.2305" rx="3" ry="3" style="stroke:#038048;stroke-width:1.0;fill:none;"/><text fill="#000000" font-family="sans-serif" font-size="11" lengthAdjust="spacing" textLength="116" x="584" y="871.8652">SearchPrompt : string</text><ellipse cx="575" cy="881.1855" rx="3" ry="3" style="stroke:#038048;stroke-width:1.0;fill:none;"/><text fill="#000000" font-family="sans-serif" font-size="11" lengthAdjust="spacing" textLength="198" x="584" y="884.8203">SelectedOptions : DropDownOption[]</text><ellipse cx="575" cy="894.1406" rx="3" ry="3" style="stroke:#038048;stroke-width:1.0;fill:none;"/><text fill="#000000" font-family="sans-serif" font-size="11" lengthAdjust="spacing" textLength="176" x="584" y="897.7754">ShowDropboxAsPopup : boolean</text><line style="stroke:#272B30;stroke-width:1.5;" x1="565" x2="1083" y1="904.0957" y2="904.0957"/><ellipse cx="575" cy="915.0957" fill="#84BE84" rx="3" ry="3" style="stroke:#038048;stroke-width:1.0;"/><text fill="#000000" font-family="sans-serif" font-size="11" lengthAdjust="spacing" textLength="207" x="584" y="918.7305">getProviderConfig() : VirtualSelectOpts</text><ellipse cx="575" cy="928.0508" fill="#84BE84" rx="3" ry="3" style="stroke:#038048;stroke-width:1.0;"/><text fill="#000000" font-family="sans-serif" font-size="11" lengthAdjust="spacing" textLength="319" x="584" y="931.6855">setDropboxWrapperConfig(showAsPopup: boolean) : string</text><ellipse cx="575" cy="941.0059" fill="#84BE84" rx="3" ry="3" style="stroke:#038048;stroke-width:1.0;"/><text fill="#000000" font-family="sans-serif" font-size="11" lengthAdjust="spacing" textLength="318" x="584" y="944.6406">validateCanChange(_isBuilt: boolean, _key: string) : boolean</text><ellipse cx="575" cy="953.9609" fill="#84BE84" rx="3" ry="3" style="stroke:#038048;stroke-width:1.0;"/><text fill="#000000" font-family="sans-serif" font-size="11" lengthAdjust="spacing" textLength="290" x="584" y="957.5957">validateDefault(key: string, value: unknown) : unknown</text><ellipse cx="575" cy="966.916" fill="#84BE84" rx="3" ry="3" style="stroke:#038048;stroke-width:1.0;"/><text fill="#000000" font-family="sans-serif" font-size="11" lengthAdjust="spacing" textLength="494" x="584" y="970.5508">validateExtensibilityConfigs(newConfigs: VirtualSelectOpts, providerInfo: ProviderInfo) : void</text><polygon fill="#FFFF44" points="575,974.8711,579,978.8711,575,982.8711,571,978.8711" style="stroke:#B38D22;stroke-width:1.0;"/><text fill="#000000" font-family="sans-serif" font-size="11" lengthAdjust="spacing" textLength="396" x="584" y="983.5059">mergeConfigs(providerOptions: any, providerExtendedOptions: any) : any</text><polygon fill="#FFFF44" points="575,987.8262,579,991.8262,575,995.8262,571,991.8262" style="stroke:#B38D22;stroke-width:1.0;"/><text fill="#000000" font-family="sans-serif" font-size="11" lengthAdjust="spacing" textLength="341" x="584" y="996.4609">validateBoolean(value: boolean, defaultValue: boolean) : boolean</text><polygon fill="#FFFF44" points="575,1000.7813,579,1004.7813,575,1008.7813,571,1004.7813" style="stroke:#B38D22;stroke-width:1.0;"/><text fill="#000000" font-family="sans-serif" font-size="11" lengthAdjust="spacing" textLength="358" x="584" y="1009.416">validateDate(value: string | Date, defaultValue: string) : string | Date</text><polygon fill="#FFFF44" points="575,1013.7363,579,1017.7363,575,1021.7363,571,1017.7363" style="stroke:#B38D22;stroke-width:1.0;"/><text fill="#000000" font-family="sans-serif" font-size="11" lengthAdjust="spacing" textLength="453" x="584" y="1022.3711">validateInRange(value: unknown, defaultValue: unknown, args: unknown[]) : unknown</text><polygon fill="#FFFF44" points="575,1026.6914,579,1030.6914,575,1034.6914,571,1030.6914" style="stroke:#B38D22;stroke-width:1.0;"/><text fill="#000000" font-family="sans-serif" font-size="11" lengthAdjust="spacing" textLength="339" x="584" y="1035.3262">validateNumber(value: number, defaultValue: number) : number</text><polygon fill="#FFFF44" points="575,1039.6465,579,1043.6465,575,1047.6465,571,1043.6465" style="stroke:#B38D22;stroke-width:1.0;"/><text fill="#000000" font-family="sans-serif" font-size="11" lengthAdjust="spacing" textLength="298" x="584" y="1048.2813">validateString(value: string, defaultValue: string) : string</text><polygon fill="#FFFF44" points="575,1052.6016,579,1056.6016,575,1060.6016,571,1056.6016" style="stroke:#B38D22;stroke-width:1.0;"/><text fill="#000000" font-family="sans-serif" font-size="11" lengthAdjust="spacing" textLength="159" x="584" y="1061.2363">_getSelectedValues() : string[]</text><!--MD5=[286b2485b6cf1a641b7434ad11ea69f4]
reverse link AbstractDropdownConfig to AbstractVirtualSelectConfig--><path codeLine="51" d="M546,243.45 C546,256.25 546,269.44 546,282.74 " fill="none" id="AbstractDropdownConfig-backto-AbstractVirtualSelectConfig" style="stroke:#272B30;stroke-width:1.0;"/><polygon fill="none" points="539,243.05,546,223.05,553,243.05,539,243.05" style="stroke:#272B30;stroke-width:1.0;"/><!--MD5=[a8429c11277426958c00a0b9cece18ed]
reverse link AbstractVirtualSelectConfig to VirtualSelectSearchConfig--><path codeLine="76" d="M405.36,698.03 C395.93,712.44 386.51,726.83 377.29,740.94 " fill="none" id="AbstractVirtualSelectConfig-backto-VirtualSelectSearchConfig" style="stroke:#272B30;stroke-width:1.0;"/><polygon fill="none" points="399.62,694.02,416.42,681.11,411.33,701.68,399.62,694.02" style="stroke:#272B30;stroke-width:1.0;"/><!--MD5=[92ac54dfe84d9ec9b6d1c092140519bd]
reverse link AbstractVirtualSelectConfig to VirtualSelectTagsConfig--><path codeLine="100" d="M687.15,698.02 C698.03,714.6 708.89,731.14 719.46,747.25 " fill="none" id="AbstractVirtualSelectConfig-backto-VirtualSelectTagsConfig" style="stroke:#272B30;stroke-width:1.0;"/><polygon fill="none" points="681.17,701.67,676.05,681.11,692.87,693.99,681.17,701.67" style="stroke:#272B30;stroke-width:1.0;"/><!--MD5=[a3ea1e8d922e764674546c7a8cdb1baa]
@startuml
skinparam ClassArrowColor #272b30
skinparam ClassBorderColor #272b30
skinparam ClassBackgroundColor #fff
skinparam BackgroundColor #ced4da
hide empty methods
hide empty fields
abstract class "AbstractVirtualSelectConfig" {
    +ElementId : string
    +ExtendedClass : string
    +IsDisabled : boolean
    +NoResultsText : string
    +OptionsList : DropDownOption[]
    +Prompt : string
    +SearchPrompt : string
    +SelectedOptions : DropDownOption[]
    +ShowDropboxAsPopup : boolean
    -_providerExtendedOptions : VirtualSelectOpts
    -_providerOptions : VirtualSelectOpts
    +getProviderConfig() : VirtualSelectOpts
    +setDropboxWrapperConfig(showAsPopup: boolean) : string
    +validateCanChange(_isBuilt: boolean, _key: string) : boolean
    +validateDefault(key: string, value: unknown) : unknown
    +validateExtensibilityConfigs(newConfigs: VirtualSelectOpts, providerInfo: ProviderInfo) : void
    #mergeConfigs(providerOptions: any, providerExtendedOptions: any) : any
    #validateBoolean(value: boolean, defaultValue: boolean) : boolean
    #validateDate(value: string | Date, defaultValue: string) : string | Date
    #validateInRange(value: unknown, defaultValue: unknown, args: unknown[]) : unknown
    #validateNumber(value: number, defaultValue: number) : number
    #validateString(value: string, defaultValue: string) : string
    {abstract} #_getSelectedValues() : string[]
    -_checkForFigType(index: number) : FigureType
    -_getOptionIconPrefix(index: number) : string
    -_getOptionImagePrefix(index: number) : string
    -_getOptionInfo(data: VirtualSelectOptionInfo) : string
}
abstract class "AbstractDropdownConfig" {
    +ExtendedClass : string
    +IsDisabled : boolean
    +ShowDropboxAsPopup : boolean
    {abstract} +getProviderConfig() : void
    +validateCanChange(_isBuilt: boolean, _key: string) : boolean
    +validateDefault(key: string, value: unknown) : unknown
    #mergeConfigs(providerOptions: any, providerExtendedOptions: any) : any
    #validateBoolean(value: boolean, defaultValue: boolean) : boolean
    #validateDate(value: string | Date, defaultValue: string) : string | Date
    #validateExtensibilityConfigs(newConfigs: any, providerInfo: ProviderInfo) : any
    #validateInRange(value: unknown, defaultValue: unknown, args: unknown[]) : unknown
    #validateNumber(value: number, defaultValue: number) : number
    #validateString(value: string, defaultValue: string) : string
}
"AbstractDropdownConfig" <|- - "AbstractVirtualSelectConfig"
class "VirtualSelectSearchConfig" {
    +AllowMultipleSelection : boolean
    +ElementId : string
    +ExtendedClass : string
    +IsDisabled : boolean
    +NoResultsText : string
    +OptionsList : DropDownOption[]
    +Prompt : string
    +SearchPrompt : string
    +SelectedOptions : DropDownOption[]
    +ShowDropboxAsPopup : boolean
    +getProviderConfig() : VirtualSelectOpts
    +setDropboxWrapperConfig(showAsPopup: boolean) : string
    +validateCanChange(_isBuilt: boolean, _key: string) : boolean
    +validateDefault(key: string, value: unknown) : unknown
    +validateExtensibilityConfigs(newConfigs: VirtualSelectOpts, providerInfo: ProviderInfo) : void
    #mergeConfigs(providerOptions: any, providerExtendedOptions: any) : any
    #validateBoolean(value: boolean, defaultValue: boolean) : boolean
    #validateDate(value: string | Date, defaultValue: string) : string | Date
    #validateInRange(value: unknown, defaultValue: unknown, args: unknown[]) : unknown
    #validateNumber(value: number, defaultValue: number) : number
    #validateString(value: string, defaultValue: string) : string
    #_getSelectedValues() : string[]
}
"AbstractVirtualSelectConfig" <|- - "VirtualSelectSearchConfig"
class "VirtualSelectTagsConfig" {
    +ElementId : string
    +ExtendedClass : string
    +IsDisabled : boolean
    +NoResultsText : string
    +OptionsList : DropDownOption[]
    +Prompt : string
    +SearchPrompt : string
    +SelectedOptions : DropDownOption[]
    +ShowDropboxAsPopup : boolean
    +getProviderConfig() : VirtualSelectOpts
    +setDropboxWrapperConfig(showAsPopup: boolean) : string
    +validateCanChange(_isBuilt: boolean, _key: string) : boolean
    +validateDefault(key: string, value: unknown) : unknown
    +validateExtensibilityConfigs(newConfigs: VirtualSelectOpts, providerInfo: ProviderInfo) : void
    #mergeConfigs(providerOptions: any, providerExtendedOptions: any) : any
    #validateBoolean(value: boolean, defaultValue: boolean) : boolean
    #validateDate(value: string | Date, defaultValue: string) : string | Date
    #validateInRange(value: unknown, defaultValue: unknown, args: unknown[]) : unknown
    #validateNumber(value: number, defaultValue: number) : number
    #validateString(value: string, defaultValue: string) : string
    #_getSelectedValues() : string[]
}
"AbstractVirtualSelectConfig" <|- - "VirtualSelectTagsConfig"
@enduml

PlantUML version 1.2021.14(Fri Nov 12 16:46:50 WET 2021)
(GPL source distribution)
Java Runtime: Java(TM) SE Runtime Environment
JVM: Java HotSpot(TM) 64-Bit Server VM
Default Encoding: UTF-8
Language: en
Country: PT
--></g></svg>