<?xml version="1.0" encoding="us-ascii" standalone="no"?><svg xmlns="http://www.w3.org/2000/svg" xmlns:xlink="http://www.w3.org/1999/xlink" contentStyleType="text/css" height="2201px" preserveAspectRatio="none" style="width:1414px;height:2201px;background:#CED4DA;" version="1.1" viewBox="0 0 1414 2201" width="1414px" zoomAndPan="magnify"><defs/><g><rect fill="#CED4DA" height="2201" style="stroke:none;stroke-width:1.0;" width="1414" x="0" y="0"/><!--class AbstractDropdown<P, C>--><g id="elem_AbstractDropdown&lt;P, C&gt;"><rect codeLine="7" fill="#FFFFFF" height="553.2031" id="AbstractDropdown&lt;P, C&gt;" rx="2.5" ry="2.5" style="stroke:#272B30;stroke-width:0.5;" width="707" x="413.5" y="653"/><ellipse cx="673.25" cy="669" fill="#A9DCDF" rx="11" ry="11" style="stroke:#181818;stroke-width:1.0;"/><path d="M673.3594,664.3438 L672.2031,669.4219 L674.5313,669.4219 L673.3594,664.3438 Z M671.875,662.1094 L674.8594,662.1094 L678.2188,674.5 L675.7656,674.5 L675,671.4375 L671.7188,671.4375 L670.9688,674.5 L668.5313,674.5 L671.875,662.1094 Z " fill="#000000"/><text fill="#000000" font-family="sans-serif" font-size="14" font-style="italic" lengthAdjust="spacing" textLength="179" x="693.75" y="673.8467">AbstractDropdown&lt;P, C&gt;</text><line style="stroke:#272B30;stroke-width:0.5;" x1="414.5" x2="1119.5" y1="685" y2="685"/><polygon fill="none" points="424.5,693.6484,428.5,697.6484,424.5,701.6484,420.5,697.6484" style="stroke:#B38D22;stroke-width:1.0;"/><text fill="#000000" font-family="sans-serif" font-size="14" lengthAdjust="spacing" textLength="180" x="433.5" y="701.9951">isProviderBased : boolean</text><polygon fill="none" points="424.5,709.9453,428.5,713.9453,424.5,717.9453,420.5,713.9453" style="stroke:#B38D22;stroke-width:1.0;"/><text fill="#000000" font-family="sans-serif" font-size="14" lengthAdjust="spacing" textLength="393" x="433.5" y="718.292">providerEventsManagerInstance : IProviderEventManager</text><line style="stroke:#272B30;stroke-width:0.5;" x1="414.5" x2="1119.5" y1="725.5938" y2="725.5938"/><ellipse cx="424.5" cy="739.2422" fill="#84BE84" rx="3" ry="3" style="stroke:#038048;stroke-width:1.0;"/><text fill="#000000" font-family="sans-serif" font-size="14" lengthAdjust="spacing" textLength="84" x="433.5" y="742.5889">build() : void</text><ellipse cx="424.5" cy="755.5391" fill="#84BE84" rx="3" ry="3" style="stroke:#038048;stroke-width:1.0;"/><text fill="#000000" font-family="sans-serif" font-size="14" lengthAdjust="spacing" textLength="484" x="433.5" y="758.8857">changeProperty(propertyName: string, propertyValue: unknown) : void</text><ellipse cx="424.5" cy="771.8359" fill="#84BE84" rx="3" ry="3" style="stroke:#038048;stroke-width:1.0;"/><text fill="#000000" font-family="sans-serif" font-size="14" lengthAdjust="spacing" textLength="241" x="433.5" y="775.1826">checkAddedProviderEvents() : void</text><ellipse cx="424.5" cy="788.1328" fill="#84BE84" rx="3" ry="3" style="stroke:#038048;stroke-width:1.0;"/><text fill="#000000" font-family="sans-serif" font-size="14" lengthAdjust="spacing" textLength="253" x="433.5" y="791.4795">checkPendingProviderEvents() : void</text><ellipse cx="424.5" cy="804.4297" fill="#84BE84" rx="3" ry="3" style="stroke:#038048;stroke-width:1.0;"/><text fill="#000000" font-family="sans-serif" font-size="14" font-style="italic" lengthAdjust="spacing" textLength="85" x="433.5" y="807.7764">clear() : void</text><ellipse cx="424.5" cy="820.7266" fill="#84BE84" rx="3" ry="3" style="stroke:#038048;stroke-width:1.0;"/><text fill="#000000" font-family="sans-serif" font-size="14" font-style="italic" lengthAdjust="spacing" textLength="88" x="433.5" y="824.0732">close() : void</text><ellipse cx="424.5" cy="837.0234" fill="#84BE84" rx="3" ry="3" style="stroke:#038048;stroke-width:1.0;"/><text fill="#000000" font-family="sans-serif" font-size="14" font-style="italic" lengthAdjust="spacing" textLength="100" x="433.5" y="840.3701">disable() : void</text><ellipse cx="424.5" cy="853.3203" fill="#84BE84" rx="3" ry="3" style="stroke:#038048;stroke-width:1.0;"/><text fill="#000000" font-family="sans-serif" font-size="14" lengthAdjust="spacing" textLength="106" x="433.5" y="856.667">dispose() : void</text><ellipse cx="424.5" cy="869.6172" fill="#84BE84" rx="3" ry="3" style="stroke:#038048;stroke-width:1.0;"/><text fill="#000000" font-family="sans-serif" font-size="14" font-style="italic" lengthAdjust="spacing" textLength="99" x="433.5" y="872.9639">enable() : void</text><ellipse cx="424.5" cy="885.9141" fill="#84BE84" rx="3" ry="3" style="stroke:#038048;stroke-width:1.0;"/><text fill="#000000" font-family="sans-serif" font-size="14" lengthAdjust="spacing" textLength="267" x="433.5" y="889.2607">equalsToID(patternId: string) : boolean</text><ellipse cx="424.5" cy="902.2109" fill="#84BE84" rx="3" ry="3" style="stroke:#038048;stroke-width:1.0;"/><text fill="#000000" font-family="sans-serif" font-size="14" font-style="italic" lengthAdjust="spacing" textLength="191" x="433.5" y="905.5576">getSelectedValues() : string</text><ellipse cx="424.5" cy="918.5078" fill="#84BE84" rx="3" ry="3" style="stroke:#038048;stroke-width:1.0;"/><text fill="#000000" font-family="sans-serif" font-size="14" font-style="italic" lengthAdjust="spacing" textLength="88" x="433.5" y="921.8545">open() : void</text><ellipse cx="424.5" cy="934.8047" fill="#84BE84" rx="3" ry="3" style="stroke:#038048;stroke-width:1.0;"/><text fill="#000000" font-family="sans-serif" font-size="14" lengthAdjust="spacing" textLength="434" x="433.5" y="938.1514">registerCallback(eventName: string, callback: OSGeneric) : void</text><ellipse cx="424.5" cy="951.1016" fill="#84BE84" rx="3" ry="3" style="stroke:#038048;stroke-width:1.0;"/><text fill="#000000" font-family="sans-serif" font-size="14" lengthAdjust="spacing" textLength="362" x="433.5" y="954.4482">setProviderConfigs(providerConfigs: unknown) : void</text><ellipse cx="424.5" cy="967.3984" fill="#84BE84" rx="3" ry="3" style="stroke:#038048;stroke-width:1.0;"/><text fill="#000000" font-family="sans-serif" font-size="14" lengthAdjust="spacing" textLength="681" x="433.5" y="970.7451">setProviderEvent(eventName: string, callback: Generic, uniqueId: string, saveEvent: boolean) : void</text><ellipse cx="424.5" cy="983.6953" fill="#84BE84" rx="3" ry="3" style="stroke:#038048;stroke-width:1.0;"/><text fill="#000000" font-family="sans-serif" font-size="14" lengthAdjust="spacing" textLength="285" x="433.5" y="987.042">unsetProviderEvent(eventId: string) : void</text><ellipse cx="424.5" cy="999.9922" fill="#84BE84" rx="3" ry="3" style="stroke:#038048;stroke-width:1.0;"/><text fill="#000000" font-family="sans-serif" font-size="14" lengthAdjust="spacing" textLength="374" x="433.5" y="1003.3389">updateProviderEvents(providerInfo: ProviderInfo) : void</text><ellipse cx="424.5" cy="1016.2891" fill="#84BE84" rx="3" ry="3" style="stroke:#038048;stroke-width:1.0;"/><text fill="#000000" font-family="sans-serif" font-size="14" font-style="italic" lengthAdjust="spacing" textLength="406" x="433.5" y="1019.6357">validation(isValid: boolean, validationMessage: string) : void</text><polygon fill="#FFFF44" points="424.5,1027.5859,428.5,1031.5859,424.5,1035.5859,420.5,1031.5859" style="stroke:#B38D22;stroke-width:1.0;"/><text fill="#000000" font-family="sans-serif" font-size="14" lengthAdjust="spacing" textLength="121" x="433.5" y="1035.9326">finishBuild() : void</text><polygon fill="#FFFF44" points="424.5,1043.8828,428.5,1047.8828,424.5,1051.8828,420.5,1047.8828" style="stroke:#B38D22;stroke-width:1.0;"/><text fill="#000000" font-family="sans-serif" font-size="14" font-style="italic" lengthAdjust="spacing" textLength="157" x="433.5" y="1052.2295">prepareConfigs() : void</text><polygon fill="#FFFF44" points="424.5,1060.1797,428.5,1064.1797,424.5,1068.1797,420.5,1064.1797" style="stroke:#B38D22;stroke-width:1.0;"/><text fill="#000000" font-family="sans-serif" font-size="14" lengthAdjust="spacing" textLength="98" x="433.5" y="1068.5264">redraw() : void</text><polygon fill="#FFFF44" points="424.5,1076.4766,428.5,1080.4766,424.5,1084.4766,420.5,1080.4766" style="stroke:#B38D22;stroke-width:1.0;"/><text fill="#000000" font-family="sans-serif" font-size="14" font-style="italic" lengthAdjust="spacing" textLength="179" x="433.5" y="1084.8232">setA11YProperties() : void</text><polygon fill="#FFFF44" points="424.5,1092.7734,428.5,1096.7734,424.5,1100.7734,420.5,1096.7734" style="stroke:#B38D22;stroke-width:1.0;"/><text fill="#000000" font-family="sans-serif" font-size="14" font-style="italic" lengthAdjust="spacing" textLength="137" x="433.5" y="1101.1201">setCallbacks() : void</text><polygon fill="#FFFF44" points="424.5,1109.0703,428.5,1113.0703,424.5,1117.0703,420.5,1113.0703" style="stroke:#B38D22;stroke-width:1.0;"/><text fill="#000000" font-family="sans-serif" font-size="14" font-style="italic" lengthAdjust="spacing" textLength="169" x="433.5" y="1117.417">setHtmlElements() : void</text><polygon fill="#FFFF44" points="424.5,1125.3672,428.5,1129.3672,424.5,1133.3672,420.5,1129.3672" style="stroke:#B38D22;stroke-width:1.0;"/><text fill="#000000" font-family="sans-serif" font-size="14" lengthAdjust="spacing" textLength="569" x="433.5" y="1133.7139">triggerPlatformEventCallback(platFormCallback: OSGeneric, args: unknown[]) : void</text><polygon fill="#FFFF44" points="424.5,1141.6641,428.5,1145.6641,424.5,1149.6641,420.5,1145.6641" style="stroke:#B38D22;stroke-width:1.0;"/><text fill="#000000" font-family="sans-serif" font-size="14" lengthAdjust="spacing" textLength="311" x="433.5" y="1150.0107">triggerPlatformInitializedEventCallback() : void</text><polygon fill="#FFFF44" points="424.5,1157.9609,428.5,1161.9609,424.5,1165.9609,420.5,1161.9609" style="stroke:#B38D22;stroke-width:1.0;"/><text fill="#000000" font-family="sans-serif" font-size="14" lengthAdjust="spacing" textLength="156" x="433.5" y="1166.3076">unsetCallbacks() : void</text><polygon fill="#FFFF44" points="424.5,1174.2578,428.5,1178.2578,424.5,1182.2578,420.5,1178.2578" style="stroke:#B38D22;stroke-width:1.0;"/><text fill="#000000" font-family="sans-serif" font-size="14" lengthAdjust="spacing" textLength="199" x="433.5" y="1182.6045">unsetGlobalCallbacks() : void</text><polygon fill="#FFFF44" points="424.5,1190.5547,428.5,1194.5547,424.5,1198.5547,420.5,1194.5547" style="stroke:#B38D22;stroke-width:1.0;"/><text fill="#000000" font-family="sans-serif" font-size="14" font-style="italic" lengthAdjust="spacing" textLength="187" x="433.5" y="1198.9014">unsetHtmlElements() : void</text></g><!--class AbstractProviderPattern<P, C>--><g id="elem_AbstractProviderPattern&lt;P, C&gt;"><rect codeLine="40" fill="#FFFFFF" height="585.7969" id="AbstractProviderPattern&lt;P, C&gt;" rx="2.5" ry="2.5" style="stroke:#272B30;stroke-width:0.5;" width="800" x="9" y="7"/><ellipse cx="298.75" cy="23" fill="#A9DCDF" rx="11" ry="11" style="stroke:#181818;stroke-width:1.0;"/><path d="M298.8594,18.3438 L297.7031,23.4219 L300.0313,23.4219 L298.8594,18.3438 Z M297.375,16.1094 L300.3594,16.1094 L303.7188,28.5 L301.2656,28.5 L300.5,25.4375 L297.2188,25.4375 L296.4688,28.5 L294.0313,28.5 L297.375,16.1094 Z " fill="#000000"/><text fill="#000000" font-family="sans-serif" font-size="14" font-style="italic" lengthAdjust="spacing" textLength="212" x="319.25" y="27.8467">AbstractProviderPattern&lt;P, C&gt;</text><line style="stroke:#272B30;stroke-width:0.5;" x1="10" x2="808" y1="39" y2="39"/><polygon fill="none" points="20,47.6484,24,51.6484,20,55.6484,16,51.6484" style="stroke:#B38D22;stroke-width:1.0;"/><text fill="#000000" font-family="sans-serif" font-size="14" lengthAdjust="spacing" textLength="180" x="29" y="55.9951">isProviderBased : boolean</text><polygon fill="none" points="20,63.9453,24,67.9453,20,71.9453,16,67.9453" style="stroke:#B38D22;stroke-width:1.0;"/><text fill="#000000" font-family="sans-serif" font-size="14" lengthAdjust="spacing" textLength="393" x="29" y="72.292">providerEventsManagerInstance : IProviderEventManager</text><rect fill="none" height="6" style="stroke:#C82930;stroke-width:1.0;" width="6" x="17" y="82.2422"/><text fill="#000000" font-family="sans-serif" font-size="14" lengthAdjust="spacing" textLength="196" x="29" y="88.5889">_asyncInvocationId : number</text><rect fill="none" height="6" style="stroke:#C82930;stroke-width:1.0;" width="6" x="17" y="98.5391"/><text fill="#000000" font-family="sans-serif" font-size="14" lengthAdjust="spacing" textLength="405" x="29" y="104.8857">_platformEventProviderConfigsAppliedCallback : OSGeneric</text><rect fill="none" height="6" style="stroke:#C82930;stroke-width:1.0;" width="6" x="17" y="114.8359"/><text fill="#000000" font-family="sans-serif" font-size="14" lengthAdjust="spacing" textLength="85" x="29" y="121.1826">_provider : P</text><rect fill="none" height="6" style="stroke:#C82930;stroke-width:1.0;" width="6" x="17" y="131.1328"/><text fill="#000000" font-family="sans-serif" font-size="14" lengthAdjust="spacing" textLength="182" x="29" y="137.4795">_providerInfo : ProviderInfo</text><rect fill="none" height="6" style="stroke:#C82930;stroke-width:1.0;" width="6" x="17" y="147.4297"/><text fill="#000000" font-family="sans-serif" font-size="14" lengthAdjust="spacing" textLength="178" x="29" y="153.7764">_redrawCallback : Generic</text><line style="stroke:#272B30;stroke-width:0.5;" x1="10" x2="808" y1="161.0781" y2="161.0781"/><ellipse cx="20" cy="174.7266" fill="#84BE84" rx="3" ry="3" style="stroke:#038048;stroke-width:1.0;"/><text fill="#000000" font-family="sans-serif" font-size="14" lengthAdjust="spacing" textLength="84" x="29" y="178.0732">build() : void</text><ellipse cx="20" cy="191.0234" fill="#84BE84" rx="3" ry="3" style="stroke:#038048;stroke-width:1.0;"/><text fill="#000000" font-family="sans-serif" font-size="14" lengthAdjust="spacing" textLength="484" x="29" y="194.3701">changeProperty(propertyName: string, propertyValue: unknown) : void</text><ellipse cx="20" cy="207.3203" fill="#84BE84" rx="3" ry="3" style="stroke:#038048;stroke-width:1.0;"/><text fill="#000000" font-family="sans-serif" font-size="14" lengthAdjust="spacing" textLength="241" x="29" y="210.667">checkAddedProviderEvents() : void</text><ellipse cx="20" cy="223.6172" fill="#84BE84" rx="3" ry="3" style="stroke:#038048;stroke-width:1.0;"/><text fill="#000000" font-family="sans-serif" font-size="14" lengthAdjust="spacing" textLength="253" x="29" y="226.9639">checkPendingProviderEvents() : void</text><ellipse cx="20" cy="239.9141" fill="#84BE84" rx="3" ry="3" style="stroke:#038048;stroke-width:1.0;"/><text fill="#000000" font-family="sans-serif" font-size="14" lengthAdjust="spacing" textLength="106" x="29" y="243.2607">dispose() : void</text><ellipse cx="20" cy="256.2109" fill="#84BE84" rx="3" ry="3" style="stroke:#038048;stroke-width:1.0;"/><text fill="#000000" font-family="sans-serif" font-size="14" lengthAdjust="spacing" textLength="267" x="29" y="259.5576">equalsToID(patternId: string) : boolean</text><ellipse cx="20" cy="272.5078" fill="#84BE84" rx="3" ry="3" style="stroke:#038048;stroke-width:1.0;"/><text fill="#000000" font-family="sans-serif" font-size="14" lengthAdjust="spacing" textLength="434" x="29" y="275.8545">registerCallback(eventName: string, callback: OSGeneric) : void</text><ellipse cx="20" cy="288.8047" fill="#84BE84" rx="3" ry="3" style="stroke:#038048;stroke-width:1.0;"/><text fill="#000000" font-family="sans-serif" font-size="14" lengthAdjust="spacing" textLength="362" x="29" y="292.1514">setProviderConfigs(providerConfigs: unknown) : void</text><ellipse cx="20" cy="305.1016" fill="#84BE84" rx="3" ry="3" style="stroke:#038048;stroke-width:1.0;"/><text fill="#000000" font-family="sans-serif" font-size="14" lengthAdjust="spacing" textLength="681" x="29" y="308.4482">setProviderEvent(eventName: string, callback: Generic, uniqueId: string, saveEvent: boolean) : void</text><ellipse cx="20" cy="321.3984" fill="#84BE84" rx="3" ry="3" style="stroke:#038048;stroke-width:1.0;"/><text fill="#000000" font-family="sans-serif" font-size="14" lengthAdjust="spacing" textLength="285" x="29" y="324.7451">unsetProviderEvent(eventId: string) : void</text><ellipse cx="20" cy="337.6953" fill="#84BE84" rx="3" ry="3" style="stroke:#038048;stroke-width:1.0;"/><text fill="#000000" font-family="sans-serif" font-size="14" lengthAdjust="spacing" textLength="374" x="29" y="341.042">updateProviderEvents(providerInfo: ProviderInfo) : void</text><polygon fill="#FFFF44" points="20,348.9922,24,352.9922,20,356.9922,16,352.9922" style="stroke:#B38D22;stroke-width:1.0;"/><text fill="#000000" font-family="sans-serif" font-size="14" lengthAdjust="spacing" textLength="121" x="29" y="357.3389">finishBuild() : void</text><polygon fill="#FFFF44" points="20,365.2891,24,369.2891,20,373.2891,16,369.2891" style="stroke:#B38D22;stroke-width:1.0;"/><text fill="#000000" font-family="sans-serif" font-size="14" font-style="italic" lengthAdjust="spacing" textLength="157" x="29" y="373.6357">prepareConfigs() : void</text><polygon fill="#FFFF44" points="20,381.5859,24,385.5859,20,389.5859,16,385.5859" style="stroke:#B38D22;stroke-width:1.0;"/><text fill="#000000" font-family="sans-serif" font-size="14" lengthAdjust="spacing" textLength="98" x="29" y="389.9326">redraw() : void</text><polygon fill="#FFFF44" points="20,397.8828,24,401.8828,20,405.8828,16,401.8828" style="stroke:#B38D22;stroke-width:1.0;"/><text fill="#000000" font-family="sans-serif" font-size="14" font-style="italic" lengthAdjust="spacing" textLength="179" x="29" y="406.2295">setA11YProperties() : void</text><polygon fill="#FFFF44" points="20,414.1797,24,418.1797,20,422.1797,16,418.1797" style="stroke:#B38D22;stroke-width:1.0;"/><text fill="#000000" font-family="sans-serif" font-size="14" font-style="italic" lengthAdjust="spacing" textLength="137" x="29" y="422.5264">setCallbacks() : void</text><polygon fill="#FFFF44" points="20,430.4766,24,434.4766,20,438.4766,16,434.4766" style="stroke:#B38D22;stroke-width:1.0;"/><text fill="#000000" font-family="sans-serif" font-size="14" font-style="italic" lengthAdjust="spacing" textLength="169" x="29" y="438.8232">setHtmlElements() : void</text><polygon fill="#FFFF44" points="20,446.7734,24,450.7734,20,454.7734,16,450.7734" style="stroke:#B38D22;stroke-width:1.0;"/><text fill="#000000" font-family="sans-serif" font-size="14" lengthAdjust="spacing" textLength="569" x="29" y="455.1201">triggerPlatformEventCallback(platFormCallback: OSGeneric, args: unknown[]) : void</text><polygon fill="#FFFF44" points="20,463.0703,24,467.0703,20,471.0703,16,467.0703" style="stroke:#B38D22;stroke-width:1.0;"/><text fill="#000000" font-family="sans-serif" font-size="14" lengthAdjust="spacing" textLength="311" x="29" y="471.417">triggerPlatformInitializedEventCallback() : void</text><polygon fill="#FFFF44" points="20,479.3672,24,483.3672,20,487.3672,16,483.3672" style="stroke:#B38D22;stroke-width:1.0;"/><text fill="#000000" font-family="sans-serif" font-size="14" lengthAdjust="spacing" textLength="156" x="29" y="487.7139">unsetCallbacks() : void</text><polygon fill="#FFFF44" points="20,495.6641,24,499.6641,20,503.6641,16,499.6641" style="stroke:#B38D22;stroke-width:1.0;"/><text fill="#000000" font-family="sans-serif" font-size="14" lengthAdjust="spacing" textLength="199" x="29" y="504.0107">unsetGlobalCallbacks() : void</text><polygon fill="#FFFF44" points="20,511.9609,24,515.9609,20,519.9609,16,515.9609" style="stroke:#B38D22;stroke-width:1.0;"/><text fill="#000000" font-family="sans-serif" font-size="14" font-style="italic" lengthAdjust="spacing" textLength="187" x="29" y="520.3076">unsetHtmlElements() : void</text><rect fill="#F24D5C" height="6" style="stroke:#C82930;stroke-width:1.0;" width="6" x="17" y="530.2578"/><text fill="#000000" font-family="sans-serif" font-size="14" lengthAdjust="spacing" textLength="155" x="29" y="536.6045">_cancelRedraw() : void</text><rect fill="#F24D5C" height="6" style="stroke:#C82930;stroke-width:1.0;" width="6" x="17" y="546.5547"/><text fill="#000000" font-family="sans-serif" font-size="14" lengthAdjust="spacing" textLength="398" x="29" y="552.9014">_getEventIndexFromArray(event: IProviderEvent) : number</text><rect fill="#F24D5C" height="6" style="stroke:#C82930;stroke-width:1.0;" width="6" x="17" y="562.8516"/><text fill="#000000" font-family="sans-serif" font-size="14" lengthAdjust="spacing" textLength="774" x="29" y="569.1982">_handleProviderEventsAPI(eventName: string, callback: Generic, addEvent: boolean, event: IProviderEvent) : void</text><rect fill="#F24D5C" height="6" style="stroke:#C82930;stroke-width:1.0;" width="6" x="17" y="579.1484"/><text fill="#000000" font-family="sans-serif" font-size="14" lengthAdjust="spacing" textLength="157" x="29" y="585.4951">_handleRedraw() : void</text></g><!--class IDropdown--><g id="elem_IDropdown"><rect codeLine="76" fill="#FFFFFF" height="357.6406" id="IDropdown" rx="2.5" ry="2.5" style="stroke:#272B30;stroke-width:0.5;" width="563" x="844.5" y="121"/><ellipse cx="1083.75" cy="137" fill="#B4A7E5" rx="11" ry="11" style="stroke:#181818;stroke-width:1.0;"/><path d="M1079.6719,132.7656 L1079.6719,130.6094 L1087.0625,130.6094 L1087.0625,132.7656 L1084.5938,132.7656 L1084.5938,140.8438 L1087.0625,140.8438 L1087.0625,143 L1079.6719,143 L1079.6719,140.8438 L1082.1406,140.8438 L1082.1406,132.7656 L1079.6719,132.7656 Z " fill="#000000"/><text fill="#000000" font-family="sans-serif" font-size="14" font-style="italic" lengthAdjust="spacing" textLength="76" x="1104.25" y="141.8467">IDropdown</text><line style="stroke:#272B30;stroke-width:0.5;" x1="845.5" x2="1406.5" y1="153" y2="153"/><ellipse cx="855.5" cy="166.6484" fill="none" rx="3" ry="3" style="stroke:#038048;stroke-width:1.0;"/><text fill="#000000" font-family="sans-serif" font-size="14" lengthAdjust="spacing" textLength="110" x="864.5" y="169.9951">isBuilt : boolean</text><ellipse cx="855.5" cy="182.9453" fill="none" rx="3" ry="3" style="stroke:#038048;stroke-width:1.0;"/><text fill="#000000" font-family="sans-serif" font-size="14" lengthAdjust="spacing" textLength="189" x="864.5" y="186.292">selfElement : HTMLElement</text><ellipse cx="855.5" cy="199.2422" fill="none" rx="3" ry="3" style="stroke:#038048;stroke-width:1.0;"/><text fill="#000000" font-family="sans-serif" font-size="14" lengthAdjust="spacing" textLength="112" x="864.5" y="202.5889">uniqueId : string</text><ellipse cx="855.5" cy="215.5391" fill="none" rx="3" ry="3" style="stroke:#038048;stroke-width:1.0;"/><text fill="#000000" font-family="sans-serif" font-size="14" lengthAdjust="spacing" textLength="110" x="864.5" y="218.8857">widgetId : string</text><line style="stroke:#272B30;stroke-width:0.5;" x1="845.5" x2="1406.5" y1="226.1875" y2="226.1875"/><ellipse cx="855.5" cy="239.8359" fill="#84BE84" rx="3" ry="3" style="stroke:#038048;stroke-width:1.0;"/><text fill="#000000" font-family="sans-serif" font-size="14" lengthAdjust="spacing" textLength="84" x="864.5" y="243.1826">build() : void</text><ellipse cx="855.5" cy="256.1328" fill="#84BE84" rx="3" ry="3" style="stroke:#038048;stroke-width:1.0;"/><text fill="#000000" font-family="sans-serif" font-size="14" lengthAdjust="spacing" textLength="484" x="864.5" y="259.4795">changeProperty(propertyName: string, propertyValue: unknown) : void</text><ellipse cx="855.5" cy="272.4297" fill="#84BE84" rx="3" ry="3" style="stroke:#038048;stroke-width:1.0;"/><text fill="#000000" font-family="sans-serif" font-size="14" lengthAdjust="spacing" textLength="84" x="864.5" y="275.7764">clear() : void</text><ellipse cx="855.5" cy="288.7266" fill="#84BE84" rx="3" ry="3" style="stroke:#038048;stroke-width:1.0;"/><text fill="#000000" font-family="sans-serif" font-size="14" lengthAdjust="spacing" textLength="88" x="864.5" y="292.0732">close() : void</text><ellipse cx="855.5" cy="305.0234" fill="#84BE84" rx="3" ry="3" style="stroke:#038048;stroke-width:1.0;"/><text fill="#000000" font-family="sans-serif" font-size="14" lengthAdjust="spacing" textLength="100" x="864.5" y="308.3701">disable() : void</text><ellipse cx="855.5" cy="321.3203" fill="#84BE84" rx="3" ry="3" style="stroke:#038048;stroke-width:1.0;"/><text fill="#000000" font-family="sans-serif" font-size="14" lengthAdjust="spacing" textLength="106" x="864.5" y="324.667">dispose() : void</text><ellipse cx="855.5" cy="337.6172" fill="#84BE84" rx="3" ry="3" style="stroke:#038048;stroke-width:1.0;"/><text fill="#000000" font-family="sans-serif" font-size="14" lengthAdjust="spacing" textLength="98" x="864.5" y="340.9639">enable() : void</text><ellipse cx="855.5" cy="353.9141" fill="#84BE84" rx="3" ry="3" style="stroke:#038048;stroke-width:1.0;"/><text fill="#000000" font-family="sans-serif" font-size="14" lengthAdjust="spacing" textLength="217" x="864.5" y="357.2607">equalsToID(id: string) : boolean</text><ellipse cx="855.5" cy="370.2109" fill="#84BE84" rx="3" ry="3" style="stroke:#038048;stroke-width:1.0;"/><text fill="#000000" font-family="sans-serif" font-size="14" lengthAdjust="spacing" textLength="192" x="864.5" y="373.5576">getSelectedValues() : string</text><ellipse cx="855.5" cy="386.5078" fill="#84BE84" rx="3" ry="3" style="stroke:#038048;stroke-width:1.0;"/><text fill="#000000" font-family="sans-serif" font-size="14" lengthAdjust="spacing" textLength="87" x="864.5" y="389.8545">open() : void</text><ellipse cx="855.5" cy="402.8047" fill="#84BE84" rx="3" ry="3" style="stroke:#038048;stroke-width:1.0;"/><text fill="#000000" font-family="sans-serif" font-size="14" lengthAdjust="spacing" textLength="434" x="864.5" y="406.1514">registerCallback(eventName: string, callback: OSGeneric) : void</text><ellipse cx="855.5" cy="419.1016" fill="#84BE84" rx="3" ry="3" style="stroke:#038048;stroke-width:1.0;"/><text fill="#000000" font-family="sans-serif" font-size="14" lengthAdjust="spacing" textLength="322" x="864.5" y="422.4482">setProviderConfigs(providerConfigs: any) : void</text><ellipse cx="855.5" cy="435.3984" fill="#84BE84" rx="3" ry="3" style="stroke:#038048;stroke-width:1.0;"/><text fill="#000000" font-family="sans-serif" font-size="14" lengthAdjust="spacing" textLength="537" x="864.5" y="438.7451">setProviderEvent(eventName: string, callback: Generic, uniqueId: string) : void</text><ellipse cx="855.5" cy="451.6953" fill="#84BE84" rx="3" ry="3" style="stroke:#038048;stroke-width:1.0;"/><text fill="#000000" font-family="sans-serif" font-size="14" lengthAdjust="spacing" textLength="285" x="864.5" y="455.042">unsetProviderEvent(eventId: string) : void</text><ellipse cx="855.5" cy="467.9922" fill="#84BE84" rx="3" ry="3" style="stroke:#038048;stroke-width:1.0;"/><text fill="#000000" font-family="sans-serif" font-size="14" lengthAdjust="spacing" textLength="406" x="864.5" y="471.3389">validation(isValid: boolean, validationMessage: string) : void</text></g><!--class AbstractVirtualSelect<C>--><g id="elem_AbstractVirtualSelect&lt;C&gt;"><rect codeLine="98" fill="#FFFFFF" height="928.0313" id="AbstractVirtualSelect&lt;C&gt;" rx="2.5" ry="2.5" style="stroke:#272B30;stroke-width:0.5;" width="707" x="413.5" y="1266"/><ellipse cx="674.25" cy="1282" fill="#A9DCDF" rx="11" ry="11" style="stroke:#181818;stroke-width:1.0;"/><path d="M674.3594,1277.3438 L673.2031,1282.4219 L675.5313,1282.4219 L674.3594,1277.3438 Z M672.875,1275.1094 L675.8594,1275.1094 L679.2188,1287.5 L676.7656,1287.5 L676,1284.4375 L672.7188,1284.4375 L671.9688,1287.5 L669.5313,1287.5 L672.875,1275.1094 Z " fill="#000000"/><text fill="#000000" font-family="sans-serif" font-size="14" font-style="italic" lengthAdjust="spacing" textLength="177" x="694.75" y="1286.8467">AbstractVirtualSelect&lt;C&gt;</text><line style="stroke:#272B30;stroke-width:0.5;" x1="414.5" x2="1119.5" y1="1298" y2="1298"/><polygon fill="none" points="424.5,1306.6484,428.5,1310.6484,424.5,1314.6484,420.5,1310.6484" style="stroke:#B38D22;stroke-width:1.0;"/><text fill="#000000" font-family="sans-serif" font-size="14" lengthAdjust="spacing" textLength="274" x="433.5" y="1314.9951">hiddenInputWrapperAriaLabelVal : string</text><polygon fill="none" points="424.5,1322.9453,428.5,1326.9453,424.5,1330.9453,420.5,1326.9453" style="stroke:#B38D22;stroke-width:1.0;"/><text fill="#000000" font-family="sans-serif" font-size="14" lengthAdjust="spacing" textLength="180" x="433.5" y="1331.292">isProviderBased : boolean</text><polygon fill="none" points="424.5,1339.2422,428.5,1343.2422,424.5,1347.2422,420.5,1343.2422" style="stroke:#B38D22;stroke-width:1.0;"/><text fill="#000000" font-family="sans-serif" font-size="14" lengthAdjust="spacing" textLength="393" x="433.5" y="1347.5889">providerEventsManagerInstance : IProviderEventManager</text><polygon fill="none" points="424.5,1355.5391,428.5,1359.5391,424.5,1363.5391,420.5,1359.5391" style="stroke:#B38D22;stroke-width:1.0;"/><text fill="#000000" font-family="sans-serif" font-size="14" lengthAdjust="spacing" textLength="293" x="433.5" y="1363.8857">virtualselectConfigs : VirtualSelectMethods</text><polygon fill="none" points="424.5,1371.8359,428.5,1375.8359,424.5,1379.8359,420.5,1375.8359" style="stroke:#B38D22;stroke-width:1.0;"/><text fill="#000000" font-family="sans-serif" font-size="14" lengthAdjust="spacing" textLength="246" x="433.5" y="1380.1826">virtualselectOpts : VirtualSelectOpts</text><rect fill="none" height="6" style="stroke:#C82930;stroke-width:1.0;" width="6" x="421.5" y="1390.1328"/><text fill="#000000" font-family="sans-serif" font-size="14" lengthAdjust="spacing" textLength="263" x="433.5" y="1396.4795">_eventOnOrientationChange : Generic</text><rect fill="none" height="6" style="stroke:#C82930;stroke-width:1.0;" width="6" x="421.5" y="1406.4297"/><text fill="#000000" font-family="sans-serif" font-size="14" lengthAdjust="spacing" textLength="234" x="433.5" y="1412.7764">_eventOnWindowResize : Generic</text><rect fill="none" height="6" style="stroke:#C82930;stroke-width:1.0;" width="6" x="421.5" y="1422.7266"/><text fill="#000000" font-family="sans-serif" font-size="14" lengthAdjust="spacing" textLength="197" x="433.5" y="1429.0732">_onMouseUpEvent : Generic</text><rect fill="none" height="6" style="stroke:#C82930;stroke-width:1.0;" width="6" x="421.5" y="1439.0234"/><text fill="#000000" font-family="sans-serif" font-size="14" lengthAdjust="spacing" textLength="238" x="433.5" y="1445.3701">_onSelectedOptionEvent : Generic</text><rect fill="none" height="6" style="stroke:#C82930;stroke-width:1.0;" width="6" x="421.5" y="1455.3203"/><text fill="#000000" font-family="sans-serif" font-size="14" lengthAdjust="spacing" textLength="380" x="433.5" y="1461.667">_platformEventSelectedOptCallback : OSOnSelectEvent</text><line style="stroke:#272B30;stroke-width:0.5;" x1="414.5" x2="1119.5" y1="1468.9688" y2="1468.9688"/><ellipse cx="424.5" cy="1482.6172" fill="#84BE84" rx="3" ry="3" style="stroke:#038048;stroke-width:1.0;"/><text fill="#000000" font-family="sans-serif" font-size="14" lengthAdjust="spacing" textLength="84" x="433.5" y="1485.9639">build() : void</text><ellipse cx="424.5" cy="1498.9141" fill="#84BE84" rx="3" ry="3" style="stroke:#038048;stroke-width:1.0;"/><text fill="#000000" font-family="sans-serif" font-size="14" lengthAdjust="spacing" textLength="484" x="433.5" y="1502.2607">changeProperty(propertyName: string, propertyValue: unknown) : void</text><ellipse cx="424.5" cy="1515.2109" fill="#84BE84" rx="3" ry="3" style="stroke:#038048;stroke-width:1.0;"/><text fill="#000000" font-family="sans-serif" font-size="14" lengthAdjust="spacing" textLength="241" x="433.5" y="1518.5576">checkAddedProviderEvents() : void</text><ellipse cx="424.5" cy="1531.5078" fill="#84BE84" rx="3" ry="3" style="stroke:#038048;stroke-width:1.0;"/><text fill="#000000" font-family="sans-serif" font-size="14" lengthAdjust="spacing" textLength="253" x="433.5" y="1534.8545">checkPendingProviderEvents() : void</text><ellipse cx="424.5" cy="1547.8047" fill="#84BE84" rx="3" ry="3" style="stroke:#038048;stroke-width:1.0;"/><text fill="#000000" font-family="sans-serif" font-size="14" lengthAdjust="spacing" textLength="308" x="433.5" y="1551.1514">clear(silentOnChangedEvent: boolean) : void</text><ellipse cx="424.5" cy="1564.1016" fill="#84BE84" rx="3" ry="3" style="stroke:#038048;stroke-width:1.0;"/><text fill="#000000" font-family="sans-serif" font-size="14" lengthAdjust="spacing" textLength="88" x="433.5" y="1567.4482">close() : void</text><ellipse cx="424.5" cy="1580.3984" fill="#84BE84" rx="3" ry="3" style="stroke:#038048;stroke-width:1.0;"/><text fill="#000000" font-family="sans-serif" font-size="14" lengthAdjust="spacing" textLength="100" x="433.5" y="1583.7451">disable() : void</text><ellipse cx="424.5" cy="1596.6953" fill="#84BE84" rx="3" ry="3" style="stroke:#038048;stroke-width:1.0;"/><text fill="#000000" font-family="sans-serif" font-size="14" lengthAdjust="spacing" textLength="106" x="433.5" y="1600.042">dispose() : void</text><ellipse cx="424.5" cy="1612.9922" fill="#84BE84" rx="3" ry="3" style="stroke:#038048;stroke-width:1.0;"/><text fill="#000000" font-family="sans-serif" font-size="14" lengthAdjust="spacing" textLength="98" x="433.5" y="1616.3389">enable() : void</text><ellipse cx="424.5" cy="1629.2891" fill="#84BE84" rx="3" ry="3" style="stroke:#038048;stroke-width:1.0;"/><text fill="#000000" font-family="sans-serif" font-size="14" lengthAdjust="spacing" textLength="267" x="433.5" y="1632.6357">equalsToID(patternId: string) : boolean</text><ellipse cx="424.5" cy="1645.5859" fill="#84BE84" rx="3" ry="3" style="stroke:#038048;stroke-width:1.0;"/><text fill="#000000" font-family="sans-serif" font-size="14" lengthAdjust="spacing" textLength="192" x="433.5" y="1648.9326">getSelectedValues() : string</text><ellipse cx="424.5" cy="1661.8828" fill="#84BE84" rx="3" ry="3" style="stroke:#038048;stroke-width:1.0;"/><text fill="#000000" font-family="sans-serif" font-size="14" lengthAdjust="spacing" textLength="87" x="433.5" y="1665.2295">open() : void</text><ellipse cx="424.5" cy="1678.1797" fill="#84BE84" rx="3" ry="3" style="stroke:#038048;stroke-width:1.0;"/><text fill="#000000" font-family="sans-serif" font-size="14" lengthAdjust="spacing" textLength="434" x="433.5" y="1681.5264">registerCallback(eventName: string, callback: OSGeneric) : void</text><ellipse cx="424.5" cy="1694.4766" fill="#84BE84" rx="3" ry="3" style="stroke:#038048;stroke-width:1.0;"/><text fill="#000000" font-family="sans-serif" font-size="14" lengthAdjust="spacing" textLength="380" x="433.5" y="1697.8232">setHiddenInputWrapperAriaLabelVal(value: string) : void</text><ellipse cx="424.5" cy="1710.7734" fill="#84BE84" rx="3" ry="3" style="stroke:#038048;stroke-width:1.0;"/><text fill="#000000" font-family="sans-serif" font-size="14" lengthAdjust="spacing" textLength="389" x="433.5" y="1714.1201">setProviderConfigs(newConfigs: VirtualSelectOpts) : void</text><ellipse cx="424.5" cy="1727.0703" fill="#84BE84" rx="3" ry="3" style="stroke:#038048;stroke-width:1.0;"/><text fill="#000000" font-family="sans-serif" font-size="14" lengthAdjust="spacing" textLength="681" x="433.5" y="1730.417">setProviderEvent(eventName: string, callback: Generic, uniqueId: string, saveEvent: boolean) : void</text><ellipse cx="424.5" cy="1743.3672" fill="#84BE84" rx="3" ry="3" style="stroke:#038048;stroke-width:1.0;"/><text fill="#000000" font-family="sans-serif" font-size="14" lengthAdjust="spacing" textLength="595" x="433.5" y="1746.7139">setValue(optionsToSelect: DropDownOption[], silentOnChangedEvent: boolean) : void</text><ellipse cx="424.5" cy="1759.6641" fill="#84BE84" rx="3" ry="3" style="stroke:#038048;stroke-width:1.0;"/><text fill="#000000" font-family="sans-serif" font-size="14" lengthAdjust="spacing" textLength="272" x="433.5" y="1763.0107">togglePopup(isEnabled: boolean) : void</text><ellipse cx="424.5" cy="1775.9609" fill="#84BE84" rx="3" ry="3" style="stroke:#038048;stroke-width:1.0;"/><text fill="#000000" font-family="sans-serif" font-size="14" lengthAdjust="spacing" textLength="285" x="433.5" y="1779.3076">unsetProviderEvent(eventId: string) : void</text><ellipse cx="424.5" cy="1792.2578" fill="#84BE84" rx="3" ry="3" style="stroke:#038048;stroke-width:1.0;"/><text fill="#000000" font-family="sans-serif" font-size="14" lengthAdjust="spacing" textLength="374" x="433.5" y="1795.6045">updateProviderEvents(providerInfo: ProviderInfo) : void</text><ellipse cx="424.5" cy="1808.5547" fill="#84BE84" rx="3" ry="3" style="stroke:#038048;stroke-width:1.0;"/><text fill="#000000" font-family="sans-serif" font-size="14" lengthAdjust="spacing" textLength="406" x="433.5" y="1811.9014">validation(isValid: boolean, validationMessage: string) : void</text><polygon fill="#FFFF44" points="424.5,1819.8516,428.5,1823.8516,424.5,1827.8516,420.5,1823.8516" style="stroke:#B38D22;stroke-width:1.0;"/><text fill="#000000" font-family="sans-serif" font-size="14" lengthAdjust="spacing" textLength="210" x="433.5" y="1828.1982">createProviderInstance() : void</text><polygon fill="#FFFF44" points="424.5,1836.1484,428.5,1840.1484,424.5,1844.1484,420.5,1840.1484" style="stroke:#B38D22;stroke-width:1.0;"/><text fill="#000000" font-family="sans-serif" font-size="14" lengthAdjust="spacing" textLength="121" x="433.5" y="1844.4951">finishBuild() : void</text><polygon fill="#FFFF44" points="424.5,1852.4453,428.5,1856.4453,424.5,1860.4453,420.5,1856.4453" style="stroke:#B38D22;stroke-width:1.0;"/><text fill="#000000" font-family="sans-serif" font-size="14" font-style="italic" lengthAdjust="spacing" textLength="354" x="433.5" y="1860.792">getSelectedOptionsStructure() : DropDownOption[]</text><polygon fill="#FFFF44" points="424.5,1868.7422,428.5,1872.7422,424.5,1876.7422,420.5,1872.7422" style="stroke:#B38D22;stroke-width:1.0;"/><text fill="#000000" font-family="sans-serif" font-size="14" font-style="italic" lengthAdjust="spacing" textLength="157" x="433.5" y="1877.0889">prepareConfigs() : void</text><polygon fill="#FFFF44" points="424.5,1885.0391,428.5,1889.0391,424.5,1893.0391,420.5,1889.0391" style="stroke:#B38D22;stroke-width:1.0;"/><text fill="#000000" font-family="sans-serif" font-size="14" lengthAdjust="spacing" textLength="98" x="433.5" y="1893.3857">redraw() : void</text><polygon fill="#FFFF44" points="424.5,1901.3359,428.5,1905.3359,424.5,1909.3359,420.5,1905.3359" style="stroke:#B38D22;stroke-width:1.0;"/><text fill="#000000" font-family="sans-serif" font-size="14" lengthAdjust="spacing" textLength="180" x="433.5" y="1909.6826">setA11YProperties() : void</text><polygon fill="#FFFF44" points="424.5,1917.6328,428.5,1921.6328,424.5,1925.6328,420.5,1921.6328" style="stroke:#B38D22;stroke-width:1.0;"/><text fill="#000000" font-family="sans-serif" font-size="14" lengthAdjust="spacing" textLength="138" x="433.5" y="1925.9795">setCallbacks() : void</text><polygon fill="#FFFF44" points="424.5,1933.9297,428.5,1937.9297,424.5,1941.9297,420.5,1937.9297" style="stroke:#B38D22;stroke-width:1.0;"/><text fill="#000000" font-family="sans-serif" font-size="14" lengthAdjust="spacing" textLength="169" x="433.5" y="1942.2764">setHtmlElements() : void</text><polygon fill="#FFFF44" points="424.5,1950.2266,428.5,1954.2266,424.5,1958.2266,420.5,1954.2266" style="stroke:#B38D22;stroke-width:1.0;"/><text fill="#000000" font-family="sans-serif" font-size="14" lengthAdjust="spacing" textLength="569" x="433.5" y="1958.5732">triggerPlatformEventCallback(platFormCallback: OSGeneric, args: unknown[]) : void</text><polygon fill="#FFFF44" points="424.5,1966.5234,428.5,1970.5234,424.5,1974.5234,420.5,1970.5234" style="stroke:#B38D22;stroke-width:1.0;"/><text fill="#000000" font-family="sans-serif" font-size="14" lengthAdjust="spacing" textLength="311" x="433.5" y="1974.8701">triggerPlatformInitializedEventCallback() : void</text><polygon fill="#FFFF44" points="424.5,1982.8203,428.5,1986.8203,424.5,1990.8203,420.5,1986.8203" style="stroke:#B38D22;stroke-width:1.0;"/><text fill="#000000" font-family="sans-serif" font-size="14" lengthAdjust="spacing" textLength="156" x="433.5" y="1991.167">unsetCallbacks() : void</text><polygon fill="#FFFF44" points="424.5,1999.1172,428.5,2003.1172,424.5,2007.1172,420.5,2003.1172" style="stroke:#B38D22;stroke-width:1.0;"/><text fill="#000000" font-family="sans-serif" font-size="14" lengthAdjust="spacing" textLength="199" x="433.5" y="2007.4639">unsetGlobalCallbacks() : void</text><polygon fill="#FFFF44" points="424.5,2015.4141,428.5,2019.4141,424.5,2023.4141,420.5,2019.4141" style="stroke:#B38D22;stroke-width:1.0;"/><text fill="#000000" font-family="sans-serif" font-size="14" lengthAdjust="spacing" textLength="187" x="433.5" y="2023.7607">unsetHtmlElements() : void</text><rect fill="#F24D5C" height="6" style="stroke:#C82930;stroke-width:1.0;" width="6" x="421.5" y="2033.7109"/><text fill="#000000" font-family="sans-serif" font-size="14" lengthAdjust="spacing" textLength="254" x="433.5" y="2040.0576">_addErrorMessage(text: string) : void</text><rect fill="#F24D5C" height="6" style="stroke:#C82930;stroke-width:1.0;" width="6" x="421.5" y="2050.0078"/><text fill="#000000" font-family="sans-serif" font-size="14" lengthAdjust="spacing" textLength="181" x="433.5" y="2056.3545">_manageAttributes() : void</text><rect fill="#F24D5C" height="6" style="stroke:#C82930;stroke-width:1.0;" width="6" x="421.5" y="2066.3047"/><text fill="#000000" font-family="sans-serif" font-size="14" lengthAdjust="spacing" textLength="209" x="433.5" y="2072.6514">_manageDisableStatus() : void</text><rect fill="#F24D5C" height="6" style="stroke:#C82930;stroke-width:1.0;" width="6" x="421.5" y="2082.6016"/><text fill="#000000" font-family="sans-serif" font-size="14" lengthAdjust="spacing" textLength="214" x="433.5" y="2088.9482">_onMouseUp(event: any) : void</text><rect fill="#F24D5C" height="6" style="stroke:#C82930;stroke-width:1.0;" width="6" x="421.5" y="2098.8984"/><text fill="#000000" font-family="sans-serif" font-size="14" lengthAdjust="spacing" textLength="206" x="433.5" y="2105.2451">_onOrientationChange() : void</text><rect fill="#F24D5C" height="6" style="stroke:#C82930;stroke-width:1.0;" width="6" x="421.5" y="2115.1953"/><text fill="#000000" font-family="sans-serif" font-size="14" lengthAdjust="spacing" textLength="183" x="433.5" y="2121.542">_onSelectedOption() : void</text><rect fill="#F24D5C" height="6" style="stroke:#C82930;stroke-width:1.0;" width="6" x="421.5" y="2131.4922"/><text fill="#000000" font-family="sans-serif" font-size="14" lengthAdjust="spacing" textLength="177" x="433.5" y="2137.8389">_onWindowResize() : void</text><rect fill="#F24D5C" height="6" style="stroke:#C82930;stroke-width:1.0;" width="6" x="421.5" y="2147.7891"/><text fill="#000000" font-family="sans-serif" font-size="14" lengthAdjust="spacing" textLength="192" x="433.5" y="2154.1357">_setDropdownProps() : void</text><rect fill="#F24D5C" height="6" style="stroke:#C82930;stroke-width:1.0;" width="6" x="421.5" y="2164.0859"/><text fill="#000000" font-family="sans-serif" font-size="14" lengthAdjust="spacing" textLength="146" x="433.5" y="2170.4326">_setUpEvents() : void</text><rect fill="#F24D5C" height="6" style="stroke:#C82930;stroke-width:1.0;" width="6" x="421.5" y="2180.3828"/><text fill="#000000" font-family="sans-serif" font-size="14" lengthAdjust="spacing" textLength="145" x="433.5" y="2186.7295">_unsetEvents() : void</text></g><!--reverse link AbstractProviderPattern<P, C> to AbstractDropdown<P, C>--><g id="link_AbstractProviderPattern&lt;P, C&gt;_AbstractDropdown&lt;P, C&gt;"><path codeLine="75" d="M584.6037,608.7923 C595.9237,628.6223 598.37,632.93 609.64,652.67 " fill="none" id="AbstractProviderPattern&lt;P, C&gt;-backto-AbstractDropdown&lt;P, C&gt;" style="stroke:#272B30;stroke-width:1.0;"/><polygon fill="none" points="575.68,593.16,579.393,611.7668,589.8145,605.8177,575.68,593.16" style="stroke:#272B30;stroke-width:1.0;"/></g><!--reverse link IDropdown to AbstractDropdown<P, C>--><g id="link_IDropdown_AbstractDropdown&lt;P, C&gt;"><path codeLine="97" d="M1015.1514,494.7638 C984.2114,548.8438 958.4,593.95 924.69,652.87 " fill="none" id="IDropdown-backto-AbstractDropdown&lt;P, C&gt;" style="stroke:#272B30;stroke-width:1.0;stroke-dasharray:7.0,7.0;"/><polygon fill="none" points="1024.09,479.14,1009.9435,491.7842,1020.3593,497.7433,1024.09,479.14" style="stroke:#272B30;stroke-width:1.0;"/></g><!--reverse link AbstractDropdown<P, C> to AbstractVirtualSelect<C>--><g id="link_AbstractDropdown&lt;P, C&gt;_AbstractVirtualSelect&lt;C&gt;"><path codeLine="154" d="M767,1224.14 C767,1243.64 767,1245.57 767,1265.73 " fill="none" id="AbstractDropdown&lt;P, C&gt;-backto-AbstractVirtualSelect&lt;C&gt;" style="stroke:#272B30;stroke-width:1.0;"/><polygon fill="none" points="767,1206.14,761,1224.14,773,1224.14,767,1206.14" style="stroke:#272B30;stroke-width:1.0;"/></g><!--SRC=[xLbRJnmt57xdLrZmCeZTg4ahHKAeqhAGC58egv0ILL64lEEpYuNNdjYUtT24_zupzip6SrrIGcdQy1B6v-BZS_dycPXhBbEgwOAC1JLcfBLQZPLGckmyU_vi-lDFMwQgSQWq0zslGfFhkLQPP8NQR3OBT1hY1DWlZ6vTSGO45gcz8GkmLugPS6d6GU0AdHghQM99akz4jaV5zv5MALChUJ0PaF6ls-JJ5i6V7MucMYtHYpwa1XZP9rEb153fnMaXF5w2jEQKIZe77KjZgKm0bUD9g538dUdUDEE2HRkej5IS-RNaYieve4qAsjv4QV7BRtG1-mJZv78-8ENg1HKPBcVoMcBSTKUGN8yO0rO9m4GjQXEG31ttANugitQBDdXwtITM1hh5Z1iw5JM5V3NjDGFPOWKVCYhC6nKVHIcr5hICMPcctLgbGcTpiESW8B70N0xzORrTGnbpBMlxQfXpWzkDgH1JxCK8yfHLYvGKidroTluI96YUL9qOi6N6nqhE-Dn4QVMxexI1eIjL_-x5tWFqnJzay2L10sBe4fo7TQQg6sMoVQjgaWFzb54BjJOgpnJBcTeda-2hizPBAZXwuaf6t5pa7-i01-IBy1ICmMbgZMLdnYKtLuVD4Gismk4511Geqr_re85fkkesnjoCdZxzevXL3gPNjMoLVgqJkn370XRD0Tp1CyuHEYQ2sfdI2vVTTV-bkFe2LyVDfXiGgeDMUlU-rsqikUMOuJ-1LNUeMhdEw3YI5xuKQah57KxjjDlFVTk9rMKRJVpK_rEGFRoavaOciLognBLWd3kNsMAwLaZ3-jJcUvIcWWChaqA2AfNMXG6A9hMbV698TO0A3T-eWTVGvtTroxHV0ry5yp-m-TjZymym_G-0gSUA9CSuyRgb6iDBP4Kkp5Wo-FX2gmLIUNhZswgEYhjrt4D4OQBMNwD9VCV-funLctr0EhSD8lQRrazpkxNfdZZuF1ns4lyjBb5tHl4ks8vBMNctx76JZu6jeuu1CIjoZgAJDwUlYgzoMlryLrdcteepJ7fZ-M4XkydUsoZxr_3qZUISTyFrHYh-gFoRofi7mVVxOVaz-J7EHz3N1v-VFEcUXIu2Ti6rnVBwqXq4t0lVsmnaBDFCljKqnNOSQKvVqIa8ZBHQseSZQZjB7vznyHNbH8jAsAV5dmYQ1cUfRMZdQmNikEASoJFDyL-Nwh6RpXhrMYk-vH9p-XeCtWGD7QoJoWpydhf3j8ZByS00SATshGhh30mgLFEiSEMKlaDow97BSE6IwbFE-ZZIGyFQPZBwgEXsqZkAqTANhWrWMg1HmcgDYesvU2GEZ1kvh4RAZGOMnOUqJt8OEyA6z3FpxZtwkdlRM3MV8vLHQPOYlXwx9c3_0Xh-JVukacW80YZ1DFeRV3_eRPzcSsvrbjXCUtVr6jp_mR3fbT3pDFWVlGSsFm9ojgsrqaMZH1O-sjPk6LuktAKwiYYRPXOQhhpyo8FgELw6MKDbVS6LBuawgSfL6dTfqqkrsPhoy9QjIp4X9RF9cyUqo8iBk25osQoBWYT6_RyDgc-B1a_w2m00]--></g></svg>