<?xml version="1.0" encoding="UTF-8" standalone="no"?><svg xmlns="http://www.w3.org/2000/svg" xmlns:xlink="http://www.w3.org/1999/xlink" contentScriptType="application/ecmascript" contentStyleType="text/css" height="934px" preserveAspectRatio="none" style="width:1016px;height:934px;background:#CED4DA;" version="1.1" viewBox="0 0 1016 934" width="1016px" zoomAndPan="magnify"><defs><filter height="300%" id="ft1wutzmygcd3" width="300%" x="-1" y="-1"><feGaussianBlur result="blurOut" stdDeviation="2.0"/><feColorMatrix in="blurOut" result="blurOut2" type="matrix" values="0 0 0 0 0 0 0 0 0 0 0 0 0 0 0 0 0 0 .4 0"/><feOffset dx="4.0" dy="4.0" in="blurOut2" result="blurOut3"/><feBlend in="SourceGraphic" in2="blurOut3" mode="normal"/></filter></defs><g><!--MD5=[2ee60d4cd41bf605aef3f90cc9d1cc0d]
class AbstractFlatpickrConfig--><rect codeLine="7" fill="#FFFFFF" filter="url(#ft1wutzmygcd3)" height="397.7871" id="AbstractFlatpickrConfig" style="stroke:#272B30;stroke-width:1.5;" width="479" x="266" y="91"/><ellipse cx="434.75" cy="107" fill="#A9DCDF" rx="11" ry="11" style="stroke:#272B30;stroke-width:1.0;"/><path d="M434.6133,102.3481 L433.4595,107.4199 L435.7754,107.4199 Z M433.1191,100.1069 L436.1157,100.1069 L439.4609,112.5 L437.0122,112.5 L436.2485,109.437 L432.9697,109.437 L432.2227,112.5 L429.7739,112.5 Z " fill="#000000"/><text fill="#000000" font-family="sans-serif" font-size="12" font-style="italic" lengthAdjust="spacing" textLength="133" x="455.25" y="111.5352">AbstractFlatpickrConfig</text><line style="stroke:#272B30;stroke-width:1.5;" x1="267" x2="744" y1="123" y2="123"/><ellipse cx="277" cy="134" rx="3" ry="3" style="stroke:#038048;stroke-width:1.0;fill:none;"/><text fill="#000000" font-family="sans-serif" font-size="11" lengthAdjust="spacing" textLength="109" x="286" y="137.6348">AllowInput : boolean</text><ellipse cx="277" cy="146.9551" rx="3" ry="3" style="stroke:#038048;stroke-width:1.0;fill:none;"/><text fill="#000000" font-family="sans-serif" font-size="11" lengthAdjust="spacing" textLength="115" x="286" y="150.5898">CalendarMode : Mode</text><ellipse cx="277" cy="159.9102" rx="3" ry="3" style="stroke:#038048;stroke-width:1.0;fill:none;"/><text fill="#000000" font-family="sans-serif" font-size="11" lengthAdjust="spacing" textLength="103" x="286" y="163.5449">DateFormat : string</text><ellipse cx="277" cy="172.8652" rx="3" ry="3" style="stroke:#038048;stroke-width:1.0;fill:none;"/><text fill="#000000" font-family="sans-serif" font-size="11" lengthAdjust="spacing" textLength="126" x="286" y="176.5">DisableMobile : boolean</text><ellipse cx="277" cy="185.8203" rx="3" ry="3" style="stroke:#038048;stroke-width:1.0;fill:none;"/><text fill="#000000" font-family="sans-serif" font-size="11" lengthAdjust="spacing" textLength="120" x="286" y="189.4551">ExtendedClass : string</text><ellipse cx="277" cy="198.7754" rx="3" ry="3" style="stroke:#038048;stroke-width:1.0;fill:none;"/><text fill="#000000" font-family="sans-serif" font-size="11" lengthAdjust="spacing" textLength="122" x="286" y="202.4102">FirstWeekDay : number</text><ellipse cx="277" cy="211.7305" rx="3" ry="3" style="stroke:#038048;stroke-width:1.0;fill:none;"/><text fill="#000000" font-family="sans-serif" font-size="11" lengthAdjust="spacing" textLength="87" x="286" y="215.3652">MaxDate : string</text><ellipse cx="277" cy="224.6855" rx="3" ry="3" style="stroke:#038048;stroke-width:1.0;fill:none;"/><text fill="#000000" font-family="sans-serif" font-size="11" lengthAdjust="spacing" textLength="84" x="286" y="228.3203">MinDate : string</text><ellipse cx="277" cy="237.6406" rx="3" ry="3" style="stroke:#038048;stroke-width:1.0;fill:none;"/><text fill="#000000" font-family="sans-serif" font-size="11" lengthAdjust="spacing" textLength="107" x="286" y="241.2754">OnChange : Generic</text><ellipse cx="277" cy="250.5957" rx="3" ry="3" style="stroke:#038048;stroke-width:1.0;fill:none;"/><text fill="#000000" font-family="sans-serif" font-size="11" lengthAdjust="spacing" textLength="137" x="286" y="254.2305">ServerDateFormat : string</text><ellipse cx="277" cy="263.5508" rx="3" ry="3" style="stroke:#038048;stroke-width:1.0;fill:none;"/><text fill="#000000" font-family="sans-serif" font-size="11" lengthAdjust="spacing" textLength="148" x="286" y="267.1855">ShowTodayButton : boolean</text><ellipse cx="277" cy="276.5059" rx="3" ry="3" style="stroke:#038048;stroke-width:1.0;fill:none;"/><text fill="#000000" font-family="sans-serif" font-size="11" lengthAdjust="spacing" textLength="156" x="286" y="280.1406">ShowWeekNumbers : boolean</text><ellipse cx="277" cy="289.4609" rx="3" ry="3" style="stroke:#038048;stroke-width:1.0;fill:none;"/><text fill="#000000" font-family="sans-serif" font-size="11" lengthAdjust="spacing" textLength="105" x="286" y="293.0957">TimeFormat : string</text><rect fill="none" height="6" style="stroke:#C82930;stroke-width:1.0;" width="6" x="274" y="299.416"/><text fill="#000000" font-family="sans-serif" font-size="11" lengthAdjust="spacing" textLength="70" x="286" y="306.0508">_lang : string</text><line style="stroke:#272B30;stroke-width:1.5;" x1="267" x2="744" y1="312.3711" y2="312.3711"/><ellipse cx="277" cy="323.3711" fill="#84BE84" rx="3" ry="3" style="stroke:#038048;stroke-width:1.0;"/><text fill="#000000" font-family="sans-serif" font-size="11" font-style="italic" lengthAdjust="spacing" textLength="138" x="286" y="327.0059">getProviderConfig() : void</text><ellipse cx="277" cy="336.3262" fill="#84BE84" rx="3" ry="3" style="stroke:#038048;stroke-width:1.0;"/><text fill="#000000" font-family="sans-serif" font-size="11" lengthAdjust="spacing" textLength="318" x="286" y="339.9609">validateCanChange(_isBuilt: boolean, _key: string) : boolean</text><ellipse cx="277" cy="349.2813" fill="#84BE84" rx="3" ry="3" style="stroke:#038048;stroke-width:1.0;"/><text fill="#000000" font-family="sans-serif" font-size="11" lengthAdjust="spacing" textLength="290" x="286" y="352.916">validateDefault(key: string, value: unknown) : unknown</text><polygon fill="#FFFF44" points="277,357.2363,281,361.2363,277,365.2363,273,361.2363" style="stroke:#B38D22;stroke-width:1.0;"/><text fill="#000000" font-family="sans-serif" font-size="11" lengthAdjust="spacing" textLength="237" x="286" y="365.8711">getCommonProviderConfigs() : BaseOptions</text><polygon fill="#FFFF44" points="277,370.1914,281,374.1914,277,378.1914,273,374.1914" style="stroke:#B38D22;stroke-width:1.0;"/><text fill="#000000" font-family="sans-serif" font-size="11" lengthAdjust="spacing" textLength="341" x="286" y="378.8262">validateBoolean(value: boolean, defaultValue: boolean) : boolean</text><polygon fill="#FFFF44" points="277,383.1465,281,387.1465,277,391.1465,273,387.1465" style="stroke:#B38D22;stroke-width:1.0;"/><text fill="#000000" font-family="sans-serif" font-size="11" lengthAdjust="spacing" textLength="358" x="286" y="391.7813">validateDate(value: string | Date, defaultValue: string) : string | Date</text><polygon fill="#FFFF44" points="277,396.1016,281,400.1016,277,404.1016,273,400.1016" style="stroke:#B38D22;stroke-width:1.0;"/><text fill="#000000" font-family="sans-serif" font-size="11" lengthAdjust="spacing" textLength="453" x="286" y="404.7363">validateInRange(value: unknown, defaultValue: unknown, args: unknown[]) : unknown</text><polygon fill="#FFFF44" points="277,409.0566,281,413.0566,277,417.0566,273,413.0566" style="stroke:#B38D22;stroke-width:1.0;"/><text fill="#000000" font-family="sans-serif" font-size="11" lengthAdjust="spacing" textLength="339" x="286" y="417.6914">validateNumber(value: number, defaultValue: number) : number</text><polygon fill="#FFFF44" points="277,422.0117,281,426.0117,277,430.0117,273,426.0117" style="stroke:#B38D22;stroke-width:1.0;"/><text fill="#000000" font-family="sans-serif" font-size="11" lengthAdjust="spacing" textLength="298" x="286" y="430.6465">validateString(value: string, defaultValue: string) : string</text><rect fill="#F24D5C" height="6" style="stroke:#C82930;stroke-width:1.0;" width="6" x="274" y="436.9668"/><text fill="#000000" font-family="sans-serif" font-size="11" lengthAdjust="spacing" textLength="139" x="286" y="443.6016">_checkAltFormat() : string</text><rect fill="#F24D5C" height="6" style="stroke:#C82930;stroke-width:1.0;" width="6" x="274" y="449.9219"/><text fill="#000000" font-family="sans-serif" font-size="11" lengthAdjust="spacing" textLength="164" x="286" y="456.5566">_checkLocale() : CustomLocale</text><rect fill="#F24D5C" height="6" style="stroke:#C82930;stroke-width:1.0;" width="6" x="274" y="462.877"/><text fill="#000000" font-family="sans-serif" font-size="11" lengthAdjust="spacing" textLength="173" x="286" y="469.5117">_checkServerDateFormat() : void</text><rect fill="#F24D5C" height="6" style="stroke:#C82930;stroke-width:1.0;" width="6" x="274" y="475.832"/><text fill="#000000" font-family="sans-serif" font-size="11" lengthAdjust="spacing" textLength="185" x="286" y="482.4668">_mapProviderDateFormat() : string</text><!--MD5=[307a44b026a897ed9e0d7632f1d56949]
class AbstractDatePickerConfig--><rect codeLine="36" fill="#FFFFFF" filter="url(#ft1wutzmygcd3)" height="24.1328" id="AbstractDatePickerConfig" style="stroke:#272B30;stroke-width:1.5;" width="152" x="429.5" y="7"/><text fill="#000000" font-family="sans-serif" font-size="12" lengthAdjust="spacing" textLength="146" x="432.5" y="23.6016">AbstractDatePickerConfig</text><!--MD5=[53d53903351628601b8dce17181f1097]
class FlatpickrRangeDateConfig--><rect codeLine="39" fill="#FFFFFF" filter="url(#ft1wutzmygcd3)" height="371.877" id="FlatpickrRangeDateConfig" style="stroke:#272B30;stroke-width:1.5;" width="479" x="9" y="549"/><ellipse cx="170.25" cy="565" fill="#ADD1B2" rx="11" ry="11" style="stroke:#272B30;stroke-width:1.0;"/><path d="M172.7231,571.1431 Q172.1421,571.4419 171.5029,571.5913 Q170.8638,571.7407 170.1582,571.7407 Q167.6514,571.7407 166.3315,570.0889 Q165.0117,568.437 165.0117,565.3159 Q165.0117,562.1865 166.3315,560.5347 Q167.6514,558.8828 170.1582,558.8828 Q170.8638,558.8828 171.5112,559.0322 Q172.1587,559.1816 172.7231,559.4805 L172.7231,562.2031 Q172.0923,561.6221 171.4988,561.3523 Q170.9053,561.0825 170.2744,561.0825 Q168.9297,561.0825 168.2449,562.1492 Q167.5601,563.2158 167.5601,565.3159 Q167.5601,567.4077 168.2449,568.4744 Q168.9297,569.541 170.2744,569.541 Q170.9053,569.541 171.4988,569.2712 Q172.0923,569.0015 172.7231,568.4204 Z " fill="#000000"/><text fill="#000000" font-family="sans-serif" font-size="12" lengthAdjust="spacing" textLength="148" x="190.75" y="569.5352">FlatpickrRangeDateConfig</text><line style="stroke:#272B30;stroke-width:1.5;" x1="10" x2="487" y1="581" y2="581"/><ellipse cx="20" cy="592" rx="3" ry="3" style="stroke:#038048;stroke-width:1.0;fill:none;"/><text fill="#000000" font-family="sans-serif" font-size="11" lengthAdjust="spacing" textLength="109" x="29" y="595.6348">AllowInput : boolean</text><ellipse cx="20" cy="604.9551" rx="3" ry="3" style="stroke:#038048;stroke-width:1.0;fill:none;"/><text fill="#000000" font-family="sans-serif" font-size="11" lengthAdjust="spacing" textLength="115" x="29" y="608.5898">CalendarMode : Mode</text><ellipse cx="20" cy="617.9102" rx="3" ry="3" style="stroke:#038048;stroke-width:1.0;fill:none;"/><text fill="#000000" font-family="sans-serif" font-size="11" lengthAdjust="spacing" textLength="103" x="29" y="621.5449">DateFormat : string</text><ellipse cx="20" cy="630.8652" rx="3" ry="3" style="stroke:#038048;stroke-width:1.0;fill:none;"/><text fill="#000000" font-family="sans-serif" font-size="11" lengthAdjust="spacing" textLength="126" x="29" y="634.5">DisableMobile : boolean</text><ellipse cx="20" cy="643.8203" rx="3" ry="3" style="stroke:#038048;stroke-width:1.0;fill:none;"/><text fill="#000000" font-family="sans-serif" font-size="11" lengthAdjust="spacing" textLength="120" x="29" y="647.4551">ExtendedClass : string</text><ellipse cx="20" cy="656.7754" rx="3" ry="3" style="stroke:#038048;stroke-width:1.0;fill:none;"/><text fill="#000000" font-family="sans-serif" font-size="11" lengthAdjust="spacing" textLength="122" x="29" y="660.4102">FirstWeekDay : number</text><ellipse cx="20" cy="669.7305" rx="3" ry="3" style="stroke:#038048;stroke-width:1.0;fill:none;"/><text fill="#000000" font-family="sans-serif" font-size="11" lengthAdjust="spacing" textLength="114" x="29" y="673.3652">InitialEndDate : string</text><ellipse cx="20" cy="682.6855" rx="3" ry="3" style="stroke:#038048;stroke-width:1.0;fill:none;"/><text fill="#000000" font-family="sans-serif" font-size="11" lengthAdjust="spacing" textLength="119" x="29" y="686.3203">InitialStartDate : string</text><ellipse cx="20" cy="695.6406" rx="3" ry="3" style="stroke:#038048;stroke-width:1.0;fill:none;"/><text fill="#000000" font-family="sans-serif" font-size="11" lengthAdjust="spacing" textLength="87" x="29" y="699.2754">MaxDate : string</text><ellipse cx="20" cy="708.5957" rx="3" ry="3" style="stroke:#038048;stroke-width:1.0;fill:none;"/><text fill="#000000" font-family="sans-serif" font-size="11" lengthAdjust="spacing" textLength="84" x="29" y="712.2305">MinDate : string</text><ellipse cx="20" cy="721.5508" rx="3" ry="3" style="stroke:#038048;stroke-width:1.0;fill:none;"/><text fill="#000000" font-family="sans-serif" font-size="11" lengthAdjust="spacing" textLength="107" x="29" y="725.1855">OnChange : Generic</text><ellipse cx="20" cy="734.5059" rx="3" ry="3" style="stroke:#038048;stroke-width:1.0;fill:none;"/><text fill="#000000" font-family="sans-serif" font-size="11" lengthAdjust="spacing" textLength="137" x="29" y="738.1406">ServerDateFormat : string</text><ellipse cx="20" cy="747.4609" rx="3" ry="3" style="stroke:#038048;stroke-width:1.0;fill:none;"/><text fill="#000000" font-family="sans-serif" font-size="11" lengthAdjust="spacing" textLength="148" x="29" y="751.0957">ShowTodayButton : boolean</text><ellipse cx="20" cy="760.416" rx="3" ry="3" style="stroke:#038048;stroke-width:1.0;fill:none;"/><text fill="#000000" font-family="sans-serif" font-size="11" lengthAdjust="spacing" textLength="156" x="29" y="764.0508">ShowWeekNumbers : boolean</text><ellipse cx="20" cy="773.3711" rx="3" ry="3" style="stroke:#038048;stroke-width:1.0;fill:none;"/><text fill="#000000" font-family="sans-serif" font-size="11" lengthAdjust="spacing" textLength="105" x="29" y="777.0059">TimeFormat : string</text><line style="stroke:#272B30;stroke-width:1.5;" x1="10" x2="487" y1="783.3262" y2="783.3262"/><ellipse cx="20" cy="794.3262" fill="#84BE84" rx="3" ry="3" style="stroke:#038048;stroke-width:1.0;"/><text fill="#000000" font-family="sans-serif" font-size="11" lengthAdjust="spacing" textLength="182" x="29" y="797.9609">getProviderConfig() : BaseOptions</text><ellipse cx="20" cy="807.2813" fill="#84BE84" rx="3" ry="3" style="stroke:#038048;stroke-width:1.0;"/><text fill="#000000" font-family="sans-serif" font-size="11" lengthAdjust="spacing" textLength="306" x="29" y="810.916">validateCanChange(isBuilt: boolean, key: string) : boolean</text><ellipse cx="20" cy="820.2363" fill="#84BE84" rx="3" ry="3" style="stroke:#038048;stroke-width:1.0;"/><text fill="#000000" font-family="sans-serif" font-size="11" lengthAdjust="spacing" textLength="290" x="29" y="823.8711">validateDefault(key: string, value: unknown) : unknown</text><polygon fill="#FFFF44" points="20,828.1914,24,832.1914,20,836.1914,16,832.1914" style="stroke:#B38D22;stroke-width:1.0;"/><text fill="#000000" font-family="sans-serif" font-size="11" lengthAdjust="spacing" textLength="237" x="29" y="836.8262">getCommonProviderConfigs() : BaseOptions</text><polygon fill="#FFFF44" points="20,841.1465,24,845.1465,20,849.1465,16,845.1465" style="stroke:#B38D22;stroke-width:1.0;"/><text fill="#000000" font-family="sans-serif" font-size="11" lengthAdjust="spacing" textLength="341" x="29" y="849.7813">validateBoolean(value: boolean, defaultValue: boolean) : boolean</text><polygon fill="#FFFF44" points="20,854.1016,24,858.1016,20,862.1016,16,858.1016" style="stroke:#B38D22;stroke-width:1.0;"/><text fill="#000000" font-family="sans-serif" font-size="11" lengthAdjust="spacing" textLength="358" x="29" y="862.7363">validateDate(value: string | Date, defaultValue: string) : string | Date</text><polygon fill="#FFFF44" points="20,867.0566,24,871.0566,20,875.0566,16,871.0566" style="stroke:#B38D22;stroke-width:1.0;"/><text fill="#000000" font-family="sans-serif" font-size="11" lengthAdjust="spacing" textLength="453" x="29" y="875.6914">validateInRange(value: unknown, defaultValue: unknown, args: unknown[]) : unknown</text><polygon fill="#FFFF44" points="20,880.0117,24,884.0117,20,888.0117,16,884.0117" style="stroke:#B38D22;stroke-width:1.0;"/><text fill="#000000" font-family="sans-serif" font-size="11" lengthAdjust="spacing" textLength="339" x="29" y="888.6465">validateNumber(value: number, defaultValue: number) : number</text><polygon fill="#FFFF44" points="20,892.9668,24,896.9668,20,900.9668,16,896.9668" style="stroke:#B38D22;stroke-width:1.0;"/><text fill="#000000" font-family="sans-serif" font-size="11" lengthAdjust="spacing" textLength="298" x="29" y="901.6016">validateString(value: string, defaultValue: string) : string</text><rect fill="#F24D5C" height="6" style="stroke:#C82930;stroke-width:1.0;" width="6" x="17" y="907.9219"/><text fill="#000000" font-family="sans-serif" font-size="11" lengthAdjust="spacing" textLength="141" x="29" y="914.5566">_setDefaultDate() : string[]</text><!--MD5=[913c2400295892439efff32354771724]
class FlatpickrSingleDateConfig--><rect codeLine="67" fill="#FFFFFF" filter="url(#ft1wutzmygcd3)" height="345.9668" id="FlatpickrSingleDateConfig" style="stroke:#272B30;stroke-width:1.5;" width="479" x="523" y="562"/><ellipse cx="685.75" cy="578" fill="#ADD1B2" rx="11" ry="11" style="stroke:#272B30;stroke-width:1.0;"/><path d="M688.2231,584.1431 Q687.6421,584.4419 687.0029,584.5913 Q686.3638,584.7407 685.6582,584.7407 Q683.1514,584.7407 681.8315,583.0889 Q680.5117,581.437 680.5117,578.3159 Q680.5117,575.1865 681.8315,573.5347 Q683.1514,571.8828 685.6582,571.8828 Q686.3638,571.8828 687.0112,572.0322 Q687.6587,572.1816 688.2231,572.4805 L688.2231,575.2031 Q687.5923,574.6221 686.9988,574.3523 Q686.4053,574.0825 685.7744,574.0825 Q684.4297,574.0825 683.7449,575.1492 Q683.0601,576.2158 683.0601,578.3159 Q683.0601,580.4077 683.7449,581.4744 Q684.4297,582.541 685.7744,582.541 Q686.4053,582.541 686.9988,582.2712 Q687.5923,582.0015 688.2231,581.4204 Z " fill="#000000"/><text fill="#000000" font-family="sans-serif" font-size="12" lengthAdjust="spacing" textLength="145" x="706.25" y="582.5352">FlatpickrSingleDateConfig</text><line style="stroke:#272B30;stroke-width:1.5;" x1="524" x2="1001" y1="594" y2="594"/><ellipse cx="534" cy="605" rx="3" ry="3" style="stroke:#038048;stroke-width:1.0;fill:none;"/><text fill="#000000" font-family="sans-serif" font-size="11" lengthAdjust="spacing" textLength="109" x="543" y="608.6348">AllowInput : boolean</text><ellipse cx="534" cy="617.9551" rx="3" ry="3" style="stroke:#038048;stroke-width:1.0;fill:none;"/><text fill="#000000" font-family="sans-serif" font-size="11" lengthAdjust="spacing" textLength="115" x="543" y="621.5898">CalendarMode : Mode</text><ellipse cx="534" cy="630.9102" rx="3" ry="3" style="stroke:#038048;stroke-width:1.0;fill:none;"/><text fill="#000000" font-family="sans-serif" font-size="11" lengthAdjust="spacing" textLength="103" x="543" y="634.5449">DateFormat : string</text><ellipse cx="534" cy="643.8652" rx="3" ry="3" style="stroke:#038048;stroke-width:1.0;fill:none;"/><text fill="#000000" font-family="sans-serif" font-size="11" lengthAdjust="spacing" textLength="126" x="543" y="647.5">DisableMobile : boolean</text><ellipse cx="534" cy="656.8203" rx="3" ry="3" style="stroke:#038048;stroke-width:1.0;fill:none;"/><text fill="#000000" font-family="sans-serif" font-size="11" lengthAdjust="spacing" textLength="120" x="543" y="660.4551">ExtendedClass : string</text><ellipse cx="534" cy="669.7754" rx="3" ry="3" style="stroke:#038048;stroke-width:1.0;fill:none;"/><text fill="#000000" font-family="sans-serif" font-size="11" lengthAdjust="spacing" textLength="122" x="543" y="673.4102">FirstWeekDay : number</text><ellipse cx="534" cy="682.7305" rx="3" ry="3" style="stroke:#038048;stroke-width:1.0;fill:none;"/><text fill="#000000" font-family="sans-serif" font-size="11" lengthAdjust="spacing" textLength="94" x="543" y="686.3652">InitialDate : string</text><ellipse cx="534" cy="695.6855" rx="3" ry="3" style="stroke:#038048;stroke-width:1.0;fill:none;"/><text fill="#000000" font-family="sans-serif" font-size="11" lengthAdjust="spacing" textLength="87" x="543" y="699.3203">MaxDate : string</text><ellipse cx="534" cy="708.6406" rx="3" ry="3" style="stroke:#038048;stroke-width:1.0;fill:none;"/><text fill="#000000" font-family="sans-serif" font-size="11" lengthAdjust="spacing" textLength="84" x="543" y="712.2754">MinDate : string</text><ellipse cx="534" cy="721.5957" rx="3" ry="3" style="stroke:#038048;stroke-width:1.0;fill:none;"/><text fill="#000000" font-family="sans-serif" font-size="11" lengthAdjust="spacing" textLength="107" x="543" y="725.2305">OnChange : Generic</text><ellipse cx="534" cy="734.5508" rx="3" ry="3" style="stroke:#038048;stroke-width:1.0;fill:none;"/><text fill="#000000" font-family="sans-serif" font-size="11" lengthAdjust="spacing" textLength="137" x="543" y="738.1855">ServerDateFormat : string</text><ellipse cx="534" cy="747.5059" rx="3" ry="3" style="stroke:#038048;stroke-width:1.0;fill:none;"/><text fill="#000000" font-family="sans-serif" font-size="11" lengthAdjust="spacing" textLength="148" x="543" y="751.1406">ShowTodayButton : boolean</text><ellipse cx="534" cy="760.4609" rx="3" ry="3" style="stroke:#038048;stroke-width:1.0;fill:none;"/><text fill="#000000" font-family="sans-serif" font-size="11" lengthAdjust="spacing" textLength="156" x="543" y="764.0957">ShowWeekNumbers : boolean</text><ellipse cx="534" cy="773.416" rx="3" ry="3" style="stroke:#038048;stroke-width:1.0;fill:none;"/><text fill="#000000" font-family="sans-serif" font-size="11" lengthAdjust="spacing" textLength="105" x="543" y="777.0508">TimeFormat : string</text><line style="stroke:#272B30;stroke-width:1.5;" x1="524" x2="1001" y1="783.3711" y2="783.3711"/><ellipse cx="534" cy="794.3711" fill="#84BE84" rx="3" ry="3" style="stroke:#038048;stroke-width:1.0;"/><text fill="#000000" font-family="sans-serif" font-size="11" lengthAdjust="spacing" textLength="182" x="543" y="798.0059">getProviderConfig() : BaseOptions</text><ellipse cx="534" cy="807.3262" fill="#84BE84" rx="3" ry="3" style="stroke:#038048;stroke-width:1.0;"/><text fill="#000000" font-family="sans-serif" font-size="11" lengthAdjust="spacing" textLength="306" x="543" y="810.9609">validateCanChange(isBuilt: boolean, key: string) : boolean</text><ellipse cx="534" cy="820.2813" fill="#84BE84" rx="3" ry="3" style="stroke:#038048;stroke-width:1.0;"/><text fill="#000000" font-family="sans-serif" font-size="11" lengthAdjust="spacing" textLength="290" x="543" y="823.916">validateDefault(key: string, value: unknown) : unknown</text><polygon fill="#FFFF44" points="534,828.2363,538,832.2363,534,836.2363,530,832.2363" style="stroke:#B38D22;stroke-width:1.0;"/><text fill="#000000" font-family="sans-serif" font-size="11" lengthAdjust="spacing" textLength="237" x="543" y="836.8711">getCommonProviderConfigs() : BaseOptions</text><polygon fill="#FFFF44" points="534,841.1914,538,845.1914,534,849.1914,530,845.1914" style="stroke:#B38D22;stroke-width:1.0;"/><text fill="#000000" font-family="sans-serif" font-size="11" lengthAdjust="spacing" textLength="341" x="543" y="849.8262">validateBoolean(value: boolean, defaultValue: boolean) : boolean</text><polygon fill="#FFFF44" points="534,854.1465,538,858.1465,534,862.1465,530,858.1465" style="stroke:#B38D22;stroke-width:1.0;"/><text fill="#000000" font-family="sans-serif" font-size="11" lengthAdjust="spacing" textLength="358" x="543" y="862.7813">validateDate(value: string | Date, defaultValue: string) : string | Date</text><polygon fill="#FFFF44" points="534,867.1016,538,871.1016,534,875.1016,530,871.1016" style="stroke:#B38D22;stroke-width:1.0;"/><text fill="#000000" font-family="sans-serif" font-size="11" lengthAdjust="spacing" textLength="453" x="543" y="875.7363">validateInRange(value: unknown, defaultValue: unknown, args: unknown[]) : unknown</text><polygon fill="#FFFF44" points="534,880.0566,538,884.0566,534,888.0566,530,884.0566" style="stroke:#B38D22;stroke-width:1.0;"/><text fill="#000000" font-family="sans-serif" font-size="11" lengthAdjust="spacing" textLength="339" x="543" y="888.6914">validateNumber(value: number, defaultValue: number) : number</text><polygon fill="#FFFF44" points="534,893.0117,538,897.0117,534,901.0117,530,897.0117" style="stroke:#B38D22;stroke-width:1.0;"/><text fill="#000000" font-family="sans-serif" font-size="11" lengthAdjust="spacing" textLength="298" x="543" y="901.6465">validateString(value: string, defaultValue: string) : string</text><!--MD5=[41e870c7de32ee43f987de164f0c9608]
reverse link AbstractDatePickerConfig to AbstractFlatpickrConfig--><path codeLine="38" d="M505.5,51.42 C505.5,62.53 505.5,76 505.5,90.8 " fill="none" id="AbstractDatePickerConfig-backto-AbstractFlatpickrConfig" style="stroke:#272B30;stroke-width:1.0;"/><polygon fill="none" points="498.5,51.22,505.5,31.22,512.5,51.22,498.5,51.22" style="stroke:#272B30;stroke-width:1.0;"/><!--MD5=[59fa236cc3a956adb0335c2b44b6ab12]
reverse link AbstractFlatpickrConfig to FlatpickrRangeDateConfig--><path codeLine="66" d="M380.26,506.87 C372.15,520.87 364.01,534.89 355.98,548.72 " fill="none" id="AbstractFlatpickrConfig-backto-FlatpickrRangeDateConfig" style="stroke:#272B30;stroke-width:1.0;"/><polygon fill="none" points="374.44,502.96,390.53,489.18,386.55,509.99,374.44,502.96" style="stroke:#272B30;stroke-width:1.0;"/><!--MD5=[e6f81ab80d1ae706f74a1e011f8510a1]
reverse link AbstractFlatpickrConfig to FlatpickrSingleDateConfig--><path codeLine="92" d="M630.53,506.52 C641.27,525.03 652.04,543.59 662.54,561.7 " fill="none" id="AbstractFlatpickrConfig-backto-FlatpickrSingleDateConfig" style="stroke:#272B30;stroke-width:1.0;"/><polygon fill="none" points="624.45,509.99,620.47,489.18,636.56,502.96,624.45,509.99" style="stroke:#272B30;stroke-width:1.0;"/><!--MD5=[f2a22f485c0b1a0c9845d588c10d4984]
@startuml
skinparam ClassArrowColor #272b30
skinparam ClassBorderColor #272b30
skinparam ClassBackgroundColor #fff
skinparam BackgroundColor #ced4da
hide empty methods
hide empty fields
abstract class "AbstractFlatpickrConfig" {
    +AllowInput : boolean
    +CalendarMode : Mode
    +DateFormat : string
    +DisableMobile : boolean
    +ExtendedClass : string
    +FirstWeekDay : number
    +MaxDate : string
    +MinDate : string
    +OnChange : Generic
    +ServerDateFormat : string
    +ShowTodayButton : boolean
    +ShowWeekNumbers : boolean
    +TimeFormat : string
    -_lang : string
    {abstract} +getProviderConfig() : void
    +validateCanChange(_isBuilt: boolean, _key: string) : boolean
    +validateDefault(key: string, value: unknown) : unknown
    #getCommonProviderConfigs() : BaseOptions
    #validateBoolean(value: boolean, defaultValue: boolean) : boolean
    #validateDate(value: string | Date, defaultValue: string) : string | Date
    #validateInRange(value: unknown, defaultValue: unknown, args: unknown[]) : unknown
    #validateNumber(value: number, defaultValue: number) : number
    #validateString(value: string, defaultValue: string) : string
    -_checkAltFormat() : string
    -_checkLocale() : CustomLocale
    -_checkServerDateFormat() : void
    -_mapProviderDateFormat() : string
}
class "AbstractDatePickerConfig"
hide "AbstractDatePickerConfig" circle
"AbstractDatePickerConfig" <|- - "AbstractFlatpickrConfig"
class "FlatpickrRangeDateConfig" {
    +AllowInput : boolean
    +CalendarMode : Mode
    +DateFormat : string
    +DisableMobile : boolean
    +ExtendedClass : string
    +FirstWeekDay : number
    +InitialEndDate : string
    +InitialStartDate : string
    +MaxDate : string
    +MinDate : string
    +OnChange : Generic
    +ServerDateFormat : string
    +ShowTodayButton : boolean
    +ShowWeekNumbers : boolean
    +TimeFormat : string
    +getProviderConfig() : BaseOptions
    +validateCanChange(isBuilt: boolean, key: string) : boolean
    +validateDefault(key: string, value: unknown) : unknown
    #getCommonProviderConfigs() : BaseOptions
    #validateBoolean(value: boolean, defaultValue: boolean) : boolean
    #validateDate(value: string | Date, defaultValue: string) : string | Date
    #validateInRange(value: unknown, defaultValue: unknown, args: unknown[]) : unknown
    #validateNumber(value: number, defaultValue: number) : number
    #validateString(value: string, defaultValue: string) : string
    -_setDefaultDate() : string[]
}
"AbstractFlatpickrConfig" <|- - "FlatpickrRangeDateConfig"
class "FlatpickrSingleDateConfig" {
    +AllowInput : boolean
    +CalendarMode : Mode
    +DateFormat : string
    +DisableMobile : boolean
    +ExtendedClass : string
    +FirstWeekDay : number
    +InitialDate : string
    +MaxDate : string
    +MinDate : string
    +OnChange : Generic
    +ServerDateFormat : string
    +ShowTodayButton : boolean
    +ShowWeekNumbers : boolean
    +TimeFormat : string
    +getProviderConfig() : BaseOptions
    +validateCanChange(isBuilt: boolean, key: string) : boolean
    +validateDefault(key: string, value: unknown) : unknown
    #getCommonProviderConfigs() : BaseOptions
    #validateBoolean(value: boolean, defaultValue: boolean) : boolean
    #validateDate(value: string | Date, defaultValue: string) : string | Date
    #validateInRange(value: unknown, defaultValue: unknown, args: unknown[]) : unknown
    #validateNumber(value: number, defaultValue: number) : number
    #validateString(value: string, defaultValue: string) : string
}
"AbstractFlatpickrConfig" <|- - "FlatpickrSingleDateConfig"
@enduml

PlantUML version 1.2021.14(Fri Nov 12 16:46:50 WET 2021)
(GPL source distribution)
Java Runtime: Java(TM) SE Runtime Environment
JVM: Java HotSpot(TM) 64-Bit Server VM
Default Encoding: UTF-8
Language: en
Country: PT
--></g></svg>