<?xml version="1.0" encoding="us-ascii" standalone="no"?><svg xmlns="http://www.w3.org/2000/svg" xmlns:xlink="http://www.w3.org/1999/xlink" contentStyleType="text/css" height="1402px" preserveAspectRatio="none" style="width:1291px;height:1402px;background:#CED4DA;" version="1.1" viewBox="0 0 1291 1402" width="1291px" zoomAndPan="magnify"><defs/><g><rect fill="#CED4DA" height="1402" style="stroke:none;stroke-width:1.0;" width="1291" x="0" y="0"/><!--class AbstractVirtualSelectConfig--><g id="elem_AbstractVirtualSelectConfig"><rect codeLine="7" fill="#FFFFFF" height="569.5" id="AbstractVirtualSelectConfig" rx="2.5" ry="2.5" style="stroke:#272B30;stroke-width:0.5;" width="620" x="336" y="327"/><ellipse cx="548.25" cy="343" fill="#A9DCDF" rx="11" ry="11" style="stroke:#181818;stroke-width:1.0;"/><path d="M548.3594,338.3438 L547.2031,343.4219 L549.5313,343.4219 L548.3594,338.3438 Z M546.875,336.1094 L549.8594,336.1094 L553.2188,348.5 L550.7656,348.5 L550,345.4375 L546.7188,345.4375 L545.9688,348.5 L543.5313,348.5 L546.875,336.1094 Z " fill="#000000"/><text fill="#000000" font-family="sans-serif" font-size="14" font-style="italic" lengthAdjust="spacing" textLength="187" x="568.75" y="347.8467">AbstractVirtualSelectConfig</text><line style="stroke:#272B30;stroke-width:0.5;" x1="337" x2="955" y1="359" y2="359"/><ellipse cx="347" cy="372.6484" fill="none" rx="3" ry="3" style="stroke:#038048;stroke-width:1.0;"/><text fill="#000000" font-family="sans-serif" font-size="14" lengthAdjust="spacing" textLength="121" x="356" y="375.9951">ElementId : string</text><ellipse cx="347" cy="388.9453" fill="none" rx="3" ry="3" style="stroke:#038048;stroke-width:1.0;"/><text fill="#000000" font-family="sans-serif" font-size="14" lengthAdjust="spacing" textLength="155" x="356" y="392.292">ExtendedClass : string</text><ellipse cx="347" cy="405.2422" fill="none" rx="3" ry="3" style="stroke:#038048;stroke-width:1.0;"/><text fill="#000000" font-family="sans-serif" font-size="14" lengthAdjust="spacing" textLength="140" x="356" y="408.5889">IsDisabled : boolean</text><ellipse cx="347" cy="421.5391" fill="none" rx="3" ry="3" style="stroke:#038048;stroke-width:1.0;"/><text fill="#000000" font-family="sans-serif" font-size="14" lengthAdjust="spacing" textLength="155" x="356" y="424.8857">NoOptionsText : string</text><ellipse cx="347" cy="437.8359" fill="none" rx="3" ry="3" style="stroke:#038048;stroke-width:1.0;"/><text fill="#000000" font-family="sans-serif" font-size="14" lengthAdjust="spacing" textLength="153" x="356" y="441.1826">NoResultsText : string</text><ellipse cx="347" cy="454.1328" fill="none" rx="3" ry="3" style="stroke:#038048;stroke-width:1.0;"/><text fill="#000000" font-family="sans-serif" font-size="14" lengthAdjust="spacing" textLength="220" x="356" y="457.4795">OptionsList : DropDownOption[]</text><ellipse cx="347" cy="470.4297" fill="none" rx="3" ry="3" style="stroke:#038048;stroke-width:1.0;"/><text fill="#000000" font-family="sans-serif" font-size="14" lengthAdjust="spacing" textLength="102" x="356" y="473.7764">Prompt : string</text><ellipse cx="347" cy="486.7266" fill="none" rx="3" ry="3" style="stroke:#038048;stroke-width:1.0;"/><text fill="#000000" font-family="sans-serif" font-size="14" lengthAdjust="spacing" textLength="150" x="356" y="490.0732">SearchPrompt : string</text><ellipse cx="347" cy="503.0234" fill="none" rx="3" ry="3" style="stroke:#038048;stroke-width:1.0;"/><text fill="#000000" font-family="sans-serif" font-size="14" lengthAdjust="spacing" textLength="228" x="356" y="506.3701">ShowDropboxAsPopup : boolean</text><ellipse cx="347" cy="519.3203" fill="none" rx="3" ry="3" style="stroke:#038048;stroke-width:1.0;"/><text fill="#000000" font-family="sans-serif" font-size="14" lengthAdjust="spacing" textLength="260" x="356" y="522.667">StartingSelection : DropDownOption[]</text><polygon fill="none" points="347,530.6172,351,534.6172,347,538.6172,343,534.6172" style="stroke:#B38D22;stroke-width:1.0;"/><text fill="#000000" font-family="sans-serif" font-size="14" lengthAdjust="spacing" textLength="307" x="356" y="538.9639">providerExtendedOptions : VirtualSelectOpts</text><rect fill="none" height="6" style="stroke:#C82930;stroke-width:1.0;" width="6" x="344" y="548.9141"/><text fill="#000000" font-family="sans-serif" font-size="14" lengthAdjust="spacing" textLength="329" x="356" y="555.2607">_groupedOptionsList : GroupDropDownOption[]</text><rect fill="none" height="6" style="stroke:#C82930;stroke-width:1.0;" width="6" x="344" y="565.2109"/><text fill="#000000" font-family="sans-serif" font-size="14" lengthAdjust="spacing" textLength="248" x="356" y="571.5576">_providerOptions : VirtualSelectOpts</text><line style="stroke:#272B30;stroke-width:0.5;" x1="337" x2="955" y1="578.8594" y2="578.8594"/><ellipse cx="347" cy="592.5078" fill="#84BE84" rx="3" ry="3" style="stroke:#038048;stroke-width:1.0;"/><text fill="#000000" font-family="sans-serif" font-size="14" lengthAdjust="spacing" textLength="264" x="356" y="595.8545">getProviderConfig() : VirtualSelectOpts</text><ellipse cx="347" cy="608.8047" fill="#84BE84" rx="3" ry="3" style="stroke:#038048;stroke-width:1.0;"/><text fill="#000000" font-family="sans-serif" font-size="14" lengthAdjust="spacing" textLength="413" x="356" y="612.1514">setExtensibilityConfigs(newConfigs: VirtualSelectOpts) : void</text><ellipse cx="347" cy="625.1016" fill="#84BE84" rx="3" ry="3" style="stroke:#038048;stroke-width:1.0;"/><text fill="#000000" font-family="sans-serif" font-size="14" lengthAdjust="spacing" textLength="412" x="356" y="628.4482">validateCanChange(_isBuilt: boolean, _key: string) : boolean</text><ellipse cx="347" cy="641.3984" fill="#84BE84" rx="3" ry="3" style="stroke:#038048;stroke-width:1.0;"/><text fill="#000000" font-family="sans-serif" font-size="14" lengthAdjust="spacing" textLength="377" x="356" y="644.7451">validateDefault(key: string, value: unknown) : unknown</text><polygon fill="#FFFF44" points="347,652.6953,351,656.6953,347,660.6953,343,656.6953" style="stroke:#B38D22;stroke-width:1.0;"/><text fill="#000000" font-family="sans-serif" font-size="14" font-style="italic" lengthAdjust="spacing" textLength="201" x="356" y="661.042">getSelectedValues() : string[]</text><polygon fill="#FFFF44" points="347,668.9922,351,672.9922,347,676.9922,343,672.9922" style="stroke:#B38D22;stroke-width:1.0;"/><text fill="#000000" font-family="sans-serif" font-size="14" lengthAdjust="spacing" textLength="594" x="356" y="677.3389">mergeConfigs(commonConfigs: any, specificConfigs: any, extendedConfigs: any) : any</text><polygon fill="#FFFF44" points="347,685.2891,351,689.2891,347,693.2891,343,689.2891" style="stroke:#B38D22;stroke-width:1.0;"/><text fill="#000000" font-family="sans-serif" font-size="14" lengthAdjust="spacing" textLength="447" x="356" y="693.6357">validateBoolean(value: boolean, defaultValue: boolean) : boolean</text><polygon fill="#FFFF44" points="347,701.5859,351,705.5859,347,709.5859,343,705.5859" style="stroke:#B38D22;stroke-width:1.0;"/><text fill="#000000" font-family="sans-serif" font-size="14" lengthAdjust="spacing" textLength="464" x="356" y="709.9326">validateDate(value: string | Date, defaultValue: string) : string | Date</text><polygon fill="#FFFF44" points="347,717.8828,351,721.8828,347,725.8828,343,721.8828" style="stroke:#B38D22;stroke-width:1.0;"/><text fill="#000000" font-family="sans-serif" font-size="14" lengthAdjust="spacing" textLength="592" x="356" y="726.2295">validateInRange(value: unknown, defaultValue: unknown, args: unknown[]) : unknown</text><polygon fill="#FFFF44" points="347,734.1797,351,738.1797,347,742.1797,343,738.1797" style="stroke:#B38D22;stroke-width:1.0;"/><text fill="#000000" font-family="sans-serif" font-size="14" lengthAdjust="spacing" textLength="439" x="356" y="742.5264">validateNumber(value: number, defaultValue: number) : number</text><polygon fill="#FFFF44" points="347,750.4766,351,754.4766,347,758.4766,343,754.4766" style="stroke:#B38D22;stroke-width:1.0;"/><text fill="#000000" font-family="sans-serif" font-size="14" lengthAdjust="spacing" textLength="379" x="356" y="758.8232">validateString(value: string, defaultValue: string) : string</text><polygon fill="#FFFF44" points="347,766.7734,351,770.7734,347,774.7734,343,770.7734" style="stroke:#B38D22;stroke-width:1.0;"/><text fill="#000000" font-family="sans-serif" font-size="14" lengthAdjust="spacing" textLength="373" x="356" y="775.1201">validateTime(value: string, defaultValue: string) : string</text><rect fill="#F24D5C" height="6" style="stroke:#C82930;stroke-width:1.0;" width="6" x="344" y="785.0703"/><text fill="#000000" font-family="sans-serif" font-size="14" lengthAdjust="spacing" textLength="398" x="356" y="791.417">_checkForFigType(option: DropDownOption) : FigureType</text><rect fill="#F24D5C" height="6" style="stroke:#C82930;stroke-width:1.0;" width="6" x="344" y="801.3672"/><text fill="#000000" font-family="sans-serif" font-size="14" lengthAdjust="spacing" textLength="438" x="356" y="807.7139">_getGroupedOptionsList() : [boolean, GroupDropDownOption[]]</text><rect fill="#F24D5C" height="6" style="stroke:#C82930;stroke-width:1.0;" width="6" x="344" y="817.6641"/><text fill="#000000" font-family="sans-serif" font-size="14" lengthAdjust="spacing" textLength="377" x="356" y="824.0107">_getOptionIconPrefix(option: DropDownOption) : string</text><rect fill="#F24D5C" height="6" style="stroke:#C82930;stroke-width:1.0;" width="6" x="344" y="833.9609"/><text fill="#000000" font-family="sans-serif" font-size="14" lengthAdjust="spacing" textLength="390" x="356" y="840.3076">_getOptionImagePrefix(option: DropDownOption) : string</text><rect fill="#F24D5C" height="6" style="stroke:#C82930;stroke-width:1.0;" width="6" x="344" y="850.2578"/><text fill="#000000" font-family="sans-serif" font-size="14" lengthAdjust="spacing" textLength="358" x="356" y="856.6045">_getOptionInfo(data: VirtualSelectOptionInfo) : string</text><rect fill="#F24D5C" height="6" style="stroke:#C82930;stroke-width:1.0;" width="6" x="344" y="866.5547"/><text fill="#000000" font-family="sans-serif" font-size="14" lengthAdjust="spacing" textLength="446" x="356" y="872.9014">_getOptionsList() : DropDownOption[] | GroupDropDownOption[]</text><rect fill="#F24D5C" height="6" style="stroke:#C82930;stroke-width:1.0;" width="6" x="344" y="882.8516"/><text fill="#000000" font-family="sans-serif" font-size="14" lengthAdjust="spacing" textLength="244" x="356" y="889.1982">_groupOptions() : [boolean, Object]</text></g><!--class AbstractDropdownConfig--><g id="elem_AbstractDropdownConfig"><rect codeLine="41" fill="#FFFFFF" height="259.8594" id="AbstractDropdownConfig" rx="2.5" ry="2.5" style="stroke:#272B30;stroke-width:0.5;" width="620" x="336" y="7"/><ellipse cx="555.25" cy="23" fill="#A9DCDF" rx="11" ry="11" style="stroke:#181818;stroke-width:1.0;"/><path d="M555.3594,18.3438 L554.2031,23.4219 L556.5313,23.4219 L555.3594,18.3438 Z M553.875,16.1094 L556.8594,16.1094 L560.2188,28.5 L557.7656,28.5 L557,25.4375 L553.7188,25.4375 L552.9688,28.5 L550.5313,28.5 L553.875,16.1094 Z " fill="#000000"/><text fill="#000000" font-family="sans-serif" font-size="14" font-style="italic" lengthAdjust="spacing" textLength="173" x="575.75" y="27.8467">AbstractDropdownConfig</text><line style="stroke:#272B30;stroke-width:0.5;" x1="337" x2="955" y1="39" y2="39"/><ellipse cx="347" cy="52.6484" fill="none" rx="3" ry="3" style="stroke:#038048;stroke-width:1.0;"/><text fill="#000000" font-family="sans-serif" font-size="14" lengthAdjust="spacing" textLength="155" x="356" y="55.9951">ExtendedClass : string</text><ellipse cx="347" cy="68.9453" fill="none" rx="3" ry="3" style="stroke:#038048;stroke-width:1.0;"/><text fill="#000000" font-family="sans-serif" font-size="14" lengthAdjust="spacing" textLength="140" x="356" y="72.292">IsDisabled : boolean</text><ellipse cx="347" cy="85.2422" fill="none" rx="3" ry="3" style="stroke:#038048;stroke-width:1.0;"/><text fill="#000000" font-family="sans-serif" font-size="14" lengthAdjust="spacing" textLength="228" x="356" y="88.5889">ShowDropboxAsPopup : boolean</text><line style="stroke:#272B30;stroke-width:0.5;" x1="337" x2="955" y1="95.8906" y2="95.8906"/><ellipse cx="347" cy="109.5391" fill="#84BE84" rx="3" ry="3" style="stroke:#038048;stroke-width:1.0;"/><text fill="#000000" font-family="sans-serif" font-size="14" font-style="italic" lengthAdjust="spacing" textLength="171" x="356" y="112.8857">getProviderConfig() : any</text><ellipse cx="347" cy="125.8359" fill="#84BE84" rx="3" ry="3" style="stroke:#038048;stroke-width:1.0;"/><text fill="#000000" font-family="sans-serif" font-size="14" lengthAdjust="spacing" textLength="412" x="356" y="129.1826">validateCanChange(_isBuilt: boolean, _key: string) : boolean</text><ellipse cx="347" cy="142.1328" fill="#84BE84" rx="3" ry="3" style="stroke:#038048;stroke-width:1.0;"/><text fill="#000000" font-family="sans-serif" font-size="14" lengthAdjust="spacing" textLength="377" x="356" y="145.4795">validateDefault(key: string, value: unknown) : unknown</text><polygon fill="#FFFF44" points="347,153.4297,351,157.4297,347,161.4297,343,157.4297" style="stroke:#B38D22;stroke-width:1.0;"/><text fill="#000000" font-family="sans-serif" font-size="14" lengthAdjust="spacing" textLength="594" x="356" y="161.7764">mergeConfigs(commonConfigs: any, specificConfigs: any, extendedConfigs: any) : any</text><polygon fill="#FFFF44" points="347,169.7266,351,173.7266,347,177.7266,343,173.7266" style="stroke:#B38D22;stroke-width:1.0;"/><text fill="#000000" font-family="sans-serif" font-size="14" lengthAdjust="spacing" textLength="447" x="356" y="178.0732">validateBoolean(value: boolean, defaultValue: boolean) : boolean</text><polygon fill="#FFFF44" points="347,186.0234,351,190.0234,347,194.0234,343,190.0234" style="stroke:#B38D22;stroke-width:1.0;"/><text fill="#000000" font-family="sans-serif" font-size="14" lengthAdjust="spacing" textLength="464" x="356" y="194.3701">validateDate(value: string | Date, defaultValue: string) : string | Date</text><polygon fill="#FFFF44" points="347,202.3203,351,206.3203,347,210.3203,343,206.3203" style="stroke:#B38D22;stroke-width:1.0;"/><text fill="#000000" font-family="sans-serif" font-size="14" lengthAdjust="spacing" textLength="592" x="356" y="210.667">validateInRange(value: unknown, defaultValue: unknown, args: unknown[]) : unknown</text><polygon fill="#FFFF44" points="347,218.6172,351,222.6172,347,226.6172,343,222.6172" style="stroke:#B38D22;stroke-width:1.0;"/><text fill="#000000" font-family="sans-serif" font-size="14" lengthAdjust="spacing" textLength="439" x="356" y="226.9639">validateNumber(value: number, defaultValue: number) : number</text><polygon fill="#FFFF44" points="347,234.9141,351,238.9141,347,242.9141,343,238.9141" style="stroke:#B38D22;stroke-width:1.0;"/><text fill="#000000" font-family="sans-serif" font-size="14" lengthAdjust="spacing" textLength="379" x="356" y="243.2607">validateString(value: string, defaultValue: string) : string</text><polygon fill="#FFFF44" points="347,251.2109,351,255.2109,347,259.2109,343,255.2109" style="stroke:#B38D22;stroke-width:1.0;"/><text fill="#000000" font-family="sans-serif" font-size="14" lengthAdjust="spacing" textLength="373" x="356" y="259.5576">validateTime(value: string, defaultValue: string) : string</text></g><!--class VirtualSelectSearchConfig--><g id="elem_VirtualSelectSearchConfig"><rect codeLine="57" fill="#FFFFFF" height="439.125" id="VirtualSelectSearchConfig" rx="2.5" ry="2.5" style="stroke:#272B30;stroke-width:0.5;" width="620" x="9" y="956"/><ellipse cx="226.25" cy="972" fill="#ADD1B2" rx="11" ry="11" style="stroke:#181818;stroke-width:1.0;"/><path d="M229.2188,977.6406 Q228.6406,977.9375 228,978.0781 Q227.3594,978.2344 226.6563,978.2344 Q224.1563,978.2344 222.8281,976.5938 Q221.5156,974.9375 221.5156,971.8125 Q221.5156,968.6875 222.8281,967.0313 Q224.1563,965.375 226.6563,965.375 Q227.3594,965.375 228,965.5313 Q228.6563,965.6875 229.2188,965.9844 L229.2188,968.7031 Q228.5938,968.125 228,967.8594 Q227.4063,967.5781 226.7813,967.5781 Q225.4375,967.5781 224.75,968.6563 Q224.0625,969.7188 224.0625,971.8125 Q224.0625,973.9063 224.75,974.9844 Q225.4375,976.0469 226.7813,976.0469 Q227.4063,976.0469 228,975.7813 Q228.5938,975.5 229.2188,974.9219 L229.2188,977.6406 Z " fill="#000000"/><text fill="#000000" font-family="sans-serif" font-size="14" lengthAdjust="spacing" textLength="177" x="246.75" y="976.8467">VirtualSelectSearchConfig</text><line style="stroke:#272B30;stroke-width:0.5;" x1="10" x2="628" y1="988" y2="988"/><ellipse cx="20" cy="1001.6484" fill="none" rx="3" ry="3" style="stroke:#038048;stroke-width:1.0;"/><text fill="#000000" font-family="sans-serif" font-size="14" lengthAdjust="spacing" textLength="221" x="29" y="1004.9951">AllowMultipleSelection : boolean</text><ellipse cx="20" cy="1017.9453" fill="none" rx="3" ry="3" style="stroke:#038048;stroke-width:1.0;"/><text fill="#000000" font-family="sans-serif" font-size="14" lengthAdjust="spacing" textLength="121" x="29" y="1021.292">ElementId : string</text><ellipse cx="20" cy="1034.2422" fill="none" rx="3" ry="3" style="stroke:#038048;stroke-width:1.0;"/><text fill="#000000" font-family="sans-serif" font-size="14" lengthAdjust="spacing" textLength="155" x="29" y="1037.5889">ExtendedClass : string</text><ellipse cx="20" cy="1050.5391" fill="none" rx="3" ry="3" style="stroke:#038048;stroke-width:1.0;"/><text fill="#000000" font-family="sans-serif" font-size="14" lengthAdjust="spacing" textLength="140" x="29" y="1053.8857">IsDisabled : boolean</text><ellipse cx="20" cy="1066.8359" fill="none" rx="3" ry="3" style="stroke:#038048;stroke-width:1.0;"/><text fill="#000000" font-family="sans-serif" font-size="14" lengthAdjust="spacing" textLength="155" x="29" y="1070.1826">NoOptionsText : string</text><ellipse cx="20" cy="1083.1328" fill="none" rx="3" ry="3" style="stroke:#038048;stroke-width:1.0;"/><text fill="#000000" font-family="sans-serif" font-size="14" lengthAdjust="spacing" textLength="153" x="29" y="1086.4795">NoResultsText : string</text><ellipse cx="20" cy="1099.4297" fill="none" rx="3" ry="3" style="stroke:#038048;stroke-width:1.0;"/><text fill="#000000" font-family="sans-serif" font-size="14" lengthAdjust="spacing" textLength="220" x="29" y="1102.7764">OptionsList : DropDownOption[]</text><ellipse cx="20" cy="1115.7266" fill="none" rx="3" ry="3" style="stroke:#038048;stroke-width:1.0;"/><text fill="#000000" font-family="sans-serif" font-size="14" lengthAdjust="spacing" textLength="102" x="29" y="1119.0732">Prompt : string</text><ellipse cx="20" cy="1132.0234" fill="none" rx="3" ry="3" style="stroke:#038048;stroke-width:1.0;"/><text fill="#000000" font-family="sans-serif" font-size="14" lengthAdjust="spacing" textLength="150" x="29" y="1135.3701">SearchPrompt : string</text><ellipse cx="20" cy="1148.3203" fill="none" rx="3" ry="3" style="stroke:#038048;stroke-width:1.0;"/><text fill="#000000" font-family="sans-serif" font-size="14" lengthAdjust="spacing" textLength="228" x="29" y="1151.667">ShowDropboxAsPopup : boolean</text><ellipse cx="20" cy="1164.6172" fill="none" rx="3" ry="3" style="stroke:#038048;stroke-width:1.0;"/><text fill="#000000" font-family="sans-serif" font-size="14" lengthAdjust="spacing" textLength="260" x="29" y="1167.9639">StartingSelection : DropDownOption[]</text><polygon fill="none" points="20,1175.9141,24,1179.9141,20,1183.9141,16,1179.9141" style="stroke:#B38D22;stroke-width:1.0;"/><text fill="#000000" font-family="sans-serif" font-size="14" lengthAdjust="spacing" textLength="307" x="29" y="1184.2607">providerExtendedOptions : VirtualSelectOpts</text><line style="stroke:#272B30;stroke-width:0.5;" x1="10" x2="628" y1="1191.5625" y2="1191.5625"/><ellipse cx="20" cy="1205.2109" fill="#84BE84" rx="3" ry="3" style="stroke:#038048;stroke-width:1.0;"/><text fill="#000000" font-family="sans-serif" font-size="14" lengthAdjust="spacing" textLength="264" x="29" y="1208.5576">getProviderConfig() : VirtualSelectOpts</text><ellipse cx="20" cy="1221.5078" fill="#84BE84" rx="3" ry="3" style="stroke:#038048;stroke-width:1.0;"/><text fill="#000000" font-family="sans-serif" font-size="14" lengthAdjust="spacing" textLength="413" x="29" y="1224.8545">setExtensibilityConfigs(newConfigs: VirtualSelectOpts) : void</text><ellipse cx="20" cy="1237.8047" fill="#84BE84" rx="3" ry="3" style="stroke:#038048;stroke-width:1.0;"/><text fill="#000000" font-family="sans-serif" font-size="14" lengthAdjust="spacing" textLength="412" x="29" y="1241.1514">validateCanChange(_isBuilt: boolean, _key: string) : boolean</text><ellipse cx="20" cy="1254.1016" fill="#84BE84" rx="3" ry="3" style="stroke:#038048;stroke-width:1.0;"/><text fill="#000000" font-family="sans-serif" font-size="14" lengthAdjust="spacing" textLength="377" x="29" y="1257.4482">validateDefault(key: string, value: unknown) : unknown</text><polygon fill="#FFFF44" points="20,1265.3984,24,1269.3984,20,1273.3984,16,1269.3984" style="stroke:#B38D22;stroke-width:1.0;"/><text fill="#000000" font-family="sans-serif" font-size="14" lengthAdjust="spacing" textLength="202" x="29" y="1273.7451">getSelectedValues() : string[]</text><polygon fill="#FFFF44" points="20,1281.6953,24,1285.6953,20,1289.6953,16,1285.6953" style="stroke:#B38D22;stroke-width:1.0;"/><text fill="#000000" font-family="sans-serif" font-size="14" lengthAdjust="spacing" textLength="594" x="29" y="1290.042">mergeConfigs(commonConfigs: any, specificConfigs: any, extendedConfigs: any) : any</text><polygon fill="#FFFF44" points="20,1297.9922,24,1301.9922,20,1305.9922,16,1301.9922" style="stroke:#B38D22;stroke-width:1.0;"/><text fill="#000000" font-family="sans-serif" font-size="14" lengthAdjust="spacing" textLength="447" x="29" y="1306.3389">validateBoolean(value: boolean, defaultValue: boolean) : boolean</text><polygon fill="#FFFF44" points="20,1314.2891,24,1318.2891,20,1322.2891,16,1318.2891" style="stroke:#B38D22;stroke-width:1.0;"/><text fill="#000000" font-family="sans-serif" font-size="14" lengthAdjust="spacing" textLength="464" x="29" y="1322.6357">validateDate(value: string | Date, defaultValue: string) : string | Date</text><polygon fill="#FFFF44" points="20,1330.5859,24,1334.5859,20,1338.5859,16,1334.5859" style="stroke:#B38D22;stroke-width:1.0;"/><text fill="#000000" font-family="sans-serif" font-size="14" lengthAdjust="spacing" textLength="592" x="29" y="1338.9326">validateInRange(value: unknown, defaultValue: unknown, args: unknown[]) : unknown</text><polygon fill="#FFFF44" points="20,1346.8828,24,1350.8828,20,1354.8828,16,1350.8828" style="stroke:#B38D22;stroke-width:1.0;"/><text fill="#000000" font-family="sans-serif" font-size="14" lengthAdjust="spacing" textLength="439" x="29" y="1355.2295">validateNumber(value: number, defaultValue: number) : number</text><polygon fill="#FFFF44" points="20,1363.1797,24,1367.1797,20,1371.1797,16,1367.1797" style="stroke:#B38D22;stroke-width:1.0;"/><text fill="#000000" font-family="sans-serif" font-size="14" lengthAdjust="spacing" textLength="379" x="29" y="1371.5264">validateString(value: string, defaultValue: string) : string</text><polygon fill="#FFFF44" points="20,1379.4766,24,1383.4766,20,1387.4766,16,1383.4766" style="stroke:#B38D22;stroke-width:1.0;"/><text fill="#000000" font-family="sans-serif" font-size="14" lengthAdjust="spacing" textLength="373" x="29" y="1387.8232">validateTime(value: string, defaultValue: string) : string</text></g><!--class VirtualSelectTagsConfig--><g id="elem_VirtualSelectTagsConfig"><rect codeLine="84" fill="#FFFFFF" height="422.8281" id="VirtualSelectTagsConfig" rx="2.5" ry="2.5" style="stroke:#272B30;stroke-width:0.5;" width="620" x="664" y="964"/><ellipse cx="888.25" cy="980" fill="#ADD1B2" rx="11" ry="11" style="stroke:#181818;stroke-width:1.0;"/><path d="M891.2188,985.6406 Q890.6406,985.9375 890,986.0781 Q889.3594,986.2344 888.6563,986.2344 Q886.1563,986.2344 884.8281,984.5938 Q883.5156,982.9375 883.5156,979.8125 Q883.5156,976.6875 884.8281,975.0313 Q886.1563,973.375 888.6563,973.375 Q889.3594,973.375 890,973.5313 Q890.6563,973.6875 891.2188,973.9844 L891.2188,976.7031 Q890.5938,976.125 890,975.8594 Q889.4063,975.5781 888.7813,975.5781 Q887.4375,975.5781 886.75,976.6563 Q886.0625,977.7188 886.0625,979.8125 Q886.0625,981.9063 886.75,982.9844 Q887.4375,984.0469 888.7813,984.0469 Q889.4063,984.0469 890,983.7813 Q890.5938,983.5 891.2188,982.9219 L891.2188,985.6406 Z " fill="#000000"/><text fill="#000000" font-family="sans-serif" font-size="14" lengthAdjust="spacing" textLength="163" x="908.75" y="984.8467">VirtualSelectTagsConfig</text><line style="stroke:#272B30;stroke-width:0.5;" x1="665" x2="1283" y1="996" y2="996"/><ellipse cx="675" cy="1009.6484" fill="none" rx="3" ry="3" style="stroke:#038048;stroke-width:1.0;"/><text fill="#000000" font-family="sans-serif" font-size="14" lengthAdjust="spacing" textLength="121" x="684" y="1012.9951">ElementId : string</text><ellipse cx="675" cy="1025.9453" fill="none" rx="3" ry="3" style="stroke:#038048;stroke-width:1.0;"/><text fill="#000000" font-family="sans-serif" font-size="14" lengthAdjust="spacing" textLength="155" x="684" y="1029.292">ExtendedClass : string</text><ellipse cx="675" cy="1042.2422" fill="none" rx="3" ry="3" style="stroke:#038048;stroke-width:1.0;"/><text fill="#000000" font-family="sans-serif" font-size="14" lengthAdjust="spacing" textLength="140" x="684" y="1045.5889">IsDisabled : boolean</text><ellipse cx="675" cy="1058.5391" fill="none" rx="3" ry="3" style="stroke:#038048;stroke-width:1.0;"/><text fill="#000000" font-family="sans-serif" font-size="14" lengthAdjust="spacing" textLength="155" x="684" y="1061.8857">NoOptionsText : string</text><ellipse cx="675" cy="1074.8359" fill="none" rx="3" ry="3" style="stroke:#038048;stroke-width:1.0;"/><text fill="#000000" font-family="sans-serif" font-size="14" lengthAdjust="spacing" textLength="153" x="684" y="1078.1826">NoResultsText : string</text><ellipse cx="675" cy="1091.1328" fill="none" rx="3" ry="3" style="stroke:#038048;stroke-width:1.0;"/><text fill="#000000" font-family="sans-serif" font-size="14" lengthAdjust="spacing" textLength="220" x="684" y="1094.4795">OptionsList : DropDownOption[]</text><ellipse cx="675" cy="1107.4297" fill="none" rx="3" ry="3" style="stroke:#038048;stroke-width:1.0;"/><text fill="#000000" font-family="sans-serif" font-size="14" lengthAdjust="spacing" textLength="102" x="684" y="1110.7764">Prompt : string</text><ellipse cx="675" cy="1123.7266" fill="none" rx="3" ry="3" style="stroke:#038048;stroke-width:1.0;"/><text fill="#000000" font-family="sans-serif" font-size="14" lengthAdjust="spacing" textLength="150" x="684" y="1127.0732">SearchPrompt : string</text><ellipse cx="675" cy="1140.0234" fill="none" rx="3" ry="3" style="stroke:#038048;stroke-width:1.0;"/><text fill="#000000" font-family="sans-serif" font-size="14" lengthAdjust="spacing" textLength="228" x="684" y="1143.3701">ShowDropboxAsPopup : boolean</text><ellipse cx="675" cy="1156.3203" fill="none" rx="3" ry="3" style="stroke:#038048;stroke-width:1.0;"/><text fill="#000000" font-family="sans-serif" font-size="14" lengthAdjust="spacing" textLength="260" x="684" y="1159.667">StartingSelection : DropDownOption[]</text><polygon fill="none" points="675,1167.6172,679,1171.6172,675,1175.6172,671,1171.6172" style="stroke:#B38D22;stroke-width:1.0;"/><text fill="#000000" font-family="sans-serif" font-size="14" lengthAdjust="spacing" textLength="307" x="684" y="1175.9639">providerExtendedOptions : VirtualSelectOpts</text><line style="stroke:#272B30;stroke-width:0.5;" x1="665" x2="1283" y1="1183.2656" y2="1183.2656"/><ellipse cx="675" cy="1196.9141" fill="#84BE84" rx="3" ry="3" style="stroke:#038048;stroke-width:1.0;"/><text fill="#000000" font-family="sans-serif" font-size="14" lengthAdjust="spacing" textLength="264" x="684" y="1200.2607">getProviderConfig() : VirtualSelectOpts</text><ellipse cx="675" cy="1213.2109" fill="#84BE84" rx="3" ry="3" style="stroke:#038048;stroke-width:1.0;"/><text fill="#000000" font-family="sans-serif" font-size="14" lengthAdjust="spacing" textLength="413" x="684" y="1216.5576">setExtensibilityConfigs(newConfigs: VirtualSelectOpts) : void</text><ellipse cx="675" cy="1229.5078" fill="#84BE84" rx="3" ry="3" style="stroke:#038048;stroke-width:1.0;"/><text fill="#000000" font-family="sans-serif" font-size="14" lengthAdjust="spacing" textLength="412" x="684" y="1232.8545">validateCanChange(_isBuilt: boolean, _key: string) : boolean</text><ellipse cx="675" cy="1245.8047" fill="#84BE84" rx="3" ry="3" style="stroke:#038048;stroke-width:1.0;"/><text fill="#000000" font-family="sans-serif" font-size="14" lengthAdjust="spacing" textLength="377" x="684" y="1249.1514">validateDefault(key: string, value: unknown) : unknown</text><polygon fill="#FFFF44" points="675,1257.1016,679,1261.1016,675,1265.1016,671,1261.1016" style="stroke:#B38D22;stroke-width:1.0;"/><text fill="#000000" font-family="sans-serif" font-size="14" lengthAdjust="spacing" textLength="202" x="684" y="1265.4482">getSelectedValues() : string[]</text><polygon fill="#FFFF44" points="675,1273.3984,679,1277.3984,675,1281.3984,671,1277.3984" style="stroke:#B38D22;stroke-width:1.0;"/><text fill="#000000" font-family="sans-serif" font-size="14" lengthAdjust="spacing" textLength="594" x="684" y="1281.7451">mergeConfigs(commonConfigs: any, specificConfigs: any, extendedConfigs: any) : any</text><polygon fill="#FFFF44" points="675,1289.6953,679,1293.6953,675,1297.6953,671,1293.6953" style="stroke:#B38D22;stroke-width:1.0;"/><text fill="#000000" font-family="sans-serif" font-size="14" lengthAdjust="spacing" textLength="447" x="684" y="1298.042">validateBoolean(value: boolean, defaultValue: boolean) : boolean</text><polygon fill="#FFFF44" points="675,1305.9922,679,1309.9922,675,1313.9922,671,1309.9922" style="stroke:#B38D22;stroke-width:1.0;"/><text fill="#000000" font-family="sans-serif" font-size="14" lengthAdjust="spacing" textLength="464" x="684" y="1314.3389">validateDate(value: string | Date, defaultValue: string) : string | Date</text><polygon fill="#FFFF44" points="675,1322.2891,679,1326.2891,675,1330.2891,671,1326.2891" style="stroke:#B38D22;stroke-width:1.0;"/><text fill="#000000" font-family="sans-serif" font-size="14" lengthAdjust="spacing" textLength="592" x="684" y="1330.6357">validateInRange(value: unknown, defaultValue: unknown, args: unknown[]) : unknown</text><polygon fill="#FFFF44" points="675,1338.5859,679,1342.5859,675,1346.5859,671,1342.5859" style="stroke:#B38D22;stroke-width:1.0;"/><text fill="#000000" font-family="sans-serif" font-size="14" lengthAdjust="spacing" textLength="439" x="684" y="1346.9326">validateNumber(value: number, defaultValue: number) : number</text><polygon fill="#FFFF44" points="675,1354.8828,679,1358.8828,675,1362.8828,671,1358.8828" style="stroke:#B38D22;stroke-width:1.0;"/><text fill="#000000" font-family="sans-serif" font-size="14" lengthAdjust="spacing" textLength="379" x="684" y="1363.2295">validateString(value: string, defaultValue: string) : string</text><polygon fill="#FFFF44" points="675,1371.1797,679,1375.1797,675,1379.1797,671,1375.1797" style="stroke:#B38D22;stroke-width:1.0;"/><text fill="#000000" font-family="sans-serif" font-size="14" lengthAdjust="spacing" textLength="373" x="684" y="1379.5264">validateTime(value: string, defaultValue: string) : string</text></g><!--reverse link AbstractDropdownConfig to AbstractVirtualSelectConfig--><g id="link_AbstractDropdownConfig_AbstractVirtualSelectConfig"><path codeLine="56" d="M646,285.11 C646,304.1 646,306.26 646,326.93 " fill="none" id="AbstractDropdownConfig-backto-AbstractVirtualSelectConfig" style="stroke:#272B30;stroke-width:1.0;"/><polygon fill="none" points="646,267.11,640,285.11,652,285.11,646,267.11" style="stroke:#272B30;stroke-width:1.0;"/></g><!--reverse link AbstractVirtualSelectConfig to VirtualSelectSearchConfig--><g id="link_AbstractVirtualSelectConfig_VirtualSelectSearchConfig"><path codeLine="83" d="M471.7727,911.9411 C460.2027,931.8411 457.68,936.15 446.36,955.61 " fill="none" id="AbstractVirtualSelectConfig-backto-VirtualSelectSearchConfig" style="stroke:#272B30;stroke-width:1.0;"/><polygon fill="none" points="480.82,896.38,466.5857,908.9253,476.9597,914.9568,480.82,896.38" style="stroke:#272B30;stroke-width:1.0;"/></g><!--reverse link AbstractVirtualSelectConfig to VirtualSelectTagsConfig--><g id="link_AbstractVirtualSelectConfig_VirtualSelectTagsConfig"><path codeLine="109" d="M820.7514,911.927 C834.0314,934.687 838.23,941.87 851.13,963.98 " fill="none" id="AbstractVirtualSelectConfig-backto-VirtualSelectTagsConfig" style="stroke:#272B30;stroke-width:1.0;"/><polygon fill="none" points="811.68,896.38,815.569,914.9508,825.9337,908.9032,811.68,896.38" style="stroke:#272B30;stroke-width:1.0;"/></g><!--SRC=[xLVVQzim47xFNo7Q5vSsCBh1eEmbJTOIsDhGXBwK46Jxx6YH9IF9JKBR_tsIPJks6gUiCCQe0oRs_VXqTz9zFiiLOIaME453YgKS2C7NGqwvGCVdNy_zpvzwicbnoKK8uh093bQnu1aB2xCeYceshzG1X5z2t5kI410agTgY1DIIXx8kYWXGBS6-L0872WLc9NGqA9xlYL0PfbEW4AWXPn69Zz1J3-dVwNSA2J0r3j45qjQ4nOLyeu254EP1Exgn7169VGh6oUUS0cPMSyDlKqKuapFOACVhXj-1pAZQfokyVX1fD2F1qn5VCojzc5kRYU0wMSTn2bW4o_sg9LyR99zl1dB2qonrevqgB9IsjuNHIxMjVPmA_gZBBSgg5F5g-qPjjLZc3ls5sSIqCYmIkpR2lIlq5-KIRq6Vng0cXQtTI- -atLY2ocEMn2UKgAtra1w3TN6xnzNWFN8IMeX7J4c85Gmn6ounYy5R47cP4QggSfwXnGgsPVbFt3gN22E8i3u0Nits36bb1XSeOokcYs9yYzlSzwayqo_eM2TkOuJmtZZ9F76BKsvK0YA6Cic09mbdLPwORS-GJ24W4GcQKYXFUqrgmFMVnIrJkBHvUKNKLVwXJUs-8NOBKQ6Cz5L2sFZHCp925sXNq8PP4stCxl9jQLRIXQh4M9W4YyU7kLln2lOcItmG9IhBdrnGApKGzgw9CCrZRYRwLePDX1b9u1t-_KMmX61rnSKLYMVR53oUTvNRtiPDMsG2Z57PkQ2kNpLlVjGUgktUsyZp7O0LZGFE9W8YiZcmVYFidMk2OtYlBukufwk7NxTseMtttINhPgUFtY7wolckm72ATUl_qglFUo-jBoY36MfCzztqhdVGcxnVuvGMCYtR_jzoNqTc7vxCNdgjFVBjkTy_FEBrYYvhwEp0v3JQW5A-_gdZ82c5-ZJKEChTgFWtHiMFDSzrGrp7Ut_6Uti_NYtvjHFRNkgRuLXsNxyTfNMKrb7QVq5fDSBw3G00]--></g></svg>