<?xml version="1.0" encoding="UTF-8" standalone="no"?><svg xmlns="http://www.w3.org/2000/svg" xmlns:xlink="http://www.w3.org/1999/xlink" contentScriptType="application/ecmascript" contentStyleType="text/css" height="1035px" preserveAspectRatio="none" style="width:864px;height:1035px;background:#CED4DA;" version="1.1" viewBox="0 0 864 1035" width="864px" zoomAndPan="magnify"><defs><filter height="300%" id="f1mz69xzq3wnxd" width="300%" x="-1" y="-1"><feGaussianBlur result="blurOut" stdDeviation="2.0"/><feColorMatrix in="blurOut" result="blurOut2" type="matrix" values="0 0 0 0 0 0 0 0 0 0 0 0 0 0 0 0 0 0 .4 0"/><feOffset dx="4.0" dy="4.0" in="blurOut2" result="blurOut3"/><feBlend in="SourceGraphic" in2="blurOut3" mode="normal"/></filter></defs><g><!--MD5=[2bf91b6da089adb23b06c491154e329c]
class AbstractProgress<C>--><rect codeLine="7" fill="#FFFFFF" filter="url(#f1mz69xzq3wnxd)" height="216.416" id="AbstractProgress&lt;C&gt;" style="stroke:#272B30;stroke-width:1.5;" width="403" x="228" y="270"/><ellipse cx="362.25" cy="286" fill="#A9DCDF" rx="11" ry="11" style="stroke:#272B30;stroke-width:1.0;"/><path d="M362.1133,281.3481 L360.9595,286.4199 L363.2754,286.4199 Z M360.6191,279.1069 L363.6157,279.1069 L366.9609,291.5 L364.5122,291.5 L363.7485,288.437 L360.4697,288.437 L359.7227,291.5 L357.2739,291.5 Z " fill="#000000"/><text fill="#000000" font-family="sans-serif" font-size="12" font-style="italic" lengthAdjust="spacing" textLength="126" x="382.75" y="290.5352">AbstractProgress&lt;C&gt;</text><line style="stroke:#272B30;stroke-width:1.5;" x1="229" x2="630" y1="302" y2="302"/><polygon fill="none" points="239,308,243,312,239,316,235,312" style="stroke:#B38D22;stroke-width:1.0;"/><text fill="#000000" font-family="sans-serif" font-size="11" lengthAdjust="spacing" textLength="131" x="248" y="316.6348">_selfElem : HTMLElement</text><polygon fill="none" points="239,320.9551,243,324.9551,239,328.9551,235,324.9551" style="stroke:#B38D22;stroke-width:1.0;"/><text fill="#000000" font-family="sans-serif" font-size="11" lengthAdjust="spacing" textLength="92" x="248" y="329.5898">_widgetId : string</text><line style="stroke:#272B30;stroke-width:1.5;" x1="229" x2="630" y1="335.9102" y2="335.9102"/><ellipse cx="239" cy="346.9102" fill="#84BE84" rx="3" ry="3" style="stroke:#038048;stroke-width:1.0;"/><text fill="#000000" font-family="sans-serif" font-size="11" lengthAdjust="spacing" textLength="67" x="248" y="350.5449">build() : void</text><ellipse cx="239" cy="359.8652" fill="#84BE84" rx="3" ry="3" style="stroke:#038048;stroke-width:1.0;"/><text fill="#000000" font-family="sans-serif" font-size="11" lengthAdjust="spacing" textLength="377" x="248" y="363.5">changeProperty(propertyName: string, propertyValue: unknown) : void</text><ellipse cx="239" cy="372.8203" fill="#84BE84" rx="3" ry="3" style="stroke:#038048;stroke-width:1.0;"/><text fill="#000000" font-family="sans-serif" font-size="11" lengthAdjust="spacing" textLength="82" x="248" y="376.4551">dispose() : void</text><ellipse cx="239" cy="385.7754" fill="#84BE84" rx="3" ry="3" style="stroke:#038048;stroke-width:1.0;"/><text fill="#000000" font-family="sans-serif" font-size="11" lengthAdjust="spacing" textLength="207" x="248" y="389.4102">equalsToID(patternId: string) : boolean</text><ellipse cx="239" cy="398.7305" fill="#84BE84" rx="3" ry="3" style="stroke:#038048;stroke-width:1.0;"/><text fill="#000000" font-family="sans-serif" font-size="11" lengthAdjust="spacing" textLength="144" x="248" y="402.3652">resetProgressValue() : void</text><ellipse cx="239" cy="411.6855" fill="#84BE84" rx="3" ry="3" style="stroke:#038048;stroke-width:1.0;"/><text fill="#000000" font-family="sans-serif" font-size="11" lengthAdjust="spacing" textLength="209" x="248" y="415.3203">setProgressValue(value: number) : void</text><polygon fill="#FFFF44" points="239,419.6406,243,423.6406,239,427.6406,235,423.6406" style="stroke:#B38D22;stroke-width:1.0;"/><text fill="#000000" font-family="sans-serif" font-size="11" font-style="italic" lengthAdjust="spacing" textLength="144" x="248" y="428.2754">addInitialAnimation() : void</text><polygon fill="#FFFF44" points="239,432.5957,243,436.5957,239,440.5957,235,436.5957" style="stroke:#B38D22;stroke-width:1.0;"/><text fill="#000000" font-family="sans-serif" font-size="11" lengthAdjust="spacing" textLength="96" x="248" y="441.2305">finishBuild() : void</text><polygon fill="#FFFF44" points="239,445.5508,243,449.5508,239,453.5508,235,449.5508" style="stroke:#B38D22;stroke-width:1.0;"/><text fill="#000000" font-family="sans-serif" font-size="11" font-style="italic" lengthAdjust="spacing" textLength="251" x="248" y="454.1855">setElementProgressValue(value: number) : void</text><polygon fill="#FFFF44" points="239,458.5059,243,462.5059,239,466.5059,235,462.5059" style="stroke:#B38D22;stroke-width:1.0;"/><text fill="#000000" font-family="sans-serif" font-size="11" lengthAdjust="spacing" textLength="245" x="248" y="467.1406">updateValueNow(progressValue: string) : void</text><rect fill="#F24D5C" height="6" style="stroke:#C82930;stroke-width:1.0;" width="6" x="236" y="473.4609"/><text fill="#000000" font-family="sans-serif" font-size="11" lengthAdjust="spacing" textLength="160" x="248" y="480.0957">_setAccessibilityProps() : void</text><!--MD5=[9535f12e0f372b236ea6317b881381d1]
class AbstractPattern<C>--><rect codeLine="22" fill="#FFFFFF" filter="url(#f1mz69xzq3wnxd)" height="203.4609" id="AbstractPattern&lt;C&gt;" style="stroke:#272B30;stroke-width:1.5;" width="403" x="9" y="7"/><ellipse cx="147.75" cy="23" fill="#A9DCDF" rx="11" ry="11" style="stroke:#272B30;stroke-width:1.0;"/><path d="M147.6133,18.3481 L146.4595,23.4199 L148.7754,23.4199 Z M146.1191,16.1069 L149.1157,16.1069 L152.4609,28.5 L150.0122,28.5 L149.2485,25.437 L145.9697,25.437 L145.2227,28.5 L142.7739,28.5 Z " fill="#000000"/><text fill="#000000" font-family="sans-serif" font-size="12" font-style="italic" lengthAdjust="spacing" textLength="117" x="168.25" y="27.5352">AbstractPattern&lt;C&gt;</text><line style="stroke:#272B30;stroke-width:1.5;" x1="10" x2="411" y1="39" y2="39"/><polygon fill="none" points="20,45,24,49,20,53,16,49" style="stroke:#B38D22;stroke-width:1.0;"/><text fill="#000000" font-family="sans-serif" font-size="11" lengthAdjust="spacing" textLength="131" x="29" y="53.6348">_selfElem : HTMLElement</text><polygon fill="none" points="20,57.9551,24,61.9551,20,65.9551,16,61.9551" style="stroke:#B38D22;stroke-width:1.0;"/><text fill="#000000" font-family="sans-serif" font-size="11" lengthAdjust="spacing" textLength="92" x="29" y="66.5898">_widgetId : string</text><rect fill="none" height="6" style="stroke:#C82930;stroke-width:1.0;" width="6" x="17" y="72.9102"/><text fill="#000000" font-family="sans-serif" font-size="11" lengthAdjust="spacing" textLength="63" x="29" y="79.5449">_configs : C</text><rect fill="none" height="6" style="stroke:#C82930;stroke-width:1.0;" width="6" x="17" y="85.8652"/><text fill="#000000" font-family="sans-serif" font-size="11" lengthAdjust="spacing" textLength="90" x="29" y="92.5">_isBuilt : boolean</text><rect fill="none" height="6" style="stroke:#C82930;stroke-width:1.0;" width="6" x="17" y="98.8203"/><text fill="#000000" font-family="sans-serif" font-size="11" lengthAdjust="spacing" textLength="94" x="29" y="105.4551">_uniqueId : string</text><line style="stroke:#272B30;stroke-width:1.5;" x1="10" x2="411" y1="111.7754" y2="111.7754"/><ellipse cx="20" cy="122.7754" fill="#84BE84" rx="3" ry="3" style="stroke:#038048;stroke-width:1.0;"/><text fill="#000000" font-family="sans-serif" font-size="11" lengthAdjust="spacing" textLength="67" x="29" y="126.4102">build() : void</text><ellipse cx="20" cy="135.7305" fill="#84BE84" rx="3" ry="3" style="stroke:#038048;stroke-width:1.0;"/><text fill="#000000" font-family="sans-serif" font-size="11" lengthAdjust="spacing" textLength="377" x="29" y="139.3652">changeProperty(propertyName: string, propertyValue: unknown) : void</text><ellipse cx="20" cy="148.6855" fill="#84BE84" rx="3" ry="3" style="stroke:#038048;stroke-width:1.0;"/><text fill="#000000" font-family="sans-serif" font-size="11" lengthAdjust="spacing" textLength="82" x="29" y="152.3203">dispose() : void</text><ellipse cx="20" cy="161.6406" fill="#84BE84" rx="3" ry="3" style="stroke:#038048;stroke-width:1.0;"/><text fill="#000000" font-family="sans-serif" font-size="11" lengthAdjust="spacing" textLength="207" x="29" y="165.2754">equalsToID(patternId: string) : boolean</text><polygon fill="#FFFF44" points="20,169.5957,24,173.5957,20,177.5957,16,173.5957" style="stroke:#B38D22;stroke-width:1.0;"/><text fill="#000000" font-family="sans-serif" font-size="11" lengthAdjust="spacing" textLength="96" x="29" y="178.2305">finishBuild() : void</text><polygon fill="#FFFF44" points="20,182.5508,24,186.5508,20,190.5508,16,186.5508" style="stroke:#B38D22;stroke-width:1.0;"/><text fill="#000000" font-family="sans-serif" font-size="11" lengthAdjust="spacing" textLength="198" x="29" y="191.1855">_unsetCommonHtmlElements() : void</text><rect fill="#F24D5C" height="6" style="stroke:#C82930;stroke-width:1.0;" width="6" x="17" y="197.5059"/><text fill="#000000" font-family="sans-serif" font-size="11" lengthAdjust="spacing" textLength="184" x="29" y="204.1406">_setCommonHtmlElements() : void</text><!--MD5=[cc3bf36fa48987570ec0b92f2985dcfb]
class IProgress--><rect codeLine="37" fill="#FFFFFF" filter="url(#f1mz69xzq3wnxd)" height="177.5508" id="IProgress" style="stroke:#272B30;stroke-width:1.5;" width="403" x="447" y="19.5"/><ellipse cx="617.75" cy="35.5" fill="#B4A7E5" rx="11" ry="11" style="stroke:#272B30;stroke-width:1.0;"/><path d="M614.1777,31.7651 L614.1777,29.6069 L621.5571,29.6069 L621.5571,31.7651 L619.0918,31.7651 L619.0918,39.8418 L621.5571,39.8418 L621.5571,42 L614.1777,42 L614.1777,39.8418 L616.6431,39.8418 L616.6431,31.7651 Z " fill="#000000"/><text fill="#000000" font-family="sans-serif" font-size="12" font-style="italic" lengthAdjust="spacing" textLength="53" x="638.25" y="40.0352">IProgress</text><line style="stroke:#272B30;stroke-width:1.5;" x1="448" x2="849" y1="51.5" y2="51.5"/><ellipse cx="458" cy="62.5" rx="3" ry="3" style="stroke:#038048;stroke-width:1.0;fill:none;"/><text fill="#000000" font-family="sans-serif" font-size="11" lengthAdjust="spacing" textLength="84" x="467" y="66.1348">isBuilt : boolean</text><ellipse cx="458" cy="75.4551" rx="3" ry="3" style="stroke:#038048;stroke-width:1.0;fill:none;"/><text fill="#000000" font-family="sans-serif" font-size="11" lengthAdjust="spacing" textLength="142" x="467" y="79.0898">selfElement : HTMLElement</text><ellipse cx="458" cy="88.4102" rx="3" ry="3" style="stroke:#038048;stroke-width:1.0;fill:none;"/><text fill="#000000" font-family="sans-serif" font-size="11" lengthAdjust="spacing" textLength="88" x="467" y="92.0449">uniqueId : string</text><ellipse cx="458" cy="101.3652" rx="3" ry="3" style="stroke:#038048;stroke-width:1.0;fill:none;"/><text fill="#000000" font-family="sans-serif" font-size="11" lengthAdjust="spacing" textLength="86" x="467" y="105">widgetId : string</text><line style="stroke:#272B30;stroke-width:1.5;" x1="448" x2="849" y1="111.3203" y2="111.3203"/><ellipse cx="458" cy="122.3203" fill="#84BE84" rx="3" ry="3" style="stroke:#038048;stroke-width:1.0;"/><text fill="#000000" font-family="sans-serif" font-size="11" lengthAdjust="spacing" textLength="67" x="467" y="125.9551">build() : void</text><ellipse cx="458" cy="135.2754" fill="#84BE84" rx="3" ry="3" style="stroke:#038048;stroke-width:1.0;"/><text fill="#000000" font-family="sans-serif" font-size="11" lengthAdjust="spacing" textLength="377" x="467" y="138.9102">changeProperty(propertyName: string, propertyValue: unknown) : void</text><ellipse cx="458" cy="148.2305" fill="#84BE84" rx="3" ry="3" style="stroke:#038048;stroke-width:1.0;"/><text fill="#000000" font-family="sans-serif" font-size="11" lengthAdjust="spacing" textLength="82" x="467" y="151.8652">dispose() : void</text><ellipse cx="458" cy="161.1855" fill="#84BE84" rx="3" ry="3" style="stroke:#038048;stroke-width:1.0;"/><text fill="#000000" font-family="sans-serif" font-size="11" lengthAdjust="spacing" textLength="168" x="467" y="164.8203">equalsToID(id: string) : boolean</text><ellipse cx="458" cy="174.1406" fill="#84BE84" rx="3" ry="3" style="stroke:#038048;stroke-width:1.0;"/><text fill="#000000" font-family="sans-serif" font-size="11" lengthAdjust="spacing" textLength="144" x="467" y="177.7754">resetProgressValue() : void</text><ellipse cx="458" cy="187.0957" fill="#84BE84" rx="3" ry="3" style="stroke:#038048;stroke-width:1.0;"/><text fill="#000000" font-family="sans-serif" font-size="11" lengthAdjust="spacing" textLength="209" x="467" y="190.7305">setProgressValue(value: number) : void</text><!--MD5=[fea15f7924bd848149aeb562f3a4d86b]
class Bar--><rect codeLine="50" fill="#FFFFFF" filter="url(#f1mz69xzq3wnxd)" height="371.877" id="Bar" style="stroke:#272B30;stroke-width:1.5;" width="403" x="9" y="598"/><ellipse cx="196.75" cy="614" fill="#ADD1B2" rx="11" ry="11" style="stroke:#272B30;stroke-width:1.0;"/><path d="M199.2231,620.1431 Q198.6421,620.4419 198.0029,620.5913 Q197.3638,620.7407 196.6582,620.7407 Q194.1514,620.7407 192.8315,619.0889 Q191.5117,617.437 191.5117,614.3159 Q191.5117,611.1865 192.8315,609.5347 Q194.1514,607.8828 196.6582,607.8828 Q197.3638,607.8828 198.0112,608.0322 Q198.6587,608.1816 199.2231,608.4805 L199.2231,611.2031 Q198.5923,610.6221 197.9988,610.3523 Q197.4053,610.0825 196.7744,610.0825 Q195.4297,610.0825 194.7449,611.1492 Q194.0601,612.2158 194.0601,614.3159 Q194.0601,616.4077 194.7449,617.4744 Q195.4297,618.541 196.7744,618.541 Q197.4053,618.541 197.9988,618.2712 Q198.5923,618.0015 199.2231,617.4204 Z " fill="#000000"/><text fill="#000000" font-family="sans-serif" font-size="12" lengthAdjust="spacing" textLength="19" x="217.25" y="618.5352">Bar</text><line style="stroke:#272B30;stroke-width:1.5;" x1="10" x2="411" y1="630" y2="630"/><polygon fill="none" points="20,636,24,640,20,644,16,640" style="stroke:#B38D22;stroke-width:1.0;"/><text fill="#000000" font-family="sans-serif" font-size="11" lengthAdjust="spacing" textLength="131" x="29" y="644.6348">_selfElem : HTMLElement</text><polygon fill="none" points="20,648.9551,24,652.9551,20,656.9551,16,652.9551" style="stroke:#B38D22;stroke-width:1.0;"/><text fill="#000000" font-family="sans-serif" font-size="11" lengthAdjust="spacing" textLength="92" x="29" y="657.5898">_widgetId : string</text><rect fill="none" height="6" style="stroke:#C82930;stroke-width:1.0;" width="6" x="17" y="663.9102"/><text fill="#000000" font-family="sans-serif" font-size="11" lengthAdjust="spacing" textLength="196" x="29" y="670.5449">_eventAnimateEntranceEnd : Generic</text><rect fill="none" height="6" style="stroke:#C82930;stroke-width:1.0;" width="6" x="17" y="676.8652"/><text fill="#000000" font-family="sans-serif" font-size="11" lengthAdjust="spacing" textLength="161" x="29" y="683.5">_progressElem : HTMLElement</text><line style="stroke:#272B30;stroke-width:1.5;" x1="10" x2="411" y1="689.8203" y2="689.8203"/><ellipse cx="20" cy="700.8203" fill="#84BE84" rx="3" ry="3" style="stroke:#038048;stroke-width:1.0;"/><text fill="#000000" font-family="sans-serif" font-size="11" lengthAdjust="spacing" textLength="67" x="29" y="704.4551">build() : void</text><ellipse cx="20" cy="713.7754" fill="#84BE84" rx="3" ry="3" style="stroke:#038048;stroke-width:1.0;"/><text fill="#000000" font-family="sans-serif" font-size="11" lengthAdjust="spacing" textLength="377" x="29" y="717.4102">changeProperty(propertyName: string, propertyValue: unknown) : void</text><ellipse cx="20" cy="726.7305" fill="#84BE84" rx="3" ry="3" style="stroke:#038048;stroke-width:1.0;"/><text fill="#000000" font-family="sans-serif" font-size="11" lengthAdjust="spacing" textLength="82" x="29" y="730.3652">dispose() : void</text><ellipse cx="20" cy="739.6855" fill="#84BE84" rx="3" ry="3" style="stroke:#038048;stroke-width:1.0;"/><text fill="#000000" font-family="sans-serif" font-size="11" lengthAdjust="spacing" textLength="207" x="29" y="743.3203">equalsToID(patternId: string) : boolean</text><ellipse cx="20" cy="752.6406" fill="#84BE84" rx="3" ry="3" style="stroke:#038048;stroke-width:1.0;"/><text fill="#000000" font-family="sans-serif" font-size="11" lengthAdjust="spacing" textLength="144" x="29" y="756.2754">resetProgressValue() : void</text><ellipse cx="20" cy="765.5957" fill="#84BE84" rx="3" ry="3" style="stroke:#038048;stroke-width:1.0;"/><text fill="#000000" font-family="sans-serif" font-size="11" lengthAdjust="spacing" textLength="209" x="29" y="769.2305">setProgressValue(value: number) : void</text><polygon fill="#FFFF44" points="20,773.5508,24,777.5508,20,781.5508,16,777.5508" style="stroke:#B38D22;stroke-width:1.0;"/><text fill="#000000" font-family="sans-serif" font-size="11" lengthAdjust="spacing" textLength="144" x="29" y="782.1855">addInitialAnimation() : void</text><polygon fill="#FFFF44" points="20,786.5059,24,790.5059,20,794.5059,16,790.5059" style="stroke:#B38D22;stroke-width:1.0;"/><text fill="#000000" font-family="sans-serif" font-size="11" lengthAdjust="spacing" textLength="96" x="29" y="795.1406">finishBuild() : void</text><polygon fill="#FFFF44" points="20,799.4609,24,803.4609,20,807.4609,16,803.4609" style="stroke:#B38D22;stroke-width:1.0;"/><text fill="#000000" font-family="sans-serif" font-size="11" lengthAdjust="spacing" textLength="107" x="29" y="808.0957">setCallbacks() : void</text><polygon fill="#FFFF44" points="20,812.416,24,816.416,20,820.416,16,816.416" style="stroke:#B38D22;stroke-width:1.0;"/><text fill="#000000" font-family="sans-serif" font-size="11" lengthAdjust="spacing" textLength="251" x="29" y="821.0508">setElementProgressValue(value: number) : void</text><polygon fill="#FFFF44" points="20,825.3711,24,829.3711,20,833.3711,16,829.3711" style="stroke:#B38D22;stroke-width:1.0;"/><text fill="#000000" font-family="sans-serif" font-size="11" lengthAdjust="spacing" textLength="129" x="29" y="834.0059">setHtmlElements() : void</text><polygon fill="#FFFF44" points="20,838.3262,24,842.3262,20,846.3262,16,842.3262" style="stroke:#B38D22;stroke-width:1.0;"/><text fill="#000000" font-family="sans-serif" font-size="11" lengthAdjust="spacing" textLength="121" x="29" y="846.9609">unsetCallbacks() : void</text><polygon fill="#FFFF44" points="20,851.2813,24,855.2813,20,859.2813,16,855.2813" style="stroke:#B38D22;stroke-width:1.0;"/><text fill="#000000" font-family="sans-serif" font-size="11" lengthAdjust="spacing" textLength="143" x="29" y="859.916">unsetHtmlElements() : void</text><polygon fill="#FFFF44" points="20,864.2363,24,868.2363,20,872.2363,16,868.2363" style="stroke:#B38D22;stroke-width:1.0;"/><text fill="#000000" font-family="sans-serif" font-size="11" lengthAdjust="spacing" textLength="245" x="29" y="872.8711">updateValueNow(progressValue: string) : void</text><rect fill="#F24D5C" height="6" style="stroke:#C82930;stroke-width:1.0;" width="6" x="17" y="879.1914"/><text fill="#000000" font-family="sans-serif" font-size="11" lengthAdjust="spacing" textLength="155" x="29" y="885.8262">_animateEntranceEnd() : void</text><rect fill="#F24D5C" height="6" style="stroke:#C82930;stroke-width:1.0;" width="6" x="17" y="892.1465"/><text fill="#000000" font-family="sans-serif" font-size="11" lengthAdjust="spacing" textLength="131" x="29" y="898.7813">_setCssVariables() : void</text><rect fill="#F24D5C" height="6" style="stroke:#C82930;stroke-width:1.0;" width="6" x="17" y="905.1016"/><text fill="#000000" font-family="sans-serif" font-size="11" lengthAdjust="spacing" textLength="227" x="29" y="911.7363">_updateProgressColor(value: string) : void</text><rect fill="#F24D5C" height="6" style="stroke:#C82930;stroke-width:1.0;" width="6" x="17" y="918.0566"/><text fill="#000000" font-family="sans-serif" font-size="11" lengthAdjust="spacing" textLength="160" x="29" y="924.6914">_updateProgressValue() : void</text><rect fill="#F24D5C" height="6" style="stroke:#C82930;stroke-width:1.0;" width="6" x="17" y="931.0117"/><text fill="#000000" font-family="sans-serif" font-size="11" lengthAdjust="spacing" textLength="181" x="29" y="937.6465">_updateShape(value: string) : void</text><rect fill="#F24D5C" height="6" style="stroke:#C82930;stroke-width:1.0;" width="6" x="17" y="943.9668"/><text fill="#000000" font-family="sans-serif" font-size="11" lengthAdjust="spacing" textLength="213" x="29" y="950.6016">_updateThickness(value: number) : void</text><rect fill="#F24D5C" height="6" style="stroke:#C82930;stroke-width:1.0;" width="6" x="17" y="956.9219"/><text fill="#000000" font-family="sans-serif" font-size="11" lengthAdjust="spacing" textLength="203" x="29" y="963.5566">_updateTrailColor(value: string) : void</text><!--MD5=[a7f9118cae7621dd25d25149752faef0]
class Circle--><rect codeLine="78" fill="#FFFFFF" filter="url(#f1mz69xzq3wnxd)" height="475.5176" id="Circle" style="stroke:#272B30;stroke-width:1.5;" width="403" x="447" y="546"/><ellipse cx="628.25" cy="562" fill="#ADD1B2" rx="11" ry="11" style="stroke:#272B30;stroke-width:1.0;"/><path d="M630.7231,568.1431 Q630.1421,568.4419 629.5029,568.5913 Q628.8638,568.7407 628.1582,568.7407 Q625.6514,568.7407 624.3315,567.0889 Q623.0117,565.437 623.0117,562.3159 Q623.0117,559.1865 624.3315,557.5347 Q625.6514,555.8828 628.1582,555.8828 Q628.8638,555.8828 629.5112,556.0322 Q630.1587,556.1816 630.7231,556.4805 L630.7231,559.2031 Q630.0923,558.6221 629.4988,558.3523 Q628.9053,558.0825 628.2744,558.0825 Q626.9297,558.0825 626.2449,559.1492 Q625.5601,560.2158 625.5601,562.3159 Q625.5601,564.4077 626.2449,565.4744 Q626.9297,566.541 628.2744,566.541 Q628.9053,566.541 629.4988,566.2712 Q630.0923,566.0015 630.7231,565.4204 Z " fill="#000000"/><text fill="#000000" font-family="sans-serif" font-size="12" lengthAdjust="spacing" textLength="32" x="648.75" y="566.5352">Circle</text><line style="stroke:#272B30;stroke-width:1.5;" x1="448" x2="849" y1="578" y2="578"/><polygon fill="none" points="458,584,462,588,458,592,454,588" style="stroke:#B38D22;stroke-width:1.0;"/><text fill="#000000" font-family="sans-serif" font-size="11" lengthAdjust="spacing" textLength="131" x="467" y="592.6348">_selfElem : HTMLElement</text><polygon fill="none" points="458,596.9551,462,600.9551,458,604.9551,454,600.9551" style="stroke:#B38D22;stroke-width:1.0;"/><text fill="#000000" font-family="sans-serif" font-size="11" lengthAdjust="spacing" textLength="92" x="467" y="605.5898">_widgetId : string</text><rect fill="none" height="6" style="stroke:#C82930;stroke-width:1.0;" width="6" x="455" y="611.9102"/><text fill="#000000" font-family="sans-serif" font-size="11" lengthAdjust="spacing" textLength="165" x="467" y="618.5449">_circleCircumference : number</text><rect fill="none" height="6" style="stroke:#C82930;stroke-width:1.0;" width="6" x="455" y="624.8652"/><text fill="#000000" font-family="sans-serif" font-size="11" lengthAdjust="spacing" textLength="111" x="467" y="631.5">_circletSize : number</text><rect fill="none" height="6" style="stroke:#C82930;stroke-width:1.0;" width="6" x="455" y="637.8203"/><text fill="#000000" font-family="sans-serif" font-size="11" lengthAdjust="spacing" textLength="174" x="467" y="644.4551">_eventAnimateEntranceEnd : any</text><rect fill="none" height="6" style="stroke:#C82930;stroke-width:1.0;" width="6" x="455" y="650.7754"/><text fill="#000000" font-family="sans-serif" font-size="11" lengthAdjust="spacing" textLength="180" x="467" y="657.4102">_progressSvgElem : HTMLElement</text><rect fill="none" height="6" style="stroke:#C82930;stroke-width:1.0;" width="6" x="455" y="663.7305"/><text fill="#000000" font-family="sans-serif" font-size="11" lengthAdjust="spacing" textLength="181" x="467" y="670.3652">_resizeObserver : ResizeObserver</text><rect fill="none" height="6" style="stroke:#C82930;stroke-width:1.0;" width="6" x="455" y="676.6855"/><text fill="#000000" font-family="sans-serif" font-size="11" lengthAdjust="spacing" textLength="146" x="467" y="683.3203">_strokeDasharray : number</text><rect fill="none" height="6" style="stroke:#C82930;stroke-width:1.0;" width="6" x="455" y="689.6406"/><text fill="#000000" font-family="sans-serif" font-size="11" lengthAdjust="spacing" textLength="149" x="467" y="696.2754">_strokeDashoffset : number</text><line style="stroke:#272B30;stroke-width:1.5;" x1="448" x2="849" y1="702.5957" y2="702.5957"/><ellipse cx="458" cy="713.5957" fill="#84BE84" rx="3" ry="3" style="stroke:#038048;stroke-width:1.0;"/><text fill="#000000" font-family="sans-serif" font-size="11" lengthAdjust="spacing" textLength="67" x="467" y="717.2305">build() : void</text><ellipse cx="458" cy="726.5508" fill="#84BE84" rx="3" ry="3" style="stroke:#038048;stroke-width:1.0;"/><text fill="#000000" font-family="sans-serif" font-size="11" lengthAdjust="spacing" textLength="377" x="467" y="730.1855">changeProperty(propertyName: string, propertyValue: unknown) : void</text><ellipse cx="458" cy="739.5059" fill="#84BE84" rx="3" ry="3" style="stroke:#038048;stroke-width:1.0;"/><text fill="#000000" font-family="sans-serif" font-size="11" lengthAdjust="spacing" textLength="82" x="467" y="743.1406">dispose() : void</text><ellipse cx="458" cy="752.4609" fill="#84BE84" rx="3" ry="3" style="stroke:#038048;stroke-width:1.0;"/><text fill="#000000" font-family="sans-serif" font-size="11" lengthAdjust="spacing" textLength="207" x="467" y="756.0957">equalsToID(patternId: string) : boolean</text><ellipse cx="458" cy="765.416" fill="#84BE84" rx="3" ry="3" style="stroke:#038048;stroke-width:1.0;"/><text fill="#000000" font-family="sans-serif" font-size="11" lengthAdjust="spacing" textLength="144" x="467" y="769.0508">resetProgressValue() : void</text><ellipse cx="458" cy="778.3711" fill="#84BE84" rx="3" ry="3" style="stroke:#038048;stroke-width:1.0;"/><text fill="#000000" font-family="sans-serif" font-size="11" lengthAdjust="spacing" textLength="209" x="467" y="782.0059">setProgressValue(value: number) : void</text><polygon fill="#FFFF44" points="458,786.3262,462,790.3262,458,794.3262,454,790.3262" style="stroke:#B38D22;stroke-width:1.0;"/><text fill="#000000" font-family="sans-serif" font-size="11" lengthAdjust="spacing" textLength="144" x="467" y="794.9609">addInitialAnimation() : void</text><polygon fill="#FFFF44" points="458,799.2813,462,803.2813,458,807.2813,454,803.2813" style="stroke:#B38D22;stroke-width:1.0;"/><text fill="#000000" font-family="sans-serif" font-size="11" lengthAdjust="spacing" textLength="96" x="467" y="807.916">finishBuild() : void</text><polygon fill="#FFFF44" points="458,812.2363,462,816.2363,458,820.2363,454,816.2363" style="stroke:#B38D22;stroke-width:1.0;"/><text fill="#000000" font-family="sans-serif" font-size="11" lengthAdjust="spacing" textLength="107" x="467" y="820.8711">setCallbacks() : void</text><polygon fill="#FFFF44" points="458,825.1914,462,829.1914,458,833.1914,454,829.1914" style="stroke:#B38D22;stroke-width:1.0;"/><text fill="#000000" font-family="sans-serif" font-size="11" lengthAdjust="spacing" textLength="251" x="467" y="833.8262">setElementProgressValue(value: number) : void</text><polygon fill="#FFFF44" points="458,838.1465,462,842.1465,458,846.1465,454,842.1465" style="stroke:#B38D22;stroke-width:1.0;"/><text fill="#000000" font-family="sans-serif" font-size="11" lengthAdjust="spacing" textLength="129" x="467" y="846.7813">setHtmlElements() : void</text><polygon fill="#FFFF44" points="458,851.1016,462,855.1016,458,859.1016,454,855.1016" style="stroke:#B38D22;stroke-width:1.0;"/><text fill="#000000" font-family="sans-serif" font-size="11" lengthAdjust="spacing" textLength="121" x="467" y="859.7363">unsetCallbacks() : void</text><polygon fill="#FFFF44" points="458,864.0566,462,868.0566,458,872.0566,454,868.0566" style="stroke:#B38D22;stroke-width:1.0;"/><text fill="#000000" font-family="sans-serif" font-size="11" lengthAdjust="spacing" textLength="143" x="467" y="872.6914">unsetHtmlElements() : void</text><polygon fill="#FFFF44" points="458,877.0117,462,881.0117,458,885.0117,454,881.0117" style="stroke:#B38D22;stroke-width:1.0;"/><text fill="#000000" font-family="sans-serif" font-size="11" lengthAdjust="spacing" textLength="221" x="467" y="885.6465">updateProgressColor(value: string) : void</text><polygon fill="#FFFF44" points="458,889.9668,462,893.9668,458,897.9668,454,893.9668" style="stroke:#B38D22;stroke-width:1.0;"/><text fill="#000000" font-family="sans-serif" font-size="11" lengthAdjust="spacing" textLength="175" x="467" y="898.6016">updateShape(value: string) : void</text><polygon fill="#FFFF44" points="458,902.9219,462,906.9219,458,910.9219,454,906.9219" style="stroke:#B38D22;stroke-width:1.0;"/><text fill="#000000" font-family="sans-serif" font-size="11" lengthAdjust="spacing" textLength="207" x="467" y="911.5566">updateThickness(value: number) : void</text><polygon fill="#FFFF44" points="458,915.877,462,919.877,458,923.877,454,919.877" style="stroke:#B38D22;stroke-width:1.0;"/><text fill="#000000" font-family="sans-serif" font-size="11" lengthAdjust="spacing" textLength="197" x="467" y="924.5117">updateTrailColor(value: string) : void</text><polygon fill="#FFFF44" points="458,928.832,462,932.832,458,936.832,454,932.832" style="stroke:#B38D22;stroke-width:1.0;"/><text fill="#000000" font-family="sans-serif" font-size="11" lengthAdjust="spacing" textLength="245" x="467" y="937.4668">updateValueNow(progressValue: string) : void</text><rect fill="#F24D5C" height="6" style="stroke:#C82930;stroke-width:1.0;" width="6" x="455" y="943.7871"/><text fill="#000000" font-family="sans-serif" font-size="11" lengthAdjust="spacing" textLength="144" x="467" y="950.4219">_addResizeOberser() : void</text><rect fill="#F24D5C" height="6" style="stroke:#C82930;stroke-width:1.0;" width="6" x="455" y="956.7422"/><text fill="#000000" font-family="sans-serif" font-size="11" lengthAdjust="spacing" textLength="155" x="467" y="963.377">_animateEntranceEnd() : void</text><rect fill="#F24D5C" height="6" style="stroke:#C82930;stroke-width:1.0;" width="6" x="455" y="969.6973"/><text fill="#000000" font-family="sans-serif" font-size="11" lengthAdjust="spacing" textLength="142" x="467" y="976.332">_progressToOffset() : void</text><rect fill="#F24D5C" height="6" style="stroke:#C82930;stroke-width:1.0;" width="6" x="455" y="982.6523"/><text fill="#000000" font-family="sans-serif" font-size="11" lengthAdjust="spacing" textLength="131" x="467" y="989.2871">_setCssVariables() : void</text><rect fill="#F24D5C" height="6" style="stroke:#C82930;stroke-width:1.0;" width="6" x="455" y="995.6074"/><text fill="#000000" font-family="sans-serif" font-size="11" lengthAdjust="spacing" textLength="145" x="467" y="1002.2422">_updateCircleProps() : void</text><rect fill="#F24D5C" height="6" style="stroke:#C82930;stroke-width:1.0;" width="6" x="455" y="1008.5625"/><text fill="#000000" font-family="sans-serif" font-size="11" lengthAdjust="spacing" textLength="160" x="467" y="1015.1973">_updateProgressValue() : void</text><!--MD5=[03d9d9ff913e6eabea1030eab6fc123d]
reverse link AbstractPattern<C> to AbstractProgress<C>--><path codeLine="36" d="M305.78,225.89 C317.69,240.43 329.82,255.25 341.61,269.64 " fill="none" id="AbstractPattern&lt;C&gt;-backto-AbstractProgress&lt;C&gt;" style="stroke:#272B30;stroke-width:1.0;"/><polygon fill="none" points="300.24,230.16,292.98,210.25,311.07,221.29,300.24,230.16" style="stroke:#272B30;stroke-width:1.0;"/><!--MD5=[fb6355972f83e389b5f0bce6225ba49b]
reverse link IProgress to AbstractProgress<C>--><path codeLine="49" d="M563.4,213.45 C548.3,231.89 532.55,251.13 517.38,269.66 " fill="none" id="IProgress-backto-AbstractProgress&lt;C&gt;" style="stroke:#272B30;stroke-width:1.0;stroke-dasharray:7.0,7.0;"/><polygon fill="none" points="558.1,208.87,576.18,197.83,568.93,217.74,558.1,208.87" style="stroke:#272B30;stroke-width:1.0;"/><!--MD5=[78e4ea7f0391394e45ff453b8439e9db]
reverse link AbstractProgress<C> to Bar--><path codeLine="77" d="M361.8,503.89 C345.65,533.68 328.08,566.09 310.82,597.94 " fill="none" id="AbstractProgress&lt;C&gt;-backto-Bar" style="stroke:#272B30;stroke-width:1.0;"/><polygon fill="none" points="355.7,500.45,371.39,486.2,368.01,507.12,355.7,500.45" style="stroke:#272B30;stroke-width:1.0;"/><!--MD5=[589764563100a7898677761d33787f82]
reverse link AbstractProgress<C> to Circle--><path codeLine="113" d="M497.32,504.12 C504.59,517.52 512.14,531.45 519.82,545.62 " fill="none" id="AbstractProgress&lt;C&gt;-backto-Circle" style="stroke:#272B30;stroke-width:1.0;"/><polygon fill="none" points="490.99,507.12,487.61,486.2,503.3,500.45,490.99,507.12" style="stroke:#272B30;stroke-width:1.0;"/><!--MD5=[775fe89b1fdc21c70a30600564c98fe9]
@startuml
skinparam ClassArrowColor #272b30
skinparam ClassBorderColor #272b30
skinparam ClassBackgroundColor #fff
skinparam BackgroundColor #ced4da
hide empty methods
hide empty fields
abstract class "AbstractProgress<C>" {
    #_selfElem : HTMLElement
    #_widgetId : string
    +build() : void
    +changeProperty(propertyName: string, propertyValue: unknown) : void
    +dispose() : void
    +equalsToID(patternId: string) : boolean
    +resetProgressValue() : void
    +setProgressValue(value: number) : void
    {abstract} #addInitialAnimation() : void
    #finishBuild() : void
    {abstract} #setElementProgressValue(value: number) : void
    #updateValueNow(progressValue: string) : void
    -_setAccessibilityProps() : void
}
abstract class "AbstractPattern<C>" {
    #_selfElem : HTMLElement
    #_widgetId : string
    -_configs : C
    -_isBuilt : boolean
    -_uniqueId : string
    +build() : void
    +changeProperty(propertyName: string, propertyValue: unknown) : void
    +dispose() : void
    +equalsToID(patternId: string) : boolean
    #finishBuild() : void
    #_unsetCommonHtmlElements() : void
    -_setCommonHtmlElements() : void
}
"AbstractPattern<C>" <|- - "AbstractProgress<C>"
interface "IProgress" {
    +isBuilt : boolean
    +selfElement : HTMLElement
    +uniqueId : string
    +widgetId : string
    +build() : void
    +changeProperty(propertyName: string, propertyValue: unknown) : void
    +dispose() : void
    +equalsToID(id: string) : boolean
    +resetProgressValue() : void
    +setProgressValue(value: number) : void
}
"IProgress" <|.. "AbstractProgress<C>"
class "Bar" {
    #_selfElem : HTMLElement
    #_widgetId : string
    -_eventAnimateEntranceEnd : Generic
    -_progressElem : HTMLElement
    +build() : void
    +changeProperty(propertyName: string, propertyValue: unknown) : void
    +dispose() : void
    +equalsToID(patternId: string) : boolean
    +resetProgressValue() : void
    +setProgressValue(value: number) : void
    #addInitialAnimation() : void
    #finishBuild() : void
    #setCallbacks() : void
    #setElementProgressValue(value: number) : void
    #setHtmlElements() : void
    #unsetCallbacks() : void
    #unsetHtmlElements() : void
    #updateValueNow(progressValue: string) : void
    -_animateEntranceEnd() : void
    -_setCssVariables() : void
    -_updateProgressColor(value: string) : void
    -_updateProgressValue() : void
    -_updateShape(value: string) : void
    -_updateThickness(value: number) : void
    -_updateTrailColor(value: string) : void
}
"AbstractProgress<C>" <|- - "Bar"
class "Circle" {
    #_selfElem : HTMLElement
    #_widgetId : string
    -_circleCircumference : number
    -_circletSize : number
    -_eventAnimateEntranceEnd : any
    -_progressSvgElem : HTMLElement
    -_resizeObserver : ResizeObserver
    -_strokeDasharray : number
    -_strokeDashoffset : number
    +build() : void
    +changeProperty(propertyName: string, propertyValue: unknown) : void
    +dispose() : void
    +equalsToID(patternId: string) : boolean
    +resetProgressValue() : void
    +setProgressValue(value: number) : void
    #addInitialAnimation() : void
    #finishBuild() : void
    #setCallbacks() : void
    #setElementProgressValue(value: number) : void
    #setHtmlElements() : void
    #unsetCallbacks() : void
    #unsetHtmlElements() : void
    #updateProgressColor(value: string) : void
    #updateShape(value: string) : void
    #updateThickness(value: number) : void
    #updateTrailColor(value: string) : void
    #updateValueNow(progressValue: string) : void
    -_addResizeOberser() : void
    -_animateEntranceEnd() : void
    -_progressToOffset() : void
    -_setCssVariables() : void
    -_updateCircleProps() : void
    -_updateProgressValue() : void
}
"AbstractProgress<C>" <|- - "Circle"
@enduml

PlantUML version 1.2021.14(Fri Nov 12 16:46:50 WET 2021)
(GPL source distribution)
Java Runtime: Java(TM) SE Runtime Environment
JVM: Java HotSpot(TM) 64-Bit Server VM
Default Encoding: UTF-8
Language: en
Country: PT
--></g></svg>