<?xml version="1.0" encoding="UTF-8" standalone="no"?><svg xmlns="http://www.w3.org/2000/svg" xmlns:xlink="http://www.w3.org/1999/xlink" contentScriptType="application/ecmascript" contentStyleType="text/css" height="1035px" preserveAspectRatio="none" style="width:1302px;height:1035px;background:#CED4DA;" version="1.1" viewBox="0 0 1302 1035" width="1302px" zoomAndPan="magnify"><defs><filter height="300%" id="fh82lpc8j71p7" width="300%" x="-1" y="-1"><feGaussianBlur result="blurOut" stdDeviation="2.0"/><feColorMatrix in="blurOut" result="blurOut2" type="matrix" values="0 0 0 0 0 0 0 0 0 0 0 0 0 0 0 0 0 0 .4 0"/><feOffset dx="4.0" dy="4.0" in="blurOut2" result="blurOut3"/><feBlend in="SourceGraphic" in2="blurOut3" mode="normal"/></filter></defs><g><!--MD5=[51da806729dae53cc1706701ea17a015]
class AbstractDatePicker<P, C>--><rect codeLine="7" fill="#FFFFFF" filter="url(#fh82lpc8j71p7)" height="229.3711" id="AbstractDatePicker&lt;P, C&gt;" style="stroke:#272B30;stroke-width:1.5;" width="403" x="447" y="283"/><ellipse cx="567.75" cy="299" fill="#A9DCDF" rx="11" ry="11" style="stroke:#272B30;stroke-width:1.0;"/><path d="M567.6133,294.3481 L566.4595,299.4199 L568.7754,299.4199 Z M566.1191,292.1069 L569.1157,292.1069 L572.4609,304.5 L570.0122,304.5 L569.2485,301.437 L565.9697,301.437 L565.2227,304.5 L562.7739,304.5 Z " fill="#000000"/><text fill="#000000" font-family="sans-serif" font-size="12" font-style="italic" lengthAdjust="spacing" textLength="153" x="588.25" y="303.5352">AbstractDatePicker&lt;P, C&gt;</text><line style="stroke:#272B30;stroke-width:1.5;" x1="448" x2="849" y1="315" y2="315"/><polygon fill="none" points="458,321,462,325,458,329,454,325" style="stroke:#B38D22;stroke-width:1.0;"/><text fill="#000000" font-family="sans-serif" font-size="11" lengthAdjust="spacing" textLength="131" x="467" y="329.6348">_selfElem : HTMLElement</text><polygon fill="none" points="458,333.9551,462,337.9551,458,341.9551,454,337.9551" style="stroke:#B38D22;stroke-width:1.0;"/><text fill="#000000" font-family="sans-serif" font-size="11" lengthAdjust="spacing" textLength="92" x="467" y="342.5898">_widgetId : string</text><rect fill="none" height="6" style="stroke:#C82930;stroke-width:1.0;" width="6" x="455" y="348.9102"/><text fill="#000000" font-family="sans-serif" font-size="11" lengthAdjust="spacing" textLength="67" x="467" y="355.5449">_provider : P</text><line style="stroke:#272B30;stroke-width:1.5;" x1="448" x2="849" y1="361.8652" y2="361.8652"/><ellipse cx="458" cy="372.8652" fill="#84BE84" rx="3" ry="3" style="stroke:#038048;stroke-width:1.0;"/><text fill="#000000" font-family="sans-serif" font-size="11" lengthAdjust="spacing" textLength="67" x="467" y="376.5">build() : void</text><ellipse cx="458" cy="385.8203" fill="#84BE84" rx="3" ry="3" style="stroke:#038048;stroke-width:1.0;"/><text fill="#000000" font-family="sans-serif" font-size="11" lengthAdjust="spacing" textLength="377" x="467" y="389.4551">changeProperty(propertyName: string, propertyValue: unknown) : void</text><ellipse cx="458" cy="398.7754" fill="#84BE84" rx="3" ry="3" style="stroke:#038048;stroke-width:1.0;"/><text fill="#000000" font-family="sans-serif" font-size="11" font-style="italic" lengthAdjust="spacing" textLength="66" x="467" y="402.4102">clear() : void</text><ellipse cx="458" cy="411.7305" fill="#84BE84" rx="3" ry="3" style="stroke:#038048;stroke-width:1.0;"/><text fill="#000000" font-family="sans-serif" font-size="11" font-style="italic" lengthAdjust="spacing" textLength="68" x="467" y="415.3652">close() : void</text><ellipse cx="458" cy="424.6855" fill="#84BE84" rx="3" ry="3" style="stroke:#038048;stroke-width:1.0;"/><text fill="#000000" font-family="sans-serif" font-size="11" lengthAdjust="spacing" textLength="82" x="467" y="428.3203">dispose() : void</text><ellipse cx="458" cy="437.6406" fill="#84BE84" rx="3" ry="3" style="stroke:#038048;stroke-width:1.0;"/><text fill="#000000" font-family="sans-serif" font-size="11" lengthAdjust="spacing" textLength="207" x="467" y="441.2754">equalsToID(patternId: string) : boolean</text><ellipse cx="458" cy="450.5957" fill="#84BE84" rx="3" ry="3" style="stroke:#038048;stroke-width:1.0;"/><text fill="#000000" font-family="sans-serif" font-size="11" font-style="italic" lengthAdjust="spacing" textLength="67" x="467" y="454.2305">open() : void</text><ellipse cx="458" cy="463.5508" fill="#84BE84" rx="3" ry="3" style="stroke:#038048;stroke-width:1.0;"/><text fill="#000000" font-family="sans-serif" font-size="11" font-style="italic" lengthAdjust="spacing" textLength="335" x="467" y="467.1855">registerCallback(eventName: string, callback: OSGeneric) : void</text><ellipse cx="458" cy="476.5059" fill="#84BE84" rx="3" ry="3" style="stroke:#038048;stroke-width:1.0;"/><text fill="#000000" font-family="sans-serif" font-size="11" font-style="italic" lengthAdjust="spacing" textLength="174" x="467" y="480.1406">setLanguage(value: string) : void</text><ellipse cx="458" cy="489.4609" fill="#84BE84" rx="3" ry="3" style="stroke:#038048;stroke-width:1.0;"/><text fill="#000000" font-family="sans-serif" font-size="11" font-style="italic" lengthAdjust="spacing" textLength="272" x="467" y="493.0957">updateInitialDate(date1: string, date2: string) : void</text><polygon fill="#FFFF44" points="458,497.416,462,501.416,458,505.416,454,501.416" style="stroke:#B38D22;stroke-width:1.0;"/><text fill="#000000" font-family="sans-serif" font-size="11" lengthAdjust="spacing" textLength="96" x="467" y="506.0508">finishBuild() : void</text><!--MD5=[9535f12e0f372b236ea6317b881381d1]
class AbstractPattern<C>--><rect codeLine="23" fill="#FFFFFF" filter="url(#fh82lpc8j71p7)" height="203.4609" id="AbstractPattern&lt;C&gt;" style="stroke:#272B30;stroke-width:1.5;" width="403" x="9" y="13.5"/><ellipse cx="147.75" cy="29.5" fill="#A9DCDF" rx="11" ry="11" style="stroke:#272B30;stroke-width:1.0;"/><path d="M147.6133,24.8481 L146.4595,29.9199 L148.7754,29.9199 Z M146.1191,22.6069 L149.1157,22.6069 L152.4609,35 L150.0122,35 L149.2485,31.937 L145.9697,31.937 L145.2227,35 L142.7739,35 Z " fill="#000000"/><text fill="#000000" font-family="sans-serif" font-size="12" font-style="italic" lengthAdjust="spacing" textLength="117" x="168.25" y="34.0352">AbstractPattern&lt;C&gt;</text><line style="stroke:#272B30;stroke-width:1.5;" x1="10" x2="411" y1="45.5" y2="45.5"/><polygon fill="none" points="20,51.5,24,55.5,20,59.5,16,55.5" style="stroke:#B38D22;stroke-width:1.0;"/><text fill="#000000" font-family="sans-serif" font-size="11" lengthAdjust="spacing" textLength="131" x="29" y="60.1348">_selfElem : HTMLElement</text><polygon fill="none" points="20,64.4551,24,68.4551,20,72.4551,16,68.4551" style="stroke:#B38D22;stroke-width:1.0;"/><text fill="#000000" font-family="sans-serif" font-size="11" lengthAdjust="spacing" textLength="92" x="29" y="73.0898">_widgetId : string</text><rect fill="none" height="6" style="stroke:#C82930;stroke-width:1.0;" width="6" x="17" y="79.4102"/><text fill="#000000" font-family="sans-serif" font-size="11" lengthAdjust="spacing" textLength="63" x="29" y="86.0449">_configs : C</text><rect fill="none" height="6" style="stroke:#C82930;stroke-width:1.0;" width="6" x="17" y="92.3652"/><text fill="#000000" font-family="sans-serif" font-size="11" lengthAdjust="spacing" textLength="90" x="29" y="99">_isBuilt : boolean</text><rect fill="none" height="6" style="stroke:#C82930;stroke-width:1.0;" width="6" x="17" y="105.3203"/><text fill="#000000" font-family="sans-serif" font-size="11" lengthAdjust="spacing" textLength="94" x="29" y="111.9551">_uniqueId : string</text><line style="stroke:#272B30;stroke-width:1.5;" x1="10" x2="411" y1="118.2754" y2="118.2754"/><ellipse cx="20" cy="129.2754" fill="#84BE84" rx="3" ry="3" style="stroke:#038048;stroke-width:1.0;"/><text fill="#000000" font-family="sans-serif" font-size="11" lengthAdjust="spacing" textLength="67" x="29" y="132.9102">build() : void</text><ellipse cx="20" cy="142.2305" fill="#84BE84" rx="3" ry="3" style="stroke:#038048;stroke-width:1.0;"/><text fill="#000000" font-family="sans-serif" font-size="11" lengthAdjust="spacing" textLength="377" x="29" y="145.8652">changeProperty(propertyName: string, propertyValue: unknown) : void</text><ellipse cx="20" cy="155.1855" fill="#84BE84" rx="3" ry="3" style="stroke:#038048;stroke-width:1.0;"/><text fill="#000000" font-family="sans-serif" font-size="11" lengthAdjust="spacing" textLength="82" x="29" y="158.8203">dispose() : void</text><ellipse cx="20" cy="168.1406" fill="#84BE84" rx="3" ry="3" style="stroke:#038048;stroke-width:1.0;"/><text fill="#000000" font-family="sans-serif" font-size="11" lengthAdjust="spacing" textLength="207" x="29" y="171.7754">equalsToID(patternId: string) : boolean</text><polygon fill="#FFFF44" points="20,176.0957,24,180.0957,20,184.0957,16,180.0957" style="stroke:#B38D22;stroke-width:1.0;"/><text fill="#000000" font-family="sans-serif" font-size="11" lengthAdjust="spacing" textLength="96" x="29" y="184.7305">finishBuild() : void</text><polygon fill="#FFFF44" points="20,189.0508,24,193.0508,20,197.0508,16,193.0508" style="stroke:#B38D22;stroke-width:1.0;"/><text fill="#000000" font-family="sans-serif" font-size="11" lengthAdjust="spacing" textLength="198" x="29" y="197.6855">_unsetCommonHtmlElements() : void</text><rect fill="#F24D5C" height="6" style="stroke:#C82930;stroke-width:1.0;" width="6" x="17" y="204.0059"/><text fill="#000000" font-family="sans-serif" font-size="11" lengthAdjust="spacing" textLength="184" x="29" y="210.6406">_setCommonHtmlElements() : void</text><!--MD5=[e60e4dfb9ecdf012f75e0783dda435c0]
class IDatePicker--><rect codeLine="38" fill="#FFFFFF" filter="url(#fh82lpc8j71p7)" height="216.416" id="IDatePicker" style="stroke:#272B30;stroke-width:1.5;" width="403" x="447" y="7"/><ellipse cx="611.75" cy="23" fill="#B4A7E5" rx="11" ry="11" style="stroke:#272B30;stroke-width:1.0;"/><path d="M608.1777,19.2651 L608.1777,17.1069 L615.5571,17.1069 L615.5571,19.2651 L613.0918,19.2651 L613.0918,27.3418 L615.5571,27.3418 L615.5571,29.5 L608.1777,29.5 L608.1777,27.3418 L610.6431,27.3418 L610.6431,19.2651 Z " fill="#000000"/><text fill="#000000" font-family="sans-serif" font-size="12" font-style="italic" lengthAdjust="spacing" textLength="65" x="632.25" y="27.5352">IDatePicker</text><line style="stroke:#272B30;stroke-width:1.5;" x1="448" x2="849" y1="39" y2="39"/><ellipse cx="458" cy="50" rx="3" ry="3" style="stroke:#038048;stroke-width:1.0;fill:none;"/><text fill="#000000" font-family="sans-serif" font-size="11" lengthAdjust="spacing" textLength="84" x="467" y="53.6348">isBuilt : boolean</text><ellipse cx="458" cy="62.9551" rx="3" ry="3" style="stroke:#038048;stroke-width:1.0;fill:none;"/><text fill="#000000" font-family="sans-serif" font-size="11" lengthAdjust="spacing" textLength="142" x="467" y="66.5898">selfElement : HTMLElement</text><ellipse cx="458" cy="75.9102" rx="3" ry="3" style="stroke:#038048;stroke-width:1.0;fill:none;"/><text fill="#000000" font-family="sans-serif" font-size="11" lengthAdjust="spacing" textLength="88" x="467" y="79.5449">uniqueId : string</text><ellipse cx="458" cy="88.8652" rx="3" ry="3" style="stroke:#038048;stroke-width:1.0;fill:none;"/><text fill="#000000" font-family="sans-serif" font-size="11" lengthAdjust="spacing" textLength="86" x="467" y="92.5">widgetId : string</text><line style="stroke:#272B30;stroke-width:1.5;" x1="448" x2="849" y1="98.8203" y2="98.8203"/><ellipse cx="458" cy="109.8203" fill="#84BE84" rx="3" ry="3" style="stroke:#038048;stroke-width:1.0;"/><text fill="#000000" font-family="sans-serif" font-size="11" lengthAdjust="spacing" textLength="67" x="467" y="113.4551">build() : void</text><ellipse cx="458" cy="122.7754" fill="#84BE84" rx="3" ry="3" style="stroke:#038048;stroke-width:1.0;"/><text fill="#000000" font-family="sans-serif" font-size="11" lengthAdjust="spacing" textLength="377" x="467" y="126.4102">changeProperty(propertyName: string, propertyValue: unknown) : void</text><ellipse cx="458" cy="135.7305" fill="#84BE84" rx="3" ry="3" style="stroke:#038048;stroke-width:1.0;"/><text fill="#000000" font-family="sans-serif" font-size="11" lengthAdjust="spacing" textLength="66" x="467" y="139.3652">clear() : void</text><ellipse cx="458" cy="148.6855" fill="#84BE84" rx="3" ry="3" style="stroke:#038048;stroke-width:1.0;"/><text fill="#000000" font-family="sans-serif" font-size="11" lengthAdjust="spacing" textLength="68" x="467" y="152.3203">close() : void</text><ellipse cx="458" cy="161.6406" fill="#84BE84" rx="3" ry="3" style="stroke:#038048;stroke-width:1.0;"/><text fill="#000000" font-family="sans-serif" font-size="11" lengthAdjust="spacing" textLength="82" x="467" y="165.2754">dispose() : void</text><ellipse cx="458" cy="174.5957" fill="#84BE84" rx="3" ry="3" style="stroke:#038048;stroke-width:1.0;"/><text fill="#000000" font-family="sans-serif" font-size="11" lengthAdjust="spacing" textLength="168" x="467" y="178.2305">equalsToID(id: string) : boolean</text><ellipse cx="458" cy="187.5508" fill="#84BE84" rx="3" ry="3" style="stroke:#038048;stroke-width:1.0;"/><text fill="#000000" font-family="sans-serif" font-size="11" lengthAdjust="spacing" textLength="67" x="467" y="191.1855">open() : void</text><ellipse cx="458" cy="200.5059" fill="#84BE84" rx="3" ry="3" style="stroke:#038048;stroke-width:1.0;"/><text fill="#000000" font-family="sans-serif" font-size="11" lengthAdjust="spacing" textLength="174" x="467" y="204.1406">setLanguage(value: string) : void</text><ellipse cx="458" cy="213.4609" fill="#84BE84" rx="3" ry="3" style="stroke:#038048;stroke-width:1.0;"/><text fill="#000000" font-family="sans-serif" font-size="11" lengthAdjust="spacing" textLength="272" x="467" y="217.0957">updateInitialDate(date1: string, date2: string) : void</text><!--MD5=[2bf72ae0fb4f70eca4ad2d149d35be6e]
class IProviderPattern<P>--><rect codeLine="54" fill="#FFFFFF" filter="url(#fh82lpc8j71p7)" height="177.5508" id="IProviderPattern&lt;P&gt;" style="stroke:#272B30;stroke-width:1.5;" width="403" x="885" y="26"/><ellipse cx="1022.75" cy="42" fill="#B4A7E5" rx="11" ry="11" style="stroke:#272B30;stroke-width:1.0;"/><path d="M1019.1777,38.2651 L1019.1777,36.1069 L1026.5571,36.1069 L1026.5571,38.2651 L1024.0918,38.2651 L1024.0918,46.3418 L1026.5571,46.3418 L1026.5571,48.5 L1019.1777,48.5 L1019.1777,46.3418 L1021.6431,46.3418 L1021.6431,38.2651 Z " fill="#000000"/><text fill="#000000" font-family="sans-serif" font-size="12" font-style="italic" lengthAdjust="spacing" textLength="119" x="1043.25" y="46.5352">IProviderPattern&lt;P&gt;</text><line style="stroke:#272B30;stroke-width:1.5;" x1="886" x2="1287" y1="58" y2="58"/><ellipse cx="896" cy="69" rx="3" ry="3" style="stroke:#038048;stroke-width:1.0;fill:none;"/><text fill="#000000" font-family="sans-serif" font-size="11" lengthAdjust="spacing" textLength="84" x="905" y="72.6348">isBuilt : boolean</text><ellipse cx="896" cy="81.9551" rx="3" ry="3" style="stroke:#038048;stroke-width:1.0;fill:none;"/><text fill="#000000" font-family="sans-serif" font-size="11" lengthAdjust="spacing" textLength="61" x="905" y="85.5898">provider : P</text><ellipse cx="896" cy="94.9102" rx="3" ry="3" style="stroke:#038048;stroke-width:1.0;fill:none;"/><text fill="#000000" font-family="sans-serif" font-size="11" lengthAdjust="spacing" textLength="142" x="905" y="98.5449">selfElement : HTMLElement</text><ellipse cx="896" cy="107.8652" rx="3" ry="3" style="stroke:#038048;stroke-width:1.0;fill:none;"/><text fill="#000000" font-family="sans-serif" font-size="11" lengthAdjust="spacing" textLength="88" x="905" y="111.5">uniqueId : string</text><ellipse cx="896" cy="120.8203" rx="3" ry="3" style="stroke:#038048;stroke-width:1.0;fill:none;"/><text fill="#000000" font-family="sans-serif" font-size="11" lengthAdjust="spacing" textLength="86" x="905" y="124.4551">widgetId : string</text><line style="stroke:#272B30;stroke-width:1.5;" x1="886" x2="1287" y1="130.7754" y2="130.7754"/><ellipse cx="896" cy="141.7754" fill="#84BE84" rx="3" ry="3" style="stroke:#038048;stroke-width:1.0;"/><text fill="#000000" font-family="sans-serif" font-size="11" lengthAdjust="spacing" textLength="67" x="905" y="145.4102">build() : void</text><ellipse cx="896" cy="154.7305" fill="#84BE84" rx="3" ry="3" style="stroke:#038048;stroke-width:1.0;"/><text fill="#000000" font-family="sans-serif" font-size="11" lengthAdjust="spacing" textLength="377" x="905" y="158.3652">changeProperty(propertyName: string, propertyValue: unknown) : void</text><ellipse cx="896" cy="167.6855" fill="#84BE84" rx="3" ry="3" style="stroke:#038048;stroke-width:1.0;"/><text fill="#000000" font-family="sans-serif" font-size="11" lengthAdjust="spacing" textLength="82" x="905" y="171.3203">dispose() : void</text><ellipse cx="896" cy="180.6406" fill="#84BE84" rx="3" ry="3" style="stroke:#038048;stroke-width:1.0;"/><text fill="#000000" font-family="sans-serif" font-size="11" lengthAdjust="spacing" textLength="168" x="905" y="184.2754">equalsToID(id: string) : boolean</text><ellipse cx="896" cy="193.5957" fill="#84BE84" rx="3" ry="3" style="stroke:#038048;stroke-width:1.0;"/><text fill="#000000" font-family="sans-serif" font-size="11" lengthAdjust="spacing" textLength="335" x="905" y="197.2305">registerCallback(eventName: string, callback: OSGeneric) : void</text><!--MD5=[236bd19e10d080ee4ec1cba25ae8062a]
class AbstractFlatpickr<C>--><rect codeLine="67" fill="#FFFFFF" filter="url(#fh82lpc8j71p7)" height="449.6074" id="AbstractFlatpickr&lt;C&gt;" style="stroke:#272B30;stroke-width:1.5;" width="446" x="425.5" y="572"/><ellipse cx="581.75" cy="588" fill="#A9DCDF" rx="11" ry="11" style="stroke:#272B30;stroke-width:1.0;"/><path d="M581.6133,583.3481 L580.4595,588.4199 L582.7754,588.4199 Z M580.1191,581.1069 L583.1157,581.1069 L586.4609,593.5 L584.0122,593.5 L583.2485,590.437 L579.9697,590.437 L579.2227,593.5 L576.7739,593.5 Z " fill="#000000"/><text fill="#000000" font-family="sans-serif" font-size="12" font-style="italic" lengthAdjust="spacing" textLength="125" x="602.25" y="592.5352">AbstractFlatpickr&lt;C&gt;</text><line style="stroke:#272B30;stroke-width:1.5;" x1="426.5" x2="870.5" y1="604" y2="604"/><polygon fill="none" points="436.5,610,440.5,614,436.5,618,432.5,614" style="stroke:#B38D22;stroke-width:1.0;"/><text fill="#000000" font-family="sans-serif" font-size="11" lengthAdjust="spacing" textLength="268" x="445.5" y="618.6348">_datePickerProviderInputElem : HTMLInputElement</text><polygon fill="none" points="436.5,622.9551,440.5,626.9551,436.5,630.9551,432.5,626.9551" style="stroke:#B38D22;stroke-width:1.0;"/><text fill="#000000" font-family="sans-serif" font-size="11" lengthAdjust="spacing" textLength="212" x="445.5" y="631.5898">_flatpickrInputElem : HTMLInputElement</text><polygon fill="none" points="436.5,635.9102,440.5,639.9102,436.5,643.9102,432.5,639.9102" style="stroke:#B38D22;stroke-width:1.0;"/><text fill="#000000" font-family="sans-serif" font-size="11" lengthAdjust="spacing" textLength="152" x="445.5" y="644.5449">_flatpickrOpts : BaseOptions</text><polygon fill="none" points="436.5,648.8652,440.5,652.8652,436.5,656.8652,432.5,652.8652" style="stroke:#B38D22;stroke-width:1.0;"/><text fill="#000000" font-family="sans-serif" font-size="11" lengthAdjust="spacing" textLength="302" x="445.5" y="657.5">_onChangeCallbackEvent : OSDatepickerOnChangeEvent</text><polygon fill="none" points="436.5,661.8203,440.5,665.8203,436.5,669.8203,432.5,665.8203" style="stroke:#B38D22;stroke-width:1.0;"/><text fill="#000000" font-family="sans-serif" font-size="11" lengthAdjust="spacing" textLength="131" x="445.5" y="670.4551">_selfElem : HTMLElement</text><polygon fill="none" points="436.5,674.7754,440.5,678.7754,436.5,682.7754,432.5,678.7754" style="stroke:#B38D22;stroke-width:1.0;"/><text fill="#000000" font-family="sans-serif" font-size="11" lengthAdjust="spacing" textLength="92" x="445.5" y="683.4102">_widgetId : string</text><rect fill="none" height="6" style="stroke:#C82930;stroke-width:1.0;" width="6" x="433.5" y="689.7305"/><text fill="#000000" font-family="sans-serif" font-size="11" lengthAdjust="spacing" textLength="203" x="445.5" y="696.3652">_onInitializeCallbackEvent : OSGeneric</text><line style="stroke:#272B30;stroke-width:1.5;" x1="426.5" x2="870.5" y1="702.6855" y2="702.6855"/><ellipse cx="436.5" cy="713.6855" fill="#84BE84" rx="3" ry="3" style="stroke:#038048;stroke-width:1.0;"/><text fill="#000000" font-family="sans-serif" font-size="11" lengthAdjust="spacing" textLength="67" x="445.5" y="717.3203">build() : void</text><ellipse cx="436.5" cy="726.6406" fill="#84BE84" rx="3" ry="3" style="stroke:#038048;stroke-width:1.0;"/><text fill="#000000" font-family="sans-serif" font-size="11" lengthAdjust="spacing" textLength="377" x="445.5" y="730.2754">changeProperty(propertyName: string, propertyValue: unknown) : void</text><ellipse cx="436.5" cy="739.5957" fill="#84BE84" rx="3" ry="3" style="stroke:#038048;stroke-width:1.0;"/><text fill="#000000" font-family="sans-serif" font-size="11" lengthAdjust="spacing" textLength="66" x="445.5" y="743.2305">clear() : void</text><ellipse cx="436.5" cy="752.5508" fill="#84BE84" rx="3" ry="3" style="stroke:#038048;stroke-width:1.0;"/><text fill="#000000" font-family="sans-serif" font-size="11" lengthAdjust="spacing" textLength="68" x="445.5" y="756.1855">close() : void</text><ellipse cx="436.5" cy="765.5059" fill="#84BE84" rx="3" ry="3" style="stroke:#038048;stroke-width:1.0;"/><text fill="#000000" font-family="sans-serif" font-size="11" lengthAdjust="spacing" textLength="82" x="445.5" y="769.1406">dispose() : void</text><ellipse cx="436.5" cy="778.4609" fill="#84BE84" rx="3" ry="3" style="stroke:#038048;stroke-width:1.0;"/><text fill="#000000" font-family="sans-serif" font-size="11" lengthAdjust="spacing" textLength="207" x="445.5" y="782.0957">equalsToID(patternId: string) : boolean</text><ellipse cx="436.5" cy="791.416" fill="#84BE84" rx="3" ry="3" style="stroke:#038048;stroke-width:1.0;"/><text fill="#000000" font-family="sans-serif" font-size="11" lengthAdjust="spacing" textLength="67" x="445.5" y="795.0508">open() : void</text><ellipse cx="436.5" cy="804.3711" fill="#84BE84" rx="3" ry="3" style="stroke:#038048;stroke-width:1.0;"/><text fill="#000000" font-family="sans-serif" font-size="11" lengthAdjust="spacing" textLength="335" x="445.5" y="808.0059">registerCallback(eventName: string, callback: OSGeneric) : void</text><ellipse cx="436.5" cy="817.3262" fill="#84BE84" rx="3" ry="3" style="stroke:#038048;stroke-width:1.0;"/><text fill="#000000" font-family="sans-serif" font-size="11" lengthAdjust="spacing" textLength="226" x="445.5" y="820.9609">setEditableInput(isEditable: boolean) : void</text><ellipse cx="436.5" cy="830.2813" fill="#84BE84" rx="3" ry="3" style="stroke:#038048;stroke-width:1.0;"/><text fill="#000000" font-family="sans-serif" font-size="11" lengthAdjust="spacing" textLength="174" x="445.5" y="833.916">setLanguage(value: string) : void</text><ellipse cx="436.5" cy="843.2363" fill="#84BE84" rx="3" ry="3" style="stroke:#038048;stroke-width:1.0;"/><text fill="#000000" font-family="sans-serif" font-size="11" lengthAdjust="spacing" textLength="244" x="445.5" y="846.8711">toggleNativeBehavior(isNative: boolean) : void</text><ellipse cx="436.5" cy="856.1914" fill="#84BE84" rx="3" ry="3" style="stroke:#038048;stroke-width:1.0;"/><text fill="#000000" font-family="sans-serif" font-size="11" font-style="italic" lengthAdjust="spacing" textLength="257" x="445.5" y="859.8262">updateInitialDate(start: string, end: string) : void</text><polygon fill="#FFFF44" points="436.5,864.1465,440.5,868.1465,436.5,872.1465,432.5,868.1465" style="stroke:#B38D22;stroke-width:1.0;"/><text fill="#000000" font-family="sans-serif" font-size="11" lengthAdjust="spacing" textLength="110" x="445.5" y="872.7813">addTodayBtn() : void</text><polygon fill="#FFFF44" points="436.5,877.1016,440.5,881.1016,436.5,885.1016,432.5,881.1016" style="stroke:#B38D22;stroke-width:1.0;"/><text fill="#000000" font-family="sans-serif" font-size="11" lengthAdjust="spacing" textLength="163" x="445.5" y="885.7363">createProviderInstance() : void</text><polygon fill="#FFFF44" points="436.5,890.0566,440.5,894.0566,436.5,898.0566,432.5,894.0566" style="stroke:#B38D22;stroke-width:1.0;"/><text fill="#000000" font-family="sans-serif" font-size="11" lengthAdjust="spacing" textLength="96" x="445.5" y="898.6914">finishBuild() : void</text><polygon fill="#FFFF44" points="436.5,903.0117,440.5,907.0117,436.5,911.0117,432.5,907.0117" style="stroke:#B38D22;stroke-width:1.0;"/><text fill="#000000" font-family="sans-serif" font-size="11" font-style="italic" lengthAdjust="spacing" textLength="420" x="445.5" y="911.6465">onDateSelectedEvent(selectedDates: string[], dateStr: string, fp: flatpickr) : void</text><polygon fill="#FFFF44" points="436.5,915.9668,440.5,919.9668,436.5,923.9668,432.5,919.9668" style="stroke:#B38D22;stroke-width:1.0;"/><text fill="#000000" font-family="sans-serif" font-size="11" font-style="italic" lengthAdjust="spacing" textLength="124" x="445.5" y="924.6016">prepareConfigs() : void</text><polygon fill="#FFFF44" points="436.5,928.9219,440.5,932.9219,436.5,936.9219,432.5,932.9219" style="stroke:#B38D22;stroke-width:1.0;"/><text fill="#000000" font-family="sans-serif" font-size="11" lengthAdjust="spacing" textLength="77" x="445.5" y="937.5566">redraw() : void</text><polygon fill="#FFFF44" points="436.5,941.877,440.5,945.877,436.5,949.877,432.5,945.877" style="stroke:#B38D22;stroke-width:1.0;"/><text fill="#000000" font-family="sans-serif" font-size="11" lengthAdjust="spacing" textLength="121" x="445.5" y="950.5117">unsetCallbacks() : void</text><polygon fill="#FFFF44" points="436.5,954.832,440.5,958.832,436.5,962.832,432.5,958.832" style="stroke:#B38D22;stroke-width:1.0;"/><text fill="#000000" font-family="sans-serif" font-size="11" lengthAdjust="spacing" textLength="143" x="445.5" y="963.4668">unsetHtmlElements() : void</text><rect fill="#F24D5C" height="6" style="stroke:#C82930;stroke-width:1.0;" width="6" x="433.5" y="969.7871"/><text fill="#000000" font-family="sans-serif" font-size="11" lengthAdjust="spacing" textLength="226" x="445.5" y="976.4219">_jumpIntoToday(event: MouseEvent) : void</text><rect fill="#F24D5C" height="6" style="stroke:#C82930;stroke-width:1.0;" width="6" x="433.5" y="982.7422"/><text fill="#000000" font-family="sans-serif" font-size="11" lengthAdjust="spacing" textLength="116" x="445.5" y="989.377">_setAttributes() : void</text><rect fill="#F24D5C" height="6" style="stroke:#C82930;stroke-width:1.0;" width="6" x="433.5" y="995.6973"/><text fill="#000000" font-family="sans-serif" font-size="11" lengthAdjust="spacing" textLength="171" x="445.5" y="1002.332">_setCalendarCssClasses() : void</text><rect fill="#F24D5C" height="6" style="stroke:#C82930;stroke-width:1.0;" width="6" x="433.5" y="1008.6523"/><text fill="#000000" font-family="sans-serif" font-size="11" lengthAdjust="spacing" textLength="138" x="445.5" y="1015.2871">_setHtmllElements() : void</text><!--MD5=[a6ae3596defcf335df9edfdec25f0f8f]
reverse link AbstractPattern<C> to AbstractDatePicker<P, C>--><path codeLine="37" d="M384.74,227.58 C413.11,245.75 442.53,264.59 470.98,282.81 " fill="none" id="AbstractPattern&lt;C&gt;-backto-AbstractDatePicker&lt;P, C&gt;" style="stroke:#272B30;stroke-width:1.0;"/><polygon fill="none" points="380.77,233.35,367.7,216.67,388.32,221.56,380.77,233.35" style="stroke:#272B30;stroke-width:1.0;"/><!--MD5=[5d0dd031e2919d4a2817d1c4504f8da7]
reverse link IDatePicker to AbstractDatePicker<P, C>--><path codeLine="53" d="M648.5,243.6 C648.5,256.66 648.5,269.88 648.5,282.79 " fill="none" id="IDatePicker-backto-AbstractDatePicker&lt;P, C&gt;" style="stroke:#272B30;stroke-width:1.0;stroke-dasharray:7.0,7.0;"/><polygon fill="none" points="641.5,243.25,648.5,223.25,655.5,243.25,641.5,243.25" style="stroke:#272B30;stroke-width:1.0;"/><!--MD5=[48d4e8143c597f20c6c862fbe84ed41a]
reverse link IProviderPattern<P> to AbstractDatePicker<P, C>--><path codeLine="66" d="M931.67,215.15 C897.42,237.09 860.88,260.49 825.81,282.95 " fill="none" id="IProviderPattern&lt;P&gt;-backto-AbstractDatePicker&lt;P, C&gt;" style="stroke:#272B30;stroke-width:1.0;stroke-dasharray:7.0,7.0;"/><polygon fill="none" points="928.2,209.07,948.82,204.17,935.75,220.86,928.2,209.07" style="stroke:#272B30;stroke-width:1.0;"/><!--MD5=[e05bc6782bd3c74eaaea96eb05c4c1eb]
reverse link AbstractDatePicker<P, C> to AbstractFlatpickr<C>--><path codeLine="100" d="M648.5,532.54 C648.5,545.32 648.5,558.5 648.5,571.84 " fill="none" id="AbstractDatePicker&lt;P, C&gt;-backto-AbstractFlatpickr&lt;C&gt;" style="stroke:#272B30;stroke-width:1.0;"/><polygon fill="none" points="641.5,532.14,648.5,512.14,655.5,532.14,641.5,532.14" style="stroke:#272B30;stroke-width:1.0;"/><!--MD5=[a0ece8734d358bf03c94de8351a166b9]
@startuml
skinparam ClassArrowColor #272b30
skinparam ClassBorderColor #272b30
skinparam ClassBackgroundColor #fff
skinparam BackgroundColor #ced4da
hide empty methods
hide empty fields
abstract class "AbstractDatePicker<P, C>" {
    #_selfElem : HTMLElement
    #_widgetId : string
    -_provider : P
    +build() : void
    +changeProperty(propertyName: string, propertyValue: unknown) : void
    {abstract} +clear() : void
    {abstract} +close() : void
    +dispose() : void
    +equalsToID(patternId: string) : boolean
    {abstract} +open() : void
    {abstract} +registerCallback(eventName: string, callback: OSGeneric) : void
    {abstract} +setLanguage(value: string) : void
    {abstract} +updateInitialDate(date1: string, date2: string) : void
    #finishBuild() : void
}
abstract class "AbstractPattern<C>" {
    #_selfElem : HTMLElement
    #_widgetId : string
    -_configs : C
    -_isBuilt : boolean
    -_uniqueId : string
    +build() : void
    +changeProperty(propertyName: string, propertyValue: unknown) : void
    +dispose() : void
    +equalsToID(patternId: string) : boolean
    #finishBuild() : void
    #_unsetCommonHtmlElements() : void
    -_setCommonHtmlElements() : void
}
"AbstractPattern<C>" <|- - "AbstractDatePicker<P, C>"
interface "IDatePicker" {
    +isBuilt : boolean
    +selfElement : HTMLElement
    +uniqueId : string
    +widgetId : string
    +build() : void
    +changeProperty(propertyName: string, propertyValue: unknown) : void
    +clear() : void
    +close() : void
    +dispose() : void
    +equalsToID(id: string) : boolean
    +open() : void
    +setLanguage(value: string) : void
    +updateInitialDate(date1: string, date2: string) : void
}
"IDatePicker" <|.. "AbstractDatePicker<P, C>"
interface "IProviderPattern<P>" {
    +isBuilt : boolean
    +provider : P
    +selfElement : HTMLElement
    +uniqueId : string
    +widgetId : string
    +build() : void
    +changeProperty(propertyName: string, propertyValue: unknown) : void
    +dispose() : void
    +equalsToID(id: string) : boolean
    +registerCallback(eventName: string, callback: OSGeneric) : void
}
"IProviderPattern<P>" <|.. "AbstractDatePicker<P, C>"
abstract class "AbstractFlatpickr<C>" {
    #_datePickerProviderInputElem : HTMLInputElement
    #_flatpickrInputElem : HTMLInputElement
    #_flatpickrOpts : BaseOptions
    #_onChangeCallbackEvent : OSDatepickerOnChangeEvent
    #_selfElem : HTMLElement
    #_widgetId : string
    -_onInitializeCallbackEvent : OSGeneric
    +build() : void
    +changeProperty(propertyName: string, propertyValue: unknown) : void
    +clear() : void
    +close() : void
    +dispose() : void
    +equalsToID(patternId: string) : boolean
    +open() : void
    +registerCallback(eventName: string, callback: OSGeneric) : void
    +setEditableInput(isEditable: boolean) : void
    +setLanguage(value: string) : void
    +toggleNativeBehavior(isNative: boolean) : void
    {abstract} +updateInitialDate(start: string, end: string) : void
    #addTodayBtn() : void
    #createProviderInstance() : void
    #finishBuild() : void
    {abstract} #onDateSelectedEvent(selectedDates: string[], dateStr: string, fp: flatpickr) : void
    {abstract} #prepareConfigs() : void
    #redraw() : void
    #unsetCallbacks() : void
    #unsetHtmlElements() : void
    -_jumpIntoToday(event: MouseEvent) : void
    -_setAttributes() : void
    -_setCalendarCssClasses() : void
    -_setHtmllElements() : void
}
"AbstractDatePicker<P, C>" <|- - "AbstractFlatpickr<C>"
@enduml

PlantUML version 1.2021.14(Fri Nov 12 16:46:50 WET 2021)
(GPL source distribution)
Java Runtime: Java(TM) SE Runtime Environment
JVM: Java HotSpot(TM) 64-Bit Server VM
Default Encoding: UTF-8
Language: en
Country: PT
--></g></svg>