<?xml version="1.0" encoding="UTF-8" standalone="no"?><svg xmlns="http://www.w3.org/2000/svg" xmlns:xlink="http://www.w3.org/1999/xlink" contentScriptType="application/ecmascript" contentStyleType="text/css" height="1477px" preserveAspectRatio="none" style="width:1118px;height:1477px;background:#CED4DA;" version="1.1" viewBox="0 0 1118 1477" width="1118px" zoomAndPan="magnify"><defs><filter height="300%" id="flcooznr5i974" width="300%" x="-1" y="-1"><feGaussianBlur result="blurOut" stdDeviation="2.0"/><feColorMatrix in="blurOut" result="blurOut2" type="matrix" values="0 0 0 0 0 0 0 0 0 0 0 0 0 0 0 0 0 0 .4 0"/><feOffset dx="4.0" dy="4.0" in="blurOut2" result="blurOut3"/><feBlend in="SourceGraphic" in2="blurOut3" mode="normal"/></filter></defs><g><!--MD5=[4120854be68888f42cb1d6d95b54ba1c]
class AbstractMonthPicker<P, C>--><rect codeLine="7" fill="#FFFFFF" filter="url(#flcooznr5i974)" height="397.7871" id="AbstractMonthPicker&lt;P, C&gt;" style="stroke:#272B30;stroke-width:1.5;" width="548" x="327" y="439"/><ellipse cx="516.25" cy="455" fill="#A9DCDF" rx="11" ry="11" style="stroke:#272B30;stroke-width:1.0;"/><path d="M516.1133,450.3481 L514.9595,455.4199 L517.2754,455.4199 Z M514.6191,448.1069 L517.6157,448.1069 L520.9609,460.5 L518.5122,460.5 L517.7485,457.437 L514.4697,457.437 L513.7227,460.5 L511.2739,460.5 Z " fill="#000000"/><text fill="#000000" font-family="sans-serif" font-size="12" font-style="italic" lengthAdjust="spacing" textLength="161" x="536.75" y="459.5352">AbstractMonthPicker&lt;P, C&gt;</text><line style="stroke:#272B30;stroke-width:1.5;" x1="328" x2="874" y1="471" y2="471"/><polygon fill="none" points="338,477,342,481,338,485,334,481" style="stroke:#B38D22;stroke-width:1.0;"/><text fill="#000000" font-family="sans-serif" font-size="11" lengthAdjust="spacing" textLength="304" x="347" y="485.6348">providerEventsManagerInstance : IProviderEventManager</text><polygon fill="none" points="338,489.9551,342,493.9551,338,497.9551,334,493.9551" style="stroke:#B38D22;stroke-width:1.0;"/><text fill="#000000" font-family="sans-serif" font-size="11" lengthAdjust="spacing" textLength="67" x="347" y="498.5898">_provider : P</text><polygon fill="none" points="338,502.9102,342,506.9102,338,510.9102,334,506.9102" style="stroke:#B38D22;stroke-width:1.0;"/><text fill="#000000" font-family="sans-serif" font-size="11" lengthAdjust="spacing" textLength="148" x="347" y="511.5449">_providerInfo : ProviderInfo</text><line style="stroke:#272B30;stroke-width:1.5;" x1="328" x2="874" y1="517.8652" y2="517.8652"/><ellipse cx="338" cy="528.8652" fill="#84BE84" rx="3" ry="3" style="stroke:#038048;stroke-width:1.0;"/><text fill="#000000" font-family="sans-serif" font-size="11" lengthAdjust="spacing" textLength="67" x="347" y="532.5">build() : void</text><ellipse cx="338" cy="541.8203" fill="#84BE84" rx="3" ry="3" style="stroke:#038048;stroke-width:1.0;"/><text fill="#000000" font-family="sans-serif" font-size="11" lengthAdjust="spacing" textLength="377" x="347" y="545.4551">changeProperty(propertyName: string, propertyValue: unknown) : void</text><ellipse cx="338" cy="554.7754" fill="#84BE84" rx="3" ry="3" style="stroke:#038048;stroke-width:1.0;"/><text fill="#000000" font-family="sans-serif" font-size="11" lengthAdjust="spacing" textLength="186" x="347" y="558.4102">checkAddedProviderEvents() : void</text><ellipse cx="338" cy="567.7305" fill="#84BE84" rx="3" ry="3" style="stroke:#038048;stroke-width:1.0;"/><text fill="#000000" font-family="sans-serif" font-size="11" lengthAdjust="spacing" textLength="194" x="347" y="571.3652">checkPendingProviderEvents() : void</text><ellipse cx="338" cy="580.6855" fill="#84BE84" rx="3" ry="3" style="stroke:#038048;stroke-width:1.0;"/><text fill="#000000" font-family="sans-serif" font-size="11" font-style="italic" lengthAdjust="spacing" textLength="66" x="347" y="584.3203">clear() : void</text><ellipse cx="338" cy="593.6406" fill="#84BE84" rx="3" ry="3" style="stroke:#038048;stroke-width:1.0;"/><text fill="#000000" font-family="sans-serif" font-size="11" font-style="italic" lengthAdjust="spacing" textLength="68" x="347" y="597.2754">close() : void</text><ellipse cx="338" cy="606.5957" fill="#84BE84" rx="3" ry="3" style="stroke:#038048;stroke-width:1.0;"/><text fill="#000000" font-family="sans-serif" font-size="11" lengthAdjust="spacing" textLength="82" x="347" y="610.2305">dispose() : void</text><ellipse cx="338" cy="619.5508" fill="#84BE84" rx="3" ry="3" style="stroke:#038048;stroke-width:1.0;"/><text fill="#000000" font-family="sans-serif" font-size="11" lengthAdjust="spacing" textLength="207" x="347" y="623.1855">equalsToID(patternId: string) : boolean</text><ellipse cx="338" cy="632.5059" fill="#84BE84" rx="3" ry="3" style="stroke:#038048;stroke-width:1.0;"/><text fill="#000000" font-family="sans-serif" font-size="11" font-style="italic" lengthAdjust="spacing" textLength="67" x="347" y="636.1406">open() : void</text><ellipse cx="338" cy="645.4609" fill="#84BE84" rx="3" ry="3" style="stroke:#038048;stroke-width:1.0;"/><text fill="#000000" font-family="sans-serif" font-size="11" font-style="italic" lengthAdjust="spacing" textLength="335" x="347" y="649.0957">registerCallback(eventName: string, callback: OSGeneric) : void</text><ellipse cx="338" cy="658.416" fill="#84BE84" rx="3" ry="3" style="stroke:#038048;stroke-width:1.0;"/><text fill="#000000" font-family="sans-serif" font-size="11" font-style="italic" lengthAdjust="spacing" textLength="174" x="347" y="662.0508">setLanguage(value: string) : void</text><ellipse cx="338" cy="671.3711" fill="#84BE84" rx="3" ry="3" style="stroke:#038048;stroke-width:1.0;"/><text fill="#000000" font-family="sans-serif" font-size="11" font-style="italic" lengthAdjust="spacing" textLength="256" x="347" y="675.0059">setProviderConfigs(providerConfigs: any) : void</text><ellipse cx="338" cy="684.3262" fill="#84BE84" rx="3" ry="3" style="stroke:#038048;stroke-width:1.0;"/><text fill="#000000" font-family="sans-serif" font-size="11" lengthAdjust="spacing" textLength="522" x="347" y="687.9609">setProviderEvent(eventName: string, callback: Generic, uniqueId: string, saveEvent: boolean) : void</text><ellipse cx="338" cy="697.2813" fill="#84BE84" rx="3" ry="3" style="stroke:#038048;stroke-width:1.0;"/><text fill="#000000" font-family="sans-serif" font-size="11" lengthAdjust="spacing" textLength="221" x="347" y="700.916">unsetProviderEvent(eventId: string) : void</text><ellipse cx="338" cy="710.2363" fill="#84BE84" rx="3" ry="3" style="stroke:#038048;stroke-width:1.0;"/><text fill="#000000" font-family="sans-serif" font-size="11" lengthAdjust="spacing" textLength="296" x="347" y="713.8711">updateProviderEvents(providerInfo: ProviderInfo) : void</text><polygon fill="#FFFF44" points="338,718.1914,342,722.1914,338,726.1914,334,722.1914" style="stroke:#B38D22;stroke-width:1.0;"/><text fill="#000000" font-family="sans-serif" font-size="11" lengthAdjust="spacing" textLength="96" x="347" y="726.8262">finishBuild() : void</text><polygon fill="#FFFF44" points="338,731.1465,342,735.1465,338,739.1465,334,735.1465" style="stroke:#B38D22;stroke-width:1.0;"/><text fill="#000000" font-family="sans-serif" font-size="11" font-style="italic" lengthAdjust="spacing" textLength="124" x="347" y="739.7813">prepareConfigs() : void</text><polygon fill="#FFFF44" points="338,744.1016,342,748.1016,338,752.1016,334,748.1016" style="stroke:#B38D22;stroke-width:1.0;"/><text fill="#000000" font-family="sans-serif" font-size="11" lengthAdjust="spacing" textLength="77" x="347" y="752.7363">redraw() : void</text><polygon fill="#FFFF44" points="338,757.0566,342,761.0566,338,765.0566,334,761.0566" style="stroke:#B38D22;stroke-width:1.0;"/><text fill="#000000" font-family="sans-serif" font-size="11" font-style="italic" lengthAdjust="spacing" textLength="140" x="347" y="765.6914">setA11YProperties() : void</text><polygon fill="#FFFF44" points="338,770.0117,342,774.0117,338,778.0117,334,774.0117" style="stroke:#B38D22;stroke-width:1.0;"/><text fill="#000000" font-family="sans-serif" font-size="11" font-style="italic" lengthAdjust="spacing" textLength="107" x="347" y="778.6465">setCallbacks() : void</text><polygon fill="#FFFF44" points="338,782.9668,342,786.9668,338,790.9668,334,786.9668" style="stroke:#B38D22;stroke-width:1.0;"/><text fill="#000000" font-family="sans-serif" font-size="11" font-style="italic" lengthAdjust="spacing" textLength="129" x="347" y="791.6016">setHtmlElements() : void</text><polygon fill="#FFFF44" points="338,795.9219,342,799.9219,338,803.9219,334,799.9219" style="stroke:#B38D22;stroke-width:1.0;"/><text fill="#000000" font-family="sans-serif" font-size="11" lengthAdjust="spacing" textLength="357" x="347" y="804.5566">triggerPlatformEventInitialized(platFormCallback: OSGeneric) : void</text><polygon fill="#FFFF44" points="338,808.877,342,812.877,338,816.877,334,812.877" style="stroke:#B38D22;stroke-width:1.0;"/><text fill="#000000" font-family="sans-serif" font-size="11" font-style="italic" lengthAdjust="spacing" textLength="121" x="347" y="817.5117">unsetCallbacks() : void</text><polygon fill="#FFFF44" points="338,821.832,342,825.832,338,829.832,334,825.832" style="stroke:#B38D22;stroke-width:1.0;"/><text fill="#000000" font-family="sans-serif" font-size="11" font-style="italic" lengthAdjust="spacing" textLength="143" x="347" y="830.4668">unsetHtmlElements() : void</text><!--MD5=[6df760f7a67571235232bfd37d596799]
class AbstractProviderPattern<P, C>--><rect codeLine="36" fill="#FFFFFF" filter="url(#flcooznr5i974)" height="371.877" id="AbstractProviderPattern&lt;P, C&gt;" style="stroke:#272B30;stroke-width:1.5;" width="620" x="9" y="7"/><ellipse cx="224.75" cy="23" fill="#A9DCDF" rx="11" ry="11" style="stroke:#272B30;stroke-width:1.0;"/><path d="M224.6133,18.3481 L223.4595,23.4199 L225.7754,23.4199 Z M223.1191,16.1069 L226.1157,16.1069 L229.4609,28.5 L227.0122,28.5 L226.2485,25.437 L222.9697,25.437 L222.2227,28.5 L219.7739,28.5 Z " fill="#000000"/><text fill="#000000" font-family="sans-serif" font-size="12" font-style="italic" lengthAdjust="spacing" textLength="180" x="245.25" y="27.5352">AbstractProviderPattern&lt;P, C&gt;</text><line style="stroke:#272B30;stroke-width:1.5;" x1="10" x2="628" y1="39" y2="39"/><polygon fill="none" points="20,45,24,49,20,53,16,49" style="stroke:#B38D22;stroke-width:1.0;"/><text fill="#000000" font-family="sans-serif" font-size="11" lengthAdjust="spacing" textLength="304" x="29" y="53.6348">providerEventsManagerInstance : IProviderEventManager</text><polygon fill="none" points="20,57.9551,24,61.9551,20,65.9551,16,61.9551" style="stroke:#B38D22;stroke-width:1.0;"/><text fill="#000000" font-family="sans-serif" font-size="11" lengthAdjust="spacing" textLength="67" x="29" y="66.5898">_provider : P</text><polygon fill="none" points="20,70.9102,24,74.9102,20,78.9102,16,74.9102" style="stroke:#B38D22;stroke-width:1.0;"/><text fill="#000000" font-family="sans-serif" font-size="11" lengthAdjust="spacing" textLength="148" x="29" y="79.5449">_providerInfo : ProviderInfo</text><line style="stroke:#272B30;stroke-width:1.5;" x1="10" x2="628" y1="85.8652" y2="85.8652"/><ellipse cx="20" cy="96.8652" fill="#84BE84" rx="3" ry="3" style="stroke:#038048;stroke-width:1.0;"/><text fill="#000000" font-family="sans-serif" font-size="11" lengthAdjust="spacing" textLength="67" x="29" y="100.5">build() : void</text><ellipse cx="20" cy="109.8203" fill="#84BE84" rx="3" ry="3" style="stroke:#038048;stroke-width:1.0;"/><text fill="#000000" font-family="sans-serif" font-size="11" lengthAdjust="spacing" textLength="377" x="29" y="113.4551">changeProperty(propertyName: string, propertyValue: unknown) : void</text><ellipse cx="20" cy="122.7754" fill="#84BE84" rx="3" ry="3" style="stroke:#038048;stroke-width:1.0;"/><text fill="#000000" font-family="sans-serif" font-size="11" lengthAdjust="spacing" textLength="186" x="29" y="126.4102">checkAddedProviderEvents() : void</text><ellipse cx="20" cy="135.7305" fill="#84BE84" rx="3" ry="3" style="stroke:#038048;stroke-width:1.0;"/><text fill="#000000" font-family="sans-serif" font-size="11" lengthAdjust="spacing" textLength="194" x="29" y="139.3652">checkPendingProviderEvents() : void</text><ellipse cx="20" cy="148.6855" fill="#84BE84" rx="3" ry="3" style="stroke:#038048;stroke-width:1.0;"/><text fill="#000000" font-family="sans-serif" font-size="11" lengthAdjust="spacing" textLength="82" x="29" y="152.3203">dispose() : void</text><ellipse cx="20" cy="161.6406" fill="#84BE84" rx="3" ry="3" style="stroke:#038048;stroke-width:1.0;"/><text fill="#000000" font-family="sans-serif" font-size="11" lengthAdjust="spacing" textLength="207" x="29" y="165.2754">equalsToID(patternId: string) : boolean</text><ellipse cx="20" cy="174.5957" fill="#84BE84" rx="3" ry="3" style="stroke:#038048;stroke-width:1.0;"/><text fill="#000000" font-family="sans-serif" font-size="11" font-style="italic" lengthAdjust="spacing" textLength="335" x="29" y="178.2305">registerCallback(eventName: string, callback: OSGeneric) : void</text><ellipse cx="20" cy="187.5508" fill="#84BE84" rx="3" ry="3" style="stroke:#038048;stroke-width:1.0;"/><text fill="#000000" font-family="sans-serif" font-size="11" font-style="italic" lengthAdjust="spacing" textLength="256" x="29" y="191.1855">setProviderConfigs(providerConfigs: any) : void</text><ellipse cx="20" cy="200.5059" fill="#84BE84" rx="3" ry="3" style="stroke:#038048;stroke-width:1.0;"/><text fill="#000000" font-family="sans-serif" font-size="11" lengthAdjust="spacing" textLength="522" x="29" y="204.1406">setProviderEvent(eventName: string, callback: Generic, uniqueId: string, saveEvent: boolean) : void</text><ellipse cx="20" cy="213.4609" fill="#84BE84" rx="3" ry="3" style="stroke:#038048;stroke-width:1.0;"/><text fill="#000000" font-family="sans-serif" font-size="11" lengthAdjust="spacing" textLength="221" x="29" y="217.0957">unsetProviderEvent(eventId: string) : void</text><ellipse cx="20" cy="226.416" fill="#84BE84" rx="3" ry="3" style="stroke:#038048;stroke-width:1.0;"/><text fill="#000000" font-family="sans-serif" font-size="11" lengthAdjust="spacing" textLength="296" x="29" y="230.0508">updateProviderEvents(providerInfo: ProviderInfo) : void</text><polygon fill="#FFFF44" points="20,234.3711,24,238.3711,20,242.3711,16,238.3711" style="stroke:#B38D22;stroke-width:1.0;"/><text fill="#000000" font-family="sans-serif" font-size="11" lengthAdjust="spacing" textLength="96" x="29" y="243.0059">finishBuild() : void</text><polygon fill="#FFFF44" points="20,247.3262,24,251.3262,20,255.3262,16,251.3262" style="stroke:#B38D22;stroke-width:1.0;"/><text fill="#000000" font-family="sans-serif" font-size="11" font-style="italic" lengthAdjust="spacing" textLength="124" x="29" y="255.9609">prepareConfigs() : void</text><polygon fill="#FFFF44" points="20,260.2813,24,264.2813,20,268.2813,16,264.2813" style="stroke:#B38D22;stroke-width:1.0;"/><text fill="#000000" font-family="sans-serif" font-size="11" lengthAdjust="spacing" textLength="77" x="29" y="268.916">redraw() : void</text><polygon fill="#FFFF44" points="20,273.2363,24,277.2363,20,281.2363,16,277.2363" style="stroke:#B38D22;stroke-width:1.0;"/><text fill="#000000" font-family="sans-serif" font-size="11" font-style="italic" lengthAdjust="spacing" textLength="140" x="29" y="281.8711">setA11YProperties() : void</text><polygon fill="#FFFF44" points="20,286.1914,24,290.1914,20,294.1914,16,290.1914" style="stroke:#B38D22;stroke-width:1.0;"/><text fill="#000000" font-family="sans-serif" font-size="11" font-style="italic" lengthAdjust="spacing" textLength="107" x="29" y="294.8262">setCallbacks() : void</text><polygon fill="#FFFF44" points="20,299.1465,24,303.1465,20,307.1465,16,303.1465" style="stroke:#B38D22;stroke-width:1.0;"/><text fill="#000000" font-family="sans-serif" font-size="11" font-style="italic" lengthAdjust="spacing" textLength="129" x="29" y="307.7813">setHtmlElements() : void</text><polygon fill="#FFFF44" points="20,312.1016,24,316.1016,20,320.1016,16,316.1016" style="stroke:#B38D22;stroke-width:1.0;"/><text fill="#000000" font-family="sans-serif" font-size="11" lengthAdjust="spacing" textLength="357" x="29" y="320.7363">triggerPlatformEventInitialized(platFormCallback: OSGeneric) : void</text><polygon fill="#FFFF44" points="20,325.0566,24,329.0566,20,333.0566,16,329.0566" style="stroke:#B38D22;stroke-width:1.0;"/><text fill="#000000" font-family="sans-serif" font-size="11" font-style="italic" lengthAdjust="spacing" textLength="121" x="29" y="333.6914">unsetCallbacks() : void</text><polygon fill="#FFFF44" points="20,338.0117,24,342.0117,20,346.0117,16,342.0117" style="stroke:#B38D22;stroke-width:1.0;"/><text fill="#000000" font-family="sans-serif" font-size="11" font-style="italic" lengthAdjust="spacing" textLength="143" x="29" y="346.6465">unsetHtmlElements() : void</text><rect fill="#F24D5C" height="6" style="stroke:#C82930;stroke-width:1.0;" width="6" x="17" y="352.9668"/><text fill="#000000" font-family="sans-serif" font-size="11" lengthAdjust="spacing" textLength="311" x="29" y="359.6016">_getEventIndexFromArray(event: IProviderEvent) : number</text><rect fill="#F24D5C" height="6" style="stroke:#C82930;stroke-width:1.0;" width="6" x="17" y="365.9219"/><text fill="#000000" font-family="sans-serif" font-size="11" lengthAdjust="spacing" textLength="594" x="29" y="372.5566">_handleProviderEventsAPI(eventName: string, callback: Generic, addEvent: boolean, event: IProviderEvent) : void</text><!--MD5=[77bcc85a8972d579b80102ad151980e6]
class IMonthPicker--><rect codeLine="64" fill="#FFFFFF" filter="url(#flcooznr5i974)" height="242.3262" id="IMonthPicker" style="stroke:#272B30;stroke-width:1.5;" width="440" x="664" y="72"/><ellipse cx="843.25" cy="88" fill="#B4A7E5" rx="11" ry="11" style="stroke:#272B30;stroke-width:1.0;"/><path d="M839.6777,84.2651 L839.6777,82.1069 L847.0571,82.1069 L847.0571,84.2651 L844.5918,84.2651 L844.5918,92.3418 L847.0571,92.3418 L847.0571,94.5 L839.6777,94.5 L839.6777,92.3418 L842.1431,92.3418 L842.1431,84.2651 Z " fill="#000000"/><text fill="#000000" font-family="sans-serif" font-size="12" font-style="italic" lengthAdjust="spacing" textLength="73" x="863.75" y="92.5352">IMonthPicker</text><line style="stroke:#272B30;stroke-width:1.5;" x1="665" x2="1103" y1="104" y2="104"/><ellipse cx="675" cy="115" rx="3" ry="3" style="stroke:#038048;stroke-width:1.0;fill:none;"/><text fill="#000000" font-family="sans-serif" font-size="11" lengthAdjust="spacing" textLength="84" x="684" y="118.6348">isBuilt : boolean</text><ellipse cx="675" cy="127.9551" rx="3" ry="3" style="stroke:#038048;stroke-width:1.0;fill:none;"/><text fill="#000000" font-family="sans-serif" font-size="11" lengthAdjust="spacing" textLength="142" x="684" y="131.5898">selfElement : HTMLElement</text><ellipse cx="675" cy="140.9102" rx="3" ry="3" style="stroke:#038048;stroke-width:1.0;fill:none;"/><text fill="#000000" font-family="sans-serif" font-size="11" lengthAdjust="spacing" textLength="88" x="684" y="144.5449">uniqueId : string</text><ellipse cx="675" cy="153.8652" rx="3" ry="3" style="stroke:#038048;stroke-width:1.0;fill:none;"/><text fill="#000000" font-family="sans-serif" font-size="11" lengthAdjust="spacing" textLength="86" x="684" y="157.5">widgetId : string</text><line style="stroke:#272B30;stroke-width:1.5;" x1="665" x2="1103" y1="163.8203" y2="163.8203"/><ellipse cx="675" cy="174.8203" fill="#84BE84" rx="3" ry="3" style="stroke:#038048;stroke-width:1.0;"/><text fill="#000000" font-family="sans-serif" font-size="11" lengthAdjust="spacing" textLength="67" x="684" y="178.4551">build() : void</text><ellipse cx="675" cy="187.7754" fill="#84BE84" rx="3" ry="3" style="stroke:#038048;stroke-width:1.0;"/><text fill="#000000" font-family="sans-serif" font-size="11" lengthAdjust="spacing" textLength="377" x="684" y="191.4102">changeProperty(propertyName: string, propertyValue: unknown) : void</text><ellipse cx="675" cy="200.7305" fill="#84BE84" rx="3" ry="3" style="stroke:#038048;stroke-width:1.0;"/><text fill="#000000" font-family="sans-serif" font-size="11" lengthAdjust="spacing" textLength="66" x="684" y="204.3652">clear() : void</text><ellipse cx="675" cy="213.6855" fill="#84BE84" rx="3" ry="3" style="stroke:#038048;stroke-width:1.0;"/><text fill="#000000" font-family="sans-serif" font-size="11" lengthAdjust="spacing" textLength="68" x="684" y="217.3203">close() : void</text><ellipse cx="675" cy="226.6406" fill="#84BE84" rx="3" ry="3" style="stroke:#038048;stroke-width:1.0;"/><text fill="#000000" font-family="sans-serif" font-size="11" lengthAdjust="spacing" textLength="82" x="684" y="230.2754">dispose() : void</text><ellipse cx="675" cy="239.5957" fill="#84BE84" rx="3" ry="3" style="stroke:#038048;stroke-width:1.0;"/><text fill="#000000" font-family="sans-serif" font-size="11" lengthAdjust="spacing" textLength="168" x="684" y="243.2305">equalsToID(id: string) : boolean</text><ellipse cx="675" cy="252.5508" fill="#84BE84" rx="3" ry="3" style="stroke:#038048;stroke-width:1.0;"/><text fill="#000000" font-family="sans-serif" font-size="11" lengthAdjust="spacing" textLength="67" x="684" y="256.1855">open() : void</text><ellipse cx="675" cy="265.5059" fill="#84BE84" rx="3" ry="3" style="stroke:#038048;stroke-width:1.0;"/><text fill="#000000" font-family="sans-serif" font-size="11" lengthAdjust="spacing" textLength="174" x="684" y="269.1406">setLanguage(value: string) : void</text><ellipse cx="675" cy="278.4609" fill="#84BE84" rx="3" ry="3" style="stroke:#038048;stroke-width:1.0;"/><text fill="#000000" font-family="sans-serif" font-size="11" lengthAdjust="spacing" textLength="256" x="684" y="282.0957">setProviderConfigs(providerConfigs: any) : void</text><ellipse cx="675" cy="291.416" fill="#84BE84" rx="3" ry="3" style="stroke:#038048;stroke-width:1.0;"/><text fill="#000000" font-family="sans-serif" font-size="11" lengthAdjust="spacing" textLength="414" x="684" y="295.0508">setProviderEvent(eventName: string, callback: Generic, uniqueId: string) : void</text><ellipse cx="675" cy="304.3711" fill="#84BE84" rx="3" ry="3" style="stroke:#038048;stroke-width:1.0;"/><text fill="#000000" font-family="sans-serif" font-size="11" lengthAdjust="spacing" textLength="221" x="684" y="308.0059">unsetProviderEvent(eventId: string) : void</text><!--MD5=[54a153d952375f36f2edb44cab3971b6]
class OSUIFlatpickrMonth--><rect codeLine="82" fill="#FFFFFF" filter="url(#flcooznr5i974)" height="566.2031" id="OSUIFlatpickrMonth" style="stroke:#272B30;stroke-width:1.5;" width="548" x="327" y="897"/><ellipse cx="541.75" cy="913" fill="#ADD1B2" rx="11" ry="11" style="stroke:#272B30;stroke-width:1.0;"/><path d="M544.2231,919.1431 Q543.6421,919.4419 543.0029,919.5913 Q542.3638,919.7407 541.6582,919.7407 Q539.1514,919.7407 537.8315,918.0889 Q536.5117,916.437 536.5117,913.3159 Q536.5117,910.1865 537.8315,908.5347 Q539.1514,906.8828 541.6582,906.8828 Q542.3638,906.8828 543.0112,907.0322 Q543.6587,907.1816 544.2231,907.4805 L544.2231,910.2031 Q543.5923,909.6221 542.9988,909.3523 Q542.4053,909.0825 541.7744,909.0825 Q540.4297,909.0825 539.7449,910.1492 Q539.0601,911.2158 539.0601,913.3159 Q539.0601,915.4077 539.7449,916.4744 Q540.4297,917.541 541.7744,917.541 Q542.4053,917.541 542.9988,917.2712 Q543.5923,917.0015 544.2231,916.4204 Z " fill="#000000"/><text fill="#000000" font-family="sans-serif" font-size="12" lengthAdjust="spacing" textLength="110" x="562.25" y="917.5352">OSUIFlatpickrMonth</text><line style="stroke:#272B30;stroke-width:1.5;" x1="328" x2="874" y1="929" y2="929"/><polygon fill="none" points="338,935,342,939,338,943,334,939" style="stroke:#B38D22;stroke-width:1.0;"/><text fill="#000000" font-family="sans-serif" font-size="11" lengthAdjust="spacing" textLength="304" x="347" y="943.6348">providerEventsManagerInstance : IProviderEventManager</text><polygon fill="none" points="338,947.9551,342,951.9551,338,955.9551,334,951.9551" style="stroke:#B38D22;stroke-width:1.0;"/><text fill="#000000" font-family="sans-serif" font-size="11" lengthAdjust="spacing" textLength="212" x="347" y="956.5898">_flatpickrInputElem : HTMLInputElement</text><polygon fill="none" points="338,960.9102,342,964.9102,338,968.9102,334,964.9102" style="stroke:#B38D22;stroke-width:1.0;"/><text fill="#000000" font-family="sans-serif" font-size="11" lengthAdjust="spacing" textLength="280" x="347" y="969.5449">_monthPickerProviderInputElem : HTMLInputElement</text><polygon fill="none" points="338,973.8652,342,977.8652,338,981.8652,334,977.8652" style="stroke:#B38D22;stroke-width:1.0;"/><text fill="#000000" font-family="sans-serif" font-size="11" lengthAdjust="spacing" textLength="251" x="347" y="982.5">_onSelectedCallbackEvent : OSOnSelectedEvent</text><polygon fill="none" points="338,986.8203,342,990.8203,338,994.8203,334,990.8203" style="stroke:#B38D22;stroke-width:1.0;"/><text fill="#000000" font-family="sans-serif" font-size="11" lengthAdjust="spacing" textLength="105" x="347" y="995.4551">_provider : flatpickr</text><polygon fill="none" points="338,999.7754,342,1003.7754,338,1007.7754,334,1003.7754" style="stroke:#B38D22;stroke-width:1.0;"/><text fill="#000000" font-family="sans-serif" font-size="11" lengthAdjust="spacing" textLength="148" x="347" y="1008.4102">_providerInfo : ProviderInfo</text><rect fill="none" height="6" style="stroke:#C82930;stroke-width:1.0;" width="6" x="335" y="1014.7305"/><text fill="#000000" font-family="sans-serif" font-size="11" lengthAdjust="spacing" textLength="301" x="347" y="1021.3652">_bodyScrollCommonBehaviour : UpdatePositionOnScroll</text><rect fill="none" height="6" style="stroke:#C82930;stroke-width:1.0;" width="6" x="335" y="1027.6855"/><text fill="#000000" font-family="sans-serif" font-size="11" lengthAdjust="spacing" textLength="174" x="347" y="1034.3203">_flatpickrOpts : FlatpickrOptions</text><rect fill="none" height="6" style="stroke:#C82930;stroke-width:1.0;" width="6" x="335" y="1040.6406"/><text fill="#000000" font-family="sans-serif" font-size="11" lengthAdjust="spacing" textLength="203" x="347" y="1047.2754">_onInitializeCallbackEvent : OSGeneric</text><rect fill="none" height="6" style="stroke:#C82930;stroke-width:1.0;" width="6" x="335" y="1053.5957"/><text fill="#000000" font-family="sans-serif" font-size="11" lengthAdjust="spacing" textLength="221" x="347" y="1060.2305">_zindexCommonBehavior : UpdateZindex</text><line style="stroke:#272B30;stroke-width:1.5;" x1="328" x2="874" y1="1066.5508" y2="1066.5508"/><ellipse cx="338" cy="1077.5508" fill="#84BE84" rx="3" ry="3" style="stroke:#038048;stroke-width:1.0;"/><text fill="#000000" font-family="sans-serif" font-size="11" lengthAdjust="spacing" textLength="67" x="347" y="1081.1855">build() : void</text><ellipse cx="338" cy="1090.5059" fill="#84BE84" rx="3" ry="3" style="stroke:#038048;stroke-width:1.0;"/><text fill="#000000" font-family="sans-serif" font-size="11" lengthAdjust="spacing" textLength="377" x="347" y="1094.1406">changeProperty(propertyName: string, propertyValue: unknown) : void</text><ellipse cx="338" cy="1103.4609" fill="#84BE84" rx="3" ry="3" style="stroke:#038048;stroke-width:1.0;"/><text fill="#000000" font-family="sans-serif" font-size="11" lengthAdjust="spacing" textLength="186" x="347" y="1107.0957">checkAddedProviderEvents() : void</text><ellipse cx="338" cy="1116.416" fill="#84BE84" rx="3" ry="3" style="stroke:#038048;stroke-width:1.0;"/><text fill="#000000" font-family="sans-serif" font-size="11" lengthAdjust="spacing" textLength="194" x="347" y="1120.0508">checkPendingProviderEvents() : void</text><ellipse cx="338" cy="1129.3711" fill="#84BE84" rx="3" ry="3" style="stroke:#038048;stroke-width:1.0;"/><text fill="#000000" font-family="sans-serif" font-size="11" lengthAdjust="spacing" textLength="66" x="347" y="1133.0059">clear() : void</text><ellipse cx="338" cy="1142.3262" fill="#84BE84" rx="3" ry="3" style="stroke:#038048;stroke-width:1.0;"/><text fill="#000000" font-family="sans-serif" font-size="11" lengthAdjust="spacing" textLength="68" x="347" y="1145.9609">close() : void</text><ellipse cx="338" cy="1155.2813" fill="#84BE84" rx="3" ry="3" style="stroke:#038048;stroke-width:1.0;"/><text fill="#000000" font-family="sans-serif" font-size="11" lengthAdjust="spacing" textLength="82" x="347" y="1158.916">dispose() : void</text><ellipse cx="338" cy="1168.2363" fill="#84BE84" rx="3" ry="3" style="stroke:#038048;stroke-width:1.0;"/><text fill="#000000" font-family="sans-serif" font-size="11" lengthAdjust="spacing" textLength="207" x="347" y="1171.8711">equalsToID(patternId: string) : boolean</text><ellipse cx="338" cy="1181.1914" fill="#84BE84" rx="3" ry="3" style="stroke:#038048;stroke-width:1.0;"/><text fill="#000000" font-family="sans-serif" font-size="11" lengthAdjust="spacing" textLength="67" x="347" y="1184.8262">open() : void</text><ellipse cx="338" cy="1194.1465" fill="#84BE84" rx="3" ry="3" style="stroke:#038048;stroke-width:1.0;"/><text fill="#000000" font-family="sans-serif" font-size="11" lengthAdjust="spacing" textLength="335" x="347" y="1197.7813">registerCallback(eventName: string, callback: OSGeneric) : void</text><ellipse cx="338" cy="1207.1016" fill="#84BE84" rx="3" ry="3" style="stroke:#038048;stroke-width:1.0;"/><text fill="#000000" font-family="sans-serif" font-size="11" lengthAdjust="spacing" textLength="226" x="347" y="1210.7363">setEditableInput(isEditable: boolean) : void</text><ellipse cx="338" cy="1220.0566" fill="#84BE84" rx="3" ry="3" style="stroke:#038048;stroke-width:1.0;"/><text fill="#000000" font-family="sans-serif" font-size="11" lengthAdjust="spacing" textLength="174" x="347" y="1223.6914">setLanguage(value: string) : void</text><ellipse cx="338" cy="1233.0117" fill="#84BE84" rx="3" ry="3" style="stroke:#038048;stroke-width:1.0;"/><text fill="#000000" font-family="sans-serif" font-size="11" lengthAdjust="spacing" textLength="301" x="347" y="1236.6465">setProviderConfigs(newConfigs: FlatpickrOptions) : void</text><ellipse cx="338" cy="1245.9668" fill="#84BE84" rx="3" ry="3" style="stroke:#038048;stroke-width:1.0;"/><text fill="#000000" font-family="sans-serif" font-size="11" lengthAdjust="spacing" textLength="522" x="347" y="1249.6016">setProviderEvent(eventName: string, callback: Generic, uniqueId: string, saveEvent: boolean) : void</text><ellipse cx="338" cy="1258.9219" fill="#84BE84" rx="3" ry="3" style="stroke:#038048;stroke-width:1.0;"/><text fill="#000000" font-family="sans-serif" font-size="11" lengthAdjust="spacing" textLength="221" x="347" y="1262.5566">unsetProviderEvent(eventId: string) : void</text><ellipse cx="338" cy="1271.877" fill="#84BE84" rx="3" ry="3" style="stroke:#038048;stroke-width:1.0;"/><text fill="#000000" font-family="sans-serif" font-size="11" lengthAdjust="spacing" textLength="296" x="347" y="1275.5117">updateProviderEvents(providerInfo: ProviderInfo) : void</text><polygon fill="#FFFF44" points="338,1279.832,342,1283.832,338,1287.832,334,1283.832" style="stroke:#B38D22;stroke-width:1.0;"/><text fill="#000000" font-family="sans-serif" font-size="11" lengthAdjust="spacing" textLength="125" x="347" y="1288.4668">createdInstance() : void</text><polygon fill="#FFFF44" points="338,1292.7871,342,1296.7871,338,1300.7871,334,1296.7871" style="stroke:#B38D22;stroke-width:1.0;"/><text fill="#000000" font-family="sans-serif" font-size="11" lengthAdjust="spacing" textLength="163" x="347" y="1301.4219">createProviderInstance() : void</text><polygon fill="#FFFF44" points="338,1305.7422,342,1309.7422,338,1313.7422,334,1309.7422" style="stroke:#B38D22;stroke-width:1.0;"/><text fill="#000000" font-family="sans-serif" font-size="11" lengthAdjust="spacing" textLength="96" x="347" y="1314.377">finishBuild() : void</text><polygon fill="#FFFF44" points="338,1318.6973,342,1322.6973,338,1326.6973,334,1322.6973" style="stroke:#B38D22;stroke-width:1.0;"/><text fill="#000000" font-family="sans-serif" font-size="11" lengthAdjust="spacing" textLength="309" x="347" y="1327.332">onMonthSelectedEvent(selectedMonthYear: string[]) : void</text><polygon fill="#FFFF44" points="338,1331.6523,342,1335.6523,338,1339.6523,334,1335.6523" style="stroke:#B38D22;stroke-width:1.0;"/><text fill="#000000" font-family="sans-serif" font-size="11" lengthAdjust="spacing" textLength="124" x="347" y="1340.2871">prepareConfigs() : void</text><polygon fill="#FFFF44" points="338,1344.6074,342,1348.6074,338,1352.6074,334,1348.6074" style="stroke:#B38D22;stroke-width:1.0;"/><text fill="#000000" font-family="sans-serif" font-size="11" lengthAdjust="spacing" textLength="77" x="347" y="1353.2422">redraw() : void</text><polygon fill="#FFFF44" points="338,1357.5625,342,1361.5625,338,1365.5625,334,1361.5625" style="stroke:#B38D22;stroke-width:1.0;"/><text fill="#000000" font-family="sans-serif" font-size="11" lengthAdjust="spacing" textLength="140" x="347" y="1366.1973">setA11YProperties() : void</text><polygon fill="#FFFF44" points="338,1370.5176,342,1374.5176,338,1378.5176,334,1374.5176" style="stroke:#B38D22;stroke-width:1.0;"/><text fill="#000000" font-family="sans-serif" font-size="11" lengthAdjust="spacing" textLength="107" x="347" y="1379.1523">setCallbacks() : void</text><polygon fill="#FFFF44" points="338,1383.4727,342,1387.4727,338,1391.4727,334,1387.4727" style="stroke:#B38D22;stroke-width:1.0;"/><text fill="#000000" font-family="sans-serif" font-size="11" lengthAdjust="spacing" textLength="129" x="347" y="1392.1074">setHtmlElements() : void</text><polygon fill="#FFFF44" points="338,1396.4277,342,1400.4277,338,1404.4277,334,1400.4277" style="stroke:#B38D22;stroke-width:1.0;"/><text fill="#000000" font-family="sans-serif" font-size="11" lengthAdjust="spacing" textLength="357" x="347" y="1405.0625">triggerPlatformEventInitialized(platFormCallback: OSGeneric) : void</text><polygon fill="#FFFF44" points="338,1409.3828,342,1413.3828,338,1417.3828,334,1413.3828" style="stroke:#B38D22;stroke-width:1.0;"/><text fill="#000000" font-family="sans-serif" font-size="11" lengthAdjust="spacing" textLength="121" x="347" y="1418.0176">unsetCallbacks() : void</text><polygon fill="#FFFF44" points="338,1422.3379,342,1426.3379,338,1430.3379,334,1426.3379" style="stroke:#B38D22;stroke-width:1.0;"/><text fill="#000000" font-family="sans-serif" font-size="11" lengthAdjust="spacing" textLength="143" x="347" y="1430.9727">unsetHtmlElements() : void</text><rect fill="#F24D5C" height="6" style="stroke:#C82930;stroke-width:1.0;" width="6" x="335" y="1437.293"/><text fill="#000000" font-family="sans-serif" font-size="11" lengthAdjust="spacing" textLength="116" x="347" y="1443.9277">_setAttributes() : void</text><rect fill="#F24D5C" height="6" style="stroke:#C82930;stroke-width:1.0;" width="6" x="335" y="1450.248"/><text fill="#000000" font-family="sans-serif" font-size="11" lengthAdjust="spacing" textLength="171" x="347" y="1456.8828">_setCalendarCssClasses() : void</text><!--MD5=[9047c2baaf08458578d278a3b604c92b]
reverse link AbstractProviderPattern<P, C> to AbstractMonthPicker<P, C>--><path codeLine="63" d="M447.88,396.45 C456.86,410.57 465.91,424.78 474.88,438.87 " fill="none" id="AbstractProviderPattern&lt;P, C&gt;-backto-AbstractMonthPicker&lt;P, C&gt;" style="stroke:#272B30;stroke-width:1.0;"/><polygon fill="none" points="441.79,399.94,436.96,379.31,453.6,392.42,441.79,399.94" style="stroke:#272B30;stroke-width:1.0;"/><!--MD5=[779168cd069837c3ed4f8dfaa64ec403]
reverse link IMonthPicker to AbstractMonthPicker<P, C>--><path codeLine="81" d="M796.39,331.15 C774.64,365.19 750.89,402.37 727.68,438.7 " fill="none" id="IMonthPicker-backto-AbstractMonthPicker&lt;P, C&gt;" style="stroke:#272B30;stroke-width:1.0;stroke-dasharray:7.0,7.0;"/><polygon fill="none" points="790.56,327.26,807.23,314.17,802.36,334.8,790.56,327.26" style="stroke:#272B30;stroke-width:1.0;"/><!--MD5=[260d13ea922b83e3483174a85a92e056]
reverse link AbstractMonthPicker<P, C> to OSUIFlatpickrMonth--><path codeLine="124" d="M601,857.36 C601,870.41 601,883.63 601,896.89 " fill="none" id="AbstractMonthPicker&lt;P, C&gt;-backto-OSUIFlatpickrMonth" style="stroke:#272B30;stroke-width:1.0;"/><polygon fill="none" points="594,857.01,601,837.01,608,857.01,594,857.01" style="stroke:#272B30;stroke-width:1.0;"/><!--MD5=[112c01bceba2c4ed25978def46e7dd45]
@startuml
skinparam ClassArrowColor #272b30
skinparam ClassBorderColor #272b30
skinparam ClassBackgroundColor #fff
skinparam BackgroundColor #ced4da
hide empty methods
hide empty fields
abstract class "AbstractMonthPicker<P, C>" {
    #providerEventsManagerInstance : IProviderEventManager
    #_provider : P
    #_providerInfo : ProviderInfo
    +build() : void
    +changeProperty(propertyName: string, propertyValue: unknown) : void
    +checkAddedProviderEvents() : void
    +checkPendingProviderEvents() : void
    {abstract} +clear() : void
    {abstract} +close() : void
    +dispose() : void
    +equalsToID(patternId: string) : boolean
    {abstract} +open() : void
    {abstract} +registerCallback(eventName: string, callback: OSGeneric) : void
    {abstract} +setLanguage(value: string) : void
    {abstract} +setProviderConfigs(providerConfigs: any) : void
    +setProviderEvent(eventName: string, callback: Generic, uniqueId: string, saveEvent: boolean) : void
    +unsetProviderEvent(eventId: string) : void
    +updateProviderEvents(providerInfo: ProviderInfo) : void
    #finishBuild() : void
    {abstract} #prepareConfigs() : void
    #redraw() : void
    {abstract} #setA11YProperties() : void
    {abstract} #setCallbacks() : void
    {abstract} #setHtmlElements() : void
    #triggerPlatformEventInitialized(platFormCallback: OSGeneric) : void
    {abstract} #unsetCallbacks() : void
    {abstract} #unsetHtmlElements() : void
}
abstract class "AbstractProviderPattern<P, C>" {
    #providerEventsManagerInstance : IProviderEventManager
    #_provider : P
    #_providerInfo : ProviderInfo
    +build() : void
    +changeProperty(propertyName: string, propertyValue: unknown) : void
    +checkAddedProviderEvents() : void
    +checkPendingProviderEvents() : void
    +dispose() : void
    +equalsToID(patternId: string) : boolean
    {abstract} +registerCallback(eventName: string, callback: OSGeneric) : void
    {abstract} +setProviderConfigs(providerConfigs: any) : void
    +setProviderEvent(eventName: string, callback: Generic, uniqueId: string, saveEvent: boolean) : void
    +unsetProviderEvent(eventId: string) : void
    +updateProviderEvents(providerInfo: ProviderInfo) : void
    #finishBuild() : void
    {abstract} #prepareConfigs() : void
    #redraw() : void
    {abstract} #setA11YProperties() : void
    {abstract} #setCallbacks() : void
    {abstract} #setHtmlElements() : void
    #triggerPlatformEventInitialized(platFormCallback: OSGeneric) : void
    {abstract} #unsetCallbacks() : void
    {abstract} #unsetHtmlElements() : void
    -_getEventIndexFromArray(event: IProviderEvent) : number
    -_handleProviderEventsAPI(eventName: string, callback: Generic, addEvent: boolean, event: IProviderEvent) : void
}
"AbstractProviderPattern<P, C>" <|- - "AbstractMonthPicker<P, C>"
interface "IMonthPicker" {
    +isBuilt : boolean
    +selfElement : HTMLElement
    +uniqueId : string
    +widgetId : string
    +build() : void
    +changeProperty(propertyName: string, propertyValue: unknown) : void
    +clear() : void
    +close() : void
    +dispose() : void
    +equalsToID(id: string) : boolean
    +open() : void
    +setLanguage(value: string) : void
    +setProviderConfigs(providerConfigs: any) : void
    +setProviderEvent(eventName: string, callback: Generic, uniqueId: string) : void
    +unsetProviderEvent(eventId: string) : void
}
"IMonthPicker" <|.. "AbstractMonthPicker<P, C>"
class "OSUIFlatpickrMonth" {
    #providerEventsManagerInstance : IProviderEventManager
    #_flatpickrInputElem : HTMLInputElement
    #_monthPickerProviderInputElem : HTMLInputElement
    #_onSelectedCallbackEvent : OSOnSelectedEvent
    #_provider : flatpickr
    #_providerInfo : ProviderInfo
    -_bodyScrollCommonBehaviour : UpdatePositionOnScroll
    -_flatpickrOpts : FlatpickrOptions
    -_onInitializeCallbackEvent : OSGeneric
    -_zindexCommonBehavior : UpdateZindex
    +build() : void
    +changeProperty(propertyName: string, propertyValue: unknown) : void
    +checkAddedProviderEvents() : void
    +checkPendingProviderEvents() : void
    +clear() : void
    +close() : void
    +dispose() : void
    +equalsToID(patternId: string) : boolean
    +open() : void
    +registerCallback(eventName: string, callback: OSGeneric) : void
    +setEditableInput(isEditable: boolean) : void
    +setLanguage(value: string) : void
    +setProviderConfigs(newConfigs: FlatpickrOptions) : void
    +setProviderEvent(eventName: string, callback: Generic, uniqueId: string, saveEvent: boolean) : void
    +unsetProviderEvent(eventId: string) : void
    +updateProviderEvents(providerInfo: ProviderInfo) : void
    #createdInstance() : void
    #createProviderInstance() : void
    #finishBuild() : void
    #onMonthSelectedEvent(selectedMonthYear: string[]) : void
    #prepareConfigs() : void
    #redraw() : void
    #setA11YProperties() : void
    #setCallbacks() : void
    #setHtmlElements() : void
    #triggerPlatformEventInitialized(platFormCallback: OSGeneric) : void
    #unsetCallbacks() : void
    #unsetHtmlElements() : void
    -_setAttributes() : void
    -_setCalendarCssClasses() : void
}
"AbstractMonthPicker<P, C>" <|- - "OSUIFlatpickrMonth"
@enduml

PlantUML version 1.2021.14(Fri Nov 12 16:46:50 WET 2021)
(GPL source distribution)
Java Runtime: Java(TM) SE Runtime Environment
JVM: Java HotSpot(TM) 64-Bit Server VM
Default Encoding: UTF-8
Language: en
Country: PT
--></g></svg>