<?xml version="1.0" encoding="UTF-8" standalone="no"?><svg xmlns="http://www.w3.org/2000/svg" xmlns:xlink="http://www.w3.org/1999/xlink" contentScriptType="application/ecmascript" contentStyleType="text/css" height="489px" preserveAspectRatio="none" style="width:1484px;height:489px;background:#CED4DA;" version="1.1" viewBox="0 0 1484 489" width="1484px" zoomAndPan="magnify"><defs><filter height="300%" id="fcxpn2qapqw4t" width="300%" x="-1" y="-1"><feGaussianBlur result="blurOut" stdDeviation="2.0"/><feColorMatrix in="blurOut" result="blurOut2" type="matrix" values="0 0 0 0 0 0 0 0 0 0 0 0 0 0 0 0 0 0 .4 0"/><feOffset dx="4.0" dy="4.0" in="blurOut2" result="blurOut3"/><feBlend in="SourceGraphic" in2="blurOut3" mode="normal"/></filter></defs><g><!--MD5=[b34db940d64e2f9919e2291db51dfe71]
class AbstractEvent<T>--><rect codeLine="7" fill="#FFFFFF" filter="url(#fcxpn2qapqw4t)" height="112.7754" id="AbstractEvent&lt;T&gt;" style="stroke:#272B30;stroke-width:1.5;" width="251" x="768" y="159"/><ellipse cx="835.75" cy="175" fill="#A9DCDF" rx="11" ry="11" style="stroke:#272B30;stroke-width:1.0;"/><path d="M835.6133,170.3481 L834.4595,175.4199 L836.7754,175.4199 Z M834.1191,168.1069 L837.1157,168.1069 L840.4609,180.5 L838.0122,180.5 L837.2485,177.437 L833.9697,177.437 L833.2227,180.5 L830.7739,180.5 Z " fill="#000000"/><text fill="#000000" font-family="sans-serif" font-size="12" font-style="italic" lengthAdjust="spacing" textLength="107" x="856.25" y="179.5352">AbstractEvent&lt;T&gt;</text><line style="stroke:#272B30;stroke-width:1.5;" x1="769" x2="1018" y1="191" y2="191"/><rect fill="none" height="6" style="stroke:#C82930;stroke-width:1.0;" width="6" x="776" y="199"/><text fill="#000000" font-family="sans-serif" font-size="11" lengthAdjust="spacing" textLength="126" x="788" y="205.6348">_handlers : OSGeneric[]</text><line style="stroke:#272B30;stroke-width:1.5;" x1="769" x2="1018" y1="211.9551" y2="211.9551"/><ellipse cx="779" cy="222.9551" fill="#84BE84" rx="3" ry="3" style="stroke:#038048;stroke-width:1.0;"/><text fill="#000000" font-family="sans-serif" font-size="11" lengthAdjust="spacing" textLength="205" x="788" y="226.5898">addHandler(handler: OSGeneric) : void</text><ellipse cx="779" cy="235.9102" fill="#84BE84" rx="3" ry="3" style="stroke:#038048;stroke-width:1.0;"/><text fill="#000000" font-family="sans-serif" font-size="11" lengthAdjust="spacing" textLength="127" x="788" y="239.5449">hasHandlers() : boolean</text><ellipse cx="779" cy="248.8652" fill="#84BE84" rx="3" ry="3" style="stroke:#038048;stroke-width:1.0;"/><text fill="#000000" font-family="sans-serif" font-size="11" lengthAdjust="spacing" textLength="225" x="788" y="252.5">removeHandler(handler: OSGeneric) : void</text><ellipse cx="779" cy="261.8203" fill="#84BE84" rx="3" ry="3" style="stroke:#038048;stroke-width:1.0;"/><text fill="#000000" font-family="sans-serif" font-size="11" lengthAdjust="spacing" textLength="206" x="788" y="265.4551">trigger(data: T, args: unknown[]) : void</text><!--MD5=[ea3ffde65364ae470026491ce00cd47f]
class IEvent<T>--><rect codeLine="14" fill="#FFFFFF" filter="url(#fcxpn2qapqw4t)" height="91.8203" id="IEvent&lt;T&gt;" style="stroke:#272B30;stroke-width:1.5;" width="294" x="746.5" y="7"/><ellipse cx="858.25" cy="23" fill="#B4A7E5" rx="11" ry="11" style="stroke:#272B30;stroke-width:1.0;"/><path d="M854.6777,19.2651 L854.6777,17.1069 L862.0571,17.1069 L862.0571,19.2651 L859.5918,19.2651 L859.5918,27.3418 L862.0571,27.3418 L862.0571,29.5 L854.6777,29.5 L854.6777,27.3418 L857.1431,27.3418 L857.1431,19.2651 Z " fill="#000000"/><text fill="#000000" font-family="sans-serif" font-size="12" font-style="italic" lengthAdjust="spacing" textLength="62" x="878.75" y="27.5352">IEvent&lt;T&gt;</text><line style="stroke:#272B30;stroke-width:1.5;" x1="747.5" x2="1039.5" y1="39" y2="39"/><ellipse cx="757.5" cy="50" fill="#84BE84" rx="3" ry="3" style="stroke:#038048;stroke-width:1.0;"/><text fill="#000000" font-family="sans-serif" font-size="11" lengthAdjust="spacing" textLength="268" x="766.5" y="53.6348">addHandler(handler: OSGeneric, args: any[]) : void</text><ellipse cx="757.5" cy="62.9551" fill="#84BE84" rx="3" ry="3" style="stroke:#038048;stroke-width:1.0;"/><text fill="#000000" font-family="sans-serif" font-size="11" lengthAdjust="spacing" textLength="127" x="766.5" y="66.5898">hasHandlers() : boolean</text><ellipse cx="757.5" cy="75.9102" fill="#84BE84" rx="3" ry="3" style="stroke:#038048;stroke-width:1.0;"/><text fill="#000000" font-family="sans-serif" font-size="11" lengthAdjust="spacing" textLength="225" x="766.5" y="79.5449">removeHandler(handler: OSGeneric) : void</text><ellipse cx="757.5" cy="88.8652" fill="#84BE84" rx="3" ry="3" style="stroke:#038048;stroke-width:1.0;"/><text fill="#000000" font-family="sans-serif" font-size="11" lengthAdjust="spacing" textLength="232" x="766.5" y="92.5">trigger(data: T, args: unknown[]) : unknown</text><!--MD5=[c175eb58d2f43432ba7d33f94acc81ba]
class BodyOnClick--><rect codeLine="21" fill="#FFFFFF" filter="url(#fcxpn2qapqw4t)" height="104.7754" id="BodyOnClick" style="stroke:#272B30;stroke-width:1.5;" width="257" x="7" y="351.5"/><ellipse cx="95.75" cy="367.5" fill="#ADD1B2" rx="11" ry="11" style="stroke:#272B30;stroke-width:1.0;"/><path d="M98.2231,373.6431 Q97.6421,373.9419 97.0029,374.0913 Q96.3638,374.2407 95.6582,374.2407 Q93.1514,374.2407 91.8315,372.5889 Q90.5117,370.937 90.5117,367.8159 Q90.5117,364.6865 91.8315,363.0347 Q93.1514,361.3828 95.6582,361.3828 Q96.3638,361.3828 97.0112,361.5322 Q97.6587,361.6816 98.2231,361.9805 L98.2231,364.7031 Q97.5923,364.1221 96.9988,363.8523 Q96.4053,363.5825 95.7744,363.5825 Q94.4297,363.5825 93.7449,364.6492 Q93.0601,365.7158 93.0601,367.8159 Q93.0601,369.9077 93.7449,370.9744 Q94.4297,372.041 95.7744,372.041 Q96.4053,372.041 96.9988,371.7712 Q97.5923,371.5015 98.2231,370.9204 Z " fill="#000000"/><text fill="#000000" font-family="sans-serif" font-size="12" lengthAdjust="spacing" textLength="71" x="116.25" y="372.0352">BodyOnClick</text><line style="stroke:#272B30;stroke-width:1.5;" x1="8" x2="263" y1="383.5" y2="383.5"/><ellipse cx="18" cy="394.5" fill="#84BE84" rx="3" ry="3" style="stroke:#038048;stroke-width:1.0;"/><text fill="#000000" font-family="sans-serif" font-size="11" lengthAdjust="spacing" textLength="205" x="27" y="398.1348">addHandler(handler: OSGeneric) : void</text><ellipse cx="18" cy="407.4551" fill="#84BE84" rx="3" ry="3" style="stroke:#038048;stroke-width:1.0;"/><text fill="#000000" font-family="sans-serif" font-size="11" lengthAdjust="spacing" textLength="127" x="27" y="411.0898">hasHandlers() : boolean</text><ellipse cx="18" cy="420.4102" fill="#84BE84" rx="3" ry="3" style="stroke:#038048;stroke-width:1.0;"/><text fill="#000000" font-family="sans-serif" font-size="11" lengthAdjust="spacing" textLength="225" x="27" y="424.0449">removeHandler(handler: OSGeneric) : void</text><ellipse cx="18" cy="433.3652" fill="#84BE84" rx="3" ry="3" style="stroke:#038048;stroke-width:1.0;"/><text fill="#000000" font-family="sans-serif" font-size="11" lengthAdjust="spacing" textLength="231" x="27" y="437">trigger(data: string, args: unknown[]) : void</text><rect fill="#F24D5C" height="6" style="stroke:#C82930;stroke-width:1.0;" width="6" x="15" y="443.3203"/><text fill="#000000" font-family="sans-serif" font-size="11" lengthAdjust="spacing" textLength="202" x="27" y="449.9551">_bodyTrigger(evt: PointerEvent) : void</text><!--MD5=[830c8b07968a2df2e4eb8d8684addd7c]
class BodyOnScroll--><rect codeLine="29" fill="#FFFFFF" filter="url(#fcxpn2qapqw4t)" height="104.7754" id="BodyOnScroll" style="stroke:#272B30;stroke-width:1.5;" width="257" x="299" y="351.5"/><ellipse cx="386.25" cy="367.5" fill="#ADD1B2" rx="11" ry="11" style="stroke:#272B30;stroke-width:1.0;"/><path d="M388.7231,373.6431 Q388.1421,373.9419 387.5029,374.0913 Q386.8638,374.2407 386.1582,374.2407 Q383.6514,374.2407 382.3315,372.5889 Q381.0117,370.937 381.0117,367.8159 Q381.0117,364.6865 382.3315,363.0347 Q383.6514,361.3828 386.1582,361.3828 Q386.8638,361.3828 387.5112,361.5322 Q388.1587,361.6816 388.7231,361.9805 L388.7231,364.7031 Q388.0923,364.1221 387.4988,363.8523 Q386.9053,363.5825 386.2744,363.5825 Q384.9297,363.5825 384.2449,364.6492 Q383.5601,365.7158 383.5601,367.8159 Q383.5601,369.9077 384.2449,370.9744 Q384.9297,372.041 386.2744,372.041 Q386.9053,372.041 387.4988,371.7712 Q388.0923,371.5015 388.7231,370.9204 Z " fill="#000000"/><text fill="#000000" font-family="sans-serif" font-size="12" lengthAdjust="spacing" textLength="74" x="406.75" y="372.0352">BodyOnScroll</text><line style="stroke:#272B30;stroke-width:1.5;" x1="300" x2="555" y1="383.5" y2="383.5"/><ellipse cx="310" cy="394.5" fill="#84BE84" rx="3" ry="3" style="stroke:#038048;stroke-width:1.0;"/><text fill="#000000" font-family="sans-serif" font-size="11" lengthAdjust="spacing" textLength="205" x="319" y="398.1348">addHandler(handler: OSGeneric) : void</text><ellipse cx="310" cy="407.4551" fill="#84BE84" rx="3" ry="3" style="stroke:#038048;stroke-width:1.0;"/><text fill="#000000" font-family="sans-serif" font-size="11" lengthAdjust="spacing" textLength="127" x="319" y="411.0898">hasHandlers() : boolean</text><ellipse cx="310" cy="420.4102" fill="#84BE84" rx="3" ry="3" style="stroke:#038048;stroke-width:1.0;"/><text fill="#000000" font-family="sans-serif" font-size="11" lengthAdjust="spacing" textLength="225" x="319" y="424.0449">removeHandler(handler: OSGeneric) : void</text><ellipse cx="310" cy="433.3652" fill="#84BE84" rx="3" ry="3" style="stroke:#038048;stroke-width:1.0;"/><text fill="#000000" font-family="sans-serif" font-size="11" lengthAdjust="spacing" textLength="231" x="319" y="437">trigger(data: string, args: unknown[]) : void</text><rect fill="#F24D5C" height="6" style="stroke:#C82930;stroke-width:1.0;" width="6" x="307" y="443.3203"/><text fill="#000000" font-family="sans-serif" font-size="11" lengthAdjust="spacing" textLength="164" x="319" y="449.9551">_bodyTrigger(evt: Event) : void</text><!--MD5=[a6511191e08b4cc3c43deebe64ad29c8]
class OrientationChange--><rect codeLine="37" fill="#FFFFFF" filter="url(#fcxpn2qapqw4t)" height="104.7754" id="OrientationChange" style="stroke:#272B30;stroke-width:1.5;" width="295" x="591" y="351.5"/><ellipse cx="681.25" cy="367.5" fill="#ADD1B2" rx="11" ry="11" style="stroke:#272B30;stroke-width:1.0;"/><path d="M683.7231,373.6431 Q683.1421,373.9419 682.5029,374.0913 Q681.8638,374.2407 681.1582,374.2407 Q678.6514,374.2407 677.3315,372.5889 Q676.0117,370.937 676.0117,367.8159 Q676.0117,364.6865 677.3315,363.0347 Q678.6514,361.3828 681.1582,361.3828 Q681.8638,361.3828 682.5112,361.5322 Q683.1587,361.6816 683.7231,361.9805 L683.7231,364.7031 Q683.0923,364.1221 682.4988,363.8523 Q681.9053,363.5825 681.2744,363.5825 Q679.9297,363.5825 679.2449,364.6492 Q678.5601,365.7158 678.5601,367.8159 Q678.5601,369.9077 679.2449,370.9744 Q679.9297,372.041 681.2744,372.041 Q681.9053,372.041 682.4988,371.7712 Q683.0923,371.5015 683.7231,370.9204 Z " fill="#000000"/><text fill="#000000" font-family="sans-serif" font-size="12" lengthAdjust="spacing" textLength="106" x="701.75" y="372.0352">OrientationChange</text><line style="stroke:#272B30;stroke-width:1.5;" x1="592" x2="885" y1="383.5" y2="383.5"/><ellipse cx="602" cy="394.5" fill="#84BE84" rx="3" ry="3" style="stroke:#038048;stroke-width:1.0;"/><text fill="#000000" font-family="sans-serif" font-size="11" lengthAdjust="spacing" textLength="205" x="611" y="398.1348">addHandler(handler: OSGeneric) : void</text><ellipse cx="602" cy="407.4551" fill="#84BE84" rx="3" ry="3" style="stroke:#038048;stroke-width:1.0;"/><text fill="#000000" font-family="sans-serif" font-size="11" lengthAdjust="spacing" textLength="127" x="611" y="411.0898">hasHandlers() : boolean</text><ellipse cx="602" cy="420.4102" fill="#84BE84" rx="3" ry="3" style="stroke:#038048;stroke-width:1.0;"/><text fill="#000000" font-family="sans-serif" font-size="11" lengthAdjust="spacing" textLength="225" x="611" y="424.0449">removeHandler(handler: OSGeneric) : void</text><ellipse cx="602" cy="433.3652" fill="#84BE84" rx="3" ry="3" style="stroke:#038048;stroke-width:1.0;"/><text fill="#000000" font-family="sans-serif" font-size="11" lengthAdjust="spacing" textLength="231" x="611" y="437">trigger(data: string, args: unknown[]) : void</text><rect fill="#F24D5C" height="6" style="stroke:#C82930;stroke-width:1.0;" width="6" x="599" y="443.3203"/><text fill="#000000" font-family="sans-serif" font-size="11" lengthAdjust="spacing" textLength="269" x="611" y="449.9551">_orientationTrigger(evt: OrientationChange) : void</text><!--MD5=[cd84bac72777306b7212405d8f5fec3a]
class WindowResize--><rect codeLine="45" fill="#FFFFFF" filter="url(#fcxpn2qapqw4t)" height="125.7305" id="WindowResize" style="stroke:#272B30;stroke-width:1.5;" width="257" x="921" y="341"/><ellipse cx="1004.25" cy="357" fill="#ADD1B2" rx="11" ry="11" style="stroke:#272B30;stroke-width:1.0;"/><path d="M1006.7231,363.1431 Q1006.1421,363.4419 1005.5029,363.5913 Q1004.8638,363.7407 1004.1582,363.7407 Q1001.6514,363.7407 1000.3315,362.0889 Q999.0117,360.437 999.0117,357.3159 Q999.0117,354.1865 1000.3315,352.5347 Q1001.6514,350.8828 1004.1582,350.8828 Q1004.8638,350.8828 1005.5112,351.0322 Q1006.1587,351.1816 1006.7231,351.4805 L1006.7231,354.2031 Q1006.0923,353.6221 1005.4988,353.3523 Q1004.9053,353.0825 1004.2744,353.0825 Q1002.9297,353.0825 1002.2449,354.1492 Q1001.5601,355.2158 1001.5601,357.3159 Q1001.5601,359.4077 1002.2449,360.4744 Q1002.9297,361.541 1004.2744,361.541 Q1004.9053,361.541 1005.4988,361.2712 Q1006.0923,361.0015 1006.7231,360.4204 Z " fill="#000000"/><text fill="#000000" font-family="sans-serif" font-size="12" lengthAdjust="spacing" textLength="82" x="1024.75" y="361.5352">WindowResize</text><line style="stroke:#272B30;stroke-width:1.5;" x1="922" x2="1177" y1="373" y2="373"/><rect fill="none" height="6" style="stroke:#C82930;stroke-width:1.0;" width="6" x="929" y="381"/><text fill="#000000" font-family="sans-serif" font-size="11" lengthAdjust="spacing" textLength="98" x="941" y="387.6348">_timeout : number</text><line style="stroke:#272B30;stroke-width:1.5;" x1="922" x2="1177" y1="393.9551" y2="393.9551"/><ellipse cx="932" cy="404.9551" fill="#84BE84" rx="3" ry="3" style="stroke:#038048;stroke-width:1.0;"/><text fill="#000000" font-family="sans-serif" font-size="11" lengthAdjust="spacing" textLength="205" x="941" y="408.5898">addHandler(handler: OSGeneric) : void</text><ellipse cx="932" cy="417.9102" fill="#84BE84" rx="3" ry="3" style="stroke:#038048;stroke-width:1.0;"/><text fill="#000000" font-family="sans-serif" font-size="11" lengthAdjust="spacing" textLength="127" x="941" y="421.5449">hasHandlers() : boolean</text><ellipse cx="932" cy="430.8652" fill="#84BE84" rx="3" ry="3" style="stroke:#038048;stroke-width:1.0;"/><text fill="#000000" font-family="sans-serif" font-size="11" lengthAdjust="spacing" textLength="225" x="941" y="434.5">removeHandler(handler: OSGeneric) : void</text><ellipse cx="932" cy="443.8203" fill="#84BE84" rx="3" ry="3" style="stroke:#038048;stroke-width:1.0;"/><text fill="#000000" font-family="sans-serif" font-size="11" lengthAdjust="spacing" textLength="231" x="941" y="447.4551">trigger(data: string, args: unknown[]) : void</text><rect fill="#F24D5C" height="6" style="stroke:#C82930;stroke-width:1.0;" width="6" x="929" y="453.7754"/><text fill="#000000" font-family="sans-serif" font-size="11" lengthAdjust="spacing" textLength="223" x="941" y="460.4102">_windowTrigger(evt: WindowResize) : void</text><!--MD5=[f7b1256a464262a81d5827fb39e684fb]
class Open--><rect codeLine="61" fill="#FFFFFF" filter="url(#fcxpn2qapqw4t)" height="143.6406" id="Open" style="stroke:#272B30;stroke-width:1.5;" width="257" x="1213" y="332"/><ellipse cx="1321.75" cy="348" fill="#ADD1B2" rx="11" ry="11" style="stroke:#272B30;stroke-width:1.0;"/><path d="M1324.2231,354.1431 Q1323.6421,354.4419 1323.0029,354.5913 Q1322.3638,354.7407 1321.6582,354.7407 Q1319.1514,354.7407 1317.8315,353.0889 Q1316.5117,351.437 1316.5117,348.3159 Q1316.5117,345.1865 1317.8315,343.5347 Q1319.1514,341.8828 1321.6582,341.8828 Q1322.3638,341.8828 1323.0112,342.0322 Q1323.6587,342.1816 1324.2231,342.4805 L1324.2231,345.2031 Q1323.5923,344.6221 1322.9988,344.3523 Q1322.4053,344.0825 1321.7744,344.0825 Q1320.4297,344.0825 1319.7449,345.1492 Q1319.0601,346.2158 1319.0601,348.3159 Q1319.0601,350.4077 1319.7449,351.4744 Q1320.4297,352.541 1321.7744,352.541 Q1322.4053,352.541 1322.9988,352.2712 Q1323.5923,352.0015 1324.2231,351.4204 Z " fill="#000000"/><text fill="#000000" font-family="sans-serif" font-size="12" lengthAdjust="spacing" textLength="31" x="1342.25" y="352.5352">Open</text><line style="stroke:#272B30;stroke-width:1.5;" x1="1214" x2="1469" y1="364" y2="364"/><ellipse cx="1224" cy="375" fill="#84BE84" rx="3" ry="3" style="stroke:#038048;stroke-width:1.0;"/><text fill="#000000" font-family="sans-serif" font-size="11" lengthAdjust="spacing" textLength="205" x="1233" y="378.6348">addHandler(handler: OSGeneric) : void</text><ellipse cx="1224" cy="387.9551" fill="#84BE84" rx="3" ry="3" style="stroke:#038048;stroke-width:1.0;"/><text fill="#000000" font-family="sans-serif" font-size="11" lengthAdjust="spacing" textLength="127" x="1233" y="391.5898">hasHandlers() : boolean</text><ellipse cx="1224" cy="400.9102" fill="#84BE84" rx="3" ry="3" style="stroke:#038048;stroke-width:1.0;"/><text fill="#000000" font-family="sans-serif" font-size="11" lengthAdjust="spacing" textLength="225" x="1233" y="404.5449">removeHandler(handler: OSGeneric) : void</text><ellipse cx="1224" cy="413.8652" fill="#84BE84" rx="3" ry="3" style="stroke:#038048;stroke-width:1.0;"/><text fill="#000000" font-family="sans-serif" font-size="11" lengthAdjust="spacing" textLength="231" x="1233" y="417.5">trigger(data: string, args: unknown[]) : void</text><ellipse cx="1224" cy="426.8203" fill="#84BE84" rx="3" ry="3" style="stroke:#038048;stroke-width:1.0;"/><text fill="#000000" font-family="sans-serif" font-size="11" lengthAdjust="spacing" textLength="205" x="1233" y="430.4551">addHandler(handler: OSGeneric) : void</text><ellipse cx="1224" cy="439.7754" fill="#84BE84" rx="3" ry="3" style="stroke:#038048;stroke-width:1.0;"/><text fill="#000000" font-family="sans-serif" font-size="11" lengthAdjust="spacing" textLength="127" x="1233" y="443.4102">hasHandlers() : boolean</text><ellipse cx="1224" cy="452.7305" fill="#84BE84" rx="3" ry="3" style="stroke:#038048;stroke-width:1.0;"/><text fill="#000000" font-family="sans-serif" font-size="11" lengthAdjust="spacing" textLength="225" x="1233" y="456.3652">removeHandler(handler: OSGeneric) : void</text><ellipse cx="1224" cy="465.6855" fill="#84BE84" rx="3" ry="3" style="stroke:#038048;stroke-width:1.0;"/><text fill="#000000" font-family="sans-serif" font-size="11" lengthAdjust="spacing" textLength="231" x="1233" y="469.3203">trigger(data: string, args: unknown[]) : void</text><!--MD5=[945351c2f0e932975334504fc0763d05]
reverse link IEvent<T> to AbstractEvent<T>--><path codeLine="20" d="M893.5,119.15 C893.5,132.32 893.5,146.05 893.5,158.85 " fill="none" id="IEvent&lt;T&gt;-backto-AbstractEvent&lt;T&gt;" style="stroke:#272B30;stroke-width:1.0;stroke-dasharray:7.0,7.0;"/><polygon fill="none" points="886.5,119.14,893.5,99.14,900.5,119.14,886.5,119.14" style="stroke:#272B30;stroke-width:1.0;"/><!--MD5=[f2bd2e4a99adbff77b68af4753426ca7]
reverse link AbstractEvent<T> to BodyOnClick--><path codeLine="28" d="M747.93,232.88 C622.17,249.64 436.75,280.62 281.5,332 C265.31,337.36 248.62,344.15 232.57,351.39 " fill="none" id="AbstractEvent&lt;T&gt;-backto-BodyOnClick" style="stroke:#272B30;stroke-width:1.0;"/><polygon fill="none" points="747.23,225.91,767.97,230.27,749.05,239.8,747.23,225.91" style="stroke:#272B30;stroke-width:1.0;"/><!--MD5=[a361735e8b25d81a62d10f8b83d22c52]
reverse link AbstractEvent<T> to BodyOnScroll--><path codeLine="36" d="M748.5,265.16 C693.23,284.67 629.96,308.16 573.5,332 C559.35,337.97 544.61,344.62 530.16,351.39 " fill="none" id="AbstractEvent&lt;T&gt;-backto-BodyOnScroll" style="stroke:#272B30;stroke-width:1.0;"/><polygon fill="none" points="746.51,258.45,767.7,258.44,751.14,271.66,746.51,258.45" style="stroke:#272B30;stroke-width:1.0;"/><!--MD5=[7d4ae3d8bc924e1e22d4321b295725b2]
reverse link AbstractEvent<T> to OrientationChange--><path codeLine="44" d="M834.36,287.66 C816.73,308.87 797.76,331.7 781.38,351.41 " fill="none" id="AbstractEvent&lt;T&gt;-backto-OrientationChange" style="stroke:#272B30;stroke-width:1.0;"/><polygon fill="none" points="829.04,283.11,847.2,272.2,839.8,292.06,829.04,283.11" style="stroke:#272B30;stroke-width:1.0;"/><!--MD5=[3365a05876baa6859c4ee763e8b0d979]
reverse link AbstractEvent<T> to WindowResize--><path codeLine="53" d="M952.94,287.56 C967.58,305.07 983.15,323.68 997.41,340.73 " fill="none" id="AbstractEvent&lt;T&gt;-backto-WindowResize" style="stroke:#272B30;stroke-width:1.0;"/><polygon fill="none" points="947.56,292.04,940.09,272.2,958.3,283.05,947.56,292.04" style="stroke:#272B30;stroke-width:1.0;"/><!--MD5=[534dca61fed5a644c24b944c18480543]
reverse link AbstractEvent<T> to Open--><path codeLine="60" d="M1037.9,274.98 C1083.17,292.51 1133.11,312.33 1178.5,332 C1189.62,336.82 1201.12,342.02 1212.65,347.35 " fill="none" id="AbstractEvent&lt;T&gt;-backto-Open" style="stroke:#272B30;stroke-width:1.0;"/><polygon fill="none" points="1035.29,281.47,1019.15,267.74,1040.33,268.41,1035.29,281.47" style="stroke:#272B30;stroke-width:1.0;"/><!--MD5=[534dca61fed5a644c24b944c18480543]
reverse link AbstractEvent<T> to Open--><path codeLine="67" d="M1038.01,262.6 C1093.44,282.8 1156.76,307.42 1213.13,331.84 " fill="none" id="AbstractEvent&lt;T&gt;-backto-Open-1" style="stroke:#272B30;stroke-width:1.0;"/><polygon fill="none" points="1035.58,269.17,1019.15,255.79,1040.33,256,1035.58,269.17" style="stroke:#272B30;stroke-width:1.0;"/><!--MD5=[98abc9c6fb921888df7e9b3a61be6984]
@startuml
skinparam ClassArrowColor #272b30
skinparam ClassBorderColor #272b30
skinparam ClassBackgroundColor #fff
skinparam BackgroundColor #ced4da
hide empty methods
hide empty fields
abstract class "AbstractEvent<T>" {
    -_handlers : OSGeneric[]
    +addHandler(handler: OSGeneric) : void
    +hasHandlers() : boolean
    +removeHandler(handler: OSGeneric) : void
    +trigger(data: T, args: unknown[]) : void
}
interface "IEvent<T>" {
    +addHandler(handler: OSGeneric, args: any[]) : void
    +hasHandlers() : boolean
    +removeHandler(handler: OSGeneric) : void
    +trigger(data: T, args: unknown[]) : unknown
}
"IEvent<T>" <|.. "AbstractEvent<T>"
class "BodyOnClick" {
    +addHandler(handler: OSGeneric) : void
    +hasHandlers() : boolean
    +removeHandler(handler: OSGeneric) : void
    +trigger(data: string, args: unknown[]) : void
    -_bodyTrigger(evt: PointerEvent) : void
}
"AbstractEvent<T>" <|- - "BodyOnClick"
class "BodyOnScroll" {
    +addHandler(handler: OSGeneric) : void
    +hasHandlers() : boolean
    +removeHandler(handler: OSGeneric) : void
    +trigger(data: string, args: unknown[]) : void
    -_bodyTrigger(evt: Event) : void
}
"AbstractEvent<T>" <|- - "BodyOnScroll"
class "OrientationChange" {
    +addHandler(handler: OSGeneric) : void
    +hasHandlers() : boolean
    +removeHandler(handler: OSGeneric) : void
    +trigger(data: string, args: unknown[]) : void
    -_orientationTrigger(evt: OrientationChange) : void
}
"AbstractEvent<T>" <|- - "OrientationChange"
class "WindowResize" {
    -_timeout : number
    +addHandler(handler: OSGeneric) : void
    +hasHandlers() : boolean
    +removeHandler(handler: OSGeneric) : void
    +trigger(data: string, args: unknown[]) : void
    -_windowTrigger(evt: WindowResize) : void
}
"AbstractEvent<T>" <|- - "WindowResize"
class "Open" {
    +addHandler(handler: OSGeneric) : void
    +hasHandlers() : boolean
    +removeHandler(handler: OSGeneric) : void
    +trigger(data: string, args: unknown[]) : void
}
"AbstractEvent<T>" <|- - "Open"
class "Open" {
    +addHandler(handler: OSGeneric) : void
    +hasHandlers() : boolean
    +removeHandler(handler: OSGeneric) : void
    +trigger(data: string, args: unknown[]) : void
}
"AbstractEvent<T>" <|- - "Open"
@enduml

PlantUML version 1.2021.14(Fri Nov 12 16:46:50 WET 2021)
(GPL source distribution)
Java Runtime: Java(TM) SE Runtime Environment
JVM: Java HotSpot(TM) 64-Bit Server VM
Default Encoding: UTF-8
Language: en
Country: PT
--></g></svg>