<?xml version="1.0" encoding="us-ascii" standalone="no"?><svg xmlns="http://www.w3.org/2000/svg" xmlns:xlink="http://www.w3.org/1999/xlink" contentStyleType="text/css" height="1011px" preserveAspectRatio="none" style="width:1155px;height:1011px;background:#CED4DA;" version="1.1" viewBox="0 0 1155 1011" width="1155px" zoomAndPan="magnify"><defs/><g><rect fill="#CED4DA" height="1011" style="stroke:none;stroke-width:1.0;" width="1155" x="0" y="0"/><!--class Accordion--><g id="elem_Accordion"><rect codeLine="7" fill="#FFFFFF" height="493.1836" id="Accordion" rx="2.5" ry="2.5" style="stroke:#272B30;stroke-width:0.5;" width="614" x="293" y="511"/><ellipse cx="560.75" cy="527" fill="#ADD1B2" rx="11" ry="11" style="stroke:#181818;stroke-width:1.0;"/><path d="M563.2231,533.1431 Q562.6421,533.4419 562.0029,533.5913 Q561.3638,533.7407 560.6582,533.7407 Q558.1514,533.7407 556.8315,532.0889 Q555.5117,530.437 555.5117,527.3159 Q555.5117,524.1865 556.8315,522.5347 Q558.1514,520.8828 560.6582,520.8828 Q561.3638,520.8828 562.0112,521.0322 Q562.6587,521.1816 563.2231,521.4805 L563.2231,524.2031 Q562.5923,523.6221 561.9988,523.3523 Q561.4053,523.0825 560.7744,523.0825 Q559.4297,523.0825 558.7449,524.1492 Q558.0601,525.2158 558.0601,527.3159 Q558.0601,529.4077 558.7449,530.4744 Q559.4297,531.541 560.7744,531.541 Q561.4053,531.541 561.9988,531.2712 Q562.5923,531.0015 563.2231,530.4204 Z " fill="#000000"/><text fill="#000000" font-family="sans-serif" font-size="14" lengthAdjust="spacing" textLength="70" x="581.25" y="532.291">Accordion</text><line style="stroke:#272B30;stroke-width:0.5;" x1="294" x2="906" y1="543" y2="543"/><polygon fill="none" points="304,551.7441,308,555.7441,304,559.7441,300,555.7441" style="stroke:#B38D22;stroke-width:1.0;"/><text fill="#000000" font-family="sans-serif" font-size="14" lengthAdjust="spacing" textLength="176" x="313" y="560.5352">isProviderBased : boolean</text><line style="stroke:#272B30;stroke-width:0.5;" x1="294" x2="906" y1="567.4883" y2="567.4883"/><ellipse cx="304" cy="581.2324" fill="#84BE84" rx="3" ry="3" style="stroke:#038048;stroke-width:1.0;"/><text fill="#000000" font-family="sans-serif" font-size="14" lengthAdjust="spacing" textLength="352" x="313" y="585.0234">addAccordionItem(childItem: IAccordionItem) : void</text><ellipse cx="304" cy="597.7207" fill="#84BE84" rx="3" ry="3" style="stroke:#038048;stroke-width:1.0;"/><text fill="#000000" font-family="sans-serif" font-size="14" lengthAdjust="spacing" textLength="588" x="313" y="601.5117">beNotifiedByChild(childItem: IAccordionItem, notifiedTo: ChildNotifyActionType) : void</text><ellipse cx="304" cy="614.209" fill="#84BE84" rx="3" ry="3" style="stroke:#038048;stroke-width:1.0;"/><text fill="#000000" font-family="sans-serif" font-size="14" lengthAdjust="spacing" textLength="86" x="313" y="618">build() : void</text><ellipse cx="304" cy="630.6973" fill="#84BE84" rx="3" ry="3" style="stroke:#038048;stroke-width:1.0;"/><text fill="#000000" font-family="sans-serif" font-size="14" lengthAdjust="spacing" textLength="482" x="313" y="634.4883">changeProperty(propertyName: string, propertyValue: unknown) : void</text><ellipse cx="304" cy="647.1855" fill="#84BE84" rx="3" ry="3" style="stroke:#038048;stroke-width:1.0;"/><text fill="#000000" font-family="sans-serif" font-size="14" lengthAdjust="spacing" textLength="162" x="313" y="650.9766">collapseAllItems() : void</text><ellipse cx="304" cy="663.6738" fill="#84BE84" rx="3" ry="3" style="stroke:#038048;stroke-width:1.0;"/><text fill="#000000" font-family="sans-serif" font-size="14" lengthAdjust="spacing" textLength="104" x="313" y="667.4648">dispose() : void</text><ellipse cx="304" cy="680.1621" fill="#84BE84" rx="3" ry="3" style="stroke:#038048;stroke-width:1.0;"/><text fill="#000000" font-family="sans-serif" font-size="14" lengthAdjust="spacing" textLength="266" x="313" y="683.9531">equalsToID(patternId: string) : boolean</text><ellipse cx="304" cy="696.6504" fill="#84BE84" rx="3" ry="3" style="stroke:#038048;stroke-width:1.0;"/><text fill="#000000" font-family="sans-serif" font-size="14" lengthAdjust="spacing" textLength="158" x="313" y="700.4414">expandAllItems() : void</text><ellipse cx="304" cy="713.1387" fill="#84BE84" rx="3" ry="3" style="stroke:#038048;stroke-width:1.0;"/><text fill="#000000" font-family="sans-serif" font-size="14" lengthAdjust="spacing" textLength="308" x="313" y="716.9297">getChildItems(type: string) : IAccordionItem[]</text><ellipse cx="304" cy="729.627" fill="#84BE84" rx="3" ry="3" style="stroke:#038048;stroke-width:1.0;"/><text fill="#000000" font-family="sans-serif" font-size="14" lengthAdjust="spacing" textLength="428" x="313" y="733.418">registerCallback(eventName: string, callback: OSGeneric) : void</text><ellipse cx="304" cy="746.1152" fill="#84BE84" rx="3" ry="3" style="stroke:#038048;stroke-width:1.0;"/><text fill="#000000" font-family="sans-serif" font-size="14" lengthAdjust="spacing" textLength="296" x="313" y="749.9063">removeAccordionItem(childId: string) : void</text><ellipse cx="304" cy="762.6035" fill="#84BE84" rx="3" ry="3" style="stroke:#038048;stroke-width:1.0;"/><text fill="#000000" font-family="sans-serif" font-size="14" lengthAdjust="spacing" textLength="330" x="313" y="766.3945">triggerAccordionItemClose(childId: string) : void</text><polygon fill="#FFFF44" points="304,774.0918,308,778.0918,304,782.0918,300,778.0918" style="stroke:#B38D22;stroke-width:1.0;"/><text fill="#000000" font-family="sans-serif" font-size="14" lengthAdjust="spacing" textLength="123" x="313" y="782.8828">finishBuild() : void</text><polygon fill="#FFFF44" points="304,790.5801,308,794.5801,304,798.5801,300,794.5801" style="stroke:#B38D22;stroke-width:1.0;"/><text fill="#000000" font-family="sans-serif" font-size="14" lengthAdjust="spacing" textLength="278" x="313" y="799.3711">getChild(childId: string) : IAccordionItem</text><polygon fill="#FFFF44" points="304,807.0684,308,811.0684,304,815.0684,300,811.0684" style="stroke:#B38D22;stroke-width:1.0;"/><text fill="#000000" font-family="sans-serif" font-size="14" lengthAdjust="spacing" textLength="461" x="313" y="815.8594">getChildByIndex(index: number, childType: string) : IAccordionItem</text><polygon fill="#FFFF44" points="304,823.5566,308,827.5566,304,831.5566,300,827.5566" style="stroke:#B38D22;stroke-width:1.0;"/><text fill="#000000" font-family="sans-serif" font-size="14" lengthAdjust="spacing" textLength="267" x="313" y="832.3477">getChildIndex(childId: string) : number</text><polygon fill="#FFFF44" points="304,840.0449,308,844.0449,304,848.0449,300,844.0449" style="stroke:#B38D22;stroke-width:1.0;"/><text fill="#000000" font-family="sans-serif" font-size="14" lengthAdjust="spacing" textLength="178" x="313" y="848.8359">setA11YProperties() : void</text><polygon fill="#FFFF44" points="304,856.5332,308,860.5332,304,864.5332,300,860.5332" style="stroke:#B38D22;stroke-width:1.0;"/><text fill="#000000" font-family="sans-serif" font-size="14" lengthAdjust="spacing" textLength="136" x="313" y="865.3242">setCallbacks() : void</text><polygon fill="#FFFF44" points="304,873.0215,308,877.0215,304,881.0215,300,877.0215" style="stroke:#B38D22;stroke-width:1.0;"/><text fill="#000000" font-family="sans-serif" font-size="14" lengthAdjust="spacing" textLength="282" x="313" y="881.8125">setChild(childItem: IAccordionItem) : void</text><polygon fill="#FFFF44" points="304,889.5098,308,893.5098,304,897.5098,300,893.5098" style="stroke:#B38D22;stroke-width:1.0;"/><text fill="#000000" font-family="sans-serif" font-size="14" lengthAdjust="spacing" textLength="165" x="313" y="898.3008">setHtmlElements() : void</text><polygon fill="#FFFF44" points="304,905.998,308,909.998,304,913.998,300,909.998" style="stroke:#B38D22;stroke-width:1.0;"/><text fill="#000000" font-family="sans-serif" font-size="14" lengthAdjust="spacing" textLength="570" x="313" y="914.7891">triggerPlatformEventCallback(platFormCallback: OSGeneric, args: unknown[]) : void</text><polygon fill="#FFFF44" points="304,922.4863,308,926.4863,304,930.4863,300,926.4863" style="stroke:#B38D22;stroke-width:1.0;"/><text fill="#000000" font-family="sans-serif" font-size="14" lengthAdjust="spacing" textLength="318" x="313" y="931.2773">triggerPlatformInitializedEventCallback() : void</text><polygon fill="#FFFF44" points="304,938.9746,308,942.9746,304,946.9746,300,942.9746" style="stroke:#B38D22;stroke-width:1.0;"/><text fill="#000000" font-family="sans-serif" font-size="14" lengthAdjust="spacing" textLength="154" x="313" y="947.7656">unsetCallbacks() : void</text><polygon fill="#FFFF44" points="304,955.4629,308,959.4629,304,963.4629,300,959.4629" style="stroke:#B38D22;stroke-width:1.0;"/><text fill="#000000" font-family="sans-serif" font-size="14" lengthAdjust="spacing" textLength="219" x="313" y="964.2539">unsetChild(childId: string) : void</text><polygon fill="#FFFF44" points="304,971.9512,308,975.9512,304,979.9512,300,975.9512" style="stroke:#B38D22;stroke-width:1.0;"/><text fill="#000000" font-family="sans-serif" font-size="14" lengthAdjust="spacing" textLength="198" x="313" y="980.7422">unsetGlobalCallbacks() : void</text><polygon fill="#FFFF44" points="304,988.4395,308,992.4395,304,996.4395,300,992.4395" style="stroke:#B38D22;stroke-width:1.0;"/><text fill="#000000" font-family="sans-serif" font-size="14" lengthAdjust="spacing" textLength="183" x="313" y="997.2305">unsetHtmlElements() : void</text></g><!--class AbstractParent<AccordionConfig, IAccordionItem>--><g id="elem_AbstractParent&lt;AccordionConfig, IAccordionItem&gt;"><rect codeLine="36" fill="#FFFFFF" height="443.7188" id="AbstractParent&lt;AccordionConfig, IAccordionItem&gt;" rx="2.5" ry="2.5" style="stroke:#272B30;stroke-width:0.5;" width="596" x="9" y="7"/><ellipse cx="127.25" cy="23" fill="#A9DCDF" rx="11" ry="11" style="stroke:#181818;stroke-width:1.0;"/><path d="M127.1133,18.3481 L125.9595,23.4199 L128.2754,23.4199 Z M125.6191,16.1069 L128.6157,16.1069 L131.9609,28.5 L129.5122,28.5 L128.7485,25.437 L125.4697,25.437 L124.7227,28.5 L122.2739,28.5 Z " fill="#000000"/><text fill="#000000" font-family="sans-serif" font-size="14" font-style="italic" lengthAdjust="spacing" textLength="351" x="147.75" y="28.291">AbstractParent&lt;AccordionConfig, IAccordionItem&gt;</text><line style="stroke:#272B30;stroke-width:0.5;" x1="10" x2="604" y1="39" y2="39"/><polygon fill="none" points="20,47.7441,24,51.7441,20,55.7441,16,51.7441" style="stroke:#B38D22;stroke-width:1.0;"/><text fill="#000000" font-family="sans-serif" font-size="14" lengthAdjust="spacing" textLength="176" x="29" y="56.5352">isProviderBased : boolean</text><rect fill="none" height="6" style="stroke:#C82930;stroke-width:1.0;" width="6" x="17" y="66.2324"/><text fill="#000000" font-family="sans-serif" font-size="14" lengthAdjust="spacing" textLength="259" x="29" y="73.0234">_childIdsByType : Map&lt;string, string&gt;</text><rect fill="none" height="6" style="stroke:#C82930;stroke-width:1.0;" width="6" x="17" y="82.7207"/><text fill="#000000" font-family="sans-serif" font-size="14" lengthAdjust="spacing" textLength="181" x="29" y="89.5117">_childItemsByType : Object</text><line style="stroke:#272B30;stroke-width:0.5;" x1="10" x2="604" y1="96.4648" y2="96.4648"/><ellipse cx="20" cy="110.209" fill="#84BE84" rx="3" ry="3" style="stroke:#038048;stroke-width:1.0;"/><text fill="#000000" font-family="sans-serif" font-size="14" font-style="italic" lengthAdjust="spacing" textLength="475" x="29" y="114">beNotifiedByChild(childItem: IAccordionItem, notifiedTo: string) : void</text><ellipse cx="20" cy="126.6973" fill="#84BE84" rx="3" ry="3" style="stroke:#038048;stroke-width:1.0;"/><text fill="#000000" font-family="sans-serif" font-size="14" lengthAdjust="spacing" textLength="86" x="29" y="130.4883">build() : void</text><ellipse cx="20" cy="143.1855" fill="#84BE84" rx="3" ry="3" style="stroke:#038048;stroke-width:1.0;"/><text fill="#000000" font-family="sans-serif" font-size="14" lengthAdjust="spacing" textLength="482" x="29" y="146.9766">changeProperty(propertyName: string, propertyValue: unknown) : void</text><ellipse cx="20" cy="159.6738" fill="#84BE84" rx="3" ry="3" style="stroke:#038048;stroke-width:1.0;"/><text fill="#000000" font-family="sans-serif" font-size="14" lengthAdjust="spacing" textLength="104" x="29" y="163.4648">dispose() : void</text><ellipse cx="20" cy="176.1621" fill="#84BE84" rx="3" ry="3" style="stroke:#038048;stroke-width:1.0;"/><text fill="#000000" font-family="sans-serif" font-size="14" lengthAdjust="spacing" textLength="266" x="29" y="179.9531">equalsToID(patternId: string) : boolean</text><ellipse cx="20" cy="192.6504" fill="#84BE84" rx="3" ry="3" style="stroke:#038048;stroke-width:1.0;"/><text fill="#000000" font-family="sans-serif" font-size="14" lengthAdjust="spacing" textLength="308" x="29" y="196.4414">getChildItems(type: string) : IAccordionItem[]</text><ellipse cx="20" cy="209.1387" fill="#84BE84" rx="3" ry="3" style="stroke:#038048;stroke-width:1.0;"/><text fill="#000000" font-family="sans-serif" font-size="14" lengthAdjust="spacing" textLength="428" x="29" y="212.9297">registerCallback(eventName: string, callback: OSGeneric) : void</text><polygon fill="#FFFF44" points="20,220.627,24,224.627,20,228.627,16,224.627" style="stroke:#B38D22;stroke-width:1.0;"/><text fill="#000000" font-family="sans-serif" font-size="14" lengthAdjust="spacing" textLength="123" x="29" y="229.418">finishBuild() : void</text><polygon fill="#FFFF44" points="20,237.1152,24,241.1152,20,245.1152,16,241.1152" style="stroke:#B38D22;stroke-width:1.0;"/><text fill="#000000" font-family="sans-serif" font-size="14" lengthAdjust="spacing" textLength="278" x="29" y="245.9063">getChild(childId: string) : IAccordionItem</text><polygon fill="#FFFF44" points="20,253.6035,24,257.6035,20,261.6035,16,257.6035" style="stroke:#B38D22;stroke-width:1.0;"/><text fill="#000000" font-family="sans-serif" font-size="14" lengthAdjust="spacing" textLength="461" x="29" y="262.3945">getChildByIndex(index: number, childType: string) : IAccordionItem</text><polygon fill="#FFFF44" points="20,270.0918,24,274.0918,20,278.0918,16,274.0918" style="stroke:#B38D22;stroke-width:1.0;"/><text fill="#000000" font-family="sans-serif" font-size="14" lengthAdjust="spacing" textLength="267" x="29" y="278.8828">getChildIndex(childId: string) : number</text><polygon fill="#FFFF44" points="20,286.5801,24,290.5801,20,294.5801,16,290.5801" style="stroke:#B38D22;stroke-width:1.0;"/><text fill="#000000" font-family="sans-serif" font-size="14" font-style="italic" lengthAdjust="spacing" textLength="178" x="29" y="295.3711">setA11YProperties() : void</text><polygon fill="#FFFF44" points="20,303.0684,24,307.0684,20,311.0684,16,307.0684" style="stroke:#B38D22;stroke-width:1.0;"/><text fill="#000000" font-family="sans-serif" font-size="14" font-style="italic" lengthAdjust="spacing" textLength="136" x="29" y="311.8594">setCallbacks() : void</text><polygon fill="#FFFF44" points="20,319.5566,24,323.5566,20,327.5566,16,323.5566" style="stroke:#B38D22;stroke-width:1.0;"/><text fill="#000000" font-family="sans-serif" font-size="14" lengthAdjust="spacing" textLength="282" x="29" y="328.3477">setChild(childItem: IAccordionItem) : void</text><polygon fill="#FFFF44" points="20,336.0449,24,340.0449,20,344.0449,16,340.0449" style="stroke:#B38D22;stroke-width:1.0;"/><text fill="#000000" font-family="sans-serif" font-size="14" font-style="italic" lengthAdjust="spacing" textLength="165" x="29" y="344.8359">setHtmlElements() : void</text><polygon fill="#FFFF44" points="20,352.5332,24,356.5332,20,360.5332,16,356.5332" style="stroke:#B38D22;stroke-width:1.0;"/><text fill="#000000" font-family="sans-serif" font-size="14" lengthAdjust="spacing" textLength="570" x="29" y="361.3242">triggerPlatformEventCallback(platFormCallback: OSGeneric, args: unknown[]) : void</text><polygon fill="#FFFF44" points="20,369.0215,24,373.0215,20,377.0215,16,373.0215" style="stroke:#B38D22;stroke-width:1.0;"/><text fill="#000000" font-family="sans-serif" font-size="14" lengthAdjust="spacing" textLength="318" x="29" y="377.8125">triggerPlatformInitializedEventCallback() : void</text><polygon fill="#FFFF44" points="20,385.5098,24,389.5098,20,393.5098,16,389.5098" style="stroke:#B38D22;stroke-width:1.0;"/><text fill="#000000" font-family="sans-serif" font-size="14" font-style="italic" lengthAdjust="spacing" textLength="154" x="29" y="394.3008">unsetCallbacks() : void</text><polygon fill="#FFFF44" points="20,401.998,24,405.998,20,409.998,16,405.998" style="stroke:#B38D22;stroke-width:1.0;"/><text fill="#000000" font-family="sans-serif" font-size="14" lengthAdjust="spacing" textLength="219" x="29" y="410.7891">unsetChild(childId: string) : void</text><polygon fill="#FFFF44" points="20,418.4863,24,422.4863,20,426.4863,16,422.4863" style="stroke:#B38D22;stroke-width:1.0;"/><text fill="#000000" font-family="sans-serif" font-size="14" lengthAdjust="spacing" textLength="198" x="29" y="427.2773">unsetGlobalCallbacks() : void</text><polygon fill="#FFFF44" points="20,434.9746,24,438.9746,20,442.9746,16,438.9746" style="stroke:#B38D22;stroke-width:1.0;"/><text fill="#000000" font-family="sans-serif" font-size="14" font-style="italic" lengthAdjust="spacing" textLength="183" x="29" y="443.7656">unsetHtmlElements() : void</text></g><!--class IAccordion--><g id="elem_IAccordion"><rect codeLine="63" fill="#FFFFFF" height="295.3242" id="IAccordion" rx="2.5" ry="2.5" style="stroke:#272B30;stroke-width:0.5;" width="508" x="640" y="81.5"/><ellipse cx="852.75" cy="97.5" fill="#B4A7E5" rx="11" ry="11" style="stroke:#181818;stroke-width:1.0;"/><path d="M849.1777,93.7651 L849.1777,91.6069 L856.5571,91.6069 L856.5571,93.7651 L854.0918,93.7651 L854.0918,101.8418 L856.5571,101.8418 L856.5571,104 L849.1777,104 L849.1777,101.8418 L851.6431,101.8418 L851.6431,93.7651 Z " fill="#000000"/><text fill="#000000" font-family="sans-serif" font-size="14" font-style="italic" lengthAdjust="spacing" textLength="74" x="873.25" y="102.791">IAccordion</text><line style="stroke:#272B30;stroke-width:0.5;" x1="641" x2="1147" y1="113.5" y2="113.5"/><ellipse cx="651" cy="127.2441" fill="none" rx="3" ry="3" style="stroke:#038048;stroke-width:1.0;"/><text fill="#000000" font-family="sans-serif" font-size="14" lengthAdjust="spacing" textLength="109" x="660" y="131.0352">isBuilt : boolean</text><ellipse cx="651" cy="143.7324" fill="none" rx="3" ry="3" style="stroke:#038048;stroke-width:1.0;"/><text fill="#000000" font-family="sans-serif" font-size="14" lengthAdjust="spacing" textLength="184" x="660" y="147.5234">selfElement : HTMLElement</text><ellipse cx="651" cy="160.2207" fill="none" rx="3" ry="3" style="stroke:#038048;stroke-width:1.0;"/><text fill="#000000" font-family="sans-serif" font-size="14" lengthAdjust="spacing" textLength="113" x="660" y="164.0117">uniqueId : string</text><ellipse cx="651" cy="176.709" fill="none" rx="3" ry="3" style="stroke:#038048;stroke-width:1.0;"/><text fill="#000000" font-family="sans-serif" font-size="14" lengthAdjust="spacing" textLength="111" x="660" y="180.5">widgetId : string</text><line style="stroke:#272B30;stroke-width:0.5;" x1="641" x2="1147" y1="187.4531" y2="187.4531"/><ellipse cx="651" cy="201.1973" fill="#84BE84" rx="3" ry="3" style="stroke:#038048;stroke-width:1.0;"/><text fill="#000000" font-family="sans-serif" font-size="14" lengthAdjust="spacing" textLength="387" x="660" y="204.9883">addAccordionItem(accordionItem: IAccordionItem) : void</text><ellipse cx="651" cy="217.6855" fill="#84BE84" rx="3" ry="3" style="stroke:#038048;stroke-width:1.0;"/><text fill="#000000" font-family="sans-serif" font-size="14" lengthAdjust="spacing" textLength="411" x="660" y="221.4766">beNotifiedByChild(childItem: IChild, notifiedTo: string) : void</text><ellipse cx="651" cy="234.1738" fill="#84BE84" rx="3" ry="3" style="stroke:#038048;stroke-width:1.0;"/><text fill="#000000" font-family="sans-serif" font-size="14" lengthAdjust="spacing" textLength="86" x="660" y="237.9648">build() : void</text><ellipse cx="651" cy="250.6621" fill="#84BE84" rx="3" ry="3" style="stroke:#038048;stroke-width:1.0;"/><text fill="#000000" font-family="sans-serif" font-size="14" lengthAdjust="spacing" textLength="482" x="660" y="254.4531">changeProperty(propertyName: string, propertyValue: unknown) : void</text><ellipse cx="651" cy="267.1504" fill="#84BE84" rx="3" ry="3" style="stroke:#038048;stroke-width:1.0;"/><text fill="#000000" font-family="sans-serif" font-size="14" lengthAdjust="spacing" textLength="162" x="660" y="270.9414">collapseAllItems() : void</text><ellipse cx="651" cy="283.6387" fill="#84BE84" rx="3" ry="3" style="stroke:#038048;stroke-width:1.0;"/><text fill="#000000" font-family="sans-serif" font-size="14" lengthAdjust="spacing" textLength="104" x="660" y="287.4297">dispose() : void</text><ellipse cx="651" cy="300.127" fill="#84BE84" rx="3" ry="3" style="stroke:#038048;stroke-width:1.0;"/><text fill="#000000" font-family="sans-serif" font-size="14" lengthAdjust="spacing" textLength="216" x="660" y="303.918">equalsToID(id: string) : boolean</text><ellipse cx="651" cy="316.6152" fill="#84BE84" rx="3" ry="3" style="stroke:#038048;stroke-width:1.0;"/><text fill="#000000" font-family="sans-serif" font-size="14" lengthAdjust="spacing" textLength="158" x="660" y="320.4063">expandAllItems() : void</text><ellipse cx="651" cy="333.1035" fill="#84BE84" rx="3" ry="3" style="stroke:#038048;stroke-width:1.0;"/><text fill="#000000" font-family="sans-serif" font-size="14" lengthAdjust="spacing" textLength="428" x="660" y="336.8945">registerCallback(eventName: string, callback: OSGeneric) : void</text><ellipse cx="651" cy="349.5918" fill="#84BE84" rx="3" ry="3" style="stroke:#038048;stroke-width:1.0;"/><text fill="#000000" font-family="sans-serif" font-size="14" lengthAdjust="spacing" textLength="311" x="660" y="353.3828">removeAccordionItem(uniqueId: string) : void</text><ellipse cx="651" cy="366.0801" fill="#84BE84" rx="3" ry="3" style="stroke:#038048;stroke-width:1.0;"/><text fill="#000000" font-family="sans-serif" font-size="14" lengthAdjust="spacing" textLength="395" x="660" y="369.8711">triggerAccordionItemClose(accordionItemId: string) : void</text></g><!--reverse link AbstractParent<AccordionConfig, IAccordionItem> to Accordion--><g id="link_AbstractParent&lt;AccordionConfig, IAccordionItem&gt;_Accordion"><path codeLine="62" d="M439.99,468.98 C447.76,482.93 455.57,496.97 463.34,510.94 " fill="none" id="AbstractParent&lt;AccordionConfig, IAccordionItem&gt;-backto-Accordion" style="stroke:#272B30;stroke-width:1.0;"/><polygon fill="none" points="433.81,472.26,430.2,451.38,446.04,465.45,433.81,472.26" style="stroke:#272B30;stroke-width:1.0;"/></g><!--reverse link IAccordion to Accordion--><g id="link_IAccordion_Accordion"><path codeLine="80" d="M802.27,394.27 C781.62,431.25 759.27,471.28 737.21,510.78 " fill="none" id="IAccordion-backto-Accordion" style="stroke:#272B30;stroke-width:1.0;stroke-dasharray:7.0,7.0;"/><polygon fill="none" points="796.24,390.71,812.1,376.66,808.47,397.53,796.24,390.71" style="stroke:#272B30;stroke-width:1.0;"/></g><!--SRC=[rLPjJzim4FxUNs7HBqK3DDYaILM5r6OC8eqNQTMa2Q79YI-fXsC7sobam7-VtIHTdAJT6314FwJ9tNDtlXS_EdL9UOebJf37i59ZASMr9vYGgB_tOIzuzxQdNCH4I09oFGI7bx4K6ISbB8gY6gQb3e6y9xWtemGG9AdEKG9w9eYgYo8Ap4X26m1jZCFGd8CAle5kUyZy-bITIJ4tU3d12WWQea081fWlr6ym8KiRNqCo26UK4VisHBwZsJIcSq59OHV0YT3K12UJtBCcgmst42-XKp542_32DX-7sa2cUGeDtvdrvyh26UOnc5HIa3eVfENB2KvWY9IMbCTRg99-nImpuenVSd7D6uu4OpXLC6RC7auruX2gKg6W8OMh33Cr5Vx7GOgr1ibzKeNTR9OKRbBCoGh_CMYlAfGQQ9DxtOzRkFEBmaP2J9K9wc760ZCa0vW3rsxgOQaRejClXy11qj0DB24HS-ZgjPF9RmCZYcEGZeN7R6tMcVKZogcQJTejx5UfTzcxYRluIUvp0ZS3Qfz3nBCa06aojhhfsWAwVWel7S4BZmLOWHxlxduh1ur2etzMNxMXIxN-9hJmHpfX1mmIqywcjxByPmphICZamBPyEG2faNuoKg_TzIs4PQoMmtz-iTQjpwcccD6VGDm8hbN6r-HTA5Trje4xP2B0RAshxgBSzt1WlE9GeuhhokypB0rqjAoq9tX4pPLmQx__buou_RrCGaroErr6VOpJKNNFYlzz1sglyX9y6lo0K2_qjzM9xn_1brrNyra9yWaOyAL8xfMJJsrU_iH33UWJKLB3wojXf_gf_nDHjKAkugo7azJeRdkxliVrA3Ut8i8Xe0s_jTwzeSfEksxUG0KiAizZL4VJuy_bLw7EEBtAmBVSLnIW45zJOkQr9MxjYBZ-zPWzSI5vORvxx498_t4JVBQjhchkGzSwfwiTvcQQwmCukjlPgG_gBm00]--></g></svg>