<?xml version="1.0" encoding="us-ascii" standalone="no"?><svg xmlns="http://www.w3.org/2000/svg" xmlns:xlink="http://www.w3.org/1999/xlink" contentStyleType="text/css" height="1290px" preserveAspectRatio="none" style="width:1236px;height:1290px;background:#CED4DA;" version="1.1" viewBox="0 0 1236 1290" width="1236px" zoomAndPan="magnify"><defs/><g><rect fill="#CED4DA" height="1290" style="stroke:none;stroke-width:1.0;" width="1236" x="0" y="0"/><!--class AccordionItem--><g id="elem_AccordionItem"><rect codeLine="7" fill="#FFFFFF" height="822.9492" id="AccordionItem" rx="2.5" ry="2.5" style="stroke:#272B30;stroke-width:0.5;" width="677" x="323" y="461"/><ellipse cx="607.25" cy="477" fill="#ADD1B2" rx="11" ry="11" style="stroke:#181818;stroke-width:1.0;"/><path d="M609.7231,483.1431 Q609.1421,483.4419 608.5029,483.5913 Q607.8638,483.7407 607.1582,483.7407 Q604.6514,483.7407 603.3315,482.0889 Q602.0117,480.437 602.0117,477.3159 Q602.0117,474.1865 603.3315,472.5347 Q604.6514,470.8828 607.1582,470.8828 Q607.8638,470.8828 608.5112,471.0322 Q609.1587,471.1816 609.7231,471.4805 L609.7231,474.2031 Q609.0923,473.6221 608.4988,473.3523 Q607.9053,473.0825 607.2744,473.0825 Q605.9297,473.0825 605.2449,474.1492 Q604.5601,475.2158 604.5601,477.3159 Q604.5601,479.4077 605.2449,480.4744 Q605.9297,481.541 607.2744,481.541 Q607.9053,481.541 608.4988,481.2712 Q609.0923,481.0015 609.7231,480.4204 Z " fill="#000000"/><text fill="#000000" font-family="sans-serif" font-size="14" lengthAdjust="spacing" textLength="100" x="627.75" y="482.291">AccordionItem</text><line style="stroke:#272B30;stroke-width:0.5;" x1="324" x2="999" y1="493" y2="493"/><polygon fill="none" points="334,501.7441,338,505.7441,334,509.7441,330,505.7441" style="stroke:#B38D22;stroke-width:1.0;"/><text fill="#000000" font-family="sans-serif" font-size="14" lengthAdjust="spacing" textLength="176" x="343" y="510.5352">isProviderBased : boolean</text><rect fill="none" height="6" style="stroke:#C82930;stroke-width:1.0;" width="6" x="331" y="520.2324"/><text fill="#000000" font-family="sans-serif" font-size="14" lengthAdjust="spacing" textLength="298" x="343" y="527.0234">_accordionItemContentElem : HTMLElement</text><rect fill="none" height="6" style="stroke:#C82930;stroke-width:1.0;" width="6" x="331" y="536.7207"/><text fill="#000000" font-family="sans-serif" font-size="14" lengthAdjust="spacing" textLength="325" x="343" y="543.5117">_accordionItemIconCustomElem : HTMLElement</text><rect fill="none" height="6" style="stroke:#C82930;stroke-width:1.0;" width="6" x="331" y="553.209"/><text fill="#000000" font-family="sans-serif" font-size="14" lengthAdjust="spacing" textLength="272" x="343" y="560">_accordionItemIconElem : HTMLElement</text><rect fill="none" height="6" style="stroke:#C82930;stroke-width:1.0;" width="6" x="331" y="569.6973"/><text fill="#000000" font-family="sans-serif" font-size="14" lengthAdjust="spacing" textLength="290" x="343" y="576.4883">_accordionItemPlaceholder : HTMLElement</text><rect fill="none" height="6" style="stroke:#C82930;stroke-width:1.0;" width="6" x="331" y="586.1855"/><text fill="#000000" font-family="sans-serif" font-size="14" lengthAdjust="spacing" textLength="273" x="343" y="592.9766">_accordionItemTitleElem : HTMLElement</text><rect fill="none" height="6" style="stroke:#C82930;stroke-width:1.0;" width="6" x="331" y="602.6738"/><text fill="#000000" font-family="sans-serif" font-size="14" lengthAdjust="spacing" textLength="348" x="343" y="609.4648">_accordionTitleFocusableChildren : HTMLElement[]</text><rect fill="none" height="6" style="stroke:#C82930;stroke-width:1.0;" width="6" x="331" y="619.1621"/><text fill="#000000" font-family="sans-serif" font-size="14" lengthAdjust="spacing" textLength="185" x="343" y="625.9531">_allowTitleEvents : boolean</text><rect fill="none" height="6" style="stroke:#C82930;stroke-width:1.0;" width="6" x="331" y="635.6504"/><text fill="#000000" font-family="sans-serif" font-size="14" lengthAdjust="spacing" textLength="183" x="343" y="642.4414">_collapsedHeight : number</text><rect fill="none" height="6" style="stroke:#C82930;stroke-width:1.0;" width="6" x="331" y="652.1387"/><text fill="#000000" font-family="sans-serif" font-size="14" lengthAdjust="spacing" textLength="161" x="343" y="658.9297">_eventOnClick : Generic</text><rect fill="none" height="6" style="stroke:#C82930;stroke-width:1.0;" width="6" x="331" y="668.627"/><text fill="#000000" font-family="sans-serif" font-size="14" lengthAdjust="spacing" textLength="187" x="343" y="675.418">_eventOnkeyPress : Generic</text><rect fill="none" height="6" style="stroke:#C82930;stroke-width:1.0;" width="6" x="331" y="685.1152"/><text fill="#000000" font-family="sans-serif" font-size="14" lengthAdjust="spacing" textLength="224" x="343" y="691.9063">_eventOnTransitionEnd : Generic</text><rect fill="none" height="6" style="stroke:#C82930;stroke-width:1.0;" width="6" x="331" y="701.6035"/><text fill="#000000" font-family="sans-serif" font-size="14" lengthAdjust="spacing" textLength="187" x="343" y="708.3945">_expandedHeight : number</text><rect fill="none" height="6" style="stroke:#C82930;stroke-width:1.0;" width="6" x="331" y="718.0918"/><text fill="#000000" font-family="sans-serif" font-size="14" lengthAdjust="spacing" textLength="123" x="343" y="724.8828">_isOpen : boolean</text><rect fill="none" height="6" style="stroke:#C82930;stroke-width:1.0;" width="6" x="331" y="734.5801"/><text fill="#000000" font-family="sans-serif" font-size="14" lengthAdjust="spacing" textLength="235" x="343" y="741.3711">_platformEventOnToggle : Generic</text><line style="stroke:#272B30;stroke-width:0.5;" x1="324" x2="999" y1="748.3242" y2="748.3242"/><ellipse cx="334" cy="762.0684" fill="#84BE84" rx="3" ry="3" style="stroke:#038048;stroke-width:1.0;"/><text fill="#000000" font-family="sans-serif" font-size="14" lengthAdjust="spacing" textLength="161" x="343" y="765.8594">allowTitleEvents() : void</text><ellipse cx="334" cy="778.5566" fill="#84BE84" rx="3" ry="3" style="stroke:#038048;stroke-width:1.0;"/><text fill="#000000" font-family="sans-serif" font-size="14" lengthAdjust="spacing" textLength="86" x="343" y="782.3477">build() : void</text><ellipse cx="334" cy="795.0449" fill="#84BE84" rx="3" ry="3" style="stroke:#038048;stroke-width:1.0;"/><text fill="#000000" font-family="sans-serif" font-size="14" lengthAdjust="spacing" textLength="482" x="343" y="798.8359">changeProperty(propertyName: string, propertyValue: unknown) : void</text><ellipse cx="334" cy="811.5332" fill="#84BE84" rx="3" ry="3" style="stroke:#038048;stroke-width:1.0;"/><text fill="#000000" font-family="sans-serif" font-size="14" lengthAdjust="spacing" textLength="86" x="343" y="815.3242">close() : void</text><ellipse cx="334" cy="828.0215" fill="#84BE84" rx="3" ry="3" style="stroke:#038048;stroke-width:1.0;"/><text fill="#000000" font-family="sans-serif" font-size="14" lengthAdjust="spacing" textLength="104" x="343" y="831.8125">dispose() : void</text><ellipse cx="334" cy="844.5098" fill="#84BE84" rx="3" ry="3" style="stroke:#038048;stroke-width:1.0;"/><text fill="#000000" font-family="sans-serif" font-size="14" lengthAdjust="spacing" textLength="266" x="343" y="848.3008">equalsToID(patternId: string) : boolean</text><ellipse cx="334" cy="860.998" fill="#84BE84" rx="3" ry="3" style="stroke:#038048;stroke-width:1.0;"/><text fill="#000000" font-family="sans-serif" font-size="14" lengthAdjust="spacing" textLength="86" x="343" y="864.7891">open() : void</text><ellipse cx="334" cy="877.4863" fill="#84BE84" rx="3" ry="3" style="stroke:#038048;stroke-width:1.0;"/><text fill="#000000" font-family="sans-serif" font-size="14" lengthAdjust="spacing" textLength="428" x="343" y="881.2773">registerCallback(eventName: string, callback: OSGeneric) : void</text><polygon fill="#FFFF44" points="334,888.9746,338,892.9746,334,896.9746,330,892.9746" style="stroke:#B38D22;stroke-width:1.0;"/><text fill="#000000" font-family="sans-serif" font-size="14" lengthAdjust="spacing" textLength="123" x="343" y="897.7656">finishBuild() : void</text><polygon fill="#FFFF44" points="334,905.4629,338,909.4629,334,913.4629,330,909.4629" style="stroke:#B38D22;stroke-width:1.0;"/><text fill="#000000" font-family="sans-serif" font-size="14" lengthAdjust="spacing" textLength="257" x="343" y="914.2539">notifyParent(actionType: string) : void</text><polygon fill="#FFFF44" points="334,921.9512,338,925.9512,334,929.9512,330,925.9512" style="stroke:#B38D22;stroke-width:1.0;"/><text fill="#000000" font-family="sans-serif" font-size="14" lengthAdjust="spacing" textLength="178" x="343" y="930.7422">setA11YProperties() : void</text><polygon fill="#FFFF44" points="334,938.4395,338,942.4395,334,946.4395,330,942.4395" style="stroke:#B38D22;stroke-width:1.0;"/><text fill="#000000" font-family="sans-serif" font-size="14" lengthAdjust="spacing" textLength="136" x="343" y="947.2305">setCallbacks() : void</text><polygon fill="#FFFF44" points="334,954.9277,338,958.9277,334,962.9277,330,958.9277" style="stroke:#B38D22;stroke-width:1.0;"/><text fill="#000000" font-family="sans-serif" font-size="14" lengthAdjust="spacing" textLength="165" x="343" y="963.7188">setHtmlElements() : void</text><polygon fill="#FFFF44" points="334,971.416,338,975.416,334,979.416,330,975.416" style="stroke:#B38D22;stroke-width:1.0;"/><text fill="#000000" font-family="sans-serif" font-size="14" lengthAdjust="spacing" textLength="184" x="343" y="980.207">setInitialCssClasses() : void</text><polygon fill="#FFFF44" points="334,987.9043,338,991.9043,334,995.9043,330,991.9043" style="stroke:#B38D22;stroke-width:1.0;"/><text fill="#000000" font-family="sans-serif" font-size="14" lengthAdjust="spacing" textLength="651" x="343" y="996.6953">setParentInfo(parentSelector: string, getPatternByIdAPI: Function, canBeOrphan: boolean) : void</text><polygon fill="#FFFF44" points="334,1004.3926,338,1008.3926,334,1012.3926,330,1008.3926" style="stroke:#B38D22;stroke-width:1.0;"/><text fill="#000000" font-family="sans-serif" font-size="14" lengthAdjust="spacing" textLength="570" x="343" y="1013.1836">triggerPlatformEventCallback(platFormCallback: OSGeneric, args: unknown[]) : void</text><polygon fill="#FFFF44" points="334,1020.8809,338,1024.8809,334,1028.8809,330,1024.8809" style="stroke:#B38D22;stroke-width:1.0;"/><text fill="#000000" font-family="sans-serif" font-size="14" lengthAdjust="spacing" textLength="318" x="343" y="1029.6719">triggerPlatformInitializedEventCallback() : void</text><polygon fill="#FFFF44" points="334,1037.3691,338,1041.3691,334,1045.3691,330,1041.3691" style="stroke:#B38D22;stroke-width:1.0;"/><text fill="#000000" font-family="sans-serif" font-size="14" lengthAdjust="spacing" textLength="154" x="343" y="1046.1602">unsetCallbacks() : void</text><polygon fill="#FFFF44" points="334,1053.8574,338,1057.8574,334,1061.8574,330,1057.8574" style="stroke:#B38D22;stroke-width:1.0;"/><text fill="#000000" font-family="sans-serif" font-size="14" lengthAdjust="spacing" textLength="198" x="343" y="1062.6484">unsetGlobalCallbacks() : void</text><polygon fill="#FFFF44" points="334,1070.3457,338,1074.3457,334,1078.3457,330,1074.3457" style="stroke:#B38D22;stroke-width:1.0;"/><text fill="#000000" font-family="sans-serif" font-size="14" lengthAdjust="spacing" textLength="183" x="343" y="1079.1367">unsetHtmlElements() : void</text><rect fill="#F24D5C" height="6" style="stroke:#C82930;stroke-width:1.0;" width="6" x="331" y="1088.834"/><text fill="#000000" font-family="sans-serif" font-size="14" lengthAdjust="spacing" textLength="360" x="343" y="1095.625">_accordionOnClickHandler(event: MouseEvent) : void</text><rect fill="#F24D5C" height="6" style="stroke:#C82930;stroke-width:1.0;" width="6" x="331" y="1105.3223"/><text fill="#000000" font-family="sans-serif" font-size="14" lengthAdjust="spacing" textLength="128" x="343" y="1112.1133">_addEvents() : void</text><rect fill="#F24D5C" height="6" style="stroke:#C82930;stroke-width:1.0;" width="6" x="331" y="1121.8105"/><text fill="#000000" font-family="sans-serif" font-size="14" lengthAdjust="spacing" textLength="294" x="343" y="1128.6016">_animationAsync(isExpand: boolean) : void</text><rect fill="#F24D5C" height="6" style="stroke:#C82930;stroke-width:1.0;" width="6" x="331" y="1138.2988"/><text fill="#000000" font-family="sans-serif" font-size="14" lengthAdjust="spacing" textLength="170" x="343" y="1145.0898">_handleTabIndex() : void</text><rect fill="#F24D5C" height="6" style="stroke:#C82930;stroke-width:1.0;" width="6" x="331" y="1154.7871"/><text fill="#000000" font-family="sans-serif" font-size="14" lengthAdjust="spacing" textLength="324" x="343" y="1161.5781">_onKeyboardPress(event: KeyboardEvent) : void</text><rect fill="#F24D5C" height="6" style="stroke:#C82930;stroke-width:1.0;" width="6" x="331" y="1171.2754"/><text fill="#000000" font-family="sans-serif" font-size="14" lengthAdjust="spacing" textLength="182" x="343" y="1178.0664">_onToggleCallback() : void</text><rect fill="#F24D5C" height="6" style="stroke:#C82930;stroke-width:1.0;" width="6" x="331" y="1187.7637"/><text fill="#000000" font-family="sans-serif" font-size="14" lengthAdjust="spacing" textLength="153" x="343" y="1194.5547">_removeEvents() : void</text><rect fill="#F24D5C" height="6" style="stroke:#C82930;stroke-width:1.0;" width="6" x="331" y="1204.252"/><text fill="#000000" font-family="sans-serif" font-size="14" lengthAdjust="spacing" textLength="192" x="343" y="1211.043">_setAccordionParent() : void</text><rect fill="#F24D5C" height="6" style="stroke:#C82930;stroke-width:1.0;" width="6" x="331" y="1220.7402"/><text fill="#000000" font-family="sans-serif" font-size="14" lengthAdjust="spacing" textLength="162" x="343" y="1227.5313">_setIconPosition() : void</text><rect fill="#F24D5C" height="6" style="stroke:#C82930;stroke-width:1.0;" width="6" x="331" y="1237.2285"/><text fill="#000000" font-family="sans-serif" font-size="14" lengthAdjust="spacing" textLength="140" x="343" y="1244.0195">_setIconType() : void</text><rect fill="#F24D5C" height="6" style="stroke:#C82930;stroke-width:1.0;" width="6" x="331" y="1253.7168"/><text fill="#000000" font-family="sans-serif" font-size="14" lengthAdjust="spacing" textLength="182" x="343" y="1260.5078">_setIsDisabledState() : void</text><rect fill="#F24D5C" height="6" style="stroke:#C82930;stroke-width:1.0;" width="6" x="331" y="1270.2051"/><text fill="#000000" font-family="sans-serif" font-size="14" lengthAdjust="spacing" textLength="204" x="343" y="1276.9961">_transitionEndHandler() : void</text></g><!--class AbstractChild<AccordionItemConfig, IAccordion>--><g id="elem_AbstractChild&lt;AccordionItemConfig, IAccordion&gt;"><rect codeLine="56" fill="#FFFFFF" height="394.2539" id="AbstractChild&lt;AccordionItemConfig, IAccordion&gt;" rx="2.5" ry="2.5" style="stroke:#272B30;stroke-width:0.5;" width="677" x="9" y="7"/><ellipse cx="171.75" cy="23" fill="#A9DCDF" rx="11" ry="11" style="stroke:#181818;stroke-width:1.0;"/><path d="M171.6133,18.3481 L170.4595,23.4199 L172.7754,23.4199 Z M170.1191,16.1069 L173.1157,16.1069 L176.4609,28.5 L174.0122,28.5 L173.2485,25.437 L169.9697,25.437 L169.2227,28.5 L166.7739,28.5 Z " fill="#000000"/><text fill="#000000" font-family="sans-serif" font-size="14" font-style="italic" lengthAdjust="spacing" textLength="343" x="192.25" y="28.291">AbstractChild&lt;AccordionItemConfig, IAccordion&gt;</text><line style="stroke:#272B30;stroke-width:0.5;" x1="10" x2="685" y1="39" y2="39"/><polygon fill="none" points="20,47.7441,24,51.7441,20,55.7441,16,51.7441" style="stroke:#B38D22;stroke-width:1.0;"/><text fill="#000000" font-family="sans-serif" font-size="14" lengthAdjust="spacing" textLength="176" x="29" y="56.5352">isProviderBased : boolean</text><rect fill="none" height="6" style="stroke:#C82930;stroke-width:1.0;" width="6" x="17" y="66.2324"/><text fill="#000000" font-family="sans-serif" font-size="14" lengthAdjust="spacing" textLength="152" x="29" y="73.0234">_isFirstChild : boolean</text><rect fill="none" height="6" style="stroke:#C82930;stroke-width:1.0;" width="6" x="17" y="82.7207"/><text fill="#000000" font-family="sans-serif" font-size="14" lengthAdjust="spacing" textLength="149" x="29" y="89.5117">_isLastChild : boolean</text><rect fill="none" height="6" style="stroke:#C82930;stroke-width:1.0;" width="6" x="17" y="99.209"/><text fill="#000000" font-family="sans-serif" font-size="14" lengthAdjust="spacing" textLength="117" x="29" y="106">_parentId : string</text><rect fill="none" height="6" style="stroke:#C82930;stroke-width:1.0;" width="6" x="17" y="115.6973"/><text fill="#000000" font-family="sans-serif" font-size="14" lengthAdjust="spacing" textLength="182" x="29" y="122.4883">_parentObject : IAccordion</text><line style="stroke:#272B30;stroke-width:0.5;" x1="10" x2="685" y1="129.4414" y2="129.4414"/><ellipse cx="20" cy="143.1855" fill="#84BE84" rx="3" ry="3" style="stroke:#038048;stroke-width:1.0;"/><text fill="#000000" font-family="sans-serif" font-size="14" lengthAdjust="spacing" textLength="86" x="29" y="146.9766">build() : void</text><ellipse cx="20" cy="159.6738" fill="#84BE84" rx="3" ry="3" style="stroke:#038048;stroke-width:1.0;"/><text fill="#000000" font-family="sans-serif" font-size="14" lengthAdjust="spacing" textLength="482" x="29" y="163.4648">changeProperty(propertyName: string, propertyValue: unknown) : void</text><ellipse cx="20" cy="176.1621" fill="#84BE84" rx="3" ry="3" style="stroke:#038048;stroke-width:1.0;"/><text fill="#000000" font-family="sans-serif" font-size="14" lengthAdjust="spacing" textLength="104" x="29" y="179.9531">dispose() : void</text><ellipse cx="20" cy="192.6504" fill="#84BE84" rx="3" ry="3" style="stroke:#038048;stroke-width:1.0;"/><text fill="#000000" font-family="sans-serif" font-size="14" lengthAdjust="spacing" textLength="266" x="29" y="196.4414">equalsToID(patternId: string) : boolean</text><ellipse cx="20" cy="209.1387" fill="#84BE84" rx="3" ry="3" style="stroke:#038048;stroke-width:1.0;"/><text fill="#000000" font-family="sans-serif" font-size="14" lengthAdjust="spacing" textLength="428" x="29" y="212.9297">registerCallback(eventName: string, callback: OSGeneric) : void</text><polygon fill="#FFFF44" points="20,220.627,24,224.627,20,228.627,16,224.627" style="stroke:#B38D22;stroke-width:1.0;"/><text fill="#000000" font-family="sans-serif" font-size="14" lengthAdjust="spacing" textLength="123" x="29" y="229.418">finishBuild() : void</text><polygon fill="#FFFF44" points="20,237.1152,24,241.1152,20,245.1152,16,241.1152" style="stroke:#B38D22;stroke-width:1.0;"/><text fill="#000000" font-family="sans-serif" font-size="14" lengthAdjust="spacing" textLength="257" x="29" y="245.9063">notifyParent(actionType: string) : void</text><polygon fill="#FFFF44" points="20,253.6035,24,257.6035,20,261.6035,16,257.6035" style="stroke:#B38D22;stroke-width:1.0;"/><text fill="#000000" font-family="sans-serif" font-size="14" font-style="italic" lengthAdjust="spacing" textLength="178" x="29" y="262.3945">setA11YProperties() : void</text><polygon fill="#FFFF44" points="20,270.0918,24,274.0918,20,278.0918,16,274.0918" style="stroke:#B38D22;stroke-width:1.0;"/><text fill="#000000" font-family="sans-serif" font-size="14" font-style="italic" lengthAdjust="spacing" textLength="136" x="29" y="278.8828">setCallbacks() : void</text><polygon fill="#FFFF44" points="20,286.5801,24,290.5801,20,294.5801,16,290.5801" style="stroke:#B38D22;stroke-width:1.0;"/><text fill="#000000" font-family="sans-serif" font-size="14" font-style="italic" lengthAdjust="spacing" textLength="165" x="29" y="295.3711">setHtmlElements() : void</text><polygon fill="#FFFF44" points="20,303.0684,24,307.0684,20,311.0684,16,307.0684" style="stroke:#B38D22;stroke-width:1.0;"/><text fill="#000000" font-family="sans-serif" font-size="14" lengthAdjust="spacing" textLength="651" x="29" y="311.8594">setParentInfo(parentSelector: string, getPatternByIdAPI: Function, canBeOrphan: boolean) : void</text><polygon fill="#FFFF44" points="20,319.5566,24,323.5566,20,327.5566,16,323.5566" style="stroke:#B38D22;stroke-width:1.0;"/><text fill="#000000" font-family="sans-serif" font-size="14" lengthAdjust="spacing" textLength="570" x="29" y="328.3477">triggerPlatformEventCallback(platFormCallback: OSGeneric, args: unknown[]) : void</text><polygon fill="#FFFF44" points="20,336.0449,24,340.0449,20,344.0449,16,340.0449" style="stroke:#B38D22;stroke-width:1.0;"/><text fill="#000000" font-family="sans-serif" font-size="14" lengthAdjust="spacing" textLength="318" x="29" y="344.8359">triggerPlatformInitializedEventCallback() : void</text><polygon fill="#FFFF44" points="20,352.5332,24,356.5332,20,360.5332,16,356.5332" style="stroke:#B38D22;stroke-width:1.0;"/><text fill="#000000" font-family="sans-serif" font-size="14" font-style="italic" lengthAdjust="spacing" textLength="154" x="29" y="361.3242">unsetCallbacks() : void</text><polygon fill="#FFFF44" points="20,369.0215,24,373.0215,20,377.0215,16,373.0215" style="stroke:#B38D22;stroke-width:1.0;"/><text fill="#000000" font-family="sans-serif" font-size="14" lengthAdjust="spacing" textLength="198" x="29" y="377.8125">unsetGlobalCallbacks() : void</text><polygon fill="#FFFF44" points="20,385.5098,24,389.5098,20,393.5098,16,389.5098" style="stroke:#B38D22;stroke-width:1.0;"/><text fill="#000000" font-family="sans-serif" font-size="14" font-style="italic" lengthAdjust="spacing" textLength="183" x="29" y="394.3008">unsetHtmlElements() : void</text></g><!--class IAccordionItem--><g id="elem_IAccordionItem"><rect codeLine="80" fill="#FFFFFF" height="344.7891" id="IAccordionItem" rx="2.5" ry="2.5" style="stroke:#272B30;stroke-width:0.5;" width="508" x="721.5" y="31.5"/><ellipse cx="919.25" cy="47.5" fill="#B4A7E5" rx="11" ry="11" style="stroke:#181818;stroke-width:1.0;"/><path d="M915.6777,43.7651 L915.6777,41.6069 L923.0571,41.6069 L923.0571,43.7651 L920.5918,43.7651 L920.5918,51.8418 L923.0571,51.8418 L923.0571,54 L915.6777,54 L915.6777,51.8418 L918.1431,51.8418 L918.1431,43.7651 Z " fill="#000000"/><text fill="#000000" font-family="sans-serif" font-size="14" font-style="italic" lengthAdjust="spacing" textLength="104" x="939.75" y="52.791">IAccordionItem</text><line style="stroke:#272B30;stroke-width:0.5;" x1="722.5" x2="1228.5" y1="63.5" y2="63.5"/><ellipse cx="732.5" cy="77.2441" fill="none" rx="3" ry="3" style="stroke:#038048;stroke-width:1.0;"/><text fill="#000000" font-family="sans-serif" font-size="14" lengthAdjust="spacing" textLength="109" x="741.5" y="81.0352">isBuilt : boolean</text><ellipse cx="732.5" cy="93.7324" fill="none" rx="3" ry="3" style="stroke:#038048;stroke-width:1.0;"/><text fill="#000000" font-family="sans-serif" font-size="14" lengthAdjust="spacing" textLength="138" x="741.5" y="97.5234">isDisabled : boolean</text><ellipse cx="732.5" cy="110.2207" fill="none" rx="3" ry="3" style="stroke:#038048;stroke-width:1.0;"/><text fill="#000000" font-family="sans-serif" font-size="14" lengthAdjust="spacing" textLength="116" x="741.5" y="114.0117">isOpen : boolean</text><ellipse cx="732.5" cy="126.709" fill="none" rx="3" ry="3" style="stroke:#038048;stroke-width:1.0;"/><text fill="#000000" font-family="sans-serif" font-size="14" lengthAdjust="spacing" textLength="184" x="741.5" y="130.5">selfElement : HTMLElement</text><ellipse cx="732.5" cy="143.1973" fill="none" rx="3" ry="3" style="stroke:#038048;stroke-width:1.0;"/><text fill="#000000" font-family="sans-serif" font-size="14" lengthAdjust="spacing" textLength="113" x="741.5" y="146.9883">uniqueId : string</text><ellipse cx="732.5" cy="159.6855" fill="none" rx="3" ry="3" style="stroke:#038048;stroke-width:1.0;"/><text fill="#000000" font-family="sans-serif" font-size="14" lengthAdjust="spacing" textLength="111" x="741.5" y="163.4766">widgetId : string</text><line style="stroke:#272B30;stroke-width:0.5;" x1="722.5" x2="1228.5" y1="170.4297" y2="170.4297"/><ellipse cx="732.5" cy="184.1738" fill="#84BE84" rx="3" ry="3" style="stroke:#038048;stroke-width:1.0;"/><text fill="#000000" font-family="sans-serif" font-size="14" lengthAdjust="spacing" textLength="161" x="741.5" y="187.9648">allowTitleEvents() : void</text><ellipse cx="732.5" cy="200.6621" fill="#84BE84" rx="3" ry="3" style="stroke:#038048;stroke-width:1.0;"/><text fill="#000000" font-family="sans-serif" font-size="14" lengthAdjust="spacing" textLength="86" x="741.5" y="204.4531">build() : void</text><ellipse cx="732.5" cy="217.1504" fill="#84BE84" rx="3" ry="3" style="stroke:#038048;stroke-width:1.0;"/><text fill="#000000" font-family="sans-serif" font-size="14" lengthAdjust="spacing" textLength="482" x="741.5" y="220.9414">changeProperty(propertyName: string, propertyValue: unknown) : void</text><ellipse cx="732.5" cy="233.6387" fill="#84BE84" rx="3" ry="3" style="stroke:#038048;stroke-width:1.0;"/><text fill="#000000" font-family="sans-serif" font-size="14" lengthAdjust="spacing" textLength="86" x="741.5" y="237.4297">close() : void</text><ellipse cx="732.5" cy="250.127" fill="#84BE84" rx="3" ry="3" style="stroke:#038048;stroke-width:1.0;"/><text fill="#000000" font-family="sans-serif" font-size="14" lengthAdjust="spacing" textLength="104" x="741.5" y="253.918">dispose() : void</text><ellipse cx="732.5" cy="266.6152" fill="#84BE84" rx="3" ry="3" style="stroke:#038048;stroke-width:1.0;"/><text fill="#000000" font-family="sans-serif" font-size="14" lengthAdjust="spacing" textLength="216" x="741.5" y="270.4063">equalsToID(id: string) : boolean</text><ellipse cx="732.5" cy="283.1035" fill="#84BE84" rx="3" ry="3" style="stroke:#038048;stroke-width:1.0;"/><text fill="#000000" font-family="sans-serif" font-size="14" lengthAdjust="spacing" textLength="253" x="741.5" y="286.8945">open(isOpenedByApi: boolean) : void</text><ellipse cx="732.5" cy="299.5918" fill="#84BE84" rx="3" ry="3" style="stroke:#038048;stroke-width:1.0;"/><text fill="#000000" font-family="sans-serif" font-size="14" lengthAdjust="spacing" textLength="428" x="741.5" y="303.3828">registerCallback(eventName: string, callback: OSGeneric) : void</text><ellipse cx="732.5" cy="316.0801" fill="#84BE84" rx="3" ry="3" style="stroke:#038048;stroke-width:1.0;"/><text fill="#000000" font-family="sans-serif" font-size="14" lengthAdjust="spacing" textLength="98" x="741.5" y="319.8711">setBlur() : void</text><ellipse cx="732.5" cy="332.5684" fill="#84BE84" rx="3" ry="3" style="stroke:#038048;stroke-width:1.0;"/><text fill="#000000" font-family="sans-serif" font-size="14" lengthAdjust="spacing" textLength="111" x="741.5" y="336.3594">setFocus() : void</text><ellipse cx="732.5" cy="349.0566" fill="#84BE84" rx="3" ry="3" style="stroke:#038048;stroke-width:1.0;"/><text fill="#000000" font-family="sans-serif" font-size="14" lengthAdjust="spacing" textLength="136" x="741.5" y="352.8477">setTabindex() : void</text><ellipse cx="732.5" cy="365.5449" fill="#84BE84" rx="3" ry="3" style="stroke:#038048;stroke-width:1.0;"/><text fill="#000000" font-family="sans-serif" font-size="14" lengthAdjust="spacing" textLength="154" x="741.5" y="369.3359">unsetTabindex() : void</text></g><!--reverse link AbstractChild<AccordionItemConfig, IAccordion> to AccordionItem--><g id="link_AbstractChild&lt;AccordionItemConfig, IAccordion&gt;_AccordionItem"><path codeLine="79" d="M448.59,419.57 C454.95,433.06 461.44,446.86 468.03,460.84 " fill="none" id="AbstractChild&lt;AccordionItemConfig, IAccordion&gt;-backto-AccordionItem" style="stroke:#272B30;stroke-width:1.0;"/><polygon fill="none" points="442.2,422.44,440.01,401.37,454.87,416.48,442.2,422.44" style="stroke:#272B30;stroke-width:1.0;"/></g><!--reverse link IAccordionItem to AccordionItem--><g id="link_IAccordionItem_AccordionItem"><path codeLine="100" d="M885.99,395 C876.01,416.18 865.58,438.31 854.92,460.95 " fill="none" id="IAccordionItem-backto-AccordionItem" style="stroke:#272B30;stroke-width:1.0;stroke-dasharray:7.0,7.0;"/><polygon fill="none" points="879.78,391.75,894.64,376.64,892.45,397.72,879.78,391.75" style="stroke:#272B30;stroke-width:1.0;"/></g><!--SRC=[vLVlRzis4Ftklq98lhXmNRJTW096CC1MaqPOEnk8KQ0eYe0IJ_BD5AcIL5AjpV_Uqo_7ecGdmufXG_F9kNSy7f_VFT9cYp9ZcgMUBvWnSwtLhQ-4qjxforSlmr-UZqmtOw4q1tqyXKNRHAjSyYOjZkEzd1uS0V-Liz46ENYGPhRmKh0RnSr-A4OG58dA3RoJUHHH7wXaO24zyRwEFFexHRFIweRMw0KpmBsP5oebWCaAdbwp_LM-aXQaFHUGKkBb-jtRyYD5XfA3I4a_DrQbZyz_NEPAi0WsIb3J3oUlqGfuk6wLTg6YtB1GWBz1mJN8xfgFdzfLGgZRkl0DnKsFjKW9mJBYyn8msLZ2PPw6e1iOobLBwGkCjeIz0GaQeowuXMAbmPX3-5epQT1Iw-UIzvE-P4poG_kZMMRLuRfTPuBPMEdqlDb19Oa0f_J4FVlu2MNSAEGr7ER4d1EBDamcG3hBGDjYd3KV_c0fp3nZDShagTT6tpEHKpYNMwbkfLD8A0DESOucwqVXSyw4MQlWzJXZreAM0M_tUk8SV48RIsUzXWGDBVFfk24DtxXYlTjnr60pRtdLKDGfSXgZHBDPz1avbSfYNAmOISoEMLH-Y-iYW_qExvCDsFcB5nyQ_X0SoakyRNC0khIfQFGxW0QI9CI4RqnbGqErwou36IkYilnu1G8Yg_Gz4qcPLR6yA08-NmKpxoANrR5AckG2bZeZ4Unuxsv2LP84z6fVVZlYIr5UKDJli_tKOpenEwry_7IqR7DK_0juTuVkgbmUuRC2tmWL4cN7KWwJlcSvZG5Sqg0AqBN2PjuxbPjwjDnrd0zD704IKrPoFJU5ZCPepglX7oPxUhsfzbkpC223-E8MK_9tA4B5DA_Sf-sg3GurfXgd62PqUgqXLJSmt7kfxPQFPXpw6UNDi5ArsHs0o-aPWinhh0oTNrbcUnbstqFRxs6NSpTY8IcSnjDhhz3c_-fwE9ixLsECD0h1BlhRe-zOD1UeJLrr07pB3c7rF0ObK8zY9xuC_wGv9Uo-ft_1et-07_-7pFThAu6x1ttOIJtW3qxMSNV-kQntdvf_wCAzKiCytut-zaYVVPjEtRVq2EbPh6Dwb7edmU0pUuAcLA9rbOuxV-eZ0q-qYG4HDySOUCvESecVSt3zO7ABd6JI2__lNdBum1EkvWpuefXdE2pu7-8jz3NOXSZrk1UjVa3qmtJPOl-odLJAx6EaIbT5Pz-UFNDLznq0]--></g></svg>