<?xml version="1.0" encoding="UTF-8" standalone="no"?><svg xmlns="http://www.w3.org/2000/svg" xmlns:xlink="http://www.w3.org/1999/xlink" contentScriptType="application/ecmascript" contentStyleType="text/css" height="638px" preserveAspectRatio="none" style="width:918px;height:638px;background:#CED4DA;" version="1.1" viewBox="0 0 918 638" width="918px" zoomAndPan="magnify"><defs><filter height="300%" id="f8cw0f52kak2y" width="300%" x="-1" y="-1"><feGaussianBlur result="blurOut" stdDeviation="2.0"/><feColorMatrix in="blurOut" result="blurOut2" type="matrix" values="0 0 0 0 0 0 0 0 0 0 0 0 0 0 0 0 0 0 .4 0"/><feOffset dx="4.0" dy="4.0" in="blurOut2" result="blurOut3"/><feBlend in="SourceGraphic" in2="blurOut3" mode="normal"/></filter></defs><g><!--MD5=[84b1afc1121e097760dc6761b050f24b]
class Accordion--><rect codeLine="7" fill="#FFFFFF" filter="url(#f8cw0f52kak2y)" height="304.0938" id="Accordion" style="stroke:#272B30;stroke-width:1.5;" width="438" x="234.5" y="320"/><ellipse cx="418.25" cy="336" fill="#ADD1B2" rx="11" ry="11" style="stroke:#272B30;stroke-width:1.0;"/><path d="M421.2188,341.6406 Q420.6406,341.9375 420,342.0781 Q419.3594,342.2344 418.6563,342.2344 Q416.1563,342.2344 414.8281,340.5938 Q413.5156,338.9375 413.5156,335.8125 Q413.5156,332.6875 414.8281,331.0313 Q416.1563,329.375 418.6563,329.375 Q419.3594,329.375 420,329.5313 Q420.6563,329.6875 421.2188,329.9844 L421.2188,332.7031 Q420.5938,332.125 420,331.8594 Q419.4063,331.5781 418.7813,331.5781 Q417.4375,331.5781 416.75,332.6563 Q416.0625,333.7188 416.0625,335.8125 Q416.0625,337.9063 416.75,338.9844 Q417.4375,340.0469 418.7813,340.0469 Q419.4063,340.0469 420,339.7813 Q420.5938,339.5 421.2188,338.9219 L421.2188,341.6406 Z " fill="#000000"/><text fill="#000000" font-family="sans-serif" font-size="12" lengthAdjust="spacing" textLength="62" x="438.75" y="340.1543">Accordion</text><line style="stroke:#272B30;stroke-width:1.5;" x1="235.5" x2="671.5" y1="352" y2="352"/><polygon fill="none" points="245.5,358,249.5,362,245.5,366,241.5,362" style="stroke:#B38D22;stroke-width:1.0;"/><text fill="#000000" font-family="sans-serif" font-size="11" lengthAdjust="spacing" textLength="143" x="254.5" y="366.2104">_selfElem : HTMLElement</text><polygon fill="none" points="245.5,370.8047,249.5,374.8047,245.5,378.8047,241.5,374.8047" style="stroke:#B38D22;stroke-width:1.0;"/><text fill="#000000" font-family="sans-serif" font-size="11" lengthAdjust="spacing" textLength="98" x="254.5" y="379.0151">_widgetId : string</text><line style="stroke:#272B30;stroke-width:1.5;" x1="235.5" x2="671.5" y1="385.6094" y2="385.6094"/><ellipse cx="245.5" cy="396.6094" fill="#84BE84" rx="3" ry="3" style="stroke:#038048;stroke-width:1.0;"/><text fill="#000000" font-family="sans-serif" font-size="11" lengthAdjust="spacing" textLength="221" x="254.5" y="399.8198">addAccordionItem(childId: string) : void</text><ellipse cx="245.5" cy="409.4141" fill="#84BE84" rx="3" ry="3" style="stroke:#038048;stroke-width:1.0;"/><text fill="#000000" font-family="sans-serif" font-size="11" lengthAdjust="spacing" textLength="412" x="254.5" y="412.6245">beNotifiedByChild(childId: string, notifiedTo: ChildNotifyActionType) : void</text><ellipse cx="245.5" cy="422.2188" fill="#84BE84" rx="3" ry="3" style="stroke:#038048;stroke-width:1.0;"/><text fill="#000000" font-family="sans-serif" font-size="11" lengthAdjust="spacing" textLength="70" x="254.5" y="425.4292">build() : void</text><ellipse cx="245.5" cy="435.0234" fill="#84BE84" rx="3" ry="3" style="stroke:#038048;stroke-width:1.0;"/><text fill="#000000" font-family="sans-serif" font-size="11" lengthAdjust="spacing" textLength="399" x="254.5" y="438.2339">changeProperty(propertyName: string, propertyValue: unknown) : void</text><ellipse cx="245.5" cy="447.8281" fill="#84BE84" rx="3" ry="3" style="stroke:#038048;stroke-width:1.0;"/><text fill="#000000" font-family="sans-serif" font-size="11" lengthAdjust="spacing" textLength="135" x="254.5" y="451.0386">collapseAllItems() : void</text><ellipse cx="245.5" cy="460.6328" fill="#84BE84" rx="3" ry="3" style="stroke:#038048;stroke-width:1.0;"/><text fill="#000000" font-family="sans-serif" font-size="11" lengthAdjust="spacing" textLength="88" x="254.5" y="463.8433">dispose() : void</text><ellipse cx="245.5" cy="473.4375" fill="#84BE84" rx="3" ry="3" style="stroke:#038048;stroke-width:1.0;"/><text fill="#000000" font-family="sans-serif" font-size="11" lengthAdjust="spacing" textLength="220" x="254.5" y="476.6479">equalsToID(patternId: string) : boolean</text><ellipse cx="245.5" cy="486.2422" fill="#84BE84" rx="3" ry="3" style="stroke:#038048;stroke-width:1.0;"/><text fill="#000000" font-family="sans-serif" font-size="11" lengthAdjust="spacing" textLength="129" x="254.5" y="489.4526">expandAllItems() : void</text><ellipse cx="245.5" cy="499.0469" fill="#84BE84" rx="3" ry="3" style="stroke:#038048;stroke-width:1.0;"/><text fill="#000000" font-family="sans-serif" font-size="11" lengthAdjust="spacing" textLength="254" x="254.5" y="502.2573">getChildItems(type: string) : IAccordionItem[]</text><ellipse cx="245.5" cy="511.8516" fill="#84BE84" rx="3" ry="3" style="stroke:#038048;stroke-width:1.0;"/><text fill="#000000" font-family="sans-serif" font-size="11" lengthAdjust="spacing" textLength="243" x="254.5" y="515.062">removeAccordionItem(childId: string) : void</text><ellipse cx="245.5" cy="524.6563" fill="#84BE84" rx="3" ry="3" style="stroke:#038048;stroke-width:1.0;"/><text fill="#000000" font-family="sans-serif" font-size="11" lengthAdjust="spacing" textLength="270" x="254.5" y="527.8667">triggerAccordionItemClose(childId: string) : void</text><polygon fill="#FFFF44" points="245.5,532.4609,249.5,536.4609,245.5,540.4609,241.5,536.4609" style="stroke:#B38D22;stroke-width:1.0;"/><text fill="#000000" font-family="sans-serif" font-size="11" lengthAdjust="spacing" textLength="102" x="254.5" y="540.6714">finishBuild() : void</text><polygon fill="#FFFF44" points="245.5,545.2656,249.5,549.2656,245.5,553.2656,241.5,549.2656" style="stroke:#B38D22;stroke-width:1.0;"/><text fill="#000000" font-family="sans-serif" font-size="11" lengthAdjust="spacing" textLength="226" x="254.5" y="553.4761">getChild(childId: string) : IAccordionItem</text><polygon fill="#FFFF44" points="245.5,558.0703,249.5,562.0703,245.5,566.0703,241.5,562.0703" style="stroke:#B38D22;stroke-width:1.0;"/><text fill="#000000" font-family="sans-serif" font-size="11" lengthAdjust="spacing" textLength="377" x="254.5" y="566.2808">getChildByIndex(index: number, childType: string) : IAccordionItem</text><polygon fill="#FFFF44" points="245.5,570.875,249.5,574.875,245.5,578.875,241.5,574.875" style="stroke:#B38D22;stroke-width:1.0;"/><text fill="#000000" font-family="sans-serif" font-size="11" lengthAdjust="spacing" textLength="217" x="254.5" y="579.0854">getChildIndex(childId: string) : number</text><polygon fill="#FFFF44" points="245.5,583.6797,249.5,587.6797,245.5,591.6797,241.5,587.6797" style="stroke:#B38D22;stroke-width:1.0;"/><text fill="#000000" font-family="sans-serif" font-size="11" lengthAdjust="spacing" textLength="148" x="254.5" y="591.8901">setA11YProperties() : void</text><polygon fill="#FFFF44" points="245.5,596.4844,249.5,600.4844,245.5,604.4844,241.5,600.4844" style="stroke:#B38D22;stroke-width:1.0;"/><text fill="#000000" font-family="sans-serif" font-size="11" lengthAdjust="spacing" textLength="316" x="254.5" y="604.6948">setChild(childId: string, childItem: IAccordionItem) : void</text><polygon fill="#FFFF44" points="245.5,609.2891,249.5,613.2891,245.5,617.2891,241.5,613.2891" style="stroke:#B38D22;stroke-width:1.0;"/><text fill="#000000" font-family="sans-serif" font-size="11" lengthAdjust="spacing" textLength="180" x="254.5" y="617.4995">unsetChild(childId: string) : void</text><!--MD5=[f3784b724db70879304725e156443604]
class AbstractParent<AccordionConfig, IAccordionItem>--><rect codeLine="29" fill="#FFFFFF" filter="url(#f8cw0f52kak2y)" height="252.875" id="AbstractParent&lt;AccordionConfig, IAccordionItem&gt;" style="stroke:#272B30;stroke-width:1.5;" width="425" x="9" y="7"/><ellipse cx="59.25" cy="23" fill="#A9DCDF" rx="11" ry="11" style="stroke:#272B30;stroke-width:1.0;"/><path d="M59.3594,18.3438 L58.2031,23.4219 L60.5313,23.4219 L59.3594,18.3438 Z M57.875,16.1094 L60.8594,16.1094 L64.2188,28.5 L61.7656,28.5 L61,25.4375 L57.7188,25.4375 L56.9688,28.5 L54.5313,28.5 L57.875,16.1094 Z " fill="#000000"/><text fill="#000000" font-family="sans-serif" font-size="12" font-style="italic" lengthAdjust="spacing" textLength="316" x="79.75" y="27.1543">AbstractParent&lt;AccordionConfig, IAccordionItem&gt;</text><line style="stroke:#272B30;stroke-width:1.5;" x1="10" x2="433" y1="39" y2="39"/><polygon fill="none" points="20,45,24,49,20,53,16,49" style="stroke:#B38D22;stroke-width:1.0;"/><text fill="#000000" font-family="sans-serif" font-size="11" lengthAdjust="spacing" textLength="143" x="29" y="53.2104">_selfElem : HTMLElement</text><polygon fill="none" points="20,57.8047,24,61.8047,20,65.8047,16,61.8047" style="stroke:#B38D22;stroke-width:1.0;"/><text fill="#000000" font-family="sans-serif" font-size="11" lengthAdjust="spacing" textLength="98" x="29" y="66.0151">_widgetId : string</text><rect fill="none" height="6" style="stroke:#C82930;stroke-width:1.0;" width="6" x="17" y="72.6094"/><text fill="#000000" font-family="sans-serif" font-size="11" lengthAdjust="spacing" textLength="217" x="29" y="78.8198">_childIdsByType : Map&lt;string, string&gt;</text><rect fill="none" height="6" style="stroke:#C82930;stroke-width:1.0;" width="6" x="17" y="85.4141"/><text fill="#000000" font-family="sans-serif" font-size="11" lengthAdjust="spacing" textLength="153" x="29" y="91.6245">_childItemsByType : Object</text><line style="stroke:#272B30;stroke-width:1.5;" x1="10" x2="433" y1="98.2188" y2="98.2188"/><ellipse cx="20" cy="109.2188" fill="#84BE84" rx="3" ry="3" style="stroke:#038048;stroke-width:1.0;"/><text fill="#000000" font-family="sans-serif" font-size="11" font-style="italic" lengthAdjust="spacing" textLength="324" x="29" y="112.4292">beNotifiedByChild(childId: string, notifiedTo: string) : void</text><ellipse cx="20" cy="122.0234" fill="#84BE84" rx="3" ry="3" style="stroke:#038048;stroke-width:1.0;"/><text fill="#000000" font-family="sans-serif" font-size="11" lengthAdjust="spacing" textLength="70" x="29" y="125.2339">build() : void</text><ellipse cx="20" cy="134.8281" fill="#84BE84" rx="3" ry="3" style="stroke:#038048;stroke-width:1.0;"/><text fill="#000000" font-family="sans-serif" font-size="11" lengthAdjust="spacing" textLength="399" x="29" y="138.0386">changeProperty(propertyName: string, propertyValue: unknown) : void</text><ellipse cx="20" cy="147.6328" fill="#84BE84" rx="3" ry="3" style="stroke:#038048;stroke-width:1.0;"/><text fill="#000000" font-family="sans-serif" font-size="11" lengthAdjust="spacing" textLength="88" x="29" y="150.8433">dispose() : void</text><ellipse cx="20" cy="160.4375" fill="#84BE84" rx="3" ry="3" style="stroke:#038048;stroke-width:1.0;"/><text fill="#000000" font-family="sans-serif" font-size="11" lengthAdjust="spacing" textLength="220" x="29" y="163.6479">equalsToID(patternId: string) : boolean</text><ellipse cx="20" cy="173.2422" fill="#84BE84" rx="3" ry="3" style="stroke:#038048;stroke-width:1.0;"/><text fill="#000000" font-family="sans-serif" font-size="11" lengthAdjust="spacing" textLength="254" x="29" y="176.4526">getChildItems(type: string) : IAccordionItem[]</text><polygon fill="#FFFF44" points="20,181.0469,24,185.0469,20,189.0469,16,185.0469" style="stroke:#B38D22;stroke-width:1.0;"/><text fill="#000000" font-family="sans-serif" font-size="11" lengthAdjust="spacing" textLength="102" x="29" y="189.2573">finishBuild() : void</text><polygon fill="#FFFF44" points="20,193.8516,24,197.8516,20,201.8516,16,197.8516" style="stroke:#B38D22;stroke-width:1.0;"/><text fill="#000000" font-family="sans-serif" font-size="11" lengthAdjust="spacing" textLength="226" x="29" y="202.062">getChild(childId: string) : IAccordionItem</text><polygon fill="#FFFF44" points="20,206.6563,24,210.6563,20,214.6563,16,210.6563" style="stroke:#B38D22;stroke-width:1.0;"/><text fill="#000000" font-family="sans-serif" font-size="11" lengthAdjust="spacing" textLength="377" x="29" y="214.8667">getChildByIndex(index: number, childType: string) : IAccordionItem</text><polygon fill="#FFFF44" points="20,219.4609,24,223.4609,20,227.4609,16,223.4609" style="stroke:#B38D22;stroke-width:1.0;"/><text fill="#000000" font-family="sans-serif" font-size="11" lengthAdjust="spacing" textLength="217" x="29" y="227.6714">getChildIndex(childId: string) : number</text><polygon fill="#FFFF44" points="20,232.2656,24,236.2656,20,240.2656,16,236.2656" style="stroke:#B38D22;stroke-width:1.0;"/><text fill="#000000" font-family="sans-serif" font-size="11" lengthAdjust="spacing" textLength="316" x="29" y="240.4761">setChild(childId: string, childItem: IAccordionItem) : void</text><polygon fill="#FFFF44" points="20,245.0703,24,249.0703,20,253.0703,16,249.0703" style="stroke:#B38D22;stroke-width:1.0;"/><text fill="#000000" font-family="sans-serif" font-size="11" lengthAdjust="spacing" textLength="180" x="29" y="253.2808">unsetChild(childId: string) : void</text><!--MD5=[c1e444593d623e412a9e24ba5a15f734]
class IAccordion--><rect codeLine="48" fill="#FFFFFF" filter="url(#f8cw0f52kak2y)" height="227.2656" id="IAccordion" style="stroke:#272B30;stroke-width:1.5;" width="435" x="469" y="20"/><ellipse cx="649.25" cy="36" fill="#B4A7E5" rx="11" ry="11" style="stroke:#272B30;stroke-width:1.0;"/><path d="M645.1719,31.7656 L645.1719,29.6094 L652.5625,29.6094 L652.5625,31.7656 L650.0938,31.7656 L650.0938,39.8438 L652.5625,39.8438 L652.5625,42 L645.1719,42 L645.1719,39.8438 L647.6406,39.8438 L647.6406,31.7656 L645.1719,31.7656 Z " fill="#000000"/><text fill="#000000" font-family="sans-serif" font-size="12" font-style="italic" lengthAdjust="spacing" textLength="66" x="669.75" y="40.1543">IAccordion</text><line style="stroke:#272B30;stroke-width:1.5;" x1="470" x2="903" y1="52" y2="52"/><ellipse cx="480" cy="63" rx="3" ry="3" style="stroke:#038048;stroke-width:1.0;fill:none;"/><text fill="#000000" font-family="sans-serif" font-size="11" lengthAdjust="spacing" textLength="92" x="489" y="66.2104">isBuilt : boolean</text><ellipse cx="480" cy="75.8047" rx="3" ry="3" style="stroke:#038048;stroke-width:1.0;fill:none;"/><text fill="#000000" font-family="sans-serif" font-size="11" lengthAdjust="spacing" textLength="155" x="489" y="79.0151">selfElement : HTMLElement</text><ellipse cx="480" cy="88.6094" rx="3" ry="3" style="stroke:#038048;stroke-width:1.0;fill:none;"/><text fill="#000000" font-family="sans-serif" font-size="11" lengthAdjust="spacing" textLength="93" x="489" y="91.8198">uniqueId : string</text><ellipse cx="480" cy="101.4141" rx="3" ry="3" style="stroke:#038048;stroke-width:1.0;fill:none;"/><text fill="#000000" font-family="sans-serif" font-size="11" lengthAdjust="spacing" textLength="92" x="489" y="104.6245">widgetId : string</text><line style="stroke:#272B30;stroke-width:1.5;" x1="470" x2="903" y1="111.2188" y2="111.2188"/><ellipse cx="480" cy="122.2188" fill="#84BE84" rx="3" ry="3" style="stroke:#038048;stroke-width:1.0;"/><text fill="#000000" font-family="sans-serif" font-size="11" lengthAdjust="spacing" textLength="409" x="489" y="125.4292">addAccordionItem(uniqueId: string, accordionItem: IAccordionItem) : any</text><ellipse cx="480" cy="135.0234" fill="#84BE84" rx="3" ry="3" style="stroke:#038048;stroke-width:1.0;"/><text fill="#000000" font-family="sans-serif" font-size="11" lengthAdjust="spacing" textLength="324" x="489" y="138.2339">beNotifiedByChild(childId: string, notifiedTo: string) : void</text><ellipse cx="480" cy="147.8281" fill="#84BE84" rx="3" ry="3" style="stroke:#038048;stroke-width:1.0;"/><text fill="#000000" font-family="sans-serif" font-size="11" lengthAdjust="spacing" textLength="70" x="489" y="151.0386">build() : void</text><ellipse cx="480" cy="160.6328" fill="#84BE84" rx="3" ry="3" style="stroke:#038048;stroke-width:1.0;"/><text fill="#000000" font-family="sans-serif" font-size="11" lengthAdjust="spacing" textLength="399" x="489" y="163.8433">changeProperty(propertyName: string, propertyValue: unknown) : void</text><ellipse cx="480" cy="173.4375" fill="#84BE84" rx="3" ry="3" style="stroke:#038048;stroke-width:1.0;"/><text fill="#000000" font-family="sans-serif" font-size="11" lengthAdjust="spacing" textLength="132" x="489" y="176.6479">collapseAllItems() : any</text><ellipse cx="480" cy="186.2422" fill="#84BE84" rx="3" ry="3" style="stroke:#038048;stroke-width:1.0;"/><text fill="#000000" font-family="sans-serif" font-size="11" lengthAdjust="spacing" textLength="88" x="489" y="189.4526">dispose() : void</text><ellipse cx="480" cy="199.0469" fill="#84BE84" rx="3" ry="3" style="stroke:#038048;stroke-width:1.0;"/><text fill="#000000" font-family="sans-serif" font-size="11" lengthAdjust="spacing" textLength="179" x="489" y="202.2573">equalsToID(id: string) : boolean</text><ellipse cx="480" cy="211.8516" fill="#84BE84" rx="3" ry="3" style="stroke:#038048;stroke-width:1.0;"/><text fill="#000000" font-family="sans-serif" font-size="11" lengthAdjust="spacing" textLength="126" x="489" y="215.062">expandAllItems() : any</text><ellipse cx="480" cy="224.6563" fill="#84BE84" rx="3" ry="3" style="stroke:#038048;stroke-width:1.0;"/><text fill="#000000" font-family="sans-serif" font-size="11" lengthAdjust="spacing" textLength="252" x="489" y="227.8667">removeAccordionItem(uniqueId: string) : any</text><ellipse cx="480" cy="237.4609" fill="#84BE84" rx="3" ry="3" style="stroke:#038048;stroke-width:1.0;"/><text fill="#000000" font-family="sans-serif" font-size="11" lengthAdjust="spacing" textLength="321" x="489" y="240.6714">triggerAccordionItemClose(accordionItemId: string) : any</text><!--MD5=[8f770ac1fb3f8c3ad313dae5561a30bc]
reverse link AbstractParent<AccordionConfig, IAccordionItem> to Accordion--><path codeLine="47" d="M319.63,276.83 C329.43,291.04 339.4,305.51 349.27,319.81 " fill="none" id="AbstractParent&lt;AccordionConfig, IAccordionItem&gt;-backto-Accordion" style="stroke:#272B30;stroke-width:1.0;"/><polygon fill="none" points="313.81,280.72,308.22,260.28,325.33,272.77,313.81,280.72" style="stroke:#272B30;stroke-width:1.0;"/><!--MD5=[e8036610468b8dc2c6599f1d5e216c2f]
reverse link IAccordion to Accordion--><path codeLine="64" d="M597.03,263.71 C584.28,282.13 571.07,301.2 558.07,319.98 " fill="none" id="IAccordion-backto-Accordion" style="stroke:#272B30;stroke-width:1.0;stroke-dasharray:7.0,7.0;"/><polygon fill="none" points="591.45,259.48,608.59,247.02,602.96,267.45,591.45,259.48" style="stroke:#272B30;stroke-width:1.0;"/><!--MD5=[b5b2f9f9e963e7eddc7ec589872868ea]
@startuml
skinparam ClassArrowColor #272b30
skinparam ClassBorderColor #272b30
skinparam ClassBackgroundColor #fff
skinparam BackgroundColor #ced4da
hide empty methods
hide empty fields
class "Accordion" {
    #_selfElem : HTMLElement
    #_widgetId : string
    +addAccordionItem(childId: string) : void
    +beNotifiedByChild(childId: string, notifiedTo: ChildNotifyActionType) : void
    +build() : void
    +changeProperty(propertyName: string, propertyValue: unknown) : void
    +collapseAllItems() : void
    +dispose() : void
    +equalsToID(patternId: string) : boolean
    +expandAllItems() : void
    +getChildItems(type: string) : IAccordionItem[]
    +removeAccordionItem(childId: string) : void
    +triggerAccordionItemClose(childId: string) : void
    #finishBuild() : void
    #getChild(childId: string) : IAccordionItem
    #getChildByIndex(index: number, childType: string) : IAccordionItem
    #getChildIndex(childId: string) : number
    #setA11YProperties() : void
    #setChild(childId: string, childItem: IAccordionItem) : void
    #unsetChild(childId: string) : void
}
abstract class "AbstractParent<AccordionConfig, IAccordionItem>" {
    #_selfElem : HTMLElement
    #_widgetId : string
    -_childIdsByType : Map<string, string>
    -_childItemsByType : Object
    {abstract} +beNotifiedByChild(childId: string, notifiedTo: string) : void
    +build() : void
    +changeProperty(propertyName: string, propertyValue: unknown) : void
    +dispose() : void
    +equalsToID(patternId: string) : boolean
    +getChildItems(type: string) : IAccordionItem[]
    #finishBuild() : void
    #getChild(childId: string) : IAccordionItem
    #getChildByIndex(index: number, childType: string) : IAccordionItem
    #getChildIndex(childId: string) : number
    #setChild(childId: string, childItem: IAccordionItem) : void
    #unsetChild(childId: string) : void
}
"AbstractParent<AccordionConfig, IAccordionItem>" <|- - "Accordion"
interface "IAccordion" {
    +isBuilt : boolean
    +selfElement : HTMLElement
    +uniqueId : string
    +widgetId : string
    +addAccordionItem(uniqueId: string, accordionItem: IAccordionItem) : any
    +beNotifiedByChild(childId: string, notifiedTo: string) : void
    +build() : void
    +changeProperty(propertyName: string, propertyValue: unknown) : void
    +collapseAllItems() : any
    +dispose() : void
    +equalsToID(id: string) : boolean
    +expandAllItems() : any
    +removeAccordionItem(uniqueId: string) : any
    +triggerAccordionItemClose(accordionItemId: string) : any
}
"IAccordion" <|.. "Accordion"
@enduml

PlantUML version 1.2021.14(Fri Nov 12 16:46:50 UTC 2021)
(GPL source distribution)
Java Runtime: OpenJDK Runtime Environment
JVM: OpenJDK 64-Bit Server VM
Default Encoding: UTF-8
Language: en
Country: null
--></g></svg>