<?xml version="1.0" encoding="us-ascii" standalone="no"?><svg xmlns="http://www.w3.org/2000/svg" xmlns:xlink="http://www.w3.org/1999/xlink" contentStyleType="text/css" height="463px" preserveAspectRatio="none" style="width:634px;height:463px;background:#CED4DA;" version="1.1" viewBox="0 0 634 463" width="634px" zoomAndPan="magnify"><defs/><g><rect fill="#CED4DA" height="463" style="stroke:none;stroke-width:1.0;" width="634" x="0" y="0"/><!--class AnimatedLabelConfig--><g id="elem_AnimatedLabelConfig"><rect codeLine="7" fill="#FFFFFF" height="194.6719" id="AnimatedLabelConfig" rx="2.5" ry="2.5" style="stroke:#272B30;stroke-width:0.5;" width="618" x="9" y="262"/><ellipse cx="241.25" cy="278" fill="#ADD1B2" rx="11" ry="11" style="stroke:#181818;stroke-width:1.0;"/><path d="M244.2188,283.6406 Q243.6406,283.9375 243,284.0781 Q242.3594,284.2344 241.6563,284.2344 Q239.1563,284.2344 237.8281,282.5938 Q236.5156,280.9375 236.5156,277.8125 Q236.5156,274.6875 237.8281,273.0313 Q239.1563,271.375 241.6563,271.375 Q242.3594,271.375 243,271.5313 Q243.6563,271.6875 244.2188,271.9844 L244.2188,274.7031 Q243.5938,274.125 243,273.8594 Q242.4063,273.5781 241.7813,273.5781 Q240.4375,273.5781 239.75,274.6563 Q239.0625,275.7188 239.0625,277.8125 Q239.0625,279.9063 239.75,280.9844 Q240.4375,282.0469 241.7813,282.0469 Q242.4063,282.0469 243,281.7813 Q243.5938,281.5 244.2188,280.9219 L244.2188,283.6406 Z " fill="#000000"/><text fill="#000000" font-family="sans-serif" font-size="14" lengthAdjust="spacing" textLength="145" x="261.75" y="282.8467">AnimatedLabelConfig</text><line style="stroke:#272B30;stroke-width:0.5;" x1="10" x2="626" y1="294" y2="294"/><ellipse cx="20" cy="307.6484" fill="none" rx="3" ry="3" style="stroke:#038048;stroke-width:1.0;"/><text fill="#000000" font-family="sans-serif" font-size="14" lengthAdjust="spacing" textLength="155" x="29" y="310.9951">ExtendedClass : string</text><line style="stroke:#272B30;stroke-width:0.5;" x1="10" x2="626" y1="318.2969" y2="318.2969"/><ellipse cx="20" cy="331.9453" fill="#84BE84" rx="3" ry="3" style="stroke:#038048;stroke-width:1.0;"/><text fill="#000000" font-family="sans-serif" font-size="14" lengthAdjust="spacing" textLength="412" x="29" y="335.292">validateCanChange(_isBuilt: boolean, _key: string) : boolean</text><ellipse cx="20" cy="348.2422" fill="#84BE84" rx="3" ry="3" style="stroke:#038048;stroke-width:1.0;"/><text fill="#000000" font-family="sans-serif" font-size="14" lengthAdjust="spacing" textLength="384" x="29" y="351.5889">validateDefault(_key: string, value: unknown) : unknown</text><polygon fill="#FFFF44" points="20,359.5391,24,363.5391,20,367.5391,16,363.5391" style="stroke:#B38D22;stroke-width:1.0;"/><text fill="#000000" font-family="sans-serif" font-size="14" lengthAdjust="spacing" textLength="447" x="29" y="367.8857">validateBoolean(value: boolean, defaultValue: boolean) : boolean</text><polygon fill="#FFFF44" points="20,375.8359,24,379.8359,20,383.8359,16,379.8359" style="stroke:#B38D22;stroke-width:1.0;"/><text fill="#000000" font-family="sans-serif" font-size="14" lengthAdjust="spacing" textLength="464" x="29" y="384.1826">validateDate(value: string | Date, defaultValue: string) : string | Date</text><polygon fill="#FFFF44" points="20,392.1328,24,396.1328,20,400.1328,16,396.1328" style="stroke:#B38D22;stroke-width:1.0;"/><text fill="#000000" font-family="sans-serif" font-size="14" lengthAdjust="spacing" textLength="592" x="29" y="400.4795">validateInRange(value: unknown, defaultValue: unknown, args: unknown[]) : unknown</text><polygon fill="#FFFF44" points="20,408.4297,24,412.4297,20,416.4297,16,412.4297" style="stroke:#B38D22;stroke-width:1.0;"/><text fill="#000000" font-family="sans-serif" font-size="14" lengthAdjust="spacing" textLength="439" x="29" y="416.7764">validateNumber(value: number, defaultValue: number) : number</text><polygon fill="#FFFF44" points="20,424.7266,24,428.7266,20,432.7266,16,428.7266" style="stroke:#B38D22;stroke-width:1.0;"/><text fill="#000000" font-family="sans-serif" font-size="14" lengthAdjust="spacing" textLength="379" x="29" y="433.0732">validateString(value: string, defaultValue: string) : string</text><polygon fill="#FFFF44" points="20,441.0234,24,445.0234,20,449.0234,16,445.0234" style="stroke:#B38D22;stroke-width:1.0;"/><text fill="#000000" font-family="sans-serif" font-size="14" lengthAdjust="spacing" textLength="373" x="29" y="449.3701">validateTime(value: string, defaultValue: string) : string</text></g><!--class AbstractConfiguration--><g id="elem_AbstractConfiguration"><rect codeLine="18" fill="#FFFFFF" height="194.6719" id="AbstractConfiguration" rx="2.5" ry="2.5" style="stroke:#272B30;stroke-width:0.5;" width="618" x="9" y="7"/><ellipse cx="239.25" cy="23" fill="#A9DCDF" rx="11" ry="11" style="stroke:#181818;stroke-width:1.0;"/><path d="M239.3594,18.3438 L238.2031,23.4219 L240.5313,23.4219 L239.3594,18.3438 Z M237.875,16.1094 L240.8594,16.1094 L244.2188,28.5 L241.7656,28.5 L241,25.4375 L237.7188,25.4375 L236.9688,28.5 L234.5313,28.5 L237.875,16.1094 Z " fill="#000000"/><text fill="#000000" font-family="sans-serif" font-size="14" font-style="italic" lengthAdjust="spacing" textLength="149" x="259.75" y="27.8467">AbstractConfiguration</text><line style="stroke:#272B30;stroke-width:0.5;" x1="10" x2="626" y1="39" y2="39"/><ellipse cx="20" cy="52.6484" fill="none" rx="3" ry="3" style="stroke:#038048;stroke-width:1.0;"/><text fill="#000000" font-family="sans-serif" font-size="14" lengthAdjust="spacing" textLength="155" x="29" y="55.9951">ExtendedClass : string</text><line style="stroke:#272B30;stroke-width:0.5;" x1="10" x2="626" y1="63.2969" y2="63.2969"/><ellipse cx="20" cy="76.9453" fill="#84BE84" rx="3" ry="3" style="stroke:#038048;stroke-width:1.0;"/><text fill="#000000" font-family="sans-serif" font-size="14" lengthAdjust="spacing" textLength="412" x="29" y="80.292">validateCanChange(_isBuilt: boolean, _key: string) : boolean</text><ellipse cx="20" cy="93.2422" fill="#84BE84" rx="3" ry="3" style="stroke:#038048;stroke-width:1.0;"/><text fill="#000000" font-family="sans-serif" font-size="14" lengthAdjust="spacing" textLength="384" x="29" y="96.5889">validateDefault(_key: string, value: unknown) : unknown</text><polygon fill="#FFFF44" points="20,104.5391,24,108.5391,20,112.5391,16,108.5391" style="stroke:#B38D22;stroke-width:1.0;"/><text fill="#000000" font-family="sans-serif" font-size="14" lengthAdjust="spacing" textLength="447" x="29" y="112.8857">validateBoolean(value: boolean, defaultValue: boolean) : boolean</text><polygon fill="#FFFF44" points="20,120.8359,24,124.8359,20,128.8359,16,124.8359" style="stroke:#B38D22;stroke-width:1.0;"/><text fill="#000000" font-family="sans-serif" font-size="14" lengthAdjust="spacing" textLength="464" x="29" y="129.1826">validateDate(value: string | Date, defaultValue: string) : string | Date</text><polygon fill="#FFFF44" points="20,137.1328,24,141.1328,20,145.1328,16,141.1328" style="stroke:#B38D22;stroke-width:1.0;"/><text fill="#000000" font-family="sans-serif" font-size="14" lengthAdjust="spacing" textLength="592" x="29" y="145.4795">validateInRange(value: unknown, defaultValue: unknown, args: unknown[]) : unknown</text><polygon fill="#FFFF44" points="20,153.4297,24,157.4297,20,161.4297,16,157.4297" style="stroke:#B38D22;stroke-width:1.0;"/><text fill="#000000" font-family="sans-serif" font-size="14" lengthAdjust="spacing" textLength="439" x="29" y="161.7764">validateNumber(value: number, defaultValue: number) : number</text><polygon fill="#FFFF44" points="20,169.7266,24,173.7266,20,177.7266,16,173.7266" style="stroke:#B38D22;stroke-width:1.0;"/><text fill="#000000" font-family="sans-serif" font-size="14" lengthAdjust="spacing" textLength="379" x="29" y="178.0732">validateString(value: string, defaultValue: string) : string</text><polygon fill="#FFFF44" points="20,186.0234,24,190.0234,20,194.0234,16,190.0234" style="stroke:#B38D22;stroke-width:1.0;"/><text fill="#000000" font-family="sans-serif" font-size="14" lengthAdjust="spacing" textLength="373" x="29" y="194.3701">validateTime(value: string, defaultValue: string) : string</text></g><!--reverse link AbstractConfiguration to AnimatedLabelConfig--><g id="link_AbstractConfiguration_AnimatedLabelConfig"><path codeLine="29" d="M318,220.23 C318,239.76 318,242.29 318,261.82 " fill="none" id="AbstractConfiguration-backto-AnimatedLabelConfig" style="stroke:#272B30;stroke-width:1.0;"/><polygon fill="none" points="318,202.23,312,220.23,324,220.23,318,202.23" style="stroke:#272B30;stroke-width:1.0;"/></g><!--SRC=[xPHDIyD048Rl-HL3UwdOWbH1A5xQr8CW7bIyY9H9Tf8ksUoMtOsrMF-x-MutMaNms41WP-Pzdvq9Gqp2vGerfk0BD6QgjLhxIYWD_V7bE3W_yuohc2dDIFyimJ29jSeagsLH5ErflfH3OXSClILd19Ikx0PIial5p7uguYJoJ5XS0Bsfv2bQOhSOaF2LZ7ZSWtSFykVq-isIPCJANc02ncekuwhsYeAptEYZz9SeOneik9bbNDW914e9GZc4HKARndO2RS4bp2d2JDZ1ldW8UJMZ2MGoaMej2tDzBCtznZohY8DQtjxCAkYJa-wsq5Bc-TiWgWPW2qMo2zgDuiXSsesyBp-8Eq8NrQPHnwODdryEZdgNfG7fXYhBg0kjiWMYEhc4Xx9dTz3V9dG9ZpobF_e_F0po8uOMcfMhushRCesMAtbSkkFI_UVI7Tgog-rezFrVxnC0]--></g></svg>