<?xml version="1.0" encoding="us-ascii" standalone="no"?><svg xmlns="http://www.w3.org/2000/svg" xmlns:xlink="http://www.w3.org/1999/xlink" contentStyleType="text/css" height="1066px" preserveAspectRatio="none" style="width:1156px;height:1066px;background:#CED4DA;" version="1.1" viewBox="0 0 1156 1066" width="1156px" zoomAndPan="magnify"><defs/><g><rect fill="#CED4DA" height="1066" style="stroke:none;stroke-width:1.0;" width="1156" x="0" y="0"/><!--class AnimatedLabel--><g id="elem_AnimatedLabel"><rect codeLine="7" fill="#FFFFFF" height="569.5" id="AnimatedLabel" rx="2.5" ry="2.5" style="stroke:#272B30;stroke-width:0.5;" width="595" x="303" y="490"/><ellipse cx="545.75" cy="506" fill="#ADD1B2" rx="11" ry="11" style="stroke:#181818;stroke-width:1.0;"/><path d="M548.7188,511.6406 Q548.1406,511.9375 547.5,512.0781 Q546.8594,512.2344 546.1563,512.2344 Q543.6563,512.2344 542.3281,510.5938 Q541.0156,508.9375 541.0156,505.8125 Q541.0156,502.6875 542.3281,501.0313 Q543.6563,499.375 546.1563,499.375 Q546.8594,499.375 547.5,499.5313 Q548.1563,499.6875 548.7188,499.9844 L548.7188,502.7031 Q548.0938,502.125 547.5,501.8594 Q546.9063,501.5781 546.2813,501.5781 Q544.9375,501.5781 544.25,502.6563 Q543.5625,503.7188 543.5625,505.8125 Q543.5625,507.9063 544.25,508.9844 Q544.9375,510.0469 546.2813,510.0469 Q546.9063,510.0469 547.5,509.7813 Q548.0938,509.5 548.7188,508.9219 L548.7188,511.6406 Z " fill="#000000"/><text fill="#000000" font-family="sans-serif" font-size="14" lengthAdjust="spacing" textLength="101" x="566.25" y="510.8467">AnimatedLabel</text><line style="stroke:#272B30;stroke-width:0.5;" x1="304" x2="897" y1="522" y2="522"/><polygon fill="none" points="314,530.6484,318,534.6484,314,538.6484,310,534.6484" style="stroke:#B38D22;stroke-width:1.0;"/><text fill="#000000" font-family="sans-serif" font-size="14" lengthAdjust="spacing" textLength="180" x="323" y="538.9951">isProviderBased : boolean</text><rect fill="none" height="6" style="stroke:#C82930;stroke-width:1.0;" width="6" x="311" y="548.9453"/><text fill="#000000" font-family="sans-serif" font-size="14" lengthAdjust="spacing" textLength="213" x="323" y="555.292">_eventAnimationStart : Generic</text><rect fill="none" height="6" style="stroke:#C82930;stroke-width:1.0;" width="6" x="311" y="565.2422"/><text fill="#000000" font-family="sans-serif" font-size="14" lengthAdjust="spacing" textLength="140" x="323" y="571.5889">_eventBlur : Generic</text><rect fill="none" height="6" style="stroke:#C82930;stroke-width:1.0;" width="6" x="311" y="581.5391"/><text fill="#000000" font-family="sans-serif" font-size="14" lengthAdjust="spacing" textLength="155" x="323" y="587.8857">_eventFocus : Generic</text><rect fill="none" height="6" style="stroke:#C82930;stroke-width:1.0;" width="6" x="311" y="597.8359"/><text fill="#000000" font-family="sans-serif" font-size="14" lengthAdjust="spacing" textLength="178" x="323" y="604.1826">_eventKeyDown : Generic</text><rect fill="none" height="6" style="stroke:#C82930;stroke-width:1.0;" width="6" x="311" y="614.1328"/><text fill="#000000" font-family="sans-serif" font-size="14" lengthAdjust="spacing" textLength="411" x="323" y="620.4795">_inputElement : HTMLInputElement | HTMLTextAreaElement</text><rect fill="none" height="6" style="stroke:#C82930;stroke-width:1.0;" width="6" x="311" y="630.4297"/><text fill="#000000" font-family="sans-serif" font-size="14" lengthAdjust="spacing" textLength="225" x="323" y="636.7764">_inputPhElement : HTMLElement</text><rect fill="none" height="6" style="stroke:#C82930;stroke-width:1.0;" width="6" x="311" y="646.7266"/><text fill="#000000" font-family="sans-serif" font-size="14" lengthAdjust="spacing" textLength="153" x="323" y="653.0732">_isDisposed : boolean</text><rect fill="none" height="6" style="stroke:#C82930;stroke-width:1.0;" width="6" x="311" y="663.0234"/><text fill="#000000" font-family="sans-serif" font-size="14" lengthAdjust="spacing" textLength="165" x="323" y="669.3701">_isLabelFocus : boolean</text><rect fill="none" height="6" style="stroke:#C82930;stroke-width:1.0;" width="6" x="311" y="679.3203"/><text fill="#000000" font-family="sans-serif" font-size="14" lengthAdjust="spacing" textLength="222" x="323" y="685.667">_labelPhElement : HTMLElement</text><line style="stroke:#272B30;stroke-width:0.5;" x1="304" x2="897" y1="692.9688" y2="692.9688"/><ellipse cx="314" cy="706.6172" fill="#84BE84" rx="3" ry="3" style="stroke:#038048;stroke-width:1.0;"/><text fill="#000000" font-family="sans-serif" font-size="14" lengthAdjust="spacing" textLength="84" x="323" y="709.9639">build() : void</text><ellipse cx="314" cy="722.9141" fill="#84BE84" rx="3" ry="3" style="stroke:#038048;stroke-width:1.0;"/><text fill="#000000" font-family="sans-serif" font-size="14" lengthAdjust="spacing" textLength="484" x="323" y="726.2607">changeProperty(propertyName: string, propertyValue: unknown) : void</text><ellipse cx="314" cy="739.2109" fill="#84BE84" rx="3" ry="3" style="stroke:#038048;stroke-width:1.0;"/><text fill="#000000" font-family="sans-serif" font-size="14" lengthAdjust="spacing" textLength="106" x="323" y="742.5576">dispose() : void</text><ellipse cx="314" cy="755.5078" fill="#84BE84" rx="3" ry="3" style="stroke:#038048;stroke-width:1.0;"/><text fill="#000000" font-family="sans-serif" font-size="14" lengthAdjust="spacing" textLength="267" x="323" y="758.8545">equalsToID(patternId: string) : boolean</text><ellipse cx="314" cy="771.8047" fill="#84BE84" rx="3" ry="3" style="stroke:#038048;stroke-width:1.0;"/><text fill="#000000" font-family="sans-serif" font-size="14" lengthAdjust="spacing" textLength="434" x="323" y="775.1514">registerCallback(eventName: string, callback: OSGeneric) : void</text><ellipse cx="314" cy="788.1016" fill="#84BE84" rx="3" ry="3" style="stroke:#038048;stroke-width:1.0;"/><text fill="#000000" font-family="sans-serif" font-size="14" lengthAdjust="spacing" textLength="171" x="323" y="791.4482">updateOnRender() : void</text><polygon fill="#FFFF44" points="314,799.3984,318,803.3984,314,807.3984,310,803.3984" style="stroke:#B38D22;stroke-width:1.0;"/><text fill="#000000" font-family="sans-serif" font-size="14" lengthAdjust="spacing" textLength="121" x="323" y="807.7451">finishBuild() : void</text><polygon fill="#FFFF44" points="314,815.6953,318,819.6953,314,823.6953,310,819.6953" style="stroke:#B38D22;stroke-width:1.0;"/><text fill="#000000" font-family="sans-serif" font-size="14" lengthAdjust="spacing" textLength="180" x="323" y="824.042">setA11YProperties() : void</text><polygon fill="#FFFF44" points="314,831.9922,318,835.9922,314,839.9922,310,835.9922" style="stroke:#B38D22;stroke-width:1.0;"/><text fill="#000000" font-family="sans-serif" font-size="14" lengthAdjust="spacing" textLength="138" x="323" y="840.3389">setCallbacks() : void</text><polygon fill="#FFFF44" points="314,848.2891,318,852.2891,314,856.2891,310,852.2891" style="stroke:#B38D22;stroke-width:1.0;"/><text fill="#000000" font-family="sans-serif" font-size="14" lengthAdjust="spacing" textLength="169" x="323" y="856.6357">setHtmlElements() : void</text><polygon fill="#FFFF44" points="314,864.5859,318,868.5859,314,872.5859,310,868.5859" style="stroke:#B38D22;stroke-width:1.0;"/><text fill="#000000" font-family="sans-serif" font-size="14" lengthAdjust="spacing" textLength="569" x="323" y="872.9326">triggerPlatformEventCallback(platFormCallback: OSGeneric, args: unknown[]) : void</text><polygon fill="#FFFF44" points="314,880.8828,318,884.8828,314,888.8828,310,884.8828" style="stroke:#B38D22;stroke-width:1.0;"/><text fill="#000000" font-family="sans-serif" font-size="14" lengthAdjust="spacing" textLength="311" x="323" y="889.2295">triggerPlatformInitializedEventCallback() : void</text><polygon fill="#FFFF44" points="314,897.1797,318,901.1797,314,905.1797,310,901.1797" style="stroke:#B38D22;stroke-width:1.0;"/><text fill="#000000" font-family="sans-serif" font-size="14" lengthAdjust="spacing" textLength="156" x="323" y="905.5264">unsetCallbacks() : void</text><polygon fill="#FFFF44" points="314,913.4766,318,917.4766,314,921.4766,310,917.4766" style="stroke:#B38D22;stroke-width:1.0;"/><text fill="#000000" font-family="sans-serif" font-size="14" lengthAdjust="spacing" textLength="199" x="323" y="921.8232">unsetGlobalCallbacks() : void</text><polygon fill="#FFFF44" points="314,929.7734,318,933.7734,314,937.7734,310,933.7734" style="stroke:#B38D22;stroke-width:1.0;"/><text fill="#000000" font-family="sans-serif" font-size="14" lengthAdjust="spacing" textLength="187" x="323" y="938.1201">unsetHtmlElements() : void</text><rect fill="#F24D5C" height="6" style="stroke:#C82930;stroke-width:1.0;" width="6" x="311" y="948.0703"/><text fill="#000000" font-family="sans-serif" font-size="14" lengthAdjust="spacing" textLength="131" x="323" y="954.417">_addEvents() : void</text><rect fill="#F24D5C" height="6" style="stroke:#C82930;stroke-width:1.0;" width="6" x="311" y="964.3672"/><text fill="#000000" font-family="sans-serif" font-size="14" lengthAdjust="spacing" textLength="375" x="323" y="970.7139">_inputAnimationStartCallback(e: AnimationEvent) : void</text><rect fill="#F24D5C" height="6" style="stroke:#C82930;stroke-width:1.0;" width="6" x="311" y="980.6641"/><text fill="#000000" font-family="sans-serif" font-size="14" lengthAdjust="spacing" textLength="259" x="323" y="987.0107">_inputBlurCallback(evt: UIEvent) : void</text><rect fill="#F24D5C" height="6" style="stroke:#C82930;stroke-width:1.0;" width="6" x="311" y="996.9609"/><text fill="#000000" font-family="sans-serif" font-size="14" lengthAdjust="spacing" textLength="274" x="323" y="1003.3076">_inputFocusCallback(evt: UIEvent) : void</text><rect fill="#F24D5C" height="6" style="stroke:#C82930;stroke-width:1.0;" width="6" x="311" y="1013.2578"/><text fill="#000000" font-family="sans-serif" font-size="14" lengthAdjust="spacing" textLength="349" x="323" y="1019.6045">_inputKeyDownCallback(evt: KeyboardEvent) : void</text><rect fill="#F24D5C" height="6" style="stroke:#C82930;stroke-width:1.0;" width="6" x="311" y="1029.5547"/><text fill="#000000" font-family="sans-serif" font-size="14" lengthAdjust="spacing" textLength="295" x="323" y="1035.9014">_inputStateToggle(isFocus: boolean) : void</text><rect fill="#F24D5C" height="6" style="stroke:#C82930;stroke-width:1.0;" width="6" x="311" y="1045.8516"/><text fill="#000000" font-family="sans-serif" font-size="14" lengthAdjust="spacing" textLength="157" x="323" y="1052.1982">_removeEvents() : void</text></g><!--class AbstractPattern<AnimatedLabelConfig>--><g id="elem_AbstractPattern&lt;AnimatedLabelConfig&gt;"><rect codeLine="41" fill="#FFFFFF" height="422.8281" id="AbstractPattern&lt;AnimatedLabelConfig&gt;" rx="2.5" ry="2.5" style="stroke:#272B30;stroke-width:0.5;" width="595" x="9" y="7"/><ellipse cx="163.75" cy="23" fill="#A9DCDF" rx="11" ry="11" style="stroke:#181818;stroke-width:1.0;"/><path d="M163.8594,18.3438 L162.7031,23.4219 L165.0313,23.4219 L163.8594,18.3438 Z M162.375,16.1094 L165.3594,16.1094 L168.7188,28.5 L166.2656,28.5 L165.5,25.4375 L162.2188,25.4375 L161.4688,28.5 L159.0313,28.5 L162.375,16.1094 Z " fill="#000000"/><text fill="#000000" font-family="sans-serif" font-size="14" font-style="italic" lengthAdjust="spacing" textLength="277" x="184.25" y="27.8467">AbstractPattern&lt;AnimatedLabelConfig&gt;</text><line style="stroke:#272B30;stroke-width:0.5;" x1="10" x2="603" y1="39" y2="39"/><polygon fill="none" points="20,47.6484,24,51.6484,20,55.6484,16,51.6484" style="stroke:#B38D22;stroke-width:1.0;"/><text fill="#000000" font-family="sans-serif" font-size="14" lengthAdjust="spacing" textLength="180" x="29" y="55.9951">isProviderBased : boolean</text><rect fill="none" height="6" style="stroke:#C82930;stroke-width:1.0;" width="6" x="17" y="65.9453"/><text fill="#000000" font-family="sans-serif" font-size="14" lengthAdjust="spacing" textLength="215" x="29" y="72.292">_configs : AnimatedLabelConfig</text><rect fill="none" height="6" style="stroke:#C82930;stroke-width:1.0;" width="6" x="17" y="82.2422"/><text fill="#000000" font-family="sans-serif" font-size="14" lengthAdjust="spacing" textLength="117" x="29" y="88.5889">_isBuilt : boolean</text><rect fill="none" height="6" style="stroke:#C82930;stroke-width:1.0;" width="6" x="17" y="98.5391"/><text fill="#000000" font-family="sans-serif" font-size="14" lengthAdjust="spacing" textLength="252" x="29" y="104.8857">_platformEventInitialized : OSGeneric</text><rect fill="none" height="6" style="stroke:#C82930;stroke-width:1.0;" width="6" x="17" y="114.8359"/><text fill="#000000" font-family="sans-serif" font-size="14" lengthAdjust="spacing" textLength="173" x="29" y="121.1826">_selfElem : HTMLElement</text><rect fill="none" height="6" style="stroke:#C82930;stroke-width:1.0;" width="6" x="17" y="131.1328"/><text fill="#000000" font-family="sans-serif" font-size="14" lengthAdjust="spacing" textLength="119" x="29" y="137.4795">_uniqueId : string</text><rect fill="none" height="6" style="stroke:#C82930;stroke-width:1.0;" width="6" x="17" y="147.4297"/><text fill="#000000" font-family="sans-serif" font-size="14" lengthAdjust="spacing" textLength="117" x="29" y="153.7764">_widgetId : string</text><line style="stroke:#272B30;stroke-width:0.5;" x1="10" x2="603" y1="161.0781" y2="161.0781"/><ellipse cx="20" cy="174.7266" fill="#84BE84" rx="3" ry="3" style="stroke:#038048;stroke-width:1.0;"/><text fill="#000000" font-family="sans-serif" font-size="14" lengthAdjust="spacing" textLength="84" x="29" y="178.0732">build() : void</text><ellipse cx="20" cy="191.0234" fill="#84BE84" rx="3" ry="3" style="stroke:#038048;stroke-width:1.0;"/><text fill="#000000" font-family="sans-serif" font-size="14" lengthAdjust="spacing" textLength="484" x="29" y="194.3701">changeProperty(propertyName: string, propertyValue: unknown) : void</text><ellipse cx="20" cy="207.3203" fill="#84BE84" rx="3" ry="3" style="stroke:#038048;stroke-width:1.0;"/><text fill="#000000" font-family="sans-serif" font-size="14" lengthAdjust="spacing" textLength="106" x="29" y="210.667">dispose() : void</text><ellipse cx="20" cy="223.6172" fill="#84BE84" rx="3" ry="3" style="stroke:#038048;stroke-width:1.0;"/><text fill="#000000" font-family="sans-serif" font-size="14" lengthAdjust="spacing" textLength="267" x="29" y="226.9639">equalsToID(patternId: string) : boolean</text><ellipse cx="20" cy="239.9141" fill="#84BE84" rx="3" ry="3" style="stroke:#038048;stroke-width:1.0;"/><text fill="#000000" font-family="sans-serif" font-size="14" lengthAdjust="spacing" textLength="434" x="29" y="243.2607">registerCallback(eventName: string, callback: OSGeneric) : void</text><polygon fill="#FFFF44" points="20,251.2109,24,255.2109,20,259.2109,16,255.2109" style="stroke:#B38D22;stroke-width:1.0;"/><text fill="#000000" font-family="sans-serif" font-size="14" lengthAdjust="spacing" textLength="121" x="29" y="259.5576">finishBuild() : void</text><polygon fill="#FFFF44" points="20,267.5078,24,271.5078,20,275.5078,16,271.5078" style="stroke:#B38D22;stroke-width:1.0;"/><text fill="#000000" font-family="sans-serif" font-size="14" font-style="italic" lengthAdjust="spacing" textLength="179" x="29" y="275.8545">setA11YProperties() : void</text><polygon fill="#FFFF44" points="20,283.8047,24,287.8047,20,291.8047,16,287.8047" style="stroke:#B38D22;stroke-width:1.0;"/><text fill="#000000" font-family="sans-serif" font-size="14" font-style="italic" lengthAdjust="spacing" textLength="137" x="29" y="292.1514">setCallbacks() : void</text><polygon fill="#FFFF44" points="20,300.1016,24,304.1016,20,308.1016,16,304.1016" style="stroke:#B38D22;stroke-width:1.0;"/><text fill="#000000" font-family="sans-serif" font-size="14" font-style="italic" lengthAdjust="spacing" textLength="169" x="29" y="308.4482">setHtmlElements() : void</text><polygon fill="#FFFF44" points="20,316.3984,24,320.3984,20,324.3984,16,320.3984" style="stroke:#B38D22;stroke-width:1.0;"/><text fill="#000000" font-family="sans-serif" font-size="14" lengthAdjust="spacing" textLength="569" x="29" y="324.7451">triggerPlatformEventCallback(platFormCallback: OSGeneric, args: unknown[]) : void</text><polygon fill="#FFFF44" points="20,332.6953,24,336.6953,20,340.6953,16,336.6953" style="stroke:#B38D22;stroke-width:1.0;"/><text fill="#000000" font-family="sans-serif" font-size="14" lengthAdjust="spacing" textLength="311" x="29" y="341.042">triggerPlatformInitializedEventCallback() : void</text><polygon fill="#FFFF44" points="20,348.9922,24,352.9922,20,356.9922,16,352.9922" style="stroke:#B38D22;stroke-width:1.0;"/><text fill="#000000" font-family="sans-serif" font-size="14" font-style="italic" lengthAdjust="spacing" textLength="155" x="29" y="357.3389">unsetCallbacks() : void</text><polygon fill="#FFFF44" points="20,365.2891,24,369.2891,20,373.2891,16,369.2891" style="stroke:#B38D22;stroke-width:1.0;"/><text fill="#000000" font-family="sans-serif" font-size="14" lengthAdjust="spacing" textLength="199" x="29" y="373.6357">unsetGlobalCallbacks() : void</text><polygon fill="#FFFF44" points="20,381.5859,24,385.5859,20,389.5859,16,385.5859" style="stroke:#B38D22;stroke-width:1.0;"/><text fill="#000000" font-family="sans-serif" font-size="14" font-style="italic" lengthAdjust="spacing" textLength="187" x="29" y="389.9326">unsetHtmlElements() : void</text><rect fill="#F24D5C" height="6" style="stroke:#C82930;stroke-width:1.0;" width="6" x="17" y="399.8828"/><text fill="#000000" font-family="sans-serif" font-size="14" lengthAdjust="spacing" textLength="239" x="29" y="406.2295">_setCommonHtmlElements() : void</text><rect fill="#F24D5C" height="6" style="stroke:#C82930;stroke-width:1.0;" width="6" x="17" y="416.1797"/><text fill="#000000" font-family="sans-serif" font-size="14" lengthAdjust="spacing" textLength="257" x="29" y="422.5264">_unsetCommonHtmlElements() : void</text></g><!--class IAnimatedLabel--><g id="elem_IAnimatedLabel"><rect codeLine="67" fill="#FFFFFF" height="210.9688" id="IAnimatedLabel" rx="2.5" ry="2.5" style="stroke:#272B30;stroke-width:0.5;" width="510" x="639.5" y="113"/><ellipse cx="836.75" cy="129" fill="#B4A7E5" rx="11" ry="11" style="stroke:#181818;stroke-width:1.0;"/><path d="M832.6719,124.7656 L832.6719,122.6094 L840.0625,122.6094 L840.0625,124.7656 L837.5938,124.7656 L837.5938,132.8438 L840.0625,132.8438 L840.0625,135 L832.6719,135 L832.6719,132.8438 L835.1406,132.8438 L835.1406,124.7656 L832.6719,124.7656 Z " fill="#000000"/><text fill="#000000" font-family="sans-serif" font-size="14" font-style="italic" lengthAdjust="spacing" textLength="107" x="857.25" y="133.8467">IAnimatedLabel</text><line style="stroke:#272B30;stroke-width:0.5;" x1="640.5" x2="1148.5" y1="145" y2="145"/><ellipse cx="650.5" cy="158.6484" fill="none" rx="3" ry="3" style="stroke:#038048;stroke-width:1.0;"/><text fill="#000000" font-family="sans-serif" font-size="14" lengthAdjust="spacing" textLength="110" x="659.5" y="161.9951">isBuilt : boolean</text><ellipse cx="650.5" cy="174.9453" fill="none" rx="3" ry="3" style="stroke:#038048;stroke-width:1.0;"/><text fill="#000000" font-family="sans-serif" font-size="14" lengthAdjust="spacing" textLength="189" x="659.5" y="178.292">selfElement : HTMLElement</text><ellipse cx="650.5" cy="191.2422" fill="none" rx="3" ry="3" style="stroke:#038048;stroke-width:1.0;"/><text fill="#000000" font-family="sans-serif" font-size="14" lengthAdjust="spacing" textLength="112" x="659.5" y="194.5889">uniqueId : string</text><ellipse cx="650.5" cy="207.5391" fill="none" rx="3" ry="3" style="stroke:#038048;stroke-width:1.0;"/><text fill="#000000" font-family="sans-serif" font-size="14" lengthAdjust="spacing" textLength="110" x="659.5" y="210.8857">widgetId : string</text><line style="stroke:#272B30;stroke-width:0.5;" x1="640.5" x2="1148.5" y1="218.1875" y2="218.1875"/><ellipse cx="650.5" cy="231.8359" fill="#84BE84" rx="3" ry="3" style="stroke:#038048;stroke-width:1.0;"/><text fill="#000000" font-family="sans-serif" font-size="14" lengthAdjust="spacing" textLength="84" x="659.5" y="235.1826">build() : void</text><ellipse cx="650.5" cy="248.1328" fill="#84BE84" rx="3" ry="3" style="stroke:#038048;stroke-width:1.0;"/><text fill="#000000" font-family="sans-serif" font-size="14" lengthAdjust="spacing" textLength="484" x="659.5" y="251.4795">changeProperty(propertyName: string, propertyValue: unknown) : void</text><ellipse cx="650.5" cy="264.4297" fill="#84BE84" rx="3" ry="3" style="stroke:#038048;stroke-width:1.0;"/><text fill="#000000" font-family="sans-serif" font-size="14" lengthAdjust="spacing" textLength="106" x="659.5" y="267.7764">dispose() : void</text><ellipse cx="650.5" cy="280.7266" fill="#84BE84" rx="3" ry="3" style="stroke:#038048;stroke-width:1.0;"/><text fill="#000000" font-family="sans-serif" font-size="14" lengthAdjust="spacing" textLength="217" x="659.5" y="284.0732">equalsToID(id: string) : boolean</text><ellipse cx="650.5" cy="297.0234" fill="#84BE84" rx="3" ry="3" style="stroke:#038048;stroke-width:1.0;"/><text fill="#000000" font-family="sans-serif" font-size="14" lengthAdjust="spacing" textLength="434" x="659.5" y="300.3701">registerCallback(eventName: string, callback: OSGeneric) : void</text><ellipse cx="650.5" cy="313.3203" fill="#84BE84" rx="3" ry="3" style="stroke:#038048;stroke-width:1.0;"/><text fill="#000000" font-family="sans-serif" font-size="14" lengthAdjust="spacing" textLength="171" x="659.5" y="316.667">updateOnRender() : void</text></g><!--reverse link AbstractPattern<AnimatedLabelConfig> to AnimatedLabel--><g id="link_AbstractPattern&lt;AnimatedLabelConfig&gt;_AnimatedLabel"><path codeLine="66" d="M426.7173,446.0301 C437.1073,465.6101 439.31,469.76 449.97,489.86 " fill="none" id="AbstractPattern&lt;AnimatedLabelConfig&gt;-backto-AnimatedLabel" style="stroke:#272B30;stroke-width:1.0;"/><polygon fill="none" points="418.28,430.13,421.4172,448.8425,432.0173,443.2177,418.28,430.13" style="stroke:#272B30;stroke-width:1.0;"/></g><!--reverse link IAnimatedLabel to AnimatedLabel--><g id="link_IAnimatedLabel_AnimatedLabel"><path codeLine="79" d="M830.5922,339.9298 C805.3422,387.5098 782.54,430.47 751.08,489.75 " fill="none" id="IAnimatedLabel-backto-AnimatedLabel" style="stroke:#272B30;stroke-width:1.0;stroke-dasharray:7.0,7.0;"/><polygon fill="none" points="839.03,324.03,825.2923,337.1172,835.8921,342.7424,839.03,324.03" style="stroke:#272B30;stroke-width:1.0;"/></g><!--SRC=[vLRRRXCn47tFLrZDIweq5Ir8I565b4ilAmgDQ41225MpwzcD5Q-zjRqffUs_uxs5lMMfn0CWyfJCEJEU6S-PMA-PY411I6OSj9ue9Uzcaaj5-iUlZzsNBtgwofXAHL5rKy1R1qh6WkOqt_TBd0Ri8Nr5eRTY50c6aRad8PgLfBfiyXboQ_6I0yZUHB0G3D9BS97laOSUiPy-qmibDzP7JK4Z9MFYIiaHH0gFRd23mcIkJ8fh0yfOpZaALCmhSwOyLkt8cVHYtGwznVkvl1CDqDOTcrEEeULOy6Bvxj8fcnvJqnA_cOb2oArbtyMgwbsZw3dJaMohb-cqFqNELP0dK5VeeHipJWVx5jf8HZERjm8He6rpXChS3wByoti8SKoqKKm41wImVW8UMtCiri8sfXg8PadNmkDj35mlfJCVH60CAk7G8kv-hOIXme1fova1vwuTga5w3TLKl1mRawlh_5gg9yOHjODq9JwWi7DJJQVlCy7qQjhiGr-ZcHmTVSuRmL0tyIAj5kZ2X3nlTHsrUGS1gWK7uqiLdYObRGkChFNCMcVDgWu8g41lc_tbQsTOHp33WBFlIAidLBrYqL572fvpwGBlfEmkTdG3D3k_0QI3NvNgpsiUaosIUhVv9X8k3OOPau_EJdAga6UpSw5N-TReIb1qfvUjmU1I1W770TFfYTjvhl4LXdA3zSOyzS2rOmsU8SKMp7ylCgcSLBRYJ0gV1M-UlHozb9_iYPOmsuMIQC4qVAFoj9PcYvG6DATgv7uo3QsxB1RiDaOdySi4dDll60tGrEt_nOBQlOCUYd5u-kKwgb5toBN6-aUML3dhtznNZL1TgoivIOQX55saBA4EsbFlcIe-UHoDwk-U7XFMmmSFoPxJ-YGQjYjsMAXmnpz_kmw7VwKCsHzw8DYRg_VyvF7mi7v7Fm00]--></g></svg>