<?xml version="1.0" encoding="us-ascii" standalone="no"?><svg xmlns="http://www.w3.org/2000/svg" xmlns:xlink="http://www.w3.org/1999/xlink" contentStyleType="text/css" height="756px" preserveAspectRatio="none" style="width:914px;height:756px;background:#CED4DA;" version="1.1" viewBox="0 0 914 756" width="914px" zoomAndPan="magnify"><defs/><g><rect fill="#CED4DA" height="756" style="stroke:none;stroke-width:1.0;" width="914" x="0" y="0"/><!--class Balloon<PT>--><g id="elem_Balloon&lt;PT&gt;"><rect codeLine="7" fill="#FFFFFF" height="536.9063" id="Balloon&lt;PT&gt;" rx="2.5" ry="2.5" style="stroke:#272B30;stroke-width:0.5;" width="731" x="23" y="213"/><ellipse cx="337.75" cy="229" fill="#ADD1B2" rx="11" ry="11" style="stroke:#181818;stroke-width:1.0;"/><path d="M340.7188,234.6406 Q340.1406,234.9375 339.5,235.0781 Q338.8594,235.2344 338.1563,235.2344 Q335.6563,235.2344 334.3281,233.5938 Q333.0156,231.9375 333.0156,228.8125 Q333.0156,225.6875 334.3281,224.0313 Q335.6563,222.375 338.1563,222.375 Q338.8594,222.375 339.5,222.5313 Q340.1563,222.6875 340.7188,222.9844 L340.7188,225.7031 Q340.0938,225.125 339.5,224.8594 Q338.9063,224.5781 338.2813,224.5781 Q336.9375,224.5781 336.25,225.6563 Q335.5625,226.7188 335.5625,228.8125 Q335.5625,230.9063 336.25,231.9844 Q336.9375,233.0469 338.2813,233.0469 Q338.9063,233.0469 339.5,232.7813 Q340.0938,232.5 340.7188,231.9219 L340.7188,234.6406 Z " fill="#000000"/><text fill="#000000" font-family="sans-serif" font-size="14" lengthAdjust="spacing" textLength="93" x="358.25" y="233.8467">Balloon&lt;PT&gt;</text><line style="stroke:#272B30;stroke-width:0.5;" x1="24" x2="753" y1="245" y2="245"/><ellipse cx="34" cy="258.6484" fill="none" rx="3" ry="3" style="stroke:#038048;stroke-width:1.0;"/><text fill="#000000" font-family="sans-serif" font-size="14" lengthAdjust="spacing" textLength="118" x="43" y="261.9951">isOpen : boolean</text><rect fill="none" height="6" style="stroke:#C82930;stroke-width:1.0;" width="6" x="31" y="271.9453"/><text fill="#000000" font-family="sans-serif" font-size="14" lengthAdjust="spacing" textLength="278" x="43" y="278.292">_currentFocusedElementIndex : number</text><rect fill="none" height="6" style="stroke:#C82930;stroke-width:1.0;" width="6" x="31" y="288.2422"/><text fill="#000000" font-family="sans-serif" font-size="14" lengthAdjust="spacing" textLength="180" x="43" y="294.5889">_eventBodyClick : Generic</text><rect fill="none" height="6" style="stroke:#C82930;stroke-width:1.0;" width="6" x="31" y="304.5391"/><text fill="#000000" font-family="sans-serif" font-size="14" lengthAdjust="spacing" textLength="197" x="43" y="310.8857">_eventOnKeypress : Generic</text><rect fill="none" height="6" style="stroke:#C82930;stroke-width:1.0;" width="6" x="31" y="320.8359"/><text fill="#000000" font-family="sans-serif" font-size="14" lengthAdjust="spacing" textLength="238" x="43" y="327.1826">_floatingInstance : FloatingPosition</text><rect fill="none" height="6" style="stroke:#C82930;stroke-width:1.0;" width="6" x="31" y="337.1328"/><text fill="#000000" font-family="sans-serif" font-size="14" lengthAdjust="spacing" textLength="277" x="43" y="343.4795">_floatingOptions : FloatingPositionConfig</text><rect fill="none" height="6" style="stroke:#C82930;stroke-width:1.0;" width="6" x="31" y="353.4297"/><text fill="#000000" font-family="sans-serif" font-size="14" lengthAdjust="spacing" textLength="359" x="43" y="359.7764">_focusableBalloonElements : NodeListOf&lt;Element&gt;</text><rect fill="none" height="6" style="stroke:#C82930;stroke-width:1.0;" width="6" x="31" y="369.7266"/><text fill="#000000" font-family="sans-serif" font-size="14" lengthAdjust="spacing" textLength="279" x="43" y="376.0732">_focusManagerInstance : FocusManager</text><rect fill="none" height="6" style="stroke:#C82930;stroke-width:1.0;" width="6" x="31" y="386.0234"/><text fill="#000000" font-family="sans-serif" font-size="14" lengthAdjust="spacing" textLength="221" x="43" y="392.3701">_focusTrapInstance : FocusTrap</text><rect fill="none" height="6" style="stroke:#C82930;stroke-width:1.0;" width="6" x="31" y="402.3203"/><text fill="#000000" font-family="sans-serif" font-size="14" lengthAdjust="spacing" textLength="181" x="43" y="408.667">_isOpenedByApi : boolean</text><rect fill="none" height="6" style="stroke:#C82930;stroke-width:1.0;" width="6" x="31" y="418.6172"/><text fill="#000000" font-family="sans-serif" font-size="14" lengthAdjust="spacing" textLength="179" x="43" y="424.9639">_onToggleEvent : Generic</text><line style="stroke:#272B30;stroke-width:0.5;" x1="24" x2="753" y1="432.2656" y2="432.2656"/><ellipse cx="34" cy="445.9141" fill="#84BE84" rx="3" ry="3" style="stroke:#038048;stroke-width:1.0;"/><text fill="#000000" font-family="sans-serif" font-size="14" lengthAdjust="spacing" textLength="84" x="43" y="449.2607">build() : void</text><ellipse cx="34" cy="462.2109" fill="#84BE84" rx="3" ry="3" style="stroke:#038048;stroke-width:1.0;"/><text fill="#000000" font-family="sans-serif" font-size="14" lengthAdjust="spacing" textLength="88" x="43" y="465.5576">close() : void</text><ellipse cx="34" cy="478.5078" fill="#84BE84" rx="3" ry="3" style="stroke:#038048;stroke-width:1.0;"/><text fill="#000000" font-family="sans-serif" font-size="14" lengthAdjust="spacing" textLength="106" x="43" y="481.8545">dispose() : void</text><ellipse cx="34" cy="494.8047" fill="#84BE84" rx="3" ry="3" style="stroke:#038048;stroke-width:1.0;"/><text fill="#000000" font-family="sans-serif" font-size="14" lengthAdjust="spacing" textLength="544" x="43" y="498.1514">open(isOpenedByApi: boolean, arrowKeyPressed: ArrowDown | ArrowUp) : void</text><ellipse cx="34" cy="511.1016" fill="#84BE84" rx="3" ry="3" style="stroke:#038048;stroke-width:1.0;"/><text fill="#000000" font-family="sans-serif" font-size="14" lengthAdjust="spacing" textLength="306" x="43" y="514.4482">setBalloonShape(shape: ShapeTypes) : void</text><ellipse cx="34" cy="527.3984" fill="#84BE84" rx="3" ry="3" style="stroke:#038048;stroke-width:1.0;"/><text fill="#000000" font-family="sans-serif" font-size="14" lengthAdjust="spacing" textLength="322" x="43" y="530.7451">setFloatingBehaviour(isUpdate: boolean) : void</text><ellipse cx="34" cy="543.6953" fill="#84BE84" rx="3" ry="3" style="stroke:#038048;stroke-width:1.0;"/><text fill="#000000" font-family="sans-serif" font-size="14" lengthAdjust="spacing" textLength="179" x="43" y="547.042">setFloatingConfigs() : void</text><ellipse cx="34" cy="559.9922" fill="#84BE84" rx="3" ry="3" style="stroke:#038048;stroke-width:1.0;"/><text fill="#000000" font-family="sans-serif" font-size="14" lengthAdjust="spacing" textLength="470" x="43" y="563.3389">updateFloatingConfigs(floatingConfigs: FloatingPositionConfig) : void</text><ellipse cx="34" cy="576.2891" fill="#84BE84" rx="3" ry="3" style="stroke:#038048;stroke-width:1.0;"/><text fill="#000000" font-family="sans-serif" font-size="14" lengthAdjust="spacing" textLength="374" x="43" y="579.6357">updatePositionOption(position: FloatingPosition) : void</text><rect fill="#F24D5C" height="6" style="stroke:#C82930;stroke-width:1.0;" width="6" x="31" y="589.5859"/><text fill="#000000" font-family="sans-serif" font-size="14" lengthAdjust="spacing" textLength="378" x="43" y="595.9326">_bodyClickCallback(_args: string, e: MouseEvent) : void</text><rect fill="#F24D5C" height="6" style="stroke:#C82930;stroke-width:1.0;" width="6" x="31" y="605.8828"/><text fill="#000000" font-family="sans-serif" font-size="14" lengthAdjust="spacing" textLength="207" x="43" y="612.2295">_handleFocusBehavior() : void</text><rect fill="#F24D5C" height="6" style="stroke:#C82930;stroke-width:1.0;" width="6" x="31" y="622.1797"/><text fill="#000000" font-family="sans-serif" font-size="14" lengthAdjust="spacing" textLength="527" x="43" y="628.5264">_manageFocusInsideBalloon(arrowKeyPressed: ArrowDown | ArrowUp) : void</text><rect fill="#F24D5C" height="6" style="stroke:#C82930;stroke-width:1.0;" width="6" x="31" y="638.4766"/><text fill="#000000" font-family="sans-serif" font-size="14" lengthAdjust="spacing" textLength="318" x="43" y="644.8232">_onkeypressCallback(e: KeyboardEvent) : void</text><rect fill="#F24D5C" height="6" style="stroke:#C82930;stroke-width:1.0;" width="6" x="31" y="654.7734"/><text fill="#000000" font-family="sans-serif" font-size="14" lengthAdjust="spacing" textLength="212" x="43" y="661.1201">_removeEventListeners() : void</text><rect fill="#F24D5C" height="6" style="stroke:#C82930;stroke-width:1.0;" width="6" x="31" y="671.0703"/><text fill="#000000" font-family="sans-serif" font-size="14" lengthAdjust="spacing" textLength="187" x="43" y="677.417">_setA11YProperties() : void</text><rect fill="#F24D5C" height="6" style="stroke:#C82930;stroke-width:1.0;" width="6" x="31" y="687.3672"/><text fill="#000000" font-family="sans-serif" font-size="14" lengthAdjust="spacing" textLength="145" x="43" y="693.7139">_setCallbacks() : void</text><rect fill="#F24D5C" height="6" style="stroke:#C82930;stroke-width:1.0;" width="6" x="31" y="703.6641"/><text fill="#000000" font-family="sans-serif" font-size="14" lengthAdjust="spacing" textLength="182" x="43" y="710.0107">_setEventListeners() : void</text><rect fill="#F24D5C" height="6" style="stroke:#C82930;stroke-width:1.0;" width="6" x="31" y="719.9609"/><text fill="#000000" font-family="sans-serif" font-size="14" lengthAdjust="spacing" textLength="705" x="43" y="726.3076">_toggleBalloon(isOpen: boolean, isBodyClick: boolean, arrowKeyPressed: ArrowDown | ArrowUp) : void</text><rect fill="#F24D5C" height="6" style="stroke:#C82930;stroke-width:1.0;" width="6" x="31" y="736.2578"/><text fill="#000000" font-family="sans-serif" font-size="14" lengthAdjust="spacing" textLength="163" x="43" y="742.6045">_unsetCallbacks() : void</text></g><!--class AbstractFeature<PT, BalloonOptions>--><g id="elem_AbstractFeature&lt;PT, BalloonOptions&gt;"><rect codeLine="39" fill="#FFFFFF" height="113.1875" id="AbstractFeature&lt;PT, BalloonOptions&gt;" rx="2.5" ry="2.5" style="stroke:#272B30;stroke-width:0.5;" width="295" x="7" y="23.5"/><ellipse cx="22" cy="39.5" fill="#A9DCDF" rx="11" ry="11" style="stroke:#181818;stroke-width:1.0;"/><path d="M22.1094,34.8438 L20.9531,39.9219 L23.2813,39.9219 L22.1094,34.8438 Z M20.625,32.6094 L23.6094,32.6094 L26.9688,45 L24.5156,45 L23.75,41.9375 L20.4688,41.9375 L19.7188,45 L17.2813,45 L20.625,32.6094 Z " fill="#000000"/><text fill="#000000" font-family="sans-serif" font-size="14" font-style="italic" lengthAdjust="spacing" textLength="263" x="36" y="44.3467">AbstractFeature&lt;PT, BalloonOptions&gt;</text><line style="stroke:#272B30;stroke-width:0.5;" x1="8" x2="301" y1="55.5" y2="55.5"/><rect fill="none" height="6" style="stroke:#C82930;stroke-width:1.0;" width="6" x="15" y="66.1484"/><text fill="#000000" font-family="sans-serif" font-size="14" lengthAdjust="spacing" textLength="198" x="27" y="72.4951">_featureElem : HTMLElement</text><rect fill="none" height="6" style="stroke:#C82930;stroke-width:1.0;" width="6" x="15" y="82.4453"/><text fill="#000000" font-family="sans-serif" font-size="14" lengthAdjust="spacing" textLength="228" x="27" y="88.792">_featureOptions : BalloonOptions</text><rect fill="none" height="6" style="stroke:#C82930;stroke-width:1.0;" width="6" x="15" y="98.7422"/><text fill="#000000" font-family="sans-serif" font-size="14" lengthAdjust="spacing" textLength="137" x="27" y="105.0889">_featurePattern : PT</text><line style="stroke:#272B30;stroke-width:0.5;" x1="8" x2="301" y1="112.3906" y2="112.3906"/><ellipse cx="18" cy="126.0391" fill="#84BE84" rx="3" ry="3" style="stroke:#038048;stroke-width:1.0;"/><text fill="#000000" font-family="sans-serif" font-size="14" lengthAdjust="spacing" textLength="106" x="27" y="129.3857">dispose() : void</text></g><!--class IBalloon--><g id="elem_IBalloon"><rect codeLine="46" fill="#FFFFFF" height="145.7813" id="IBalloon" rx="2.5" ry="2.5" style="stroke:#272B30;stroke-width:0.5;" width="570" x="337.5" y="7"/><ellipse cx="590.75" cy="23" fill="#B4A7E5" rx="11" ry="11" style="stroke:#181818;stroke-width:1.0;"/><path d="M586.6719,18.7656 L586.6719,16.6094 L594.0625,16.6094 L594.0625,18.7656 L591.5938,18.7656 L591.5938,26.8438 L594.0625,26.8438 L594.0625,29 L586.6719,29 L586.6719,26.8438 L589.1406,26.8438 L589.1406,18.7656 L586.6719,18.7656 Z " fill="#000000"/><text fill="#000000" font-family="sans-serif" font-size="14" font-style="italic" lengthAdjust="spacing" textLength="55" x="611.25" y="27.8467">IBalloon</text><line style="stroke:#272B30;stroke-width:0.5;" x1="338.5" x2="906.5" y1="39" y2="39"/><ellipse cx="348.5" cy="52.6484" fill="none" rx="3" ry="3" style="stroke:#038048;stroke-width:1.0;"/><text fill="#000000" font-family="sans-serif" font-size="14" lengthAdjust="spacing" textLength="118" x="357.5" y="55.9951">isOpen : boolean</text><line style="stroke:#272B30;stroke-width:0.5;" x1="338.5" x2="906.5" y1="63.2969" y2="63.2969"/><ellipse cx="348.5" cy="76.9453" fill="#84BE84" rx="3" ry="3" style="stroke:#038048;stroke-width:1.0;"/><text fill="#000000" font-family="sans-serif" font-size="14" lengthAdjust="spacing" textLength="88" x="357.5" y="80.292">close() : void</text><ellipse cx="348.5" cy="93.2422" fill="#84BE84" rx="3" ry="3" style="stroke:#038048;stroke-width:1.0;"/><text fill="#000000" font-family="sans-serif" font-size="14" lengthAdjust="spacing" textLength="106" x="357.5" y="96.5889">dispose() : void</text><ellipse cx="348.5" cy="109.5391" fill="#84BE84" rx="3" ry="3" style="stroke:#038048;stroke-width:1.0;"/><text fill="#000000" font-family="sans-serif" font-size="14" lengthAdjust="spacing" textLength="544" x="357.5" y="112.8857">open(isOpenedByApi: boolean, arrowKeyPressed: ArrowDown | ArrowUp) : void</text><ellipse cx="348.5" cy="125.8359" fill="#84BE84" rx="3" ry="3" style="stroke:#038048;stroke-width:1.0;"/><text fill="#000000" font-family="sans-serif" font-size="14" lengthAdjust="spacing" textLength="306" x="357.5" y="129.1826">setBalloonShape(shape: ShapeTypes) : void</text><ellipse cx="348.5" cy="142.1328" fill="#84BE84" rx="3" ry="3" style="stroke:#038048;stroke-width:1.0;"/><text fill="#000000" font-family="sans-serif" font-size="14" lengthAdjust="spacing" textLength="374" x="357.5" y="145.4795">updatePositionOption(position: FloatingPosition) : void</text></g><!--reverse link AbstractFeature<PT, BalloonOptions> to Balloon<PT>--><g id="link_AbstractFeature&lt;PT, BalloonOptions&gt;_Balloon&lt;PT&gt;"><path codeLine="45" d="M196.1361,152.0826 C208.7561,173.6326 215.09,184.44 231.73,212.86 " fill="none" id="AbstractFeature&lt;PT, BalloonOptions&gt;-backto-Balloon&lt;PT&gt;" style="stroke:#272B30;stroke-width:1.0;"/><polygon fill="none" points="187.04,136.55,190.9586,155.1146,201.3136,149.0505,187.04,136.55" style="stroke:#272B30;stroke-width:1.0;"/></g><!--reverse link IBalloon to Balloon<PT>--><g id="link_IBalloon_Balloon&lt;PT&gt;"><path codeLine="54" d="M571.0206,168.8807 C560.5506,186.7507 557.81,191.43 545.29,212.83 " fill="none" id="IBalloon-backto-Balloon&lt;PT&gt;" style="stroke:#272B30;stroke-width:1.0;stroke-dasharray:7.0,7.0;"/><polygon fill="none" points="580.12,153.35,565.8437,165.8475,576.1975,171.9138,580.12,153.35" style="stroke:#272B30;stroke-width:1.0;"/></g><!--SRC=[rLLDRnen4BtpAwpqibL3rAILAaKe4j2aZPeKf993JyYxdWKBhyUolQIeoN_lUDUGtOL4_JYL0y8pRyRFCsy6jvBQSCiBDbRSkQ6rU3z6XPQzEljmbhvxstDjn0Yj0FioX6UhXSLIYmZByxo1sNDd8DuBtbjA0GmAupUi0Bz4uPgcN88YInOkO4SZhXIY7and5qViPu_Hvurq4mEQdRCKKG7NbRK_pqfhGVihp4e7ub91GQThBU07GNLPf60Z4jRa6Q7OZ9NCLkJz11gip9hkYVu26sE1I7JzkKBkfLvSQ-Uvpe00Lz4qHIUzHDr1JammkWF0CUfSBhRmG9sd2kAhunj2t5SKS2ETd-I3QBre1jropHTWcumQvYPoPhdfme8jOkhQWXXjXaRkbHZr31SB1PUXGfswl4bBgKJocinhbAAsPGeTT6n2EhDlHResQTs-k_oOyQ1MwiSqz0F4EQla-n7lDNkeVz-PTZe7FXRnsv8RI5puFcVLOROnuFRWsywCOCdN4ajBREwCu1vsH9wDgRleEaygg-Wk9c-VdvF4eLHRH2sdnCJZVefMS7-URgK-ffAaD9N9dDjmjVEMeeuPFV4MQMggldQ2brmB1PLEOcbiqe4KbSmg24cBHZcMFldZlWM9hUBSxSWIEygH8hVY444B1Qvhwc52WYHTbo7rQdXw-drgIMRMIpW4sDvtoFToTbyDnVRHjOWRwfLkjsl-HTFzUQaFqtpiyPHQoJFFujeSnlCLS5zQeFLvp2A_k8jswvJsGWqAUuKoVfxTtiGLq_O_BR5sfZPgohq76xRpTFRCl3_sVe_VuA7VR_y3zAIcv3cdrNLq7Hql_otyDnleRoUSYlbKYS73oKcxOhy0]--></g></svg>