<?xml version="1.0" encoding="us-ascii" standalone="no"?><svg xmlns="http://www.w3.org/2000/svg" xmlns:xlink="http://www.w3.org/1999/xlink" contentStyleType="text/css" height="495px" preserveAspectRatio="none" style="width:394px;height:495px;background:#CED4DA;" version="1.1" viewBox="0 0 394 495" width="394px" zoomAndPan="magnify"><defs/><g><rect fill="#CED4DA" height="495" style="stroke:none;stroke-width:1.0;" width="394" x="0" y="0"/><!--class BalloonOnToggle--><g id="elem_BalloonOnToggle"><rect codeLine="7" fill="#FFFFFF" height="194.6719" id="BalloonOnToggle" rx="2.5" ry="2.5" style="stroke:#272B30;stroke-width:0.5;" width="370" x="13" y="294"/><ellipse cx="134.25" cy="310" fill="#ADD1B2" rx="11" ry="11" style="stroke:#181818;stroke-width:1.0;"/><path d="M137.2188,315.6406 Q136.6406,315.9375 136,316.0781 Q135.3594,316.2344 134.6563,316.2344 Q132.1563,316.2344 130.8281,314.5938 Q129.5156,312.9375 129.5156,309.8125 Q129.5156,306.6875 130.8281,305.0313 Q132.1563,303.375 134.6563,303.375 Q135.3594,303.375 136,303.5313 Q136.6563,303.6875 137.2188,303.9844 L137.2188,306.7031 Q136.5938,306.125 136,305.8594 Q135.4063,305.5781 134.7813,305.5781 Q133.4375,305.5781 132.75,306.6563 Q132.0625,307.7188 132.0625,309.8125 Q132.0625,311.9063 132.75,312.9844 Q133.4375,314.0469 134.7813,314.0469 Q135.4063,314.0469 136,313.7813 Q136.5938,313.5 137.2188,312.9219 L137.2188,315.6406 Z " fill="#000000"/><text fill="#000000" font-family="sans-serif" font-size="14" lengthAdjust="spacing" textLength="119" x="154.75" y="314.8467">BalloonOnToggle</text><line style="stroke:#272B30;stroke-width:0.5;" x1="14" x2="382" y1="326" y2="326"/><polygon fill="none" points="24,334.6484,28,338.6484,24,342.6484,20,338.6484" style="stroke:#B38D22;stroke-width:1.0;"/><text fill="#000000" font-family="sans-serif" font-size="14" lengthAdjust="spacing" textLength="248" x="33" y="342.9951">eventCallback : EventListenerObject</text><polygon fill="none" points="24,350.9453,28,354.9453,24,358.9453,20,354.9453" style="stroke:#B38D22;stroke-width:1.0;"/><text fill="#000000" font-family="sans-serif" font-size="14" lengthAdjust="spacing" textLength="150" x="33" y="359.292">useCapture : boolean</text><line style="stroke:#272B30;stroke-width:0.5;" x1="14" x2="382" y1="366.5938" y2="366.5938"/><ellipse cx="24" cy="380.2422" fill="#84BE84" rx="3" ry="3" style="stroke:#038048;stroke-width:1.0;"/><text fill="#000000" font-family="sans-serif" font-size="14" lengthAdjust="spacing" textLength="116" x="33" y="383.5889">addEvent() : void</text><ellipse cx="24" cy="396.5391" fill="#84BE84" rx="3" ry="3" style="stroke:#038048;stroke-width:1.0;"/><text fill="#000000" font-family="sans-serif" font-size="14" lengthAdjust="spacing" textLength="265" x="33" y="399.8857">addHandler(handler: OSGeneric) : void</text><ellipse cx="24" cy="412.8359" fill="#84BE84" rx="3" ry="3" style="stroke:#038048;stroke-width:1.0;"/><text fill="#000000" font-family="sans-serif" font-size="14" lengthAdjust="spacing" textLength="165" x="33" y="416.1826">hasHandlers() : boolean</text><ellipse cx="24" cy="429.1328" fill="#84BE84" rx="3" ry="3" style="stroke:#038048;stroke-width:1.0;"/><text fill="#000000" font-family="sans-serif" font-size="14" lengthAdjust="spacing" textLength="142" x="33" y="432.4795">removeEvent() : void</text><ellipse cx="24" cy="445.4297" fill="#84BE84" rx="3" ry="3" style="stroke:#038048;stroke-width:1.0;"/><text fill="#000000" font-family="sans-serif" font-size="14" lengthAdjust="spacing" textLength="291" x="33" y="448.7764">removeHandler(handler: OSGeneric) : void</text><ellipse cx="24" cy="461.7266" fill="#84BE84" rx="3" ry="3" style="stroke:#038048;stroke-width:1.0;"/><text fill="#000000" font-family="sans-serif" font-size="14" lengthAdjust="spacing" textLength="295" x="33" y="465.0732">trigger(data: string, args: unknown[]) : void</text><rect fill="#F24D5C" height="6" style="stroke:#C82930;stroke-width:1.0;" width="6" x="21" y="475.0234"/><text fill="#000000" font-family="sans-serif" font-size="14" lengthAdjust="spacing" textLength="344" x="33" y="481.3701">_onToggleTrigger(evt: CustomEvent&lt;any&gt;) : void</text></g><!--class AbstractListener<string>--><g id="elem_AbstractListener&lt;string&gt;"><rect codeLine="18" fill="#FFFFFF" height="227.2656" id="AbstractListener&lt;string&gt;" rx="2.5" ry="2.5" style="stroke:#272B30;stroke-width:0.5;" width="378" x="9" y="7"/><ellipse cx="106.75" cy="23" fill="#A9DCDF" rx="11" ry="11" style="stroke:#181818;stroke-width:1.0;"/><path d="M106.8594,18.3438 L105.7031,23.4219 L108.0313,23.4219 L106.8594,18.3438 Z M105.375,16.1094 L108.3594,16.1094 L111.7188,28.5 L109.2656,28.5 L108.5,25.4375 L105.2188,25.4375 L104.4688,28.5 L102.0313,28.5 L105.375,16.1094 Z " fill="#000000"/><text fill="#000000" font-family="sans-serif" font-size="14" font-style="italic" lengthAdjust="spacing" textLength="174" x="127.25" y="27.8467">AbstractListener&lt;string&gt;</text><line style="stroke:#272B30;stroke-width:0.5;" x1="10" x2="386" y1="39" y2="39"/><polygon fill="none" points="20,47.6484,24,51.6484,20,55.6484,16,51.6484" style="stroke:#B38D22;stroke-width:1.0;"/><text fill="#000000" font-family="sans-serif" font-size="14" lengthAdjust="spacing" textLength="248" x="29" y="55.9951">eventCallback : EventListenerObject</text><polygon fill="none" points="20,63.9453,24,67.9453,20,71.9453,16,67.9453" style="stroke:#B38D22;stroke-width:1.0;"/><text fill="#000000" font-family="sans-serif" font-size="14" lengthAdjust="spacing" textLength="150" x="29" y="72.292">useCapture : boolean</text><rect fill="none" height="6" style="stroke:#C82930;stroke-width:1.0;" width="6" x="17" y="82.2422"/><text fill="#000000" font-family="sans-serif" font-size="14" lengthAdjust="spacing" textLength="138" x="29" y="88.5889">_eventName : string</text><rect fill="none" height="6" style="stroke:#C82930;stroke-width:1.0;" width="6" x="17" y="98.5391"/><text fill="#000000" font-family="sans-serif" font-size="14" lengthAdjust="spacing" textLength="352" x="29" y="104.8857">_eventTarget : HTMLElement | Document | Window</text><rect fill="none" height="6" style="stroke:#C82930;stroke-width:1.0;" width="6" x="17" y="114.8359"/><text fill="#000000" font-family="sans-serif" font-size="14" lengthAdjust="spacing" textLength="302" x="29" y="121.1826">_eventType : HTMLEvent | BalloonOnToggle</text><line style="stroke:#272B30;stroke-width:0.5;" x1="10" x2="386" y1="128.4844" y2="128.4844"/><ellipse cx="20" cy="142.1328" fill="#84BE84" rx="3" ry="3" style="stroke:#038048;stroke-width:1.0;"/><text fill="#000000" font-family="sans-serif" font-size="14" lengthAdjust="spacing" textLength="116" x="29" y="145.4795">addEvent() : void</text><ellipse cx="20" cy="158.4297" fill="#84BE84" rx="3" ry="3" style="stroke:#038048;stroke-width:1.0;"/><text fill="#000000" font-family="sans-serif" font-size="14" lengthAdjust="spacing" textLength="265" x="29" y="161.7764">addHandler(handler: OSGeneric) : void</text><ellipse cx="20" cy="174.7266" fill="#84BE84" rx="3" ry="3" style="stroke:#038048;stroke-width:1.0;"/><text fill="#000000" font-family="sans-serif" font-size="14" lengthAdjust="spacing" textLength="165" x="29" y="178.0732">hasHandlers() : boolean</text><ellipse cx="20" cy="191.0234" fill="#84BE84" rx="3" ry="3" style="stroke:#038048;stroke-width:1.0;"/><text fill="#000000" font-family="sans-serif" font-size="14" lengthAdjust="spacing" textLength="142" x="29" y="194.3701">removeEvent() : void</text><ellipse cx="20" cy="207.3203" fill="#84BE84" rx="3" ry="3" style="stroke:#038048;stroke-width:1.0;"/><text fill="#000000" font-family="sans-serif" font-size="14" lengthAdjust="spacing" textLength="291" x="29" y="210.667">removeHandler(handler: OSGeneric) : void</text><ellipse cx="20" cy="223.6172" fill="#84BE84" rx="3" ry="3" style="stroke:#038048;stroke-width:1.0;"/><text fill="#000000" font-family="sans-serif" font-size="14" lengthAdjust="spacing" textLength="295" x="29" y="226.9639">trigger(data: string, args: unknown[]) : void</text></g><!--reverse link AbstractListener<string> to BalloonOnToggle--><g id="link_AbstractListener&lt;string&gt;_BalloonOnToggle"><path codeLine="31" d="M198,252.02 C198,271.89 198,274.42 198,293.8 " fill="none" id="AbstractListener&lt;string&gt;-backto-BalloonOnToggle" style="stroke:#272B30;stroke-width:1.0;"/><polygon fill="none" points="198,234.02,192,252.02,204,252.02,198,234.02" style="stroke:#272B30;stroke-width:1.0;"/></g><!--SRC=[tLFDQi904BxdAOPwiRH2iOL2445JgGTR3nLwA4KcsJ6cRdPaTnEHwhjtJQAOMgI7dffBClFzPMTtpI9HIzIOGY3Hc9xMl0fOieP6-xuTtjvufixeinQaprCmMiIQCoKgscmsE-ASm169Eu7UF144b2xj6bAoSnRck3LBIBfEj0k0YpvAoQp6Qi9nBEa2FZrmJuDoKZPmOEX2m8V1hXubnf8YFGu_AB8bCJCKuD9ccXmhP9Q4ga2kK8X2rRnqICw9EBI7g8GatPoNRn_6BuyxtoIgK-TeAgefJ6hscbBEwQU44lbjYDL973kUG8i-65Ug-1fGnyQ7J2qKhzJRUqtIcd8rhacbfTpw46J6SbhyK0VLkdlGR3qCdIz65ggfzwfwFz1E6Tlzm_6tfeN7CwOxfFG_1YPkXMGTD9myZGQIKjU33Jnmb5MVhuaIlAffralQA_AIzEty_EETttfdjgspQRLEBzCN]--></g></svg>