<?xml version="1.0" encoding="UTF-8" standalone="no"?><svg xmlns="http://www.w3.org/2000/svg" xmlns:xlink="http://www.w3.org/1999/xlink" contentScriptType="application/ecmascript" contentStyleType="text/css" height="766px" preserveAspectRatio="none" style="width:448px;height:766px;background:#CED4DA;" version="1.1" viewBox="0 0 448 766" width="448px" zoomAndPan="magnify"><defs><filter height="300%" id="fd9x7h3dsuj48" width="300%" x="-1" y="-1"><feGaussianBlur result="blurOut" stdDeviation="2.0"/><feColorMatrix in="blurOut" result="blurOut2" type="matrix" values="0 0 0 0 0 0 0 0 0 0 0 0 0 0 0 0 0 0 .4 0"/><feOffset dx="4.0" dy="4.0" in="blurOut2" result="blurOut3"/><feBlend in="SourceGraphic" in2="blurOut3" mode="normal"/></filter></defs><g><!--MD5=[fea15f7924bd848149aeb562f3a4d86b]
class Bar--><rect codeLine="7" fill="#FFFFFF" filter="url(#fd9x7h3dsuj48)" height="355.3125" id="Bar" style="stroke:#272B30;stroke-width:1.5;" width="425" x="9" y="397"/><ellipse cx="206.75" cy="413" fill="#ADD1B2" rx="11" ry="11" style="stroke:#272B30;stroke-width:1.0;"/><path d="M209.7188,418.6406 Q209.1406,418.9375 208.5,419.0781 Q207.8594,419.2344 207.1563,419.2344 Q204.6563,419.2344 203.3281,417.5938 Q202.0156,415.9375 202.0156,412.8125 Q202.0156,409.6875 203.3281,408.0313 Q204.6563,406.375 207.1563,406.375 Q207.8594,406.375 208.5,406.5313 Q209.1563,406.6875 209.7188,406.9844 L209.7188,409.7031 Q209.0938,409.125 208.5,408.8594 Q207.9063,408.5781 207.2813,408.5781 Q205.9375,408.5781 205.25,409.6563 Q204.5625,410.7188 204.5625,412.8125 Q204.5625,414.9063 205.25,415.9844 Q205.9375,417.0469 207.2813,417.0469 Q207.9063,417.0469 208.5,416.7813 Q209.0938,416.5 209.7188,415.9219 L209.7188,418.6406 Z " fill="#000000"/><text fill="#000000" font-family="sans-serif" font-size="12" lengthAdjust="spacing" textLength="21" x="227.25" y="417.1543">Bar</text><line style="stroke:#272B30;stroke-width:1.5;" x1="10" x2="433" y1="429" y2="429"/><polygon fill="none" points="20,435,24,439,20,443,16,439" style="stroke:#B38D22;stroke-width:1.0;"/><text fill="#000000" font-family="sans-serif" font-size="11" lengthAdjust="spacing" textLength="174" x="29" y="443.2104">_progressElem : HTMLElement</text><polygon fill="none" points="20,447.8047,24,451.8047,20,455.8047,16,451.8047" style="stroke:#B38D22;stroke-width:1.0;"/><text fill="#000000" font-family="sans-serif" font-size="11" lengthAdjust="spacing" textLength="183" x="29" y="456.0151">_progressType : ProgressTypes</text><line style="stroke:#272B30;stroke-width:1.5;" x1="10" x2="433" y1="462.6094" y2="462.6094"/><ellipse cx="20" cy="473.6094" fill="#84BE84" rx="3" ry="3" style="stroke:#038048;stroke-width:1.0;"/><text fill="#000000" font-family="sans-serif" font-size="11" lengthAdjust="spacing" textLength="70" x="29" y="476.8198">build() : void</text><ellipse cx="20" cy="486.4141" fill="#84BE84" rx="3" ry="3" style="stroke:#038048;stroke-width:1.0;"/><text fill="#000000" font-family="sans-serif" font-size="11" lengthAdjust="spacing" textLength="399" x="29" y="489.6245">changeProperty(propertyName: string, propertyValue: unknown) : void</text><ellipse cx="20" cy="499.2188" fill="#84BE84" rx="3" ry="3" style="stroke:#038048;stroke-width:1.0;"/><text fill="#000000" font-family="sans-serif" font-size="11" lengthAdjust="spacing" textLength="88" x="29" y="502.4292">dispose() : void</text><ellipse cx="20" cy="512.0234" fill="#84BE84" rx="3" ry="3" style="stroke:#038048;stroke-width:1.0;"/><text fill="#000000" font-family="sans-serif" font-size="11" lengthAdjust="spacing" textLength="220" x="29" y="515.2339">equalsToID(patternId: string) : boolean</text><polygon fill="#FFFF44" points="20,519.8281,24,523.8281,20,527.8281,16,523.8281" style="stroke:#B38D22;stroke-width:1.0;"/><text fill="#000000" font-family="sans-serif" font-size="11" lengthAdjust="spacing" textLength="150" x="29" y="528.0386">addInitialAnimation() : void</text><polygon fill="#FFFF44" points="20,532.6328,24,536.6328,20,540.6328,16,536.6328" style="stroke:#B38D22;stroke-width:1.0;"/><text fill="#000000" font-family="sans-serif" font-size="11" lengthAdjust="spacing" textLength="119" x="29" y="540.8433">animateInitial() : void</text><polygon fill="#FFFF44" points="20,545.4375,24,549.4375,20,553.4375,16,549.4375" style="stroke:#B38D22;stroke-width:1.0;"/><text fill="#000000" font-family="sans-serif" font-size="11" lengthAdjust="spacing" textLength="179" x="29" y="553.6479">animateOnValueChange() : void</text><polygon fill="#FFFF44" points="20,558.2422,24,562.2422,20,566.2422,16,562.2422" style="stroke:#B38D22;stroke-width:1.0;"/><text fill="#000000" font-family="sans-serif" font-size="11" lengthAdjust="spacing" textLength="102" x="29" y="566.4526">finishBuild() : void</text><polygon fill="#FFFF44" points="20,571.0469,24,575.0469,20,579.0469,16,575.0469" style="stroke:#B38D22;stroke-width:1.0;"/><text fill="#000000" font-family="sans-serif" font-size="11" lengthAdjust="spacing" textLength="156" x="29" y="579.2573">resetProgressValue() : void</text><polygon fill="#FFFF44" points="20,583.8516,24,587.8516,20,591.8516,16,587.8516" style="stroke:#B38D22;stroke-width:1.0;"/><text fill="#000000" font-family="sans-serif" font-size="11" lengthAdjust="spacing" textLength="148" x="29" y="592.062">setA11YProperties() : void</text><polygon fill="#FFFF44" points="20,596.6563,24,600.6563,20,604.6563,16,600.6563" style="stroke:#B38D22;stroke-width:1.0;"/><text fill="#000000" font-family="sans-serif" font-size="11" lengthAdjust="spacing" textLength="115" x="29" y="604.8667">setCallbacks() : void</text><polygon fill="#FFFF44" points="20,609.4609,24,613.4609,20,617.4609,16,613.4609" style="stroke:#B38D22;stroke-width:1.0;"/><text fill="#000000" font-family="sans-serif" font-size="11" lengthAdjust="spacing" textLength="272" x="29" y="617.6714">setElementProgressValue(value: number) : void</text><polygon fill="#FFFF44" points="20,622.2656,24,626.2656,20,630.2656,16,626.2656" style="stroke:#B38D22;stroke-width:1.0;"/><text fill="#000000" font-family="sans-serif" font-size="11" lengthAdjust="spacing" textLength="140" x="29" y="630.4761">setHtmlElements() : void</text><polygon fill="#FFFF44" points="20,635.0703,24,639.0703,20,643.0703,16,639.0703" style="stroke:#B38D22;stroke-width:1.0;"/><text fill="#000000" font-family="sans-serif" font-size="11" lengthAdjust="spacing" textLength="226" x="29" y="643.2808">setProgressValue(value: number) : void</text><polygon fill="#FFFF44" points="20,647.875,24,651.875,20,655.875,16,651.875" style="stroke:#B38D22;stroke-width:1.0;"/><text fill="#000000" font-family="sans-serif" font-size="11" lengthAdjust="spacing" textLength="129" x="29" y="656.0854">unsetCallbacks() : void</text><polygon fill="#FFFF44" points="20,660.6797,24,664.6797,20,668.6797,16,664.6797" style="stroke:#B38D22;stroke-width:1.0;"/><text fill="#000000" font-family="sans-serif" font-size="11" lengthAdjust="spacing" textLength="154" x="29" y="668.8901">unsetHtmlElements() : void</text><polygon fill="#FFFF44" points="20,673.4844,24,677.4844,20,681.4844,16,677.4844" style="stroke:#B38D22;stroke-width:1.0;"/><text fill="#000000" font-family="sans-serif" font-size="11" lengthAdjust="spacing" textLength="172" x="29" y="681.6948">updatedProgressValue() : void</text><rect fill="#F24D5C" height="6" style="stroke:#C82930;stroke-width:1.0;" width="6" x="17" y="688.2891"/><text fill="#000000" font-family="sans-serif" font-size="11" lengthAdjust="spacing" textLength="142" x="29" y="694.4995">_setCssVariables() : void</text><rect fill="#F24D5C" height="6" style="stroke:#C82930;stroke-width:1.0;" width="6" x="17" y="701.0938"/><text fill="#000000" font-family="sans-serif" font-size="11" lengthAdjust="spacing" textLength="241" x="29" y="707.3042">_updateProgressColor(value: string) : void</text><rect fill="#F24D5C" height="6" style="stroke:#C82930;stroke-width:1.0;" width="6" x="17" y="713.8984"/><text fill="#000000" font-family="sans-serif" font-size="11" lengthAdjust="spacing" textLength="195" x="29" y="720.1089">_updateShape(value: string) : void</text><rect fill="#F24D5C" height="6" style="stroke:#C82930;stroke-width:1.0;" width="6" x="17" y="726.7031"/><text fill="#000000" font-family="sans-serif" font-size="11" lengthAdjust="spacing" textLength="227" x="29" y="732.9136">_updateThickness(value: number) : void</text><rect fill="#F24D5C" height="6" style="stroke:#C82930;stroke-width:1.0;" width="6" x="17" y="739.5078"/><text fill="#000000" font-family="sans-serif" font-size="11" lengthAdjust="spacing" textLength="214" x="29" y="745.7183">_updateTrailColor(value: string) : void</text><!--MD5=[a19e6dfaf5d58a76b9a96340d3935f67]
class AbstractProgress<ProgressBarConfig>--><rect codeLine="33" fill="#FFFFFF" filter="url(#fd9x7h3dsuj48)" height="329.7031" id="AbstractProgress&lt;ProgressBarConfig&gt;" style="stroke:#272B30;stroke-width:1.5;" width="425" x="9" y="7"/><ellipse cx="98.25" cy="23" fill="#A9DCDF" rx="11" ry="11" style="stroke:#272B30;stroke-width:1.0;"/><path d="M98.3594,18.3438 L97.2031,23.4219 L99.5313,23.4219 L98.3594,18.3438 Z M96.875,16.1094 L99.8594,16.1094 L103.2188,28.5 L100.7656,28.5 L100,25.4375 L96.7188,25.4375 L95.9688,28.5 L93.5313,28.5 L96.875,16.1094 Z " fill="#000000"/><text fill="#000000" font-family="sans-serif" font-size="12" font-style="italic" lengthAdjust="spacing" textLength="238" x="118.75" y="27.1543">AbstractProgress&lt;ProgressBarConfig&gt;</text><line style="stroke:#272B30;stroke-width:1.5;" x1="10" x2="433" y1="39" y2="39"/><polygon fill="none" points="20,45,24,49,20,53,16,49" style="stroke:#B38D22;stroke-width:1.0;"/><text fill="#000000" font-family="sans-serif" font-size="11" lengthAdjust="spacing" textLength="174" x="29" y="53.2104">_progressElem : HTMLElement</text><polygon fill="none" points="20,57.8047,24,61.8047,20,65.8047,16,61.8047" style="stroke:#B38D22;stroke-width:1.0;"/><text fill="#000000" font-family="sans-serif" font-size="11" lengthAdjust="spacing" textLength="183" x="29" y="66.0151">_progressType : ProgressTypes</text><rect fill="none" height="6" style="stroke:#C82930;stroke-width:1.0;" width="6" x="17" y="72.6094"/><text fill="#000000" font-family="sans-serif" font-size="11" lengthAdjust="spacing" textLength="210" x="29" y="78.8198">_eventAnimateEntranceEnd : Generic</text><line style="stroke:#272B30;stroke-width:1.5;" x1="10" x2="433" y1="85.4141" y2="85.4141"/><ellipse cx="20" cy="96.4141" fill="#84BE84" rx="3" ry="3" style="stroke:#038048;stroke-width:1.0;"/><text fill="#000000" font-family="sans-serif" font-size="11" lengthAdjust="spacing" textLength="70" x="29" y="99.6245">build() : void</text><ellipse cx="20" cy="109.2188" fill="#84BE84" rx="3" ry="3" style="stroke:#038048;stroke-width:1.0;"/><text fill="#000000" font-family="sans-serif" font-size="11" lengthAdjust="spacing" textLength="399" x="29" y="112.4292">changeProperty(propertyName: string, propertyValue: unknown) : void</text><ellipse cx="20" cy="122.0234" fill="#84BE84" rx="3" ry="3" style="stroke:#038048;stroke-width:1.0;"/><text fill="#000000" font-family="sans-serif" font-size="11" lengthAdjust="spacing" textLength="88" x="29" y="125.2339">dispose() : void</text><ellipse cx="20" cy="134.8281" fill="#84BE84" rx="3" ry="3" style="stroke:#038048;stroke-width:1.0;"/><text fill="#000000" font-family="sans-serif" font-size="11" lengthAdjust="spacing" textLength="220" x="29" y="138.0386">equalsToID(patternId: string) : boolean</text><polygon fill="#FFFF44" points="20,142.6328,24,146.6328,20,150.6328,16,146.6328" style="stroke:#B38D22;stroke-width:1.0;"/><text fill="#000000" font-family="sans-serif" font-size="11" font-style="italic" lengthAdjust="spacing" textLength="152" x="29" y="150.8433">addInitialAnimation() : void</text><polygon fill="#FFFF44" points="20,155.4375,24,159.4375,20,163.4375,16,159.4375" style="stroke:#B38D22;stroke-width:1.0;"/><text fill="#000000" font-family="sans-serif" font-size="11" lengthAdjust="spacing" textLength="119" x="29" y="163.6479">animateInitial() : void</text><polygon fill="#FFFF44" points="20,168.2422,24,172.2422,20,176.2422,16,172.2422" style="stroke:#B38D22;stroke-width:1.0;"/><text fill="#000000" font-family="sans-serif" font-size="11" lengthAdjust="spacing" textLength="179" x="29" y="176.4526">animateOnValueChange() : void</text><polygon fill="#FFFF44" points="20,181.0469,24,185.0469,20,189.0469,16,185.0469" style="stroke:#B38D22;stroke-width:1.0;"/><text fill="#000000" font-family="sans-serif" font-size="11" lengthAdjust="spacing" textLength="102" x="29" y="189.2573">finishBuild() : void</text><polygon fill="#FFFF44" points="20,193.8516,24,197.8516,20,201.8516,16,197.8516" style="stroke:#B38D22;stroke-width:1.0;"/><text fill="#000000" font-family="sans-serif" font-size="11" lengthAdjust="spacing" textLength="156" x="29" y="202.062">resetProgressValue() : void</text><polygon fill="#FFFF44" points="20,206.6563,24,210.6563,20,214.6563,16,210.6563" style="stroke:#B38D22;stroke-width:1.0;"/><text fill="#000000" font-family="sans-serif" font-size="11" font-style="italic" lengthAdjust="spacing" textLength="148" x="29" y="214.8667">setA11YProperties() : void</text><polygon fill="#FFFF44" points="20,219.4609,24,223.4609,20,227.4609,16,223.4609" style="stroke:#B38D22;stroke-width:1.0;"/><text fill="#000000" font-family="sans-serif" font-size="11" lengthAdjust="spacing" textLength="115" x="29" y="227.6714">setCallbacks() : void</text><polygon fill="#FFFF44" points="20,232.2656,24,236.2656,20,240.2656,16,236.2656" style="stroke:#B38D22;stroke-width:1.0;"/><text fill="#000000" font-family="sans-serif" font-size="11" font-style="italic" lengthAdjust="spacing" textLength="272" x="29" y="240.4761">setElementProgressValue(value: number) : void</text><polygon fill="#FFFF44" points="20,245.0703,24,249.0703,20,253.0703,16,249.0703" style="stroke:#B38D22;stroke-width:1.0;"/><text fill="#000000" font-family="sans-serif" font-size="11" font-style="italic" lengthAdjust="spacing" textLength="139" x="29" y="253.2808">setHtmlElements() : void</text><polygon fill="#FFFF44" points="20,257.875,24,261.875,20,265.875,16,261.875" style="stroke:#B38D22;stroke-width:1.0;"/><text fill="#000000" font-family="sans-serif" font-size="11" lengthAdjust="spacing" textLength="226" x="29" y="266.0854">setProgressValue(value: number) : void</text><polygon fill="#FFFF44" points="20,270.6797,24,274.6797,20,278.6797,16,274.6797" style="stroke:#B38D22;stroke-width:1.0;"/><text fill="#000000" font-family="sans-serif" font-size="11" lengthAdjust="spacing" textLength="129" x="29" y="278.8901">unsetCallbacks() : void</text><polygon fill="#FFFF44" points="20,283.4844,24,287.4844,20,291.4844,16,287.4844" style="stroke:#B38D22;stroke-width:1.0;"/><text fill="#000000" font-family="sans-serif" font-size="11" lengthAdjust="spacing" textLength="154" x="29" y="291.6948">unsetHtmlElements() : void</text><polygon fill="#FFFF44" points="20,296.2891,24,300.2891,20,304.2891,16,300.2891" style="stroke:#B38D22;stroke-width:1.0;"/><text fill="#000000" font-family="sans-serif" font-size="11" lengthAdjust="spacing" textLength="172" x="29" y="304.4995">updatedProgressValue() : void</text><rect fill="#F24D5C" height="6" style="stroke:#C82930;stroke-width:1.0;" width="6" x="17" y="311.0938"/><text fill="#000000" font-family="sans-serif" font-size="11" lengthAdjust="spacing" textLength="166" x="29" y="317.3042">_animateEntranceEnd() : void</text><rect fill="#F24D5C" height="6" style="stroke:#C82930;stroke-width:1.0;" width="6" x="17" y="323.8984"/><text fill="#000000" font-family="sans-serif" font-size="11" lengthAdjust="spacing" textLength="169" x="29" y="330.1089">_setAccessibilityProps() : void</text><!--MD5=[99c40b2a38f3fc7fc89a86f4d2f55b22]
reverse link AbstractProgress<ProgressBarConfig> to Bar--><path codeLine="57" d="M221.5,357.47 C221.5,370.52 221.5,383.67 221.5,396.68 " fill="none" id="AbstractProgress&lt;ProgressBarConfig&gt;-backto-Bar" style="stroke:#272B30;stroke-width:1.0;"/><polygon fill="none" points="214.5,357.05,221.5,337.05,228.5,357.05,214.5,357.05" style="stroke:#272B30;stroke-width:1.0;"/><!--MD5=[41ac9e18988cb655a35ad91e62951f02]
@startuml
skinparam ClassArrowColor #272b30
skinparam ClassBorderColor #272b30
skinparam ClassBackgroundColor #fff
skinparam BackgroundColor #ced4da
hide empty methods
hide empty fields
class "Bar" {
    #_progressElem : HTMLElement
    #_progressType : ProgressTypes
    +build() : void
    +changeProperty(propertyName: string, propertyValue: unknown) : void
    +dispose() : void
    +equalsToID(patternId: string) : boolean
    #addInitialAnimation() : void
    #animateInitial() : void
    #animateOnValueChange() : void
    #finishBuild() : void
    #resetProgressValue() : void
    #setA11YProperties() : void
    #setCallbacks() : void
    #setElementProgressValue(value: number) : void
    #setHtmlElements() : void
    #setProgressValue(value: number) : void
    #unsetCallbacks() : void
    #unsetHtmlElements() : void
    #updatedProgressValue() : void
    -_setCssVariables() : void
    -_updateProgressColor(value: string) : void
    -_updateShape(value: string) : void
    -_updateThickness(value: number) : void
    -_updateTrailColor(value: string) : void
}
abstract class "AbstractProgress<ProgressBarConfig>" {
    #_progressElem : HTMLElement
    #_progressType : ProgressTypes
    -_eventAnimateEntranceEnd : Generic
    +build() : void
    +changeProperty(propertyName: string, propertyValue: unknown) : void
    +dispose() : void
    +equalsToID(patternId: string) : boolean
    {abstract} #addInitialAnimation() : void
    #animateInitial() : void
    #animateOnValueChange() : void
    #finishBuild() : void
    #resetProgressValue() : void
    {abstract} #setA11YProperties() : void
    #setCallbacks() : void
    {abstract} #setElementProgressValue(value: number) : void
    {abstract} #setHtmlElements() : void
    #setProgressValue(value: number) : void
    #unsetCallbacks() : void
    #unsetHtmlElements() : void
    #updatedProgressValue() : void
    -_animateEntranceEnd() : void
    -_setAccessibilityProps() : void
}
"AbstractProgress<ProgressBarConfig>" <|- - "Bar"
@enduml

PlantUML version 1.2021.14(Fri Nov 12 16:46:50 UTC 2021)
(GPL source distribution)
Java Runtime: OpenJDK Runtime Environment
JVM: OpenJDK 64-Bit Server VM
Default Encoding: UTF-8
Language: en
Country: null
--></g></svg>