<?xml version="1.0" encoding="UTF-8" standalone="no"?><svg xmlns="http://www.w3.org/2000/svg" xmlns:xlink="http://www.w3.org/1999/xlink" contentScriptType="application/ecmascript" contentStyleType="text/css" height="475px" preserveAspectRatio="none" style="width:316px;height:475px;background:#CED4DA;" version="1.1" viewBox="0 0 316 475" width="316px" zoomAndPan="magnify"><defs><filter height="300%" id="f126g97md8em44" width="300%" x="-1" y="-1"><feGaussianBlur result="blurOut" stdDeviation="2.0"/><feColorMatrix in="blurOut" result="blurOut2" type="matrix" values="0 0 0 0 0 0 0 0 0 0 0 0 0 0 0 0 0 0 .4 0"/><feOffset dx="4.0" dy="4.0" in="blurOut2" result="blurOut3"/><feBlend in="SourceGraphic" in2="blurOut3" mode="normal"/></filter></defs><g><!--MD5=[c175eb58d2f43432ba7d33f94acc81ba]
class BodyOnClick--><rect codeLine="7" fill="#FFFFFF" filter="url(#f126g97md8em44)" height="203.4609" id="BodyOnClick" style="stroke:#272B30;stroke-width:1.5;" width="257" x="27" y="258"/><ellipse cx="115.75" cy="274" fill="#ADD1B2" rx="11" ry="11" style="stroke:#272B30;stroke-width:1.0;"/><path d="M118.2231,280.1431 Q117.6421,280.4419 117.0029,280.5913 Q116.3638,280.7407 115.6582,280.7407 Q113.1514,280.7407 111.8315,279.0889 Q110.5117,277.437 110.5117,274.3159 Q110.5117,271.1865 111.8315,269.5347 Q113.1514,267.8828 115.6582,267.8828 Q116.3638,267.8828 117.0112,268.0322 Q117.6587,268.1816 118.2231,268.4805 L118.2231,271.2031 Q117.5923,270.6221 116.9988,270.3523 Q116.4053,270.0825 115.7744,270.0825 Q114.4297,270.0825 113.7449,271.1492 Q113.0601,272.2158 113.0601,274.3159 Q113.0601,276.4077 113.7449,277.4744 Q114.4297,278.541 115.7744,278.541 Q116.4053,278.541 116.9988,278.2712 Q117.5923,278.0015 118.2231,277.4204 Z " fill="#000000"/><text fill="#000000" font-family="sans-serif" font-size="12" lengthAdjust="spacing" textLength="71" x="136.25" y="278.5352">BodyOnClick</text><line style="stroke:#272B30;stroke-width:1.5;" x1="28" x2="283" y1="290" y2="290"/><polygon fill="none" points="38,296,42,300,38,304,34,300" style="stroke:#B38D22;stroke-width:1.0;"/><text fill="#000000" font-family="sans-serif" font-size="11" lengthAdjust="spacing" textLength="190" x="47" y="304.6348">eventCallback : EventListenerObject</text><polygon fill="none" points="38,308.9551,42,312.9551,38,316.9551,34,312.9551" style="stroke:#B38D22;stroke-width:1.0;"/><text fill="#000000" font-family="sans-serif" font-size="11" lengthAdjust="spacing" textLength="114" x="47" y="317.5898">useCapture : boolean</text><rect fill="none" height="6" style="stroke:#C82930;stroke-width:1.0;" width="6" x="35" y="323.9102"/><text fill="#000000" font-family="sans-serif" font-size="11" lengthAdjust="spacing" textLength="145" x="47" y="330.5449">_enableBodyClick : boolean</text><line style="stroke:#272B30;stroke-width:1.5;" x1="28" x2="283" y1="336.8652" y2="336.8652"/><ellipse cx="38" cy="347.8652" fill="#84BE84" rx="3" ry="3" style="stroke:#038048;stroke-width:1.0;"/><text fill="#000000" font-family="sans-serif" font-size="11" lengthAdjust="spacing" textLength="89" x="47" y="351.5">addEvent() : void</text><ellipse cx="38" cy="360.8203" fill="#84BE84" rx="3" ry="3" style="stroke:#038048;stroke-width:1.0;"/><text fill="#000000" font-family="sans-serif" font-size="11" lengthAdjust="spacing" textLength="205" x="47" y="364.4551">addHandler(handler: OSGeneric) : void</text><ellipse cx="38" cy="373.7754" fill="#84BE84" rx="3" ry="3" style="stroke:#038048;stroke-width:1.0;"/><text fill="#000000" font-family="sans-serif" font-size="11" lengthAdjust="spacing" textLength="159" x="47" y="377.4102">disableBodyClickEvent() : void</text><ellipse cx="38" cy="386.7305" fill="#84BE84" rx="3" ry="3" style="stroke:#038048;stroke-width:1.0;"/><text fill="#000000" font-family="sans-serif" font-size="11" lengthAdjust="spacing" textLength="156" x="47" y="390.3652">enableBodyClickEvent() : void</text><ellipse cx="38" cy="399.6855" fill="#84BE84" rx="3" ry="3" style="stroke:#038048;stroke-width:1.0;"/><text fill="#000000" font-family="sans-serif" font-size="11" lengthAdjust="spacing" textLength="127" x="47" y="403.3203">hasHandlers() : boolean</text><ellipse cx="38" cy="412.6406" fill="#84BE84" rx="3" ry="3" style="stroke:#038048;stroke-width:1.0;"/><text fill="#000000" font-family="sans-serif" font-size="11" lengthAdjust="spacing" textLength="109" x="47" y="416.2754">removeEvent() : void</text><ellipse cx="38" cy="425.5957" fill="#84BE84" rx="3" ry="3" style="stroke:#038048;stroke-width:1.0;"/><text fill="#000000" font-family="sans-serif" font-size="11" lengthAdjust="spacing" textLength="225" x="47" y="429.2305">removeHandler(handler: OSGeneric) : void</text><ellipse cx="38" cy="438.5508" fill="#84BE84" rx="3" ry="3" style="stroke:#038048;stroke-width:1.0;"/><text fill="#000000" font-family="sans-serif" font-size="11" lengthAdjust="spacing" textLength="231" x="47" y="442.1855">trigger(data: string, args: unknown[]) : void</text><rect fill="#F24D5C" height="6" style="stroke:#C82930;stroke-width:1.0;" width="6" x="35" y="448.5059"/><text fill="#000000" font-family="sans-serif" font-size="11" lengthAdjust="spacing" textLength="202" x="47" y="455.1406">_bodyTrigger(evt: PointerEvent) : void</text><!--MD5=[4c1cb893fee4f5a1fd154e0da76e287e]
class AbstractListener<string>--><rect codeLine="21" fill="#FFFFFF" filter="url(#f126g97md8em44)" height="190.5059" id="AbstractListener&lt;string&gt;" style="stroke:#272B30;stroke-width:1.5;" width="293" x="9" y="7"/><ellipse cx="78.75" cy="23" fill="#A9DCDF" rx="11" ry="11" style="stroke:#272B30;stroke-width:1.0;"/><path d="M78.6133,18.3481 L77.4595,23.4199 L79.7754,23.4199 Z M77.1191,16.1069 L80.1157,16.1069 L83.4609,28.5 L81.0122,28.5 L80.2485,25.437 L76.9697,25.437 L76.2227,28.5 L73.7739,28.5 Z " fill="#000000"/><text fill="#000000" font-family="sans-serif" font-size="12" font-style="italic" lengthAdjust="spacing" textLength="145" x="99.25" y="27.5352">AbstractListener&lt;string&gt;</text><line style="stroke:#272B30;stroke-width:1.5;" x1="10" x2="301" y1="39" y2="39"/><polygon fill="none" points="20,45,24,49,20,53,16,49" style="stroke:#B38D22;stroke-width:1.0;"/><text fill="#000000" font-family="sans-serif" font-size="11" lengthAdjust="spacing" textLength="190" x="29" y="53.6348">eventCallback : EventListenerObject</text><polygon fill="none" points="20,57.9551,24,61.9551,20,65.9551,16,61.9551" style="stroke:#B38D22;stroke-width:1.0;"/><text fill="#000000" font-family="sans-serif" font-size="11" lengthAdjust="spacing" textLength="114" x="29" y="66.5898">useCapture : boolean</text><rect fill="none" height="6" style="stroke:#C82930;stroke-width:1.0;" width="6" x="17" y="72.9102"/><text fill="#000000" font-family="sans-serif" font-size="11" lengthAdjust="spacing" textLength="106" x="29" y="79.5449">_eventName : string</text><rect fill="none" height="6" style="stroke:#C82930;stroke-width:1.0;" width="6" x="17" y="85.8652"/><text fill="#000000" font-family="sans-serif" font-size="11" lengthAdjust="spacing" textLength="267" x="29" y="92.5">_eventTarget : HTMLElement | Document | Window</text><rect fill="none" height="6" style="stroke:#C82930;stroke-width:1.0;" width="6" x="17" y="98.8203"/><text fill="#000000" font-family="sans-serif" font-size="11" lengthAdjust="spacing" textLength="231" x="29" y="105.4551">_eventType : HTMLEvent | BalloonOnToggle</text><line style="stroke:#272B30;stroke-width:1.5;" x1="10" x2="301" y1="111.7754" y2="111.7754"/><ellipse cx="20" cy="122.7754" fill="#84BE84" rx="3" ry="3" style="stroke:#038048;stroke-width:1.0;"/><text fill="#000000" font-family="sans-serif" font-size="11" lengthAdjust="spacing" textLength="89" x="29" y="126.4102">addEvent() : void</text><ellipse cx="20" cy="135.7305" fill="#84BE84" rx="3" ry="3" style="stroke:#038048;stroke-width:1.0;"/><text fill="#000000" font-family="sans-serif" font-size="11" lengthAdjust="spacing" textLength="205" x="29" y="139.3652">addHandler(handler: OSGeneric) : void</text><ellipse cx="20" cy="148.6855" fill="#84BE84" rx="3" ry="3" style="stroke:#038048;stroke-width:1.0;"/><text fill="#000000" font-family="sans-serif" font-size="11" lengthAdjust="spacing" textLength="127" x="29" y="152.3203">hasHandlers() : boolean</text><ellipse cx="20" cy="161.6406" fill="#84BE84" rx="3" ry="3" style="stroke:#038048;stroke-width:1.0;"/><text fill="#000000" font-family="sans-serif" font-size="11" lengthAdjust="spacing" textLength="109" x="29" y="165.2754">removeEvent() : void</text><ellipse cx="20" cy="174.5957" fill="#84BE84" rx="3" ry="3" style="stroke:#038048;stroke-width:1.0;"/><text fill="#000000" font-family="sans-serif" font-size="11" lengthAdjust="spacing" textLength="225" x="29" y="178.2305">removeHandler(handler: OSGeneric) : void</text><ellipse cx="20" cy="187.5508" fill="#84BE84" rx="3" ry="3" style="stroke:#038048;stroke-width:1.0;"/><text fill="#000000" font-family="sans-serif" font-size="11" lengthAdjust="spacing" textLength="231" x="29" y="191.1855">trigger(data: string, args: unknown[]) : void</text><!--MD5=[f591103fd4908ba9f74e3b29c37b6d86]
reverse link AbstractListener<string> to BodyOnClick--><path codeLine="34" d="M155.5,218.42 C155.5,231.51 155.5,244.77 155.5,257.65 " fill="none" id="AbstractListener&lt;string&gt;-backto-BodyOnClick" style="stroke:#272B30;stroke-width:1.0;"/><polygon fill="none" points="148.5,218.09,155.5,198.09,162.5,218.09,148.5,218.09" style="stroke:#272B30;stroke-width:1.0;"/><!--MD5=[c1e8aa4325e3179e941dd606cf6ea0ea]
@startuml
skinparam ClassArrowColor #272b30
skinparam ClassBorderColor #272b30
skinparam ClassBackgroundColor #fff
skinparam BackgroundColor #ced4da
hide empty methods
hide empty fields
class "BodyOnClick" {
    #eventCallback : EventListenerObject
    #useCapture : boolean
    -_enableBodyClick : boolean
    +addEvent() : void
    +addHandler(handler: OSGeneric) : void
    +disableBodyClickEvent() : void
    +enableBodyClickEvent() : void
    +hasHandlers() : boolean
    +removeEvent() : void
    +removeHandler(handler: OSGeneric) : void
    +trigger(data: string, args: unknown[]) : void
    -_bodyTrigger(evt: PointerEvent) : void
}
abstract class "AbstractListener<string>" {
    #eventCallback : EventListenerObject
    #useCapture : boolean
    -_eventName : string
    -_eventTarget : HTMLElement | Document | Window
    -_eventType : HTMLEvent | BalloonOnToggle
    +addEvent() : void
    +addHandler(handler: OSGeneric) : void
    +hasHandlers() : boolean
    +removeEvent() : void
    +removeHandler(handler: OSGeneric) : void
    +trigger(data: string, args: unknown[]) : void
}
"AbstractListener<string>" <|- - "BodyOnClick"
@enduml

PlantUML version 1.2021.14(Fri Nov 12 16:46:50 WET 2021)
(GPL source distribution)
Java Runtime: Java(TM) SE Runtime Environment
JVM: Java HotSpot(TM) 64-Bit Server VM
Default Encoding: UTF-8
Language: en
Country: PT
--></g></svg>