<?xml version="1.0" encoding="us-ascii" standalone="no"?><svg xmlns="http://www.w3.org/2000/svg" xmlns:xlink="http://www.w3.org/1999/xlink" contentStyleType="text/css" height="1307px" preserveAspectRatio="none" style="width:1979px;height:1307px;background:#CED4DA;" version="1.1" viewBox="0 0 1979 1307" width="1979px" zoomAndPan="magnify"><defs/><g><rect fill="#CED4DA" height="1307" style="stroke:none;stroke-width:1.0;" width="1979" x="0" y="0"/><!--class BottomSheet--><g id="elem_BottomSheet"><rect codeLine="7" fill="#FFFFFF" height="806.4609" id="BottomSheet" rx="2.5" ry="2.5" style="stroke:#272B30;stroke-width:0.5;" width="794" x="497" y="494"/><ellipse cx="846.25" cy="510" fill="#ADD1B2" rx="11" ry="11" style="stroke:#181818;stroke-width:1.0;"/><path d="M848.7231,516.1431 Q848.1421,516.4419 847.5029,516.5913 Q846.8638,516.7407 846.1582,516.7407 Q843.6514,516.7407 842.3315,515.0889 Q841.0117,513.437 841.0117,510.3159 Q841.0117,507.1865 842.3315,505.5347 Q843.6514,503.8828 846.1582,503.8828 Q846.8638,503.8828 847.5112,504.0322 Q848.1587,504.1816 848.7231,504.4805 L848.7231,507.2031 Q848.0923,506.6221 847.4988,506.3523 Q846.9053,506.0825 846.2744,506.0825 Q844.9297,506.0825 844.2449,507.1492 Q843.5601,508.2158 843.5601,510.3159 Q843.5601,512.4077 844.2449,513.4744 Q844.9297,514.541 846.2744,514.541 Q846.9053,514.541 847.4988,514.2712 Q848.0923,514.0015 848.7231,513.4204 Z " fill="#000000"/><text fill="#000000" font-family="sans-serif" font-size="14" lengthAdjust="spacing" textLength="87" x="866.75" y="515.291">BottomSheet</text><line style="stroke:#272B30;stroke-width:0.5;" x1="498" x2="1290" y1="526" y2="526"/><ellipse cx="508" cy="539.7441" fill="none" rx="3" ry="3" style="stroke:#038048;stroke-width:1.0;"/><text fill="#000000" font-family="sans-serif" font-size="14" lengthAdjust="spacing" textLength="224" x="517" y="543.5352">springAnimationConfigs : Object</text><polygon fill="none" points="508,551.2324,512,555.2324,508,559.2324,504,555.2324" style="stroke:#B38D22;stroke-width:1.0;"/><text fill="#000000" font-family="sans-serif" font-size="14" lengthAdjust="spacing" textLength="176" x="517" y="560.0234">isProviderBased : boolean</text><rect fill="none" height="6" style="stroke:#C82930;stroke-width:1.0;" width="6" x="505" y="569.7207"/><text fill="#000000" font-family="sans-serif" font-size="14" lengthAdjust="spacing" textLength="294" x="517" y="576.5117">_animateOnDragInstance : AnimateOnDrag</text><rect fill="none" height="6" style="stroke:#C82930;stroke-width:1.0;" width="6" x="505" y="586.209"/><text fill="#000000" font-family="sans-serif" font-size="14" lengthAdjust="spacing" textLength="288" x="517" y="593">_bottomSheetContentElem : HTMLElement</text><rect fill="none" height="6" style="stroke:#C82930;stroke-width:1.0;" width="6" x="505" y="602.6973"/><text fill="#000000" font-family="sans-serif" font-size="14" lengthAdjust="spacing" textLength="282" x="517" y="609.4883">_bottomSheetHeaderElem : HTMLElement</text><rect fill="none" height="6" style="stroke:#C82930;stroke-width:1.0;" width="6" x="505" y="619.1855"/><text fill="#000000" font-family="sans-serif" font-size="14" lengthAdjust="spacing" textLength="221" x="517" y="625.9766">_eventOnContentScroll : Generic</text><rect fill="none" height="6" style="stroke:#C82930;stroke-width:1.0;" width="6" x="505" y="635.6738"/><text fill="#000000" font-family="sans-serif" font-size="14" lengthAdjust="spacing" textLength="189" x="517" y="642.4648">_eventOnKeypress : Generic</text><rect fill="none" height="6" style="stroke:#C82930;stroke-width:1.0;" width="6" x="505" y="652.1621"/><text fill="#000000" font-family="sans-serif" font-size="14" lengthAdjust="spacing" textLength="273" x="517" y="658.9531">_focusManagerInstance : FocusManager</text><rect fill="none" height="6" style="stroke:#C82930;stroke-width:1.0;" width="6" x="505" y="668.6504"/><text fill="#000000" font-family="sans-serif" font-size="14" lengthAdjust="spacing" textLength="217" x="517" y="675.4414">_focusTrapInstance : FocusTrap</text><rect fill="none" height="6" style="stroke:#C82930;stroke-width:1.0;" width="6" x="505" y="685.1387"/><text fill="#000000" font-family="sans-serif" font-size="14" lengthAdjust="spacing" textLength="235" x="517" y="691.9297">_gestureEventInstance : DragEvent</text><rect fill="none" height="6" style="stroke:#C82930;stroke-width:1.0;" width="6" x="505" y="701.627"/><text fill="#000000" font-family="sans-serif" font-size="14" lengthAdjust="spacing" textLength="196" x="517" y="708.418">_hasGestureEvents : boolean</text><rect fill="none" height="6" style="stroke:#C82930;stroke-width:1.0;" width="6" x="505" y="718.1152"/><text fill="#000000" font-family="sans-serif" font-size="14" lengthAdjust="spacing" textLength="123" x="517" y="724.9063">_isOpen : boolean</text><rect fill="none" height="6" style="stroke:#C82930;stroke-width:1.0;" width="6" x="505" y="734.6035"/><text fill="#000000" font-family="sans-serif" font-size="14" lengthAdjust="spacing" textLength="182" x="517" y="741.3945">_parentSelf : HTMLElement</text><rect fill="none" height="6" style="stroke:#C82930;stroke-width:1.0;" width="6" x="505" y="751.0918"/><text fill="#000000" font-family="sans-serif" font-size="14" lengthAdjust="spacing" textLength="307" x="517" y="757.8828">_platformEventOnToggle : OSOnToggleEvent</text><line style="stroke:#272B30;stroke-width:0.5;" x1="498" x2="1290" y1="764.8359" y2="764.8359"/><ellipse cx="508" cy="778.5801" fill="#84BE84" rx="3" ry="3" style="stroke:#038048;stroke-width:1.0;"/><text fill="#000000" font-family="sans-serif" font-size="14" lengthAdjust="spacing" textLength="86" x="517" y="782.3711">build() : void</text><ellipse cx="508" cy="795.0684" fill="#84BE84" rx="3" ry="3" style="stroke:#038048;stroke-width:1.0;"/><text fill="#000000" font-family="sans-serif" font-size="14" lengthAdjust="spacing" textLength="482" x="517" y="798.8594">changeProperty(propertyName: string, propertyValue: unknown) : void</text><ellipse cx="508" cy="811.5566" fill="#84BE84" rx="3" ry="3" style="stroke:#038048;stroke-width:1.0;"/><text fill="#000000" font-family="sans-serif" font-size="14" lengthAdjust="spacing" textLength="86" x="517" y="815.3477">close() : void</text><ellipse cx="508" cy="828.0449" fill="#84BE84" rx="3" ry="3" style="stroke:#038048;stroke-width:1.0;"/><text fill="#000000" font-family="sans-serif" font-size="14" lengthAdjust="spacing" textLength="104" x="517" y="831.8359">dispose() : void</text><ellipse cx="508" cy="844.5332" fill="#84BE84" rx="3" ry="3" style="stroke:#038048;stroke-width:1.0;"/><text fill="#000000" font-family="sans-serif" font-size="14" lengthAdjust="spacing" textLength="266" x="517" y="848.3242">equalsToID(patternId: string) : boolean</text><ellipse cx="508" cy="861.0215" fill="#84BE84" rx="3" ry="3" style="stroke:#038048;stroke-width:1.0;"/><text fill="#000000" font-family="sans-serif" font-size="14" lengthAdjust="spacing" textLength="86" x="517" y="864.8125">open() : void</text><ellipse cx="508" cy="877.5098" fill="#84BE84" rx="3" ry="3" style="stroke:#038048;stroke-width:1.0;"/><text fill="#000000" font-family="sans-serif" font-size="14" lengthAdjust="spacing" textLength="428" x="517" y="881.3008">registerCallback(eventName: string, callback: OSGeneric) : void</text><ellipse cx="508" cy="893.998" fill="#84BE84" rx="3" ry="3" style="stroke:#038048;stroke-width:1.0;"/><text fill="#000000" font-family="sans-serif" font-size="14" lengthAdjust="spacing" textLength="199" x="517" y="897.7891">removeGestureEvents() : void</text><polygon fill="#FFFF44" points="508,905.4863,512,909.4863,508,913.4863,504,909.4863" style="stroke:#B38D22;stroke-width:1.0;"/><text fill="#000000" font-family="sans-serif" font-size="14" lengthAdjust="spacing" textLength="123" x="517" y="914.2773">finishBuild() : void</text><polygon fill="#FFFF44" points="508,921.9746,512,925.9746,508,929.9746,504,925.9746" style="stroke:#B38D22;stroke-width:1.0;"/><text fill="#000000" font-family="sans-serif" font-size="14" lengthAdjust="spacing" textLength="200" x="517" y="930.7656">removeEventListeners() : void</text><polygon fill="#FFFF44" points="508,938.4629,512,942.4629,508,946.4629,504,942.4629" style="stroke:#B38D22;stroke-width:1.0;"/><text fill="#000000" font-family="sans-serif" font-size="14" lengthAdjust="spacing" textLength="178" x="517" y="947.2539">setA11YProperties() : void</text><polygon fill="#FFFF44" points="508,954.9512,512,958.9512,508,962.9512,504,958.9512" style="stroke:#B38D22;stroke-width:1.0;"/><text fill="#000000" font-family="sans-serif" font-size="14" lengthAdjust="spacing" textLength="136" x="517" y="963.7422">setCallbacks() : void</text><polygon fill="#FFFF44" points="508,971.4395,512,975.4395,508,979.4395,504,975.4395" style="stroke:#B38D22;stroke-width:1.0;"/><text fill="#000000" font-family="sans-serif" font-size="14" lengthAdjust="spacing" textLength="169" x="517" y="980.2305">setEventListeners() : void</text><polygon fill="#FFFF44" points="508,987.9277,512,991.9277,508,995.9277,504,991.9277" style="stroke:#B38D22;stroke-width:1.0;"/><text fill="#000000" font-family="sans-serif" font-size="14" lengthAdjust="spacing" textLength="768" x="517" y="996.7188">setGestureEvents(onGestureStart: GestureStart, onGestureMove: GestureMove, onGestureEnd: GestureEnd) : void</text><polygon fill="#FFFF44" points="508,1004.416,512,1008.416,508,1012.416,504,1008.416" style="stroke:#B38D22;stroke-width:1.0;"/><text fill="#000000" font-family="sans-serif" font-size="14" lengthAdjust="spacing" textLength="165" x="517" y="1013.207">setHtmlElements() : void</text><polygon fill="#FFFF44" points="508,1020.9043,512,1024.9043,508,1028.9043,504,1024.9043" style="stroke:#B38D22;stroke-width:1.0;"/><text fill="#000000" font-family="sans-serif" font-size="14" lengthAdjust="spacing" textLength="163" x="517" y="1029.6953">setInitialOptions() : void</text><polygon fill="#FFFF44" points="508,1037.3926,512,1041.3926,508,1045.3926,504,1041.3926" style="stroke:#B38D22;stroke-width:1.0;"/><text fill="#000000" font-family="sans-serif" font-size="14" lengthAdjust="spacing" textLength="570" x="517" y="1046.1836">triggerPlatformEventCallback(platFormCallback: OSGeneric, args: unknown[]) : void</text><polygon fill="#FFFF44" points="508,1053.8809,512,1057.8809,508,1061.8809,504,1057.8809" style="stroke:#B38D22;stroke-width:1.0;"/><text fill="#000000" font-family="sans-serif" font-size="14" lengthAdjust="spacing" textLength="318" x="517" y="1062.6719">triggerPlatformInitializedEventCallback() : void</text><polygon fill="#FFFF44" points="508,1070.3691,512,1074.3691,508,1078.3691,504,1074.3691" style="stroke:#B38D22;stroke-width:1.0;"/><text fill="#000000" font-family="sans-serif" font-size="14" lengthAdjust="spacing" textLength="154" x="517" y="1079.1602">unsetCallbacks() : void</text><polygon fill="#FFFF44" points="508,1086.8574,512,1090.8574,508,1094.8574,504,1090.8574" style="stroke:#B38D22;stroke-width:1.0;"/><text fill="#000000" font-family="sans-serif" font-size="14" lengthAdjust="spacing" textLength="198" x="517" y="1095.6484">unsetGlobalCallbacks() : void</text><polygon fill="#FFFF44" points="508,1103.3457,512,1107.3457,508,1111.3457,504,1107.3457" style="stroke:#B38D22;stroke-width:1.0;"/><text fill="#000000" font-family="sans-serif" font-size="14" lengthAdjust="spacing" textLength="183" x="517" y="1112.1367">unsetHtmlElements() : void</text><rect fill="#F24D5C" height="6" style="stroke:#C82930;stroke-width:1.0;" width="6" x="505" y="1121.834"/><text fill="#000000" font-family="sans-serif" font-size="14" lengthAdjust="spacing" textLength="204" x="517" y="1128.625">_handleFocusBehavior() : void</text><rect fill="#F24D5C" height="6" style="stroke:#C82930;stroke-width:1.0;" width="6" x="505" y="1138.3223"/><text fill="#000000" font-family="sans-serif" font-size="14" lengthAdjust="spacing" textLength="202" x="517" y="1145.1133">_handleGestureEvents() : void</text><rect fill="#F24D5C" height="6" style="stroke:#C82930;stroke-width:1.0;" width="6" x="505" y="1154.8105"/><text fill="#000000" font-family="sans-serif" font-size="14" lengthAdjust="spacing" textLength="278" x="517" y="1161.6016">_handleShape(shape: ShapeTypes) : void</text><rect fill="#F24D5C" height="6" style="stroke:#C82930;stroke-width:1.0;" width="6" x="505" y="1171.2988"/><text fill="#000000" font-family="sans-serif" font-size="14" lengthAdjust="spacing" textLength="227" x="517" y="1178.0898">_onContentScrollCallback() : void</text><rect fill="#F24D5C" height="6" style="stroke:#C82930;stroke-width:1.0;" width="6" x="505" y="1187.7871"/><text fill="#000000" font-family="sans-serif" font-size="14" lengthAdjust="spacing" textLength="525" x="517" y="1194.5781">_onGestureEnd(offsetX: number, offsetY: number, timeTaken: number) : void</text><rect fill="#F24D5C" height="6" style="stroke:#C82930;stroke-width:1.0;" width="6" x="505" y="1204.2754"/><text fill="#000000" font-family="sans-serif" font-size="14" lengthAdjust="spacing" textLength="665" x="517" y="1211.0664">_onGestureMove(x: number, y: number, offsetX: number, offsetY: number, evt: TouchEvent) : void</text><rect fill="#F24D5C" height="6" style="stroke:#C82930;stroke-width:1.0;" width="6" x="505" y="1220.7637"/><text fill="#000000" font-family="sans-serif" font-size="14" lengthAdjust="spacing" textLength="309" x="517" y="1227.5547">_onGestureStart(x: number, y: number) : void</text><rect fill="#F24D5C" height="6" style="stroke:#C82930;stroke-width:1.0;" width="6" x="505" y="1237.252"/><text fill="#000000" font-family="sans-serif" font-size="14" lengthAdjust="spacing" textLength="312" x="517" y="1244.043">_onkeypressCallback(e: KeyboardEvent) : void</text><rect fill="#F24D5C" height="6" style="stroke:#C82930;stroke-width:1.0;" width="6" x="505" y="1253.7402"/><text fill="#000000" font-family="sans-serif" font-size="14" lengthAdjust="spacing" textLength="301" x="517" y="1260.5313">_toggleBottomSheet(isOpen: boolean) : void</text><rect fill="#F24D5C" height="6" style="stroke:#C82930;stroke-width:1.0;" width="6" x="505" y="1270.2285"/><text fill="#000000" font-family="sans-serif" font-size="14" lengthAdjust="spacing" textLength="311" x="517" y="1277.0195">_toggleHandler(ShowHandler: boolean) : void</text><rect fill="#F24D5C" height="6" style="stroke:#C82930;stroke-width:1.0;" width="6" x="505" y="1286.7168"/><text fill="#000000" font-family="sans-serif" font-size="14" lengthAdjust="spacing" textLength="210" x="517" y="1293.5078">_triggerOnToggleEvent() : void</text></g><!--class AbstractPattern<BottomSheetConfig>--><g id="elem_AbstractPattern&lt;BottomSheetConfig&gt;"><rect codeLine="55" fill="#FFFFFF" height="427.2305" id="AbstractPattern&lt;BottomSheetConfig&gt;" rx="2.5" ry="2.5" style="stroke:#272B30;stroke-width:0.5;" width="596" x="9" y="7"/><ellipse cx="172.25" cy="23" fill="#A9DCDF" rx="11" ry="11" style="stroke:#181818;stroke-width:1.0;"/><path d="M172.1133,18.3481 L170.9595,23.4199 L173.2754,23.4199 Z M170.6191,16.1069 L173.6157,16.1069 L176.9609,28.5 L174.5122,28.5 L173.7485,25.437 L170.4697,25.437 L169.7227,28.5 L167.2739,28.5 Z " fill="#000000"/><text fill="#000000" font-family="sans-serif" font-size="14" font-style="italic" lengthAdjust="spacing" textLength="261" x="192.75" y="28.291">AbstractPattern&lt;BottomSheetConfig&gt;</text><line style="stroke:#272B30;stroke-width:0.5;" x1="10" x2="604" y1="39" y2="39"/><polygon fill="none" points="20,47.7441,24,51.7441,20,55.7441,16,51.7441" style="stroke:#B38D22;stroke-width:1.0;"/><text fill="#000000" font-family="sans-serif" font-size="14" lengthAdjust="spacing" textLength="176" x="29" y="56.5352">isProviderBased : boolean</text><rect fill="none" height="6" style="stroke:#C82930;stroke-width:1.0;" width="6" x="17" y="66.2324"/><text fill="#000000" font-family="sans-serif" font-size="14" lengthAdjust="spacing" textLength="202" x="29" y="73.0234">_configs : BottomSheetConfig</text><rect fill="none" height="6" style="stroke:#C82930;stroke-width:1.0;" width="6" x="17" y="82.7207"/><text fill="#000000" font-family="sans-serif" font-size="14" lengthAdjust="spacing" textLength="116" x="29" y="89.5117">_isBuilt : boolean</text><rect fill="none" height="6" style="stroke:#C82930;stroke-width:1.0;" width="6" x="17" y="99.209"/><text fill="#000000" font-family="sans-serif" font-size="14" lengthAdjust="spacing" textLength="253" x="29" y="106">_platformEventInitialized : OSGeneric</text><rect fill="none" height="6" style="stroke:#C82930;stroke-width:1.0;" width="6" x="17" y="115.6973"/><text fill="#000000" font-family="sans-serif" font-size="14" lengthAdjust="spacing" textLength="169" x="29" y="122.4883">_selfElem : HTMLElement</text><rect fill="none" height="6" style="stroke:#C82930;stroke-width:1.0;" width="6" x="17" y="132.1855"/><text fill="#000000" font-family="sans-serif" font-size="14" lengthAdjust="spacing" textLength="120" x="29" y="138.9766">_uniqueId : string</text><rect fill="none" height="6" style="stroke:#C82930;stroke-width:1.0;" width="6" x="17" y="148.6738"/><text fill="#000000" font-family="sans-serif" font-size="14" lengthAdjust="spacing" textLength="118" x="29" y="155.4648">_widgetId : string</text><line style="stroke:#272B30;stroke-width:0.5;" x1="10" x2="604" y1="162.418" y2="162.418"/><ellipse cx="20" cy="176.1621" fill="#84BE84" rx="3" ry="3" style="stroke:#038048;stroke-width:1.0;"/><text fill="#000000" font-family="sans-serif" font-size="14" lengthAdjust="spacing" textLength="86" x="29" y="179.9531">build() : void</text><ellipse cx="20" cy="192.6504" fill="#84BE84" rx="3" ry="3" style="stroke:#038048;stroke-width:1.0;"/><text fill="#000000" font-family="sans-serif" font-size="14" lengthAdjust="spacing" textLength="482" x="29" y="196.4414">changeProperty(propertyName: string, propertyValue: unknown) : void</text><ellipse cx="20" cy="209.1387" fill="#84BE84" rx="3" ry="3" style="stroke:#038048;stroke-width:1.0;"/><text fill="#000000" font-family="sans-serif" font-size="14" lengthAdjust="spacing" textLength="104" x="29" y="212.9297">dispose() : void</text><ellipse cx="20" cy="225.627" fill="#84BE84" rx="3" ry="3" style="stroke:#038048;stroke-width:1.0;"/><text fill="#000000" font-family="sans-serif" font-size="14" lengthAdjust="spacing" textLength="266" x="29" y="229.418">equalsToID(patternId: string) : boolean</text><ellipse cx="20" cy="242.1152" fill="#84BE84" rx="3" ry="3" style="stroke:#038048;stroke-width:1.0;"/><text fill="#000000" font-family="sans-serif" font-size="14" lengthAdjust="spacing" textLength="428" x="29" y="245.9063">registerCallback(eventName: string, callback: OSGeneric) : void</text><polygon fill="#FFFF44" points="20,253.6035,24,257.6035,20,261.6035,16,257.6035" style="stroke:#B38D22;stroke-width:1.0;"/><text fill="#000000" font-family="sans-serif" font-size="14" lengthAdjust="spacing" textLength="123" x="29" y="262.3945">finishBuild() : void</text><polygon fill="#FFFF44" points="20,270.0918,24,274.0918,20,278.0918,16,274.0918" style="stroke:#B38D22;stroke-width:1.0;"/><text fill="#000000" font-family="sans-serif" font-size="14" font-style="italic" lengthAdjust="spacing" textLength="178" x="29" y="278.8828">setA11YProperties() : void</text><polygon fill="#FFFF44" points="20,286.5801,24,290.5801,20,294.5801,16,290.5801" style="stroke:#B38D22;stroke-width:1.0;"/><text fill="#000000" font-family="sans-serif" font-size="14" font-style="italic" lengthAdjust="spacing" textLength="136" x="29" y="295.3711">setCallbacks() : void</text><polygon fill="#FFFF44" points="20,303.0684,24,307.0684,20,311.0684,16,307.0684" style="stroke:#B38D22;stroke-width:1.0;"/><text fill="#000000" font-family="sans-serif" font-size="14" font-style="italic" lengthAdjust="spacing" textLength="165" x="29" y="311.8594">setHtmlElements() : void</text><polygon fill="#FFFF44" points="20,319.5566,24,323.5566,20,327.5566,16,323.5566" style="stroke:#B38D22;stroke-width:1.0;"/><text fill="#000000" font-family="sans-serif" font-size="14" lengthAdjust="spacing" textLength="570" x="29" y="328.3477">triggerPlatformEventCallback(platFormCallback: OSGeneric, args: unknown[]) : void</text><polygon fill="#FFFF44" points="20,336.0449,24,340.0449,20,344.0449,16,340.0449" style="stroke:#B38D22;stroke-width:1.0;"/><text fill="#000000" font-family="sans-serif" font-size="14" lengthAdjust="spacing" textLength="318" x="29" y="344.8359">triggerPlatformInitializedEventCallback() : void</text><polygon fill="#FFFF44" points="20,352.5332,24,356.5332,20,360.5332,16,356.5332" style="stroke:#B38D22;stroke-width:1.0;"/><text fill="#000000" font-family="sans-serif" font-size="14" font-style="italic" lengthAdjust="spacing" textLength="154" x="29" y="361.3242">unsetCallbacks() : void</text><polygon fill="#FFFF44" points="20,369.0215,24,373.0215,20,377.0215,16,373.0215" style="stroke:#B38D22;stroke-width:1.0;"/><text fill="#000000" font-family="sans-serif" font-size="14" lengthAdjust="spacing" textLength="198" x="29" y="377.8125">unsetGlobalCallbacks() : void</text><polygon fill="#FFFF44" points="20,385.5098,24,389.5098,20,393.5098,16,389.5098" style="stroke:#B38D22;stroke-width:1.0;"/><text fill="#000000" font-family="sans-serif" font-size="14" font-style="italic" lengthAdjust="spacing" textLength="183" x="29" y="394.3008">unsetHtmlElements() : void</text><rect fill="#F24D5C" height="6" style="stroke:#C82930;stroke-width:1.0;" width="6" x="17" y="403.998"/><text fill="#000000" font-family="sans-serif" font-size="14" lengthAdjust="spacing" textLength="235" x="29" y="410.7891">_setCommonHtmlElements() : void</text><rect fill="#F24D5C" height="6" style="stroke:#C82930;stroke-width:1.0;" width="6" x="17" y="420.4863"/><text fill="#000000" font-family="sans-serif" font-size="14" lengthAdjust="spacing" textLength="253" x="29" y="427.2773">_unsetCommonHtmlElements() : void</text></g><!--class IBottomSheet--><g id="elem_IBottomSheet"><rect codeLine="81" fill="#FFFFFF" height="229.3711" id="IBottomSheet" rx="2.5" ry="2.5" style="stroke:#272B30;stroke-width:0.5;" width="508" x="640" y="106"/><ellipse cx="844.25" cy="122" fill="#B4A7E5" rx="11" ry="11" style="stroke:#181818;stroke-width:1.0;"/><path d="M840.6777,118.2651 L840.6777,116.1069 L848.0571,116.1069 L848.0571,118.2651 L845.5918,118.2651 L845.5918,126.3418 L848.0571,126.3418 L848.0571,128.5 L840.6777,128.5 L840.6777,126.3418 L843.1431,126.3418 L843.1431,118.2651 Z " fill="#000000"/><text fill="#000000" font-family="sans-serif" font-size="14" font-style="italic" lengthAdjust="spacing" textLength="91" x="864.75" y="127.291">IBottomSheet</text><line style="stroke:#272B30;stroke-width:0.5;" x1="641" x2="1147" y1="138" y2="138"/><ellipse cx="651" cy="151.7441" fill="none" rx="3" ry="3" style="stroke:#038048;stroke-width:1.0;"/><text fill="#000000" font-family="sans-serif" font-size="14" lengthAdjust="spacing" textLength="109" x="660" y="155.5352">isBuilt : boolean</text><ellipse cx="651" cy="168.2324" fill="none" rx="3" ry="3" style="stroke:#038048;stroke-width:1.0;"/><text fill="#000000" font-family="sans-serif" font-size="14" lengthAdjust="spacing" textLength="184" x="660" y="172.0234">selfElement : HTMLElement</text><ellipse cx="651" cy="184.7207" fill="none" rx="3" ry="3" style="stroke:#038048;stroke-width:1.0;"/><text fill="#000000" font-family="sans-serif" font-size="14" lengthAdjust="spacing" textLength="113" x="660" y="188.5117">uniqueId : string</text><ellipse cx="651" cy="201.209" fill="none" rx="3" ry="3" style="stroke:#038048;stroke-width:1.0;"/><text fill="#000000" font-family="sans-serif" font-size="14" lengthAdjust="spacing" textLength="111" x="660" y="205">widgetId : string</text><line style="stroke:#272B30;stroke-width:0.5;" x1="641" x2="1147" y1="211.9531" y2="211.9531"/><ellipse cx="651" cy="225.6973" fill="#84BE84" rx="3" ry="3" style="stroke:#038048;stroke-width:1.0;"/><text fill="#000000" font-family="sans-serif" font-size="14" lengthAdjust="spacing" textLength="86" x="660" y="229.4883">build() : void</text><ellipse cx="651" cy="242.1855" fill="#84BE84" rx="3" ry="3" style="stroke:#038048;stroke-width:1.0;"/><text fill="#000000" font-family="sans-serif" font-size="14" lengthAdjust="spacing" textLength="482" x="660" y="245.9766">changeProperty(propertyName: string, propertyValue: unknown) : void</text><ellipse cx="651" cy="258.6738" fill="#84BE84" rx="3" ry="3" style="stroke:#038048;stroke-width:1.0;"/><text fill="#000000" font-family="sans-serif" font-size="14" lengthAdjust="spacing" textLength="86" x="660" y="262.4648">close() : void</text><ellipse cx="651" cy="275.1621" fill="#84BE84" rx="3" ry="3" style="stroke:#038048;stroke-width:1.0;"/><text fill="#000000" font-family="sans-serif" font-size="14" lengthAdjust="spacing" textLength="104" x="660" y="278.9531">dispose() : void</text><ellipse cx="651" cy="291.6504" fill="#84BE84" rx="3" ry="3" style="stroke:#038048;stroke-width:1.0;"/><text fill="#000000" font-family="sans-serif" font-size="14" lengthAdjust="spacing" textLength="216" x="660" y="295.4414">equalsToID(id: string) : boolean</text><ellipse cx="651" cy="308.1387" fill="#84BE84" rx="3" ry="3" style="stroke:#038048;stroke-width:1.0;"/><text fill="#000000" font-family="sans-serif" font-size="14" lengthAdjust="spacing" textLength="86" x="660" y="311.9297">open() : void</text><ellipse cx="651" cy="324.627" fill="#84BE84" rx="3" ry="3" style="stroke:#038048;stroke-width:1.0;"/><text fill="#000000" font-family="sans-serif" font-size="14" lengthAdjust="spacing" textLength="428" x="660" y="328.418">registerCallback(eventName: string, callback: OSGeneric) : void</text></g><!--class IDragEvent--><g id="elem_IDragEvent"><rect codeLine="95" fill="#FFFFFF" height="113.9531" id="IDragEvent" rx="2.5" ry="2.5" style="stroke:#272B30;stroke-width:0.5;" width="789" x="1183.5" y="163.5"/><ellipse cx="1536.75" cy="179.5" fill="#B4A7E5" rx="11" ry="11" style="stroke:#181818;stroke-width:1.0;"/><path d="M1533.1777,175.7651 L1533.1777,173.6069 L1540.5571,173.6069 L1540.5571,175.7651 L1538.0918,175.7651 L1538.0918,183.8418 L1540.5571,183.8418 L1540.5571,186 L1533.1777,186 L1533.1777,183.8418 L1535.6431,183.8418 L1535.6431,175.7651 Z " fill="#000000"/><text fill="#000000" font-family="sans-serif" font-size="14" font-style="italic" lengthAdjust="spacing" textLength="74" x="1557.25" y="184.791">IDragEvent</text><line style="stroke:#272B30;stroke-width:0.5;" x1="1184.5" x2="1971.5" y1="195.5" y2="195.5"/><ellipse cx="1194.5" cy="209.2441" fill="none" rx="3" ry="3" style="stroke:#038048;stroke-width:1.0;"/><text fill="#000000" font-family="sans-serif" font-size="14" lengthAdjust="spacing" textLength="228" x="1203.5" y="213.0352">gestureEventInstance : DragEvent</text><ellipse cx="1194.5" cy="225.7324" fill="none" rx="3" ry="3" style="stroke:#038048;stroke-width:1.0;"/><text fill="#000000" font-family="sans-serif" font-size="14" lengthAdjust="spacing" textLength="189" x="1203.5" y="229.5234">hasGestureEvents : boolean</text><line style="stroke:#272B30;stroke-width:0.5;" x1="1184.5" x2="1971.5" y1="236.4766" y2="236.4766"/><ellipse cx="1194.5" cy="250.2207" fill="#84BE84" rx="3" ry="3" style="stroke:#038048;stroke-width:1.0;"/><text fill="#000000" font-family="sans-serif" font-size="14" lengthAdjust="spacing" textLength="199" x="1203.5" y="254.0117">removeGestureEvents() : void</text><ellipse cx="1194.5" cy="266.709" fill="#84BE84" rx="3" ry="3" style="stroke:#038048;stroke-width:1.0;"/><text fill="#000000" font-family="sans-serif" font-size="14" lengthAdjust="spacing" textLength="763" x="1203.5" y="270.5">setGestureEvents(onGestureStart: GestureStart, onGestureMove: GestureMove, onGestureEnd: GestureEnd) : any</text></g><!--reverse link AbstractPattern<BottomSheetConfig> to BottomSheet--><g id="link_AbstractPattern&lt;BottomSheetConfig&gt;_BottomSheet"><path codeLine="80" d="M505.83,449.96 C518.36,464.37 531.16,479.07 544.1,493.95 " fill="none" id="AbstractPattern&lt;BottomSheetConfig&gt;-backto-BottomSheet" style="stroke:#272B30;stroke-width:1.0;"/><polygon fill="none" points="500.18,454.14,492.33,434.45,510.74,444.94,500.18,454.14" style="stroke:#272B30;stroke-width:1.0;"/></g><!--reverse link IBottomSheet to BottomSheet--><g id="link_IBottomSheet_BottomSheet"><path codeLine="94" d="M894,355.17 C894,396.4 894,444.13 894,493.8 " fill="none" id="IBottomSheet-backto-BottomSheet" style="stroke:#272B30;stroke-width:1.0;stroke-dasharray:7.0,7.0;"/><polygon fill="none" points="887,355.16,894,335.16,901,355.16,887,355.16" style="stroke:#272B30;stroke-width:1.0;"/></g><!--reverse link IDragEvent to BottomSheet--><g id="link_IDragEvent_BottomSheet"><path codeLine="101" d="M1506.64,291.87 C1452.8,344.96 1374.22,422.45 1291.18,504.33 " fill="none" id="IDragEvent-backto-BottomSheet" style="stroke:#272B30;stroke-width:1.0;stroke-dasharray:7.0,7.0;"/><polygon fill="none" points="1502,286.62,1521.15,277.56,1511.83,296.59,1502,286.62" style="stroke:#272B30;stroke-width:1.0;"/></g><!--SRC=[pLTRRzis57xtho2I5nLEYhKRCC082jXkcXXhwW0sYXR5C53IaSIP8bMISkQr-Uyxb2bPDyl5rilo48ZdVEV2SwNrXecCAfgIEQTQJvMI3tF9fIBdptzzxl_yqqWt4JEfGb3341fiOYLp4JfO54KrJ8STGFXBI4S92u50cfaTIS4aCjHrKiI08oMm1iZPJ1eZqrK2OCx8fn71lx7E51FnLB2K6YR5N8g8nPfCoDB_4m9JWCwPlbToYshLZ6e8aUjBoO6AWdtv1ot4OIbUAXelX3PK182eQPtkiFx12JHcG9Xh3Yc2RzTth-qdKhhGMw1e_IWIjlYz54xXAb2ISmJUW035WYReDzXb2hJky2CPvFgE2Xg3gbtYLOrSHwuLpTemItEO6BJ95LnRepMOZKH1Sx24wfiQKdTYo_Go0z4XOrNOcmAFUWEISMeYgTBh_PtNCewvDRzSbOU34sC_PppqdY1xArcufmK95J5WsZDGPkTbxkCDJM52jB55Sq5AwblASoJdOYFaWsWfub93Itd8TDQbmiUSShsMYvTUHeq19HPXQUj9Am1ZD2nQyWfYfb5iJZdtiLsy8k5DZmF7iv5msMyhIUKM6YbfcZcFc60wcNLZThwNBOHUMqzGVLjOWva-U_RUnPL13xzqluTrIdNJRIdSUMMeChRQ3wSBKd7lqEUAQGyrthK8AnP-TmpUcfIxmkjnPo6OOPGlCpjPsdnCI8mTTLylr2fpjdnV8NNUJTS5eIhMLR5z-7rGhNE1_GrXqq9JAXS3WI-ODrpwb0z2ZWV3jha8EHGpOWO9tJAf-Y43bLT2LWdDmDFs_uGKX_Kk0zt2okOqxB-uXHtIwyaemdkycn2HfpueB8I2yFv0C2o5DTs0A4d7rDb2yluw2ExQIeUim1RBTItp82dYSCn6KSczHZeI6pVq3xDXGd0H-9AgiC-6AMPaRM5w-pbSJQ5U_6sH7-Mj4ldWleyAxEkqCOqFkNaSKHz75WqCSRjxwixt-ybuDMkiKTpPBygLVd9R1zMExoYfTeuTRwQxTEhDMcijKkjF1zMucOwkwromZpaihDn-C3lw0mjZ71ij-hVTJrzX5tsDnNDyhNmgI-7nvFfeGOzCgnPgO8R_dsPqtUl_EAuxgeOcjxKaqrIA8T3UeG7Ou-YBElZgy-Lbyvq-OZZ4LKJnyNYsw7l0z_VgkEm_TAEd1SVz7JZ-4Gtuhnw8xBk-335xpTXVVNxwT21FrIE_oj8N_HeOd_WnSFfnElvEZq0gTaLGQXVjXkGV]--></g></svg>