<?xml version="1.0" encoding="UTF-8" standalone="no"?><svg xmlns="http://www.w3.org/2000/svg" xmlns:xlink="http://www.w3.org/1999/xlink" contentScriptType="application/ecmascript" contentStyleType="text/css" height="432px" preserveAspectRatio="none" style="width:532px;height:432px;background:#CED4DA;" version="1.1" viewBox="0 0 532 432" width="532px" zoomAndPan="magnify"><defs><filter height="300%" id="ffncc5kyvxa0z" width="300%" x="-1" y="-1"><feGaussianBlur result="blurOut" stdDeviation="2.0"/><feColorMatrix in="blurOut" result="blurOut2" type="matrix" values="0 0 0 0 0 0 0 0 0 0 0 0 0 0 0 0 0 0 .4 0"/><feOffset dx="4.0" dy="4.0" in="blurOut2" result="blurOut3"/><feBlend in="SourceGraphic" in2="blurOut3" mode="normal"/></filter></defs><g><!--MD5=[9318b6a157a091a48b2e98816f91c299]
class BottomSheetConfig--><rect codeLine="7" fill="#FFFFFF" filter="url(#ffncc5kyvxa0z)" height="188.8516" id="BottomSheetConfig" style="stroke:#272B30;stroke-width:1.5;" width="509" x="9" y="230"/><ellipse cx="198.75" cy="246" fill="#ADD1B2" rx="11" ry="11" style="stroke:#272B30;stroke-width:1.0;"/><path d="M201.7188,251.6406 Q201.1406,251.9375 200.5,252.0781 Q199.8594,252.2344 199.1563,252.2344 Q196.6563,252.2344 195.3281,250.5938 Q194.0156,248.9375 194.0156,245.8125 Q194.0156,242.6875 195.3281,241.0313 Q196.6563,239.375 199.1563,239.375 Q199.8594,239.375 200.5,239.5313 Q201.1563,239.6875 201.7188,239.9844 L201.7188,242.7031 Q201.0938,242.125 200.5,241.8594 Q199.9063,241.5781 199.2813,241.5781 Q197.9375,241.5781 197.25,242.6563 Q196.5625,243.7188 196.5625,245.8125 Q196.5625,247.9063 197.25,248.9844 Q197.9375,250.0469 199.2813,250.0469 Q199.9063,250.0469 200.5,249.7813 Q201.0938,249.5 201.7188,248.9219 L201.7188,251.6406 Z " fill="#000000"/><text fill="#000000" font-family="sans-serif" font-size="12" lengthAdjust="spacing" textLength="121" x="219.25" y="250.1543">BottomSheetConfig</text><line style="stroke:#272B30;stroke-width:1.5;" x1="10" x2="517" y1="262" y2="262"/><ellipse cx="20" cy="273" rx="3" ry="3" style="stroke:#038048;stroke-width:1.0;fill:none;"/><text fill="#000000" font-family="sans-serif" font-size="11" lengthAdjust="spacing" textLength="129" x="29" y="276.2104">ExtendedClass : string</text><ellipse cx="20" cy="285.8047" rx="3" ry="3" style="stroke:#038048;stroke-width:1.0;fill:none;"/><text fill="#000000" font-family="sans-serif" font-size="11" lengthAdjust="spacing" textLength="118" x="29" y="289.0151">Shape : ShapeTypes</text><ellipse cx="20" cy="298.6094" rx="3" ry="3" style="stroke:#038048;stroke-width:1.0;fill:none;"/><text fill="#000000" font-family="sans-serif" font-size="11" lengthAdjust="spacing" textLength="132" x="29" y="301.8198">ShowHandler : boolean</text><line style="stroke:#272B30;stroke-width:1.5;" x1="10" x2="517" y1="308.4141" y2="308.4141"/><ellipse cx="20" cy="319.4141" fill="#84BE84" rx="3" ry="3" style="stroke:#038048;stroke-width:1.0;"/><text fill="#000000" font-family="sans-serif" font-size="11" lengthAdjust="spacing" textLength="342" x="29" y="322.6245">validateCanChange(_isBuilt: boolean, _key: string) : boolean</text><ellipse cx="20" cy="332.2188" fill="#84BE84" rx="3" ry="3" style="stroke:#038048;stroke-width:1.0;"/><text fill="#000000" font-family="sans-serif" font-size="11" lengthAdjust="spacing" textLength="310" x="29" y="335.4292">validateDefault(key: string, value: unknown) : unknown</text><polygon fill="#FFFF44" points="20,340.0234,24,344.0234,20,348.0234,16,344.0234" style="stroke:#B38D22;stroke-width:1.0;"/><text fill="#000000" font-family="sans-serif" font-size="11" lengthAdjust="spacing" textLength="369" x="29" y="348.2339">validateBoolean(value: boolean, defaultValue: boolean) : boolean</text><polygon fill="#FFFF44" points="20,352.8281,24,356.8281,20,360.8281,16,356.8281" style="stroke:#B38D22;stroke-width:1.0;"/><text fill="#000000" font-family="sans-serif" font-size="11" lengthAdjust="spacing" textLength="389" x="29" y="361.0386">validateDate(value: string | Date, defaultValue: string) : string | Date</text><polygon fill="#FFFF44" points="20,365.6328,24,369.6328,20,373.6328,16,369.6328" style="stroke:#B38D22;stroke-width:1.0;"/><text fill="#000000" font-family="sans-serif" font-size="11" lengthAdjust="spacing" textLength="483" x="29" y="373.8433">validateInRange(value: unknown, defaultValue: unknown, args: unknown[]) : unknown</text><polygon fill="#FFFF44" points="20,378.4375,24,382.4375,20,386.4375,16,382.4375" style="stroke:#B38D22;stroke-width:1.0;"/><text fill="#000000" font-family="sans-serif" font-size="11" lengthAdjust="spacing" textLength="365" x="29" y="386.6479">validateNumber(value: number, defaultValue: number) : number</text><polygon fill="#FFFF44" points="20,391.2422,24,395.2422,20,399.2422,16,395.2422" style="stroke:#B38D22;stroke-width:1.0;"/><text fill="#000000" font-family="sans-serif" font-size="11" lengthAdjust="spacing" textLength="321" x="29" y="399.4526">validateString(value: string, defaultValue: string) : string</text><polygon fill="#FFFF44" points="20,404.0469,24,408.0469,20,412.0469,16,408.0469" style="stroke:#B38D22;stroke-width:1.0;"/><text fill="#000000" font-family="sans-serif" font-size="11" lengthAdjust="spacing" textLength="315" x="29" y="412.2573">validateTime(value: string, defaultValue: string) : string</text><!--MD5=[cf034526073bc6863bceac2b0caf27a3]
class AbstractConfiguration--><rect codeLine="20" fill="#FFFFFF" filter="url(#ffncc5kyvxa0z)" height="163.2422" id="AbstractConfiguration" style="stroke:#272B30;stroke-width:1.5;" width="509" x="9" y="7"/><ellipse cx="191.25" cy="23" fill="#A9DCDF" rx="11" ry="11" style="stroke:#272B30;stroke-width:1.0;"/><path d="M191.3594,18.3438 L190.2031,23.4219 L192.5313,23.4219 L191.3594,18.3438 Z M189.875,16.1094 L192.8594,16.1094 L196.2188,28.5 L193.7656,28.5 L193,25.4375 L189.7188,25.4375 L188.9688,28.5 L186.5313,28.5 L189.875,16.1094 Z " fill="#000000"/><text fill="#000000" font-family="sans-serif" font-size="12" font-style="italic" lengthAdjust="spacing" textLength="136" x="211.75" y="27.1543">AbstractConfiguration</text><line style="stroke:#272B30;stroke-width:1.5;" x1="10" x2="517" y1="39" y2="39"/><ellipse cx="20" cy="50" rx="3" ry="3" style="stroke:#038048;stroke-width:1.0;fill:none;"/><text fill="#000000" font-family="sans-serif" font-size="11" lengthAdjust="spacing" textLength="129" x="29" y="53.2104">ExtendedClass : string</text><line style="stroke:#272B30;stroke-width:1.5;" x1="10" x2="517" y1="59.8047" y2="59.8047"/><ellipse cx="20" cy="70.8047" fill="#84BE84" rx="3" ry="3" style="stroke:#038048;stroke-width:1.0;"/><text fill="#000000" font-family="sans-serif" font-size="11" lengthAdjust="spacing" textLength="342" x="29" y="74.0151">validateCanChange(_isBuilt: boolean, _key: string) : boolean</text><ellipse cx="20" cy="83.6094" fill="#84BE84" rx="3" ry="3" style="stroke:#038048;stroke-width:1.0;"/><text fill="#000000" font-family="sans-serif" font-size="11" lengthAdjust="spacing" textLength="316" x="29" y="86.8198">validateDefault(_key: string, value: unknown) : unknown</text><polygon fill="#FFFF44" points="20,91.4141,24,95.4141,20,99.4141,16,95.4141" style="stroke:#B38D22;stroke-width:1.0;"/><text fill="#000000" font-family="sans-serif" font-size="11" lengthAdjust="spacing" textLength="369" x="29" y="99.6245">validateBoolean(value: boolean, defaultValue: boolean) : boolean</text><polygon fill="#FFFF44" points="20,104.2188,24,108.2188,20,112.2188,16,108.2188" style="stroke:#B38D22;stroke-width:1.0;"/><text fill="#000000" font-family="sans-serif" font-size="11" lengthAdjust="spacing" textLength="389" x="29" y="112.4292">validateDate(value: string | Date, defaultValue: string) : string | Date</text><polygon fill="#FFFF44" points="20,117.0234,24,121.0234,20,125.0234,16,121.0234" style="stroke:#B38D22;stroke-width:1.0;"/><text fill="#000000" font-family="sans-serif" font-size="11" lengthAdjust="spacing" textLength="483" x="29" y="125.2339">validateInRange(value: unknown, defaultValue: unknown, args: unknown[]) : unknown</text><polygon fill="#FFFF44" points="20,129.8281,24,133.8281,20,137.8281,16,133.8281" style="stroke:#B38D22;stroke-width:1.0;"/><text fill="#000000" font-family="sans-serif" font-size="11" lengthAdjust="spacing" textLength="365" x="29" y="138.0386">validateNumber(value: number, defaultValue: number) : number</text><polygon fill="#FFFF44" points="20,142.6328,24,146.6328,20,150.6328,16,146.6328" style="stroke:#B38D22;stroke-width:1.0;"/><text fill="#000000" font-family="sans-serif" font-size="11" lengthAdjust="spacing" textLength="321" x="29" y="150.8433">validateString(value: string, defaultValue: string) : string</text><polygon fill="#FFFF44" points="20,155.4375,24,159.4375,20,163.4375,16,159.4375" style="stroke:#B38D22;stroke-width:1.0;"/><text fill="#000000" font-family="sans-serif" font-size="11" lengthAdjust="spacing" textLength="315" x="29" y="163.6479">validateTime(value: string, defaultValue: string) : string</text><!--MD5=[d148bcc5b2d44f5e31f09a96e081153f]
reverse link AbstractConfiguration to BottomSheetConfig--><path codeLine="31" d="M263.5,190.36 C263.5,203.5 263.5,216.92 263.5,229.94 " fill="none" id="AbstractConfiguration-backto-BottomSheetConfig" style="stroke:#272B30;stroke-width:1.0;"/><polygon fill="none" points="256.5,190.03,263.5,170.03,270.5,190.03,256.5,190.03" style="stroke:#272B30;stroke-width:1.0;"/><!--MD5=[0e7eba482aa930d074255271733d77a3]
@startuml
skinparam ClassArrowColor #272b30
skinparam ClassBorderColor #272b30
skinparam ClassBackgroundColor #fff
skinparam BackgroundColor #ced4da
hide empty methods
hide empty fields
class "BottomSheetConfig" {
    +ExtendedClass : string
    +Shape : ShapeTypes
    +ShowHandler : boolean
    +validateCanChange(_isBuilt: boolean, _key: string) : boolean
    +validateDefault(key: string, value: unknown) : unknown
    #validateBoolean(value: boolean, defaultValue: boolean) : boolean
    #validateDate(value: string | Date, defaultValue: string) : string | Date
    #validateInRange(value: unknown, defaultValue: unknown, args: unknown[]) : unknown
    #validateNumber(value: number, defaultValue: number) : number
    #validateString(value: string, defaultValue: string) : string
    #validateTime(value: string, defaultValue: string) : string
}
abstract class "AbstractConfiguration" {
    +ExtendedClass : string
    +validateCanChange(_isBuilt: boolean, _key: string) : boolean
    +validateDefault(_key: string, value: unknown) : unknown
    #validateBoolean(value: boolean, defaultValue: boolean) : boolean
    #validateDate(value: string | Date, defaultValue: string) : string | Date
    #validateInRange(value: unknown, defaultValue: unknown, args: unknown[]) : unknown
    #validateNumber(value: number, defaultValue: number) : number
    #validateString(value: string, defaultValue: string) : string
    #validateTime(value: string, defaultValue: string) : string
}
"AbstractConfiguration" <|- - "BottomSheetConfig"
@enduml

PlantUML version 1.2021.14(Fri Nov 12 16:46:50 UTC 2021)
(GPL source distribution)
Java Runtime: OpenJDK Runtime Environment
JVM: OpenJDK 64-Bit Server VM
Default Encoding: UTF-8
Language: en
Country: null
--></g></svg>