<?xml version="1.0" encoding="us-ascii" standalone="no"?><svg xmlns="http://www.w3.org/2000/svg" xmlns:xlink="http://www.w3.org/1999/xlink" contentStyleType="text/css" height="1310px" preserveAspectRatio="none" style="width:2015px;height:1310px;background:#CED4DA;" version="1.1" viewBox="0 0 2015 1310" width="2015px" zoomAndPan="magnify"><defs/><g><rect fill="#CED4DA" height="1310" style="stroke:none;stroke-width:1.0;" width="2015" x="0" y="0"/><!--class BottomSheet--><g id="elem_BottomSheet"><rect codeLine="7" fill="#FFFFFF" height="813.9531" id="BottomSheet" rx="2.5" ry="2.5" style="stroke:#272B30;stroke-width:0.5;" width="827" x="481" y="490"/><ellipse cx="844.25" cy="506" fill="#ADD1B2" rx="11" ry="11" style="stroke:#181818;stroke-width:1.0;"/><path d="M847.2188,511.6406 Q846.6406,511.9375 846,512.0781 Q845.3594,512.2344 844.6563,512.2344 Q842.1563,512.2344 840.8281,510.5938 Q839.5156,508.9375 839.5156,505.8125 Q839.5156,502.6875 840.8281,501.0313 Q842.1563,499.375 844.6563,499.375 Q845.3594,499.375 846,499.5313 Q846.6563,499.6875 847.2188,499.9844 L847.2188,502.7031 Q846.5938,502.125 846,501.8594 Q845.4063,501.5781 844.7813,501.5781 Q843.4375,501.5781 842.75,502.6563 Q842.0625,503.7188 842.0625,505.8125 Q842.0625,507.9063 842.75,508.9844 Q843.4375,510.0469 844.7813,510.0469 Q845.4063,510.0469 846,509.7813 Q846.5938,509.5 847.2188,508.9219 L847.2188,511.6406 Z " fill="#000000"/><text fill="#000000" font-family="sans-serif" font-size="14" lengthAdjust="spacing" textLength="92" x="864.75" y="510.8467">BottomSheet</text><line style="stroke:#272B30;stroke-width:0.5;" x1="482" x2="1307" y1="522" y2="522"/><ellipse cx="492" cy="535.6484" fill="none" rx="3" ry="3" style="stroke:#038048;stroke-width:1.0;"/><text fill="#000000" font-family="sans-serif" font-size="14" lengthAdjust="spacing" textLength="221" x="501" y="538.9951">springAnimationConfigs : Object</text><polygon fill="none" points="492,546.9453,496,550.9453,492,554.9453,488,550.9453" style="stroke:#B38D22;stroke-width:1.0;"/><text fill="#000000" font-family="sans-serif" font-size="14" lengthAdjust="spacing" textLength="180" x="501" y="555.292">isProviderBased : boolean</text><rect fill="none" height="6" style="stroke:#C82930;stroke-width:1.0;" width="6" x="489" y="565.2422"/><text fill="#000000" font-family="sans-serif" font-size="14" lengthAdjust="spacing" textLength="296" x="501" y="571.5889">_animateOnDragInstance : AnimateOnDrag</text><rect fill="none" height="6" style="stroke:#C82930;stroke-width:1.0;" width="6" x="489" y="581.5391"/><text fill="#000000" font-family="sans-serif" font-size="14" lengthAdjust="spacing" textLength="296" x="501" y="587.8857">_bottomSheetContentElem : HTMLElement</text><rect fill="none" height="6" style="stroke:#C82930;stroke-width:1.0;" width="6" x="489" y="597.8359"/><text fill="#000000" font-family="sans-serif" font-size="14" lengthAdjust="spacing" textLength="290" x="501" y="604.1826">_bottomSheetHeaderElem : HTMLElement</text><rect fill="none" height="6" style="stroke:#C82930;stroke-width:1.0;" width="6" x="489" y="614.1328"/><text fill="#000000" font-family="sans-serif" font-size="14" lengthAdjust="spacing" textLength="226" x="501" y="620.4795">_eventOnContentScroll : Generic</text><rect fill="none" height="6" style="stroke:#C82930;stroke-width:1.0;" width="6" x="489" y="630.4297"/><text fill="#000000" font-family="sans-serif" font-size="14" lengthAdjust="spacing" textLength="197" x="501" y="636.7764">_eventOnKeypress : Generic</text><rect fill="none" height="6" style="stroke:#C82930;stroke-width:1.0;" width="6" x="489" y="646.7266"/><text fill="#000000" font-family="sans-serif" font-size="14" lengthAdjust="spacing" textLength="279" x="501" y="653.0732">_focusManagerInstance : FocusManager</text><rect fill="none" height="6" style="stroke:#C82930;stroke-width:1.0;" width="6" x="489" y="663.0234"/><text fill="#000000" font-family="sans-serif" font-size="14" lengthAdjust="spacing" textLength="221" x="501" y="669.3701">_focusTrapInstance : FocusTrap</text><rect fill="none" height="6" style="stroke:#C82930;stroke-width:1.0;" width="6" x="489" y="679.3203"/><text fill="#000000" font-family="sans-serif" font-size="14" lengthAdjust="spacing" textLength="244" x="501" y="685.667">_gestureEventInstance : DragEvent</text><rect fill="none" height="6" style="stroke:#C82930;stroke-width:1.0;" width="6" x="489" y="695.6172"/><text fill="#000000" font-family="sans-serif" font-size="14" lengthAdjust="spacing" textLength="204" x="501" y="701.9639">_hasGestureEvents : boolean</text><rect fill="none" height="6" style="stroke:#C82930;stroke-width:1.0;" width="6" x="489" y="711.9141"/><text fill="#000000" font-family="sans-serif" font-size="14" lengthAdjust="spacing" textLength="125" x="501" y="718.2607">_isOpen : boolean</text><rect fill="none" height="6" style="stroke:#C82930;stroke-width:1.0;" width="6" x="489" y="728.2109"/><text fill="#000000" font-family="sans-serif" font-size="14" lengthAdjust="spacing" textLength="185" x="501" y="734.5576">_parentSelf : HTMLElement</text><rect fill="none" height="6" style="stroke:#C82930;stroke-width:1.0;" width="6" x="489" y="744.5078"/><text fill="#000000" font-family="sans-serif" font-size="14" lengthAdjust="spacing" textLength="310" x="501" y="750.8545">_platformEventOnToggle : OSOnToggleEvent</text><line style="stroke:#272B30;stroke-width:0.5;" x1="482" x2="1307" y1="758.1563" y2="758.1563"/><ellipse cx="492" cy="771.8047" fill="#84BE84" rx="3" ry="3" style="stroke:#038048;stroke-width:1.0;"/><text fill="#000000" font-family="sans-serif" font-size="14" lengthAdjust="spacing" textLength="84" x="501" y="775.1514">build() : void</text><ellipse cx="492" cy="788.1016" fill="#84BE84" rx="3" ry="3" style="stroke:#038048;stroke-width:1.0;"/><text fill="#000000" font-family="sans-serif" font-size="14" lengthAdjust="spacing" textLength="484" x="501" y="791.4482">changeProperty(propertyName: string, propertyValue: unknown) : void</text><ellipse cx="492" cy="804.3984" fill="#84BE84" rx="3" ry="3" style="stroke:#038048;stroke-width:1.0;"/><text fill="#000000" font-family="sans-serif" font-size="14" lengthAdjust="spacing" textLength="88" x="501" y="807.7451">close() : void</text><ellipse cx="492" cy="820.6953" fill="#84BE84" rx="3" ry="3" style="stroke:#038048;stroke-width:1.0;"/><text fill="#000000" font-family="sans-serif" font-size="14" lengthAdjust="spacing" textLength="106" x="501" y="824.042">dispose() : void</text><ellipse cx="492" cy="836.9922" fill="#84BE84" rx="3" ry="3" style="stroke:#038048;stroke-width:1.0;"/><text fill="#000000" font-family="sans-serif" font-size="14" lengthAdjust="spacing" textLength="267" x="501" y="840.3389">equalsToID(patternId: string) : boolean</text><ellipse cx="492" cy="853.2891" fill="#84BE84" rx="3" ry="3" style="stroke:#038048;stroke-width:1.0;"/><text fill="#000000" font-family="sans-serif" font-size="14" lengthAdjust="spacing" textLength="87" x="501" y="856.6357">open() : void</text><ellipse cx="492" cy="869.5859" fill="#84BE84" rx="3" ry="3" style="stroke:#038048;stroke-width:1.0;"/><text fill="#000000" font-family="sans-serif" font-size="14" lengthAdjust="spacing" textLength="434" x="501" y="872.9326">registerCallback(eventName: string, callback: OSGeneric) : void</text><ellipse cx="492" cy="885.8828" fill="#84BE84" rx="3" ry="3" style="stroke:#038048;stroke-width:1.0;"/><text fill="#000000" font-family="sans-serif" font-size="14" lengthAdjust="spacing" textLength="206" x="501" y="889.2295">removeGestureEvents() : void</text><polygon fill="#FFFF44" points="492,897.1797,496,901.1797,492,905.1797,488,901.1797" style="stroke:#B38D22;stroke-width:1.0;"/><text fill="#000000" font-family="sans-serif" font-size="14" lengthAdjust="spacing" textLength="121" x="501" y="905.5264">finishBuild() : void</text><polygon fill="#FFFF44" points="492,913.4766,496,917.4766,492,921.4766,488,917.4766" style="stroke:#B38D22;stroke-width:1.0;"/><text fill="#000000" font-family="sans-serif" font-size="14" lengthAdjust="spacing" textLength="205" x="501" y="921.8232">removeEventListeners() : void</text><polygon fill="#FFFF44" points="492,929.7734,496,933.7734,492,937.7734,488,933.7734" style="stroke:#B38D22;stroke-width:1.0;"/><text fill="#000000" font-family="sans-serif" font-size="14" lengthAdjust="spacing" textLength="180" x="501" y="938.1201">setA11YProperties() : void</text><polygon fill="#FFFF44" points="492,946.0703,496,950.0703,492,954.0703,488,950.0703" style="stroke:#B38D22;stroke-width:1.0;"/><text fill="#000000" font-family="sans-serif" font-size="14" lengthAdjust="spacing" textLength="138" x="501" y="954.417">setCallbacks() : void</text><polygon fill="#FFFF44" points="492,962.3672,496,966.3672,492,970.3672,488,966.3672" style="stroke:#B38D22;stroke-width:1.0;"/><text fill="#000000" font-family="sans-serif" font-size="14" lengthAdjust="spacing" textLength="175" x="501" y="970.7139">setEventListeners() : void</text><polygon fill="#FFFF44" points="492,978.6641,496,982.6641,492,986.6641,488,982.6641" style="stroke:#B38D22;stroke-width:1.0;"/><text fill="#000000" font-family="sans-serif" font-size="14" lengthAdjust="spacing" textLength="801" x="501" y="987.0107">setGestureEvents(onGestureStart: GestureStart, onGestureMove: GestureMove, onGestureEnd: GestureEnd) : void</text><polygon fill="#FFFF44" points="492,994.9609,496,998.9609,492,1002.9609,488,998.9609" style="stroke:#B38D22;stroke-width:1.0;"/><text fill="#000000" font-family="sans-serif" font-size="14" lengthAdjust="spacing" textLength="169" x="501" y="1003.3076">setHtmlElements() : void</text><polygon fill="#FFFF44" points="492,1011.2578,496,1015.2578,492,1019.2578,488,1015.2578" style="stroke:#B38D22;stroke-width:1.0;"/><text fill="#000000" font-family="sans-serif" font-size="14" lengthAdjust="spacing" textLength="161" x="501" y="1019.6045">setInitialOptions() : void</text><polygon fill="#FFFF44" points="492,1027.5547,496,1031.5547,492,1035.5547,488,1031.5547" style="stroke:#B38D22;stroke-width:1.0;"/><text fill="#000000" font-family="sans-serif" font-size="14" lengthAdjust="spacing" textLength="569" x="501" y="1035.9014">triggerPlatformEventCallback(platFormCallback: OSGeneric, args: unknown[]) : void</text><polygon fill="#FFFF44" points="492,1043.8516,496,1047.8516,492,1051.8516,488,1047.8516" style="stroke:#B38D22;stroke-width:1.0;"/><text fill="#000000" font-family="sans-serif" font-size="14" lengthAdjust="spacing" textLength="311" x="501" y="1052.1982">triggerPlatformInitializedEventCallback() : void</text><polygon fill="#FFFF44" points="492,1060.1484,496,1064.1484,492,1068.1484,488,1064.1484" style="stroke:#B38D22;stroke-width:1.0;"/><text fill="#000000" font-family="sans-serif" font-size="14" lengthAdjust="spacing" textLength="156" x="501" y="1068.4951">unsetCallbacks() : void</text><polygon fill="#FFFF44" points="492,1076.4453,496,1080.4453,492,1084.4453,488,1080.4453" style="stroke:#B38D22;stroke-width:1.0;"/><text fill="#000000" font-family="sans-serif" font-size="14" lengthAdjust="spacing" textLength="199" x="501" y="1084.792">unsetGlobalCallbacks() : void</text><polygon fill="#FFFF44" points="492,1092.7422,496,1096.7422,492,1100.7422,488,1096.7422" style="stroke:#B38D22;stroke-width:1.0;"/><text fill="#000000" font-family="sans-serif" font-size="14" lengthAdjust="spacing" textLength="187" x="501" y="1101.0889">unsetHtmlElements() : void</text><rect fill="#F24D5C" height="6" style="stroke:#C82930;stroke-width:1.0;" width="6" x="489" y="1111.0391"/><text fill="#000000" font-family="sans-serif" font-size="14" lengthAdjust="spacing" textLength="207" x="501" y="1117.3857">_handleFocusBehavior() : void</text><rect fill="#F24D5C" height="6" style="stroke:#C82930;stroke-width:1.0;" width="6" x="489" y="1127.3359"/><text fill="#000000" font-family="sans-serif" font-size="14" lengthAdjust="spacing" textLength="208" x="501" y="1133.6826">_handleGestureEvents() : void</text><rect fill="#F24D5C" height="6" style="stroke:#C82930;stroke-width:1.0;" width="6" x="489" y="1143.6328"/><text fill="#000000" font-family="sans-serif" font-size="14" lengthAdjust="spacing" textLength="287" x="501" y="1149.9795">_handleShape(shape: ShapeTypes) : void</text><rect fill="#F24D5C" height="6" style="stroke:#C82930;stroke-width:1.0;" width="6" x="489" y="1159.9297"/><text fill="#000000" font-family="sans-serif" font-size="14" lengthAdjust="spacing" textLength="226" x="501" y="1166.2764">_onContentScrollCallback() : void</text><rect fill="#F24D5C" height="6" style="stroke:#C82930;stroke-width:1.0;" width="6" x="489" y="1176.2266"/><text fill="#000000" font-family="sans-serif" font-size="14" lengthAdjust="spacing" textLength="533" x="501" y="1182.5732">_onGestureEnd(offsetX: number, offsetY: number, timeTaken: number) : void</text><rect fill="#F24D5C" height="6" style="stroke:#C82930;stroke-width:1.0;" width="6" x="489" y="1192.5234"/><text fill="#000000" font-family="sans-serif" font-size="14" lengthAdjust="spacing" textLength="676" x="501" y="1198.8701">_onGestureMove(x: number, y: number, offsetX: number, offsetY: number, evt: TouchEvent) : void</text><rect fill="#F24D5C" height="6" style="stroke:#C82930;stroke-width:1.0;" width="6" x="489" y="1208.8203"/><text fill="#000000" font-family="sans-serif" font-size="14" lengthAdjust="spacing" textLength="312" x="501" y="1215.167">_onGestureStart(x: number, y: number) : void</text><rect fill="#F24D5C" height="6" style="stroke:#C82930;stroke-width:1.0;" width="6" x="489" y="1225.1172"/><text fill="#000000" font-family="sans-serif" font-size="14" lengthAdjust="spacing" textLength="318" x="501" y="1231.4639">_onkeypressCallback(e: KeyboardEvent) : void</text><rect fill="#F24D5C" height="6" style="stroke:#C82930;stroke-width:1.0;" width="6" x="489" y="1241.4141"/><text fill="#000000" font-family="sans-serif" font-size="14" lengthAdjust="spacing" textLength="195" x="501" y="1247.7607">_removeHtmlClasses() : void</text><rect fill="#F24D5C" height="6" style="stroke:#C82930;stroke-width:1.0;" width="6" x="489" y="1257.7109"/><text fill="#000000" font-family="sans-serif" font-size="14" lengthAdjust="spacing" textLength="308" x="501" y="1264.0576">_toggleBottomSheet(isOpen: boolean) : void</text><rect fill="#F24D5C" height="6" style="stroke:#C82930;stroke-width:1.0;" width="6" x="489" y="1274.0078"/><text fill="#000000" font-family="sans-serif" font-size="14" lengthAdjust="spacing" textLength="311" x="501" y="1280.3545">_toggleHandler(ShowHandler: boolean) : void</text><rect fill="#F24D5C" height="6" style="stroke:#C82930;stroke-width:1.0;" width="6" x="489" y="1290.3047"/><text fill="#000000" font-family="sans-serif" font-size="14" lengthAdjust="spacing" textLength="210" x="501" y="1296.6514">_triggerOnToggleEvent() : void</text></g><!--class AbstractPattern<BottomSheetConfig>--><g id="elem_AbstractPattern&lt;BottomSheetConfig&gt;"><rect codeLine="56" fill="#FFFFFF" height="422.8281" id="AbstractPattern&lt;BottomSheetConfig&gt;" rx="2.5" ry="2.5" style="stroke:#272B30;stroke-width:0.5;" width="595" x="9" y="7"/><ellipse cx="169.25" cy="23" fill="#A9DCDF" rx="11" ry="11" style="stroke:#181818;stroke-width:1.0;"/><path d="M169.3594,18.3438 L168.2031,23.4219 L170.5313,23.4219 L169.3594,18.3438 Z M167.875,16.1094 L170.8594,16.1094 L174.2188,28.5 L171.7656,28.5 L171,25.4375 L167.7188,25.4375 L166.9688,28.5 L164.5313,28.5 L167.875,16.1094 Z " fill="#000000"/><text fill="#000000" font-family="sans-serif" font-size="14" font-style="italic" lengthAdjust="spacing" textLength="266" x="189.75" y="27.8467">AbstractPattern&lt;BottomSheetConfig&gt;</text><line style="stroke:#272B30;stroke-width:0.5;" x1="10" x2="603" y1="39" y2="39"/><polygon fill="none" points="20,47.6484,24,51.6484,20,55.6484,16,51.6484" style="stroke:#B38D22;stroke-width:1.0;"/><text fill="#000000" font-family="sans-serif" font-size="14" lengthAdjust="spacing" textLength="180" x="29" y="55.9951">isProviderBased : boolean</text><rect fill="none" height="6" style="stroke:#C82930;stroke-width:1.0;" width="6" x="17" y="65.9453"/><text fill="#000000" font-family="sans-serif" font-size="14" lengthAdjust="spacing" textLength="206" x="29" y="72.292">_configs : BottomSheetConfig</text><rect fill="none" height="6" style="stroke:#C82930;stroke-width:1.0;" width="6" x="17" y="82.2422"/><text fill="#000000" font-family="sans-serif" font-size="14" lengthAdjust="spacing" textLength="117" x="29" y="88.5889">_isBuilt : boolean</text><rect fill="none" height="6" style="stroke:#C82930;stroke-width:1.0;" width="6" x="17" y="98.5391"/><text fill="#000000" font-family="sans-serif" font-size="14" lengthAdjust="spacing" textLength="252" x="29" y="104.8857">_platformEventInitialized : OSGeneric</text><rect fill="none" height="6" style="stroke:#C82930;stroke-width:1.0;" width="6" x="17" y="114.8359"/><text fill="#000000" font-family="sans-serif" font-size="14" lengthAdjust="spacing" textLength="173" x="29" y="121.1826">_selfElem : HTMLElement</text><rect fill="none" height="6" style="stroke:#C82930;stroke-width:1.0;" width="6" x="17" y="131.1328"/><text fill="#000000" font-family="sans-serif" font-size="14" lengthAdjust="spacing" textLength="119" x="29" y="137.4795">_uniqueId : string</text><rect fill="none" height="6" style="stroke:#C82930;stroke-width:1.0;" width="6" x="17" y="147.4297"/><text fill="#000000" font-family="sans-serif" font-size="14" lengthAdjust="spacing" textLength="117" x="29" y="153.7764">_widgetId : string</text><line style="stroke:#272B30;stroke-width:0.5;" x1="10" x2="603" y1="161.0781" y2="161.0781"/><ellipse cx="20" cy="174.7266" fill="#84BE84" rx="3" ry="3" style="stroke:#038048;stroke-width:1.0;"/><text fill="#000000" font-family="sans-serif" font-size="14" lengthAdjust="spacing" textLength="84" x="29" y="178.0732">build() : void</text><ellipse cx="20" cy="191.0234" fill="#84BE84" rx="3" ry="3" style="stroke:#038048;stroke-width:1.0;"/><text fill="#000000" font-family="sans-serif" font-size="14" lengthAdjust="spacing" textLength="484" x="29" y="194.3701">changeProperty(propertyName: string, propertyValue: unknown) : void</text><ellipse cx="20" cy="207.3203" fill="#84BE84" rx="3" ry="3" style="stroke:#038048;stroke-width:1.0;"/><text fill="#000000" font-family="sans-serif" font-size="14" lengthAdjust="spacing" textLength="106" x="29" y="210.667">dispose() : void</text><ellipse cx="20" cy="223.6172" fill="#84BE84" rx="3" ry="3" style="stroke:#038048;stroke-width:1.0;"/><text fill="#000000" font-family="sans-serif" font-size="14" lengthAdjust="spacing" textLength="267" x="29" y="226.9639">equalsToID(patternId: string) : boolean</text><ellipse cx="20" cy="239.9141" fill="#84BE84" rx="3" ry="3" style="stroke:#038048;stroke-width:1.0;"/><text fill="#000000" font-family="sans-serif" font-size="14" lengthAdjust="spacing" textLength="434" x="29" y="243.2607">registerCallback(eventName: string, callback: OSGeneric) : void</text><polygon fill="#FFFF44" points="20,251.2109,24,255.2109,20,259.2109,16,255.2109" style="stroke:#B38D22;stroke-width:1.0;"/><text fill="#000000" font-family="sans-serif" font-size="14" lengthAdjust="spacing" textLength="121" x="29" y="259.5576">finishBuild() : void</text><polygon fill="#FFFF44" points="20,267.5078,24,271.5078,20,275.5078,16,271.5078" style="stroke:#B38D22;stroke-width:1.0;"/><text fill="#000000" font-family="sans-serif" font-size="14" font-style="italic" lengthAdjust="spacing" textLength="179" x="29" y="275.8545">setA11YProperties() : void</text><polygon fill="#FFFF44" points="20,283.8047,24,287.8047,20,291.8047,16,287.8047" style="stroke:#B38D22;stroke-width:1.0;"/><text fill="#000000" font-family="sans-serif" font-size="14" font-style="italic" lengthAdjust="spacing" textLength="137" x="29" y="292.1514">setCallbacks() : void</text><polygon fill="#FFFF44" points="20,300.1016,24,304.1016,20,308.1016,16,304.1016" style="stroke:#B38D22;stroke-width:1.0;"/><text fill="#000000" font-family="sans-serif" font-size="14" font-style="italic" lengthAdjust="spacing" textLength="169" x="29" y="308.4482">setHtmlElements() : void</text><polygon fill="#FFFF44" points="20,316.3984,24,320.3984,20,324.3984,16,320.3984" style="stroke:#B38D22;stroke-width:1.0;"/><text fill="#000000" font-family="sans-serif" font-size="14" lengthAdjust="spacing" textLength="569" x="29" y="324.7451">triggerPlatformEventCallback(platFormCallback: OSGeneric, args: unknown[]) : void</text><polygon fill="#FFFF44" points="20,332.6953,24,336.6953,20,340.6953,16,336.6953" style="stroke:#B38D22;stroke-width:1.0;"/><text fill="#000000" font-family="sans-serif" font-size="14" lengthAdjust="spacing" textLength="311" x="29" y="341.042">triggerPlatformInitializedEventCallback() : void</text><polygon fill="#FFFF44" points="20,348.9922,24,352.9922,20,356.9922,16,352.9922" style="stroke:#B38D22;stroke-width:1.0;"/><text fill="#000000" font-family="sans-serif" font-size="14" font-style="italic" lengthAdjust="spacing" textLength="155" x="29" y="357.3389">unsetCallbacks() : void</text><polygon fill="#FFFF44" points="20,365.2891,24,369.2891,20,373.2891,16,369.2891" style="stroke:#B38D22;stroke-width:1.0;"/><text fill="#000000" font-family="sans-serif" font-size="14" lengthAdjust="spacing" textLength="199" x="29" y="373.6357">unsetGlobalCallbacks() : void</text><polygon fill="#FFFF44" points="20,381.5859,24,385.5859,20,389.5859,16,385.5859" style="stroke:#B38D22;stroke-width:1.0;"/><text fill="#000000" font-family="sans-serif" font-size="14" font-style="italic" lengthAdjust="spacing" textLength="187" x="29" y="389.9326">unsetHtmlElements() : void</text><rect fill="#F24D5C" height="6" style="stroke:#C82930;stroke-width:1.0;" width="6" x="17" y="399.8828"/><text fill="#000000" font-family="sans-serif" font-size="14" lengthAdjust="spacing" textLength="239" x="29" y="406.2295">_setCommonHtmlElements() : void</text><rect fill="#F24D5C" height="6" style="stroke:#C82930;stroke-width:1.0;" width="6" x="17" y="416.1797"/><text fill="#000000" font-family="sans-serif" font-size="14" lengthAdjust="spacing" textLength="257" x="29" y="422.5264">_unsetCommonHtmlElements() : void</text></g><!--class IBottomSheet--><g id="elem_IBottomSheet"><rect codeLine="82" fill="#FFFFFF" height="227.2656" id="IBottomSheet" rx="2.5" ry="2.5" style="stroke:#272B30;stroke-width:0.5;" width="510" x="639.5" y="105"/><ellipse cx="842.25" cy="121" fill="#B4A7E5" rx="11" ry="11" style="stroke:#181818;stroke-width:1.0;"/><path d="M838.1719,116.7656 L838.1719,114.6094 L845.5625,114.6094 L845.5625,116.7656 L843.0938,116.7656 L843.0938,124.8438 L845.5625,124.8438 L845.5625,127 L838.1719,127 L838.1719,124.8438 L840.6406,124.8438 L840.6406,116.7656 L838.1719,116.7656 Z " fill="#000000"/><text fill="#000000" font-family="sans-serif" font-size="14" font-style="italic" lengthAdjust="spacing" textLength="96" x="862.75" y="125.8467">IBottomSheet</text><line style="stroke:#272B30;stroke-width:0.5;" x1="640.5" x2="1148.5" y1="137" y2="137"/><ellipse cx="650.5" cy="150.6484" fill="none" rx="3" ry="3" style="stroke:#038048;stroke-width:1.0;"/><text fill="#000000" font-family="sans-serif" font-size="14" lengthAdjust="spacing" textLength="110" x="659.5" y="153.9951">isBuilt : boolean</text><ellipse cx="650.5" cy="166.9453" fill="none" rx="3" ry="3" style="stroke:#038048;stroke-width:1.0;"/><text fill="#000000" font-family="sans-serif" font-size="14" lengthAdjust="spacing" textLength="189" x="659.5" y="170.292">selfElement : HTMLElement</text><ellipse cx="650.5" cy="183.2422" fill="none" rx="3" ry="3" style="stroke:#038048;stroke-width:1.0;"/><text fill="#000000" font-family="sans-serif" font-size="14" lengthAdjust="spacing" textLength="112" x="659.5" y="186.5889">uniqueId : string</text><ellipse cx="650.5" cy="199.5391" fill="none" rx="3" ry="3" style="stroke:#038048;stroke-width:1.0;"/><text fill="#000000" font-family="sans-serif" font-size="14" lengthAdjust="spacing" textLength="110" x="659.5" y="202.8857">widgetId : string</text><line style="stroke:#272B30;stroke-width:0.5;" x1="640.5" x2="1148.5" y1="210.1875" y2="210.1875"/><ellipse cx="650.5" cy="223.8359" fill="#84BE84" rx="3" ry="3" style="stroke:#038048;stroke-width:1.0;"/><text fill="#000000" font-family="sans-serif" font-size="14" lengthAdjust="spacing" textLength="84" x="659.5" y="227.1826">build() : void</text><ellipse cx="650.5" cy="240.1328" fill="#84BE84" rx="3" ry="3" style="stroke:#038048;stroke-width:1.0;"/><text fill="#000000" font-family="sans-serif" font-size="14" lengthAdjust="spacing" textLength="484" x="659.5" y="243.4795">changeProperty(propertyName: string, propertyValue: unknown) : void</text><ellipse cx="650.5" cy="256.4297" fill="#84BE84" rx="3" ry="3" style="stroke:#038048;stroke-width:1.0;"/><text fill="#000000" font-family="sans-serif" font-size="14" lengthAdjust="spacing" textLength="88" x="659.5" y="259.7764">close() : void</text><ellipse cx="650.5" cy="272.7266" fill="#84BE84" rx="3" ry="3" style="stroke:#038048;stroke-width:1.0;"/><text fill="#000000" font-family="sans-serif" font-size="14" lengthAdjust="spacing" textLength="106" x="659.5" y="276.0732">dispose() : void</text><ellipse cx="650.5" cy="289.0234" fill="#84BE84" rx="3" ry="3" style="stroke:#038048;stroke-width:1.0;"/><text fill="#000000" font-family="sans-serif" font-size="14" lengthAdjust="spacing" textLength="217" x="659.5" y="292.3701">equalsToID(id: string) : boolean</text><ellipse cx="650.5" cy="305.3203" fill="#84BE84" rx="3" ry="3" style="stroke:#038048;stroke-width:1.0;"/><text fill="#000000" font-family="sans-serif" font-size="14" lengthAdjust="spacing" textLength="87" x="659.5" y="308.667">open() : void</text><ellipse cx="650.5" cy="321.6172" fill="#84BE84" rx="3" ry="3" style="stroke:#038048;stroke-width:1.0;"/><text fill="#000000" font-family="sans-serif" font-size="14" lengthAdjust="spacing" textLength="434" x="659.5" y="324.9639">registerCallback(eventName: string, callback: OSGeneric) : void</text></g><!--class IDragEvent--><g id="elem_IDragEvent"><rect codeLine="96" fill="#FFFFFF" height="113.1875" id="IDragEvent" rx="2.5" ry="2.5" style="stroke:#272B30;stroke-width:0.5;" width="823" x="1185" y="162"/><ellipse cx="1553.75" cy="178" fill="#B4A7E5" rx="11" ry="11" style="stroke:#181818;stroke-width:1.0;"/><path d="M1549.6719,173.7656 L1549.6719,171.6094 L1557.0625,171.6094 L1557.0625,173.7656 L1554.5938,173.7656 L1554.5938,181.8438 L1557.0625,181.8438 L1557.0625,184 L1549.6719,184 L1549.6719,181.8438 L1552.1406,181.8438 L1552.1406,173.7656 L1549.6719,173.7656 Z " fill="#000000"/><text fill="#000000" font-family="sans-serif" font-size="14" font-style="italic" lengthAdjust="spacing" textLength="77" x="1574.25" y="182.8467">IDragEvent</text><line style="stroke:#272B30;stroke-width:0.5;" x1="1186" x2="2007" y1="194" y2="194"/><ellipse cx="1196" cy="207.6484" fill="none" rx="3" ry="3" style="stroke:#038048;stroke-width:1.0;"/><text fill="#000000" font-family="sans-serif" font-size="14" lengthAdjust="spacing" textLength="237" x="1205" y="210.9951">gestureEventInstance : DragEvent</text><ellipse cx="1196" cy="223.9453" fill="none" rx="3" ry="3" style="stroke:#038048;stroke-width:1.0;"/><text fill="#000000" font-family="sans-serif" font-size="14" lengthAdjust="spacing" textLength="197" x="1205" y="227.292">hasGestureEvents : boolean</text><line style="stroke:#272B30;stroke-width:0.5;" x1="1186" x2="2007" y1="234.5938" y2="234.5938"/><ellipse cx="1196" cy="248.2422" fill="#84BE84" rx="3" ry="3" style="stroke:#038048;stroke-width:1.0;"/><text fill="#000000" font-family="sans-serif" font-size="14" lengthAdjust="spacing" textLength="206" x="1205" y="251.5889">removeGestureEvents() : void</text><ellipse cx="1196" cy="264.5391" fill="#84BE84" rx="3" ry="3" style="stroke:#038048;stroke-width:1.0;"/><text fill="#000000" font-family="sans-serif" font-size="14" lengthAdjust="spacing" textLength="797" x="1205" y="267.8857">setGestureEvents(onGestureStart: GestureStart, onGestureMove: GestureMove, onGestureEnd: GestureEnd) : any</text></g><!--reverse link AbstractPattern<BottomSheetConfig> to BottomSheet--><g id="link_AbstractPattern&lt;BottomSheetConfig&gt;_BottomSheet"><path codeLine="81" d="M501.5321,443.8908 C518.2921,463.1908 523.83,469.53 541.45,489.81 " fill="none" id="AbstractPattern&lt;BottomSheetConfig&gt;-backto-BottomSheet" style="stroke:#272B30;stroke-width:1.0;"/><polygon fill="none" points="489.73,430.3,497.0019,447.8248,506.0624,439.9567,489.73,430.3" style="stroke:#272B30;stroke-width:1.0;"/></g><!--reverse link IBottomSheet to BottomSheet--><g id="link_IBottomSheet_BottomSheet"><path codeLine="95" d="M894.5,350.35 C894.5,395.37 894.5,432.16 894.5,489.69 " fill="none" id="IBottomSheet-backto-BottomSheet" style="stroke:#272B30;stroke-width:1.0;stroke-dasharray:7.0,7.0;"/><polygon fill="none" points="894.5,332.35,888.5,350.35,900.5,350.35,894.5,332.35" style="stroke:#272B30;stroke-width:1.0;"/></g><!--reverse link IDragEvent to BottomSheet--><g id="link_IDragEvent_BottomSheet"><path codeLine="102" d="M1525.7893,287.6408 C1472.0093,339.4708 1399.53,409.31 1308.25,497.28 " fill="none" id="IDragEvent-backto-BottomSheet" style="stroke:#272B30;stroke-width:1.0;stroke-dasharray:7.0,7.0;"/><polygon fill="none" points="1538.75,275.15,1521.6257,283.3205,1529.9529,291.961,1538.75,275.15" style="stroke:#272B30;stroke-width:1.0;"/></g><!--SRC=[pLTRRzis57xtho2I5nLEYhKRCC082jXkcXXhwW0sYXR5C53IaSIP8bMISkQr-Uyxb6XPDyl5rilo48ZdVEV2SwNrXecCAfgIEQTQJvMI3tF9fIBdptzzxl_yqqWt4JEfGb3341fiOYLp4JfO54KrJ8STGFXBI4S92u50cfaTIS4aCjHrKiI08oMm1iZPJ1eZqrK2OCx8fn71lx7E51FnLB2K6YR5N8g8nPfCoDB_4m9JWCwPlbToYshLZ6e8aUjBoO6AWdtv1ot4OIbUAXelX3PK182eQPtkiFx12JHcG9Xh3Yc2RzTth-qdKhhGMw1e_IWIjlYz54xXAb2ISmJUW035WYReDzXb2hJky2CPvFgE2Xg3gbtYLOrSHwuLpTemItEO6BJ95LnRepMOZKH1Sx24wfiQKdTYo_Go0z4XOrNOcmAFUWEISMeYgTBhyivh6SVScb-kzeU34sC_PppqdY1xArbOqeA4YXWmxHaei_Coz_66fZ0XsjYYkI1xwblASoJdOYFaWsWfub93Itd8TDQbmiUSShsMYvTUHeq19HRXtjQJLW36Q5Yqv1N4JAFOd7BkOxjuHSAR7WUEPoFXijzMaiejD5BID7CUCS5qCkl6xBoKBOHUMqzGVLjOWva-U_RUnPL13t_lVW_hbEgcsrAuyyfGPMor7quNfEBUeSyLqnvgl6iHLYpyxXYyDIbtXTVZpa8mmoXVPdQojFcOa1WxwhvUg5NcRFc-GkgycwuBGbMigsBxyFkWMkS2-nl2feMcL2u60bymRxZqAH-470-6RNCHSYXcn0mIkcLIzKC6AcyFMIKq0q_R_nDI7DQx37GBAvlJiF_Y5dP8hoUZ2E_nRa94dlgWi10Amli3mR0KrdG3OaywfiuMalVNGN3NLZfa1RPOhckP1qaHXsCsYahkDTAHsBYXVvWD4uABm9TKXNqsobQs6IsMCtHIOOeXMjkeNZcegp7LYxyj4gYyLI8VtFTHWRAG6-FwuCJZYFeuqsXWY5lkKtU-BqVdrQonPt6flzZl_9FhFAWU0HqbrLAoyyzqjrAzcskzHseDxA0QLzVHVPuBzZ67XPKh9xUZFx0mnhdIed_R1VOLbjNNs4p7zywdVIaydjmlBUYHSTP23Gpv_zCGhtlz7-TvHzNGQBUMP9fACGGg7Hg0FOw-g8ElFbzUDX_o8uPJNaKKNvTdYxuNVd-lZlVzXsxqjE2ulmF7Fw81_zKBadtNfoDchndxgyzFdmxagVeLK6NfYtukZ4_yMZZzUXr_frSY5RiYABMBTaFo3m00]--></g></svg>