<?xml version="1.0" encoding="UTF-8" standalone="no"?><svg xmlns="http://www.w3.org/2000/svg" xmlns:xlink="http://www.w3.org/1999/xlink" contentScriptType="application/ecmascript" contentStyleType="text/css" height="587px" preserveAspectRatio="none" style="width:908px;height:587px;background:#CED4DA;" version="1.1" viewBox="0 0 908 587" width="908px" zoomAndPan="magnify"><defs><filter height="300%" id="fd5sl9o9mcmqy" width="300%" x="-1" y="-1"><feGaussianBlur result="blurOut" stdDeviation="2.0"/><feColorMatrix in="blurOut" result="blurOut2" type="matrix" values="0 0 0 0 0 0 0 0 0 0 0 0 0 0 0 0 0 0 .4 0"/><feOffset dx="4.0" dy="4.0" in="blurOut2" result="blurOut3"/><feBlend in="SourceGraphic" in2="blurOut3" mode="normal"/></filter></defs><g><!--MD5=[480086052a6805ca836cc723b7f03190]
class ButtonLoading--><rect codeLine="7" fill="#FFFFFF" filter="url(#fd5sl9o9mcmqy)" height="240.0703" id="ButtonLoading" style="stroke:#272B30;stroke-width:1.5;" width="425" x="239" y="333"/><ellipse cx="401.75" cy="349" fill="#ADD1B2" rx="11" ry="11" style="stroke:#272B30;stroke-width:1.0;"/><path d="M404.7188,354.6406 Q404.1406,354.9375 403.5,355.0781 Q402.8594,355.2344 402.1563,355.2344 Q399.6563,355.2344 398.3281,353.5938 Q397.0156,351.9375 397.0156,348.8125 Q397.0156,345.6875 398.3281,344.0313 Q399.6563,342.375 402.1563,342.375 Q402.8594,342.375 403.5,342.5313 Q404.1563,342.6875 404.7188,342.9844 L404.7188,345.7031 Q404.0938,345.125 403.5,344.8594 Q402.9063,344.5781 402.2813,344.5781 Q400.9375,344.5781 400.25,345.6563 Q399.5625,346.7188 399.5625,348.8125 Q399.5625,350.9063 400.25,351.9844 Q400.9375,353.0469 402.2813,353.0469 Q402.9063,353.0469 403.5,352.7813 Q404.0938,352.5 404.7188,351.9219 L404.7188,354.6406 Z " fill="#000000"/><text fill="#000000" font-family="sans-serif" font-size="12" lengthAdjust="spacing" textLength="91" x="422.25" y="353.1543">ButtonLoading</text><line style="stroke:#272B30;stroke-width:1.5;" x1="240" x2="663" y1="365" y2="365"/><rect fill="none" height="6" style="stroke:#C82930;stroke-width:1.0;" width="6" x="247" y="373"/><text fill="#000000" font-family="sans-serif" font-size="11" lengthAdjust="spacing" textLength="176" x="259" y="379.2104">_buttonElement : HTMLElement</text><rect fill="none" height="6" style="stroke:#C82930;stroke-width:1.0;" width="6" x="247" y="385.8047"/><text fill="#000000" font-family="sans-serif" font-size="11" lengthAdjust="spacing" textLength="183" x="259" y="392.0151">_spinnerElement : HTMLElement</text><line style="stroke:#272B30;stroke-width:1.5;" x1="240" x2="663" y1="398.6094" y2="398.6094"/><ellipse cx="250" cy="409.6094" fill="#84BE84" rx="3" ry="3" style="stroke:#038048;stroke-width:1.0;"/><text fill="#000000" font-family="sans-serif" font-size="11" lengthAdjust="spacing" textLength="70" x="259" y="412.8198">build() : void</text><ellipse cx="250" cy="422.4141" fill="#84BE84" rx="3" ry="3" style="stroke:#038048;stroke-width:1.0;"/><text fill="#000000" font-family="sans-serif" font-size="11" lengthAdjust="spacing" textLength="399" x="259" y="425.6245">changeProperty(propertyName: string, propertyValue: unknown) : void</text><ellipse cx="250" cy="435.2188" fill="#84BE84" rx="3" ry="3" style="stroke:#038048;stroke-width:1.0;"/><text fill="#000000" font-family="sans-serif" font-size="11" lengthAdjust="spacing" textLength="88" x="259" y="438.4292">dispose() : void</text><ellipse cx="250" cy="448.0234" fill="#84BE84" rx="3" ry="3" style="stroke:#038048;stroke-width:1.0;"/><text fill="#000000" font-family="sans-serif" font-size="11" lengthAdjust="spacing" textLength="220" x="259" y="451.2339">equalsToID(patternId: string) : boolean</text><polygon fill="#FFFF44" points="250,455.8281,254,459.8281,250,463.8281,246,459.8281" style="stroke:#B38D22;stroke-width:1.0;"/><text fill="#000000" font-family="sans-serif" font-size="11" lengthAdjust="spacing" textLength="102" x="259" y="464.0386">finishBuild() : void</text><polygon fill="#FFFF44" points="250,468.6328,254,472.6328,250,476.6328,246,472.6328" style="stroke:#B38D22;stroke-width:1.0;"/><text fill="#000000" font-family="sans-serif" font-size="11" lengthAdjust="spacing" textLength="148" x="259" y="476.8433">setA11YProperties() : void</text><polygon fill="#FFFF44" points="250,481.4375,254,485.4375,250,489.4375,246,485.4375" style="stroke:#B38D22;stroke-width:1.0;"/><text fill="#000000" font-family="sans-serif" font-size="11" lengthAdjust="spacing" textLength="115" x="259" y="489.6479">setCallbacks() : void</text><polygon fill="#FFFF44" points="250,494.2422,254,498.2422,250,502.2422,246,498.2422" style="stroke:#B38D22;stroke-width:1.0;"/><text fill="#000000" font-family="sans-serif" font-size="11" lengthAdjust="spacing" textLength="140" x="259" y="502.4526">setHtmlElements() : void</text><polygon fill="#FFFF44" points="250,507.0469,254,511.0469,250,515.0469,246,511.0469" style="stroke:#B38D22;stroke-width:1.0;"/><text fill="#000000" font-family="sans-serif" font-size="11" lengthAdjust="spacing" textLength="129" x="259" y="515.2573">unsetCallbacks() : void</text><polygon fill="#FFFF44" points="250,519.8516,254,523.8516,250,527.8516,246,523.8516" style="stroke:#B38D22;stroke-width:1.0;"/><text fill="#000000" font-family="sans-serif" font-size="11" lengthAdjust="spacing" textLength="154" x="259" y="528.062">unsetHtmlElements() : void</text><rect fill="#F24D5C" height="6" style="stroke:#C82930;stroke-width:1.0;" width="6" x="247" y="534.6563"/><text fill="#000000" font-family="sans-serif" font-size="11" lengthAdjust="spacing" textLength="164" x="259" y="540.8667">_setInitialButtonState() : void</text><rect fill="#F24D5C" height="6" style="stroke:#C82930;stroke-width:1.0;" width="6" x="247" y="547.4609"/><text fill="#000000" font-family="sans-serif" font-size="11" lengthAdjust="spacing" textLength="228" x="259" y="553.6714">_setIsLoading(isLoading: boolean) : void</text><rect fill="#F24D5C" height="6" style="stroke:#C82930;stroke-width:1.0;" width="6" x="247" y="560.2656"/><text fill="#000000" font-family="sans-serif" font-size="11" lengthAdjust="spacing" textLength="293" x="259" y="566.4761">_setLoadingLabel(showSpinnerOnly: boolean) : void</text><!--MD5=[c4ef676247eb75278c820c9aca9098b4]
class AbstractPattern<ButtonLoadingConfig>--><rect codeLine="24" fill="#FFFFFF" filter="url(#fd5sl9o9mcmqy)" height="265.6797" id="AbstractPattern&lt;ButtonLoadingConfig&gt;" style="stroke:#272B30;stroke-width:1.5;" width="425" x="9" y="7"/><ellipse cx="92.75" cy="23" fill="#A9DCDF" rx="11" ry="11" style="stroke:#272B30;stroke-width:1.0;"/><path d="M92.8594,18.3438 L91.7031,23.4219 L94.0313,23.4219 L92.8594,18.3438 Z M91.375,16.1094 L94.3594,16.1094 L97.7188,28.5 L95.2656,28.5 L94.5,25.4375 L91.2188,25.4375 L90.4688,28.5 L88.0313,28.5 L91.375,16.1094 Z " fill="#000000"/><text fill="#000000" font-family="sans-serif" font-size="12" font-style="italic" lengthAdjust="spacing" textLength="249" x="113.25" y="27.1543">AbstractPattern&lt;ButtonLoadingConfig&gt;</text><line style="stroke:#272B30;stroke-width:1.5;" x1="10" x2="433" y1="39" y2="39"/><rect fill="none" height="6" style="stroke:#C82930;stroke-width:1.0;" width="6" x="17" y="47"/><text fill="#000000" font-family="sans-serif" font-size="11" lengthAdjust="spacing" textLength="176" x="29" y="53.2104">_configs : ButtonLoadingConfig</text><rect fill="none" height="6" style="stroke:#C82930;stroke-width:1.0;" width="6" x="17" y="59.8047"/><text fill="#000000" font-family="sans-serif" font-size="11" lengthAdjust="spacing" textLength="98" x="29" y="66.0151">_isBuilt : boolean</text><rect fill="none" height="6" style="stroke:#C82930;stroke-width:1.0;" width="6" x="17" y="72.6094"/><text fill="#000000" font-family="sans-serif" font-size="11" lengthAdjust="spacing" textLength="143" x="29" y="78.8198">_selfElem : HTMLElement</text><rect fill="none" height="6" style="stroke:#C82930;stroke-width:1.0;" width="6" x="17" y="85.4141"/><text fill="#000000" font-family="sans-serif" font-size="11" lengthAdjust="spacing" textLength="99" x="29" y="91.6245">_uniqueId : string</text><rect fill="none" height="6" style="stroke:#C82930;stroke-width:1.0;" width="6" x="17" y="98.2188"/><text fill="#000000" font-family="sans-serif" font-size="11" lengthAdjust="spacing" textLength="98" x="29" y="104.4292">_widgetId : string</text><line style="stroke:#272B30;stroke-width:1.5;" x1="10" x2="433" y1="111.0234" y2="111.0234"/><ellipse cx="20" cy="122.0234" fill="#84BE84" rx="3" ry="3" style="stroke:#038048;stroke-width:1.0;"/><text fill="#000000" font-family="sans-serif" font-size="11" lengthAdjust="spacing" textLength="70" x="29" y="125.2339">build() : void</text><ellipse cx="20" cy="134.8281" fill="#84BE84" rx="3" ry="3" style="stroke:#038048;stroke-width:1.0;"/><text fill="#000000" font-family="sans-serif" font-size="11" lengthAdjust="spacing" textLength="399" x="29" y="138.0386">changeProperty(propertyName: string, propertyValue: unknown) : void</text><ellipse cx="20" cy="147.6328" fill="#84BE84" rx="3" ry="3" style="stroke:#038048;stroke-width:1.0;"/><text fill="#000000" font-family="sans-serif" font-size="11" lengthAdjust="spacing" textLength="88" x="29" y="150.8433">dispose() : void</text><ellipse cx="20" cy="160.4375" fill="#84BE84" rx="3" ry="3" style="stroke:#038048;stroke-width:1.0;"/><text fill="#000000" font-family="sans-serif" font-size="11" lengthAdjust="spacing" textLength="220" x="29" y="163.6479">equalsToID(patternId: string) : boolean</text><polygon fill="#FFFF44" points="20,168.2422,24,172.2422,20,176.2422,16,172.2422" style="stroke:#B38D22;stroke-width:1.0;"/><text fill="#000000" font-family="sans-serif" font-size="11" lengthAdjust="spacing" textLength="102" x="29" y="176.4526">finishBuild() : void</text><polygon fill="#FFFF44" points="20,181.0469,24,185.0469,20,189.0469,16,185.0469" style="stroke:#B38D22;stroke-width:1.0;"/><text fill="#000000" font-family="sans-serif" font-size="11" font-style="italic" lengthAdjust="spacing" textLength="148" x="29" y="189.2573">setA11YProperties() : void</text><polygon fill="#FFFF44" points="20,193.8516,24,197.8516,20,201.8516,16,197.8516" style="stroke:#B38D22;stroke-width:1.0;"/><text fill="#000000" font-family="sans-serif" font-size="11" font-style="italic" lengthAdjust="spacing" textLength="114" x="29" y="202.062">setCallbacks() : void</text><polygon fill="#FFFF44" points="20,206.6563,24,210.6563,20,214.6563,16,210.6563" style="stroke:#B38D22;stroke-width:1.0;"/><text fill="#000000" font-family="sans-serif" font-size="11" font-style="italic" lengthAdjust="spacing" textLength="139" x="29" y="214.8667">setHtmlElements() : void</text><polygon fill="#FFFF44" points="20,219.4609,24,223.4609,20,227.4609,16,223.4609" style="stroke:#B38D22;stroke-width:1.0;"/><text fill="#000000" font-family="sans-serif" font-size="11" font-style="italic" lengthAdjust="spacing" textLength="128" x="29" y="227.6714">unsetCallbacks() : void</text><polygon fill="#FFFF44" points="20,232.2656,24,236.2656,20,240.2656,16,236.2656" style="stroke:#B38D22;stroke-width:1.0;"/><text fill="#000000" font-family="sans-serif" font-size="11" font-style="italic" lengthAdjust="spacing" textLength="153" x="29" y="240.4761">unsetHtmlElements() : void</text><rect fill="#F24D5C" height="6" style="stroke:#C82930;stroke-width:1.0;" width="6" x="17" y="247.0703"/><text fill="#000000" font-family="sans-serif" font-size="11" lengthAdjust="spacing" textLength="197" x="29" y="253.2808">_setCommonHtmlElements() : void</text><rect fill="#F24D5C" height="6" style="stroke:#C82930;stroke-width:1.0;" width="6" x="17" y="259.875"/><text fill="#000000" font-family="sans-serif" font-size="11" lengthAdjust="spacing" textLength="211" x="29" y="266.0854">_unsetCommonHtmlElements() : void</text><!--MD5=[fc68d749ad546de304bcf3599e2d0b9a]
class IButtonLoading--><rect codeLine="44" fill="#FFFFFF" filter="url(#fd5sl9o9mcmqy)" height="150.4375" id="IButtonLoading" style="stroke:#272B30;stroke-width:1.5;" width="425" x="469" y="65"/><ellipse cx="629.25" cy="81" fill="#B4A7E5" rx="11" ry="11" style="stroke:#272B30;stroke-width:1.0;"/><path d="M625.1719,76.7656 L625.1719,74.6094 L632.5625,74.6094 L632.5625,76.7656 L630.0938,76.7656 L630.0938,84.8438 L632.5625,84.8438 L632.5625,87 L625.1719,87 L625.1719,84.8438 L627.6406,84.8438 L627.6406,76.7656 L625.1719,76.7656 Z " fill="#000000"/><text fill="#000000" font-family="sans-serif" font-size="12" font-style="italic" lengthAdjust="spacing" textLength="96" x="649.75" y="85.1543">IButtonLoading</text><line style="stroke:#272B30;stroke-width:1.5;" x1="470" x2="893" y1="97" y2="97"/><ellipse cx="480" cy="108" rx="3" ry="3" style="stroke:#038048;stroke-width:1.0;fill:none;"/><text fill="#000000" font-family="sans-serif" font-size="11" lengthAdjust="spacing" textLength="92" x="489" y="111.2104">isBuilt : boolean</text><ellipse cx="480" cy="120.8047" rx="3" ry="3" style="stroke:#038048;stroke-width:1.0;fill:none;"/><text fill="#000000" font-family="sans-serif" font-size="11" lengthAdjust="spacing" textLength="155" x="489" y="124.0151">selfElement : HTMLElement</text><ellipse cx="480" cy="133.6094" rx="3" ry="3" style="stroke:#038048;stroke-width:1.0;fill:none;"/><text fill="#000000" font-family="sans-serif" font-size="11" lengthAdjust="spacing" textLength="93" x="489" y="136.8198">uniqueId : string</text><ellipse cx="480" cy="146.4141" rx="3" ry="3" style="stroke:#038048;stroke-width:1.0;fill:none;"/><text fill="#000000" font-family="sans-serif" font-size="11" lengthAdjust="spacing" textLength="92" x="489" y="149.6245">widgetId : string</text><line style="stroke:#272B30;stroke-width:1.5;" x1="470" x2="893" y1="156.2188" y2="156.2188"/><ellipse cx="480" cy="167.2188" fill="#84BE84" rx="3" ry="3" style="stroke:#038048;stroke-width:1.0;"/><text fill="#000000" font-family="sans-serif" font-size="11" lengthAdjust="spacing" textLength="70" x="489" y="170.4292">build() : void</text><ellipse cx="480" cy="180.0234" fill="#84BE84" rx="3" ry="3" style="stroke:#038048;stroke-width:1.0;"/><text fill="#000000" font-family="sans-serif" font-size="11" lengthAdjust="spacing" textLength="399" x="489" y="183.2339">changeProperty(propertyName: string, propertyValue: unknown) : void</text><ellipse cx="480" cy="192.8281" fill="#84BE84" rx="3" ry="3" style="stroke:#038048;stroke-width:1.0;"/><text fill="#000000" font-family="sans-serif" font-size="11" lengthAdjust="spacing" textLength="88" x="489" y="196.0386">dispose() : void</text><ellipse cx="480" cy="205.6328" fill="#84BE84" rx="3" ry="3" style="stroke:#038048;stroke-width:1.0;"/><text fill="#000000" font-family="sans-serif" font-size="11" lengthAdjust="spacing" textLength="179" x="489" y="208.8433">equalsToID(id: string) : boolean</text><!--MD5=[9bb69abe230ebebb4990b27860401250]
reverse link AbstractPattern<ButtonLoadingConfig> to ButtonLoading--><path codeLine="43" d="M331.37,289.57 C342.04,303.99 352.77,318.5 363.19,332.58 " fill="none" id="AbstractPattern&lt;ButtonLoadingConfig&gt;-backto-ButtonLoading" style="stroke:#272B30;stroke-width:1.0;"/><polygon fill="none" points="325.64,293.59,319.37,273.34,336.89,285.26,325.64,293.59" style="stroke:#272B30;stroke-width:1.0;"/><!--MD5=[08db1609ed927deb6548249099aeacfe]
reverse link IButtonLoading to ButtonLoading--><path codeLine="54" d="M614.75,231.25 C591.28,262.99 564.53,299.16 539.57,332.91 " fill="none" id="IButtonLoading-backto-ButtonLoading" style="stroke:#272B30;stroke-width:1.0;stroke-dasharray:7.0,7.0;"/><polygon fill="none" points="609.18,227.02,626.7,215.1,620.44,235.34,609.18,227.02" style="stroke:#272B30;stroke-width:1.0;"/><!--MD5=[3045d73f5808a769392568e9b4ffe0db]
@startuml
skinparam ClassArrowColor #272b30
skinparam ClassBorderColor #272b30
skinparam ClassBackgroundColor #fff
skinparam BackgroundColor #ced4da
hide empty methods
hide empty fields
class "ButtonLoading" {
    -_buttonElement : HTMLElement
    -_spinnerElement : HTMLElement
    +build() : void
    +changeProperty(propertyName: string, propertyValue: unknown) : void
    +dispose() : void
    +equalsToID(patternId: string) : boolean
    #finishBuild() : void
    #setA11YProperties() : void
    #setCallbacks() : void
    #setHtmlElements() : void
    #unsetCallbacks() : void
    #unsetHtmlElements() : void
    -_setInitialButtonState() : void
    -_setIsLoading(isLoading: boolean) : void
    -_setLoadingLabel(showSpinnerOnly: boolean) : void
}
abstract class "AbstractPattern<ButtonLoadingConfig>" {
    -_configs : ButtonLoadingConfig
    -_isBuilt : boolean
    -_selfElem : HTMLElement
    -_uniqueId : string
    -_widgetId : string
    +build() : void
    +changeProperty(propertyName: string, propertyValue: unknown) : void
    +dispose() : void
    +equalsToID(patternId: string) : boolean
    #finishBuild() : void
    {abstract} #setA11YProperties() : void
    {abstract} #setCallbacks() : void
    {abstract} #setHtmlElements() : void
    {abstract} #unsetCallbacks() : void
    {abstract} #unsetHtmlElements() : void
    -_setCommonHtmlElements() : void
    -_unsetCommonHtmlElements() : void
}
"AbstractPattern<ButtonLoadingConfig>" <|- - "ButtonLoading"
interface "IButtonLoading" {
    +isBuilt : boolean
    +selfElement : HTMLElement
    +uniqueId : string
    +widgetId : string
    +build() : void
    +changeProperty(propertyName: string, propertyValue: unknown) : void
    +dispose() : void
    +equalsToID(id: string) : boolean
}
"IButtonLoading" <|.. "ButtonLoading"
@enduml

PlantUML version 1.2021.14(Fri Nov 12 16:46:50 UTC 2021)
(GPL source distribution)
Java Runtime: OpenJDK Runtime Environment
JVM: OpenJDK 64-Bit Server VM
Default Encoding: UTF-8
Language: en
Country: null
--></g></svg>