<?xml version="1.0" encoding="UTF-8" standalone="no"?><svg xmlns="http://www.w3.org/2000/svg" xmlns:xlink="http://www.w3.org/1999/xlink" contentScriptType="application/ecmascript" contentStyleType="text/css" height="902px" preserveAspectRatio="none" style="width:426px;height:902px;background:#CED4DA;" version="1.1" viewBox="0 0 426 902" width="426px" zoomAndPan="magnify"><defs><filter height="300%" id="f1vtfu0ow0g3p3" width="300%" x="-1" y="-1"><feGaussianBlur result="blurOut" stdDeviation="2.0"/><feColorMatrix in="blurOut" result="blurOut2" type="matrix" values="0 0 0 0 0 0 0 0 0 0 0 0 0 0 0 0 0 0 .4 0"/><feOffset dx="4.0" dy="4.0" in="blurOut2" result="blurOut3"/><feBlend in="SourceGraphic" in2="blurOut3" mode="normal"/></filter></defs><g><!--MD5=[a7f9118cae7621dd25d25149752faef0]
class Circle--><rect codeLine="7" fill="#FFFFFF" filter="url(#f1vtfu0ow0g3p3)" height="488.4727" id="Circle" style="stroke:#272B30;stroke-width:1.5;" width="403" x="9" y="400"/><ellipse cx="190.25" cy="416" fill="#ADD1B2" rx="11" ry="11" style="stroke:#272B30;stroke-width:1.0;"/><path d="M192.7231,422.1431 Q192.1421,422.4419 191.5029,422.5913 Q190.8638,422.7407 190.1582,422.7407 Q187.6514,422.7407 186.3315,421.0889 Q185.0117,419.437 185.0117,416.3159 Q185.0117,413.1865 186.3315,411.5347 Q187.6514,409.8828 190.1582,409.8828 Q190.8638,409.8828 191.5112,410.0322 Q192.1587,410.1816 192.7231,410.4805 L192.7231,413.2031 Q192.0923,412.6221 191.4988,412.3523 Q190.9053,412.0825 190.2744,412.0825 Q188.9297,412.0825 188.2449,413.1492 Q187.5601,414.2158 187.5601,416.3159 Q187.5601,418.4077 188.2449,419.4744 Q188.9297,420.541 190.2744,420.541 Q190.9053,420.541 191.4988,420.2712 Q192.0923,420.0015 192.7231,419.4204 Z " fill="#000000"/><text fill="#000000" font-family="sans-serif" font-size="12" lengthAdjust="spacing" textLength="32" x="210.75" y="420.5352">Circle</text><line style="stroke:#272B30;stroke-width:1.5;" x1="10" x2="411" y1="432" y2="432"/><polygon fill="none" points="20,438,24,442,20,446,16,442" style="stroke:#B38D22;stroke-width:1.0;"/><text fill="#000000" font-family="sans-serif" font-size="11" lengthAdjust="spacing" textLength="161" x="29" y="446.6348">_progressElem : HTMLElement</text><polygon fill="none" points="20,450.9551,24,454.9551,20,458.9551,16,454.9551" style="stroke:#B38D22;stroke-width:1.0;"/><text fill="#000000" font-family="sans-serif" font-size="11" lengthAdjust="spacing" textLength="170" x="29" y="459.5898">_progressType : ProgressTypes</text><rect fill="none" height="6" style="stroke:#C82930;stroke-width:1.0;" width="6" x="17" y="465.9102"/><text fill="#000000" font-family="sans-serif" font-size="11" lengthAdjust="spacing" textLength="165" x="29" y="472.5449">_circleCircumference : number</text><rect fill="none" height="6" style="stroke:#C82930;stroke-width:1.0;" width="6" x="17" y="478.8652"/><text fill="#000000" font-family="sans-serif" font-size="11" lengthAdjust="spacing" textLength="111" x="29" y="485.5">_circletSize : number</text><rect fill="none" height="6" style="stroke:#C82930;stroke-width:1.0;" width="6" x="17" y="491.8203"/><text fill="#000000" font-family="sans-serif" font-size="11" lengthAdjust="spacing" textLength="181" x="29" y="498.4551">_resizeObserver : ResizeObserver</text><rect fill="none" height="6" style="stroke:#C82930;stroke-width:1.0;" width="6" x="17" y="504.7754"/><text fill="#000000" font-family="sans-serif" font-size="11" lengthAdjust="spacing" textLength="146" x="29" y="511.4102">_strokeDasharray : number</text><rect fill="none" height="6" style="stroke:#C82930;stroke-width:1.0;" width="6" x="17" y="517.7305"/><text fill="#000000" font-family="sans-serif" font-size="11" lengthAdjust="spacing" textLength="149" x="29" y="524.3652">_strokeDashoffset : number</text><line style="stroke:#272B30;stroke-width:1.5;" x1="10" x2="411" y1="530.6855" y2="530.6855"/><ellipse cx="20" cy="541.6855" fill="#84BE84" rx="3" ry="3" style="stroke:#038048;stroke-width:1.0;"/><text fill="#000000" font-family="sans-serif" font-size="11" lengthAdjust="spacing" textLength="67" x="29" y="545.3203">build() : void</text><ellipse cx="20" cy="554.6406" fill="#84BE84" rx="3" ry="3" style="stroke:#038048;stroke-width:1.0;"/><text fill="#000000" font-family="sans-serif" font-size="11" lengthAdjust="spacing" textLength="377" x="29" y="558.2754">changeProperty(propertyName: string, propertyValue: unknown) : void</text><ellipse cx="20" cy="567.5957" fill="#84BE84" rx="3" ry="3" style="stroke:#038048;stroke-width:1.0;"/><text fill="#000000" font-family="sans-serif" font-size="11" lengthAdjust="spacing" textLength="82" x="29" y="571.2305">dispose() : void</text><ellipse cx="20" cy="580.5508" fill="#84BE84" rx="3" ry="3" style="stroke:#038048;stroke-width:1.0;"/><text fill="#000000" font-family="sans-serif" font-size="11" lengthAdjust="spacing" textLength="207" x="29" y="584.1855">equalsToID(patternId: string) : boolean</text><polygon fill="#FFFF44" points="20,588.5059,24,592.5059,20,596.5059,16,592.5059" style="stroke:#B38D22;stroke-width:1.0;"/><text fill="#000000" font-family="sans-serif" font-size="11" lengthAdjust="spacing" textLength="144" x="29" y="597.1406">addInitialAnimation() : void</text><polygon fill="#FFFF44" points="20,601.4609,24,605.4609,20,609.4609,16,605.4609" style="stroke:#B38D22;stroke-width:1.0;"/><text fill="#000000" font-family="sans-serif" font-size="11" lengthAdjust="spacing" textLength="111" x="29" y="610.0957">animateInitial() : void</text><polygon fill="#FFFF44" points="20,614.416,24,618.416,20,622.416,16,618.416" style="stroke:#B38D22;stroke-width:1.0;"/><text fill="#000000" font-family="sans-serif" font-size="11" lengthAdjust="spacing" textLength="168" x="29" y="623.0508">animateOnValueChange() : void</text><polygon fill="#FFFF44" points="20,627.3711,24,631.3711,20,635.3711,16,631.3711" style="stroke:#B38D22;stroke-width:1.0;"/><text fill="#000000" font-family="sans-serif" font-size="11" lengthAdjust="spacing" textLength="96" x="29" y="636.0059">finishBuild() : void</text><polygon fill="#FFFF44" points="20,640.3262,24,644.3262,20,648.3262,16,644.3262" style="stroke:#B38D22;stroke-width:1.0;"/><text fill="#000000" font-family="sans-serif" font-size="11" lengthAdjust="spacing" textLength="144" x="29" y="648.9609">resetProgressValue() : void</text><polygon fill="#FFFF44" points="20,653.2813,24,657.2813,20,661.2813,16,657.2813" style="stroke:#B38D22;stroke-width:1.0;"/><text fill="#000000" font-family="sans-serif" font-size="11" lengthAdjust="spacing" textLength="140" x="29" y="661.916">setA11YProperties() : void</text><polygon fill="#FFFF44" points="20,666.2363,24,670.2363,20,674.2363,16,670.2363" style="stroke:#B38D22;stroke-width:1.0;"/><text fill="#000000" font-family="sans-serif" font-size="11" lengthAdjust="spacing" textLength="107" x="29" y="674.8711">setCallbacks() : void</text><polygon fill="#FFFF44" points="20,679.1914,24,683.1914,20,687.1914,16,683.1914" style="stroke:#B38D22;stroke-width:1.0;"/><text fill="#000000" font-family="sans-serif" font-size="11" lengthAdjust="spacing" textLength="251" x="29" y="687.8262">setElementProgressValue(value: number) : void</text><polygon fill="#FFFF44" points="20,692.1465,24,696.1465,20,700.1465,16,696.1465" style="stroke:#B38D22;stroke-width:1.0;"/><text fill="#000000" font-family="sans-serif" font-size="11" lengthAdjust="spacing" textLength="129" x="29" y="700.7813">setHtmlElements() : void</text><polygon fill="#FFFF44" points="20,705.1016,24,709.1016,20,713.1016,16,709.1016" style="stroke:#B38D22;stroke-width:1.0;"/><text fill="#000000" font-family="sans-serif" font-size="11" lengthAdjust="spacing" textLength="209" x="29" y="713.7363">setProgressValue(value: number) : void</text><polygon fill="#FFFF44" points="20,718.0566,24,722.0566,20,726.0566,16,722.0566" style="stroke:#B38D22;stroke-width:1.0;"/><text fill="#000000" font-family="sans-serif" font-size="11" lengthAdjust="spacing" textLength="121" x="29" y="726.6914">unsetCallbacks() : void</text><polygon fill="#FFFF44" points="20,731.0117,24,735.0117,20,739.0117,16,735.0117" style="stroke:#B38D22;stroke-width:1.0;"/><text fill="#000000" font-family="sans-serif" font-size="11" lengthAdjust="spacing" textLength="143" x="29" y="739.6465">unsetHtmlElements() : void</text><polygon fill="#FFFF44" points="20,743.9668,24,747.9668,20,751.9668,16,747.9668" style="stroke:#B38D22;stroke-width:1.0;"/><text fill="#000000" font-family="sans-serif" font-size="11" lengthAdjust="spacing" textLength="161" x="29" y="752.6016">updatedProgressValue() : void</text><polygon fill="#FFFF44" points="20,756.9219,24,760.9219,20,764.9219,16,760.9219" style="stroke:#B38D22;stroke-width:1.0;"/><text fill="#000000" font-family="sans-serif" font-size="11" lengthAdjust="spacing" textLength="221" x="29" y="765.5566">updateProgressColor(value: string) : void</text><polygon fill="#FFFF44" points="20,769.877,24,773.877,20,777.877,16,773.877" style="stroke:#B38D22;stroke-width:1.0;"/><text fill="#000000" font-family="sans-serif" font-size="11" lengthAdjust="spacing" textLength="175" x="29" y="778.5117">updateShape(value: string) : void</text><polygon fill="#FFFF44" points="20,782.832,24,786.832,20,790.832,16,786.832" style="stroke:#B38D22;stroke-width:1.0;"/><text fill="#000000" font-family="sans-serif" font-size="11" lengthAdjust="spacing" textLength="207" x="29" y="791.4668">updateThickness(value: number) : void</text><polygon fill="#FFFF44" points="20,795.7871,24,799.7871,20,803.7871,16,799.7871" style="stroke:#B38D22;stroke-width:1.0;"/><text fill="#000000" font-family="sans-serif" font-size="11" lengthAdjust="spacing" textLength="197" x="29" y="804.4219">updateTrailColor(value: string) : void</text><rect fill="#F24D5C" height="6" style="stroke:#C82930;stroke-width:1.0;" width="6" x="17" y="810.7422"/><text fill="#000000" font-family="sans-serif" font-size="11" lengthAdjust="spacing" textLength="144" x="29" y="817.377">_addResizeOberser() : void</text><rect fill="#F24D5C" height="6" style="stroke:#C82930;stroke-width:1.0;" width="6" x="17" y="823.6973"/><text fill="#000000" font-family="sans-serif" font-size="11" lengthAdjust="spacing" textLength="161" x="29" y="830.332">_checkResizeObserver() : void</text><rect fill="#F24D5C" height="6" style="stroke:#C82930;stroke-width:1.0;" width="6" x="17" y="836.6523"/><text fill="#000000" font-family="sans-serif" font-size="11" lengthAdjust="spacing" textLength="142" x="29" y="843.2871">_progressToOffset() : void</text><rect fill="#F24D5C" height="6" style="stroke:#C82930;stroke-width:1.0;" width="6" x="17" y="849.6074"/><text fill="#000000" font-family="sans-serif" font-size="11" lengthAdjust="spacing" textLength="131" x="29" y="856.2422">_setCssVariables() : void</text><rect fill="#F24D5C" height="6" style="stroke:#C82930;stroke-width:1.0;" width="6" x="17" y="862.5625"/><text fill="#000000" font-family="sans-serif" font-size="11" lengthAdjust="spacing" textLength="145" x="29" y="869.1973">_updateCircleProps() : void</text><rect fill="#F24D5C" height="6" style="stroke:#C82930;stroke-width:1.0;" width="6" x="17" y="875.5176"/><text fill="#000000" font-family="sans-serif" font-size="11" lengthAdjust="spacing" textLength="160" x="29" y="882.1523">_updateProgressValue() : void</text><!--MD5=[f0580871808512792df2c12f05250cfa]
class AbstractProgress<ProgressCircleConfig>--><rect codeLine="43" fill="#FFFFFF" filter="url(#f1vtfu0ow0g3p3)" height="333.0117" id="AbstractProgress&lt;ProgressCircleConfig&gt;" style="stroke:#272B30;stroke-width:1.5;" width="403" x="9" y="7"/><ellipse cx="88.25" cy="23" fill="#A9DCDF" rx="11" ry="11" style="stroke:#272B30;stroke-width:1.0;"/><path d="M88.1133,18.3481 L86.9595,23.4199 L89.2754,23.4199 Z M86.6191,16.1069 L89.6157,16.1069 L92.9609,28.5 L90.5122,28.5 L89.7485,25.437 L86.4697,25.437 L85.7227,28.5 L83.2739,28.5 Z " fill="#000000"/><text fill="#000000" font-family="sans-serif" font-size="12" font-style="italic" lengthAdjust="spacing" textLength="236" x="108.75" y="27.5352">AbstractProgress&lt;ProgressCircleConfig&gt;</text><line style="stroke:#272B30;stroke-width:1.5;" x1="10" x2="411" y1="39" y2="39"/><polygon fill="none" points="20,45,24,49,20,53,16,49" style="stroke:#B38D22;stroke-width:1.0;"/><text fill="#000000" font-family="sans-serif" font-size="11" lengthAdjust="spacing" textLength="161" x="29" y="53.6348">_progressElem : HTMLElement</text><polygon fill="none" points="20,57.9551,24,61.9551,20,65.9551,16,61.9551" style="stroke:#B38D22;stroke-width:1.0;"/><text fill="#000000" font-family="sans-serif" font-size="11" lengthAdjust="spacing" textLength="170" x="29" y="66.5898">_progressType : ProgressTypes</text><rect fill="none" height="6" style="stroke:#C82930;stroke-width:1.0;" width="6" x="17" y="72.9102"/><text fill="#000000" font-family="sans-serif" font-size="11" lengthAdjust="spacing" textLength="196" x="29" y="79.5449">_eventAnimateEntranceEnd : Generic</text><line style="stroke:#272B30;stroke-width:1.5;" x1="10" x2="411" y1="85.8652" y2="85.8652"/><ellipse cx="20" cy="96.8652" fill="#84BE84" rx="3" ry="3" style="stroke:#038048;stroke-width:1.0;"/><text fill="#000000" font-family="sans-serif" font-size="11" lengthAdjust="spacing" textLength="67" x="29" y="100.5">build() : void</text><ellipse cx="20" cy="109.8203" fill="#84BE84" rx="3" ry="3" style="stroke:#038048;stroke-width:1.0;"/><text fill="#000000" font-family="sans-serif" font-size="11" lengthAdjust="spacing" textLength="377" x="29" y="113.4551">changeProperty(propertyName: string, propertyValue: unknown) : void</text><ellipse cx="20" cy="122.7754" fill="#84BE84" rx="3" ry="3" style="stroke:#038048;stroke-width:1.0;"/><text fill="#000000" font-family="sans-serif" font-size="11" lengthAdjust="spacing" textLength="82" x="29" y="126.4102">dispose() : void</text><ellipse cx="20" cy="135.7305" fill="#84BE84" rx="3" ry="3" style="stroke:#038048;stroke-width:1.0;"/><text fill="#000000" font-family="sans-serif" font-size="11" lengthAdjust="spacing" textLength="207" x="29" y="139.3652">equalsToID(patternId: string) : boolean</text><polygon fill="#FFFF44" points="20,143.6855,24,147.6855,20,151.6855,16,147.6855" style="stroke:#B38D22;stroke-width:1.0;"/><text fill="#000000" font-family="sans-serif" font-size="11" font-style="italic" lengthAdjust="spacing" textLength="144" x="29" y="152.3203">addInitialAnimation() : void</text><polygon fill="#FFFF44" points="20,156.6406,24,160.6406,20,164.6406,16,160.6406" style="stroke:#B38D22;stroke-width:1.0;"/><text fill="#000000" font-family="sans-serif" font-size="11" lengthAdjust="spacing" textLength="111" x="29" y="165.2754">animateInitial() : void</text><polygon fill="#FFFF44" points="20,169.5957,24,173.5957,20,177.5957,16,173.5957" style="stroke:#B38D22;stroke-width:1.0;"/><text fill="#000000" font-family="sans-serif" font-size="11" lengthAdjust="spacing" textLength="168" x="29" y="178.2305">animateOnValueChange() : void</text><polygon fill="#FFFF44" points="20,182.5508,24,186.5508,20,190.5508,16,186.5508" style="stroke:#B38D22;stroke-width:1.0;"/><text fill="#000000" font-family="sans-serif" font-size="11" lengthAdjust="spacing" textLength="96" x="29" y="191.1855">finishBuild() : void</text><polygon fill="#FFFF44" points="20,195.5059,24,199.5059,20,203.5059,16,199.5059" style="stroke:#B38D22;stroke-width:1.0;"/><text fill="#000000" font-family="sans-serif" font-size="11" lengthAdjust="spacing" textLength="144" x="29" y="204.1406">resetProgressValue() : void</text><polygon fill="#FFFF44" points="20,208.4609,24,212.4609,20,216.4609,16,212.4609" style="stroke:#B38D22;stroke-width:1.0;"/><text fill="#000000" font-family="sans-serif" font-size="11" font-style="italic" lengthAdjust="spacing" textLength="140" x="29" y="217.0957">setA11YProperties() : void</text><polygon fill="#FFFF44" points="20,221.416,24,225.416,20,229.416,16,225.416" style="stroke:#B38D22;stroke-width:1.0;"/><text fill="#000000" font-family="sans-serif" font-size="11" lengthAdjust="spacing" textLength="107" x="29" y="230.0508">setCallbacks() : void</text><polygon fill="#FFFF44" points="20,234.3711,24,238.3711,20,242.3711,16,238.3711" style="stroke:#B38D22;stroke-width:1.0;"/><text fill="#000000" font-family="sans-serif" font-size="11" font-style="italic" lengthAdjust="spacing" textLength="251" x="29" y="243.0059">setElementProgressValue(value: number) : void</text><polygon fill="#FFFF44" points="20,247.3262,24,251.3262,20,255.3262,16,251.3262" style="stroke:#B38D22;stroke-width:1.0;"/><text fill="#000000" font-family="sans-serif" font-size="11" font-style="italic" lengthAdjust="spacing" textLength="129" x="29" y="255.9609">setHtmlElements() : void</text><polygon fill="#FFFF44" points="20,260.2813,24,264.2813,20,268.2813,16,264.2813" style="stroke:#B38D22;stroke-width:1.0;"/><text fill="#000000" font-family="sans-serif" font-size="11" lengthAdjust="spacing" textLength="209" x="29" y="268.916">setProgressValue(value: number) : void</text><polygon fill="#FFFF44" points="20,273.2363,24,277.2363,20,281.2363,16,277.2363" style="stroke:#B38D22;stroke-width:1.0;"/><text fill="#000000" font-family="sans-serif" font-size="11" lengthAdjust="spacing" textLength="121" x="29" y="281.8711">unsetCallbacks() : void</text><polygon fill="#FFFF44" points="20,286.1914,24,290.1914,20,294.1914,16,290.1914" style="stroke:#B38D22;stroke-width:1.0;"/><text fill="#000000" font-family="sans-serif" font-size="11" lengthAdjust="spacing" textLength="143" x="29" y="294.8262">unsetHtmlElements() : void</text><polygon fill="#FFFF44" points="20,299.1465,24,303.1465,20,307.1465,16,303.1465" style="stroke:#B38D22;stroke-width:1.0;"/><text fill="#000000" font-family="sans-serif" font-size="11" lengthAdjust="spacing" textLength="161" x="29" y="307.7813">updatedProgressValue() : void</text><rect fill="#F24D5C" height="6" style="stroke:#C82930;stroke-width:1.0;" width="6" x="17" y="314.1016"/><text fill="#000000" font-family="sans-serif" font-size="11" lengthAdjust="spacing" textLength="155" x="29" y="320.7363">_animateEntranceEnd() : void</text><rect fill="#F24D5C" height="6" style="stroke:#C82930;stroke-width:1.0;" width="6" x="17" y="327.0566"/><text fill="#000000" font-family="sans-serif" font-size="11" lengthAdjust="spacing" textLength="160" x="29" y="333.6914">_setAccessibilityProps() : void</text><!--MD5=[8791af96c4147ac2ac34d698e04c6391]
reverse link AbstractProgress<ProgressCircleConfig> to Circle--><path codeLine="67" d="M210.5,360.32 C210.5,373.38 210.5,386.64 210.5,399.95 " fill="none" id="AbstractProgress&lt;ProgressCircleConfig&gt;-backto-Circle" style="stroke:#272B30;stroke-width:1.0;"/><polygon fill="none" points="203.5,360.01,210.5,340.01,217.5,360.01,203.5,360.01" style="stroke:#272B30;stroke-width:1.0;"/><!--MD5=[80c73f310184487ee4d6e7c8285b3748]
@startuml
skinparam ClassArrowColor #272b30
skinparam ClassBorderColor #272b30
skinparam ClassBackgroundColor #fff
skinparam BackgroundColor #ced4da
hide empty methods
hide empty fields
class "Circle" {
    #_progressElem : HTMLElement
    #_progressType : ProgressTypes
    -_circleCircumference : number
    -_circletSize : number
    -_resizeObserver : ResizeObserver
    -_strokeDasharray : number
    -_strokeDashoffset : number
    +build() : void
    +changeProperty(propertyName: string, propertyValue: unknown) : void
    +dispose() : void
    +equalsToID(patternId: string) : boolean
    #addInitialAnimation() : void
    #animateInitial() : void
    #animateOnValueChange() : void
    #finishBuild() : void
    #resetProgressValue() : void
    #setA11YProperties() : void
    #setCallbacks() : void
    #setElementProgressValue(value: number) : void
    #setHtmlElements() : void
    #setProgressValue(value: number) : void
    #unsetCallbacks() : void
    #unsetHtmlElements() : void
    #updatedProgressValue() : void
    #updateProgressColor(value: string) : void
    #updateShape(value: string) : void
    #updateThickness(value: number) : void
    #updateTrailColor(value: string) : void
    -_addResizeOberser() : void
    -_checkResizeObserver() : void
    -_progressToOffset() : void
    -_setCssVariables() : void
    -_updateCircleProps() : void
    -_updateProgressValue() : void
}
abstract class "AbstractProgress<ProgressCircleConfig>" {
    #_progressElem : HTMLElement
    #_progressType : ProgressTypes
    -_eventAnimateEntranceEnd : Generic
    +build() : void
    +changeProperty(propertyName: string, propertyValue: unknown) : void
    +dispose() : void
    +equalsToID(patternId: string) : boolean
    {abstract} #addInitialAnimation() : void
    #animateInitial() : void
    #animateOnValueChange() : void
    #finishBuild() : void
    #resetProgressValue() : void
    {abstract} #setA11YProperties() : void
    #setCallbacks() : void
    {abstract} #setElementProgressValue(value: number) : void
    {abstract} #setHtmlElements() : void
    #setProgressValue(value: number) : void
    #unsetCallbacks() : void
    #unsetHtmlElements() : void
    #updatedProgressValue() : void
    -_animateEntranceEnd() : void
    -_setAccessibilityProps() : void
}
"AbstractProgress<ProgressCircleConfig>" <|- - "Circle"
@enduml

PlantUML version 1.2021.14(Fri Nov 12 16:46:50 WET 2021)
(GPL source distribution)
Java Runtime: Java(TM) SE Runtime Environment
JVM: Java HotSpot(TM) 64-Bit Server VM
Default Encoding: UTF-8
Language: en
Country: PT
--></g></svg>