<?xml version="1.0" encoding="us-ascii" standalone="no"?><svg xmlns="http://www.w3.org/2000/svg" xmlns:xlink="http://www.w3.org/1999/xlink" contentStyleType="text/css" height="1489px" preserveAspectRatio="none" style="width:1011px;height:1489px;background:#CED4DA;" version="1.1" viewBox="0 0 1011 1489" width="1011px" zoomAndPan="magnify"><defs/><g><rect fill="#CED4DA" height="1489" style="stroke:none;stroke-width:1.0;" width="1011" x="0" y="0"/><!--class Circle--><g id="elem_Circle"><rect codeLine="7" fill="#FFFFFF" height="872.4141" id="Circle" rx="2.5" ry="2.5" style="stroke:#272B30;stroke-width:0.5;" width="995" x="9" y="610"/><ellipse cx="482.75" cy="626" fill="#ADD1B2" rx="11" ry="11" style="stroke:#181818;stroke-width:1.0;"/><path d="M485.2231,632.1431 Q484.6421,632.4419 484.0029,632.5913 Q483.3638,632.7407 482.6582,632.7407 Q480.1514,632.7407 478.8315,631.0889 Q477.5117,629.437 477.5117,626.3159 Q477.5117,623.1865 478.8315,621.5347 Q480.1514,619.8828 482.6582,619.8828 Q483.3638,619.8828 484.0112,620.0322 Q484.6587,620.1816 485.2231,620.4805 L485.2231,623.2031 Q484.5923,622.6221 483.9988,622.3523 Q483.4053,622.0825 482.7744,622.0825 Q481.4297,622.0825 480.7449,623.1492 Q480.0601,624.2158 480.0601,626.3159 Q480.0601,628.4077 480.7449,629.4744 Q481.4297,630.541 482.7744,630.541 Q483.4053,630.541 483.9988,630.2712 Q484.5923,630.0015 485.2231,629.4204 Z " fill="#000000"/><text fill="#000000" font-family="sans-serif" font-size="14" lengthAdjust="spacing" textLength="39" x="503.25" y="631.291">Circle</text><line style="stroke:#272B30;stroke-width:0.5;" x1="10" x2="1003" y1="642" y2="642"/><ellipse cx="20" cy="655.7441" fill="none" rx="3" ry="3" style="stroke:#038048;stroke-width:1.0;"/><text fill="#000000" font-family="sans-serif" font-size="14" lengthAdjust="spacing" textLength="204" x="29" y="659.5352">linearGradientCoords : Object</text><ellipse cx="20" cy="672.2324" fill="none" rx="3" ry="3" style="stroke:#038048;stroke-width:1.0;"/><text fill="#000000" font-family="sans-serif" font-size="14" lengthAdjust="spacing" textLength="204" x="29" y="676.0234">radialGradientCoords : Object</text><polygon fill="none" points="20,683.7207,24,687.7207,20,691.7207,16,687.7207" style="stroke:#B38D22;stroke-width:1.0;"/><text fill="#000000" font-family="sans-serif" font-size="14" lengthAdjust="spacing" textLength="190" x="29" y="692.5117">contentElem : HTMLElement</text><polygon fill="none" points="20,700.209,24,704.209,20,708.209,16,704.209" style="stroke:#B38D22;stroke-width:1.0;"/><text fill="#000000" font-family="sans-serif" font-size="14" lengthAdjust="spacing" textLength="171" x="29" y="709">gradientLength : number</text><polygon fill="none" points="20,716.6973,24,720.6973,20,724.6973,16,720.6973" style="stroke:#B38D22;stroke-width:1.0;"/><text fill="#000000" font-family="sans-serif" font-size="14" lengthAdjust="spacing" textLength="176" x="29" y="725.4883">isProviderBased : boolean</text><polygon fill="none" points="20,733.1855,24,737.1855,20,741.1855,16,737.1855" style="stroke:#B38D22;stroke-width:1.0;"/><text fill="#000000" font-family="sans-serif" font-size="14" lengthAdjust="spacing" textLength="199" x="29" y="741.9766">progressElem : HTMLElement</text><polygon fill="none" points="20,749.6738,24,753.6738,20,757.6738,16,753.6738" style="stroke:#B38D22;stroke-width:1.0;"/><text fill="#000000" font-family="sans-serif" font-size="14" lengthAdjust="spacing" textLength="206" x="29" y="758.4648">progressType : ProgressTypes</text><rect fill="none" height="6" style="stroke:#C82930;stroke-width:1.0;" width="6" x="17" y="768.1621"/><text fill="#000000" font-family="sans-serif" font-size="14" lengthAdjust="spacing" textLength="193" x="29" y="774.9531">_blockParent : HTMLElement</text><rect fill="none" height="6" style="stroke:#C82930;stroke-width:1.0;" width="6" x="17" y="784.6504"/><text fill="#000000" font-family="sans-serif" font-size="14" lengthAdjust="spacing" textLength="209" x="29" y="791.4414">_circleCircumference : number</text><rect fill="none" height="6" style="stroke:#C82930;stroke-width:1.0;" width="6" x="17" y="801.1387"/><text fill="#000000" font-family="sans-serif" font-size="14" lengthAdjust="spacing" textLength="137" x="29" y="807.9297">_circleSize : number</text><rect fill="none" height="6" style="stroke:#C82930;stroke-width:1.0;" width="6" x="17" y="817.627"/><text fill="#000000" font-family="sans-serif" font-size="14" lengthAdjust="spacing" textLength="222" x="29" y="824.418">_gradientElem : SVGDefsElement</text><rect fill="none" height="6" style="stroke:#C82930;stroke-width:1.0;" width="6" x="17" y="834.1152"/><text fill="#000000" font-family="sans-serif" font-size="14" lengthAdjust="spacing" textLength="222" x="29" y="840.9063">_needsResizeObserver : boolean</text><rect fill="none" height="6" style="stroke:#C82930;stroke-width:1.0;" width="6" x="17" y="850.6035"/><text fill="#000000" font-family="sans-serif" font-size="14" lengthAdjust="spacing" textLength="228" x="29" y="857.3945">_resizeObserver : ResizeObserver</text><rect fill="none" height="6" style="stroke:#C82930;stroke-width:1.0;" width="6" x="17" y="867.0918"/><text fill="#000000" font-family="sans-serif" font-size="14" lengthAdjust="spacing" textLength="185" x="29" y="873.8828">_strokeDasharray : number</text><rect fill="none" height="6" style="stroke:#C82930;stroke-width:1.0;" width="6" x="17" y="883.5801"/><text fill="#000000" font-family="sans-serif" font-size="14" lengthAdjust="spacing" textLength="189" x="29" y="890.3711">_strokeDashoffset : number</text><line style="stroke:#272B30;stroke-width:0.5;" x1="10" x2="1003" y1="897.3242" y2="897.3242"/><ellipse cx="20" cy="911.0684" fill="#84BE84" rx="3" ry="3" style="stroke:#038048;stroke-width:1.0;"/><text fill="#000000" font-family="sans-serif" font-size="14" lengthAdjust="spacing" textLength="86" x="29" y="914.8594">build() : void</text><ellipse cx="20" cy="927.5566" fill="#84BE84" rx="3" ry="3" style="stroke:#038048;stroke-width:1.0;"/><text fill="#000000" font-family="sans-serif" font-size="14" lengthAdjust="spacing" textLength="482" x="29" y="931.3477">changeProperty(propertyName: string, propertyValue: unknown) : void</text><ellipse cx="20" cy="944.0449" fill="#84BE84" rx="3" ry="3" style="stroke:#038048;stroke-width:1.0;"/><text fill="#000000" font-family="sans-serif" font-size="14" lengthAdjust="spacing" textLength="969" x="29" y="947.8359">createSVGGradient(gradientId: string, gradientName: string, gradientCoords: unknown, gradientLenght: number, colors: GradientColor) : void</text><ellipse cx="20" cy="960.5332" fill="#84BE84" rx="3" ry="3" style="stroke:#038048;stroke-width:1.0;"/><text fill="#000000" font-family="sans-serif" font-size="14" lengthAdjust="spacing" textLength="104" x="29" y="964.3242">dispose() : void</text><ellipse cx="20" cy="977.0215" fill="#84BE84" rx="3" ry="3" style="stroke:#038048;stroke-width:1.0;"/><text fill="#000000" font-family="sans-serif" font-size="14" lengthAdjust="spacing" textLength="266" x="29" y="980.8125">equalsToID(patternId: string) : boolean</text><ellipse cx="20" cy="993.5098" fill="#84BE84" rx="3" ry="3" style="stroke:#038048;stroke-width:1.0;"/><text fill="#000000" font-family="sans-serif" font-size="14" lengthAdjust="spacing" textLength="504" x="29" y="997.3008">progressApplyGradient(gradientType: string, colors: GradientColor) : void</text><ellipse cx="20" cy="1009.998" fill="#84BE84" rx="3" ry="3" style="stroke:#038048;stroke-width:1.0;"/><text fill="#000000" font-family="sans-serif" font-size="14" lengthAdjust="spacing" textLength="428" x="29" y="1013.7891">registerCallback(eventName: string, callback: OSGeneric) : void</text><polygon fill="#FFFF44" points="20,1021.4863,24,1025.4863,20,1029.4863,16,1025.4863" style="stroke:#B38D22;stroke-width:1.0;"/><text fill="#000000" font-family="sans-serif" font-size="14" lengthAdjust="spacing" textLength="186" x="29" y="1030.2773">addInitialAnimation() : void</text><polygon fill="#FFFF44" points="20,1037.9746,24,1041.9746,20,1045.9746,16,1041.9746" style="stroke:#B38D22;stroke-width:1.0;"/><text fill="#000000" font-family="sans-serif" font-size="14" lengthAdjust="spacing" textLength="144" x="29" y="1046.7656">animateInitial() : void</text><polygon fill="#FFFF44" points="20,1054.4629,24,1058.4629,20,1062.4629,16,1058.4629" style="stroke:#B38D22;stroke-width:1.0;"/><text fill="#000000" font-family="sans-serif" font-size="14" lengthAdjust="spacing" textLength="217" x="29" y="1063.2539">animateOnValueChange() : void</text><polygon fill="#FFFF44" points="20,1070.9512,24,1074.9512,20,1078.9512,16,1074.9512" style="stroke:#B38D22;stroke-width:1.0;"/><text fill="#000000" font-family="sans-serif" font-size="14" lengthAdjust="spacing" textLength="123" x="29" y="1079.7422">finishBuild() : void</text><polygon fill="#FFFF44" points="20,1087.4395,24,1091.4395,20,1095.4395,16,1091.4395" style="stroke:#B38D22;stroke-width:1.0;"/><text fill="#000000" font-family="sans-serif" font-size="14" lengthAdjust="spacing" textLength="183" x="29" y="1096.2305">resetProgressValue() : void</text><polygon fill="#FFFF44" points="20,1103.9277,24,1107.9277,20,1111.9277,16,1107.9277" style="stroke:#B38D22;stroke-width:1.0;"/><text fill="#000000" font-family="sans-serif" font-size="14" lengthAdjust="spacing" textLength="178" x="29" y="1112.7188">setA11YProperties() : void</text><polygon fill="#FFFF44" points="20,1120.416,24,1124.416,20,1128.416,16,1124.416" style="stroke:#B38D22;stroke-width:1.0;"/><text fill="#000000" font-family="sans-serif" font-size="14" lengthAdjust="spacing" textLength="136" x="29" y="1129.207">setCallbacks() : void</text><polygon fill="#FFFF44" points="20,1136.9043,24,1140.9043,20,1144.9043,16,1140.9043" style="stroke:#B38D22;stroke-width:1.0;"/><text fill="#000000" font-family="sans-serif" font-size="14" lengthAdjust="spacing" textLength="322" x="29" y="1145.6953">setElementProgressValue(value: number) : void</text><polygon fill="#FFFF44" points="20,1153.3926,24,1157.3926,20,1161.3926,16,1157.3926" style="stroke:#B38D22;stroke-width:1.0;"/><text fill="#000000" font-family="sans-serif" font-size="14" lengthAdjust="spacing" textLength="165" x="29" y="1162.1836">setHtmlElements() : void</text><polygon fill="#FFFF44" points="20,1169.8809,24,1173.8809,20,1177.8809,16,1173.8809" style="stroke:#B38D22;stroke-width:1.0;"/><text fill="#000000" font-family="sans-serif" font-size="14" lengthAdjust="spacing" textLength="267" x="29" y="1178.6719">setProgressValue(value: number) : void</text><polygon fill="#FFFF44" points="20,1186.3691,24,1190.3691,20,1194.3691,16,1190.3691" style="stroke:#B38D22;stroke-width:1.0;"/><text fill="#000000" font-family="sans-serif" font-size="14" lengthAdjust="spacing" textLength="570" x="29" y="1195.1602">triggerPlatformEventCallback(platFormCallback: OSGeneric, args: unknown[]) : void</text><polygon fill="#FFFF44" points="20,1202.8574,24,1206.8574,20,1210.8574,16,1206.8574" style="stroke:#B38D22;stroke-width:1.0;"/><text fill="#000000" font-family="sans-serif" font-size="14" lengthAdjust="spacing" textLength="318" x="29" y="1211.6484">triggerPlatformInitializedEventCallback() : void</text><polygon fill="#FFFF44" points="20,1219.3457,24,1223.3457,20,1227.3457,16,1223.3457" style="stroke:#B38D22;stroke-width:1.0;"/><text fill="#000000" font-family="sans-serif" font-size="14" lengthAdjust="spacing" textLength="154" x="29" y="1228.1367">unsetCallbacks() : void</text><polygon fill="#FFFF44" points="20,1235.834,24,1239.834,20,1243.834,16,1239.834" style="stroke:#B38D22;stroke-width:1.0;"/><text fill="#000000" font-family="sans-serif" font-size="14" lengthAdjust="spacing" textLength="198" x="29" y="1244.625">unsetGlobalCallbacks() : void</text><polygon fill="#FFFF44" points="20,1252.3223,24,1256.3223,20,1260.3223,16,1256.3223" style="stroke:#B38D22;stroke-width:1.0;"/><text fill="#000000" font-family="sans-serif" font-size="14" lengthAdjust="spacing" textLength="183" x="29" y="1261.1133">unsetHtmlElements() : void</text><polygon fill="#FFFF44" points="20,1268.8105,24,1272.8105,20,1276.8105,16,1272.8105" style="stroke:#B38D22;stroke-width:1.0;"/><text fill="#000000" font-family="sans-serif" font-size="14" lengthAdjust="spacing" textLength="206" x="29" y="1277.6016">updatedProgressValue() : void</text><polygon fill="#FFFF44" points="20,1285.2988,24,1289.2988,20,1293.2988,16,1289.2988" style="stroke:#B38D22;stroke-width:1.0;"/><text fill="#000000" font-family="sans-serif" font-size="14" lengthAdjust="spacing" textLength="197" x="29" y="1294.0898">updateProgressColor() : void</text><polygon fill="#FFFF44" points="20,1301.7871,24,1305.7871,20,1309.7871,16,1305.7871" style="stroke:#B38D22;stroke-width:1.0;"/><text fill="#000000" font-family="sans-serif" font-size="14" lengthAdjust="spacing" textLength="141" x="29" y="1310.5781">updateShape() : void</text><polygon fill="#FFFF44" points="20,1318.2754,24,1322.2754,20,1326.2754,16,1322.2754" style="stroke:#B38D22;stroke-width:1.0;"/><text fill="#000000" font-family="sans-serif" font-size="14" lengthAdjust="spacing" textLength="167" x="29" y="1327.0664">updateThickness() : void</text><polygon fill="#FFFF44" points="20,1334.7637,24,1338.7637,20,1342.7637,16,1338.7637" style="stroke:#B38D22;stroke-width:1.0;"/><text fill="#000000" font-family="sans-serif" font-size="14" lengthAdjust="spacing" textLength="168" x="29" y="1343.5547">updateTrailColor() : void</text><rect fill="#F24D5C" height="6" style="stroke:#C82930;stroke-width:1.0;" width="6" x="17" y="1353.252"/><text fill="#000000" font-family="sans-serif" font-size="14" lengthAdjust="spacing" textLength="183" x="29" y="1360.043">_addResizeOberser() : void</text><rect fill="#F24D5C" height="6" style="stroke:#C82930;stroke-width:1.0;" width="6" x="17" y="1369.7402"/><text fill="#000000" font-family="sans-serif" font-size="14" lengthAdjust="spacing" textLength="203" x="29" y="1376.5313">_checkResizeObserver() : void</text><rect fill="#F24D5C" height="6" style="stroke:#C82930;stroke-width:1.0;" width="6" x="17" y="1386.2285"/><text fill="#000000" font-family="sans-serif" font-size="14" lengthAdjust="spacing" textLength="178" x="29" y="1393.0195">_progressToOffset() : void</text><rect fill="#F24D5C" height="6" style="stroke:#C82930;stroke-width:1.0;" width="6" x="17" y="1402.7168"/><text fill="#000000" font-family="sans-serif" font-size="14" lengthAdjust="spacing" textLength="208" x="29" y="1409.5078">_removeResizeOberver() : void</text><rect fill="#F24D5C" height="6" style="stroke:#C82930;stroke-width:1.0;" width="6" x="17" y="1419.2051"/><text fill="#000000" font-family="sans-serif" font-size="14" lengthAdjust="spacing" textLength="165" x="29" y="1425.9961">_setCssVariables() : void</text><rect fill="#F24D5C" height="6" style="stroke:#C82930;stroke-width:1.0;" width="6" x="17" y="1435.6934"/><text fill="#000000" font-family="sans-serif" font-size="14" lengthAdjust="spacing" textLength="337" x="29" y="1442.4844">_setGradientCoords(gradientType: string) : string</text><rect fill="#F24D5C" height="6" style="stroke:#C82930;stroke-width:1.0;" width="6" x="17" y="1452.1816"/><text fill="#000000" font-family="sans-serif" font-size="14" lengthAdjust="spacing" textLength="184" x="29" y="1458.9727">_updateCircleProps() : void</text><rect fill="#F24D5C" height="6" style="stroke:#C82930;stroke-width:1.0;" width="6" x="17" y="1468.6699"/><text fill="#000000" font-family="sans-serif" font-size="14" lengthAdjust="spacing" textLength="204" x="29" y="1475.4609">_updateProgressValue() : void</text></g><!--class AbstractProgress<ProgressCircleConfig>--><g id="elem_AbstractProgress&lt;ProgressCircleConfig&gt;"><rect codeLine="59" fill="#FFFFFF" height="542.6484" id="AbstractProgress&lt;ProgressCircleConfig&gt;" rx="2.5" ry="2.5" style="stroke:#272B30;stroke-width:0.5;" width="596" x="208.5" y="7"/><ellipse cx="360.25" cy="23" fill="#A9DCDF" rx="11" ry="11" style="stroke:#181818;stroke-width:1.0;"/><path d="M360.1133,18.3481 L358.9595,23.4199 L361.2754,23.4199 Z M358.6191,16.1069 L361.6157,16.1069 L364.9609,28.5 L362.5122,28.5 L361.7485,25.437 L358.4697,25.437 L357.7227,28.5 L355.2739,28.5 Z " fill="#000000"/><text fill="#000000" font-family="sans-serif" font-size="14" font-style="italic" lengthAdjust="spacing" textLength="284" x="380.75" y="28.291">AbstractProgress&lt;ProgressCircleConfig&gt;</text><line style="stroke:#272B30;stroke-width:0.5;" x1="209.5" x2="803.5" y1="39" y2="39"/><polygon fill="none" points="219.5,47.7441,223.5,51.7441,219.5,55.7441,215.5,51.7441" style="stroke:#B38D22;stroke-width:1.0;"/><text fill="#000000" font-family="sans-serif" font-size="14" lengthAdjust="spacing" textLength="190" x="228.5" y="56.5352">contentElem : HTMLElement</text><polygon fill="none" points="219.5,64.2324,223.5,68.2324,219.5,72.2324,215.5,68.2324" style="stroke:#B38D22;stroke-width:1.0;"/><text fill="#000000" font-family="sans-serif" font-size="14" lengthAdjust="spacing" textLength="171" x="228.5" y="73.0234">gradientLength : number</text><polygon fill="none" points="219.5,80.7207,223.5,84.7207,219.5,88.7207,215.5,84.7207" style="stroke:#B38D22;stroke-width:1.0;"/><text fill="#000000" font-family="sans-serif" font-size="14" lengthAdjust="spacing" textLength="176" x="228.5" y="89.5117">isProviderBased : boolean</text><polygon fill="none" points="219.5,97.209,223.5,101.209,219.5,105.209,215.5,101.209" style="stroke:#B38D22;stroke-width:1.0;"/><text fill="#000000" font-family="sans-serif" font-size="14" lengthAdjust="spacing" textLength="199" x="228.5" y="106">progressElem : HTMLElement</text><polygon fill="none" points="219.5,113.6973,223.5,117.6973,219.5,121.6973,215.5,117.6973" style="stroke:#B38D22;stroke-width:1.0;"/><text fill="#000000" font-family="sans-serif" font-size="14" lengthAdjust="spacing" textLength="206" x="228.5" y="122.4883">progressType : ProgressTypes</text><rect fill="none" height="6" style="stroke:#C82930;stroke-width:1.0;" width="6" x="216.5" y="132.1855"/><text fill="#000000" font-family="sans-serif" font-size="14" lengthAdjust="spacing" textLength="251" x="228.5" y="138.9766">_eventAnimateEntranceEnd : Generic</text><line style="stroke:#272B30;stroke-width:0.5;" x1="209.5" x2="803.5" y1="145.9297" y2="145.9297"/><ellipse cx="219.5" cy="159.6738" fill="#84BE84" rx="3" ry="3" style="stroke:#038048;stroke-width:1.0;"/><text fill="#000000" font-family="sans-serif" font-size="14" lengthAdjust="spacing" textLength="86" x="228.5" y="163.4648">build() : void</text><ellipse cx="219.5" cy="176.1621" fill="#84BE84" rx="3" ry="3" style="stroke:#038048;stroke-width:1.0;"/><text fill="#000000" font-family="sans-serif" font-size="14" lengthAdjust="spacing" textLength="482" x="228.5" y="179.9531">changeProperty(propertyName: string, propertyValue: unknown) : void</text><ellipse cx="219.5" cy="192.6504" fill="#84BE84" rx="3" ry="3" style="stroke:#038048;stroke-width:1.0;"/><text fill="#000000" font-family="sans-serif" font-size="14" lengthAdjust="spacing" textLength="104" x="228.5" y="196.4414">dispose() : void</text><ellipse cx="219.5" cy="209.1387" fill="#84BE84" rx="3" ry="3" style="stroke:#038048;stroke-width:1.0;"/><text fill="#000000" font-family="sans-serif" font-size="14" lengthAdjust="spacing" textLength="266" x="228.5" y="212.9297">equalsToID(patternId: string) : boolean</text><ellipse cx="219.5" cy="225.627" fill="#84BE84" rx="3" ry="3" style="stroke:#038048;stroke-width:1.0;"/><text fill="#000000" font-family="sans-serif" font-size="14" lengthAdjust="spacing" textLength="504" x="228.5" y="229.418">progressApplyGradient(gradientType: string, colors: GradientColor) : void</text><ellipse cx="219.5" cy="242.1152" fill="#84BE84" rx="3" ry="3" style="stroke:#038048;stroke-width:1.0;"/><text fill="#000000" font-family="sans-serif" font-size="14" lengthAdjust="spacing" textLength="428" x="228.5" y="245.9063">registerCallback(eventName: string, callback: OSGeneric) : void</text><polygon fill="#FFFF44" points="219.5,253.6035,223.5,257.6035,219.5,261.6035,215.5,257.6035" style="stroke:#B38D22;stroke-width:1.0;"/><text fill="#000000" font-family="sans-serif" font-size="14" font-style="italic" lengthAdjust="spacing" textLength="186" x="228.5" y="262.3945">addInitialAnimation() : void</text><polygon fill="#FFFF44" points="219.5,270.0918,223.5,274.0918,219.5,278.0918,215.5,274.0918" style="stroke:#B38D22;stroke-width:1.0;"/><text fill="#000000" font-family="sans-serif" font-size="14" lengthAdjust="spacing" textLength="144" x="228.5" y="278.8828">animateInitial() : void</text><polygon fill="#FFFF44" points="219.5,286.5801,223.5,290.5801,219.5,294.5801,215.5,290.5801" style="stroke:#B38D22;stroke-width:1.0;"/><text fill="#000000" font-family="sans-serif" font-size="14" lengthAdjust="spacing" textLength="217" x="228.5" y="295.3711">animateOnValueChange() : void</text><polygon fill="#FFFF44" points="219.5,303.0684,223.5,307.0684,219.5,311.0684,215.5,307.0684" style="stroke:#B38D22;stroke-width:1.0;"/><text fill="#000000" font-family="sans-serif" font-size="14" lengthAdjust="spacing" textLength="123" x="228.5" y="311.8594">finishBuild() : void</text><polygon fill="#FFFF44" points="219.5,319.5566,223.5,323.5566,219.5,327.5566,215.5,323.5566" style="stroke:#B38D22;stroke-width:1.0;"/><text fill="#000000" font-family="sans-serif" font-size="14" lengthAdjust="spacing" textLength="183" x="228.5" y="328.3477">resetProgressValue() : void</text><polygon fill="#FFFF44" points="219.5,336.0449,223.5,340.0449,219.5,344.0449,215.5,340.0449" style="stroke:#B38D22;stroke-width:1.0;"/><text fill="#000000" font-family="sans-serif" font-size="14" font-style="italic" lengthAdjust="spacing" textLength="178" x="228.5" y="344.8359">setA11YProperties() : void</text><polygon fill="#FFFF44" points="219.5,352.5332,223.5,356.5332,219.5,360.5332,215.5,356.5332" style="stroke:#B38D22;stroke-width:1.0;"/><text fill="#000000" font-family="sans-serif" font-size="14" lengthAdjust="spacing" textLength="136" x="228.5" y="361.3242">setCallbacks() : void</text><polygon fill="#FFFF44" points="219.5,369.0215,223.5,373.0215,219.5,377.0215,215.5,373.0215" style="stroke:#B38D22;stroke-width:1.0;"/><text fill="#000000" font-family="sans-serif" font-size="14" font-style="italic" lengthAdjust="spacing" textLength="322" x="228.5" y="377.8125">setElementProgressValue(value: number) : void</text><polygon fill="#FFFF44" points="219.5,385.5098,223.5,389.5098,219.5,393.5098,215.5,389.5098" style="stroke:#B38D22;stroke-width:1.0;"/><text fill="#000000" font-family="sans-serif" font-size="14" font-style="italic" lengthAdjust="spacing" textLength="165" x="228.5" y="394.3008">setHtmlElements() : void</text><polygon fill="#FFFF44" points="219.5,401.998,223.5,405.998,219.5,409.998,215.5,405.998" style="stroke:#B38D22;stroke-width:1.0;"/><text fill="#000000" font-family="sans-serif" font-size="14" lengthAdjust="spacing" textLength="267" x="228.5" y="410.7891">setProgressValue(value: number) : void</text><polygon fill="#FFFF44" points="219.5,418.4863,223.5,422.4863,219.5,426.4863,215.5,422.4863" style="stroke:#B38D22;stroke-width:1.0;"/><text fill="#000000" font-family="sans-serif" font-size="14" lengthAdjust="spacing" textLength="570" x="228.5" y="427.2773">triggerPlatformEventCallback(platFormCallback: OSGeneric, args: unknown[]) : void</text><polygon fill="#FFFF44" points="219.5,434.9746,223.5,438.9746,219.5,442.9746,215.5,438.9746" style="stroke:#B38D22;stroke-width:1.0;"/><text fill="#000000" font-family="sans-serif" font-size="14" lengthAdjust="spacing" textLength="318" x="228.5" y="443.7656">triggerPlatformInitializedEventCallback() : void</text><polygon fill="#FFFF44" points="219.5,451.4629,223.5,455.4629,219.5,459.4629,215.5,455.4629" style="stroke:#B38D22;stroke-width:1.0;"/><text fill="#000000" font-family="sans-serif" font-size="14" lengthAdjust="spacing" textLength="154" x="228.5" y="460.2539">unsetCallbacks() : void</text><polygon fill="#FFFF44" points="219.5,467.9512,223.5,471.9512,219.5,475.9512,215.5,471.9512" style="stroke:#B38D22;stroke-width:1.0;"/><text fill="#000000" font-family="sans-serif" font-size="14" lengthAdjust="spacing" textLength="198" x="228.5" y="476.7422">unsetGlobalCallbacks() : void</text><polygon fill="#FFFF44" points="219.5,484.4395,223.5,488.4395,219.5,492.4395,215.5,488.4395" style="stroke:#B38D22;stroke-width:1.0;"/><text fill="#000000" font-family="sans-serif" font-size="14" lengthAdjust="spacing" textLength="183" x="228.5" y="493.2305">unsetHtmlElements() : void</text><polygon fill="#FFFF44" points="219.5,500.9277,223.5,504.9277,219.5,508.9277,215.5,504.9277" style="stroke:#B38D22;stroke-width:1.0;"/><text fill="#000000" font-family="sans-serif" font-size="14" lengthAdjust="spacing" textLength="206" x="228.5" y="509.7188">updatedProgressValue() : void</text><rect fill="#F24D5C" height="6" style="stroke:#C82930;stroke-width:1.0;" width="6" x="216.5" y="519.416"/><text fill="#000000" font-family="sans-serif" font-size="14" lengthAdjust="spacing" textLength="199" x="228.5" y="526.207">_animateEntranceEnd() : void</text><rect fill="#F24D5C" height="6" style="stroke:#C82930;stroke-width:1.0;" width="6" x="216.5" y="535.9043"/><text fill="#000000" font-family="sans-serif" font-size="14" lengthAdjust="spacing" textLength="200" x="228.5" y="542.6953">_setAccessibilityProps() : void</text></g><!--reverse link AbstractProgress<ProgressCircleConfig> to Circle--><g id="link_AbstractProgress&lt;ProgressCircleConfig&gt;_Circle"><path codeLine="91" d="M506.5,570.52 C506.5,583.54 506.5,596.71 506.5,609.97 " fill="none" id="AbstractProgress&lt;ProgressCircleConfig&gt;-backto-Circle" style="stroke:#272B30;stroke-width:1.0;"/><polygon fill="none" points="499.5,570.19,506.5,550.19,513.5,570.19,499.5,570.19" style="stroke:#272B30;stroke-width:1.0;"/></g><!--SRC=[xLTjInj14FwUNt6OBn4DL5ieY1HYj2hOAbM4KahOsvsxssPlzpgx5qcj_xrpRuctTmssq2AbVhhCyypil0_QkTGPGvO6KyMidI2QkwbH1eFX_klzyEMBWMqpZWmAmCqKnkSncboBcXP5qIDE1-OWNWasIAI00DBCBOCKN6A4VIoA92YIyEA1O6igaIlO2ku70VtjAAc1uIao8K6xgI4VRN0GN8PVWBkAKc1CRQ8CkT6Ei1C5AI5dD-ykYa-IL71Swrw0Zbr239sd8M05Idk5Pa7kuX6p80WDZL70T0LdQ684Qtzcky5lbXaGVlNefoqPurce39zVCIIT7WlZ6IzJKYGcJoCW6eUsZmtbMdxh84rijN_NjwV74Dds0nf0s0zWIVqoj80BG2_CyGnzkCslMTQXcSCnimb3P4lVcJLieiY2Q-CxOIwL66sJT66ag6GyOJe6Ibi6w9QZhFvupr8u2CYUrF5kq4XlcSf9dEkvDdVQCuJ0753yJQUCcjISYxMbHjQs7xUQQ_N06YWw9t5DDBi1B_gVYEkkfDzjVuIqcR7WXGjVSwRiZJa_7cNCEK2zzcxRAyfEqrkJB5FBJbX5Ywr3U8972B6qzEIKAHNIA8zWqSa4hp6Qh-jJq82IjumCcH3dMZgQo8cMANFIw977AELGi_h1IrsMSbeMtwD4KakR77LxPKYv0DTCM6d08n0ysTlxM7UJ1Dl5c-1xe7fesWyigfQh2jzHENEfgjLw33xP4YK_ZW6l57EHmVIagCkgIXb9tv9qsYtDRi0mNlVhfyyRpTOLeQaMxHVQMhdUaAOIF5KcP6eZPKDYyanG1uXDTQme3QDivLx6TSAoVjsRHFAv9kL-59bKFMR7CshlPl41qkhpSPu0dxTNeqzPNGHpMIv17qT8pGBMh_IOA0fGP0Ob2vNVnINSFeUzEw5GghvgjIhswW0N8zAnsqwxLvY70Gl97ECkg4_vfFxTA1ok2bOTDACZ6RzfJlqpFzBbBgnM6fneYekky8akNgfdxI-Si7_pPDmtVVFmlA_7Opz__v1uLdxnfdZQ_y_BdpWljEKxSzwpOYUSaxuCfP9kwUtBXy6Jjz_Xz_5uzM_F3m00]--></g></svg>