<?xml version="1.0" encoding="us-ascii" standalone="no"?><svg xmlns="http://www.w3.org/2000/svg" xmlns:xlink="http://www.w3.org/1999/xlink" contentStyleType="text/css" height="1027px" preserveAspectRatio="none" style="width:1236px;height:1027px;background:#CED4DA;" version="1.1" viewBox="0 0 1236 1027" width="1236px" zoomAndPan="magnify"><defs/><g><rect fill="#CED4DA" height="1027" style="stroke:none;stroke-width:1.0;" width="1236" x="0" y="0"/><!--class DropdownServerSideItem--><g id="elem_DropdownServerSideItem"><rect codeLine="7" fill="#FFFFFF" height="559.1367" id="DropdownServerSideItem" rx="2.5" ry="2.5" style="stroke:#272B30;stroke-width:0.5;" width="677" x="323" y="461"/><ellipse cx="570.25" cy="477" fill="#ADD1B2" rx="11" ry="11" style="stroke:#181818;stroke-width:1.0;"/><path d="M572.7231,483.1431 Q572.1421,483.4419 571.5029,483.5913 Q570.8638,483.7407 570.1582,483.7407 Q567.6514,483.7407 566.3315,482.0889 Q565.0117,480.437 565.0117,477.3159 Q565.0117,474.1865 566.3315,472.5347 Q567.6514,470.8828 570.1582,470.8828 Q570.8638,470.8828 571.5112,471.0322 Q572.1587,471.1816 572.7231,471.4805 L572.7231,474.2031 Q572.0923,473.6221 571.4988,473.3523 Q570.9053,473.0825 570.2744,473.0825 Q568.9297,473.0825 568.2449,474.1492 Q567.5601,475.2158 567.5601,477.3159 Q567.5601,479.4077 568.2449,480.4744 Q568.9297,481.541 570.2744,481.541 Q570.9053,481.541 571.4988,481.2712 Q572.0923,481.0015 572.7231,480.4204 Z " fill="#000000"/><text fill="#000000" font-family="sans-serif" font-size="14" lengthAdjust="spacing" textLength="174" x="590.75" y="482.291">DropdownServerSideItem</text><line style="stroke:#272B30;stroke-width:0.5;" x1="324" x2="999" y1="493" y2="493"/><ellipse cx="334" cy="506.7441" fill="none" rx="3" ry="3" style="stroke:#038048;stroke-width:1.0;"/><text fill="#000000" font-family="sans-serif" font-size="14" lengthAdjust="spacing" textLength="208" x="343" y="510.5352">keyboardTriggeredKey : string</text><polygon fill="none" points="334,518.2324,338,522.2324,334,526.2324,330,522.2324" style="stroke:#B38D22;stroke-width:1.0;"/><text fill="#000000" font-family="sans-serif" font-size="14" lengthAdjust="spacing" textLength="176" x="343" y="527.0234">isProviderBased : boolean</text><rect fill="none" height="6" style="stroke:#C82930;stroke-width:1.0;" width="6" x="331" y="536.7207"/><text fill="#000000" font-family="sans-serif" font-size="14" lengthAdjust="spacing" textLength="161" x="343" y="543.5117">_eventOnClick : Generic</text><rect fill="none" height="6" style="stroke:#C82930;stroke-width:1.0;" width="6" x="331" y="553.209"/><text fill="#000000" font-family="sans-serif" font-size="14" lengthAdjust="spacing" textLength="228" x="343" y="560">_eventOnkeyboardPress : Generic</text><rect fill="none" height="6" style="stroke:#C82930;stroke-width:1.0;" width="6" x="331" y="569.6973"/><text fill="#000000" font-family="sans-serif" font-size="14" lengthAdjust="spacing" textLength="342" x="343" y="576.4883">_platformEventOnClickCallback : OSOnSelectEvent</text><line style="stroke:#272B30;stroke-width:0.5;" x1="324" x2="999" y1="583.4414" y2="583.4414"/><ellipse cx="334" cy="597.1855" fill="#84BE84" rx="3" ry="3" style="stroke:#038048;stroke-width:1.0;"/><text fill="#000000" font-family="sans-serif" font-size="14" lengthAdjust="spacing" textLength="86" x="343" y="600.9766">build() : void</text><ellipse cx="334" cy="613.6738" fill="#84BE84" rx="3" ry="3" style="stroke:#038048;stroke-width:1.0;"/><text fill="#000000" font-family="sans-serif" font-size="14" lengthAdjust="spacing" textLength="482" x="343" y="617.4648">changeProperty(propertyName: string, propertyValue: unknown) : void</text><ellipse cx="334" cy="630.1621" fill="#84BE84" rx="3" ry="3" style="stroke:#038048;stroke-width:1.0;"/><text fill="#000000" font-family="sans-serif" font-size="14" lengthAdjust="spacing" textLength="104" x="343" y="633.9531">dispose() : void</text><ellipse cx="334" cy="646.6504" fill="#84BE84" rx="3" ry="3" style="stroke:#038048;stroke-width:1.0;"/><text fill="#000000" font-family="sans-serif" font-size="14" lengthAdjust="spacing" textLength="266" x="343" y="650.4414">equalsToID(patternId: string) : boolean</text><ellipse cx="334" cy="663.1387" fill="#84BE84" rx="3" ry="3" style="stroke:#038048;stroke-width:1.0;"/><text fill="#000000" font-family="sans-serif" font-size="14" lengthAdjust="spacing" textLength="428" x="343" y="666.9297">registerCallback(eventName: string, callback: OSGeneric) : void</text><ellipse cx="334" cy="679.627" fill="#84BE84" rx="3" ry="3" style="stroke:#038048;stroke-width:1.0;"/><text fill="#000000" font-family="sans-serif" font-size="14" lengthAdjust="spacing" textLength="98" x="343" y="683.418">setBlur() : void</text><ellipse cx="334" cy="696.1152" fill="#84BE84" rx="3" ry="3" style="stroke:#038048;stroke-width:1.0;"/><text fill="#000000" font-family="sans-serif" font-size="14" lengthAdjust="spacing" textLength="111" x="343" y="699.9063">setFocus() : void</text><ellipse cx="334" cy="712.6035" fill="#84BE84" rx="3" ry="3" style="stroke:#038048;stroke-width:1.0;"/><text fill="#000000" font-family="sans-serif" font-size="14" lengthAdjust="spacing" textLength="136" x="343" y="716.3945">setTabindex() : void</text><ellipse cx="334" cy="729.0918" fill="#84BE84" rx="3" ry="3" style="stroke:#038048;stroke-width:1.0;"/><text fill="#000000" font-family="sans-serif" font-size="14" lengthAdjust="spacing" textLength="321" x="343" y="732.8828">toggleSelected(triggerCallback: boolean) : void</text><ellipse cx="334" cy="745.5801" fill="#84BE84" rx="3" ry="3" style="stroke:#038048;stroke-width:1.0;"/><text fill="#000000" font-family="sans-serif" font-size="14" lengthAdjust="spacing" textLength="154" x="343" y="749.3711">unsetTabindex() : void</text><polygon fill="#FFFF44" points="334,757.0684,338,761.0684,334,765.0684,330,761.0684" style="stroke:#B38D22;stroke-width:1.0;"/><text fill="#000000" font-family="sans-serif" font-size="14" lengthAdjust="spacing" textLength="123" x="343" y="765.8594">finishBuild() : void</text><polygon fill="#FFFF44" points="334,773.5566,338,777.5566,334,781.5566,330,777.5566" style="stroke:#B38D22;stroke-width:1.0;"/><text fill="#000000" font-family="sans-serif" font-size="14" lengthAdjust="spacing" textLength="257" x="343" y="782.3477">notifyParent(actionType: string) : void</text><polygon fill="#FFFF44" points="334,790.0449,338,794.0449,334,798.0449,330,794.0449" style="stroke:#B38D22;stroke-width:1.0;"/><text fill="#000000" font-family="sans-serif" font-size="14" lengthAdjust="spacing" textLength="178" x="343" y="798.8359">setA11YProperties() : void</text><polygon fill="#FFFF44" points="334,806.5332,338,810.5332,334,814.5332,330,810.5332" style="stroke:#B38D22;stroke-width:1.0;"/><text fill="#000000" font-family="sans-serif" font-size="14" lengthAdjust="spacing" textLength="136" x="343" y="815.3242">setCallbacks() : void</text><polygon fill="#FFFF44" points="334,823.0215,338,827.0215,334,831.0215,330,827.0215" style="stroke:#B38D22;stroke-width:1.0;"/><text fill="#000000" font-family="sans-serif" font-size="14" lengthAdjust="spacing" textLength="165" x="343" y="831.8125">setHtmlElements() : void</text><polygon fill="#FFFF44" points="334,839.5098,338,843.5098,334,847.5098,330,843.5098" style="stroke:#B38D22;stroke-width:1.0;"/><text fill="#000000" font-family="sans-serif" font-size="14" lengthAdjust="spacing" textLength="651" x="343" y="848.3008">setParentInfo(parentSelector: string, getPatternByIdAPI: Function, canBeOrphan: boolean) : void</text><polygon fill="#FFFF44" points="334,855.998,338,859.998,334,863.998,330,859.998" style="stroke:#B38D22;stroke-width:1.0;"/><text fill="#000000" font-family="sans-serif" font-size="14" lengthAdjust="spacing" textLength="570" x="343" y="864.7891">triggerPlatformEventCallback(platFormCallback: OSGeneric, args: unknown[]) : void</text><polygon fill="#FFFF44" points="334,872.4863,338,876.4863,334,880.4863,330,876.4863" style="stroke:#B38D22;stroke-width:1.0;"/><text fill="#000000" font-family="sans-serif" font-size="14" lengthAdjust="spacing" textLength="318" x="343" y="881.2773">triggerPlatformInitializedEventCallback() : void</text><polygon fill="#FFFF44" points="334,888.9746,338,892.9746,334,896.9746,330,892.9746" style="stroke:#B38D22;stroke-width:1.0;"/><text fill="#000000" font-family="sans-serif" font-size="14" lengthAdjust="spacing" textLength="154" x="343" y="897.7656">unsetCallbacks() : void</text><polygon fill="#FFFF44" points="334,905.4629,338,909.4629,334,913.4629,330,909.4629" style="stroke:#B38D22;stroke-width:1.0;"/><text fill="#000000" font-family="sans-serif" font-size="14" lengthAdjust="spacing" textLength="198" x="343" y="914.2539">unsetGlobalCallbacks() : void</text><polygon fill="#FFFF44" points="334,921.9512,338,925.9512,334,929.9512,330,925.9512" style="stroke:#B38D22;stroke-width:1.0;"/><text fill="#000000" font-family="sans-serif" font-size="14" lengthAdjust="spacing" textLength="183" x="343" y="930.7422">unsetHtmlElements() : void</text><rect fill="#F24D5C" height="6" style="stroke:#C82930;stroke-width:1.0;" width="6" x="331" y="940.4395"/><text fill="#000000" font-family="sans-serif" font-size="14" lengthAdjust="spacing" textLength="341" x="343" y="947.2305">_onKeyboardPressed(event: KeyboardEvent) : void</text><rect fill="#F24D5C" height="6" style="stroke:#C82930;stroke-width:1.0;" width="6" x="331" y="956.9277"/><text fill="#000000" font-family="sans-serif" font-size="14" lengthAdjust="spacing" textLength="375" x="343" y="963.7188">_onSelected(event: MouseEvent | KeyboardEvent) : void</text><rect fill="#F24D5C" height="6" style="stroke:#C82930;stroke-width:1.0;" width="6" x="331" y="973.416"/><text fill="#000000" font-family="sans-serif" font-size="14" lengthAdjust="spacing" textLength="153" x="343" y="980.207">_removeEvents() : void</text><rect fill="#F24D5C" height="6" style="stroke:#C82930;stroke-width:1.0;" width="6" x="331" y="989.9043"/><text fill="#000000" font-family="sans-serif" font-size="14" lengthAdjust="spacing" textLength="141" x="343" y="996.6953">_setUpEvents() : void</text><rect fill="#F24D5C" height="6" style="stroke:#C82930;stroke-width:1.0;" width="6" x="331" y="1006.3926"/><text fill="#000000" font-family="sans-serif" font-size="14" lengthAdjust="spacing" textLength="310" x="343" y="1013.1836">_updateSelectedStatus(status: boolean) : void</text></g><!--class AbstractChild<DropdownServerSideItemConfig, IDropdownServerSide>--><g id="elem_AbstractChild&lt;DropdownServerSideItemConfig, IDropdownServerSide&gt;"><rect codeLine="40" fill="#FFFFFF" height="394.2539" id="AbstractChild&lt;DropdownServerSideItemConfig, IDropdownServerSide&gt;" rx="2.5" ry="2.5" style="stroke:#272B30;stroke-width:0.5;" width="677" x="9" y="7"/><ellipse cx="97.75" cy="23" fill="#A9DCDF" rx="11" ry="11" style="stroke:#181818;stroke-width:1.0;"/><path d="M97.6133,18.3481 L96.4595,23.4199 L98.7754,23.4199 Z M96.1191,16.1069 L99.1157,16.1069 L102.4609,28.5 L100.0122,28.5 L99.2485,25.437 L95.9697,25.437 L95.2227,28.5 L92.7739,28.5 Z " fill="#000000"/><text fill="#000000" font-family="sans-serif" font-size="14" font-style="italic" lengthAdjust="spacing" textLength="491" x="118.25" y="28.291">AbstractChild&lt;DropdownServerSideItemConfig, IDropdownServerSide&gt;</text><line style="stroke:#272B30;stroke-width:0.5;" x1="10" x2="685" y1="39" y2="39"/><polygon fill="none" points="20,47.7441,24,51.7441,20,55.7441,16,51.7441" style="stroke:#B38D22;stroke-width:1.0;"/><text fill="#000000" font-family="sans-serif" font-size="14" lengthAdjust="spacing" textLength="176" x="29" y="56.5352">isProviderBased : boolean</text><rect fill="none" height="6" style="stroke:#C82930;stroke-width:1.0;" width="6" x="17" y="66.2324"/><text fill="#000000" font-family="sans-serif" font-size="14" lengthAdjust="spacing" textLength="152" x="29" y="73.0234">_isFirstChild : boolean</text><rect fill="none" height="6" style="stroke:#C82930;stroke-width:1.0;" width="6" x="17" y="82.7207"/><text fill="#000000" font-family="sans-serif" font-size="14" lengthAdjust="spacing" textLength="149" x="29" y="89.5117">_isLastChild : boolean</text><rect fill="none" height="6" style="stroke:#C82930;stroke-width:1.0;" width="6" x="17" y="99.209"/><text fill="#000000" font-family="sans-serif" font-size="14" lengthAdjust="spacing" textLength="117" x="29" y="106">_parentId : string</text><rect fill="none" height="6" style="stroke:#C82930;stroke-width:1.0;" width="6" x="17" y="115.6973"/><text fill="#000000" font-family="sans-serif" font-size="14" lengthAdjust="spacing" textLength="256" x="29" y="122.4883">_parentObject : IDropdownServerSide</text><line style="stroke:#272B30;stroke-width:0.5;" x1="10" x2="685" y1="129.4414" y2="129.4414"/><ellipse cx="20" cy="143.1855" fill="#84BE84" rx="3" ry="3" style="stroke:#038048;stroke-width:1.0;"/><text fill="#000000" font-family="sans-serif" font-size="14" lengthAdjust="spacing" textLength="86" x="29" y="146.9766">build() : void</text><ellipse cx="20" cy="159.6738" fill="#84BE84" rx="3" ry="3" style="stroke:#038048;stroke-width:1.0;"/><text fill="#000000" font-family="sans-serif" font-size="14" lengthAdjust="spacing" textLength="482" x="29" y="163.4648">changeProperty(propertyName: string, propertyValue: unknown) : void</text><ellipse cx="20" cy="176.1621" fill="#84BE84" rx="3" ry="3" style="stroke:#038048;stroke-width:1.0;"/><text fill="#000000" font-family="sans-serif" font-size="14" lengthAdjust="spacing" textLength="104" x="29" y="179.9531">dispose() : void</text><ellipse cx="20" cy="192.6504" fill="#84BE84" rx="3" ry="3" style="stroke:#038048;stroke-width:1.0;"/><text fill="#000000" font-family="sans-serif" font-size="14" lengthAdjust="spacing" textLength="266" x="29" y="196.4414">equalsToID(patternId: string) : boolean</text><ellipse cx="20" cy="209.1387" fill="#84BE84" rx="3" ry="3" style="stroke:#038048;stroke-width:1.0;"/><text fill="#000000" font-family="sans-serif" font-size="14" lengthAdjust="spacing" textLength="428" x="29" y="212.9297">registerCallback(eventName: string, callback: OSGeneric) : void</text><polygon fill="#FFFF44" points="20,220.627,24,224.627,20,228.627,16,224.627" style="stroke:#B38D22;stroke-width:1.0;"/><text fill="#000000" font-family="sans-serif" font-size="14" lengthAdjust="spacing" textLength="123" x="29" y="229.418">finishBuild() : void</text><polygon fill="#FFFF44" points="20,237.1152,24,241.1152,20,245.1152,16,241.1152" style="stroke:#B38D22;stroke-width:1.0;"/><text fill="#000000" font-family="sans-serif" font-size="14" lengthAdjust="spacing" textLength="257" x="29" y="245.9063">notifyParent(actionType: string) : void</text><polygon fill="#FFFF44" points="20,253.6035,24,257.6035,20,261.6035,16,257.6035" style="stroke:#B38D22;stroke-width:1.0;"/><text fill="#000000" font-family="sans-serif" font-size="14" font-style="italic" lengthAdjust="spacing" textLength="178" x="29" y="262.3945">setA11YProperties() : void</text><polygon fill="#FFFF44" points="20,270.0918,24,274.0918,20,278.0918,16,274.0918" style="stroke:#B38D22;stroke-width:1.0;"/><text fill="#000000" font-family="sans-serif" font-size="14" font-style="italic" lengthAdjust="spacing" textLength="136" x="29" y="278.8828">setCallbacks() : void</text><polygon fill="#FFFF44" points="20,286.5801,24,290.5801,20,294.5801,16,290.5801" style="stroke:#B38D22;stroke-width:1.0;"/><text fill="#000000" font-family="sans-serif" font-size="14" font-style="italic" lengthAdjust="spacing" textLength="165" x="29" y="295.3711">setHtmlElements() : void</text><polygon fill="#FFFF44" points="20,303.0684,24,307.0684,20,311.0684,16,307.0684" style="stroke:#B38D22;stroke-width:1.0;"/><text fill="#000000" font-family="sans-serif" font-size="14" lengthAdjust="spacing" textLength="651" x="29" y="311.8594">setParentInfo(parentSelector: string, getPatternByIdAPI: Function, canBeOrphan: boolean) : void</text><polygon fill="#FFFF44" points="20,319.5566,24,323.5566,20,327.5566,16,323.5566" style="stroke:#B38D22;stroke-width:1.0;"/><text fill="#000000" font-family="sans-serif" font-size="14" lengthAdjust="spacing" textLength="570" x="29" y="328.3477">triggerPlatformEventCallback(platFormCallback: OSGeneric, args: unknown[]) : void</text><polygon fill="#FFFF44" points="20,336.0449,24,340.0449,20,344.0449,16,340.0449" style="stroke:#B38D22;stroke-width:1.0;"/><text fill="#000000" font-family="sans-serif" font-size="14" lengthAdjust="spacing" textLength="318" x="29" y="344.8359">triggerPlatformInitializedEventCallback() : void</text><polygon fill="#FFFF44" points="20,352.5332,24,356.5332,20,360.5332,16,356.5332" style="stroke:#B38D22;stroke-width:1.0;"/><text fill="#000000" font-family="sans-serif" font-size="14" font-style="italic" lengthAdjust="spacing" textLength="154" x="29" y="361.3242">unsetCallbacks() : void</text><polygon fill="#FFFF44" points="20,369.0215,24,373.0215,20,377.0215,16,373.0215" style="stroke:#B38D22;stroke-width:1.0;"/><text fill="#000000" font-family="sans-serif" font-size="14" lengthAdjust="spacing" textLength="198" x="29" y="377.8125">unsetGlobalCallbacks() : void</text><polygon fill="#FFFF44" points="20,385.5098,24,389.5098,20,393.5098,16,389.5098" style="stroke:#B38D22;stroke-width:1.0;"/><text fill="#000000" font-family="sans-serif" font-size="14" font-style="italic" lengthAdjust="spacing" textLength="183" x="29" y="394.3008">unsetHtmlElements() : void</text></g><!--class IDropdownServerSideItem--><g id="elem_IDropdownServerSideItem"><rect codeLine="64" fill="#FFFFFF" height="295.3242" id="IDropdownServerSideItem" rx="2.5" ry="2.5" style="stroke:#272B30;stroke-width:0.5;" width="508" x="721.5" y="56.5"/><ellipse cx="882.25" cy="72.5" fill="#B4A7E5" rx="11" ry="11" style="stroke:#181818;stroke-width:1.0;"/><path d="M878.6777,68.7651 L878.6777,66.6069 L886.0571,66.6069 L886.0571,68.7651 L883.5918,68.7651 L883.5918,76.8418 L886.0571,76.8418 L886.0571,79 L878.6777,79 L878.6777,76.8418 L881.1431,76.8418 L881.1431,68.7651 Z " fill="#000000"/><text fill="#000000" font-family="sans-serif" font-size="14" font-style="italic" lengthAdjust="spacing" textLength="178" x="902.75" y="77.791">IDropdownServerSideItem</text><line style="stroke:#272B30;stroke-width:0.5;" x1="722.5" x2="1228.5" y1="88.5" y2="88.5"/><ellipse cx="732.5" cy="102.2441" fill="none" rx="3" ry="3" style="stroke:#038048;stroke-width:1.0;"/><text fill="#000000" font-family="sans-serif" font-size="14" lengthAdjust="spacing" textLength="109" x="741.5" y="106.0352">isBuilt : boolean</text><ellipse cx="732.5" cy="118.7324" fill="none" rx="3" ry="3" style="stroke:#038048;stroke-width:1.0;"/><text fill="#000000" font-family="sans-serif" font-size="14" lengthAdjust="spacing" textLength="208" x="741.5" y="122.5234">keyboardTriggeredKey : string</text><ellipse cx="732.5" cy="135.2207" fill="none" rx="3" ry="3" style="stroke:#038048;stroke-width:1.0;"/><text fill="#000000" font-family="sans-serif" font-size="14" lengthAdjust="spacing" textLength="184" x="741.5" y="139.0117">selfElement : HTMLElement</text><ellipse cx="732.5" cy="151.709" fill="none" rx="3" ry="3" style="stroke:#038048;stroke-width:1.0;"/><text fill="#000000" font-family="sans-serif" font-size="14" lengthAdjust="spacing" textLength="113" x="741.5" y="155.5">uniqueId : string</text><ellipse cx="732.5" cy="168.1973" fill="none" rx="3" ry="3" style="stroke:#038048;stroke-width:1.0;"/><text fill="#000000" font-family="sans-serif" font-size="14" lengthAdjust="spacing" textLength="111" x="741.5" y="171.9883">widgetId : string</text><line style="stroke:#272B30;stroke-width:0.5;" x1="722.5" x2="1228.5" y1="178.9414" y2="178.9414"/><ellipse cx="732.5" cy="192.6855" fill="#84BE84" rx="3" ry="3" style="stroke:#038048;stroke-width:1.0;"/><text fill="#000000" font-family="sans-serif" font-size="14" lengthAdjust="spacing" textLength="86" x="741.5" y="196.4766">build() : void</text><ellipse cx="732.5" cy="209.1738" fill="#84BE84" rx="3" ry="3" style="stroke:#038048;stroke-width:1.0;"/><text fill="#000000" font-family="sans-serif" font-size="14" lengthAdjust="spacing" textLength="482" x="741.5" y="212.9648">changeProperty(propertyName: string, propertyValue: unknown) : void</text><ellipse cx="732.5" cy="225.6621" fill="#84BE84" rx="3" ry="3" style="stroke:#038048;stroke-width:1.0;"/><text fill="#000000" font-family="sans-serif" font-size="14" lengthAdjust="spacing" textLength="104" x="741.5" y="229.4531">dispose() : void</text><ellipse cx="732.5" cy="242.1504" fill="#84BE84" rx="3" ry="3" style="stroke:#038048;stroke-width:1.0;"/><text fill="#000000" font-family="sans-serif" font-size="14" lengthAdjust="spacing" textLength="216" x="741.5" y="245.9414">equalsToID(id: string) : boolean</text><ellipse cx="732.5" cy="258.6387" fill="#84BE84" rx="3" ry="3" style="stroke:#038048;stroke-width:1.0;"/><text fill="#000000" font-family="sans-serif" font-size="14" lengthAdjust="spacing" textLength="428" x="741.5" y="262.4297">registerCallback(eventName: string, callback: OSGeneric) : void</text><ellipse cx="732.5" cy="275.127" fill="#84BE84" rx="3" ry="3" style="stroke:#038048;stroke-width:1.0;"/><text fill="#000000" font-family="sans-serif" font-size="14" lengthAdjust="spacing" textLength="98" x="741.5" y="278.918">setBlur() : void</text><ellipse cx="732.5" cy="291.6152" fill="#84BE84" rx="3" ry="3" style="stroke:#038048;stroke-width:1.0;"/><text fill="#000000" font-family="sans-serif" font-size="14" lengthAdjust="spacing" textLength="111" x="741.5" y="295.4063">setFocus() : void</text><ellipse cx="732.5" cy="308.1035" fill="#84BE84" rx="3" ry="3" style="stroke:#038048;stroke-width:1.0;"/><text fill="#000000" font-family="sans-serif" font-size="14" lengthAdjust="spacing" textLength="136" x="741.5" y="311.8945">setTabindex() : void</text><ellipse cx="732.5" cy="324.5918" fill="#84BE84" rx="3" ry="3" style="stroke:#038048;stroke-width:1.0;"/><text fill="#000000" font-family="sans-serif" font-size="14" lengthAdjust="spacing" textLength="321" x="741.5" y="328.3828">toggleSelected(triggerCallback: boolean) : void</text><ellipse cx="732.5" cy="341.0801" fill="#84BE84" rx="3" ry="3" style="stroke:#038048;stroke-width:1.0;"/><text fill="#000000" font-family="sans-serif" font-size="14" lengthAdjust="spacing" textLength="154" x="741.5" y="344.8711">unsetTabindex() : void</text></g><!--reverse link AbstractChild<DropdownServerSideItemConfig, IDropdownServerSide> to DropdownServerSideItem--><g id="link_AbstractChild&lt;DropdownServerSideItemConfig, IDropdownServerSide&gt;_DropdownServerSideItem"><path codeLine="63" d="M473.07,418.74 C481.18,432.55 489.4,446.55 497.66,460.6 " fill="none" id="AbstractChild&lt;DropdownServerSideItemConfig, IDropdownServerSide&gt;-backto-DropdownServerSideItem" style="stroke:#272B30;stroke-width:1.0;"/><polygon fill="none" points="466.96,422.16,462.86,401.37,479.03,415.07,466.96,422.16" style="stroke:#272B30;stroke-width:1.0;"/></g><!--reverse link IDropdownServerSideItem to DropdownServerSideItem--><g id="link_IDropdownServerSideItem_DropdownServerSideItem"><path codeLine="81" d="M879.04,369.2 C861.88,398.4 843.59,429.54 825.17,460.89 " fill="none" id="IDropdownServerSideItem-backto-DropdownServerSideItem" style="stroke:#272B30;stroke-width:1.0;stroke-dasharray:7.0,7.0;"/><polygon fill="none" points="873.12,365.46,889.28,351.76,885.19,372.55,873.12,365.46" style="stroke:#272B30;stroke-width:1.0;"/></g><!--SRC=[xLRVJzim47xlNn7Hbo8e6cpI98GcjO521AoLsasQfWavyINrwjZ1Tiewu7_VvLTfVhKFGze3wqkJ-pxVdUy-NwmNJ4H4aT2oET5we9Hyi2MNokgUV3nntx_hw39ZA1K5jPr2l4MWP2neJlDzVuDJWpsW7oZfp1a52yB8hAmGp5nIlMdo6N2qU4a0Q-zSoOZA1p45jGGrHPfZ8Dop7ZiM_WuMi78bKNIcM1200deDA-lKqaOn4QIKBjCJ9PUuK0s91egeAoK78bAuVmTB46OiRCwy1OAN840nhmmMOIOACAagAUB4-5A55nkURCAvIrAFu-aOq-VWcPIG9Ux6ZDFUFi9BoMXcy-P4183PHg3CgXVb3vz92CMM3gt2-fNm6CsnM0WiJzaHPJgI6YhkuJucNC-aSzwBY36WX4CBl_kLiXme29X6Jh6FNbg9SYfUZYLRp2jIZgZ137ciUZNhI7gnhfjdn6M2mgyAOcGGSCXA2BHdibxRw-XvukL5iMXrsFMPO7e-hBUWAwHX_cf256wsHpp3f9Yj8jWiqmiP0moEZx_b3MDGsL625qasG5Scv1SSGepKW6OfECANsApaCTk-L2_b3n9MsiVXog63YNDgZMAHvfpqHWnXh2AKL7E1kdaP9vlYNNSxaVG8hNQznOSMKO5UA-_xZwrk7S4C8vpz1bgEK5wLTgkjM2buoQLB-5PAUqNxTr9SRvvXb54gw5EhCAVPrHQjHPUpRsMi8QLQJrkNAWZbCcFMSi5KlqJDK1nHOjPIdnfYy9pezA_UnkSESL4CA5ChdvQ3_DsUexJFccUdBONFK3vE7VvKpDMTGvFf4LCwYzC0tf0sB1EpGyj3kh2FtP-uSSGQadixS_ELvjDZeOxddQEgGcqvPHNM_m7MN9g_d6KrLyrrVkwymca_U-htM-zO7IQmDpxnmDfpTjp3c4xKQggdOVVr33_xtCztXyZLxFOcVoi-u-m-XkgyE7XW5DLJC__RwS3UtdKALTWgZREdewDMSVq1]--></g></svg>