<?xml version="1.0" encoding="UTF-8" standalone="no"?><svg xmlns="http://www.w3.org/2000/svg" xmlns:xlink="http://www.w3.org/1999/xlink" contentScriptType="application/ecmascript" contentStyleType="text/css" height="850px" preserveAspectRatio="none" style="width:994px;height:850px;background:#CED4DA;" version="1.1" viewBox="0 0 994 850" width="994px" zoomAndPan="magnify"><defs><filter height="300%" id="fgij1g2ccrn9d" width="300%" x="-1" y="-1"><feGaussianBlur result="blurOut" stdDeviation="2.0"/><feColorMatrix in="blurOut" result="blurOut2" type="matrix" values="0 0 0 0 0 0 0 0 0 0 0 0 0 0 0 0 0 0 .4 0"/><feOffset dx="4.0" dy="4.0" in="blurOut2" result="blurOut3"/><feBlend in="SourceGraphic" in2="blurOut3" mode="normal"/></filter></defs><g><!--MD5=[13455114da7977bb9261036455a08b64]
class DropdownServerSideItem--><rect codeLine="7" fill="#FFFFFF" filter="url(#fgij1g2ccrn9d)" height="449.6074" id="DropdownServerSideItem" style="stroke:#272B30;stroke-width:1.5;" width="533" x="260" y="387"/><ellipse cx="449.75" cy="403" fill="#ADD1B2" rx="11" ry="11" style="stroke:#272B30;stroke-width:1.0;"/><path d="M452.2231,409.1431 Q451.6421,409.4419 451.0029,409.5913 Q450.3638,409.7407 449.6582,409.7407 Q447.1514,409.7407 445.8315,408.0889 Q444.5117,406.437 444.5117,403.3159 Q444.5117,400.1865 445.8315,398.5347 Q447.1514,396.8828 449.6582,396.8828 Q450.3638,396.8828 451.0112,397.0322 Q451.6587,397.1816 452.2231,397.4805 L452.2231,400.2031 Q451.5923,399.6221 450.9988,399.3523 Q450.4053,399.0825 449.7744,399.0825 Q448.4297,399.0825 447.7449,400.1492 Q447.0601,401.2158 447.0601,403.3159 Q447.0601,405.4077 447.7449,406.4744 Q448.4297,407.541 449.7744,407.541 Q450.4053,407.541 450.9988,407.2712 Q451.5923,407.0015 452.2231,406.4204 Z " fill="#000000"/><text fill="#000000" font-family="sans-serif" font-size="12" lengthAdjust="spacing" textLength="145" x="470.25" y="407.5352">DropdownServerSideItem</text><line style="stroke:#272B30;stroke-width:1.5;" x1="261" x2="792" y1="419" y2="419"/><ellipse cx="271" cy="430" rx="3" ry="3" style="stroke:#038048;stroke-width:1.0;fill:none;"/><text fill="#000000" font-family="sans-serif" font-size="11" lengthAdjust="spacing" textLength="163" x="280" y="433.6348">keyboardTriggeredKey : string</text><polygon fill="none" points="271,437.9551,275,441.9551,271,445.9551,267,441.9551" style="stroke:#B38D22;stroke-width:1.0;"/><text fill="#000000" font-family="sans-serif" font-size="11" lengthAdjust="spacing" textLength="137" x="280" y="446.5898">isProviderBased : boolean</text><rect fill="none" height="6" style="stroke:#C82930;stroke-width:1.0;" width="6" x="268" y="452.9102"/><text fill="#000000" font-family="sans-serif" font-size="11" lengthAdjust="spacing" textLength="127" x="280" y="459.5449">_eventOnClick : Generic</text><rect fill="none" height="6" style="stroke:#C82930;stroke-width:1.0;" width="6" x="268" y="465.8652"/><text fill="#000000" font-family="sans-serif" font-size="11" lengthAdjust="spacing" textLength="180" x="280" y="472.5">_eventOnkeyboardPress : Generic</text><rect fill="none" height="6" style="stroke:#C82930;stroke-width:1.0;" width="6" x="268" y="478.8203"/><text fill="#000000" font-family="sans-serif" font-size="11" lengthAdjust="spacing" textLength="268" x="280" y="485.4551">_platformEventOnClickCallback : OSOnSelectEvent</text><line style="stroke:#272B30;stroke-width:1.5;" x1="261" x2="792" y1="491.7754" y2="491.7754"/><ellipse cx="271" cy="502.7754" fill="#84BE84" rx="3" ry="3" style="stroke:#038048;stroke-width:1.0;"/><text fill="#000000" font-family="sans-serif" font-size="11" lengthAdjust="spacing" textLength="67" x="280" y="506.4102">build() : void</text><ellipse cx="271" cy="515.7305" fill="#84BE84" rx="3" ry="3" style="stroke:#038048;stroke-width:1.0;"/><text fill="#000000" font-family="sans-serif" font-size="11" lengthAdjust="spacing" textLength="377" x="280" y="519.3652">changeProperty(propertyName: string, propertyValue: unknown) : void</text><ellipse cx="271" cy="528.6855" fill="#84BE84" rx="3" ry="3" style="stroke:#038048;stroke-width:1.0;"/><text fill="#000000" font-family="sans-serif" font-size="11" lengthAdjust="spacing" textLength="82" x="280" y="532.3203">dispose() : void</text><ellipse cx="271" cy="541.6406" fill="#84BE84" rx="3" ry="3" style="stroke:#038048;stroke-width:1.0;"/><text fill="#000000" font-family="sans-serif" font-size="11" lengthAdjust="spacing" textLength="207" x="280" y="545.2754">equalsToID(patternId: string) : boolean</text><ellipse cx="271" cy="554.5957" fill="#84BE84" rx="3" ry="3" style="stroke:#038048;stroke-width:1.0;"/><text fill="#000000" font-family="sans-serif" font-size="11" lengthAdjust="spacing" textLength="335" x="280" y="558.2305">registerCallback(eventName: string, callback: OSGeneric) : void</text><ellipse cx="271" cy="567.5508" fill="#84BE84" rx="3" ry="3" style="stroke:#038048;stroke-width:1.0;"/><text fill="#000000" font-family="sans-serif" font-size="11" lengthAdjust="spacing" textLength="77" x="280" y="571.1855">setBlur() : void</text><ellipse cx="271" cy="580.5059" fill="#84BE84" rx="3" ry="3" style="stroke:#038048;stroke-width:1.0;"/><text fill="#000000" font-family="sans-serif" font-size="11" lengthAdjust="spacing" textLength="88" x="280" y="584.1406">setFocus() : void</text><ellipse cx="271" cy="593.4609" fill="#84BE84" rx="3" ry="3" style="stroke:#038048;stroke-width:1.0;"/><text fill="#000000" font-family="sans-serif" font-size="11" lengthAdjust="spacing" textLength="106" x="280" y="597.0957">setTabindex() : void</text><ellipse cx="271" cy="606.416" fill="#84BE84" rx="3" ry="3" style="stroke:#038048;stroke-width:1.0;"/><text fill="#000000" font-family="sans-serif" font-size="11" lengthAdjust="spacing" textLength="249" x="280" y="610.0508">toggleSelected(triggerCallback: boolean) : void</text><ellipse cx="271" cy="619.3711" fill="#84BE84" rx="3" ry="3" style="stroke:#038048;stroke-width:1.0;"/><text fill="#000000" font-family="sans-serif" font-size="11" lengthAdjust="spacing" textLength="120" x="280" y="623.0059">unsetTabindex() : void</text><polygon fill="#FFFF44" points="271,627.3262,275,631.3262,271,635.3262,267,631.3262" style="stroke:#B38D22;stroke-width:1.0;"/><text fill="#000000" font-family="sans-serif" font-size="11" lengthAdjust="spacing" textLength="96" x="280" y="635.9609">finishBuild() : void</text><polygon fill="#FFFF44" points="271,640.2813,275,644.2813,271,648.2813,267,644.2813" style="stroke:#B38D22;stroke-width:1.0;"/><text fill="#000000" font-family="sans-serif" font-size="11" lengthAdjust="spacing" textLength="202" x="280" y="648.916">notifyParent(actionType: string) : void</text><polygon fill="#FFFF44" points="271,653.2363,275,657.2363,271,661.2363,267,657.2363" style="stroke:#B38D22;stroke-width:1.0;"/><text fill="#000000" font-family="sans-serif" font-size="11" lengthAdjust="spacing" textLength="140" x="280" y="661.8711">setA11YProperties() : void</text><polygon fill="#FFFF44" points="271,666.1914,275,670.1914,271,674.1914,267,670.1914" style="stroke:#B38D22;stroke-width:1.0;"/><text fill="#000000" font-family="sans-serif" font-size="11" lengthAdjust="spacing" textLength="107" x="280" y="674.8262">setCallbacks() : void</text><polygon fill="#FFFF44" points="271,679.1465,275,683.1465,271,687.1465,267,683.1465" style="stroke:#B38D22;stroke-width:1.0;"/><text fill="#000000" font-family="sans-serif" font-size="11" lengthAdjust="spacing" textLength="129" x="280" y="687.7813">setHtmlElements() : void</text><polygon fill="#FFFF44" points="271,692.1016,275,696.1016,271,700.1016,267,696.1016" style="stroke:#B38D22;stroke-width:1.0;"/><text fill="#000000" font-family="sans-serif" font-size="11" lengthAdjust="spacing" textLength="507" x="280" y="700.7363">setParentInfo(parentSelector: string, getPatternByIdAPI: Function, canBeOrphan: boolean) : void</text><polygon fill="#FFFF44" points="271,705.0566,275,709.0566,271,713.0566,267,709.0566" style="stroke:#B38D22;stroke-width:1.0;"/><text fill="#000000" font-family="sans-serif" font-size="11" lengthAdjust="spacing" textLength="444" x="280" y="713.6914">triggerPlatformEventCallback(platFormCallback: OSGeneric, args: unknown[]) : void</text><polygon fill="#FFFF44" points="271,718.0117,275,722.0117,271,726.0117,267,722.0117" style="stroke:#B38D22;stroke-width:1.0;"/><text fill="#000000" font-family="sans-serif" font-size="11" lengthAdjust="spacing" textLength="247" x="280" y="726.6465">triggerPlatformInitializedEventCallback() : void</text><polygon fill="#FFFF44" points="271,730.9668,275,734.9668,271,738.9668,267,734.9668" style="stroke:#B38D22;stroke-width:1.0;"/><text fill="#000000" font-family="sans-serif" font-size="11" lengthAdjust="spacing" textLength="121" x="280" y="739.6016">unsetCallbacks() : void</text><polygon fill="#FFFF44" points="271,743.9219,275,747.9219,271,751.9219,267,747.9219" style="stroke:#B38D22;stroke-width:1.0;"/><text fill="#000000" font-family="sans-serif" font-size="11" lengthAdjust="spacing" textLength="155" x="280" y="752.5566">unsetGlobalCallbacks() : void</text><polygon fill="#FFFF44" points="271,756.877,275,760.877,271,764.877,267,760.877" style="stroke:#B38D22;stroke-width:1.0;"/><text fill="#000000" font-family="sans-serif" font-size="11" lengthAdjust="spacing" textLength="143" x="280" y="765.5117">unsetHtmlElements() : void</text><rect fill="#F24D5C" height="6" style="stroke:#C82930;stroke-width:1.0;" width="6" x="268" y="771.832"/><text fill="#000000" font-family="sans-serif" font-size="11" lengthAdjust="spacing" textLength="268" x="280" y="778.4668">_onKeyboardPressed(event: KeyboardEvent) : void</text><rect fill="#F24D5C" height="6" style="stroke:#C82930;stroke-width:1.0;" width="6" x="268" y="784.7871"/><text fill="#000000" font-family="sans-serif" font-size="11" lengthAdjust="spacing" textLength="293" x="280" y="791.4219">_onSelected(event: MouseEvent | KeyboardEvent) : void</text><rect fill="#F24D5C" height="6" style="stroke:#C82930;stroke-width:1.0;" width="6" x="268" y="797.7422"/><text fill="#000000" font-family="sans-serif" font-size="11" lengthAdjust="spacing" textLength="121" x="280" y="804.377">_removeEvents() : void</text><rect fill="#F24D5C" height="6" style="stroke:#C82930;stroke-width:1.0;" width="6" x="268" y="810.6973"/><text fill="#000000" font-family="sans-serif" font-size="11" lengthAdjust="spacing" textLength="112" x="280" y="817.332">_setUpEvents() : void</text><rect fill="#F24D5C" height="6" style="stroke:#C82930;stroke-width:1.0;" width="6" x="268" y="823.6523"/><text fill="#000000" font-family="sans-serif" font-size="11" lengthAdjust="spacing" textLength="242" x="280" y="830.2871">_updateSelectedStatus(status: boolean) : void</text><!--MD5=[c917acd65a608a97f53329d4dfc8b2a3]
class AbstractChild<DropdownServerSideItemConfig, IDropdownServerSide>--><rect codeLine="40" fill="#FFFFFF" filter="url(#fgij1g2ccrn9d)" height="320.0566" id="AbstractChild&lt;DropdownServerSideItemConfig, IDropdownServerSide&gt;" style="stroke:#272B30;stroke-width:1.5;" width="533" x="9" y="7"/><ellipse cx="66.75" cy="23" fill="#A9DCDF" rx="11" ry="11" style="stroke:#272B30;stroke-width:1.0;"/><path d="M66.6133,18.3481 L65.4595,23.4199 L67.7754,23.4199 Z M65.1191,16.1069 L68.1157,16.1069 L71.4609,28.5 L69.0122,28.5 L68.2485,25.437 L64.9697,25.437 L64.2227,28.5 L61.7739,28.5 Z " fill="#000000"/><text fill="#000000" font-family="sans-serif" font-size="12" font-style="italic" lengthAdjust="spacing" textLength="409" x="87.25" y="27.5352">AbstractChild&lt;DropdownServerSideItemConfig, IDropdownServerSide&gt;</text><line style="stroke:#272B30;stroke-width:1.5;" x1="10" x2="541" y1="39" y2="39"/><polygon fill="none" points="20,45,24,49,20,53,16,49" style="stroke:#B38D22;stroke-width:1.0;"/><text fill="#000000" font-family="sans-serif" font-size="11" lengthAdjust="spacing" textLength="137" x="29" y="53.6348">isProviderBased : boolean</text><rect fill="none" height="6" style="stroke:#C82930;stroke-width:1.0;" width="6" x="17" y="59.9551"/><text fill="#000000" font-family="sans-serif" font-size="11" lengthAdjust="spacing" textLength="119" x="29" y="66.5898">_isFirstChild : boolean</text><rect fill="none" height="6" style="stroke:#C82930;stroke-width:1.0;" width="6" x="17" y="72.9102"/><text fill="#000000" font-family="sans-serif" font-size="11" lengthAdjust="spacing" textLength="117" x="29" y="79.5449">_isLastChild : boolean</text><rect fill="none" height="6" style="stroke:#C82930;stroke-width:1.0;" width="6" x="17" y="85.8652"/><text fill="#000000" font-family="sans-serif" font-size="11" lengthAdjust="spacing" textLength="92" x="29" y="92.5">_parentId : string</text><rect fill="none" height="6" style="stroke:#C82930;stroke-width:1.0;" width="6" x="17" y="98.8203"/><text fill="#000000" font-family="sans-serif" font-size="11" lengthAdjust="spacing" textLength="200" x="29" y="105.4551">_parentObject : IDropdownServerSide</text><line style="stroke:#272B30;stroke-width:1.5;" x1="10" x2="541" y1="111.7754" y2="111.7754"/><ellipse cx="20" cy="122.7754" fill="#84BE84" rx="3" ry="3" style="stroke:#038048;stroke-width:1.0;"/><text fill="#000000" font-family="sans-serif" font-size="11" lengthAdjust="spacing" textLength="67" x="29" y="126.4102">build() : void</text><ellipse cx="20" cy="135.7305" fill="#84BE84" rx="3" ry="3" style="stroke:#038048;stroke-width:1.0;"/><text fill="#000000" font-family="sans-serif" font-size="11" lengthAdjust="spacing" textLength="377" x="29" y="139.3652">changeProperty(propertyName: string, propertyValue: unknown) : void</text><ellipse cx="20" cy="148.6855" fill="#84BE84" rx="3" ry="3" style="stroke:#038048;stroke-width:1.0;"/><text fill="#000000" font-family="sans-serif" font-size="11" lengthAdjust="spacing" textLength="82" x="29" y="152.3203">dispose() : void</text><ellipse cx="20" cy="161.6406" fill="#84BE84" rx="3" ry="3" style="stroke:#038048;stroke-width:1.0;"/><text fill="#000000" font-family="sans-serif" font-size="11" lengthAdjust="spacing" textLength="207" x="29" y="165.2754">equalsToID(patternId: string) : boolean</text><ellipse cx="20" cy="174.5957" fill="#84BE84" rx="3" ry="3" style="stroke:#038048;stroke-width:1.0;"/><text fill="#000000" font-family="sans-serif" font-size="11" lengthAdjust="spacing" textLength="335" x="29" y="178.2305">registerCallback(eventName: string, callback: OSGeneric) : void</text><polygon fill="#FFFF44" points="20,182.5508,24,186.5508,20,190.5508,16,186.5508" style="stroke:#B38D22;stroke-width:1.0;"/><text fill="#000000" font-family="sans-serif" font-size="11" lengthAdjust="spacing" textLength="96" x="29" y="191.1855">finishBuild() : void</text><polygon fill="#FFFF44" points="20,195.5059,24,199.5059,20,203.5059,16,199.5059" style="stroke:#B38D22;stroke-width:1.0;"/><text fill="#000000" font-family="sans-serif" font-size="11" lengthAdjust="spacing" textLength="202" x="29" y="204.1406">notifyParent(actionType: string) : void</text><polygon fill="#FFFF44" points="20,208.4609,24,212.4609,20,216.4609,16,212.4609" style="stroke:#B38D22;stroke-width:1.0;"/><text fill="#000000" font-family="sans-serif" font-size="11" font-style="italic" lengthAdjust="spacing" textLength="140" x="29" y="217.0957">setA11YProperties() : void</text><polygon fill="#FFFF44" points="20,221.416,24,225.416,20,229.416,16,225.416" style="stroke:#B38D22;stroke-width:1.0;"/><text fill="#000000" font-family="sans-serif" font-size="11" font-style="italic" lengthAdjust="spacing" textLength="107" x="29" y="230.0508">setCallbacks() : void</text><polygon fill="#FFFF44" points="20,234.3711,24,238.3711,20,242.3711,16,238.3711" style="stroke:#B38D22;stroke-width:1.0;"/><text fill="#000000" font-family="sans-serif" font-size="11" font-style="italic" lengthAdjust="spacing" textLength="129" x="29" y="243.0059">setHtmlElements() : void</text><polygon fill="#FFFF44" points="20,247.3262,24,251.3262,20,255.3262,16,251.3262" style="stroke:#B38D22;stroke-width:1.0;"/><text fill="#000000" font-family="sans-serif" font-size="11" lengthAdjust="spacing" textLength="507" x="29" y="255.9609">setParentInfo(parentSelector: string, getPatternByIdAPI: Function, canBeOrphan: boolean) : void</text><polygon fill="#FFFF44" points="20,260.2813,24,264.2813,20,268.2813,16,264.2813" style="stroke:#B38D22;stroke-width:1.0;"/><text fill="#000000" font-family="sans-serif" font-size="11" lengthAdjust="spacing" textLength="444" x="29" y="268.916">triggerPlatformEventCallback(platFormCallback: OSGeneric, args: unknown[]) : void</text><polygon fill="#FFFF44" points="20,273.2363,24,277.2363,20,281.2363,16,277.2363" style="stroke:#B38D22;stroke-width:1.0;"/><text fill="#000000" font-family="sans-serif" font-size="11" lengthAdjust="spacing" textLength="247" x="29" y="281.8711">triggerPlatformInitializedEventCallback() : void</text><polygon fill="#FFFF44" points="20,286.1914,24,290.1914,20,294.1914,16,290.1914" style="stroke:#B38D22;stroke-width:1.0;"/><text fill="#000000" font-family="sans-serif" font-size="11" font-style="italic" lengthAdjust="spacing" textLength="121" x="29" y="294.8262">unsetCallbacks() : void</text><polygon fill="#FFFF44" points="20,299.1465,24,303.1465,20,307.1465,16,303.1465" style="stroke:#B38D22;stroke-width:1.0;"/><text fill="#000000" font-family="sans-serif" font-size="11" lengthAdjust="spacing" textLength="155" x="29" y="307.7813">unsetGlobalCallbacks() : void</text><polygon fill="#FFFF44" points="20,312.1016,24,316.1016,20,320.1016,16,316.1016" style="stroke:#B38D22;stroke-width:1.0;"/><text fill="#000000" font-family="sans-serif" font-size="11" font-style="italic" lengthAdjust="spacing" textLength="143" x="29" y="320.7363">unsetHtmlElements() : void</text><!--MD5=[bcd99cc50e8dfb4eeef7ac4f1f302d89]
class IDropdownServerSideItem--><rect codeLine="64" fill="#FFFFFF" filter="url(#fgij1g2ccrn9d)" height="242.3262" id="IDropdownServerSideItem" style="stroke:#272B30;stroke-width:1.5;" width="403" x="577" y="46"/><ellipse cx="700.25" cy="62" fill="#B4A7E5" rx="11" ry="11" style="stroke:#272B30;stroke-width:1.0;"/><path d="M696.6777,58.2651 L696.6777,56.1069 L704.0571,56.1069 L704.0571,58.2651 L701.5918,58.2651 L701.5918,66.3418 L704.0571,66.3418 L704.0571,68.5 L696.6777,68.5 L696.6777,66.3418 L699.1431,66.3418 L699.1431,58.2651 Z " fill="#000000"/><text fill="#000000" font-family="sans-serif" font-size="12" font-style="italic" lengthAdjust="spacing" textLength="148" x="720.75" y="66.5352">IDropdownServerSideItem</text><line style="stroke:#272B30;stroke-width:1.5;" x1="578" x2="979" y1="78" y2="78"/><ellipse cx="588" cy="89" rx="3" ry="3" style="stroke:#038048;stroke-width:1.0;fill:none;"/><text fill="#000000" font-family="sans-serif" font-size="11" lengthAdjust="spacing" textLength="84" x="597" y="92.6348">isBuilt : boolean</text><ellipse cx="588" cy="101.9551" rx="3" ry="3" style="stroke:#038048;stroke-width:1.0;fill:none;"/><text fill="#000000" font-family="sans-serif" font-size="11" lengthAdjust="spacing" textLength="163" x="597" y="105.5898">keyboardTriggeredKey : string</text><ellipse cx="588" cy="114.9102" rx="3" ry="3" style="stroke:#038048;stroke-width:1.0;fill:none;"/><text fill="#000000" font-family="sans-serif" font-size="11" lengthAdjust="spacing" textLength="142" x="597" y="118.5449">selfElement : HTMLElement</text><ellipse cx="588" cy="127.8652" rx="3" ry="3" style="stroke:#038048;stroke-width:1.0;fill:none;"/><text fill="#000000" font-family="sans-serif" font-size="11" lengthAdjust="spacing" textLength="88" x="597" y="131.5">uniqueId : string</text><ellipse cx="588" cy="140.8203" rx="3" ry="3" style="stroke:#038048;stroke-width:1.0;fill:none;"/><text fill="#000000" font-family="sans-serif" font-size="11" lengthAdjust="spacing" textLength="86" x="597" y="144.4551">widgetId : string</text><line style="stroke:#272B30;stroke-width:1.5;" x1="578" x2="979" y1="150.7754" y2="150.7754"/><ellipse cx="588" cy="161.7754" fill="#84BE84" rx="3" ry="3" style="stroke:#038048;stroke-width:1.0;"/><text fill="#000000" font-family="sans-serif" font-size="11" lengthAdjust="spacing" textLength="67" x="597" y="165.4102">build() : void</text><ellipse cx="588" cy="174.7305" fill="#84BE84" rx="3" ry="3" style="stroke:#038048;stroke-width:1.0;"/><text fill="#000000" font-family="sans-serif" font-size="11" lengthAdjust="spacing" textLength="377" x="597" y="178.3652">changeProperty(propertyName: string, propertyValue: unknown) : void</text><ellipse cx="588" cy="187.6855" fill="#84BE84" rx="3" ry="3" style="stroke:#038048;stroke-width:1.0;"/><text fill="#000000" font-family="sans-serif" font-size="11" lengthAdjust="spacing" textLength="82" x="597" y="191.3203">dispose() : void</text><ellipse cx="588" cy="200.6406" fill="#84BE84" rx="3" ry="3" style="stroke:#038048;stroke-width:1.0;"/><text fill="#000000" font-family="sans-serif" font-size="11" lengthAdjust="spacing" textLength="168" x="597" y="204.2754">equalsToID(id: string) : boolean</text><ellipse cx="588" cy="213.5957" fill="#84BE84" rx="3" ry="3" style="stroke:#038048;stroke-width:1.0;"/><text fill="#000000" font-family="sans-serif" font-size="11" lengthAdjust="spacing" textLength="335" x="597" y="217.2305">registerCallback(eventName: string, callback: OSGeneric) : void</text><ellipse cx="588" cy="226.5508" fill="#84BE84" rx="3" ry="3" style="stroke:#038048;stroke-width:1.0;"/><text fill="#000000" font-family="sans-serif" font-size="11" lengthAdjust="spacing" textLength="77" x="597" y="230.1855">setBlur() : void</text><ellipse cx="588" cy="239.5059" fill="#84BE84" rx="3" ry="3" style="stroke:#038048;stroke-width:1.0;"/><text fill="#000000" font-family="sans-serif" font-size="11" lengthAdjust="spacing" textLength="88" x="597" y="243.1406">setFocus() : void</text><ellipse cx="588" cy="252.4609" fill="#84BE84" rx="3" ry="3" style="stroke:#038048;stroke-width:1.0;"/><text fill="#000000" font-family="sans-serif" font-size="11" lengthAdjust="spacing" textLength="106" x="597" y="256.0957">setTabindex() : void</text><ellipse cx="588" cy="265.416" fill="#84BE84" rx="3" ry="3" style="stroke:#038048;stroke-width:1.0;"/><text fill="#000000" font-family="sans-serif" font-size="11" lengthAdjust="spacing" textLength="249" x="597" y="269.0508">toggleSelected(triggerCallback: boolean) : void</text><ellipse cx="588" cy="278.3711" fill="#84BE84" rx="3" ry="3" style="stroke:#038048;stroke-width:1.0;"/><text fill="#000000" font-family="sans-serif" font-size="11" lengthAdjust="spacing" textLength="120" x="597" y="282.0059">unsetTabindex() : void</text><!--MD5=[200d996152c1432b11572c786be26420]
reverse link AbstractChild<DropdownServerSideItemConfig, IDropdownServerSide> to DropdownServerSideItem--><path codeLine="63" d="M375.88,345.17 C383.64,358.87 391.54,372.81 399.45,386.76 " fill="none" id="AbstractChild&lt;DropdownServerSideItemConfig, IDropdownServerSide&gt;-backto-DropdownServerSideItem" style="stroke:#272B30;stroke-width:1.0;"/><polygon fill="none" points="369.53,348.16,365.76,327.31,381.71,341.26,369.53,348.16" style="stroke:#272B30;stroke-width:1.0;"/><!--MD5=[9cbc1fba2d54da0bcd6e67a09147bc84]
reverse link IDropdownServerSideItem to DropdownServerSideItem--><path codeLine="81" d="M700.16,305.72 C685.49,331.51 669.8,359.08 654.09,386.71 " fill="none" id="IDropdownServerSideItem-backto-DropdownServerSideItem" style="stroke:#272B30;stroke-width:1.0;stroke-dasharray:7.0,7.0;"/><polygon fill="none" points="694.17,302.1,710.14,288.17,706.33,309.02,694.17,302.1" style="stroke:#272B30;stroke-width:1.0;"/><!--MD5=[ce24de823a1c43138dac583540b4663a]
@startuml
skinparam ClassArrowColor #272b30
skinparam ClassBorderColor #272b30
skinparam ClassBackgroundColor #fff
skinparam BackgroundColor #ced4da
hide empty methods
hide empty fields
class "DropdownServerSideItem" {
    +keyboardTriggeredKey : string
    #isProviderBased : boolean
    -_eventOnClick : Generic
    -_eventOnkeyboardPress : Generic
    -_platformEventOnClickCallback : OSOnSelectEvent
    +build() : void
    +changeProperty(propertyName: string, propertyValue: unknown) : void
    +dispose() : void
    +equalsToID(patternId: string) : boolean
    +registerCallback(eventName: string, callback: OSGeneric) : void
    +setBlur() : void
    +setFocus() : void
    +setTabindex() : void
    +toggleSelected(triggerCallback: boolean) : void
    +unsetTabindex() : void
    #finishBuild() : void
    #notifyParent(actionType: string) : void
    #setA11YProperties() : void
    #setCallbacks() : void
    #setHtmlElements() : void
    #setParentInfo(parentSelector: string, getPatternByIdAPI: Function, canBeOrphan: boolean) : void
    #triggerPlatformEventCallback(platFormCallback: OSGeneric, args: unknown[]) : void
    #triggerPlatformInitializedEventCallback() : void
    #unsetCallbacks() : void
    #unsetGlobalCallbacks() : void
    #unsetHtmlElements() : void
    -_onKeyboardPressed(event: KeyboardEvent) : void
    -_onSelected(event: MouseEvent | KeyboardEvent) : void
    -_removeEvents() : void
    -_setUpEvents() : void
    -_updateSelectedStatus(status: boolean) : void
}
abstract class "AbstractChild<DropdownServerSideItemConfig, IDropdownServerSide>" {
    #isProviderBased : boolean
    -_isFirstChild : boolean
    -_isLastChild : boolean
    -_parentId : string
    -_parentObject : IDropdownServerSide
    +build() : void
    +changeProperty(propertyName: string, propertyValue: unknown) : void
    +dispose() : void
    +equalsToID(patternId: string) : boolean
    +registerCallback(eventName: string, callback: OSGeneric) : void
    #finishBuild() : void
    #notifyParent(actionType: string) : void
    {abstract} #setA11YProperties() : void
    {abstract} #setCallbacks() : void
    {abstract} #setHtmlElements() : void
    #setParentInfo(parentSelector: string, getPatternByIdAPI: Function, canBeOrphan: boolean) : void
    #triggerPlatformEventCallback(platFormCallback: OSGeneric, args: unknown[]) : void
    #triggerPlatformInitializedEventCallback() : void
    {abstract} #unsetCallbacks() : void
    #unsetGlobalCallbacks() : void
    {abstract} #unsetHtmlElements() : void
}
"AbstractChild<DropdownServerSideItemConfig, IDropdownServerSide>" <|- - "DropdownServerSideItem"
interface "IDropdownServerSideItem" {
    +isBuilt : boolean
    +keyboardTriggeredKey : string
    +selfElement : HTMLElement
    +uniqueId : string
    +widgetId : string
    +build() : void
    +changeProperty(propertyName: string, propertyValue: unknown) : void
    +dispose() : void
    +equalsToID(id: string) : boolean
    +registerCallback(eventName: string, callback: OSGeneric) : void
    +setBlur() : void
    +setFocus() : void
    +setTabindex() : void
    +toggleSelected(triggerCallback: boolean) : void
    +unsetTabindex() : void
}
"IDropdownServerSideItem" <|.. "DropdownServerSideItem"
@enduml

PlantUML version 1.2021.14(Fri Nov 12 16:46:50 WET 2021)
(GPL source distribution)
Java Runtime: Java(TM) SE Runtime Environment
JVM: Java HotSpot(TM) 64-Bit Server VM
Default Encoding: UTF-8
Language: en
Country: PT
--></g></svg>