<?xml version="1.0" encoding="us-ascii" standalone="no"?><svg xmlns="http://www.w3.org/2000/svg" xmlns:xlink="http://www.w3.org/1999/xlink" contentStyleType="text/css" height="1213px" preserveAspectRatio="none" style="width:636px;height:1213px;background:#CED4DA;" version="1.1" viewBox="0 0 636 1213" width="636px" zoomAndPan="magnify"><defs/><g><rect fill="#CED4DA" height="1213" style="stroke:none;stroke-width:1.0;" width="636" x="0" y="0"/><!--class FlatpickrRangeDateConfig--><g id="elem_FlatpickrRangeDateConfig"><rect codeLine="7" fill="#FFFFFF" height="504.3125" id="FlatpickrRangeDateConfig" rx="2.5" ry="2.5" style="stroke:#272B30;stroke-width:0.5;" width="620" x="9" y="702"/><ellipse cx="225.25" cy="718" fill="#ADD1B2" rx="11" ry="11" style="stroke:#181818;stroke-width:1.0;"/><path d="M228.2188,723.6406 Q227.6406,723.9375 227,724.0781 Q226.3594,724.2344 225.6563,724.2344 Q223.1563,724.2344 221.8281,722.5938 Q220.5156,720.9375 220.5156,717.8125 Q220.5156,714.6875 221.8281,713.0313 Q223.1563,711.375 225.6563,711.375 Q226.3594,711.375 227,711.5313 Q227.6563,711.6875 228.2188,711.9844 L228.2188,714.7031 Q227.5938,714.125 227,713.8594 Q226.4063,713.5781 225.7813,713.5781 Q224.4375,713.5781 223.75,714.6563 Q223.0625,715.7188 223.0625,717.8125 Q223.0625,719.9063 223.75,720.9844 Q224.4375,722.0469 225.7813,722.0469 Q226.4063,722.0469 227,721.7813 Q227.5938,721.5 228.2188,720.9219 L228.2188,723.6406 Z " fill="#000000"/><text fill="#000000" font-family="sans-serif" font-size="14" lengthAdjust="spacing" textLength="179" x="245.75" y="722.8467">FlatpickrRangeDateConfig</text><line style="stroke:#272B30;stroke-width:0.5;" x1="10" x2="628" y1="734" y2="734"/><ellipse cx="20" cy="747.6484" fill="none" rx="3" ry="3" style="stroke:#038048;stroke-width:1.0;"/><text fill="#000000" font-family="sans-serif" font-size="14" lengthAdjust="spacing" textLength="139" x="29" y="750.9951">AllowInput : boolean</text><ellipse cx="20" cy="763.9453" fill="none" rx="3" ry="3" style="stroke:#038048;stroke-width:1.0;"/><text fill="#000000" font-family="sans-serif" font-size="14" lengthAdjust="spacing" textLength="152" x="29" y="767.292">CalendarMode : Mode</text><ellipse cx="20" cy="780.2422" fill="none" rx="3" ry="3" style="stroke:#038048;stroke-width:1.0;"/><text fill="#000000" font-family="sans-serif" font-size="14" lengthAdjust="spacing" textLength="133" x="29" y="783.5889">DateFormat : string</text><ellipse cx="20" cy="796.5391" fill="none" rx="3" ry="3" style="stroke:#038048;stroke-width:1.0;"/><text fill="#000000" font-family="sans-serif" font-size="14" lengthAdjust="spacing" textLength="98" x="29" y="799.8857">Disable : any[]</text><ellipse cx="20" cy="812.8359" fill="none" rx="3" ry="3" style="stroke:#038048;stroke-width:1.0;"/><text fill="#000000" font-family="sans-serif" font-size="14" lengthAdjust="spacing" textLength="165" x="29" y="816.1826">DisableMobile : boolean</text><ellipse cx="20" cy="829.1328" fill="none" rx="3" ry="3" style="stroke:#038048;stroke-width:1.0;"/><text fill="#000000" font-family="sans-serif" font-size="14" lengthAdjust="spacing" textLength="155" x="29" y="832.4795">ExtendedClass : string</text><ellipse cx="20" cy="845.4297" fill="none" rx="3" ry="3" style="stroke:#038048;stroke-width:1.0;"/><text fill="#000000" font-family="sans-serif" font-size="14" lengthAdjust="spacing" textLength="161" x="29" y="848.7764">FirstWeekDay : number</text><ellipse cx="20" cy="861.7266" fill="none" rx="3" ry="3" style="stroke:#038048;stroke-width:1.0;"/><text fill="#000000" font-family="sans-serif" font-size="14" lengthAdjust="spacing" textLength="146" x="29" y="865.0732">InitialEndDate : string</text><ellipse cx="20" cy="878.0234" fill="none" rx="3" ry="3" style="stroke:#038048;stroke-width:1.0;"/><text fill="#000000" font-family="sans-serif" font-size="14" lengthAdjust="spacing" textLength="151" x="29" y="881.3701">InitialStartDate : string</text><ellipse cx="20" cy="894.3203" fill="none" rx="3" ry="3" style="stroke:#038048;stroke-width:1.0;"/><text fill="#000000" font-family="sans-serif" font-size="14" lengthAdjust="spacing" textLength="112" x="29" y="897.667">MaxDate : string</text><ellipse cx="20" cy="910.6172" fill="none" rx="3" ry="3" style="stroke:#038048;stroke-width:1.0;"/><text fill="#000000" font-family="sans-serif" font-size="14" lengthAdjust="spacing" textLength="109" x="29" y="913.9639">MinDate : string</text><ellipse cx="20" cy="926.9141" fill="none" rx="3" ry="3" style="stroke:#038048;stroke-width:1.0;"/><text fill="#000000" font-family="sans-serif" font-size="14" lengthAdjust="spacing" textLength="141" x="29" y="930.2607">OnChange : Generic</text><ellipse cx="20" cy="943.2109" fill="none" rx="3" ry="3" style="stroke:#038048;stroke-width:1.0;"/><text fill="#000000" font-family="sans-serif" font-size="14" lengthAdjust="spacing" textLength="196" x="29" y="946.5576">ShowTodayButton : boolean</text><ellipse cx="20" cy="959.5078" fill="none" rx="3" ry="3" style="stroke:#038048;stroke-width:1.0;"/><text fill="#000000" font-family="sans-serif" font-size="14" lengthAdjust="spacing" textLength="209" x="29" y="962.8545">ShowWeekNumbers : boolean</text><ellipse cx="20" cy="975.8047" fill="none" rx="3" ry="3" style="stroke:#038048;stroke-width:1.0;"/><text fill="#000000" font-family="sans-serif" font-size="14" lengthAdjust="spacing" textLength="134" x="29" y="979.1514">TimeFormat : string</text><polygon fill="none" points="20,987.1016,24,991.1016,20,995.1016,16,991.1016" style="stroke:#B38D22;stroke-width:1.0;"/><text fill="#000000" font-family="sans-serif" font-size="14" lengthAdjust="spacing" textLength="300" x="29" y="995.4482">providerExtendedOptions : FlatpickrOptions</text><line style="stroke:#272B30;stroke-width:0.5;" x1="10" x2="628" y1="1002.75" y2="1002.75"/><ellipse cx="20" cy="1016.3984" fill="#84BE84" rx="3" ry="3" style="stroke:#038048;stroke-width:1.0;"/><text fill="#000000" font-family="sans-serif" font-size="14" lengthAdjust="spacing" textLength="257" x="29" y="1019.7451">getProviderConfig() : FlatpickrOptions</text><ellipse cx="20" cy="1032.6953" fill="#84BE84" rx="3" ry="3" style="stroke:#038048;stroke-width:1.0;"/><text fill="#000000" font-family="sans-serif" font-size="14" lengthAdjust="spacing" textLength="406" x="29" y="1036.042">setExtensibilityConfigs(newConfigs: FlatpickrOptions) : void</text><ellipse cx="20" cy="1048.9922" fill="#84BE84" rx="3" ry="3" style="stroke:#038048;stroke-width:1.0;"/><text fill="#000000" font-family="sans-serif" font-size="14" lengthAdjust="spacing" textLength="412" x="29" y="1052.3389">validateCanChange(_isBuilt: boolean, _key: string) : boolean</text><ellipse cx="20" cy="1065.2891" fill="#84BE84" rx="3" ry="3" style="stroke:#038048;stroke-width:1.0;"/><text fill="#000000" font-family="sans-serif" font-size="14" lengthAdjust="spacing" textLength="377" x="29" y="1068.6357">validateDefault(key: string, value: unknown) : unknown</text><polygon fill="#FFFF44" points="20,1076.5859,24,1080.5859,20,1084.5859,16,1080.5859" style="stroke:#B38D22;stroke-width:1.0;"/><text fill="#000000" font-family="sans-serif" font-size="14" lengthAdjust="spacing" textLength="594" x="29" y="1084.9326">mergeConfigs(commonConfigs: any, specificConfigs: any, extendedConfigs: any) : any</text><polygon fill="#FFFF44" points="20,1092.8828,24,1096.8828,20,1100.8828,16,1096.8828" style="stroke:#B38D22;stroke-width:1.0;"/><text fill="#000000" font-family="sans-serif" font-size="14" lengthAdjust="spacing" textLength="447" x="29" y="1101.2295">validateBoolean(value: boolean, defaultValue: boolean) : boolean</text><polygon fill="#FFFF44" points="20,1109.1797,24,1113.1797,20,1117.1797,16,1113.1797" style="stroke:#B38D22;stroke-width:1.0;"/><text fill="#000000" font-family="sans-serif" font-size="14" lengthAdjust="spacing" textLength="464" x="29" y="1117.5264">validateDate(value: string | Date, defaultValue: string) : string | Date</text><polygon fill="#FFFF44" points="20,1125.4766,24,1129.4766,20,1133.4766,16,1129.4766" style="stroke:#B38D22;stroke-width:1.0;"/><text fill="#000000" font-family="sans-serif" font-size="14" lengthAdjust="spacing" textLength="592" x="29" y="1133.8232">validateInRange(value: unknown, defaultValue: unknown, args: unknown[]) : unknown</text><polygon fill="#FFFF44" points="20,1141.7734,24,1145.7734,20,1149.7734,16,1145.7734" style="stroke:#B38D22;stroke-width:1.0;"/><text fill="#000000" font-family="sans-serif" font-size="14" lengthAdjust="spacing" textLength="439" x="29" y="1150.1201">validateNumber(value: number, defaultValue: number) : number</text><polygon fill="#FFFF44" points="20,1158.0703,24,1162.0703,20,1166.0703,16,1162.0703" style="stroke:#B38D22;stroke-width:1.0;"/><text fill="#000000" font-family="sans-serif" font-size="14" lengthAdjust="spacing" textLength="379" x="29" y="1166.417">validateString(value: string, defaultValue: string) : string</text><polygon fill="#FFFF44" points="20,1174.3672,24,1178.3672,20,1182.3672,16,1178.3672" style="stroke:#B38D22;stroke-width:1.0;"/><text fill="#000000" font-family="sans-serif" font-size="14" lengthAdjust="spacing" textLength="373" x="29" y="1182.7139">validateTime(value: string, defaultValue: string) : string</text><rect fill="#F24D5C" height="6" style="stroke:#C82930;stroke-width:1.0;" width="6" x="17" y="1192.6641"/><text fill="#000000" font-family="sans-serif" font-size="14" lengthAdjust="spacing" textLength="183" x="29" y="1199.0107">_setDefaultDate() : string[]</text></g><!--class AbstractFlatpickrConfig--><g id="elem_AbstractFlatpickrConfig"><rect codeLine="37" fill="#FFFFFF" height="634.6875" id="AbstractFlatpickrConfig" rx="2.5" ry="2.5" style="stroke:#272B30;stroke-width:0.5;" width="620" x="9" y="7"/><ellipse cx="235.75" cy="23" fill="#A9DCDF" rx="11" ry="11" style="stroke:#181818;stroke-width:1.0;"/><path d="M235.8594,18.3438 L234.7031,23.4219 L237.0313,23.4219 L235.8594,18.3438 Z M234.375,16.1094 L237.3594,16.1094 L240.7188,28.5 L238.2656,28.5 L237.5,25.4375 L234.2188,25.4375 L233.4688,28.5 L231.0313,28.5 L234.375,16.1094 Z " fill="#000000"/><text fill="#000000" font-family="sans-serif" font-size="14" font-style="italic" lengthAdjust="spacing" textLength="158" x="256.25" y="27.8467">AbstractFlatpickrConfig</text><line style="stroke:#272B30;stroke-width:0.5;" x1="10" x2="628" y1="39" y2="39"/><ellipse cx="20" cy="52.6484" fill="none" rx="3" ry="3" style="stroke:#038048;stroke-width:1.0;"/><text fill="#000000" font-family="sans-serif" font-size="14" lengthAdjust="spacing" textLength="139" x="29" y="55.9951">AllowInput : boolean</text><ellipse cx="20" cy="68.9453" fill="none" rx="3" ry="3" style="stroke:#038048;stroke-width:1.0;"/><text fill="#000000" font-family="sans-serif" font-size="14" lengthAdjust="spacing" textLength="152" x="29" y="72.292">CalendarMode : Mode</text><ellipse cx="20" cy="85.2422" fill="none" rx="3" ry="3" style="stroke:#038048;stroke-width:1.0;"/><text fill="#000000" font-family="sans-serif" font-size="14" lengthAdjust="spacing" textLength="133" x="29" y="88.5889">DateFormat : string</text><ellipse cx="20" cy="101.5391" fill="none" rx="3" ry="3" style="stroke:#038048;stroke-width:1.0;"/><text fill="#000000" font-family="sans-serif" font-size="14" lengthAdjust="spacing" textLength="98" x="29" y="104.8857">Disable : any[]</text><ellipse cx="20" cy="117.8359" fill="none" rx="3" ry="3" style="stroke:#038048;stroke-width:1.0;"/><text fill="#000000" font-family="sans-serif" font-size="14" lengthAdjust="spacing" textLength="165" x="29" y="121.1826">DisableMobile : boolean</text><ellipse cx="20" cy="134.1328" fill="none" rx="3" ry="3" style="stroke:#038048;stroke-width:1.0;"/><text fill="#000000" font-family="sans-serif" font-size="14" lengthAdjust="spacing" textLength="155" x="29" y="137.4795">ExtendedClass : string</text><ellipse cx="20" cy="150.4297" fill="none" rx="3" ry="3" style="stroke:#038048;stroke-width:1.0;"/><text fill="#000000" font-family="sans-serif" font-size="14" lengthAdjust="spacing" textLength="161" x="29" y="153.7764">FirstWeekDay : number</text><ellipse cx="20" cy="166.7266" fill="none" rx="3" ry="3" style="stroke:#038048;stroke-width:1.0;"/><text fill="#000000" font-family="sans-serif" font-size="14" lengthAdjust="spacing" textLength="112" x="29" y="170.0732">MaxDate : string</text><ellipse cx="20" cy="183.0234" fill="none" rx="3" ry="3" style="stroke:#038048;stroke-width:1.0;"/><text fill="#000000" font-family="sans-serif" font-size="14" lengthAdjust="spacing" textLength="109" x="29" y="186.3701">MinDate : string</text><ellipse cx="20" cy="199.3203" fill="none" rx="3" ry="3" style="stroke:#038048;stroke-width:1.0;"/><text fill="#000000" font-family="sans-serif" font-size="14" lengthAdjust="spacing" textLength="141" x="29" y="202.667">OnChange : Generic</text><ellipse cx="20" cy="215.6172" fill="none" rx="3" ry="3" style="stroke:#038048;stroke-width:1.0;"/><text fill="#000000" font-family="sans-serif" font-size="14" lengthAdjust="spacing" textLength="196" x="29" y="218.9639">ShowTodayButton : boolean</text><ellipse cx="20" cy="231.9141" fill="none" rx="3" ry="3" style="stroke:#038048;stroke-width:1.0;"/><text fill="#000000" font-family="sans-serif" font-size="14" lengthAdjust="spacing" textLength="209" x="29" y="235.2607">ShowWeekNumbers : boolean</text><ellipse cx="20" cy="248.2109" fill="none" rx="3" ry="3" style="stroke:#038048;stroke-width:1.0;"/><text fill="#000000" font-family="sans-serif" font-size="14" lengthAdjust="spacing" textLength="134" x="29" y="251.5576">TimeFormat : string</text><polygon fill="none" points="20,259.5078,24,263.5078,20,267.5078,16,263.5078" style="stroke:#B38D22;stroke-width:1.0;"/><text fill="#000000" font-family="sans-serif" font-size="14" lengthAdjust="spacing" textLength="300" x="29" y="267.8545">providerExtendedOptions : FlatpickrOptions</text><rect fill="none" height="6" style="stroke:#C82930;stroke-width:1.0;" width="6" x="17" y="277.8047"/><text fill="#000000" font-family="sans-serif" font-size="14" lengthAdjust="spacing" textLength="146" x="29" y="284.1514">_disabledDays : any[]</text><rect fill="none" height="6" style="stroke:#C82930;stroke-width:1.0;" width="6" x="17" y="294.1016"/><text fill="#000000" font-family="sans-serif" font-size="14" lengthAdjust="spacing" textLength="185" x="29" y="300.4482">_disabledWeekDays : any[]</text><rect fill="none" height="6" style="stroke:#C82930;stroke-width:1.0;" width="6" x="17" y="310.3984"/><text fill="#000000" font-family="sans-serif" font-size="14" lengthAdjust="spacing" textLength="193" x="29" y="316.7451">_isUsingDateTime : boolean</text><rect fill="none" height="6" style="stroke:#C82930;stroke-width:1.0;" width="6" x="17" y="326.6953"/><text fill="#000000" font-family="sans-serif" font-size="14" lengthAdjust="spacing" textLength="88" x="29" y="333.042">_lang : string</text><rect fill="none" height="6" style="stroke:#C82930;stroke-width:1.0;" width="6" x="17" y="342.9922"/><text fill="#000000" font-family="sans-serif" font-size="14" lengthAdjust="spacing" textLength="241" x="29" y="349.3389">_providerOptions : FlatpickrOptions</text><line style="stroke:#272B30;stroke-width:0.5;" x1="10" x2="628" y1="356.6406" y2="356.6406"/><ellipse cx="20" cy="370.2891" fill="#84BE84" rx="3" ry="3" style="stroke:#038048;stroke-width:1.0;"/><text fill="#000000" font-family="sans-serif" font-size="14" lengthAdjust="spacing" textLength="257" x="29" y="373.6357">getProviderConfig() : FlatpickrOptions</text><ellipse cx="20" cy="386.5859" fill="#84BE84" rx="3" ry="3" style="stroke:#038048;stroke-width:1.0;"/><text fill="#000000" font-family="sans-serif" font-size="14" lengthAdjust="spacing" textLength="406" x="29" y="389.9326">setExtensibilityConfigs(newConfigs: FlatpickrOptions) : void</text><ellipse cx="20" cy="402.8828" fill="#84BE84" rx="3" ry="3" style="stroke:#038048;stroke-width:1.0;"/><text fill="#000000" font-family="sans-serif" font-size="14" lengthAdjust="spacing" textLength="412" x="29" y="406.2295">validateCanChange(_isBuilt: boolean, _key: string) : boolean</text><ellipse cx="20" cy="419.1797" fill="#84BE84" rx="3" ry="3" style="stroke:#038048;stroke-width:1.0;"/><text fill="#000000" font-family="sans-serif" font-size="14" lengthAdjust="spacing" textLength="377" x="29" y="422.5264">validateDefault(key: string, value: unknown) : unknown</text><polygon fill="#FFFF44" points="20,430.4766,24,434.4766,20,438.4766,16,434.4766" style="stroke:#B38D22;stroke-width:1.0;"/><text fill="#000000" font-family="sans-serif" font-size="14" lengthAdjust="spacing" textLength="594" x="29" y="438.8232">mergeConfigs(commonConfigs: any, specificConfigs: any, extendedConfigs: any) : any</text><polygon fill="#FFFF44" points="20,446.7734,24,450.7734,20,454.7734,16,450.7734" style="stroke:#B38D22;stroke-width:1.0;"/><text fill="#000000" font-family="sans-serif" font-size="14" lengthAdjust="spacing" textLength="447" x="29" y="455.1201">validateBoolean(value: boolean, defaultValue: boolean) : boolean</text><polygon fill="#FFFF44" points="20,463.0703,24,467.0703,20,471.0703,16,467.0703" style="stroke:#B38D22;stroke-width:1.0;"/><text fill="#000000" font-family="sans-serif" font-size="14" lengthAdjust="spacing" textLength="464" x="29" y="471.417">validateDate(value: string | Date, defaultValue: string) : string | Date</text><polygon fill="#FFFF44" points="20,479.3672,24,483.3672,20,487.3672,16,483.3672" style="stroke:#B38D22;stroke-width:1.0;"/><text fill="#000000" font-family="sans-serif" font-size="14" lengthAdjust="spacing" textLength="592" x="29" y="487.7139">validateInRange(value: unknown, defaultValue: unknown, args: unknown[]) : unknown</text><polygon fill="#FFFF44" points="20,495.6641,24,499.6641,20,503.6641,16,499.6641" style="stroke:#B38D22;stroke-width:1.0;"/><text fill="#000000" font-family="sans-serif" font-size="14" lengthAdjust="spacing" textLength="439" x="29" y="504.0107">validateNumber(value: number, defaultValue: number) : number</text><polygon fill="#FFFF44" points="20,511.9609,24,515.9609,20,519.9609,16,515.9609" style="stroke:#B38D22;stroke-width:1.0;"/><text fill="#000000" font-family="sans-serif" font-size="14" lengthAdjust="spacing" textLength="379" x="29" y="520.3076">validateString(value: string, defaultValue: string) : string</text><polygon fill="#FFFF44" points="20,528.2578,24,532.2578,20,536.2578,16,532.2578" style="stroke:#B38D22;stroke-width:1.0;"/><text fill="#000000" font-family="sans-serif" font-size="14" lengthAdjust="spacing" textLength="373" x="29" y="536.6045">validateTime(value: string, defaultValue: string) : string</text><rect fill="#F24D5C" height="6" style="stroke:#C82930;stroke-width:1.0;" width="6" x="17" y="546.5547"/><text fill="#000000" font-family="sans-serif" font-size="14" lengthAdjust="spacing" textLength="176" x="29" y="552.9014">_checkAltFormat() : string</text><rect fill="#F24D5C" height="6" style="stroke:#C82930;stroke-width:1.0;" width="6" x="17" y="562.8516"/><text fill="#000000" font-family="sans-serif" font-size="14" lengthAdjust="spacing" textLength="325" x="29" y="569.1982">_checkDisableWeeksDay(date: Date) : boolean</text><rect fill="#F24D5C" height="6" style="stroke:#C82930;stroke-width:1.0;" width="6" x="17" y="579.1484"/><text fill="#000000" font-family="sans-serif" font-size="14" lengthAdjust="spacing" textLength="214" x="29" y="585.4951">_checkLocale() : CustomLocale</text><rect fill="#F24D5C" height="6" style="stroke:#C82930;stroke-width:1.0;" width="6" x="17" y="595.4453"/><text fill="#000000" font-family="sans-serif" font-size="14" lengthAdjust="spacing" textLength="236" x="29" y="601.792">_mapProviderDateFormat() : string</text><rect fill="#F24D5C" height="6" style="stroke:#C82930;stroke-width:1.0;" width="6" x="17" y="611.7422"/><text fill="#000000" font-family="sans-serif" font-size="14" lengthAdjust="spacing" textLength="131" x="29" y="618.0889">_setDisable() : void</text><rect fill="#F24D5C" height="6" style="stroke:#C82930;stroke-width:1.0;" width="6" x="17" y="628.0391"/><text fill="#000000" font-family="sans-serif" font-size="14" lengthAdjust="spacing" textLength="279" x="29" y="634.3857">_validateDate(date: string) : string | Date</text></g><!--reverse link AbstractFlatpickrConfig to FlatpickrRangeDateConfig--><g id="link_AbstractFlatpickrConfig_FlatpickrRangeDateConfig"><path codeLine="75" d="M319,660.01 C319,680.11 319,682.2 319,701.94 " fill="none" id="AbstractFlatpickrConfig-backto-FlatpickrRangeDateConfig" style="stroke:#272B30;stroke-width:1.0;"/><polygon fill="none" points="319,642.01,313,660.01,325,660.01,319,642.01" style="stroke:#272B30;stroke-width:1.0;"/></g><!--SRC=[xLRVQzim47xFNo7Q5uSrCBh18EmbFzfHMDUnTjj3AU5YdHDXMJAItDIi_TydMR8JEMa7UopDI-plk_jqTxgxHETCbA2W83CEMa-KafkPv5AHuzDFfyiFxmSwjfXAHL6zR09flbAo4ZIOPLcsOxD7fqW_KXYi6KM2HMbgKg1PIwfteOmXjqZg3Y17vnnCoT9S_G2nmZaOd4cHiTKH-JCWzlDkmhdSN8YoCcHCbb9o1E6P6N0K5DIbjDfZuhuyuLJEfIh0kMYZc5W5WcbOScSCehwzYy1BkMGD5Prnzc3i6KYRSlJKpfdIvZTYFeVQKg8gbgWyTI6OOS3F17MnzFm2UMr0cGFq9JmSGfauW5w9sThLpS9VKA1YgSUlrt9p8odKqyeOAVfPETe5_gq9MVVf6rOShDzngUIzlKZLLkMgD4mAvzzTOu2yq0hDz-3YRpKPFckhqJIocjbxOARs3ZeHk0cF-vvExLuowXNkWJFg6WX2LP85qzEASTFbTq8METPjKiD-ugt273Eek4bsR4-89IiSaqhaGcw4ymsFlZO5gXMsGQUoAAJeuhRTTa9qYIdBM1gZs3RO3Zhq3UfrsvYcFj0aXD4bH7siloAudrcdudgebV29aKVYmBxGjaAHMQns8PgfJUBIzAKw69HBCBpUtksLi9NrRTcg-hdgYtfq6CzTft3Tn1md-gyCOmKt0__XFrhOFWxjqzHwozjzypI0fNs1r92m_YRXlUlirx3zNiy66osehu_TuxMEAhUbGX7wDDC_jJrt7fgf5-9emMtQ_UPfmtjRh6-BzMsnnhEHhZ7D9zpukKuEys6TkP7KTYOJT-AuAV1mRm0RXwyojOkqKPjLsiZ20y6aWBATi-rQJGxkV7zm4atEQ16rXm_ckGPu6Zp_Q_3vSJHwuR_oNm00]--></g></svg>