<?xml version="1.0" encoding="UTF-8" standalone="no"?><svg xmlns="http://www.w3.org/2000/svg" xmlns:xlink="http://www.w3.org/1999/xlink" contentScriptType="application/ecmascript" contentStyleType="text/css" height="970px" preserveAspectRatio="none" style="width:542px;height:970px;background:#CED4DA;" version="1.1" viewBox="0 0 542 970" width="542px" zoomAndPan="magnify"><defs><filter height="300%" id="f12zi1sgwsqsul" width="300%" x="-1" y="-1"><feGaussianBlur result="blurOut" stdDeviation="2.0"/><feColorMatrix in="blurOut" result="blurOut2" type="matrix" values="0 0 0 0 0 0 0 0 0 0 0 0 0 0 0 0 0 0 .4 0"/><feOffset dx="4.0" dy="4.0" in="blurOut2" result="blurOut3"/><feBlend in="SourceGraphic" in2="blurOut3" mode="normal"/></filter></defs><g><!--MD5=[53d53903351628601b8dce17181f1097]
class FlatpickrRangeDateConfig--><rect codeLine="7" fill="#FFFFFF" filter="url(#f12zi1sgwsqsul)" height="406.5313" id="FlatpickrRangeDateConfig" style="stroke:#272B30;stroke-width:1.5;" width="519" x="9" y="550"/><ellipse cx="183.25" cy="566" fill="#ADD1B2" rx="11" ry="11" style="stroke:#272B30;stroke-width:1.0;"/><path d="M186.2188,571.6406 Q185.6406,571.9375 185,572.0781 Q184.3594,572.2344 183.6563,572.2344 Q181.1563,572.2344 179.8281,570.5938 Q178.5156,568.9375 178.5156,565.8125 Q178.5156,562.6875 179.8281,561.0313 Q181.1563,559.375 183.6563,559.375 Q184.3594,559.375 185,559.5313 Q185.6563,559.6875 186.2188,559.9844 L186.2188,562.7031 Q185.5938,562.125 185,561.8594 Q184.4063,561.5781 183.7813,561.5781 Q182.4375,561.5781 181.75,562.6563 Q181.0625,563.7188 181.0625,565.8125 Q181.0625,567.9063 181.75,568.9844 Q182.4375,570.0469 183.7813,570.0469 Q184.4063,570.0469 185,569.7813 Q185.5938,569.5 186.2188,568.9219 L186.2188,571.6406 Z " fill="#000000"/><text fill="#000000" font-family="sans-serif" font-size="12" lengthAdjust="spacing" textLength="162" x="203.75" y="570.1543">FlatpickrRangeDateConfig</text><line style="stroke:#272B30;stroke-width:1.5;" x1="10" x2="527" y1="582" y2="582"/><ellipse cx="20" cy="593" rx="3" ry="3" style="stroke:#038048;stroke-width:1.0;fill:none;"/><text fill="#000000" font-family="sans-serif" font-size="11" lengthAdjust="spacing" textLength="114" x="29" y="596.2104">AllowInput : boolean</text><ellipse cx="20" cy="605.8047" rx="3" ry="3" style="stroke:#038048;stroke-width:1.0;fill:none;"/><text fill="#000000" font-family="sans-serif" font-size="11" lengthAdjust="spacing" textLength="123" x="29" y="609.0151">CalendarMode : Mode</text><ellipse cx="20" cy="618.6094" rx="3" ry="3" style="stroke:#038048;stroke-width:1.0;fill:none;"/><text fill="#000000" font-family="sans-serif" font-size="11" lengthAdjust="spacing" textLength="111" x="29" y="621.8198">DateFormat : string</text><ellipse cx="20" cy="631.4141" rx="3" ry="3" style="stroke:#038048;stroke-width:1.0;fill:none;"/><text fill="#000000" font-family="sans-serif" font-size="11" lengthAdjust="spacing" textLength="82" x="29" y="634.6245">Disable : any[]</text><ellipse cx="20" cy="644.2188" rx="3" ry="3" style="stroke:#038048;stroke-width:1.0;fill:none;"/><text fill="#000000" font-family="sans-serif" font-size="11" lengthAdjust="spacing" textLength="135" x="29" y="647.4292">DisableMobile : boolean</text><ellipse cx="20" cy="657.0234" rx="3" ry="3" style="stroke:#038048;stroke-width:1.0;fill:none;"/><text fill="#000000" font-family="sans-serif" font-size="11" lengthAdjust="spacing" textLength="129" x="29" y="660.2339">ExtendedClass : string</text><ellipse cx="20" cy="669.8281" rx="3" ry="3" style="stroke:#038048;stroke-width:1.0;fill:none;"/><text fill="#000000" font-family="sans-serif" font-size="11" lengthAdjust="spacing" textLength="131" x="29" y="673.0386">FirstWeekDay : number</text><ellipse cx="20" cy="682.6328" rx="3" ry="3" style="stroke:#038048;stroke-width:1.0;fill:none;"/><text fill="#000000" font-family="sans-serif" font-size="11" lengthAdjust="spacing" textLength="122" x="29" y="685.8433">InitialEndDate : string</text><ellipse cx="20" cy="695.4375" rx="3" ry="3" style="stroke:#038048;stroke-width:1.0;fill:none;"/><text fill="#000000" font-family="sans-serif" font-size="11" lengthAdjust="spacing" textLength="129" x="29" y="698.6479">InitialStartDate : string</text><ellipse cx="20" cy="708.2422" rx="3" ry="3" style="stroke:#038048;stroke-width:1.0;fill:none;"/><text fill="#000000" font-family="sans-serif" font-size="11" lengthAdjust="spacing" textLength="93" x="29" y="711.4526">MaxDate : string</text><ellipse cx="20" cy="721.0469" rx="3" ry="3" style="stroke:#038048;stroke-width:1.0;fill:none;"/><text fill="#000000" font-family="sans-serif" font-size="11" lengthAdjust="spacing" textLength="90" x="29" y="724.2573">MinDate : string</text><ellipse cx="20" cy="733.8516" rx="3" ry="3" style="stroke:#038048;stroke-width:1.0;fill:none;"/><text fill="#000000" font-family="sans-serif" font-size="11" lengthAdjust="spacing" textLength="115" x="29" y="737.062">OnChange : Generic</text><ellipse cx="20" cy="746.6563" rx="3" ry="3" style="stroke:#038048;stroke-width:1.0;fill:none;"/><text fill="#000000" font-family="sans-serif" font-size="11" lengthAdjust="spacing" textLength="159" x="29" y="749.8667">ShowTodayButton : boolean</text><ellipse cx="20" cy="759.4609" rx="3" ry="3" style="stroke:#038048;stroke-width:1.0;fill:none;"/><text fill="#000000" font-family="sans-serif" font-size="11" lengthAdjust="spacing" textLength="169" x="29" y="762.6714">ShowWeekNumbers : boolean</text><ellipse cx="20" cy="772.2656" rx="3" ry="3" style="stroke:#038048;stroke-width:1.0;fill:none;"/><text fill="#000000" font-family="sans-serif" font-size="11" lengthAdjust="spacing" textLength="113" x="29" y="775.4761">TimeFormat : string</text><polygon fill="none" points="20,780.0703,24,784.0703,20,788.0703,16,784.0703" style="stroke:#B38D22;stroke-width:1.0;"/><text fill="#000000" font-family="sans-serif" font-size="11" lengthAdjust="spacing" textLength="252" x="29" y="788.2808">_providerExtendedOptions : FlatpickrOptions</text><line style="stroke:#272B30;stroke-width:1.5;" x1="10" x2="527" y1="794.875" y2="794.875"/><ellipse cx="20" cy="805.875" fill="#84BE84" rx="3" ry="3" style="stroke:#038048;stroke-width:1.0;"/><text fill="#000000" font-family="sans-serif" font-size="11" lengthAdjust="spacing" textLength="212" x="29" y="809.0854">getProviderConfig() : FlatpickrOptions</text><ellipse cx="20" cy="818.6797" fill="#84BE84" rx="3" ry="3" style="stroke:#038048;stroke-width:1.0;"/><text fill="#000000" font-family="sans-serif" font-size="11" lengthAdjust="spacing" textLength="336" x="29" y="821.8901">setExtensibilityConfigs(newConfigs: FlatpickrOptions) : void</text><ellipse cx="20" cy="831.4844" fill="#84BE84" rx="3" ry="3" style="stroke:#038048;stroke-width:1.0;"/><text fill="#000000" font-family="sans-serif" font-size="11" lengthAdjust="spacing" textLength="342" x="29" y="834.6948">validateCanChange(_isBuilt: boolean, _key: string) : boolean</text><ellipse cx="20" cy="844.2891" fill="#84BE84" rx="3" ry="3" style="stroke:#038048;stroke-width:1.0;"/><text fill="#000000" font-family="sans-serif" font-size="11" lengthAdjust="spacing" textLength="310" x="29" y="847.4995">validateDefault(key: string, value: unknown) : unknown</text><polygon fill="#FFFF44" points="20,852.0938,24,856.0938,20,860.0938,16,856.0938" style="stroke:#B38D22;stroke-width:1.0;"/><text fill="#000000" font-family="sans-serif" font-size="11" lengthAdjust="spacing" textLength="493" x="29" y="860.3042">mergeConfigs(commonConfigs: any, specificConfigs: any, extendedConfigs: any) : any</text><polygon fill="#FFFF44" points="20,864.8984,24,868.8984,20,872.8984,16,868.8984" style="stroke:#B38D22;stroke-width:1.0;"/><text fill="#000000" font-family="sans-serif" font-size="11" lengthAdjust="spacing" textLength="369" x="29" y="873.1089">validateBoolean(value: boolean, defaultValue: boolean) : boolean</text><polygon fill="#FFFF44" points="20,877.7031,24,881.7031,20,885.7031,16,881.7031" style="stroke:#B38D22;stroke-width:1.0;"/><text fill="#000000" font-family="sans-serif" font-size="11" lengthAdjust="spacing" textLength="389" x="29" y="885.9136">validateDate(value: string | Date, defaultValue: string) : string | Date</text><polygon fill="#FFFF44" points="20,890.5078,24,894.5078,20,898.5078,16,894.5078" style="stroke:#B38D22;stroke-width:1.0;"/><text fill="#000000" font-family="sans-serif" font-size="11" lengthAdjust="spacing" textLength="483" x="29" y="898.7183">validateInRange(value: unknown, defaultValue: unknown, args: unknown[]) : unknown</text><polygon fill="#FFFF44" points="20,903.3125,24,907.3125,20,911.3125,16,907.3125" style="stroke:#B38D22;stroke-width:1.0;"/><text fill="#000000" font-family="sans-serif" font-size="11" lengthAdjust="spacing" textLength="365" x="29" y="911.5229">validateNumber(value: number, defaultValue: number) : number</text><polygon fill="#FFFF44" points="20,916.1172,24,920.1172,20,924.1172,16,920.1172" style="stroke:#B38D22;stroke-width:1.0;"/><text fill="#000000" font-family="sans-serif" font-size="11" lengthAdjust="spacing" textLength="321" x="29" y="924.3276">validateString(value: string, defaultValue: string) : string</text><polygon fill="#FFFF44" points="20,928.9219,24,932.9219,20,936.9219,16,932.9219" style="stroke:#B38D22;stroke-width:1.0;"/><text fill="#000000" font-family="sans-serif" font-size="11" lengthAdjust="spacing" textLength="315" x="29" y="937.1323">validateTime(value: string, defaultValue: string) : string</text><rect fill="#F24D5C" height="6" style="stroke:#C82930;stroke-width:1.0;" width="6" x="17" y="943.7266"/><text fill="#000000" font-family="sans-serif" font-size="11" lengthAdjust="spacing" textLength="151" x="29" y="949.937">_setDefaultDate() : string[]</text><!--MD5=[2ee60d4cd41bf605aef3f90cc9d1cc0d]
class AbstractFlatpickrConfig--><rect codeLine="37" fill="#FFFFFF" filter="url(#f12zi1sgwsqsul)" height="483.3594" id="AbstractFlatpickrConfig" style="stroke:#272B30;stroke-width:1.5;" width="519" x="9" y="7"/><ellipse cx="192.25" cy="23" fill="#A9DCDF" rx="11" ry="11" style="stroke:#272B30;stroke-width:1.0;"/><path d="M192.3594,18.3438 L191.2031,23.4219 L193.5313,23.4219 L192.3594,18.3438 Z M190.875,16.1094 L193.8594,16.1094 L197.2188,28.5 L194.7656,28.5 L194,25.4375 L190.7188,25.4375 L189.9688,28.5 L187.5313,28.5 L190.875,16.1094 Z " fill="#000000"/><text fill="#000000" font-family="sans-serif" font-size="12" font-style="italic" lengthAdjust="spacing" textLength="144" x="212.75" y="27.1543">AbstractFlatpickrConfig</text><line style="stroke:#272B30;stroke-width:1.5;" x1="10" x2="527" y1="39" y2="39"/><ellipse cx="20" cy="50" rx="3" ry="3" style="stroke:#038048;stroke-width:1.0;fill:none;"/><text fill="#000000" font-family="sans-serif" font-size="11" lengthAdjust="spacing" textLength="114" x="29" y="53.2104">AllowInput : boolean</text><ellipse cx="20" cy="62.8047" rx="3" ry="3" style="stroke:#038048;stroke-width:1.0;fill:none;"/><text fill="#000000" font-family="sans-serif" font-size="11" lengthAdjust="spacing" textLength="123" x="29" y="66.0151">CalendarMode : Mode</text><ellipse cx="20" cy="75.6094" rx="3" ry="3" style="stroke:#038048;stroke-width:1.0;fill:none;"/><text fill="#000000" font-family="sans-serif" font-size="11" lengthAdjust="spacing" textLength="111" x="29" y="78.8198">DateFormat : string</text><ellipse cx="20" cy="88.4141" rx="3" ry="3" style="stroke:#038048;stroke-width:1.0;fill:none;"/><text fill="#000000" font-family="sans-serif" font-size="11" lengthAdjust="spacing" textLength="82" x="29" y="91.6245">Disable : any[]</text><ellipse cx="20" cy="101.2188" rx="3" ry="3" style="stroke:#038048;stroke-width:1.0;fill:none;"/><text fill="#000000" font-family="sans-serif" font-size="11" lengthAdjust="spacing" textLength="135" x="29" y="104.4292">DisableMobile : boolean</text><ellipse cx="20" cy="114.0234" rx="3" ry="3" style="stroke:#038048;stroke-width:1.0;fill:none;"/><text fill="#000000" font-family="sans-serif" font-size="11" lengthAdjust="spacing" textLength="129" x="29" y="117.2339">ExtendedClass : string</text><ellipse cx="20" cy="126.8281" rx="3" ry="3" style="stroke:#038048;stroke-width:1.0;fill:none;"/><text fill="#000000" font-family="sans-serif" font-size="11" lengthAdjust="spacing" textLength="131" x="29" y="130.0386">FirstWeekDay : number</text><ellipse cx="20" cy="139.6328" rx="3" ry="3" style="stroke:#038048;stroke-width:1.0;fill:none;"/><text fill="#000000" font-family="sans-serif" font-size="11" lengthAdjust="spacing" textLength="93" x="29" y="142.8433">MaxDate : string</text><ellipse cx="20" cy="152.4375" rx="3" ry="3" style="stroke:#038048;stroke-width:1.0;fill:none;"/><text fill="#000000" font-family="sans-serif" font-size="11" lengthAdjust="spacing" textLength="90" x="29" y="155.6479">MinDate : string</text><ellipse cx="20" cy="165.2422" rx="3" ry="3" style="stroke:#038048;stroke-width:1.0;fill:none;"/><text fill="#000000" font-family="sans-serif" font-size="11" lengthAdjust="spacing" textLength="115" x="29" y="168.4526">OnChange : Generic</text><ellipse cx="20" cy="178.0469" rx="3" ry="3" style="stroke:#038048;stroke-width:1.0;fill:none;"/><text fill="#000000" font-family="sans-serif" font-size="11" lengthAdjust="spacing" textLength="159" x="29" y="181.2573">ShowTodayButton : boolean</text><ellipse cx="20" cy="190.8516" rx="3" ry="3" style="stroke:#038048;stroke-width:1.0;fill:none;"/><text fill="#000000" font-family="sans-serif" font-size="11" lengthAdjust="spacing" textLength="169" x="29" y="194.062">ShowWeekNumbers : boolean</text><ellipse cx="20" cy="203.6563" rx="3" ry="3" style="stroke:#038048;stroke-width:1.0;fill:none;"/><text fill="#000000" font-family="sans-serif" font-size="11" lengthAdjust="spacing" textLength="113" x="29" y="206.8667">TimeFormat : string</text><polygon fill="none" points="20,211.4609,24,215.4609,20,219.4609,16,215.4609" style="stroke:#B38D22;stroke-width:1.0;"/><text fill="#000000" font-family="sans-serif" font-size="11" lengthAdjust="spacing" textLength="252" x="29" y="219.6714">_providerExtendedOptions : FlatpickrOptions</text><rect fill="none" height="6" style="stroke:#C82930;stroke-width:1.0;" width="6" x="17" y="226.2656"/><text fill="#000000" font-family="sans-serif" font-size="11" lengthAdjust="spacing" textLength="122" x="29" y="232.4761">_disabledDays : any[]</text><rect fill="none" height="6" style="stroke:#C82930;stroke-width:1.0;" width="6" x="17" y="239.0703"/><text fill="#000000" font-family="sans-serif" font-size="11" lengthAdjust="spacing" textLength="151" x="29" y="245.2808">_disabledWeekDays : any[]</text><rect fill="none" height="6" style="stroke:#C82930;stroke-width:1.0;" width="6" x="17" y="251.875"/><text fill="#000000" font-family="sans-serif" font-size="11" lengthAdjust="spacing" textLength="75" x="29" y="258.0854">_lang : string</text><rect fill="none" height="6" style="stroke:#C82930;stroke-width:1.0;" width="6" x="17" y="264.6797"/><text fill="#000000" font-family="sans-serif" font-size="11" lengthAdjust="spacing" textLength="200" x="29" y="270.8901">_providerOptions : FlatpickrOptions</text><line style="stroke:#272B30;stroke-width:1.5;" x1="10" x2="527" y1="277.4844" y2="277.4844"/><ellipse cx="20" cy="288.4844" fill="#84BE84" rx="3" ry="3" style="stroke:#038048;stroke-width:1.0;"/><text fill="#000000" font-family="sans-serif" font-size="11" lengthAdjust="spacing" textLength="212" x="29" y="291.6948">getProviderConfig() : FlatpickrOptions</text><ellipse cx="20" cy="301.2891" fill="#84BE84" rx="3" ry="3" style="stroke:#038048;stroke-width:1.0;"/><text fill="#000000" font-family="sans-serif" font-size="11" lengthAdjust="spacing" textLength="336" x="29" y="304.4995">setExtensibilityConfigs(newConfigs: FlatpickrOptions) : void</text><ellipse cx="20" cy="314.0938" fill="#84BE84" rx="3" ry="3" style="stroke:#038048;stroke-width:1.0;"/><text fill="#000000" font-family="sans-serif" font-size="11" lengthAdjust="spacing" textLength="342" x="29" y="317.3042">validateCanChange(_isBuilt: boolean, _key: string) : boolean</text><ellipse cx="20" cy="326.8984" fill="#84BE84" rx="3" ry="3" style="stroke:#038048;stroke-width:1.0;"/><text fill="#000000" font-family="sans-serif" font-size="11" lengthAdjust="spacing" textLength="310" x="29" y="330.1089">validateDefault(key: string, value: unknown) : unknown</text><polygon fill="#FFFF44" points="20,334.7031,24,338.7031,20,342.7031,16,338.7031" style="stroke:#B38D22;stroke-width:1.0;"/><text fill="#000000" font-family="sans-serif" font-size="11" lengthAdjust="spacing" textLength="493" x="29" y="342.9136">mergeConfigs(commonConfigs: any, specificConfigs: any, extendedConfigs: any) : any</text><polygon fill="#FFFF44" points="20,347.5078,24,351.5078,20,355.5078,16,351.5078" style="stroke:#B38D22;stroke-width:1.0;"/><text fill="#000000" font-family="sans-serif" font-size="11" lengthAdjust="spacing" textLength="369" x="29" y="355.7183">validateBoolean(value: boolean, defaultValue: boolean) : boolean</text><polygon fill="#FFFF44" points="20,360.3125,24,364.3125,20,368.3125,16,364.3125" style="stroke:#B38D22;stroke-width:1.0;"/><text fill="#000000" font-family="sans-serif" font-size="11" lengthAdjust="spacing" textLength="389" x="29" y="368.5229">validateDate(value: string | Date, defaultValue: string) : string | Date</text><polygon fill="#FFFF44" points="20,373.1172,24,377.1172,20,381.1172,16,377.1172" style="stroke:#B38D22;stroke-width:1.0;"/><text fill="#000000" font-family="sans-serif" font-size="11" lengthAdjust="spacing" textLength="483" x="29" y="381.3276">validateInRange(value: unknown, defaultValue: unknown, args: unknown[]) : unknown</text><polygon fill="#FFFF44" points="20,385.9219,24,389.9219,20,393.9219,16,389.9219" style="stroke:#B38D22;stroke-width:1.0;"/><text fill="#000000" font-family="sans-serif" font-size="11" lengthAdjust="spacing" textLength="365" x="29" y="394.1323">validateNumber(value: number, defaultValue: number) : number</text><polygon fill="#FFFF44" points="20,398.7266,24,402.7266,20,406.7266,16,402.7266" style="stroke:#B38D22;stroke-width:1.0;"/><text fill="#000000" font-family="sans-serif" font-size="11" lengthAdjust="spacing" textLength="321" x="29" y="406.937">validateString(value: string, defaultValue: string) : string</text><polygon fill="#FFFF44" points="20,411.5313,24,415.5313,20,419.5313,16,415.5313" style="stroke:#B38D22;stroke-width:1.0;"/><text fill="#000000" font-family="sans-serif" font-size="11" lengthAdjust="spacing" textLength="315" x="29" y="419.7417">validateTime(value: string, defaultValue: string) : string</text><rect fill="#F24D5C" height="6" style="stroke:#C82930;stroke-width:1.0;" width="6" x="17" y="426.3359"/><text fill="#000000" font-family="sans-serif" font-size="11" lengthAdjust="spacing" textLength="145" x="29" y="432.5464">_checkAltFormat() : string</text><rect fill="#F24D5C" height="6" style="stroke:#C82930;stroke-width:1.0;" width="6" x="17" y="439.1406"/><text fill="#000000" font-family="sans-serif" font-size="11" lengthAdjust="spacing" textLength="261" x="29" y="445.3511">_checkDisableWeeksDay(date: Date) : boolean</text><rect fill="#F24D5C" height="6" style="stroke:#C82930;stroke-width:1.0;" width="6" x="17" y="451.9453"/><text fill="#000000" font-family="sans-serif" font-size="11" lengthAdjust="spacing" textLength="174" x="29" y="458.1558">_checkLocale() : CustomLocale</text><rect fill="#F24D5C" height="6" style="stroke:#C82930;stroke-width:1.0;" width="6" x="17" y="464.75"/><text fill="#000000" font-family="sans-serif" font-size="11" lengthAdjust="spacing" textLength="197" x="29" y="470.9604">_mapProviderDateFormat() : string</text><rect fill="#F24D5C" height="6" style="stroke:#C82930;stroke-width:1.0;" width="6" x="17" y="477.5547"/><text fill="#000000" font-family="sans-serif" font-size="11" lengthAdjust="spacing" textLength="109" x="29" y="483.7651">_setDisable() : void</text><!--MD5=[59fa236cc3a956adb0335c2b44b6ab12]
reverse link AbstractFlatpickrConfig to FlatpickrRangeDateConfig--><path codeLine="73" d="M268.5,510.42 C268.5,523.66 268.5,536.87 268.5,549.89 " fill="none" id="AbstractFlatpickrConfig-backto-FlatpickrRangeDateConfig" style="stroke:#272B30;stroke-width:1.0;"/><polygon fill="none" points="261.5,510.32,268.5,490.32,275.5,510.32,261.5,510.32" style="stroke:#272B30;stroke-width:1.0;"/><!--MD5=[bafc66988030c33eb3ec2d5d9c7d9717]
@startuml
skinparam ClassArrowColor #272b30
skinparam ClassBorderColor #272b30
skinparam ClassBackgroundColor #fff
skinparam BackgroundColor #ced4da
hide empty methods
hide empty fields
class "FlatpickrRangeDateConfig" {
    +AllowInput : boolean
    +CalendarMode : Mode
    +DateFormat : string
    +Disable : any[]
    +DisableMobile : boolean
    +ExtendedClass : string
    +FirstWeekDay : number
    +InitialEndDate : string
    +InitialStartDate : string
    +MaxDate : string
    +MinDate : string
    +OnChange : Generic
    +ShowTodayButton : boolean
    +ShowWeekNumbers : boolean
    +TimeFormat : string
    #_providerExtendedOptions : FlatpickrOptions
    +getProviderConfig() : FlatpickrOptions
    +setExtensibilityConfigs(newConfigs: FlatpickrOptions) : void
    +validateCanChange(_isBuilt: boolean, _key: string) : boolean
    +validateDefault(key: string, value: unknown) : unknown
    #mergeConfigs(commonConfigs: any, specificConfigs: any, extendedConfigs: any) : any
    #validateBoolean(value: boolean, defaultValue: boolean) : boolean
    #validateDate(value: string | Date, defaultValue: string) : string | Date
    #validateInRange(value: unknown, defaultValue: unknown, args: unknown[]) : unknown
    #validateNumber(value: number, defaultValue: number) : number
    #validateString(value: string, defaultValue: string) : string
    #validateTime(value: string, defaultValue: string) : string
    -_setDefaultDate() : string[]
}
abstract class "AbstractFlatpickrConfig" {
    +AllowInput : boolean
    +CalendarMode : Mode
    +DateFormat : string
    +Disable : any[]
    +DisableMobile : boolean
    +ExtendedClass : string
    +FirstWeekDay : number
    +MaxDate : string
    +MinDate : string
    +OnChange : Generic
    +ShowTodayButton : boolean
    +ShowWeekNumbers : boolean
    +TimeFormat : string
    #_providerExtendedOptions : FlatpickrOptions
    -_disabledDays : any[]
    -_disabledWeekDays : any[]
    -_lang : string
    -_providerOptions : FlatpickrOptions
    +getProviderConfig() : FlatpickrOptions
    +setExtensibilityConfigs(newConfigs: FlatpickrOptions) : void
    +validateCanChange(_isBuilt: boolean, _key: string) : boolean
    +validateDefault(key: string, value: unknown) : unknown
    #mergeConfigs(commonConfigs: any, specificConfigs: any, extendedConfigs: any) : any
    #validateBoolean(value: boolean, defaultValue: boolean) : boolean
    #validateDate(value: string | Date, defaultValue: string) : string | Date
    #validateInRange(value: unknown, defaultValue: unknown, args: unknown[]) : unknown
    #validateNumber(value: number, defaultValue: number) : number
    #validateString(value: string, defaultValue: string) : string
    #validateTime(value: string, defaultValue: string) : string
    -_checkAltFormat() : string
    -_checkDisableWeeksDay(date: Date) : boolean
    -_checkLocale() : CustomLocale
    -_mapProviderDateFormat() : string
    -_setDisable() : void
}
"AbstractFlatpickrConfig" <|- - "FlatpickrRangeDateConfig"
@enduml

PlantUML version 1.2021.14(Fri Nov 12 16:46:50 UTC 2021)
(GPL source distribution)
Java Runtime: OpenJDK Runtime Environment
JVM: OpenJDK 64-Bit Server VM
Default Encoding: UTF-8
Language: en
Country: null
--></g></svg>