<?xml version="1.0" encoding="UTF-8" standalone="no"?><svg xmlns="http://www.w3.org/2000/svg" xmlns:xlink="http://www.w3.org/1999/xlink" contentScriptType="application/ecmascript" contentStyleType="text/css" height="759px" preserveAspectRatio="none" style="width:512px;height:759px;background:#CED4DA;" version="1.1" viewBox="0 0 512 759" width="512px" zoomAndPan="magnify"><defs><filter height="300%" id="fhb0ziiynqt6k" width="300%" x="-1" y="-1"><feGaussianBlur result="blurOut" stdDeviation="2.0"/><feColorMatrix in="blurOut" result="blurOut2" type="matrix" values="0 0 0 0 0 0 0 0 0 0 0 0 0 0 0 0 0 0 .4 0"/><feOffset dx="4.0" dy="4.0" in="blurOut2" result="blurOut3"/><feBlend in="SourceGraphic" in2="blurOut3" mode="normal"/></filter></defs><g><!--MD5=[e3863ff870951cd039c3f692177a2f99]
class FlatpickrMonthConfig--><rect codeLine="7" fill="#FFFFFF" filter="url(#fhb0ziiynqt6k)" height="436.6523" id="FlatpickrMonthConfig" style="stroke:#272B30;stroke-width:1.5;" width="489" x="9" y="309"/><ellipse cx="189.25" cy="325" fill="#ADD1B2" rx="11" ry="11" style="stroke:#272B30;stroke-width:1.0;"/><path d="M191.7231,331.1431 Q191.1421,331.4419 190.5029,331.5913 Q189.8638,331.7407 189.1582,331.7407 Q186.6514,331.7407 185.3315,330.0889 Q184.0117,328.437 184.0117,325.3159 Q184.0117,322.1865 185.3315,320.5347 Q186.6514,318.8828 189.1582,318.8828 Q189.8638,318.8828 190.5112,319.0322 Q191.1587,319.1816 191.7231,319.4805 L191.7231,322.2031 Q191.0923,321.6221 190.4988,321.3523 Q189.9053,321.0825 189.2744,321.0825 Q187.9297,321.0825 187.2449,322.1492 Q186.5601,323.2158 186.5601,325.3159 Q186.5601,327.4077 187.2449,328.4744 Q187.9297,329.541 189.2744,329.541 Q189.9053,329.541 190.4988,329.2712 Q191.0923,329.0015 191.7231,328.4204 Z " fill="#000000"/><text fill="#000000" font-family="sans-serif" font-size="12" lengthAdjust="spacing" textLength="120" x="209.75" y="329.5352">FlatpickrMonthConfig</text><line style="stroke:#272B30;stroke-width:1.5;" x1="10" x2="497" y1="341" y2="341"/><ellipse cx="20" cy="352" rx="3" ry="3" style="stroke:#038048;stroke-width:1.0;fill:none;"/><text fill="#000000" font-family="sans-serif" font-size="11" lengthAdjust="spacing" textLength="109" x="29" y="355.6348">AllowInput : boolean</text><ellipse cx="20" cy="364.9551" rx="3" ry="3" style="stroke:#038048;stroke-width:1.0;fill:none;"/><text fill="#000000" font-family="sans-serif" font-size="11" lengthAdjust="spacing" textLength="103" x="29" y="368.5898">DateFormat : string</text><ellipse cx="20" cy="377.9102" rx="3" ry="3" style="stroke:#038048;stroke-width:1.0;fill:none;"/><text fill="#000000" font-family="sans-serif" font-size="11" lengthAdjust="spacing" textLength="126" x="29" y="381.5449">DisableMobile : boolean</text><ellipse cx="20" cy="390.8652" rx="3" ry="3" style="stroke:#038048;stroke-width:1.0;fill:none;"/><text fill="#000000" font-family="sans-serif" font-size="11" lengthAdjust="spacing" textLength="120" x="29" y="394.5">ExtendedClass : string</text><ellipse cx="20" cy="403.8203" rx="3" ry="3" style="stroke:#038048;stroke-width:1.0;fill:none;"/><text fill="#000000" font-family="sans-serif" font-size="11" lengthAdjust="spacing" textLength="130" x="29" y="407.4551">InitialMonth : MonthYear</text><ellipse cx="20" cy="416.7754" rx="3" ry="3" style="stroke:#038048;stroke-width:1.0;fill:none;"/><text fill="#000000" font-family="sans-serif" font-size="11" lengthAdjust="spacing" textLength="123" x="29" y="420.4102">MaxMonth : MonthYear</text><ellipse cx="20" cy="429.7305" rx="3" ry="3" style="stroke:#038048;stroke-width:1.0;fill:none;"/><text fill="#000000" font-family="sans-serif" font-size="11" lengthAdjust="spacing" textLength="120" x="29" y="433.3652">MinMonth : MonthYear</text><ellipse cx="20" cy="442.6855" rx="3" ry="3" style="stroke:#038048;stroke-width:1.0;fill:none;"/><text fill="#000000" font-family="sans-serif" font-size="11" lengthAdjust="spacing" textLength="181" x="29" y="446.3203">OnChangeEventCallback : Generic</text><ellipse cx="20" cy="455.6406" rx="3" ry="3" style="stroke:#038048;stroke-width:1.0;fill:none;"/><text fill="#000000" font-family="sans-serif" font-size="11" lengthAdjust="spacing" textLength="170" x="29" y="459.2754">OnCloseEventCallback : Generic</text><ellipse cx="20" cy="468.5957" rx="3" ry="3" style="stroke:#038048;stroke-width:1.0;fill:none;"/><text fill="#000000" font-family="sans-serif" font-size="11" lengthAdjust="spacing" textLength="169" x="29" y="472.2305">OnOpenEventCallback : Generic</text><ellipse cx="20" cy="481.5508" rx="3" ry="3" style="stroke:#038048;stroke-width:1.0;fill:none;"/><text fill="#000000" font-family="sans-serif" font-size="11" lengthAdjust="spacing" textLength="137" x="29" y="485.1855">ServerDateFormat : string</text><polygon fill="none" points="20,489.5059,24,493.5059,20,497.5059,16,493.5059" style="stroke:#B38D22;stroke-width:1.0;"/><text fill="#000000" font-family="sans-serif" font-size="11" lengthAdjust="spacing" textLength="237" x="29" y="498.1406">providerExtendedOptions : FlatpickrOptions</text><rect fill="none" height="6" style="stroke:#C82930;stroke-width:1.0;" width="6" x="17" y="504.4609"/><text fill="#000000" font-family="sans-serif" font-size="11" lengthAdjust="spacing" textLength="70" x="29" y="511.0957">_lang : string</text><rect fill="none" height="6" style="stroke:#C82930;stroke-width:1.0;" width="6" x="17" y="517.416"/><text fill="#000000" font-family="sans-serif" font-size="11" lengthAdjust="spacing" textLength="193" x="29" y="524.0508">_providerOptions : FlatpickrOptions</text><line style="stroke:#272B30;stroke-width:1.5;" x1="10" x2="497" y1="530.3711" y2="530.3711"/><ellipse cx="20" cy="541.3711" fill="#84BE84" rx="3" ry="3" style="stroke:#038048;stroke-width:1.0;"/><text fill="#000000" font-family="sans-serif" font-size="11" lengthAdjust="spacing" textLength="204" x="29" y="545.0059">getProviderConfig() : FlatpickrOptions</text><ellipse cx="20" cy="554.3262" fill="#84BE84" rx="3" ry="3" style="stroke:#038048;stroke-width:1.0;"/><text fill="#000000" font-family="sans-serif" font-size="11" lengthAdjust="spacing" textLength="321" x="29" y="557.9609">setExtensibilityConfigs(newConfigs: FlatpickrOptions) : void</text><ellipse cx="20" cy="567.2813" fill="#84BE84" rx="3" ry="3" style="stroke:#038048;stroke-width:1.0;"/><text fill="#000000" font-family="sans-serif" font-size="11" lengthAdjust="spacing" textLength="318" x="29" y="570.916">validateCanChange(_isBuilt: boolean, _key: string) : boolean</text><ellipse cx="20" cy="580.2363" fill="#84BE84" rx="3" ry="3" style="stroke:#038048;stroke-width:1.0;"/><text fill="#000000" font-family="sans-serif" font-size="11" lengthAdjust="spacing" textLength="290" x="29" y="583.8711">validateDefault(key: string, value: unknown) : unknown</text><polygon fill="#FFFF44" points="20,588.1914,24,592.1914,20,596.1914,16,592.1914" style="stroke:#B38D22;stroke-width:1.0;"/><text fill="#000000" font-family="sans-serif" font-size="11" lengthAdjust="spacing" textLength="463" x="29" y="596.8262">mergeConfigs(commonConfigs: any, specificConfigs: any, extendedConfigs: any) : any</text><polygon fill="#FFFF44" points="20,601.1465,24,605.1465,20,609.1465,16,605.1465" style="stroke:#B38D22;stroke-width:1.0;"/><text fill="#000000" font-family="sans-serif" font-size="11" lengthAdjust="spacing" textLength="341" x="29" y="609.7813">validateBoolean(value: boolean, defaultValue: boolean) : boolean</text><polygon fill="#FFFF44" points="20,614.1016,24,618.1016,20,622.1016,16,618.1016" style="stroke:#B38D22;stroke-width:1.0;"/><text fill="#000000" font-family="sans-serif" font-size="11" lengthAdjust="spacing" textLength="358" x="29" y="622.7363">validateDate(value: string | Date, defaultValue: string) : string | Date</text><polygon fill="#FFFF44" points="20,627.0566,24,631.0566,20,635.0566,16,631.0566" style="stroke:#B38D22;stroke-width:1.0;"/><text fill="#000000" font-family="sans-serif" font-size="11" lengthAdjust="spacing" textLength="453" x="29" y="635.6914">validateInRange(value: unknown, defaultValue: unknown, args: unknown[]) : unknown</text><polygon fill="#FFFF44" points="20,640.0117,24,644.0117,20,648.0117,16,644.0117" style="stroke:#B38D22;stroke-width:1.0;"/><text fill="#000000" font-family="sans-serif" font-size="11" lengthAdjust="spacing" textLength="339" x="29" y="648.6465">validateNumber(value: number, defaultValue: number) : number</text><polygon fill="#FFFF44" points="20,652.9668,24,656.9668,20,660.9668,16,656.9668" style="stroke:#B38D22;stroke-width:1.0;"/><text fill="#000000" font-family="sans-serif" font-size="11" lengthAdjust="spacing" textLength="298" x="29" y="661.6016">validateString(value: string, defaultValue: string) : string</text><polygon fill="#FFFF44" points="20,665.9219,24,669.9219,20,673.9219,16,669.9219" style="stroke:#B38D22;stroke-width:1.0;"/><text fill="#000000" font-family="sans-serif" font-size="11" lengthAdjust="spacing" textLength="292" x="29" y="674.5566">validateTime(value: string, defaultValue: string) : string</text><rect fill="#F24D5C" height="6" style="stroke:#C82930;stroke-width:1.0;" width="6" x="17" y="680.877"/><text fill="#000000" font-family="sans-serif" font-size="11" lengthAdjust="spacing" textLength="148" x="29" y="687.5117">_checkDateFormat() : string</text><rect fill="#F24D5C" height="6" style="stroke:#C82930;stroke-width:1.0;" width="6" x="17" y="693.832"/><text fill="#000000" font-family="sans-serif" font-size="11" lengthAdjust="spacing" textLength="164" x="29" y="700.4668">_checkLocale() : CustomLocale</text><rect fill="#F24D5C" height="6" style="stroke:#C82930;stroke-width:1.0;" width="6" x="17" y="706.7871"/><text fill="#000000" font-family="sans-serif" font-size="11" lengthAdjust="spacing" textLength="173" x="29" y="713.4219">_checkServerDateFormat() : void</text><rect fill="#F24D5C" height="6" style="stroke:#C82930;stroke-width:1.0;" width="6" x="17" y="719.7422"/><text fill="#000000" font-family="sans-serif" font-size="11" lengthAdjust="spacing" textLength="297" x="29" y="726.377">_getDateFromMonthYear(monthYear: MonthYear) : Date</text><rect fill="#F24D5C" height="6" style="stroke:#C82930;stroke-width:1.0;" width="6" x="17" y="732.6973"/><text fill="#000000" font-family="sans-serif" font-size="11" lengthAdjust="spacing" textLength="185" x="29" y="739.332">_mapProviderDateFormat() : string</text><!--MD5=[ee6ff5215a69a588f6fe31715387f139]
class AbstractMonthPickerConfig--><rect codeLine="39" fill="#FFFFFF" filter="url(#fhb0ziiynqt6k)" height="242.3262" id="AbstractMonthPickerConfig" style="stroke:#272B30;stroke-width:1.5;" width="489" x="9" y="7"/><ellipse cx="172.25" cy="23" fill="#A9DCDF" rx="11" ry="11" style="stroke:#272B30;stroke-width:1.0;"/><path d="M172.1133,18.3481 L170.9595,23.4199 L173.2754,23.4199 Z M170.6191,16.1069 L173.6157,16.1069 L176.9609,28.5 L174.5122,28.5 L173.7485,25.437 L170.4697,25.437 L169.7227,28.5 L167.2739,28.5 Z " fill="#000000"/><text fill="#000000" font-family="sans-serif" font-size="12" font-style="italic" lengthAdjust="spacing" textLength="154" x="192.75" y="27.5352">AbstractMonthPickerConfig</text><line style="stroke:#272B30;stroke-width:1.5;" x1="10" x2="497" y1="39" y2="39"/><ellipse cx="20" cy="50" rx="3" ry="3" style="stroke:#038048;stroke-width:1.0;fill:none;"/><text fill="#000000" font-family="sans-serif" font-size="11" lengthAdjust="spacing" textLength="103" x="29" y="53.6348">DateFormat : string</text><ellipse cx="20" cy="62.9551" rx="3" ry="3" style="stroke:#038048;stroke-width:1.0;fill:none;"/><text fill="#000000" font-family="sans-serif" font-size="11" lengthAdjust="spacing" textLength="120" x="29" y="66.5898">ExtendedClass : string</text><ellipse cx="20" cy="75.9102" rx="3" ry="3" style="stroke:#038048;stroke-width:1.0;fill:none;"/><text fill="#000000" font-family="sans-serif" font-size="11" lengthAdjust="spacing" textLength="130" x="29" y="79.5449">InitialMonth : MonthYear</text><ellipse cx="20" cy="88.8652" rx="3" ry="3" style="stroke:#038048;stroke-width:1.0;fill:none;"/><text fill="#000000" font-family="sans-serif" font-size="11" lengthAdjust="spacing" textLength="123" x="29" y="92.5">MaxMonth : MonthYear</text><ellipse cx="20" cy="101.8203" rx="3" ry="3" style="stroke:#038048;stroke-width:1.0;fill:none;"/><text fill="#000000" font-family="sans-serif" font-size="11" lengthAdjust="spacing" textLength="120" x="29" y="105.4551">MinMonth : MonthYear</text><line style="stroke:#272B30;stroke-width:1.5;" x1="10" x2="497" y1="111.7754" y2="111.7754"/><ellipse cx="20" cy="122.7754" fill="#84BE84" rx="3" ry="3" style="stroke:#038048;stroke-width:1.0;"/><text fill="#000000" font-family="sans-serif" font-size="11" font-style="italic" lengthAdjust="spacing" textLength="134" x="29" y="126.4102">getProviderConfig() : any</text><ellipse cx="20" cy="135.7305" fill="#84BE84" rx="3" ry="3" style="stroke:#038048;stroke-width:1.0;"/><text fill="#000000" font-family="sans-serif" font-size="11" lengthAdjust="spacing" textLength="318" x="29" y="139.3652">validateCanChange(_isBuilt: boolean, _key: string) : boolean</text><ellipse cx="20" cy="148.6855" fill="#84BE84" rx="3" ry="3" style="stroke:#038048;stroke-width:1.0;"/><text fill="#000000" font-family="sans-serif" font-size="11" lengthAdjust="spacing" textLength="290" x="29" y="152.3203">validateDefault(key: string, value: unknown) : unknown</text><polygon fill="#FFFF44" points="20,156.6406,24,160.6406,20,164.6406,16,160.6406" style="stroke:#B38D22;stroke-width:1.0;"/><text fill="#000000" font-family="sans-serif" font-size="11" lengthAdjust="spacing" textLength="463" x="29" y="165.2754">mergeConfigs(commonConfigs: any, specificConfigs: any, extendedConfigs: any) : any</text><polygon fill="#FFFF44" points="20,169.5957,24,173.5957,20,177.5957,16,173.5957" style="stroke:#B38D22;stroke-width:1.0;"/><text fill="#000000" font-family="sans-serif" font-size="11" lengthAdjust="spacing" textLength="341" x="29" y="178.2305">validateBoolean(value: boolean, defaultValue: boolean) : boolean</text><polygon fill="#FFFF44" points="20,182.5508,24,186.5508,20,190.5508,16,186.5508" style="stroke:#B38D22;stroke-width:1.0;"/><text fill="#000000" font-family="sans-serif" font-size="11" lengthAdjust="spacing" textLength="358" x="29" y="191.1855">validateDate(value: string | Date, defaultValue: string) : string | Date</text><polygon fill="#FFFF44" points="20,195.5059,24,199.5059,20,203.5059,16,199.5059" style="stroke:#B38D22;stroke-width:1.0;"/><text fill="#000000" font-family="sans-serif" font-size="11" lengthAdjust="spacing" textLength="453" x="29" y="204.1406">validateInRange(value: unknown, defaultValue: unknown, args: unknown[]) : unknown</text><polygon fill="#FFFF44" points="20,208.4609,24,212.4609,20,216.4609,16,212.4609" style="stroke:#B38D22;stroke-width:1.0;"/><text fill="#000000" font-family="sans-serif" font-size="11" lengthAdjust="spacing" textLength="339" x="29" y="217.0957">validateNumber(value: number, defaultValue: number) : number</text><polygon fill="#FFFF44" points="20,221.416,24,225.416,20,229.416,16,225.416" style="stroke:#B38D22;stroke-width:1.0;"/><text fill="#000000" font-family="sans-serif" font-size="11" lengthAdjust="spacing" textLength="298" x="29" y="230.0508">validateString(value: string, defaultValue: string) : string</text><polygon fill="#FFFF44" points="20,234.3711,24,238.3711,20,242.3711,16,238.3711" style="stroke:#B38D22;stroke-width:1.0;"/><text fill="#000000" font-family="sans-serif" font-size="11" lengthAdjust="spacing" textLength="292" x="29" y="243.0059">validateTime(value: string, defaultValue: string) : string</text><!--MD5=[d191ca050899caf4f727f1b65c4755df]
reverse link AbstractMonthPickerConfig to FlatpickrMonthConfig--><path codeLine="56" d="M253.5,269.13 C253.5,282.1 253.5,295.44 253.5,308.9 " fill="none" id="AbstractMonthPickerConfig-backto-FlatpickrMonthConfig" style="stroke:#272B30;stroke-width:1.0;"/><polygon fill="none" points="246.5,269.07,253.5,249.07,260.5,269.07,246.5,269.07" style="stroke:#272B30;stroke-width:1.0;"/><!--MD5=[6b96fec9fb1e4bc2e70885575a13e3d3]
@startuml
skinparam ClassArrowColor #272b30
skinparam ClassBorderColor #272b30
skinparam ClassBackgroundColor #fff
skinparam BackgroundColor #ced4da
hide empty methods
hide empty fields
class "FlatpickrMonthConfig" {
    +AllowInput : boolean
    +DateFormat : string
    +DisableMobile : boolean
    +ExtendedClass : string
    +InitialMonth : MonthYear
    +MaxMonth : MonthYear
    +MinMonth : MonthYear
    +OnChangeEventCallback : Generic
    +OnCloseEventCallback : Generic
    +OnOpenEventCallback : Generic
    +ServerDateFormat : string
    #providerExtendedOptions : FlatpickrOptions
    -_lang : string
    -_providerOptions : FlatpickrOptions
    +getProviderConfig() : FlatpickrOptions
    +setExtensibilityConfigs(newConfigs: FlatpickrOptions) : void
    +validateCanChange(_isBuilt: boolean, _key: string) : boolean
    +validateDefault(key: string, value: unknown) : unknown
    #mergeConfigs(commonConfigs: any, specificConfigs: any, extendedConfigs: any) : any
    #validateBoolean(value: boolean, defaultValue: boolean) : boolean
    #validateDate(value: string | Date, defaultValue: string) : string | Date
    #validateInRange(value: unknown, defaultValue: unknown, args: unknown[]) : unknown
    #validateNumber(value: number, defaultValue: number) : number
    #validateString(value: string, defaultValue: string) : string
    #validateTime(value: string, defaultValue: string) : string
    -_checkDateFormat() : string
    -_checkLocale() : CustomLocale
    -_checkServerDateFormat() : void
    -_getDateFromMonthYear(monthYear: MonthYear) : Date
    -_mapProviderDateFormat() : string
}
abstract class "AbstractMonthPickerConfig" {
    +DateFormat : string
    +ExtendedClass : string
    +InitialMonth : MonthYear
    +MaxMonth : MonthYear
    +MinMonth : MonthYear
    {abstract} +getProviderConfig() : any
    +validateCanChange(_isBuilt: boolean, _key: string) : boolean
    +validateDefault(key: string, value: unknown) : unknown
    #mergeConfigs(commonConfigs: any, specificConfigs: any, extendedConfigs: any) : any
    #validateBoolean(value: boolean, defaultValue: boolean) : boolean
    #validateDate(value: string | Date, defaultValue: string) : string | Date
    #validateInRange(value: unknown, defaultValue: unknown, args: unknown[]) : unknown
    #validateNumber(value: number, defaultValue: number) : number
    #validateString(value: string, defaultValue: string) : string
    #validateTime(value: string, defaultValue: string) : string
}
"AbstractMonthPickerConfig" <|- - "FlatpickrMonthConfig"
@enduml

PlantUML version 1.2021.14(Fri Nov 12 16:46:50 WET 2021)
(GPL source distribution)
Java Runtime: Java(TM) SE Runtime Environment
JVM: Java HotSpot(TM) 64-Bit Server VM
Default Encoding: UTF-8
Language: en
Country: PT
--></g></svg>