<?xml version="1.0" encoding="us-ascii" standalone="no"?><svg xmlns="http://www.w3.org/2000/svg" xmlns:xlink="http://www.w3.org/1999/xlink" contentStyleType="text/css" height="911px" preserveAspectRatio="none" style="width:632px;height:911px;background:#CED4DA;" version="1.1" viewBox="0 0 632 911" width="632px" zoomAndPan="magnify"><defs/><g><rect fill="#CED4DA" height="911" style="stroke:none;stroke-width:1.0;" width="632" x="0" y="0"/><!--class FlatpickrMonthConfig--><g id="elem_FlatpickrMonthConfig"><rect codeLine="7" fill="#FFFFFF" height="542.6484" id="FlatpickrMonthConfig" rx="2.5" ry="2.5" style="stroke:#272B30;stroke-width:0.5;" width="616" x="9" y="362"/><ellipse cx="238.25" cy="378" fill="#ADD1B2" rx="11" ry="11" style="stroke:#181818;stroke-width:1.0;"/><path d="M240.7231,384.1431 Q240.1421,384.4419 239.5029,384.5913 Q238.8638,384.7407 238.1582,384.7407 Q235.6514,384.7407 234.3315,383.0889 Q233.0117,381.437 233.0117,378.3159 Q233.0117,375.1865 234.3315,373.5347 Q235.6514,371.8828 238.1582,371.8828 Q238.8638,371.8828 239.5112,372.0322 Q240.1587,372.1816 240.7231,372.4805 L240.7231,375.2031 Q240.0923,374.6221 239.4988,374.3523 Q238.9053,374.0825 238.2744,374.0825 Q236.9297,374.0825 236.2449,375.1492 Q235.5601,376.2158 235.5601,378.3159 Q235.5601,380.4077 236.2449,381.4744 Q236.9297,382.541 238.2744,382.541 Q238.9053,382.541 239.4988,382.2712 Q240.0923,382.0015 240.7231,381.4204 Z " fill="#000000"/><text fill="#000000" font-family="sans-serif" font-size="14" lengthAdjust="spacing" textLength="149" x="258.75" y="383.291">FlatpickrMonthConfig</text><line style="stroke:#272B30;stroke-width:0.5;" x1="10" x2="624" y1="394" y2="394"/><ellipse cx="20" cy="407.7441" fill="none" rx="3" ry="3" style="stroke:#038048;stroke-width:1.0;"/><text fill="#000000" font-family="sans-serif" font-size="14" lengthAdjust="spacing" textLength="142" x="29" y="411.5352">AllowInput : boolean</text><ellipse cx="20" cy="424.2324" fill="none" rx="3" ry="3" style="stroke:#038048;stroke-width:1.0;"/><text fill="#000000" font-family="sans-serif" font-size="14" lengthAdjust="spacing" textLength="132" x="29" y="428.0234">DateFormat : string</text><ellipse cx="20" cy="440.7207" fill="none" rx="3" ry="3" style="stroke:#038048;stroke-width:1.0;"/><text fill="#000000" font-family="sans-serif" font-size="14" lengthAdjust="spacing" textLength="164" x="29" y="444.5117">DisableMobile : boolean</text><ellipse cx="20" cy="457.209" fill="none" rx="3" ry="3" style="stroke:#038048;stroke-width:1.0;"/><text fill="#000000" font-family="sans-serif" font-size="14" lengthAdjust="spacing" textLength="153" x="29" y="461">ExtendedClass : string</text><ellipse cx="20" cy="473.6973" fill="none" rx="3" ry="3" style="stroke:#038048;stroke-width:1.0;"/><text fill="#000000" font-family="sans-serif" font-size="14" lengthAdjust="spacing" textLength="169" x="29" y="477.4883">InitialMonth : MonthYear</text><ellipse cx="20" cy="490.1855" fill="none" rx="3" ry="3" style="stroke:#038048;stroke-width:1.0;"/><text fill="#000000" font-family="sans-serif" font-size="14" lengthAdjust="spacing" textLength="160" x="29" y="493.9766">MaxMonth : MonthYear</text><ellipse cx="20" cy="506.6738" fill="none" rx="3" ry="3" style="stroke:#038048;stroke-width:1.0;"/><text fill="#000000" font-family="sans-serif" font-size="14" lengthAdjust="spacing" textLength="156" x="29" y="510.4648">MinMonth : MonthYear</text><ellipse cx="20" cy="523.1621" fill="none" rx="3" ry="3" style="stroke:#038048;stroke-width:1.0;"/><text fill="#000000" font-family="sans-serif" font-size="14" lengthAdjust="spacing" textLength="232" x="29" y="526.9531">OnChangeEventCallback : Generic</text><ellipse cx="20" cy="539.6504" fill="none" rx="3" ry="3" style="stroke:#038048;stroke-width:1.0;"/><text fill="#000000" font-family="sans-serif" font-size="14" lengthAdjust="spacing" textLength="217" x="29" y="543.4414">OnCloseEventCallback : Generic</text><ellipse cx="20" cy="556.1387" fill="none" rx="3" ry="3" style="stroke:#038048;stroke-width:1.0;"/><text fill="#000000" font-family="sans-serif" font-size="14" lengthAdjust="spacing" textLength="216" x="29" y="559.9297">OnOpenEventCallback : Generic</text><ellipse cx="20" cy="572.627" fill="none" rx="3" ry="3" style="stroke:#038048;stroke-width:1.0;"/><text fill="#000000" font-family="sans-serif" font-size="14" lengthAdjust="spacing" textLength="175" x="29" y="576.418">ServerDateFormat : string</text><polygon fill="none" points="20,584.1152,24,588.1152,20,592.1152,16,588.1152" style="stroke:#B38D22;stroke-width:1.0;"/><text fill="#000000" font-family="sans-serif" font-size="14" lengthAdjust="spacing" textLength="302" x="29" y="592.9063">providerExtendedOptions : FlatpickrOptions</text><rect fill="none" height="6" style="stroke:#C82930;stroke-width:1.0;" width="6" x="17" y="602.6035"/><text fill="#000000" font-family="sans-serif" font-size="14" lengthAdjust="spacing" textLength="89" x="29" y="609.3945">_lang : string</text><rect fill="none" height="6" style="stroke:#C82930;stroke-width:1.0;" width="6" x="17" y="619.0918"/><text fill="#000000" font-family="sans-serif" font-size="14" lengthAdjust="spacing" textLength="244" x="29" y="625.8828">_providerOptions : FlatpickrOptions</text><line style="stroke:#272B30;stroke-width:0.5;" x1="10" x2="624" y1="632.8359" y2="632.8359"/><ellipse cx="20" cy="646.5801" fill="#84BE84" rx="3" ry="3" style="stroke:#038048;stroke-width:1.0;"/><text fill="#000000" font-family="sans-serif" font-size="14" lengthAdjust="spacing" textLength="260" x="29" y="650.3711">getProviderConfig() : FlatpickrOptions</text><ellipse cx="20" cy="663.0684" fill="#84BE84" rx="3" ry="3" style="stroke:#038048;stroke-width:1.0;"/><text fill="#000000" font-family="sans-serif" font-size="14" lengthAdjust="spacing" textLength="409" x="29" y="666.8594">setExtensibilityConfigs(newConfigs: FlatpickrOptions) : void</text><ellipse cx="20" cy="679.5566" fill="#84BE84" rx="3" ry="3" style="stroke:#038048;stroke-width:1.0;"/><text fill="#000000" font-family="sans-serif" font-size="14" lengthAdjust="spacing" textLength="409" x="29" y="683.3477">validateCanChange(_isBuilt: boolean, _key: string) : boolean</text><ellipse cx="20" cy="696.0449" fill="#84BE84" rx="3" ry="3" style="stroke:#038048;stroke-width:1.0;"/><text fill="#000000" font-family="sans-serif" font-size="14" lengthAdjust="spacing" textLength="375" x="29" y="699.8359">validateDefault(key: string, value: unknown) : unknown</text><polygon fill="#FFFF44" points="20,707.5332,24,711.5332,20,715.5332,16,711.5332" style="stroke:#B38D22;stroke-width:1.0;"/><text fill="#000000" font-family="sans-serif" font-size="14" lengthAdjust="spacing" textLength="590" x="29" y="716.3242">mergeConfigs(commonConfigs: any, specificConfigs: any, extendedConfigs: any) : any</text><polygon fill="#FFFF44" points="20,724.0215,24,728.0215,20,732.0215,16,728.0215" style="stroke:#B38D22;stroke-width:1.0;"/><text fill="#000000" font-family="sans-serif" font-size="14" lengthAdjust="spacing" textLength="444" x="29" y="732.8125">validateBoolean(value: boolean, defaultValue: boolean) : boolean</text><polygon fill="#FFFF44" points="20,740.5098,24,744.5098,20,748.5098,16,744.5098" style="stroke:#B38D22;stroke-width:1.0;"/><text fill="#000000" font-family="sans-serif" font-size="14" lengthAdjust="spacing" textLength="460" x="29" y="749.3008">validateDate(value: string | Date, defaultValue: string) : string | Date</text><polygon fill="#FFFF44" points="20,756.998,24,760.998,20,764.998,16,760.998" style="stroke:#B38D22;stroke-width:1.0;"/><text fill="#000000" font-family="sans-serif" font-size="14" lengthAdjust="spacing" textLength="589" x="29" y="765.7891">validateInRange(value: unknown, defaultValue: unknown, args: unknown[]) : unknown</text><polygon fill="#FFFF44" points="20,773.4863,24,777.4863,20,781.4863,16,777.4863" style="stroke:#B38D22;stroke-width:1.0;"/><text fill="#000000" font-family="sans-serif" font-size="14" lengthAdjust="spacing" textLength="438" x="29" y="782.2773">validateNumber(value: number, defaultValue: number) : number</text><polygon fill="#FFFF44" points="20,789.9746,24,793.9746,20,797.9746,16,793.9746" style="stroke:#B38D22;stroke-width:1.0;"/><text fill="#000000" font-family="sans-serif" font-size="14" lengthAdjust="spacing" textLength="382" x="29" y="798.7656">validateString(value: string, defaultValue: string) : string</text><polygon fill="#FFFF44" points="20,806.4629,24,810.4629,20,814.4629,16,810.4629" style="stroke:#B38D22;stroke-width:1.0;"/><text fill="#000000" font-family="sans-serif" font-size="14" lengthAdjust="spacing" textLength="375" x="29" y="815.2539">validateTime(value: string, defaultValue: string) : string</text><rect fill="#F24D5C" height="6" style="stroke:#C82930;stroke-width:1.0;" width="6" x="17" y="824.9512"/><text fill="#000000" font-family="sans-serif" font-size="14" lengthAdjust="spacing" textLength="188" x="29" y="831.7422">_checkDateFormat() : string</text><rect fill="#F24D5C" height="6" style="stroke:#C82930;stroke-width:1.0;" width="6" x="17" y="841.4395"/><text fill="#000000" font-family="sans-serif" font-size="14" lengthAdjust="spacing" textLength="207" x="29" y="848.2305">_checkLocale() : CustomLocale</text><rect fill="#F24D5C" height="6" style="stroke:#C82930;stroke-width:1.0;" width="6" x="17" y="857.9277"/><text fill="#000000" font-family="sans-serif" font-size="14" lengthAdjust="spacing" textLength="220" x="29" y="864.7188">_checkServerDateFormat() : void</text><rect fill="#F24D5C" height="6" style="stroke:#C82930;stroke-width:1.0;" width="6" x="17" y="874.416"/><text fill="#000000" font-family="sans-serif" font-size="14" lengthAdjust="spacing" textLength="383" x="29" y="881.207">_getDateFromMonthYear(monthYear: MonthYear) : Date</text><rect fill="#F24D5C" height="6" style="stroke:#C82930;stroke-width:1.0;" width="6" x="17" y="890.9043"/><text fill="#000000" font-family="sans-serif" font-size="14" lengthAdjust="spacing" textLength="236" x="29" y="897.6953">_mapProviderDateFormat() : string</text></g><!--class AbstractMonthPickerConfig--><g id="elem_AbstractMonthPickerConfig"><rect codeLine="39" fill="#FFFFFF" height="295.3242" id="AbstractMonthPickerConfig" rx="2.5" ry="2.5" style="stroke:#272B30;stroke-width:0.5;" width="616" x="9" y="7"/><ellipse cx="218.75" cy="23" fill="#A9DCDF" rx="11" ry="11" style="stroke:#181818;stroke-width:1.0;"/><path d="M218.6133,18.3481 L217.4595,23.4199 L219.7754,23.4199 Z M217.1191,16.1069 L220.1157,16.1069 L223.4609,28.5 L221.0122,28.5 L220.2485,25.437 L216.9697,25.437 L216.2227,28.5 L213.7739,28.5 Z " fill="#000000"/><text fill="#000000" font-family="sans-serif" font-size="14" font-style="italic" lengthAdjust="spacing" textLength="188" x="239.25" y="28.291">AbstractMonthPickerConfig</text><line style="stroke:#272B30;stroke-width:0.5;" x1="10" x2="624" y1="39" y2="39"/><ellipse cx="20" cy="52.7441" fill="none" rx="3" ry="3" style="stroke:#038048;stroke-width:1.0;"/><text fill="#000000" font-family="sans-serif" font-size="14" lengthAdjust="spacing" textLength="132" x="29" y="56.5352">DateFormat : string</text><ellipse cx="20" cy="69.2324" fill="none" rx="3" ry="3" style="stroke:#038048;stroke-width:1.0;"/><text fill="#000000" font-family="sans-serif" font-size="14" lengthAdjust="spacing" textLength="153" x="29" y="73.0234">ExtendedClass : string</text><ellipse cx="20" cy="85.7207" fill="none" rx="3" ry="3" style="stroke:#038048;stroke-width:1.0;"/><text fill="#000000" font-family="sans-serif" font-size="14" lengthAdjust="spacing" textLength="169" x="29" y="89.5117">InitialMonth : MonthYear</text><ellipse cx="20" cy="102.209" fill="none" rx="3" ry="3" style="stroke:#038048;stroke-width:1.0;"/><text fill="#000000" font-family="sans-serif" font-size="14" lengthAdjust="spacing" textLength="160" x="29" y="106">MaxMonth : MonthYear</text><ellipse cx="20" cy="118.6973" fill="none" rx="3" ry="3" style="stroke:#038048;stroke-width:1.0;"/><text fill="#000000" font-family="sans-serif" font-size="14" lengthAdjust="spacing" textLength="156" x="29" y="122.4883">MinMonth : MonthYear</text><line style="stroke:#272B30;stroke-width:0.5;" x1="10" x2="624" y1="129.4414" y2="129.4414"/><ellipse cx="20" cy="143.1855" fill="#84BE84" rx="3" ry="3" style="stroke:#038048;stroke-width:1.0;"/><text fill="#000000" font-family="sans-serif" font-size="14" font-style="italic" lengthAdjust="spacing" textLength="171" x="29" y="146.9766">getProviderConfig() : any</text><ellipse cx="20" cy="159.6738" fill="#84BE84" rx="3" ry="3" style="stroke:#038048;stroke-width:1.0;"/><text fill="#000000" font-family="sans-serif" font-size="14" lengthAdjust="spacing" textLength="409" x="29" y="163.4648">validateCanChange(_isBuilt: boolean, _key: string) : boolean</text><ellipse cx="20" cy="176.1621" fill="#84BE84" rx="3" ry="3" style="stroke:#038048;stroke-width:1.0;"/><text fill="#000000" font-family="sans-serif" font-size="14" lengthAdjust="spacing" textLength="375" x="29" y="179.9531">validateDefault(key: string, value: unknown) : unknown</text><polygon fill="#FFFF44" points="20,187.6504,24,191.6504,20,195.6504,16,191.6504" style="stroke:#B38D22;stroke-width:1.0;"/><text fill="#000000" font-family="sans-serif" font-size="14" lengthAdjust="spacing" textLength="590" x="29" y="196.4414">mergeConfigs(commonConfigs: any, specificConfigs: any, extendedConfigs: any) : any</text><polygon fill="#FFFF44" points="20,204.1387,24,208.1387,20,212.1387,16,208.1387" style="stroke:#B38D22;stroke-width:1.0;"/><text fill="#000000" font-family="sans-serif" font-size="14" lengthAdjust="spacing" textLength="444" x="29" y="212.9297">validateBoolean(value: boolean, defaultValue: boolean) : boolean</text><polygon fill="#FFFF44" points="20,220.627,24,224.627,20,228.627,16,224.627" style="stroke:#B38D22;stroke-width:1.0;"/><text fill="#000000" font-family="sans-serif" font-size="14" lengthAdjust="spacing" textLength="460" x="29" y="229.418">validateDate(value: string | Date, defaultValue: string) : string | Date</text><polygon fill="#FFFF44" points="20,237.1152,24,241.1152,20,245.1152,16,241.1152" style="stroke:#B38D22;stroke-width:1.0;"/><text fill="#000000" font-family="sans-serif" font-size="14" lengthAdjust="spacing" textLength="589" x="29" y="245.9063">validateInRange(value: unknown, defaultValue: unknown, args: unknown[]) : unknown</text><polygon fill="#FFFF44" points="20,253.6035,24,257.6035,20,261.6035,16,257.6035" style="stroke:#B38D22;stroke-width:1.0;"/><text fill="#000000" font-family="sans-serif" font-size="14" lengthAdjust="spacing" textLength="438" x="29" y="262.3945">validateNumber(value: number, defaultValue: number) : number</text><polygon fill="#FFFF44" points="20,270.0918,24,274.0918,20,278.0918,16,274.0918" style="stroke:#B38D22;stroke-width:1.0;"/><text fill="#000000" font-family="sans-serif" font-size="14" lengthAdjust="spacing" textLength="382" x="29" y="278.8828">validateString(value: string, defaultValue: string) : string</text><polygon fill="#FFFF44" points="20,286.5801,24,290.5801,20,294.5801,16,290.5801" style="stroke:#B38D22;stroke-width:1.0;"/><text fill="#000000" font-family="sans-serif" font-size="14" lengthAdjust="spacing" textLength="375" x="29" y="295.3711">validateTime(value: string, defaultValue: string) : string</text></g><!--reverse link AbstractMonthPickerConfig to FlatpickrMonthConfig--><g id="link_AbstractMonthPickerConfig_FlatpickrMonthConfig"><path codeLine="56" d="M317,322.25 C317,335.2 317,348.47 317,361.87 " fill="none" id="AbstractMonthPickerConfig-backto-FlatpickrMonthConfig" style="stroke:#272B30;stroke-width:1.0;"/><polygon fill="none" points="310,322.18,317,302.18,324,322.18,310,322.18" style="stroke:#272B30;stroke-width:1.0;"/></g><!--SRC=[xLRVQzim47xFNo7Q5vV6CBh1eEmbSTiHM9QoZi4OmyZssH7M3oF9IKER_tsoPRcsKoUmX-sbVh5qzztdxqwwmoedlC0ICnHGhDHCIh4D11KIdLzzl8hUlvkeFc8kP0BoE0J7UIP5oPC6bgPf1tFWZY7vaE39cYI0W1LwXnZejKXKrvGIeCOILnz0PtSKwuB4kLmAhjU1u2d9pj3J19ddSaQfs2vuKMfqZI8XA61kFJTOmvsG35SUfINXMUCW2aSKbY8Y58PHjuyQU099dTmWSC699fZMCeohVly4BArtYH_7F8IFU5OyM6EUmUq6k0umfP6fbu5z1WwIn2s82dKAiog07uKyWDo07AlAUI75nfo0T0LO5Pe8NfMWhNzZgl5-I8tmFeSVEf8JmPSPwFi6Qi_JknZ5Aj2r9aNCUH6zim7Aux1jbeUH5Tj6aCGoR30bYSaxm4svlP2eUKceRWz_Yi8STYwRY-6jS0mtaEAIQg-3dIBZBE4QbJpdOikhs6Pf2yj0Pk14nu8nmLlTcE-cI1KGavJ4VIkuYzYnLjpcPNcTfhaLwZKoseGIg_L7pppCh6MfxeMZi8cXPrGPXqGl5Uh1-cmB_gskSxyqGwhMZ6MLOBFzzVkWX8xsQyaYa8wLrxiXgRLM57RLPtYeDVSJFPLXd-4xOV0NyNuOho7ENzhFUntmHSIOGkqCIgK5iuOkPDZ8Nk-s-w5fhjef1Ml7ZSVSgZE3ghZsxFoGuS8rvUioznCScIMEDMf6ywpPrvJtfW5TFxVpUNGA_zD1- -I4xyTcZskhjs7nDYp-wx3OJuvrrQTdtn_v8_e3]--></g></svg>