<?xml version="1.0" encoding="UTF-8" standalone="no"?><svg xmlns="http://www.w3.org/2000/svg" xmlns:xlink="http://www.w3.org/1999/xlink" contentScriptType="application/ecmascript" contentStyleType="text/css" height="714px" preserveAspectRatio="none" style="width:542px;height:714px;background:#CED4DA;" version="1.1" viewBox="0 0 542 714" width="542px" zoomAndPan="magnify"><defs><filter height="300%" id="f176p89nc0xh25" width="300%" x="-1" y="-1"><feGaussianBlur result="blurOut" stdDeviation="2.0"/><feColorMatrix in="blurOut" result="blurOut2" type="matrix" values="0 0 0 0 0 0 0 0 0 0 0 0 0 0 0 0 0 0 .4 0"/><feOffset dx="4.0" dy="4.0" in="blurOut2" result="blurOut3"/><feBlend in="SourceGraphic" in2="blurOut3" mode="normal"/></filter></defs><g><!--MD5=[30f15c8856fd050aab3d0a2e452ba6de]
class FlatpickrTimeConfig--><rect codeLine="7" fill="#FFFFFF" filter="url(#f176p89nc0xh25)" height="380.9219" id="FlatpickrTimeConfig" style="stroke:#272B30;stroke-width:1.5;" width="519" x="9" y="320"/><ellipse cx="203.75" cy="336" fill="#ADD1B2" rx="11" ry="11" style="stroke:#272B30;stroke-width:1.0;"/><path d="M206.7188,341.6406 Q206.1406,341.9375 205.5,342.0781 Q204.8594,342.2344 204.1563,342.2344 Q201.6563,342.2344 200.3281,340.5938 Q199.0156,338.9375 199.0156,335.8125 Q199.0156,332.6875 200.3281,331.0313 Q201.6563,329.375 204.1563,329.375 Q204.8594,329.375 205.5,329.5313 Q206.1563,329.6875 206.7188,329.9844 L206.7188,332.7031 Q206.0938,332.125 205.5,331.8594 Q204.9063,331.5781 204.2813,331.5781 Q202.9375,331.5781 202.25,332.6563 Q201.5625,333.7188 201.5625,335.8125 Q201.5625,337.9063 202.25,338.9844 Q202.9375,340.0469 204.2813,340.0469 Q204.9063,340.0469 205.5,339.7813 Q206.0938,339.5 206.7188,338.9219 L206.7188,341.6406 Z " fill="#000000"/><text fill="#000000" font-family="sans-serif" font-size="12" lengthAdjust="spacing" textLength="121" x="224.25" y="340.1543">FlatpickrTimeConfig</text><line style="stroke:#272B30;stroke-width:1.5;" x1="10" x2="527" y1="352" y2="352"/><ellipse cx="20" cy="363" rx="3" ry="3" style="stroke:#038048;stroke-width:1.0;fill:none;"/><text fill="#000000" font-family="sans-serif" font-size="11" lengthAdjust="spacing" textLength="114" x="29" y="366.2104">AllowInput : boolean</text><ellipse cx="20" cy="375.8047" rx="3" ry="3" style="stroke:#038048;stroke-width:1.0;fill:none;"/><text fill="#000000" font-family="sans-serif" font-size="11" lengthAdjust="spacing" textLength="135" x="29" y="379.0151">DisableMobile : boolean</text><ellipse cx="20" cy="388.6094" rx="3" ry="3" style="stroke:#038048;stroke-width:1.0;fill:none;"/><text fill="#000000" font-family="sans-serif" font-size="11" lengthAdjust="spacing" textLength="129" x="29" y="391.8198">ExtendedClass : string</text><ellipse cx="20" cy="401.4141" rx="3" ry="3" style="stroke:#038048;stroke-width:1.0;fill:none;"/><text fill="#000000" font-family="sans-serif" font-size="11" lengthAdjust="spacing" textLength="131" x="29" y="404.6245">FirstWeekDay : number</text><ellipse cx="20" cy="414.2188" rx="3" ry="3" style="stroke:#038048;stroke-width:1.0;fill:none;"/><text fill="#000000" font-family="sans-serif" font-size="11" lengthAdjust="spacing" textLength="103" x="29" y="417.4292">InitialTime : string</text><ellipse cx="20" cy="427.0234" rx="3" ry="3" style="stroke:#038048;stroke-width:1.0;fill:none;"/><text fill="#000000" font-family="sans-serif" font-size="11" lengthAdjust="spacing" textLength="115" x="29" y="430.2339">Is24Hours : boolean</text><ellipse cx="20" cy="439.8281" rx="3" ry="3" style="stroke:#038048;stroke-width:1.0;fill:none;"/><text fill="#000000" font-family="sans-serif" font-size="11" lengthAdjust="spacing" textLength="95" x="29" y="443.0386">MaxTime : string</text><ellipse cx="20" cy="452.6328" rx="3" ry="3" style="stroke:#038048;stroke-width:1.0;fill:none;"/><text fill="#000000" font-family="sans-serif" font-size="11" lengthAdjust="spacing" textLength="92" x="29" y="455.8433">MinTime : string</text><ellipse cx="20" cy="465.4375" rx="3" ry="3" style="stroke:#038048;stroke-width:1.0;fill:none;"/><text fill="#000000" font-family="sans-serif" font-size="11" lengthAdjust="spacing" textLength="115" x="29" y="468.6479">OnChange : Generic</text><ellipse cx="20" cy="478.2422" rx="3" ry="3" style="stroke:#038048;stroke-width:1.0;fill:none;"/><text fill="#000000" font-family="sans-serif" font-size="11" lengthAdjust="spacing" textLength="149" x="29" y="481.4526">ServerDateFormat : string</text><polygon fill="none" points="20,486.0469,24,490.0469,20,494.0469,16,490.0469" style="stroke:#B38D22;stroke-width:1.0;"/><text fill="#000000" font-family="sans-serif" font-size="11" lengthAdjust="spacing" textLength="234" x="29" y="494.2573">_providerExtendedOptions : BaseOptions</text><rect fill="none" height="6" style="stroke:#C82930;stroke-width:1.0;" width="6" x="17" y="500.8516"/><text fill="#000000" font-family="sans-serif" font-size="11" lengthAdjust="spacing" textLength="75" x="29" y="507.062">_lang : string</text><rect fill="none" height="6" style="stroke:#C82930;stroke-width:1.0;" width="6" x="17" y="513.6563"/><text fill="#000000" font-family="sans-serif" font-size="11" lengthAdjust="spacing" textLength="182" x="29" y="519.8667">_providerOptions : BaseOptions</text><line style="stroke:#272B30;stroke-width:1.5;" x1="10" x2="527" y1="526.4609" y2="526.4609"/><ellipse cx="20" cy="537.4609" fill="#84BE84" rx="3" ry="3" style="stroke:#038048;stroke-width:1.0;"/><text fill="#000000" font-family="sans-serif" font-size="11" lengthAdjust="spacing" textLength="194" x="29" y="540.6714">getProviderConfig() : BaseOptions</text><ellipse cx="20" cy="550.2656" fill="#84BE84" rx="3" ry="3" style="stroke:#038048;stroke-width:1.0;"/><text fill="#000000" font-family="sans-serif" font-size="11" lengthAdjust="spacing" textLength="318" x="29" y="553.4761">setExtensibilityConfigs(newConfigs: BaseOptions) : void</text><ellipse cx="20" cy="563.0703" fill="#84BE84" rx="3" ry="3" style="stroke:#038048;stroke-width:1.0;"/><text fill="#000000" font-family="sans-serif" font-size="11" lengthAdjust="spacing" textLength="342" x="29" y="566.2808">validateCanChange(_isBuilt: boolean, _key: string) : boolean</text><ellipse cx="20" cy="575.875" fill="#84BE84" rx="3" ry="3" style="stroke:#038048;stroke-width:1.0;"/><text fill="#000000" font-family="sans-serif" font-size="11" lengthAdjust="spacing" textLength="310" x="29" y="579.0854">validateDefault(key: string, value: unknown) : unknown</text><polygon fill="#FFFF44" points="20,583.6797,24,587.6797,20,591.6797,16,587.6797" style="stroke:#B38D22;stroke-width:1.0;"/><text fill="#000000" font-family="sans-serif" font-size="11" lengthAdjust="spacing" textLength="493" x="29" y="591.8901">mergeConfigs(commonConfigs: any, specificConfigs: any, extendedConfigs: any) : any</text><polygon fill="#FFFF44" points="20,596.4844,24,600.4844,20,604.4844,16,600.4844" style="stroke:#B38D22;stroke-width:1.0;"/><text fill="#000000" font-family="sans-serif" font-size="11" lengthAdjust="spacing" textLength="369" x="29" y="604.6948">validateBoolean(value: boolean, defaultValue: boolean) : boolean</text><polygon fill="#FFFF44" points="20,609.2891,24,613.2891,20,617.2891,16,613.2891" style="stroke:#B38D22;stroke-width:1.0;"/><text fill="#000000" font-family="sans-serif" font-size="11" lengthAdjust="spacing" textLength="389" x="29" y="617.4995">validateDate(value: string | Date, defaultValue: string) : string | Date</text><polygon fill="#FFFF44" points="20,622.0938,24,626.0938,20,630.0938,16,626.0938" style="stroke:#B38D22;stroke-width:1.0;"/><text fill="#000000" font-family="sans-serif" font-size="11" lengthAdjust="spacing" textLength="483" x="29" y="630.3042">validateInRange(value: unknown, defaultValue: unknown, args: unknown[]) : unknown</text><polygon fill="#FFFF44" points="20,634.8984,24,638.8984,20,642.8984,16,638.8984" style="stroke:#B38D22;stroke-width:1.0;"/><text fill="#000000" font-family="sans-serif" font-size="11" lengthAdjust="spacing" textLength="365" x="29" y="643.1089">validateNumber(value: number, defaultValue: number) : number</text><polygon fill="#FFFF44" points="20,647.7031,24,651.7031,20,655.7031,16,651.7031" style="stroke:#B38D22;stroke-width:1.0;"/><text fill="#000000" font-family="sans-serif" font-size="11" lengthAdjust="spacing" textLength="321" x="29" y="655.9136">validateString(value: string, defaultValue: string) : string</text><polygon fill="#FFFF44" points="20,660.5078,24,664.5078,20,668.5078,16,664.5078" style="stroke:#B38D22;stroke-width:1.0;"/><text fill="#000000" font-family="sans-serif" font-size="11" lengthAdjust="spacing" textLength="315" x="29" y="668.7183">validateTime(value: string, defaultValue: string) : string</text><polygon fill="#FFFF44" points="20,673.3125,24,677.3125,20,681.3125,16,677.3125" style="stroke:#B38D22;stroke-width:1.0;"/><text fill="#000000" font-family="sans-serif" font-size="11" lengthAdjust="spacing" textLength="174" x="29" y="681.5229">_checkLocale() : CustomLocale</text><rect fill="#F24D5C" height="6" style="stroke:#C82930;stroke-width:1.0;" width="6" x="17" y="688.1172"/><text fill="#000000" font-family="sans-serif" font-size="11" lengthAdjust="spacing" textLength="145" x="29" y="694.3276">_checkAltFormat() : string</text><!--MD5=[9afa15f6bc20c8bee88ded1c22fe0210]
class AbstractTimePickerConfig--><rect codeLine="35" fill="#FFFFFF" filter="url(#f176p89nc0xh25)" height="252.875" id="AbstractTimePickerConfig" style="stroke:#272B30;stroke-width:1.5;" width="519" x="9" y="7"/><ellipse cx="185.75" cy="23" fill="#A9DCDF" rx="11" ry="11" style="stroke:#272B30;stroke-width:1.0;"/><path d="M185.8594,18.3438 L184.7031,23.4219 L187.0313,23.4219 L185.8594,18.3438 Z M184.375,16.1094 L187.3594,16.1094 L190.7188,28.5 L188.2656,28.5 L187.5,25.4375 L184.2188,25.4375 L183.4688,28.5 L181.0313,28.5 L184.375,16.1094 Z " fill="#000000"/><text fill="#000000" font-family="sans-serif" font-size="12" font-style="italic" lengthAdjust="spacing" textLength="157" x="206.25" y="27.1543">AbstractTimePickerConfig</text><line style="stroke:#272B30;stroke-width:1.5;" x1="10" x2="527" y1="39" y2="39"/><ellipse cx="20" cy="50" rx="3" ry="3" style="stroke:#038048;stroke-width:1.0;fill:none;"/><text fill="#000000" font-family="sans-serif" font-size="11" lengthAdjust="spacing" textLength="129" x="29" y="53.2104">ExtendedClass : string</text><ellipse cx="20" cy="62.8047" rx="3" ry="3" style="stroke:#038048;stroke-width:1.0;fill:none;"/><text fill="#000000" font-family="sans-serif" font-size="11" lengthAdjust="spacing" textLength="131" x="29" y="66.0151">FirstWeekDay : number</text><ellipse cx="20" cy="75.6094" rx="3" ry="3" style="stroke:#038048;stroke-width:1.0;fill:none;"/><text fill="#000000" font-family="sans-serif" font-size="11" lengthAdjust="spacing" textLength="103" x="29" y="78.8198">InitialTime : string</text><ellipse cx="20" cy="88.4141" rx="3" ry="3" style="stroke:#038048;stroke-width:1.0;fill:none;"/><text fill="#000000" font-family="sans-serif" font-size="11" lengthAdjust="spacing" textLength="115" x="29" y="91.6245">Is24Hours : boolean</text><ellipse cx="20" cy="101.2188" rx="3" ry="3" style="stroke:#038048;stroke-width:1.0;fill:none;"/><text fill="#000000" font-family="sans-serif" font-size="11" lengthAdjust="spacing" textLength="95" x="29" y="104.4292">MaxTime : string</text><ellipse cx="20" cy="114.0234" rx="3" ry="3" style="stroke:#038048;stroke-width:1.0;fill:none;"/><text fill="#000000" font-family="sans-serif" font-size="11" lengthAdjust="spacing" textLength="92" x="29" y="117.2339">MinTime : string</text><line style="stroke:#272B30;stroke-width:1.5;" x1="10" x2="527" y1="123.8281" y2="123.8281"/><ellipse cx="20" cy="134.8281" fill="#84BE84" rx="3" ry="3" style="stroke:#038048;stroke-width:1.0;"/><text fill="#000000" font-family="sans-serif" font-size="11" font-style="italic" lengthAdjust="spacing" textLength="143" x="29" y="138.0386">getProviderConfig() : any</text><ellipse cx="20" cy="147.6328" fill="#84BE84" rx="3" ry="3" style="stroke:#038048;stroke-width:1.0;"/><text fill="#000000" font-family="sans-serif" font-size="11" lengthAdjust="spacing" textLength="342" x="29" y="150.8433">validateCanChange(_isBuilt: boolean, _key: string) : boolean</text><ellipse cx="20" cy="160.4375" fill="#84BE84" rx="3" ry="3" style="stroke:#038048;stroke-width:1.0;"/><text fill="#000000" font-family="sans-serif" font-size="11" lengthAdjust="spacing" textLength="310" x="29" y="163.6479">validateDefault(key: string, value: unknown) : unknown</text><polygon fill="#FFFF44" points="20,168.2422,24,172.2422,20,176.2422,16,172.2422" style="stroke:#B38D22;stroke-width:1.0;"/><text fill="#000000" font-family="sans-serif" font-size="11" lengthAdjust="spacing" textLength="493" x="29" y="176.4526">mergeConfigs(commonConfigs: any, specificConfigs: any, extendedConfigs: any) : any</text><polygon fill="#FFFF44" points="20,181.0469,24,185.0469,20,189.0469,16,185.0469" style="stroke:#B38D22;stroke-width:1.0;"/><text fill="#000000" font-family="sans-serif" font-size="11" lengthAdjust="spacing" textLength="369" x="29" y="189.2573">validateBoolean(value: boolean, defaultValue: boolean) : boolean</text><polygon fill="#FFFF44" points="20,193.8516,24,197.8516,20,201.8516,16,197.8516" style="stroke:#B38D22;stroke-width:1.0;"/><text fill="#000000" font-family="sans-serif" font-size="11" lengthAdjust="spacing" textLength="389" x="29" y="202.062">validateDate(value: string | Date, defaultValue: string) : string | Date</text><polygon fill="#FFFF44" points="20,206.6563,24,210.6563,20,214.6563,16,210.6563" style="stroke:#B38D22;stroke-width:1.0;"/><text fill="#000000" font-family="sans-serif" font-size="11" lengthAdjust="spacing" textLength="483" x="29" y="214.8667">validateInRange(value: unknown, defaultValue: unknown, args: unknown[]) : unknown</text><polygon fill="#FFFF44" points="20,219.4609,24,223.4609,20,227.4609,16,223.4609" style="stroke:#B38D22;stroke-width:1.0;"/><text fill="#000000" font-family="sans-serif" font-size="11" lengthAdjust="spacing" textLength="365" x="29" y="227.6714">validateNumber(value: number, defaultValue: number) : number</text><polygon fill="#FFFF44" points="20,232.2656,24,236.2656,20,240.2656,16,236.2656" style="stroke:#B38D22;stroke-width:1.0;"/><text fill="#000000" font-family="sans-serif" font-size="11" lengthAdjust="spacing" textLength="321" x="29" y="240.4761">validateString(value: string, defaultValue: string) : string</text><polygon fill="#FFFF44" points="20,245.0703,24,249.0703,20,253.0703,16,249.0703" style="stroke:#B38D22;stroke-width:1.0;"/><text fill="#000000" font-family="sans-serif" font-size="11" lengthAdjust="spacing" textLength="315" x="29" y="253.2808">validateTime(value: string, defaultValue: string) : string</text><!--MD5=[93d40c54405308052be1b5e9f7214300]
reverse link AbstractTimePickerConfig to FlatpickrTimeConfig--><path codeLine="53" d="M268.5,280.33 C268.5,293.34 268.5,306.63 268.5,319.93 " fill="none" id="AbstractTimePickerConfig-backto-FlatpickrTimeConfig" style="stroke:#272B30;stroke-width:1.0;"/><polygon fill="none" points="261.5,280.15,268.5,260.15,275.5,280.15,261.5,280.15" style="stroke:#272B30;stroke-width:1.0;"/><!--MD5=[100f935a5ba6c04c3bb8d83d2ce379c0]
@startuml
skinparam ClassArrowColor #272b30
skinparam ClassBorderColor #272b30
skinparam ClassBackgroundColor #fff
skinparam BackgroundColor #ced4da
hide empty methods
hide empty fields
class "FlatpickrTimeConfig" {
    +AllowInput : boolean
    +DisableMobile : boolean
    +ExtendedClass : string
    +FirstWeekDay : number
    +InitialTime : string
    +Is24Hours : boolean
    +MaxTime : string
    +MinTime : string
    +OnChange : Generic
    +ServerDateFormat : string
    #_providerExtendedOptions : BaseOptions
    -_lang : string
    -_providerOptions : BaseOptions
    +getProviderConfig() : BaseOptions
    +setExtensibilityConfigs(newConfigs: BaseOptions) : void
    +validateCanChange(_isBuilt: boolean, _key: string) : boolean
    +validateDefault(key: string, value: unknown) : unknown
    #mergeConfigs(commonConfigs: any, specificConfigs: any, extendedConfigs: any) : any
    #validateBoolean(value: boolean, defaultValue: boolean) : boolean
    #validateDate(value: string | Date, defaultValue: string) : string | Date
    #validateInRange(value: unknown, defaultValue: unknown, args: unknown[]) : unknown
    #validateNumber(value: number, defaultValue: number) : number
    #validateString(value: string, defaultValue: string) : string
    #validateTime(value: string, defaultValue: string) : string
    #_checkLocale() : CustomLocale
    -_checkAltFormat() : string
}
abstract class "AbstractTimePickerConfig" {
    +ExtendedClass : string
    +FirstWeekDay : number
    +InitialTime : string
    +Is24Hours : boolean
    +MaxTime : string
    +MinTime : string
    {abstract} +getProviderConfig() : any
    +validateCanChange(_isBuilt: boolean, _key: string) : boolean
    +validateDefault(key: string, value: unknown) : unknown
    #mergeConfigs(commonConfigs: any, specificConfigs: any, extendedConfigs: any) : any
    #validateBoolean(value: boolean, defaultValue: boolean) : boolean
    #validateDate(value: string | Date, defaultValue: string) : string | Date
    #validateInRange(value: unknown, defaultValue: unknown, args: unknown[]) : unknown
    #validateNumber(value: number, defaultValue: number) : number
    #validateString(value: string, defaultValue: string) : string
    #validateTime(value: string, defaultValue: string) : string
}
"AbstractTimePickerConfig" <|- - "FlatpickrTimeConfig"
@enduml

PlantUML version 1.2021.14(Fri Nov 12 16:46:50 UTC 2021)
(GPL source distribution)
Java Runtime: OpenJDK Runtime Environment
JVM: OpenJDK 64-Bit Server VM
Default Encoding: UTF-8
Language: en
Country: null
--></g></svg>