<?xml version="1.0" encoding="us-ascii" standalone="no"?><svg xmlns="http://www.w3.org/2000/svg" xmlns:xlink="http://www.w3.org/1999/xlink" contentStyleType="text/css" height="1311px" preserveAspectRatio="none" style="width:636px;height:1311px;background:#CED4DA;" version="1.1" viewBox="0 0 636 1311" width="636px" zoomAndPan="magnify"><defs/><g><rect fill="#CED4DA" height="1311" style="stroke:none;stroke-width:1.0;" width="636" x="0" y="0"/><!--class FlatpickrRangeDateConfig--><g id="elem_FlatpickrRangeDateConfig"><rect codeLine="7" fill="#FFFFFF" height="553.2031" id="FlatpickrRangeDateConfig" rx="2.5" ry="2.5" style="stroke:#272B30;stroke-width:0.5;" width="620" x="9" y="751"/><ellipse cx="225.25" cy="767" fill="#ADD1B2" rx="11" ry="11" style="stroke:#181818;stroke-width:1.0;"/><path d="M228.2188,772.6406 Q227.6406,772.9375 227,773.0781 Q226.3594,773.2344 225.6563,773.2344 Q223.1563,773.2344 221.8281,771.5938 Q220.5156,769.9375 220.5156,766.8125 Q220.5156,763.6875 221.8281,762.0313 Q223.1563,760.375 225.6563,760.375 Q226.3594,760.375 227,760.5313 Q227.6563,760.6875 228.2188,760.9844 L228.2188,763.7031 Q227.5938,763.125 227,762.8594 Q226.4063,762.5781 225.7813,762.5781 Q224.4375,762.5781 223.75,763.6563 Q223.0625,764.7188 223.0625,766.8125 Q223.0625,768.9063 223.75,769.9844 Q224.4375,771.0469 225.7813,771.0469 Q226.4063,771.0469 227,770.7813 Q227.5938,770.5 228.2188,769.9219 L228.2188,772.6406 Z " fill="#000000"/><text fill="#000000" font-family="sans-serif" font-size="14" lengthAdjust="spacing" textLength="179" x="245.75" y="771.8467">FlatpickrRangeDateConfig</text><line style="stroke:#272B30;stroke-width:0.5;" x1="10" x2="628" y1="783" y2="783"/><ellipse cx="20" cy="796.6484" fill="none" rx="3" ry="3" style="stroke:#038048;stroke-width:1.0;"/><text fill="#000000" font-family="sans-serif" font-size="14" lengthAdjust="spacing" textLength="139" x="29" y="799.9951">AllowInput : boolean</text><ellipse cx="20" cy="812.9453" fill="none" rx="3" ry="3" style="stroke:#038048;stroke-width:1.0;"/><text fill="#000000" font-family="sans-serif" font-size="14" lengthAdjust="spacing" textLength="152" x="29" y="816.292">CalendarMode : Mode</text><ellipse cx="20" cy="829.2422" fill="none" rx="3" ry="3" style="stroke:#038048;stroke-width:1.0;"/><text fill="#000000" font-family="sans-serif" font-size="14" lengthAdjust="spacing" textLength="133" x="29" y="832.5889">DateFormat : string</text><ellipse cx="20" cy="845.5391" fill="none" rx="3" ry="3" style="stroke:#038048;stroke-width:1.0;"/><text fill="#000000" font-family="sans-serif" font-size="14" lengthAdjust="spacing" textLength="98" x="29" y="848.8857">Disable : any[]</text><ellipse cx="20" cy="861.8359" fill="none" rx="3" ry="3" style="stroke:#038048;stroke-width:1.0;"/><text fill="#000000" font-family="sans-serif" font-size="14" lengthAdjust="spacing" textLength="165" x="29" y="865.1826">DisableMobile : boolean</text><ellipse cx="20" cy="878.1328" fill="none" rx="3" ry="3" style="stroke:#038048;stroke-width:1.0;"/><text fill="#000000" font-family="sans-serif" font-size="14" lengthAdjust="spacing" textLength="155" x="29" y="881.4795">ExtendedClass : string</text><ellipse cx="20" cy="894.4297" fill="none" rx="3" ry="3" style="stroke:#038048;stroke-width:1.0;"/><text fill="#000000" font-family="sans-serif" font-size="14" lengthAdjust="spacing" textLength="161" x="29" y="897.7764">FirstWeekDay : number</text><ellipse cx="20" cy="910.7266" fill="none" rx="3" ry="3" style="stroke:#038048;stroke-width:1.0;"/><text fill="#000000" font-family="sans-serif" font-size="14" lengthAdjust="spacing" textLength="146" x="29" y="914.0732">InitialEndDate : string</text><ellipse cx="20" cy="927.0234" fill="none" rx="3" ry="3" style="stroke:#038048;stroke-width:1.0;"/><text fill="#000000" font-family="sans-serif" font-size="14" lengthAdjust="spacing" textLength="151" x="29" y="930.3701">InitialStartDate : string</text><ellipse cx="20" cy="943.3203" fill="none" rx="3" ry="3" style="stroke:#038048;stroke-width:1.0;"/><text fill="#000000" font-family="sans-serif" font-size="14" lengthAdjust="spacing" textLength="112" x="29" y="946.667">MaxDate : string</text><ellipse cx="20" cy="959.6172" fill="none" rx="3" ry="3" style="stroke:#038048;stroke-width:1.0;"/><text fill="#000000" font-family="sans-serif" font-size="14" lengthAdjust="spacing" textLength="109" x="29" y="962.9639">MinDate : string</text><ellipse cx="20" cy="975.9141" fill="none" rx="3" ry="3" style="stroke:#038048;stroke-width:1.0;"/><text fill="#000000" font-family="sans-serif" font-size="14" lengthAdjust="spacing" textLength="141" x="29" y="979.2607">OnChange : Generic</text><ellipse cx="20" cy="992.2109" fill="none" rx="3" ry="3" style="stroke:#038048;stroke-width:1.0;"/><text fill="#000000" font-family="sans-serif" font-size="14" lengthAdjust="spacing" textLength="126" x="29" y="995.5576">OnClose : Generic</text><ellipse cx="20" cy="1008.5078" fill="none" rx="3" ry="3" style="stroke:#038048;stroke-width:1.0;"/><text fill="#000000" font-family="sans-serif" font-size="14" lengthAdjust="spacing" textLength="185" x="29" y="1011.8545">OnMonthChange : Generic</text><ellipse cx="20" cy="1024.8047" fill="none" rx="3" ry="3" style="stroke:#038048;stroke-width:1.0;"/><text fill="#000000" font-family="sans-serif" font-size="14" lengthAdjust="spacing" textLength="125" x="29" y="1028.1514">OnOpen : Generic</text><ellipse cx="20" cy="1041.1016" fill="none" rx="3" ry="3" style="stroke:#038048;stroke-width:1.0;"/><text fill="#000000" font-family="sans-serif" font-size="14" lengthAdjust="spacing" textLength="196" x="29" y="1044.4482">ShowTodayButton : boolean</text><ellipse cx="20" cy="1057.3984" fill="none" rx="3" ry="3" style="stroke:#038048;stroke-width:1.0;"/><text fill="#000000" font-family="sans-serif" font-size="14" lengthAdjust="spacing" textLength="209" x="29" y="1060.7451">ShowWeekNumbers : boolean</text><ellipse cx="20" cy="1073.6953" fill="none" rx="3" ry="3" style="stroke:#038048;stroke-width:1.0;"/><text fill="#000000" font-family="sans-serif" font-size="14" lengthAdjust="spacing" textLength="134" x="29" y="1077.042">TimeFormat : string</text><polygon fill="none" points="20,1084.9922,24,1088.9922,20,1092.9922,16,1088.9922" style="stroke:#B38D22;stroke-width:1.0;"/><text fill="#000000" font-family="sans-serif" font-size="14" lengthAdjust="spacing" textLength="300" x="29" y="1093.3389">providerExtendedOptions : FlatpickrOptions</text><line style="stroke:#272B30;stroke-width:0.5;" x1="10" x2="628" y1="1100.6406" y2="1100.6406"/><ellipse cx="20" cy="1114.2891" fill="#84BE84" rx="3" ry="3" style="stroke:#038048;stroke-width:1.0;"/><text fill="#000000" font-family="sans-serif" font-size="14" lengthAdjust="spacing" textLength="257" x="29" y="1117.6357">getProviderConfig() : FlatpickrOptions</text><ellipse cx="20" cy="1130.5859" fill="#84BE84" rx="3" ry="3" style="stroke:#038048;stroke-width:1.0;"/><text fill="#000000" font-family="sans-serif" font-size="14" lengthAdjust="spacing" textLength="406" x="29" y="1133.9326">setExtensibilityConfigs(newConfigs: FlatpickrOptions) : void</text><ellipse cx="20" cy="1146.8828" fill="#84BE84" rx="3" ry="3" style="stroke:#038048;stroke-width:1.0;"/><text fill="#000000" font-family="sans-serif" font-size="14" lengthAdjust="spacing" textLength="412" x="29" y="1150.2295">validateCanChange(_isBuilt: boolean, _key: string) : boolean</text><ellipse cx="20" cy="1163.1797" fill="#84BE84" rx="3" ry="3" style="stroke:#038048;stroke-width:1.0;"/><text fill="#000000" font-family="sans-serif" font-size="14" lengthAdjust="spacing" textLength="377" x="29" y="1166.5264">validateDefault(key: string, value: unknown) : unknown</text><polygon fill="#FFFF44" points="20,1174.4766,24,1178.4766,20,1182.4766,16,1178.4766" style="stroke:#B38D22;stroke-width:1.0;"/><text fill="#000000" font-family="sans-serif" font-size="14" lengthAdjust="spacing" textLength="594" x="29" y="1182.8232">mergeConfigs(commonConfigs: any, specificConfigs: any, extendedConfigs: any) : any</text><polygon fill="#FFFF44" points="20,1190.7734,24,1194.7734,20,1198.7734,16,1194.7734" style="stroke:#B38D22;stroke-width:1.0;"/><text fill="#000000" font-family="sans-serif" font-size="14" lengthAdjust="spacing" textLength="447" x="29" y="1199.1201">validateBoolean(value: boolean, defaultValue: boolean) : boolean</text><polygon fill="#FFFF44" points="20,1207.0703,24,1211.0703,20,1215.0703,16,1211.0703" style="stroke:#B38D22;stroke-width:1.0;"/><text fill="#000000" font-family="sans-serif" font-size="14" lengthAdjust="spacing" textLength="464" x="29" y="1215.417">validateDate(value: string | Date, defaultValue: string) : string | Date</text><polygon fill="#FFFF44" points="20,1223.3672,24,1227.3672,20,1231.3672,16,1227.3672" style="stroke:#B38D22;stroke-width:1.0;"/><text fill="#000000" font-family="sans-serif" font-size="14" lengthAdjust="spacing" textLength="592" x="29" y="1231.7139">validateInRange(value: unknown, defaultValue: unknown, args: unknown[]) : unknown</text><polygon fill="#FFFF44" points="20,1239.6641,24,1243.6641,20,1247.6641,16,1243.6641" style="stroke:#B38D22;stroke-width:1.0;"/><text fill="#000000" font-family="sans-serif" font-size="14" lengthAdjust="spacing" textLength="439" x="29" y="1248.0107">validateNumber(value: number, defaultValue: number) : number</text><polygon fill="#FFFF44" points="20,1255.9609,24,1259.9609,20,1263.9609,16,1259.9609" style="stroke:#B38D22;stroke-width:1.0;"/><text fill="#000000" font-family="sans-serif" font-size="14" lengthAdjust="spacing" textLength="379" x="29" y="1264.3076">validateString(value: string, defaultValue: string) : string</text><polygon fill="#FFFF44" points="20,1272.2578,24,1276.2578,20,1280.2578,16,1276.2578" style="stroke:#B38D22;stroke-width:1.0;"/><text fill="#000000" font-family="sans-serif" font-size="14" lengthAdjust="spacing" textLength="373" x="29" y="1280.6045">validateTime(value: string, defaultValue: string) : string</text><rect fill="#F24D5C" height="6" style="stroke:#C82930;stroke-width:1.0;" width="6" x="17" y="1290.5547"/><text fill="#000000" font-family="sans-serif" font-size="14" lengthAdjust="spacing" textLength="183" x="29" y="1296.9014">_setDefaultDate() : string[]</text></g><!--class AbstractFlatpickrConfig--><g id="elem_AbstractFlatpickrConfig"><rect codeLine="40" fill="#FFFFFF" height="683.5781" id="AbstractFlatpickrConfig" rx="2.5" ry="2.5" style="stroke:#272B30;stroke-width:0.5;" width="620" x="9" y="7"/><ellipse cx="235.75" cy="23" fill="#A9DCDF" rx="11" ry="11" style="stroke:#181818;stroke-width:1.0;"/><path d="M235.8594,18.3438 L234.7031,23.4219 L237.0313,23.4219 L235.8594,18.3438 Z M234.375,16.1094 L237.3594,16.1094 L240.7188,28.5 L238.2656,28.5 L237.5,25.4375 L234.2188,25.4375 L233.4688,28.5 L231.0313,28.5 L234.375,16.1094 Z " fill="#000000"/><text fill="#000000" font-family="sans-serif" font-size="14" font-style="italic" lengthAdjust="spacing" textLength="158" x="256.25" y="27.8467">AbstractFlatpickrConfig</text><line style="stroke:#272B30;stroke-width:0.5;" x1="10" x2="628" y1="39" y2="39"/><ellipse cx="20" cy="52.6484" fill="none" rx="3" ry="3" style="stroke:#038048;stroke-width:1.0;"/><text fill="#000000" font-family="sans-serif" font-size="14" lengthAdjust="spacing" textLength="139" x="29" y="55.9951">AllowInput : boolean</text><ellipse cx="20" cy="68.9453" fill="none" rx="3" ry="3" style="stroke:#038048;stroke-width:1.0;"/><text fill="#000000" font-family="sans-serif" font-size="14" lengthAdjust="spacing" textLength="152" x="29" y="72.292">CalendarMode : Mode</text><ellipse cx="20" cy="85.2422" fill="none" rx="3" ry="3" style="stroke:#038048;stroke-width:1.0;"/><text fill="#000000" font-family="sans-serif" font-size="14" lengthAdjust="spacing" textLength="133" x="29" y="88.5889">DateFormat : string</text><ellipse cx="20" cy="101.5391" fill="none" rx="3" ry="3" style="stroke:#038048;stroke-width:1.0;"/><text fill="#000000" font-family="sans-serif" font-size="14" lengthAdjust="spacing" textLength="98" x="29" y="104.8857">Disable : any[]</text><ellipse cx="20" cy="117.8359" fill="none" rx="3" ry="3" style="stroke:#038048;stroke-width:1.0;"/><text fill="#000000" font-family="sans-serif" font-size="14" lengthAdjust="spacing" textLength="165" x="29" y="121.1826">DisableMobile : boolean</text><ellipse cx="20" cy="134.1328" fill="none" rx="3" ry="3" style="stroke:#038048;stroke-width:1.0;"/><text fill="#000000" font-family="sans-serif" font-size="14" lengthAdjust="spacing" textLength="155" x="29" y="137.4795">ExtendedClass : string</text><ellipse cx="20" cy="150.4297" fill="none" rx="3" ry="3" style="stroke:#038048;stroke-width:1.0;"/><text fill="#000000" font-family="sans-serif" font-size="14" lengthAdjust="spacing" textLength="161" x="29" y="153.7764">FirstWeekDay : number</text><ellipse cx="20" cy="166.7266" fill="none" rx="3" ry="3" style="stroke:#038048;stroke-width:1.0;"/><text fill="#000000" font-family="sans-serif" font-size="14" lengthAdjust="spacing" textLength="112" x="29" y="170.0732">MaxDate : string</text><ellipse cx="20" cy="183.0234" fill="none" rx="3" ry="3" style="stroke:#038048;stroke-width:1.0;"/><text fill="#000000" font-family="sans-serif" font-size="14" lengthAdjust="spacing" textLength="109" x="29" y="186.3701">MinDate : string</text><ellipse cx="20" cy="199.3203" fill="none" rx="3" ry="3" style="stroke:#038048;stroke-width:1.0;"/><text fill="#000000" font-family="sans-serif" font-size="14" lengthAdjust="spacing" textLength="141" x="29" y="202.667">OnChange : Generic</text><ellipse cx="20" cy="215.6172" fill="none" rx="3" ry="3" style="stroke:#038048;stroke-width:1.0;"/><text fill="#000000" font-family="sans-serif" font-size="14" lengthAdjust="spacing" textLength="126" x="29" y="218.9639">OnClose : Generic</text><ellipse cx="20" cy="231.9141" fill="none" rx="3" ry="3" style="stroke:#038048;stroke-width:1.0;"/><text fill="#000000" font-family="sans-serif" font-size="14" lengthAdjust="spacing" textLength="185" x="29" y="235.2607">OnMonthChange : Generic</text><ellipse cx="20" cy="248.2109" fill="none" rx="3" ry="3" style="stroke:#038048;stroke-width:1.0;"/><text fill="#000000" font-family="sans-serif" font-size="14" lengthAdjust="spacing" textLength="125" x="29" y="251.5576">OnOpen : Generic</text><ellipse cx="20" cy="264.5078" fill="none" rx="3" ry="3" style="stroke:#038048;stroke-width:1.0;"/><text fill="#000000" font-family="sans-serif" font-size="14" lengthAdjust="spacing" textLength="196" x="29" y="267.8545">ShowTodayButton : boolean</text><ellipse cx="20" cy="280.8047" fill="none" rx="3" ry="3" style="stroke:#038048;stroke-width:1.0;"/><text fill="#000000" font-family="sans-serif" font-size="14" lengthAdjust="spacing" textLength="209" x="29" y="284.1514">ShowWeekNumbers : boolean</text><ellipse cx="20" cy="297.1016" fill="none" rx="3" ry="3" style="stroke:#038048;stroke-width:1.0;"/><text fill="#000000" font-family="sans-serif" font-size="14" lengthAdjust="spacing" textLength="134" x="29" y="300.4482">TimeFormat : string</text><polygon fill="none" points="20,308.3984,24,312.3984,20,316.3984,16,312.3984" style="stroke:#B38D22;stroke-width:1.0;"/><text fill="#000000" font-family="sans-serif" font-size="14" lengthAdjust="spacing" textLength="300" x="29" y="316.7451">providerExtendedOptions : FlatpickrOptions</text><rect fill="none" height="6" style="stroke:#C82930;stroke-width:1.0;" width="6" x="17" y="326.6953"/><text fill="#000000" font-family="sans-serif" font-size="14" lengthAdjust="spacing" textLength="146" x="29" y="333.042">_disabledDays : any[]</text><rect fill="none" height="6" style="stroke:#C82930;stroke-width:1.0;" width="6" x="17" y="342.9922"/><text fill="#000000" font-family="sans-serif" font-size="14" lengthAdjust="spacing" textLength="185" x="29" y="349.3389">_disabledWeekDays : any[]</text><rect fill="none" height="6" style="stroke:#C82930;stroke-width:1.0;" width="6" x="17" y="359.2891"/><text fill="#000000" font-family="sans-serif" font-size="14" lengthAdjust="spacing" textLength="149" x="29" y="365.6357">_dynamicLang : string</text><rect fill="none" height="6" style="stroke:#C82930;stroke-width:1.0;" width="6" x="17" y="375.5859"/><text fill="#000000" font-family="sans-serif" font-size="14" lengthAdjust="spacing" textLength="193" x="29" y="381.9326">_isUsingDateTime : boolean</text><rect fill="none" height="6" style="stroke:#C82930;stroke-width:1.0;" width="6" x="17" y="391.8828"/><text fill="#000000" font-family="sans-serif" font-size="14" lengthAdjust="spacing" textLength="241" x="29" y="398.2295">_providerOptions : FlatpickrOptions</text><line style="stroke:#272B30;stroke-width:0.5;" x1="10" x2="628" y1="405.5313" y2="405.5313"/><ellipse cx="20" cy="419.1797" fill="#84BE84" rx="3" ry="3" style="stroke:#038048;stroke-width:1.0;"/><text fill="#000000" font-family="sans-serif" font-size="14" lengthAdjust="spacing" textLength="257" x="29" y="422.5264">getProviderConfig() : FlatpickrOptions</text><ellipse cx="20" cy="435.4766" fill="#84BE84" rx="3" ry="3" style="stroke:#038048;stroke-width:1.0;"/><text fill="#000000" font-family="sans-serif" font-size="14" lengthAdjust="spacing" textLength="406" x="29" y="438.8232">setExtensibilityConfigs(newConfigs: FlatpickrOptions) : void</text><ellipse cx="20" cy="451.7734" fill="#84BE84" rx="3" ry="3" style="stroke:#038048;stroke-width:1.0;"/><text fill="#000000" font-family="sans-serif" font-size="14" lengthAdjust="spacing" textLength="412" x="29" y="455.1201">validateCanChange(_isBuilt: boolean, _key: string) : boolean</text><ellipse cx="20" cy="468.0703" fill="#84BE84" rx="3" ry="3" style="stroke:#038048;stroke-width:1.0;"/><text fill="#000000" font-family="sans-serif" font-size="14" lengthAdjust="spacing" textLength="377" x="29" y="471.417">validateDefault(key: string, value: unknown) : unknown</text><polygon fill="#FFFF44" points="20,479.3672,24,483.3672,20,487.3672,16,483.3672" style="stroke:#B38D22;stroke-width:1.0;"/><text fill="#000000" font-family="sans-serif" font-size="14" lengthAdjust="spacing" textLength="594" x="29" y="487.7139">mergeConfigs(commonConfigs: any, specificConfigs: any, extendedConfigs: any) : any</text><polygon fill="#FFFF44" points="20,495.6641,24,499.6641,20,503.6641,16,499.6641" style="stroke:#B38D22;stroke-width:1.0;"/><text fill="#000000" font-family="sans-serif" font-size="14" lengthAdjust="spacing" textLength="447" x="29" y="504.0107">validateBoolean(value: boolean, defaultValue: boolean) : boolean</text><polygon fill="#FFFF44" points="20,511.9609,24,515.9609,20,519.9609,16,515.9609" style="stroke:#B38D22;stroke-width:1.0;"/><text fill="#000000" font-family="sans-serif" font-size="14" lengthAdjust="spacing" textLength="464" x="29" y="520.3076">validateDate(value: string | Date, defaultValue: string) : string | Date</text><polygon fill="#FFFF44" points="20,528.2578,24,532.2578,20,536.2578,16,532.2578" style="stroke:#B38D22;stroke-width:1.0;"/><text fill="#000000" font-family="sans-serif" font-size="14" lengthAdjust="spacing" textLength="592" x="29" y="536.6045">validateInRange(value: unknown, defaultValue: unknown, args: unknown[]) : unknown</text><polygon fill="#FFFF44" points="20,544.5547,24,548.5547,20,552.5547,16,548.5547" style="stroke:#B38D22;stroke-width:1.0;"/><text fill="#000000" font-family="sans-serif" font-size="14" lengthAdjust="spacing" textLength="439" x="29" y="552.9014">validateNumber(value: number, defaultValue: number) : number</text><polygon fill="#FFFF44" points="20,560.8516,24,564.8516,20,568.8516,16,564.8516" style="stroke:#B38D22;stroke-width:1.0;"/><text fill="#000000" font-family="sans-serif" font-size="14" lengthAdjust="spacing" textLength="379" x="29" y="569.1982">validateString(value: string, defaultValue: string) : string</text><polygon fill="#FFFF44" points="20,577.1484,24,581.1484,20,585.1484,16,581.1484" style="stroke:#B38D22;stroke-width:1.0;"/><text fill="#000000" font-family="sans-serif" font-size="14" lengthAdjust="spacing" textLength="373" x="29" y="585.4951">validateTime(value: string, defaultValue: string) : string</text><rect fill="#F24D5C" height="6" style="stroke:#C82930;stroke-width:1.0;" width="6" x="17" y="595.4453"/><text fill="#000000" font-family="sans-serif" font-size="14" lengthAdjust="spacing" textLength="176" x="29" y="601.792">_checkAltFormat() : string</text><rect fill="#F24D5C" height="6" style="stroke:#C82930;stroke-width:1.0;" width="6" x="17" y="611.7422"/><text fill="#000000" font-family="sans-serif" font-size="14" lengthAdjust="spacing" textLength="325" x="29" y="618.0889">_checkDisableWeeksDay(date: Date) : boolean</text><rect fill="#F24D5C" height="6" style="stroke:#C82930;stroke-width:1.0;" width="6" x="17" y="628.0391"/><text fill="#000000" font-family="sans-serif" font-size="14" lengthAdjust="spacing" textLength="214" x="29" y="634.3857">_checkLocale() : CustomLocale</text><rect fill="#F24D5C" height="6" style="stroke:#C82930;stroke-width:1.0;" width="6" x="17" y="644.3359"/><text fill="#000000" font-family="sans-serif" font-size="14" lengthAdjust="spacing" textLength="236" x="29" y="650.6826">_mapProviderDateFormat() : string</text><rect fill="#F24D5C" height="6" style="stroke:#C82930;stroke-width:1.0;" width="6" x="17" y="660.6328"/><text fill="#000000" font-family="sans-serif" font-size="14" lengthAdjust="spacing" textLength="131" x="29" y="666.9795">_setDisable() : void</text><rect fill="#F24D5C" height="6" style="stroke:#C82930;stroke-width:1.0;" width="6" x="17" y="676.9297"/><text fill="#000000" font-family="sans-serif" font-size="14" lengthAdjust="spacing" textLength="423" x="29" y="683.2764">_validateDate(date: string, isMaxDate: boolean) : string | Date</text></g><!--reverse link AbstractFlatpickrConfig to FlatpickrRangeDateConfig--><g id="link_AbstractFlatpickrConfig_FlatpickrRangeDateConfig"><path codeLine="81" d="M319,709.22 C319,729.25 319,731.27 319,750.99 " fill="none" id="AbstractFlatpickrConfig-backto-FlatpickrRangeDateConfig" style="stroke:#272B30;stroke-width:1.0;"/><polygon fill="none" points="319,691.22,313,709.22,325,709.22,319,691.22" style="stroke:#272B30;stroke-width:1.0;"/></g><!--SRC=[xLRVQzim47xFNo7Q5uSrCBh18EmbFzfHQDQnTjj3AK6HpecmB1b9RchM_k-JBDc97BU3FOxa9T5tTv_kpj-TepCc2gnmZcOSQprHIcvdaak5Jiy_dQy-l1_es6Cg5GNrjWicsLh9Kj3WbgRfdi-1cG3zIF5WmoWWo0jJeHpCHbAz3wKCk4M8km2TN79i2aOozHsBDSonWPaKALkVeDy3P3_l9fpBxPKeIeF6Q2Kb1ooyPOOv28hLGbhkCN9Vtk1OBgNAiGlHHZ6n3WQcyOexPoog-uS8NCWLgqtH7HTFnju1j6v7X-sIAMr-0MHpN5cJAFCLA6-w4immp2y4TRbqueBnrc1bUimB_DI7Cj63teZPnlNDmbz0W6AanRdKFV122hDvBUQc0D55RpToUoSfhgQbCL9q- -FChWLVw-9rrtp7yjudSLee-MWbePh-tXI6IU7YMq44o1EjmNmB8LuVoV1LNmscfjNCFb5cAX-W4m7RyFCmqh4zIaOzmoFcZ3efuj3VPCdqj6JSjFMTeMK6LLFKi5jump2759VS97k-PyWQInYZKcH2ReMB3JzzRt9GQsYI9ZBFfMZpjhezGxe0mb96OXGQgUwXGozrpzlaDFM99Y6DjY3gS_qPmTtAMXQdneR25uQUaGExHBiEHMunsvMevp-9MzEbQc6iN87XUFzmqCA6rikoOVKJsYNrw32Uu9RXjiuvBlHl5SOCRWR-8Nwqj3eEygbxlRFRpVKom2jxmCIWi4WduTmg-t_OeyTTUBZVHalgEstVBPMEdi7E5DfvOAu4pXcvjZLtrSRq3srFyw3OJlQZPPFbSLCVD_LnKyUpGpP0iWatVhoJVdlOZsuojHtDnDquhXiyF1YsEk1Q4hkPQxPPgOtCFH1SSbmqSxRRqqdlIyHVd4IJCrf6yl39D4Kp7HPl9AvO52-3rryvdvz7epV-sly1]--></g></svg>