<?xml version="1.0" encoding="UTF-8" standalone="no"?><svg xmlns="http://www.w3.org/2000/svg" xmlns:xlink="http://www.w3.org/1999/xlink" contentScriptType="application/ecmascript" contentStyleType="text/css" height="850px" preserveAspectRatio="none" style="width:931px;height:850px;background:#CED4DA;" version="1.1" viewBox="0 0 931 850" width="931px" zoomAndPan="magnify"><defs><filter height="300%" id="f10aln2bt8ddpb" width="300%" x="-1" y="-1"><feGaussianBlur result="blurOut" stdDeviation="2.0"/><feColorMatrix in="blurOut" result="blurOut2" type="matrix" values="0 0 0 0 0 0 0 0 0 0 0 0 0 0 0 0 0 0 .4 0"/><feOffset dx="4.0" dy="4.0" in="blurOut2" result="blurOut3"/><feBlend in="SourceGraphic" in2="blurOut3" mode="normal"/></filter></defs><g><!--MD5=[76cc07a587b6d1d24436a8f4c10110a8]
class FlipContent--><rect codeLine="7" fill="#FFFFFF" filter="url(#f10aln2bt8ddpb)" height="423.6973" id="FlipContent" style="stroke:#272B30;stroke-width:1.5;" width="470" x="245" y="413"/><ellipse cx="443.75" cy="429" fill="#ADD1B2" rx="11" ry="11" style="stroke:#272B30;stroke-width:1.0;"/><path d="M446.2231,435.1431 Q445.6421,435.4419 445.0029,435.5913 Q444.3638,435.7407 443.6582,435.7407 Q441.1514,435.7407 439.8315,434.0889 Q438.5117,432.437 438.5117,429.3159 Q438.5117,426.1865 439.8315,424.5347 Q441.1514,422.8828 443.6582,422.8828 Q444.3638,422.8828 445.0112,423.0322 Q445.6587,423.1816 446.2231,423.4805 L446.2231,426.2031 Q445.5923,425.6221 444.9988,425.3523 Q444.4053,425.0825 443.7744,425.0825 Q442.4297,425.0825 441.7449,426.1492 Q441.0601,427.2158 441.0601,429.3159 Q441.0601,431.4077 441.7449,432.4744 Q442.4297,433.541 443.7744,433.541 Q444.4053,433.541 444.9988,433.2712 Q445.5923,433.0015 446.2231,432.4204 Z " fill="#000000"/><text fill="#000000" font-family="sans-serif" font-size="12" lengthAdjust="spacing" textLength="64" x="464.25" y="433.5352">FlipContent</text><line style="stroke:#272B30;stroke-width:1.5;" x1="246" x2="714" y1="445" y2="445"/><polygon fill="none" points="256,451,260,455,256,459,252,455" style="stroke:#B38D22;stroke-width:1.0;"/><text fill="#000000" font-family="sans-serif" font-size="11" lengthAdjust="spacing" textLength="137" x="265" y="459.6348">isProviderBased : boolean</text><rect fill="none" height="6" style="stroke:#C82930;stroke-width:1.0;" width="6" x="253" y="465.9551"/><text fill="#000000" font-family="sans-serif" font-size="11" lengthAdjust="spacing" textLength="111" x="265" y="472.5898">_eventClick : Generic</text><rect fill="none" height="6" style="stroke:#C82930;stroke-width:1.0;" width="6" x="253" y="478.9102"/><text fill="#000000" font-family="sans-serif" font-size="11" lengthAdjust="spacing" textLength="133" x="265" y="485.5449">_eventKeydown : Generic</text><rect fill="none" height="6" style="stroke:#C82930;stroke-width:1.0;" width="6" x="253" y="491.8652"/><text fill="#000000" font-family="sans-serif" font-size="11" lengthAdjust="spacing" textLength="191" x="265" y="498.5">_flipWrapperElement : HTMLElement</text><rect fill="none" height="6" style="stroke:#C82930;stroke-width:1.0;" width="6" x="253" y="504.8203"/><text fill="#000000" font-family="sans-serif" font-size="11" lengthAdjust="spacing" textLength="199" x="265" y="511.4551">_platformEventOnToggle : OSGeneric</text><line style="stroke:#272B30;stroke-width:1.5;" x1="246" x2="714" y1="517.7754" y2="517.7754"/><ellipse cx="256" cy="528.7754" fill="#84BE84" rx="3" ry="3" style="stroke:#038048;stroke-width:1.0;"/><text fill="#000000" font-family="sans-serif" font-size="11" lengthAdjust="spacing" textLength="67" x="265" y="532.4102">build() : void</text><ellipse cx="256" cy="541.7305" fill="#84BE84" rx="3" ry="3" style="stroke:#038048;stroke-width:1.0;"/><text fill="#000000" font-family="sans-serif" font-size="11" lengthAdjust="spacing" textLength="377" x="265" y="545.3652">changeProperty(propertyName: string, propertyValue: unknown) : void</text><ellipse cx="256" cy="554.6855" fill="#84BE84" rx="3" ry="3" style="stroke:#038048;stroke-width:1.0;"/><text fill="#000000" font-family="sans-serif" font-size="11" lengthAdjust="spacing" textLength="82" x="265" y="558.3203">dispose() : void</text><ellipse cx="256" cy="567.6406" fill="#84BE84" rx="3" ry="3" style="stroke:#038048;stroke-width:1.0;"/><text fill="#000000" font-family="sans-serif" font-size="11" lengthAdjust="spacing" textLength="207" x="265" y="571.2754">equalsToID(patternId: string) : boolean</text><ellipse cx="256" cy="580.5957" fill="#84BE84" rx="3" ry="3" style="stroke:#038048;stroke-width:1.0;"/><text fill="#000000" font-family="sans-serif" font-size="11" lengthAdjust="spacing" textLength="335" x="265" y="584.2305">registerCallback(eventName: string, callback: OSGeneric) : void</text><ellipse cx="256" cy="593.5508" fill="#84BE84" rx="3" ry="3" style="stroke:#038048;stroke-width:1.0;"/><text fill="#000000" font-family="sans-serif" font-size="11" lengthAdjust="spacing" textLength="135" x="265" y="597.1855">showBackContent() : void</text><ellipse cx="256" cy="606.5059" fill="#84BE84" rx="3" ry="3" style="stroke:#038048;stroke-width:1.0;"/><text fill="#000000" font-family="sans-serif" font-size="11" lengthAdjust="spacing" textLength="140" x="265" y="610.1406">showFrontContent() : void</text><ellipse cx="256" cy="619.4609" fill="#84BE84" rx="3" ry="3" style="stroke:#038048;stroke-width:1.0;"/><text fill="#000000" font-family="sans-serif" font-size="11" lengthAdjust="spacing" textLength="136" x="265" y="623.0957">toggleFlipContent() : void</text><polygon fill="#FFFF44" points="256,627.416,260,631.416,256,635.416,252,631.416" style="stroke:#B38D22;stroke-width:1.0;"/><text fill="#000000" font-family="sans-serif" font-size="11" lengthAdjust="spacing" textLength="96" x="265" y="636.0508">finishBuild() : void</text><polygon fill="#FFFF44" points="256,640.3711,260,644.3711,256,648.3711,252,644.3711" style="stroke:#B38D22;stroke-width:1.0;"/><text fill="#000000" font-family="sans-serif" font-size="11" lengthAdjust="spacing" textLength="140" x="265" y="649.0059">setA11YProperties() : void</text><polygon fill="#FFFF44" points="256,653.3262,260,657.3262,256,661.3262,252,657.3262" style="stroke:#B38D22;stroke-width:1.0;"/><text fill="#000000" font-family="sans-serif" font-size="11" lengthAdjust="spacing" textLength="107" x="265" y="661.9609">setCallbacks() : void</text><polygon fill="#FFFF44" points="256,666.2813,260,670.2813,256,674.2813,252,670.2813" style="stroke:#B38D22;stroke-width:1.0;"/><text fill="#000000" font-family="sans-serif" font-size="11" lengthAdjust="spacing" textLength="129" x="265" y="674.916">setHtmlElements() : void</text><polygon fill="#FFFF44" points="256,679.2363,260,683.2363,256,687.2363,252,683.2363" style="stroke:#B38D22;stroke-width:1.0;"/><text fill="#000000" font-family="sans-serif" font-size="11" lengthAdjust="spacing" textLength="444" x="265" y="687.8711">triggerPlatformEventCallback(platFormCallback: OSGeneric, args: unknown[]) : void</text><polygon fill="#FFFF44" points="256,692.1914,260,696.1914,256,700.1914,252,696.1914" style="stroke:#B38D22;stroke-width:1.0;"/><text fill="#000000" font-family="sans-serif" font-size="11" lengthAdjust="spacing" textLength="247" x="265" y="700.8262">triggerPlatformInitializedEventCallback() : void</text><polygon fill="#FFFF44" points="256,705.1465,260,709.1465,256,713.1465,252,709.1465" style="stroke:#B38D22;stroke-width:1.0;"/><text fill="#000000" font-family="sans-serif" font-size="11" lengthAdjust="spacing" textLength="121" x="265" y="713.7813">unsetCallbacks() : void</text><polygon fill="#FFFF44" points="256,718.1016,260,722.1016,256,726.1016,252,722.1016" style="stroke:#B38D22;stroke-width:1.0;"/><text fill="#000000" font-family="sans-serif" font-size="11" lengthAdjust="spacing" textLength="155" x="265" y="726.7363">unsetGlobalCallbacks() : void</text><polygon fill="#FFFF44" points="256,731.0566,260,735.0566,256,739.0566,252,735.0566" style="stroke:#B38D22;stroke-width:1.0;"/><text fill="#000000" font-family="sans-serif" font-size="11" lengthAdjust="spacing" textLength="143" x="265" y="739.6914">unsetHtmlElements() : void</text><rect fill="#F24D5C" height="6" style="stroke:#C82930;stroke-width:1.0;" width="6" x="253" y="746.0117"/><text fill="#000000" font-family="sans-serif" font-size="11" lengthAdjust="spacing" textLength="230" x="265" y="752.6465">_keydownCallback(e: KeyboardEvent) : void</text><rect fill="#F24D5C" height="6" style="stroke:#C82930;stroke-width:1.0;" width="6" x="253" y="758.9668"/><text fill="#000000" font-family="sans-serif" font-size="11" lengthAdjust="spacing" textLength="121" x="265" y="765.6016">_removeEvents() : void</text><rect fill="#F24D5C" height="6" style="stroke:#C82930;stroke-width:1.0;" width="6" x="253" y="771.9219"/><text fill="#000000" font-family="sans-serif" font-size="11" lengthAdjust="spacing" textLength="139" x="265" y="778.5566">_setEventHandlers() : void</text><rect fill="#F24D5C" height="6" style="stroke:#C82930;stroke-width:1.0;" width="6" x="253" y="784.877"/><text fill="#000000" font-family="sans-serif" font-size="11" lengthAdjust="spacing" textLength="132" x="265" y="791.5117">_setStartsFlipped() : void</text><rect fill="#F24D5C" height="6" style="stroke:#C82930;stroke-width:1.0;" width="6" x="253" y="797.832"/><text fill="#000000" font-family="sans-serif" font-size="11" lengthAdjust="spacing" textLength="121" x="265" y="804.4668">_toggleClasses() : void</text><rect fill="#F24D5C" height="6" style="stroke:#C82930;stroke-width:1.0;" width="6" x="253" y="810.7871"/><text fill="#000000" font-family="sans-serif" font-size="11" lengthAdjust="spacing" textLength="157" x="265" y="817.4219">_triggerPlatformEvent() : void</text><rect fill="#F24D5C" height="6" style="stroke:#C82930;stroke-width:1.0;" width="6" x="253" y="823.7422"/><text fill="#000000" font-family="sans-serif" font-size="11" lengthAdjust="spacing" textLength="166" x="265" y="830.377">_updateA11yProperties() : void</text><!--MD5=[0e8e52e1b699063a054bb13f4ddd3b8c]
class AbstractPattern<FlipContentConfig>--><rect codeLine="38" fill="#FFFFFF" filter="url(#f10aln2bt8ddpb)" height="345.9668" id="AbstractPattern&lt;FlipContentConfig&gt;" style="stroke:#272B30;stroke-width:1.5;" width="470" x="9" y="7"/><ellipse cx="135.25" cy="23" fill="#A9DCDF" rx="11" ry="11" style="stroke:#272B30;stroke-width:1.0;"/><path d="M135.1133,18.3481 L133.9595,23.4199 L136.2754,23.4199 Z M133.6191,16.1069 L136.6157,16.1069 L139.9609,28.5 L137.5122,28.5 L136.7485,25.437 L133.4697,25.437 L132.7227,28.5 L130.2739,28.5 Z " fill="#000000"/><text fill="#000000" font-family="sans-serif" font-size="12" font-style="italic" lengthAdjust="spacing" textLength="209" x="155.75" y="27.5352">AbstractPattern&lt;FlipContentConfig&gt;</text><line style="stroke:#272B30;stroke-width:1.5;" x1="10" x2="478" y1="39" y2="39"/><polygon fill="none" points="20,45,24,49,20,53,16,49" style="stroke:#B38D22;stroke-width:1.0;"/><text fill="#000000" font-family="sans-serif" font-size="11" lengthAdjust="spacing" textLength="137" x="29" y="53.6348">isProviderBased : boolean</text><rect fill="none" height="6" style="stroke:#C82930;stroke-width:1.0;" width="6" x="17" y="59.9551"/><text fill="#000000" font-family="sans-serif" font-size="11" lengthAdjust="spacing" textLength="153" x="29" y="66.5898">_configs : FlipContentConfig</text><rect fill="none" height="6" style="stroke:#C82930;stroke-width:1.0;" width="6" x="17" y="72.9102"/><text fill="#000000" font-family="sans-serif" font-size="11" lengthAdjust="spacing" textLength="90" x="29" y="79.5449">_isBuilt : boolean</text><rect fill="none" height="6" style="stroke:#C82930;stroke-width:1.0;" width="6" x="17" y="85.8652"/><text fill="#000000" font-family="sans-serif" font-size="11" lengthAdjust="spacing" textLength="197" x="29" y="92.5">_platformEventInitialized : OSGeneric</text><rect fill="none" height="6" style="stroke:#C82930;stroke-width:1.0;" width="6" x="17" y="98.8203"/><text fill="#000000" font-family="sans-serif" font-size="11" lengthAdjust="spacing" textLength="131" x="29" y="105.4551">_selfElem : HTMLElement</text><rect fill="none" height="6" style="stroke:#C82930;stroke-width:1.0;" width="6" x="17" y="111.7754"/><text fill="#000000" font-family="sans-serif" font-size="11" lengthAdjust="spacing" textLength="94" x="29" y="118.4102">_uniqueId : string</text><rect fill="none" height="6" style="stroke:#C82930;stroke-width:1.0;" width="6" x="17" y="124.7305"/><text fill="#000000" font-family="sans-serif" font-size="11" lengthAdjust="spacing" textLength="92" x="29" y="131.3652">_widgetId : string</text><line style="stroke:#272B30;stroke-width:1.5;" x1="10" x2="478" y1="137.6855" y2="137.6855"/><ellipse cx="20" cy="148.6855" fill="#84BE84" rx="3" ry="3" style="stroke:#038048;stroke-width:1.0;"/><text fill="#000000" font-family="sans-serif" font-size="11" lengthAdjust="spacing" textLength="67" x="29" y="152.3203">build() : void</text><ellipse cx="20" cy="161.6406" fill="#84BE84" rx="3" ry="3" style="stroke:#038048;stroke-width:1.0;"/><text fill="#000000" font-family="sans-serif" font-size="11" lengthAdjust="spacing" textLength="377" x="29" y="165.2754">changeProperty(propertyName: string, propertyValue: unknown) : void</text><ellipse cx="20" cy="174.5957" fill="#84BE84" rx="3" ry="3" style="stroke:#038048;stroke-width:1.0;"/><text fill="#000000" font-family="sans-serif" font-size="11" lengthAdjust="spacing" textLength="82" x="29" y="178.2305">dispose() : void</text><ellipse cx="20" cy="187.5508" fill="#84BE84" rx="3" ry="3" style="stroke:#038048;stroke-width:1.0;"/><text fill="#000000" font-family="sans-serif" font-size="11" lengthAdjust="spacing" textLength="207" x="29" y="191.1855">equalsToID(patternId: string) : boolean</text><ellipse cx="20" cy="200.5059" fill="#84BE84" rx="3" ry="3" style="stroke:#038048;stroke-width:1.0;"/><text fill="#000000" font-family="sans-serif" font-size="11" lengthAdjust="spacing" textLength="335" x="29" y="204.1406">registerCallback(eventName: string, callback: OSGeneric) : void</text><polygon fill="#FFFF44" points="20,208.4609,24,212.4609,20,216.4609,16,212.4609" style="stroke:#B38D22;stroke-width:1.0;"/><text fill="#000000" font-family="sans-serif" font-size="11" lengthAdjust="spacing" textLength="96" x="29" y="217.0957">finishBuild() : void</text><polygon fill="#FFFF44" points="20,221.416,24,225.416,20,229.416,16,225.416" style="stroke:#B38D22;stroke-width:1.0;"/><text fill="#000000" font-family="sans-serif" font-size="11" font-style="italic" lengthAdjust="spacing" textLength="140" x="29" y="230.0508">setA11YProperties() : void</text><polygon fill="#FFFF44" points="20,234.3711,24,238.3711,20,242.3711,16,238.3711" style="stroke:#B38D22;stroke-width:1.0;"/><text fill="#000000" font-family="sans-serif" font-size="11" font-style="italic" lengthAdjust="spacing" textLength="107" x="29" y="243.0059">setCallbacks() : void</text><polygon fill="#FFFF44" points="20,247.3262,24,251.3262,20,255.3262,16,251.3262" style="stroke:#B38D22;stroke-width:1.0;"/><text fill="#000000" font-family="sans-serif" font-size="11" font-style="italic" lengthAdjust="spacing" textLength="129" x="29" y="255.9609">setHtmlElements() : void</text><polygon fill="#FFFF44" points="20,260.2813,24,264.2813,20,268.2813,16,264.2813" style="stroke:#B38D22;stroke-width:1.0;"/><text fill="#000000" font-family="sans-serif" font-size="11" lengthAdjust="spacing" textLength="444" x="29" y="268.916">triggerPlatformEventCallback(platFormCallback: OSGeneric, args: unknown[]) : void</text><polygon fill="#FFFF44" points="20,273.2363,24,277.2363,20,281.2363,16,277.2363" style="stroke:#B38D22;stroke-width:1.0;"/><text fill="#000000" font-family="sans-serif" font-size="11" lengthAdjust="spacing" textLength="247" x="29" y="281.8711">triggerPlatformInitializedEventCallback() : void</text><polygon fill="#FFFF44" points="20,286.1914,24,290.1914,20,294.1914,16,290.1914" style="stroke:#B38D22;stroke-width:1.0;"/><text fill="#000000" font-family="sans-serif" font-size="11" font-style="italic" lengthAdjust="spacing" textLength="121" x="29" y="294.8262">unsetCallbacks() : void</text><polygon fill="#FFFF44" points="20,299.1465,24,303.1465,20,307.1465,16,303.1465" style="stroke:#B38D22;stroke-width:1.0;"/><text fill="#000000" font-family="sans-serif" font-size="11" lengthAdjust="spacing" textLength="155" x="29" y="307.7813">unsetGlobalCallbacks() : void</text><polygon fill="#FFFF44" points="20,312.1016,24,316.1016,20,320.1016,16,316.1016" style="stroke:#B38D22;stroke-width:1.0;"/><text fill="#000000" font-family="sans-serif" font-size="11" font-style="italic" lengthAdjust="spacing" textLength="143" x="29" y="320.7363">unsetHtmlElements() : void</text><rect fill="#F24D5C" height="6" style="stroke:#C82930;stroke-width:1.0;" width="6" x="17" y="327.0566"/><text fill="#000000" font-family="sans-serif" font-size="11" lengthAdjust="spacing" textLength="184" x="29" y="333.6914">_setCommonHtmlElements() : void</text><rect fill="#F24D5C" height="6" style="stroke:#C82930;stroke-width:1.0;" width="6" x="17" y="340.0117"/><text fill="#000000" font-family="sans-serif" font-size="11" lengthAdjust="spacing" textLength="198" x="29" y="346.6465">_unsetCommonHtmlElements() : void</text><!--MD5=[b5e1d7c7cb50de28cd5bb5013af73a75]
class IFlipContent--><rect codeLine="64" fill="#FFFFFF" filter="url(#f10aln2bt8ddpb)" height="203.4609" id="IFlipContent" style="stroke:#272B30;stroke-width:1.5;" width="403" x="514.5" y="78.5"/><ellipse cx="678.25" cy="94.5" fill="#B4A7E5" rx="11" ry="11" style="stroke:#272B30;stroke-width:1.0;"/><path d="M674.6777,90.7651 L674.6777,88.6069 L682.0571,88.6069 L682.0571,90.7651 L679.5918,90.7651 L679.5918,98.8418 L682.0571,98.8418 L682.0571,101 L674.6777,101 L674.6777,98.8418 L677.1431,98.8418 L677.1431,90.7651 Z " fill="#000000"/><text fill="#000000" font-family="sans-serif" font-size="12" font-style="italic" lengthAdjust="spacing" textLength="67" x="698.75" y="99.0352">IFlipContent</text><line style="stroke:#272B30;stroke-width:1.5;" x1="515.5" x2="916.5" y1="110.5" y2="110.5"/><ellipse cx="525.5" cy="121.5" rx="3" ry="3" style="stroke:#038048;stroke-width:1.0;fill:none;"/><text fill="#000000" font-family="sans-serif" font-size="11" lengthAdjust="spacing" textLength="84" x="534.5" y="125.1348">isBuilt : boolean</text><ellipse cx="525.5" cy="134.4551" rx="3" ry="3" style="stroke:#038048;stroke-width:1.0;fill:none;"/><text fill="#000000" font-family="sans-serif" font-size="11" lengthAdjust="spacing" textLength="142" x="534.5" y="138.0898">selfElement : HTMLElement</text><ellipse cx="525.5" cy="147.4102" rx="3" ry="3" style="stroke:#038048;stroke-width:1.0;fill:none;"/><text fill="#000000" font-family="sans-serif" font-size="11" lengthAdjust="spacing" textLength="88" x="534.5" y="151.0449">uniqueId : string</text><ellipse cx="525.5" cy="160.3652" rx="3" ry="3" style="stroke:#038048;stroke-width:1.0;fill:none;"/><text fill="#000000" font-family="sans-serif" font-size="11" lengthAdjust="spacing" textLength="86" x="534.5" y="164">widgetId : string</text><line style="stroke:#272B30;stroke-width:1.5;" x1="515.5" x2="916.5" y1="170.3203" y2="170.3203"/><ellipse cx="525.5" cy="181.3203" fill="#84BE84" rx="3" ry="3" style="stroke:#038048;stroke-width:1.0;"/><text fill="#000000" font-family="sans-serif" font-size="11" lengthAdjust="spacing" textLength="67" x="534.5" y="184.9551">build() : void</text><ellipse cx="525.5" cy="194.2754" fill="#84BE84" rx="3" ry="3" style="stroke:#038048;stroke-width:1.0;"/><text fill="#000000" font-family="sans-serif" font-size="11" lengthAdjust="spacing" textLength="377" x="534.5" y="197.9102">changeProperty(propertyName: string, propertyValue: unknown) : void</text><ellipse cx="525.5" cy="207.2305" fill="#84BE84" rx="3" ry="3" style="stroke:#038048;stroke-width:1.0;"/><text fill="#000000" font-family="sans-serif" font-size="11" lengthAdjust="spacing" textLength="82" x="534.5" y="210.8652">dispose() : void</text><ellipse cx="525.5" cy="220.1855" fill="#84BE84" rx="3" ry="3" style="stroke:#038048;stroke-width:1.0;"/><text fill="#000000" font-family="sans-serif" font-size="11" lengthAdjust="spacing" textLength="168" x="534.5" y="223.8203">equalsToID(id: string) : boolean</text><ellipse cx="525.5" cy="233.1406" fill="#84BE84" rx="3" ry="3" style="stroke:#038048;stroke-width:1.0;"/><text fill="#000000" font-family="sans-serif" font-size="11" lengthAdjust="spacing" textLength="335" x="534.5" y="236.7754">registerCallback(eventName: string, callback: OSGeneric) : void</text><ellipse cx="525.5" cy="246.0957" fill="#84BE84" rx="3" ry="3" style="stroke:#038048;stroke-width:1.0;"/><text fill="#000000" font-family="sans-serif" font-size="11" lengthAdjust="spacing" textLength="135" x="534.5" y="249.7305">showBackContent() : void</text><ellipse cx="525.5" cy="259.0508" fill="#84BE84" rx="3" ry="3" style="stroke:#038048;stroke-width:1.0;"/><text fill="#000000" font-family="sans-serif" font-size="11" lengthAdjust="spacing" textLength="140" x="534.5" y="262.6855">showFrontContent() : void</text><ellipse cx="525.5" cy="272.0059" fill="#84BE84" rx="3" ry="3" style="stroke:#038048;stroke-width:1.0;"/><text fill="#000000" font-family="sans-serif" font-size="11" lengthAdjust="spacing" textLength="136" x="534.5" y="275.6406">toggleFlipContent() : void</text><!--MD5=[9619e61f1226609b32ee98fcc51ee264]
reverse link AbstractPattern<FlipContentConfig> to FlipContent--><path codeLine="63" d="M345.35,371.24 C352.7,385.04 360.13,398.99 367.54,412.9 " fill="none" id="AbstractPattern&lt;FlipContentConfig&gt;-backto-FlipContent" style="stroke:#272B30;stroke-width:1.0;"/><polygon fill="none" points="338.98,374.17,335.75,353.23,351.33,367.59,338.98,374.17" style="stroke:#272B30;stroke-width:1.0;"/><!--MD5=[d92ac7f43ee665c34b0899980fb1d8a0]
reverse link IFlipContent to FlipContent--><path codeLine="78" d="M652.94,299.37 C634.33,334.31 613.36,373.67 592.62,412.6 " fill="none" id="IFlipContent-backto-FlipContent" style="stroke:#272B30;stroke-width:1.0;stroke-dasharray:7.0,7.0;"/><polygon fill="none" points="646.87,295.88,662.45,281.52,659.22,302.47,646.87,295.88" style="stroke:#272B30;stroke-width:1.0;"/><!--MD5=[47a489328e62adf29b9a34e2636bc22c]
@startuml
skinparam ClassArrowColor #272b30
skinparam ClassBorderColor #272b30
skinparam ClassBackgroundColor #fff
skinparam BackgroundColor #ced4da
hide empty methods
hide empty fields
class "FlipContent" {
    #isProviderBased : boolean
    -_eventClick : Generic
    -_eventKeydown : Generic
    -_flipWrapperElement : HTMLElement
    -_platformEventOnToggle : OSGeneric
    +build() : void
    +changeProperty(propertyName: string, propertyValue: unknown) : void
    +dispose() : void
    +equalsToID(patternId: string) : boolean
    +registerCallback(eventName: string, callback: OSGeneric) : void
    +showBackContent() : void
    +showFrontContent() : void
    +toggleFlipContent() : void
    #finishBuild() : void
    #setA11YProperties() : void
    #setCallbacks() : void
    #setHtmlElements() : void
    #triggerPlatformEventCallback(platFormCallback: OSGeneric, args: unknown[]) : void
    #triggerPlatformInitializedEventCallback() : void
    #unsetCallbacks() : void
    #unsetGlobalCallbacks() : void
    #unsetHtmlElements() : void
    -_keydownCallback(e: KeyboardEvent) : void
    -_removeEvents() : void
    -_setEventHandlers() : void
    -_setStartsFlipped() : void
    -_toggleClasses() : void
    -_triggerPlatformEvent() : void
    -_updateA11yProperties() : void
}
abstract class "AbstractPattern<FlipContentConfig>" {
    #isProviderBased : boolean
    -_configs : FlipContentConfig
    -_isBuilt : boolean
    -_platformEventInitialized : OSGeneric
    -_selfElem : HTMLElement
    -_uniqueId : string
    -_widgetId : string
    +build() : void
    +changeProperty(propertyName: string, propertyValue: unknown) : void
    +dispose() : void
    +equalsToID(patternId: string) : boolean
    +registerCallback(eventName: string, callback: OSGeneric) : void
    #finishBuild() : void
    {abstract} #setA11YProperties() : void
    {abstract} #setCallbacks() : void
    {abstract} #setHtmlElements() : void
    #triggerPlatformEventCallback(platFormCallback: OSGeneric, args: unknown[]) : void
    #triggerPlatformInitializedEventCallback() : void
    {abstract} #unsetCallbacks() : void
    #unsetGlobalCallbacks() : void
    {abstract} #unsetHtmlElements() : void
    -_setCommonHtmlElements() : void
    -_unsetCommonHtmlElements() : void
}
"AbstractPattern<FlipContentConfig>" <|- - "FlipContent"
interface "IFlipContent" {
    +isBuilt : boolean
    +selfElement : HTMLElement
    +uniqueId : string
    +widgetId : string
    +build() : void
    +changeProperty(propertyName: string, propertyValue: unknown) : void
    +dispose() : void
    +equalsToID(id: string) : boolean
    +registerCallback(eventName: string, callback: OSGeneric) : void
    +showBackContent() : void
    +showFrontContent() : void
    +toggleFlipContent() : void
}
"IFlipContent" <|.. "FlipContent"
@enduml

PlantUML version 1.2021.14(Fri Nov 12 16:46:50 WET 2021)
(GPL source distribution)
Java Runtime: Java(TM) SE Runtime Environment
JVM: Java HotSpot(TM) 64-Bit Server VM
Default Encoding: UTF-8
Language: en
Country: PT
--></g></svg>