<?xml version="1.0" encoding="UTF-8" standalone="no"?><svg xmlns="http://www.w3.org/2000/svg" xmlns:xlink="http://www.w3.org/1999/xlink" contentScriptType="application/ecmascript" contentStyleType="text/css" height="407px" preserveAspectRatio="none" style="width:532px;height:407px;background:#CED4DA;" version="1.1" viewBox="0 0 532 407" width="532px" zoomAndPan="magnify"><defs><filter height="300%" id="f1nk25n6d44n13" width="300%" x="-1" y="-1"><feGaussianBlur result="blurOut" stdDeviation="2.0"/><feColorMatrix in="blurOut" result="blurOut2" type="matrix" values="0 0 0 0 0 0 0 0 0 0 0 0 0 0 0 0 0 0 .4 0"/><feOffset dx="4.0" dy="4.0" in="blurOut2" result="blurOut3"/><feBlend in="SourceGraphic" in2="blurOut3" mode="normal"/></filter></defs><g><!--MD5=[f7b5c91849305269e2b1bdd1c5b9b90a]
class FlipContentConfig--><rect codeLine="7" fill="#FFFFFF" filter="url(#f1nk25n6d44n13)" height="176.0469" id="FlipContentConfig" style="stroke:#272B30;stroke-width:1.5;" width="509" x="9" y="217"/><ellipse cx="204.25" cy="233" fill="#ADD1B2" rx="11" ry="11" style="stroke:#272B30;stroke-width:1.0;"/><path d="M207.2188,238.6406 Q206.6406,238.9375 206,239.0781 Q205.3594,239.2344 204.6563,239.2344 Q202.1563,239.2344 200.8281,237.5938 Q199.5156,235.9375 199.5156,232.8125 Q199.5156,229.6875 200.8281,228.0313 Q202.1563,226.375 204.6563,226.375 Q205.3594,226.375 206,226.5313 Q206.6563,226.6875 207.2188,226.9844 L207.2188,229.7031 Q206.5938,229.125 206,228.8594 Q205.4063,228.5781 204.7813,228.5781 Q203.4375,228.5781 202.75,229.6563 Q202.0625,230.7188 202.0625,232.8125 Q202.0625,234.9063 202.75,235.9844 Q203.4375,237.0469 204.7813,237.0469 Q205.4063,237.0469 206,236.7813 Q206.5938,236.5 207.2188,235.9219 L207.2188,238.6406 Z " fill="#000000"/><text fill="#000000" font-family="sans-serif" font-size="12" lengthAdjust="spacing" textLength="110" x="224.75" y="237.1543">FlipContentConfig</text><line style="stroke:#272B30;stroke-width:1.5;" x1="10" x2="517" y1="249" y2="249"/><ellipse cx="20" cy="260" rx="3" ry="3" style="stroke:#038048;stroke-width:1.0;fill:none;"/><text fill="#000000" font-family="sans-serif" font-size="11" lengthAdjust="spacing" textLength="129" x="29" y="263.2104">ExtendedClass : string</text><ellipse cx="20" cy="272.8047" rx="3" ry="3" style="stroke:#038048;stroke-width:1.0;fill:none;"/><text fill="#000000" font-family="sans-serif" font-size="11" lengthAdjust="spacing" textLength="98" x="29" y="276.0151">FlipSelf : boolean</text><ellipse cx="20" cy="285.6094" rx="3" ry="3" style="stroke:#038048;stroke-width:1.0;fill:none;"/><text fill="#000000" font-family="sans-serif" font-size="11" lengthAdjust="spacing" textLength="107" x="29" y="288.8198">IsFlipped : boolean</text><line style="stroke:#272B30;stroke-width:1.5;" x1="10" x2="517" y1="295.4141" y2="295.4141"/><ellipse cx="20" cy="306.4141" fill="#84BE84" rx="3" ry="3" style="stroke:#038048;stroke-width:1.0;"/><text fill="#000000" font-family="sans-serif" font-size="11" lengthAdjust="spacing" textLength="330" x="29" y="309.6245">validateCanChange(isBuilt: boolean, key: string) : boolean</text><ellipse cx="20" cy="319.2188" fill="#84BE84" rx="3" ry="3" style="stroke:#038048;stroke-width:1.0;"/><text fill="#000000" font-family="sans-serif" font-size="11" lengthAdjust="spacing" textLength="316" x="29" y="322.4292">validateDefault(_key: string, value: unknown) : unknown</text><polygon fill="#FFFF44" points="20,327.0234,24,331.0234,20,335.0234,16,331.0234" style="stroke:#B38D22;stroke-width:1.0;"/><text fill="#000000" font-family="sans-serif" font-size="11" lengthAdjust="spacing" textLength="369" x="29" y="335.2339">validateBoolean(value: boolean, defaultValue: boolean) : boolean</text><polygon fill="#FFFF44" points="20,339.8281,24,343.8281,20,347.8281,16,343.8281" style="stroke:#B38D22;stroke-width:1.0;"/><text fill="#000000" font-family="sans-serif" font-size="11" lengthAdjust="spacing" textLength="389" x="29" y="348.0386">validateDate(value: string | Date, defaultValue: string) : string | Date</text><polygon fill="#FFFF44" points="20,352.6328,24,356.6328,20,360.6328,16,356.6328" style="stroke:#B38D22;stroke-width:1.0;"/><text fill="#000000" font-family="sans-serif" font-size="11" lengthAdjust="spacing" textLength="483" x="29" y="360.8433">validateInRange(value: unknown, defaultValue: unknown, args: unknown[]) : unknown</text><polygon fill="#FFFF44" points="20,365.4375,24,369.4375,20,373.4375,16,369.4375" style="stroke:#B38D22;stroke-width:1.0;"/><text fill="#000000" font-family="sans-serif" font-size="11" lengthAdjust="spacing" textLength="365" x="29" y="373.6479">validateNumber(value: number, defaultValue: number) : number</text><polygon fill="#FFFF44" points="20,378.2422,24,382.2422,20,386.2422,16,382.2422" style="stroke:#B38D22;stroke-width:1.0;"/><text fill="#000000" font-family="sans-serif" font-size="11" lengthAdjust="spacing" textLength="321" x="29" y="386.4526">validateString(value: string, defaultValue: string) : string</text><!--MD5=[cf034526073bc6863bceac2b0caf27a3]
class AbstractConfiguration--><rect codeLine="19" fill="#FFFFFF" filter="url(#f1nk25n6d44n13)" height="150.4375" id="AbstractConfiguration" style="stroke:#272B30;stroke-width:1.5;" width="509" x="9" y="7"/><ellipse cx="191.25" cy="23" fill="#A9DCDF" rx="11" ry="11" style="stroke:#272B30;stroke-width:1.0;"/><path d="M191.3594,18.3438 L190.2031,23.4219 L192.5313,23.4219 L191.3594,18.3438 Z M189.875,16.1094 L192.8594,16.1094 L196.2188,28.5 L193.7656,28.5 L193,25.4375 L189.7188,25.4375 L188.9688,28.5 L186.5313,28.5 L189.875,16.1094 Z " fill="#000000"/><text fill="#000000" font-family="sans-serif" font-size="12" font-style="italic" lengthAdjust="spacing" textLength="136" x="211.75" y="27.1543">AbstractConfiguration</text><line style="stroke:#272B30;stroke-width:1.5;" x1="10" x2="517" y1="39" y2="39"/><ellipse cx="20" cy="50" rx="3" ry="3" style="stroke:#038048;stroke-width:1.0;fill:none;"/><text fill="#000000" font-family="sans-serif" font-size="11" lengthAdjust="spacing" textLength="129" x="29" y="53.2104">ExtendedClass : string</text><line style="stroke:#272B30;stroke-width:1.5;" x1="10" x2="517" y1="59.8047" y2="59.8047"/><ellipse cx="20" cy="70.8047" fill="#84BE84" rx="3" ry="3" style="stroke:#038048;stroke-width:1.0;"/><text fill="#000000" font-family="sans-serif" font-size="11" lengthAdjust="spacing" textLength="342" x="29" y="74.0151">validateCanChange(_isBuilt: boolean, _key: string) : boolean</text><ellipse cx="20" cy="83.6094" fill="#84BE84" rx="3" ry="3" style="stroke:#038048;stroke-width:1.0;"/><text fill="#000000" font-family="sans-serif" font-size="11" lengthAdjust="spacing" textLength="316" x="29" y="86.8198">validateDefault(_key: string, value: unknown) : unknown</text><polygon fill="#FFFF44" points="20,91.4141,24,95.4141,20,99.4141,16,95.4141" style="stroke:#B38D22;stroke-width:1.0;"/><text fill="#000000" font-family="sans-serif" font-size="11" lengthAdjust="spacing" textLength="369" x="29" y="99.6245">validateBoolean(value: boolean, defaultValue: boolean) : boolean</text><polygon fill="#FFFF44" points="20,104.2188,24,108.2188,20,112.2188,16,108.2188" style="stroke:#B38D22;stroke-width:1.0;"/><text fill="#000000" font-family="sans-serif" font-size="11" lengthAdjust="spacing" textLength="389" x="29" y="112.4292">validateDate(value: string | Date, defaultValue: string) : string | Date</text><polygon fill="#FFFF44" points="20,117.0234,24,121.0234,20,125.0234,16,121.0234" style="stroke:#B38D22;stroke-width:1.0;"/><text fill="#000000" font-family="sans-serif" font-size="11" lengthAdjust="spacing" textLength="483" x="29" y="125.2339">validateInRange(value: unknown, defaultValue: unknown, args: unknown[]) : unknown</text><polygon fill="#FFFF44" points="20,129.8281,24,133.8281,20,137.8281,16,133.8281" style="stroke:#B38D22;stroke-width:1.0;"/><text fill="#000000" font-family="sans-serif" font-size="11" lengthAdjust="spacing" textLength="365" x="29" y="138.0386">validateNumber(value: number, defaultValue: number) : number</text><polygon fill="#FFFF44" points="20,142.6328,24,146.6328,20,150.6328,16,146.6328" style="stroke:#B38D22;stroke-width:1.0;"/><text fill="#000000" font-family="sans-serif" font-size="11" lengthAdjust="spacing" textLength="321" x="29" y="150.8433">validateString(value: string, defaultValue: string) : string</text><!--MD5=[1c5bf4a795659e1cdd567f5b4031efb7]
reverse link AbstractConfiguration to FlipContentConfig--><path codeLine="29" d="M263.5,177.46 C263.5,190.58 263.5,204.02 263.5,216.99 " fill="none" id="AbstractConfiguration-backto-FlipContentConfig" style="stroke:#272B30;stroke-width:1.0;"/><polygon fill="none" points="256.5,177.2,263.5,157.2,270.5,177.2,256.5,177.2" style="stroke:#272B30;stroke-width:1.0;"/><!--MD5=[e60f93a823228060a5b7a1f03f64227b]
@startuml
skinparam ClassArrowColor #272b30
skinparam ClassBorderColor #272b30
skinparam ClassBackgroundColor #fff
skinparam BackgroundColor #ced4da
hide empty methods
hide empty fields
class "FlipContentConfig" {
    +ExtendedClass : string
    +FlipSelf : boolean
    +IsFlipped : boolean
    +validateCanChange(isBuilt: boolean, key: string) : boolean
    +validateDefault(_key: string, value: unknown) : unknown
    #validateBoolean(value: boolean, defaultValue: boolean) : boolean
    #validateDate(value: string | Date, defaultValue: string) : string | Date
    #validateInRange(value: unknown, defaultValue: unknown, args: unknown[]) : unknown
    #validateNumber(value: number, defaultValue: number) : number
    #validateString(value: string, defaultValue: string) : string
}
abstract class "AbstractConfiguration" {
    +ExtendedClass : string
    +validateCanChange(_isBuilt: boolean, _key: string) : boolean
    +validateDefault(_key: string, value: unknown) : unknown
    #validateBoolean(value: boolean, defaultValue: boolean) : boolean
    #validateDate(value: string | Date, defaultValue: string) : string | Date
    #validateInRange(value: unknown, defaultValue: unknown, args: unknown[]) : unknown
    #validateNumber(value: number, defaultValue: number) : number
    #validateString(value: string, defaultValue: string) : string
}
"AbstractConfiguration" <|- - "FlipContentConfig"
@enduml

PlantUML version 1.2021.14(Fri Nov 12 16:46:50 UTC 2021)
(GPL source distribution)
Java Runtime: OpenJDK Runtime Environment
JVM: OpenJDK 64-Bit Server VM
Default Encoding: UTF-8
Language: en
Country: null
--></g></svg>