<?xml version="1.0" encoding="us-ascii" standalone="no"?><svg xmlns="http://www.w3.org/2000/svg" xmlns:xlink="http://www.w3.org/1999/xlink" contentStyleType="text/css" height="599px" preserveAspectRatio="none" style="width:358px;height:599px;background:#CED4DA;" version="1.1" viewBox="0 0 358 599" width="358px" zoomAndPan="magnify"><defs/><g><rect fill="#CED4DA" height="599" style="stroke:none;stroke-width:1.0;" width="358" x="0" y="0"/><!--class FloatingPosition--><g id="elem_FloatingPosition"><rect codeLine="7" fill="#FFFFFF" height="196.3945" id="FloatingPosition" rx="2.5" ry="2.5" style="stroke:#272B30;stroke-width:0.5;" width="342" x="9" y="140"/><ellipse cx="120.25" cy="156" fill="#A9DCDF" rx="11" ry="11" style="stroke:#181818;stroke-width:1.0;"/><path d="M120.1133,151.3481 L118.9595,156.4199 L121.2754,156.4199 Z M118.6191,149.1069 L121.6157,149.1069 L124.9609,161.5 L122.5122,161.5 L121.7485,158.437 L118.4697,158.437 L117.7227,161.5 L115.2739,161.5 Z " fill="#000000"/><text fill="#000000" font-family="sans-serif" font-size="14" font-style="italic" lengthAdjust="spacing" textLength="111" x="140.75" y="161.291">FloatingPosition</text><line style="stroke:#272B30;stroke-width:0.5;" x1="10" x2="350" y1="172" y2="172"/><polygon fill="none" points="20,180.7441,24,184.7441,20,188.7441,16,184.7441" style="stroke:#B38D22;stroke-width:1.0;"/><text fill="#000000" font-family="sans-serif" font-size="14" lengthAdjust="spacing" textLength="228" x="29" y="189.5352">eventOnUpdateCallback : Generic</text><polygon fill="none" points="20,197.2324,24,201.2324,20,205.2324,16,201.2324" style="stroke:#B38D22;stroke-width:1.0;"/><text fill="#000000" font-family="sans-serif" font-size="14" lengthAdjust="spacing" textLength="275" x="29" y="206.0234">floatingConfigs : FloatingPositionConfig</text><polygon fill="none" points="20,213.7207,24,217.7207,20,221.7207,16,217.7207" style="stroke:#B38D22;stroke-width:1.0;"/><text fill="#000000" font-family="sans-serif" font-size="14" lengthAdjust="spacing" textLength="109" x="29" y="222.5117">isBuilt : boolean</text><line style="stroke:#272B30;stroke-width:0.5;" x1="10" x2="350" y1="229.4648" y2="229.4648"/><ellipse cx="20" cy="243.209" fill="#84BE84" rx="3" ry="3" style="stroke:#038048;stroke-width:1.0;"/><text fill="#000000" font-family="sans-serif" font-size="14" lengthAdjust="spacing" textLength="86" x="29" y="247">build() : void</text><ellipse cx="20" cy="259.6973" fill="#84BE84" rx="3" ry="3" style="stroke:#038048;stroke-width:1.0;"/><text fill="#000000" font-family="sans-serif" font-size="14" lengthAdjust="spacing" textLength="104" x="29" y="263.4883">dispose() : void</text><ellipse cx="20" cy="276.1855" fill="#84BE84" rx="3" ry="3" style="stroke:#038048;stroke-width:1.0;"/><text fill="#000000" font-family="sans-serif" font-size="14" font-style="italic" lengthAdjust="spacing" textLength="182" x="29" y="279.9766">setFloatingPosition() : void</text><ellipse cx="20" cy="292.6738" fill="#84BE84" rx="3" ry="3" style="stroke:#038048;stroke-width:1.0;"/><text fill="#000000" font-family="sans-serif" font-size="14" font-style="italic" lengthAdjust="spacing" textLength="200" x="29" y="296.4648">unsetFloatingPosition() : void</text><ellipse cx="20" cy="309.1621" fill="#84BE84" rx="3" ry="3" style="stroke:#038048;stroke-width:1.0;"/><text fill="#000000" font-family="sans-serif" font-size="14" lengthAdjust="spacing" textLength="316" x="29" y="312.9531">update(options: FloatingPositionConfig) : void</text><polygon fill="#FFFF44" points="20,320.6504,24,324.6504,20,328.6504,16,324.6504" style="stroke:#B38D22;stroke-width:1.0;"/><text fill="#000000" font-family="sans-serif" font-size="14" lengthAdjust="spacing" textLength="177" x="29" y="329.4414">getOffsetValue() : number</text></g><!--class IFloatingPosition--><g id="elem_IFloatingPosition"><rect codeLine="18" fill="#FFFFFF" height="72.9766" id="IFloatingPosition" rx="2.5" ry="2.5" style="stroke:#272B30;stroke-width:0.5;" width="226" x="67" y="7"/><ellipse cx="118.25" cy="23" fill="#B4A7E5" rx="11" ry="11" style="stroke:#181818;stroke-width:1.0;"/><path d="M114.6777,19.2651 L114.6777,17.1069 L122.0571,17.1069 L122.0571,19.2651 L119.5918,19.2651 L119.5918,27.3418 L122.0571,27.3418 L122.0571,29.5 L114.6777,29.5 L114.6777,27.3418 L117.1431,27.3418 L117.1431,19.2651 Z " fill="#000000"/><text fill="#000000" font-family="sans-serif" font-size="14" font-style="italic" lengthAdjust="spacing" textLength="115" x="138.75" y="28.291">IFloatingPosition</text><line style="stroke:#272B30;stroke-width:0.5;" x1="68" x2="292" y1="39" y2="39"/><ellipse cx="78" cy="52.7441" fill="#84BE84" rx="3" ry="3" style="stroke:#038048;stroke-width:1.0;"/><text fill="#000000" font-family="sans-serif" font-size="14" lengthAdjust="spacing" textLength="182" x="87" y="56.5352">setFloatingPosition() : void</text><ellipse cx="78" cy="69.2324" fill="#84BE84" rx="3" ry="3" style="stroke:#038048;stroke-width:1.0;"/><text fill="#000000" font-family="sans-serif" font-size="14" lengthAdjust="spacing" textLength="200" x="87" y="73.0234">unsetFloatingPosition() : void</text></g><!--class FloatingUI--><g id="elem_FloatingUI"><rect codeLine="23" fill="#FFFFFF" height="196.3945" id="FloatingUI" rx="2.5" ry="2.5" style="stroke:#272B30;stroke-width:0.5;" width="342" x="9" y="396"/><ellipse cx="140.75" cy="412" fill="#ADD1B2" rx="11" ry="11" style="stroke:#181818;stroke-width:1.0;"/><path d="M143.2231,418.1431 Q142.6421,418.4419 142.0029,418.5913 Q141.3638,418.7407 140.6582,418.7407 Q138.1514,418.7407 136.8315,417.0889 Q135.5117,415.437 135.5117,412.3159 Q135.5117,409.1865 136.8315,407.5347 Q138.1514,405.8828 140.6582,405.8828 Q141.3638,405.8828 142.0112,406.0322 Q142.6587,406.1816 143.2231,406.4805 L143.2231,409.2031 Q142.5923,408.6221 141.9988,408.3523 Q141.4053,408.0825 140.7744,408.0825 Q139.4297,408.0825 138.7449,409.1492 Q138.0601,410.2158 138.0601,412.3159 Q138.0601,414.4077 138.7449,415.4744 Q139.4297,416.541 140.7744,416.541 Q141.4053,416.541 141.9988,416.2712 Q142.5923,416.0015 143.2231,415.4204 Z " fill="#000000"/><text fill="#000000" font-family="sans-serif" font-size="14" lengthAdjust="spacing" textLength="70" x="161.25" y="417.291">FloatingUI</text><line style="stroke:#272B30;stroke-width:0.5;" x1="10" x2="350" y1="428" y2="428"/><polygon fill="none" points="20,436.7441,24,440.7441,20,444.7441,16,440.7441" style="stroke:#B38D22;stroke-width:1.0;"/><text fill="#000000" font-family="sans-serif" font-size="14" lengthAdjust="spacing" textLength="228" x="29" y="445.5352">eventOnUpdateCallback : Generic</text><polygon fill="none" points="20,453.2324,24,457.2324,20,461.2324,16,457.2324" style="stroke:#B38D22;stroke-width:1.0;"/><text fill="#000000" font-family="sans-serif" font-size="14" lengthAdjust="spacing" textLength="275" x="29" y="462.0234">floatingConfigs : FloatingPositionConfig</text><polygon fill="none" points="20,469.7207,24,473.7207,20,477.7207,16,473.7207" style="stroke:#B38D22;stroke-width:1.0;"/><text fill="#000000" font-family="sans-serif" font-size="14" lengthAdjust="spacing" textLength="109" x="29" y="478.5117">isBuilt : boolean</text><line style="stroke:#272B30;stroke-width:0.5;" x1="10" x2="350" y1="485.4648" y2="485.4648"/><ellipse cx="20" cy="499.209" fill="#84BE84" rx="3" ry="3" style="stroke:#038048;stroke-width:1.0;"/><text fill="#000000" font-family="sans-serif" font-size="14" lengthAdjust="spacing" textLength="86" x="29" y="503">build() : void</text><ellipse cx="20" cy="515.6973" fill="#84BE84" rx="3" ry="3" style="stroke:#038048;stroke-width:1.0;"/><text fill="#000000" font-family="sans-serif" font-size="14" lengthAdjust="spacing" textLength="104" x="29" y="519.4883">dispose() : void</text><ellipse cx="20" cy="532.1855" fill="#84BE84" rx="3" ry="3" style="stroke:#038048;stroke-width:1.0;"/><text fill="#000000" font-family="sans-serif" font-size="14" lengthAdjust="spacing" textLength="182" x="29" y="535.9766">setFloatingPosition() : void</text><ellipse cx="20" cy="548.6738" fill="#84BE84" rx="3" ry="3" style="stroke:#038048;stroke-width:1.0;"/><text fill="#000000" font-family="sans-serif" font-size="14" lengthAdjust="spacing" textLength="200" x="29" y="552.4648">unsetFloatingPosition() : void</text><ellipse cx="20" cy="565.1621" fill="#84BE84" rx="3" ry="3" style="stroke:#038048;stroke-width:1.0;"/><text fill="#000000" font-family="sans-serif" font-size="14" lengthAdjust="spacing" textLength="316" x="29" y="568.9531">update(options: FloatingPositionConfig) : void</text><polygon fill="#FFFF44" points="20,576.6504,24,580.6504,20,584.6504,16,580.6504" style="stroke:#B38D22;stroke-width:1.0;"/><text fill="#000000" font-family="sans-serif" font-size="14" lengthAdjust="spacing" textLength="177" x="29" y="585.4414">getOffsetValue() : number</text></g><!--reverse link IFloatingPosition to FloatingPosition--><g id="link_IFloatingPosition_FloatingPosition"><path codeLine="22" d="M180,100.44 C180,112.78 180,126.2 180,139.64 " fill="none" id="IFloatingPosition-backto-FloatingPosition" style="stroke:#272B30;stroke-width:1.0;stroke-dasharray:7.0,7.0;"/><polygon fill="none" points="173,100.26,180,80.26,187,100.26,173,100.26" style="stroke:#272B30;stroke-width:1.0;"/></g><!--reverse link FloatingPosition to FloatingUI--><g id="link_FloatingPosition_FloatingUI"><path codeLine="34" d="M180,356.14 C180,369.46 180,382.92 180,395.94 " fill="none" id="FloatingPosition-backto-FloatingUI" style="stroke:#272B30;stroke-width:1.0;"/><polygon fill="none" points="173,356.11,180,336.11,187,356.11,173,356.11" style="stroke:#272B30;stroke-width:1.0;"/></g><!--SRC=[pP5FQm8n4CNl-HHXlLWMfTX2eVHI5reysOkzpsucws0sioHPIx5-zqRNWclL2gNG7D_xPVwyyGkoDJYeP6R0-qVd-2rZmqxsHdUZ_EPQ-2unPgVGdKUWM9IE6wjscDPwZ_bc5wXk5OWvAPHOrU5TLXZchFo-f0bDL23tmK4HPB7f99Cdmn38bY_iAH3RHAw4ZA-7IxHXQcUrWe0P69F7jl9UFgD5HqKBwTtlZAscqaVxi5xhj3JvSKCcH2fdDWXsAwTv55N_AifB9jLgYdpD7hlgwclujKmzXiDMf-76_eYdpNRHFjSRpvzQfFEdLsAOQXrhlu9fsc5jK-Nen5gG3UWq52YJoQcGqml6EZ_wMXoh_l0n71uvhJYu-Mpodw_z-t3-vAx9iRW7Wqwgdm00]--></g></svg>