<?xml version="1.0" encoding="UTF-8" standalone="no"?><svg xmlns="http://www.w3.org/2000/svg" xmlns:xlink="http://www.w3.org/1999/xlink" contentScriptType="application/ecmascript" contentStyleType="text/css" height="459px" preserveAspectRatio="none" style="width:908px;height:459px;background:#CED4DA;" version="1.1" viewBox="0 0 908 459" width="908px" zoomAndPan="magnify"><defs><filter height="300%" id="f13p357y04l68d" width="300%" x="-1" y="-1"><feGaussianBlur result="blurOut" stdDeviation="2.0"/><feColorMatrix in="blurOut" result="blurOut2" type="matrix" values="0 0 0 0 0 0 0 0 0 0 0 0 0 0 0 0 0 0 .4 0"/><feOffset dx="4.0" dy="4.0" in="blurOut2" result="blurOut3"/><feBlend in="SourceGraphic" in2="blurOut3" mode="normal"/></filter></defs><g><!--MD5=[46c34688f3cf7b5477094f73a88182ad]
class FloatingActionsItem--><rect codeLine="7" fill="#FFFFFF" filter="url(#f13p357y04l68d)" height="176.0469" id="FloatingActionsItem" style="stroke:#272B30;stroke-width:1.5;" width="425" x="239" y="269"/><ellipse cx="385.75" cy="285" fill="#ADD1B2" rx="11" ry="11" style="stroke:#272B30;stroke-width:1.0;"/><path d="M388.7188,290.6406 Q388.1406,290.9375 387.5,291.0781 Q386.8594,291.2344 386.1563,291.2344 Q383.6563,291.2344 382.3281,289.5938 Q381.0156,287.9375 381.0156,284.8125 Q381.0156,281.6875 382.3281,280.0313 Q383.6563,278.375 386.1563,278.375 Q386.8594,278.375 387.5,278.5313 Q388.1563,278.6875 388.7188,278.9844 L388.7188,281.7031 Q388.0938,281.125 387.5,280.8594 Q386.9063,280.5781 386.2813,280.5781 Q384.9375,280.5781 384.25,281.6563 Q383.5625,282.7188 383.5625,284.8125 Q383.5625,286.9063 384.25,287.9844 Q384.9375,289.0469 386.2813,289.0469 Q386.9063,289.0469 387.5,288.7813 Q388.0938,288.5 388.7188,287.9219 L388.7188,290.6406 Z " fill="#000000"/><text fill="#000000" font-family="sans-serif" font-size="12" lengthAdjust="spacing" textLength="123" x="406.25" y="289.1543">FloatingActionsItem</text><line style="stroke:#272B30;stroke-width:1.5;" x1="240" x2="663" y1="301" y2="301"/><polygon fill="none" points="250,307,254,311,250,315,246,311" style="stroke:#B38D22;stroke-width:1.0;"/><text fill="#000000" font-family="sans-serif" font-size="11" lengthAdjust="spacing" textLength="143" x="259" y="315.2104">_selfElem : HTMLElement</text><polygon fill="none" points="250,319.8047,254,323.8047,250,327.8047,246,323.8047" style="stroke:#B38D22;stroke-width:1.0;"/><text fill="#000000" font-family="sans-serif" font-size="11" lengthAdjust="spacing" textLength="98" x="259" y="328.0151">_widgetId : string</text><rect fill="none" height="6" style="stroke:#C82930;stroke-width:1.0;" width="6" x="247" y="334.6094"/><text fill="#000000" font-family="sans-serif" font-size="11" lengthAdjust="spacing" textLength="185" x="259" y="340.8198">_floatingParent : IFloatingActions</text><line style="stroke:#272B30;stroke-width:1.5;" x1="240" x2="663" y1="347.4141" y2="347.4141"/><ellipse cx="250" cy="358.4141" fill="#84BE84" rx="3" ry="3" style="stroke:#038048;stroke-width:1.0;"/><text fill="#000000" font-family="sans-serif" font-size="11" lengthAdjust="spacing" textLength="70" x="259" y="361.6245">build() : void</text><ellipse cx="250" cy="371.2188" fill="#84BE84" rx="3" ry="3" style="stroke:#038048;stroke-width:1.0;"/><text fill="#000000" font-family="sans-serif" font-size="11" lengthAdjust="spacing" textLength="399" x="259" y="374.4292">changeProperty(propertyName: string, propertyValue: unknown) : void</text><ellipse cx="250" cy="384.0234" fill="#84BE84" rx="3" ry="3" style="stroke:#038048;stroke-width:1.0;"/><text fill="#000000" font-family="sans-serif" font-size="11" lengthAdjust="spacing" textLength="88" x="259" y="387.2339">dispose() : void</text><ellipse cx="250" cy="396.8281" fill="#84BE84" rx="3" ry="3" style="stroke:#038048;stroke-width:1.0;"/><text fill="#000000" font-family="sans-serif" font-size="11" lengthAdjust="spacing" textLength="220" x="259" y="400.0386">equalsToID(patternId: string) : boolean</text><ellipse cx="250" cy="409.6328" fill="#84BE84" rx="3" ry="3" style="stroke:#038048;stroke-width:1.0;"/><text fill="#000000" font-family="sans-serif" font-size="11" lengthAdjust="spacing" textLength="230" x="259" y="412.8433">setAnimationDelay(value: number) : void</text><ellipse cx="250" cy="422.4375" fill="#84BE84" rx="3" ry="3" style="stroke:#038048;stroke-width:1.0;"/><text fill="#000000" font-family="sans-serif" font-size="11" lengthAdjust="spacing" textLength="183" x="259" y="425.6479">setTabindex(value: string) : void</text><polygon fill="#FFFF44" points="250,430.2422,254,434.2422,250,438.2422,246,434.2422" style="stroke:#B38D22;stroke-width:1.0;"/><text fill="#000000" font-family="sans-serif" font-size="11" lengthAdjust="spacing" textLength="102" x="259" y="438.4526">finishBuild() : void</text><!--MD5=[6668114391298692041f0645e78d8c0f]
class AbstractPattern<FloatingActionsItemConfig>--><rect codeLine="19" fill="#FFFFFF" filter="url(#f13p357y04l68d)" height="201.6563" id="AbstractPattern&lt;FloatingActionsItemConfig&gt;" style="stroke:#272B30;stroke-width:1.5;" width="425" x="9" y="7"/><ellipse cx="77.25" cy="23" fill="#A9DCDF" rx="11" ry="11" style="stroke:#272B30;stroke-width:1.0;"/><path d="M77.3594,18.3438 L76.2031,23.4219 L78.5313,23.4219 L77.3594,18.3438 Z M75.875,16.1094 L78.8594,16.1094 L82.2188,28.5 L79.7656,28.5 L79,25.4375 L75.7188,25.4375 L74.9688,28.5 L72.5313,28.5 L75.875,16.1094 Z " fill="#000000"/><text fill="#000000" font-family="sans-serif" font-size="12" font-style="italic" lengthAdjust="spacing" textLength="280" x="97.75" y="27.1543">AbstractPattern&lt;FloatingActionsItemConfig&gt;</text><line style="stroke:#272B30;stroke-width:1.5;" x1="10" x2="433" y1="39" y2="39"/><polygon fill="none" points="20,45,24,49,20,53,16,49" style="stroke:#B38D22;stroke-width:1.0;"/><text fill="#000000" font-family="sans-serif" font-size="11" lengthAdjust="spacing" textLength="143" x="29" y="53.2104">_selfElem : HTMLElement</text><polygon fill="none" points="20,57.8047,24,61.8047,20,65.8047,16,61.8047" style="stroke:#B38D22;stroke-width:1.0;"/><text fill="#000000" font-family="sans-serif" font-size="11" lengthAdjust="spacing" textLength="98" x="29" y="66.0151">_widgetId : string</text><rect fill="none" height="6" style="stroke:#C82930;stroke-width:1.0;" width="6" x="17" y="72.6094"/><text fill="#000000" font-family="sans-serif" font-size="11" lengthAdjust="spacing" textLength="205" x="29" y="78.8198">_configs : FloatingActionsItemConfig</text><rect fill="none" height="6" style="stroke:#C82930;stroke-width:1.0;" width="6" x="17" y="85.4141"/><text fill="#000000" font-family="sans-serif" font-size="11" lengthAdjust="spacing" textLength="98" x="29" y="91.6245">_isBuilt : boolean</text><rect fill="none" height="6" style="stroke:#C82930;stroke-width:1.0;" width="6" x="17" y="98.2188"/><text fill="#000000" font-family="sans-serif" font-size="11" lengthAdjust="spacing" textLength="99" x="29" y="104.4292">_uniqueId : string</text><line style="stroke:#272B30;stroke-width:1.5;" x1="10" x2="433" y1="111.0234" y2="111.0234"/><ellipse cx="20" cy="122.0234" fill="#84BE84" rx="3" ry="3" style="stroke:#038048;stroke-width:1.0;"/><text fill="#000000" font-family="sans-serif" font-size="11" lengthAdjust="spacing" textLength="70" x="29" y="125.2339">build() : void</text><ellipse cx="20" cy="134.8281" fill="#84BE84" rx="3" ry="3" style="stroke:#038048;stroke-width:1.0;"/><text fill="#000000" font-family="sans-serif" font-size="11" lengthAdjust="spacing" textLength="399" x="29" y="138.0386">changeProperty(propertyName: string, propertyValue: unknown) : void</text><ellipse cx="20" cy="147.6328" fill="#84BE84" rx="3" ry="3" style="stroke:#038048;stroke-width:1.0;"/><text fill="#000000" font-family="sans-serif" font-size="11" lengthAdjust="spacing" textLength="88" x="29" y="150.8433">dispose() : void</text><ellipse cx="20" cy="160.4375" fill="#84BE84" rx="3" ry="3" style="stroke:#038048;stroke-width:1.0;"/><text fill="#000000" font-family="sans-serif" font-size="11" lengthAdjust="spacing" textLength="220" x="29" y="163.6479">equalsToID(patternId: string) : boolean</text><polygon fill="#FFFF44" points="20,168.2422,24,172.2422,20,176.2422,16,172.2422" style="stroke:#B38D22;stroke-width:1.0;"/><text fill="#000000" font-family="sans-serif" font-size="11" lengthAdjust="spacing" textLength="102" x="29" y="176.4526">finishBuild() : void</text><polygon fill="#FFFF44" points="20,181.0469,24,185.0469,20,189.0469,16,185.0469" style="stroke:#B38D22;stroke-width:1.0;"/><text fill="#000000" font-family="sans-serif" font-size="11" lengthAdjust="spacing" textLength="211" x="29" y="189.2573">_unsetCommonHtmlElements() : void</text><rect fill="#F24D5C" height="6" style="stroke:#C82930;stroke-width:1.0;" width="6" x="17" y="195.8516"/><text fill="#000000" font-family="sans-serif" font-size="11" lengthAdjust="spacing" textLength="197" x="29" y="202.062">_setCommonHtmlElements() : void</text><!--MD5=[a9c4926b9c482a06dc079e550ecb52b0]
class IFloatingActionsItem--><rect codeLine="34" fill="#FFFFFF" filter="url(#f13p357y04l68d)" height="176.0469" id="IFloatingActionsItem" style="stroke:#272B30;stroke-width:1.5;" width="425" x="469" y="20"/><ellipse cx="613.75" cy="36" fill="#B4A7E5" rx="11" ry="11" style="stroke:#272B30;stroke-width:1.0;"/><path d="M609.6719,31.7656 L609.6719,29.6094 L617.0625,29.6094 L617.0625,31.7656 L614.5938,31.7656 L614.5938,39.8438 L617.0625,39.8438 L617.0625,42 L609.6719,42 L609.6719,39.8438 L612.1406,39.8438 L612.1406,31.7656 L609.6719,31.7656 Z " fill="#000000"/><text fill="#000000" font-family="sans-serif" font-size="12" font-style="italic" lengthAdjust="spacing" textLength="127" x="634.25" y="40.1543">IFloatingActionsItem</text><line style="stroke:#272B30;stroke-width:1.5;" x1="470" x2="893" y1="52" y2="52"/><ellipse cx="480" cy="63" rx="3" ry="3" style="stroke:#038048;stroke-width:1.0;fill:none;"/><text fill="#000000" font-family="sans-serif" font-size="11" lengthAdjust="spacing" textLength="92" x="489" y="66.2104">isBuilt : boolean</text><ellipse cx="480" cy="75.8047" rx="3" ry="3" style="stroke:#038048;stroke-width:1.0;fill:none;"/><text fill="#000000" font-family="sans-serif" font-size="11" lengthAdjust="spacing" textLength="155" x="489" y="79.0151">selfElement : HTMLElement</text><ellipse cx="480" cy="88.6094" rx="3" ry="3" style="stroke:#038048;stroke-width:1.0;fill:none;"/><text fill="#000000" font-family="sans-serif" font-size="11" lengthAdjust="spacing" textLength="93" x="489" y="91.8198">uniqueId : string</text><ellipse cx="480" cy="101.4141" rx="3" ry="3" style="stroke:#038048;stroke-width:1.0;fill:none;"/><text fill="#000000" font-family="sans-serif" font-size="11" lengthAdjust="spacing" textLength="92" x="489" y="104.6245">widgetId : string</text><line style="stroke:#272B30;stroke-width:1.5;" x1="470" x2="893" y1="111.2188" y2="111.2188"/><ellipse cx="480" cy="122.2188" fill="#84BE84" rx="3" ry="3" style="stroke:#038048;stroke-width:1.0;"/><text fill="#000000" font-family="sans-serif" font-size="11" lengthAdjust="spacing" textLength="70" x="489" y="125.4292">build() : void</text><ellipse cx="480" cy="135.0234" fill="#84BE84" rx="3" ry="3" style="stroke:#038048;stroke-width:1.0;"/><text fill="#000000" font-family="sans-serif" font-size="11" lengthAdjust="spacing" textLength="399" x="489" y="138.2339">changeProperty(propertyName: string, propertyValue: unknown) : void</text><ellipse cx="480" cy="147.8281" fill="#84BE84" rx="3" ry="3" style="stroke:#038048;stroke-width:1.0;"/><text fill="#000000" font-family="sans-serif" font-size="11" lengthAdjust="spacing" textLength="88" x="489" y="151.0386">dispose() : void</text><ellipse cx="480" cy="160.6328" fill="#84BE84" rx="3" ry="3" style="stroke:#038048;stroke-width:1.0;"/><text fill="#000000" font-family="sans-serif" font-size="11" lengthAdjust="spacing" textLength="179" x="489" y="163.8433">equalsToID(id: string) : boolean</text><ellipse cx="480" cy="173.4375" fill="#84BE84" rx="3" ry="3" style="stroke:#038048;stroke-width:1.0;"/><text fill="#000000" font-family="sans-serif" font-size="11" lengthAdjust="spacing" textLength="230" x="489" y="176.6479">setAnimationDelay(value: number) : void</text><ellipse cx="480" cy="186.2422" fill="#84BE84" rx="3" ry="3" style="stroke:#038048;stroke-width:1.0;"/><text fill="#000000" font-family="sans-serif" font-size="11" lengthAdjust="spacing" textLength="183" x="489" y="189.4526">setTabindex(value: string) : void</text><!--MD5=[c58564c0fb8b4acc467a99b9e8efebd9]
reverse link AbstractPattern<FloatingActionsItemConfig> to FloatingActionsItem--><path codeLine="33" d="M328.65,224.07 C342.67,239.13 356.85,254.35 370.34,268.84 " fill="none" id="AbstractPattern&lt;FloatingActionsItemConfig&gt;-backto-FloatingActionsItem" style="stroke:#272B30;stroke-width:1.0;"/><polygon fill="none" points="323.22,228.52,314.72,209.11,333.47,218.97,323.22,228.52" style="stroke:#272B30;stroke-width:1.0;"/><!--MD5=[d301b1309fb4a478bf5c49f8c3998826]
reverse link IFloatingActionsItem to FloatingActionsItem--><path codeLine="46" d="M586.55,210.96 C568.65,230.2 550.07,250.15 532.63,268.87 " fill="none" id="IFloatingActionsItem-backto-FloatingActionsItem" style="stroke:#272B30;stroke-width:1.0;stroke-dasharray:7.0,7.0;"/><polygon fill="none" points="581.66,205.95,600.41,196.08,591.9,215.49,581.66,205.95" style="stroke:#272B30;stroke-width:1.0;"/><!--MD5=[85228ffec6ab303aad5756569ab6c1b0]
@startuml
skinparam ClassArrowColor #272b30
skinparam ClassBorderColor #272b30
skinparam ClassBackgroundColor #fff
skinparam BackgroundColor #ced4da
hide empty methods
hide empty fields
class "FloatingActionsItem" {
    #_selfElem : HTMLElement
    #_widgetId : string
    -_floatingParent : IFloatingActions
    +build() : void
    +changeProperty(propertyName: string, propertyValue: unknown) : void
    +dispose() : void
    +equalsToID(patternId: string) : boolean
    +setAnimationDelay(value: number) : void
    +setTabindex(value: string) : void
    #finishBuild() : void
}
abstract class "AbstractPattern<FloatingActionsItemConfig>" {
    #_selfElem : HTMLElement
    #_widgetId : string
    -_configs : FloatingActionsItemConfig
    -_isBuilt : boolean
    -_uniqueId : string
    +build() : void
    +changeProperty(propertyName: string, propertyValue: unknown) : void
    +dispose() : void
    +equalsToID(patternId: string) : boolean
    #finishBuild() : void
    #_unsetCommonHtmlElements() : void
    -_setCommonHtmlElements() : void
}
"AbstractPattern<FloatingActionsItemConfig>" <|- - "FloatingActionsItem"
interface "IFloatingActionsItem" {
    +isBuilt : boolean
    +selfElement : HTMLElement
    +uniqueId : string
    +widgetId : string
    +build() : void
    +changeProperty(propertyName: string, propertyValue: unknown) : void
    +dispose() : void
    +equalsToID(id: string) : boolean
    +setAnimationDelay(value: number) : void
    +setTabindex(value: string) : void
}
"IFloatingActionsItem" <|.. "FloatingActionsItem"
@enduml

PlantUML version 1.2021.14(Fri Nov 12 16:46:50 UTC 2021)
(GPL source distribution)
Java Runtime: OpenJDK Runtime Environment
JVM: OpenJDK 64-Bit Server VM
Default Encoding: UTF-8
Language: en
Country: null
--></g></svg>