<?xml version="1.0" encoding="us-ascii" standalone="no"?><svg xmlns="http://www.w3.org/2000/svg" xmlns:xlink="http://www.w3.org/1999/xlink" contentStyleType="text/css" height="532px" preserveAspectRatio="none" style="width:631px;height:532px;background:#CED4DA;" version="1.1" viewBox="0 0 631 532" width="631px" zoomAndPan="magnify"><defs/><g><rect fill="#CED4DA" height="532" style="stroke:none;stroke-width:1.0;" width="631" x="0" y="0"/><!--class GalleryConfig--><g id="elem_GalleryConfig"><rect codeLine="7" fill="#FFFFFF" height="262.3477" id="GalleryConfig" rx="2.5" ry="2.5" style="stroke:#272B30;stroke-width:0.5;" width="615" x="9" y="263"/><ellipse cx="265.75" cy="279" fill="#ADD1B2" rx="11" ry="11" style="stroke:#181818;stroke-width:1.0;"/><path d="M268.2231,285.1431 Q267.6421,285.4419 267.0029,285.5913 Q266.3638,285.7407 265.6582,285.7407 Q263.1514,285.7407 261.8315,284.0889 Q260.5117,282.437 260.5117,279.3159 Q260.5117,276.1865 261.8315,274.5347 Q263.1514,272.8828 265.6582,272.8828 Q266.3638,272.8828 267.0112,273.0322 Q267.6587,273.1816 268.2231,273.4805 L268.2231,276.2031 Q267.5923,275.6221 266.9988,275.3523 Q266.4053,275.0825 265.7744,275.0825 Q264.4297,275.0825 263.7449,276.1492 Q263.0601,277.2158 263.0601,279.3159 Q263.0601,281.4077 263.7449,282.4744 Q264.4297,283.541 265.7744,283.541 Q266.4053,283.541 266.9988,283.2712 Q267.5923,283.0015 268.2231,282.4204 Z " fill="#000000"/><text fill="#000000" font-family="sans-serif" font-size="14" lengthAdjust="spacing" textLength="93" x="286.25" y="284.291">GalleryConfig</text><line style="stroke:#272B30;stroke-width:0.5;" x1="10" x2="623" y1="295" y2="295"/><ellipse cx="20" cy="308.7441" fill="none" rx="3" ry="3" style="stroke:#038048;stroke-width:1.0;"/><text fill="#000000" font-family="sans-serif" font-size="14" lengthAdjust="spacing" textLength="153" x="29" y="312.5352">ExtendedClass : string</text><ellipse cx="20" cy="325.2324" fill="none" rx="3" ry="3" style="stroke:#038048;stroke-width:1.0;"/><text fill="#000000" font-family="sans-serif" font-size="14" lengthAdjust="spacing" textLength="116" x="29" y="329.0234">ItemsGap : string</text><ellipse cx="20" cy="341.7207" fill="none" rx="3" ry="3" style="stroke:#038048;stroke-width:1.0;"/><text fill="#000000" font-family="sans-serif" font-size="14" lengthAdjust="spacing" textLength="188" x="29" y="345.5117">RowItemsDesktop : number</text><ellipse cx="20" cy="358.209" fill="none" rx="3" ry="3" style="stroke:#038048;stroke-width:1.0;"/><text fill="#000000" font-family="sans-serif" font-size="14" lengthAdjust="spacing" textLength="175" x="29" y="362">RowItemsPhone : number</text><ellipse cx="20" cy="374.6973" fill="none" rx="3" ry="3" style="stroke:#038048;stroke-width:1.0;"/><text fill="#000000" font-family="sans-serif" font-size="14" lengthAdjust="spacing" textLength="175" x="29" y="378.4883">RowItemsTablet : number</text><line style="stroke:#272B30;stroke-width:0.5;" x1="10" x2="623" y1="385.4414" y2="385.4414"/><ellipse cx="20" cy="399.1855" fill="#84BE84" rx="3" ry="3" style="stroke:#038048;stroke-width:1.0;"/><text fill="#000000" font-family="sans-serif" font-size="14" lengthAdjust="spacing" textLength="409" x="29" y="402.9766">validateCanChange(_isBuilt: boolean, _key: string) : boolean</text><ellipse cx="20" cy="415.6738" fill="#84BE84" rx="3" ry="3" style="stroke:#038048;stroke-width:1.0;"/><text fill="#000000" font-family="sans-serif" font-size="14" lengthAdjust="spacing" textLength="382" x="29" y="419.4648">validateDefault(_key: string, value: unknown) : unknown</text><polygon fill="#FFFF44" points="20,427.1621,24,431.1621,20,435.1621,16,431.1621" style="stroke:#B38D22;stroke-width:1.0;"/><text fill="#000000" font-family="sans-serif" font-size="14" lengthAdjust="spacing" textLength="444" x="29" y="435.9531">validateBoolean(value: boolean, defaultValue: boolean) : boolean</text><polygon fill="#FFFF44" points="20,443.6504,24,447.6504,20,451.6504,16,447.6504" style="stroke:#B38D22;stroke-width:1.0;"/><text fill="#000000" font-family="sans-serif" font-size="14" lengthAdjust="spacing" textLength="460" x="29" y="452.4414">validateDate(value: string | Date, defaultValue: string) : string | Date</text><polygon fill="#FFFF44" points="20,460.1387,24,464.1387,20,468.1387,16,464.1387" style="stroke:#B38D22;stroke-width:1.0;"/><text fill="#000000" font-family="sans-serif" font-size="14" lengthAdjust="spacing" textLength="589" x="29" y="468.9297">validateInRange(value: unknown, defaultValue: unknown, args: unknown[]) : unknown</text><polygon fill="#FFFF44" points="20,476.627,24,480.627,20,484.627,16,480.627" style="stroke:#B38D22;stroke-width:1.0;"/><text fill="#000000" font-family="sans-serif" font-size="14" lengthAdjust="spacing" textLength="438" x="29" y="485.418">validateNumber(value: number, defaultValue: number) : number</text><polygon fill="#FFFF44" points="20,493.1152,24,497.1152,20,501.1152,16,497.1152" style="stroke:#B38D22;stroke-width:1.0;"/><text fill="#000000" font-family="sans-serif" font-size="14" lengthAdjust="spacing" textLength="382" x="29" y="501.9063">validateString(value: string, defaultValue: string) : string</text><polygon fill="#FFFF44" points="20,509.6035,24,513.6035,20,517.6035,16,513.6035" style="stroke:#B38D22;stroke-width:1.0;"/><text fill="#000000" font-family="sans-serif" font-size="14" lengthAdjust="spacing" textLength="375" x="29" y="518.3945">validateTime(value: string, defaultValue: string) : string</text></g><!--class AbstractConfiguration--><g id="elem_AbstractConfiguration"><rect codeLine="22" fill="#FFFFFF" height="196.3945" id="AbstractConfiguration" rx="2.5" ry="2.5" style="stroke:#272B30;stroke-width:0.5;" width="615" x="9" y="7"/><ellipse cx="235.75" cy="23" fill="#A9DCDF" rx="11" ry="11" style="stroke:#181818;stroke-width:1.0;"/><path d="M235.6133,18.3481 L234.4595,23.4199 L236.7754,23.4199 Z M234.1191,16.1069 L237.1157,16.1069 L240.4609,28.5 L238.0122,28.5 L237.2485,25.437 L233.9697,25.437 L233.2227,28.5 L230.7739,28.5 Z " fill="#000000"/><text fill="#000000" font-family="sans-serif" font-size="14" font-style="italic" lengthAdjust="spacing" textLength="153" x="256.25" y="28.291">AbstractConfiguration</text><line style="stroke:#272B30;stroke-width:0.5;" x1="10" x2="623" y1="39" y2="39"/><ellipse cx="20" cy="52.7441" fill="none" rx="3" ry="3" style="stroke:#038048;stroke-width:1.0;"/><text fill="#000000" font-family="sans-serif" font-size="14" lengthAdjust="spacing" textLength="153" x="29" y="56.5352">ExtendedClass : string</text><line style="stroke:#272B30;stroke-width:0.5;" x1="10" x2="623" y1="63.4883" y2="63.4883"/><ellipse cx="20" cy="77.2324" fill="#84BE84" rx="3" ry="3" style="stroke:#038048;stroke-width:1.0;"/><text fill="#000000" font-family="sans-serif" font-size="14" lengthAdjust="spacing" textLength="409" x="29" y="81.0234">validateCanChange(_isBuilt: boolean, _key: string) : boolean</text><ellipse cx="20" cy="93.7207" fill="#84BE84" rx="3" ry="3" style="stroke:#038048;stroke-width:1.0;"/><text fill="#000000" font-family="sans-serif" font-size="14" lengthAdjust="spacing" textLength="382" x="29" y="97.5117">validateDefault(_key: string, value: unknown) : unknown</text><polygon fill="#FFFF44" points="20,105.209,24,109.209,20,113.209,16,109.209" style="stroke:#B38D22;stroke-width:1.0;"/><text fill="#000000" font-family="sans-serif" font-size="14" lengthAdjust="spacing" textLength="444" x="29" y="114">validateBoolean(value: boolean, defaultValue: boolean) : boolean</text><polygon fill="#FFFF44" points="20,121.6973,24,125.6973,20,129.6973,16,125.6973" style="stroke:#B38D22;stroke-width:1.0;"/><text fill="#000000" font-family="sans-serif" font-size="14" lengthAdjust="spacing" textLength="460" x="29" y="130.4883">validateDate(value: string | Date, defaultValue: string) : string | Date</text><polygon fill="#FFFF44" points="20,138.1855,24,142.1855,20,146.1855,16,142.1855" style="stroke:#B38D22;stroke-width:1.0;"/><text fill="#000000" font-family="sans-serif" font-size="14" lengthAdjust="spacing" textLength="589" x="29" y="146.9766">validateInRange(value: unknown, defaultValue: unknown, args: unknown[]) : unknown</text><polygon fill="#FFFF44" points="20,154.6738,24,158.6738,20,162.6738,16,158.6738" style="stroke:#B38D22;stroke-width:1.0;"/><text fill="#000000" font-family="sans-serif" font-size="14" lengthAdjust="spacing" textLength="438" x="29" y="163.4648">validateNumber(value: number, defaultValue: number) : number</text><polygon fill="#FFFF44" points="20,171.1621,24,175.1621,20,179.1621,16,175.1621" style="stroke:#B38D22;stroke-width:1.0;"/><text fill="#000000" font-family="sans-serif" font-size="14" lengthAdjust="spacing" textLength="382" x="29" y="179.9531">validateString(value: string, defaultValue: string) : string</text><polygon fill="#FFFF44" points="20,187.6504,24,191.6504,20,195.6504,16,191.6504" style="stroke:#B38D22;stroke-width:1.0;"/><text fill="#000000" font-family="sans-serif" font-size="14" lengthAdjust="spacing" textLength="375" x="29" y="196.4414">validateTime(value: string, defaultValue: string) : string</text></g><!--reverse link AbstractConfiguration to GalleryConfig--><g id="link_AbstractConfiguration_GalleryConfig"><path codeLine="33" d="M316.5,223.33 C316.5,236.36 316.5,249.68 316.5,262.86 " fill="none" id="AbstractConfiguration-backto-GalleryConfig" style="stroke:#272B30;stroke-width:1.0;"/><polygon fill="none" points="309.5,223.17,316.5,203.17,323.5,223.17,309.5,223.17" style="stroke:#272B30;stroke-width:1.0;"/></g><!--SRC=[xLJHQi8m57ttAoxpHPd2S8E1x4Nh45_6SBANCUIskMr3qqIIT4xc_dsrhPtfS7Fl5WhDEUUUt9iSQX8kLwWn1K-WCIEjrTfJGcbe3su7_lLLoxYAiTACzEyI3998gqooIXQ6uO7c1nqGks7OYZaZe7HbDv2IZHKpXr38IUH8iDi0BgOe1EcDfsJ8emluQ47-NDw_MvACMD453C5OpMLKSZDBgPdYgW7FrRfW9cGIgtQip5AVjCi-nahI4Mw1lY3R8DzGS8QMF9HUZ3AYpfARSSQ57OAlb22KFLWcjDbtquMQS1qc568cRETGt8ESpMW8cKoaMijTSVLP5BVtnUFIiLF9wvrPQVhimCqMQfT9_kujoWPW2pkmQVGzYYDptMPoNXo8EqBJgePHHwPUlhmU7VMXEFszQtaNJTCIxRftLJiy5JsxW_ureUkmu2dzi_wpXNx-YO65AjgZQbrcEzDekP8dHVmSkdFeJWpTiPJTRVlzvj_r2m00]--></g></svg>