<?xml version="1.0" encoding="us-ascii" standalone="no"?><svg xmlns="http://www.w3.org/2000/svg" xmlns:xlink="http://www.w3.org/1999/xlink" contentStyleType="text/css" height="854px" preserveAspectRatio="none" style="width:1156px;height:854px;background:#CED4DA;" version="1.1" viewBox="0 0 1156 854" width="1156px" zoomAndPan="magnify"><defs/><g><rect fill="#CED4DA" height="854" style="stroke:none;stroke-width:1.0;" width="1156" x="0" y="0"/><!--class Gallery--><g id="elem_Gallery"><rect codeLine="7" fill="#FFFFFF" height="357.6406" id="Gallery" rx="2.5" ry="2.5" style="stroke:#272B30;stroke-width:0.5;" width="595" x="303" y="490"/><ellipse cx="573.25" cy="506" fill="#ADD1B2" rx="11" ry="11" style="stroke:#181818;stroke-width:1.0;"/><path d="M576.2188,511.6406 Q575.6406,511.9375 575,512.0781 Q574.3594,512.2344 573.6563,512.2344 Q571.1563,512.2344 569.8281,510.5938 Q568.5156,508.9375 568.5156,505.8125 Q568.5156,502.6875 569.8281,501.0313 Q571.1563,499.375 573.6563,499.375 Q574.3594,499.375 575,499.5313 Q575.6563,499.6875 576.2188,499.9844 L576.2188,502.7031 Q575.5938,502.125 575,501.8594 Q574.4063,501.5781 573.7813,501.5781 Q572.4375,501.5781 571.75,502.6563 Q571.0625,503.7188 571.0625,505.8125 Q571.0625,507.9063 571.75,508.9844 Q572.4375,510.0469 573.7813,510.0469 Q574.4063,510.0469 575,509.7813 Q575.5938,509.5 576.2188,508.9219 L576.2188,511.6406 Z " fill="#000000"/><text fill="#000000" font-family="sans-serif" font-size="14" lengthAdjust="spacing" textLength="46" x="593.75" y="510.8467">Gallery</text><line style="stroke:#272B30;stroke-width:0.5;" x1="304" x2="897" y1="522" y2="522"/><polygon fill="none" points="314,530.6484,318,534.6484,314,538.6484,310,534.6484" style="stroke:#B38D22;stroke-width:1.0;"/><text fill="#000000" font-family="sans-serif" font-size="14" lengthAdjust="spacing" textLength="180" x="323" y="538.9951">isProviderBased : boolean</text><line style="stroke:#272B30;stroke-width:0.5;" x1="304" x2="897" y1="546.2969" y2="546.2969"/><ellipse cx="314" cy="559.9453" fill="#84BE84" rx="3" ry="3" style="stroke:#038048;stroke-width:1.0;"/><text fill="#000000" font-family="sans-serif" font-size="14" lengthAdjust="spacing" textLength="84" x="323" y="563.292">build() : void</text><ellipse cx="314" cy="576.2422" fill="#84BE84" rx="3" ry="3" style="stroke:#038048;stroke-width:1.0;"/><text fill="#000000" font-family="sans-serif" font-size="14" lengthAdjust="spacing" textLength="484" x="323" y="579.5889">changeProperty(propertyName: string, propertyValue: unknown) : void</text><ellipse cx="314" cy="592.5391" fill="#84BE84" rx="3" ry="3" style="stroke:#038048;stroke-width:1.0;"/><text fill="#000000" font-family="sans-serif" font-size="14" lengthAdjust="spacing" textLength="106" x="323" y="595.8857">dispose() : void</text><ellipse cx="314" cy="608.8359" fill="#84BE84" rx="3" ry="3" style="stroke:#038048;stroke-width:1.0;"/><text fill="#000000" font-family="sans-serif" font-size="14" lengthAdjust="spacing" textLength="267" x="323" y="612.1826">equalsToID(patternId: string) : boolean</text><ellipse cx="314" cy="625.1328" fill="#84BE84" rx="3" ry="3" style="stroke:#038048;stroke-width:1.0;"/><text fill="#000000" font-family="sans-serif" font-size="14" lengthAdjust="spacing" textLength="434" x="323" y="628.4795">registerCallback(eventName: string, callback: OSGeneric) : void</text><polygon fill="#FFFF44" points="314,636.4297,318,640.4297,314,644.4297,310,640.4297" style="stroke:#B38D22;stroke-width:1.0;"/><text fill="#000000" font-family="sans-serif" font-size="14" lengthAdjust="spacing" textLength="121" x="323" y="644.7764">finishBuild() : void</text><polygon fill="#FFFF44" points="314,652.7266,318,656.7266,314,660.7266,310,656.7266" style="stroke:#B38D22;stroke-width:1.0;"/><text fill="#000000" font-family="sans-serif" font-size="14" lengthAdjust="spacing" textLength="180" x="323" y="661.0732">setA11YProperties() : void</text><polygon fill="#FFFF44" points="314,669.0234,318,673.0234,314,677.0234,310,673.0234" style="stroke:#B38D22;stroke-width:1.0;"/><text fill="#000000" font-family="sans-serif" font-size="14" lengthAdjust="spacing" textLength="138" x="323" y="677.3701">setCallbacks() : void</text><polygon fill="#FFFF44" points="314,685.3203,318,689.3203,314,693.3203,310,689.3203" style="stroke:#B38D22;stroke-width:1.0;"/><text fill="#000000" font-family="sans-serif" font-size="14" lengthAdjust="spacing" textLength="169" x="323" y="693.667">setHtmlElements() : void</text><polygon fill="#FFFF44" points="314,701.6172,318,705.6172,314,709.6172,310,705.6172" style="stroke:#B38D22;stroke-width:1.0;"/><text fill="#000000" font-family="sans-serif" font-size="14" lengthAdjust="spacing" textLength="569" x="323" y="709.9639">triggerPlatformEventCallback(platFormCallback: OSGeneric, args: unknown[]) : void</text><polygon fill="#FFFF44" points="314,717.9141,318,721.9141,314,725.9141,310,721.9141" style="stroke:#B38D22;stroke-width:1.0;"/><text fill="#000000" font-family="sans-serif" font-size="14" lengthAdjust="spacing" textLength="311" x="323" y="726.2607">triggerPlatformInitializedEventCallback() : void</text><polygon fill="#FFFF44" points="314,734.2109,318,738.2109,314,742.2109,310,738.2109" style="stroke:#B38D22;stroke-width:1.0;"/><text fill="#000000" font-family="sans-serif" font-size="14" lengthAdjust="spacing" textLength="156" x="323" y="742.5576">unsetCallbacks() : void</text><polygon fill="#FFFF44" points="314,750.5078,318,754.5078,314,758.5078,310,754.5078" style="stroke:#B38D22;stroke-width:1.0;"/><text fill="#000000" font-family="sans-serif" font-size="14" lengthAdjust="spacing" textLength="199" x="323" y="758.8545">unsetGlobalCallbacks() : void</text><polygon fill="#FFFF44" points="314,766.8047,318,770.8047,314,774.8047,310,770.8047" style="stroke:#B38D22;stroke-width:1.0;"/><text fill="#000000" font-family="sans-serif" font-size="14" lengthAdjust="spacing" textLength="187" x="323" y="775.1514">unsetHtmlElements() : void</text><rect fill="#F24D5C" height="6" style="stroke:#C82930;stroke-width:1.0;" width="6" x="311" y="785.1016"/><text fill="#000000" font-family="sans-serif" font-size="14" lengthAdjust="spacing" textLength="146" x="323" y="791.4482">_setItemsGap() : void</text><rect fill="#F24D5C" height="6" style="stroke:#C82930;stroke-width:1.0;" width="6" x="311" y="801.3984"/><text fill="#000000" font-family="sans-serif" font-size="14" lengthAdjust="spacing" textLength="207" x="323" y="807.7451">_setRowItemsDesktop() : void</text><rect fill="#F24D5C" height="6" style="stroke:#C82930;stroke-width:1.0;" width="6" x="311" y="817.6953"/><text fill="#000000" font-family="sans-serif" font-size="14" lengthAdjust="spacing" textLength="193" x="323" y="824.042">_setRowItemsPhone() : void</text><rect fill="#F24D5C" height="6" style="stroke:#C82930;stroke-width:1.0;" width="6" x="311" y="833.9922"/><text fill="#000000" font-family="sans-serif" font-size="14" lengthAdjust="spacing" textLength="191" x="323" y="840.3389">_setRowItemsTablet() : void</text></g><!--class AbstractPattern<GalleryConfig>--><g id="elem_AbstractPattern&lt;GalleryConfig&gt;"><rect codeLine="28" fill="#FFFFFF" height="422.8281" id="AbstractPattern&lt;GalleryConfig&gt;" rx="2.5" ry="2.5" style="stroke:#272B30;stroke-width:0.5;" width="595" x="9" y="7"/><ellipse cx="191.75" cy="23" fill="#A9DCDF" rx="11" ry="11" style="stroke:#181818;stroke-width:1.0;"/><path d="M191.8594,18.3438 L190.7031,23.4219 L193.0313,23.4219 L191.8594,18.3438 Z M190.375,16.1094 L193.3594,16.1094 L196.7188,28.5 L194.2656,28.5 L193.5,25.4375 L190.2188,25.4375 L189.4688,28.5 L187.0313,28.5 L190.375,16.1094 Z " fill="#000000"/><text fill="#000000" font-family="sans-serif" font-size="14" font-style="italic" lengthAdjust="spacing" textLength="221" x="212.25" y="27.8467">AbstractPattern&lt;GalleryConfig&gt;</text><line style="stroke:#272B30;stroke-width:0.5;" x1="10" x2="603" y1="39" y2="39"/><polygon fill="none" points="20,47.6484,24,51.6484,20,55.6484,16,51.6484" style="stroke:#B38D22;stroke-width:1.0;"/><text fill="#000000" font-family="sans-serif" font-size="14" lengthAdjust="spacing" textLength="180" x="29" y="55.9951">isProviderBased : boolean</text><rect fill="none" height="6" style="stroke:#C82930;stroke-width:1.0;" width="6" x="17" y="65.9453"/><text fill="#000000" font-family="sans-serif" font-size="14" lengthAdjust="spacing" textLength="160" x="29" y="72.292">_configs : GalleryConfig</text><rect fill="none" height="6" style="stroke:#C82930;stroke-width:1.0;" width="6" x="17" y="82.2422"/><text fill="#000000" font-family="sans-serif" font-size="14" lengthAdjust="spacing" textLength="117" x="29" y="88.5889">_isBuilt : boolean</text><rect fill="none" height="6" style="stroke:#C82930;stroke-width:1.0;" width="6" x="17" y="98.5391"/><text fill="#000000" font-family="sans-serif" font-size="14" lengthAdjust="spacing" textLength="252" x="29" y="104.8857">_platformEventInitialized : OSGeneric</text><rect fill="none" height="6" style="stroke:#C82930;stroke-width:1.0;" width="6" x="17" y="114.8359"/><text fill="#000000" font-family="sans-serif" font-size="14" lengthAdjust="spacing" textLength="173" x="29" y="121.1826">_selfElem : HTMLElement</text><rect fill="none" height="6" style="stroke:#C82930;stroke-width:1.0;" width="6" x="17" y="131.1328"/><text fill="#000000" font-family="sans-serif" font-size="14" lengthAdjust="spacing" textLength="119" x="29" y="137.4795">_uniqueId : string</text><rect fill="none" height="6" style="stroke:#C82930;stroke-width:1.0;" width="6" x="17" y="147.4297"/><text fill="#000000" font-family="sans-serif" font-size="14" lengthAdjust="spacing" textLength="117" x="29" y="153.7764">_widgetId : string</text><line style="stroke:#272B30;stroke-width:0.5;" x1="10" x2="603" y1="161.0781" y2="161.0781"/><ellipse cx="20" cy="174.7266" fill="#84BE84" rx="3" ry="3" style="stroke:#038048;stroke-width:1.0;"/><text fill="#000000" font-family="sans-serif" font-size="14" lengthAdjust="spacing" textLength="84" x="29" y="178.0732">build() : void</text><ellipse cx="20" cy="191.0234" fill="#84BE84" rx="3" ry="3" style="stroke:#038048;stroke-width:1.0;"/><text fill="#000000" font-family="sans-serif" font-size="14" lengthAdjust="spacing" textLength="484" x="29" y="194.3701">changeProperty(propertyName: string, propertyValue: unknown) : void</text><ellipse cx="20" cy="207.3203" fill="#84BE84" rx="3" ry="3" style="stroke:#038048;stroke-width:1.0;"/><text fill="#000000" font-family="sans-serif" font-size="14" lengthAdjust="spacing" textLength="106" x="29" y="210.667">dispose() : void</text><ellipse cx="20" cy="223.6172" fill="#84BE84" rx="3" ry="3" style="stroke:#038048;stroke-width:1.0;"/><text fill="#000000" font-family="sans-serif" font-size="14" lengthAdjust="spacing" textLength="267" x="29" y="226.9639">equalsToID(patternId: string) : boolean</text><ellipse cx="20" cy="239.9141" fill="#84BE84" rx="3" ry="3" style="stroke:#038048;stroke-width:1.0;"/><text fill="#000000" font-family="sans-serif" font-size="14" lengthAdjust="spacing" textLength="434" x="29" y="243.2607">registerCallback(eventName: string, callback: OSGeneric) : void</text><polygon fill="#FFFF44" points="20,251.2109,24,255.2109,20,259.2109,16,255.2109" style="stroke:#B38D22;stroke-width:1.0;"/><text fill="#000000" font-family="sans-serif" font-size="14" lengthAdjust="spacing" textLength="121" x="29" y="259.5576">finishBuild() : void</text><polygon fill="#FFFF44" points="20,267.5078,24,271.5078,20,275.5078,16,271.5078" style="stroke:#B38D22;stroke-width:1.0;"/><text fill="#000000" font-family="sans-serif" font-size="14" font-style="italic" lengthAdjust="spacing" textLength="179" x="29" y="275.8545">setA11YProperties() : void</text><polygon fill="#FFFF44" points="20,283.8047,24,287.8047,20,291.8047,16,287.8047" style="stroke:#B38D22;stroke-width:1.0;"/><text fill="#000000" font-family="sans-serif" font-size="14" font-style="italic" lengthAdjust="spacing" textLength="137" x="29" y="292.1514">setCallbacks() : void</text><polygon fill="#FFFF44" points="20,300.1016,24,304.1016,20,308.1016,16,304.1016" style="stroke:#B38D22;stroke-width:1.0;"/><text fill="#000000" font-family="sans-serif" font-size="14" font-style="italic" lengthAdjust="spacing" textLength="169" x="29" y="308.4482">setHtmlElements() : void</text><polygon fill="#FFFF44" points="20,316.3984,24,320.3984,20,324.3984,16,320.3984" style="stroke:#B38D22;stroke-width:1.0;"/><text fill="#000000" font-family="sans-serif" font-size="14" lengthAdjust="spacing" textLength="569" x="29" y="324.7451">triggerPlatformEventCallback(platFormCallback: OSGeneric, args: unknown[]) : void</text><polygon fill="#FFFF44" points="20,332.6953,24,336.6953,20,340.6953,16,336.6953" style="stroke:#B38D22;stroke-width:1.0;"/><text fill="#000000" font-family="sans-serif" font-size="14" lengthAdjust="spacing" textLength="311" x="29" y="341.042">triggerPlatformInitializedEventCallback() : void</text><polygon fill="#FFFF44" points="20,348.9922,24,352.9922,20,356.9922,16,352.9922" style="stroke:#B38D22;stroke-width:1.0;"/><text fill="#000000" font-family="sans-serif" font-size="14" font-style="italic" lengthAdjust="spacing" textLength="155" x="29" y="357.3389">unsetCallbacks() : void</text><polygon fill="#FFFF44" points="20,365.2891,24,369.2891,20,373.2891,16,369.2891" style="stroke:#B38D22;stroke-width:1.0;"/><text fill="#000000" font-family="sans-serif" font-size="14" lengthAdjust="spacing" textLength="199" x="29" y="373.6357">unsetGlobalCallbacks() : void</text><polygon fill="#FFFF44" points="20,381.5859,24,385.5859,20,389.5859,16,385.5859" style="stroke:#B38D22;stroke-width:1.0;"/><text fill="#000000" font-family="sans-serif" font-size="14" font-style="italic" lengthAdjust="spacing" textLength="187" x="29" y="389.9326">unsetHtmlElements() : void</text><rect fill="#F24D5C" height="6" style="stroke:#C82930;stroke-width:1.0;" width="6" x="17" y="399.8828"/><text fill="#000000" font-family="sans-serif" font-size="14" lengthAdjust="spacing" textLength="239" x="29" y="406.2295">_setCommonHtmlElements() : void</text><rect fill="#F24D5C" height="6" style="stroke:#C82930;stroke-width:1.0;" width="6" x="17" y="416.1797"/><text fill="#000000" font-family="sans-serif" font-size="14" lengthAdjust="spacing" textLength="257" x="29" y="422.5264">_unsetCommonHtmlElements() : void</text></g><!--class IGallery--><g id="elem_IGallery"><rect codeLine="54" fill="#FFFFFF" height="194.6719" id="IGallery" rx="2.5" ry="2.5" style="stroke:#272B30;stroke-width:0.5;" width="510" x="639.5" y="121"/><ellipse cx="864.75" cy="137" fill="#B4A7E5" rx="11" ry="11" style="stroke:#181818;stroke-width:1.0;"/><path d="M860.6719,132.7656 L860.6719,130.6094 L868.0625,130.6094 L868.0625,132.7656 L865.5938,132.7656 L865.5938,140.8438 L868.0625,140.8438 L868.0625,143 L860.6719,143 L860.6719,140.8438 L863.1406,140.8438 L863.1406,132.7656 L860.6719,132.7656 Z " fill="#000000"/><text fill="#000000" font-family="sans-serif" font-size="14" font-style="italic" lengthAdjust="spacing" textLength="51" x="885.25" y="141.8467">IGallery</text><line style="stroke:#272B30;stroke-width:0.5;" x1="640.5" x2="1148.5" y1="153" y2="153"/><ellipse cx="650.5" cy="166.6484" fill="none" rx="3" ry="3" style="stroke:#038048;stroke-width:1.0;"/><text fill="#000000" font-family="sans-serif" font-size="14" lengthAdjust="spacing" textLength="110" x="659.5" y="169.9951">isBuilt : boolean</text><ellipse cx="650.5" cy="182.9453" fill="none" rx="3" ry="3" style="stroke:#038048;stroke-width:1.0;"/><text fill="#000000" font-family="sans-serif" font-size="14" lengthAdjust="spacing" textLength="189" x="659.5" y="186.292">selfElement : HTMLElement</text><ellipse cx="650.5" cy="199.2422" fill="none" rx="3" ry="3" style="stroke:#038048;stroke-width:1.0;"/><text fill="#000000" font-family="sans-serif" font-size="14" lengthAdjust="spacing" textLength="112" x="659.5" y="202.5889">uniqueId : string</text><ellipse cx="650.5" cy="215.5391" fill="none" rx="3" ry="3" style="stroke:#038048;stroke-width:1.0;"/><text fill="#000000" font-family="sans-serif" font-size="14" lengthAdjust="spacing" textLength="110" x="659.5" y="218.8857">widgetId : string</text><line style="stroke:#272B30;stroke-width:0.5;" x1="640.5" x2="1148.5" y1="226.1875" y2="226.1875"/><ellipse cx="650.5" cy="239.8359" fill="#84BE84" rx="3" ry="3" style="stroke:#038048;stroke-width:1.0;"/><text fill="#000000" font-family="sans-serif" font-size="14" lengthAdjust="spacing" textLength="84" x="659.5" y="243.1826">build() : void</text><ellipse cx="650.5" cy="256.1328" fill="#84BE84" rx="3" ry="3" style="stroke:#038048;stroke-width:1.0;"/><text fill="#000000" font-family="sans-serif" font-size="14" lengthAdjust="spacing" textLength="484" x="659.5" y="259.4795">changeProperty(propertyName: string, propertyValue: unknown) : void</text><ellipse cx="650.5" cy="272.4297" fill="#84BE84" rx="3" ry="3" style="stroke:#038048;stroke-width:1.0;"/><text fill="#000000" font-family="sans-serif" font-size="14" lengthAdjust="spacing" textLength="106" x="659.5" y="275.7764">dispose() : void</text><ellipse cx="650.5" cy="288.7266" fill="#84BE84" rx="3" ry="3" style="stroke:#038048;stroke-width:1.0;"/><text fill="#000000" font-family="sans-serif" font-size="14" lengthAdjust="spacing" textLength="217" x="659.5" y="292.0732">equalsToID(id: string) : boolean</text><ellipse cx="650.5" cy="305.0234" fill="#84BE84" rx="3" ry="3" style="stroke:#038048;stroke-width:1.0;"/><text fill="#000000" font-family="sans-serif" font-size="14" lengthAdjust="spacing" textLength="434" x="659.5" y="308.3701">registerCallback(eventName: string, callback: OSGeneric) : void</text></g><!--reverse link AbstractPattern<GalleryConfig> to Gallery--><g id="link_AbstractPattern&lt;GalleryConfig&gt;_Gallery"><path codeLine="53" d="M454.5456,445.3456 C467.5856,465.2456 470.86,470.23 483.67,489.78 " fill="none" id="AbstractPattern&lt;GalleryConfig&gt;-backto-Gallery" style="stroke:#272B30;stroke-width:1.0;"/><polygon fill="none" points="444.68,430.29,449.527,448.6341,459.5641,442.0571,444.68,430.29" style="stroke:#272B30;stroke-width:1.0;"/></g><!--reverse link IGallery to Gallery--><g id="link_IGallery_Gallery"><path codeLine="65" d="M821.2017,331.3238 C788.0317,381.9238 756.23,430.44 717.47,489.57 " fill="none" id="IGallery-backto-Gallery" style="stroke:#272B30;stroke-width:1.0;stroke-dasharray:7.0,7.0;"/><polygon fill="none" points="831.07,316.27,816.1838,328.0344,826.2197,334.6132,831.07,316.27" style="stroke:#272B30;stroke-width:1.0;"/></g><!--SRC=[vLLhQzim5FtkNo6IBobfojeD1Y4C4hTB3Nk4BGp66ENQkdP4PCcLv8QipN-VaYY97wap68ED-PDzpj5zwHwivqnae20bFWUjXqh9XI-vLAHzzVegVFd2qsN5I2gAgba2qJnHCXVKoU8uBcXgT8Jq5GLlnYWIJ3Ep92cQcQIw2CKCkKMYTGBI6WFdg9OjykWH-xIPdYZvODLg11efwPDGIeuWDdGtp1cddJCBFqX6jrWq0v6WFPQXCijEvbu-G8fzeerY8ZadE_GByDp2kPWBkH3bG9JfJ6giXCVx7BYUok2wau4ng4H0Tt7FglKfJ9Ys6j-s5ThnTF01XIcN4ZckJpv-7gD0nQ9IndRC1DEpKRtLjaOplBpywdfbgElyBlCHwjQa_8PZQYkgihQq944ruM1YgTARTTNx7ZABlhMeNo_yd81Az7wUtxutXWq4Cmmu-u6qdA5yAXSDVMp8CPSXy4R9yytsxYmT64pr6B8Zr2UvsB3NgET6DYacCocmWPz2oD4S12iFGhi541dYrd_elYVRpHeuE_XIn2nvyukkwDr56xssU2c0OvbUxvAfdSgAjrsu6rAuu7rJF5vFqrAtq_Vlt60TcGjsdsEmFhVTSOSl64tif2luV-xXnzqAh4xQkI9zPjqhgd_4vCMgVzFljL0dhE_BD9MYIRGjg46syauwT_3Kwnr-RnuJLXL3XAGLLFvvtUF-xEuyPrCViLttkEkwVwNfs9zpcxsAmq07JnSNXw7_1000]--></g></svg>