<?xml version="1.0" encoding="UTF-8" standalone="no"?><svg xmlns="http://www.w3.org/2000/svg" xmlns:xlink="http://www.w3.org/1999/xlink" contentScriptType="application/ecmascript" contentStyleType="text/css" height="721px" preserveAspectRatio="none" style="width:931px;height:721px;background:#CED4DA;" version="1.1" viewBox="0 0 931 721" width="931px" zoomAndPan="magnify"><defs><filter height="300%" id="f1vxuyyqwn2mq2" width="300%" x="-1" y="-1"><feGaussianBlur result="blurOut" stdDeviation="2.0"/><feColorMatrix in="blurOut" result="blurOut2" type="matrix" values="0 0 0 0 0 0 0 0 0 0 0 0 0 0 0 0 0 0 .4 0"/><feOffset dx="4.0" dy="4.0" in="blurOut2" result="blurOut3"/><feBlend in="SourceGraphic" in2="blurOut3" mode="normal"/></filter></defs><g><!--MD5=[161c3bb403169157d9ea11ed46eaa789]
class Gallery--><rect codeLine="7" fill="#FFFFFF" filter="url(#f1vxuyyqwn2mq2)" height="294.1465" id="Gallery" style="stroke:#272B30;stroke-width:1.5;" width="470" x="245" y="413"/><ellipse cx="455.75" cy="429" fill="#ADD1B2" rx="11" ry="11" style="stroke:#272B30;stroke-width:1.0;"/><path d="M458.2231,435.1431 Q457.6421,435.4419 457.0029,435.5913 Q456.3638,435.7407 455.6582,435.7407 Q453.1514,435.7407 451.8315,434.0889 Q450.5117,432.437 450.5117,429.3159 Q450.5117,426.1865 451.8315,424.5347 Q453.1514,422.8828 455.6582,422.8828 Q456.3638,422.8828 457.0112,423.0322 Q457.6587,423.1816 458.2231,423.4805 L458.2231,426.2031 Q457.5923,425.6221 456.9988,425.3523 Q456.4053,425.0825 455.7744,425.0825 Q454.4297,425.0825 453.7449,426.1492 Q453.0601,427.2158 453.0601,429.3159 Q453.0601,431.4077 453.7449,432.4744 Q454.4297,433.541 455.7744,433.541 Q456.4053,433.541 456.9988,433.2712 Q457.5923,433.0015 458.2231,432.4204 Z " fill="#000000"/><text fill="#000000" font-family="sans-serif" font-size="12" lengthAdjust="spacing" textLength="40" x="476.25" y="433.5352">Gallery</text><line style="stroke:#272B30;stroke-width:1.5;" x1="246" x2="714" y1="445" y2="445"/><polygon fill="none" points="256,451,260,455,256,459,252,455" style="stroke:#B38D22;stroke-width:1.0;"/><text fill="#000000" font-family="sans-serif" font-size="11" lengthAdjust="spacing" textLength="137" x="265" y="459.6348">isProviderBased : boolean</text><line style="stroke:#272B30;stroke-width:1.5;" x1="246" x2="714" y1="465.9551" y2="465.9551"/><ellipse cx="256" cy="476.9551" fill="#84BE84" rx="3" ry="3" style="stroke:#038048;stroke-width:1.0;"/><text fill="#000000" font-family="sans-serif" font-size="11" lengthAdjust="spacing" textLength="67" x="265" y="480.5898">build() : void</text><ellipse cx="256" cy="489.9102" fill="#84BE84" rx="3" ry="3" style="stroke:#038048;stroke-width:1.0;"/><text fill="#000000" font-family="sans-serif" font-size="11" lengthAdjust="spacing" textLength="377" x="265" y="493.5449">changeProperty(propertyName: string, propertyValue: unknown) : void</text><ellipse cx="256" cy="502.8652" fill="#84BE84" rx="3" ry="3" style="stroke:#038048;stroke-width:1.0;"/><text fill="#000000" font-family="sans-serif" font-size="11" lengthAdjust="spacing" textLength="82" x="265" y="506.5">dispose() : void</text><ellipse cx="256" cy="515.8203" fill="#84BE84" rx="3" ry="3" style="stroke:#038048;stroke-width:1.0;"/><text fill="#000000" font-family="sans-serif" font-size="11" lengthAdjust="spacing" textLength="207" x="265" y="519.4551">equalsToID(patternId: string) : boolean</text><ellipse cx="256" cy="528.7754" fill="#84BE84" rx="3" ry="3" style="stroke:#038048;stroke-width:1.0;"/><text fill="#000000" font-family="sans-serif" font-size="11" lengthAdjust="spacing" textLength="335" x="265" y="532.4102">registerCallback(eventName: string, callback: OSGeneric) : void</text><polygon fill="#FFFF44" points="256,536.7305,260,540.7305,256,544.7305,252,540.7305" style="stroke:#B38D22;stroke-width:1.0;"/><text fill="#000000" font-family="sans-serif" font-size="11" lengthAdjust="spacing" textLength="96" x="265" y="545.3652">finishBuild() : void</text><polygon fill="#FFFF44" points="256,549.6855,260,553.6855,256,557.6855,252,553.6855" style="stroke:#B38D22;stroke-width:1.0;"/><text fill="#000000" font-family="sans-serif" font-size="11" lengthAdjust="spacing" textLength="140" x="265" y="558.3203">setA11YProperties() : void</text><polygon fill="#FFFF44" points="256,562.6406,260,566.6406,256,570.6406,252,566.6406" style="stroke:#B38D22;stroke-width:1.0;"/><text fill="#000000" font-family="sans-serif" font-size="11" lengthAdjust="spacing" textLength="107" x="265" y="571.2754">setCallbacks() : void</text><polygon fill="#FFFF44" points="256,575.5957,260,579.5957,256,583.5957,252,579.5957" style="stroke:#B38D22;stroke-width:1.0;"/><text fill="#000000" font-family="sans-serif" font-size="11" lengthAdjust="spacing" textLength="129" x="265" y="584.2305">setHtmlElements() : void</text><polygon fill="#FFFF44" points="256,588.5508,260,592.5508,256,596.5508,252,592.5508" style="stroke:#B38D22;stroke-width:1.0;"/><text fill="#000000" font-family="sans-serif" font-size="11" lengthAdjust="spacing" textLength="444" x="265" y="597.1855">triggerPlatformEventCallback(platFormCallback: OSGeneric, args: unknown[]) : void</text><polygon fill="#FFFF44" points="256,601.5059,260,605.5059,256,609.5059,252,605.5059" style="stroke:#B38D22;stroke-width:1.0;"/><text fill="#000000" font-family="sans-serif" font-size="11" lengthAdjust="spacing" textLength="247" x="265" y="610.1406">triggerPlatformInitializedEventCallback() : void</text><polygon fill="#FFFF44" points="256,614.4609,260,618.4609,256,622.4609,252,618.4609" style="stroke:#B38D22;stroke-width:1.0;"/><text fill="#000000" font-family="sans-serif" font-size="11" lengthAdjust="spacing" textLength="121" x="265" y="623.0957">unsetCallbacks() : void</text><polygon fill="#FFFF44" points="256,627.416,260,631.416,256,635.416,252,631.416" style="stroke:#B38D22;stroke-width:1.0;"/><text fill="#000000" font-family="sans-serif" font-size="11" lengthAdjust="spacing" textLength="155" x="265" y="636.0508">unsetGlobalCallbacks() : void</text><polygon fill="#FFFF44" points="256,640.3711,260,644.3711,256,648.3711,252,644.3711" style="stroke:#B38D22;stroke-width:1.0;"/><text fill="#000000" font-family="sans-serif" font-size="11" lengthAdjust="spacing" textLength="143" x="265" y="649.0059">unsetHtmlElements() : void</text><rect fill="#F24D5C" height="6" style="stroke:#C82930;stroke-width:1.0;" width="6" x="253" y="655.3262"/><text fill="#000000" font-family="sans-serif" font-size="11" lengthAdjust="spacing" textLength="112" x="265" y="661.9609">_setItemsGap() : void</text><rect fill="#F24D5C" height="6" style="stroke:#C82930;stroke-width:1.0;" width="6" x="253" y="668.2813"/><text fill="#000000" font-family="sans-serif" font-size="11" lengthAdjust="spacing" textLength="157" x="265" y="674.916">_setRowItemsDesktop() : void</text><rect fill="#F24D5C" height="6" style="stroke:#C82930;stroke-width:1.0;" width="6" x="253" y="681.2363"/><text fill="#000000" font-family="sans-serif" font-size="11" lengthAdjust="spacing" textLength="146" x="265" y="687.8711">_setRowItemsPhone() : void</text><rect fill="#F24D5C" height="6" style="stroke:#C82930;stroke-width:1.0;" width="6" x="253" y="694.1914"/><text fill="#000000" font-family="sans-serif" font-size="11" lengthAdjust="spacing" textLength="146" x="265" y="700.8262">_setRowItemsTablet() : void</text><!--MD5=[32a0b6c8be32769111938a059b75b55f]
class AbstractPattern<GalleryConfig>--><rect codeLine="28" fill="#FFFFFF" filter="url(#f1vxuyyqwn2mq2)" height="345.9668" id="AbstractPattern&lt;GalleryConfig&gt;" style="stroke:#272B30;stroke-width:1.5;" width="470" x="9" y="7"/><ellipse cx="147.25" cy="23" fill="#A9DCDF" rx="11" ry="11" style="stroke:#272B30;stroke-width:1.0;"/><path d="M147.1133,18.3481 L145.9595,23.4199 L148.2754,23.4199 Z M145.6191,16.1069 L148.6157,16.1069 L151.9609,28.5 L149.5122,28.5 L148.7485,25.437 L145.4697,25.437 L144.7227,28.5 L142.2739,28.5 Z " fill="#000000"/><text fill="#000000" font-family="sans-serif" font-size="12" font-style="italic" lengthAdjust="spacing" textLength="185" x="167.75" y="27.5352">AbstractPattern&lt;GalleryConfig&gt;</text><line style="stroke:#272B30;stroke-width:1.5;" x1="10" x2="478" y1="39" y2="39"/><polygon fill="none" points="20,45,24,49,20,53,16,49" style="stroke:#B38D22;stroke-width:1.0;"/><text fill="#000000" font-family="sans-serif" font-size="11" lengthAdjust="spacing" textLength="137" x="29" y="53.6348">isProviderBased : boolean</text><rect fill="none" height="6" style="stroke:#C82930;stroke-width:1.0;" width="6" x="17" y="59.9551"/><text fill="#000000" font-family="sans-serif" font-size="11" lengthAdjust="spacing" textLength="128" x="29" y="66.5898">_configs : GalleryConfig</text><rect fill="none" height="6" style="stroke:#C82930;stroke-width:1.0;" width="6" x="17" y="72.9102"/><text fill="#000000" font-family="sans-serif" font-size="11" lengthAdjust="spacing" textLength="90" x="29" y="79.5449">_isBuilt : boolean</text><rect fill="none" height="6" style="stroke:#C82930;stroke-width:1.0;" width="6" x="17" y="85.8652"/><text fill="#000000" font-family="sans-serif" font-size="11" lengthAdjust="spacing" textLength="197" x="29" y="92.5">_platformEventInitialized : OSGeneric</text><rect fill="none" height="6" style="stroke:#C82930;stroke-width:1.0;" width="6" x="17" y="98.8203"/><text fill="#000000" font-family="sans-serif" font-size="11" lengthAdjust="spacing" textLength="131" x="29" y="105.4551">_selfElem : HTMLElement</text><rect fill="none" height="6" style="stroke:#C82930;stroke-width:1.0;" width="6" x="17" y="111.7754"/><text fill="#000000" font-family="sans-serif" font-size="11" lengthAdjust="spacing" textLength="94" x="29" y="118.4102">_uniqueId : string</text><rect fill="none" height="6" style="stroke:#C82930;stroke-width:1.0;" width="6" x="17" y="124.7305"/><text fill="#000000" font-family="sans-serif" font-size="11" lengthAdjust="spacing" textLength="92" x="29" y="131.3652">_widgetId : string</text><line style="stroke:#272B30;stroke-width:1.5;" x1="10" x2="478" y1="137.6855" y2="137.6855"/><ellipse cx="20" cy="148.6855" fill="#84BE84" rx="3" ry="3" style="stroke:#038048;stroke-width:1.0;"/><text fill="#000000" font-family="sans-serif" font-size="11" lengthAdjust="spacing" textLength="67" x="29" y="152.3203">build() : void</text><ellipse cx="20" cy="161.6406" fill="#84BE84" rx="3" ry="3" style="stroke:#038048;stroke-width:1.0;"/><text fill="#000000" font-family="sans-serif" font-size="11" lengthAdjust="spacing" textLength="377" x="29" y="165.2754">changeProperty(propertyName: string, propertyValue: unknown) : void</text><ellipse cx="20" cy="174.5957" fill="#84BE84" rx="3" ry="3" style="stroke:#038048;stroke-width:1.0;"/><text fill="#000000" font-family="sans-serif" font-size="11" lengthAdjust="spacing" textLength="82" x="29" y="178.2305">dispose() : void</text><ellipse cx="20" cy="187.5508" fill="#84BE84" rx="3" ry="3" style="stroke:#038048;stroke-width:1.0;"/><text fill="#000000" font-family="sans-serif" font-size="11" lengthAdjust="spacing" textLength="207" x="29" y="191.1855">equalsToID(patternId: string) : boolean</text><ellipse cx="20" cy="200.5059" fill="#84BE84" rx="3" ry="3" style="stroke:#038048;stroke-width:1.0;"/><text fill="#000000" font-family="sans-serif" font-size="11" lengthAdjust="spacing" textLength="335" x="29" y="204.1406">registerCallback(eventName: string, callback: OSGeneric) : void</text><polygon fill="#FFFF44" points="20,208.4609,24,212.4609,20,216.4609,16,212.4609" style="stroke:#B38D22;stroke-width:1.0;"/><text fill="#000000" font-family="sans-serif" font-size="11" lengthAdjust="spacing" textLength="96" x="29" y="217.0957">finishBuild() : void</text><polygon fill="#FFFF44" points="20,221.416,24,225.416,20,229.416,16,225.416" style="stroke:#B38D22;stroke-width:1.0;"/><text fill="#000000" font-family="sans-serif" font-size="11" font-style="italic" lengthAdjust="spacing" textLength="140" x="29" y="230.0508">setA11YProperties() : void</text><polygon fill="#FFFF44" points="20,234.3711,24,238.3711,20,242.3711,16,238.3711" style="stroke:#B38D22;stroke-width:1.0;"/><text fill="#000000" font-family="sans-serif" font-size="11" font-style="italic" lengthAdjust="spacing" textLength="107" x="29" y="243.0059">setCallbacks() : void</text><polygon fill="#FFFF44" points="20,247.3262,24,251.3262,20,255.3262,16,251.3262" style="stroke:#B38D22;stroke-width:1.0;"/><text fill="#000000" font-family="sans-serif" font-size="11" font-style="italic" lengthAdjust="spacing" textLength="129" x="29" y="255.9609">setHtmlElements() : void</text><polygon fill="#FFFF44" points="20,260.2813,24,264.2813,20,268.2813,16,264.2813" style="stroke:#B38D22;stroke-width:1.0;"/><text fill="#000000" font-family="sans-serif" font-size="11" lengthAdjust="spacing" textLength="444" x="29" y="268.916">triggerPlatformEventCallback(platFormCallback: OSGeneric, args: unknown[]) : void</text><polygon fill="#FFFF44" points="20,273.2363,24,277.2363,20,281.2363,16,277.2363" style="stroke:#B38D22;stroke-width:1.0;"/><text fill="#000000" font-family="sans-serif" font-size="11" lengthAdjust="spacing" textLength="247" x="29" y="281.8711">triggerPlatformInitializedEventCallback() : void</text><polygon fill="#FFFF44" points="20,286.1914,24,290.1914,20,294.1914,16,290.1914" style="stroke:#B38D22;stroke-width:1.0;"/><text fill="#000000" font-family="sans-serif" font-size="11" font-style="italic" lengthAdjust="spacing" textLength="121" x="29" y="294.8262">unsetCallbacks() : void</text><polygon fill="#FFFF44" points="20,299.1465,24,303.1465,20,307.1465,16,303.1465" style="stroke:#B38D22;stroke-width:1.0;"/><text fill="#000000" font-family="sans-serif" font-size="11" lengthAdjust="spacing" textLength="155" x="29" y="307.7813">unsetGlobalCallbacks() : void</text><polygon fill="#FFFF44" points="20,312.1016,24,316.1016,20,320.1016,16,316.1016" style="stroke:#B38D22;stroke-width:1.0;"/><text fill="#000000" font-family="sans-serif" font-size="11" font-style="italic" lengthAdjust="spacing" textLength="143" x="29" y="320.7363">unsetHtmlElements() : void</text><rect fill="#F24D5C" height="6" style="stroke:#C82930;stroke-width:1.0;" width="6" x="17" y="327.0566"/><text fill="#000000" font-family="sans-serif" font-size="11" lengthAdjust="spacing" textLength="184" x="29" y="333.6914">_setCommonHtmlElements() : void</text><rect fill="#F24D5C" height="6" style="stroke:#C82930;stroke-width:1.0;" width="6" x="17" y="340.0117"/><text fill="#000000" font-family="sans-serif" font-size="11" lengthAdjust="spacing" textLength="198" x="29" y="346.6465">_unsetCommonHtmlElements() : void</text><!--MD5=[e9d88742331d6db1b3680f29054923ff]
class IGallery--><rect codeLine="54" fill="#FFFFFF" filter="url(#f1vxuyyqwn2mq2)" height="164.5957" id="IGallery" style="stroke:#272B30;stroke-width:1.5;" width="403" x="514.5" y="97.5"/><ellipse cx="690.25" cy="113.5" fill="#B4A7E5" rx="11" ry="11" style="stroke:#272B30;stroke-width:1.0;"/><path d="M686.6777,109.7651 L686.6777,107.6069 L694.0571,107.6069 L694.0571,109.7651 L691.5918,109.7651 L691.5918,117.8418 L694.0571,117.8418 L694.0571,120 L686.6777,120 L686.6777,117.8418 L689.1431,117.8418 L689.1431,109.7651 Z " fill="#000000"/><text fill="#000000" font-family="sans-serif" font-size="12" font-style="italic" lengthAdjust="spacing" textLength="43" x="710.75" y="118.0352">IGallery</text><line style="stroke:#272B30;stroke-width:1.5;" x1="515.5" x2="916.5" y1="129.5" y2="129.5"/><ellipse cx="525.5" cy="140.5" rx="3" ry="3" style="stroke:#038048;stroke-width:1.0;fill:none;"/><text fill="#000000" font-family="sans-serif" font-size="11" lengthAdjust="spacing" textLength="84" x="534.5" y="144.1348">isBuilt : boolean</text><ellipse cx="525.5" cy="153.4551" rx="3" ry="3" style="stroke:#038048;stroke-width:1.0;fill:none;"/><text fill="#000000" font-family="sans-serif" font-size="11" lengthAdjust="spacing" textLength="142" x="534.5" y="157.0898">selfElement : HTMLElement</text><ellipse cx="525.5" cy="166.4102" rx="3" ry="3" style="stroke:#038048;stroke-width:1.0;fill:none;"/><text fill="#000000" font-family="sans-serif" font-size="11" lengthAdjust="spacing" textLength="88" x="534.5" y="170.0449">uniqueId : string</text><ellipse cx="525.5" cy="179.3652" rx="3" ry="3" style="stroke:#038048;stroke-width:1.0;fill:none;"/><text fill="#000000" font-family="sans-serif" font-size="11" lengthAdjust="spacing" textLength="86" x="534.5" y="183">widgetId : string</text><line style="stroke:#272B30;stroke-width:1.5;" x1="515.5" x2="916.5" y1="189.3203" y2="189.3203"/><ellipse cx="525.5" cy="200.3203" fill="#84BE84" rx="3" ry="3" style="stroke:#038048;stroke-width:1.0;"/><text fill="#000000" font-family="sans-serif" font-size="11" lengthAdjust="spacing" textLength="67" x="534.5" y="203.9551">build() : void</text><ellipse cx="525.5" cy="213.2754" fill="#84BE84" rx="3" ry="3" style="stroke:#038048;stroke-width:1.0;"/><text fill="#000000" font-family="sans-serif" font-size="11" lengthAdjust="spacing" textLength="377" x="534.5" y="216.9102">changeProperty(propertyName: string, propertyValue: unknown) : void</text><ellipse cx="525.5" cy="226.2305" fill="#84BE84" rx="3" ry="3" style="stroke:#038048;stroke-width:1.0;"/><text fill="#000000" font-family="sans-serif" font-size="11" lengthAdjust="spacing" textLength="82" x="534.5" y="229.8652">dispose() : void</text><ellipse cx="525.5" cy="239.1855" fill="#84BE84" rx="3" ry="3" style="stroke:#038048;stroke-width:1.0;"/><text fill="#000000" font-family="sans-serif" font-size="11" lengthAdjust="spacing" textLength="168" x="534.5" y="242.8203">equalsToID(id: string) : boolean</text><ellipse cx="525.5" cy="252.1406" fill="#84BE84" rx="3" ry="3" style="stroke:#038048;stroke-width:1.0;"/><text fill="#000000" font-family="sans-serif" font-size="11" lengthAdjust="spacing" textLength="335" x="534.5" y="255.7754">registerCallback(eventName: string, callback: OSGeneric) : void</text><!--MD5=[4509948626e047dc796ea027ffd7e32e]
reverse link AbstractPattern<GalleryConfig> to Gallery--><path codeLine="53" d="M362.31,370.49 C371.21,384.75 380.1,398.99 388.79,412.91 " fill="none" id="AbstractPattern&lt;GalleryConfig&gt;-backto-Gallery" style="stroke:#272B30;stroke-width:1.0;"/><polygon fill="none" points="356.12,373.8,351.47,353.13,368,366.39,356.12,373.8" style="stroke:#272B30;stroke-width:1.0;"/><!--MD5=[8c6f6f9957883f65853670b58b80f711]
reverse link IGallery to Gallery--><path codeLine="65" d="M654.33,279.78 C628.97,320.39 599.09,368.26 571.28,412.79 " fill="none" id="IGallery-backto-Gallery" style="stroke:#272B30;stroke-width:1.0;stroke-dasharray:7.0,7.0;"/><polygon fill="none" points="648.55,275.81,665.08,262.55,660.43,283.23,648.55,275.81" style="stroke:#272B30;stroke-width:1.0;"/><!--MD5=[d0488ef628296128005ea614b35a8f60]
@startuml
skinparam ClassArrowColor #272b30
skinparam ClassBorderColor #272b30
skinparam ClassBackgroundColor #fff
skinparam BackgroundColor #ced4da
hide empty methods
hide empty fields
class "Gallery" {
    #isProviderBased : boolean
    +build() : void
    +changeProperty(propertyName: string, propertyValue: unknown) : void
    +dispose() : void
    +equalsToID(patternId: string) : boolean
    +registerCallback(eventName: string, callback: OSGeneric) : void
    #finishBuild() : void
    #setA11YProperties() : void
    #setCallbacks() : void
    #setHtmlElements() : void
    #triggerPlatformEventCallback(platFormCallback: OSGeneric, args: unknown[]) : void
    #triggerPlatformInitializedEventCallback() : void
    #unsetCallbacks() : void
    #unsetGlobalCallbacks() : void
    #unsetHtmlElements() : void
    -_setItemsGap() : void
    -_setRowItemsDesktop() : void
    -_setRowItemsPhone() : void
    -_setRowItemsTablet() : void
}
abstract class "AbstractPattern<GalleryConfig>" {
    #isProviderBased : boolean
    -_configs : GalleryConfig
    -_isBuilt : boolean
    -_platformEventInitialized : OSGeneric
    -_selfElem : HTMLElement
    -_uniqueId : string
    -_widgetId : string
    +build() : void
    +changeProperty(propertyName: string, propertyValue: unknown) : void
    +dispose() : void
    +equalsToID(patternId: string) : boolean
    +registerCallback(eventName: string, callback: OSGeneric) : void
    #finishBuild() : void
    {abstract} #setA11YProperties() : void
    {abstract} #setCallbacks() : void
    {abstract} #setHtmlElements() : void
    #triggerPlatformEventCallback(platFormCallback: OSGeneric, args: unknown[]) : void
    #triggerPlatformInitializedEventCallback() : void
    {abstract} #unsetCallbacks() : void
    #unsetGlobalCallbacks() : void
    {abstract} #unsetHtmlElements() : void
    -_setCommonHtmlElements() : void
    -_unsetCommonHtmlElements() : void
}
"AbstractPattern<GalleryConfig>" <|- - "Gallery"
interface "IGallery" {
    +isBuilt : boolean
    +selfElement : HTMLElement
    +uniqueId : string
    +widgetId : string
    +build() : void
    +changeProperty(propertyName: string, propertyValue: unknown) : void
    +dispose() : void
    +equalsToID(id: string) : boolean
    +registerCallback(eventName: string, callback: OSGeneric) : void
}
"IGallery" <|.. "Gallery"
@enduml

PlantUML version 1.2021.14(Fri Nov 12 16:46:50 WET 2021)
(GPL source distribution)
Java Runtime: Java(TM) SE Runtime Environment
JVM: Java HotSpot(TM) 64-Bit Server VM
Default Encoding: UTF-8
Language: en
Country: PT
--></g></svg>