<?xml version="1.0" encoding="us-ascii" standalone="no"?><svg xmlns="http://www.w3.org/2000/svg" xmlns:xlink="http://www.w3.org/1999/xlink" contentStyleType="text/css" height="1069px" preserveAspectRatio="none" style="width:759px;height:1069px;background:#CED4DA;" version="1.1" viewBox="0 0 759 1069" width="759px" zoomAndPan="magnify"><defs/><g><rect fill="#CED4DA" height="1069" style="stroke:none;stroke-width:1.0;" width="759" x="0" y="0"/><!--class IAnimatedLabel--><g id="elem_IAnimatedLabel"><rect codeLine="7" fill="#FFFFFF" height="212.8828" id="IAnimatedLabel" rx="2.5" ry="2.5" style="stroke:#272B30;stroke-width:0.5;" width="508" x="200" y="263"/><ellipse cx="396.75" cy="279" fill="#B4A7E5" rx="11" ry="11" style="stroke:#181818;stroke-width:1.0;"/><path d="M393.1777,275.2651 L393.1777,273.1069 L400.5571,273.1069 L400.5571,275.2651 L398.0918,275.2651 L398.0918,283.3418 L400.5571,283.3418 L400.5571,285.5 L393.1777,285.5 L393.1777,283.3418 L395.6431,283.3418 L395.6431,275.2651 Z " fill="#000000"/><text fill="#000000" font-family="sans-serif" font-size="14" font-style="italic" lengthAdjust="spacing" textLength="106" x="417.25" y="284.291">IAnimatedLabel</text><line style="stroke:#272B30;stroke-width:0.5;" x1="201" x2="707" y1="295" y2="295"/><ellipse cx="211" cy="308.7441" fill="none" rx="3" ry="3" style="stroke:#038048;stroke-width:1.0;"/><text fill="#000000" font-family="sans-serif" font-size="14" lengthAdjust="spacing" textLength="109" x="220" y="312.5352">isBuilt : boolean</text><ellipse cx="211" cy="325.2324" fill="none" rx="3" ry="3" style="stroke:#038048;stroke-width:1.0;"/><text fill="#000000" font-family="sans-serif" font-size="14" lengthAdjust="spacing" textLength="184" x="220" y="329.0234">selfElement : HTMLElement</text><ellipse cx="211" cy="341.7207" fill="none" rx="3" ry="3" style="stroke:#038048;stroke-width:1.0;"/><text fill="#000000" font-family="sans-serif" font-size="14" lengthAdjust="spacing" textLength="113" x="220" y="345.5117">uniqueId : string</text><ellipse cx="211" cy="358.209" fill="none" rx="3" ry="3" style="stroke:#038048;stroke-width:1.0;"/><text fill="#000000" font-family="sans-serif" font-size="14" lengthAdjust="spacing" textLength="111" x="220" y="362">widgetId : string</text><line style="stroke:#272B30;stroke-width:0.5;" x1="201" x2="707" y1="368.9531" y2="368.9531"/><ellipse cx="211" cy="382.6973" fill="#84BE84" rx="3" ry="3" style="stroke:#038048;stroke-width:1.0;"/><text fill="#000000" font-family="sans-serif" font-size="14" lengthAdjust="spacing" textLength="86" x="220" y="386.4883">build() : void</text><ellipse cx="211" cy="399.1855" fill="#84BE84" rx="3" ry="3" style="stroke:#038048;stroke-width:1.0;"/><text fill="#000000" font-family="sans-serif" font-size="14" lengthAdjust="spacing" textLength="482" x="220" y="402.9766">changeProperty(propertyName: string, propertyValue: unknown) : void</text><ellipse cx="211" cy="415.6738" fill="#84BE84" rx="3" ry="3" style="stroke:#038048;stroke-width:1.0;"/><text fill="#000000" font-family="sans-serif" font-size="14" lengthAdjust="spacing" textLength="104" x="220" y="419.4648">dispose() : void</text><ellipse cx="211" cy="432.1621" fill="#84BE84" rx="3" ry="3" style="stroke:#038048;stroke-width:1.0;"/><text fill="#000000" font-family="sans-serif" font-size="14" lengthAdjust="spacing" textLength="216" x="220" y="435.9531">equalsToID(id: string) : boolean</text><ellipse cx="211" cy="448.6504" fill="#84BE84" rx="3" ry="3" style="stroke:#038048;stroke-width:1.0;"/><text fill="#000000" font-family="sans-serif" font-size="14" lengthAdjust="spacing" textLength="428" x="220" y="452.4414">registerCallback(eventName: string, callback: OSGeneric) : void</text><ellipse cx="211" cy="465.1387" fill="#84BE84" rx="3" ry="3" style="stroke:#038048;stroke-width:1.0;"/><text fill="#000000" font-family="sans-serif" font-size="14" lengthAdjust="spacing" textLength="168" x="220" y="468.9297">updateOnRender() : void</text></g><!--class IPattern--><g id="elem_IPattern"><rect codeLine="19" fill="#FFFFFF" height="196.3945" id="IPattern" rx="2.5" ry="2.5" style="stroke:#272B30;stroke-width:0.5;" width="508" x="7" y="7"/><ellipse cx="230.25" cy="23" fill="#B4A7E5" rx="11" ry="11" style="stroke:#181818;stroke-width:1.0;"/><path d="M226.6777,19.2651 L226.6777,17.1069 L234.0571,17.1069 L234.0571,19.2651 L231.5918,19.2651 L231.5918,27.3418 L234.0571,27.3418 L234.0571,29.5 L226.6777,29.5 L226.6777,27.3418 L229.1431,27.3418 L229.1431,19.2651 Z " fill="#000000"/><text fill="#000000" font-family="sans-serif" font-size="14" font-style="italic" lengthAdjust="spacing" textLength="53" x="250.75" y="28.291">IPattern</text><line style="stroke:#272B30;stroke-width:0.5;" x1="8" x2="514" y1="39" y2="39"/><ellipse cx="18" cy="52.7441" fill="none" rx="3" ry="3" style="stroke:#038048;stroke-width:1.0;"/><text fill="#000000" font-family="sans-serif" font-size="14" lengthAdjust="spacing" textLength="109" x="27" y="56.5352">isBuilt : boolean</text><ellipse cx="18" cy="69.2324" fill="none" rx="3" ry="3" style="stroke:#038048;stroke-width:1.0;"/><text fill="#000000" font-family="sans-serif" font-size="14" lengthAdjust="spacing" textLength="184" x="27" y="73.0234">selfElement : HTMLElement</text><ellipse cx="18" cy="85.7207" fill="none" rx="3" ry="3" style="stroke:#038048;stroke-width:1.0;"/><text fill="#000000" font-family="sans-serif" font-size="14" lengthAdjust="spacing" textLength="113" x="27" y="89.5117">uniqueId : string</text><ellipse cx="18" cy="102.209" fill="none" rx="3" ry="3" style="stroke:#038048;stroke-width:1.0;"/><text fill="#000000" font-family="sans-serif" font-size="14" lengthAdjust="spacing" textLength="111" x="27" y="106">widgetId : string</text><line style="stroke:#272B30;stroke-width:0.5;" x1="8" x2="514" y1="112.9531" y2="112.9531"/><ellipse cx="18" cy="126.6973" fill="#84BE84" rx="3" ry="3" style="stroke:#038048;stroke-width:1.0;"/><text fill="#000000" font-family="sans-serif" font-size="14" lengthAdjust="spacing" textLength="86" x="27" y="130.4883">build() : void</text><ellipse cx="18" cy="143.1855" fill="#84BE84" rx="3" ry="3" style="stroke:#038048;stroke-width:1.0;"/><text fill="#000000" font-family="sans-serif" font-size="14" lengthAdjust="spacing" textLength="482" x="27" y="146.9766">changeProperty(propertyName: string, propertyValue: unknown) : void</text><ellipse cx="18" cy="159.6738" fill="#84BE84" rx="3" ry="3" style="stroke:#038048;stroke-width:1.0;"/><text fill="#000000" font-family="sans-serif" font-size="14" lengthAdjust="spacing" textLength="104" x="27" y="163.4648">dispose() : void</text><ellipse cx="18" cy="176.1621" fill="#84BE84" rx="3" ry="3" style="stroke:#038048;stroke-width:1.0;"/><text fill="#000000" font-family="sans-serif" font-size="14" lengthAdjust="spacing" textLength="216" x="27" y="179.9531">equalsToID(id: string) : boolean</text><ellipse cx="18" cy="192.6504" fill="#84BE84" rx="3" ry="3" style="stroke:#038048;stroke-width:1.0;"/><text fill="#000000" font-family="sans-serif" font-size="14" lengthAdjust="spacing" textLength="428" x="27" y="196.4414">registerCallback(eventName: string, callback: OSGeneric) : void</text></g><!--class IRenderUpdate--><g id="elem_IRenderUpdate"><rect codeLine="31" fill="#FFFFFF" height="56.4883" id="IRenderUpdate" rx="2.5" ry="2.5" style="stroke:#272B30;stroke-width:0.5;" width="194" x="550" y="77"/><ellipse cx="592" cy="93" fill="#B4A7E5" rx="11" ry="11" style="stroke:#181818;stroke-width:1.0;"/><path d="M588.4277,89.2651 L588.4277,87.1069 L595.8071,87.1069 L595.8071,89.2651 L593.3418,89.2651 L593.3418,97.3418 L595.8071,97.3418 L595.8071,99.5 L588.4277,99.5 L588.4277,97.3418 L590.8931,97.3418 L590.8931,89.2651 Z " fill="#000000"/><text fill="#000000" font-family="sans-serif" font-size="14" font-style="italic" lengthAdjust="spacing" textLength="102" x="612" y="98.291">IRenderUpdate</text><line style="stroke:#272B30;stroke-width:0.5;" x1="551" x2="743" y1="109" y2="109"/><ellipse cx="561" cy="122.7441" fill="#84BE84" rx="3" ry="3" style="stroke:#038048;stroke-width:1.0;"/><text fill="#000000" font-family="sans-serif" font-size="14" lengthAdjust="spacing" textLength="168" x="570" y="126.5352">updateOnRender() : void</text></g><!--class AnimatedLabel--><g id="elem_AnimatedLabel"><rect codeLine="35" fill="#FFFFFF" height="526.1602" id="AnimatedLabel" rx="2.5" ry="2.5" style="stroke:#272B30;stroke-width:0.5;" width="596" x="156" y="536"/><ellipse cx="398.75" cy="552" fill="#ADD1B2" rx="11" ry="11" style="stroke:#181818;stroke-width:1.0;"/><path d="M401.2231,558.1431 Q400.6421,558.4419 400.0029,558.5913 Q399.3638,558.7407 398.6582,558.7407 Q396.1514,558.7407 394.8315,557.0889 Q393.5117,555.437 393.5117,552.3159 Q393.5117,549.1865 394.8315,547.5347 Q396.1514,545.8828 398.6582,545.8828 Q399.3638,545.8828 400.0112,546.0322 Q400.6587,546.1816 401.2231,546.4805 L401.2231,549.2031 Q400.5923,548.6221 399.9988,548.3523 Q399.4053,548.0825 398.7744,548.0825 Q397.4297,548.0825 396.7449,549.1492 Q396.0601,550.2158 396.0601,552.3159 Q396.0601,554.4077 396.7449,555.4744 Q397.4297,556.541 398.7744,556.541 Q399.4053,556.541 399.9988,556.2712 Q400.5923,556.0015 401.2231,555.4204 Z " fill="#000000"/><text fill="#000000" font-family="sans-serif" font-size="14" lengthAdjust="spacing" textLength="102" x="419.25" y="557.291">AnimatedLabel</text><line style="stroke:#272B30;stroke-width:0.5;" x1="157" x2="751" y1="568" y2="568"/><polygon fill="none" points="167,576.7441,171,580.7441,167,584.7441,163,580.7441" style="stroke:#B38D22;stroke-width:1.0;"/><text fill="#000000" font-family="sans-serif" font-size="14" lengthAdjust="spacing" textLength="176" x="176" y="585.5352">isProviderBased : boolean</text><rect fill="none" height="6" style="stroke:#C82930;stroke-width:1.0;" width="6" x="164" y="595.2324"/><text fill="#000000" font-family="sans-serif" font-size="14" lengthAdjust="spacing" textLength="211" x="176" y="602.0234">_eventAnimationStart : Generic</text><rect fill="none" height="6" style="stroke:#C82930;stroke-width:1.0;" width="6" x="164" y="611.7207"/><text fill="#000000" font-family="sans-serif" font-size="14" lengthAdjust="spacing" textLength="135" x="176" y="618.5117">_eventBlur : Generic</text><rect fill="none" height="6" style="stroke:#C82930;stroke-width:1.0;" width="6" x="164" y="628.209"/><text fill="#000000" font-family="sans-serif" font-size="14" lengthAdjust="spacing" textLength="148" x="176" y="635">_eventFocus : Generic</text><rect fill="none" height="6" style="stroke:#C82930;stroke-width:1.0;" width="6" x="164" y="644.6973"/><text fill="#000000" font-family="sans-serif" font-size="14" lengthAdjust="spacing" textLength="408" x="176" y="651.4883">_inputElement : HTMLInputElement | HTMLTextAreaElement</text><rect fill="none" height="6" style="stroke:#C82930;stroke-width:1.0;" width="6" x="164" y="661.1855"/><text fill="#000000" font-family="sans-serif" font-size="14" lengthAdjust="spacing" textLength="220" x="176" y="667.9766">_inputPhElement : HTMLElement</text><rect fill="none" height="6" style="stroke:#C82930;stroke-width:1.0;" width="6" x="164" y="677.6738"/><text fill="#000000" font-family="sans-serif" font-size="14" lengthAdjust="spacing" textLength="162" x="176" y="684.4648">_isLabelFocus : boolean</text><rect fill="none" height="6" style="stroke:#C82930;stroke-width:1.0;" width="6" x="164" y="694.1621"/><text fill="#000000" font-family="sans-serif" font-size="14" lengthAdjust="spacing" textLength="217" x="176" y="700.9531">_labelPhElement : HTMLElement</text><line style="stroke:#272B30;stroke-width:0.5;" x1="157" x2="751" y1="707.9063" y2="707.9063"/><ellipse cx="167" cy="721.6504" fill="#84BE84" rx="3" ry="3" style="stroke:#038048;stroke-width:1.0;"/><text fill="#000000" font-family="sans-serif" font-size="14" lengthAdjust="spacing" textLength="86" x="176" y="725.4414">build() : void</text><ellipse cx="167" cy="738.1387" fill="#84BE84" rx="3" ry="3" style="stroke:#038048;stroke-width:1.0;"/><text fill="#000000" font-family="sans-serif" font-size="14" lengthAdjust="spacing" textLength="482" x="176" y="741.9297">changeProperty(propertyName: string, propertyValue: unknown) : void</text><ellipse cx="167" cy="754.627" fill="#84BE84" rx="3" ry="3" style="stroke:#038048;stroke-width:1.0;"/><text fill="#000000" font-family="sans-serif" font-size="14" lengthAdjust="spacing" textLength="104" x="176" y="758.418">dispose() : void</text><ellipse cx="167" cy="771.1152" fill="#84BE84" rx="3" ry="3" style="stroke:#038048;stroke-width:1.0;"/><text fill="#000000" font-family="sans-serif" font-size="14" lengthAdjust="spacing" textLength="266" x="176" y="774.9063">equalsToID(patternId: string) : boolean</text><ellipse cx="167" cy="787.6035" fill="#84BE84" rx="3" ry="3" style="stroke:#038048;stroke-width:1.0;"/><text fill="#000000" font-family="sans-serif" font-size="14" lengthAdjust="spacing" textLength="428" x="176" y="791.3945">registerCallback(eventName: string, callback: OSGeneric) : void</text><ellipse cx="167" cy="804.0918" fill="#84BE84" rx="3" ry="3" style="stroke:#038048;stroke-width:1.0;"/><text fill="#000000" font-family="sans-serif" font-size="14" lengthAdjust="spacing" textLength="168" x="176" y="807.8828">updateOnRender() : void</text><polygon fill="#FFFF44" points="167,815.5801,171,819.5801,167,823.5801,163,819.5801" style="stroke:#B38D22;stroke-width:1.0;"/><text fill="#000000" font-family="sans-serif" font-size="14" lengthAdjust="spacing" textLength="123" x="176" y="824.3711">finishBuild() : void</text><polygon fill="#FFFF44" points="167,832.0684,171,836.0684,167,840.0684,163,836.0684" style="stroke:#B38D22;stroke-width:1.0;"/><text fill="#000000" font-family="sans-serif" font-size="14" lengthAdjust="spacing" textLength="178" x="176" y="840.8594">setA11YProperties() : void</text><polygon fill="#FFFF44" points="167,848.5566,171,852.5566,167,856.5566,163,852.5566" style="stroke:#B38D22;stroke-width:1.0;"/><text fill="#000000" font-family="sans-serif" font-size="14" lengthAdjust="spacing" textLength="136" x="176" y="857.3477">setCallbacks() : void</text><polygon fill="#FFFF44" points="167,865.0449,171,869.0449,167,873.0449,163,869.0449" style="stroke:#B38D22;stroke-width:1.0;"/><text fill="#000000" font-family="sans-serif" font-size="14" lengthAdjust="spacing" textLength="165" x="176" y="873.8359">setHtmlElements() : void</text><polygon fill="#FFFF44" points="167,881.5332,171,885.5332,167,889.5332,163,885.5332" style="stroke:#B38D22;stroke-width:1.0;"/><text fill="#000000" font-family="sans-serif" font-size="14" lengthAdjust="spacing" textLength="570" x="176" y="890.3242">triggerPlatformEventCallback(platFormCallback: OSGeneric, args: unknown[]) : void</text><polygon fill="#FFFF44" points="167,898.0215,171,902.0215,167,906.0215,163,902.0215" style="stroke:#B38D22;stroke-width:1.0;"/><text fill="#000000" font-family="sans-serif" font-size="14" lengthAdjust="spacing" textLength="318" x="176" y="906.8125">triggerPlatformInitializedEventCallback() : void</text><polygon fill="#FFFF44" points="167,914.5098,171,918.5098,167,922.5098,163,918.5098" style="stroke:#B38D22;stroke-width:1.0;"/><text fill="#000000" font-family="sans-serif" font-size="14" lengthAdjust="spacing" textLength="154" x="176" y="923.3008">unsetCallbacks() : void</text><polygon fill="#FFFF44" points="167,930.998,171,934.998,167,938.998,163,934.998" style="stroke:#B38D22;stroke-width:1.0;"/><text fill="#000000" font-family="sans-serif" font-size="14" lengthAdjust="spacing" textLength="198" x="176" y="939.7891">unsetGlobalCallbacks() : void</text><polygon fill="#FFFF44" points="167,947.4863,171,951.4863,167,955.4863,163,951.4863" style="stroke:#B38D22;stroke-width:1.0;"/><text fill="#000000" font-family="sans-serif" font-size="14" lengthAdjust="spacing" textLength="183" x="176" y="956.2773">unsetHtmlElements() : void</text><rect fill="#F24D5C" height="6" style="stroke:#C82930;stroke-width:1.0;" width="6" x="164" y="965.9746"/><text fill="#000000" font-family="sans-serif" font-size="14" lengthAdjust="spacing" textLength="128" x="176" y="972.7656">_addEvents() : void</text><rect fill="#F24D5C" height="6" style="stroke:#C82930;stroke-width:1.0;" width="6" x="164" y="982.4629"/><text fill="#000000" font-family="sans-serif" font-size="14" lengthAdjust="spacing" textLength="379" x="176" y="989.2539">_inputAnimationStartCallback(e: AnimationEvent) : void</text><rect fill="#F24D5C" height="6" style="stroke:#C82930;stroke-width:1.0;" width="6" x="164" y="998.9512"/><text fill="#000000" font-family="sans-serif" font-size="14" lengthAdjust="spacing" textLength="258" x="176" y="1005.7422">_inputBlurCallback(evt: UIEvent) : void</text><rect fill="#F24D5C" height="6" style="stroke:#C82930;stroke-width:1.0;" width="6" x="164" y="1015.4395"/><text fill="#000000" font-family="sans-serif" font-size="14" lengthAdjust="spacing" textLength="271" x="176" y="1022.2305">_inputFocusCallback(evt: UIEvent) : void</text><rect fill="#F24D5C" height="6" style="stroke:#C82930;stroke-width:1.0;" width="6" x="164" y="1031.9277"/><text fill="#000000" font-family="sans-serif" font-size="14" lengthAdjust="spacing" textLength="291" x="176" y="1038.7188">_inputStateToggle(isFocus: boolean) : void</text><rect fill="#F24D5C" height="6" style="stroke:#C82930;stroke-width:1.0;" width="6" x="164" y="1048.416"/><text fill="#000000" font-family="sans-serif" font-size="14" lengthAdjust="spacing" textLength="153" x="176" y="1055.207">_removeEvents() : void</text></g><!--reverse link IPattern to IAnimatedLabel--><g id="link_IPattern_IAnimatedLabel"><path codeLine="30" d="M344.44,219.49 C355.04,233.91 365.86,248.62 376.37,262.91 " fill="none" id="IPattern-backto-IAnimatedLabel" style="stroke:#272B30;stroke-width:1.0;"/><polygon fill="none" points="338.8,223.63,332.59,203.37,350.08,215.34,338.8,223.63" style="stroke:#272B30;stroke-width:1.0;"/></g><!--reverse link IRenderUpdate to IAnimatedLabel--><g id="link_IRenderUpdate_IAnimatedLabel"><path codeLine="34" d="M615.13,149.35 C592.42,180.23 560.89,223.12 531.73,262.78 " fill="none" id="IRenderUpdate-backto-IAnimatedLabel" style="stroke:#272B30;stroke-width:1.0;"/><polygon fill="none" points="609.59,145.07,627.07,133.1,620.86,153.36,609.59,145.07" style="stroke:#272B30;stroke-width:1.0;"/></g><!--reverse link IAnimatedLabel to AnimatedLabel--><g id="link_IAnimatedLabel_AnimatedLabel"><path codeLine="66" d="M454,496.38 C454,509.1 454,522.32 454,535.81 " fill="none" id="IAnimatedLabel-backto-AnimatedLabel" style="stroke:#272B30;stroke-width:1.0;stroke-dasharray:7.0,7.0;"/><polygon fill="none" points="447,496.17,454,476.17,461,496.17,447,496.17" style="stroke:#272B30;stroke-width:1.0;"/></g><!--SRC=[xLHDRnen4BtpAoou43L4JLgf4ie5Q3vMIXlKa4fLLKNUzUmomcjl_05DI_vxlH-GzIwW7YhbKaxiUpCUlpSprWiK6LKq9HDEjHuf9LSJoQKYlRCFP-6xjntjHuobOg0EXz1eaIXf1Ql2uZYknRJe2DXxHZjpP40WpSmJIS7C9TDrA4RW3a5XGCKq0j8DHW9JQe3Tq11ub_pk4FTxWtfiaHio9A6K7AWeOGqylk2GWiYfwzcdc-ghfAt0Hmi1Svms2aLImYja2PWM7BeAh7_aqAL4LcBHd8e4fafceCnJFwl-VAOfR9AFoGRzIhbri1KB8LV2FuYXpgI6nl7mQ2dNCnbyx2FR77ZKLAaWGUqScb3EG-Tp7vPEed-7gEA6vFRk2WGeZFnIDcFErbln1OHhzSizdZttfzIu3_7Vzt_X-tEdPkZvUZ1eZRVdVTcP-w9FsmRiRripONU1ADzTqjsvLJtKpk6bMqSrfXfOG__WeT1Rfg8KTuQglDsLp7hCc5krcxcKaTKjohqQrlW35DIXTG7DuASPAQ3rsQfof_Fzu-T2TA5pKziNnNFgKFuh3sHMJapmIkz1CHWn2jJpSTk7dWOpEZtzLXc1eDlyvbexg6kJyihg9klkdIIWffoQMAhq8fUq5PWvzDAXaxQgOq9LehTcV_znyDX0e47AyHSmluAVPSK17GLvnML8-S6G_M873vILzLj4CTt-ohsqUKYsJ96zApTVnTfWc26v3_O65nlorz7kDWPcCaauz54NkTl9RCGhIEKIcXBpHwln4fslJqwQpzCV]--></g></svg>