<?xml version="1.0" encoding="us-ascii" standalone="no"?><svg xmlns="http://www.w3.org/2000/svg" xmlns:xlink="http://www.w3.org/1999/xlink" contentStyleType="text/css" height="1060px" preserveAspectRatio="none" style="width:760px;height:1060px;background:#CED4DA;" version="1.1" viewBox="0 0 760 1060" width="760px" zoomAndPan="magnify"><defs/><g><rect fill="#CED4DA" height="1060" style="stroke:none;stroke-width:1.0;" width="760" x="0" y="0"/><!--class IAnimatedLabel--><g id="elem_IAnimatedLabel"><rect codeLine="7" fill="#FFFFFF" height="210.9688" id="IAnimatedLabel" rx="2.5" ry="2.5" style="stroke:#272B30;stroke-width:0.5;" width="510" x="201" y="262"/><ellipse cx="398.25" cy="278" fill="#B4A7E5" rx="11" ry="11" style="stroke:#181818;stroke-width:1.0;"/><path d="M394.1719,273.7656 L394.1719,271.6094 L401.5625,271.6094 L401.5625,273.7656 L399.0938,273.7656 L399.0938,281.8438 L401.5625,281.8438 L401.5625,284 L394.1719,284 L394.1719,281.8438 L396.6406,281.8438 L396.6406,273.7656 L394.1719,273.7656 Z " fill="#000000"/><text fill="#000000" font-family="sans-serif" font-size="14" font-style="italic" lengthAdjust="spacing" textLength="107" x="418.75" y="282.8467">IAnimatedLabel</text><line style="stroke:#272B30;stroke-width:0.5;" x1="202" x2="710" y1="294" y2="294"/><ellipse cx="212" cy="307.6484" fill="none" rx="3" ry="3" style="stroke:#038048;stroke-width:1.0;"/><text fill="#000000" font-family="sans-serif" font-size="14" lengthAdjust="spacing" textLength="110" x="221" y="310.9951">isBuilt : boolean</text><ellipse cx="212" cy="323.9453" fill="none" rx="3" ry="3" style="stroke:#038048;stroke-width:1.0;"/><text fill="#000000" font-family="sans-serif" font-size="14" lengthAdjust="spacing" textLength="189" x="221" y="327.292">selfElement : HTMLElement</text><ellipse cx="212" cy="340.2422" fill="none" rx="3" ry="3" style="stroke:#038048;stroke-width:1.0;"/><text fill="#000000" font-family="sans-serif" font-size="14" lengthAdjust="spacing" textLength="112" x="221" y="343.5889">uniqueId : string</text><ellipse cx="212" cy="356.5391" fill="none" rx="3" ry="3" style="stroke:#038048;stroke-width:1.0;"/><text fill="#000000" font-family="sans-serif" font-size="14" lengthAdjust="spacing" textLength="110" x="221" y="359.8857">widgetId : string</text><line style="stroke:#272B30;stroke-width:0.5;" x1="202" x2="710" y1="367.1875" y2="367.1875"/><ellipse cx="212" cy="380.8359" fill="#84BE84" rx="3" ry="3" style="stroke:#038048;stroke-width:1.0;"/><text fill="#000000" font-family="sans-serif" font-size="14" lengthAdjust="spacing" textLength="84" x="221" y="384.1826">build() : void</text><ellipse cx="212" cy="397.1328" fill="#84BE84" rx="3" ry="3" style="stroke:#038048;stroke-width:1.0;"/><text fill="#000000" font-family="sans-serif" font-size="14" lengthAdjust="spacing" textLength="484" x="221" y="400.4795">changeProperty(propertyName: string, propertyValue: unknown) : void</text><ellipse cx="212" cy="413.4297" fill="#84BE84" rx="3" ry="3" style="stroke:#038048;stroke-width:1.0;"/><text fill="#000000" font-family="sans-serif" font-size="14" lengthAdjust="spacing" textLength="106" x="221" y="416.7764">dispose() : void</text><ellipse cx="212" cy="429.7266" fill="#84BE84" rx="3" ry="3" style="stroke:#038048;stroke-width:1.0;"/><text fill="#000000" font-family="sans-serif" font-size="14" lengthAdjust="spacing" textLength="217" x="221" y="433.0732">equalsToID(id: string) : boolean</text><ellipse cx="212" cy="446.0234" fill="#84BE84" rx="3" ry="3" style="stroke:#038048;stroke-width:1.0;"/><text fill="#000000" font-family="sans-serif" font-size="14" lengthAdjust="spacing" textLength="434" x="221" y="449.3701">registerCallback(eventName: string, callback: OSGeneric) : void</text><ellipse cx="212" cy="462.3203" fill="#84BE84" rx="3" ry="3" style="stroke:#038048;stroke-width:1.0;"/><text fill="#000000" font-family="sans-serif" font-size="14" lengthAdjust="spacing" textLength="171" x="221" y="465.667">updateOnRender() : void</text></g><!--class IPattern--><g id="elem_IPattern"><rect codeLine="19" fill="#FFFFFF" height="194.6719" id="IPattern" rx="2.5" ry="2.5" style="stroke:#272B30;stroke-width:0.5;" width="510" x="7" y="7"/><ellipse cx="231.25" cy="23" fill="#B4A7E5" rx="11" ry="11" style="stroke:#181818;stroke-width:1.0;"/><path d="M227.1719,18.7656 L227.1719,16.6094 L234.5625,16.6094 L234.5625,18.7656 L232.0938,18.7656 L232.0938,26.8438 L234.5625,26.8438 L234.5625,29 L227.1719,29 L227.1719,26.8438 L229.6406,26.8438 L229.6406,18.7656 L227.1719,18.7656 Z " fill="#000000"/><text fill="#000000" font-family="sans-serif" font-size="14" font-style="italic" lengthAdjust="spacing" textLength="53" x="251.75" y="27.8467">IPattern</text><line style="stroke:#272B30;stroke-width:0.5;" x1="8" x2="516" y1="39" y2="39"/><ellipse cx="18" cy="52.6484" fill="none" rx="3" ry="3" style="stroke:#038048;stroke-width:1.0;"/><text fill="#000000" font-family="sans-serif" font-size="14" lengthAdjust="spacing" textLength="110" x="27" y="55.9951">isBuilt : boolean</text><ellipse cx="18" cy="68.9453" fill="none" rx="3" ry="3" style="stroke:#038048;stroke-width:1.0;"/><text fill="#000000" font-family="sans-serif" font-size="14" lengthAdjust="spacing" textLength="189" x="27" y="72.292">selfElement : HTMLElement</text><ellipse cx="18" cy="85.2422" fill="none" rx="3" ry="3" style="stroke:#038048;stroke-width:1.0;"/><text fill="#000000" font-family="sans-serif" font-size="14" lengthAdjust="spacing" textLength="112" x="27" y="88.5889">uniqueId : string</text><ellipse cx="18" cy="101.5391" fill="none" rx="3" ry="3" style="stroke:#038048;stroke-width:1.0;"/><text fill="#000000" font-family="sans-serif" font-size="14" lengthAdjust="spacing" textLength="110" x="27" y="104.8857">widgetId : string</text><line style="stroke:#272B30;stroke-width:0.5;" x1="8" x2="516" y1="112.1875" y2="112.1875"/><ellipse cx="18" cy="125.8359" fill="#84BE84" rx="3" ry="3" style="stroke:#038048;stroke-width:1.0;"/><text fill="#000000" font-family="sans-serif" font-size="14" lengthAdjust="spacing" textLength="84" x="27" y="129.1826">build() : void</text><ellipse cx="18" cy="142.1328" fill="#84BE84" rx="3" ry="3" style="stroke:#038048;stroke-width:1.0;"/><text fill="#000000" font-family="sans-serif" font-size="14" lengthAdjust="spacing" textLength="484" x="27" y="145.4795">changeProperty(propertyName: string, propertyValue: unknown) : void</text><ellipse cx="18" cy="158.4297" fill="#84BE84" rx="3" ry="3" style="stroke:#038048;stroke-width:1.0;"/><text fill="#000000" font-family="sans-serif" font-size="14" lengthAdjust="spacing" textLength="106" x="27" y="161.7764">dispose() : void</text><ellipse cx="18" cy="174.7266" fill="#84BE84" rx="3" ry="3" style="stroke:#038048;stroke-width:1.0;"/><text fill="#000000" font-family="sans-serif" font-size="14" lengthAdjust="spacing" textLength="217" x="27" y="178.0732">equalsToID(id: string) : boolean</text><ellipse cx="18" cy="191.0234" fill="#84BE84" rx="3" ry="3" style="stroke:#038048;stroke-width:1.0;"/><text fill="#000000" font-family="sans-serif" font-size="14" lengthAdjust="spacing" textLength="434" x="27" y="194.3701">registerCallback(eventName: string, callback: OSGeneric) : void</text></g><!--class IRenderUpdate--><g id="elem_IRenderUpdate"><rect codeLine="31" fill="#FFFFFF" height="56.2969" id="IRenderUpdate" rx="2.5" ry="2.5" style="stroke:#272B30;stroke-width:0.5;" width="197" x="552.5" y="76.5"/><ellipse cx="594.5" cy="92.5" fill="#B4A7E5" rx="11" ry="11" style="stroke:#181818;stroke-width:1.0;"/><path d="M590.4219,88.2656 L590.4219,86.1094 L597.8125,86.1094 L597.8125,88.2656 L595.3438,88.2656 L595.3438,96.3438 L597.8125,96.3438 L597.8125,98.5 L590.4219,98.5 L590.4219,96.3438 L592.8906,96.3438 L592.8906,88.2656 L590.4219,88.2656 Z " fill="#000000"/><text fill="#000000" font-family="sans-serif" font-size="14" font-style="italic" lengthAdjust="spacing" textLength="105" x="614.5" y="97.3467">IRenderUpdate</text><line style="stroke:#272B30;stroke-width:0.5;" x1="553.5" x2="748.5" y1="108.5" y2="108.5"/><ellipse cx="563.5" cy="122.1484" fill="#84BE84" rx="3" ry="3" style="stroke:#038048;stroke-width:1.0;"/><text fill="#000000" font-family="sans-serif" font-size="14" lengthAdjust="spacing" textLength="171" x="572.5" y="125.4951">updateOnRender() : void</text></g><!--class AnimatedLabel--><g id="elem_AnimatedLabel"><rect codeLine="35" fill="#FFFFFF" height="520.6094" id="AnimatedLabel" rx="2.5" ry="2.5" style="stroke:#272B30;stroke-width:0.5;" width="595" x="158.5" y="533"/><ellipse cx="401.25" cy="549" fill="#ADD1B2" rx="11" ry="11" style="stroke:#181818;stroke-width:1.0;"/><path d="M404.2188,554.6406 Q403.6406,554.9375 403,555.0781 Q402.3594,555.2344 401.6563,555.2344 Q399.1563,555.2344 397.8281,553.5938 Q396.5156,551.9375 396.5156,548.8125 Q396.5156,545.6875 397.8281,544.0313 Q399.1563,542.375 401.6563,542.375 Q402.3594,542.375 403,542.5313 Q403.6563,542.6875 404.2188,542.9844 L404.2188,545.7031 Q403.5938,545.125 403,544.8594 Q402.4063,544.5781 401.7813,544.5781 Q400.4375,544.5781 399.75,545.6563 Q399.0625,546.7188 399.0625,548.8125 Q399.0625,550.9063 399.75,551.9844 Q400.4375,553.0469 401.7813,553.0469 Q402.4063,553.0469 403,552.7813 Q403.5938,552.5 404.2188,551.9219 L404.2188,554.6406 Z " fill="#000000"/><text fill="#000000" font-family="sans-serif" font-size="14" lengthAdjust="spacing" textLength="101" x="421.75" y="553.8467">AnimatedLabel</text><line style="stroke:#272B30;stroke-width:0.5;" x1="159.5" x2="752.5" y1="565" y2="565"/><polygon fill="none" points="169.5,573.6484,173.5,577.6484,169.5,581.6484,165.5,577.6484" style="stroke:#B38D22;stroke-width:1.0;"/><text fill="#000000" font-family="sans-serif" font-size="14" lengthAdjust="spacing" textLength="180" x="178.5" y="581.9951">isProviderBased : boolean</text><rect fill="none" height="6" style="stroke:#C82930;stroke-width:1.0;" width="6" x="166.5" y="591.9453"/><text fill="#000000" font-family="sans-serif" font-size="14" lengthAdjust="spacing" textLength="213" x="178.5" y="598.292">_eventAnimationStart : Generic</text><rect fill="none" height="6" style="stroke:#C82930;stroke-width:1.0;" width="6" x="166.5" y="608.2422"/><text fill="#000000" font-family="sans-serif" font-size="14" lengthAdjust="spacing" textLength="140" x="178.5" y="614.5889">_eventBlur : Generic</text><rect fill="none" height="6" style="stroke:#C82930;stroke-width:1.0;" width="6" x="166.5" y="624.5391"/><text fill="#000000" font-family="sans-serif" font-size="14" lengthAdjust="spacing" textLength="155" x="178.5" y="630.8857">_eventFocus : Generic</text><rect fill="none" height="6" style="stroke:#C82930;stroke-width:1.0;" width="6" x="166.5" y="640.8359"/><text fill="#000000" font-family="sans-serif" font-size="14" lengthAdjust="spacing" textLength="411" x="178.5" y="647.1826">_inputElement : HTMLInputElement | HTMLTextAreaElement</text><rect fill="none" height="6" style="stroke:#C82930;stroke-width:1.0;" width="6" x="166.5" y="657.1328"/><text fill="#000000" font-family="sans-serif" font-size="14" lengthAdjust="spacing" textLength="225" x="178.5" y="663.4795">_inputPhElement : HTMLElement</text><rect fill="none" height="6" style="stroke:#C82930;stroke-width:1.0;" width="6" x="166.5" y="673.4297"/><text fill="#000000" font-family="sans-serif" font-size="14" lengthAdjust="spacing" textLength="165" x="178.5" y="679.7764">_isLabelFocus : boolean</text><rect fill="none" height="6" style="stroke:#C82930;stroke-width:1.0;" width="6" x="166.5" y="689.7266"/><text fill="#000000" font-family="sans-serif" font-size="14" lengthAdjust="spacing" textLength="222" x="178.5" y="696.0732">_labelPhElement : HTMLElement</text><line style="stroke:#272B30;stroke-width:0.5;" x1="159.5" x2="752.5" y1="703.375" y2="703.375"/><ellipse cx="169.5" cy="717.0234" fill="#84BE84" rx="3" ry="3" style="stroke:#038048;stroke-width:1.0;"/><text fill="#000000" font-family="sans-serif" font-size="14" lengthAdjust="spacing" textLength="84" x="178.5" y="720.3701">build() : void</text><ellipse cx="169.5" cy="733.3203" fill="#84BE84" rx="3" ry="3" style="stroke:#038048;stroke-width:1.0;"/><text fill="#000000" font-family="sans-serif" font-size="14" lengthAdjust="spacing" textLength="484" x="178.5" y="736.667">changeProperty(propertyName: string, propertyValue: unknown) : void</text><ellipse cx="169.5" cy="749.6172" fill="#84BE84" rx="3" ry="3" style="stroke:#038048;stroke-width:1.0;"/><text fill="#000000" font-family="sans-serif" font-size="14" lengthAdjust="spacing" textLength="106" x="178.5" y="752.9639">dispose() : void</text><ellipse cx="169.5" cy="765.9141" fill="#84BE84" rx="3" ry="3" style="stroke:#038048;stroke-width:1.0;"/><text fill="#000000" font-family="sans-serif" font-size="14" lengthAdjust="spacing" textLength="267" x="178.5" y="769.2607">equalsToID(patternId: string) : boolean</text><ellipse cx="169.5" cy="782.2109" fill="#84BE84" rx="3" ry="3" style="stroke:#038048;stroke-width:1.0;"/><text fill="#000000" font-family="sans-serif" font-size="14" lengthAdjust="spacing" textLength="434" x="178.5" y="785.5576">registerCallback(eventName: string, callback: OSGeneric) : void</text><ellipse cx="169.5" cy="798.5078" fill="#84BE84" rx="3" ry="3" style="stroke:#038048;stroke-width:1.0;"/><text fill="#000000" font-family="sans-serif" font-size="14" lengthAdjust="spacing" textLength="171" x="178.5" y="801.8545">updateOnRender() : void</text><polygon fill="#FFFF44" points="169.5,809.8047,173.5,813.8047,169.5,817.8047,165.5,813.8047" style="stroke:#B38D22;stroke-width:1.0;"/><text fill="#000000" font-family="sans-serif" font-size="14" lengthAdjust="spacing" textLength="121" x="178.5" y="818.1514">finishBuild() : void</text><polygon fill="#FFFF44" points="169.5,826.1016,173.5,830.1016,169.5,834.1016,165.5,830.1016" style="stroke:#B38D22;stroke-width:1.0;"/><text fill="#000000" font-family="sans-serif" font-size="14" lengthAdjust="spacing" textLength="180" x="178.5" y="834.4482">setA11YProperties() : void</text><polygon fill="#FFFF44" points="169.5,842.3984,173.5,846.3984,169.5,850.3984,165.5,846.3984" style="stroke:#B38D22;stroke-width:1.0;"/><text fill="#000000" font-family="sans-serif" font-size="14" lengthAdjust="spacing" textLength="138" x="178.5" y="850.7451">setCallbacks() : void</text><polygon fill="#FFFF44" points="169.5,858.6953,173.5,862.6953,169.5,866.6953,165.5,862.6953" style="stroke:#B38D22;stroke-width:1.0;"/><text fill="#000000" font-family="sans-serif" font-size="14" lengthAdjust="spacing" textLength="169" x="178.5" y="867.042">setHtmlElements() : void</text><polygon fill="#FFFF44" points="169.5,874.9922,173.5,878.9922,169.5,882.9922,165.5,878.9922" style="stroke:#B38D22;stroke-width:1.0;"/><text fill="#000000" font-family="sans-serif" font-size="14" lengthAdjust="spacing" textLength="569" x="178.5" y="883.3389">triggerPlatformEventCallback(platFormCallback: OSGeneric, args: unknown[]) : void</text><polygon fill="#FFFF44" points="169.5,891.2891,173.5,895.2891,169.5,899.2891,165.5,895.2891" style="stroke:#B38D22;stroke-width:1.0;"/><text fill="#000000" font-family="sans-serif" font-size="14" lengthAdjust="spacing" textLength="311" x="178.5" y="899.6357">triggerPlatformInitializedEventCallback() : void</text><polygon fill="#FFFF44" points="169.5,907.5859,173.5,911.5859,169.5,915.5859,165.5,911.5859" style="stroke:#B38D22;stroke-width:1.0;"/><text fill="#000000" font-family="sans-serif" font-size="14" lengthAdjust="spacing" textLength="156" x="178.5" y="915.9326">unsetCallbacks() : void</text><polygon fill="#FFFF44" points="169.5,923.8828,173.5,927.8828,169.5,931.8828,165.5,927.8828" style="stroke:#B38D22;stroke-width:1.0;"/><text fill="#000000" font-family="sans-serif" font-size="14" lengthAdjust="spacing" textLength="199" x="178.5" y="932.2295">unsetGlobalCallbacks() : void</text><polygon fill="#FFFF44" points="169.5,940.1797,173.5,944.1797,169.5,948.1797,165.5,944.1797" style="stroke:#B38D22;stroke-width:1.0;"/><text fill="#000000" font-family="sans-serif" font-size="14" lengthAdjust="spacing" textLength="187" x="178.5" y="948.5264">unsetHtmlElements() : void</text><rect fill="#F24D5C" height="6" style="stroke:#C82930;stroke-width:1.0;" width="6" x="166.5" y="958.4766"/><text fill="#000000" font-family="sans-serif" font-size="14" lengthAdjust="spacing" textLength="131" x="178.5" y="964.8232">_addEvents() : void</text><rect fill="#F24D5C" height="6" style="stroke:#C82930;stroke-width:1.0;" width="6" x="166.5" y="974.7734"/><text fill="#000000" font-family="sans-serif" font-size="14" lengthAdjust="spacing" textLength="375" x="178.5" y="981.1201">_inputAnimationStartCallback(e: AnimationEvent) : void</text><rect fill="#F24D5C" height="6" style="stroke:#C82930;stroke-width:1.0;" width="6" x="166.5" y="991.0703"/><text fill="#000000" font-family="sans-serif" font-size="14" lengthAdjust="spacing" textLength="259" x="178.5" y="997.417">_inputBlurCallback(evt: UIEvent) : void</text><rect fill="#F24D5C" height="6" style="stroke:#C82930;stroke-width:1.0;" width="6" x="166.5" y="1007.3672"/><text fill="#000000" font-family="sans-serif" font-size="14" lengthAdjust="spacing" textLength="274" x="178.5" y="1013.7139">_inputFocusCallback(evt: UIEvent) : void</text><rect fill="#F24D5C" height="6" style="stroke:#C82930;stroke-width:1.0;" width="6" x="166.5" y="1023.6641"/><text fill="#000000" font-family="sans-serif" font-size="14" lengthAdjust="spacing" textLength="295" x="178.5" y="1030.0107">_inputStateToggle(isFocus: boolean) : void</text><rect fill="#F24D5C" height="6" style="stroke:#C82930;stroke-width:1.0;" width="6" x="166.5" y="1039.9609"/><text fill="#000000" font-family="sans-serif" font-size="14" lengthAdjust="spacing" textLength="157" x="178.5" y="1046.3076">_removeEvents() : void</text></g><!--reverse link IPattern to IAnimatedLabel--><g id="link_IPattern_IAnimatedLabel"><path codeLine="30" d="M344.6981,216.7662 C359.1481,236.2062 363.66,242.27 378.29,261.96 " fill="none" id="IPattern-backto-IAnimatedLabel" style="stroke:#272B30;stroke-width:1.0;"/><polygon fill="none" points="333.96,202.32,339.8827,220.3456,349.5135,213.1869,333.96,202.32" style="stroke:#272B30;stroke-width:1.0;"/></g><!--reverse link IRenderUpdate to IAnimatedLabel--><g id="link_IRenderUpdate_IAnimatedLabel"><path codeLine="34" d="M619.7256,147.3592 C596.8456,177.9792 569.2,214.98 534.23,261.79 " fill="none" id="IRenderUpdate-backto-IAnimatedLabel" style="stroke:#272B30;stroke-width:1.0;"/><polygon fill="none" points="630.5,132.94,614.9192,143.7677,624.532,150.9506,630.5,132.94" style="stroke:#272B30;stroke-width:1.0;"/></g><!--reverse link IAnimatedLabel to AnimatedLabel--><g id="link_IAnimatedLabel_AnimatedLabel"><path codeLine="66" d="M456,491.04 C456,509.67 456,511.82 456,532.61 " fill="none" id="IAnimatedLabel-backto-AnimatedLabel" style="stroke:#272B30;stroke-width:1.0;stroke-dasharray:7.0,7.0;"/><polygon fill="none" points="456,473.04,450,491.04,462,491.04,456,473.04" style="stroke:#272B30;stroke-width:1.0;"/></g><!--SRC=[xLHDRnen4BtpAoou43L4JLgf4ie5Q3vMIXlKa4fLLKNUzUmomcjl_05DI_vxlH-GzIwW7YhbKaxiUpCUlpSprWiK6LKq9HDEjHuf9LSJoQKYlRCFP-6xjntjHuobOg0EXz1eaIXf1Ql2uZYknRJe2DXxHZjpP40WpSmJIS7C9TDrA4RW3a5XGCKq0j8DHW9JQe3Tq11ub_pk4FTxWtfiaHio9A6K7AWeOGqylk2GWiYfwzcdc-ghfAt0Hmi1Svms2aLImYja2PWM7BeAh7_aqAL4LcBHd8e4fafceCnJFwl-VAOfR9AFoGRzIhbri1KB8LV2FuYXpgI6nl7mQ2dNCnbyx2FR77ZKLAaWGUqScb3EG-Tp7vPEed-7gEA6vFRk2WGeZFnIDcFErbln1OHhzSizdZttfzIu3_7Vzt_X-tEdPkZvUZ1eZRVdVTcP-w9FsmRiRripONU1ADzTqjsvLJtKpk6bMqSrfXfOG__WeT1Rfg8KTuQglDsLp7hCc5krcxcKaTKjohqQrlW35DIXTG7DuASPAQ3rsQfof_Fzu-T2TA5pKziNnNFgKFuh3sHMJapmIkz1CHWn2jJpSTk7dWOpEZtzLXc1eDlyvbexg6kJyihg9klkdIIWffoQMAhq8fUq5PWvzDAXaxQgOq9LehTcV_znyDX0e47AyHSmluAVPSK17GLvnML8-S6G_M873vILzLj4CTt-ohsqUKYsJ96zApTVnTfWc26v3_O65nlorz7kDWPcCaauz54NkTl9RCGhIEKIcXBpHwln4fslJqwQpzCV]--></g></svg>