<?xml version="1.0" encoding="us-ascii" standalone="no"?><svg xmlns="http://www.w3.org/2000/svg" xmlns:xlink="http://www.w3.org/1999/xlink" contentStyleType="text/css" height="920px" preserveAspectRatio="none" style="width:742px;height:920px;background:#CED4DA;" version="1.1" viewBox="0 0 742 920" width="742px" zoomAndPan="magnify"><defs/><g><rect fill="#CED4DA" height="920" style="stroke:none;stroke-width:1.0;" width="742" x="0" y="0"/><!--class IBalloon--><g id="elem_IBalloon"><rect codeLine="7" fill="#FFFFFF" height="146.9297" id="IBalloon" rx="2.5" ry="2.5" style="stroke:#272B30;stroke-width:0.5;" width="567" x="87.5" y="164"/><ellipse cx="339.25" cy="180" fill="#B4A7E5" rx="11" ry="11" style="stroke:#181818;stroke-width:1.0;"/><path d="M335.6777,176.2651 L335.6777,174.1069 L343.0571,174.1069 L343.0571,176.2651 L340.5918,176.2651 L340.5918,184.3418 L343.0571,184.3418 L343.0571,186.5 L335.6777,186.5 L335.6777,184.3418 L338.1431,184.3418 L338.1431,176.2651 Z " fill="#000000"/><text fill="#000000" font-family="sans-serif" font-size="14" font-style="italic" lengthAdjust="spacing" textLength="55" x="359.75" y="185.291">IBalloon</text><line style="stroke:#272B30;stroke-width:0.5;" x1="88.5" x2="653.5" y1="196" y2="196"/><ellipse cx="98.5" cy="209.7441" fill="none" rx="3" ry="3" style="stroke:#038048;stroke-width:1.0;"/><text fill="#000000" font-family="sans-serif" font-size="14" lengthAdjust="spacing" textLength="116" x="107.5" y="213.5352">isOpen : boolean</text><line style="stroke:#272B30;stroke-width:0.5;" x1="88.5" x2="653.5" y1="220.4883" y2="220.4883"/><ellipse cx="98.5" cy="234.2324" fill="#84BE84" rx="3" ry="3" style="stroke:#038048;stroke-width:1.0;"/><text fill="#000000" font-family="sans-serif" font-size="14" lengthAdjust="spacing" textLength="86" x="107.5" y="238.0234">close() : void</text><ellipse cx="98.5" cy="250.7207" fill="#84BE84" rx="3" ry="3" style="stroke:#038048;stroke-width:1.0;"/><text fill="#000000" font-family="sans-serif" font-size="14" lengthAdjust="spacing" textLength="104" x="107.5" y="254.5117">dispose() : void</text><ellipse cx="98.5" cy="267.209" fill="#84BE84" rx="3" ry="3" style="stroke:#038048;stroke-width:1.0;"/><text fill="#000000" font-family="sans-serif" font-size="14" lengthAdjust="spacing" textLength="541" x="107.5" y="271">open(isOpenedByApi: boolean, arrowKeyPressed: ArrowDown | ArrowUp) : void</text><ellipse cx="98.5" cy="283.6973" fill="#84BE84" rx="3" ry="3" style="stroke:#038048;stroke-width:1.0;"/><text fill="#000000" font-family="sans-serif" font-size="14" lengthAdjust="spacing" textLength="295" x="107.5" y="287.4883">setBalloonShape(shape: ShapeTypes) : void</text><ellipse cx="98.5" cy="300.1855" fill="#84BE84" rx="3" ry="3" style="stroke:#038048;stroke-width:1.0;"/><text fill="#000000" font-family="sans-serif" font-size="14" lengthAdjust="spacing" textLength="376" x="107.5" y="303.9766">updatePositionOption(position: FloatingPosition) : void</text></g><!--class IFeature--><g id="elem_IFeature"><rect codeLine="15" fill="#FFFFFF" height="56.4883" id="IFeature" rx="2.5" ry="2.5" style="stroke:#272B30;stroke-width:0.5;" width="130" x="186" y="27.5"/><ellipse cx="219.9" cy="43.5" fill="#B4A7E5" rx="11" ry="11" style="stroke:#181818;stroke-width:1.0;"/><path d="M216.3277,39.7651 L216.3277,37.6069 L223.7071,37.6069 L223.7071,39.7651 L221.2418,39.7651 L221.2418,47.8418 L223.7071,47.8418 L223.7071,50 L216.3277,50 L216.3277,47.8418 L218.7931,47.8418 L218.7931,39.7651 Z " fill="#000000"/><text fill="#000000" font-family="sans-serif" font-size="14" font-style="italic" lengthAdjust="spacing" textLength="56" x="238.1" y="48.791">IFeature</text><line style="stroke:#272B30;stroke-width:0.5;" x1="187" x2="315" y1="59.5" y2="59.5"/><ellipse cx="197" cy="73.2441" fill="#84BE84" rx="3" ry="3" style="stroke:#038048;stroke-width:1.0;"/><text fill="#000000" font-family="sans-serif" font-size="14" lengthAdjust="spacing" textLength="104" x="206" y="77.0352">dispose() : void</text></g><!--class IOpenable--><g id="elem_IOpenable"><rect codeLine="19" fill="#FFFFFF" height="97.4648" id="IOpenable" rx="2.5" ry="2.5" style="stroke:#272B30;stroke-width:0.5;" width="279" x="351.5" y="7"/><ellipse cx="451.75" cy="23" fill="#B4A7E5" rx="11" ry="11" style="stroke:#181818;stroke-width:1.0;"/><path d="M448.1777,19.2651 L448.1777,17.1069 L455.5571,17.1069 L455.5571,19.2651 L453.0918,19.2651 L453.0918,27.3418 L455.5571,27.3418 L455.5571,29.5 L448.1777,29.5 L448.1777,27.3418 L450.6431,27.3418 L450.6431,19.2651 Z " fill="#000000"/><text fill="#000000" font-family="sans-serif" font-size="14" font-style="italic" lengthAdjust="spacing" textLength="70" x="472.25" y="28.291">IOpenable</text><line style="stroke:#272B30;stroke-width:0.5;" x1="352.5" x2="629.5" y1="39" y2="39"/><ellipse cx="362.5" cy="52.7441" fill="none" rx="3" ry="3" style="stroke:#038048;stroke-width:1.0;"/><text fill="#000000" font-family="sans-serif" font-size="14" lengthAdjust="spacing" textLength="116" x="371.5" y="56.5352">isOpen : boolean</text><line style="stroke:#272B30;stroke-width:0.5;" x1="352.5" x2="629.5" y1="63.4883" y2="63.4883"/><ellipse cx="362.5" cy="77.2324" fill="#84BE84" rx="3" ry="3" style="stroke:#038048;stroke-width:1.0;"/><text fill="#000000" font-family="sans-serif" font-size="14" lengthAdjust="spacing" textLength="86" x="371.5" y="81.0234">close() : void</text><ellipse cx="362.5" cy="93.7207" fill="#84BE84" rx="3" ry="3" style="stroke:#038048;stroke-width:1.0;"/><text fill="#000000" font-family="sans-serif" font-size="14" lengthAdjust="spacing" textLength="253" x="371.5" y="97.5117">open(isOpenedByApi: boolean) : void</text></g><!--class Balloon<PT>--><g id="elem_Balloon&lt;PT&gt;"><rect codeLine="25" fill="#FFFFFF" height="542.6484" id="Balloon&lt;PT&gt;" rx="2.5" ry="2.5" style="stroke:#272B30;stroke-width:0.5;" width="728" x="7" y="371"/><ellipse cx="321.75" cy="387" fill="#ADD1B2" rx="11" ry="11" style="stroke:#181818;stroke-width:1.0;"/><path d="M324.2231,393.1431 Q323.6421,393.4419 323.0029,393.5913 Q322.3638,393.7407 321.6582,393.7407 Q319.1514,393.7407 317.8315,392.0889 Q316.5117,390.437 316.5117,387.3159 Q316.5117,384.1865 317.8315,382.5347 Q319.1514,380.8828 321.6582,380.8828 Q322.3638,380.8828 323.0112,381.0322 Q323.6587,381.1816 324.2231,381.4805 L324.2231,384.2031 Q323.5923,383.6221 322.9988,383.3523 Q322.4053,383.0825 321.7744,383.0825 Q320.4297,383.0825 319.7449,384.1492 Q319.0601,385.2158 319.0601,387.3159 Q319.0601,389.4077 319.7449,390.4744 Q320.4297,391.541 321.7744,391.541 Q322.4053,391.541 322.9988,391.2712 Q323.5923,391.0015 324.2231,390.4204 Z " fill="#000000"/><text fill="#000000" font-family="sans-serif" font-size="14" lengthAdjust="spacing" textLength="90" x="342.25" y="392.291">Balloon&lt;PT&gt;</text><line style="stroke:#272B30;stroke-width:0.5;" x1="8" x2="734" y1="403" y2="403"/><ellipse cx="18" cy="416.7441" fill="none" rx="3" ry="3" style="stroke:#038048;stroke-width:1.0;"/><text fill="#000000" font-family="sans-serif" font-size="14" lengthAdjust="spacing" textLength="116" x="27" y="420.5352">isOpen : boolean</text><rect fill="none" height="6" style="stroke:#C82930;stroke-width:1.0;" width="6" x="15" y="430.2324"/><text fill="#000000" font-family="sans-serif" font-size="14" lengthAdjust="spacing" textLength="274" x="27" y="437.0234">_currentFocusedElementIndex : number</text><rect fill="none" height="6" style="stroke:#C82930;stroke-width:1.0;" width="6" x="15" y="446.7207"/><text fill="#000000" font-family="sans-serif" font-size="14" lengthAdjust="spacing" textLength="174" x="27" y="453.5117">_eventBodyClick : Generic</text><rect fill="none" height="6" style="stroke:#C82930;stroke-width:1.0;" width="6" x="15" y="463.209"/><text fill="#000000" font-family="sans-serif" font-size="14" lengthAdjust="spacing" textLength="189" x="27" y="470">_eventOnKeypress : Generic</text><rect fill="none" height="6" style="stroke:#C82930;stroke-width:1.0;" width="6" x="15" y="479.6973"/><text fill="#000000" font-family="sans-serif" font-size="14" lengthAdjust="spacing" textLength="240" x="27" y="486.4883">_floatingInstance : FloatingPosition</text><rect fill="none" height="6" style="stroke:#C82930;stroke-width:1.0;" width="6" x="15" y="496.1855"/><text fill="#000000" font-family="sans-serif" font-size="14" lengthAdjust="spacing" textLength="283" x="27" y="502.9766">_floatingOptions : FloatingPositionConfig</text><rect fill="none" height="6" style="stroke:#C82930;stroke-width:1.0;" width="6" x="15" y="512.6738"/><text fill="#000000" font-family="sans-serif" font-size="14" lengthAdjust="spacing" textLength="350" x="27" y="519.4648">_focusableBalloonElements : NodeListOf&lt;Element&gt;</text><rect fill="none" height="6" style="stroke:#C82930;stroke-width:1.0;" width="6" x="15" y="529.1621"/><text fill="#000000" font-family="sans-serif" font-size="14" lengthAdjust="spacing" textLength="273" x="27" y="535.9531">_focusManagerInstance : FocusManager</text><rect fill="none" height="6" style="stroke:#C82930;stroke-width:1.0;" width="6" x="15" y="545.6504"/><text fill="#000000" font-family="sans-serif" font-size="14" lengthAdjust="spacing" textLength="217" x="27" y="552.4414">_focusTrapInstance : FocusTrap</text><rect fill="none" height="6" style="stroke:#C82930;stroke-width:1.0;" width="6" x="15" y="562.1387"/><text fill="#000000" font-family="sans-serif" font-size="14" lengthAdjust="spacing" textLength="178" x="27" y="568.9297">_isOpenedByApi : boolean</text><rect fill="none" height="6" style="stroke:#C82930;stroke-width:1.0;" width="6" x="15" y="578.627"/><text fill="#000000" font-family="sans-serif" font-size="14" lengthAdjust="spacing" textLength="174" x="27" y="585.418">_onToggleEvent : Generic</text><line style="stroke:#272B30;stroke-width:0.5;" x1="8" x2="734" y1="592.3711" y2="592.3711"/><ellipse cx="18" cy="606.1152" fill="#84BE84" rx="3" ry="3" style="stroke:#038048;stroke-width:1.0;"/><text fill="#000000" font-family="sans-serif" font-size="14" lengthAdjust="spacing" textLength="86" x="27" y="609.9063">build() : void</text><ellipse cx="18" cy="622.6035" fill="#84BE84" rx="3" ry="3" style="stroke:#038048;stroke-width:1.0;"/><text fill="#000000" font-family="sans-serif" font-size="14" lengthAdjust="spacing" textLength="86" x="27" y="626.3945">close() : void</text><ellipse cx="18" cy="639.0918" fill="#84BE84" rx="3" ry="3" style="stroke:#038048;stroke-width:1.0;"/><text fill="#000000" font-family="sans-serif" font-size="14" lengthAdjust="spacing" textLength="104" x="27" y="642.8828">dispose() : void</text><ellipse cx="18" cy="655.5801" fill="#84BE84" rx="3" ry="3" style="stroke:#038048;stroke-width:1.0;"/><text fill="#000000" font-family="sans-serif" font-size="14" lengthAdjust="spacing" textLength="541" x="27" y="659.3711">open(isOpenedByApi: boolean, arrowKeyPressed: ArrowDown | ArrowUp) : void</text><ellipse cx="18" cy="672.0684" fill="#84BE84" rx="3" ry="3" style="stroke:#038048;stroke-width:1.0;"/><text fill="#000000" font-family="sans-serif" font-size="14" lengthAdjust="spacing" textLength="295" x="27" y="675.8594">setBalloonShape(shape: ShapeTypes) : void</text><ellipse cx="18" cy="688.5566" fill="#84BE84" rx="3" ry="3" style="stroke:#038048;stroke-width:1.0;"/><text fill="#000000" font-family="sans-serif" font-size="14" lengthAdjust="spacing" textLength="319" x="27" y="692.3477">setFloatingBehaviour(isUpdate: boolean) : void</text><ellipse cx="18" cy="705.0449" fill="#84BE84" rx="3" ry="3" style="stroke:#038048;stroke-width:1.0;"/><text fill="#000000" font-family="sans-serif" font-size="14" lengthAdjust="spacing" textLength="180" x="27" y="708.8359">setFloatingConfigs() : void</text><ellipse cx="18" cy="721.5332" fill="#84BE84" rx="3" ry="3" style="stroke:#038048;stroke-width:1.0;"/><text fill="#000000" font-family="sans-serif" font-size="14" lengthAdjust="spacing" textLength="479" x="27" y="725.3242">updateFloatingConfigs(floatingConfigs: FloatingPositionConfig) : void</text><ellipse cx="18" cy="738.0215" fill="#84BE84" rx="3" ry="3" style="stroke:#038048;stroke-width:1.0;"/><text fill="#000000" font-family="sans-serif" font-size="14" lengthAdjust="spacing" textLength="376" x="27" y="741.8125">updatePositionOption(position: FloatingPosition) : void</text><rect fill="#F24D5C" height="6" style="stroke:#C82930;stroke-width:1.0;" width="6" x="15" y="751.5098"/><text fill="#000000" font-family="sans-serif" font-size="14" lengthAdjust="spacing" textLength="374" x="27" y="758.3008">_bodyClickCallback(_args: string, e: MouseEvent) : void</text><rect fill="#F24D5C" height="6" style="stroke:#C82930;stroke-width:1.0;" width="6" x="15" y="767.998"/><text fill="#000000" font-family="sans-serif" font-size="14" lengthAdjust="spacing" textLength="204" x="27" y="774.7891">_handleFocusBehavior() : void</text><rect fill="#F24D5C" height="6" style="stroke:#C82930;stroke-width:1.0;" width="6" x="15" y="784.4863"/><text fill="#000000" font-family="sans-serif" font-size="14" lengthAdjust="spacing" textLength="525" x="27" y="791.2773">_manageFocusInsideBalloon(arrowKeyPressed: ArrowDown | ArrowUp) : void</text><rect fill="#F24D5C" height="6" style="stroke:#C82930;stroke-width:1.0;" width="6" x="15" y="800.9746"/><text fill="#000000" font-family="sans-serif" font-size="14" lengthAdjust="spacing" textLength="312" x="27" y="807.7656">_onkeypressCallback(e: KeyboardEvent) : void</text><rect fill="#F24D5C" height="6" style="stroke:#C82930;stroke-width:1.0;" width="6" x="15" y="817.4629"/><text fill="#000000" font-family="sans-serif" font-size="14" lengthAdjust="spacing" textLength="207" x="27" y="824.2539">_removeEventListeners() : void</text><rect fill="#F24D5C" height="6" style="stroke:#C82930;stroke-width:1.0;" width="6" x="15" y="833.9512"/><text fill="#000000" font-family="sans-serif" font-size="14" lengthAdjust="spacing" textLength="185" x="27" y="840.7422">_setA11YProperties() : void</text><rect fill="#F24D5C" height="6" style="stroke:#C82930;stroke-width:1.0;" width="6" x="15" y="850.4395"/><text fill="#000000" font-family="sans-serif" font-size="14" lengthAdjust="spacing" textLength="143" x="27" y="857.2305">_setCallbacks() : void</text><rect fill="#F24D5C" height="6" style="stroke:#C82930;stroke-width:1.0;" width="6" x="15" y="866.9277"/><text fill="#000000" font-family="sans-serif" font-size="14" lengthAdjust="spacing" textLength="176" x="27" y="873.7188">_setEventListeners() : void</text><rect fill="#F24D5C" height="6" style="stroke:#C82930;stroke-width:1.0;" width="6" x="15" y="883.416"/><text fill="#000000" font-family="sans-serif" font-size="14" lengthAdjust="spacing" textLength="702" x="27" y="890.207">_toggleBalloon(isOpen: boolean, isBodyClick: boolean, arrowKeyPressed: ArrowDown | ArrowUp) : void</text><rect fill="#F24D5C" height="6" style="stroke:#C82930;stroke-width:1.0;" width="6" x="15" y="899.9043"/><text fill="#000000" font-family="sans-serif" font-size="14" lengthAdjust="spacing" textLength="161" x="27" y="906.6953">_unsetCallbacks() : void</text></g><!--reverse link IFeature to IBalloon--><g id="link_IFeature_IBalloon"><path codeLine="18" d="M280.49,100.74 C293.14,119.71 308.26,142.39 322.48,163.72 " fill="none" id="IFeature-backto-IBalloon" style="stroke:#272B30;stroke-width:1.0;"/><polygon fill="none" points="274.5,104.36,269.23,83.84,286.14,96.6,274.5,104.36" style="stroke:#272B30;stroke-width:1.0;"/></g><!--reverse link IOpenable to IBalloon--><g id="link_IOpenable_IBalloon"><path codeLine="24" d="M447.88,121.18 C438.68,134.98 428.9,149.65 419.51,163.74 " fill="none" id="IOpenable-backto-IBalloon" style="stroke:#272B30;stroke-width:1.0;"/><polygon fill="none" points="442.24,117.02,459.16,104.26,453.89,124.79,442.24,117.02" style="stroke:#272B30;stroke-width:1.0;"/></g><!--reverse link IBalloon to Balloon<PT>--><g id="link_IBalloon_Balloon&lt;PT&gt;"><path codeLine="57" d="M371,331.17 C371,343.62 371,356.87 371,370.6 " fill="none" id="IBalloon-backto-Balloon&lt;PT&gt;" style="stroke:#272B30;stroke-width:1.0;stroke-dasharray:7.0,7.0;"/><polygon fill="none" points="364,331.01,371,311.01,378,331.01,364,331.01" style="stroke:#272B30;stroke-width:1.0;"/></g><!--SRC=[rLLDQnin4BtxLuZqigLnQD92mPX0x2ObjAaDTGuz1UrgrXRMQeIaTMgQ_FUETcLtFrn3FoxrOR56RxHFRzxCkhNKXbjUiAdYpbrPYuzJL6ZPYujt5-cRrmFNHapG2h378JnRBosMMaHOdkSDJ6yx0_5MyC5A2c1G6Bzb1VWL2jSCvH8KHQJsO7EU0JkvdN2b4FK9-pvWz7ibtSo0PYEM8YhWkevc2XqaBocyGIdgc93EzAD8sKbz28Z9zih8_L6dZ0TbFi9sRi4v42DMIVKU7pLxgl_Vc_Pn3dna-6N53IGkF4UiMYos1bmRNXh1FSpHIIzHpqnu9YOkH-n68VTIBtU0VV9pIvCRuBwqiDUaTzFdGGCqVXeE6qAsJWeoy5J17yXxHCWMZv-lw1B9We_OILoFvulBupI63rbfBMX_Wrb9vRbMKD3gLWluHb1T5YdOY8GDxKnGRATAPclQ_K0qhSoQspDDfJQXrBtzF1RYLZlFDKdLhqq7MTVI7G1EKUTokOC7wa6EUEjuXv3t6GLyaixFyd6CNZQJxhZcIx1DHerm4xcmt7HX8HOnhPhr94QzmELImNLGgAFBgxIKIdHyyB-q7i5tbPd0YcyabfROt5STsRTkDwUkeaiEzNCNaxVNlxB4lnaDTTdIdTMd94bAmpTvu3QysdbBMQUChdY7r3LLNJl9Aww5WiedKHgRT215PRCAGjQYYHsbJtwxRi5YwzXtUxB4Ziv8aLjnYA250ZSrzT0XmPAkov1gTNL-_dLkoMRMIpW4sBtlqDxnqttL5BjBroPkk5Uw_Qpv6qyF7qfzc6QOfFjFuVZfxAmzDty0]--></g></svg>