<?xml version="1.0" encoding="UTF-8" standalone="no"?><svg xmlns="http://www.w3.org/2000/svg" xmlns:xlink="http://www.w3.org/1999/xlink" contentScriptType="application/ecmascript" contentStyleType="text/css" height="751px" preserveAspectRatio="none" style="width:433px;height:751px;background:#CED4DA;" version="1.1" viewBox="0 0 433 751" width="433px" zoomAndPan="magnify"><defs><filter height="300%" id="fmo98dfbf20uh" width="300%" x="-1" y="-1"><feGaussianBlur result="blurOut" stdDeviation="2.0"/><feColorMatrix in="blurOut" result="blurOut2" type="matrix" values="0 0 0 0 0 0 0 0 0 0 0 0 0 0 0 0 0 0 .4 0"/><feOffset dx="4.0" dy="4.0" in="blurOut2" result="blurOut3"/><feBlend in="SourceGraphic" in2="blurOut3" mode="normal"/></filter></defs><g><!--MD5=[1f65e30c56c456c444e9db1fc7f28e82]
class IBalloon--><rect codeLine="7" fill="#FFFFFF" filter="url(#fmo98dfbf20uh)" height="125.7305" id="IBalloon" style="stroke:#272B30;stroke-width:1.5;" width="319" x="47" y="154"/><ellipse cx="180.25" cy="170" fill="#B4A7E5" rx="11" ry="11" style="stroke:#272B30;stroke-width:1.0;"/><path d="M176.6777,166.2651 L176.6777,164.1069 L184.0571,164.1069 L184.0571,166.2651 L181.5918,166.2651 L181.5918,174.3418 L184.0571,174.3418 L184.0571,176.5 L176.6777,176.5 L176.6777,174.3418 L179.1431,174.3418 L179.1431,166.2651 Z " fill="#000000"/><text fill="#000000" font-family="sans-serif" font-size="12" font-style="italic" lengthAdjust="spacing" textLength="44" x="200.75" y="174.5352">IBalloon</text><line style="stroke:#272B30;stroke-width:1.5;" x1="48" x2="365" y1="186" y2="186"/><ellipse cx="58" cy="197" rx="3" ry="3" style="stroke:#038048;stroke-width:1.0;fill:none;"/><text fill="#000000" font-family="sans-serif" font-size="11" lengthAdjust="spacing" textLength="90" x="67" y="200.6348">isOpen : boolean</text><line style="stroke:#272B30;stroke-width:1.5;" x1="48" x2="365" y1="206.9551" y2="206.9551"/><ellipse cx="58" cy="217.9551" fill="#84BE84" rx="3" ry="3" style="stroke:#038048;stroke-width:1.0;"/><text fill="#000000" font-family="sans-serif" font-size="11" lengthAdjust="spacing" textLength="68" x="67" y="221.5898">close() : void</text><ellipse cx="58" cy="230.9102" fill="#84BE84" rx="3" ry="3" style="stroke:#038048;stroke-width:1.0;"/><text fill="#000000" font-family="sans-serif" font-size="11" lengthAdjust="spacing" textLength="82" x="67" y="234.5449">dispose() : void</text><ellipse cx="58" cy="243.8652" fill="#84BE84" rx="3" ry="3" style="stroke:#038048;stroke-width:1.0;"/><text fill="#000000" font-family="sans-serif" font-size="11" lengthAdjust="spacing" textLength="197" x="67" y="247.5">open(isOpenedByApi: boolean) : void</text><ellipse cx="58" cy="256.8203" fill="#84BE84" rx="3" ry="3" style="stroke:#038048;stroke-width:1.0;"/><text fill="#000000" font-family="sans-serif" font-size="11" lengthAdjust="spacing" textLength="229" x="67" y="260.4551">setBalloonShape(shape: ShapeTypes) : void</text><ellipse cx="58" cy="269.7754" fill="#84BE84" rx="3" ry="3" style="stroke:#038048;stroke-width:1.0;"/><text fill="#000000" font-family="sans-serif" font-size="11" lengthAdjust="spacing" textLength="293" x="67" y="273.4102">updatePositionOption(position: FloatingPosition) : void</text><!--MD5=[7185b0502a5f84a4486e4b6a0c50e016]
class IFeature--><rect codeLine="15" fill="#FFFFFF" filter="url(#fmo98dfbf20uh)" height="52.9551" id="IFeature" style="stroke:#272B30;stroke-width:1.5;" width="108" x="52.5" y="24"/><ellipse cx="81" cy="40" fill="#B4A7E5" rx="11" ry="11" style="stroke:#272B30;stroke-width:1.0;"/><path d="M77.4277,36.2651 L77.4277,34.1069 L84.8071,34.1069 L84.8071,36.2651 L82.3418,36.2651 L82.3418,44.3418 L84.8071,44.3418 L84.8071,46.5 L77.4277,46.5 L77.4277,44.3418 L79.8931,44.3418 L79.8931,36.2651 Z " fill="#000000"/><text fill="#000000" font-family="sans-serif" font-size="12" font-style="italic" lengthAdjust="spacing" textLength="46" x="98" y="44.5352">IFeature</text><line style="stroke:#272B30;stroke-width:1.5;" x1="53.5" x2="159.5" y1="56" y2="56"/><ellipse cx="63.5" cy="67" fill="#84BE84" rx="3" ry="3" style="stroke:#038048;stroke-width:1.0;"/><text fill="#000000" font-family="sans-serif" font-size="11" lengthAdjust="spacing" textLength="82" x="72.5" y="70.6348">dispose() : void</text><!--MD5=[10f0bc30af2cfecf3ef477b487a33739]
class IOpenable--><rect codeLine="19" fill="#FFFFFF" filter="url(#fmo98dfbf20uh)" height="86.8652" id="IOpenable" style="stroke:#272B30;stroke-width:1.5;" width="223" x="196" y="7"/><ellipse cx="273.75" cy="23" fill="#B4A7E5" rx="11" ry="11" style="stroke:#272B30;stroke-width:1.0;"/><path d="M270.1777,19.2651 L270.1777,17.1069 L277.5571,17.1069 L277.5571,19.2651 L275.0918,19.2651 L275.0918,27.3418 L277.5571,27.3418 L277.5571,29.5 L270.1777,29.5 L270.1777,27.3418 L272.6431,27.3418 L272.6431,19.2651 Z " fill="#000000"/><text fill="#000000" font-family="sans-serif" font-size="12" font-style="italic" lengthAdjust="spacing" textLength="59" x="294.25" y="27.5352">IOpenable</text><line style="stroke:#272B30;stroke-width:1.5;" x1="197" x2="418" y1="39" y2="39"/><ellipse cx="207" cy="50" rx="3" ry="3" style="stroke:#038048;stroke-width:1.0;fill:none;"/><text fill="#000000" font-family="sans-serif" font-size="11" lengthAdjust="spacing" textLength="90" x="216" y="53.6348">isOpen : boolean</text><line style="stroke:#272B30;stroke-width:1.5;" x1="197" x2="418" y1="59.9551" y2="59.9551"/><ellipse cx="207" cy="70.9551" fill="#84BE84" rx="3" ry="3" style="stroke:#038048;stroke-width:1.0;"/><text fill="#000000" font-family="sans-serif" font-size="11" lengthAdjust="spacing" textLength="68" x="216" y="74.5898">close() : void</text><ellipse cx="207" cy="83.9102" fill="#84BE84" rx="3" ry="3" style="stroke:#038048;stroke-width:1.0;"/><text fill="#000000" font-family="sans-serif" font-size="11" lengthAdjust="spacing" textLength="197" x="216" y="87.5449">open(isOpenedByApi: boolean) : void</text><!--MD5=[37793f3d654083c05772b942cf5898c4]
class Balloon<PT>--><rect codeLine="25" fill="#FFFFFF" filter="url(#fmo98dfbf20uh)" height="397.7871" id="Balloon&lt;PT&gt;" style="stroke:#272B30;stroke-width:1.5;" width="399" x="7" y="340"/><ellipse cx="164.25" cy="356" fill="#ADD1B2" rx="11" ry="11" style="stroke:#272B30;stroke-width:1.0;"/><path d="M166.7231,362.1431 Q166.1421,362.4419 165.5029,362.5913 Q164.8638,362.7407 164.1582,362.7407 Q161.6514,362.7407 160.3315,361.0889 Q159.0117,359.437 159.0117,356.3159 Q159.0117,353.1865 160.3315,351.5347 Q161.6514,349.8828 164.1582,349.8828 Q164.8638,349.8828 165.5112,350.0322 Q166.1587,350.1816 166.7231,350.4805 L166.7231,353.2031 Q166.0923,352.6221 165.4988,352.3523 Q164.9053,352.0825 164.2744,352.0825 Q162.9297,352.0825 162.2449,353.1492 Q161.5601,354.2158 161.5601,356.3159 Q161.5601,358.4077 162.2449,359.4744 Q162.9297,360.541 164.2744,360.541 Q164.9053,360.541 165.4988,360.2712 Q166.0923,360.0015 166.7231,359.4204 Z " fill="#000000"/><text fill="#000000" font-family="sans-serif" font-size="12" lengthAdjust="spacing" textLength="76" x="184.75" y="360.5352">Balloon&lt;PT&gt;</text><line style="stroke:#272B30;stroke-width:1.5;" x1="8" x2="405" y1="372" y2="372"/><ellipse cx="18" cy="383" rx="3" ry="3" style="stroke:#038048;stroke-width:1.0;fill:none;"/><text fill="#000000" font-family="sans-serif" font-size="11" lengthAdjust="spacing" textLength="90" x="27" y="386.6348">isOpen : boolean</text><rect fill="none" height="6" style="stroke:#C82930;stroke-width:1.0;" width="6" x="15" y="392.9551"/><text fill="#000000" font-family="sans-serif" font-size="11" lengthAdjust="spacing" textLength="137" x="27" y="399.5898">_eventBodyClick : Generic</text><rect fill="none" height="6" style="stroke:#C82930;stroke-width:1.0;" width="6" x="15" y="405.9102"/><text fill="#000000" font-family="sans-serif" font-size="11" lengthAdjust="spacing" textLength="150" x="27" y="412.5449">_eventOnKeypress : Generic</text><rect fill="none" height="6" style="stroke:#C82930;stroke-width:1.0;" width="6" x="15" y="418.8652"/><text fill="#000000" font-family="sans-serif" font-size="11" lengthAdjust="spacing" textLength="187" x="27" y="425.5">_floatingInstance : FloatingPosition</text><rect fill="none" height="6" style="stroke:#C82930;stroke-width:1.0;" width="6" x="15" y="431.8203"/><text fill="#000000" font-family="sans-serif" font-size="11" lengthAdjust="spacing" textLength="221" x="27" y="438.4551">_floatingOptions : FloatingPositionConfig</text><rect fill="none" height="6" style="stroke:#C82930;stroke-width:1.0;" width="6" x="15" y="444.7754"/><text fill="#000000" font-family="sans-serif" font-size="11" lengthAdjust="spacing" textLength="214" x="27" y="451.4102">_focusManagerInstance : FocusManager</text><rect fill="none" height="6" style="stroke:#C82930;stroke-width:1.0;" width="6" x="15" y="457.7305"/><text fill="#000000" font-family="sans-serif" font-size="11" lengthAdjust="spacing" textLength="172" x="27" y="464.3652">_focusTrapInstance : FocusTrap</text><rect fill="none" height="6" style="stroke:#C82930;stroke-width:1.0;" width="6" x="15" y="470.6855"/><text fill="#000000" font-family="sans-serif" font-size="11" lengthAdjust="spacing" textLength="139" x="27" y="477.3203">_isOpenedByApi : boolean</text><rect fill="none" height="6" style="stroke:#C82930;stroke-width:1.0;" width="6" x="15" y="483.6406"/><text fill="#000000" font-family="sans-serif" font-size="11" lengthAdjust="spacing" textLength="136" x="27" y="490.2754">_onToggleEvent : Generic</text><line style="stroke:#272B30;stroke-width:1.5;" x1="8" x2="405" y1="496.5957" y2="496.5957"/><ellipse cx="18" cy="507.5957" fill="#84BE84" rx="3" ry="3" style="stroke:#038048;stroke-width:1.0;"/><text fill="#000000" font-family="sans-serif" font-size="11" lengthAdjust="spacing" textLength="67" x="27" y="511.2305">build() : void</text><ellipse cx="18" cy="520.5508" fill="#84BE84" rx="3" ry="3" style="stroke:#038048;stroke-width:1.0;"/><text fill="#000000" font-family="sans-serif" font-size="11" lengthAdjust="spacing" textLength="68" x="27" y="524.1855">close() : void</text><ellipse cx="18" cy="533.5059" fill="#84BE84" rx="3" ry="3" style="stroke:#038048;stroke-width:1.0;"/><text fill="#000000" font-family="sans-serif" font-size="11" lengthAdjust="spacing" textLength="82" x="27" y="537.1406">dispose() : void</text><ellipse cx="18" cy="546.4609" fill="#84BE84" rx="3" ry="3" style="stroke:#038048;stroke-width:1.0;"/><text fill="#000000" font-family="sans-serif" font-size="11" lengthAdjust="spacing" textLength="197" x="27" y="550.0957">open(isOpenedByApi: boolean) : void</text><ellipse cx="18" cy="559.416" fill="#84BE84" rx="3" ry="3" style="stroke:#038048;stroke-width:1.0;"/><text fill="#000000" font-family="sans-serif" font-size="11" lengthAdjust="spacing" textLength="229" x="27" y="563.0508">setBalloonShape(shape: ShapeTypes) : void</text><ellipse cx="18" cy="572.3711" fill="#84BE84" rx="3" ry="3" style="stroke:#038048;stroke-width:1.0;"/><text fill="#000000" font-family="sans-serif" font-size="11" lengthAdjust="spacing" textLength="248" x="27" y="576.0059">setFloatingBehaviour(isUpdate: boolean) : void</text><ellipse cx="18" cy="585.3262" fill="#84BE84" rx="3" ry="3" style="stroke:#038048;stroke-width:1.0;"/><text fill="#000000" font-family="sans-serif" font-size="11" lengthAdjust="spacing" textLength="141" x="27" y="588.9609">setFloatingConfigs() : void</text><ellipse cx="18" cy="598.2813" fill="#84BE84" rx="3" ry="3" style="stroke:#038048;stroke-width:1.0;"/><text fill="#000000" font-family="sans-serif" font-size="11" lengthAdjust="spacing" textLength="373" x="27" y="601.916">updateFloatingConfigs(floatingConfigs: FloatingPositionConfig) : void</text><ellipse cx="18" cy="611.2363" fill="#84BE84" rx="3" ry="3" style="stroke:#038048;stroke-width:1.0;"/><text fill="#000000" font-family="sans-serif" font-size="11" lengthAdjust="spacing" textLength="293" x="27" y="614.8711">updatePositionOption(position: FloatingPosition) : void</text><rect fill="#F24D5C" height="6" style="stroke:#C82930;stroke-width:1.0;" width="6" x="15" y="621.1914"/><text fill="#000000" font-family="sans-serif" font-size="11" lengthAdjust="spacing" textLength="294" x="27" y="627.8262">_bodyClickCallback(_args: string, e: MouseEvent) : void</text><rect fill="#F24D5C" height="6" style="stroke:#C82930;stroke-width:1.0;" width="6" x="15" y="634.1465"/><text fill="#000000" font-family="sans-serif" font-size="11" lengthAdjust="spacing" textLength="160" x="27" y="640.7813">_handleFocusBehavior() : void</text><rect fill="#F24D5C" height="6" style="stroke:#C82930;stroke-width:1.0;" width="6" x="15" y="647.1016"/><text fill="#000000" font-family="sans-serif" font-size="11" lengthAdjust="spacing" textLength="245" x="27" y="653.7363">_onkeypressCallback(e: KeyboardEvent) : void</text><rect fill="#F24D5C" height="6" style="stroke:#C82930;stroke-width:1.0;" width="6" x="15" y="660.0566"/><text fill="#000000" font-family="sans-serif" font-size="11" lengthAdjust="spacing" textLength="164" x="27" y="666.6914">_removeEventListeners() : void</text><rect fill="#F24D5C" height="6" style="stroke:#C82930;stroke-width:1.0;" width="6" x="15" y="673.0117"/><text fill="#000000" font-family="sans-serif" font-size="11" lengthAdjust="spacing" textLength="146" x="27" y="679.6465">_setA11YProperties() : void</text><rect fill="#F24D5C" height="6" style="stroke:#C82930;stroke-width:1.0;" width="6" x="15" y="685.9668"/><text fill="#000000" font-family="sans-serif" font-size="11" lengthAdjust="spacing" textLength="113" x="27" y="692.6016">_setCallbacks() : void</text><rect fill="#F24D5C" height="6" style="stroke:#C82930;stroke-width:1.0;" width="6" x="15" y="698.9219"/><text fill="#000000" font-family="sans-serif" font-size="11" lengthAdjust="spacing" textLength="140" x="27" y="705.5566">_setEventListeners() : void</text><rect fill="#F24D5C" height="6" style="stroke:#C82930;stroke-width:1.0;" width="6" x="15" y="711.877"/><text fill="#000000" font-family="sans-serif" font-size="11" lengthAdjust="spacing" textLength="322" x="27" y="718.5117">_toggleBalloon(isOpen: boolean, isBodyClick: boolean) : void</text><rect fill="#F24D5C" height="6" style="stroke:#C82930;stroke-width:1.0;" width="6" x="15" y="724.832"/><text fill="#000000" font-family="sans-serif" font-size="11" lengthAdjust="spacing" textLength="127" x="27" y="731.4668">_unsetCallbacks() : void</text><!--MD5=[5a6d5961ffb739747258ff34a0ac6759]
reverse link IFeature to IBalloon--><path codeLine="18" d="M132.57,94.39 C143.62,112.56 156.7,134.08 168.77,153.93 " fill="none" id="IFeature-backto-IBalloon" style="stroke:#272B30;stroke-width:1.0;"/><polygon fill="none" points="126.53,97.93,122.12,77.2,138.5,90.66,126.53,97.93" style="stroke:#272B30;stroke-width:1.0;"/><!--MD5=[b4c5a787b0d4cc660563b6c96a251190]
reverse link IOpenable to IBalloon--><path codeLine="24" d="M270.53,111.71 C262.09,125.45 253.11,140.08 244.62,153.91 " fill="none" id="IOpenable-backto-IBalloon" style="stroke:#272B30;stroke-width:1.0;"/><polygon fill="none" points="264.8,107.67,281.23,94.29,276.73,115,264.8,107.67" style="stroke:#272B30;stroke-width:1.0;"/><!--MD5=[b22e2d2f5bb3efd4dc4a41cdd8adc4dc]
reverse link IBalloon to Balloon<PT>--><path codeLine="54" d="M206.5,300.22 C206.5,312.71 206.5,326.03 206.5,339.75 " fill="none" id="IBalloon-backto-Balloon&lt;PT&gt;" style="stroke:#272B30;stroke-width:1.0;stroke-dasharray:7.0,7.0;"/><polygon fill="none" points="199.5,300.08,206.5,280.08,213.5,300.08,199.5,300.08" style="stroke:#272B30;stroke-width:1.0;"/><!--MD5=[439e895daab3d21a65d6cd27939147fc]
@startuml
skinparam ClassArrowColor #272b30
skinparam ClassBorderColor #272b30
skinparam ClassBackgroundColor #fff
skinparam BackgroundColor #ced4da
hide empty methods
hide empty fields
interface "IBalloon" {
    +isOpen : boolean
    +close() : void
    +dispose() : void
    +open(isOpenedByApi: boolean) : void
    +setBalloonShape(shape: ShapeTypes) : void
    +updatePositionOption(position: FloatingPosition) : void
}
interface "IFeature" {
    +dispose() : void
}
"IFeature" <|- - "IBalloon"
interface "IOpenable" {
    +isOpen : boolean
    +close() : void
    +open(isOpenedByApi: boolean) : void
}
"IOpenable" <|- - "IBalloon"
class "Balloon<PT>" {
    +isOpen : boolean
    -_eventBodyClick : Generic
    -_eventOnKeypress : Generic
    -_floatingInstance : FloatingPosition
    -_floatingOptions : FloatingPositionConfig
    -_focusManagerInstance : FocusManager
    -_focusTrapInstance : FocusTrap
    -_isOpenedByApi : boolean
    -_onToggleEvent : Generic
    +build() : void
    +close() : void
    +dispose() : void
    +open(isOpenedByApi: boolean) : void
    +setBalloonShape(shape: ShapeTypes) : void
    +setFloatingBehaviour(isUpdate: boolean) : void
    +setFloatingConfigs() : void
    +updateFloatingConfigs(floatingConfigs: FloatingPositionConfig) : void
    +updatePositionOption(position: FloatingPosition) : void
    -_bodyClickCallback(_args: string, e: MouseEvent) : void
    -_handleFocusBehavior() : void
    -_onkeypressCallback(e: KeyboardEvent) : void
    -_removeEventListeners() : void
    -_setA11YProperties() : void
    -_setCallbacks() : void
    -_setEventListeners() : void
    -_toggleBalloon(isOpen: boolean, isBodyClick: boolean) : void
    -_unsetCallbacks() : void
}
"IBalloon" <|.. "Balloon<PT>"
@enduml

PlantUML version 1.2021.14(Fri Nov 12 16:46:50 WET 2021)
(GPL source distribution)
Java Runtime: Java(TM) SE Runtime Environment
JVM: Java HotSpot(TM) 64-Bit Server VM
Default Encoding: UTF-8
Language: en
Country: PT
--></g></svg>