<?xml version="1.0" encoding="us-ascii" standalone="no"?><svg xmlns="http://www.w3.org/2000/svg" xmlns:xlink="http://www.w3.org/1999/xlink" contentStyleType="text/css" height="913px" preserveAspectRatio="none" style="width:745px;height:913px;background:#CED4DA;" version="1.1" viewBox="0 0 745 913" width="745px" zoomAndPan="magnify"><defs/><g><rect fill="#CED4DA" height="913" style="stroke:none;stroke-width:1.0;" width="745" x="0" y="0"/><!--class IBalloon--><g id="elem_IBalloon"><rect codeLine="7" fill="#FFFFFF" height="145.7813" id="IBalloon" rx="2.5" ry="2.5" style="stroke:#272B30;stroke-width:0.5;" width="570" x="87.5" y="164"/><ellipse cx="340.75" cy="180" fill="#B4A7E5" rx="11" ry="11" style="stroke:#181818;stroke-width:1.0;"/><path d="M336.6719,175.7656 L336.6719,173.6094 L344.0625,173.6094 L344.0625,175.7656 L341.5938,175.7656 L341.5938,183.8438 L344.0625,183.8438 L344.0625,186 L336.6719,186 L336.6719,183.8438 L339.1406,183.8438 L339.1406,175.7656 L336.6719,175.7656 Z " fill="#000000"/><text fill="#000000" font-family="sans-serif" font-size="14" font-style="italic" lengthAdjust="spacing" textLength="55" x="361.25" y="184.8467">IBalloon</text><line style="stroke:#272B30;stroke-width:0.5;" x1="88.5" x2="656.5" y1="196" y2="196"/><ellipse cx="98.5" cy="209.6484" fill="none" rx="3" ry="3" style="stroke:#038048;stroke-width:1.0;"/><text fill="#000000" font-family="sans-serif" font-size="14" lengthAdjust="spacing" textLength="118" x="107.5" y="212.9951">isOpen : boolean</text><line style="stroke:#272B30;stroke-width:0.5;" x1="88.5" x2="656.5" y1="220.2969" y2="220.2969"/><ellipse cx="98.5" cy="233.9453" fill="#84BE84" rx="3" ry="3" style="stroke:#038048;stroke-width:1.0;"/><text fill="#000000" font-family="sans-serif" font-size="14" lengthAdjust="spacing" textLength="88" x="107.5" y="237.292">close() : void</text><ellipse cx="98.5" cy="250.2422" fill="#84BE84" rx="3" ry="3" style="stroke:#038048;stroke-width:1.0;"/><text fill="#000000" font-family="sans-serif" font-size="14" lengthAdjust="spacing" textLength="106" x="107.5" y="253.5889">dispose() : void</text><ellipse cx="98.5" cy="266.5391" fill="#84BE84" rx="3" ry="3" style="stroke:#038048;stroke-width:1.0;"/><text fill="#000000" font-family="sans-serif" font-size="14" lengthAdjust="spacing" textLength="544" x="107.5" y="269.8857">open(isOpenedByApi: boolean, arrowKeyPressed: ArrowDown | ArrowUp) : void</text><ellipse cx="98.5" cy="282.8359" fill="#84BE84" rx="3" ry="3" style="stroke:#038048;stroke-width:1.0;"/><text fill="#000000" font-family="sans-serif" font-size="14" lengthAdjust="spacing" textLength="306" x="107.5" y="286.1826">setBalloonShape(shape: ShapeTypes) : void</text><ellipse cx="98.5" cy="299.1328" fill="#84BE84" rx="3" ry="3" style="stroke:#038048;stroke-width:1.0;"/><text fill="#000000" font-family="sans-serif" font-size="14" lengthAdjust="spacing" textLength="374" x="107.5" y="302.4795">updatePositionOption(position: FloatingPosition) : void</text></g><!--class IFeature--><g id="elem_IFeature"><rect codeLine="15" fill="#FFFFFF" height="56.2969" id="IFeature" rx="2.5" ry="2.5" style="stroke:#272B30;stroke-width:0.5;" width="132" x="185.5" y="27.5"/><ellipse cx="219.85" cy="43.5" fill="#B4A7E5" rx="11" ry="11" style="stroke:#181818;stroke-width:1.0;"/><path d="M215.7719,39.2656 L215.7719,37.1094 L223.1625,37.1094 L223.1625,39.2656 L220.6938,39.2656 L220.6938,47.3438 L223.1625,47.3438 L223.1625,49.5 L215.7719,49.5 L215.7719,47.3438 L218.2406,47.3438 L218.2406,39.2656 L215.7719,39.2656 Z " fill="#000000"/><text fill="#000000" font-family="sans-serif" font-size="14" font-style="italic" lengthAdjust="spacing" textLength="57" x="238.15" y="48.3467">IFeature</text><line style="stroke:#272B30;stroke-width:0.5;" x1="186.5" x2="316.5" y1="59.5" y2="59.5"/><ellipse cx="196.5" cy="73.1484" fill="#84BE84" rx="3" ry="3" style="stroke:#038048;stroke-width:1.0;"/><text fill="#000000" font-family="sans-serif" font-size="14" lengthAdjust="spacing" textLength="106" x="205.5" y="76.4951">dispose() : void</text></g><!--class IOpenable--><g id="elem_IOpenable"><rect codeLine="19" fill="#FFFFFF" height="96.8906" id="IOpenable" rx="2.5" ry="2.5" style="stroke:#272B30;stroke-width:0.5;" width="283" x="353" y="7"/><ellipse cx="454.75" cy="23" fill="#B4A7E5" rx="11" ry="11" style="stroke:#181818;stroke-width:1.0;"/><path d="M450.6719,18.7656 L450.6719,16.6094 L458.0625,16.6094 L458.0625,18.7656 L455.5938,18.7656 L455.5938,26.8438 L458.0625,26.8438 L458.0625,29 L450.6719,29 L450.6719,26.8438 L453.1406,26.8438 L453.1406,18.7656 L450.6719,18.7656 Z " fill="#000000"/><text fill="#000000" font-family="sans-serif" font-size="14" font-style="italic" lengthAdjust="spacing" textLength="71" x="475.25" y="27.8467">IOpenable</text><line style="stroke:#272B30;stroke-width:0.5;" x1="354" x2="635" y1="39" y2="39"/><ellipse cx="364" cy="52.6484" fill="none" rx="3" ry="3" style="stroke:#038048;stroke-width:1.0;"/><text fill="#000000" font-family="sans-serif" font-size="14" lengthAdjust="spacing" textLength="118" x="373" y="55.9951">isOpen : boolean</text><line style="stroke:#272B30;stroke-width:0.5;" x1="354" x2="635" y1="63.2969" y2="63.2969"/><ellipse cx="364" cy="76.9453" fill="#84BE84" rx="3" ry="3" style="stroke:#038048;stroke-width:1.0;"/><text fill="#000000" font-family="sans-serif" font-size="14" lengthAdjust="spacing" textLength="88" x="373" y="80.292">close() : void</text><ellipse cx="364" cy="93.2422" fill="#84BE84" rx="3" ry="3" style="stroke:#038048;stroke-width:1.0;"/><text fill="#000000" font-family="sans-serif" font-size="14" lengthAdjust="spacing" textLength="257" x="373" y="96.5889">open(isOpenedByApi: boolean) : void</text></g><!--class Balloon<PT>--><g id="elem_Balloon&lt;PT&gt;"><rect codeLine="25" fill="#FFFFFF" height="536.9063" id="Balloon&lt;PT&gt;" rx="2.5" ry="2.5" style="stroke:#272B30;stroke-width:0.5;" width="731" x="7" y="370"/><ellipse cx="321.75" cy="386" fill="#ADD1B2" rx="11" ry="11" style="stroke:#181818;stroke-width:1.0;"/><path d="M324.7188,391.6406 Q324.1406,391.9375 323.5,392.0781 Q322.8594,392.2344 322.1563,392.2344 Q319.6563,392.2344 318.3281,390.5938 Q317.0156,388.9375 317.0156,385.8125 Q317.0156,382.6875 318.3281,381.0313 Q319.6563,379.375 322.1563,379.375 Q322.8594,379.375 323.5,379.5313 Q324.1563,379.6875 324.7188,379.9844 L324.7188,382.7031 Q324.0938,382.125 323.5,381.8594 Q322.9063,381.5781 322.2813,381.5781 Q320.9375,381.5781 320.25,382.6563 Q319.5625,383.7188 319.5625,385.8125 Q319.5625,387.9063 320.25,388.9844 Q320.9375,390.0469 322.2813,390.0469 Q322.9063,390.0469 323.5,389.7813 Q324.0938,389.5 324.7188,388.9219 L324.7188,391.6406 Z " fill="#000000"/><text fill="#000000" font-family="sans-serif" font-size="14" lengthAdjust="spacing" textLength="93" x="342.25" y="390.8467">Balloon&lt;PT&gt;</text><line style="stroke:#272B30;stroke-width:0.5;" x1="8" x2="737" y1="402" y2="402"/><ellipse cx="18" cy="415.6484" fill="none" rx="3" ry="3" style="stroke:#038048;stroke-width:1.0;"/><text fill="#000000" font-family="sans-serif" font-size="14" lengthAdjust="spacing" textLength="118" x="27" y="418.9951">isOpen : boolean</text><rect fill="none" height="6" style="stroke:#C82930;stroke-width:1.0;" width="6" x="15" y="428.9453"/><text fill="#000000" font-family="sans-serif" font-size="14" lengthAdjust="spacing" textLength="278" x="27" y="435.292">_currentFocusedElementIndex : number</text><rect fill="none" height="6" style="stroke:#C82930;stroke-width:1.0;" width="6" x="15" y="445.2422"/><text fill="#000000" font-family="sans-serif" font-size="14" lengthAdjust="spacing" textLength="180" x="27" y="451.5889">_eventBodyClick : Generic</text><rect fill="none" height="6" style="stroke:#C82930;stroke-width:1.0;" width="6" x="15" y="461.5391"/><text fill="#000000" font-family="sans-serif" font-size="14" lengthAdjust="spacing" textLength="197" x="27" y="467.8857">_eventOnKeypress : Generic</text><rect fill="none" height="6" style="stroke:#C82930;stroke-width:1.0;" width="6" x="15" y="477.8359"/><text fill="#000000" font-family="sans-serif" font-size="14" lengthAdjust="spacing" textLength="238" x="27" y="484.1826">_floatingInstance : FloatingPosition</text><rect fill="none" height="6" style="stroke:#C82930;stroke-width:1.0;" width="6" x="15" y="494.1328"/><text fill="#000000" font-family="sans-serif" font-size="14" lengthAdjust="spacing" textLength="277" x="27" y="500.4795">_floatingOptions : FloatingPositionConfig</text><rect fill="none" height="6" style="stroke:#C82930;stroke-width:1.0;" width="6" x="15" y="510.4297"/><text fill="#000000" font-family="sans-serif" font-size="14" lengthAdjust="spacing" textLength="359" x="27" y="516.7764">_focusableBalloonElements : NodeListOf&lt;Element&gt;</text><rect fill="none" height="6" style="stroke:#C82930;stroke-width:1.0;" width="6" x="15" y="526.7266"/><text fill="#000000" font-family="sans-serif" font-size="14" lengthAdjust="spacing" textLength="279" x="27" y="533.0732">_focusManagerInstance : FocusManager</text><rect fill="none" height="6" style="stroke:#C82930;stroke-width:1.0;" width="6" x="15" y="543.0234"/><text fill="#000000" font-family="sans-serif" font-size="14" lengthAdjust="spacing" textLength="221" x="27" y="549.3701">_focusTrapInstance : FocusTrap</text><rect fill="none" height="6" style="stroke:#C82930;stroke-width:1.0;" width="6" x="15" y="559.3203"/><text fill="#000000" font-family="sans-serif" font-size="14" lengthAdjust="spacing" textLength="181" x="27" y="565.667">_isOpenedByApi : boolean</text><rect fill="none" height="6" style="stroke:#C82930;stroke-width:1.0;" width="6" x="15" y="575.6172"/><text fill="#000000" font-family="sans-serif" font-size="14" lengthAdjust="spacing" textLength="179" x="27" y="581.9639">_onToggleEvent : Generic</text><line style="stroke:#272B30;stroke-width:0.5;" x1="8" x2="737" y1="589.2656" y2="589.2656"/><ellipse cx="18" cy="602.9141" fill="#84BE84" rx="3" ry="3" style="stroke:#038048;stroke-width:1.0;"/><text fill="#000000" font-family="sans-serif" font-size="14" lengthAdjust="spacing" textLength="84" x="27" y="606.2607">build() : void</text><ellipse cx="18" cy="619.2109" fill="#84BE84" rx="3" ry="3" style="stroke:#038048;stroke-width:1.0;"/><text fill="#000000" font-family="sans-serif" font-size="14" lengthAdjust="spacing" textLength="88" x="27" y="622.5576">close() : void</text><ellipse cx="18" cy="635.5078" fill="#84BE84" rx="3" ry="3" style="stroke:#038048;stroke-width:1.0;"/><text fill="#000000" font-family="sans-serif" font-size="14" lengthAdjust="spacing" textLength="106" x="27" y="638.8545">dispose() : void</text><ellipse cx="18" cy="651.8047" fill="#84BE84" rx="3" ry="3" style="stroke:#038048;stroke-width:1.0;"/><text fill="#000000" font-family="sans-serif" font-size="14" lengthAdjust="spacing" textLength="544" x="27" y="655.1514">open(isOpenedByApi: boolean, arrowKeyPressed: ArrowDown | ArrowUp) : void</text><ellipse cx="18" cy="668.1016" fill="#84BE84" rx="3" ry="3" style="stroke:#038048;stroke-width:1.0;"/><text fill="#000000" font-family="sans-serif" font-size="14" lengthAdjust="spacing" textLength="306" x="27" y="671.4482">setBalloonShape(shape: ShapeTypes) : void</text><ellipse cx="18" cy="684.3984" fill="#84BE84" rx="3" ry="3" style="stroke:#038048;stroke-width:1.0;"/><text fill="#000000" font-family="sans-serif" font-size="14" lengthAdjust="spacing" textLength="322" x="27" y="687.7451">setFloatingBehaviour(isUpdate: boolean) : void</text><ellipse cx="18" cy="700.6953" fill="#84BE84" rx="3" ry="3" style="stroke:#038048;stroke-width:1.0;"/><text fill="#000000" font-family="sans-serif" font-size="14" lengthAdjust="spacing" textLength="179" x="27" y="704.042">setFloatingConfigs() : void</text><ellipse cx="18" cy="716.9922" fill="#84BE84" rx="3" ry="3" style="stroke:#038048;stroke-width:1.0;"/><text fill="#000000" font-family="sans-serif" font-size="14" lengthAdjust="spacing" textLength="470" x="27" y="720.3389">updateFloatingConfigs(floatingConfigs: FloatingPositionConfig) : void</text><ellipse cx="18" cy="733.2891" fill="#84BE84" rx="3" ry="3" style="stroke:#038048;stroke-width:1.0;"/><text fill="#000000" font-family="sans-serif" font-size="14" lengthAdjust="spacing" textLength="374" x="27" y="736.6357">updatePositionOption(position: FloatingPosition) : void</text><rect fill="#F24D5C" height="6" style="stroke:#C82930;stroke-width:1.0;" width="6" x="15" y="746.5859"/><text fill="#000000" font-family="sans-serif" font-size="14" lengthAdjust="spacing" textLength="378" x="27" y="752.9326">_bodyClickCallback(_args: string, e: MouseEvent) : void</text><rect fill="#F24D5C" height="6" style="stroke:#C82930;stroke-width:1.0;" width="6" x="15" y="762.8828"/><text fill="#000000" font-family="sans-serif" font-size="14" lengthAdjust="spacing" textLength="207" x="27" y="769.2295">_handleFocusBehavior() : void</text><rect fill="#F24D5C" height="6" style="stroke:#C82930;stroke-width:1.0;" width="6" x="15" y="779.1797"/><text fill="#000000" font-family="sans-serif" font-size="14" lengthAdjust="spacing" textLength="527" x="27" y="785.5264">_manageFocusInsideBalloon(arrowKeyPressed: ArrowDown | ArrowUp) : void</text><rect fill="#F24D5C" height="6" style="stroke:#C82930;stroke-width:1.0;" width="6" x="15" y="795.4766"/><text fill="#000000" font-family="sans-serif" font-size="14" lengthAdjust="spacing" textLength="318" x="27" y="801.8232">_onkeypressCallback(e: KeyboardEvent) : void</text><rect fill="#F24D5C" height="6" style="stroke:#C82930;stroke-width:1.0;" width="6" x="15" y="811.7734"/><text fill="#000000" font-family="sans-serif" font-size="14" lengthAdjust="spacing" textLength="212" x="27" y="818.1201">_removeEventListeners() : void</text><rect fill="#F24D5C" height="6" style="stroke:#C82930;stroke-width:1.0;" width="6" x="15" y="828.0703"/><text fill="#000000" font-family="sans-serif" font-size="14" lengthAdjust="spacing" textLength="187" x="27" y="834.417">_setA11YProperties() : void</text><rect fill="#F24D5C" height="6" style="stroke:#C82930;stroke-width:1.0;" width="6" x="15" y="844.3672"/><text fill="#000000" font-family="sans-serif" font-size="14" lengthAdjust="spacing" textLength="145" x="27" y="850.7139">_setCallbacks() : void</text><rect fill="#F24D5C" height="6" style="stroke:#C82930;stroke-width:1.0;" width="6" x="15" y="860.6641"/><text fill="#000000" font-family="sans-serif" font-size="14" lengthAdjust="spacing" textLength="182" x="27" y="867.0107">_setEventListeners() : void</text><rect fill="#F24D5C" height="6" style="stroke:#C82930;stroke-width:1.0;" width="6" x="15" y="876.9609"/><text fill="#000000" font-family="sans-serif" font-size="14" lengthAdjust="spacing" textLength="705" x="27" y="883.3076">_toggleBalloon(isOpen: boolean, isBodyClick: boolean, arrowKeyPressed: ArrowDown | ArrowUp) : void</text><rect fill="#F24D5C" height="6" style="stroke:#C82930;stroke-width:1.0;" width="6" x="15" y="893.2578"/><text fill="#000000" font-family="sans-serif" font-size="14" lengthAdjust="spacing" textLength="163" x="27" y="899.6045">_unsetCallbacks() : void</text></g><!--reverse link IFeature to IBalloon--><g id="link_IFeature_IBalloon"><path codeLine="18" d="M279.9389,98.6871 C294.2789,119.9671 304.84,135.63 323.84,163.82 " fill="none" id="IFeature-backto-IBalloon" style="stroke:#272B30;stroke-width:1.0;"/><polygon fill="none" points="269.88,83.76,274.9633,102.0401,284.9146,95.3341,269.88,83.76" style="stroke:#272B30;stroke-width:1.0;"/></g><!--reverse link IOpenable to IBalloon--><g id="link_IOpenable_IBalloon"><path codeLine="24" d="M452.0086,119.0148 C439.5786,137.2948 435.23,143.71 421.58,163.78 " fill="none" id="IOpenable-backto-IBalloon" style="stroke:#272B30;stroke-width:1.0;"/><polygon fill="none" points="462.13,104.13,447.047,115.641,456.9703,122.3886,462.13,104.13" style="stroke:#272B30;stroke-width:1.0;"/></g><!--reverse link IBalloon to Balloon<PT>--><g id="link_IBalloon_Balloon&lt;PT&gt;"><path codeLine="57" d="M372.5,328.35 C372.5,346.22 372.5,348.43 372.5,369.83 " fill="none" id="IBalloon-backto-Balloon&lt;PT&gt;" style="stroke:#272B30;stroke-width:1.0;stroke-dasharray:7.0,7.0;"/><polygon fill="none" points="372.5,310.35,366.5,328.35,378.5,328.35,372.5,310.35" style="stroke:#272B30;stroke-width:1.0;"/></g><!--SRC=[rLLDQnin4BtxLuZqigLnQD92mPX0x2ObjAaDTGuz1UrgrXRMQeIaTMgQ_FUETcLtFrn3FoxrOR56RxHFRzxCkhNKXbjUiAdYpbrPYuzJL6ZPYujt5-cRrmFNHapG2h378JnRBosMMaHOdkSDJ6yx0_5MyC5A2c1G6Bzb1VWL2jSCvH8KHQJsO7EU0JkvdN2b4FK9-pvWz7ibtSo0PYEM8YhWkevc2XqaBocyGIdgc93EzAD8sKbz28Z9zih8_L6dZ0TbFi9sRi4v42DMIVKU7pLxgl_Vc_Pn3dna-6N53IGkF4UiMYos1bmRNXh1FSpHIIzHpqnu9YOkH-n68VTIBtU0VV9pIvCRuBwqiDUaTzFdGGCqVXeE6qAsJWeoy5J17yXxHCWMZv-lw1B9We_OILoFvulBupI63rbfBMX_Wrb9vRbMKD3gLWluHb1T5YdOY8GDxKnGRATAPclQ_K0qhSoQspDDfJQXrBtzF1RYLZlFDKdLhqq7MTVI7G1EKUTokOC7wa6EUEjuXv3t6GLyaixFyd6CNZQJxhZcIx1DHerm4xcmt7HX8HOnhPhr94QzmELImNLGgAFBgxIKIdHyyB-q7i5tbPd0YcyabfROt5STsRTkDwUkeaiEzNCNaxVNlxB4lnaDTTdIdTMd94bAmpTvu3QysdbBMQUChdY7r3LLNJl9Aww5WiedKHgRT215PRCAGjQYYHsbJtwxRi5YwzXtUxB4Ziv8aLjnYA250ZSrzT0XmPAkov1gTNL-_dLkoMRMIpW4sBtlqDxnqttL5BjBroPkk5Uw_Qpv6qyF7qfzc6QOfFjFuVZfxAmzDty0]--></g></svg>