<?xml version="1.0" encoding="UTF-8" standalone="no"?><svg xmlns="http://www.w3.org/2000/svg" xmlns:xlink="http://www.w3.org/1999/xlink" contentScriptType="application/ecmascript" contentStyleType="text/css" height="1166px" preserveAspectRatio="none" style="width:694px;height:1166px;background:#CED4DA;" version="1.1" viewBox="0 0 694 1166" width="694px" zoomAndPan="magnify"><defs><filter height="300%" id="f1p71wi18g6kq6" width="300%" x="-1" y="-1"><feGaussianBlur result="blurOut" stdDeviation="2.0"/><feColorMatrix in="blurOut" result="blurOut2" type="matrix" values="0 0 0 0 0 0 0 0 0 0 0 0 0 0 0 0 0 0 .4 0"/><feOffset dx="4.0" dy="4.0" in="blurOut2" result="blurOut3"/><feBlend in="SourceGraphic" in2="blurOut3" mode="normal"/></filter></defs><g><!--MD5=[6c754ebf3671e96461b610d8f4eb494a]
class IBottomSheet--><rect codeLine="7" fill="#FFFFFF" filter="url(#f1p71wi18g6kq6)" height="190.5059" id="IBottomSheet" style="stroke:#272B30;stroke-width:1.5;" width="403" x="143" y="219"/><ellipse cx="303.25" cy="235" fill="#B4A7E5" rx="11" ry="11" style="stroke:#272B30;stroke-width:1.0;"/><path d="M299.6777,231.2651 L299.6777,229.1069 L307.0571,229.1069 L307.0571,231.2651 L304.5918,231.2651 L304.5918,239.3418 L307.0571,239.3418 L307.0571,241.5 L299.6777,241.5 L299.6777,239.3418 L302.1431,239.3418 L302.1431,231.2651 Z " fill="#000000"/><text fill="#000000" font-family="sans-serif" font-size="12" font-style="italic" lengthAdjust="spacing" textLength="74" x="323.75" y="239.5352">IBottomSheet</text><line style="stroke:#272B30;stroke-width:1.5;" x1="144" x2="545" y1="251" y2="251"/><ellipse cx="154" cy="262" rx="3" ry="3" style="stroke:#038048;stroke-width:1.0;fill:none;"/><text fill="#000000" font-family="sans-serif" font-size="11" lengthAdjust="spacing" textLength="84" x="163" y="265.6348">isBuilt : boolean</text><ellipse cx="154" cy="274.9551" rx="3" ry="3" style="stroke:#038048;stroke-width:1.0;fill:none;"/><text fill="#000000" font-family="sans-serif" font-size="11" lengthAdjust="spacing" textLength="142" x="163" y="278.5898">selfElement : HTMLElement</text><ellipse cx="154" cy="287.9102" rx="3" ry="3" style="stroke:#038048;stroke-width:1.0;fill:none;"/><text fill="#000000" font-family="sans-serif" font-size="11" lengthAdjust="spacing" textLength="88" x="163" y="291.5449">uniqueId : string</text><ellipse cx="154" cy="300.8652" rx="3" ry="3" style="stroke:#038048;stroke-width:1.0;fill:none;"/><text fill="#000000" font-family="sans-serif" font-size="11" lengthAdjust="spacing" textLength="86" x="163" y="304.5">widgetId : string</text><line style="stroke:#272B30;stroke-width:1.5;" x1="144" x2="545" y1="310.8203" y2="310.8203"/><ellipse cx="154" cy="321.8203" fill="#84BE84" rx="3" ry="3" style="stroke:#038048;stroke-width:1.0;"/><text fill="#000000" font-family="sans-serif" font-size="11" lengthAdjust="spacing" textLength="67" x="163" y="325.4551">build() : void</text><ellipse cx="154" cy="334.7754" fill="#84BE84" rx="3" ry="3" style="stroke:#038048;stroke-width:1.0;"/><text fill="#000000" font-family="sans-serif" font-size="11" lengthAdjust="spacing" textLength="377" x="163" y="338.4102">changeProperty(propertyName: string, propertyValue: unknown) : void</text><ellipse cx="154" cy="347.7305" fill="#84BE84" rx="3" ry="3" style="stroke:#038048;stroke-width:1.0;"/><text fill="#000000" font-family="sans-serif" font-size="11" lengthAdjust="spacing" textLength="64" x="163" y="351.3652">close() : any</text><ellipse cx="154" cy="360.6855" fill="#84BE84" rx="3" ry="3" style="stroke:#038048;stroke-width:1.0;"/><text fill="#000000" font-family="sans-serif" font-size="11" lengthAdjust="spacing" textLength="82" x="163" y="364.3203">dispose() : void</text><ellipse cx="154" cy="373.6406" fill="#84BE84" rx="3" ry="3" style="stroke:#038048;stroke-width:1.0;"/><text fill="#000000" font-family="sans-serif" font-size="11" lengthAdjust="spacing" textLength="168" x="163" y="377.2754">equalsToID(id: string) : boolean</text><ellipse cx="154" cy="386.5957" fill="#84BE84" rx="3" ry="3" style="stroke:#038048;stroke-width:1.0;"/><text fill="#000000" font-family="sans-serif" font-size="11" lengthAdjust="spacing" textLength="63" x="163" y="390.2305">open() : any</text><ellipse cx="154" cy="399.5508" fill="#84BE84" rx="3" ry="3" style="stroke:#038048;stroke-width:1.0;"/><text fill="#000000" font-family="sans-serif" font-size="11" lengthAdjust="spacing" textLength="213" x="163" y="403.1855">registerCallback(callback: Generic) : any</text><!--MD5=[3266101ea6228889a90c639b28de0501]
class IPattern--><rect codeLine="20" fill="#FFFFFF" filter="url(#f1p71wi18g6kq6)" height="151.6406" id="IPattern" style="stroke:#272B30;stroke-width:1.5;" width="403" x="143" y="7"/><ellipse cx="318.25" cy="23" fill="#B4A7E5" rx="11" ry="11" style="stroke:#272B30;stroke-width:1.0;"/><path d="M314.6777,19.2651 L314.6777,17.1069 L322.0571,17.1069 L322.0571,19.2651 L319.5918,19.2651 L319.5918,27.3418 L322.0571,27.3418 L322.0571,29.5 L314.6777,29.5 L314.6777,27.3418 L317.1431,27.3418 L317.1431,19.2651 Z " fill="#000000"/><text fill="#000000" font-family="sans-serif" font-size="12" font-style="italic" lengthAdjust="spacing" textLength="44" x="338.75" y="27.5352">IPattern</text><line style="stroke:#272B30;stroke-width:1.5;" x1="144" x2="545" y1="39" y2="39"/><ellipse cx="154" cy="50" rx="3" ry="3" style="stroke:#038048;stroke-width:1.0;fill:none;"/><text fill="#000000" font-family="sans-serif" font-size="11" lengthAdjust="spacing" textLength="84" x="163" y="53.6348">isBuilt : boolean</text><ellipse cx="154" cy="62.9551" rx="3" ry="3" style="stroke:#038048;stroke-width:1.0;fill:none;"/><text fill="#000000" font-family="sans-serif" font-size="11" lengthAdjust="spacing" textLength="142" x="163" y="66.5898">selfElement : HTMLElement</text><ellipse cx="154" cy="75.9102" rx="3" ry="3" style="stroke:#038048;stroke-width:1.0;fill:none;"/><text fill="#000000" font-family="sans-serif" font-size="11" lengthAdjust="spacing" textLength="88" x="163" y="79.5449">uniqueId : string</text><ellipse cx="154" cy="88.8652" rx="3" ry="3" style="stroke:#038048;stroke-width:1.0;fill:none;"/><text fill="#000000" font-family="sans-serif" font-size="11" lengthAdjust="spacing" textLength="86" x="163" y="92.5">widgetId : string</text><line style="stroke:#272B30;stroke-width:1.5;" x1="144" x2="545" y1="98.8203" y2="98.8203"/><ellipse cx="154" cy="109.8203" fill="#84BE84" rx="3" ry="3" style="stroke:#038048;stroke-width:1.0;"/><text fill="#000000" font-family="sans-serif" font-size="11" lengthAdjust="spacing" textLength="67" x="163" y="113.4551">build() : void</text><ellipse cx="154" cy="122.7754" fill="#84BE84" rx="3" ry="3" style="stroke:#038048;stroke-width:1.0;"/><text fill="#000000" font-family="sans-serif" font-size="11" lengthAdjust="spacing" textLength="377" x="163" y="126.4102">changeProperty(propertyName: string, propertyValue: unknown) : void</text><ellipse cx="154" cy="135.7305" fill="#84BE84" rx="3" ry="3" style="stroke:#038048;stroke-width:1.0;"/><text fill="#000000" font-family="sans-serif" font-size="11" lengthAdjust="spacing" textLength="82" x="163" y="139.3652">dispose() : void</text><ellipse cx="154" cy="148.6855" fill="#84BE84" rx="3" ry="3" style="stroke:#038048;stroke-width:1.0;"/><text fill="#000000" font-family="sans-serif" font-size="11" lengthAdjust="spacing" textLength="168" x="163" y="152.3203">equalsToID(id: string) : boolean</text><!--MD5=[3c37e883ecbb1305e13bef88cdb28d29]
class BottomSheet--><rect codeLine="31" fill="#FFFFFF" filter="url(#f1p71wi18g6kq6)" height="682.7988" id="BottomSheet" style="stroke:#272B30;stroke-width:1.5;" width="671" x="9" y="470"/><ellipse cx="304.75" cy="486" fill="#ADD1B2" rx="11" ry="11" style="stroke:#272B30;stroke-width:1.0;"/><path d="M307.2231,492.1431 Q306.6421,492.4419 306.0029,492.5913 Q305.3638,492.7407 304.6582,492.7407 Q302.1514,492.7407 300.8315,491.0889 Q299.5117,489.437 299.5117,486.3159 Q299.5117,483.1865 300.8315,481.5347 Q302.1514,479.8828 304.6582,479.8828 Q305.3638,479.8828 306.0112,480.0322 Q306.6587,480.1816 307.2231,480.4805 L307.2231,483.2031 Q306.5923,482.6221 305.9988,482.3523 Q305.4053,482.0825 304.7744,482.0825 Q303.4297,482.0825 302.7449,483.1492 Q302.0601,484.2158 302.0601,486.3159 Q302.0601,488.4077 302.7449,489.4744 Q303.4297,490.541 304.7744,490.541 Q305.4053,490.541 305.9988,490.2712 Q306.5923,490.0015 307.2231,489.4204 Z " fill="#000000"/><text fill="#000000" font-family="sans-serif" font-size="12" lengthAdjust="spacing" textLength="71" x="325.25" y="490.5352">BottomSheet</text><line style="stroke:#272B30;stroke-width:1.5;" x1="10" x2="679" y1="502" y2="502"/><ellipse cx="20" cy="513" rx="3" ry="3" style="stroke:#038048;stroke-width:1.0;fill:none;"/><text fill="#000000" font-family="sans-serif" font-size="11" lengthAdjust="spacing" textLength="176" x="29" y="516.6348">springAnimationConfigs : Object</text><polygon fill="none" points="20,520.9551,24,524.9551,20,528.9551,16,524.9551" style="stroke:#B38D22;stroke-width:1.0;"/><text fill="#000000" font-family="sans-serif" font-size="11" lengthAdjust="spacing" textLength="131" x="29" y="529.5898">_selfElem : HTMLElement</text><polygon fill="none" points="20,533.9102,24,537.9102,20,541.9102,16,537.9102" style="stroke:#B38D22;stroke-width:1.0;"/><text fill="#000000" font-family="sans-serif" font-size="11" lengthAdjust="spacing" textLength="92" x="29" y="542.5449">_widgetId : string</text><rect fill="none" height="6" style="stroke:#C82930;stroke-width:1.0;" width="6" x="17" y="548.8652"/><text fill="#000000" font-family="sans-serif" font-size="11" lengthAdjust="spacing" textLength="230" x="29" y="555.5">_animateOnDragInstance : AnimateOnDrag</text><rect fill="none" height="6" style="stroke:#C82930;stroke-width:1.0;" width="6" x="17" y="561.8203"/><text fill="#000000" font-family="sans-serif" font-size="11" lengthAdjust="spacing" textLength="223" x="29" y="568.4551">_bottomSheetContentElem : HTMLElement</text><rect fill="none" height="6" style="stroke:#C82930;stroke-width:1.0;" width="6" x="17" y="574.7754"/><text fill="#000000" font-family="sans-serif" font-size="11" lengthAdjust="spacing" textLength="218" x="29" y="581.4102">_bottomSheetHeaderElem : HTMLElement</text><rect fill="none" height="6" style="stroke:#C82930;stroke-width:1.0;" width="6" x="17" y="587.7305"/><text fill="#000000" font-family="sans-serif" font-size="11" lengthAdjust="spacing" textLength="174" x="29" y="594.3652">_eventOnContentScroll : Generic</text><rect fill="none" height="6" style="stroke:#C82930;stroke-width:1.0;" width="6" x="17" y="600.6855"/><text fill="#000000" font-family="sans-serif" font-size="11" lengthAdjust="spacing" textLength="150" x="29" y="607.3203">_eventOnKeypress : Generic</text><rect fill="none" height="6" style="stroke:#C82930;stroke-width:1.0;" width="6" x="17" y="613.6406"/><text fill="#000000" font-family="sans-serif" font-size="11" lengthAdjust="spacing" textLength="205" x="29" y="620.2754">_firstFocusableElement : HTMLElement</text><rect fill="none" height="6" style="stroke:#C82930;stroke-width:1.0;" width="6" x="17" y="626.5957"/><text fill="#000000" font-family="sans-serif" font-size="11" lengthAdjust="spacing" textLength="214" x="29" y="633.2305">_focusableActiveElement : HTMLElement</text><rect fill="none" height="6" style="stroke:#C82930;stroke-width:1.0;" width="6" x="17" y="639.5508"/><text fill="#000000" font-family="sans-serif" font-size="11" lengthAdjust="spacing" textLength="195" x="29" y="646.1855">_focusableElements : HTMLElement[]</text><rect fill="none" height="6" style="stroke:#C82930;stroke-width:1.0;" width="6" x="17" y="652.5059"/><text fill="#000000" font-family="sans-serif" font-size="11" lengthAdjust="spacing" textLength="172" x="29" y="659.1406">_focusTrapInstance : FocusTrap</text><rect fill="none" height="6" style="stroke:#C82930;stroke-width:1.0;" width="6" x="17" y="665.4609"/><text fill="#000000" font-family="sans-serif" font-size="11" lengthAdjust="spacing" textLength="185" x="29" y="672.0957">_gestureEventInstance : DragEvent</text><rect fill="none" height="6" style="stroke:#C82930;stroke-width:1.0;" width="6" x="17" y="678.416"/><text fill="#000000" font-family="sans-serif" font-size="11" lengthAdjust="spacing" textLength="154" x="29" y="685.0508">_hasGestureEvents : boolean</text><rect fill="none" height="6" style="stroke:#C82930;stroke-width:1.0;" width="6" x="17" y="691.3711"/><text fill="#000000" font-family="sans-serif" font-size="11" lengthAdjust="spacing" textLength="96" x="29" y="698.0059">_isOpen : boolean</text><rect fill="none" height="6" style="stroke:#C82930;stroke-width:1.0;" width="6" x="17" y="704.3262"/><text fill="#000000" font-family="sans-serif" font-size="11" lengthAdjust="spacing" textLength="202" x="29" y="710.9609">_lastFocusableElement : HTMLElement</text><rect fill="none" height="6" style="stroke:#C82930;stroke-width:1.0;" width="6" x="17" y="717.2813"/><text fill="#000000" font-family="sans-serif" font-size="11" lengthAdjust="spacing" textLength="141" x="29" y="723.916">_parentSelf : HTMLElement</text><rect fill="none" height="6" style="stroke:#C82930;stroke-width:1.0;" width="6" x="17" y="730.2363"/><text fill="#000000" font-family="sans-serif" font-size="11" lengthAdjust="spacing" textLength="307" x="29" y="736.8711">_platformEventOnToggle : OSBottomSheetOnToggleEvent</text><line style="stroke:#272B30;stroke-width:1.5;" x1="10" x2="679" y1="743.1914" y2="743.1914"/><ellipse cx="20" cy="754.1914" fill="#84BE84" rx="3" ry="3" style="stroke:#038048;stroke-width:1.0;"/><text fill="#000000" font-family="sans-serif" font-size="11" lengthAdjust="spacing" textLength="67" x="29" y="757.8262">build() : void</text><ellipse cx="20" cy="767.1465" fill="#84BE84" rx="3" ry="3" style="stroke:#038048;stroke-width:1.0;"/><text fill="#000000" font-family="sans-serif" font-size="11" lengthAdjust="spacing" textLength="377" x="29" y="770.7813">changeProperty(propertyName: string, propertyValue: unknown) : void</text><ellipse cx="20" cy="780.1016" fill="#84BE84" rx="3" ry="3" style="stroke:#038048;stroke-width:1.0;"/><text fill="#000000" font-family="sans-serif" font-size="11" lengthAdjust="spacing" textLength="68" x="29" y="783.7363">close() : void</text><ellipse cx="20" cy="793.0566" fill="#84BE84" rx="3" ry="3" style="stroke:#038048;stroke-width:1.0;"/><text fill="#000000" font-family="sans-serif" font-size="11" lengthAdjust="spacing" textLength="82" x="29" y="796.6914">dispose() : void</text><ellipse cx="20" cy="806.0117" fill="#84BE84" rx="3" ry="3" style="stroke:#038048;stroke-width:1.0;"/><text fill="#000000" font-family="sans-serif" font-size="11" lengthAdjust="spacing" textLength="207" x="29" y="809.6465">equalsToID(patternId: string) : boolean</text><ellipse cx="20" cy="818.9668" fill="#84BE84" rx="3" ry="3" style="stroke:#038048;stroke-width:1.0;"/><text fill="#000000" font-family="sans-serif" font-size="11" lengthAdjust="spacing" textLength="67" x="29" y="822.6016">open() : void</text><ellipse cx="20" cy="831.9219" fill="#84BE84" rx="3" ry="3" style="stroke:#038048;stroke-width:1.0;"/><text fill="#000000" font-family="sans-serif" font-size="11" lengthAdjust="spacing" textLength="217" x="29" y="835.5566">registerCallback(callback: Generic) : void</text><ellipse cx="20" cy="844.877" fill="#84BE84" rx="3" ry="3" style="stroke:#038048;stroke-width:1.0;"/><text fill="#000000" font-family="sans-serif" font-size="11" lengthAdjust="spacing" textLength="157" x="29" y="848.5117">removeGestureEvents() : void</text><polygon fill="#FFFF44" points="20,852.832,24,856.832,20,860.832,16,856.832" style="stroke:#B38D22;stroke-width:1.0;"/><text fill="#000000" font-family="sans-serif" font-size="11" lengthAdjust="spacing" textLength="96" x="29" y="861.4668">finishBuild() : void</text><polygon fill="#FFFF44" points="20,865.7871,24,869.7871,20,873.7871,16,869.7871" style="stroke:#B38D22;stroke-width:1.0;"/><text fill="#000000" font-family="sans-serif" font-size="11" lengthAdjust="spacing" textLength="158" x="29" y="874.4219">removeEventListeners() : void</text><polygon fill="#FFFF44" points="20,878.7422,24,882.7422,20,886.7422,16,882.7422" style="stroke:#B38D22;stroke-width:1.0;"/><text fill="#000000" font-family="sans-serif" font-size="11" lengthAdjust="spacing" textLength="139" x="29" y="887.377">setA11yProperties() : void</text><polygon fill="#FFFF44" points="20,891.6973,24,895.6973,20,899.6973,16,895.6973" style="stroke:#B38D22;stroke-width:1.0;"/><text fill="#000000" font-family="sans-serif" font-size="11" lengthAdjust="spacing" textLength="107" x="29" y="900.332">setCallbacks() : void</text><polygon fill="#FFFF44" points="20,904.6523,24,908.6523,20,912.6523,16,908.6523" style="stroke:#B38D22;stroke-width:1.0;"/><text fill="#000000" font-family="sans-serif" font-size="11" lengthAdjust="spacing" textLength="134" x="29" y="913.2871">setEventListeners() : void</text><polygon fill="#FFFF44" points="20,917.6074,24,921.6074,20,925.6074,16,921.6074" style="stroke:#B38D22;stroke-width:1.0;"/><text fill="#000000" font-family="sans-serif" font-size="11" lengthAdjust="spacing" textLength="645" x="29" y="926.2422">setGestureEvents(onGestureStart: onGestureStart, onGestureMove: onGestureMove, onGestureEnd: onGestureEnd) : void</text><polygon fill="#FFFF44" points="20,930.5625,24,934.5625,20,938.5625,16,934.5625" style="stroke:#B38D22;stroke-width:1.0;"/><text fill="#000000" font-family="sans-serif" font-size="11" lengthAdjust="spacing" textLength="129" x="29" y="939.1973">setHtmlElements() : void</text><polygon fill="#FFFF44" points="20,943.5176,24,947.5176,20,951.5176,16,947.5176" style="stroke:#B38D22;stroke-width:1.0;"/><text fill="#000000" font-family="sans-serif" font-size="11" lengthAdjust="spacing" textLength="128" x="29" y="952.1523">setInitialOptions() : void</text><polygon fill="#FFFF44" points="20,956.4727,24,960.4727,20,964.4727,16,960.4727" style="stroke:#B38D22;stroke-width:1.0;"/><text fill="#000000" font-family="sans-serif" font-size="11" lengthAdjust="spacing" textLength="121" x="29" y="965.1074">unsetCallbacks() : void</text><polygon fill="#FFFF44" points="20,969.4277,24,973.4277,20,977.4277,16,973.4277" style="stroke:#B38D22;stroke-width:1.0;"/><text fill="#000000" font-family="sans-serif" font-size="11" lengthAdjust="spacing" textLength="143" x="29" y="978.0625">unsetHtmlElements() : void</text><rect fill="#F24D5C" height="6" style="stroke:#C82930;stroke-width:1.0;" width="6" x="17" y="984.3828"/><text fill="#000000" font-family="sans-serif" font-size="11" lengthAdjust="spacing" textLength="159" x="29" y="991.0176">_focusBottomCallback() : void</text><rect fill="#F24D5C" height="6" style="stroke:#C82930;stroke-width:1.0;" width="6" x="17" y="997.3379"/><text fill="#000000" font-family="sans-serif" font-size="11" lengthAdjust="spacing" textLength="142" x="29" y="1003.9727">_focusTopCallback() : void</text><rect fill="#F24D5C" height="6" style="stroke:#C82930;stroke-width:1.0;" width="6" x="17" y="1010.293"/><text fill="#000000" font-family="sans-serif" font-size="11" lengthAdjust="spacing" textLength="139" x="29" y="1016.9277">_handleFocusTrap() : void</text><rect fill="#F24D5C" height="6" style="stroke:#C82930;stroke-width:1.0;" width="6" x="17" y="1023.248"/><text fill="#000000" font-family="sans-serif" font-size="11" lengthAdjust="spacing" textLength="159" x="29" y="1029.8828">_handleGestureEvents() : void</text><rect fill="#F24D5C" height="6" style="stroke:#C82930;stroke-width:1.0;" width="6" x="17" y="1036.2031"/><text fill="#000000" font-family="sans-serif" font-size="11" lengthAdjust="spacing" textLength="216" x="29" y="1042.8379">_handleShape(shape: ShapeTypes) : void</text><rect fill="#F24D5C" height="6" style="stroke:#C82930;stroke-width:1.0;" width="6" x="17" y="1049.1582"/><text fill="#000000" font-family="sans-serif" font-size="11" lengthAdjust="spacing" textLength="178" x="29" y="1055.793">_onContentScrollCallback() : void</text><rect fill="#F24D5C" height="6" style="stroke:#C82930;stroke-width:1.0;" width="6" x="17" y="1062.1133"/><text fill="#000000" font-family="sans-serif" font-size="11" lengthAdjust="spacing" textLength="409" x="29" y="1068.748">_onGestureEnd(offsetX: number, offsetY: number, timeTaken: number) : void</text><rect fill="#F24D5C" height="6" style="stroke:#C82930;stroke-width:1.0;" width="6" x="17" y="1075.0684"/><text fill="#000000" font-family="sans-serif" font-size="11" lengthAdjust="spacing" textLength="520" x="29" y="1081.7031">_onGestureMove(x: number, y: number, offsetX: number, offsetY: number, evt: TouchEvent) : void</text><rect fill="#F24D5C" height="6" style="stroke:#C82930;stroke-width:1.0;" width="6" x="17" y="1088.0234"/><text fill="#000000" font-family="sans-serif" font-size="11" lengthAdjust="spacing" textLength="242" x="29" y="1094.6582">_onGestureStart(x: number, y: number) : void</text><rect fill="#F24D5C" height="6" style="stroke:#C82930;stroke-width:1.0;" width="6" x="17" y="1100.9785"/><text fill="#000000" font-family="sans-serif" font-size="11" lengthAdjust="spacing" textLength="245" x="29" y="1107.6133">_onkeypressCallback(e: KeyboardEvent) : void</text><rect fill="#F24D5C" height="6" style="stroke:#C82930;stroke-width:1.0;" width="6" x="17" y="1113.9336"/><text fill="#000000" font-family="sans-serif" font-size="11" lengthAdjust="spacing" textLength="234" x="29" y="1120.5684">_toggleBottomSheet(isOpen: boolean) : void</text><rect fill="#F24D5C" height="6" style="stroke:#C82930;stroke-width:1.0;" width="6" x="17" y="1126.8887"/><text fill="#000000" font-family="sans-serif" font-size="11" lengthAdjust="spacing" textLength="241" x="29" y="1133.5234">_toggleHandler(ShowHandler: boolean) : void</text><rect fill="#F24D5C" height="6" style="stroke:#C82930;stroke-width:1.0;" width="6" x="17" y="1139.8438"/><text fill="#000000" font-family="sans-serif" font-size="11" lengthAdjust="spacing" textLength="165" x="29" y="1146.4785">_triggerOnToggleEvent() : void</text><!--MD5=[79c79003c203811dfe337e3d02ceefd5]
reverse link IPattern to IBottomSheet--><path codeLine="30" d="M344.5,179.32 C344.5,192.4 344.5,205.83 344.5,218.9 " fill="none" id="IPattern-backto-IBottomSheet" style="stroke:#272B30;stroke-width:1.0;"/><polygon fill="none" points="337.5,179.15,344.5,159.15,351.5,179.15,337.5,179.15" style="stroke:#272B30;stroke-width:1.0;"/><!--MD5=[a3c94e5cfd4c9109706acd2369d1bde2]
reverse link IBottomSheet to BottomSheet--><path codeLine="82" d="M344.5,430.1 C344.5,442.8 344.5,456.17 344.5,469.98 " fill="none" id="IBottomSheet-backto-BottomSheet" style="stroke:#272B30;stroke-width:1.0;stroke-dasharray:7.0,7.0;"/><polygon fill="none" points="337.5,430.06,344.5,410.06,351.5,430.06,337.5,430.06" style="stroke:#272B30;stroke-width:1.0;"/><!--MD5=[5111376eab97c3ab413f649f919160e9]
@startuml
skinparam ClassArrowColor #272b30
skinparam ClassBorderColor #272b30
skinparam ClassBackgroundColor #fff
skinparam BackgroundColor #ced4da
hide empty methods
hide empty fields
interface "IBottomSheet" {
    +isBuilt : boolean
    +selfElement : HTMLElement
    +uniqueId : string
    +widgetId : string
    +build() : void
    +changeProperty(propertyName: string, propertyValue: unknown) : void
    +close() : any
    +dispose() : void
    +equalsToID(id: string) : boolean
    +open() : any
    +registerCallback(callback: Generic) : any
}
interface "IPattern" {
    +isBuilt : boolean
    +selfElement : HTMLElement
    +uniqueId : string
    +widgetId : string
    +build() : void
    +changeProperty(propertyName: string, propertyValue: unknown) : void
    +dispose() : void
    +equalsToID(id: string) : boolean
}
"IPattern" <|- - "IBottomSheet"
class "BottomSheet" {
    +springAnimationConfigs : Object
    #_selfElem : HTMLElement
    #_widgetId : string
    -_animateOnDragInstance : AnimateOnDrag
    -_bottomSheetContentElem : HTMLElement
    -_bottomSheetHeaderElem : HTMLElement
    -_eventOnContentScroll : Generic
    -_eventOnKeypress : Generic
    -_firstFocusableElement : HTMLElement
    -_focusableActiveElement : HTMLElement
    -_focusableElements : HTMLElement[]
    -_focusTrapInstance : FocusTrap
    -_gestureEventInstance : DragEvent
    -_hasGestureEvents : boolean
    -_isOpen : boolean
    -_lastFocusableElement : HTMLElement
    -_parentSelf : HTMLElement
    -_platformEventOnToggle : OSBottomSheetOnToggleEvent
    +build() : void
    +changeProperty(propertyName: string, propertyValue: unknown) : void
    +close() : void
    +dispose() : void
    +equalsToID(patternId: string) : boolean
    +open() : void
    +registerCallback(callback: Generic) : void
    +removeGestureEvents() : void
    #finishBuild() : void
    #removeEventListeners() : void
    #setA11yProperties() : void
    #setCallbacks() : void
    #setEventListeners() : void
    #setGestureEvents(onGestureStart: onGestureStart, onGestureMove: onGestureMove, onGestureEnd: onGestureEnd) : void
    #setHtmlElements() : void
    #setInitialOptions() : void
    #unsetCallbacks() : void
    #unsetHtmlElements() : void
    -_focusBottomCallback() : void
    -_focusTopCallback() : void
    -_handleFocusTrap() : void
    -_handleGestureEvents() : void
    -_handleShape(shape: ShapeTypes) : void
    -_onContentScrollCallback() : void
    -_onGestureEnd(offsetX: number, offsetY: number, timeTaken: number) : void
    -_onGestureMove(x: number, y: number, offsetX: number, offsetY: number, evt: TouchEvent) : void
    -_onGestureStart(x: number, y: number) : void
    -_onkeypressCallback(e: KeyboardEvent) : void
    -_toggleBottomSheet(isOpen: boolean) : void
    -_toggleHandler(ShowHandler: boolean) : void
    -_triggerOnToggleEvent() : void
}
"IBottomSheet" <|.. "BottomSheet"
@enduml

PlantUML version 1.2021.14(Fri Nov 12 16:46:50 WET 2021)
(GPL source distribution)
Java Runtime: Java(TM) SE Runtime Environment
JVM: Java HotSpot(TM) 64-Bit Server VM
Default Encoding: UTF-8
Language: en
Country: PT
--></g></svg>