<?xml version="1.0" encoding="us-ascii" standalone="no"?><svg xmlns="http://www.w3.org/2000/svg" xmlns:xlink="http://www.w3.org/1999/xlink" contentStyleType="text/css" height="1353px" preserveAspectRatio="none" style="width:843px;height:1353px;background:#CED4DA;" version="1.1" viewBox="0 0 843 1353" width="843px" zoomAndPan="magnify"><defs/><g><rect fill="#CED4DA" height="1353" style="stroke:none;stroke-width:1.0;" width="843" x="0" y="0"/><!--class IBottomSheet--><g id="elem_IBottomSheet"><rect codeLine="7" fill="#FFFFFF" height="227.2656" id="IBottomSheet" rx="2.5" ry="2.5" style="stroke:#272B30;stroke-width:0.5;" width="510" x="167.5" y="262"/><ellipse cx="370.25" cy="278" fill="#B4A7E5" rx="11" ry="11" style="stroke:#181818;stroke-width:1.0;"/><path d="M366.1719,273.7656 L366.1719,271.6094 L373.5625,271.6094 L373.5625,273.7656 L371.0938,273.7656 L371.0938,281.8438 L373.5625,281.8438 L373.5625,284 L366.1719,284 L366.1719,281.8438 L368.6406,281.8438 L368.6406,273.7656 L366.1719,273.7656 Z " fill="#000000"/><text fill="#000000" font-family="sans-serif" font-size="14" font-style="italic" lengthAdjust="spacing" textLength="96" x="390.75" y="282.8467">IBottomSheet</text><line style="stroke:#272B30;stroke-width:0.5;" x1="168.5" x2="676.5" y1="294" y2="294"/><ellipse cx="178.5" cy="307.6484" fill="none" rx="3" ry="3" style="stroke:#038048;stroke-width:1.0;"/><text fill="#000000" font-family="sans-serif" font-size="14" lengthAdjust="spacing" textLength="110" x="187.5" y="310.9951">isBuilt : boolean</text><ellipse cx="178.5" cy="323.9453" fill="none" rx="3" ry="3" style="stroke:#038048;stroke-width:1.0;"/><text fill="#000000" font-family="sans-serif" font-size="14" lengthAdjust="spacing" textLength="189" x="187.5" y="327.292">selfElement : HTMLElement</text><ellipse cx="178.5" cy="340.2422" fill="none" rx="3" ry="3" style="stroke:#038048;stroke-width:1.0;"/><text fill="#000000" font-family="sans-serif" font-size="14" lengthAdjust="spacing" textLength="112" x="187.5" y="343.5889">uniqueId : string</text><ellipse cx="178.5" cy="356.5391" fill="none" rx="3" ry="3" style="stroke:#038048;stroke-width:1.0;"/><text fill="#000000" font-family="sans-serif" font-size="14" lengthAdjust="spacing" textLength="110" x="187.5" y="359.8857">widgetId : string</text><line style="stroke:#272B30;stroke-width:0.5;" x1="168.5" x2="676.5" y1="367.1875" y2="367.1875"/><ellipse cx="178.5" cy="380.8359" fill="#84BE84" rx="3" ry="3" style="stroke:#038048;stroke-width:1.0;"/><text fill="#000000" font-family="sans-serif" font-size="14" lengthAdjust="spacing" textLength="84" x="187.5" y="384.1826">build() : void</text><ellipse cx="178.5" cy="397.1328" fill="#84BE84" rx="3" ry="3" style="stroke:#038048;stroke-width:1.0;"/><text fill="#000000" font-family="sans-serif" font-size="14" lengthAdjust="spacing" textLength="484" x="187.5" y="400.4795">changeProperty(propertyName: string, propertyValue: unknown) : void</text><ellipse cx="178.5" cy="413.4297" fill="#84BE84" rx="3" ry="3" style="stroke:#038048;stroke-width:1.0;"/><text fill="#000000" font-family="sans-serif" font-size="14" lengthAdjust="spacing" textLength="88" x="187.5" y="416.7764">close() : void</text><ellipse cx="178.5" cy="429.7266" fill="#84BE84" rx="3" ry="3" style="stroke:#038048;stroke-width:1.0;"/><text fill="#000000" font-family="sans-serif" font-size="14" lengthAdjust="spacing" textLength="106" x="187.5" y="433.0732">dispose() : void</text><ellipse cx="178.5" cy="446.0234" fill="#84BE84" rx="3" ry="3" style="stroke:#038048;stroke-width:1.0;"/><text fill="#000000" font-family="sans-serif" font-size="14" lengthAdjust="spacing" textLength="217" x="187.5" y="449.3701">equalsToID(id: string) : boolean</text><ellipse cx="178.5" cy="462.3203" fill="#84BE84" rx="3" ry="3" style="stroke:#038048;stroke-width:1.0;"/><text fill="#000000" font-family="sans-serif" font-size="14" lengthAdjust="spacing" textLength="87" x="187.5" y="465.667">open() : void</text><ellipse cx="178.5" cy="478.6172" fill="#84BE84" rx="3" ry="3" style="stroke:#038048;stroke-width:1.0;"/><text fill="#000000" font-family="sans-serif" font-size="14" lengthAdjust="spacing" textLength="434" x="187.5" y="481.9639">registerCallback(eventName: string, callback: OSGeneric) : void</text></g><!--class IPattern--><g id="elem_IPattern"><rect codeLine="20" fill="#FFFFFF" height="194.6719" id="IPattern" rx="2.5" ry="2.5" style="stroke:#272B30;stroke-width:0.5;" width="510" x="167.5" y="7"/><ellipse cx="391.75" cy="23" fill="#B4A7E5" rx="11" ry="11" style="stroke:#181818;stroke-width:1.0;"/><path d="M387.6719,18.7656 L387.6719,16.6094 L395.0625,16.6094 L395.0625,18.7656 L392.5938,18.7656 L392.5938,26.8438 L395.0625,26.8438 L395.0625,29 L387.6719,29 L387.6719,26.8438 L390.1406,26.8438 L390.1406,18.7656 L387.6719,18.7656 Z " fill="#000000"/><text fill="#000000" font-family="sans-serif" font-size="14" font-style="italic" lengthAdjust="spacing" textLength="53" x="412.25" y="27.8467">IPattern</text><line style="stroke:#272B30;stroke-width:0.5;" x1="168.5" x2="676.5" y1="39" y2="39"/><ellipse cx="178.5" cy="52.6484" fill="none" rx="3" ry="3" style="stroke:#038048;stroke-width:1.0;"/><text fill="#000000" font-family="sans-serif" font-size="14" lengthAdjust="spacing" textLength="110" x="187.5" y="55.9951">isBuilt : boolean</text><ellipse cx="178.5" cy="68.9453" fill="none" rx="3" ry="3" style="stroke:#038048;stroke-width:1.0;"/><text fill="#000000" font-family="sans-serif" font-size="14" lengthAdjust="spacing" textLength="189" x="187.5" y="72.292">selfElement : HTMLElement</text><ellipse cx="178.5" cy="85.2422" fill="none" rx="3" ry="3" style="stroke:#038048;stroke-width:1.0;"/><text fill="#000000" font-family="sans-serif" font-size="14" lengthAdjust="spacing" textLength="112" x="187.5" y="88.5889">uniqueId : string</text><ellipse cx="178.5" cy="101.5391" fill="none" rx="3" ry="3" style="stroke:#038048;stroke-width:1.0;"/><text fill="#000000" font-family="sans-serif" font-size="14" lengthAdjust="spacing" textLength="110" x="187.5" y="104.8857">widgetId : string</text><line style="stroke:#272B30;stroke-width:0.5;" x1="168.5" x2="676.5" y1="112.1875" y2="112.1875"/><ellipse cx="178.5" cy="125.8359" fill="#84BE84" rx="3" ry="3" style="stroke:#038048;stroke-width:1.0;"/><text fill="#000000" font-family="sans-serif" font-size="14" lengthAdjust="spacing" textLength="84" x="187.5" y="129.1826">build() : void</text><ellipse cx="178.5" cy="142.1328" fill="#84BE84" rx="3" ry="3" style="stroke:#038048;stroke-width:1.0;"/><text fill="#000000" font-family="sans-serif" font-size="14" lengthAdjust="spacing" textLength="484" x="187.5" y="145.4795">changeProperty(propertyName: string, propertyValue: unknown) : void</text><ellipse cx="178.5" cy="158.4297" fill="#84BE84" rx="3" ry="3" style="stroke:#038048;stroke-width:1.0;"/><text fill="#000000" font-family="sans-serif" font-size="14" lengthAdjust="spacing" textLength="106" x="187.5" y="161.7764">dispose() : void</text><ellipse cx="178.5" cy="174.7266" fill="#84BE84" rx="3" ry="3" style="stroke:#038048;stroke-width:1.0;"/><text fill="#000000" font-family="sans-serif" font-size="14" lengthAdjust="spacing" textLength="217" x="187.5" y="178.0732">equalsToID(id: string) : boolean</text><ellipse cx="178.5" cy="191.0234" fill="#84BE84" rx="3" ry="3" style="stroke:#038048;stroke-width:1.0;"/><text fill="#000000" font-family="sans-serif" font-size="14" lengthAdjust="spacing" textLength="434" x="187.5" y="194.3701">registerCallback(eventName: string, callback: OSGeneric) : void</text></g><!--class BottomSheet--><g id="elem_BottomSheet"><rect codeLine="32" fill="#FFFFFF" height="797.6563" id="BottomSheet" rx="2.5" ry="2.5" style="stroke:#272B30;stroke-width:0.5;" width="827" x="9" y="549"/><ellipse cx="372.25" cy="565" fill="#ADD1B2" rx="11" ry="11" style="stroke:#181818;stroke-width:1.0;"/><path d="M375.2188,570.6406 Q374.6406,570.9375 374,571.0781 Q373.3594,571.2344 372.6563,571.2344 Q370.1563,571.2344 368.8281,569.5938 Q367.5156,567.9375 367.5156,564.8125 Q367.5156,561.6875 368.8281,560.0313 Q370.1563,558.375 372.6563,558.375 Q373.3594,558.375 374,558.5313 Q374.6563,558.6875 375.2188,558.9844 L375.2188,561.7031 Q374.5938,561.125 374,560.8594 Q373.4063,560.5781 372.7813,560.5781 Q371.4375,560.5781 370.75,561.6563 Q370.0625,562.7188 370.0625,564.8125 Q370.0625,566.9063 370.75,567.9844 Q371.4375,569.0469 372.7813,569.0469 Q373.4063,569.0469 374,568.7813 Q374.5938,568.5 375.2188,567.9219 L375.2188,570.6406 Z " fill="#000000"/><text fill="#000000" font-family="sans-serif" font-size="14" lengthAdjust="spacing" textLength="92" x="392.75" y="569.8467">BottomSheet</text><line style="stroke:#272B30;stroke-width:0.5;" x1="10" x2="835" y1="581" y2="581"/><ellipse cx="20" cy="594.6484" fill="none" rx="3" ry="3" style="stroke:#038048;stroke-width:1.0;"/><text fill="#000000" font-family="sans-serif" font-size="14" lengthAdjust="spacing" textLength="221" x="29" y="597.9951">springAnimationConfigs : Object</text><polygon fill="none" points="20,605.9453,24,609.9453,20,613.9453,16,609.9453" style="stroke:#B38D22;stroke-width:1.0;"/><text fill="#000000" font-family="sans-serif" font-size="14" lengthAdjust="spacing" textLength="180" x="29" y="614.292">isProviderBased : boolean</text><rect fill="none" height="6" style="stroke:#C82930;stroke-width:1.0;" width="6" x="17" y="624.2422"/><text fill="#000000" font-family="sans-serif" font-size="14" lengthAdjust="spacing" textLength="296" x="29" y="630.5889">_animateOnDragInstance : AnimateOnDrag</text><rect fill="none" height="6" style="stroke:#C82930;stroke-width:1.0;" width="6" x="17" y="640.5391"/><text fill="#000000" font-family="sans-serif" font-size="14" lengthAdjust="spacing" textLength="296" x="29" y="646.8857">_bottomSheetContentElem : HTMLElement</text><rect fill="none" height="6" style="stroke:#C82930;stroke-width:1.0;" width="6" x="17" y="656.8359"/><text fill="#000000" font-family="sans-serif" font-size="14" lengthAdjust="spacing" textLength="290" x="29" y="663.1826">_bottomSheetHeaderElem : HTMLElement</text><rect fill="none" height="6" style="stroke:#C82930;stroke-width:1.0;" width="6" x="17" y="673.1328"/><text fill="#000000" font-family="sans-serif" font-size="14" lengthAdjust="spacing" textLength="226" x="29" y="679.4795">_eventOnContentScroll : Generic</text><rect fill="none" height="6" style="stroke:#C82930;stroke-width:1.0;" width="6" x="17" y="689.4297"/><text fill="#000000" font-family="sans-serif" font-size="14" lengthAdjust="spacing" textLength="197" x="29" y="695.7764">_eventOnKeypress : Generic</text><rect fill="none" height="6" style="stroke:#C82930;stroke-width:1.0;" width="6" x="17" y="705.7266"/><text fill="#000000" font-family="sans-serif" font-size="14" lengthAdjust="spacing" textLength="279" x="29" y="712.0732">_focusManagerInstance : FocusManager</text><rect fill="none" height="6" style="stroke:#C82930;stroke-width:1.0;" width="6" x="17" y="722.0234"/><text fill="#000000" font-family="sans-serif" font-size="14" lengthAdjust="spacing" textLength="221" x="29" y="728.3701">_focusTrapInstance : FocusTrap</text><rect fill="none" height="6" style="stroke:#C82930;stroke-width:1.0;" width="6" x="17" y="738.3203"/><text fill="#000000" font-family="sans-serif" font-size="14" lengthAdjust="spacing" textLength="244" x="29" y="744.667">_gestureEventInstance : DragEvent</text><rect fill="none" height="6" style="stroke:#C82930;stroke-width:1.0;" width="6" x="17" y="754.6172"/><text fill="#000000" font-family="sans-serif" font-size="14" lengthAdjust="spacing" textLength="204" x="29" y="760.9639">_hasGestureEvents : boolean</text><rect fill="none" height="6" style="stroke:#C82930;stroke-width:1.0;" width="6" x="17" y="770.9141"/><text fill="#000000" font-family="sans-serif" font-size="14" lengthAdjust="spacing" textLength="125" x="29" y="777.2607">_isOpen : boolean</text><rect fill="none" height="6" style="stroke:#C82930;stroke-width:1.0;" width="6" x="17" y="787.2109"/><text fill="#000000" font-family="sans-serif" font-size="14" lengthAdjust="spacing" textLength="185" x="29" y="793.5576">_parentSelf : HTMLElement</text><rect fill="none" height="6" style="stroke:#C82930;stroke-width:1.0;" width="6" x="17" y="803.5078"/><text fill="#000000" font-family="sans-serif" font-size="14" lengthAdjust="spacing" textLength="310" x="29" y="809.8545">_platformEventOnToggle : OSOnToggleEvent</text><line style="stroke:#272B30;stroke-width:0.5;" x1="10" x2="835" y1="817.1563" y2="817.1563"/><ellipse cx="20" cy="830.8047" fill="#84BE84" rx="3" ry="3" style="stroke:#038048;stroke-width:1.0;"/><text fill="#000000" font-family="sans-serif" font-size="14" lengthAdjust="spacing" textLength="84" x="29" y="834.1514">build() : void</text><ellipse cx="20" cy="847.1016" fill="#84BE84" rx="3" ry="3" style="stroke:#038048;stroke-width:1.0;"/><text fill="#000000" font-family="sans-serif" font-size="14" lengthAdjust="spacing" textLength="484" x="29" y="850.4482">changeProperty(propertyName: string, propertyValue: unknown) : void</text><ellipse cx="20" cy="863.3984" fill="#84BE84" rx="3" ry="3" style="stroke:#038048;stroke-width:1.0;"/><text fill="#000000" font-family="sans-serif" font-size="14" lengthAdjust="spacing" textLength="88" x="29" y="866.7451">close() : void</text><ellipse cx="20" cy="879.6953" fill="#84BE84" rx="3" ry="3" style="stroke:#038048;stroke-width:1.0;"/><text fill="#000000" font-family="sans-serif" font-size="14" lengthAdjust="spacing" textLength="106" x="29" y="883.042">dispose() : void</text><ellipse cx="20" cy="895.9922" fill="#84BE84" rx="3" ry="3" style="stroke:#038048;stroke-width:1.0;"/><text fill="#000000" font-family="sans-serif" font-size="14" lengthAdjust="spacing" textLength="267" x="29" y="899.3389">equalsToID(patternId: string) : boolean</text><ellipse cx="20" cy="912.2891" fill="#84BE84" rx="3" ry="3" style="stroke:#038048;stroke-width:1.0;"/><text fill="#000000" font-family="sans-serif" font-size="14" lengthAdjust="spacing" textLength="87" x="29" y="915.6357">open() : void</text><ellipse cx="20" cy="928.5859" fill="#84BE84" rx="3" ry="3" style="stroke:#038048;stroke-width:1.0;"/><text fill="#000000" font-family="sans-serif" font-size="14" lengthAdjust="spacing" textLength="434" x="29" y="931.9326">registerCallback(eventName: string, callback: OSGeneric) : void</text><ellipse cx="20" cy="944.8828" fill="#84BE84" rx="3" ry="3" style="stroke:#038048;stroke-width:1.0;"/><text fill="#000000" font-family="sans-serif" font-size="14" lengthAdjust="spacing" textLength="206" x="29" y="948.2295">removeGestureEvents() : void</text><polygon fill="#FFFF44" points="20,956.1797,24,960.1797,20,964.1797,16,960.1797" style="stroke:#B38D22;stroke-width:1.0;"/><text fill="#000000" font-family="sans-serif" font-size="14" lengthAdjust="spacing" textLength="121" x="29" y="964.5264">finishBuild() : void</text><polygon fill="#FFFF44" points="20,972.4766,24,976.4766,20,980.4766,16,976.4766" style="stroke:#B38D22;stroke-width:1.0;"/><text fill="#000000" font-family="sans-serif" font-size="14" lengthAdjust="spacing" textLength="205" x="29" y="980.8232">removeEventListeners() : void</text><polygon fill="#FFFF44" points="20,988.7734,24,992.7734,20,996.7734,16,992.7734" style="stroke:#B38D22;stroke-width:1.0;"/><text fill="#000000" font-family="sans-serif" font-size="14" lengthAdjust="spacing" textLength="180" x="29" y="997.1201">setA11YProperties() : void</text><polygon fill="#FFFF44" points="20,1005.0703,24,1009.0703,20,1013.0703,16,1009.0703" style="stroke:#B38D22;stroke-width:1.0;"/><text fill="#000000" font-family="sans-serif" font-size="14" lengthAdjust="spacing" textLength="138" x="29" y="1013.417">setCallbacks() : void</text><polygon fill="#FFFF44" points="20,1021.3672,24,1025.3672,20,1029.3672,16,1025.3672" style="stroke:#B38D22;stroke-width:1.0;"/><text fill="#000000" font-family="sans-serif" font-size="14" lengthAdjust="spacing" textLength="175" x="29" y="1029.7139">setEventListeners() : void</text><polygon fill="#FFFF44" points="20,1037.6641,24,1041.6641,20,1045.6641,16,1041.6641" style="stroke:#B38D22;stroke-width:1.0;"/><text fill="#000000" font-family="sans-serif" font-size="14" lengthAdjust="spacing" textLength="801" x="29" y="1046.0107">setGestureEvents(onGestureStart: GestureStart, onGestureMove: GestureMove, onGestureEnd: GestureEnd) : void</text><polygon fill="#FFFF44" points="20,1053.9609,24,1057.9609,20,1061.9609,16,1057.9609" style="stroke:#B38D22;stroke-width:1.0;"/><text fill="#000000" font-family="sans-serif" font-size="14" lengthAdjust="spacing" textLength="169" x="29" y="1062.3076">setHtmlElements() : void</text><polygon fill="#FFFF44" points="20,1070.2578,24,1074.2578,20,1078.2578,16,1074.2578" style="stroke:#B38D22;stroke-width:1.0;"/><text fill="#000000" font-family="sans-serif" font-size="14" lengthAdjust="spacing" textLength="161" x="29" y="1078.6045">setInitialOptions() : void</text><polygon fill="#FFFF44" points="20,1086.5547,24,1090.5547,20,1094.5547,16,1090.5547" style="stroke:#B38D22;stroke-width:1.0;"/><text fill="#000000" font-family="sans-serif" font-size="14" lengthAdjust="spacing" textLength="569" x="29" y="1094.9014">triggerPlatformEventCallback(platFormCallback: OSGeneric, args: unknown[]) : void</text><polygon fill="#FFFF44" points="20,1102.8516,24,1106.8516,20,1110.8516,16,1106.8516" style="stroke:#B38D22;stroke-width:1.0;"/><text fill="#000000" font-family="sans-serif" font-size="14" lengthAdjust="spacing" textLength="311" x="29" y="1111.1982">triggerPlatformInitializedEventCallback() : void</text><polygon fill="#FFFF44" points="20,1119.1484,24,1123.1484,20,1127.1484,16,1123.1484" style="stroke:#B38D22;stroke-width:1.0;"/><text fill="#000000" font-family="sans-serif" font-size="14" lengthAdjust="spacing" textLength="156" x="29" y="1127.4951">unsetCallbacks() : void</text><polygon fill="#FFFF44" points="20,1135.4453,24,1139.4453,20,1143.4453,16,1139.4453" style="stroke:#B38D22;stroke-width:1.0;"/><text fill="#000000" font-family="sans-serif" font-size="14" lengthAdjust="spacing" textLength="199" x="29" y="1143.792">unsetGlobalCallbacks() : void</text><polygon fill="#FFFF44" points="20,1151.7422,24,1155.7422,20,1159.7422,16,1155.7422" style="stroke:#B38D22;stroke-width:1.0;"/><text fill="#000000" font-family="sans-serif" font-size="14" lengthAdjust="spacing" textLength="187" x="29" y="1160.0889">unsetHtmlElements() : void</text><rect fill="#F24D5C" height="6" style="stroke:#C82930;stroke-width:1.0;" width="6" x="17" y="1170.0391"/><text fill="#000000" font-family="sans-serif" font-size="14" lengthAdjust="spacing" textLength="207" x="29" y="1176.3857">_handleFocusBehavior() : void</text><rect fill="#F24D5C" height="6" style="stroke:#C82930;stroke-width:1.0;" width="6" x="17" y="1186.3359"/><text fill="#000000" font-family="sans-serif" font-size="14" lengthAdjust="spacing" textLength="208" x="29" y="1192.6826">_handleGestureEvents() : void</text><rect fill="#F24D5C" height="6" style="stroke:#C82930;stroke-width:1.0;" width="6" x="17" y="1202.6328"/><text fill="#000000" font-family="sans-serif" font-size="14" lengthAdjust="spacing" textLength="287" x="29" y="1208.9795">_handleShape(shape: ShapeTypes) : void</text><rect fill="#F24D5C" height="6" style="stroke:#C82930;stroke-width:1.0;" width="6" x="17" y="1218.9297"/><text fill="#000000" font-family="sans-serif" font-size="14" lengthAdjust="spacing" textLength="226" x="29" y="1225.2764">_onContentScrollCallback() : void</text><rect fill="#F24D5C" height="6" style="stroke:#C82930;stroke-width:1.0;" width="6" x="17" y="1235.2266"/><text fill="#000000" font-family="sans-serif" font-size="14" lengthAdjust="spacing" textLength="533" x="29" y="1241.5732">_onGestureEnd(offsetX: number, offsetY: number, timeTaken: number) : void</text><rect fill="#F24D5C" height="6" style="stroke:#C82930;stroke-width:1.0;" width="6" x="17" y="1251.5234"/><text fill="#000000" font-family="sans-serif" font-size="14" lengthAdjust="spacing" textLength="676" x="29" y="1257.8701">_onGestureMove(x: number, y: number, offsetX: number, offsetY: number, evt: TouchEvent) : void</text><rect fill="#F24D5C" height="6" style="stroke:#C82930;stroke-width:1.0;" width="6" x="17" y="1267.8203"/><text fill="#000000" font-family="sans-serif" font-size="14" lengthAdjust="spacing" textLength="312" x="29" y="1274.167">_onGestureStart(x: number, y: number) : void</text><rect fill="#F24D5C" height="6" style="stroke:#C82930;stroke-width:1.0;" width="6" x="17" y="1284.1172"/><text fill="#000000" font-family="sans-serif" font-size="14" lengthAdjust="spacing" textLength="318" x="29" y="1290.4639">_onkeypressCallback(e: KeyboardEvent) : void</text><rect fill="#F24D5C" height="6" style="stroke:#C82930;stroke-width:1.0;" width="6" x="17" y="1300.4141"/><text fill="#000000" font-family="sans-serif" font-size="14" lengthAdjust="spacing" textLength="308" x="29" y="1306.7607">_toggleBottomSheet(isOpen: boolean) : void</text><rect fill="#F24D5C" height="6" style="stroke:#C82930;stroke-width:1.0;" width="6" x="17" y="1316.7109"/><text fill="#000000" font-family="sans-serif" font-size="14" lengthAdjust="spacing" textLength="311" x="29" y="1323.0576">_toggleHandler(ShowHandler: boolean) : void</text><rect fill="#F24D5C" height="6" style="stroke:#C82930;stroke-width:1.0;" width="6" x="17" y="1333.0078"/><text fill="#000000" font-family="sans-serif" font-size="14" lengthAdjust="spacing" textLength="210" x="29" y="1339.3545">_triggerOnToggleEvent() : void</text></g><!--reverse link IPattern to IBottomSheet--><g id="link_IPattern_IBottomSheet"><path codeLine="31" d="M422.5,220.24 C422.5,239.52 422.5,241.92 422.5,261.69 " fill="none" id="IPattern-backto-IBottomSheet" style="stroke:#272B30;stroke-width:1.0;"/><polygon fill="none" points="422.5,202.24,416.5,220.24,428.5,220.24,422.5,202.24" style="stroke:#272B30;stroke-width:1.0;"/></g><!--reverse link IBottomSheet to BottomSheet--><g id="link_IBottomSheet_BottomSheet"><path codeLine="80" d="M422.5,507.21 C422.5,525.72 422.5,527.78 422.5,548.82 " fill="none" id="IBottomSheet-backto-BottomSheet" style="stroke:#272B30;stroke-width:1.0;stroke-dasharray:7.0,7.0;"/><polygon fill="none" points="422.5,489.21,416.5,507.21,428.5,507.21,422.5,489.21" style="stroke:#272B30;stroke-width:1.0;"/></g><!--SRC=[tLNTQzim47_lNo7Q5vUrPUq6Wz2N9asRi7Of98oLCSRPEjjQPCcLv6JPklzzakqa_ahsK1XZUGY-t_tkGtUdavupaOA2X0muQ7sbb5mE99UA75syk_3Vl3xGTKPVAefgFmM2UQHa9cX92yEmmccf0wHlAHp4Z2B193Khag299TLLA6J8BSA4GHL2WEHmt9V6o6GQ8vf3ylE0sDyhfliPuuRqY2ybHn05h967Guu92gSQpUxlIgbGPu8zPJYcLgUDOY8gu2MZ4PeMxDi8r3ksw48oMc1132B21oLJL6RbfUN71qXmRNn2rkX7u9c5Cp4NSYaQZhZKs71EcKxRA3vbmFLCZgyzHjT1Zfidjn55mr1XnBGjum0uzsqpF5pOIjHJ3KfTZqocjoXGiM3Zv5Uj2mzWh23-dmwyfDelBssbe9VFfwUDCJy8t0KZXrsZhrFd_qgm10oJOY15o29jFK_yRnWKTJvYsbPeOQ-LweD6siZ_z2lavZWHrmgYiT06XEroZrnLyPBhRvEmmOmzg6jfHtThr162ZRwJcHTi8ag7qq19pYsnB5ITz1vNgKAjM_fG1fc-1m4HgieXRYfmbJbJa3Pf3Yiv4MgJAHowe1MQgqIEbRGOz6s5gLkrPNfYBsCBjblHdTJUZyw2f1nCA5KoBCuyar74NVZ9T2ria_W7LrDQJFFuhsweqaaY5rXhIJtCKSW4qt6_NREZmZOtkdEPMFTDOutcwlpyiQmhmmxzElqErPzSrzEMefId1fHnqxwLJiX6UszptYYTKD4D1Tsex7ShuCWal1oyZdJ6WXa6V9AwpTBKsuP4zaOzL0TrqpatlZSM7RJRTK90HNepR9-_x7LRfi1-8Ar7g5jbOa_XS-KjbpxmlPJTnN3NN52E-OxeOmmB9bKtPS_ahIdJ65BqjFllaLoOhLBK3QwiRyFkWplQjhsU34DxZayz8hB4HsK78GSUju1X2SvWZc8DxNBd1idxlZLSDPtkYu8BEwupcGLnNeTTCV99xWpIifYNIt-x6th4FWI-14MxOfXyHrOUJA_OmvijrCaVvVrHtZIMo_9xfq4nfxLjxDLUzDfhVVbyTbP_m7y3]--></g></svg>