<?xml version="1.0" encoding="UTF-8" standalone="no"?><svg xmlns="http://www.w3.org/2000/svg" xmlns:xlink="http://www.w3.org/1999/xlink" contentScriptType="application/ecmascript" contentStyleType="text/css" height="687px" preserveAspectRatio="none" style="width:426px;height:687px;background:#CED4DA;" version="1.1" viewBox="0 0 426 687" width="426px" zoomAndPan="magnify"><defs><filter height="300%" id="fii383s1zq1n9" width="300%" x="-1" y="-1"><feGaussianBlur result="blurOut" stdDeviation="2.0"/><feColorMatrix in="blurOut" result="blurOut2" type="matrix" values="0 0 0 0 0 0 0 0 0 0 0 0 0 0 0 0 0 0 .4 0"/><feOffset dx="4.0" dy="4.0" in="blurOut2" result="blurOut3"/><feBlend in="SourceGraphic" in2="blurOut3" mode="normal"/></filter></defs><g><!--MD5=[fc68d749ad546de304bcf3599e2d0b9a]
class IButtonLoading--><rect codeLine="7" fill="#FFFFFF" filter="url(#fii383s1zq1n9)" height="151.6406" id="IButtonLoading" style="stroke:#272B30;stroke-width:1.5;" width="403" x="9" y="219"/><ellipse cx="164.25" cy="235" fill="#B4A7E5" rx="11" ry="11" style="stroke:#272B30;stroke-width:1.0;"/><path d="M160.6777,231.2651 L160.6777,229.1069 L168.0571,229.1069 L168.0571,231.2651 L165.5918,231.2651 L165.5918,239.3418 L168.0571,239.3418 L168.0571,241.5 L160.6777,241.5 L160.6777,239.3418 L163.1431,239.3418 L163.1431,231.2651 Z " fill="#000000"/><text fill="#000000" font-family="sans-serif" font-size="12" font-style="italic" lengthAdjust="spacing" textLength="84" x="184.75" y="239.5352">IButtonLoading</text><line style="stroke:#272B30;stroke-width:1.5;" x1="10" x2="411" y1="251" y2="251"/><ellipse cx="20" cy="262" rx="3" ry="3" style="stroke:#038048;stroke-width:1.0;fill:none;"/><text fill="#000000" font-family="sans-serif" font-size="11" lengthAdjust="spacing" textLength="84" x="29" y="265.6348">isBuilt : boolean</text><ellipse cx="20" cy="274.9551" rx="3" ry="3" style="stroke:#038048;stroke-width:1.0;fill:none;"/><text fill="#000000" font-family="sans-serif" font-size="11" lengthAdjust="spacing" textLength="142" x="29" y="278.5898">selfElement : HTMLElement</text><ellipse cx="20" cy="287.9102" rx="3" ry="3" style="stroke:#038048;stroke-width:1.0;fill:none;"/><text fill="#000000" font-family="sans-serif" font-size="11" lengthAdjust="spacing" textLength="88" x="29" y="291.5449">uniqueId : string</text><ellipse cx="20" cy="300.8652" rx="3" ry="3" style="stroke:#038048;stroke-width:1.0;fill:none;"/><text fill="#000000" font-family="sans-serif" font-size="11" lengthAdjust="spacing" textLength="86" x="29" y="304.5">widgetId : string</text><line style="stroke:#272B30;stroke-width:1.5;" x1="10" x2="411" y1="310.8203" y2="310.8203"/><ellipse cx="20" cy="321.8203" fill="#84BE84" rx="3" ry="3" style="stroke:#038048;stroke-width:1.0;"/><text fill="#000000" font-family="sans-serif" font-size="11" lengthAdjust="spacing" textLength="67" x="29" y="325.4551">build() : void</text><ellipse cx="20" cy="334.7754" fill="#84BE84" rx="3" ry="3" style="stroke:#038048;stroke-width:1.0;"/><text fill="#000000" font-family="sans-serif" font-size="11" lengthAdjust="spacing" textLength="377" x="29" y="338.4102">changeProperty(propertyName: string, propertyValue: unknown) : void</text><ellipse cx="20" cy="347.7305" fill="#84BE84" rx="3" ry="3" style="stroke:#038048;stroke-width:1.0;"/><text fill="#000000" font-family="sans-serif" font-size="11" lengthAdjust="spacing" textLength="82" x="29" y="351.3652">dispose() : void</text><ellipse cx="20" cy="360.6855" fill="#84BE84" rx="3" ry="3" style="stroke:#038048;stroke-width:1.0;"/><text fill="#000000" font-family="sans-serif" font-size="11" lengthAdjust="spacing" textLength="168" x="29" y="364.3203">equalsToID(id: string) : boolean</text><!--MD5=[3266101ea6228889a90c639b28de0501]
class IPattern--><rect codeLine="17" fill="#FFFFFF" filter="url(#fii383s1zq1n9)" height="151.6406" id="IPattern" style="stroke:#272B30;stroke-width:1.5;" width="403" x="9" y="7"/><ellipse cx="184.25" cy="23" fill="#B4A7E5" rx="11" ry="11" style="stroke:#272B30;stroke-width:1.0;"/><path d="M180.6777,19.2651 L180.6777,17.1069 L188.0571,17.1069 L188.0571,19.2651 L185.5918,19.2651 L185.5918,27.3418 L188.0571,27.3418 L188.0571,29.5 L180.6777,29.5 L180.6777,27.3418 L183.1431,27.3418 L183.1431,19.2651 Z " fill="#000000"/><text fill="#000000" font-family="sans-serif" font-size="12" font-style="italic" lengthAdjust="spacing" textLength="44" x="204.75" y="27.5352">IPattern</text><line style="stroke:#272B30;stroke-width:1.5;" x1="10" x2="411" y1="39" y2="39"/><ellipse cx="20" cy="50" rx="3" ry="3" style="stroke:#038048;stroke-width:1.0;fill:none;"/><text fill="#000000" font-family="sans-serif" font-size="11" lengthAdjust="spacing" textLength="84" x="29" y="53.6348">isBuilt : boolean</text><ellipse cx="20" cy="62.9551" rx="3" ry="3" style="stroke:#038048;stroke-width:1.0;fill:none;"/><text fill="#000000" font-family="sans-serif" font-size="11" lengthAdjust="spacing" textLength="142" x="29" y="66.5898">selfElement : HTMLElement</text><ellipse cx="20" cy="75.9102" rx="3" ry="3" style="stroke:#038048;stroke-width:1.0;fill:none;"/><text fill="#000000" font-family="sans-serif" font-size="11" lengthAdjust="spacing" textLength="88" x="29" y="79.5449">uniqueId : string</text><ellipse cx="20" cy="88.8652" rx="3" ry="3" style="stroke:#038048;stroke-width:1.0;fill:none;"/><text fill="#000000" font-family="sans-serif" font-size="11" lengthAdjust="spacing" textLength="86" x="29" y="92.5">widgetId : string</text><line style="stroke:#272B30;stroke-width:1.5;" x1="10" x2="411" y1="98.8203" y2="98.8203"/><ellipse cx="20" cy="109.8203" fill="#84BE84" rx="3" ry="3" style="stroke:#038048;stroke-width:1.0;"/><text fill="#000000" font-family="sans-serif" font-size="11" lengthAdjust="spacing" textLength="67" x="29" y="113.4551">build() : void</text><ellipse cx="20" cy="122.7754" fill="#84BE84" rx="3" ry="3" style="stroke:#038048;stroke-width:1.0;"/><text fill="#000000" font-family="sans-serif" font-size="11" lengthAdjust="spacing" textLength="377" x="29" y="126.4102">changeProperty(propertyName: string, propertyValue: unknown) : void</text><ellipse cx="20" cy="135.7305" fill="#84BE84" rx="3" ry="3" style="stroke:#038048;stroke-width:1.0;"/><text fill="#000000" font-family="sans-serif" font-size="11" lengthAdjust="spacing" textLength="82" x="29" y="139.3652">dispose() : void</text><ellipse cx="20" cy="148.6855" fill="#84BE84" rx="3" ry="3" style="stroke:#038048;stroke-width:1.0;"/><text fill="#000000" font-family="sans-serif" font-size="11" lengthAdjust="spacing" textLength="168" x="29" y="152.3203">equalsToID(id: string) : boolean</text><!--MD5=[480086052a6805ca836cc723b7f03190]
class ButtonLoading--><rect codeLine="28" fill="#FFFFFF" filter="url(#fii383s1zq1n9)" height="242.3262" id="ButtonLoading" style="stroke:#272B30;stroke-width:1.5;" width="403" x="9" y="431"/><ellipse cx="165.75" cy="447" fill="#ADD1B2" rx="11" ry="11" style="stroke:#272B30;stroke-width:1.0;"/><path d="M168.2231,453.1431 Q167.6421,453.4419 167.0029,453.5913 Q166.3638,453.7407 165.6582,453.7407 Q163.1514,453.7407 161.8315,452.0889 Q160.5117,450.437 160.5117,447.3159 Q160.5117,444.1865 161.8315,442.5347 Q163.1514,440.8828 165.6582,440.8828 Q166.3638,440.8828 167.0112,441.0322 Q167.6587,441.1816 168.2231,441.4805 L168.2231,444.2031 Q167.5923,443.6221 166.9988,443.3523 Q166.4053,443.0825 165.7744,443.0825 Q164.4297,443.0825 163.7449,444.1492 Q163.0601,445.2158 163.0601,447.3159 Q163.0601,449.4077 163.7449,450.4744 Q164.4297,451.541 165.7744,451.541 Q166.4053,451.541 166.9988,451.2712 Q167.5923,451.0015 168.2231,450.4204 Z " fill="#000000"/><text fill="#000000" font-family="sans-serif" font-size="12" lengthAdjust="spacing" textLength="81" x="186.25" y="451.5352">ButtonLoading</text><line style="stroke:#272B30;stroke-width:1.5;" x1="10" x2="411" y1="463" y2="463"/><polygon fill="none" points="20,469,24,473,20,477,16,473" style="stroke:#B38D22;stroke-width:1.0;"/><text fill="#000000" font-family="sans-serif" font-size="11" lengthAdjust="spacing" textLength="131" x="29" y="477.6348">_selfElem : HTMLElement</text><polygon fill="none" points="20,481.9551,24,485.9551,20,489.9551,16,485.9551" style="stroke:#B38D22;stroke-width:1.0;"/><text fill="#000000" font-family="sans-serif" font-size="11" lengthAdjust="spacing" textLength="92" x="29" y="490.5898">_widgetId : string</text><rect fill="none" height="6" style="stroke:#C82930;stroke-width:1.0;" width="6" x="17" y="496.9102"/><text fill="#000000" font-family="sans-serif" font-size="11" lengthAdjust="spacing" textLength="165" x="29" y="503.5449">_buttonElement : HTMLElement</text><rect fill="none" height="6" style="stroke:#C82930;stroke-width:1.0;" width="6" x="17" y="509.8652"/><text fill="#000000" font-family="sans-serif" font-size="11" lengthAdjust="spacing" textLength="170" x="29" y="516.5">_spinnerElement : HTMLElement</text><line style="stroke:#272B30;stroke-width:1.5;" x1="10" x2="411" y1="522.8203" y2="522.8203"/><ellipse cx="20" cy="533.8203" fill="#84BE84" rx="3" ry="3" style="stroke:#038048;stroke-width:1.0;"/><text fill="#000000" font-family="sans-serif" font-size="11" lengthAdjust="spacing" textLength="67" x="29" y="537.4551">build() : void</text><ellipse cx="20" cy="546.7754" fill="#84BE84" rx="3" ry="3" style="stroke:#038048;stroke-width:1.0;"/><text fill="#000000" font-family="sans-serif" font-size="11" lengthAdjust="spacing" textLength="377" x="29" y="550.4102">changeProperty(propertyName: string, propertyValue: unknown) : void</text><ellipse cx="20" cy="559.7305" fill="#84BE84" rx="3" ry="3" style="stroke:#038048;stroke-width:1.0;"/><text fill="#000000" font-family="sans-serif" font-size="11" lengthAdjust="spacing" textLength="82" x="29" y="563.3652">dispose() : void</text><ellipse cx="20" cy="572.6855" fill="#84BE84" rx="3" ry="3" style="stroke:#038048;stroke-width:1.0;"/><text fill="#000000" font-family="sans-serif" font-size="11" lengthAdjust="spacing" textLength="207" x="29" y="576.3203">equalsToID(patternId: string) : boolean</text><polygon fill="#FFFF44" points="20,580.6406,24,584.6406,20,588.6406,16,584.6406" style="stroke:#B38D22;stroke-width:1.0;"/><text fill="#000000" font-family="sans-serif" font-size="11" lengthAdjust="spacing" textLength="96" x="29" y="589.2754">finishBuild() : void</text><polygon fill="#FFFF44" points="20,593.5957,24,597.5957,20,601.5957,16,597.5957" style="stroke:#B38D22;stroke-width:1.0;"/><text fill="#000000" font-family="sans-serif" font-size="11" lengthAdjust="spacing" textLength="139" x="29" y="602.2305">setA11yProperties() : void</text><polygon fill="#FFFF44" points="20,606.5508,24,610.5508,20,614.5508,16,610.5508" style="stroke:#B38D22;stroke-width:1.0;"/><text fill="#000000" font-family="sans-serif" font-size="11" lengthAdjust="spacing" textLength="129" x="29" y="615.1855">setHtmlElements() : void</text><polygon fill="#FFFF44" points="20,619.5059,24,623.5059,20,627.5059,16,623.5059" style="stroke:#B38D22;stroke-width:1.0;"/><text fill="#000000" font-family="sans-serif" font-size="11" lengthAdjust="spacing" textLength="143" x="29" y="628.1406">unsetHtmlElements() : void</text><rect fill="#F24D5C" height="6" style="stroke:#C82930;stroke-width:1.0;" width="6" x="17" y="634.4609"/><text fill="#000000" font-family="sans-serif" font-size="11" lengthAdjust="spacing" textLength="152" x="29" y="641.0957">_setInitialButtonState() : void</text><rect fill="#F24D5C" height="6" style="stroke:#C82930;stroke-width:1.0;" width="6" x="17" y="647.416"/><text fill="#000000" font-family="sans-serif" font-size="11" lengthAdjust="spacing" textLength="215" x="29" y="654.0508">_setIsLoading(isLoading: boolean) : void</text><rect fill="#F24D5C" height="6" style="stroke:#C82930;stroke-width:1.0;" width="6" x="17" y="660.3711"/><text fill="#000000" font-family="sans-serif" font-size="11" lengthAdjust="spacing" textLength="276" x="29" y="667.0059">_setLoadingLabel(showSpinnerOnly: boolean) : void</text><!--MD5=[ffb0a1dbb5c09543d9a7b9ee0e6ba3a6]
reverse link IPattern to IButtonLoading--><path codeLine="27" d="M210.5,179.65 C210.5,192.83 210.5,206.21 210.5,218.95 " fill="none" id="IPattern-backto-IButtonLoading" style="stroke:#272B30;stroke-width:1.0;"/><polygon fill="none" points="203.5,179.22,210.5,159.22,217.5,179.22,203.5,179.22" style="stroke:#272B30;stroke-width:1.0;"/><!--MD5=[08db1609ed927deb6548249099aeacfe]
reverse link IButtonLoading to ButtonLoading--><path codeLine="45" d="M210.5,391.55 C210.5,404.42 210.5,417.75 210.5,430.97 " fill="none" id="IButtonLoading-backto-ButtonLoading" style="stroke:#272B30;stroke-width:1.0;stroke-dasharray:7.0,7.0;"/><polygon fill="none" points="203.5,391.13,210.5,371.13,217.5,391.13,203.5,391.13" style="stroke:#272B30;stroke-width:1.0;"/><!--MD5=[c5fb50cbdb1e7760605e7b2a46dde0bb]
@startuml
skinparam ClassArrowColor #272b30
skinparam ClassBorderColor #272b30
skinparam ClassBackgroundColor #fff
skinparam BackgroundColor #ced4da
hide empty methods
hide empty fields
interface "IButtonLoading" {
    +isBuilt : boolean
    +selfElement : HTMLElement
    +uniqueId : string
    +widgetId : string
    +build() : void
    +changeProperty(propertyName: string, propertyValue: unknown) : void
    +dispose() : void
    +equalsToID(id: string) : boolean
}
interface "IPattern" {
    +isBuilt : boolean
    +selfElement : HTMLElement
    +uniqueId : string
    +widgetId : string
    +build() : void
    +changeProperty(propertyName: string, propertyValue: unknown) : void
    +dispose() : void
    +equalsToID(id: string) : boolean
}
"IPattern" <|- - "IButtonLoading"
class "ButtonLoading" {
    #_selfElem : HTMLElement
    #_widgetId : string
    -_buttonElement : HTMLElement
    -_spinnerElement : HTMLElement
    +build() : void
    +changeProperty(propertyName: string, propertyValue: unknown) : void
    +dispose() : void
    +equalsToID(patternId: string) : boolean
    #finishBuild() : void
    #setA11yProperties() : void
    #setHtmlElements() : void
    #unsetHtmlElements() : void
    -_setInitialButtonState() : void
    -_setIsLoading(isLoading: boolean) : void
    -_setLoadingLabel(showSpinnerOnly: boolean) : void
}
"IButtonLoading" <|.. "ButtonLoading"
@enduml

PlantUML version 1.2021.14(Fri Nov 12 16:46:50 WET 2021)
(GPL source distribution)
Java Runtime: Java(TM) SE Runtime Environment
JVM: Java HotSpot(TM) 64-Bit Server VM
Default Encoding: UTF-8
Language: en
Country: PT
--></g></svg>