<?xml version="1.0" encoding="UTF-8" standalone="no"?><svg xmlns="http://www.w3.org/2000/svg" xmlns:xlink="http://www.w3.org/1999/xlink" contentScriptType="application/ecmascript" contentStyleType="text/css" height="1694px" preserveAspectRatio="none" style="width:996px;height:1694px;background:#CED4DA;" version="1.1" viewBox="0 0 996 1694" width="996px" zoomAndPan="magnify"><defs><filter height="300%" id="fqd56arahfloq" width="300%" x="-1" y="-1"><feGaussianBlur result="blurOut" stdDeviation="2.0"/><feColorMatrix in="blurOut" result="blurOut2" type="matrix" values="0 0 0 0 0 0 0 0 0 0 0 0 0 0 0 0 0 0 .4 0"/><feOffset dx="4.0" dy="4.0" in="blurOut2" result="blurOut3"/><feBlend in="SourceGraphic" in2="blurOut3" mode="normal"/></filter></defs><g><!--MD5=[5ee2cdc9c4d5751c0281d37de494dd68]
class ICallback--><rect codeLine="8" fill="#FFFFFF" filter="url(#fqd56arahfloq)" height="52.9551" id="ICallback" style="stroke:#272B30;stroke-width:1.5;" width="258" x="7" y="869"/><ellipse cx="105.75" cy="885" fill="#B4A7E5" rx="11" ry="11" style="stroke:#272B30;stroke-width:1.0;"/><path d="M102.1777,881.2651 L102.1777,879.1069 L109.5571,879.1069 L109.5571,881.2651 L107.0918,881.2651 L107.0918,889.3418 L109.5571,889.3418 L109.5571,891.5 L102.1777,891.5 L102.1777,889.3418 L104.6431,889.3418 L104.6431,881.2651 Z " fill="#000000"/><text fill="#000000" font-family="sans-serif" font-size="12" font-style="italic" lengthAdjust="spacing" textLength="52" x="126.25" y="889.5352">ICallback</text><line style="stroke:#272B30;stroke-width:1.5;" x1="8" x2="264" y1="901" y2="901"/><ellipse cx="18" cy="912" fill="#84BE84" rx="3" ry="3" style="stroke:#038048;stroke-width:1.0;"/><text fill="#000000" font-family="sans-serif" font-size="11" lengthAdjust="spacing" textLength="232" x="27" y="915.6348">registerCallback(callback: OSGeneric) : void</text><!--MD5=[c37acc2da49fd41b942858a217d69c1e]
class IAccordionItem--><rect codeLine="11" fill="#FFFFFF" filter="url(#fqd56arahfloq)" height="281.1914" id="IAccordionItem" style="stroke:#272B30;stroke-width:1.5;" width="403" x="452" y="7"/><ellipse cx="606.75" cy="23" fill="#B4A7E5" rx="11" ry="11" style="stroke:#272B30;stroke-width:1.0;"/><path d="M603.1777,19.2651 L603.1777,17.1069 L610.5571,17.1069 L610.5571,19.2651 L608.0918,19.2651 L608.0918,27.3418 L610.5571,27.3418 L610.5571,29.5 L603.1777,29.5 L603.1777,27.3418 L605.6431,27.3418 L605.6431,19.2651 Z " fill="#000000"/><text fill="#000000" font-family="sans-serif" font-size="12" font-style="italic" lengthAdjust="spacing" textLength="85" x="627.25" y="27.5352">IAccordionItem</text><line style="stroke:#272B30;stroke-width:1.5;" x1="453" x2="854" y1="39" y2="39"/><ellipse cx="463" cy="50" rx="3" ry="3" style="stroke:#038048;stroke-width:1.0;fill:none;"/><text fill="#000000" font-family="sans-serif" font-size="11" lengthAdjust="spacing" textLength="84" x="472" y="53.6348">isBuilt : boolean</text><ellipse cx="463" cy="62.9551" rx="3" ry="3" style="stroke:#038048;stroke-width:1.0;fill:none;"/><text fill="#000000" font-family="sans-serif" font-size="11" lengthAdjust="spacing" textLength="107" x="472" y="66.5898">isDisabled : boolean</text><ellipse cx="463" cy="75.9102" rx="3" ry="3" style="stroke:#038048;stroke-width:1.0;fill:none;"/><text fill="#000000" font-family="sans-serif" font-size="11" lengthAdjust="spacing" textLength="90" x="472" y="79.5449">isOpen : boolean</text><ellipse cx="463" cy="88.8652" rx="3" ry="3" style="stroke:#038048;stroke-width:1.0;fill:none;"/><text fill="#000000" font-family="sans-serif" font-size="11" lengthAdjust="spacing" textLength="142" x="472" y="92.5">selfElement : HTMLElement</text><ellipse cx="463" cy="101.8203" rx="3" ry="3" style="stroke:#038048;stroke-width:1.0;fill:none;"/><text fill="#000000" font-family="sans-serif" font-size="11" lengthAdjust="spacing" textLength="88" x="472" y="105.4551">uniqueId : string</text><ellipse cx="463" cy="114.7754" rx="3" ry="3" style="stroke:#038048;stroke-width:1.0;fill:none;"/><text fill="#000000" font-family="sans-serif" font-size="11" lengthAdjust="spacing" textLength="86" x="472" y="118.4102">widgetId : string</text><line style="stroke:#272B30;stroke-width:1.5;" x1="453" x2="854" y1="124.7305" y2="124.7305"/><ellipse cx="463" cy="135.7305" fill="#84BE84" rx="3" ry="3" style="stroke:#038048;stroke-width:1.0;"/><text fill="#000000" font-family="sans-serif" font-size="11" lengthAdjust="spacing" textLength="121" x="472" y="139.3652">allowTitleEvents() : any</text><ellipse cx="463" cy="148.6855" fill="#84BE84" rx="3" ry="3" style="stroke:#038048;stroke-width:1.0;"/><text fill="#000000" font-family="sans-serif" font-size="11" lengthAdjust="spacing" textLength="67" x="472" y="152.3203">build() : void</text><ellipse cx="463" cy="161.6406" fill="#84BE84" rx="3" ry="3" style="stroke:#038048;stroke-width:1.0;"/><text fill="#000000" font-family="sans-serif" font-size="11" lengthAdjust="spacing" textLength="377" x="472" y="165.2754">changeProperty(propertyName: string, propertyValue: unknown) : void</text><ellipse cx="463" cy="174.5957" fill="#84BE84" rx="3" ry="3" style="stroke:#038048;stroke-width:1.0;"/><text fill="#000000" font-family="sans-serif" font-size="11" lengthAdjust="spacing" textLength="68" x="472" y="178.2305">close() : void</text><ellipse cx="463" cy="187.5508" fill="#84BE84" rx="3" ry="3" style="stroke:#038048;stroke-width:1.0;"/><text fill="#000000" font-family="sans-serif" font-size="11" lengthAdjust="spacing" textLength="82" x="472" y="191.1855">dispose() : void</text><ellipse cx="463" cy="200.5059" fill="#84BE84" rx="3" ry="3" style="stroke:#038048;stroke-width:1.0;"/><text fill="#000000" font-family="sans-serif" font-size="11" lengthAdjust="spacing" textLength="168" x="472" y="204.1406">equalsToID(id: string) : boolean</text><ellipse cx="463" cy="213.4609" fill="#84BE84" rx="3" ry="3" style="stroke:#038048;stroke-width:1.0;"/><text fill="#000000" font-family="sans-serif" font-size="11" lengthAdjust="spacing" textLength="67" x="472" y="217.0957">open() : void</text><ellipse cx="463" cy="226.416" fill="#84BE84" rx="3" ry="3" style="stroke:#038048;stroke-width:1.0;"/><text fill="#000000" font-family="sans-serif" font-size="11" lengthAdjust="spacing" textLength="232" x="472" y="230.0508">registerCallback(callback: OSGeneric) : void</text><ellipse cx="463" cy="239.3711" fill="#84BE84" rx="3" ry="3" style="stroke:#038048;stroke-width:1.0;"/><text fill="#000000" font-family="sans-serif" font-size="11" lengthAdjust="spacing" textLength="77" x="472" y="243.0059">setBlur() : void</text><ellipse cx="463" cy="252.3262" fill="#84BE84" rx="3" ry="3" style="stroke:#038048;stroke-width:1.0;"/><text fill="#000000" font-family="sans-serif" font-size="11" lengthAdjust="spacing" textLength="88" x="472" y="255.9609">setFocus() : void</text><ellipse cx="463" cy="265.2813" fill="#84BE84" rx="3" ry="3" style="stroke:#038048;stroke-width:1.0;"/><text fill="#000000" font-family="sans-serif" font-size="11" lengthAdjust="spacing" textLength="106" x="472" y="268.916">setTabindex() : void</text><ellipse cx="463" cy="278.2363" fill="#84BE84" rx="3" ry="3" style="stroke:#038048;stroke-width:1.0;"/><text fill="#000000" font-family="sans-serif" font-size="11" lengthAdjust="spacing" textLength="120" x="472" y="281.8711">unsetTabindex() : void</text><!--MD5=[b5e1d7c7cb50de28cd5bb5013af73a75]
class IFlipContent--><rect codeLine="32" fill="#FFFFFF" filter="url(#fqd56arahfloq)" height="203.4609" id="IFlipContent" style="stroke:#272B30;stroke-width:1.5;" width="403" x="452" y="323"/><ellipse cx="615.75" cy="339" fill="#B4A7E5" rx="11" ry="11" style="stroke:#272B30;stroke-width:1.0;"/><path d="M612.1777,335.2651 L612.1777,333.1069 L619.5571,333.1069 L619.5571,335.2651 L617.0918,335.2651 L617.0918,343.3418 L619.5571,343.3418 L619.5571,345.5 L612.1777,345.5 L612.1777,343.3418 L614.6431,343.3418 L614.6431,335.2651 Z " fill="#000000"/><text fill="#000000" font-family="sans-serif" font-size="12" font-style="italic" lengthAdjust="spacing" textLength="67" x="636.25" y="343.5352">IFlipContent</text><line style="stroke:#272B30;stroke-width:1.5;" x1="453" x2="854" y1="355" y2="355"/><ellipse cx="463" cy="366" rx="3" ry="3" style="stroke:#038048;stroke-width:1.0;fill:none;"/><text fill="#000000" font-family="sans-serif" font-size="11" lengthAdjust="spacing" textLength="84" x="472" y="369.6348">isBuilt : boolean</text><ellipse cx="463" cy="378.9551" rx="3" ry="3" style="stroke:#038048;stroke-width:1.0;fill:none;"/><text fill="#000000" font-family="sans-serif" font-size="11" lengthAdjust="spacing" textLength="142" x="472" y="382.5898">selfElement : HTMLElement</text><ellipse cx="463" cy="391.9102" rx="3" ry="3" style="stroke:#038048;stroke-width:1.0;fill:none;"/><text fill="#000000" font-family="sans-serif" font-size="11" lengthAdjust="spacing" textLength="88" x="472" y="395.5449">uniqueId : string</text><ellipse cx="463" cy="404.8652" rx="3" ry="3" style="stroke:#038048;stroke-width:1.0;fill:none;"/><text fill="#000000" font-family="sans-serif" font-size="11" lengthAdjust="spacing" textLength="86" x="472" y="408.5">widgetId : string</text><line style="stroke:#272B30;stroke-width:1.5;" x1="453" x2="854" y1="414.8203" y2="414.8203"/><ellipse cx="463" cy="425.8203" fill="#84BE84" rx="3" ry="3" style="stroke:#038048;stroke-width:1.0;"/><text fill="#000000" font-family="sans-serif" font-size="11" lengthAdjust="spacing" textLength="67" x="472" y="429.4551">build() : void</text><ellipse cx="463" cy="438.7754" fill="#84BE84" rx="3" ry="3" style="stroke:#038048;stroke-width:1.0;"/><text fill="#000000" font-family="sans-serif" font-size="11" lengthAdjust="spacing" textLength="377" x="472" y="442.4102">changeProperty(propertyName: string, propertyValue: unknown) : void</text><ellipse cx="463" cy="451.7305" fill="#84BE84" rx="3" ry="3" style="stroke:#038048;stroke-width:1.0;"/><text fill="#000000" font-family="sans-serif" font-size="11" lengthAdjust="spacing" textLength="82" x="472" y="455.3652">dispose() : void</text><ellipse cx="463" cy="464.6855" fill="#84BE84" rx="3" ry="3" style="stroke:#038048;stroke-width:1.0;"/><text fill="#000000" font-family="sans-serif" font-size="11" lengthAdjust="spacing" textLength="168" x="472" y="468.3203">equalsToID(id: string) : boolean</text><ellipse cx="463" cy="477.6406" fill="#84BE84" rx="3" ry="3" style="stroke:#038048;stroke-width:1.0;"/><text fill="#000000" font-family="sans-serif" font-size="11" lengthAdjust="spacing" textLength="232" x="472" y="481.2754">registerCallback(callback: OSGeneric) : void</text><ellipse cx="463" cy="490.5957" fill="#84BE84" rx="3" ry="3" style="stroke:#038048;stroke-width:1.0;"/><text fill="#000000" font-family="sans-serif" font-size="11" lengthAdjust="spacing" textLength="135" x="472" y="494.2305">showBackContent() : void</text><ellipse cx="463" cy="503.5508" fill="#84BE84" rx="3" ry="3" style="stroke:#038048;stroke-width:1.0;"/><text fill="#000000" font-family="sans-serif" font-size="11" lengthAdjust="spacing" textLength="140" x="472" y="507.1855">showFrontContent() : void</text><ellipse cx="463" cy="516.5059" fill="#84BE84" rx="3" ry="3" style="stroke:#038048;stroke-width:1.0;"/><text fill="#000000" font-family="sans-serif" font-size="11" lengthAdjust="spacing" textLength="136" x="472" y="520.1406">toggleFlipContent() : void</text><!--MD5=[10a2978c7be94e8b96f0437939e07f04]
class IFloatingActions--><rect codeLine="47" fill="#FFFFFF" filter="url(#fqd56arahfloq)" height="216.416" id="IFloatingActions" style="stroke:#272B30;stroke-width:1.5;" width="489" x="409" y="561.5"/><ellipse cx="605.25" cy="577.5" fill="#B4A7E5" rx="11" ry="11" style="stroke:#272B30;stroke-width:1.0;"/><path d="M601.6777,573.7651 L601.6777,571.6069 L609.0571,571.6069 L609.0571,573.7651 L606.5918,573.7651 L606.5918,581.8418 L609.0571,581.8418 L609.0571,584 L601.6777,584 L601.6777,581.8418 L604.1431,581.8418 L604.1431,573.7651 Z " fill="#000000"/><text fill="#000000" font-family="sans-serif" font-size="12" font-style="italic" lengthAdjust="spacing" textLength="88" x="625.75" y="582.0352">IFloatingActions</text><line style="stroke:#272B30;stroke-width:1.5;" x1="410" x2="897" y1="593.5" y2="593.5"/><ellipse cx="420" cy="604.5" rx="3" ry="3" style="stroke:#038048;stroke-width:1.0;fill:none;"/><text fill="#000000" font-family="sans-serif" font-size="11" lengthAdjust="spacing" textLength="84" x="429" y="608.1348">isBuilt : boolean</text><ellipse cx="420" cy="617.4551" rx="3" ry="3" style="stroke:#038048;stroke-width:1.0;fill:none;"/><text fill="#000000" font-family="sans-serif" font-size="11" lengthAdjust="spacing" textLength="142" x="429" y="621.0898">selfElement : HTMLElement</text><ellipse cx="420" cy="630.4102" rx="3" ry="3" style="stroke:#038048;stroke-width:1.0;fill:none;"/><text fill="#000000" font-family="sans-serif" font-size="11" lengthAdjust="spacing" textLength="88" x="429" y="634.0449">uniqueId : string</text><ellipse cx="420" cy="643.3652" rx="3" ry="3" style="stroke:#038048;stroke-width:1.0;fill:none;"/><text fill="#000000" font-family="sans-serif" font-size="11" lengthAdjust="spacing" textLength="86" x="429" y="647">widgetId : string</text><line style="stroke:#272B30;stroke-width:1.5;" x1="410" x2="897" y1="653.3203" y2="653.3203"/><ellipse cx="420" cy="664.3203" fill="#84BE84" rx="3" ry="3" style="stroke:#038048;stroke-width:1.0;"/><text fill="#000000" font-family="sans-serif" font-size="11" lengthAdjust="spacing" textLength="463" x="429" y="667.9551">addFloatingActionItem(uniqueId: string, floatingActionItem: IFloatingActionsItem) : any</text><ellipse cx="420" cy="677.2754" fill="#84BE84" rx="3" ry="3" style="stroke:#038048;stroke-width:1.0;"/><text fill="#000000" font-family="sans-serif" font-size="11" lengthAdjust="spacing" textLength="67" x="429" y="680.9102">build() : void</text><ellipse cx="420" cy="690.2305" fill="#84BE84" rx="3" ry="3" style="stroke:#038048;stroke-width:1.0;"/><text fill="#000000" font-family="sans-serif" font-size="11" lengthAdjust="spacing" textLength="377" x="429" y="693.8652">changeProperty(propertyName: string, propertyValue: unknown) : void</text><ellipse cx="420" cy="703.1855" fill="#84BE84" rx="3" ry="3" style="stroke:#038048;stroke-width:1.0;"/><text fill="#000000" font-family="sans-serif" font-size="11" lengthAdjust="spacing" textLength="68" x="429" y="706.8203">close() : void</text><ellipse cx="420" cy="716.1406" fill="#84BE84" rx="3" ry="3" style="stroke:#038048;stroke-width:1.0;"/><text fill="#000000" font-family="sans-serif" font-size="11" lengthAdjust="spacing" textLength="82" x="429" y="719.7754">dispose() : void</text><ellipse cx="420" cy="729.0957" fill="#84BE84" rx="3" ry="3" style="stroke:#038048;stroke-width:1.0;"/><text fill="#000000" font-family="sans-serif" font-size="11" lengthAdjust="spacing" textLength="168" x="429" y="732.7305">equalsToID(id: string) : boolean</text><ellipse cx="420" cy="742.0508" fill="#84BE84" rx="3" ry="3" style="stroke:#038048;stroke-width:1.0;"/><text fill="#000000" font-family="sans-serif" font-size="11" lengthAdjust="spacing" textLength="67" x="429" y="745.6855">open() : void</text><ellipse cx="420" cy="755.0059" fill="#84BE84" rx="3" ry="3" style="stroke:#038048;stroke-width:1.0;"/><text fill="#000000" font-family="sans-serif" font-size="11" lengthAdjust="spacing" textLength="232" x="429" y="758.6406">registerCallback(callback: OSGeneric) : void</text><ellipse cx="420" cy="767.9609" fill="#84BE84" rx="3" ry="3" style="stroke:#038048;stroke-width:1.0;"/><text fill="#000000" font-family="sans-serif" font-size="11" lengthAdjust="spacing" textLength="262" x="429" y="771.5957">removeFloatingActionItem(uniqueId: string) : any</text><!--MD5=[c53433a13b49484991718bb2aba5db1d]
class IRating--><rect codeLine="63" fill="#FFFFFF" filter="url(#fqd56arahfloq)" height="164.5957" id="IRating" style="stroke:#272B30;stroke-width:1.5;" width="403" x="452" y="813"/><ellipse cx="629.75" cy="829" fill="#B4A7E5" rx="11" ry="11" style="stroke:#272B30;stroke-width:1.0;"/><path d="M626.1777,825.2651 L626.1777,823.1069 L633.5571,823.1069 L633.5571,825.2651 L631.0918,825.2651 L631.0918,833.3418 L633.5571,833.3418 L633.5571,835.5 L626.1777,835.5 L626.1777,833.3418 L628.6431,833.3418 L628.6431,825.2651 Z " fill="#000000"/><text fill="#000000" font-family="sans-serif" font-size="12" font-style="italic" lengthAdjust="spacing" textLength="39" x="650.25" y="833.5352">IRating</text><line style="stroke:#272B30;stroke-width:1.5;" x1="453" x2="854" y1="845" y2="845"/><ellipse cx="463" cy="856" rx="3" ry="3" style="stroke:#038048;stroke-width:1.0;fill:none;"/><text fill="#000000" font-family="sans-serif" font-size="11" lengthAdjust="spacing" textLength="84" x="472" y="859.6348">isBuilt : boolean</text><ellipse cx="463" cy="868.9551" rx="3" ry="3" style="stroke:#038048;stroke-width:1.0;fill:none;"/><text fill="#000000" font-family="sans-serif" font-size="11" lengthAdjust="spacing" textLength="142" x="472" y="872.5898">selfElement : HTMLElement</text><ellipse cx="463" cy="881.9102" rx="3" ry="3" style="stroke:#038048;stroke-width:1.0;fill:none;"/><text fill="#000000" font-family="sans-serif" font-size="11" lengthAdjust="spacing" textLength="88" x="472" y="885.5449">uniqueId : string</text><ellipse cx="463" cy="894.8652" rx="3" ry="3" style="stroke:#038048;stroke-width:1.0;fill:none;"/><text fill="#000000" font-family="sans-serif" font-size="11" lengthAdjust="spacing" textLength="86" x="472" y="898.5">widgetId : string</text><line style="stroke:#272B30;stroke-width:1.5;" x1="453" x2="854" y1="904.8203" y2="904.8203"/><ellipse cx="463" cy="915.8203" fill="#84BE84" rx="3" ry="3" style="stroke:#038048;stroke-width:1.0;"/><text fill="#000000" font-family="sans-serif" font-size="11" lengthAdjust="spacing" textLength="67" x="472" y="919.4551">build() : void</text><ellipse cx="463" cy="928.7754" fill="#84BE84" rx="3" ry="3" style="stroke:#038048;stroke-width:1.0;"/><text fill="#000000" font-family="sans-serif" font-size="11" lengthAdjust="spacing" textLength="377" x="472" y="932.4102">changeProperty(propertyName: string, propertyValue: unknown) : void</text><ellipse cx="463" cy="941.7305" fill="#84BE84" rx="3" ry="3" style="stroke:#038048;stroke-width:1.0;"/><text fill="#000000" font-family="sans-serif" font-size="11" lengthAdjust="spacing" textLength="82" x="472" y="945.3652">dispose() : void</text><ellipse cx="463" cy="954.6855" fill="#84BE84" rx="3" ry="3" style="stroke:#038048;stroke-width:1.0;"/><text fill="#000000" font-family="sans-serif" font-size="11" lengthAdjust="spacing" textLength="168" x="472" y="958.3203">equalsToID(id: string) : boolean</text><ellipse cx="463" cy="967.6406" fill="#84BE84" rx="3" ry="3" style="stroke:#038048;stroke-width:1.0;"/><text fill="#000000" font-family="sans-serif" font-size="11" lengthAdjust="spacing" textLength="232" x="472" y="971.2754">registerCallback(callback: OSGeneric) : void</text><!--MD5=[fc06c8a10155844f9f4e658799271422]
class ISearch--><rect codeLine="75" fill="#FFFFFF" filter="url(#fqd56arahfloq)" height="190.5059" id="ISearch" style="stroke:#272B30;stroke-width:1.5;" width="403" x="452" y="1013"/><ellipse cx="628.75" cy="1029" fill="#B4A7E5" rx="11" ry="11" style="stroke:#272B30;stroke-width:1.0;"/><path d="M625.1777,1025.2651 L625.1777,1023.1069 L632.5571,1023.1069 L632.5571,1025.2651 L630.0918,1025.2651 L630.0918,1033.3418 L632.5571,1033.3418 L632.5571,1035.5 L625.1777,1035.5 L625.1777,1033.3418 L627.6431,1033.3418 L627.6431,1025.2651 Z " fill="#000000"/><text fill="#000000" font-family="sans-serif" font-size="12" font-style="italic" lengthAdjust="spacing" textLength="41" x="649.25" y="1033.5352">ISearch</text><line style="stroke:#272B30;stroke-width:1.5;" x1="453" x2="854" y1="1045" y2="1045"/><ellipse cx="463" cy="1056" rx="3" ry="3" style="stroke:#038048;stroke-width:1.0;fill:none;"/><text fill="#000000" font-family="sans-serif" font-size="11" lengthAdjust="spacing" textLength="84" x="472" y="1059.6348">isBuilt : boolean</text><ellipse cx="463" cy="1068.9551" rx="3" ry="3" style="stroke:#038048;stroke-width:1.0;fill:none;"/><text fill="#000000" font-family="sans-serif" font-size="11" lengthAdjust="spacing" textLength="142" x="472" y="1072.5898">selfElement : HTMLElement</text><ellipse cx="463" cy="1081.9102" rx="3" ry="3" style="stroke:#038048;stroke-width:1.0;fill:none;"/><text fill="#000000" font-family="sans-serif" font-size="11" lengthAdjust="spacing" textLength="88" x="472" y="1085.5449">uniqueId : string</text><ellipse cx="463" cy="1094.8652" rx="3" ry="3" style="stroke:#038048;stroke-width:1.0;fill:none;"/><text fill="#000000" font-family="sans-serif" font-size="11" lengthAdjust="spacing" textLength="86" x="472" y="1098.5">widgetId : string</text><line style="stroke:#272B30;stroke-width:1.5;" x1="453" x2="854" y1="1104.8203" y2="1104.8203"/><ellipse cx="463" cy="1115.8203" fill="#84BE84" rx="3" ry="3" style="stroke:#038048;stroke-width:1.0;"/><text fill="#000000" font-family="sans-serif" font-size="11" lengthAdjust="spacing" textLength="67" x="472" y="1119.4551">build() : void</text><ellipse cx="463" cy="1128.7754" fill="#84BE84" rx="3" ry="3" style="stroke:#038048;stroke-width:1.0;"/><text fill="#000000" font-family="sans-serif" font-size="11" lengthAdjust="spacing" textLength="377" x="472" y="1132.4102">changeProperty(propertyName: string, propertyValue: unknown) : void</text><ellipse cx="463" cy="1141.7305" fill="#84BE84" rx="3" ry="3" style="stroke:#038048;stroke-width:1.0;"/><text fill="#000000" font-family="sans-serif" font-size="11" lengthAdjust="spacing" textLength="68" x="472" y="1145.3652">close() : void</text><ellipse cx="463" cy="1154.6855" fill="#84BE84" rx="3" ry="3" style="stroke:#038048;stroke-width:1.0;"/><text fill="#000000" font-family="sans-serif" font-size="11" lengthAdjust="spacing" textLength="82" x="472" y="1158.3203">dispose() : void</text><ellipse cx="463" cy="1167.6406" fill="#84BE84" rx="3" ry="3" style="stroke:#038048;stroke-width:1.0;"/><text fill="#000000" font-family="sans-serif" font-size="11" lengthAdjust="spacing" textLength="168" x="472" y="1171.2754">equalsToID(id: string) : boolean</text><ellipse cx="463" cy="1180.5957" fill="#84BE84" rx="3" ry="3" style="stroke:#038048;stroke-width:1.0;"/><text fill="#000000" font-family="sans-serif" font-size="11" lengthAdjust="spacing" textLength="67" x="472" y="1184.2305">open() : void</text><ellipse cx="463" cy="1193.5508" fill="#84BE84" rx="3" ry="3" style="stroke:#038048;stroke-width:1.0;"/><text fill="#000000" font-family="sans-serif" font-size="11" lengthAdjust="spacing" textLength="232" x="472" y="1197.1855">registerCallback(callback: OSGeneric) : void</text><!--MD5=[269732d4b4d4bad0949a96b3ba380c4a]
class ISidebar--><rect codeLine="89" fill="#FFFFFF" filter="url(#fqd56arahfloq)" height="203.4609" id="ISidebar" style="stroke:#272B30;stroke-width:1.5;" width="403" x="452" y="1239"/><ellipse cx="625.75" cy="1255" fill="#B4A7E5" rx="11" ry="11" style="stroke:#272B30;stroke-width:1.0;"/><path d="M622.1777,1251.2651 L622.1777,1249.1069 L629.5571,1249.1069 L629.5571,1251.2651 L627.0918,1251.2651 L627.0918,1259.3418 L629.5571,1259.3418 L629.5571,1261.5 L622.1777,1261.5 L622.1777,1259.3418 L624.6431,1259.3418 L624.6431,1251.2651 Z " fill="#000000"/><text fill="#000000" font-family="sans-serif" font-size="12" font-style="italic" lengthAdjust="spacing" textLength="47" x="646.25" y="1259.5352">ISidebar</text><line style="stroke:#272B30;stroke-width:1.5;" x1="453" x2="854" y1="1271" y2="1271"/><ellipse cx="463" cy="1282" rx="3" ry="3" style="stroke:#038048;stroke-width:1.0;fill:none;"/><text fill="#000000" font-family="sans-serif" font-size="11" lengthAdjust="spacing" textLength="84" x="472" y="1285.6348">isBuilt : boolean</text><ellipse cx="463" cy="1294.9551" rx="3" ry="3" style="stroke:#038048;stroke-width:1.0;fill:none;"/><text fill="#000000" font-family="sans-serif" font-size="11" lengthAdjust="spacing" textLength="142" x="472" y="1298.5898">selfElement : HTMLElement</text><ellipse cx="463" cy="1307.9102" rx="3" ry="3" style="stroke:#038048;stroke-width:1.0;fill:none;"/><text fill="#000000" font-family="sans-serif" font-size="11" lengthAdjust="spacing" textLength="88" x="472" y="1311.5449">uniqueId : string</text><ellipse cx="463" cy="1320.8652" rx="3" ry="3" style="stroke:#038048;stroke-width:1.0;fill:none;"/><text fill="#000000" font-family="sans-serif" font-size="11" lengthAdjust="spacing" textLength="86" x="472" y="1324.5">widgetId : string</text><line style="stroke:#272B30;stroke-width:1.5;" x1="453" x2="854" y1="1330.8203" y2="1330.8203"/><ellipse cx="463" cy="1341.8203" fill="#84BE84" rx="3" ry="3" style="stroke:#038048;stroke-width:1.0;"/><text fill="#000000" font-family="sans-serif" font-size="11" lengthAdjust="spacing" textLength="67" x="472" y="1345.4551">build() : void</text><ellipse cx="463" cy="1354.7754" fill="#84BE84" rx="3" ry="3" style="stroke:#038048;stroke-width:1.0;"/><text fill="#000000" font-family="sans-serif" font-size="11" lengthAdjust="spacing" textLength="377" x="472" y="1358.4102">changeProperty(propertyName: string, propertyValue: unknown) : void</text><ellipse cx="463" cy="1367.7305" fill="#84BE84" rx="3" ry="3" style="stroke:#038048;stroke-width:1.0;"/><text fill="#000000" font-family="sans-serif" font-size="11" lengthAdjust="spacing" textLength="68" x="472" y="1371.3652">close() : void</text><ellipse cx="463" cy="1380.6855" fill="#84BE84" rx="3" ry="3" style="stroke:#038048;stroke-width:1.0;"/><text fill="#000000" font-family="sans-serif" font-size="11" lengthAdjust="spacing" textLength="82" x="472" y="1384.3203">dispose() : void</text><ellipse cx="463" cy="1393.6406" fill="#84BE84" rx="3" ry="3" style="stroke:#038048;stroke-width:1.0;"/><text fill="#000000" font-family="sans-serif" font-size="11" lengthAdjust="spacing" textLength="168" x="472" y="1397.2754">equalsToID(id: string) : boolean</text><ellipse cx="463" cy="1406.5957" fill="#84BE84" rx="3" ry="3" style="stroke:#038048;stroke-width:1.0;"/><text fill="#000000" font-family="sans-serif" font-size="11" lengthAdjust="spacing" textLength="67" x="472" y="1410.2305">open() : void</text><ellipse cx="463" cy="1419.5508" fill="#84BE84" rx="3" ry="3" style="stroke:#038048;stroke-width:1.0;"/><text fill="#000000" font-family="sans-serif" font-size="11" lengthAdjust="spacing" textLength="232" x="472" y="1423.1855">registerCallback(callback: OSGeneric) : void</text><ellipse cx="463" cy="1432.5059" fill="#84BE84" rx="3" ry="3" style="stroke:#038048;stroke-width:1.0;"/><text fill="#000000" font-family="sans-serif" font-size="11" lengthAdjust="spacing" textLength="212" x="472" y="1436.1406">toggleGestures(enableSwipe: any) : void</text><!--MD5=[13c86079cb4dd3326799044bc147a982]
class ITabs--><rect codeLine="104" fill="#FFFFFF" filter="url(#fqd56arahfloq)" height="203.4609" id="ITabs" style="stroke:#272B30;stroke-width:1.5;" width="657" x="325" y="1477"/><ellipse cx="633.25" cy="1493" fill="#B4A7E5" rx="11" ry="11" style="stroke:#272B30;stroke-width:1.0;"/><path d="M629.6777,1489.2651 L629.6777,1487.1069 L637.0571,1487.1069 L637.0571,1489.2651 L634.5918,1489.2651 L634.5918,1497.3418 L637.0571,1497.3418 L637.0571,1499.5 L629.6777,1499.5 L629.6777,1497.3418 L632.1431,1497.3418 L632.1431,1489.2651 Z " fill="#000000"/><text fill="#000000" font-family="sans-serif" font-size="12" font-style="italic" lengthAdjust="spacing" textLength="32" x="653.75" y="1497.5352">ITabs</text><line style="stroke:#272B30;stroke-width:1.5;" x1="326" x2="981" y1="1509" y2="1509"/><ellipse cx="336" cy="1520" rx="3" ry="3" style="stroke:#038048;stroke-width:1.0;fill:none;"/><text fill="#000000" font-family="sans-serif" font-size="11" lengthAdjust="spacing" textLength="84" x="345" y="1523.6348">isBuilt : boolean</text><ellipse cx="336" cy="1532.9551" rx="3" ry="3" style="stroke:#038048;stroke-width:1.0;fill:none;"/><text fill="#000000" font-family="sans-serif" font-size="11" lengthAdjust="spacing" textLength="142" x="345" y="1536.5898">selfElement : HTMLElement</text><ellipse cx="336" cy="1545.9102" rx="3" ry="3" style="stroke:#038048;stroke-width:1.0;fill:none;"/><text fill="#000000" font-family="sans-serif" font-size="11" lengthAdjust="spacing" textLength="88" x="345" y="1549.5449">uniqueId : string</text><ellipse cx="336" cy="1558.8652" rx="3" ry="3" style="stroke:#038048;stroke-width:1.0;fill:none;"/><text fill="#000000" font-family="sans-serif" font-size="11" lengthAdjust="spacing" textLength="86" x="345" y="1562.5">widgetId : string</text><line style="stroke:#272B30;stroke-width:1.5;" x1="326" x2="981" y1="1568.8203" y2="1568.8203"/><ellipse cx="336" cy="1579.8203" fill="#84BE84" rx="3" ry="3" style="stroke:#038048;stroke-width:1.0;"/><text fill="#000000" font-family="sans-serif" font-size="11" lengthAdjust="spacing" textLength="308" x="345" y="1583.4551">beNotifiedByChild(childId: string, notifiedTo: string) : void</text><ellipse cx="336" cy="1592.7754" fill="#84BE84" rx="3" ry="3" style="stroke:#038048;stroke-width:1.0;"/><text fill="#000000" font-family="sans-serif" font-size="11" lengthAdjust="spacing" textLength="67" x="345" y="1596.4102">build() : void</text><ellipse cx="336" cy="1605.7305" fill="#84BE84" rx="3" ry="3" style="stroke:#038048;stroke-width:1.0;"/><text fill="#000000" font-family="sans-serif" font-size="11" lengthAdjust="spacing" textLength="377" x="345" y="1609.3652">changeProperty(propertyName: string, propertyValue: unknown) : void</text><ellipse cx="336" cy="1618.6855" fill="#84BE84" rx="3" ry="3" style="stroke:#038048;stroke-width:1.0;"/><text fill="#000000" font-family="sans-serif" font-size="11" lengthAdjust="spacing" textLength="631" x="345" y="1622.3203">changeTab(tabIndex: number, tabsHeaderItem: ITabsHeaderItem, blockObserver: boolean, triggerEvent: boolean) : any</text><ellipse cx="336" cy="1631.6406" fill="#84BE84" rx="3" ry="3" style="stroke:#038048;stroke-width:1.0;"/><text fill="#000000" font-family="sans-serif" font-size="11" lengthAdjust="spacing" textLength="82" x="345" y="1635.2754">dispose() : void</text><ellipse cx="336" cy="1644.5957" fill="#84BE84" rx="3" ry="3" style="stroke:#038048;stroke-width:1.0;"/><text fill="#000000" font-family="sans-serif" font-size="11" lengthAdjust="spacing" textLength="168" x="345" y="1648.2305">equalsToID(id: string) : boolean</text><ellipse cx="336" cy="1657.5508" fill="#84BE84" rx="3" ry="3" style="stroke:#038048;stroke-width:1.0;"/><text fill="#000000" font-family="sans-serif" font-size="11" lengthAdjust="spacing" textLength="232" x="345" y="1661.1855">registerCallback(callback: OSGeneric) : void</text><ellipse cx="336" cy="1670.5059" fill="#84BE84" rx="3" ry="3" style="stroke:#038048;stroke-width:1.0;"/><text fill="#000000" font-family="sans-serif" font-size="11" lengthAdjust="spacing" textLength="287" x="345" y="1674.1406">toggleDragGestures(addDragGestures: boolean) : any</text><!--MD5=[ea066d999b5ba1410ad403fb83ec5334]
reverse link ICallback to IAccordionItem--><path codeLine="31" d="M139.64,848.71 C148.11,740.35 183.08,468.99 325,305.5 C359.04,266.29 405.01,235.96 451.73,212.86 " fill="none" id="ICallback-backto-IAccordionItem" style="stroke:#272B30;stroke-width:1.0;"/><polygon fill="none" points="146.62,849.23,138.24,868.69,132.66,848.25,146.62,849.23" style="stroke:#272B30;stroke-width:1.0;"/><!--MD5=[61a3d075b4ce09ad68afba3d659ef06a]
reverse link ICallback to IFlipContent--><path codeLine="46" d="M149.79,849.41 C172.74,774.88 227.85,627.75 325,543.5 C361.33,511.99 406.69,488.58 451.95,471.27 " fill="none" id="ICallback-backto-IFlipContent" style="stroke:#272B30;stroke-width:1.0;"/><polygon fill="none" points="156.43,851.63,144.04,868.81,143.01,847.65,156.43,851.63" style="stroke:#272B30;stroke-width:1.0;"/><!--MD5=[681a5e2513a8bfc177e05d67dcf6db65]
reverse link ICallback to IFloatingActions--><path codeLine="62" d="M201.12,858.9 C237.02,839.04 282.9,814.71 325,795.5 C351.88,783.23 380.33,771.09 408.79,759.47 " fill="none" id="ICallback-backto-IFloatingActions" style="stroke:#272B30;stroke-width:1.0;"/><polygon fill="none" points="204.21,865.19,183.33,868.82,197.39,852.96,204.21,865.19" style="stroke:#272B30;stroke-width:1.0;"/><!--MD5=[1491a77984b7e4657c26aa2355539011]
reverse link ICallback to IRating--><path codeLine="74" d="M285.34,895.5 C337.21,895.5 396.34,895.5 451.77,895.5 " fill="none" id="ICallback-backto-IRating" style="stroke:#272B30;stroke-width:1.0;"/><polygon fill="none" points="285.09,902.5,265.09,895.5,285.09,888.5,285.09,902.5" style="stroke:#272B30;stroke-width:1.0;"/><!--MD5=[cd3b4a66b2cc89d64046f54d413d7de4]
reverse link ICallback to ISearch--><path codeLine="88" d="M199.77,932.07 C235.74,952.22 282.13,976.84 325,995.5 C365.4,1013.08 409.49,1029.86 451.85,1044.84 " fill="none" id="ICallback-backto-ISearch" style="stroke:#272B30;stroke-width:1.0;"/><polygon fill="none" points="195.94,937.94,181.98,922,202.84,925.76,195.94,937.94" style="stroke:#272B30;stroke-width:1.0;"/><!--MD5=[88e926dd466bffb005a7ba192acd708b]
reverse link ICallback to ISidebar--><path codeLine="103" d="M151.8,941.16 C176.69,1011.08 233.41,1144.65 325,1221.5 C361.61,1252.22 406.81,1275.31 451.82,1292.56 " fill="none" id="ICallback-backto-ISidebar" style="stroke:#272B30;stroke-width:1.0;"/><polygon fill="none" points="145.11,943.22,145.22,922.03,158.34,938.67,145.11,943.22" style="stroke:#272B30;stroke-width:1.0;"/><!--MD5=[7c93ffa89052fb5641ec08e162440e55]
reverse link ICallback to ITabs--><path codeLine="118" d="M139.3,942.27 C147.01,1048.66 180.48,1311.06 325,1459.5 C330.91,1465.57 337.15,1471.33 343.67,1476.8 " fill="none" id="ICallback-backto-ITabs" style="stroke:#272B30;stroke-width:1.0;"/><polygon fill="none" points="132.29,942.43,138.01,922.03,146.26,941.55,132.29,942.43" style="stroke:#272B30;stroke-width:1.0;"/><!--MD5=[31dd4abf360e90ba61301f43f27738e2]
@startuml
skinparam ClassArrowColor #272b30
skinparam ClassBorderColor #272b30
skinparam ClassBackgroundColor #fff
skinparam BackgroundColor #ced4da
left to right direction
hide empty methods
hide empty fields
interface "ICallback" {
    +registerCallback(callback: OSGeneric) : void
}
interface "IAccordionItem" {
    +isBuilt : boolean
    +isDisabled : boolean
    +isOpen : boolean
    +selfElement : HTMLElement
    +uniqueId : string
    +widgetId : string
    +allowTitleEvents() : any
    +build() : void
    +changeProperty(propertyName: string, propertyValue: unknown) : void
    +close() : void
    +dispose() : void
    +equalsToID(id: string) : boolean
    +open() : void
    +registerCallback(callback: OSGeneric) : void
    +setBlur() : void
    +setFocus() : void
    +setTabindex() : void
    +unsetTabindex() : void
}
"ICallback" <|- - "IAccordionItem"
interface "IFlipContent" {
    +isBuilt : boolean
    +selfElement : HTMLElement
    +uniqueId : string
    +widgetId : string
    +build() : void
    +changeProperty(propertyName: string, propertyValue: unknown) : void
    +dispose() : void
    +equalsToID(id: string) : boolean
    +registerCallback(callback: OSGeneric) : void
    +showBackContent() : void
    +showFrontContent() : void
    +toggleFlipContent() : void
}
"ICallback" <|- - "IFlipContent"
interface "IFloatingActions" {
    +isBuilt : boolean
    +selfElement : HTMLElement
    +uniqueId : string
    +widgetId : string
    +addFloatingActionItem(uniqueId: string, floatingActionItem: IFloatingActionsItem) : any
    +build() : void
    +changeProperty(propertyName: string, propertyValue: unknown) : void
    +close() : void
    +dispose() : void
    +equalsToID(id: string) : boolean
    +open() : void
    +registerCallback(callback: OSGeneric) : void
    +removeFloatingActionItem(uniqueId: string) : any
}
"ICallback" <|- - "IFloatingActions"
interface "IRating" {
    +isBuilt : boolean
    +selfElement : HTMLElement
    +uniqueId : string
    +widgetId : string
    +build() : void
    +changeProperty(propertyName: string, propertyValue: unknown) : void
    +dispose() : void
    +equalsToID(id: string) : boolean
    +registerCallback(callback: OSGeneric) : void
}
"ICallback" <|- - "IRating"
interface "ISearch" {
    +isBuilt : boolean
    +selfElement : HTMLElement
    +uniqueId : string
    +widgetId : string
    +build() : void
    +changeProperty(propertyName: string, propertyValue: unknown) : void
    +close() : void
    +dispose() : void
    +equalsToID(id: string) : boolean
    +open() : void
    +registerCallback(callback: OSGeneric) : void
}
"ICallback" <|- - "ISearch"
interface "ISidebar" {
    +isBuilt : boolean
    +selfElement : HTMLElement
    +uniqueId : string
    +widgetId : string
    +build() : void
    +changeProperty(propertyName: string, propertyValue: unknown) : void
    +close() : void
    +dispose() : void
    +equalsToID(id: string) : boolean
    +open() : void
    +registerCallback(callback: OSGeneric) : void
    +toggleGestures(enableSwipe: any) : void
}
"ICallback" <|- - "ISidebar"
interface "ITabs" {
    +isBuilt : boolean
    +selfElement : HTMLElement
    +uniqueId : string
    +widgetId : string
    +beNotifiedByChild(childId: string, notifiedTo: string) : void
    +build() : void
    +changeProperty(propertyName: string, propertyValue: unknown) : void
    +changeTab(tabIndex: number, tabsHeaderItem: ITabsHeaderItem, blockObserver: boolean, triggerEvent: boolean) : any
    +dispose() : void
    +equalsToID(id: string) : boolean
    +registerCallback(callback: OSGeneric) : void
    +toggleDragGestures(addDragGestures: boolean) : any
}
"ICallback" <|- - "ITabs"
@enduml

PlantUML version 1.2021.14(Fri Nov 12 16:46:50 WET 2021)
(GPL source distribution)
Java Runtime: Java(TM) SE Runtime Environment
JVM: Java HotSpot(TM) 64-Bit Server VM
Default Encoding: UTF-8
Language: en
Country: PT
--></g></svg>