<?xml version="1.0" encoding="UTF-8" standalone="no"?><svg xmlns="http://www.w3.org/2000/svg" xmlns:xlink="http://www.w3.org/1999/xlink" contentScriptType="application/ecmascript" contentStyleType="text/css" height="797px" preserveAspectRatio="none" style="width:2892px;height:797px;background:#CED4DA;" version="1.1" viewBox="0 0 2892 797" width="2892px" zoomAndPan="magnify"><defs><filter height="300%" id="fk8xc1rzkhzfz" width="300%" x="-1" y="-1"><feGaussianBlur result="blurOut" stdDeviation="2.0"/><feColorMatrix in="blurOut" result="blurOut2" type="matrix" values="0 0 0 0 0 0 0 0 0 0 0 0 0 0 0 0 0 0 .4 0"/><feOffset dx="4.0" dy="4.0" in="blurOut2" result="blurOut3"/><feBlend in="SourceGraphic" in2="blurOut3" mode="normal"/></filter></defs><g><!--MD5=[1123f0c3b94494dd3d3555a8beccd8c4]
class IChild--><rect codeLine="7" fill="#FFFFFF" filter="url(#fk8xc1rzkhzfz)" height="201.6563" id="IChild" style="stroke:#272B30;stroke-width:1.5;" width="425" x="1157" y="217"/><ellipse cx="1348.25" cy="233" fill="#B4A7E5" rx="11" ry="11" style="stroke:#272B30;stroke-width:1.0;"/><path d="M1344.1719,228.7656 L1344.1719,226.6094 L1351.5625,226.6094 L1351.5625,228.7656 L1349.0938,228.7656 L1349.0938,236.8438 L1351.5625,236.8438 L1351.5625,239 L1344.1719,239 L1344.1719,236.8438 L1346.6406,236.8438 L1346.6406,228.7656 L1344.1719,228.7656 Z " fill="#000000"/><text fill="#000000" font-family="sans-serif" font-size="12" font-style="italic" lengthAdjust="spacing" textLength="34" x="1368.75" y="237.1543">IChild</text><line style="stroke:#272B30;stroke-width:1.5;" x1="1158" x2="1581" y1="249" y2="249"/><ellipse cx="1168" cy="260" rx="3" ry="3" style="stroke:#038048;stroke-width:1.0;fill:none;"/><text fill="#000000" font-family="sans-serif" font-size="11" lengthAdjust="spacing" textLength="92" x="1177" y="263.2104">isBuilt : boolean</text><ellipse cx="1168" cy="272.8047" rx="3" ry="3" style="stroke:#038048;stroke-width:1.0;fill:none;"/><text fill="#000000" font-family="sans-serif" font-size="11" lengthAdjust="spacing" textLength="155" x="1177" y="276.0151">selfElement : HTMLElement</text><ellipse cx="1168" cy="285.6094" rx="3" ry="3" style="stroke:#038048;stroke-width:1.0;fill:none;"/><text fill="#000000" font-family="sans-serif" font-size="11" lengthAdjust="spacing" textLength="93" x="1177" y="288.8198">uniqueId : string</text><ellipse cx="1168" cy="298.4141" rx="3" ry="3" style="stroke:#038048;stroke-width:1.0;fill:none;"/><text fill="#000000" font-family="sans-serif" font-size="11" lengthAdjust="spacing" textLength="92" x="1177" y="301.6245">widgetId : string</text><line style="stroke:#272B30;stroke-width:1.5;" x1="1158" x2="1581" y1="308.2188" y2="308.2188"/><ellipse cx="1168" cy="319.2188" fill="#84BE84" rx="3" ry="3" style="stroke:#038048;stroke-width:1.0;"/><text fill="#000000" font-family="sans-serif" font-size="11" lengthAdjust="spacing" textLength="70" x="1177" y="322.4292">build() : void</text><ellipse cx="1168" cy="332.0234" fill="#84BE84" rx="3" ry="3" style="stroke:#038048;stroke-width:1.0;"/><text fill="#000000" font-family="sans-serif" font-size="11" lengthAdjust="spacing" textLength="399" x="1177" y="335.2339">changeProperty(propertyName: string, propertyValue: unknown) : void</text><ellipse cx="1168" cy="344.8281" fill="#84BE84" rx="3" ry="3" style="stroke:#038048;stroke-width:1.0;"/><text fill="#000000" font-family="sans-serif" font-size="11" lengthAdjust="spacing" textLength="88" x="1177" y="348.0386">dispose() : void</text><ellipse cx="1168" cy="357.6328" fill="#84BE84" rx="3" ry="3" style="stroke:#038048;stroke-width:1.0;"/><text fill="#000000" font-family="sans-serif" font-size="11" lengthAdjust="spacing" textLength="179" x="1177" y="360.8433">equalsToID(id: string) : boolean</text><ellipse cx="1168" cy="370.4375" fill="#84BE84" rx="3" ry="3" style="stroke:#038048;stroke-width:1.0;"/><text fill="#000000" font-family="sans-serif" font-size="11" lengthAdjust="spacing" textLength="84" x="1177" y="373.6479">setBlur() : void</text><ellipse cx="1168" cy="383.2422" fill="#84BE84" rx="3" ry="3" style="stroke:#038048;stroke-width:1.0;"/><text fill="#000000" font-family="sans-serif" font-size="11" lengthAdjust="spacing" textLength="94" x="1177" y="386.4526">setFocus() : void</text><ellipse cx="1168" cy="396.0469" fill="#84BE84" rx="3" ry="3" style="stroke:#038048;stroke-width:1.0;"/><text fill="#000000" font-family="sans-serif" font-size="11" lengthAdjust="spacing" textLength="112" x="1177" y="399.2573">setTabindex() : void</text><ellipse cx="1168" cy="408.8516" fill="#84BE84" rx="3" ry="3" style="stroke:#038048;stroke-width:1.0;"/><text fill="#000000" font-family="sans-serif" font-size="11" lengthAdjust="spacing" textLength="126" x="1177" y="412.062">unsetTabindex() : void</text><!--MD5=[3266101ea6228889a90c639b28de0501]
class IPattern--><rect codeLine="21" fill="#FFFFFF" filter="url(#fk8xc1rzkhzfz)" height="150.4375" id="IPattern" style="stroke:#272B30;stroke-width:1.5;" width="425" x="1157" y="7"/><ellipse cx="1340.25" cy="23" fill="#B4A7E5" rx="11" ry="11" style="stroke:#272B30;stroke-width:1.0;"/><path d="M1336.1719,18.7656 L1336.1719,16.6094 L1343.5625,16.6094 L1343.5625,18.7656 L1341.0938,18.7656 L1341.0938,26.8438 L1343.5625,26.8438 L1343.5625,29 L1336.1719,29 L1336.1719,26.8438 L1338.6406,26.8438 L1338.6406,18.7656 L1336.1719,18.7656 Z " fill="#000000"/><text fill="#000000" font-family="sans-serif" font-size="12" font-style="italic" lengthAdjust="spacing" textLength="50" x="1360.75" y="27.1543">IPattern</text><line style="stroke:#272B30;stroke-width:1.5;" x1="1158" x2="1581" y1="39" y2="39"/><ellipse cx="1168" cy="50" rx="3" ry="3" style="stroke:#038048;stroke-width:1.0;fill:none;"/><text fill="#000000" font-family="sans-serif" font-size="11" lengthAdjust="spacing" textLength="92" x="1177" y="53.2104">isBuilt : boolean</text><ellipse cx="1168" cy="62.8047" rx="3" ry="3" style="stroke:#038048;stroke-width:1.0;fill:none;"/><text fill="#000000" font-family="sans-serif" font-size="11" lengthAdjust="spacing" textLength="155" x="1177" y="66.0151">selfElement : HTMLElement</text><ellipse cx="1168" cy="75.6094" rx="3" ry="3" style="stroke:#038048;stroke-width:1.0;fill:none;"/><text fill="#000000" font-family="sans-serif" font-size="11" lengthAdjust="spacing" textLength="93" x="1177" y="78.8198">uniqueId : string</text><ellipse cx="1168" cy="88.4141" rx="3" ry="3" style="stroke:#038048;stroke-width:1.0;fill:none;"/><text fill="#000000" font-family="sans-serif" font-size="11" lengthAdjust="spacing" textLength="92" x="1177" y="91.6245">widgetId : string</text><line style="stroke:#272B30;stroke-width:1.5;" x1="1158" x2="1581" y1="98.2188" y2="98.2188"/><ellipse cx="1168" cy="109.2188" fill="#84BE84" rx="3" ry="3" style="stroke:#038048;stroke-width:1.0;"/><text fill="#000000" font-family="sans-serif" font-size="11" lengthAdjust="spacing" textLength="70" x="1177" y="112.4292">build() : void</text><ellipse cx="1168" cy="122.0234" fill="#84BE84" rx="3" ry="3" style="stroke:#038048;stroke-width:1.0;"/><text fill="#000000" font-family="sans-serif" font-size="11" lengthAdjust="spacing" textLength="399" x="1177" y="125.2339">changeProperty(propertyName: string, propertyValue: unknown) : void</text><ellipse cx="1168" cy="134.8281" fill="#84BE84" rx="3" ry="3" style="stroke:#038048;stroke-width:1.0;"/><text fill="#000000" font-family="sans-serif" font-size="11" lengthAdjust="spacing" textLength="88" x="1177" y="138.0386">dispose() : void</text><ellipse cx="1168" cy="147.6328" fill="#84BE84" rx="3" ry="3" style="stroke:#038048;stroke-width:1.0;"/><text fill="#000000" font-family="sans-serif" font-size="11" lengthAdjust="spacing" textLength="179" x="1177" y="150.8433">equalsToID(id: string) : boolean</text><!--MD5=[c37acc2da49fd41b942858a217d69c1e]
class IAccordionItem--><rect codeLine="32" fill="#FFFFFF" filter="url(#fk8xc1rzkhzfz)" height="278.4844" id="IAccordionItem" style="stroke:#272B30;stroke-width:1.5;" width="425" x="7" y="492"/><ellipse cx="168.25" cy="508" fill="#B4A7E5" rx="11" ry="11" style="stroke:#272B30;stroke-width:1.0;"/><path d="M164.1719,503.7656 L164.1719,501.6094 L171.5625,501.6094 L171.5625,503.7656 L169.0938,503.7656 L169.0938,511.8438 L171.5625,511.8438 L171.5625,514 L164.1719,514 L164.1719,511.8438 L166.6406,511.8438 L166.6406,503.7656 L164.1719,503.7656 Z " fill="#000000"/><text fill="#000000" font-family="sans-serif" font-size="12" font-style="italic" lengthAdjust="spacing" textLength="94" x="188.75" y="512.1543">IAccordionItem</text><line style="stroke:#272B30;stroke-width:1.5;" x1="8" x2="431" y1="524" y2="524"/><ellipse cx="18" cy="535" rx="3" ry="3" style="stroke:#038048;stroke-width:1.0;fill:none;"/><text fill="#000000" font-family="sans-serif" font-size="11" lengthAdjust="spacing" textLength="92" x="27" y="538.2104">isBuilt : boolean</text><ellipse cx="18" cy="547.8047" rx="3" ry="3" style="stroke:#038048;stroke-width:1.0;fill:none;"/><text fill="#000000" font-family="sans-serif" font-size="11" lengthAdjust="spacing" textLength="116" x="27" y="551.0151">isDisabled : boolean</text><ellipse cx="18" cy="560.6094" rx="3" ry="3" style="stroke:#038048;stroke-width:1.0;fill:none;"/><text fill="#000000" font-family="sans-serif" font-size="11" lengthAdjust="spacing" textLength="97" x="27" y="563.8198">isOpen : boolean</text><ellipse cx="18" cy="573.4141" rx="3" ry="3" style="stroke:#038048;stroke-width:1.0;fill:none;"/><text fill="#000000" font-family="sans-serif" font-size="11" lengthAdjust="spacing" textLength="155" x="27" y="576.6245">selfElement : HTMLElement</text><ellipse cx="18" cy="586.2188" rx="3" ry="3" style="stroke:#038048;stroke-width:1.0;fill:none;"/><text fill="#000000" font-family="sans-serif" font-size="11" lengthAdjust="spacing" textLength="93" x="27" y="589.4292">uniqueId : string</text><ellipse cx="18" cy="599.0234" rx="3" ry="3" style="stroke:#038048;stroke-width:1.0;fill:none;"/><text fill="#000000" font-family="sans-serif" font-size="11" lengthAdjust="spacing" textLength="92" x="27" y="602.2339">widgetId : string</text><line style="stroke:#272B30;stroke-width:1.5;" x1="8" x2="431" y1="608.8281" y2="608.8281"/><ellipse cx="18" cy="619.8281" fill="#84BE84" rx="3" ry="3" style="stroke:#038048;stroke-width:1.0;"/><text fill="#000000" font-family="sans-serif" font-size="11" lengthAdjust="spacing" textLength="131" x="27" y="623.0386">allowTitleEvents() : any</text><ellipse cx="18" cy="632.6328" fill="#84BE84" rx="3" ry="3" style="stroke:#038048;stroke-width:1.0;"/><text fill="#000000" font-family="sans-serif" font-size="11" lengthAdjust="spacing" textLength="70" x="27" y="635.8433">build() : void</text><ellipse cx="18" cy="645.4375" fill="#84BE84" rx="3" ry="3" style="stroke:#038048;stroke-width:1.0;"/><text fill="#000000" font-family="sans-serif" font-size="11" lengthAdjust="spacing" textLength="399" x="27" y="648.6479">changeProperty(propertyName: string, propertyValue: unknown) : void</text><ellipse cx="18" cy="658.2422" fill="#84BE84" rx="3" ry="3" style="stroke:#038048;stroke-width:1.0;"/><text fill="#000000" font-family="sans-serif" font-size="11" lengthAdjust="spacing" textLength="73" x="27" y="661.4526">close() : void</text><ellipse cx="18" cy="671.0469" fill="#84BE84" rx="3" ry="3" style="stroke:#038048;stroke-width:1.0;"/><text fill="#000000" font-family="sans-serif" font-size="11" lengthAdjust="spacing" textLength="88" x="27" y="674.2573">dispose() : void</text><ellipse cx="18" cy="683.8516" fill="#84BE84" rx="3" ry="3" style="stroke:#038048;stroke-width:1.0;"/><text fill="#000000" font-family="sans-serif" font-size="11" lengthAdjust="spacing" textLength="179" x="27" y="687.062">equalsToID(id: string) : boolean</text><ellipse cx="18" cy="696.6563" fill="#84BE84" rx="3" ry="3" style="stroke:#038048;stroke-width:1.0;"/><text fill="#000000" font-family="sans-serif" font-size="11" lengthAdjust="spacing" textLength="71" x="27" y="699.8667">open() : void</text><ellipse cx="18" cy="709.4609" fill="#84BE84" rx="3" ry="3" style="stroke:#038048;stroke-width:1.0;"/><text fill="#000000" font-family="sans-serif" font-size="11" lengthAdjust="spacing" textLength="362" x="27" y="712.6714">registerCallback(callback: OSGeneric, eventName: string) : void</text><ellipse cx="18" cy="722.2656" fill="#84BE84" rx="3" ry="3" style="stroke:#038048;stroke-width:1.0;"/><text fill="#000000" font-family="sans-serif" font-size="11" lengthAdjust="spacing" textLength="84" x="27" y="725.4761">setBlur() : void</text><ellipse cx="18" cy="735.0703" fill="#84BE84" rx="3" ry="3" style="stroke:#038048;stroke-width:1.0;"/><text fill="#000000" font-family="sans-serif" font-size="11" lengthAdjust="spacing" textLength="94" x="27" y="738.2808">setFocus() : void</text><ellipse cx="18" cy="747.875" fill="#84BE84" rx="3" ry="3" style="stroke:#038048;stroke-width:1.0;"/><text fill="#000000" font-family="sans-serif" font-size="11" lengthAdjust="spacing" textLength="112" x="27" y="751.0854">setTabindex() : void</text><ellipse cx="18" cy="760.6797" fill="#84BE84" rx="3" ry="3" style="stroke:#038048;stroke-width:1.0;"/><text fill="#000000" font-family="sans-serif" font-size="11" lengthAdjust="spacing" textLength="126" x="27" y="763.8901">unsetTabindex() : void</text><!--MD5=[bcd99cc50e8dfb4eeef7ac4f1f302d89]
class IDropdownServerSideItem--><rect codeLine="53" fill="#FFFFFF" filter="url(#fk8xc1rzkhzfz)" height="227.2656" id="IDropdownServerSideItem" style="stroke:#272B30;stroke-width:1.5;" width="425" x="467" y="517.5"/><ellipse cx="593.75" cy="533.5" fill="#B4A7E5" rx="11" ry="11" style="stroke:#272B30;stroke-width:1.0;"/><path d="M589.6719,529.2656 L589.6719,527.1094 L597.0625,527.1094 L597.0625,529.2656 L594.5938,529.2656 L594.5938,537.3438 L597.0625,537.3438 L597.0625,539.5 L589.6719,539.5 L589.6719,537.3438 L592.1406,537.3438 L592.1406,529.2656 L589.6719,529.2656 Z " fill="#000000"/><text fill="#000000" font-family="sans-serif" font-size="12" font-style="italic" lengthAdjust="spacing" textLength="163" x="614.25" y="537.6543">IDropdownServerSideItem</text><line style="stroke:#272B30;stroke-width:1.5;" x1="468" x2="891" y1="549.5" y2="549.5"/><ellipse cx="478" cy="560.5" rx="3" ry="3" style="stroke:#038048;stroke-width:1.0;fill:none;"/><text fill="#000000" font-family="sans-serif" font-size="11" lengthAdjust="spacing" textLength="92" x="487" y="563.7104">isBuilt : boolean</text><ellipse cx="478" cy="573.3047" rx="3" ry="3" style="stroke:#038048;stroke-width:1.0;fill:none;"/><text fill="#000000" font-family="sans-serif" font-size="11" lengthAdjust="spacing" textLength="172" x="487" y="576.5151">keyboardTriggeredKey : string</text><ellipse cx="478" cy="586.1094" rx="3" ry="3" style="stroke:#038048;stroke-width:1.0;fill:none;"/><text fill="#000000" font-family="sans-serif" font-size="11" lengthAdjust="spacing" textLength="155" x="487" y="589.3198">selfElement : HTMLElement</text><ellipse cx="478" cy="598.9141" rx="3" ry="3" style="stroke:#038048;stroke-width:1.0;fill:none;"/><text fill="#000000" font-family="sans-serif" font-size="11" lengthAdjust="spacing" textLength="93" x="487" y="602.1245">uniqueId : string</text><ellipse cx="478" cy="611.7188" rx="3" ry="3" style="stroke:#038048;stroke-width:1.0;fill:none;"/><text fill="#000000" font-family="sans-serif" font-size="11" lengthAdjust="spacing" textLength="92" x="487" y="614.9292">widgetId : string</text><line style="stroke:#272B30;stroke-width:1.5;" x1="468" x2="891" y1="621.5234" y2="621.5234"/><ellipse cx="478" cy="632.5234" fill="#84BE84" rx="3" ry="3" style="stroke:#038048;stroke-width:1.0;"/><text fill="#000000" font-family="sans-serif" font-size="11" lengthAdjust="spacing" textLength="70" x="487" y="635.7339">build() : void</text><ellipse cx="478" cy="645.3281" fill="#84BE84" rx="3" ry="3" style="stroke:#038048;stroke-width:1.0;"/><text fill="#000000" font-family="sans-serif" font-size="11" lengthAdjust="spacing" textLength="399" x="487" y="648.5386">changeProperty(propertyName: string, propertyValue: unknown) : void</text><ellipse cx="478" cy="658.1328" fill="#84BE84" rx="3" ry="3" style="stroke:#038048;stroke-width:1.0;"/><text fill="#000000" font-family="sans-serif" font-size="11" lengthAdjust="spacing" textLength="88" x="487" y="661.3433">dispose() : void</text><ellipse cx="478" cy="670.9375" fill="#84BE84" rx="3" ry="3" style="stroke:#038048;stroke-width:1.0;"/><text fill="#000000" font-family="sans-serif" font-size="11" lengthAdjust="spacing" textLength="179" x="487" y="674.1479">equalsToID(id: string) : boolean</text><ellipse cx="478" cy="683.7422" fill="#84BE84" rx="3" ry="3" style="stroke:#038048;stroke-width:1.0;"/><text fill="#000000" font-family="sans-serif" font-size="11" lengthAdjust="spacing" textLength="84" x="487" y="686.9526">setBlur() : void</text><ellipse cx="478" cy="696.5469" fill="#84BE84" rx="3" ry="3" style="stroke:#038048;stroke-width:1.0;"/><text fill="#000000" font-family="sans-serif" font-size="11" lengthAdjust="spacing" textLength="94" x="487" y="699.7573">setFocus() : void</text><ellipse cx="478" cy="709.3516" fill="#84BE84" rx="3" ry="3" style="stroke:#038048;stroke-width:1.0;"/><text fill="#000000" font-family="sans-serif" font-size="11" lengthAdjust="spacing" textLength="112" x="487" y="712.562">setTabindex() : void</text><ellipse cx="478" cy="722.1563" fill="#84BE84" rx="3" ry="3" style="stroke:#038048;stroke-width:1.0;"/><text fill="#000000" font-family="sans-serif" font-size="11" lengthAdjust="spacing" textLength="265" x="487" y="725.3667">toggleSelected(triggerCallback: boolean) : void</text><ellipse cx="478" cy="734.9609" fill="#84BE84" rx="3" ry="3" style="stroke:#038048;stroke-width:1.0;"/><text fill="#000000" font-family="sans-serif" font-size="11" lengthAdjust="spacing" textLength="126" x="487" y="738.1714">unsetTabindex() : void</text><!--MD5=[822676b925c8e001bce71cad4a86da40]
class ISectionIndexItem--><rect codeLine="70" fill="#FFFFFF" filter="url(#fk8xc1rzkhzfz)" height="227.2656" id="ISectionIndexItem" style="stroke:#272B30;stroke-width:1.5;" width="425" x="927" y="517.5"/><ellipse cx="1078.25" cy="533.5" fill="#B4A7E5" rx="11" ry="11" style="stroke:#272B30;stroke-width:1.0;"/><path d="M1074.1719,529.2656 L1074.1719,527.1094 L1081.5625,527.1094 L1081.5625,529.2656 L1079.0938,529.2656 L1079.0938,537.3438 L1081.5625,537.3438 L1081.5625,539.5 L1074.1719,539.5 L1074.1719,537.3438 L1076.6406,537.3438 L1076.6406,529.2656 L1074.1719,529.2656 Z " fill="#000000"/><text fill="#000000" font-family="sans-serif" font-size="12" font-style="italic" lengthAdjust="spacing" textLength="114" x="1098.75" y="537.6543">ISectionIndexItem</text><line style="stroke:#272B30;stroke-width:1.5;" x1="928" x2="1351" y1="549.5" y2="549.5"/><ellipse cx="938" cy="560.5" rx="3" ry="3" style="stroke:#038048;stroke-width:1.0;fill:none;"/><text fill="#000000" font-family="sans-serif" font-size="11" lengthAdjust="spacing" textLength="92" x="947" y="563.7104">isBuilt : boolean</text><ellipse cx="938" cy="573.3047" rx="3" ry="3" style="stroke:#038048;stroke-width:1.0;fill:none;"/><text fill="#000000" font-family="sans-serif" font-size="11" lengthAdjust="spacing" textLength="155" x="947" y="576.5151">selfElement : HTMLElement</text><ellipse cx="938" cy="586.1094" rx="3" ry="3" style="stroke:#038048;stroke-width:1.0;fill:none;"/><text fill="#000000" font-family="sans-serif" font-size="11" lengthAdjust="spacing" textLength="93" x="947" y="589.3198">uniqueId : string</text><ellipse cx="938" cy="598.9141" rx="3" ry="3" style="stroke:#038048;stroke-width:1.0;fill:none;"/><text fill="#000000" font-family="sans-serif" font-size="11" lengthAdjust="spacing" textLength="92" x="947" y="602.1245">widgetId : string</text><line style="stroke:#272B30;stroke-width:1.5;" x1="928" x2="1351" y1="608.7188" y2="608.7188"/><ellipse cx="938" cy="619.7188" fill="#84BE84" rx="3" ry="3" style="stroke:#038048;stroke-width:1.0;"/><text fill="#000000" font-family="sans-serif" font-size="11" lengthAdjust="spacing" textLength="70" x="947" y="622.9292">build() : void</text><ellipse cx="938" cy="632.5234" fill="#84BE84" rx="3" ry="3" style="stroke:#038048;stroke-width:1.0;"/><text fill="#000000" font-family="sans-serif" font-size="11" lengthAdjust="spacing" textLength="399" x="947" y="635.7339">changeProperty(propertyName: string, propertyValue: unknown) : void</text><ellipse cx="938" cy="645.3281" fill="#84BE84" rx="3" ry="3" style="stroke:#038048;stroke-width:1.0;"/><text fill="#000000" font-family="sans-serif" font-size="11" lengthAdjust="spacing" textLength="88" x="947" y="648.5386">dispose() : void</text><ellipse cx="938" cy="658.1328" fill="#84BE84" rx="3" ry="3" style="stroke:#038048;stroke-width:1.0;"/><text fill="#000000" font-family="sans-serif" font-size="11" lengthAdjust="spacing" textLength="179" x="947" y="661.3433">equalsToID(id: string) : boolean</text><ellipse cx="938" cy="670.9375" fill="#84BE84" rx="3" ry="3" style="stroke:#038048;stroke-width:1.0;"/><text fill="#000000" font-family="sans-serif" font-size="11" lengthAdjust="spacing" textLength="84" x="947" y="674.1479">setBlur() : void</text><ellipse cx="938" cy="683.7422" fill="#84BE84" rx="3" ry="3" style="stroke:#038048;stroke-width:1.0;"/><text fill="#000000" font-family="sans-serif" font-size="11" lengthAdjust="spacing" textLength="94" x="947" y="686.9526">setFocus() : void</text><ellipse cx="938" cy="696.5469" fill="#84BE84" rx="3" ry="3" style="stroke:#038048;stroke-width:1.0;"/><text fill="#000000" font-family="sans-serif" font-size="11" lengthAdjust="spacing" textLength="104" x="947" y="699.7573">setIsActive() : void</text><ellipse cx="938" cy="709.3516" fill="#84BE84" rx="3" ry="3" style="stroke:#038048;stroke-width:1.0;"/><text fill="#000000" font-family="sans-serif" font-size="11" lengthAdjust="spacing" textLength="112" x="947" y="712.562">setTabindex() : void</text><ellipse cx="938" cy="722.1563" fill="#84BE84" rx="3" ry="3" style="stroke:#038048;stroke-width:1.0;"/><text fill="#000000" font-family="sans-serif" font-size="11" lengthAdjust="spacing" textLength="118" x="947" y="725.3667">unsetIsActive() : void</text><ellipse cx="938" cy="734.9609" fill="#84BE84" rx="3" ry="3" style="stroke:#038048;stroke-width:1.0;"/><text fill="#000000" font-family="sans-serif" font-size="11" lengthAdjust="spacing" textLength="126" x="947" y="738.1714">unsetTabindex() : void</text><!--MD5=[a97cacaa17be7b93161d248ee0cca94d]
class ITabsContentItem--><rect codeLine="87" fill="#FFFFFF" filter="url(#fk8xc1rzkhzfz)" height="304.0938" id="ITabsContentItem" style="stroke:#272B30;stroke-width:1.5;" width="425" x="1387" y="479"/><ellipse cx="1539.75" cy="495" fill="#B4A7E5" rx="11" ry="11" style="stroke:#272B30;stroke-width:1.0;"/><path d="M1535.6719,490.7656 L1535.6719,488.6094 L1543.0625,488.6094 L1543.0625,490.7656 L1540.5938,490.7656 L1540.5938,498.8438 L1543.0625,498.8438 L1543.0625,501 L1535.6719,501 L1535.6719,498.8438 L1538.1406,498.8438 L1538.1406,490.7656 L1535.6719,490.7656 Z " fill="#000000"/><text fill="#000000" font-family="sans-serif" font-size="12" font-style="italic" lengthAdjust="spacing" textLength="111" x="1560.25" y="499.1543">ITabsContentItem</text><line style="stroke:#272B30;stroke-width:1.5;" x1="1388" x2="1811" y1="511" y2="511"/><ellipse cx="1398" cy="522" rx="3" ry="3" style="stroke:#038048;stroke-width:1.0;fill:none;"/><text fill="#000000" font-family="sans-serif" font-size="11" lengthAdjust="spacing" textLength="92" x="1407" y="525.2104">isBuilt : boolean</text><ellipse cx="1398" cy="534.8047" rx="3" ry="3" style="stroke:#038048;stroke-width:1.0;fill:none;"/><text fill="#000000" font-family="sans-serif" font-size="11" lengthAdjust="spacing" textLength="155" x="1407" y="538.0151">selfElement : HTMLElement</text><ellipse cx="1398" cy="547.6094" rx="3" ry="3" style="stroke:#038048;stroke-width:1.0;fill:none;"/><text fill="#000000" font-family="sans-serif" font-size="11" lengthAdjust="spacing" textLength="93" x="1407" y="550.8198">uniqueId : string</text><ellipse cx="1398" cy="560.4141" rx="3" ry="3" style="stroke:#038048;stroke-width:1.0;fill:none;"/><text fill="#000000" font-family="sans-serif" font-size="11" lengthAdjust="spacing" textLength="92" x="1407" y="563.6245">widgetId : string</text><line style="stroke:#272B30;stroke-width:1.5;" x1="1388" x2="1811" y1="570.2188" y2="570.2188"/><ellipse cx="1398" cy="581.2188" fill="#84BE84" rx="3" ry="3" style="stroke:#038048;stroke-width:1.0;"/><text fill="#000000" font-family="sans-serif" font-size="11" lengthAdjust="spacing" textLength="70" x="1407" y="584.4292">build() : void</text><ellipse cx="1398" cy="594.0234" fill="#84BE84" rx="3" ry="3" style="stroke:#038048;stroke-width:1.0;"/><text fill="#000000" font-family="sans-serif" font-size="11" lengthAdjust="spacing" textLength="399" x="1407" y="597.2339">changeProperty(propertyName: string, propertyValue: unknown) : void</text><ellipse cx="1398" cy="606.8281" fill="#84BE84" rx="3" ry="3" style="stroke:#038048;stroke-width:1.0;"/><text fill="#000000" font-family="sans-serif" font-size="11" lengthAdjust="spacing" textLength="88" x="1407" y="610.0386">dispose() : void</text><ellipse cx="1398" cy="619.6328" fill="#84BE84" rx="3" ry="3" style="stroke:#038048;stroke-width:1.0;"/><text fill="#000000" font-family="sans-serif" font-size="11" lengthAdjust="spacing" textLength="179" x="1407" y="622.8433">equalsToID(id: string) : boolean</text><ellipse cx="1398" cy="632.4375" fill="#84BE84" rx="3" ry="3" style="stroke:#038048;stroke-width:1.0;"/><text fill="#000000" font-family="sans-serif" font-size="11" lengthAdjust="spacing" textLength="129" x="1407" y="635.6479">getDataTab() : number</text><ellipse cx="1398" cy="645.2422" fill="#84BE84" rx="3" ry="3" style="stroke:#038048;stroke-width:1.0;"/><text fill="#000000" font-family="sans-serif" font-size="11" lengthAdjust="spacing" textLength="138" x="1407" y="648.4526">getOffsetLeft() : number</text><ellipse cx="1398" cy="658.0469" fill="#84BE84" rx="3" ry="3" style="stroke:#038048;stroke-width:1.0;"/><text fill="#000000" font-family="sans-serif" font-size="11" lengthAdjust="spacing" textLength="308" x="1407" y="661.2573">setAriaLabelledByAttribute(headerItemId: string) : void</text><ellipse cx="1398" cy="670.8516" fill="#84BE84" rx="3" ry="3" style="stroke:#038048;stroke-width:1.0;"/><text fill="#000000" font-family="sans-serif" font-size="11" lengthAdjust="spacing" textLength="84" x="1407" y="674.062">setBlur() : void</text><ellipse cx="1398" cy="683.6563" fill="#84BE84" rx="3" ry="3" style="stroke:#038048;stroke-width:1.0;"/><text fill="#000000" font-family="sans-serif" font-size="11" lengthAdjust="spacing" textLength="206" x="1407" y="686.8667">setDataTab(dataTab: number) : void</text><ellipse cx="1398" cy="696.4609" fill="#84BE84" rx="3" ry="3" style="stroke:#038048;stroke-width:1.0;"/><text fill="#000000" font-family="sans-serif" font-size="11" lengthAdjust="spacing" textLength="94" x="1407" y="699.6714">setFocus() : void</text><ellipse cx="1398" cy="709.2656" fill="#84BE84" rx="3" ry="3" style="stroke:#038048;stroke-width:1.0;"/><text fill="#000000" font-family="sans-serif" font-size="11" lengthAdjust="spacing" textLength="104" x="1407" y="712.4761">setIsActive() : void</text><ellipse cx="1398" cy="722.0703" fill="#84BE84" rx="3" ry="3" style="stroke:#038048;stroke-width:1.0;"/><text fill="#000000" font-family="sans-serif" font-size="11" lengthAdjust="spacing" textLength="336" x="1407" y="725.2808">setOnDragObserver(observer: IntersectionObserver) : void</text><ellipse cx="1398" cy="734.875" fill="#84BE84" rx="3" ry="3" style="stroke:#038048;stroke-width:1.0;"/><text fill="#000000" font-family="sans-serif" font-size="11" lengthAdjust="spacing" textLength="112" x="1407" y="738.0854">setTabindex() : void</text><ellipse cx="1398" cy="747.6797" fill="#84BE84" rx="3" ry="3" style="stroke:#038048;stroke-width:1.0;"/><text fill="#000000" font-family="sans-serif" font-size="11" lengthAdjust="spacing" textLength="362" x="1407" y="750.8901">unobserveDragObserver(observer: IntersectionObserver) : void</text><ellipse cx="1398" cy="760.4844" fill="#84BE84" rx="3" ry="3" style="stroke:#038048;stroke-width:1.0;"/><text fill="#000000" font-family="sans-serif" font-size="11" lengthAdjust="spacing" textLength="118" x="1407" y="763.6948">unsetIsActive() : void</text><ellipse cx="1398" cy="773.2891" fill="#84BE84" rx="3" ry="3" style="stroke:#038048;stroke-width:1.0;"/><text fill="#000000" font-family="sans-serif" font-size="11" lengthAdjust="spacing" textLength="126" x="1407" y="776.4995">unsetTabindex() : void</text><!--MD5=[8ed90dd5402d8b4987d381f4b2872a93]
class ITabsHeaderItem--><rect codeLine="110" fill="#FFFFFF" filter="url(#fk8xc1rzkhzfz)" height="304.0938" id="ITabsHeaderItem" style="stroke:#272B30;stroke-width:1.5;" width="425" x="1847" y="479"/><ellipse cx="2001.75" cy="495" fill="#B4A7E5" rx="11" ry="11" style="stroke:#272B30;stroke-width:1.0;"/><path d="M1997.6719,490.7656 L1997.6719,488.6094 L2005.0625,488.6094 L2005.0625,490.7656 L2002.5938,490.7656 L2002.5938,498.8438 L2005.0625,498.8438 L2005.0625,501 L1997.6719,501 L1997.6719,498.8438 L2000.1406,498.8438 L2000.1406,490.7656 L1997.6719,490.7656 Z " fill="#000000"/><text fill="#000000" font-family="sans-serif" font-size="12" font-style="italic" lengthAdjust="spacing" textLength="107" x="2022.25" y="499.1543">ITabsHeaderItem</text><line style="stroke:#272B30;stroke-width:1.5;" x1="1848" x2="2271" y1="511" y2="511"/><ellipse cx="1858" cy="522" rx="3" ry="3" style="stroke:#038048;stroke-width:1.0;fill:none;"/><text fill="#000000" font-family="sans-serif" font-size="11" lengthAdjust="spacing" textLength="92" x="1867" y="525.2104">isBuilt : boolean</text><ellipse cx="1858" cy="534.8047" rx="3" ry="3" style="stroke:#038048;stroke-width:1.0;fill:none;"/><text fill="#000000" font-family="sans-serif" font-size="11" lengthAdjust="spacing" textLength="155" x="1867" y="538.0151">selfElement : HTMLElement</text><ellipse cx="1858" cy="547.6094" rx="3" ry="3" style="stroke:#038048;stroke-width:1.0;fill:none;"/><text fill="#000000" font-family="sans-serif" font-size="11" lengthAdjust="spacing" textLength="93" x="1867" y="550.8198">uniqueId : string</text><ellipse cx="1858" cy="560.4141" rx="3" ry="3" style="stroke:#038048;stroke-width:1.0;fill:none;"/><text fill="#000000" font-family="sans-serif" font-size="11" lengthAdjust="spacing" textLength="92" x="1867" y="563.6245">widgetId : string</text><line style="stroke:#272B30;stroke-width:1.5;" x1="1848" x2="2271" y1="570.2188" y2="570.2188"/><ellipse cx="1858" cy="581.2188" fill="#84BE84" rx="3" ry="3" style="stroke:#038048;stroke-width:1.0;"/><text fill="#000000" font-family="sans-serif" font-size="11" lengthAdjust="spacing" textLength="70" x="1867" y="584.4292">build() : void</text><ellipse cx="1858" cy="594.0234" fill="#84BE84" rx="3" ry="3" style="stroke:#038048;stroke-width:1.0;"/><text fill="#000000" font-family="sans-serif" font-size="11" lengthAdjust="spacing" textLength="399" x="1867" y="597.2339">changeProperty(propertyName: string, propertyValue: unknown) : void</text><ellipse cx="1858" cy="606.8281" fill="#84BE84" rx="3" ry="3" style="stroke:#038048;stroke-width:1.0;"/><text fill="#000000" font-family="sans-serif" font-size="11" lengthAdjust="spacing" textLength="84" x="1867" y="610.0386">disable() : void</text><ellipse cx="1858" cy="619.6328" fill="#84BE84" rx="3" ry="3" style="stroke:#038048;stroke-width:1.0;"/><text fill="#000000" font-family="sans-serif" font-size="11" lengthAdjust="spacing" textLength="88" x="1867" y="622.8433">dispose() : void</text><ellipse cx="1858" cy="632.4375" fill="#84BE84" rx="3" ry="3" style="stroke:#038048;stroke-width:1.0;"/><text fill="#000000" font-family="sans-serif" font-size="11" lengthAdjust="spacing" textLength="81" x="1867" y="635.6479">enable() : void</text><ellipse cx="1858" cy="645.2422" fill="#84BE84" rx="3" ry="3" style="stroke:#038048;stroke-width:1.0;"/><text fill="#000000" font-family="sans-serif" font-size="11" lengthAdjust="spacing" textLength="179" x="1867" y="648.4526">equalsToID(id: string) : boolean</text><ellipse cx="1858" cy="658.0469" fill="#84BE84" rx="3" ry="3" style="stroke:#038048;stroke-width:1.0;"/><text fill="#000000" font-family="sans-serif" font-size="11" lengthAdjust="spacing" textLength="129" x="1867" y="661.2573">getDataTab() : number</text><ellipse cx="1858" cy="670.8516" fill="#84BE84" rx="3" ry="3" style="stroke:#038048;stroke-width:1.0;"/><text fill="#000000" font-family="sans-serif" font-size="11" lengthAdjust="spacing" textLength="297" x="1867" y="674.062">setAriaControlsAttribute(contentItemId: string) : void</text><ellipse cx="1858" cy="683.6563" fill="#84BE84" rx="3" ry="3" style="stroke:#038048;stroke-width:1.0;"/><text fill="#000000" font-family="sans-serif" font-size="11" lengthAdjust="spacing" textLength="84" x="1867" y="686.8667">setBlur() : void</text><ellipse cx="1858" cy="696.4609" fill="#84BE84" rx="3" ry="3" style="stroke:#038048;stroke-width:1.0;"/><text fill="#000000" font-family="sans-serif" font-size="11" lengthAdjust="spacing" textLength="206" x="1867" y="699.6714">setDataTab(dataTab: number) : void</text><ellipse cx="1858" cy="709.2656" fill="#84BE84" rx="3" ry="3" style="stroke:#038048;stroke-width:1.0;"/><text fill="#000000" font-family="sans-serif" font-size="11" lengthAdjust="spacing" textLength="94" x="1867" y="712.4761">setFocus() : void</text><ellipse cx="1858" cy="722.0703" fill="#84BE84" rx="3" ry="3" style="stroke:#038048;stroke-width:1.0;"/><text fill="#000000" font-family="sans-serif" font-size="11" lengthAdjust="spacing" textLength="104" x="1867" y="725.2808">setIsActive() : void</text><ellipse cx="1858" cy="734.875" fill="#84BE84" rx="3" ry="3" style="stroke:#038048;stroke-width:1.0;"/><text fill="#000000" font-family="sans-serif" font-size="11" lengthAdjust="spacing" textLength="112" x="1867" y="738.0854">setTabindex() : void</text><ellipse cx="1858" cy="747.6797" fill="#84BE84" rx="3" ry="3" style="stroke:#038048;stroke-width:1.0;"/><text fill="#000000" font-family="sans-serif" font-size="11" lengthAdjust="spacing" textLength="118" x="1867" y="750.8901">unsetIsActive() : void</text><ellipse cx="1858" cy="760.4844" fill="#84BE84" rx="3" ry="3" style="stroke:#038048;stroke-width:1.0;"/><text fill="#000000" font-family="sans-serif" font-size="11" lengthAdjust="spacing" textLength="126" x="1867" y="763.6948">unsetTabindex() : void</text><ellipse cx="1858" cy="773.2891" fill="#84BE84" rx="3" ry="3" style="stroke:#038048;stroke-width:1.0;"/><text fill="#000000" font-family="sans-serif" font-size="11" lengthAdjust="spacing" textLength="138" x="1867" y="776.4995">updateOnRender() : void</text><!--MD5=[6430a90c306ac01ac6c483582083eea7]
class AbstractChild<C, PT>--><rect codeLine="133" fill="#FFFFFF" filter="url(#fk8xc1rzkhzfz)" height="252.875" id="AbstractChild&lt;C, PT&gt;" style="stroke:#272B30;stroke-width:1.5;" width="571" x="2307" y="504.5"/><ellipse cx="2522.25" cy="520.5" fill="#A9DCDF" rx="11" ry="11" style="stroke:#272B30;stroke-width:1.0;"/><path d="M2522.3594,515.8438 L2521.2031,520.9219 L2523.5313,520.9219 L2522.3594,515.8438 Z M2520.875,513.6094 L2523.8594,513.6094 L2527.2188,526 L2524.7656,526 L2524,522.9375 L2520.7188,522.9375 L2519.9688,526 L2517.5313,526 L2520.875,513.6094 Z " fill="#000000"/><text fill="#000000" font-family="sans-serif" font-size="12" font-style="italic" lengthAdjust="spacing" textLength="132" x="2542.75" y="524.6543">AbstractChild&lt;C, PT&gt;</text><line style="stroke:#272B30;stroke-width:1.5;" x1="2308" x2="2877" y1="536.5" y2="536.5"/><rect fill="none" height="6" style="stroke:#C82930;stroke-width:1.0;" width="6" x="2315" y="544.5"/><text fill="#000000" font-family="sans-serif" font-size="11" lengthAdjust="spacing" textLength="126" x="2327" y="550.7104">_isFirstChild : boolean</text><rect fill="none" height="6" style="stroke:#C82930;stroke-width:1.0;" width="6" x="2315" y="557.3047"/><text fill="#000000" font-family="sans-serif" font-size="11" lengthAdjust="spacing" textLength="125" x="2327" y="563.5151">_isLastChild : boolean</text><rect fill="none" height="6" style="stroke:#C82930;stroke-width:1.0;" width="6" x="2315" y="570.1094"/><text fill="#000000" font-family="sans-serif" font-size="11" lengthAdjust="spacing" textLength="98" x="2327" y="576.3198">_parentId : string</text><rect fill="none" height="6" style="stroke:#C82930;stroke-width:1.0;" width="6" x="2315" y="582.9141"/><text fill="#000000" font-family="sans-serif" font-size="11" lengthAdjust="spacing" textLength="105" x="2327" y="589.1245">_parentObject : PT</text><line style="stroke:#272B30;stroke-width:1.5;" x1="2308" x2="2877" y1="595.7188" y2="595.7188"/><ellipse cx="2318" cy="606.7188" fill="#84BE84" rx="3" ry="3" style="stroke:#038048;stroke-width:1.0;"/><text fill="#000000" font-family="sans-serif" font-size="11" lengthAdjust="spacing" textLength="70" x="2327" y="609.9292">build() : void</text><ellipse cx="2318" cy="619.5234" fill="#84BE84" rx="3" ry="3" style="stroke:#038048;stroke-width:1.0;"/><text fill="#000000" font-family="sans-serif" font-size="11" lengthAdjust="spacing" textLength="399" x="2327" y="622.7339">changeProperty(propertyName: string, propertyValue: unknown) : void</text><ellipse cx="2318" cy="632.3281" fill="#84BE84" rx="3" ry="3" style="stroke:#038048;stroke-width:1.0;"/><text fill="#000000" font-family="sans-serif" font-size="11" lengthAdjust="spacing" textLength="88" x="2327" y="635.5386">dispose() : void</text><ellipse cx="2318" cy="645.1328" fill="#84BE84" rx="3" ry="3" style="stroke:#038048;stroke-width:1.0;"/><text fill="#000000" font-family="sans-serif" font-size="11" lengthAdjust="spacing" textLength="220" x="2327" y="648.3433">equalsToID(patternId: string) : boolean</text><polygon fill="#FFFF44" points="2318,652.9375,2322,656.9375,2318,660.9375,2314,656.9375" style="stroke:#B38D22;stroke-width:1.0;"/><text fill="#000000" font-family="sans-serif" font-size="11" lengthAdjust="spacing" textLength="102" x="2327" y="661.1479">finishBuild() : void</text><polygon fill="#FFFF44" points="2318,665.7422,2322,669.7422,2318,673.7422,2314,669.7422" style="stroke:#B38D22;stroke-width:1.0;"/><text fill="#000000" font-family="sans-serif" font-size="11" lengthAdjust="spacing" textLength="213" x="2327" y="673.9526">notifyParent(actionType: string) : void</text><polygon fill="#FFFF44" points="2318,678.5469,2322,682.5469,2318,686.5469,2314,682.5469" style="stroke:#B38D22;stroke-width:1.0;"/><text fill="#000000" font-family="sans-serif" font-size="11" font-style="italic" lengthAdjust="spacing" textLength="148" x="2327" y="686.7573">setA11YProperties() : void</text><polygon fill="#FFFF44" points="2318,691.3516,2322,695.3516,2318,699.3516,2314,695.3516" style="stroke:#B38D22;stroke-width:1.0;"/><text fill="#000000" font-family="sans-serif" font-size="11" font-style="italic" lengthAdjust="spacing" textLength="114" x="2327" y="699.562">setCallbacks() : void</text><polygon fill="#FFFF44" points="2318,704.1563,2322,708.1563,2318,712.1563,2314,708.1563" style="stroke:#B38D22;stroke-width:1.0;"/><text fill="#000000" font-family="sans-serif" font-size="11" font-style="italic" lengthAdjust="spacing" textLength="139" x="2327" y="712.3667">setHtmlElements() : void</text><polygon fill="#FFFF44" points="2318,716.9609,2322,720.9609,2318,724.9609,2314,720.9609" style="stroke:#B38D22;stroke-width:1.0;"/><text fill="#000000" font-family="sans-serif" font-size="11" lengthAdjust="spacing" textLength="545" x="2327" y="725.1714">setParentInfo(parentSelector: string, getPatternByIdAPI: Function, canBeOrphan: boolean) : void</text><polygon fill="#FFFF44" points="2318,729.7656,2322,733.7656,2318,737.7656,2314,733.7656" style="stroke:#B38D22;stroke-width:1.0;"/><text fill="#000000" font-family="sans-serif" font-size="11" font-style="italic" lengthAdjust="spacing" textLength="128" x="2327" y="737.9761">unsetCallbacks() : void</text><polygon fill="#FFFF44" points="2318,742.5703,2322,746.5703,2318,750.5703,2314,746.5703" style="stroke:#B38D22;stroke-width:1.0;"/><text fill="#000000" font-family="sans-serif" font-size="11" font-style="italic" lengthAdjust="spacing" textLength="153" x="2327" y="750.7808">unsetHtmlElements() : void</text><!--MD5=[ecfbb9500fb9417e7b72d96778e24491]
reverse link IPattern to IChild--><path codeLine="31" d="M1369.5,177.17 C1369.5,190.25 1369.5,203.73 1369.5,216.91 " fill="none" id="IPattern-backto-IChild" style="stroke:#272B30;stroke-width:1.0;"/><polygon fill="none" points="1362.5,177.04,1369.5,157.04,1376.5,177.04,1362.5,177.04" style="stroke:#272B30;stroke-width:1.0;"/><!--MD5=[64a71a36fdfcc7a2d7d88189535ef25d]
reverse link IChild to IAccordionItem--><path codeLine="52" d="M1136.72,333.18 C946.35,350.92 673.08,390.59 449.5,479 C439.62,482.91 429.71,487.28 419.87,492 " fill="none" id="IChild-backto-IAccordionItem" style="stroke:#272B30;stroke-width:1.0;"/><polygon fill="none" points="1136.36,326.19,1156.91,331.36,1137.62,340.13,1136.36,326.19" style="stroke:#272B30;stroke-width:1.0;"/><!--MD5=[8e1f2958cd265b6879766de318a2259e]
reverse link IChild to IDropdownServerSideItem--><path codeLine="69" d="M1137.71,387.23 C1063.25,412.39 981.45,443.54 909.5,479 C886.47,490.35 862.97,503.59 840.22,517.42 " fill="none" id="IChild-backto-IDropdownServerSideItem" style="stroke:#272B30;stroke-width:1.0;"/><polygon fill="none" points="1135.79,380.49,1156.98,380.79,1140.22,393.77,1135.79,380.49" style="stroke:#272B30;stroke-width:1.0;"/><!--MD5=[718758aa451c991bd672bdedb0d47729]
reverse link IChild to ISectionIndexItem--><path codeLine="86" d="M1283.31,435.55 C1263.5,462.34 1242.47,490.77 1222.78,517.39 " fill="none" id="IChild-backto-ISectionIndexItem" style="stroke:#272B30;stroke-width:1.0;"/><polygon fill="none" points="1277.94,431.03,1295.46,419.11,1289.2,439.36,1277.94,431.03" style="stroke:#272B30;stroke-width:1.0;"/><!--MD5=[a9da2c733e4cb662695ac536f708bfde]
reverse link IChild to ITabsContentItem--><path codeLine="109" d="M1455.65,435.49 C1466.12,449.65 1476.94,464.27 1487.71,478.84 " fill="none" id="IChild-backto-ITabsContentItem" style="stroke:#272B30;stroke-width:1.0;"/><polygon fill="none" points="1449.8,439.36,1443.54,419.11,1461.06,431.03,1449.8,439.36" style="stroke:#272B30;stroke-width:1.0;"/><!--MD5=[a28bd913ce8bd94e233e0c4be5f3ce50]
reverse link IChild to ITabsHeaderItem--><path codeLine="132" d="M1601.29,387.23 C1675.75,412.39 1757.55,443.54 1829.5,479 C1835.28,481.85 1841.1,484.82 1846.92,487.89 " fill="none" id="IChild-backto-ITabsHeaderItem" style="stroke:#272B30;stroke-width:1.0;"/><polygon fill="none" points="1598.78,393.77,1582.02,380.79,1603.21,380.49,1598.78,393.77" style="stroke:#272B30;stroke-width:1.0;"/><!--MD5=[268720870e28b2612bd6a25759910165]
reverse link IChild to AbstractChild<C, PT>--><path codeLine="151" d="M1602.48,340.63 C1791.23,362.61 2062.19,404.36 2289.5,479 C2311.7,486.29 2334.31,494.95 2356.66,504.39 " fill="none" id="IChild-backto-AbstractChild&lt;C, PT&gt;" style="stroke:#272B30;stroke-width:1.0;stroke-dasharray:7.0,7.0;"/><polygon fill="none" points="1601.54,347.56,1582.46,338.33,1603.13,333.66,1601.54,347.56" style="stroke:#272B30;stroke-width:1.0;"/><!--MD5=[cb25eb21db93bd66c13081c6c65b063c]
@startuml
skinparam ClassArrowColor #272b30
skinparam ClassBorderColor #272b30
skinparam ClassBackgroundColor #fff
skinparam BackgroundColor #ced4da
hide empty methods
hide empty fields
interface "IChild" {
    +isBuilt : boolean
    +selfElement : HTMLElement
    +uniqueId : string
    +widgetId : string
    +build() : void
    +changeProperty(propertyName: string, propertyValue: unknown) : void
    +dispose() : void
    +equalsToID(id: string) : boolean
    +setBlur() : void
    +setFocus() : void
    +setTabindex() : void
    +unsetTabindex() : void
}
interface "IPattern" {
    +isBuilt : boolean
    +selfElement : HTMLElement
    +uniqueId : string
    +widgetId : string
    +build() : void
    +changeProperty(propertyName: string, propertyValue: unknown) : void
    +dispose() : void
    +equalsToID(id: string) : boolean
}
"IPattern" <|- - "IChild"
interface "IAccordionItem" {
    +isBuilt : boolean
    +isDisabled : boolean
    +isOpen : boolean
    +selfElement : HTMLElement
    +uniqueId : string
    +widgetId : string
    +allowTitleEvents() : any
    +build() : void
    +changeProperty(propertyName: string, propertyValue: unknown) : void
    +close() : void
    +dispose() : void
    +equalsToID(id: string) : boolean
    +open() : void
    +registerCallback(callback: OSGeneric, eventName: string) : void
    +setBlur() : void
    +setFocus() : void
    +setTabindex() : void
    +unsetTabindex() : void
}
"IChild" <|- - "IAccordionItem"
interface "IDropdownServerSideItem" {
    +isBuilt : boolean
    +keyboardTriggeredKey : string
    +selfElement : HTMLElement
    +uniqueId : string
    +widgetId : string
    +build() : void
    +changeProperty(propertyName: string, propertyValue: unknown) : void
    +dispose() : void
    +equalsToID(id: string) : boolean
    +setBlur() : void
    +setFocus() : void
    +setTabindex() : void
    +toggleSelected(triggerCallback: boolean) : void
    +unsetTabindex() : void
}
"IChild" <|- - "IDropdownServerSideItem"
interface "ISectionIndexItem" {
    +isBuilt : boolean
    +selfElement : HTMLElement
    +uniqueId : string
    +widgetId : string
    +build() : void
    +changeProperty(propertyName: string, propertyValue: unknown) : void
    +dispose() : void
    +equalsToID(id: string) : boolean
    +setBlur() : void
    +setFocus() : void
    +setIsActive() : void
    +setTabindex() : void
    +unsetIsActive() : void
    +unsetTabindex() : void
}
"IChild" <|- - "ISectionIndexItem"
interface "ITabsContentItem" {
    +isBuilt : boolean
    +selfElement : HTMLElement
    +uniqueId : string
    +widgetId : string
    +build() : void
    +changeProperty(propertyName: string, propertyValue: unknown) : void
    +dispose() : void
    +equalsToID(id: string) : boolean
    +getDataTab() : number
    +getOffsetLeft() : number
    +setAriaLabelledByAttribute(headerItemId: string) : void
    +setBlur() : void
    +setDataTab(dataTab: number) : void
    +setFocus() : void
    +setIsActive() : void
    +setOnDragObserver(observer: IntersectionObserver) : void
    +setTabindex() : void
    +unobserveDragObserver(observer: IntersectionObserver) : void
    +unsetIsActive() : void
    +unsetTabindex() : void
}
"IChild" <|- - "ITabsContentItem"
interface "ITabsHeaderItem" {
    +isBuilt : boolean
    +selfElement : HTMLElement
    +uniqueId : string
    +widgetId : string
    +build() : void
    +changeProperty(propertyName: string, propertyValue: unknown) : void
    +disable() : void
    +dispose() : void
    +enable() : void
    +equalsToID(id: string) : boolean
    +getDataTab() : number
    +setAriaControlsAttribute(contentItemId: string) : void
    +setBlur() : void
    +setDataTab(dataTab: number) : void
    +setFocus() : void
    +setIsActive() : void
    +setTabindex() : void
    +unsetIsActive() : void
    +unsetTabindex() : void
    +updateOnRender() : void
}
"IChild" <|- - "ITabsHeaderItem"
abstract class "AbstractChild<C, PT>" {
    -_isFirstChild : boolean
    -_isLastChild : boolean
    -_parentId : string
    -_parentObject : PT
    +build() : void
    +changeProperty(propertyName: string, propertyValue: unknown) : void
    +dispose() : void
    +equalsToID(patternId: string) : boolean
    #finishBuild() : void
    #notifyParent(actionType: string) : void
    {abstract} #setA11YProperties() : void
    {abstract} #setCallbacks() : void
    {abstract} #setHtmlElements() : void
    #setParentInfo(parentSelector: string, getPatternByIdAPI: Function, canBeOrphan: boolean) : void
    {abstract} #unsetCallbacks() : void
    {abstract} #unsetHtmlElements() : void
}
"IChild" <|.. "AbstractChild<C, PT>"
@enduml

PlantUML version 1.2021.14(Fri Nov 12 16:46:50 UTC 2021)
(GPL source distribution)
Java Runtime: OpenJDK Runtime Environment
JVM: OpenJDK 64-Bit Server VM
Default Encoding: UTF-8
Language: en
Country: null
--></g></svg>