<?xml version="1.0" encoding="UTF-8" standalone="no"?><svg xmlns="http://www.w3.org/2000/svg" xmlns:xlink="http://www.w3.org/1999/xlink" contentScriptType="application/ecmascript" contentStyleType="text/css" height="803px" preserveAspectRatio="none" style="width:2744px;height:803px;background:#CED4DA;" version="1.1" viewBox="0 0 2744 803" width="2744px" zoomAndPan="magnify"><defs><filter height="300%" id="f2iscxxz2tgxn" width="300%" x="-1" y="-1"><feGaussianBlur result="blurOut" stdDeviation="2.0"/><feColorMatrix in="blurOut" result="blurOut2" type="matrix" values="0 0 0 0 0 0 0 0 0 0 0 0 0 0 0 0 0 0 .4 0"/><feOffset dx="4.0" dy="4.0" in="blurOut2" result="blurOut3"/><feBlend in="SourceGraphic" in2="blurOut3" mode="normal"/></filter></defs><g><!--MD5=[1123f0c3b94494dd3d3555a8beccd8c4]
class IChild--><rect codeLine="7" fill="#FFFFFF" filter="url(#f2iscxxz2tgxn)" height="203.4609" id="IChild" style="stroke:#272B30;stroke-width:1.5;" width="403" x="1102" y="219"/><ellipse cx="1283.25" cy="235" fill="#B4A7E5" rx="11" ry="11" style="stroke:#272B30;stroke-width:1.0;"/><path d="M1279.6777,231.2651 L1279.6777,229.1069 L1287.0571,229.1069 L1287.0571,231.2651 L1284.5918,231.2651 L1284.5918,239.3418 L1287.0571,239.3418 L1287.0571,241.5 L1279.6777,241.5 L1279.6777,239.3418 L1282.1431,239.3418 L1282.1431,231.2651 Z " fill="#000000"/><text fill="#000000" font-family="sans-serif" font-size="12" font-style="italic" lengthAdjust="spacing" textLength="32" x="1303.75" y="239.5352">IChild</text><line style="stroke:#272B30;stroke-width:1.5;" x1="1103" x2="1504" y1="251" y2="251"/><ellipse cx="1113" cy="262" rx="3" ry="3" style="stroke:#038048;stroke-width:1.0;fill:none;"/><text fill="#000000" font-family="sans-serif" font-size="11" lengthAdjust="spacing" textLength="84" x="1122" y="265.6348">isBuilt : boolean</text><ellipse cx="1113" cy="274.9551" rx="3" ry="3" style="stroke:#038048;stroke-width:1.0;fill:none;"/><text fill="#000000" font-family="sans-serif" font-size="11" lengthAdjust="spacing" textLength="142" x="1122" y="278.5898">selfElement : HTMLElement</text><ellipse cx="1113" cy="287.9102" rx="3" ry="3" style="stroke:#038048;stroke-width:1.0;fill:none;"/><text fill="#000000" font-family="sans-serif" font-size="11" lengthAdjust="spacing" textLength="88" x="1122" y="291.5449">uniqueId : string</text><ellipse cx="1113" cy="300.8652" rx="3" ry="3" style="stroke:#038048;stroke-width:1.0;fill:none;"/><text fill="#000000" font-family="sans-serif" font-size="11" lengthAdjust="spacing" textLength="86" x="1122" y="304.5">widgetId : string</text><line style="stroke:#272B30;stroke-width:1.5;" x1="1103" x2="1504" y1="310.8203" y2="310.8203"/><ellipse cx="1113" cy="321.8203" fill="#84BE84" rx="3" ry="3" style="stroke:#038048;stroke-width:1.0;"/><text fill="#000000" font-family="sans-serif" font-size="11" lengthAdjust="spacing" textLength="67" x="1122" y="325.4551">build() : void</text><ellipse cx="1113" cy="334.7754" fill="#84BE84" rx="3" ry="3" style="stroke:#038048;stroke-width:1.0;"/><text fill="#000000" font-family="sans-serif" font-size="11" lengthAdjust="spacing" textLength="377" x="1122" y="338.4102">changeProperty(propertyName: string, propertyValue: unknown) : void</text><ellipse cx="1113" cy="347.7305" fill="#84BE84" rx="3" ry="3" style="stroke:#038048;stroke-width:1.0;"/><text fill="#000000" font-family="sans-serif" font-size="11" lengthAdjust="spacing" textLength="82" x="1122" y="351.3652">dispose() : void</text><ellipse cx="1113" cy="360.6855" fill="#84BE84" rx="3" ry="3" style="stroke:#038048;stroke-width:1.0;"/><text fill="#000000" font-family="sans-serif" font-size="11" lengthAdjust="spacing" textLength="168" x="1122" y="364.3203">equalsToID(id: string) : boolean</text><ellipse cx="1113" cy="373.6406" fill="#84BE84" rx="3" ry="3" style="stroke:#038048;stroke-width:1.0;"/><text fill="#000000" font-family="sans-serif" font-size="11" lengthAdjust="spacing" textLength="77" x="1122" y="377.2754">setBlur() : void</text><ellipse cx="1113" cy="386.5957" fill="#84BE84" rx="3" ry="3" style="stroke:#038048;stroke-width:1.0;"/><text fill="#000000" font-family="sans-serif" font-size="11" lengthAdjust="spacing" textLength="88" x="1122" y="390.2305">setFocus() : void</text><ellipse cx="1113" cy="399.5508" fill="#84BE84" rx="3" ry="3" style="stroke:#038048;stroke-width:1.0;"/><text fill="#000000" font-family="sans-serif" font-size="11" lengthAdjust="spacing" textLength="106" x="1122" y="403.1855">setTabindex() : void</text><ellipse cx="1113" cy="412.5059" fill="#84BE84" rx="3" ry="3" style="stroke:#038048;stroke-width:1.0;"/><text fill="#000000" font-family="sans-serif" font-size="11" lengthAdjust="spacing" textLength="120" x="1122" y="416.1406">unsetTabindex() : void</text><!--MD5=[3266101ea6228889a90c639b28de0501]
class IPattern--><rect codeLine="21" fill="#FFFFFF" filter="url(#f2iscxxz2tgxn)" height="151.6406" id="IPattern" style="stroke:#272B30;stroke-width:1.5;" width="403" x="1102" y="7"/><ellipse cx="1277.25" cy="23" fill="#B4A7E5" rx="11" ry="11" style="stroke:#272B30;stroke-width:1.0;"/><path d="M1273.6777,19.2651 L1273.6777,17.1069 L1281.0571,17.1069 L1281.0571,19.2651 L1278.5918,19.2651 L1278.5918,27.3418 L1281.0571,27.3418 L1281.0571,29.5 L1273.6777,29.5 L1273.6777,27.3418 L1276.1431,27.3418 L1276.1431,19.2651 Z " fill="#000000"/><text fill="#000000" font-family="sans-serif" font-size="12" font-style="italic" lengthAdjust="spacing" textLength="44" x="1297.75" y="27.5352">IPattern</text><line style="stroke:#272B30;stroke-width:1.5;" x1="1103" x2="1504" y1="39" y2="39"/><ellipse cx="1113" cy="50" rx="3" ry="3" style="stroke:#038048;stroke-width:1.0;fill:none;"/><text fill="#000000" font-family="sans-serif" font-size="11" lengthAdjust="spacing" textLength="84" x="1122" y="53.6348">isBuilt : boolean</text><ellipse cx="1113" cy="62.9551" rx="3" ry="3" style="stroke:#038048;stroke-width:1.0;fill:none;"/><text fill="#000000" font-family="sans-serif" font-size="11" lengthAdjust="spacing" textLength="142" x="1122" y="66.5898">selfElement : HTMLElement</text><ellipse cx="1113" cy="75.9102" rx="3" ry="3" style="stroke:#038048;stroke-width:1.0;fill:none;"/><text fill="#000000" font-family="sans-serif" font-size="11" lengthAdjust="spacing" textLength="88" x="1122" y="79.5449">uniqueId : string</text><ellipse cx="1113" cy="88.8652" rx="3" ry="3" style="stroke:#038048;stroke-width:1.0;fill:none;"/><text fill="#000000" font-family="sans-serif" font-size="11" lengthAdjust="spacing" textLength="86" x="1122" y="92.5">widgetId : string</text><line style="stroke:#272B30;stroke-width:1.5;" x1="1103" x2="1504" y1="98.8203" y2="98.8203"/><ellipse cx="1113" cy="109.8203" fill="#84BE84" rx="3" ry="3" style="stroke:#038048;stroke-width:1.0;"/><text fill="#000000" font-family="sans-serif" font-size="11" lengthAdjust="spacing" textLength="67" x="1122" y="113.4551">build() : void</text><ellipse cx="1113" cy="122.7754" fill="#84BE84" rx="3" ry="3" style="stroke:#038048;stroke-width:1.0;"/><text fill="#000000" font-family="sans-serif" font-size="11" lengthAdjust="spacing" textLength="377" x="1122" y="126.4102">changeProperty(propertyName: string, propertyValue: unknown) : void</text><ellipse cx="1113" cy="135.7305" fill="#84BE84" rx="3" ry="3" style="stroke:#038048;stroke-width:1.0;"/><text fill="#000000" font-family="sans-serif" font-size="11" lengthAdjust="spacing" textLength="82" x="1122" y="139.3652">dispose() : void</text><ellipse cx="1113" cy="148.6855" fill="#84BE84" rx="3" ry="3" style="stroke:#038048;stroke-width:1.0;"/><text fill="#000000" font-family="sans-serif" font-size="11" lengthAdjust="spacing" textLength="168" x="1122" y="152.3203">equalsToID(id: string) : boolean</text><!--MD5=[c37acc2da49fd41b942858a217d69c1e]
class IAccordionItem--><rect codeLine="32" fill="#FFFFFF" filter="url(#f2iscxxz2tgxn)" height="281.1914" id="IAccordionItem" style="stroke:#272B30;stroke-width:1.5;" width="403" x="7" y="495"/><ellipse cx="161.75" cy="511" fill="#B4A7E5" rx="11" ry="11" style="stroke:#272B30;stroke-width:1.0;"/><path d="M158.1777,507.2651 L158.1777,505.1069 L165.5571,505.1069 L165.5571,507.2651 L163.0918,507.2651 L163.0918,515.3418 L165.5571,515.3418 L165.5571,517.5 L158.1777,517.5 L158.1777,515.3418 L160.6431,515.3418 L160.6431,507.2651 Z " fill="#000000"/><text fill="#000000" font-family="sans-serif" font-size="12" font-style="italic" lengthAdjust="spacing" textLength="85" x="182.25" y="515.5352">IAccordionItem</text><line style="stroke:#272B30;stroke-width:1.5;" x1="8" x2="409" y1="527" y2="527"/><ellipse cx="18" cy="538" rx="3" ry="3" style="stroke:#038048;stroke-width:1.0;fill:none;"/><text fill="#000000" font-family="sans-serif" font-size="11" lengthAdjust="spacing" textLength="84" x="27" y="541.6348">isBuilt : boolean</text><ellipse cx="18" cy="550.9551" rx="3" ry="3" style="stroke:#038048;stroke-width:1.0;fill:none;"/><text fill="#000000" font-family="sans-serif" font-size="11" lengthAdjust="spacing" textLength="107" x="27" y="554.5898">isDisabled : boolean</text><ellipse cx="18" cy="563.9102" rx="3" ry="3" style="stroke:#038048;stroke-width:1.0;fill:none;"/><text fill="#000000" font-family="sans-serif" font-size="11" lengthAdjust="spacing" textLength="90" x="27" y="567.5449">isOpen : boolean</text><ellipse cx="18" cy="576.8652" rx="3" ry="3" style="stroke:#038048;stroke-width:1.0;fill:none;"/><text fill="#000000" font-family="sans-serif" font-size="11" lengthAdjust="spacing" textLength="142" x="27" y="580.5">selfElement : HTMLElement</text><ellipse cx="18" cy="589.8203" rx="3" ry="3" style="stroke:#038048;stroke-width:1.0;fill:none;"/><text fill="#000000" font-family="sans-serif" font-size="11" lengthAdjust="spacing" textLength="88" x="27" y="593.4551">uniqueId : string</text><ellipse cx="18" cy="602.7754" rx="3" ry="3" style="stroke:#038048;stroke-width:1.0;fill:none;"/><text fill="#000000" font-family="sans-serif" font-size="11" lengthAdjust="spacing" textLength="86" x="27" y="606.4102">widgetId : string</text><line style="stroke:#272B30;stroke-width:1.5;" x1="8" x2="409" y1="612.7305" y2="612.7305"/><ellipse cx="18" cy="623.7305" fill="#84BE84" rx="3" ry="3" style="stroke:#038048;stroke-width:1.0;"/><text fill="#000000" font-family="sans-serif" font-size="11" lengthAdjust="spacing" textLength="121" x="27" y="627.3652">allowTitleEvents() : any</text><ellipse cx="18" cy="636.6855" fill="#84BE84" rx="3" ry="3" style="stroke:#038048;stroke-width:1.0;"/><text fill="#000000" font-family="sans-serif" font-size="11" lengthAdjust="spacing" textLength="67" x="27" y="640.3203">build() : void</text><ellipse cx="18" cy="649.6406" fill="#84BE84" rx="3" ry="3" style="stroke:#038048;stroke-width:1.0;"/><text fill="#000000" font-family="sans-serif" font-size="11" lengthAdjust="spacing" textLength="377" x="27" y="653.2754">changeProperty(propertyName: string, propertyValue: unknown) : void</text><ellipse cx="18" cy="662.5957" fill="#84BE84" rx="3" ry="3" style="stroke:#038048;stroke-width:1.0;"/><text fill="#000000" font-family="sans-serif" font-size="11" lengthAdjust="spacing" textLength="68" x="27" y="666.2305">close() : void</text><ellipse cx="18" cy="675.5508" fill="#84BE84" rx="3" ry="3" style="stroke:#038048;stroke-width:1.0;"/><text fill="#000000" font-family="sans-serif" font-size="11" lengthAdjust="spacing" textLength="82" x="27" y="679.1855">dispose() : void</text><ellipse cx="18" cy="688.5059" fill="#84BE84" rx="3" ry="3" style="stroke:#038048;stroke-width:1.0;"/><text fill="#000000" font-family="sans-serif" font-size="11" lengthAdjust="spacing" textLength="168" x="27" y="692.1406">equalsToID(id: string) : boolean</text><ellipse cx="18" cy="701.4609" fill="#84BE84" rx="3" ry="3" style="stroke:#038048;stroke-width:1.0;"/><text fill="#000000" font-family="sans-serif" font-size="11" lengthAdjust="spacing" textLength="67" x="27" y="705.0957">open() : void</text><ellipse cx="18" cy="714.416" fill="#84BE84" rx="3" ry="3" style="stroke:#038048;stroke-width:1.0;"/><text fill="#000000" font-family="sans-serif" font-size="11" lengthAdjust="spacing" textLength="232" x="27" y="718.0508">registerCallback(callback: OSGeneric) : void</text><ellipse cx="18" cy="727.3711" fill="#84BE84" rx="3" ry="3" style="stroke:#038048;stroke-width:1.0;"/><text fill="#000000" font-family="sans-serif" font-size="11" lengthAdjust="spacing" textLength="77" x="27" y="731.0059">setBlur() : void</text><ellipse cx="18" cy="740.3262" fill="#84BE84" rx="3" ry="3" style="stroke:#038048;stroke-width:1.0;"/><text fill="#000000" font-family="sans-serif" font-size="11" lengthAdjust="spacing" textLength="88" x="27" y="743.9609">setFocus() : void</text><ellipse cx="18" cy="753.2813" fill="#84BE84" rx="3" ry="3" style="stroke:#038048;stroke-width:1.0;"/><text fill="#000000" font-family="sans-serif" font-size="11" lengthAdjust="spacing" textLength="106" x="27" y="756.916">setTabindex() : void</text><ellipse cx="18" cy="766.2363" fill="#84BE84" rx="3" ry="3" style="stroke:#038048;stroke-width:1.0;"/><text fill="#000000" font-family="sans-serif" font-size="11" lengthAdjust="spacing" textLength="120" x="27" y="769.8711">unsetTabindex() : void</text><!--MD5=[bcd99cc50e8dfb4eeef7ac4f1f302d89]
class IDropdownServerSideItem--><rect codeLine="53" fill="#FFFFFF" filter="url(#f2iscxxz2tgxn)" height="229.3711" id="IDropdownServerSideItem" style="stroke:#272B30;stroke-width:1.5;" width="403" x="445" y="521"/><ellipse cx="568.25" cy="537" fill="#B4A7E5" rx="11" ry="11" style="stroke:#272B30;stroke-width:1.0;"/><path d="M564.6777,533.2651 L564.6777,531.1069 L572.0571,531.1069 L572.0571,533.2651 L569.5918,533.2651 L569.5918,541.3418 L572.0571,541.3418 L572.0571,543.5 L564.6777,543.5 L564.6777,541.3418 L567.1431,541.3418 L567.1431,533.2651 Z " fill="#000000"/><text fill="#000000" font-family="sans-serif" font-size="12" font-style="italic" lengthAdjust="spacing" textLength="148" x="588.75" y="541.5352">IDropdownServerSideItem</text><line style="stroke:#272B30;stroke-width:1.5;" x1="446" x2="847" y1="553" y2="553"/><ellipse cx="456" cy="564" rx="3" ry="3" style="stroke:#038048;stroke-width:1.0;fill:none;"/><text fill="#000000" font-family="sans-serif" font-size="11" lengthAdjust="spacing" textLength="84" x="465" y="567.6348">isBuilt : boolean</text><ellipse cx="456" cy="576.9551" rx="3" ry="3" style="stroke:#038048;stroke-width:1.0;fill:none;"/><text fill="#000000" font-family="sans-serif" font-size="11" lengthAdjust="spacing" textLength="163" x="465" y="580.5898">keyboardTriggeredKey : string</text><ellipse cx="456" cy="589.9102" rx="3" ry="3" style="stroke:#038048;stroke-width:1.0;fill:none;"/><text fill="#000000" font-family="sans-serif" font-size="11" lengthAdjust="spacing" textLength="142" x="465" y="593.5449">selfElement : HTMLElement</text><ellipse cx="456" cy="602.8652" rx="3" ry="3" style="stroke:#038048;stroke-width:1.0;fill:none;"/><text fill="#000000" font-family="sans-serif" font-size="11" lengthAdjust="spacing" textLength="88" x="465" y="606.5">uniqueId : string</text><ellipse cx="456" cy="615.8203" rx="3" ry="3" style="stroke:#038048;stroke-width:1.0;fill:none;"/><text fill="#000000" font-family="sans-serif" font-size="11" lengthAdjust="spacing" textLength="86" x="465" y="619.4551">widgetId : string</text><line style="stroke:#272B30;stroke-width:1.5;" x1="446" x2="847" y1="625.7754" y2="625.7754"/><ellipse cx="456" cy="636.7754" fill="#84BE84" rx="3" ry="3" style="stroke:#038048;stroke-width:1.0;"/><text fill="#000000" font-family="sans-serif" font-size="11" lengthAdjust="spacing" textLength="67" x="465" y="640.4102">build() : void</text><ellipse cx="456" cy="649.7305" fill="#84BE84" rx="3" ry="3" style="stroke:#038048;stroke-width:1.0;"/><text fill="#000000" font-family="sans-serif" font-size="11" lengthAdjust="spacing" textLength="377" x="465" y="653.3652">changeProperty(propertyName: string, propertyValue: unknown) : void</text><ellipse cx="456" cy="662.6855" fill="#84BE84" rx="3" ry="3" style="stroke:#038048;stroke-width:1.0;"/><text fill="#000000" font-family="sans-serif" font-size="11" lengthAdjust="spacing" textLength="82" x="465" y="666.3203">dispose() : void</text><ellipse cx="456" cy="675.6406" fill="#84BE84" rx="3" ry="3" style="stroke:#038048;stroke-width:1.0;"/><text fill="#000000" font-family="sans-serif" font-size="11" lengthAdjust="spacing" textLength="168" x="465" y="679.2754">equalsToID(id: string) : boolean</text><ellipse cx="456" cy="688.5957" fill="#84BE84" rx="3" ry="3" style="stroke:#038048;stroke-width:1.0;"/><text fill="#000000" font-family="sans-serif" font-size="11" lengthAdjust="spacing" textLength="77" x="465" y="692.2305">setBlur() : void</text><ellipse cx="456" cy="701.5508" fill="#84BE84" rx="3" ry="3" style="stroke:#038048;stroke-width:1.0;"/><text fill="#000000" font-family="sans-serif" font-size="11" lengthAdjust="spacing" textLength="88" x="465" y="705.1855">setFocus() : void</text><ellipse cx="456" cy="714.5059" fill="#84BE84" rx="3" ry="3" style="stroke:#038048;stroke-width:1.0;"/><text fill="#000000" font-family="sans-serif" font-size="11" lengthAdjust="spacing" textLength="106" x="465" y="718.1406">setTabindex() : void</text><ellipse cx="456" cy="727.4609" fill="#84BE84" rx="3" ry="3" style="stroke:#038048;stroke-width:1.0;"/><text fill="#000000" font-family="sans-serif" font-size="11" lengthAdjust="spacing" textLength="249" x="465" y="731.0957">toggleSelected(triggerCallback: boolean) : void</text><ellipse cx="456" cy="740.416" fill="#84BE84" rx="3" ry="3" style="stroke:#038048;stroke-width:1.0;"/><text fill="#000000" font-family="sans-serif" font-size="11" lengthAdjust="spacing" textLength="120" x="465" y="744.0508">unsetTabindex() : void</text><!--MD5=[822676b925c8e001bce71cad4a86da40]
class ISectionIndexItem--><rect codeLine="70" fill="#FFFFFF" filter="url(#f2iscxxz2tgxn)" height="229.3711" id="ISectionIndexItem" style="stroke:#272B30;stroke-width:1.5;" width="403" x="883" y="521"/><ellipse cx="1030.25" cy="537" fill="#B4A7E5" rx="11" ry="11" style="stroke:#272B30;stroke-width:1.0;"/><path d="M1026.6777,533.2651 L1026.6777,531.1069 L1034.0571,531.1069 L1034.0571,533.2651 L1031.5918,533.2651 L1031.5918,541.3418 L1034.0571,541.3418 L1034.0571,543.5 L1026.6777,543.5 L1026.6777,541.3418 L1029.1431,541.3418 L1029.1431,533.2651 Z " fill="#000000"/><text fill="#000000" font-family="sans-serif" font-size="12" font-style="italic" lengthAdjust="spacing" textLength="100" x="1050.75" y="541.5352">ISectionIndexItem</text><line style="stroke:#272B30;stroke-width:1.5;" x1="884" x2="1285" y1="553" y2="553"/><ellipse cx="894" cy="564" rx="3" ry="3" style="stroke:#038048;stroke-width:1.0;fill:none;"/><text fill="#000000" font-family="sans-serif" font-size="11" lengthAdjust="spacing" textLength="84" x="903" y="567.6348">isBuilt : boolean</text><ellipse cx="894" cy="576.9551" rx="3" ry="3" style="stroke:#038048;stroke-width:1.0;fill:none;"/><text fill="#000000" font-family="sans-serif" font-size="11" lengthAdjust="spacing" textLength="142" x="903" y="580.5898">selfElement : HTMLElement</text><ellipse cx="894" cy="589.9102" rx="3" ry="3" style="stroke:#038048;stroke-width:1.0;fill:none;"/><text fill="#000000" font-family="sans-serif" font-size="11" lengthAdjust="spacing" textLength="88" x="903" y="593.5449">uniqueId : string</text><ellipse cx="894" cy="602.8652" rx="3" ry="3" style="stroke:#038048;stroke-width:1.0;fill:none;"/><text fill="#000000" font-family="sans-serif" font-size="11" lengthAdjust="spacing" textLength="86" x="903" y="606.5">widgetId : string</text><line style="stroke:#272B30;stroke-width:1.5;" x1="884" x2="1285" y1="612.8203" y2="612.8203"/><ellipse cx="894" cy="623.8203" fill="#84BE84" rx="3" ry="3" style="stroke:#038048;stroke-width:1.0;"/><text fill="#000000" font-family="sans-serif" font-size="11" lengthAdjust="spacing" textLength="67" x="903" y="627.4551">build() : void</text><ellipse cx="894" cy="636.7754" fill="#84BE84" rx="3" ry="3" style="stroke:#038048;stroke-width:1.0;"/><text fill="#000000" font-family="sans-serif" font-size="11" lengthAdjust="spacing" textLength="377" x="903" y="640.4102">changeProperty(propertyName: string, propertyValue: unknown) : void</text><ellipse cx="894" cy="649.7305" fill="#84BE84" rx="3" ry="3" style="stroke:#038048;stroke-width:1.0;"/><text fill="#000000" font-family="sans-serif" font-size="11" lengthAdjust="spacing" textLength="82" x="903" y="653.3652">dispose() : void</text><ellipse cx="894" cy="662.6855" fill="#84BE84" rx="3" ry="3" style="stroke:#038048;stroke-width:1.0;"/><text fill="#000000" font-family="sans-serif" font-size="11" lengthAdjust="spacing" textLength="168" x="903" y="666.3203">equalsToID(id: string) : boolean</text><ellipse cx="894" cy="675.6406" fill="#84BE84" rx="3" ry="3" style="stroke:#038048;stroke-width:1.0;"/><text fill="#000000" font-family="sans-serif" font-size="11" lengthAdjust="spacing" textLength="77" x="903" y="679.2754">setBlur() : void</text><ellipse cx="894" cy="688.5957" fill="#84BE84" rx="3" ry="3" style="stroke:#038048;stroke-width:1.0;"/><text fill="#000000" font-family="sans-serif" font-size="11" lengthAdjust="spacing" textLength="88" x="903" y="692.2305">setFocus() : void</text><ellipse cx="894" cy="701.5508" fill="#84BE84" rx="3" ry="3" style="stroke:#038048;stroke-width:1.0;"/><text fill="#000000" font-family="sans-serif" font-size="11" lengthAdjust="spacing" textLength="98" x="903" y="705.1855">setIsActive() : void</text><ellipse cx="894" cy="714.5059" fill="#84BE84" rx="3" ry="3" style="stroke:#038048;stroke-width:1.0;"/><text fill="#000000" font-family="sans-serif" font-size="11" lengthAdjust="spacing" textLength="106" x="903" y="718.1406">setTabindex() : void</text><ellipse cx="894" cy="727.4609" fill="#84BE84" rx="3" ry="3" style="stroke:#038048;stroke-width:1.0;"/><text fill="#000000" font-family="sans-serif" font-size="11" lengthAdjust="spacing" textLength="112" x="903" y="731.0957">unsetIsActive() : void</text><ellipse cx="894" cy="740.416" fill="#84BE84" rx="3" ry="3" style="stroke:#038048;stroke-width:1.0;"/><text fill="#000000" font-family="sans-serif" font-size="11" lengthAdjust="spacing" textLength="120" x="903" y="744.0508">unsetTabindex() : void</text><!--MD5=[a97cacaa17be7b93161d248ee0cca94d]
class ITabsContentItem--><rect codeLine="87" fill="#FFFFFF" filter="url(#f2iscxxz2tgxn)" height="307.1016" id="ITabsContentItem" style="stroke:#272B30;stroke-width:1.5;" width="403" x="1321" y="482"/><ellipse cx="1467.75" cy="498" fill="#B4A7E5" rx="11" ry="11" style="stroke:#272B30;stroke-width:1.0;"/><path d="M1464.1777,494.2651 L1464.1777,492.1069 L1471.5571,492.1069 L1471.5571,494.2651 L1469.0918,494.2651 L1469.0918,502.3418 L1471.5571,502.3418 L1471.5571,504.5 L1464.1777,504.5 L1464.1777,502.3418 L1466.6431,502.3418 L1466.6431,494.2651 Z " fill="#000000"/><text fill="#000000" font-family="sans-serif" font-size="12" font-style="italic" lengthAdjust="spacing" textLength="101" x="1488.25" y="502.5352">ITabsContentItem</text><line style="stroke:#272B30;stroke-width:1.5;" x1="1322" x2="1723" y1="514" y2="514"/><ellipse cx="1332" cy="525" rx="3" ry="3" style="stroke:#038048;stroke-width:1.0;fill:none;"/><text fill="#000000" font-family="sans-serif" font-size="11" lengthAdjust="spacing" textLength="84" x="1341" y="528.6348">isBuilt : boolean</text><ellipse cx="1332" cy="537.9551" rx="3" ry="3" style="stroke:#038048;stroke-width:1.0;fill:none;"/><text fill="#000000" font-family="sans-serif" font-size="11" lengthAdjust="spacing" textLength="142" x="1341" y="541.5898">selfElement : HTMLElement</text><ellipse cx="1332" cy="550.9102" rx="3" ry="3" style="stroke:#038048;stroke-width:1.0;fill:none;"/><text fill="#000000" font-family="sans-serif" font-size="11" lengthAdjust="spacing" textLength="88" x="1341" y="554.5449">uniqueId : string</text><ellipse cx="1332" cy="563.8652" rx="3" ry="3" style="stroke:#038048;stroke-width:1.0;fill:none;"/><text fill="#000000" font-family="sans-serif" font-size="11" lengthAdjust="spacing" textLength="86" x="1341" y="567.5">widgetId : string</text><line style="stroke:#272B30;stroke-width:1.5;" x1="1322" x2="1723" y1="573.8203" y2="573.8203"/><ellipse cx="1332" cy="584.8203" fill="#84BE84" rx="3" ry="3" style="stroke:#038048;stroke-width:1.0;"/><text fill="#000000" font-family="sans-serif" font-size="11" lengthAdjust="spacing" textLength="67" x="1341" y="588.4551">build() : void</text><ellipse cx="1332" cy="597.7754" fill="#84BE84" rx="3" ry="3" style="stroke:#038048;stroke-width:1.0;"/><text fill="#000000" font-family="sans-serif" font-size="11" lengthAdjust="spacing" textLength="377" x="1341" y="601.4102">changeProperty(propertyName: string, propertyValue: unknown) : void</text><ellipse cx="1332" cy="610.7305" fill="#84BE84" rx="3" ry="3" style="stroke:#038048;stroke-width:1.0;"/><text fill="#000000" font-family="sans-serif" font-size="11" lengthAdjust="spacing" textLength="82" x="1341" y="614.3652">dispose() : void</text><ellipse cx="1332" cy="623.6855" fill="#84BE84" rx="3" ry="3" style="stroke:#038048;stroke-width:1.0;"/><text fill="#000000" font-family="sans-serif" font-size="11" lengthAdjust="spacing" textLength="168" x="1341" y="627.3203">equalsToID(id: string) : boolean</text><ellipse cx="1332" cy="636.6406" fill="#84BE84" rx="3" ry="3" style="stroke:#038048;stroke-width:1.0;"/><text fill="#000000" font-family="sans-serif" font-size="11" lengthAdjust="spacing" textLength="120" x="1341" y="640.2754">getDataTab() : number</text><ellipse cx="1332" cy="649.5957" fill="#84BE84" rx="3" ry="3" style="stroke:#038048;stroke-width:1.0;"/><text fill="#000000" font-family="sans-serif" font-size="11" lengthAdjust="spacing" textLength="129" x="1341" y="653.2305">getOffsetLeft() : number</text><ellipse cx="1332" cy="662.5508" fill="#84BE84" rx="3" ry="3" style="stroke:#038048;stroke-width:1.0;"/><text fill="#000000" font-family="sans-serif" font-size="11" lengthAdjust="spacing" textLength="290" x="1341" y="666.1855">setAriaLabelledByAttribute(headerItemId: string) : void</text><ellipse cx="1332" cy="675.5059" fill="#84BE84" rx="3" ry="3" style="stroke:#038048;stroke-width:1.0;"/><text fill="#000000" font-family="sans-serif" font-size="11" lengthAdjust="spacing" textLength="77" x="1341" y="679.1406">setBlur() : void</text><ellipse cx="1332" cy="688.4609" fill="#84BE84" rx="3" ry="3" style="stroke:#038048;stroke-width:1.0;"/><text fill="#000000" font-family="sans-serif" font-size="11" lengthAdjust="spacing" textLength="191" x="1341" y="692.0957">setDataTab(dataTab: number) : void</text><ellipse cx="1332" cy="701.416" fill="#84BE84" rx="3" ry="3" style="stroke:#038048;stroke-width:1.0;"/><text fill="#000000" font-family="sans-serif" font-size="11" lengthAdjust="spacing" textLength="88" x="1341" y="705.0508">setFocus() : void</text><ellipse cx="1332" cy="714.3711" fill="#84BE84" rx="3" ry="3" style="stroke:#038048;stroke-width:1.0;"/><text fill="#000000" font-family="sans-serif" font-size="11" lengthAdjust="spacing" textLength="98" x="1341" y="718.0059">setIsActive() : void</text><ellipse cx="1332" cy="727.3262" fill="#84BE84" rx="3" ry="3" style="stroke:#038048;stroke-width:1.0;"/><text fill="#000000" font-family="sans-serif" font-size="11" lengthAdjust="spacing" textLength="316" x="1341" y="730.9609">setOnDragObserver(observer: IntersectionObserver) : void</text><ellipse cx="1332" cy="740.2813" fill="#84BE84" rx="3" ry="3" style="stroke:#038048;stroke-width:1.0;"/><text fill="#000000" font-family="sans-serif" font-size="11" lengthAdjust="spacing" textLength="106" x="1341" y="743.916">setTabindex() : void</text><ellipse cx="1332" cy="753.2363" fill="#84BE84" rx="3" ry="3" style="stroke:#038048;stroke-width:1.0;"/><text fill="#000000" font-family="sans-serif" font-size="11" lengthAdjust="spacing" textLength="341" x="1341" y="756.8711">unobserveDragObserver(observer: IntersectionObserver) : void</text><ellipse cx="1332" cy="766.1914" fill="#84BE84" rx="3" ry="3" style="stroke:#038048;stroke-width:1.0;"/><text fill="#000000" font-family="sans-serif" font-size="11" lengthAdjust="spacing" textLength="112" x="1341" y="769.8262">unsetIsActive() : void</text><ellipse cx="1332" cy="779.1465" fill="#84BE84" rx="3" ry="3" style="stroke:#038048;stroke-width:1.0;"/><text fill="#000000" font-family="sans-serif" font-size="11" lengthAdjust="spacing" textLength="120" x="1341" y="782.7813">unsetTabindex() : void</text><!--MD5=[8ed90dd5402d8b4987d381f4b2872a93]
class ITabsHeaderItem--><rect codeLine="110" fill="#FFFFFF" filter="url(#f2iscxxz2tgxn)" height="307.1016" id="ITabsHeaderItem" style="stroke:#272B30;stroke-width:1.5;" width="403" x="1759" y="482"/><ellipse cx="1906.25" cy="498" fill="#B4A7E5" rx="11" ry="11" style="stroke:#272B30;stroke-width:1.0;"/><path d="M1902.6777,494.2651 L1902.6777,492.1069 L1910.0571,492.1069 L1910.0571,494.2651 L1907.5918,494.2651 L1907.5918,502.3418 L1910.0571,502.3418 L1910.0571,504.5 L1902.6777,504.5 L1902.6777,502.3418 L1905.1431,502.3418 L1905.1431,494.2651 Z " fill="#000000"/><text fill="#000000" font-family="sans-serif" font-size="12" font-style="italic" lengthAdjust="spacing" textLength="100" x="1926.75" y="502.5352">ITabsHeaderItem</text><line style="stroke:#272B30;stroke-width:1.5;" x1="1760" x2="2161" y1="514" y2="514"/><ellipse cx="1770" cy="525" rx="3" ry="3" style="stroke:#038048;stroke-width:1.0;fill:none;"/><text fill="#000000" font-family="sans-serif" font-size="11" lengthAdjust="spacing" textLength="84" x="1779" y="528.6348">isBuilt : boolean</text><ellipse cx="1770" cy="537.9551" rx="3" ry="3" style="stroke:#038048;stroke-width:1.0;fill:none;"/><text fill="#000000" font-family="sans-serif" font-size="11" lengthAdjust="spacing" textLength="142" x="1779" y="541.5898">selfElement : HTMLElement</text><ellipse cx="1770" cy="550.9102" rx="3" ry="3" style="stroke:#038048;stroke-width:1.0;fill:none;"/><text fill="#000000" font-family="sans-serif" font-size="11" lengthAdjust="spacing" textLength="88" x="1779" y="554.5449">uniqueId : string</text><ellipse cx="1770" cy="563.8652" rx="3" ry="3" style="stroke:#038048;stroke-width:1.0;fill:none;"/><text fill="#000000" font-family="sans-serif" font-size="11" lengthAdjust="spacing" textLength="86" x="1779" y="567.5">widgetId : string</text><line style="stroke:#272B30;stroke-width:1.5;" x1="1760" x2="2161" y1="573.8203" y2="573.8203"/><ellipse cx="1770" cy="584.8203" fill="#84BE84" rx="3" ry="3" style="stroke:#038048;stroke-width:1.0;"/><text fill="#000000" font-family="sans-serif" font-size="11" lengthAdjust="spacing" textLength="67" x="1779" y="588.4551">build() : void</text><ellipse cx="1770" cy="597.7754" fill="#84BE84" rx="3" ry="3" style="stroke:#038048;stroke-width:1.0;"/><text fill="#000000" font-family="sans-serif" font-size="11" lengthAdjust="spacing" textLength="377" x="1779" y="601.4102">changeProperty(propertyName: string, propertyValue: unknown) : void</text><ellipse cx="1770" cy="610.7305" fill="#84BE84" rx="3" ry="3" style="stroke:#038048;stroke-width:1.0;"/><text fill="#000000" font-family="sans-serif" font-size="11" lengthAdjust="spacing" textLength="78" x="1779" y="614.3652">disable() : void</text><ellipse cx="1770" cy="623.6855" fill="#84BE84" rx="3" ry="3" style="stroke:#038048;stroke-width:1.0;"/><text fill="#000000" font-family="sans-serif" font-size="11" lengthAdjust="spacing" textLength="82" x="1779" y="627.3203">dispose() : void</text><ellipse cx="1770" cy="636.6406" fill="#84BE84" rx="3" ry="3" style="stroke:#038048;stroke-width:1.0;"/><text fill="#000000" font-family="sans-serif" font-size="11" lengthAdjust="spacing" textLength="75" x="1779" y="640.2754">enable() : void</text><ellipse cx="1770" cy="649.5957" fill="#84BE84" rx="3" ry="3" style="stroke:#038048;stroke-width:1.0;"/><text fill="#000000" font-family="sans-serif" font-size="11" lengthAdjust="spacing" textLength="168" x="1779" y="653.2305">equalsToID(id: string) : boolean</text><ellipse cx="1770" cy="662.5508" fill="#84BE84" rx="3" ry="3" style="stroke:#038048;stroke-width:1.0;"/><text fill="#000000" font-family="sans-serif" font-size="11" lengthAdjust="spacing" textLength="120" x="1779" y="666.1855">getDataTab() : number</text><ellipse cx="1770" cy="675.5059" fill="#84BE84" rx="3" ry="3" style="stroke:#038048;stroke-width:1.0;"/><text fill="#000000" font-family="sans-serif" font-size="11" lengthAdjust="spacing" textLength="285" x="1779" y="679.1406">setAriaControlsAttribute(contentItemId: string) : void</text><ellipse cx="1770" cy="688.4609" fill="#84BE84" rx="3" ry="3" style="stroke:#038048;stroke-width:1.0;"/><text fill="#000000" font-family="sans-serif" font-size="11" lengthAdjust="spacing" textLength="77" x="1779" y="692.0957">setBlur() : void</text><ellipse cx="1770" cy="701.416" fill="#84BE84" rx="3" ry="3" style="stroke:#038048;stroke-width:1.0;"/><text fill="#000000" font-family="sans-serif" font-size="11" lengthAdjust="spacing" textLength="191" x="1779" y="705.0508">setDataTab(dataTab: number) : void</text><ellipse cx="1770" cy="714.3711" fill="#84BE84" rx="3" ry="3" style="stroke:#038048;stroke-width:1.0;"/><text fill="#000000" font-family="sans-serif" font-size="11" lengthAdjust="spacing" textLength="88" x="1779" y="718.0059">setFocus() : void</text><ellipse cx="1770" cy="727.3262" fill="#84BE84" rx="3" ry="3" style="stroke:#038048;stroke-width:1.0;"/><text fill="#000000" font-family="sans-serif" font-size="11" lengthAdjust="spacing" textLength="98" x="1779" y="730.9609">setIsActive() : void</text><ellipse cx="1770" cy="740.2813" fill="#84BE84" rx="3" ry="3" style="stroke:#038048;stroke-width:1.0;"/><text fill="#000000" font-family="sans-serif" font-size="11" lengthAdjust="spacing" textLength="106" x="1779" y="743.916">setTabindex() : void</text><ellipse cx="1770" cy="753.2363" fill="#84BE84" rx="3" ry="3" style="stroke:#038048;stroke-width:1.0;"/><text fill="#000000" font-family="sans-serif" font-size="11" lengthAdjust="spacing" textLength="112" x="1779" y="756.8711">unsetIsActive() : void</text><ellipse cx="1770" cy="766.1914" fill="#84BE84" rx="3" ry="3" style="stroke:#038048;stroke-width:1.0;"/><text fill="#000000" font-family="sans-serif" font-size="11" lengthAdjust="spacing" textLength="120" x="1779" y="769.8262">unsetTabindex() : void</text><ellipse cx="1770" cy="779.1465" fill="#84BE84" rx="3" ry="3" style="stroke:#038048;stroke-width:1.0;"/><text fill="#000000" font-family="sans-serif" font-size="11" lengthAdjust="spacing" textLength="131" x="1779" y="782.7813">updateOnRender() : void</text><!--MD5=[6430a90c306ac01ac6c483582083eea7]
class AbstractChild<C, PT>--><rect codeLine="133" fill="#FFFFFF" filter="url(#f2iscxxz2tgxn)" height="255.2813" id="AbstractChild&lt;C, PT&gt;" style="stroke:#272B30;stroke-width:1.5;" width="533" x="2197" y="508"/><ellipse cx="2395.25" cy="524" fill="#A9DCDF" rx="11" ry="11" style="stroke:#272B30;stroke-width:1.0;"/><path d="M2395.1133,519.3481 L2393.9595,524.4199 L2396.2754,524.4199 Z M2393.6191,517.1069 L2396.6157,517.1069 L2399.9609,529.5 L2397.5122,529.5 L2396.7485,526.437 L2393.4697,526.437 L2392.7227,529.5 L2390.2739,529.5 Z " fill="#000000"/><text fill="#000000" font-family="sans-serif" font-size="12" font-style="italic" lengthAdjust="spacing" textLength="128" x="2415.75" y="528.5352">AbstractChild&lt;C, PT&gt;</text><line style="stroke:#272B30;stroke-width:1.5;" x1="2198" x2="2729" y1="540" y2="540"/><rect fill="none" height="6" style="stroke:#C82930;stroke-width:1.0;" width="6" x="2205" y="548"/><text fill="#000000" font-family="sans-serif" font-size="11" lengthAdjust="spacing" textLength="119" x="2217" y="554.6348">_isFirstChild : boolean</text><rect fill="none" height="6" style="stroke:#C82930;stroke-width:1.0;" width="6" x="2205" y="560.9551"/><text fill="#000000" font-family="sans-serif" font-size="11" lengthAdjust="spacing" textLength="117" x="2217" y="567.5898">_isLastChild : boolean</text><rect fill="none" height="6" style="stroke:#C82930;stroke-width:1.0;" width="6" x="2205" y="573.9102"/><text fill="#000000" font-family="sans-serif" font-size="11" lengthAdjust="spacing" textLength="92" x="2217" y="580.5449">_parentId : string</text><rect fill="none" height="6" style="stroke:#C82930;stroke-width:1.0;" width="6" x="2205" y="586.8652"/><text fill="#000000" font-family="sans-serif" font-size="11" lengthAdjust="spacing" textLength="98" x="2217" y="593.5">_parentObject : PT</text><line style="stroke:#272B30;stroke-width:1.5;" x1="2198" x2="2729" y1="599.8203" y2="599.8203"/><ellipse cx="2208" cy="610.8203" fill="#84BE84" rx="3" ry="3" style="stroke:#038048;stroke-width:1.0;"/><text fill="#000000" font-family="sans-serif" font-size="11" lengthAdjust="spacing" textLength="67" x="2217" y="614.4551">build() : void</text><ellipse cx="2208" cy="623.7754" fill="#84BE84" rx="3" ry="3" style="stroke:#038048;stroke-width:1.0;"/><text fill="#000000" font-family="sans-serif" font-size="11" lengthAdjust="spacing" textLength="377" x="2217" y="627.4102">changeProperty(propertyName: string, propertyValue: unknown) : void</text><ellipse cx="2208" cy="636.7305" fill="#84BE84" rx="3" ry="3" style="stroke:#038048;stroke-width:1.0;"/><text fill="#000000" font-family="sans-serif" font-size="11" lengthAdjust="spacing" textLength="82" x="2217" y="640.3652">dispose() : void</text><ellipse cx="2208" cy="649.6855" fill="#84BE84" rx="3" ry="3" style="stroke:#038048;stroke-width:1.0;"/><text fill="#000000" font-family="sans-serif" font-size="11" lengthAdjust="spacing" textLength="207" x="2217" y="653.3203">equalsToID(patternId: string) : boolean</text><polygon fill="#FFFF44" points="2208,657.6406,2212,661.6406,2208,665.6406,2204,661.6406" style="stroke:#B38D22;stroke-width:1.0;"/><text fill="#000000" font-family="sans-serif" font-size="11" lengthAdjust="spacing" textLength="96" x="2217" y="666.2754">finishBuild() : void</text><polygon fill="#FFFF44" points="2208,670.5957,2212,674.5957,2208,678.5957,2204,674.5957" style="stroke:#B38D22;stroke-width:1.0;"/><text fill="#000000" font-family="sans-serif" font-size="11" lengthAdjust="spacing" textLength="202" x="2217" y="679.2305">notifyParent(actionType: string) : void</text><polygon fill="#FFFF44" points="2208,683.5508,2212,687.5508,2208,691.5508,2204,687.5508" style="stroke:#B38D22;stroke-width:1.0;"/><text fill="#000000" font-family="sans-serif" font-size="11" font-style="italic" lengthAdjust="spacing" textLength="140" x="2217" y="692.1855">setA11YProperties() : void</text><polygon fill="#FFFF44" points="2208,696.5059,2212,700.5059,2208,704.5059,2204,700.5059" style="stroke:#B38D22;stroke-width:1.0;"/><text fill="#000000" font-family="sans-serif" font-size="11" font-style="italic" lengthAdjust="spacing" textLength="107" x="2217" y="705.1406">setCallbacks() : void</text><polygon fill="#FFFF44" points="2208,709.4609,2212,713.4609,2208,717.4609,2204,713.4609" style="stroke:#B38D22;stroke-width:1.0;"/><text fill="#000000" font-family="sans-serif" font-size="11" font-style="italic" lengthAdjust="spacing" textLength="129" x="2217" y="718.0957">setHtmlElements() : void</text><polygon fill="#FFFF44" points="2208,722.416,2212,726.416,2208,730.416,2204,726.416" style="stroke:#B38D22;stroke-width:1.0;"/><text fill="#000000" font-family="sans-serif" font-size="11" lengthAdjust="spacing" textLength="507" x="2217" y="731.0508">setParentInfo(parentSelector: string, getPatternByIdAPI: Function, canBeOrphan: boolean) : void</text><polygon fill="#FFFF44" points="2208,735.3711,2212,739.3711,2208,743.3711,2204,739.3711" style="stroke:#B38D22;stroke-width:1.0;"/><text fill="#000000" font-family="sans-serif" font-size="11" font-style="italic" lengthAdjust="spacing" textLength="121" x="2217" y="744.0059">unsetCallbacks() : void</text><polygon fill="#FFFF44" points="2208,748.3262,2212,752.3262,2208,756.3262,2204,752.3262" style="stroke:#B38D22;stroke-width:1.0;"/><text fill="#000000" font-family="sans-serif" font-size="11" font-style="italic" lengthAdjust="spacing" textLength="143" x="2217" y="756.9609">unsetHtmlElements() : void</text><!--MD5=[ecfbb9500fb9417e7b72d96778e24491]
reverse link IPattern to IChild--><path codeLine="31" d="M1303.5,179.24 C1303.5,192.28 1303.5,205.71 1303.5,218.84 " fill="none" id="IPattern-backto-IChild" style="stroke:#272B30;stroke-width:1.0;"/><polygon fill="none" points="1296.5,179.16,1303.5,159.16,1310.5,179.16,1296.5,179.16" style="stroke:#272B30;stroke-width:1.0;"/><!--MD5=[64a71a36fdfcc7a2d7d88189535ef25d]
reverse link IChild to IAccordionItem--><path codeLine="52" d="M1081.71,335.95 C900.04,353.87 639.35,393.74 427.5,482 C418.2,485.88 408.9,490.19 399.66,494.85 " fill="none" id="IChild-backto-IAccordionItem" style="stroke:#272B30;stroke-width:1.0;"/><polygon fill="none" points="1081.22,328.96,1101.8,334.03,1082.56,342.9,1081.22,328.96" style="stroke:#272B30;stroke-width:1.0;"/><!--MD5=[8e1f2958cd265b6879766de318a2259e]
reverse link IChild to IDropdownServerSideItem--><path codeLine="69" d="M1082.95,389.86 C1011.87,415.15 933.84,446.44 865.5,482 C843.41,493.49 820.94,506.88 799.23,520.87 " fill="none" id="IChild-backto-IDropdownServerSideItem" style="stroke:#272B30;stroke-width:1.0;"/><polygon fill="none" points="1080.64,383.25,1101.83,383.23,1085.28,396.46,1080.64,383.25" style="stroke:#272B30;stroke-width:1.0;"/><!--MD5=[718758aa451c991bd672bdedb0d47729]
reverse link IChild to ISectionIndexItem--><path codeLine="86" d="M1221.46,438.75 C1202.65,465.63 1182.69,494.17 1163.99,520.89 " fill="none" id="IChild-backto-ISectionIndexItem" style="stroke:#272B30;stroke-width:1.0;"/><polygon fill="none" points="1215.8,434.63,1233,422.26,1227.27,442.66,1215.8,434.63" style="stroke:#272B30;stroke-width:1.0;"/><!--MD5=[a9da2c733e4cb662695ac536f708bfde]
reverse link IChild to ITabsContentItem--><path codeLine="109" d="M1385.75,439.05 C1395.52,453.02 1405.61,467.43 1415.66,481.8 " fill="none" id="IChild-backto-ITabsContentItem" style="stroke:#272B30;stroke-width:1.0;"/><polygon fill="none" points="1379.73,442.66,1374,422.26,1391.2,434.63,1379.73,442.66" style="stroke:#272B30;stroke-width:1.0;"/><!--MD5=[a28bd913ce8bd94e233e0c4be5f3ce50]
reverse link IChild to ITabsHeaderItem--><path codeLine="132" d="M1524.05,389.86 C1595.13,415.15 1673.16,446.44 1741.5,482 C1747.25,484.99 1753.03,488.12 1758.82,491.34 " fill="none" id="IChild-backto-ITabsHeaderItem" style="stroke:#272B30;stroke-width:1.0;"/><polygon fill="none" points="1521.72,396.46,1505.17,383.23,1526.36,383.25,1521.72,396.46" style="stroke:#272B30;stroke-width:1.0;"/><!--MD5=[268720870e28b2612bd6a25759910165]
reverse link IChild to AbstractChild<C, PT>--><path codeLine="151" d="M1524.98,342.77 C1705.08,364.61 1963.78,406.42 2179.5,482 C2200.76,489.45 2222.35,498.32 2243.65,507.99 " fill="none" id="IChild-backto-AbstractChild&lt;C, PT&gt;" style="stroke:#272B30;stroke-width:1.0;stroke-dasharray:7.0,7.0;"/><polygon fill="none" points="1524.1,349.71,1505.06,340.4,1525.75,335.81,1524.1,349.71" style="stroke:#272B30;stroke-width:1.0;"/><!--MD5=[d66bdb9f496925b39951def62473cb24]
@startuml
skinparam ClassArrowColor #272b30
skinparam ClassBorderColor #272b30
skinparam ClassBackgroundColor #fff
skinparam BackgroundColor #ced4da
hide empty methods
hide empty fields
interface "IChild" {
    +isBuilt : boolean
    +selfElement : HTMLElement
    +uniqueId : string
    +widgetId : string
    +build() : void
    +changeProperty(propertyName: string, propertyValue: unknown) : void
    +dispose() : void
    +equalsToID(id: string) : boolean
    +setBlur() : void
    +setFocus() : void
    +setTabindex() : void
    +unsetTabindex() : void
}
interface "IPattern" {
    +isBuilt : boolean
    +selfElement : HTMLElement
    +uniqueId : string
    +widgetId : string
    +build() : void
    +changeProperty(propertyName: string, propertyValue: unknown) : void
    +dispose() : void
    +equalsToID(id: string) : boolean
}
"IPattern" <|- - "IChild"
interface "IAccordionItem" {
    +isBuilt : boolean
    +isDisabled : boolean
    +isOpen : boolean
    +selfElement : HTMLElement
    +uniqueId : string
    +widgetId : string
    +allowTitleEvents() : any
    +build() : void
    +changeProperty(propertyName: string, propertyValue: unknown) : void
    +close() : void
    +dispose() : void
    +equalsToID(id: string) : boolean
    +open() : void
    +registerCallback(callback: OSGeneric) : void
    +setBlur() : void
    +setFocus() : void
    +setTabindex() : void
    +unsetTabindex() : void
}
"IChild" <|- - "IAccordionItem"
interface "IDropdownServerSideItem" {
    +isBuilt : boolean
    +keyboardTriggeredKey : string
    +selfElement : HTMLElement
    +uniqueId : string
    +widgetId : string
    +build() : void
    +changeProperty(propertyName: string, propertyValue: unknown) : void
    +dispose() : void
    +equalsToID(id: string) : boolean
    +setBlur() : void
    +setFocus() : void
    +setTabindex() : void
    +toggleSelected(triggerCallback: boolean) : void
    +unsetTabindex() : void
}
"IChild" <|- - "IDropdownServerSideItem"
interface "ISectionIndexItem" {
    +isBuilt : boolean
    +selfElement : HTMLElement
    +uniqueId : string
    +widgetId : string
    +build() : void
    +changeProperty(propertyName: string, propertyValue: unknown) : void
    +dispose() : void
    +equalsToID(id: string) : boolean
    +setBlur() : void
    +setFocus() : void
    +setIsActive() : void
    +setTabindex() : void
    +unsetIsActive() : void
    +unsetTabindex() : void
}
"IChild" <|- - "ISectionIndexItem"
interface "ITabsContentItem" {
    +isBuilt : boolean
    +selfElement : HTMLElement
    +uniqueId : string
    +widgetId : string
    +build() : void
    +changeProperty(propertyName: string, propertyValue: unknown) : void
    +dispose() : void
    +equalsToID(id: string) : boolean
    +getDataTab() : number
    +getOffsetLeft() : number
    +setAriaLabelledByAttribute(headerItemId: string) : void
    +setBlur() : void
    +setDataTab(dataTab: number) : void
    +setFocus() : void
    +setIsActive() : void
    +setOnDragObserver(observer: IntersectionObserver) : void
    +setTabindex() : void
    +unobserveDragObserver(observer: IntersectionObserver) : void
    +unsetIsActive() : void
    +unsetTabindex() : void
}
"IChild" <|- - "ITabsContentItem"
interface "ITabsHeaderItem" {
    +isBuilt : boolean
    +selfElement : HTMLElement
    +uniqueId : string
    +widgetId : string
    +build() : void
    +changeProperty(propertyName: string, propertyValue: unknown) : void
    +disable() : void
    +dispose() : void
    +enable() : void
    +equalsToID(id: string) : boolean
    +getDataTab() : number
    +setAriaControlsAttribute(contentItemId: string) : void
    +setBlur() : void
    +setDataTab(dataTab: number) : void
    +setFocus() : void
    +setIsActive() : void
    +setTabindex() : void
    +unsetIsActive() : void
    +unsetTabindex() : void
    +updateOnRender() : void
}
"IChild" <|- - "ITabsHeaderItem"
abstract class "AbstractChild<C, PT>" {
    -_isFirstChild : boolean
    -_isLastChild : boolean
    -_parentId : string
    -_parentObject : PT
    +build() : void
    +changeProperty(propertyName: string, propertyValue: unknown) : void
    +dispose() : void
    +equalsToID(patternId: string) : boolean
    #finishBuild() : void
    #notifyParent(actionType: string) : void
    {abstract} #setA11YProperties() : void
    {abstract} #setCallbacks() : void
    {abstract} #setHtmlElements() : void
    #setParentInfo(parentSelector: string, getPatternByIdAPI: Function, canBeOrphan: boolean) : void
    {abstract} #unsetCallbacks() : void
    {abstract} #unsetHtmlElements() : void
}
"IChild" <|.. "AbstractChild<C, PT>"
@enduml

PlantUML version 1.2021.14(Fri Nov 12 16:46:50 WET 2021)
(GPL source distribution)
Java Runtime: Java(TM) SE Runtime Environment
JVM: Java HotSpot(TM) 64-Bit Server VM
Default Encoding: UTF-8
Language: en
Country: PT
--></g></svg>