<?xml version="1.0" encoding="us-ascii" standalone="no"?><svg xmlns="http://www.w3.org/2000/svg" xmlns:xlink="http://www.w3.org/1999/xlink" contentStyleType="text/css" height="1272px" preserveAspectRatio="none" style="width:1876px;height:1272px;background:#CED4DA;" version="1.1" viewBox="0 0 1876 1272" width="1876px" zoomAndPan="magnify"><defs/><g><rect fill="#CED4DA" height="1272" style="stroke:none;stroke-width:1.0;" width="1876" x="0" y="0"/><!--class IDragEvent--><g id="elem_IDragEvent"><rect codeLine="7" fill="#FFFFFF" height="113.1875" id="IDragEvent" rx="2.5" ry="2.5" style="stroke:#272B30;stroke-width:0.5;" width="823" x="485" y="148"/><ellipse cx="853.75" cy="164" fill="#B4A7E5" rx="11" ry="11" style="stroke:#181818;stroke-width:1.0;"/><path d="M849.6719,159.7656 L849.6719,157.6094 L857.0625,157.6094 L857.0625,159.7656 L854.5938,159.7656 L854.5938,167.8438 L857.0625,167.8438 L857.0625,170 L849.6719,170 L849.6719,167.8438 L852.1406,167.8438 L852.1406,159.7656 L849.6719,159.7656 Z " fill="#000000"/><text fill="#000000" font-family="sans-serif" font-size="14" font-style="italic" lengthAdjust="spacing" textLength="77" x="874.25" y="168.8467">IDragEvent</text><line style="stroke:#272B30;stroke-width:0.5;" x1="486" x2="1307" y1="180" y2="180"/><ellipse cx="496" cy="193.6484" fill="none" rx="3" ry="3" style="stroke:#038048;stroke-width:1.0;"/><text fill="#000000" font-family="sans-serif" font-size="14" lengthAdjust="spacing" textLength="237" x="505" y="196.9951">gestureEventInstance : DragEvent</text><ellipse cx="496" cy="209.9453" fill="none" rx="3" ry="3" style="stroke:#038048;stroke-width:1.0;"/><text fill="#000000" font-family="sans-serif" font-size="14" lengthAdjust="spacing" textLength="197" x="505" y="213.292">hasGestureEvents : boolean</text><line style="stroke:#272B30;stroke-width:0.5;" x1="486" x2="1307" y1="220.5938" y2="220.5938"/><ellipse cx="496" cy="234.2422" fill="#84BE84" rx="3" ry="3" style="stroke:#038048;stroke-width:1.0;"/><text fill="#000000" font-family="sans-serif" font-size="14" lengthAdjust="spacing" textLength="206" x="505" y="237.5889">removeGestureEvents() : void</text><ellipse cx="496" cy="250.5391" fill="#84BE84" rx="3" ry="3" style="stroke:#038048;stroke-width:1.0;"/><text fill="#000000" font-family="sans-serif" font-size="14" lengthAdjust="spacing" textLength="797" x="505" y="253.8857">setGestureEvents(onGestureStart: GestureStart, onGestureMove: GestureMove, onGestureEnd: GestureEnd) : any</text></g><!--class IGestureEvent--><g id="elem_IGestureEvent"><rect codeLine="13" fill="#FFFFFF" height="80.5938" id="IGestureEvent" rx="2.5" ry="2.5" style="stroke:#272B30;stroke-width:0.5;" width="232" x="780.5" y="7"/><ellipse cx="842.75" cy="23" fill="#B4A7E5" rx="11" ry="11" style="stroke:#181818;stroke-width:1.0;"/><path d="M838.6719,18.7656 L838.6719,16.6094 L846.0625,16.6094 L846.0625,18.7656 L843.5938,18.7656 L843.5938,26.8438 L846.0625,26.8438 L846.0625,29 L838.6719,29 L838.6719,26.8438 L841.1406,26.8438 L841.1406,18.7656 L838.6719,18.7656 Z " fill="#000000"/><text fill="#000000" font-family="sans-serif" font-size="14" font-style="italic" lengthAdjust="spacing" textLength="99" x="863.25" y="27.8467">IGestureEvent</text><line style="stroke:#272B30;stroke-width:0.5;" x1="781.5" x2="1011.5" y1="39" y2="39"/><ellipse cx="791.5" cy="52.6484" fill="none" rx="3" ry="3" style="stroke:#038048;stroke-width:1.0;"/><text fill="#000000" font-family="sans-serif" font-size="14" lengthAdjust="spacing" textLength="197" x="800.5" y="55.9951">hasGestureEvents : boolean</text><line style="stroke:#272B30;stroke-width:0.5;" x1="781.5" x2="1011.5" y1="63.2969" y2="63.2969"/><ellipse cx="791.5" cy="76.9453" fill="#84BE84" rx="3" ry="3" style="stroke:#038048;stroke-width:1.0;"/><text fill="#000000" font-family="sans-serif" font-size="14" lengthAdjust="spacing" textLength="206" x="800.5" y="80.292">removeGestureEvents() : void</text></g><!--class BottomSheet--><g id="elem_BottomSheet"><rect codeLine="18" fill="#FFFFFF" height="813.9531" id="BottomSheet" rx="2.5" ry="2.5" style="stroke:#272B30;stroke-width:0.5;" width="827" x="9" y="386"/><ellipse cx="372.25" cy="402" fill="#ADD1B2" rx="11" ry="11" style="stroke:#181818;stroke-width:1.0;"/><path d="M375.2188,407.6406 Q374.6406,407.9375 374,408.0781 Q373.3594,408.2344 372.6563,408.2344 Q370.1563,408.2344 368.8281,406.5938 Q367.5156,404.9375 367.5156,401.8125 Q367.5156,398.6875 368.8281,397.0313 Q370.1563,395.375 372.6563,395.375 Q373.3594,395.375 374,395.5313 Q374.6563,395.6875 375.2188,395.9844 L375.2188,398.7031 Q374.5938,398.125 374,397.8594 Q373.4063,397.5781 372.7813,397.5781 Q371.4375,397.5781 370.75,398.6563 Q370.0625,399.7188 370.0625,401.8125 Q370.0625,403.9063 370.75,404.9844 Q371.4375,406.0469 372.7813,406.0469 Q373.4063,406.0469 374,405.7813 Q374.5938,405.5 375.2188,404.9219 L375.2188,407.6406 Z " fill="#000000"/><text fill="#000000" font-family="sans-serif" font-size="14" lengthAdjust="spacing" textLength="92" x="392.75" y="406.8467">BottomSheet</text><line style="stroke:#272B30;stroke-width:0.5;" x1="10" x2="835" y1="418" y2="418"/><ellipse cx="20" cy="431.6484" fill="none" rx="3" ry="3" style="stroke:#038048;stroke-width:1.0;"/><text fill="#000000" font-family="sans-serif" font-size="14" lengthAdjust="spacing" textLength="221" x="29" y="434.9951">springAnimationConfigs : Object</text><polygon fill="none" points="20,442.9453,24,446.9453,20,450.9453,16,446.9453" style="stroke:#B38D22;stroke-width:1.0;"/><text fill="#000000" font-family="sans-serif" font-size="14" lengthAdjust="spacing" textLength="180" x="29" y="451.292">isProviderBased : boolean</text><rect fill="none" height="6" style="stroke:#C82930;stroke-width:1.0;" width="6" x="17" y="461.2422"/><text fill="#000000" font-family="sans-serif" font-size="14" lengthAdjust="spacing" textLength="296" x="29" y="467.5889">_animateOnDragInstance : AnimateOnDrag</text><rect fill="none" height="6" style="stroke:#C82930;stroke-width:1.0;" width="6" x="17" y="477.5391"/><text fill="#000000" font-family="sans-serif" font-size="14" lengthAdjust="spacing" textLength="296" x="29" y="483.8857">_bottomSheetContentElem : HTMLElement</text><rect fill="none" height="6" style="stroke:#C82930;stroke-width:1.0;" width="6" x="17" y="493.8359"/><text fill="#000000" font-family="sans-serif" font-size="14" lengthAdjust="spacing" textLength="290" x="29" y="500.1826">_bottomSheetHeaderElem : HTMLElement</text><rect fill="none" height="6" style="stroke:#C82930;stroke-width:1.0;" width="6" x="17" y="510.1328"/><text fill="#000000" font-family="sans-serif" font-size="14" lengthAdjust="spacing" textLength="226" x="29" y="516.4795">_eventOnContentScroll : Generic</text><rect fill="none" height="6" style="stroke:#C82930;stroke-width:1.0;" width="6" x="17" y="526.4297"/><text fill="#000000" font-family="sans-serif" font-size="14" lengthAdjust="spacing" textLength="197" x="29" y="532.7764">_eventOnKeypress : Generic</text><rect fill="none" height="6" style="stroke:#C82930;stroke-width:1.0;" width="6" x="17" y="542.7266"/><text fill="#000000" font-family="sans-serif" font-size="14" lengthAdjust="spacing" textLength="279" x="29" y="549.0732">_focusManagerInstance : FocusManager</text><rect fill="none" height="6" style="stroke:#C82930;stroke-width:1.0;" width="6" x="17" y="559.0234"/><text fill="#000000" font-family="sans-serif" font-size="14" lengthAdjust="spacing" textLength="221" x="29" y="565.3701">_focusTrapInstance : FocusTrap</text><rect fill="none" height="6" style="stroke:#C82930;stroke-width:1.0;" width="6" x="17" y="575.3203"/><text fill="#000000" font-family="sans-serif" font-size="14" lengthAdjust="spacing" textLength="244" x="29" y="581.667">_gestureEventInstance : DragEvent</text><rect fill="none" height="6" style="stroke:#C82930;stroke-width:1.0;" width="6" x="17" y="591.6172"/><text fill="#000000" font-family="sans-serif" font-size="14" lengthAdjust="spacing" textLength="204" x="29" y="597.9639">_hasGestureEvents : boolean</text><rect fill="none" height="6" style="stroke:#C82930;stroke-width:1.0;" width="6" x="17" y="607.9141"/><text fill="#000000" font-family="sans-serif" font-size="14" lengthAdjust="spacing" textLength="125" x="29" y="614.2607">_isOpen : boolean</text><rect fill="none" height="6" style="stroke:#C82930;stroke-width:1.0;" width="6" x="17" y="624.2109"/><text fill="#000000" font-family="sans-serif" font-size="14" lengthAdjust="spacing" textLength="185" x="29" y="630.5576">_parentSelf : HTMLElement</text><rect fill="none" height="6" style="stroke:#C82930;stroke-width:1.0;" width="6" x="17" y="640.5078"/><text fill="#000000" font-family="sans-serif" font-size="14" lengthAdjust="spacing" textLength="310" x="29" y="646.8545">_platformEventOnToggle : OSOnToggleEvent</text><line style="stroke:#272B30;stroke-width:0.5;" x1="10" x2="835" y1="654.1563" y2="654.1563"/><ellipse cx="20" cy="667.8047" fill="#84BE84" rx="3" ry="3" style="stroke:#038048;stroke-width:1.0;"/><text fill="#000000" font-family="sans-serif" font-size="14" lengthAdjust="spacing" textLength="84" x="29" y="671.1514">build() : void</text><ellipse cx="20" cy="684.1016" fill="#84BE84" rx="3" ry="3" style="stroke:#038048;stroke-width:1.0;"/><text fill="#000000" font-family="sans-serif" font-size="14" lengthAdjust="spacing" textLength="484" x="29" y="687.4482">changeProperty(propertyName: string, propertyValue: unknown) : void</text><ellipse cx="20" cy="700.3984" fill="#84BE84" rx="3" ry="3" style="stroke:#038048;stroke-width:1.0;"/><text fill="#000000" font-family="sans-serif" font-size="14" lengthAdjust="spacing" textLength="88" x="29" y="703.7451">close() : void</text><ellipse cx="20" cy="716.6953" fill="#84BE84" rx="3" ry="3" style="stroke:#038048;stroke-width:1.0;"/><text fill="#000000" font-family="sans-serif" font-size="14" lengthAdjust="spacing" textLength="106" x="29" y="720.042">dispose() : void</text><ellipse cx="20" cy="732.9922" fill="#84BE84" rx="3" ry="3" style="stroke:#038048;stroke-width:1.0;"/><text fill="#000000" font-family="sans-serif" font-size="14" lengthAdjust="spacing" textLength="267" x="29" y="736.3389">equalsToID(patternId: string) : boolean</text><ellipse cx="20" cy="749.2891" fill="#84BE84" rx="3" ry="3" style="stroke:#038048;stroke-width:1.0;"/><text fill="#000000" font-family="sans-serif" font-size="14" lengthAdjust="spacing" textLength="87" x="29" y="752.6357">open() : void</text><ellipse cx="20" cy="765.5859" fill="#84BE84" rx="3" ry="3" style="stroke:#038048;stroke-width:1.0;"/><text fill="#000000" font-family="sans-serif" font-size="14" lengthAdjust="spacing" textLength="434" x="29" y="768.9326">registerCallback(eventName: string, callback: OSGeneric) : void</text><ellipse cx="20" cy="781.8828" fill="#84BE84" rx="3" ry="3" style="stroke:#038048;stroke-width:1.0;"/><text fill="#000000" font-family="sans-serif" font-size="14" lengthAdjust="spacing" textLength="206" x="29" y="785.2295">removeGestureEvents() : void</text><polygon fill="#FFFF44" points="20,793.1797,24,797.1797,20,801.1797,16,797.1797" style="stroke:#B38D22;stroke-width:1.0;"/><text fill="#000000" font-family="sans-serif" font-size="14" lengthAdjust="spacing" textLength="121" x="29" y="801.5264">finishBuild() : void</text><polygon fill="#FFFF44" points="20,809.4766,24,813.4766,20,817.4766,16,813.4766" style="stroke:#B38D22;stroke-width:1.0;"/><text fill="#000000" font-family="sans-serif" font-size="14" lengthAdjust="spacing" textLength="205" x="29" y="817.8232">removeEventListeners() : void</text><polygon fill="#FFFF44" points="20,825.7734,24,829.7734,20,833.7734,16,829.7734" style="stroke:#B38D22;stroke-width:1.0;"/><text fill="#000000" font-family="sans-serif" font-size="14" lengthAdjust="spacing" textLength="180" x="29" y="834.1201">setA11YProperties() : void</text><polygon fill="#FFFF44" points="20,842.0703,24,846.0703,20,850.0703,16,846.0703" style="stroke:#B38D22;stroke-width:1.0;"/><text fill="#000000" font-family="sans-serif" font-size="14" lengthAdjust="spacing" textLength="138" x="29" y="850.417">setCallbacks() : void</text><polygon fill="#FFFF44" points="20,858.3672,24,862.3672,20,866.3672,16,862.3672" style="stroke:#B38D22;stroke-width:1.0;"/><text fill="#000000" font-family="sans-serif" font-size="14" lengthAdjust="spacing" textLength="175" x="29" y="866.7139">setEventListeners() : void</text><polygon fill="#FFFF44" points="20,874.6641,24,878.6641,20,882.6641,16,878.6641" style="stroke:#B38D22;stroke-width:1.0;"/><text fill="#000000" font-family="sans-serif" font-size="14" lengthAdjust="spacing" textLength="801" x="29" y="883.0107">setGestureEvents(onGestureStart: GestureStart, onGestureMove: GestureMove, onGestureEnd: GestureEnd) : void</text><polygon fill="#FFFF44" points="20,890.9609,24,894.9609,20,898.9609,16,894.9609" style="stroke:#B38D22;stroke-width:1.0;"/><text fill="#000000" font-family="sans-serif" font-size="14" lengthAdjust="spacing" textLength="169" x="29" y="899.3076">setHtmlElements() : void</text><polygon fill="#FFFF44" points="20,907.2578,24,911.2578,20,915.2578,16,911.2578" style="stroke:#B38D22;stroke-width:1.0;"/><text fill="#000000" font-family="sans-serif" font-size="14" lengthAdjust="spacing" textLength="161" x="29" y="915.6045">setInitialOptions() : void</text><polygon fill="#FFFF44" points="20,923.5547,24,927.5547,20,931.5547,16,927.5547" style="stroke:#B38D22;stroke-width:1.0;"/><text fill="#000000" font-family="sans-serif" font-size="14" lengthAdjust="spacing" textLength="569" x="29" y="931.9014">triggerPlatformEventCallback(platFormCallback: OSGeneric, args: unknown[]) : void</text><polygon fill="#FFFF44" points="20,939.8516,24,943.8516,20,947.8516,16,943.8516" style="stroke:#B38D22;stroke-width:1.0;"/><text fill="#000000" font-family="sans-serif" font-size="14" lengthAdjust="spacing" textLength="311" x="29" y="948.1982">triggerPlatformInitializedEventCallback() : void</text><polygon fill="#FFFF44" points="20,956.1484,24,960.1484,20,964.1484,16,960.1484" style="stroke:#B38D22;stroke-width:1.0;"/><text fill="#000000" font-family="sans-serif" font-size="14" lengthAdjust="spacing" textLength="156" x="29" y="964.4951">unsetCallbacks() : void</text><polygon fill="#FFFF44" points="20,972.4453,24,976.4453,20,980.4453,16,976.4453" style="stroke:#B38D22;stroke-width:1.0;"/><text fill="#000000" font-family="sans-serif" font-size="14" lengthAdjust="spacing" textLength="199" x="29" y="980.792">unsetGlobalCallbacks() : void</text><polygon fill="#FFFF44" points="20,988.7422,24,992.7422,20,996.7422,16,992.7422" style="stroke:#B38D22;stroke-width:1.0;"/><text fill="#000000" font-family="sans-serif" font-size="14" lengthAdjust="spacing" textLength="187" x="29" y="997.0889">unsetHtmlElements() : void</text><rect fill="#F24D5C" height="6" style="stroke:#C82930;stroke-width:1.0;" width="6" x="17" y="1007.0391"/><text fill="#000000" font-family="sans-serif" font-size="14" lengthAdjust="spacing" textLength="207" x="29" y="1013.3857">_handleFocusBehavior() : void</text><rect fill="#F24D5C" height="6" style="stroke:#C82930;stroke-width:1.0;" width="6" x="17" y="1023.3359"/><text fill="#000000" font-family="sans-serif" font-size="14" lengthAdjust="spacing" textLength="208" x="29" y="1029.6826">_handleGestureEvents() : void</text><rect fill="#F24D5C" height="6" style="stroke:#C82930;stroke-width:1.0;" width="6" x="17" y="1039.6328"/><text fill="#000000" font-family="sans-serif" font-size="14" lengthAdjust="spacing" textLength="287" x="29" y="1045.9795">_handleShape(shape: ShapeTypes) : void</text><rect fill="#F24D5C" height="6" style="stroke:#C82930;stroke-width:1.0;" width="6" x="17" y="1055.9297"/><text fill="#000000" font-family="sans-serif" font-size="14" lengthAdjust="spacing" textLength="226" x="29" y="1062.2764">_onContentScrollCallback() : void</text><rect fill="#F24D5C" height="6" style="stroke:#C82930;stroke-width:1.0;" width="6" x="17" y="1072.2266"/><text fill="#000000" font-family="sans-serif" font-size="14" lengthAdjust="spacing" textLength="533" x="29" y="1078.5732">_onGestureEnd(offsetX: number, offsetY: number, timeTaken: number) : void</text><rect fill="#F24D5C" height="6" style="stroke:#C82930;stroke-width:1.0;" width="6" x="17" y="1088.5234"/><text fill="#000000" font-family="sans-serif" font-size="14" lengthAdjust="spacing" textLength="676" x="29" y="1094.8701">_onGestureMove(x: number, y: number, offsetX: number, offsetY: number, evt: TouchEvent) : void</text><rect fill="#F24D5C" height="6" style="stroke:#C82930;stroke-width:1.0;" width="6" x="17" y="1104.8203"/><text fill="#000000" font-family="sans-serif" font-size="14" lengthAdjust="spacing" textLength="312" x="29" y="1111.167">_onGestureStart(x: number, y: number) : void</text><rect fill="#F24D5C" height="6" style="stroke:#C82930;stroke-width:1.0;" width="6" x="17" y="1121.1172"/><text fill="#000000" font-family="sans-serif" font-size="14" lengthAdjust="spacing" textLength="318" x="29" y="1127.4639">_onkeypressCallback(e: KeyboardEvent) : void</text><rect fill="#F24D5C" height="6" style="stroke:#C82930;stroke-width:1.0;" width="6" x="17" y="1137.4141"/><text fill="#000000" font-family="sans-serif" font-size="14" lengthAdjust="spacing" textLength="195" x="29" y="1143.7607">_removeHtmlClasses() : void</text><rect fill="#F24D5C" height="6" style="stroke:#C82930;stroke-width:1.0;" width="6" x="17" y="1153.7109"/><text fill="#000000" font-family="sans-serif" font-size="14" lengthAdjust="spacing" textLength="308" x="29" y="1160.0576">_toggleBottomSheet(isOpen: boolean) : void</text><rect fill="#F24D5C" height="6" style="stroke:#C82930;stroke-width:1.0;" width="6" x="17" y="1170.0078"/><text fill="#000000" font-family="sans-serif" font-size="14" lengthAdjust="spacing" textLength="311" x="29" y="1176.3545">_toggleHandler(ShowHandler: boolean) : void</text><rect fill="#F24D5C" height="6" style="stroke:#C82930;stroke-width:1.0;" width="6" x="17" y="1186.3047"/><text fill="#000000" font-family="sans-serif" font-size="14" lengthAdjust="spacing" textLength="210" x="29" y="1192.6514">_triggerOnToggleEvent() : void</text></g><!--class Sidebar--><g id="elem_Sidebar"><rect codeLine="68" fill="#FFFFFF" height="944.3281" id="Sidebar" rx="2.5" ry="2.5" style="stroke:#272B30;stroke-width:0.5;" width="998" x="871.5" y="321"/><ellipse cx="1340.25" cy="337" fill="#ADD1B2" rx="11" ry="11" style="stroke:#181818;stroke-width:1.0;"/><path d="M1343.2188,342.6406 Q1342.6406,342.9375 1342,343.0781 Q1341.3594,343.2344 1340.6563,343.2344 Q1338.1563,343.2344 1336.8281,341.5938 Q1335.5156,339.9375 1335.5156,336.8125 Q1335.5156,333.6875 1336.8281,332.0313 Q1338.1563,330.375 1340.6563,330.375 Q1341.3594,330.375 1342,330.5313 Q1342.6563,330.6875 1343.2188,330.9844 L1343.2188,333.7031 Q1342.5938,333.125 1342,332.8594 Q1341.4063,332.5781 1340.7813,332.5781 Q1339.4375,332.5781 1338.75,333.6563 Q1338.0625,334.7188 1338.0625,336.8125 Q1338.0625,338.9063 1338.75,339.9844 Q1339.4375,341.0469 1340.7813,341.0469 Q1341.4063,341.0469 1342,340.7813 Q1342.5938,340.5 1343.2188,339.9219 L1343.2188,342.6406 Z " fill="#000000"/><text fill="#000000" font-family="sans-serif" font-size="14" lengthAdjust="spacing" textLength="52" x="1360.75" y="341.8467">Sidebar</text><line style="stroke:#272B30;stroke-width:0.5;" x1="872.5" x2="1868.5" y1="353" y2="353"/><polygon fill="none" points="882.5,361.6484,886.5,365.6484,882.5,369.6484,878.5,365.6484" style="stroke:#B38D22;stroke-width:1.0;"/><text fill="#000000" font-family="sans-serif" font-size="14" lengthAdjust="spacing" textLength="180" x="891.5" y="369.9951">isProviderBased : boolean</text><rect fill="none" height="6" style="stroke:#C82930;stroke-width:1.0;" width="6" x="879.5" y="379.9453"/><text fill="#000000" font-family="sans-serif" font-size="14" lengthAdjust="spacing" textLength="296" x="891.5" y="386.292">_animateOnDragInstance : AnimateOnDrag</text><rect fill="none" height="6" style="stroke:#C82930;stroke-width:1.0;" width="6" x="879.5" y="396.2422"/><text fill="#000000" font-family="sans-serif" font-size="14" lengthAdjust="spacing" textLength="235" x="891.5" y="402.5889">_clickedOutsideElement : boolean</text><rect fill="none" height="6" style="stroke:#C82930;stroke-width:1.0;" width="6" x="879.5" y="412.5391"/><text fill="#000000" font-family="sans-serif" font-size="14" lengthAdjust="spacing" textLength="217" x="891.5" y="418.8857">_clickOutsideToClose : boolean</text><rect fill="none" height="6" style="stroke:#C82930;stroke-width:1.0;" width="6" x="879.5" y="428.8359"/><text fill="#000000" font-family="sans-serif" font-size="14" lengthAdjust="spacing" textLength="169" x="891.5" y="435.1826">_content : HTMLElement</text><rect fill="none" height="6" style="stroke:#C82930;stroke-width:1.0;" width="6" x="879.5" y="445.1328"/><text fill="#000000" font-family="sans-serif" font-size="14" lengthAdjust="spacing" textLength="234" x="891.5" y="451.4795">_currentDirectionCssClass : string</text><rect fill="none" height="6" style="stroke:#C82930;stroke-width:1.0;" width="6" x="879.5" y="461.4297"/><text fill="#000000" font-family="sans-serif" font-size="14" lengthAdjust="spacing" textLength="195" x="891.5" y="467.7764">_eventOverlayClick : Generic</text><rect fill="none" height="6" style="stroke:#C82930;stroke-width:1.0;" width="6" x="879.5" y="477.7266"/><text fill="#000000" font-family="sans-serif" font-size="14" lengthAdjust="spacing" textLength="250" x="891.5" y="484.0732">_eventOverlayMouseDown : Generic</text><rect fill="none" height="6" style="stroke:#C82930;stroke-width:1.0;" width="6" x="879.5" y="494.0234"/><text fill="#000000" font-family="sans-serif" font-size="14" lengthAdjust="spacing" textLength="229" x="891.5" y="500.3701">_eventSidebarKeypress : Generic</text><rect fill="none" height="6" style="stroke:#C82930;stroke-width:1.0;" width="6" x="879.5" y="510.3203"/><text fill="#000000" font-family="sans-serif" font-size="14" lengthAdjust="spacing" textLength="279" x="891.5" y="516.667">_focusManagerInstance : FocusManager</text><rect fill="none" height="6" style="stroke:#C82930;stroke-width:1.0;" width="6" x="879.5" y="526.6172"/><text fill="#000000" font-family="sans-serif" font-size="14" lengthAdjust="spacing" textLength="221" x="891.5" y="532.9639">_focusTrapInstance : FocusTrap</text><rect fill="none" height="6" style="stroke:#C82930;stroke-width:1.0;" width="6" x="879.5" y="542.9141"/><text fill="#000000" font-family="sans-serif" font-size="14" lengthAdjust="spacing" textLength="244" x="891.5" y="549.2607">_gestureEventInstance : DragEvent</text><rect fill="none" height="6" style="stroke:#C82930;stroke-width:1.0;" width="6" x="879.5" y="559.2109"/><text fill="#000000" font-family="sans-serif" font-size="14" lengthAdjust="spacing" textLength="204" x="891.5" y="565.5576">_hasGestureEvents : boolean</text><rect fill="none" height="6" style="stroke:#C82930;stroke-width:1.0;" width="6" x="879.5" y="575.5078"/><text fill="#000000" font-family="sans-serif" font-size="14" lengthAdjust="spacing" textLength="164" x="891.5" y="581.8545">_header : HTMLElement</text><rect fill="none" height="6" style="stroke:#C82930;stroke-width:1.0;" width="6" x="879.5" y="591.8047"/><text fill="#000000" font-family="sans-serif" font-size="14" lengthAdjust="spacing" textLength="125" x="891.5" y="598.1514">_isOpen : boolean</text><rect fill="none" height="6" style="stroke:#C82930;stroke-width:1.0;" width="6" x="879.5" y="608.1016"/><text fill="#000000" font-family="sans-serif" font-size="14" lengthAdjust="spacing" textLength="185" x="891.5" y="614.4482">_parentSelf : HTMLElement</text><rect fill="none" height="6" style="stroke:#C82930;stroke-width:1.0;" width="6" x="879.5" y="624.3984"/><text fill="#000000" font-family="sans-serif" font-size="14" lengthAdjust="spacing" textLength="310" x="891.5" y="630.7451">_platformEventOnToggle : OSOnToggleEvent</text><line style="stroke:#272B30;stroke-width:0.5;" x1="872.5" x2="1868.5" y1="638.0469" y2="638.0469"/><ellipse cx="882.5" cy="651.6953" fill="#84BE84" rx="3" ry="3" style="stroke:#038048;stroke-width:1.0;"/><text fill="#000000" font-family="sans-serif" font-size="14" lengthAdjust="spacing" textLength="84" x="891.5" y="655.042">build() : void</text><ellipse cx="882.5" cy="667.9922" fill="#84BE84" rx="3" ry="3" style="stroke:#038048;stroke-width:1.0;"/><text fill="#000000" font-family="sans-serif" font-size="14" lengthAdjust="spacing" textLength="484" x="891.5" y="671.3389">changeProperty(propertyName: string, propertyValue: unknown) : void</text><ellipse cx="882.5" cy="684.2891" fill="#84BE84" rx="3" ry="3" style="stroke:#038048;stroke-width:1.0;"/><text fill="#000000" font-family="sans-serif" font-size="14" lengthAdjust="spacing" textLength="401" x="891.5" y="687.6357">clickOutsideToClose(closeOnOutSideClick: boolean) : void</text><ellipse cx="882.5" cy="700.5859" fill="#84BE84" rx="3" ry="3" style="stroke:#038048;stroke-width:1.0;"/><text fill="#000000" font-family="sans-serif" font-size="14" lengthAdjust="spacing" textLength="88" x="891.5" y="703.9326">close() : void</text><ellipse cx="882.5" cy="716.8828" fill="#84BE84" rx="3" ry="3" style="stroke:#038048;stroke-width:1.0;"/><text fill="#000000" font-family="sans-serif" font-size="14" lengthAdjust="spacing" textLength="106" x="891.5" y="720.2295">dispose() : void</text><ellipse cx="882.5" cy="733.1797" fill="#84BE84" rx="3" ry="3" style="stroke:#038048;stroke-width:1.0;"/><text fill="#000000" font-family="sans-serif" font-size="14" lengthAdjust="spacing" textLength="267" x="891.5" y="736.5264">equalsToID(patternId: string) : boolean</text><ellipse cx="882.5" cy="749.4766" fill="#84BE84" rx="3" ry="3" style="stroke:#038048;stroke-width:1.0;"/><text fill="#000000" font-family="sans-serif" font-size="14" lengthAdjust="spacing" textLength="87" x="891.5" y="752.8232">open() : void</text><ellipse cx="882.5" cy="765.7734" fill="#84BE84" rx="3" ry="3" style="stroke:#038048;stroke-width:1.0;"/><text fill="#000000" font-family="sans-serif" font-size="14" lengthAdjust="spacing" textLength="434" x="891.5" y="769.1201">registerCallback(eventName: string, callback: OSGeneric) : void</text><ellipse cx="882.5" cy="782.0703" fill="#84BE84" rx="3" ry="3" style="stroke:#038048;stroke-width:1.0;"/><text fill="#000000" font-family="sans-serif" font-size="14" lengthAdjust="spacing" textLength="206" x="891.5" y="785.417">removeGestureEvents() : void</text><ellipse cx="882.5" cy="798.3672" fill="#84BE84" rx="3" ry="3" style="stroke:#038048;stroke-width:1.0;"/><text fill="#000000" font-family="sans-serif" font-size="14" lengthAdjust="spacing" textLength="312" x="891.5" y="801.7139">toggleGestures(enableSwipe: boolean) : void</text><polygon fill="#FFFF44" points="882.5,809.6641,886.5,813.6641,882.5,817.6641,878.5,813.6641" style="stroke:#B38D22;stroke-width:1.0;"/><text fill="#000000" font-family="sans-serif" font-size="14" lengthAdjust="spacing" textLength="121" x="891.5" y="818.0107">finishBuild() : void</text><polygon fill="#FFFF44" points="882.5,825.9609,886.5,829.9609,882.5,833.9609,878.5,829.9609" style="stroke:#B38D22;stroke-width:1.0;"/><text fill="#000000" font-family="sans-serif" font-size="14" lengthAdjust="spacing" textLength="180" x="891.5" y="834.3076">setA11YProperties() : void</text><polygon fill="#FFFF44" points="882.5,842.2578,886.5,846.2578,882.5,850.2578,878.5,846.2578" style="stroke:#B38D22;stroke-width:1.0;"/><text fill="#000000" font-family="sans-serif" font-size="14" lengthAdjust="spacing" textLength="138" x="891.5" y="850.6045">setCallbacks() : void</text><polygon fill="#FFFF44" points="882.5,858.5547,886.5,862.5547,882.5,866.5547,878.5,862.5547" style="stroke:#B38D22;stroke-width:1.0;"/><text fill="#000000" font-family="sans-serif" font-size="14" lengthAdjust="spacing" textLength="972" x="891.5" y="866.9014">setGestureEvents(onGestureStartCallback: GestureStart, onGestureMoveCallback: GestureMove, onGestureEndCallback: GestureEnd) : void</text><polygon fill="#FFFF44" points="882.5,874.8516,886.5,878.8516,882.5,882.8516,878.5,878.8516" style="stroke:#B38D22;stroke-width:1.0;"/><text fill="#000000" font-family="sans-serif" font-size="14" lengthAdjust="spacing" textLength="169" x="891.5" y="883.1982">setHtmlElements() : void</text><polygon fill="#FFFF44" points="882.5,891.1484,886.5,895.1484,882.5,899.1484,878.5,895.1484" style="stroke:#B38D22;stroke-width:1.0;"/><text fill="#000000" font-family="sans-serif" font-size="14" lengthAdjust="spacing" textLength="569" x="891.5" y="899.4951">triggerPlatformEventCallback(platFormCallback: OSGeneric, args: unknown[]) : void</text><polygon fill="#FFFF44" points="882.5,907.4453,886.5,911.4453,882.5,915.4453,878.5,911.4453" style="stroke:#B38D22;stroke-width:1.0;"/><text fill="#000000" font-family="sans-serif" font-size="14" lengthAdjust="spacing" textLength="311" x="891.5" y="915.792">triggerPlatformInitializedEventCallback() : void</text><polygon fill="#FFFF44" points="882.5,923.7422,886.5,927.7422,882.5,931.7422,878.5,927.7422" style="stroke:#B38D22;stroke-width:1.0;"/><text fill="#000000" font-family="sans-serif" font-size="14" lengthAdjust="spacing" textLength="156" x="891.5" y="932.0889">unsetCallbacks() : void</text><polygon fill="#FFFF44" points="882.5,940.0391,886.5,944.0391,882.5,948.0391,878.5,944.0391" style="stroke:#B38D22;stroke-width:1.0;"/><text fill="#000000" font-family="sans-serif" font-size="14" lengthAdjust="spacing" textLength="199" x="891.5" y="948.3857">unsetGlobalCallbacks() : void</text><polygon fill="#FFFF44" points="882.5,956.3359,886.5,960.3359,882.5,964.3359,878.5,960.3359" style="stroke:#B38D22;stroke-width:1.0;"/><text fill="#000000" font-family="sans-serif" font-size="14" lengthAdjust="spacing" textLength="187" x="891.5" y="964.6826">unsetHtmlElements() : void</text><rect fill="#F24D5C" height="6" style="stroke:#C82930;stroke-width:1.0;" width="6" x="879.5" y="974.6328"/><text fill="#000000" font-family="sans-serif" font-size="14" lengthAdjust="spacing" textLength="147" x="891.5" y="980.9795">_closeSidebar() : void</text><rect fill="#F24D5C" height="6" style="stroke:#C82930;stroke-width:1.0;" width="6" x="879.5" y="990.9297"/><text fill="#000000" font-family="sans-serif" font-size="14" lengthAdjust="spacing" textLength="207" x="891.5" y="997.2764">_handleFocusBehavior() : void</text><rect fill="#F24D5C" height="6" style="stroke:#C82930;stroke-width:1.0;" width="6" x="879.5" y="1007.2266"/><text fill="#000000" font-family="sans-serif" font-size="14" lengthAdjust="spacing" textLength="208" x="891.5" y="1013.5732">_handleGestureEvents() : void</text><rect fill="#F24D5C" height="6" style="stroke:#C82930;stroke-width:1.0;" width="6" x="879.5" y="1023.5234"/><text fill="#000000" font-family="sans-serif" font-size="14" lengthAdjust="spacing" textLength="533" x="891.5" y="1029.8701">_onGestureEnd(offsetX: number, offsetY: number, timeTaken: number) : void</text><rect fill="#F24D5C" height="6" style="stroke:#C82930;stroke-width:1.0;" width="6" x="879.5" y="1039.8203"/><text fill="#000000" font-family="sans-serif" font-size="14" lengthAdjust="spacing" textLength="676" x="891.5" y="1046.167">_onGestureMove(x: number, y: number, offsetX: number, offsetY: number, evt: TouchEvent) : void</text><rect fill="#F24D5C" height="6" style="stroke:#C82930;stroke-width:1.0;" width="6" x="879.5" y="1056.1172"/><text fill="#000000" font-family="sans-serif" font-size="14" lengthAdjust="spacing" textLength="312" x="891.5" y="1062.4639">_onGestureStart(x: number, y: number) : void</text><rect fill="#F24D5C" height="6" style="stroke:#C82930;stroke-width:1.0;" width="6" x="879.5" y="1072.4141"/><text fill="#000000" font-family="sans-serif" font-size="14" lengthAdjust="spacing" textLength="146" x="891.5" y="1078.7607">_openSidebar() : void</text><rect fill="#F24D5C" height="6" style="stroke:#C82930;stroke-width:1.0;" width="6" x="879.5" y="1088.7109"/><text fill="#000000" font-family="sans-serif" font-size="14" lengthAdjust="spacing" textLength="392" x="891.5" y="1095.0576">_overlayClickCallback(_args: string, e: MouseEvent) : void</text><rect fill="#F24D5C" height="6" style="stroke:#C82930;stroke-width:1.0;" width="6" x="879.5" y="1105.0078"/><text fill="#000000" font-family="sans-serif" font-size="14" lengthAdjust="spacing" textLength="447" x="891.5" y="1111.3545">_overlayMouseDownCallback(_args: string, e: MouseEvent) : void</text><rect fill="#F24D5C" height="6" style="stroke:#C82930;stroke-width:1.0;" width="6" x="879.5" y="1121.3047"/><text fill="#000000" font-family="sans-serif" font-size="14" lengthAdjust="spacing" textLength="157" x="891.5" y="1127.6514">_removeEvents() : void</text><rect fill="#F24D5C" height="6" style="stroke:#C82930;stroke-width:1.0;" width="6" x="879.5" y="1137.6016"/><text fill="#000000" font-family="sans-serif" font-size="14" lengthAdjust="spacing" textLength="142" x="891.5" y="1143.9482">_setDirection() : void</text><rect fill="#F24D5C" height="6" style="stroke:#C82930;stroke-width:1.0;" width="6" x="879.5" y="1153.8984"/><text fill="#000000" font-family="sans-serif" font-size="14" lengthAdjust="spacing" textLength="156" x="891.5" y="1160.2451">_setHasOverlay() : void</text><rect fill="#F24D5C" height="6" style="stroke:#C82930;stroke-width:1.0;" width="6" x="879.5" y="1170.1953"/><text fill="#000000" font-family="sans-serif" font-size="14" lengthAdjust="spacing" textLength="194" x="891.5" y="1176.542">_setInitialCssClasses() : void</text><rect fill="#F24D5C" height="6" style="stroke:#C82930;stroke-width:1.0;" width="6" x="879.5" y="1186.4922"/><text fill="#000000" font-family="sans-serif" font-size="14" lengthAdjust="spacing" textLength="119" x="891.5" y="1192.8389">_setWidth() : void</text><rect fill="#F24D5C" height="6" style="stroke:#C82930;stroke-width:1.0;" width="6" x="879.5" y="1202.7891"/><text fill="#000000" font-family="sans-serif" font-size="14" lengthAdjust="spacing" textLength="352" x="891.5" y="1209.1357">_sidebarKeypressCallback(e: KeyboardEvent) : void</text><rect fill="#F24D5C" height="6" style="stroke:#C82930;stroke-width:1.0;" width="6" x="879.5" y="1219.0859"/><text fill="#000000" font-family="sans-serif" font-size="14" lengthAdjust="spacing" textLength="102" x="891.5" y="1225.4326">_toggle() : void</text><rect fill="#F24D5C" height="6" style="stroke:#C82930;stroke-width:1.0;" width="6" x="879.5" y="1235.3828"/><text fill="#000000" font-family="sans-serif" font-size="14" lengthAdjust="spacing" textLength="379" x="891.5" y="1241.7295">_toggleGesturesSidebar(enableSwipes: boolean) : void</text><rect fill="#F24D5C" height="6" style="stroke:#C82930;stroke-width:1.0;" width="6" x="879.5" y="1251.6797"/><text fill="#000000" font-family="sans-serif" font-size="14" lengthAdjust="spacing" textLength="210" x="891.5" y="1258.0264">_triggerOnToggleEvent() : void</text></g><!--reverse link IGestureEvent to IDragEvent--><g id="link_IGestureEvent_IDragEvent"><path codeLine="17" d="M896.5,106.01 C896.5,124.22 896.5,128.15 896.5,147.98 " fill="none" id="IGestureEvent-backto-IDragEvent" style="stroke:#272B30;stroke-width:1.0;"/><polygon fill="none" points="896.5,88.01,890.5,106.01,902.5,106.01,896.5,88.01" style="stroke:#272B30;stroke-width:1.0;"/></g><!--reverse link IDragEvent to BottomSheet--><g id="link_IDragEvent_BottomSheet"><path codeLine="67" d="M840.1626,275.207 C814.1026,307.437 790.04,337.23 750.7,385.9 " fill="none" id="IDragEvent-backto-BottomSheet" style="stroke:#272B30;stroke-width:1.0;stroke-dasharray:7.0,7.0;"/><polygon fill="none" points="851.48,261.21,835.4969,271.4345,844.8282,278.9795,851.48,261.21" style="stroke:#272B30;stroke-width:1.0;"/></g><!--reverse link IDragEvent to Sidebar--><g id="link_IDragEvent_Sidebar"><path codeLine="125" d="M952.8356,275.2085 C966.5856,292.2185 971.62,298.45 989.77,320.91 " fill="none" id="IDragEvent-backto-Sidebar" style="stroke:#272B30;stroke-width:1.0;stroke-dasharray:7.0,7.0;"/><polygon fill="none" points="941.52,261.21,948.1695,278.9803,957.5018,271.4366,941.52,261.21" style="stroke:#272B30;stroke-width:1.0;"/></g><!--SRC=[vLTjRzis4FxkNo4aNrGqBjPkm02ZNs8dhOCrSm4RtOfX22Zf976cI8sad7bh_tkF52NhXNQwjHlGjHyAw-xX7NclJzIMyf98KWGBHfIwb5BSBmGJCZX_zlspwDjl9ggFc0kPW3mD8V4sawBYYOEbQTh1ZDGn9DybP9BJ108eIhqF2j2vI5HNb59WAA5SWqn93C7PpPKasVKEk3uB_fe4-Ezn1afN4gpmXYjDE09dGGkiKJbHBpj0XOX820Q4rte9XTX13n8-Gj1EqAH6AD1zjU3kUws9rBEW-tKHjDfRjDigpKT7TysJLeM_ZKF2zvFtlITtlRQl_gJtl9yChJv_DvtseZk9JLQ3ixdGMXJh7E3WMvMIykoIqu9eAlX2y9HcvWQhw3U8wu2VK_LQYXtcKiw9WcHml-aTiSTXnOtFJjukktA7ZGwNG6SQxtVDe43mSdFxolniqjo3Be6WzwD8CEzSSMTm7Kl1M62omK7Ik0_w0VQb1AL6-bJ4bRebd6GWEuzuqH5taHj9oY7Co1pceqfvUlT0xgTtLArAu2Cnjg9vAR3K6v2I4PqAMLpNRzw8B6F6_MhTV7JwAQeeImOT4kU4Pu1fBq7gVLYw7p-I0Xj0QLCq5q4ZVKDOXUAARxcuvmD3J2WO64-eAiTI-BqYJ6t4pLLO4eqzms-InjUZOK-WOpuuBo6Z2eyj26CHpgZG9hn_uzZfJ2HSzeT67fWTvodbLENpSSpEwxFsq2jp4pG_F8o3v_BfqxSkhXGy-kRw7jL3fl-BcTPpkDG5SuNdkSuDfveIjYhDP1dgCI4PTjJhRg6scJFb-mAbYt6wBW8YCzKMso-_dZJhha3_XAJleN-guYS2RvKlcOW8Emav7WpJvZnXO6V477AoeqBw8ISghu6iSr92gCp_iy1-RFObg05MzAUX_-46TaXlAD8Kt_7pBE1L4O74Gh22jmU1fWLio1Pu8pfcpXHI-CVXu7vez9GNs66vRaGLvpOEntpOIlOw6PtOkg5_c0sp01T198XCV3xgLZOPjOm8HgdGTeXsDcfO3-fsJ7dnIvj06QvpSUz-7prG5t9lNFUtVeS-FN_tv4b_lpSxVurREoAosVUVTPN7ZCPRI5QLLcZGbVx8eaKvp4Oip3eOO-fIzQwok99crLrHYNp4K1JCedrRCzLxwtq7af7zmlWyGW1gnAse55pX0F6ZNDY-CAwGMvRaZUANJoD6LHHQQh7YA3NfiZdtTzF_ZeGyhiU9GwWGE8bmCTnJin9y4JZ1MZwDafoY78VjVO9wZ41Z2ZA2_4qgydLH3LlhRdxzEpJaw-0CsDj7eYWwIwRDybrTAqsFOn_Q5UEzp605_HCRdRyrHld1mBJRqgDR4kMMe4VfghXPik0p_XDDT3wIzpVcnnAjUf3vsLKptfeqTAQS-eoqgQ587m00]--></g></svg>