<?xml version="1.0" encoding="UTF-8" standalone="no"?><svg xmlns="http://www.w3.org/2000/svg" xmlns:xlink="http://www.w3.org/1999/xlink" contentScriptType="application/ecmascript" contentStyleType="text/css" height="1048px" preserveAspectRatio="none" style="width:556px;height:1048px;background:#CED4DA;" version="1.1" viewBox="0 0 556 1048" width="556px" zoomAndPan="magnify"><defs><filter height="300%" id="f1phehxxzw7vqu" width="300%" x="-1" y="-1"><feGaussianBlur result="blurOut" stdDeviation="2.0"/><feColorMatrix in="blurOut" result="blurOut2" type="matrix" values="0 0 0 0 0 0 0 0 0 0 0 0 0 0 0 0 0 0 .4 0"/><feOffset dx="4.0" dy="4.0" in="blurOut2" result="blurOut3"/><feBlend in="SourceGraphic" in2="blurOut3" mode="normal"/></filter></defs><g><!--MD5=[bcd99cc50e8dfb4eeef7ac4f1f302d89]
class IDropdownServerSideItem--><rect codeLine="7" fill="#FFFFFF" filter="url(#f1phehxxzw7vqu)" height="242.3262" id="IDropdownServerSideItem" style="stroke:#272B30;stroke-width:1.5;" width="403" x="74" y="283"/><ellipse cx="197.25" cy="299" fill="#B4A7E5" rx="11" ry="11" style="stroke:#272B30;stroke-width:1.0;"/><path d="M193.6777,295.2651 L193.6777,293.1069 L201.0571,293.1069 L201.0571,295.2651 L198.5918,295.2651 L198.5918,303.3418 L201.0571,303.3418 L201.0571,305.5 L193.6777,305.5 L193.6777,303.3418 L196.1431,303.3418 L196.1431,295.2651 Z " fill="#000000"/><text fill="#000000" font-family="sans-serif" font-size="12" font-style="italic" lengthAdjust="spacing" textLength="148" x="217.75" y="303.5352">IDropdownServerSideItem</text><line style="stroke:#272B30;stroke-width:1.5;" x1="75" x2="476" y1="315" y2="315"/><ellipse cx="85" cy="326" rx="3" ry="3" style="stroke:#038048;stroke-width:1.0;fill:none;"/><text fill="#000000" font-family="sans-serif" font-size="11" lengthAdjust="spacing" textLength="84" x="94" y="329.6348">isBuilt : boolean</text><ellipse cx="85" cy="338.9551" rx="3" ry="3" style="stroke:#038048;stroke-width:1.0;fill:none;"/><text fill="#000000" font-family="sans-serif" font-size="11" lengthAdjust="spacing" textLength="163" x="94" y="342.5898">keyboardTriggeredKey : string</text><ellipse cx="85" cy="351.9102" rx="3" ry="3" style="stroke:#038048;stroke-width:1.0;fill:none;"/><text fill="#000000" font-family="sans-serif" font-size="11" lengthAdjust="spacing" textLength="142" x="94" y="355.5449">selfElement : HTMLElement</text><ellipse cx="85" cy="364.8652" rx="3" ry="3" style="stroke:#038048;stroke-width:1.0;fill:none;"/><text fill="#000000" font-family="sans-serif" font-size="11" lengthAdjust="spacing" textLength="88" x="94" y="368.5">uniqueId : string</text><ellipse cx="85" cy="377.8203" rx="3" ry="3" style="stroke:#038048;stroke-width:1.0;fill:none;"/><text fill="#000000" font-family="sans-serif" font-size="11" lengthAdjust="spacing" textLength="86" x="94" y="381.4551">widgetId : string</text><line style="stroke:#272B30;stroke-width:1.5;" x1="75" x2="476" y1="387.7754" y2="387.7754"/><ellipse cx="85" cy="398.7754" fill="#84BE84" rx="3" ry="3" style="stroke:#038048;stroke-width:1.0;"/><text fill="#000000" font-family="sans-serif" font-size="11" lengthAdjust="spacing" textLength="67" x="94" y="402.4102">build() : void</text><ellipse cx="85" cy="411.7305" fill="#84BE84" rx="3" ry="3" style="stroke:#038048;stroke-width:1.0;"/><text fill="#000000" font-family="sans-serif" font-size="11" lengthAdjust="spacing" textLength="377" x="94" y="415.3652">changeProperty(propertyName: string, propertyValue: unknown) : void</text><ellipse cx="85" cy="424.6855" fill="#84BE84" rx="3" ry="3" style="stroke:#038048;stroke-width:1.0;"/><text fill="#000000" font-family="sans-serif" font-size="11" lengthAdjust="spacing" textLength="82" x="94" y="428.3203">dispose() : void</text><ellipse cx="85" cy="437.6406" fill="#84BE84" rx="3" ry="3" style="stroke:#038048;stroke-width:1.0;"/><text fill="#000000" font-family="sans-serif" font-size="11" lengthAdjust="spacing" textLength="168" x="94" y="441.2754">equalsToID(id: string) : boolean</text><ellipse cx="85" cy="450.5957" fill="#84BE84" rx="3" ry="3" style="stroke:#038048;stroke-width:1.0;"/><text fill="#000000" font-family="sans-serif" font-size="11" lengthAdjust="spacing" textLength="335" x="94" y="454.2305">registerCallback(eventName: string, callback: OSGeneric) : void</text><ellipse cx="85" cy="463.5508" fill="#84BE84" rx="3" ry="3" style="stroke:#038048;stroke-width:1.0;"/><text fill="#000000" font-family="sans-serif" font-size="11" lengthAdjust="spacing" textLength="77" x="94" y="467.1855">setBlur() : void</text><ellipse cx="85" cy="476.5059" fill="#84BE84" rx="3" ry="3" style="stroke:#038048;stroke-width:1.0;"/><text fill="#000000" font-family="sans-serif" font-size="11" lengthAdjust="spacing" textLength="88" x="94" y="480.1406">setFocus() : void</text><ellipse cx="85" cy="489.4609" fill="#84BE84" rx="3" ry="3" style="stroke:#038048;stroke-width:1.0;"/><text fill="#000000" font-family="sans-serif" font-size="11" lengthAdjust="spacing" textLength="106" x="94" y="493.0957">setTabindex() : void</text><ellipse cx="85" cy="502.416" fill="#84BE84" rx="3" ry="3" style="stroke:#038048;stroke-width:1.0;"/><text fill="#000000" font-family="sans-serif" font-size="11" lengthAdjust="spacing" textLength="249" x="94" y="506.0508">toggleSelected(triggerCallback: boolean) : void</text><ellipse cx="85" cy="515.3711" fill="#84BE84" rx="3" ry="3" style="stroke:#038048;stroke-width:1.0;"/><text fill="#000000" font-family="sans-serif" font-size="11" lengthAdjust="spacing" textLength="120" x="94" y="519.0059">unsetTabindex() : void</text><!--MD5=[1123f0c3b94494dd3d3555a8beccd8c4]
class IChild--><rect codeLine="24" fill="#FFFFFF" filter="url(#f1phehxxzw7vqu)" height="216.416" id="IChild" style="stroke:#272B30;stroke-width:1.5;" width="403" x="74" y="7"/><ellipse cx="255.25" cy="23" fill="#B4A7E5" rx="11" ry="11" style="stroke:#272B30;stroke-width:1.0;"/><path d="M251.6777,19.2651 L251.6777,17.1069 L259.0571,17.1069 L259.0571,19.2651 L256.5918,19.2651 L256.5918,27.3418 L259.0571,27.3418 L259.0571,29.5 L251.6777,29.5 L251.6777,27.3418 L254.1431,27.3418 L254.1431,19.2651 Z " fill="#000000"/><text fill="#000000" font-family="sans-serif" font-size="12" font-style="italic" lengthAdjust="spacing" textLength="32" x="275.75" y="27.5352">IChild</text><line style="stroke:#272B30;stroke-width:1.5;" x1="75" x2="476" y1="39" y2="39"/><ellipse cx="85" cy="50" rx="3" ry="3" style="stroke:#038048;stroke-width:1.0;fill:none;"/><text fill="#000000" font-family="sans-serif" font-size="11" lengthAdjust="spacing" textLength="84" x="94" y="53.6348">isBuilt : boolean</text><ellipse cx="85" cy="62.9551" rx="3" ry="3" style="stroke:#038048;stroke-width:1.0;fill:none;"/><text fill="#000000" font-family="sans-serif" font-size="11" lengthAdjust="spacing" textLength="142" x="94" y="66.5898">selfElement : HTMLElement</text><ellipse cx="85" cy="75.9102" rx="3" ry="3" style="stroke:#038048;stroke-width:1.0;fill:none;"/><text fill="#000000" font-family="sans-serif" font-size="11" lengthAdjust="spacing" textLength="88" x="94" y="79.5449">uniqueId : string</text><ellipse cx="85" cy="88.8652" rx="3" ry="3" style="stroke:#038048;stroke-width:1.0;fill:none;"/><text fill="#000000" font-family="sans-serif" font-size="11" lengthAdjust="spacing" textLength="86" x="94" y="92.5">widgetId : string</text><line style="stroke:#272B30;stroke-width:1.5;" x1="75" x2="476" y1="98.8203" y2="98.8203"/><ellipse cx="85" cy="109.8203" fill="#84BE84" rx="3" ry="3" style="stroke:#038048;stroke-width:1.0;"/><text fill="#000000" font-family="sans-serif" font-size="11" lengthAdjust="spacing" textLength="67" x="94" y="113.4551">build() : void</text><ellipse cx="85" cy="122.7754" fill="#84BE84" rx="3" ry="3" style="stroke:#038048;stroke-width:1.0;"/><text fill="#000000" font-family="sans-serif" font-size="11" lengthAdjust="spacing" textLength="377" x="94" y="126.4102">changeProperty(propertyName: string, propertyValue: unknown) : void</text><ellipse cx="85" cy="135.7305" fill="#84BE84" rx="3" ry="3" style="stroke:#038048;stroke-width:1.0;"/><text fill="#000000" font-family="sans-serif" font-size="11" lengthAdjust="spacing" textLength="82" x="94" y="139.3652">dispose() : void</text><ellipse cx="85" cy="148.6855" fill="#84BE84" rx="3" ry="3" style="stroke:#038048;stroke-width:1.0;"/><text fill="#000000" font-family="sans-serif" font-size="11" lengthAdjust="spacing" textLength="168" x="94" y="152.3203">equalsToID(id: string) : boolean</text><ellipse cx="85" cy="161.6406" fill="#84BE84" rx="3" ry="3" style="stroke:#038048;stroke-width:1.0;"/><text fill="#000000" font-family="sans-serif" font-size="11" lengthAdjust="spacing" textLength="335" x="94" y="165.2754">registerCallback(eventName: string, callback: OSGeneric) : void</text><ellipse cx="85" cy="174.5957" fill="#84BE84" rx="3" ry="3" style="stroke:#038048;stroke-width:1.0;"/><text fill="#000000" font-family="sans-serif" font-size="11" lengthAdjust="spacing" textLength="77" x="94" y="178.2305">setBlur() : void</text><ellipse cx="85" cy="187.5508" fill="#84BE84" rx="3" ry="3" style="stroke:#038048;stroke-width:1.0;"/><text fill="#000000" font-family="sans-serif" font-size="11" lengthAdjust="spacing" textLength="88" x="94" y="191.1855">setFocus() : void</text><ellipse cx="85" cy="200.5059" fill="#84BE84" rx="3" ry="3" style="stroke:#038048;stroke-width:1.0;"/><text fill="#000000" font-family="sans-serif" font-size="11" lengthAdjust="spacing" textLength="106" x="94" y="204.1406">setTabindex() : void</text><ellipse cx="85" cy="213.4609" fill="#84BE84" rx="3" ry="3" style="stroke:#038048;stroke-width:1.0;"/><text fill="#000000" font-family="sans-serif" font-size="11" lengthAdjust="spacing" textLength="120" x="94" y="217.0957">unsetTabindex() : void</text><!--MD5=[13455114da7977bb9261036455a08b64]
class DropdownServerSideItem--><rect codeLine="40" fill="#FFFFFF" filter="url(#f1phehxxzw7vqu)" height="449.6074" id="DropdownServerSideItem" style="stroke:#272B30;stroke-width:1.5;" width="533" x="9" y="585"/><ellipse cx="198.75" cy="601" fill="#ADD1B2" rx="11" ry="11" style="stroke:#272B30;stroke-width:1.0;"/><path d="M201.2231,607.1431 Q200.6421,607.4419 200.0029,607.5913 Q199.3638,607.7407 198.6582,607.7407 Q196.1514,607.7407 194.8315,606.0889 Q193.5117,604.437 193.5117,601.3159 Q193.5117,598.1865 194.8315,596.5347 Q196.1514,594.8828 198.6582,594.8828 Q199.3638,594.8828 200.0112,595.0322 Q200.6587,595.1816 201.2231,595.4805 L201.2231,598.2031 Q200.5923,597.6221 199.9988,597.3523 Q199.4053,597.0825 198.7744,597.0825 Q197.4297,597.0825 196.7449,598.1492 Q196.0601,599.2158 196.0601,601.3159 Q196.0601,603.4077 196.7449,604.4744 Q197.4297,605.541 198.7744,605.541 Q199.4053,605.541 199.9988,605.2712 Q200.5923,605.0015 201.2231,604.4204 Z " fill="#000000"/><text fill="#000000" font-family="sans-serif" font-size="12" lengthAdjust="spacing" textLength="145" x="219.25" y="605.5352">DropdownServerSideItem</text><line style="stroke:#272B30;stroke-width:1.5;" x1="10" x2="541" y1="617" y2="617"/><ellipse cx="20" cy="628" rx="3" ry="3" style="stroke:#038048;stroke-width:1.0;fill:none;"/><text fill="#000000" font-family="sans-serif" font-size="11" lengthAdjust="spacing" textLength="163" x="29" y="631.6348">keyboardTriggeredKey : string</text><polygon fill="none" points="20,635.9551,24,639.9551,20,643.9551,16,639.9551" style="stroke:#B38D22;stroke-width:1.0;"/><text fill="#000000" font-family="sans-serif" font-size="11" lengthAdjust="spacing" textLength="137" x="29" y="644.5898">isProviderBased : boolean</text><rect fill="none" height="6" style="stroke:#C82930;stroke-width:1.0;" width="6" x="17" y="650.9102"/><text fill="#000000" font-family="sans-serif" font-size="11" lengthAdjust="spacing" textLength="127" x="29" y="657.5449">_eventOnClick : Generic</text><rect fill="none" height="6" style="stroke:#C82930;stroke-width:1.0;" width="6" x="17" y="663.8652"/><text fill="#000000" font-family="sans-serif" font-size="11" lengthAdjust="spacing" textLength="180" x="29" y="670.5">_eventOnkeyboardPress : Generic</text><rect fill="none" height="6" style="stroke:#C82930;stroke-width:1.0;" width="6" x="17" y="676.8203"/><text fill="#000000" font-family="sans-serif" font-size="11" lengthAdjust="spacing" textLength="268" x="29" y="683.4551">_platformEventOnClickCallback : OSOnSelectEvent</text><line style="stroke:#272B30;stroke-width:1.5;" x1="10" x2="541" y1="689.7754" y2="689.7754"/><ellipse cx="20" cy="700.7754" fill="#84BE84" rx="3" ry="3" style="stroke:#038048;stroke-width:1.0;"/><text fill="#000000" font-family="sans-serif" font-size="11" lengthAdjust="spacing" textLength="67" x="29" y="704.4102">build() : void</text><ellipse cx="20" cy="713.7305" fill="#84BE84" rx="3" ry="3" style="stroke:#038048;stroke-width:1.0;"/><text fill="#000000" font-family="sans-serif" font-size="11" lengthAdjust="spacing" textLength="377" x="29" y="717.3652">changeProperty(propertyName: string, propertyValue: unknown) : void</text><ellipse cx="20" cy="726.6855" fill="#84BE84" rx="3" ry="3" style="stroke:#038048;stroke-width:1.0;"/><text fill="#000000" font-family="sans-serif" font-size="11" lengthAdjust="spacing" textLength="82" x="29" y="730.3203">dispose() : void</text><ellipse cx="20" cy="739.6406" fill="#84BE84" rx="3" ry="3" style="stroke:#038048;stroke-width:1.0;"/><text fill="#000000" font-family="sans-serif" font-size="11" lengthAdjust="spacing" textLength="207" x="29" y="743.2754">equalsToID(patternId: string) : boolean</text><ellipse cx="20" cy="752.5957" fill="#84BE84" rx="3" ry="3" style="stroke:#038048;stroke-width:1.0;"/><text fill="#000000" font-family="sans-serif" font-size="11" lengthAdjust="spacing" textLength="335" x="29" y="756.2305">registerCallback(eventName: string, callback: OSGeneric) : void</text><ellipse cx="20" cy="765.5508" fill="#84BE84" rx="3" ry="3" style="stroke:#038048;stroke-width:1.0;"/><text fill="#000000" font-family="sans-serif" font-size="11" lengthAdjust="spacing" textLength="77" x="29" y="769.1855">setBlur() : void</text><ellipse cx="20" cy="778.5059" fill="#84BE84" rx="3" ry="3" style="stroke:#038048;stroke-width:1.0;"/><text fill="#000000" font-family="sans-serif" font-size="11" lengthAdjust="spacing" textLength="88" x="29" y="782.1406">setFocus() : void</text><ellipse cx="20" cy="791.4609" fill="#84BE84" rx="3" ry="3" style="stroke:#038048;stroke-width:1.0;"/><text fill="#000000" font-family="sans-serif" font-size="11" lengthAdjust="spacing" textLength="106" x="29" y="795.0957">setTabindex() : void</text><ellipse cx="20" cy="804.416" fill="#84BE84" rx="3" ry="3" style="stroke:#038048;stroke-width:1.0;"/><text fill="#000000" font-family="sans-serif" font-size="11" lengthAdjust="spacing" textLength="249" x="29" y="808.0508">toggleSelected(triggerCallback: boolean) : void</text><ellipse cx="20" cy="817.3711" fill="#84BE84" rx="3" ry="3" style="stroke:#038048;stroke-width:1.0;"/><text fill="#000000" font-family="sans-serif" font-size="11" lengthAdjust="spacing" textLength="120" x="29" y="821.0059">unsetTabindex() : void</text><polygon fill="#FFFF44" points="20,825.3262,24,829.3262,20,833.3262,16,829.3262" style="stroke:#B38D22;stroke-width:1.0;"/><text fill="#000000" font-family="sans-serif" font-size="11" lengthAdjust="spacing" textLength="96" x="29" y="833.9609">finishBuild() : void</text><polygon fill="#FFFF44" points="20,838.2813,24,842.2813,20,846.2813,16,842.2813" style="stroke:#B38D22;stroke-width:1.0;"/><text fill="#000000" font-family="sans-serif" font-size="11" lengthAdjust="spacing" textLength="202" x="29" y="846.916">notifyParent(actionType: string) : void</text><polygon fill="#FFFF44" points="20,851.2363,24,855.2363,20,859.2363,16,855.2363" style="stroke:#B38D22;stroke-width:1.0;"/><text fill="#000000" font-family="sans-serif" font-size="11" lengthAdjust="spacing" textLength="140" x="29" y="859.8711">setA11YProperties() : void</text><polygon fill="#FFFF44" points="20,864.1914,24,868.1914,20,872.1914,16,868.1914" style="stroke:#B38D22;stroke-width:1.0;"/><text fill="#000000" font-family="sans-serif" font-size="11" lengthAdjust="spacing" textLength="107" x="29" y="872.8262">setCallbacks() : void</text><polygon fill="#FFFF44" points="20,877.1465,24,881.1465,20,885.1465,16,881.1465" style="stroke:#B38D22;stroke-width:1.0;"/><text fill="#000000" font-family="sans-serif" font-size="11" lengthAdjust="spacing" textLength="129" x="29" y="885.7813">setHtmlElements() : void</text><polygon fill="#FFFF44" points="20,890.1016,24,894.1016,20,898.1016,16,894.1016" style="stroke:#B38D22;stroke-width:1.0;"/><text fill="#000000" font-family="sans-serif" font-size="11" lengthAdjust="spacing" textLength="507" x="29" y="898.7363">setParentInfo(parentSelector: string, getPatternByIdAPI: Function, canBeOrphan: boolean) : void</text><polygon fill="#FFFF44" points="20,903.0566,24,907.0566,20,911.0566,16,907.0566" style="stroke:#B38D22;stroke-width:1.0;"/><text fill="#000000" font-family="sans-serif" font-size="11" lengthAdjust="spacing" textLength="444" x="29" y="911.6914">triggerPlatformEventCallback(platFormCallback: OSGeneric, args: unknown[]) : void</text><polygon fill="#FFFF44" points="20,916.0117,24,920.0117,20,924.0117,16,920.0117" style="stroke:#B38D22;stroke-width:1.0;"/><text fill="#000000" font-family="sans-serif" font-size="11" lengthAdjust="spacing" textLength="247" x="29" y="924.6465">triggerPlatformInitializedEventCallback() : void</text><polygon fill="#FFFF44" points="20,928.9668,24,932.9668,20,936.9668,16,932.9668" style="stroke:#B38D22;stroke-width:1.0;"/><text fill="#000000" font-family="sans-serif" font-size="11" lengthAdjust="spacing" textLength="121" x="29" y="937.6016">unsetCallbacks() : void</text><polygon fill="#FFFF44" points="20,941.9219,24,945.9219,20,949.9219,16,945.9219" style="stroke:#B38D22;stroke-width:1.0;"/><text fill="#000000" font-family="sans-serif" font-size="11" lengthAdjust="spacing" textLength="155" x="29" y="950.5566">unsetGlobalCallbacks() : void</text><polygon fill="#FFFF44" points="20,954.877,24,958.877,20,962.877,16,958.877" style="stroke:#B38D22;stroke-width:1.0;"/><text fill="#000000" font-family="sans-serif" font-size="11" lengthAdjust="spacing" textLength="143" x="29" y="963.5117">unsetHtmlElements() : void</text><rect fill="#F24D5C" height="6" style="stroke:#C82930;stroke-width:1.0;" width="6" x="17" y="969.832"/><text fill="#000000" font-family="sans-serif" font-size="11" lengthAdjust="spacing" textLength="268" x="29" y="976.4668">_onKeyboardPressed(event: KeyboardEvent) : void</text><rect fill="#F24D5C" height="6" style="stroke:#C82930;stroke-width:1.0;" width="6" x="17" y="982.7871"/><text fill="#000000" font-family="sans-serif" font-size="11" lengthAdjust="spacing" textLength="293" x="29" y="989.4219">_onSelected(event: MouseEvent | KeyboardEvent) : void</text><rect fill="#F24D5C" height="6" style="stroke:#C82930;stroke-width:1.0;" width="6" x="17" y="995.7422"/><text fill="#000000" font-family="sans-serif" font-size="11" lengthAdjust="spacing" textLength="121" x="29" y="1002.377">_removeEvents() : void</text><rect fill="#F24D5C" height="6" style="stroke:#C82930;stroke-width:1.0;" width="6" x="17" y="1008.6973"/><text fill="#000000" font-family="sans-serif" font-size="11" lengthAdjust="spacing" textLength="112" x="29" y="1015.332">_setUpEvents() : void</text><rect fill="#F24D5C" height="6" style="stroke:#C82930;stroke-width:1.0;" width="6" x="17" y="1021.6523"/><text fill="#000000" font-family="sans-serif" font-size="11" lengthAdjust="spacing" textLength="242" x="29" y="1028.2871">_updateSelectedStatus(status: boolean) : void</text><!--MD5=[8e1f2958cd265b6879766de318a2259e]
reverse link IChild to IDropdownServerSideItem--><path codeLine="39" d="M275.5,243.58 C275.5,256.63 275.5,269.87 275.5,282.84 " fill="none" id="IChild-backto-IDropdownServerSideItem" style="stroke:#272B30;stroke-width:1.0;"/><polygon fill="none" points="268.5,243.28,275.5,223.28,282.5,243.28,268.5,243.28" style="stroke:#272B30;stroke-width:1.0;"/><!--MD5=[9cbc1fba2d54da0bcd6e67a09147bc84]
reverse link IDropdownServerSideItem to DropdownServerSideItem--><path codeLine="73" d="M275.5,545.17 C275.5,558.15 275.5,571.5 275.5,584.99 " fill="none" id="IDropdownServerSideItem-backto-DropdownServerSideItem" style="stroke:#272B30;stroke-width:1.0;stroke-dasharray:7.0,7.0;"/><polygon fill="none" points="268.5,545.12,275.5,525.12,282.5,545.12,268.5,545.12" style="stroke:#272B30;stroke-width:1.0;"/><!--MD5=[767028784a7c327b7f6d87b9742fd1ae]
@startuml
skinparam ClassArrowColor #272b30
skinparam ClassBorderColor #272b30
skinparam ClassBackgroundColor #fff
skinparam BackgroundColor #ced4da
hide empty methods
hide empty fields
interface "IDropdownServerSideItem" {
    +isBuilt : boolean
    +keyboardTriggeredKey : string
    +selfElement : HTMLElement
    +uniqueId : string
    +widgetId : string
    +build() : void
    +changeProperty(propertyName: string, propertyValue: unknown) : void
    +dispose() : void
    +equalsToID(id: string) : boolean
    +registerCallback(eventName: string, callback: OSGeneric) : void
    +setBlur() : void
    +setFocus() : void
    +setTabindex() : void
    +toggleSelected(triggerCallback: boolean) : void
    +unsetTabindex() : void
}
interface "IChild" {
    +isBuilt : boolean
    +selfElement : HTMLElement
    +uniqueId : string
    +widgetId : string
    +build() : void
    +changeProperty(propertyName: string, propertyValue: unknown) : void
    +dispose() : void
    +equalsToID(id: string) : boolean
    +registerCallback(eventName: string, callback: OSGeneric) : void
    +setBlur() : void
    +setFocus() : void
    +setTabindex() : void
    +unsetTabindex() : void
}
"IChild" <|- - "IDropdownServerSideItem"
class "DropdownServerSideItem" {
    +keyboardTriggeredKey : string
    #isProviderBased : boolean
    -_eventOnClick : Generic
    -_eventOnkeyboardPress : Generic
    -_platformEventOnClickCallback : OSOnSelectEvent
    +build() : void
    +changeProperty(propertyName: string, propertyValue: unknown) : void
    +dispose() : void
    +equalsToID(patternId: string) : boolean
    +registerCallback(eventName: string, callback: OSGeneric) : void
    +setBlur() : void
    +setFocus() : void
    +setTabindex() : void
    +toggleSelected(triggerCallback: boolean) : void
    +unsetTabindex() : void
    #finishBuild() : void
    #notifyParent(actionType: string) : void
    #setA11YProperties() : void
    #setCallbacks() : void
    #setHtmlElements() : void
    #setParentInfo(parentSelector: string, getPatternByIdAPI: Function, canBeOrphan: boolean) : void
    #triggerPlatformEventCallback(platFormCallback: OSGeneric, args: unknown[]) : void
    #triggerPlatformInitializedEventCallback() : void
    #unsetCallbacks() : void
    #unsetGlobalCallbacks() : void
    #unsetHtmlElements() : void
    -_onKeyboardPressed(event: KeyboardEvent) : void
    -_onSelected(event: MouseEvent | KeyboardEvent) : void
    -_removeEvents() : void
    -_setUpEvents() : void
    -_updateSelectedStatus(status: boolean) : void
}
"IDropdownServerSideItem" <|.. "DropdownServerSideItem"
@enduml

PlantUML version 1.2021.14(Fri Nov 12 16:46:50 WET 2021)
(GPL source distribution)
Java Runtime: Java(TM) SE Runtime Environment
JVM: Java HotSpot(TM) 64-Bit Server VM
Default Encoding: UTF-8
Language: en
Country: PT
--></g></svg>