<?xml version="1.0" encoding="us-ascii" standalone="no"?><svg xmlns="http://www.w3.org/2000/svg" xmlns:xlink="http://www.w3.org/1999/xlink" contentStyleType="text/css" height="1239px" preserveAspectRatio="none" style="width:703px;height:1239px;background:#CED4DA;" version="1.1" viewBox="0 0 703 1239" width="703px" zoomAndPan="magnify"><defs/><g><rect fill="#CED4DA" height="1239" style="stroke:none;stroke-width:1.0;" width="703" x="0" y="0"/><!--class IDropdownServerSideItem--><g id="elem_IDropdownServerSideItem"><rect codeLine="7" fill="#FFFFFF" height="292.4531" id="IDropdownServerSideItem" rx="2.5" ry="2.5" style="stroke:#272B30;stroke-width:0.5;" width="510" x="97.5" y="327"/><ellipse cx="257.25" cy="343" fill="#B4A7E5" rx="11" ry="11" style="stroke:#181818;stroke-width:1.0;"/><path d="M253.1719,338.7656 L253.1719,336.6094 L260.5625,336.6094 L260.5625,338.7656 L258.0938,338.7656 L258.0938,346.8438 L260.5625,346.8438 L260.5625,349 L253.1719,349 L253.1719,346.8438 L255.6406,346.8438 L255.6406,338.7656 L253.1719,338.7656 Z " fill="#000000"/><text fill="#000000" font-family="sans-serif" font-size="14" font-style="italic" lengthAdjust="spacing" textLength="182" x="277.75" y="347.8467">IDropdownServerSideItem</text><line style="stroke:#272B30;stroke-width:0.5;" x1="98.5" x2="606.5" y1="359" y2="359"/><ellipse cx="108.5" cy="372.6484" fill="none" rx="3" ry="3" style="stroke:#038048;stroke-width:1.0;"/><text fill="#000000" font-family="sans-serif" font-size="14" lengthAdjust="spacing" textLength="110" x="117.5" y="375.9951">isBuilt : boolean</text><ellipse cx="108.5" cy="388.9453" fill="none" rx="3" ry="3" style="stroke:#038048;stroke-width:1.0;"/><text fill="#000000" font-family="sans-serif" font-size="14" lengthAdjust="spacing" textLength="208" x="117.5" y="392.292">keyboardTriggeredKey : string</text><ellipse cx="108.5" cy="405.2422" fill="none" rx="3" ry="3" style="stroke:#038048;stroke-width:1.0;"/><text fill="#000000" font-family="sans-serif" font-size="14" lengthAdjust="spacing" textLength="189" x="117.5" y="408.5889">selfElement : HTMLElement</text><ellipse cx="108.5" cy="421.5391" fill="none" rx="3" ry="3" style="stroke:#038048;stroke-width:1.0;"/><text fill="#000000" font-family="sans-serif" font-size="14" lengthAdjust="spacing" textLength="112" x="117.5" y="424.8857">uniqueId : string</text><ellipse cx="108.5" cy="437.8359" fill="none" rx="3" ry="3" style="stroke:#038048;stroke-width:1.0;"/><text fill="#000000" font-family="sans-serif" font-size="14" lengthAdjust="spacing" textLength="110" x="117.5" y="441.1826">widgetId : string</text><line style="stroke:#272B30;stroke-width:0.5;" x1="98.5" x2="606.5" y1="448.4844" y2="448.4844"/><ellipse cx="108.5" cy="462.1328" fill="#84BE84" rx="3" ry="3" style="stroke:#038048;stroke-width:1.0;"/><text fill="#000000" font-family="sans-serif" font-size="14" lengthAdjust="spacing" textLength="84" x="117.5" y="465.4795">build() : void</text><ellipse cx="108.5" cy="478.4297" fill="#84BE84" rx="3" ry="3" style="stroke:#038048;stroke-width:1.0;"/><text fill="#000000" font-family="sans-serif" font-size="14" lengthAdjust="spacing" textLength="484" x="117.5" y="481.7764">changeProperty(propertyName: string, propertyValue: unknown) : void</text><ellipse cx="108.5" cy="494.7266" fill="#84BE84" rx="3" ry="3" style="stroke:#038048;stroke-width:1.0;"/><text fill="#000000" font-family="sans-serif" font-size="14" lengthAdjust="spacing" textLength="106" x="117.5" y="498.0732">dispose() : void</text><ellipse cx="108.5" cy="511.0234" fill="#84BE84" rx="3" ry="3" style="stroke:#038048;stroke-width:1.0;"/><text fill="#000000" font-family="sans-serif" font-size="14" lengthAdjust="spacing" textLength="217" x="117.5" y="514.3701">equalsToID(id: string) : boolean</text><ellipse cx="108.5" cy="527.3203" fill="#84BE84" rx="3" ry="3" style="stroke:#038048;stroke-width:1.0;"/><text fill="#000000" font-family="sans-serif" font-size="14" lengthAdjust="spacing" textLength="434" x="117.5" y="530.667">registerCallback(eventName: string, callback: OSGeneric) : void</text><ellipse cx="108.5" cy="543.6172" fill="#84BE84" rx="3" ry="3" style="stroke:#038048;stroke-width:1.0;"/><text fill="#000000" font-family="sans-serif" font-size="14" lengthAdjust="spacing" textLength="100" x="117.5" y="546.9639">setBlur() : void</text><ellipse cx="108.5" cy="559.9141" fill="#84BE84" rx="3" ry="3" style="stroke:#038048;stroke-width:1.0;"/><text fill="#000000" font-family="sans-serif" font-size="14" lengthAdjust="spacing" textLength="115" x="117.5" y="563.2607">setFocus() : void</text><ellipse cx="108.5" cy="576.2109" fill="#84BE84" rx="3" ry="3" style="stroke:#038048;stroke-width:1.0;"/><text fill="#000000" font-family="sans-serif" font-size="14" lengthAdjust="spacing" textLength="136" x="117.5" y="579.5576">setTabindex() : void</text><ellipse cx="108.5" cy="592.5078" fill="#84BE84" rx="3" ry="3" style="stroke:#038048;stroke-width:1.0;"/><text fill="#000000" font-family="sans-serif" font-size="14" lengthAdjust="spacing" textLength="323" x="117.5" y="595.8545">toggleSelected(triggerCallback: boolean) : void</text><ellipse cx="108.5" cy="608.8047" fill="#84BE84" rx="3" ry="3" style="stroke:#038048;stroke-width:1.0;"/><text fill="#000000" font-family="sans-serif" font-size="14" lengthAdjust="spacing" textLength="154" x="117.5" y="612.1514">unsetTabindex() : void</text></g><!--class IChild--><g id="elem_IChild"><rect codeLine="24" fill="#FFFFFF" height="259.8594" id="IChild" rx="2.5" ry="2.5" style="stroke:#272B30;stroke-width:0.5;" width="510" x="97.5" y="7"/><ellipse cx="329.25" cy="23" fill="#B4A7E5" rx="11" ry="11" style="stroke:#181818;stroke-width:1.0;"/><path d="M325.1719,18.7656 L325.1719,16.6094 L332.5625,16.6094 L332.5625,18.7656 L330.0938,18.7656 L330.0938,26.8438 L332.5625,26.8438 L332.5625,29 L325.1719,29 L325.1719,26.8438 L327.6406,26.8438 L327.6406,18.7656 L325.1719,18.7656 Z " fill="#000000"/><text fill="#000000" font-family="sans-serif" font-size="14" font-style="italic" lengthAdjust="spacing" textLength="38" x="349.75" y="27.8467">IChild</text><line style="stroke:#272B30;stroke-width:0.5;" x1="98.5" x2="606.5" y1="39" y2="39"/><ellipse cx="108.5" cy="52.6484" fill="none" rx="3" ry="3" style="stroke:#038048;stroke-width:1.0;"/><text fill="#000000" font-family="sans-serif" font-size="14" lengthAdjust="spacing" textLength="110" x="117.5" y="55.9951">isBuilt : boolean</text><ellipse cx="108.5" cy="68.9453" fill="none" rx="3" ry="3" style="stroke:#038048;stroke-width:1.0;"/><text fill="#000000" font-family="sans-serif" font-size="14" lengthAdjust="spacing" textLength="189" x="117.5" y="72.292">selfElement : HTMLElement</text><ellipse cx="108.5" cy="85.2422" fill="none" rx="3" ry="3" style="stroke:#038048;stroke-width:1.0;"/><text fill="#000000" font-family="sans-serif" font-size="14" lengthAdjust="spacing" textLength="112" x="117.5" y="88.5889">uniqueId : string</text><ellipse cx="108.5" cy="101.5391" fill="none" rx="3" ry="3" style="stroke:#038048;stroke-width:1.0;"/><text fill="#000000" font-family="sans-serif" font-size="14" lengthAdjust="spacing" textLength="110" x="117.5" y="104.8857">widgetId : string</text><line style="stroke:#272B30;stroke-width:0.5;" x1="98.5" x2="606.5" y1="112.1875" y2="112.1875"/><ellipse cx="108.5" cy="125.8359" fill="#84BE84" rx="3" ry="3" style="stroke:#038048;stroke-width:1.0;"/><text fill="#000000" font-family="sans-serif" font-size="14" lengthAdjust="spacing" textLength="84" x="117.5" y="129.1826">build() : void</text><ellipse cx="108.5" cy="142.1328" fill="#84BE84" rx="3" ry="3" style="stroke:#038048;stroke-width:1.0;"/><text fill="#000000" font-family="sans-serif" font-size="14" lengthAdjust="spacing" textLength="484" x="117.5" y="145.4795">changeProperty(propertyName: string, propertyValue: unknown) : void</text><ellipse cx="108.5" cy="158.4297" fill="#84BE84" rx="3" ry="3" style="stroke:#038048;stroke-width:1.0;"/><text fill="#000000" font-family="sans-serif" font-size="14" lengthAdjust="spacing" textLength="106" x="117.5" y="161.7764">dispose() : void</text><ellipse cx="108.5" cy="174.7266" fill="#84BE84" rx="3" ry="3" style="stroke:#038048;stroke-width:1.0;"/><text fill="#000000" font-family="sans-serif" font-size="14" lengthAdjust="spacing" textLength="217" x="117.5" y="178.0732">equalsToID(id: string) : boolean</text><ellipse cx="108.5" cy="191.0234" fill="#84BE84" rx="3" ry="3" style="stroke:#038048;stroke-width:1.0;"/><text fill="#000000" font-family="sans-serif" font-size="14" lengthAdjust="spacing" textLength="434" x="117.5" y="194.3701">registerCallback(eventName: string, callback: OSGeneric) : void</text><ellipse cx="108.5" cy="207.3203" fill="#84BE84" rx="3" ry="3" style="stroke:#038048;stroke-width:1.0;"/><text fill="#000000" font-family="sans-serif" font-size="14" lengthAdjust="spacing" textLength="100" x="117.5" y="210.667">setBlur() : void</text><ellipse cx="108.5" cy="223.6172" fill="#84BE84" rx="3" ry="3" style="stroke:#038048;stroke-width:1.0;"/><text fill="#000000" font-family="sans-serif" font-size="14" lengthAdjust="spacing" textLength="115" x="117.5" y="226.9639">setFocus() : void</text><ellipse cx="108.5" cy="239.9141" fill="#84BE84" rx="3" ry="3" style="stroke:#038048;stroke-width:1.0;"/><text fill="#000000" font-family="sans-serif" font-size="14" lengthAdjust="spacing" textLength="136" x="117.5" y="243.2607">setTabindex() : void</text><ellipse cx="108.5" cy="256.2109" fill="#84BE84" rx="3" ry="3" style="stroke:#038048;stroke-width:1.0;"/><text fill="#000000" font-family="sans-serif" font-size="14" lengthAdjust="spacing" textLength="154" x="117.5" y="259.5576">unsetTabindex() : void</text></g><!--class DropdownServerSideItem--><g id="elem_DropdownServerSideItem"><rect codeLine="40" fill="#FFFFFF" height="553.2031" id="DropdownServerSideItem" rx="2.5" ry="2.5" style="stroke:#272B30;stroke-width:0.5;" width="687" x="9" y="679"/><ellipse cx="260.25" cy="695" fill="#ADD1B2" rx="11" ry="11" style="stroke:#181818;stroke-width:1.0;"/><path d="M263.2188,700.6406 Q262.6406,700.9375 262,701.0781 Q261.3594,701.2344 260.6563,701.2344 Q258.1563,701.2344 256.8281,699.5938 Q255.5156,697.9375 255.5156,694.8125 Q255.5156,691.6875 256.8281,690.0313 Q258.1563,688.375 260.6563,688.375 Q261.3594,688.375 262,688.5313 Q262.6563,688.6875 263.2188,688.9844 L263.2188,691.7031 Q262.5938,691.125 262,690.8594 Q261.4063,690.5781 260.7813,690.5781 Q259.4375,690.5781 258.75,691.6563 Q258.0625,692.7188 258.0625,694.8125 Q258.0625,696.9063 258.75,697.9844 Q259.4375,699.0469 260.7813,699.0469 Q261.4063,699.0469 262,698.7813 Q262.5938,698.5 263.2188,697.9219 L263.2188,700.6406 Z " fill="#000000"/><text fill="#000000" font-family="sans-serif" font-size="14" lengthAdjust="spacing" textLength="176" x="280.75" y="699.8467">DropdownServerSideItem</text><line style="stroke:#272B30;stroke-width:0.5;" x1="10" x2="695" y1="711" y2="711"/><ellipse cx="20" cy="724.6484" fill="none" rx="3" ry="3" style="stroke:#038048;stroke-width:1.0;"/><text fill="#000000" font-family="sans-serif" font-size="14" lengthAdjust="spacing" textLength="208" x="29" y="727.9951">keyboardTriggeredKey : string</text><polygon fill="none" points="20,735.9453,24,739.9453,20,743.9453,16,739.9453" style="stroke:#B38D22;stroke-width:1.0;"/><text fill="#000000" font-family="sans-serif" font-size="14" lengthAdjust="spacing" textLength="180" x="29" y="744.292">isProviderBased : boolean</text><rect fill="none" height="6" style="stroke:#C82930;stroke-width:1.0;" width="6" x="17" y="754.2422"/><text fill="#000000" font-family="sans-serif" font-size="14" lengthAdjust="spacing" textLength="165" x="29" y="760.5889">_eventOnClick : Generic</text><rect fill="none" height="6" style="stroke:#C82930;stroke-width:1.0;" width="6" x="17" y="770.5391"/><text fill="#000000" font-family="sans-serif" font-size="14" lengthAdjust="spacing" textLength="236" x="29" y="776.8857">_eventOnkeyboardPress : Generic</text><rect fill="none" height="6" style="stroke:#C82930;stroke-width:1.0;" width="6" x="17" y="786.8359"/><text fill="#000000" font-family="sans-serif" font-size="14" lengthAdjust="spacing" textLength="346" x="29" y="793.1826">_platformEventOnClickCallback : OSOnSelectEvent</text><line style="stroke:#272B30;stroke-width:0.5;" x1="10" x2="695" y1="800.4844" y2="800.4844"/><ellipse cx="20" cy="814.1328" fill="#84BE84" rx="3" ry="3" style="stroke:#038048;stroke-width:1.0;"/><text fill="#000000" font-family="sans-serif" font-size="14" lengthAdjust="spacing" textLength="84" x="29" y="817.4795">build() : void</text><ellipse cx="20" cy="830.4297" fill="#84BE84" rx="3" ry="3" style="stroke:#038048;stroke-width:1.0;"/><text fill="#000000" font-family="sans-serif" font-size="14" lengthAdjust="spacing" textLength="484" x="29" y="833.7764">changeProperty(propertyName: string, propertyValue: unknown) : void</text><ellipse cx="20" cy="846.7266" fill="#84BE84" rx="3" ry="3" style="stroke:#038048;stroke-width:1.0;"/><text fill="#000000" font-family="sans-serif" font-size="14" lengthAdjust="spacing" textLength="106" x="29" y="850.0732">dispose() : void</text><ellipse cx="20" cy="863.0234" fill="#84BE84" rx="3" ry="3" style="stroke:#038048;stroke-width:1.0;"/><text fill="#000000" font-family="sans-serif" font-size="14" lengthAdjust="spacing" textLength="267" x="29" y="866.3701">equalsToID(patternId: string) : boolean</text><ellipse cx="20" cy="879.3203" fill="#84BE84" rx="3" ry="3" style="stroke:#038048;stroke-width:1.0;"/><text fill="#000000" font-family="sans-serif" font-size="14" lengthAdjust="spacing" textLength="434" x="29" y="882.667">registerCallback(eventName: string, callback: OSGeneric) : void</text><ellipse cx="20" cy="895.6172" fill="#84BE84" rx="3" ry="3" style="stroke:#038048;stroke-width:1.0;"/><text fill="#000000" font-family="sans-serif" font-size="14" lengthAdjust="spacing" textLength="100" x="29" y="898.9639">setBlur() : void</text><ellipse cx="20" cy="911.9141" fill="#84BE84" rx="3" ry="3" style="stroke:#038048;stroke-width:1.0;"/><text fill="#000000" font-family="sans-serif" font-size="14" lengthAdjust="spacing" textLength="115" x="29" y="915.2607">setFocus() : void</text><ellipse cx="20" cy="928.2109" fill="#84BE84" rx="3" ry="3" style="stroke:#038048;stroke-width:1.0;"/><text fill="#000000" font-family="sans-serif" font-size="14" lengthAdjust="spacing" textLength="136" x="29" y="931.5576">setTabindex() : void</text><ellipse cx="20" cy="944.5078" fill="#84BE84" rx="3" ry="3" style="stroke:#038048;stroke-width:1.0;"/><text fill="#000000" font-family="sans-serif" font-size="14" lengthAdjust="spacing" textLength="323" x="29" y="947.8545">toggleSelected(triggerCallback: boolean) : void</text><ellipse cx="20" cy="960.8047" fill="#84BE84" rx="3" ry="3" style="stroke:#038048;stroke-width:1.0;"/><text fill="#000000" font-family="sans-serif" font-size="14" lengthAdjust="spacing" textLength="154" x="29" y="964.1514">unsetTabindex() : void</text><polygon fill="#FFFF44" points="20,972.1016,24,976.1016,20,980.1016,16,976.1016" style="stroke:#B38D22;stroke-width:1.0;"/><text fill="#000000" font-family="sans-serif" font-size="14" lengthAdjust="spacing" textLength="121" x="29" y="980.4482">finishBuild() : void</text><polygon fill="#FFFF44" points="20,988.3984,24,992.3984,20,996.3984,16,992.3984" style="stroke:#B38D22;stroke-width:1.0;"/><text fill="#000000" font-family="sans-serif" font-size="14" lengthAdjust="spacing" textLength="257" x="29" y="996.7451">notifyParent(actionType: string) : void</text><polygon fill="#FFFF44" points="20,1004.6953,24,1008.6953,20,1012.6953,16,1008.6953" style="stroke:#B38D22;stroke-width:1.0;"/><text fill="#000000" font-family="sans-serif" font-size="14" lengthAdjust="spacing" textLength="180" x="29" y="1013.042">setA11YProperties() : void</text><polygon fill="#FFFF44" points="20,1020.9922,24,1024.9922,20,1028.9922,16,1024.9922" style="stroke:#B38D22;stroke-width:1.0;"/><text fill="#000000" font-family="sans-serif" font-size="14" lengthAdjust="spacing" textLength="138" x="29" y="1029.3389">setCallbacks() : void</text><polygon fill="#FFFF44" points="20,1037.2891,24,1041.2891,20,1045.2891,16,1041.2891" style="stroke:#B38D22;stroke-width:1.0;"/><text fill="#000000" font-family="sans-serif" font-size="14" lengthAdjust="spacing" textLength="169" x="29" y="1045.6357">setHtmlElements() : void</text><polygon fill="#FFFF44" points="20,1053.5859,24,1057.5859,20,1061.5859,16,1057.5859" style="stroke:#B38D22;stroke-width:1.0;"/><text fill="#000000" font-family="sans-serif" font-size="14" lengthAdjust="spacing" textLength="661" x="29" y="1061.9326">setParentInfo(parentSelector: string, getPatternByIdAPI: Function, canBeOrphan: boolean) : void</text><polygon fill="#FFFF44" points="20,1069.8828,24,1073.8828,20,1077.8828,16,1073.8828" style="stroke:#B38D22;stroke-width:1.0;"/><text fill="#000000" font-family="sans-serif" font-size="14" lengthAdjust="spacing" textLength="569" x="29" y="1078.2295">triggerPlatformEventCallback(platFormCallback: OSGeneric, args: unknown[]) : void</text><polygon fill="#FFFF44" points="20,1086.1797,24,1090.1797,20,1094.1797,16,1090.1797" style="stroke:#B38D22;stroke-width:1.0;"/><text fill="#000000" font-family="sans-serif" font-size="14" lengthAdjust="spacing" textLength="311" x="29" y="1094.5264">triggerPlatformInitializedEventCallback() : void</text><polygon fill="#FFFF44" points="20,1102.4766,24,1106.4766,20,1110.4766,16,1106.4766" style="stroke:#B38D22;stroke-width:1.0;"/><text fill="#000000" font-family="sans-serif" font-size="14" lengthAdjust="spacing" textLength="156" x="29" y="1110.8232">unsetCallbacks() : void</text><polygon fill="#FFFF44" points="20,1118.7734,24,1122.7734,20,1126.7734,16,1122.7734" style="stroke:#B38D22;stroke-width:1.0;"/><text fill="#000000" font-family="sans-serif" font-size="14" lengthAdjust="spacing" textLength="199" x="29" y="1127.1201">unsetGlobalCallbacks() : void</text><polygon fill="#FFFF44" points="20,1135.0703,24,1139.0703,20,1143.0703,16,1139.0703" style="stroke:#B38D22;stroke-width:1.0;"/><text fill="#000000" font-family="sans-serif" font-size="14" lengthAdjust="spacing" textLength="187" x="29" y="1143.417">unsetHtmlElements() : void</text><rect fill="#F24D5C" height="6" style="stroke:#C82930;stroke-width:1.0;" width="6" x="17" y="1153.3672"/><text fill="#000000" font-family="sans-serif" font-size="14" lengthAdjust="spacing" textLength="350" x="29" y="1159.7139">_onKeyboardPressed(event: KeyboardEvent) : void</text><rect fill="#F24D5C" height="6" style="stroke:#C82930;stroke-width:1.0;" width="6" x="17" y="1169.6641"/><text fill="#000000" font-family="sans-serif" font-size="14" lengthAdjust="spacing" textLength="388" x="29" y="1176.0107">_onSelected(event: MouseEvent | KeyboardEvent) : void</text><rect fill="#F24D5C" height="6" style="stroke:#C82930;stroke-width:1.0;" width="6" x="17" y="1185.9609"/><text fill="#000000" font-family="sans-serif" font-size="14" lengthAdjust="spacing" textLength="157" x="29" y="1192.3076">_removeEvents() : void</text><rect fill="#F24D5C" height="6" style="stroke:#C82930;stroke-width:1.0;" width="6" x="17" y="1202.2578"/><text fill="#000000" font-family="sans-serif" font-size="14" lengthAdjust="spacing" textLength="146" x="29" y="1208.6045">_setUpEvents() : void</text><rect fill="#F24D5C" height="6" style="stroke:#C82930;stroke-width:1.0;" width="6" x="17" y="1218.5547"/><text fill="#000000" font-family="sans-serif" font-size="14" lengthAdjust="spacing" textLength="320" x="29" y="1224.9014">_updateSelectedStatus(status: boolean) : void</text></g><!--reverse link IChild to IDropdownServerSideItem--><g id="link_IChild_IDropdownServerSideItem"><path codeLine="39" d="M352.5,285.13 C352.5,304.68 352.5,306.96 352.5,326.83 " fill="none" id="IChild-backto-IDropdownServerSideItem" style="stroke:#272B30;stroke-width:1.0;"/><polygon fill="none" points="352.5,267.13,346.5,285.13,358.5,285.13,352.5,267.13" style="stroke:#272B30;stroke-width:1.0;"/></g><!--reverse link IDropdownServerSideItem to DropdownServerSideItem--><g id="link_IDropdownServerSideItem_DropdownServerSideItem"><path codeLine="73" d="M352.5,637.14 C352.5,656.21 352.5,658.22 352.5,678.59 " fill="none" id="IDropdownServerSideItem-backto-DropdownServerSideItem" style="stroke:#272B30;stroke-width:1.0;stroke-dasharray:7.0,7.0;"/><polygon fill="none" points="352.5,619.14,346.5,637.14,358.5,637.14,352.5,619.14" style="stroke:#272B30;stroke-width:1.0;"/></g><!--SRC=[xLJBRjim4BpxAuZueg1nqAG52XYvHCfBI5CRi5kWA8g04bSoOOfKbfGJjUc_btevbcGxjw90wuljtTdbScQuUibbIf4cn1DKwtD4zUWfeP0CJp-S1k_U3dGRuIfaWFiXD5p6g3B9QbWKHHkONZe4zfxHmO8p892a9YS9c8LYUZCKSH0smgK1Z6W8vC2_G9KozIXdW2l0cSNw1f83ydD0xESDrsx6XI5Z4YWbWCegl8GyK1JP77aS0mAxXTnYj44kumgYGKIN0XAGHVND_EvZ_QzAPv8_PE2pJjKZPp6ONZYmGp3dq4PNYhCg5YweZ65gvmSqkPFMFpxH19hY8z94lr2HsN0cbz9Ujjs8SPqg3Ptsy91HeUVAlt0uQneUTeb0YBcsR7fKYC1gui3ANh4zGrZdncGokmO9oCFsKHgCAp9qUj4h5MQw7vxJW4i6JvsCKN4iO0O2GWFCCPKstlhqUl1sKIQtDlpLCectiFI_ved_WlzfmNTgjrRix7aqslt81s6nQSZ1AplWzSS-vDhAihA5w58Dh4FQwBuaQI8zmSEbJTQaj9FDCLC4ErGNb0fg8eN9vKQdHWDI43sHbVDBmDzWefGQwnFf_tlBexH4n2NN2xSlmL0gmwDyIj5Urg6XuKhEynGsQNe1smFEJqw-re9nwDoeo3T3RadTc4JKMsXBjXh1bv6oOXK_g-ihVA4_Bb2bZcxki_EfFoPNcIndBhIHBammjPRQJj2mfd6wQTwrseMbhspKwqjyH2Z6UksyRz_tjlKbDvmA_WDO-uHsLQdMBhBAvBLG0HLx8RiP7TqhURlvXgsDIaEFIHCkf-iLhKrNe-zKfg64akUzfGY9MbN8tYnsrC_fzbIMCchMLfyPQkmxqULNNyPYcUxQZsVFnySxj-Tl]--></g></svg>