<?xml version="1.0" encoding="UTF-8" standalone="no"?><svg xmlns="http://www.w3.org/2000/svg" xmlns:xlink="http://www.w3.org/1999/xlink" contentScriptType="application/ecmascript" contentStyleType="text/css" height="1295px" preserveAspectRatio="none" style="width:899px;height:1295px;background:#CED4DA;" version="1.1" viewBox="0 0 899 1295" width="899px" zoomAndPan="magnify"><defs><filter height="300%" id="fx0akrlnvf4li" width="300%" x="-1" y="-1"><feGaussianBlur result="blurOut" stdDeviation="2.0"/><feColorMatrix in="blurOut" result="blurOut2" type="matrix" values="0 0 0 0 0 0 0 0 0 0 0 0 0 0 0 0 0 0 .4 0"/><feOffset dx="4.0" dy="4.0" in="blurOut2" result="blurOut3"/><feBlend in="SourceGraphic" in2="blurOut3" mode="normal"/></filter></defs><g><!--MD5=[91331e4d6a4d97b27420d91a5690ae93]
class IFlatpickrTime--><rect codeLine="7" fill="#FFFFFF" filter="url(#fx0akrlnvf4li)" height="307.1016" id="IFlatpickrTime" style="stroke:#272B30;stroke-width:1.5;" width="440" x="235" y="322"/><ellipse cx="410.25" cy="338" fill="#B4A7E5" rx="11" ry="11" style="stroke:#272B30;stroke-width:1.0;"/><path d="M406.6777,334.2651 L406.6777,332.1069 L414.0571,332.1069 L414.0571,334.2651 L411.5918,334.2651 L411.5918,342.3418 L414.0571,342.3418 L414.0571,344.5 L406.6777,344.5 L406.6777,342.3418 L409.1431,342.3418 L409.1431,334.2651 Z " fill="#000000"/><text fill="#000000" font-family="sans-serif" font-size="12" font-style="italic" lengthAdjust="spacing" textLength="81" x="430.75" y="342.5352">IFlatpickrTime</text><line style="stroke:#272B30;stroke-width:1.5;" x1="236" x2="674" y1="354" y2="354"/><ellipse cx="246" cy="365" rx="3" ry="3" style="stroke:#038048;stroke-width:1.0;fill:none;"/><text fill="#000000" font-family="sans-serif" font-size="11" lengthAdjust="spacing" textLength="84" x="255" y="368.6348">isBuilt : boolean</text><ellipse cx="246" cy="377.9551" rx="3" ry="3" style="stroke:#038048;stroke-width:1.0;fill:none;"/><text fill="#000000" font-family="sans-serif" font-size="11" lengthAdjust="spacing" textLength="99" x="255" y="381.5898">provider : flatpickr</text><ellipse cx="246" cy="390.9102" rx="3" ry="3" style="stroke:#038048;stroke-width:1.0;fill:none;"/><text fill="#000000" font-family="sans-serif" font-size="11" lengthAdjust="spacing" textLength="142" x="255" y="394.5449">providerInfo : ProviderInfo</text><ellipse cx="246" cy="403.8652" rx="3" ry="3" style="stroke:#038048;stroke-width:1.0;fill:none;"/><text fill="#000000" font-family="sans-serif" font-size="11" lengthAdjust="spacing" textLength="142" x="255" y="407.5">selfElement : HTMLElement</text><ellipse cx="246" cy="416.8203" rx="3" ry="3" style="stroke:#038048;stroke-width:1.0;fill:none;"/><text fill="#000000" font-family="sans-serif" font-size="11" lengthAdjust="spacing" textLength="88" x="255" y="420.4551">uniqueId : string</text><ellipse cx="246" cy="429.7754" rx="3" ry="3" style="stroke:#038048;stroke-width:1.0;fill:none;"/><text fill="#000000" font-family="sans-serif" font-size="11" lengthAdjust="spacing" textLength="86" x="255" y="433.4102">widgetId : string</text><line style="stroke:#272B30;stroke-width:1.5;" x1="236" x2="674" y1="439.7305" y2="439.7305"/><ellipse cx="246" cy="450.7305" fill="#84BE84" rx="3" ry="3" style="stroke:#038048;stroke-width:1.0;"/><text fill="#000000" font-family="sans-serif" font-size="11" lengthAdjust="spacing" textLength="67" x="255" y="454.3652">build() : void</text><ellipse cx="246" cy="463.6855" fill="#84BE84" rx="3" ry="3" style="stroke:#038048;stroke-width:1.0;"/><text fill="#000000" font-family="sans-serif" font-size="11" lengthAdjust="spacing" textLength="377" x="255" y="467.3203">changeProperty(propertyName: string, propertyValue: unknown) : void</text><ellipse cx="246" cy="476.6406" fill="#84BE84" rx="3" ry="3" style="stroke:#038048;stroke-width:1.0;"/><text fill="#000000" font-family="sans-serif" font-size="11" lengthAdjust="spacing" textLength="66" x="255" y="480.2754">clear() : void</text><ellipse cx="246" cy="489.5957" fill="#84BE84" rx="3" ry="3" style="stroke:#038048;stroke-width:1.0;"/><text fill="#000000" font-family="sans-serif" font-size="11" lengthAdjust="spacing" textLength="68" x="255" y="493.2305">close() : void</text><ellipse cx="246" cy="502.5508" fill="#84BE84" rx="3" ry="3" style="stroke:#038048;stroke-width:1.0;"/><text fill="#000000" font-family="sans-serif" font-size="11" lengthAdjust="spacing" textLength="82" x="255" y="506.1855">dispose() : void</text><ellipse cx="246" cy="515.5059" fill="#84BE84" rx="3" ry="3" style="stroke:#038048;stroke-width:1.0;"/><text fill="#000000" font-family="sans-serif" font-size="11" lengthAdjust="spacing" textLength="168" x="255" y="519.1406">equalsToID(id: string) : boolean</text><ellipse cx="246" cy="528.4609" fill="#84BE84" rx="3" ry="3" style="stroke:#038048;stroke-width:1.0;"/><text fill="#000000" font-family="sans-serif" font-size="11" lengthAdjust="spacing" textLength="67" x="255" y="532.0957">open() : void</text><ellipse cx="246" cy="541.416" fill="#84BE84" rx="3" ry="3" style="stroke:#038048;stroke-width:1.0;"/><text fill="#000000" font-family="sans-serif" font-size="11" lengthAdjust="spacing" textLength="335" x="255" y="545.0508">registerCallback(eventName: string, callback: OSGeneric) : void</text><ellipse cx="246" cy="554.3711" fill="#84BE84" rx="3" ry="3" style="stroke:#038048;stroke-width:1.0;"/><text fill="#000000" font-family="sans-serif" font-size="11" lengthAdjust="spacing" textLength="174" x="255" y="558.0059">setLanguage(value: string) : void</text><ellipse cx="246" cy="567.3262" fill="#84BE84" rx="3" ry="3" style="stroke:#038048;stroke-width:1.0;"/><text fill="#000000" font-family="sans-serif" font-size="11" lengthAdjust="spacing" textLength="256" x="255" y="570.9609">setProviderConfigs(providerConfigs: any) : void</text><ellipse cx="246" cy="580.2813" fill="#84BE84" rx="3" ry="3" style="stroke:#038048;stroke-width:1.0;"/><text fill="#000000" font-family="sans-serif" font-size="11" lengthAdjust="spacing" textLength="414" x="255" y="583.916">setProviderEvent(eventName: string, callback: Generic, uniqueId: string) : void</text><ellipse cx="246" cy="593.2363" fill="#84BE84" rx="3" ry="3" style="stroke:#038048;stroke-width:1.0;"/><text fill="#000000" font-family="sans-serif" font-size="11" lengthAdjust="spacing" textLength="221" x="255" y="596.8711">unsetProviderEvent(eventId: string) : void</text><ellipse cx="246" cy="606.1914" fill="#84BE84" rx="3" ry="3" style="stroke:#038048;stroke-width:1.0;"/><text fill="#000000" font-family="sans-serif" font-size="11" lengthAdjust="spacing" textLength="193" x="255" y="609.8262">updateInitialTime(time: string) : void</text><ellipse cx="246" cy="619.1465" fill="#84BE84" rx="3" ry="3" style="stroke:#038048;stroke-width:1.0;"/><text fill="#000000" font-family="sans-serif" font-size="11" lengthAdjust="spacing" textLength="296" x="255" y="622.7813">updateProviderEvents(providerInfo: ProviderInfo) : void</text><!--MD5=[b9410e342671877b55711b5932e65ff0]
class ITimePicker--><rect codeLine="29" fill="#FFFFFF" filter="url(#fx0akrlnvf4li)" height="255.2813" id="ITimePicker" style="stroke:#272B30;stroke-width:1.5;" width="440" x="7" y="7"/><ellipse cx="189.25" cy="23" fill="#B4A7E5" rx="11" ry="11" style="stroke:#272B30;stroke-width:1.0;"/><path d="M185.6777,19.2651 L185.6777,17.1069 L193.0571,17.1069 L193.0571,19.2651 L190.5918,19.2651 L190.5918,27.3418 L193.0571,27.3418 L193.0571,29.5 L185.6777,29.5 L185.6777,27.3418 L188.1431,27.3418 L188.1431,19.2651 Z " fill="#000000"/><text fill="#000000" font-family="sans-serif" font-size="12" font-style="italic" lengthAdjust="spacing" textLength="67" x="209.75" y="27.5352">ITimePicker</text><line style="stroke:#272B30;stroke-width:1.5;" x1="8" x2="446" y1="39" y2="39"/><ellipse cx="18" cy="50" rx="3" ry="3" style="stroke:#038048;stroke-width:1.0;fill:none;"/><text fill="#000000" font-family="sans-serif" font-size="11" lengthAdjust="spacing" textLength="84" x="27" y="53.6348">isBuilt : boolean</text><ellipse cx="18" cy="62.9551" rx="3" ry="3" style="stroke:#038048;stroke-width:1.0;fill:none;"/><text fill="#000000" font-family="sans-serif" font-size="11" lengthAdjust="spacing" textLength="142" x="27" y="66.5898">selfElement : HTMLElement</text><ellipse cx="18" cy="75.9102" rx="3" ry="3" style="stroke:#038048;stroke-width:1.0;fill:none;"/><text fill="#000000" font-family="sans-serif" font-size="11" lengthAdjust="spacing" textLength="88" x="27" y="79.5449">uniqueId : string</text><ellipse cx="18" cy="88.8652" rx="3" ry="3" style="stroke:#038048;stroke-width:1.0;fill:none;"/><text fill="#000000" font-family="sans-serif" font-size="11" lengthAdjust="spacing" textLength="86" x="27" y="92.5">widgetId : string</text><line style="stroke:#272B30;stroke-width:1.5;" x1="8" x2="446" y1="98.8203" y2="98.8203"/><ellipse cx="18" cy="109.8203" fill="#84BE84" rx="3" ry="3" style="stroke:#038048;stroke-width:1.0;"/><text fill="#000000" font-family="sans-serif" font-size="11" lengthAdjust="spacing" textLength="67" x="27" y="113.4551">build() : void</text><ellipse cx="18" cy="122.7754" fill="#84BE84" rx="3" ry="3" style="stroke:#038048;stroke-width:1.0;"/><text fill="#000000" font-family="sans-serif" font-size="11" lengthAdjust="spacing" textLength="377" x="27" y="126.4102">changeProperty(propertyName: string, propertyValue: unknown) : void</text><ellipse cx="18" cy="135.7305" fill="#84BE84" rx="3" ry="3" style="stroke:#038048;stroke-width:1.0;"/><text fill="#000000" font-family="sans-serif" font-size="11" lengthAdjust="spacing" textLength="66" x="27" y="139.3652">clear() : void</text><ellipse cx="18" cy="148.6855" fill="#84BE84" rx="3" ry="3" style="stroke:#038048;stroke-width:1.0;"/><text fill="#000000" font-family="sans-serif" font-size="11" lengthAdjust="spacing" textLength="68" x="27" y="152.3203">close() : void</text><ellipse cx="18" cy="161.6406" fill="#84BE84" rx="3" ry="3" style="stroke:#038048;stroke-width:1.0;"/><text fill="#000000" font-family="sans-serif" font-size="11" lengthAdjust="spacing" textLength="82" x="27" y="165.2754">dispose() : void</text><ellipse cx="18" cy="174.5957" fill="#84BE84" rx="3" ry="3" style="stroke:#038048;stroke-width:1.0;"/><text fill="#000000" font-family="sans-serif" font-size="11" lengthAdjust="spacing" textLength="168" x="27" y="178.2305">equalsToID(id: string) : boolean</text><ellipse cx="18" cy="187.5508" fill="#84BE84" rx="3" ry="3" style="stroke:#038048;stroke-width:1.0;"/><text fill="#000000" font-family="sans-serif" font-size="11" lengthAdjust="spacing" textLength="67" x="27" y="191.1855">open() : void</text><ellipse cx="18" cy="200.5059" fill="#84BE84" rx="3" ry="3" style="stroke:#038048;stroke-width:1.0;"/><text fill="#000000" font-family="sans-serif" font-size="11" lengthAdjust="spacing" textLength="174" x="27" y="204.1406">setLanguage(value: string) : void</text><ellipse cx="18" cy="213.4609" fill="#84BE84" rx="3" ry="3" style="stroke:#038048;stroke-width:1.0;"/><text fill="#000000" font-family="sans-serif" font-size="11" lengthAdjust="spacing" textLength="256" x="27" y="217.0957">setProviderConfigs(providerConfigs: any) : void</text><ellipse cx="18" cy="226.416" fill="#84BE84" rx="3" ry="3" style="stroke:#038048;stroke-width:1.0;"/><text fill="#000000" font-family="sans-serif" font-size="11" lengthAdjust="spacing" textLength="414" x="27" y="230.0508">setProviderEvent(eventName: string, callback: Generic, uniqueId: string) : void</text><ellipse cx="18" cy="239.3711" fill="#84BE84" rx="3" ry="3" style="stroke:#038048;stroke-width:1.0;"/><text fill="#000000" font-family="sans-serif" font-size="11" lengthAdjust="spacing" textLength="221" x="27" y="243.0059">unsetProviderEvent(eventId: string) : void</text><ellipse cx="18" cy="252.3262" fill="#84BE84" rx="3" ry="3" style="stroke:#038048;stroke-width:1.0;"/><text fill="#000000" font-family="sans-serif" font-size="11" lengthAdjust="spacing" textLength="193" x="27" y="255.9609">updateInitialTime(time: string) : void</text><!--MD5=[7edd5dd95bcecfba7ed5190d73f88bdb]
class IProviderPattern<Flatpickr>--><rect codeLine="48" fill="#FFFFFF" filter="url(#fx0akrlnvf4li)" height="216.416" id="IProviderPattern&lt;Flatpickr&gt;" style="stroke:#272B30;stroke-width:1.5;" width="403" x="482.5" y="26.5"/><ellipse cx="599.25" cy="42.5" fill="#B4A7E5" rx="11" ry="11" style="stroke:#272B30;stroke-width:1.0;"/><path d="M595.6777,38.7651 L595.6777,36.6069 L603.0571,36.6069 L603.0571,38.7651 L600.5918,38.7651 L600.5918,46.8418 L603.0571,46.8418 L603.0571,49 L595.6777,49 L595.6777,46.8418 L598.1431,46.8418 L598.1431,38.7651 Z " fill="#000000"/><text fill="#000000" font-family="sans-serif" font-size="12" font-style="italic" lengthAdjust="spacing" textLength="161" x="619.75" y="47.0352">IProviderPattern&lt;Flatpickr&gt;</text><line style="stroke:#272B30;stroke-width:1.5;" x1="483.5" x2="884.5" y1="58.5" y2="58.5"/><ellipse cx="493.5" cy="69.5" rx="3" ry="3" style="stroke:#038048;stroke-width:1.0;fill:none;"/><text fill="#000000" font-family="sans-serif" font-size="11" lengthAdjust="spacing" textLength="84" x="502.5" y="73.1348">isBuilt : boolean</text><ellipse cx="493.5" cy="82.4551" rx="3" ry="3" style="stroke:#038048;stroke-width:1.0;fill:none;"/><text fill="#000000" font-family="sans-serif" font-size="11" lengthAdjust="spacing" textLength="101" x="502.5" y="86.0898">provider : Flatpickr</text><ellipse cx="493.5" cy="95.4102" rx="3" ry="3" style="stroke:#038048;stroke-width:1.0;fill:none;"/><text fill="#000000" font-family="sans-serif" font-size="11" lengthAdjust="spacing" textLength="142" x="502.5" y="99.0449">providerInfo : ProviderInfo</text><ellipse cx="493.5" cy="108.3652" rx="3" ry="3" style="stroke:#038048;stroke-width:1.0;fill:none;"/><text fill="#000000" font-family="sans-serif" font-size="11" lengthAdjust="spacing" textLength="142" x="502.5" y="112">selfElement : HTMLElement</text><ellipse cx="493.5" cy="121.3203" rx="3" ry="3" style="stroke:#038048;stroke-width:1.0;fill:none;"/><text fill="#000000" font-family="sans-serif" font-size="11" lengthAdjust="spacing" textLength="88" x="502.5" y="124.9551">uniqueId : string</text><ellipse cx="493.5" cy="134.2754" rx="3" ry="3" style="stroke:#038048;stroke-width:1.0;fill:none;"/><text fill="#000000" font-family="sans-serif" font-size="11" lengthAdjust="spacing" textLength="86" x="502.5" y="137.9102">widgetId : string</text><line style="stroke:#272B30;stroke-width:1.5;" x1="483.5" x2="884.5" y1="144.2305" y2="144.2305"/><ellipse cx="493.5" cy="155.2305" fill="#84BE84" rx="3" ry="3" style="stroke:#038048;stroke-width:1.0;"/><text fill="#000000" font-family="sans-serif" font-size="11" lengthAdjust="spacing" textLength="67" x="502.5" y="158.8652">build() : void</text><ellipse cx="493.5" cy="168.1855" fill="#84BE84" rx="3" ry="3" style="stroke:#038048;stroke-width:1.0;"/><text fill="#000000" font-family="sans-serif" font-size="11" lengthAdjust="spacing" textLength="377" x="502.5" y="171.8203">changeProperty(propertyName: string, propertyValue: unknown) : void</text><ellipse cx="493.5" cy="181.1406" fill="#84BE84" rx="3" ry="3" style="stroke:#038048;stroke-width:1.0;"/><text fill="#000000" font-family="sans-serif" font-size="11" lengthAdjust="spacing" textLength="82" x="502.5" y="184.7754">dispose() : void</text><ellipse cx="493.5" cy="194.0957" fill="#84BE84" rx="3" ry="3" style="stroke:#038048;stroke-width:1.0;"/><text fill="#000000" font-family="sans-serif" font-size="11" lengthAdjust="spacing" textLength="168" x="502.5" y="197.7305">equalsToID(id: string) : boolean</text><ellipse cx="493.5" cy="207.0508" fill="#84BE84" rx="3" ry="3" style="stroke:#038048;stroke-width:1.0;"/><text fill="#000000" font-family="sans-serif" font-size="11" lengthAdjust="spacing" textLength="335" x="502.5" y="210.6855">registerCallback(eventName: string, callback: OSGeneric) : void</text><ellipse cx="493.5" cy="220.0059" fill="#84BE84" rx="3" ry="3" style="stroke:#038048;stroke-width:1.0;"/><text fill="#000000" font-family="sans-serif" font-size="11" lengthAdjust="spacing" textLength="231" x="502.5" y="223.6406">setProviderConfigs(newConfigs: any) : void</text><ellipse cx="493.5" cy="232.9609" fill="#84BE84" rx="3" ry="3" style="stroke:#038048;stroke-width:1.0;"/><text fill="#000000" font-family="sans-serif" font-size="11" lengthAdjust="spacing" textLength="296" x="502.5" y="236.5957">updateProviderEvents(providerInfo: ProviderInfo) : void</text><!--MD5=[5fa058ba614c0dc6a5d670c1dec03fc8]
class OSUIFlatpickrTime--><rect codeLine="64" fill="#FFFFFF" filter="url(#fx0akrlnvf4li)" height="592.1133" id="OSUIFlatpickrTime" style="stroke:#272B30;stroke-width:1.5;" width="548" x="181" y="689"/><ellipse cx="398.75" cy="705" fill="#ADD1B2" rx="11" ry="11" style="stroke:#272B30;stroke-width:1.0;"/><path d="M401.2231,711.1431 Q400.6421,711.4419 400.0029,711.5913 Q399.3638,711.7407 398.6582,711.7407 Q396.1514,711.7407 394.8315,710.0889 Q393.5117,708.437 393.5117,705.3159 Q393.5117,702.1865 394.8315,700.5347 Q396.1514,698.8828 398.6582,698.8828 Q399.3638,698.8828 400.0112,699.0322 Q400.6587,699.1816 401.2231,699.4805 L401.2231,702.2031 Q400.5923,701.6221 399.9988,701.3523 Q399.4053,701.0825 398.7744,701.0825 Q397.4297,701.0825 396.7449,702.1492 Q396.0601,703.2158 396.0601,705.3159 Q396.0601,707.4077 396.7449,708.4744 Q397.4297,709.541 398.7744,709.541 Q399.4053,709.541 399.9988,709.2712 Q400.5923,709.0015 401.2231,708.4204 Z " fill="#000000"/><text fill="#000000" font-family="sans-serif" font-size="12" lengthAdjust="spacing" textLength="104" x="419.25" y="709.5352">OSUIFlatpickrTime</text><line style="stroke:#272B30;stroke-width:1.5;" x1="182" x2="728" y1="721" y2="721"/><polygon fill="none" points="192,727,196,731,192,735,188,731" style="stroke:#B38D22;stroke-width:1.0;"/><text fill="#000000" font-family="sans-serif" font-size="11" lengthAdjust="spacing" textLength="304" x="201" y="735.6348">providerEventsManagerInstance : IProviderEventManager</text><polygon fill="none" points="192,739.9551,196,743.9551,192,747.9551,188,743.9551" style="stroke:#B38D22;stroke-width:1.0;"/><text fill="#000000" font-family="sans-serif" font-size="11" lengthAdjust="spacing" textLength="212" x="201" y="748.5898">_flatpickrInputElem : HTMLInputElement</text><polygon fill="none" points="192,752.9102,196,756.9102,192,760.9102,188,756.9102" style="stroke:#B38D22;stroke-width:1.0;"/><text fill="#000000" font-family="sans-serif" font-size="11" lengthAdjust="spacing" textLength="245" x="201" y="761.5449">_onChangeCallbackEvent : OSOnChangeEvent</text><polygon fill="none" points="192,765.8652,196,769.8652,192,773.8652,188,769.8652" style="stroke:#B38D22;stroke-width:1.0;"/><text fill="#000000" font-family="sans-serif" font-size="11" lengthAdjust="spacing" textLength="105" x="201" y="774.5">_provider : flatpickr</text><polygon fill="none" points="192,778.8203,196,782.8203,192,786.8203,188,782.8203" style="stroke:#B38D22;stroke-width:1.0;"/><text fill="#000000" font-family="sans-serif" font-size="11" lengthAdjust="spacing" textLength="148" x="201" y="787.4551">_providerInfo : ProviderInfo</text><polygon fill="none" points="192,791.7754,196,795.7754,192,799.7754,188,795.7754" style="stroke:#B38D22;stroke-width:1.0;"/><text fill="#000000" font-family="sans-serif" font-size="11" lengthAdjust="spacing" textLength="268" x="201" y="800.4102">_timePickerProviderInputElem : HTMLInputElement</text><rect fill="none" height="6" style="stroke:#C82930;stroke-width:1.0;" width="6" x="189" y="806.7305"/><text fill="#000000" font-family="sans-serif" font-size="11" lengthAdjust="spacing" textLength="301" x="201" y="813.3652">_bodyScrollCommonBehaviour : UpdatePositionOnScroll</text><rect fill="none" height="6" style="stroke:#C82930;stroke-width:1.0;" width="6" x="189" y="819.6855"/><text fill="#000000" font-family="sans-serif" font-size="11" lengthAdjust="spacing" textLength="174" x="201" y="826.3203">_flatpickrOpts : FlatpickrOptions</text><rect fill="none" height="6" style="stroke:#C82930;stroke-width:1.0;" width="6" x="189" y="832.6406"/><text fill="#000000" font-family="sans-serif" font-size="11" lengthAdjust="spacing" textLength="203" x="201" y="839.2754">_onInitializeCallbackEvent : OSGeneric</text><rect fill="none" height="6" style="stroke:#C82930;stroke-width:1.0;" width="6" x="189" y="845.5957"/><text fill="#000000" font-family="sans-serif" font-size="11" lengthAdjust="spacing" textLength="221" x="201" y="852.2305">_zindexCommonBehavior : UpdateZindex</text><line style="stroke:#272B30;stroke-width:1.5;" x1="182" x2="728" y1="858.5508" y2="858.5508"/><ellipse cx="192" cy="869.5508" fill="#84BE84" rx="3" ry="3" style="stroke:#038048;stroke-width:1.0;"/><text fill="#000000" font-family="sans-serif" font-size="11" lengthAdjust="spacing" textLength="67" x="201" y="873.1855">build() : void</text><ellipse cx="192" cy="882.5059" fill="#84BE84" rx="3" ry="3" style="stroke:#038048;stroke-width:1.0;"/><text fill="#000000" font-family="sans-serif" font-size="11" lengthAdjust="spacing" textLength="377" x="201" y="886.1406">changeProperty(propertyName: string, propertyValue: unknown) : void</text><ellipse cx="192" cy="895.4609" fill="#84BE84" rx="3" ry="3" style="stroke:#038048;stroke-width:1.0;"/><text fill="#000000" font-family="sans-serif" font-size="11" lengthAdjust="spacing" textLength="186" x="201" y="899.0957">checkAddedProviderEvents() : void</text><ellipse cx="192" cy="908.416" fill="#84BE84" rx="3" ry="3" style="stroke:#038048;stroke-width:1.0;"/><text fill="#000000" font-family="sans-serif" font-size="11" lengthAdjust="spacing" textLength="194" x="201" y="912.0508">checkPendingProviderEvents() : void</text><ellipse cx="192" cy="921.3711" fill="#84BE84" rx="3" ry="3" style="stroke:#038048;stroke-width:1.0;"/><text fill="#000000" font-family="sans-serif" font-size="11" lengthAdjust="spacing" textLength="66" x="201" y="925.0059">clear() : void</text><ellipse cx="192" cy="934.3262" fill="#84BE84" rx="3" ry="3" style="stroke:#038048;stroke-width:1.0;"/><text fill="#000000" font-family="sans-serif" font-size="11" lengthAdjust="spacing" textLength="68" x="201" y="937.9609">close() : void</text><ellipse cx="192" cy="947.2813" fill="#84BE84" rx="3" ry="3" style="stroke:#038048;stroke-width:1.0;"/><text fill="#000000" font-family="sans-serif" font-size="11" lengthAdjust="spacing" textLength="82" x="201" y="950.916">dispose() : void</text><ellipse cx="192" cy="960.2363" fill="#84BE84" rx="3" ry="3" style="stroke:#038048;stroke-width:1.0;"/><text fill="#000000" font-family="sans-serif" font-size="11" lengthAdjust="spacing" textLength="207" x="201" y="963.8711">equalsToID(patternId: string) : boolean</text><ellipse cx="192" cy="973.1914" fill="#84BE84" rx="3" ry="3" style="stroke:#038048;stroke-width:1.0;"/><text fill="#000000" font-family="sans-serif" font-size="11" lengthAdjust="spacing" textLength="67" x="201" y="976.8262">open() : void</text><ellipse cx="192" cy="986.1465" fill="#84BE84" rx="3" ry="3" style="stroke:#038048;stroke-width:1.0;"/><text fill="#000000" font-family="sans-serif" font-size="11" lengthAdjust="spacing" textLength="335" x="201" y="989.7813">registerCallback(eventName: string, callback: OSGeneric) : void</text><ellipse cx="192" cy="999.1016" fill="#84BE84" rx="3" ry="3" style="stroke:#038048;stroke-width:1.0;"/><text fill="#000000" font-family="sans-serif" font-size="11" lengthAdjust="spacing" textLength="226" x="201" y="1002.7363">setEditableInput(isEditable: boolean) : void</text><ellipse cx="192" cy="1012.0566" fill="#84BE84" rx="3" ry="3" style="stroke:#038048;stroke-width:1.0;"/><text fill="#000000" font-family="sans-serif" font-size="11" lengthAdjust="spacing" textLength="174" x="201" y="1015.6914">setLanguage(value: string) : void</text><ellipse cx="192" cy="1025.0117" fill="#84BE84" rx="3" ry="3" style="stroke:#038048;stroke-width:1.0;"/><text fill="#000000" font-family="sans-serif" font-size="11" lengthAdjust="spacing" textLength="301" x="201" y="1028.6465">setProviderConfigs(newConfigs: FlatpickrOptions) : void</text><ellipse cx="192" cy="1037.9668" fill="#84BE84" rx="3" ry="3" style="stroke:#038048;stroke-width:1.0;"/><text fill="#000000" font-family="sans-serif" font-size="11" lengthAdjust="spacing" textLength="522" x="201" y="1041.6016">setProviderEvent(eventName: string, callback: Generic, uniqueId: string, saveEvent: boolean) : void</text><ellipse cx="192" cy="1050.9219" fill="#84BE84" rx="3" ry="3" style="stroke:#038048;stroke-width:1.0;"/><text fill="#000000" font-family="sans-serif" font-size="11" lengthAdjust="spacing" textLength="244" x="201" y="1054.5566">toggleNativeBehavior(isNative: boolean) : void</text><ellipse cx="192" cy="1063.877" fill="#84BE84" rx="3" ry="3" style="stroke:#038048;stroke-width:1.0;"/><text fill="#000000" font-family="sans-serif" font-size="11" lengthAdjust="spacing" textLength="221" x="201" y="1067.5117">unsetProviderEvent(eventId: string) : void</text><ellipse cx="192" cy="1076.832" fill="#84BE84" rx="3" ry="3" style="stroke:#038048;stroke-width:1.0;"/><text fill="#000000" font-family="sans-serif" font-size="11" lengthAdjust="spacing" textLength="198" x="201" y="1080.4668">updateInitialTime(value: string) : void</text><ellipse cx="192" cy="1089.7871" fill="#84BE84" rx="3" ry="3" style="stroke:#038048;stroke-width:1.0;"/><text fill="#000000" font-family="sans-serif" font-size="11" lengthAdjust="spacing" textLength="296" x="201" y="1093.4219">updateProviderEvents(providerInfo: ProviderInfo) : void</text><polygon fill="#FFFF44" points="192,1097.7422,196,1101.7422,192,1105.7422,188,1101.7422" style="stroke:#B38D22;stroke-width:1.0;"/><text fill="#000000" font-family="sans-serif" font-size="11" lengthAdjust="spacing" textLength="125" x="201" y="1106.377">createdInstance() : void</text><polygon fill="#FFFF44" points="192,1110.6973,196,1114.6973,192,1118.6973,188,1114.6973" style="stroke:#B38D22;stroke-width:1.0;"/><text fill="#000000" font-family="sans-serif" font-size="11" lengthAdjust="spacing" textLength="163" x="201" y="1119.332">createProviderInstance() : void</text><polygon fill="#FFFF44" points="192,1123.6523,196,1127.6523,192,1131.6523,188,1127.6523" style="stroke:#B38D22;stroke-width:1.0;"/><text fill="#000000" font-family="sans-serif" font-size="11" lengthAdjust="spacing" textLength="96" x="201" y="1132.2871">finishBuild() : void</text><polygon fill="#FFFF44" points="192,1136.6074,196,1140.6074,192,1144.6074,188,1140.6074" style="stroke:#B38D22;stroke-width:1.0;"/><text fill="#000000" font-family="sans-serif" font-size="11" lengthAdjust="spacing" textLength="269" x="201" y="1145.2422">onTimeSelectedEvent(selectedTime: string[]) : void</text><polygon fill="#FFFF44" points="192,1149.5625,196,1153.5625,192,1157.5625,188,1153.5625" style="stroke:#B38D22;stroke-width:1.0;"/><text fill="#000000" font-family="sans-serif" font-size="11" lengthAdjust="spacing" textLength="124" x="201" y="1158.1973">prepareConfigs() : void</text><polygon fill="#FFFF44" points="192,1162.5176,196,1166.5176,192,1170.5176,188,1166.5176" style="stroke:#B38D22;stroke-width:1.0;"/><text fill="#000000" font-family="sans-serif" font-size="11" lengthAdjust="spacing" textLength="77" x="201" y="1171.1523">redraw() : void</text><polygon fill="#FFFF44" points="192,1175.4727,196,1179.4727,192,1183.4727,188,1179.4727" style="stroke:#B38D22;stroke-width:1.0;"/><text fill="#000000" font-family="sans-serif" font-size="11" lengthAdjust="spacing" textLength="140" x="201" y="1184.1074">setA11YProperties() : void</text><polygon fill="#FFFF44" points="192,1188.4277,196,1192.4277,192,1196.4277,188,1192.4277" style="stroke:#B38D22;stroke-width:1.0;"/><text fill="#000000" font-family="sans-serif" font-size="11" lengthAdjust="spacing" textLength="107" x="201" y="1197.0625">setCallbacks() : void</text><polygon fill="#FFFF44" points="192,1201.3828,196,1205.3828,192,1209.3828,188,1205.3828" style="stroke:#B38D22;stroke-width:1.0;"/><text fill="#000000" font-family="sans-serif" font-size="11" lengthAdjust="spacing" textLength="129" x="201" y="1210.0176">setHtmlElements() : void</text><polygon fill="#FFFF44" points="192,1214.3379,196,1218.3379,192,1222.3379,188,1218.3379" style="stroke:#B38D22;stroke-width:1.0;"/><text fill="#000000" font-family="sans-serif" font-size="11" lengthAdjust="spacing" textLength="357" x="201" y="1222.9727">triggerPlatformEventInitialized(platFormCallback: OSGeneric) : void</text><polygon fill="#FFFF44" points="192,1227.293,196,1231.293,192,1235.293,188,1231.293" style="stroke:#B38D22;stroke-width:1.0;"/><text fill="#000000" font-family="sans-serif" font-size="11" lengthAdjust="spacing" textLength="121" x="201" y="1235.9277">unsetCallbacks() : void</text><polygon fill="#FFFF44" points="192,1240.248,196,1244.248,192,1248.248,188,1244.248" style="stroke:#B38D22;stroke-width:1.0;"/><text fill="#000000" font-family="sans-serif" font-size="11" lengthAdjust="spacing" textLength="143" x="201" y="1248.8828">unsetHtmlElements() : void</text><rect fill="#F24D5C" height="6" style="stroke:#C82930;stroke-width:1.0;" width="6" x="189" y="1255.2031"/><text fill="#000000" font-family="sans-serif" font-size="11" lengthAdjust="spacing" textLength="116" x="201" y="1261.8379">_setAttributes() : void</text><rect fill="#F24D5C" height="6" style="stroke:#C82930;stroke-width:1.0;" width="6" x="189" y="1268.1582"/><text fill="#000000" font-family="sans-serif" font-size="11" lengthAdjust="spacing" textLength="171" x="201" y="1274.793">_setCalendarCssClasses() : void</text><!--MD5=[da4915351e03a8d531817dafad04ce33]
reverse link ITimePicker to IFlatpickrTime--><path codeLine="47" d="M323.69,279.27 C333.18,293.37 342.83,307.72 352.37,321.9 " fill="none" id="ITimePicker-backto-IFlatpickrTime" style="stroke:#272B30;stroke-width:1.0;"/><polygon fill="none" points="317.58,282.72,312.22,262.21,329.19,274.9,317.58,282.72" style="stroke:#272B30;stroke-width:1.0;"/><!--MD5=[60c4c248f20a4b275803055f3dc4c766]
reverse link IProviderPattern<Flatpickr> to IFlatpickrTime--><path codeLine="63" d="M600.22,259.52 C586.54,279.77 572.23,300.96 558.15,321.8 " fill="none" id="IProviderPattern&lt;Flatpickr&gt;-backto-IFlatpickrTime" style="stroke:#272B30;stroke-width:1.0;"/><polygon fill="none" points="594.55,255.42,611.54,242.76,606.15,263.25,594.55,255.42" style="stroke:#272B30;stroke-width:1.0;"/><!--MD5=[f83d51856ebca7eb6a480dae741120ab]
reverse link IFlatpickrTime to OSUIFlatpickrTime--><path codeLine="108" d="M455,649.13 C455,662.05 455,675.28 455,688.67 " fill="none" id="IFlatpickrTime-backto-OSUIFlatpickrTime" style="stroke:#272B30;stroke-width:1.0;stroke-dasharray:7.0,7.0;"/><polygon fill="none" points="448,649.11,455,629.11,462,649.11,448,649.11" style="stroke:#272B30;stroke-width:1.0;"/><!--MD5=[698ada6092eb3f2266bc9603a9e27d83]
@startuml
skinparam ClassArrowColor #272b30
skinparam ClassBorderColor #272b30
skinparam ClassBackgroundColor #fff
skinparam BackgroundColor #ced4da
hide empty methods
hide empty fields
interface "IFlatpickrTime" {
    +isBuilt : boolean
    +provider : flatpickr
    +providerInfo : ProviderInfo
    +selfElement : HTMLElement
    +uniqueId : string
    +widgetId : string
    +build() : void
    +changeProperty(propertyName: string, propertyValue: unknown) : void
    +clear() : void
    +close() : void
    +dispose() : void
    +equalsToID(id: string) : boolean
    +open() : void
    +registerCallback(eventName: string, callback: OSGeneric) : void
    +setLanguage(value: string) : void
    +setProviderConfigs(providerConfigs: any) : void
    +setProviderEvent(eventName: string, callback: Generic, uniqueId: string) : void
    +unsetProviderEvent(eventId: string) : void
    +updateInitialTime(time: string) : void
    +updateProviderEvents(providerInfo: ProviderInfo) : void
}
interface "ITimePicker" {
    +isBuilt : boolean
    +selfElement : HTMLElement
    +uniqueId : string
    +widgetId : string
    +build() : void
    +changeProperty(propertyName: string, propertyValue: unknown) : void
    +clear() : void
    +close() : void
    +dispose() : void
    +equalsToID(id: string) : boolean
    +open() : void
    +setLanguage(value: string) : void
    +setProviderConfigs(providerConfigs: any) : void
    +setProviderEvent(eventName: string, callback: Generic, uniqueId: string) : void
    +unsetProviderEvent(eventId: string) : void
    +updateInitialTime(time: string) : void
}
"ITimePicker" <|- - "IFlatpickrTime"
interface "IProviderPattern<Flatpickr>" {
    +isBuilt : boolean
    +provider : Flatpickr
    +providerInfo : ProviderInfo
    +selfElement : HTMLElement
    +uniqueId : string
    +widgetId : string
    +build() : void
    +changeProperty(propertyName: string, propertyValue: unknown) : void
    +dispose() : void
    +equalsToID(id: string) : boolean
    +registerCallback(eventName: string, callback: OSGeneric) : void
    +setProviderConfigs(newConfigs: any) : void
    +updateProviderEvents(providerInfo: ProviderInfo) : void
}
"IProviderPattern<Flatpickr>" <|- - "IFlatpickrTime"
class "OSUIFlatpickrTime" {
    #providerEventsManagerInstance : IProviderEventManager
    #_flatpickrInputElem : HTMLInputElement
    #_onChangeCallbackEvent : OSOnChangeEvent
    #_provider : flatpickr
    #_providerInfo : ProviderInfo
    #_timePickerProviderInputElem : HTMLInputElement
    -_bodyScrollCommonBehaviour : UpdatePositionOnScroll
    -_flatpickrOpts : FlatpickrOptions
    -_onInitializeCallbackEvent : OSGeneric
    -_zindexCommonBehavior : UpdateZindex
    +build() : void
    +changeProperty(propertyName: string, propertyValue: unknown) : void
    +checkAddedProviderEvents() : void
    +checkPendingProviderEvents() : void
    +clear() : void
    +close() : void
    +dispose() : void
    +equalsToID(patternId: string) : boolean
    +open() : void
    +registerCallback(eventName: string, callback: OSGeneric) : void
    +setEditableInput(isEditable: boolean) : void
    +setLanguage(value: string) : void
    +setProviderConfigs(newConfigs: FlatpickrOptions) : void
    +setProviderEvent(eventName: string, callback: Generic, uniqueId: string, saveEvent: boolean) : void
    +toggleNativeBehavior(isNative: boolean) : void
    +unsetProviderEvent(eventId: string) : void
    +updateInitialTime(value: string) : void
    +updateProviderEvents(providerInfo: ProviderInfo) : void
    #createdInstance() : void
    #createProviderInstance() : void
    #finishBuild() : void
    #onTimeSelectedEvent(selectedTime: string[]) : void
    #prepareConfigs() : void
    #redraw() : void
    #setA11YProperties() : void
    #setCallbacks() : void
    #setHtmlElements() : void
    #triggerPlatformEventInitialized(platFormCallback: OSGeneric) : void
    #unsetCallbacks() : void
    #unsetHtmlElements() : void
    -_setAttributes() : void
    -_setCalendarCssClasses() : void
}
"IFlatpickrTime" <|.. "OSUIFlatpickrTime"
@enduml

PlantUML version 1.2021.14(Fri Nov 12 16:46:50 WET 2021)
(GPL source distribution)
Java Runtime: Java(TM) SE Runtime Environment
JVM: Java HotSpot(TM) 64-Bit Server VM
Default Encoding: UTF-8
Language: en
Country: PT
--></g></svg>