<?xml version="1.0" encoding="us-ascii" standalone="no"?><svg xmlns="http://www.w3.org/2000/svg" xmlns:xlink="http://www.w3.org/1999/xlink" contentStyleType="text/css" height="1695px" preserveAspectRatio="none" style="width:1112px;height:1695px;background:#CED4DA;" version="1.1" viewBox="0 0 1112 1695" width="1112px" zoomAndPan="magnify"><defs/><g><rect fill="#CED4DA" height="1695" style="stroke:none;stroke-width:1.0;" width="1112" x="0" y="0"/><!--class IFlatpickrTime--><g id="elem_IFlatpickrTime"><rect codeLine="7" fill="#FFFFFF" height="394.2539" id="IFlatpickrTime" rx="2.5" ry="2.5" style="stroke:#272B30;stroke-width:0.5;" width="555" x="290" y="412"/><ellipse cx="514.75" cy="428" fill="#B4A7E5" rx="11" ry="11" style="stroke:#181818;stroke-width:1.0;"/><path d="M511.1777,424.2651 L511.1777,422.1069 L518.5571,422.1069 L518.5571,424.2651 L516.0918,424.2651 L516.0918,432.3418 L518.5571,432.3418 L518.5571,434.5 L511.1777,434.5 L511.1777,432.3418 L513.6431,432.3418 L513.6431,424.2651 Z " fill="#000000"/><text fill="#000000" font-family="sans-serif" font-size="14" font-style="italic" lengthAdjust="spacing" textLength="97" x="535.25" y="433.291">IFlatpickrTime</text><line style="stroke:#272B30;stroke-width:0.5;" x1="291" x2="844" y1="444" y2="444"/><ellipse cx="301" cy="457.7441" fill="none" rx="3" ry="3" style="stroke:#038048;stroke-width:1.0;"/><text fill="#000000" font-family="sans-serif" font-size="14" lengthAdjust="spacing" textLength="109" x="310" y="461.5352">isBuilt : boolean</text><ellipse cx="301" cy="474.2324" fill="none" rx="3" ry="3" style="stroke:#038048;stroke-width:1.0;"/><text fill="#000000" font-family="sans-serif" font-size="14" lengthAdjust="spacing" textLength="116" x="310" y="478.0234">isOpen : boolean</text><ellipse cx="301" cy="490.7207" fill="none" rx="3" ry="3" style="stroke:#038048;stroke-width:1.0;"/><text fill="#000000" font-family="sans-serif" font-size="14" lengthAdjust="spacing" textLength="126" x="310" y="494.5117">provider : flatpickr</text><ellipse cx="301" cy="507.209" fill="none" rx="3" ry="3" style="stroke:#038048;stroke-width:1.0;"/><text fill="#000000" font-family="sans-serif" font-size="14" lengthAdjust="spacing" textLength="181" x="310" y="511">providerInfo : ProviderInfo</text><ellipse cx="301" cy="523.6973" fill="none" rx="3" ry="3" style="stroke:#038048;stroke-width:1.0;"/><text fill="#000000" font-family="sans-serif" font-size="14" lengthAdjust="spacing" textLength="184" x="310" y="527.4883">selfElement : HTMLElement</text><ellipse cx="301" cy="540.1855" fill="none" rx="3" ry="3" style="stroke:#038048;stroke-width:1.0;"/><text fill="#000000" font-family="sans-serif" font-size="14" lengthAdjust="spacing" textLength="113" x="310" y="543.9766">uniqueId : string</text><ellipse cx="301" cy="556.6738" fill="none" rx="3" ry="3" style="stroke:#038048;stroke-width:1.0;"/><text fill="#000000" font-family="sans-serif" font-size="14" lengthAdjust="spacing" textLength="111" x="310" y="560.4648">widgetId : string</text><line style="stroke:#272B30;stroke-width:0.5;" x1="291" x2="844" y1="567.418" y2="567.418"/><ellipse cx="301" cy="581.1621" fill="#84BE84" rx="3" ry="3" style="stroke:#038048;stroke-width:1.0;"/><text fill="#000000" font-family="sans-serif" font-size="14" lengthAdjust="spacing" textLength="86" x="310" y="584.9531">build() : void</text><ellipse cx="301" cy="597.6504" fill="#84BE84" rx="3" ry="3" style="stroke:#038048;stroke-width:1.0;"/><text fill="#000000" font-family="sans-serif" font-size="14" lengthAdjust="spacing" textLength="482" x="310" y="601.4414">changeProperty(propertyName: string, propertyValue: unknown) : void</text><ellipse cx="301" cy="614.1387" fill="#84BE84" rx="3" ry="3" style="stroke:#038048;stroke-width:1.0;"/><text fill="#000000" font-family="sans-serif" font-size="14" lengthAdjust="spacing" textLength="84" x="310" y="617.9297">clear() : void</text><ellipse cx="301" cy="630.627" fill="#84BE84" rx="3" ry="3" style="stroke:#038048;stroke-width:1.0;"/><text fill="#000000" font-family="sans-serif" font-size="14" lengthAdjust="spacing" textLength="86" x="310" y="634.418">close() : void</text><ellipse cx="301" cy="647.1152" fill="#84BE84" rx="3" ry="3" style="stroke:#038048;stroke-width:1.0;"/><text fill="#000000" font-family="sans-serif" font-size="14" lengthAdjust="spacing" textLength="104" x="310" y="650.9063">dispose() : void</text><ellipse cx="301" cy="663.6035" fill="#84BE84" rx="3" ry="3" style="stroke:#038048;stroke-width:1.0;"/><text fill="#000000" font-family="sans-serif" font-size="14" lengthAdjust="spacing" textLength="216" x="310" y="667.3945">equalsToID(id: string) : boolean</text><ellipse cx="301" cy="680.0918" fill="#84BE84" rx="3" ry="3" style="stroke:#038048;stroke-width:1.0;"/><text fill="#000000" font-family="sans-serif" font-size="14" lengthAdjust="spacing" textLength="253" x="310" y="683.8828">open(isOpenedByApi: boolean) : void</text><ellipse cx="301" cy="696.5801" fill="#84BE84" rx="3" ry="3" style="stroke:#038048;stroke-width:1.0;"/><text fill="#000000" font-family="sans-serif" font-size="14" lengthAdjust="spacing" textLength="428" x="310" y="700.3711">registerCallback(eventName: string, callback: OSGeneric) : void</text><ellipse cx="301" cy="713.0684" fill="#84BE84" rx="3" ry="3" style="stroke:#038048;stroke-width:1.0;"/><text fill="#000000" font-family="sans-serif" font-size="14" lengthAdjust="spacing" textLength="222" x="310" y="716.8594">setLanguage(value: string) : void</text><ellipse cx="301" cy="729.5566" fill="#84BE84" rx="3" ry="3" style="stroke:#038048;stroke-width:1.0;"/><text fill="#000000" font-family="sans-serif" font-size="14" lengthAdjust="spacing" textLength="324" x="310" y="733.3477">setProviderConfigs(providerConfigs: any) : void</text><ellipse cx="301" cy="746.0449" fill="#84BE84" rx="3" ry="3" style="stroke:#038048;stroke-width:1.0;"/><text fill="#000000" font-family="sans-serif" font-size="14" lengthAdjust="spacing" textLength="529" x="310" y="749.8359">setProviderEvent(eventName: string, callback: Generic, uniqueId: string) : void</text><ellipse cx="301" cy="762.5332" fill="#84BE84" rx="3" ry="3" style="stroke:#038048;stroke-width:1.0;"/><text fill="#000000" font-family="sans-serif" font-size="14" lengthAdjust="spacing" textLength="281" x="310" y="766.3242">unsetProviderEvent(eventId: string) : void</text><ellipse cx="301" cy="779.0215" fill="#84BE84" rx="3" ry="3" style="stroke:#038048;stroke-width:1.0;"/><text fill="#000000" font-family="sans-serif" font-size="14" lengthAdjust="spacing" textLength="249" x="310" y="782.8125">updateInitialTime(time: string) : void</text><ellipse cx="301" cy="795.5098" fill="#84BE84" rx="3" ry="3" style="stroke:#038048;stroke-width:1.0;"/><text fill="#000000" font-family="sans-serif" font-size="14" lengthAdjust="spacing" textLength="377" x="310" y="799.3008">updateProviderEvents(providerInfo: ProviderInfo) : void</text></g><!--class ITimePicker--><g id="elem_ITimePicker"><rect codeLine="30" fill="#FFFFFF" height="344.7891" id="ITimePicker" rx="2.5" ry="2.5" style="stroke:#272B30;stroke-width:0.5;" width="555" x="7" y="7"/><ellipse cx="240.75" cy="23" fill="#B4A7E5" rx="11" ry="11" style="stroke:#181818;stroke-width:1.0;"/><path d="M237.1777,19.2651 L237.1777,17.1069 L244.5571,17.1069 L244.5571,19.2651 L242.0918,19.2651 L242.0918,27.3418 L244.5571,27.3418 L244.5571,29.5 L237.1777,29.5 L237.1777,27.3418 L239.6431,27.3418 L239.6431,19.2651 Z " fill="#000000"/><text fill="#000000" font-family="sans-serif" font-size="14" font-style="italic" lengthAdjust="spacing" textLength="79" x="261.25" y="28.291">ITimePicker</text><line style="stroke:#272B30;stroke-width:0.5;" x1="8" x2="561" y1="39" y2="39"/><ellipse cx="18" cy="52.7441" fill="none" rx="3" ry="3" style="stroke:#038048;stroke-width:1.0;"/><text fill="#000000" font-family="sans-serif" font-size="14" lengthAdjust="spacing" textLength="109" x="27" y="56.5352">isBuilt : boolean</text><ellipse cx="18" cy="69.2324" fill="none" rx="3" ry="3" style="stroke:#038048;stroke-width:1.0;"/><text fill="#000000" font-family="sans-serif" font-size="14" lengthAdjust="spacing" textLength="116" x="27" y="73.0234">isOpen : boolean</text><ellipse cx="18" cy="85.7207" fill="none" rx="3" ry="3" style="stroke:#038048;stroke-width:1.0;"/><text fill="#000000" font-family="sans-serif" font-size="14" lengthAdjust="spacing" textLength="184" x="27" y="89.5117">selfElement : HTMLElement</text><ellipse cx="18" cy="102.209" fill="none" rx="3" ry="3" style="stroke:#038048;stroke-width:1.0;"/><text fill="#000000" font-family="sans-serif" font-size="14" lengthAdjust="spacing" textLength="113" x="27" y="106">uniqueId : string</text><ellipse cx="18" cy="118.6973" fill="none" rx="3" ry="3" style="stroke:#038048;stroke-width:1.0;"/><text fill="#000000" font-family="sans-serif" font-size="14" lengthAdjust="spacing" textLength="111" x="27" y="122.4883">widgetId : string</text><line style="stroke:#272B30;stroke-width:0.5;" x1="8" x2="561" y1="129.4414" y2="129.4414"/><ellipse cx="18" cy="143.1855" fill="#84BE84" rx="3" ry="3" style="stroke:#038048;stroke-width:1.0;"/><text fill="#000000" font-family="sans-serif" font-size="14" lengthAdjust="spacing" textLength="86" x="27" y="146.9766">build() : void</text><ellipse cx="18" cy="159.6738" fill="#84BE84" rx="3" ry="3" style="stroke:#038048;stroke-width:1.0;"/><text fill="#000000" font-family="sans-serif" font-size="14" lengthAdjust="spacing" textLength="482" x="27" y="163.4648">changeProperty(propertyName: string, propertyValue: unknown) : void</text><ellipse cx="18" cy="176.1621" fill="#84BE84" rx="3" ry="3" style="stroke:#038048;stroke-width:1.0;"/><text fill="#000000" font-family="sans-serif" font-size="14" lengthAdjust="spacing" textLength="84" x="27" y="179.9531">clear() : void</text><ellipse cx="18" cy="192.6504" fill="#84BE84" rx="3" ry="3" style="stroke:#038048;stroke-width:1.0;"/><text fill="#000000" font-family="sans-serif" font-size="14" lengthAdjust="spacing" textLength="86" x="27" y="196.4414">close() : void</text><ellipse cx="18" cy="209.1387" fill="#84BE84" rx="3" ry="3" style="stroke:#038048;stroke-width:1.0;"/><text fill="#000000" font-family="sans-serif" font-size="14" lengthAdjust="spacing" textLength="104" x="27" y="212.9297">dispose() : void</text><ellipse cx="18" cy="225.627" fill="#84BE84" rx="3" ry="3" style="stroke:#038048;stroke-width:1.0;"/><text fill="#000000" font-family="sans-serif" font-size="14" lengthAdjust="spacing" textLength="216" x="27" y="229.418">equalsToID(id: string) : boolean</text><ellipse cx="18" cy="242.1152" fill="#84BE84" rx="3" ry="3" style="stroke:#038048;stroke-width:1.0;"/><text fill="#000000" font-family="sans-serif" font-size="14" lengthAdjust="spacing" textLength="253" x="27" y="245.9063">open(isOpenedByApi: boolean) : void</text><ellipse cx="18" cy="258.6035" fill="#84BE84" rx="3" ry="3" style="stroke:#038048;stroke-width:1.0;"/><text fill="#000000" font-family="sans-serif" font-size="14" lengthAdjust="spacing" textLength="428" x="27" y="262.3945">registerCallback(eventName: string, callback: OSGeneric) : void</text><ellipse cx="18" cy="275.0918" fill="#84BE84" rx="3" ry="3" style="stroke:#038048;stroke-width:1.0;"/><text fill="#000000" font-family="sans-serif" font-size="14" lengthAdjust="spacing" textLength="222" x="27" y="278.8828">setLanguage(value: string) : void</text><ellipse cx="18" cy="291.5801" fill="#84BE84" rx="3" ry="3" style="stroke:#038048;stroke-width:1.0;"/><text fill="#000000" font-family="sans-serif" font-size="14" lengthAdjust="spacing" textLength="324" x="27" y="295.3711">setProviderConfigs(providerConfigs: any) : void</text><ellipse cx="18" cy="308.0684" fill="#84BE84" rx="3" ry="3" style="stroke:#038048;stroke-width:1.0;"/><text fill="#000000" font-family="sans-serif" font-size="14" lengthAdjust="spacing" textLength="529" x="27" y="311.8594">setProviderEvent(eventName: string, callback: Generic, uniqueId: string) : void</text><ellipse cx="18" cy="324.5566" fill="#84BE84" rx="3" ry="3" style="stroke:#038048;stroke-width:1.0;"/><text fill="#000000" font-family="sans-serif" font-size="14" lengthAdjust="spacing" textLength="281" x="27" y="328.3477">unsetProviderEvent(eventId: string) : void</text><ellipse cx="18" cy="341.0449" fill="#84BE84" rx="3" ry="3" style="stroke:#038048;stroke-width:1.0;"/><text fill="#000000" font-family="sans-serif" font-size="14" lengthAdjust="spacing" textLength="249" x="27" y="344.8359">updateInitialTime(time: string) : void</text></g><!--class IProviderPattern<Flatpickr>--><g id="elem_IProviderPattern&lt;Flatpickr&gt;"><rect codeLine="51" fill="#FFFFFF" height="262.3477" id="IProviderPattern&lt;Flatpickr&gt;" rx="2.5" ry="2.5" style="stroke:#272B30;stroke-width:0.5;" width="508" x="597.5" y="48.5"/><ellipse cx="751.75" cy="64.5" fill="#B4A7E5" rx="11" ry="11" style="stroke:#181818;stroke-width:1.0;"/><path d="M748.1777,60.7651 L748.1777,58.6069 L755.5571,58.6069 L755.5571,60.7651 L753.0918,60.7651 L753.0918,68.8418 L755.5571,68.8418 L755.5571,71 L748.1777,71 L748.1777,68.8418 L750.6431,68.8418 L750.6431,60.7651 Z " fill="#000000"/><text fill="#000000" font-family="sans-serif" font-size="14" font-style="italic" lengthAdjust="spacing" textLength="191" x="772.25" y="69.791">IProviderPattern&lt;Flatpickr&gt;</text><line style="stroke:#272B30;stroke-width:0.5;" x1="598.5" x2="1104.5" y1="80.5" y2="80.5"/><ellipse cx="608.5" cy="94.2441" fill="none" rx="3" ry="3" style="stroke:#038048;stroke-width:1.0;"/><text fill="#000000" font-family="sans-serif" font-size="14" lengthAdjust="spacing" textLength="109" x="617.5" y="98.0352">isBuilt : boolean</text><ellipse cx="608.5" cy="110.7324" fill="none" rx="3" ry="3" style="stroke:#038048;stroke-width:1.0;"/><text fill="#000000" font-family="sans-serif" font-size="14" lengthAdjust="spacing" textLength="129" x="617.5" y="114.5234">provider : Flatpickr</text><ellipse cx="608.5" cy="127.2207" fill="none" rx="3" ry="3" style="stroke:#038048;stroke-width:1.0;"/><text fill="#000000" font-family="sans-serif" font-size="14" lengthAdjust="spacing" textLength="181" x="617.5" y="131.0117">providerInfo : ProviderInfo</text><ellipse cx="608.5" cy="143.709" fill="none" rx="3" ry="3" style="stroke:#038048;stroke-width:1.0;"/><text fill="#000000" font-family="sans-serif" font-size="14" lengthAdjust="spacing" textLength="184" x="617.5" y="147.5">selfElement : HTMLElement</text><ellipse cx="608.5" cy="160.1973" fill="none" rx="3" ry="3" style="stroke:#038048;stroke-width:1.0;"/><text fill="#000000" font-family="sans-serif" font-size="14" lengthAdjust="spacing" textLength="113" x="617.5" y="163.9883">uniqueId : string</text><ellipse cx="608.5" cy="176.6855" fill="none" rx="3" ry="3" style="stroke:#038048;stroke-width:1.0;"/><text fill="#000000" font-family="sans-serif" font-size="14" lengthAdjust="spacing" textLength="111" x="617.5" y="180.4766">widgetId : string</text><line style="stroke:#272B30;stroke-width:0.5;" x1="598.5" x2="1104.5" y1="187.4297" y2="187.4297"/><ellipse cx="608.5" cy="201.1738" fill="#84BE84" rx="3" ry="3" style="stroke:#038048;stroke-width:1.0;"/><text fill="#000000" font-family="sans-serif" font-size="14" lengthAdjust="spacing" textLength="86" x="617.5" y="204.9648">build() : void</text><ellipse cx="608.5" cy="217.6621" fill="#84BE84" rx="3" ry="3" style="stroke:#038048;stroke-width:1.0;"/><text fill="#000000" font-family="sans-serif" font-size="14" lengthAdjust="spacing" textLength="482" x="617.5" y="221.4531">changeProperty(propertyName: string, propertyValue: unknown) : void</text><ellipse cx="608.5" cy="234.1504" fill="#84BE84" rx="3" ry="3" style="stroke:#038048;stroke-width:1.0;"/><text fill="#000000" font-family="sans-serif" font-size="14" lengthAdjust="spacing" textLength="104" x="617.5" y="237.9414">dispose() : void</text><ellipse cx="608.5" cy="250.6387" fill="#84BE84" rx="3" ry="3" style="stroke:#038048;stroke-width:1.0;"/><text fill="#000000" font-family="sans-serif" font-size="14" lengthAdjust="spacing" textLength="216" x="617.5" y="254.4297">equalsToID(id: string) : boolean</text><ellipse cx="608.5" cy="267.127" fill="#84BE84" rx="3" ry="3" style="stroke:#038048;stroke-width:1.0;"/><text fill="#000000" font-family="sans-serif" font-size="14" lengthAdjust="spacing" textLength="428" x="617.5" y="270.918">registerCallback(eventName: string, callback: OSGeneric) : void</text><ellipse cx="608.5" cy="283.6152" fill="#84BE84" rx="3" ry="3" style="stroke:#038048;stroke-width:1.0;"/><text fill="#000000" font-family="sans-serif" font-size="14" lengthAdjust="spacing" textLength="294" x="617.5" y="287.4063">setProviderConfigs(newConfigs: any) : void</text><ellipse cx="608.5" cy="300.1035" fill="#84BE84" rx="3" ry="3" style="stroke:#038048;stroke-width:1.0;"/><text fill="#000000" font-family="sans-serif" font-size="14" lengthAdjust="spacing" textLength="377" x="617.5" y="303.8945">updateProviderEvents(providerInfo: ProviderInfo) : void</text></g><!--class OSUIFlatpickrTime--><g id="elem_OSUIFlatpickrTime"><rect codeLine="67" fill="#FFFFFF" height="822.9492" id="OSUIFlatpickrTime" rx="2.5" ry="2.5" style="stroke:#272B30;stroke-width:0.5;" width="694" x="220.5" y="866"/><ellipse cx="500.25" cy="882" fill="#ADD1B2" rx="11" ry="11" style="stroke:#181818;stroke-width:1.0;"/><path d="M502.7231,888.1431 Q502.1421,888.4419 501.5029,888.5913 Q500.8638,888.7407 500.1582,888.7407 Q497.6514,888.7407 496.3315,887.0889 Q495.0117,885.437 495.0117,882.3159 Q495.0117,879.1865 496.3315,877.5347 Q497.6514,875.8828 500.1582,875.8828 Q500.8638,875.8828 501.5112,876.0322 Q502.1587,876.1816 502.7231,876.4805 L502.7231,879.2031 Q502.0923,878.6221 501.4988,878.3523 Q500.9053,878.0825 500.2744,878.0825 Q498.9297,878.0825 498.2449,879.1492 Q497.5601,880.2158 497.5601,882.3159 Q497.5601,884.4077 498.2449,885.4744 Q498.9297,886.541 500.2744,886.541 Q500.9053,886.541 501.4988,886.2712 Q502.0923,886.0015 502.7231,885.4204 Z " fill="#000000"/><text fill="#000000" font-family="sans-serif" font-size="14" lengthAdjust="spacing" textLength="126" x="520.75" y="887.291">OSUIFlatpickrTime</text><line style="stroke:#272B30;stroke-width:0.5;" x1="221.5" x2="913.5" y1="898" y2="898"/><polygon fill="none" points="231.5,906.7441,235.5,910.7441,231.5,914.7441,227.5,910.7441" style="stroke:#B38D22;stroke-width:1.0;"/><text fill="#000000" font-family="sans-serif" font-size="14" lengthAdjust="spacing" textLength="266" x="240.5" y="915.5352">flatpickrInputElem : HTMLInputElement</text><polygon fill="none" points="231.5,923.2324,235.5,927.2324,231.5,931.2324,227.5,927.2324" style="stroke:#B38D22;stroke-width:1.0;"/><text fill="#000000" font-family="sans-serif" font-size="14" lengthAdjust="spacing" textLength="176" x="240.5" y="932.0234">isProviderBased : boolean</text><polygon fill="none" points="231.5,939.7207,235.5,943.7207,231.5,947.7207,227.5,943.7207" style="stroke:#B38D22;stroke-width:1.0;"/><text fill="#000000" font-family="sans-serif" font-size="14" lengthAdjust="spacing" textLength="307" x="240.5" y="948.5117">onChangeCallbackEvent : OSOnChangeEvent</text><polygon fill="none" points="231.5,956.209,235.5,960.209,231.5,964.209,227.5,960.209" style="stroke:#B38D22;stroke-width:1.0;"/><text fill="#000000" font-family="sans-serif" font-size="14" lengthAdjust="spacing" textLength="389" x="240.5" y="965">providerEventsManagerInstance : IProviderEventManager</text><polygon fill="none" points="231.5,972.6973,235.5,976.6973,231.5,980.6973,227.5,976.6973" style="stroke:#B38D22;stroke-width:1.0;"/><text fill="#000000" font-family="sans-serif" font-size="14" lengthAdjust="spacing" textLength="339" x="240.5" y="981.4883">timePickerPlatformInputElem : HTMLInputElement</text><rect fill="none" height="6" style="stroke:#C82930;stroke-width:1.0;" width="6" x="228.5" y="991.1855"/><text fill="#000000" font-family="sans-serif" font-size="14" lengthAdjust="spacing" textLength="245" x="240.5" y="997.9766">_bodyOnClickGlobalEvent : IListener</text><rect fill="none" height="6" style="stroke:#C82930;stroke-width:1.0;" width="6" x="228.5" y="1007.6738"/><text fill="#000000" font-family="sans-serif" font-size="14" lengthAdjust="spacing" textLength="384" x="240.5" y="1014.4648">_bodyScrollCommonBehaviour : UpdatePositionOnScroll</text><rect fill="none" height="6" style="stroke:#C82930;stroke-width:1.0;" width="6" x="228.5" y="1024.1621"/><text fill="#000000" font-family="sans-serif" font-size="14" lengthAdjust="spacing" textLength="220" x="240.5" y="1030.9531">_flatpickrOpts : FlatpickrOptions</text><rect fill="none" height="6" style="stroke:#C82930;stroke-width:1.0;" width="6" x="228.5" y="1040.6504"/><text fill="#000000" font-family="sans-serif" font-size="14" lengthAdjust="spacing" textLength="284" x="240.5" y="1047.4414">_zindexCommonBehavior : UpdateZindex</text><line style="stroke:#272B30;stroke-width:0.5;" x1="221.5" x2="913.5" y1="1054.3945" y2="1054.3945"/><ellipse cx="231.5" cy="1068.1387" fill="#84BE84" rx="3" ry="3" style="stroke:#038048;stroke-width:1.0;"/><text fill="#000000" font-family="sans-serif" font-size="14" lengthAdjust="spacing" textLength="86" x="240.5" y="1071.9297">build() : void</text><ellipse cx="231.5" cy="1084.627" fill="#84BE84" rx="3" ry="3" style="stroke:#038048;stroke-width:1.0;"/><text fill="#000000" font-family="sans-serif" font-size="14" lengthAdjust="spacing" textLength="482" x="240.5" y="1088.418">changeProperty(propertyName: string, propertyValue: unknown) : void</text><ellipse cx="231.5" cy="1101.1152" fill="#84BE84" rx="3" ry="3" style="stroke:#038048;stroke-width:1.0;"/><text fill="#000000" font-family="sans-serif" font-size="14" lengthAdjust="spacing" textLength="236" x="240.5" y="1104.9063">checkAddedProviderEvents() : void</text><ellipse cx="231.5" cy="1117.6035" fill="#84BE84" rx="3" ry="3" style="stroke:#038048;stroke-width:1.0;"/><text fill="#000000" font-family="sans-serif" font-size="14" lengthAdjust="spacing" textLength="247" x="240.5" y="1121.3945">checkPendingProviderEvents() : void</text><ellipse cx="231.5" cy="1134.0918" fill="#84BE84" rx="3" ry="3" style="stroke:#038048;stroke-width:1.0;"/><text fill="#000000" font-family="sans-serif" font-size="14" lengthAdjust="spacing" textLength="84" x="240.5" y="1137.8828">clear() : void</text><ellipse cx="231.5" cy="1150.5801" fill="#84BE84" rx="3" ry="3" style="stroke:#038048;stroke-width:1.0;"/><text fill="#000000" font-family="sans-serif" font-size="14" lengthAdjust="spacing" textLength="86" x="240.5" y="1154.3711">close() : void</text><ellipse cx="231.5" cy="1167.0684" fill="#84BE84" rx="3" ry="3" style="stroke:#038048;stroke-width:1.0;"/><text fill="#000000" font-family="sans-serif" font-size="14" lengthAdjust="spacing" textLength="104" x="240.5" y="1170.8594">dispose() : void</text><ellipse cx="231.5" cy="1183.5566" fill="#84BE84" rx="3" ry="3" style="stroke:#038048;stroke-width:1.0;"/><text fill="#000000" font-family="sans-serif" font-size="14" lengthAdjust="spacing" textLength="266" x="240.5" y="1187.3477">equalsToID(patternId: string) : boolean</text><ellipse cx="231.5" cy="1200.0449" fill="#84BE84" rx="3" ry="3" style="stroke:#038048;stroke-width:1.0;"/><text fill="#000000" font-family="sans-serif" font-size="14" lengthAdjust="spacing" textLength="86" x="240.5" y="1203.8359">open() : void</text><ellipse cx="231.5" cy="1216.5332" fill="#84BE84" rx="3" ry="3" style="stroke:#038048;stroke-width:1.0;"/><text fill="#000000" font-family="sans-serif" font-size="14" lengthAdjust="spacing" textLength="428" x="240.5" y="1220.3242">registerCallback(eventName: string, callback: OSGeneric) : void</text><ellipse cx="231.5" cy="1233.0215" fill="#84BE84" rx="3" ry="3" style="stroke:#038048;stroke-width:1.0;"/><text fill="#000000" font-family="sans-serif" font-size="14" lengthAdjust="spacing" textLength="292" x="240.5" y="1236.8125">setEditableInput(isEditable: boolean) : void</text><ellipse cx="231.5" cy="1249.5098" fill="#84BE84" rx="3" ry="3" style="stroke:#038048;stroke-width:1.0;"/><text fill="#000000" font-family="sans-serif" font-size="14" lengthAdjust="spacing" textLength="222" x="240.5" y="1253.3008">setLanguage(value: string) : void</text><ellipse cx="231.5" cy="1265.998" fill="#84BE84" rx="3" ry="3" style="stroke:#038048;stroke-width:1.0;"/><text fill="#000000" font-family="sans-serif" font-size="14" lengthAdjust="spacing" textLength="383" x="240.5" y="1269.7891">setProviderConfigs(newConfigs: FlatpickrOptions) : void</text><ellipse cx="231.5" cy="1282.4863" fill="#84BE84" rx="3" ry="3" style="stroke:#038048;stroke-width:1.0;"/><text fill="#000000" font-family="sans-serif" font-size="14" lengthAdjust="spacing" textLength="668" x="240.5" y="1286.2773">setProviderEvent(eventName: string, callback: Generic, uniqueId: string, saveEvent: boolean) : void</text><ellipse cx="231.5" cy="1298.9746" fill="#84BE84" rx="3" ry="3" style="stroke:#038048;stroke-width:1.0;"/><text fill="#000000" font-family="sans-serif" font-size="14" lengthAdjust="spacing" textLength="313" x="240.5" y="1302.7656">toggleNativeBehavior(isNative: boolean) : void</text><ellipse cx="231.5" cy="1315.4629" fill="#84BE84" rx="3" ry="3" style="stroke:#038048;stroke-width:1.0;"/><text fill="#000000" font-family="sans-serif" font-size="14" lengthAdjust="spacing" textLength="281" x="240.5" y="1319.2539">unsetProviderEvent(eventId: string) : void</text><ellipse cx="231.5" cy="1331.9512" fill="#84BE84" rx="3" ry="3" style="stroke:#038048;stroke-width:1.0;"/><text fill="#000000" font-family="sans-serif" font-size="14" lengthAdjust="spacing" textLength="255" x="240.5" y="1335.7422">updateInitialTime(value: string) : void</text><ellipse cx="231.5" cy="1348.4395" fill="#84BE84" rx="3" ry="3" style="stroke:#038048;stroke-width:1.0;"/><text fill="#000000" font-family="sans-serif" font-size="14" lengthAdjust="spacing" textLength="307" x="240.5" y="1352.2305">updatePrompt(promptMessage: string) : void</text><ellipse cx="231.5" cy="1364.9277" fill="#84BE84" rx="3" ry="3" style="stroke:#038048;stroke-width:1.0;"/><text fill="#000000" font-family="sans-serif" font-size="14" lengthAdjust="spacing" textLength="377" x="240.5" y="1368.7188">updateProviderEvents(providerInfo: ProviderInfo) : void</text><polygon fill="#FFFF44" points="231.5,1376.416,235.5,1380.416,231.5,1384.416,227.5,1380.416" style="stroke:#B38D22;stroke-width:1.0;"/><text fill="#000000" font-family="sans-serif" font-size="14" lengthAdjust="spacing" textLength="207" x="240.5" y="1385.207">createProviderInstance() : void</text><polygon fill="#FFFF44" points="231.5,1392.9043,235.5,1396.9043,231.5,1400.9043,227.5,1396.9043" style="stroke:#B38D22;stroke-width:1.0;"/><text fill="#000000" font-family="sans-serif" font-size="14" lengthAdjust="spacing" textLength="123" x="240.5" y="1401.6953">finishBuild() : void</text><polygon fill="#FFFF44" points="231.5,1409.3926,235.5,1413.3926,231.5,1417.3926,227.5,1413.3926" style="stroke:#B38D22;stroke-width:1.0;"/><text fill="#000000" font-family="sans-serif" font-size="14" lengthAdjust="spacing" textLength="107" x="240.5" y="1418.1836">onClose() : void</text><polygon fill="#FFFF44" points="231.5,1425.8809,235.5,1429.8809,231.5,1433.8809,227.5,1429.8809" style="stroke:#B38D22;stroke-width:1.0;"/><text fill="#000000" font-family="sans-serif" font-size="14" lengthAdjust="spacing" textLength="106" x="240.5" y="1434.6719">onOpen() : void</text><polygon fill="#FFFF44" points="231.5,1442.3691,235.5,1446.3691,231.5,1450.3691,227.5,1446.3691" style="stroke:#B38D22;stroke-width:1.0;"/><text fill="#000000" font-family="sans-serif" font-size="14" lengthAdjust="spacing" textLength="336" x="240.5" y="1451.1602">onTimeSelectedEvent(selectedTime: Date[]) : void</text><polygon fill="#FFFF44" points="231.5,1458.8574,235.5,1462.8574,231.5,1466.8574,227.5,1462.8574" style="stroke:#B38D22;stroke-width:1.0;"/><text fill="#000000" font-family="sans-serif" font-size="14" lengthAdjust="spacing" textLength="158" x="240.5" y="1467.6484">prepareConfigs() : void</text><polygon fill="#FFFF44" points="231.5,1475.3457,235.5,1479.3457,231.5,1483.3457,227.5,1479.3457" style="stroke:#B38D22;stroke-width:1.0;"/><text fill="#000000" font-family="sans-serif" font-size="14" lengthAdjust="spacing" textLength="99" x="240.5" y="1484.1367">redraw() : void</text><polygon fill="#FFFF44" points="231.5,1491.834,235.5,1495.834,231.5,1499.834,227.5,1495.834" style="stroke:#B38D22;stroke-width:1.0;"/><text fill="#000000" font-family="sans-serif" font-size="14" lengthAdjust="spacing" textLength="178" x="240.5" y="1500.625">setA11YProperties() : void</text><polygon fill="#FFFF44" points="231.5,1508.3223,235.5,1512.3223,231.5,1516.3223,227.5,1512.3223" style="stroke:#B38D22;stroke-width:1.0;"/><text fill="#000000" font-family="sans-serif" font-size="14" lengthAdjust="spacing" textLength="136" x="240.5" y="1517.1133">setCallbacks() : void</text><polygon fill="#FFFF44" points="231.5,1524.8105,235.5,1528.8105,231.5,1532.8105,227.5,1528.8105" style="stroke:#B38D22;stroke-width:1.0;"/><text fill="#000000" font-family="sans-serif" font-size="14" lengthAdjust="spacing" textLength="165" x="240.5" y="1533.6016">setHtmlElements() : void</text><polygon fill="#FFFF44" points="231.5,1541.2988,235.5,1545.2988,231.5,1549.2988,227.5,1545.2988" style="stroke:#B38D22;stroke-width:1.0;"/><text fill="#000000" font-family="sans-serif" font-size="14" lengthAdjust="spacing" textLength="570" x="240.5" y="1550.0898">triggerPlatformEventCallback(platFormCallback: OSGeneric, args: unknown[]) : void</text><polygon fill="#FFFF44" points="231.5,1557.7871,235.5,1561.7871,231.5,1565.7871,227.5,1561.7871" style="stroke:#B38D22;stroke-width:1.0;"/><text fill="#000000" font-family="sans-serif" font-size="14" lengthAdjust="spacing" textLength="318" x="240.5" y="1566.5781">triggerPlatformInitializedEventCallback() : void</text><polygon fill="#FFFF44" points="231.5,1574.2754,235.5,1578.2754,231.5,1582.2754,227.5,1578.2754" style="stroke:#B38D22;stroke-width:1.0;"/><text fill="#000000" font-family="sans-serif" font-size="14" lengthAdjust="spacing" textLength="154" x="240.5" y="1583.0664">unsetCallbacks() : void</text><polygon fill="#FFFF44" points="231.5,1590.7637,235.5,1594.7637,231.5,1598.7637,227.5,1594.7637" style="stroke:#B38D22;stroke-width:1.0;"/><text fill="#000000" font-family="sans-serif" font-size="14" lengthAdjust="spacing" textLength="198" x="240.5" y="1599.5547">unsetGlobalCallbacks() : void</text><polygon fill="#FFFF44" points="231.5,1607.252,235.5,1611.252,231.5,1615.252,227.5,1611.252" style="stroke:#B38D22;stroke-width:1.0;"/><text fill="#000000" font-family="sans-serif" font-size="14" lengthAdjust="spacing" textLength="183" x="240.5" y="1616.043">unsetHtmlElements() : void</text><polygon fill="#FFFF44" points="231.5,1623.7402,235.5,1627.7402,231.5,1631.7402,227.5,1627.7402" style="stroke:#B38D22;stroke-width:1.0;"/><text fill="#000000" font-family="sans-serif" font-size="14" lengthAdjust="spacing" textLength="226" x="240.5" y="1632.5313">updatePlatformInputAttrs() : void</text><rect fill="#F24D5C" height="6" style="stroke:#C82930;stroke-width:1.0;" width="6" x="228.5" y="1642.2285"/><text fill="#000000" font-family="sans-serif" font-size="14" lengthAdjust="spacing" textLength="247" x="240.5" y="1649.0195">_getBodyOnClickGlobalEvent() : void</text><rect fill="#F24D5C" height="6" style="stroke:#C82930;stroke-width:1.0;" width="6" x="228.5" y="1658.7168"/><text fill="#000000" font-family="sans-serif" font-size="14" lengthAdjust="spacing" textLength="146" x="240.5" y="1665.5078">_setAttributes() : void</text><rect fill="#F24D5C" height="6" style="stroke:#C82930;stroke-width:1.0;" width="6" x="228.5" y="1675.2051"/><text fill="#000000" font-family="sans-serif" font-size="14" lengthAdjust="spacing" textLength="215" x="240.5" y="1681.9961">_setCalendarCssClasses() : void</text></g><!--reverse link ITimePicker to IFlatpickrTime--><g id="link_ITimePicker_IFlatpickrTime"><path codeLine="50" d="M409.51,369.34 C418.85,383.45 428.29,397.7 437.65,411.85 " fill="none" id="ITimePicker-backto-IFlatpickrTime" style="stroke:#272B30;stroke-width:1.0;"/><polygon fill="none" points="403.38,372.77,398.18,352.22,415.06,365.04,403.38,372.77" style="stroke:#272B30;stroke-width:1.0;"/></g><!--reverse link IProviderPattern<Flatpickr> to IFlatpickrTime--><g id="link_IProviderPattern&lt;Flatpickr&gt;_IFlatpickrTime"><path codeLine="66" d="M754.03,327.22 C735.96,354.42 716.82,383.23 697.95,411.63 " fill="none" id="IProviderPattern&lt;Flatpickr&gt;-backto-IFlatpickrTime" style="stroke:#272B30;stroke-width:1.0;"/><polygon fill="none" points="748.24,323.29,765.13,310.51,759.9,331.04,748.24,323.29" style="stroke:#272B30;stroke-width:1.0;"/></g><!--reverse link IFlatpickrTime to OSUIFlatpickrTime--><g id="link_IFlatpickrTime_OSUIFlatpickrTime"><path codeLine="116" d="M567.5,826.41 C567.5,839.32 567.5,852.49 567.5,865.84 " fill="none" id="IFlatpickrTime-backto-OSUIFlatpickrTime" style="stroke:#272B30;stroke-width:1.0;stroke-dasharray:7.0,7.0;"/><polygon fill="none" points="560.5,826.37,567.5,806.37,574.5,826.37,560.5,826.37" style="stroke:#272B30;stroke-width:1.0;"/></g><!--SRC=[xLXjRzis4FwUNq74NrmiATPkG84W662xIIiWgGqa7R0DGq6B9vamHQeaPTTz-UyxIQGYIh83fEaA5FMNc7SFZtV7v-xec3MNETKq8pD1ZPbehROp9PGce-SldYz_-_N8X8YfqWpqOGYDrwbMXMGEbYH92zDJny1-P_HenHaGo7Ax8ndObMAcBKeu29HmQK4dD0Po75qAQdCUh_Kjp-2OV3eY-Fc5csd1XILdPAcK02gzU9w3x4fphJPuXaPvugs5caWc2hMBrh866139XO0CP7dMwzlhAxUgrONaxmk86EgCrLocjNZBMGgs9rwYospy1AKRnLajYrTKfe07vw3jRfoxBsze1dxp2V7IFwaeK5p8jLHRsJ64yUgkSQ4CT6ICcxmlXVS55UPMHI_7dFc3dtGJYLx8SPrZODFT9ESD83Id8UK6xt16XLWY4yQmmPo5GSLETqRcDw_GeEPnQCI0lSBa53I5yQQE_Cwl0ERlRQPambCppiFr6Q5ojtVJHUdQOGUTUoV4t_Um9uKSDhiNdpDg8PBSSYfAUeyjp-0GDZ1-5sV9rv2zpUOlGJ6LXooG_g0VLaa_o-5dENplSlXo5FBu_FFfQMzE1AptFYoeHQ4yRw1_t5S5hSbn-SDEZgyfWSTYTfUo4hRxsVhmNdYO2yDCYilN3ZcUtxmTVekCcZT59FF2bhViBhnP-riVSUFFdr83h9FDaPApwb9zDglGI9ctkTDKaXgS1_5VKucD0Lqmbafa_Hc9WWGvVRtLDkMpGDyJfRDxNJzzjrHiXsu8tFTAg2KLthleggI0TCPhu4sibH0pbMLAJc55DrmLPHMzhQzE6Ino9UUonhcDJIBdkJNjaiCrees3VUIImOV0zftflolb_p5WLX2l9um1wn1n0BO0oT3mOU1Z3QoyPdPqpzpwDXFgWd5Bbm8g_k1izEizW_7XCwtT8Bey-IQpxOGOkgdhRqymLgMfW3VKyWruNc8AQi6UFLy_8m-ahUcJ-DkgP3h-kGPZCDcF-yQiUagieRNPzw6GPgE4IsvMqtvTbgslJtQKpdjSHM4P-0q8Y2smEcd6hMwh5yDBzEIVVyDTkGRyPGgUFw5I0zDqsn7YpKoUFVlBzGeEfg_tvJAWUcqpuHfeLukfJzExtbj5q1HUZj9BbCxwrNP2g2xvxlfHDyAEMKSI_j7bg3aXt5KnS5ySbRBkzWSX1u9rf6hFcOcrkWCxVOVFdkdWXEa2osj10tnPM303IdGKsotLCsEgVrIqGUKBe3F4ppy_VJeqtVy3]--></g></svg>