<?xml version="1.0" encoding="us-ascii" standalone="no"?><svg xmlns="http://www.w3.org/2000/svg" xmlns:xlink="http://www.w3.org/1999/xlink" contentStyleType="text/css" height="1844px" preserveAspectRatio="none" style="width:1112px;height:1844px;background:#CED4DA;" version="1.1" viewBox="0 0 1112 1844" width="1112px" zoomAndPan="magnify"><defs/><g><rect fill="#CED4DA" height="1844" style="stroke:none;stroke-width:1.0;" width="1112" x="0" y="0"/><!--class IFlatpickr--><g id="elem_IFlatpickr"><rect codeLine="7" fill="#FFFFFF" height="427.2305" id="IFlatpickr" rx="2.5" ry="2.5" style="stroke:#272B30;stroke-width:0.5;" width="555" x="290" y="445"/><ellipse cx="531.75" cy="461" fill="#B4A7E5" rx="11" ry="11" style="stroke:#181818;stroke-width:1.0;"/><path d="M528.1777,457.2651 L528.1777,455.1069 L535.5571,455.1069 L535.5571,457.2651 L533.0918,457.2651 L533.0918,465.3418 L535.5571,465.3418 L535.5571,467.5 L528.1777,467.5 L528.1777,465.3418 L530.6431,465.3418 L530.6431,457.2651 Z " fill="#000000"/><text fill="#000000" font-family="sans-serif" font-size="14" font-style="italic" lengthAdjust="spacing" textLength="63" x="552.25" y="466.291">IFlatpickr</text><line style="stroke:#272B30;stroke-width:0.5;" x1="291" x2="844" y1="477" y2="477"/><ellipse cx="301" cy="490.7441" fill="none" rx="3" ry="3" style="stroke:#038048;stroke-width:1.0;"/><text fill="#000000" font-family="sans-serif" font-size="14" lengthAdjust="spacing" textLength="109" x="310" y="494.5352">isBuilt : boolean</text><ellipse cx="301" cy="507.2324" fill="none" rx="3" ry="3" style="stroke:#038048;stroke-width:1.0;"/><text fill="#000000" font-family="sans-serif" font-size="14" lengthAdjust="spacing" textLength="126" x="310" y="511.0234">provider : flatpickr</text><ellipse cx="301" cy="523.7207" fill="none" rx="3" ry="3" style="stroke:#038048;stroke-width:1.0;"/><text fill="#000000" font-family="sans-serif" font-size="14" lengthAdjust="spacing" textLength="181" x="310" y="527.5117">providerInfo : ProviderInfo</text><ellipse cx="301" cy="540.209" fill="none" rx="3" ry="3" style="stroke:#038048;stroke-width:1.0;"/><text fill="#000000" font-family="sans-serif" font-size="14" lengthAdjust="spacing" textLength="184" x="310" y="544">selfElement : HTMLElement</text><ellipse cx="301" cy="556.6973" fill="none" rx="3" ry="3" style="stroke:#038048;stroke-width:1.0;"/><text fill="#000000" font-family="sans-serif" font-size="14" lengthAdjust="spacing" textLength="113" x="310" y="560.4883">uniqueId : string</text><ellipse cx="301" cy="573.1855" fill="none" rx="3" ry="3" style="stroke:#038048;stroke-width:1.0;"/><text fill="#000000" font-family="sans-serif" font-size="14" lengthAdjust="spacing" textLength="111" x="310" y="576.9766">widgetId : string</text><line style="stroke:#272B30;stroke-width:0.5;" x1="291" x2="844" y1="583.9297" y2="583.9297"/><ellipse cx="301" cy="597.6738" fill="#84BE84" rx="3" ry="3" style="stroke:#038048;stroke-width:1.0;"/><text fill="#000000" font-family="sans-serif" font-size="14" lengthAdjust="spacing" textLength="86" x="310" y="601.4648">build() : void</text><ellipse cx="301" cy="614.1621" fill="#84BE84" rx="3" ry="3" style="stroke:#038048;stroke-width:1.0;"/><text fill="#000000" font-family="sans-serif" font-size="14" lengthAdjust="spacing" textLength="482" x="310" y="617.9531">changeProperty(propertyName: string, propertyValue: unknown) : void</text><ellipse cx="301" cy="630.6504" fill="#84BE84" rx="3" ry="3" style="stroke:#038048;stroke-width:1.0;"/><text fill="#000000" font-family="sans-serif" font-size="14" lengthAdjust="spacing" textLength="84" x="310" y="634.4414">clear() : void</text><ellipse cx="301" cy="647.1387" fill="#84BE84" rx="3" ry="3" style="stroke:#038048;stroke-width:1.0;"/><text fill="#000000" font-family="sans-serif" font-size="14" lengthAdjust="spacing" textLength="86" x="310" y="650.9297">close() : void</text><ellipse cx="301" cy="663.627" fill="#84BE84" rx="3" ry="3" style="stroke:#038048;stroke-width:1.0;"/><text fill="#000000" font-family="sans-serif" font-size="14" lengthAdjust="spacing" textLength="271" x="310" y="667.418">disableDays(disableDays: string[]) : void</text><ellipse cx="301" cy="680.1152" fill="#84BE84" rx="3" ry="3" style="stroke:#038048;stroke-width:1.0;"/><text fill="#000000" font-family="sans-serif" font-size="14" lengthAdjust="spacing" textLength="321" x="310" y="683.9063">disableWeekDays(disableDays: number[]) : void</text><ellipse cx="301" cy="696.6035" fill="#84BE84" rx="3" ry="3" style="stroke:#038048;stroke-width:1.0;"/><text fill="#000000" font-family="sans-serif" font-size="14" lengthAdjust="spacing" textLength="104" x="310" y="700.3945">dispose() : void</text><ellipse cx="301" cy="713.0918" fill="#84BE84" rx="3" ry="3" style="stroke:#038048;stroke-width:1.0;"/><text fill="#000000" font-family="sans-serif" font-size="14" lengthAdjust="spacing" textLength="216" x="310" y="716.8828">equalsToID(id: string) : boolean</text><ellipse cx="301" cy="729.5801" fill="#84BE84" rx="3" ry="3" style="stroke:#038048;stroke-width:1.0;"/><text fill="#000000" font-family="sans-serif" font-size="14" lengthAdjust="spacing" textLength="86" x="310" y="733.3711">open() : void</text><ellipse cx="301" cy="746.0684" fill="#84BE84" rx="3" ry="3" style="stroke:#038048;stroke-width:1.0;"/><text fill="#000000" font-family="sans-serif" font-size="14" lengthAdjust="spacing" textLength="428" x="310" y="749.8594">registerCallback(eventName: string, callback: OSGeneric) : void</text><ellipse cx="301" cy="762.5566" fill="#84BE84" rx="3" ry="3" style="stroke:#038048;stroke-width:1.0;"/><text fill="#000000" font-family="sans-serif" font-size="14" lengthAdjust="spacing" textLength="222" x="310" y="766.3477">setLanguage(value: string) : void</text><ellipse cx="301" cy="779.0449" fill="#84BE84" rx="3" ry="3" style="stroke:#038048;stroke-width:1.0;"/><text fill="#000000" font-family="sans-serif" font-size="14" lengthAdjust="spacing" textLength="324" x="310" y="782.8359">setProviderConfigs(providerConfigs: any) : void</text><ellipse cx="301" cy="795.5332" fill="#84BE84" rx="3" ry="3" style="stroke:#038048;stroke-width:1.0;"/><text fill="#000000" font-family="sans-serif" font-size="14" lengthAdjust="spacing" textLength="529" x="310" y="799.3242">setProviderEvent(eventName: string, callback: Generic, uniqueId: string) : void</text><ellipse cx="301" cy="812.0215" fill="#84BE84" rx="3" ry="3" style="stroke:#038048;stroke-width:1.0;"/><text fill="#000000" font-family="sans-serif" font-size="14" lengthAdjust="spacing" textLength="281" x="310" y="815.8125">unsetProviderEvent(eventId: string) : void</text><ellipse cx="301" cy="828.5098" fill="#84BE84" rx="3" ry="3" style="stroke:#038048;stroke-width:1.0;"/><text fill="#000000" font-family="sans-serif" font-size="14" lengthAdjust="spacing" textLength="350" x="310" y="832.3008">updateInitialDate(date1: string, date2: string) : void</text><ellipse cx="301" cy="844.998" fill="#84BE84" rx="3" ry="3" style="stroke:#038048;stroke-width:1.0;"/><text fill="#000000" font-family="sans-serif" font-size="14" lengthAdjust="spacing" textLength="307" x="310" y="848.7891">updatePrompt(promptMessage: string) : void</text><ellipse cx="301" cy="861.4863" fill="#84BE84" rx="3" ry="3" style="stroke:#038048;stroke-width:1.0;"/><text fill="#000000" font-family="sans-serif" font-size="14" lengthAdjust="spacing" textLength="377" x="310" y="865.2773">updateProviderEvents(providerInfo: ProviderInfo) : void</text></g><!--class IDatePicker--><g id="elem_IDatePicker"><rect codeLine="32" fill="#FFFFFF" height="377.7656" id="IDatePicker" rx="2.5" ry="2.5" style="stroke:#272B30;stroke-width:0.5;" width="555" x="7" y="7"/><ellipse cx="242.25" cy="23" fill="#B4A7E5" rx="11" ry="11" style="stroke:#181818;stroke-width:1.0;"/><path d="M238.6777,19.2651 L238.6777,17.1069 L246.0571,17.1069 L246.0571,19.2651 L243.5918,19.2651 L243.5918,27.3418 L246.0571,27.3418 L246.0571,29.5 L238.6777,29.5 L238.6777,27.3418 L241.1431,27.3418 L241.1431,19.2651 Z " fill="#000000"/><text fill="#000000" font-family="sans-serif" font-size="14" font-style="italic" lengthAdjust="spacing" textLength="76" x="262.75" y="28.291">IDatePicker</text><line style="stroke:#272B30;stroke-width:0.5;" x1="8" x2="561" y1="39" y2="39"/><ellipse cx="18" cy="52.7441" fill="none" rx="3" ry="3" style="stroke:#038048;stroke-width:1.0;"/><text fill="#000000" font-family="sans-serif" font-size="14" lengthAdjust="spacing" textLength="109" x="27" y="56.5352">isBuilt : boolean</text><ellipse cx="18" cy="69.2324" fill="none" rx="3" ry="3" style="stroke:#038048;stroke-width:1.0;"/><text fill="#000000" font-family="sans-serif" font-size="14" lengthAdjust="spacing" textLength="184" x="27" y="73.0234">selfElement : HTMLElement</text><ellipse cx="18" cy="85.7207" fill="none" rx="3" ry="3" style="stroke:#038048;stroke-width:1.0;"/><text fill="#000000" font-family="sans-serif" font-size="14" lengthAdjust="spacing" textLength="113" x="27" y="89.5117">uniqueId : string</text><ellipse cx="18" cy="102.209" fill="none" rx="3" ry="3" style="stroke:#038048;stroke-width:1.0;"/><text fill="#000000" font-family="sans-serif" font-size="14" lengthAdjust="spacing" textLength="111" x="27" y="106">widgetId : string</text><line style="stroke:#272B30;stroke-width:0.5;" x1="8" x2="561" y1="112.9531" y2="112.9531"/><ellipse cx="18" cy="126.6973" fill="#84BE84" rx="3" ry="3" style="stroke:#038048;stroke-width:1.0;"/><text fill="#000000" font-family="sans-serif" font-size="14" lengthAdjust="spacing" textLength="86" x="27" y="130.4883">build() : void</text><ellipse cx="18" cy="143.1855" fill="#84BE84" rx="3" ry="3" style="stroke:#038048;stroke-width:1.0;"/><text fill="#000000" font-family="sans-serif" font-size="14" lengthAdjust="spacing" textLength="482" x="27" y="146.9766">changeProperty(propertyName: string, propertyValue: unknown) : void</text><ellipse cx="18" cy="159.6738" fill="#84BE84" rx="3" ry="3" style="stroke:#038048;stroke-width:1.0;"/><text fill="#000000" font-family="sans-serif" font-size="14" lengthAdjust="spacing" textLength="84" x="27" y="163.4648">clear() : void</text><ellipse cx="18" cy="176.1621" fill="#84BE84" rx="3" ry="3" style="stroke:#038048;stroke-width:1.0;"/><text fill="#000000" font-family="sans-serif" font-size="14" lengthAdjust="spacing" textLength="86" x="27" y="179.9531">close() : void</text><ellipse cx="18" cy="192.6504" fill="#84BE84" rx="3" ry="3" style="stroke:#038048;stroke-width:1.0;"/><text fill="#000000" font-family="sans-serif" font-size="14" lengthAdjust="spacing" textLength="271" x="27" y="196.4414">disableDays(disableDays: string[]) : void</text><ellipse cx="18" cy="209.1387" fill="#84BE84" rx="3" ry="3" style="stroke:#038048;stroke-width:1.0;"/><text fill="#000000" font-family="sans-serif" font-size="14" lengthAdjust="spacing" textLength="321" x="27" y="212.9297">disableWeekDays(disableDays: number[]) : void</text><ellipse cx="18" cy="225.627" fill="#84BE84" rx="3" ry="3" style="stroke:#038048;stroke-width:1.0;"/><text fill="#000000" font-family="sans-serif" font-size="14" lengthAdjust="spacing" textLength="104" x="27" y="229.418">dispose() : void</text><ellipse cx="18" cy="242.1152" fill="#84BE84" rx="3" ry="3" style="stroke:#038048;stroke-width:1.0;"/><text fill="#000000" font-family="sans-serif" font-size="14" lengthAdjust="spacing" textLength="216" x="27" y="245.9063">equalsToID(id: string) : boolean</text><ellipse cx="18" cy="258.6035" fill="#84BE84" rx="3" ry="3" style="stroke:#038048;stroke-width:1.0;"/><text fill="#000000" font-family="sans-serif" font-size="14" lengthAdjust="spacing" textLength="86" x="27" y="262.3945">open() : void</text><ellipse cx="18" cy="275.0918" fill="#84BE84" rx="3" ry="3" style="stroke:#038048;stroke-width:1.0;"/><text fill="#000000" font-family="sans-serif" font-size="14" lengthAdjust="spacing" textLength="428" x="27" y="278.8828">registerCallback(eventName: string, callback: OSGeneric) : void</text><ellipse cx="18" cy="291.5801" fill="#84BE84" rx="3" ry="3" style="stroke:#038048;stroke-width:1.0;"/><text fill="#000000" font-family="sans-serif" font-size="14" lengthAdjust="spacing" textLength="222" x="27" y="295.3711">setLanguage(value: string) : void</text><ellipse cx="18" cy="308.0684" fill="#84BE84" rx="3" ry="3" style="stroke:#038048;stroke-width:1.0;"/><text fill="#000000" font-family="sans-serif" font-size="14" lengthAdjust="spacing" textLength="324" x="27" y="311.8594">setProviderConfigs(providerConfigs: any) : void</text><ellipse cx="18" cy="324.5566" fill="#84BE84" rx="3" ry="3" style="stroke:#038048;stroke-width:1.0;"/><text fill="#000000" font-family="sans-serif" font-size="14" lengthAdjust="spacing" textLength="529" x="27" y="328.3477">setProviderEvent(eventName: string, callback: Generic, uniqueId: string) : void</text><ellipse cx="18" cy="341.0449" fill="#84BE84" rx="3" ry="3" style="stroke:#038048;stroke-width:1.0;"/><text fill="#000000" font-family="sans-serif" font-size="14" lengthAdjust="spacing" textLength="281" x="27" y="344.8359">unsetProviderEvent(eventId: string) : void</text><ellipse cx="18" cy="357.5332" fill="#84BE84" rx="3" ry="3" style="stroke:#038048;stroke-width:1.0;"/><text fill="#000000" font-family="sans-serif" font-size="14" lengthAdjust="spacing" textLength="350" x="27" y="361.3242">updateInitialDate(date1: string, date2: string) : void</text><ellipse cx="18" cy="374.0215" fill="#84BE84" rx="3" ry="3" style="stroke:#038048;stroke-width:1.0;"/><text fill="#000000" font-family="sans-serif" font-size="14" lengthAdjust="spacing" textLength="307" x="27" y="377.8125">updatePrompt(promptMessage: string) : void</text></g><!--class IProviderPattern<Flatpickr>--><g id="elem_IProviderPattern&lt;Flatpickr&gt;"><rect codeLine="55" fill="#FFFFFF" height="262.3477" id="IProviderPattern&lt;Flatpickr&gt;" rx="2.5" ry="2.5" style="stroke:#272B30;stroke-width:0.5;" width="508" x="597.5" y="65"/><ellipse cx="751.75" cy="81" fill="#B4A7E5" rx="11" ry="11" style="stroke:#181818;stroke-width:1.0;"/><path d="M748.1777,77.2651 L748.1777,75.1069 L755.5571,75.1069 L755.5571,77.2651 L753.0918,77.2651 L753.0918,85.3418 L755.5571,85.3418 L755.5571,87.5 L748.1777,87.5 L748.1777,85.3418 L750.6431,85.3418 L750.6431,77.2651 Z " fill="#000000"/><text fill="#000000" font-family="sans-serif" font-size="14" font-style="italic" lengthAdjust="spacing" textLength="191" x="772.25" y="86.291">IProviderPattern&lt;Flatpickr&gt;</text><line style="stroke:#272B30;stroke-width:0.5;" x1="598.5" x2="1104.5" y1="97" y2="97"/><ellipse cx="608.5" cy="110.7441" fill="none" rx="3" ry="3" style="stroke:#038048;stroke-width:1.0;"/><text fill="#000000" font-family="sans-serif" font-size="14" lengthAdjust="spacing" textLength="109" x="617.5" y="114.5352">isBuilt : boolean</text><ellipse cx="608.5" cy="127.2324" fill="none" rx="3" ry="3" style="stroke:#038048;stroke-width:1.0;"/><text fill="#000000" font-family="sans-serif" font-size="14" lengthAdjust="spacing" textLength="129" x="617.5" y="131.0234">provider : Flatpickr</text><ellipse cx="608.5" cy="143.7207" fill="none" rx="3" ry="3" style="stroke:#038048;stroke-width:1.0;"/><text fill="#000000" font-family="sans-serif" font-size="14" lengthAdjust="spacing" textLength="181" x="617.5" y="147.5117">providerInfo : ProviderInfo</text><ellipse cx="608.5" cy="160.209" fill="none" rx="3" ry="3" style="stroke:#038048;stroke-width:1.0;"/><text fill="#000000" font-family="sans-serif" font-size="14" lengthAdjust="spacing" textLength="184" x="617.5" y="164">selfElement : HTMLElement</text><ellipse cx="608.5" cy="176.6973" fill="none" rx="3" ry="3" style="stroke:#038048;stroke-width:1.0;"/><text fill="#000000" font-family="sans-serif" font-size="14" lengthAdjust="spacing" textLength="113" x="617.5" y="180.4883">uniqueId : string</text><ellipse cx="608.5" cy="193.1855" fill="none" rx="3" ry="3" style="stroke:#038048;stroke-width:1.0;"/><text fill="#000000" font-family="sans-serif" font-size="14" lengthAdjust="spacing" textLength="111" x="617.5" y="196.9766">widgetId : string</text><line style="stroke:#272B30;stroke-width:0.5;" x1="598.5" x2="1104.5" y1="203.9297" y2="203.9297"/><ellipse cx="608.5" cy="217.6738" fill="#84BE84" rx="3" ry="3" style="stroke:#038048;stroke-width:1.0;"/><text fill="#000000" font-family="sans-serif" font-size="14" lengthAdjust="spacing" textLength="86" x="617.5" y="221.4648">build() : void</text><ellipse cx="608.5" cy="234.1621" fill="#84BE84" rx="3" ry="3" style="stroke:#038048;stroke-width:1.0;"/><text fill="#000000" font-family="sans-serif" font-size="14" lengthAdjust="spacing" textLength="482" x="617.5" y="237.9531">changeProperty(propertyName: string, propertyValue: unknown) : void</text><ellipse cx="608.5" cy="250.6504" fill="#84BE84" rx="3" ry="3" style="stroke:#038048;stroke-width:1.0;"/><text fill="#000000" font-family="sans-serif" font-size="14" lengthAdjust="spacing" textLength="104" x="617.5" y="254.4414">dispose() : void</text><ellipse cx="608.5" cy="267.1387" fill="#84BE84" rx="3" ry="3" style="stroke:#038048;stroke-width:1.0;"/><text fill="#000000" font-family="sans-serif" font-size="14" lengthAdjust="spacing" textLength="216" x="617.5" y="270.9297">equalsToID(id: string) : boolean</text><ellipse cx="608.5" cy="283.627" fill="#84BE84" rx="3" ry="3" style="stroke:#038048;stroke-width:1.0;"/><text fill="#000000" font-family="sans-serif" font-size="14" lengthAdjust="spacing" textLength="428" x="617.5" y="287.418">registerCallback(eventName: string, callback: OSGeneric) : void</text><ellipse cx="608.5" cy="300.1152" fill="#84BE84" rx="3" ry="3" style="stroke:#038048;stroke-width:1.0;"/><text fill="#000000" font-family="sans-serif" font-size="14" lengthAdjust="spacing" textLength="294" x="617.5" y="303.9063">setProviderConfigs(newConfigs: any) : void</text><ellipse cx="608.5" cy="316.6035" fill="#84BE84" rx="3" ry="3" style="stroke:#038048;stroke-width:1.0;"/><text fill="#000000" font-family="sans-serif" font-size="14" lengthAdjust="spacing" textLength="377" x="617.5" y="320.3945">updateProviderEvents(providerInfo: ProviderInfo) : void</text></g><!--class AbstractFlatpickr<C>--><g id="elem_AbstractFlatpickr&lt;C&gt;"><rect codeLine="71" fill="#FFFFFF" height="905.3906" id="AbstractFlatpickr&lt;C&gt;" rx="2.5" ry="2.5" style="stroke:#272B30;stroke-width:0.5;" width="694" x="220.5" y="932"/><ellipse cx="489.25" cy="948" fill="#A9DCDF" rx="11" ry="11" style="stroke:#181818;stroke-width:1.0;"/><path d="M489.1133,943.3481 L487.9595,948.4199 L490.2754,948.4199 Z M487.6191,941.1069 L490.6157,941.1069 L493.9609,953.5 L491.5122,953.5 L490.7485,950.437 L487.4697,950.437 L486.7227,953.5 L484.2739,953.5 Z " fill="#000000"/><text fill="#000000" font-family="sans-serif" font-size="14" font-style="italic" lengthAdjust="spacing" textLength="148" x="509.75" y="953.291">AbstractFlatpickr&lt;C&gt;</text><line style="stroke:#272B30;stroke-width:0.5;" x1="221.5" x2="913.5" y1="964" y2="964"/><polygon fill="none" points="231.5,972.7441,235.5,976.7441,231.5,980.7441,227.5,976.7441" style="stroke:#B38D22;stroke-width:1.0;"/><text fill="#000000" font-family="sans-serif" font-size="14" lengthAdjust="spacing" textLength="339" x="240.5" y="981.5352">datePickerPlatformInputElem : HTMLInputElement</text><polygon fill="none" points="231.5,989.2324,235.5,993.2324,231.5,997.2324,227.5,993.2324" style="stroke:#B38D22;stroke-width:1.0;"/><text fill="#000000" font-family="sans-serif" font-size="14" lengthAdjust="spacing" textLength="266" x="240.5" y="998.0234">flatpickrInputElem : HTMLInputElement</text><polygon fill="none" points="231.5,1005.7207,235.5,1009.7207,231.5,1013.7207,227.5,1009.7207" style="stroke:#B38D22;stroke-width:1.0;"/><text fill="#000000" font-family="sans-serif" font-size="14" lengthAdjust="spacing" textLength="213" x="240.5" y="1014.5117">flatpickrOpts : FlatpickrOptions</text><polygon fill="none" points="231.5,1022.209,235.5,1026.209,231.5,1030.209,227.5,1026.209" style="stroke:#B38D22;stroke-width:1.0;"/><text fill="#000000" font-family="sans-serif" font-size="14" lengthAdjust="spacing" textLength="176" x="240.5" y="1031">isProviderBased : boolean</text><polygon fill="none" points="231.5,1038.6973,235.5,1042.6973,231.5,1046.6973,227.5,1042.6973" style="stroke:#B38D22;stroke-width:1.0;"/><text fill="#000000" font-family="sans-serif" font-size="14" lengthAdjust="spacing" textLength="311" x="240.5" y="1047.4883">onSelectedCallbackEvent : OSOnChangeEvent</text><polygon fill="none" points="231.5,1055.1855,235.5,1059.1855,231.5,1063.1855,227.5,1059.1855" style="stroke:#B38D22;stroke-width:1.0;"/><text fill="#000000" font-family="sans-serif" font-size="14" lengthAdjust="spacing" textLength="389" x="240.5" y="1063.9766">providerEventsManagerInstance : IProviderEventManager</text><rect fill="none" height="6" style="stroke:#C82930;stroke-width:1.0;" width="6" x="228.5" y="1073.6738"/><text fill="#000000" font-family="sans-serif" font-size="14" lengthAdjust="spacing" textLength="273" x="240.5" y="1080.4648">_a11yInfoContainerElem : HTMLElement</text><rect fill="none" height="6" style="stroke:#C82930;stroke-width:1.0;" width="6" x="228.5" y="1090.1621"/><text fill="#000000" font-family="sans-serif" font-size="14" lengthAdjust="spacing" textLength="384" x="240.5" y="1096.9531">_bodyScrollCommonBehaviour : UpdatePositionOnScroll</text><rect fill="none" height="6" style="stroke:#C82930;stroke-width:1.0;" width="6" x="228.5" y="1106.6504"/><text fill="#000000" font-family="sans-serif" font-size="14" lengthAdjust="spacing" textLength="284" x="240.5" y="1113.4414">_zindexCommonBehavior : UpdateZindex</text><line style="stroke:#272B30;stroke-width:0.5;" x1="221.5" x2="913.5" y1="1120.3945" y2="1120.3945"/><ellipse cx="231.5" cy="1134.1387" fill="#84BE84" rx="3" ry="3" style="stroke:#038048;stroke-width:1.0;"/><text fill="#000000" font-family="sans-serif" font-size="14" lengthAdjust="spacing" textLength="86" x="240.5" y="1137.9297">build() : void</text><ellipse cx="231.5" cy="1150.627" fill="#84BE84" rx="3" ry="3" style="stroke:#038048;stroke-width:1.0;"/><text fill="#000000" font-family="sans-serif" font-size="14" lengthAdjust="spacing" textLength="482" x="240.5" y="1154.418">changeProperty(propertyName: string, propertyValue: unknown) : void</text><ellipse cx="231.5" cy="1167.1152" fill="#84BE84" rx="3" ry="3" style="stroke:#038048;stroke-width:1.0;"/><text fill="#000000" font-family="sans-serif" font-size="14" lengthAdjust="spacing" textLength="236" x="240.5" y="1170.9063">checkAddedProviderEvents() : void</text><ellipse cx="231.5" cy="1183.6035" fill="#84BE84" rx="3" ry="3" style="stroke:#038048;stroke-width:1.0;"/><text fill="#000000" font-family="sans-serif" font-size="14" lengthAdjust="spacing" textLength="247" x="240.5" y="1187.3945">checkPendingProviderEvents() : void</text><ellipse cx="231.5" cy="1200.0918" fill="#84BE84" rx="3" ry="3" style="stroke:#038048;stroke-width:1.0;"/><text fill="#000000" font-family="sans-serif" font-size="14" lengthAdjust="spacing" textLength="84" x="240.5" y="1203.8828">clear() : void</text><ellipse cx="231.5" cy="1216.5801" fill="#84BE84" rx="3" ry="3" style="stroke:#038048;stroke-width:1.0;"/><text fill="#000000" font-family="sans-serif" font-size="14" lengthAdjust="spacing" textLength="86" x="240.5" y="1220.3711">close() : void</text><ellipse cx="231.5" cy="1233.0684" fill="#84BE84" rx="3" ry="3" style="stroke:#038048;stroke-width:1.0;"/><text fill="#000000" font-family="sans-serif" font-size="14" lengthAdjust="spacing" textLength="271" x="240.5" y="1236.8594">disableDays(disableDays: string[]) : void</text><ellipse cx="231.5" cy="1249.5566" fill="#84BE84" rx="3" ry="3" style="stroke:#038048;stroke-width:1.0;"/><text fill="#000000" font-family="sans-serif" font-size="14" lengthAdjust="spacing" textLength="357" x="240.5" y="1253.3477">disableWeekDays(disableWeekDays: number[]) : void</text><ellipse cx="231.5" cy="1266.0449" fill="#84BE84" rx="3" ry="3" style="stroke:#038048;stroke-width:1.0;"/><text fill="#000000" font-family="sans-serif" font-size="14" lengthAdjust="spacing" textLength="104" x="240.5" y="1269.8359">dispose() : void</text><ellipse cx="231.5" cy="1282.5332" fill="#84BE84" rx="3" ry="3" style="stroke:#038048;stroke-width:1.0;"/><text fill="#000000" font-family="sans-serif" font-size="14" lengthAdjust="spacing" textLength="266" x="240.5" y="1286.3242">equalsToID(patternId: string) : boolean</text><ellipse cx="231.5" cy="1299.0215" fill="#84BE84" rx="3" ry="3" style="stroke:#038048;stroke-width:1.0;"/><text fill="#000000" font-family="sans-serif" font-size="14" lengthAdjust="spacing" textLength="86" x="240.5" y="1302.8125">open() : void</text><ellipse cx="231.5" cy="1315.5098" fill="#84BE84" rx="3" ry="3" style="stroke:#038048;stroke-width:1.0;"/><text fill="#000000" font-family="sans-serif" font-size="14" lengthAdjust="spacing" textLength="428" x="240.5" y="1319.3008">registerCallback(eventName: string, callback: OSGeneric) : void</text><ellipse cx="231.5" cy="1331.998" fill="#84BE84" rx="3" ry="3" style="stroke:#038048;stroke-width:1.0;"/><text fill="#000000" font-family="sans-serif" font-size="14" lengthAdjust="spacing" textLength="292" x="240.5" y="1335.7891">setEditableInput(isEditable: boolean) : void</text><ellipse cx="231.5" cy="1348.4863" fill="#84BE84" rx="3" ry="3" style="stroke:#038048;stroke-width:1.0;"/><text fill="#000000" font-family="sans-serif" font-size="14" lengthAdjust="spacing" textLength="222" x="240.5" y="1352.2773">setLanguage(value: string) : void</text><ellipse cx="231.5" cy="1364.9746" fill="#84BE84" rx="3" ry="3" style="stroke:#038048;stroke-width:1.0;"/><text fill="#000000" font-family="sans-serif" font-size="14" lengthAdjust="spacing" textLength="383" x="240.5" y="1368.7656">setProviderConfigs(newConfigs: FlatpickrOptions) : void</text><ellipse cx="231.5" cy="1381.4629" fill="#84BE84" rx="3" ry="3" style="stroke:#038048;stroke-width:1.0;"/><text fill="#000000" font-family="sans-serif" font-size="14" lengthAdjust="spacing" textLength="668" x="240.5" y="1385.2539">setProviderEvent(eventName: string, callback: Generic, uniqueId: string, saveEvent: boolean) : void</text><ellipse cx="231.5" cy="1397.9512" fill="#84BE84" rx="3" ry="3" style="stroke:#038048;stroke-width:1.0;"/><text fill="#000000" font-family="sans-serif" font-size="14" lengthAdjust="spacing" textLength="313" x="240.5" y="1401.7422">toggleNativeBehavior(isNative: boolean) : void</text><ellipse cx="231.5" cy="1414.4395" fill="#84BE84" rx="3" ry="3" style="stroke:#038048;stroke-width:1.0;"/><text fill="#000000" font-family="sans-serif" font-size="14" lengthAdjust="spacing" textLength="281" x="240.5" y="1418.2305">unsetProviderEvent(eventId: string) : void</text><ellipse cx="231.5" cy="1430.9277" fill="#84BE84" rx="3" ry="3" style="stroke:#038048;stroke-width:1.0;"/><text fill="#000000" font-family="sans-serif" font-size="14" font-style="italic" lengthAdjust="spacing" textLength="329" x="240.5" y="1434.7188">updateInitialDate(start: string, end: string) : void</text><ellipse cx="231.5" cy="1447.416" fill="#84BE84" rx="3" ry="3" style="stroke:#038048;stroke-width:1.0;"/><text fill="#000000" font-family="sans-serif" font-size="14" lengthAdjust="spacing" textLength="307" x="240.5" y="1451.207">updatePrompt(promptMessage: string) : void</text><ellipse cx="231.5" cy="1463.9043" fill="#84BE84" rx="3" ry="3" style="stroke:#038048;stroke-width:1.0;"/><text fill="#000000" font-family="sans-serif" font-size="14" lengthAdjust="spacing" textLength="377" x="240.5" y="1467.6953">updateProviderEvents(providerInfo: ProviderInfo) : void</text><polygon fill="#FFFF44" points="231.5,1475.3926,235.5,1479.3926,231.5,1483.3926,227.5,1479.3926" style="stroke:#B38D22;stroke-width:1.0;"/><text fill="#000000" font-family="sans-serif" font-size="14" lengthAdjust="spacing" textLength="141" x="240.5" y="1484.1836">addTodayBtn() : void</text><polygon fill="#FFFF44" points="231.5,1491.8809,235.5,1495.8809,231.5,1499.8809,227.5,1495.8809" style="stroke:#B38D22;stroke-width:1.0;"/><text fill="#000000" font-family="sans-serif" font-size="14" lengthAdjust="spacing" textLength="207" x="240.5" y="1500.6719">createProviderInstance() : void</text><polygon fill="#FFFF44" points="231.5,1508.3691,235.5,1512.3691,231.5,1516.3691,227.5,1512.3691" style="stroke:#B38D22;stroke-width:1.0;"/><text fill="#000000" font-family="sans-serif" font-size="14" lengthAdjust="spacing" textLength="123" x="240.5" y="1517.1602">finishBuild() : void</text><polygon fill="#FFFF44" points="231.5,1524.8574,235.5,1528.8574,231.5,1532.8574,227.5,1528.8574" style="stroke:#B38D22;stroke-width:1.0;"/><text fill="#000000" font-family="sans-serif" font-size="14" lengthAdjust="spacing" textLength="155" x="240.5" y="1533.6484">jumpIntoToday() : void</text><polygon fill="#FFFF44" points="231.5,1541.3457,235.5,1545.3457,231.5,1549.3457,227.5,1545.3457" style="stroke:#B38D22;stroke-width:1.0;"/><text fill="#000000" font-family="sans-serif" font-size="14" font-style="italic" lengthAdjust="spacing" textLength="337" x="240.5" y="1550.1367">onDateSelectedEvent(selectedDates: Date[]) : void</text><polygon fill="#FFFF44" points="231.5,1557.834,235.5,1561.834,231.5,1565.834,227.5,1561.834" style="stroke:#B38D22;stroke-width:1.0;"/><text fill="#000000" font-family="sans-serif" font-size="14" lengthAdjust="spacing" textLength="158" x="240.5" y="1566.625">prepareConfigs() : void</text><polygon fill="#FFFF44" points="231.5,1574.3223,235.5,1578.3223,231.5,1582.3223,227.5,1578.3223" style="stroke:#B38D22;stroke-width:1.0;"/><text fill="#000000" font-family="sans-serif" font-size="14" lengthAdjust="spacing" textLength="202" x="240.5" y="1583.1133">prepareToAndRedraw() : void</text><polygon fill="#FFFF44" points="231.5,1590.8105,235.5,1594.8105,231.5,1598.8105,227.5,1594.8105" style="stroke:#B38D22;stroke-width:1.0;"/><text fill="#000000" font-family="sans-serif" font-size="14" lengthAdjust="spacing" textLength="99" x="240.5" y="1599.6016">redraw() : void</text><polygon fill="#FFFF44" points="231.5,1607.2988,235.5,1611.2988,231.5,1615.2988,227.5,1611.2988" style="stroke:#B38D22;stroke-width:1.0;"/><text fill="#000000" font-family="sans-serif" font-size="14" lengthAdjust="spacing" textLength="178" x="240.5" y="1616.0898">setA11YProperties() : void</text><polygon fill="#FFFF44" points="231.5,1623.7871,235.5,1627.7871,231.5,1631.7871,227.5,1627.7871" style="stroke:#B38D22;stroke-width:1.0;"/><text fill="#000000" font-family="sans-serif" font-size="14" lengthAdjust="spacing" textLength="136" x="240.5" y="1632.5781">setCallbacks() : void</text><polygon fill="#FFFF44" points="231.5,1640.2754,235.5,1644.2754,231.5,1648.2754,227.5,1644.2754" style="stroke:#B38D22;stroke-width:1.0;"/><text fill="#000000" font-family="sans-serif" font-size="14" lengthAdjust="spacing" textLength="165" x="240.5" y="1649.0664">setHtmlElements() : void</text><polygon fill="#FFFF44" points="231.5,1656.7637,235.5,1660.7637,231.5,1664.7637,227.5,1660.7637" style="stroke:#B38D22;stroke-width:1.0;"/><text fill="#000000" font-family="sans-serif" font-size="14" font-style="italic" lengthAdjust="spacing" textLength="271" x="240.5" y="1665.5547">todayBtnClick(event: MouseEvent) : void</text><polygon fill="#FFFF44" points="231.5,1673.252,235.5,1677.252,231.5,1681.252,227.5,1677.252" style="stroke:#B38D22;stroke-width:1.0;"/><text fill="#000000" font-family="sans-serif" font-size="14" lengthAdjust="spacing" textLength="570" x="240.5" y="1682.043">triggerPlatformEventCallback(platFormCallback: OSGeneric, args: unknown[]) : void</text><polygon fill="#FFFF44" points="231.5,1689.7402,235.5,1693.7402,231.5,1697.7402,227.5,1693.7402" style="stroke:#B38D22;stroke-width:1.0;"/><text fill="#000000" font-family="sans-serif" font-size="14" lengthAdjust="spacing" textLength="318" x="240.5" y="1698.5313">triggerPlatformInitializedEventCallback() : void</text><polygon fill="#FFFF44" points="231.5,1706.2285,235.5,1710.2285,231.5,1714.2285,227.5,1710.2285" style="stroke:#B38D22;stroke-width:1.0;"/><text fill="#000000" font-family="sans-serif" font-size="14" lengthAdjust="spacing" textLength="154" x="240.5" y="1715.0195">unsetCallbacks() : void</text><polygon fill="#FFFF44" points="231.5,1722.7168,235.5,1726.7168,231.5,1730.7168,227.5,1726.7168" style="stroke:#B38D22;stroke-width:1.0;"/><text fill="#000000" font-family="sans-serif" font-size="14" lengthAdjust="spacing" textLength="198" x="240.5" y="1731.5078">unsetGlobalCallbacks() : void</text><polygon fill="#FFFF44" points="231.5,1739.2051,235.5,1743.2051,231.5,1747.2051,227.5,1743.2051" style="stroke:#B38D22;stroke-width:1.0;"/><text fill="#000000" font-family="sans-serif" font-size="14" lengthAdjust="spacing" textLength="183" x="240.5" y="1747.9961">unsetHtmlElements() : void</text><polygon fill="#FFFF44" points="231.5,1755.6934,235.5,1759.6934,231.5,1763.6934,227.5,1759.6934" style="stroke:#B38D22;stroke-width:1.0;"/><text fill="#000000" font-family="sans-serif" font-size="14" font-style="italic" lengthAdjust="spacing" textLength="226" x="240.5" y="1764.4844">updatePlatformInputAttrs() : void</text><rect fill="#F24D5C" height="6" style="stroke:#C82930;stroke-width:1.0;" width="6" x="228.5" y="1774.1816"/><text fill="#000000" font-family="sans-serif" font-size="14" lengthAdjust="spacing" textLength="146" x="240.5" y="1780.9727">_setAttributes() : void</text><rect fill="#F24D5C" height="6" style="stroke:#C82930;stroke-width:1.0;" width="6" x="228.5" y="1790.6699"/><text fill="#000000" font-family="sans-serif" font-size="14" lengthAdjust="spacing" textLength="215" x="240.5" y="1797.4609">_setCalendarCssClasses() : void</text><rect fill="#F24D5C" height="6" style="stroke:#C82930;stroke-width:1.0;" width="6" x="228.5" y="1807.1582"/><text fill="#000000" font-family="sans-serif" font-size="14" lengthAdjust="spacing" textLength="192" x="240.5" y="1813.9492">_setParentMinHeight() : void</text><rect fill="#F24D5C" height="6" style="stroke:#C82930;stroke-width:1.0;" width="6" x="228.5" y="1823.6465"/><text fill="#000000" font-family="sans-serif" font-size="14" lengthAdjust="spacing" textLength="210" x="240.5" y="1830.4375">_unsetParentMinHeight() : void</text></g><!--reverse link IDatePicker to IFlatpickr--><g id="link_IDatePicker_IFlatpickr"><path codeLine="54" d="M410.74,402.42 C419.4,416.51 428.14,430.74 436.83,444.87 " fill="none" id="IDatePicker-backto-IFlatpickr" style="stroke:#272B30;stroke-width:1.0;"/><polygon fill="none" points="404.73,406,400.22,385.3,416.65,398.67,404.73,406" style="stroke:#272B30;stroke-width:1.0;"/></g><!--reverse link IProviderPattern<Flatpickr> to IFlatpickr--><g id="link_IProviderPattern&lt;Flatpickr&gt;_IFlatpickr"><path codeLine="70" d="M760.74,344.17 C740.94,376.27 719.61,410.86 698.59,444.93 " fill="none" id="IProviderPattern&lt;Flatpickr&gt;-backto-IFlatpickr" style="stroke:#272B30;stroke-width:1.0;"/><polygon fill="none" points="754.8,340.46,771.26,327.11,766.72,347.81,754.8,340.46" style="stroke:#272B30;stroke-width:1.0;"/></g><!--reverse link IFlatpickr to AbstractFlatpickr<C>--><g id="link_IFlatpickr_AbstractFlatpickr&lt;C&gt;"><path codeLine="125" d="M567.5,892.45 C567.5,905.4 567.5,918.6 567.5,931.98 " fill="none" id="IFlatpickr-backto-AbstractFlatpickr&lt;C&gt;" style="stroke:#272B30;stroke-width:1.0;stroke-dasharray:7.0,7.0;"/><polygon fill="none" points="560.5,892.32,567.5,872.32,574.5,892.32,560.5,892.32" style="stroke:#272B30;stroke-width:1.0;"/></g><!--SRC=[xLXjRzis4FwUNo74NrGiBfPiG04Z660hIMEWQOmbsx0DGq299vapHQeaPSzz-UyxIg8ioPAxT5qB3F4NctVFaSUxU-u8wnKJ6L4azG9Ej9ug9JU1v59vexCNP-5ttnxfDc8c5GLr64AYLQ9aBcW5Y-EuWTbJHq2_f-HeoIXua6PcwwLWbfBgfYXcm572X04LamYyu_aL9oPZqKeTU- -EFFnym_GiPznu4o-KaWCHfJXJSeqxAPJ7pgQjcOjOedRHM9O03Jo-v922iBjUtz-ygbQbEXViJGvpYZfj51D9ATumce3P4uVe7FMVeNGj6IrbqPA81F3W39JP-bdrupL9mHcVU4xwC-4vYdEn4d8ZEXlXVLLtSourT6IKQH9ok21RxJT-kyD-_wCN_Wl0Qjz4v6a8giSaspyNtkI4wtivl_0PTQSzwwOAxoawXWeIfZ7h0U4ynDhnOOtnRmSegdGJx_Rk9GXGB6flei6yma3d905_NKPnvq4BvceWa29cYVQpzdhY4R4TDBgqhXrsi7Bln7Erq-z9Blgt7SHdb1YO2sOOuHVuqxVhqvq7Tdbso1OFGwRP- -BN3MYDiVe8VkVSBawMEsqcrSOVMlIrJYwGYl1H_ZwHy8c4JoHC6Zngi-Vy_NZSceSjdZd_5yIWK9pNi1yUCJUl_hTpyzyGvNEneblk0ZR3bVxftVTmBUnN4Gdn4YGoNcIVTTxnj5hNaFEWhg4HhGjoWUfOgdGkijpOj5SLKAzT6OpgrzWZeBUPqSs2n3MJGfSefjqDPqG3xUHh9CKTS8WCK9Un8doUpSsj28gIAYGbF6l5-8O892EwgWqHoAo9DsybeT8NfkC7SdgwjU77F1h2CEsDspKlDdu89TtUHKfo7iWqbM86Ix9cChUq-wdCjTJCNl9MbBZAy2qJ5Fvg6UriVYkKNsBaBI5QJIa5sYd97jW21CMD3mE_w0XrwqyUerd9fFbNcQQNb1bxYu8kFjDkNNlmkUPlio5rcVUVpE4JJvDroSM1onYP91nU4yFMuAeVGr0A1cmUES_VkGRueM-qOnjGPkSlblRNVLqNBOjGUYyfsSvCf-P6aOB6jgwBTK0n4qmlP_lzOlHddcPpOMInkpyK9komDZQkovOXrjNAQh1-x5U7PjXf8ICANBdrAk_bLD0VWIgowG1Kdn0pFJqz_RNgS0pqljxHhqTrRL9UjMazV5jJXJhWp95uujt8N9ULszuLKvqak-bO8Ee6aA7q2gN1FkjFFA8ixwhksmrTPzkgGjdRAlhr2MshWWb3zo-KBxaC2Jy8-MT1gkgv-IYO6gCw5kC7cp2Kip0tqAT4Lv1ZH0LQ5typzO8MM2WuYfcu1fOiJHTHDe0XZ7qXDVvKEd___Fd0e-Tl]--></g></svg>