<?xml version="1.0" encoding="UTF-8" standalone="no"?><svg xmlns="http://www.w3.org/2000/svg" xmlns:xlink="http://www.w3.org/1999/xlink" contentScriptType="application/ecmascript" contentStyleType="text/css" height="1243px" preserveAspectRatio="none" style="width:899px;height:1243px;background:#CED4DA;" version="1.1" viewBox="0 0 899 1243" width="899px" zoomAndPan="magnify"><defs><filter height="300%" id="frira9cm121io" width="300%" x="-1" y="-1"><feGaussianBlur result="blurOut" stdDeviation="2.0"/><feColorMatrix in="blurOut" result="blurOut2" type="matrix" values="0 0 0 0 0 0 0 0 0 0 0 0 0 0 0 0 0 0 .4 0"/><feOffset dx="4.0" dy="4.0" in="blurOut2" result="blurOut3"/><feBlend in="SourceGraphic" in2="blurOut3" mode="normal"/></filter></defs><g><!--MD5=[1f8ad7e36ae3674e724ef8b587277347]
class IFlatpickrMonth--><rect codeLine="7" fill="#FFFFFF" filter="url(#frira9cm121io)" height="294.1465" id="IFlatpickrMonth" style="stroke:#272B30;stroke-width:1.5;" width="440" x="235" y="309"/><ellipse cx="407.25" cy="325" fill="#B4A7E5" rx="11" ry="11" style="stroke:#272B30;stroke-width:1.0;"/><path d="M403.6777,321.2651 L403.6777,319.1069 L411.0571,319.1069 L411.0571,321.2651 L408.5918,321.2651 L408.5918,329.3418 L411.0571,329.3418 L411.0571,331.5 L403.6777,331.5 L403.6777,329.3418 L406.1431,329.3418 L406.1431,321.2651 Z " fill="#000000"/><text fill="#000000" font-family="sans-serif" font-size="12" font-style="italic" lengthAdjust="spacing" textLength="87" x="427.75" y="329.5352">IFlatpickrMonth</text><line style="stroke:#272B30;stroke-width:1.5;" x1="236" x2="674" y1="341" y2="341"/><ellipse cx="246" cy="352" rx="3" ry="3" style="stroke:#038048;stroke-width:1.0;fill:none;"/><text fill="#000000" font-family="sans-serif" font-size="11" lengthAdjust="spacing" textLength="84" x="255" y="355.6348">isBuilt : boolean</text><ellipse cx="246" cy="364.9551" rx="3" ry="3" style="stroke:#038048;stroke-width:1.0;fill:none;"/><text fill="#000000" font-family="sans-serif" font-size="11" lengthAdjust="spacing" textLength="99" x="255" y="368.5898">provider : flatpickr</text><ellipse cx="246" cy="377.9102" rx="3" ry="3" style="stroke:#038048;stroke-width:1.0;fill:none;"/><text fill="#000000" font-family="sans-serif" font-size="11" lengthAdjust="spacing" textLength="142" x="255" y="381.5449">providerInfo : ProviderInfo</text><ellipse cx="246" cy="390.8652" rx="3" ry="3" style="stroke:#038048;stroke-width:1.0;fill:none;"/><text fill="#000000" font-family="sans-serif" font-size="11" lengthAdjust="spacing" textLength="142" x="255" y="394.5">selfElement : HTMLElement</text><ellipse cx="246" cy="403.8203" rx="3" ry="3" style="stroke:#038048;stroke-width:1.0;fill:none;"/><text fill="#000000" font-family="sans-serif" font-size="11" lengthAdjust="spacing" textLength="88" x="255" y="407.4551">uniqueId : string</text><ellipse cx="246" cy="416.7754" rx="3" ry="3" style="stroke:#038048;stroke-width:1.0;fill:none;"/><text fill="#000000" font-family="sans-serif" font-size="11" lengthAdjust="spacing" textLength="86" x="255" y="420.4102">widgetId : string</text><line style="stroke:#272B30;stroke-width:1.5;" x1="236" x2="674" y1="426.7305" y2="426.7305"/><ellipse cx="246" cy="437.7305" fill="#84BE84" rx="3" ry="3" style="stroke:#038048;stroke-width:1.0;"/><text fill="#000000" font-family="sans-serif" font-size="11" lengthAdjust="spacing" textLength="67" x="255" y="441.3652">build() : void</text><ellipse cx="246" cy="450.6855" fill="#84BE84" rx="3" ry="3" style="stroke:#038048;stroke-width:1.0;"/><text fill="#000000" font-family="sans-serif" font-size="11" lengthAdjust="spacing" textLength="377" x="255" y="454.3203">changeProperty(propertyName: string, propertyValue: unknown) : void</text><ellipse cx="246" cy="463.6406" fill="#84BE84" rx="3" ry="3" style="stroke:#038048;stroke-width:1.0;"/><text fill="#000000" font-family="sans-serif" font-size="11" lengthAdjust="spacing" textLength="66" x="255" y="467.2754">clear() : void</text><ellipse cx="246" cy="476.5957" fill="#84BE84" rx="3" ry="3" style="stroke:#038048;stroke-width:1.0;"/><text fill="#000000" font-family="sans-serif" font-size="11" lengthAdjust="spacing" textLength="68" x="255" y="480.2305">close() : void</text><ellipse cx="246" cy="489.5508" fill="#84BE84" rx="3" ry="3" style="stroke:#038048;stroke-width:1.0;"/><text fill="#000000" font-family="sans-serif" font-size="11" lengthAdjust="spacing" textLength="82" x="255" y="493.1855">dispose() : void</text><ellipse cx="246" cy="502.5059" fill="#84BE84" rx="3" ry="3" style="stroke:#038048;stroke-width:1.0;"/><text fill="#000000" font-family="sans-serif" font-size="11" lengthAdjust="spacing" textLength="168" x="255" y="506.1406">equalsToID(id: string) : boolean</text><ellipse cx="246" cy="515.4609" fill="#84BE84" rx="3" ry="3" style="stroke:#038048;stroke-width:1.0;"/><text fill="#000000" font-family="sans-serif" font-size="11" lengthAdjust="spacing" textLength="67" x="255" y="519.0957">open() : void</text><ellipse cx="246" cy="528.416" fill="#84BE84" rx="3" ry="3" style="stroke:#038048;stroke-width:1.0;"/><text fill="#000000" font-family="sans-serif" font-size="11" lengthAdjust="spacing" textLength="335" x="255" y="532.0508">registerCallback(eventName: string, callback: OSGeneric) : void</text><ellipse cx="246" cy="541.3711" fill="#84BE84" rx="3" ry="3" style="stroke:#038048;stroke-width:1.0;"/><text fill="#000000" font-family="sans-serif" font-size="11" lengthAdjust="spacing" textLength="174" x="255" y="545.0059">setLanguage(value: string) : void</text><ellipse cx="246" cy="554.3262" fill="#84BE84" rx="3" ry="3" style="stroke:#038048;stroke-width:1.0;"/><text fill="#000000" font-family="sans-serif" font-size="11" lengthAdjust="spacing" textLength="256" x="255" y="557.9609">setProviderConfigs(providerConfigs: any) : void</text><ellipse cx="246" cy="567.2813" fill="#84BE84" rx="3" ry="3" style="stroke:#038048;stroke-width:1.0;"/><text fill="#000000" font-family="sans-serif" font-size="11" lengthAdjust="spacing" textLength="414" x="255" y="570.916">setProviderEvent(eventName: string, callback: Generic, uniqueId: string) : void</text><ellipse cx="246" cy="580.2363" fill="#84BE84" rx="3" ry="3" style="stroke:#038048;stroke-width:1.0;"/><text fill="#000000" font-family="sans-serif" font-size="11" lengthAdjust="spacing" textLength="221" x="255" y="583.8711">unsetProviderEvent(eventId: string) : void</text><ellipse cx="246" cy="593.1914" fill="#84BE84" rx="3" ry="3" style="stroke:#038048;stroke-width:1.0;"/><text fill="#000000" font-family="sans-serif" font-size="11" lengthAdjust="spacing" textLength="296" x="255" y="596.8262">updateProviderEvents(providerInfo: ProviderInfo) : void</text><!--MD5=[77bcc85a8972d579b80102ad151980e6]
class IMonthPicker--><rect codeLine="28" fill="#FFFFFF" filter="url(#frira9cm121io)" height="242.3262" id="IMonthPicker" style="stroke:#272B30;stroke-width:1.5;" width="440" x="7" y="7"/><ellipse cx="186.25" cy="23" fill="#B4A7E5" rx="11" ry="11" style="stroke:#272B30;stroke-width:1.0;"/><path d="M182.6777,19.2651 L182.6777,17.1069 L190.0571,17.1069 L190.0571,19.2651 L187.5918,19.2651 L187.5918,27.3418 L190.0571,27.3418 L190.0571,29.5 L182.6777,29.5 L182.6777,27.3418 L185.1431,27.3418 L185.1431,19.2651 Z " fill="#000000"/><text fill="#000000" font-family="sans-serif" font-size="12" font-style="italic" lengthAdjust="spacing" textLength="73" x="206.75" y="27.5352">IMonthPicker</text><line style="stroke:#272B30;stroke-width:1.5;" x1="8" x2="446" y1="39" y2="39"/><ellipse cx="18" cy="50" rx="3" ry="3" style="stroke:#038048;stroke-width:1.0;fill:none;"/><text fill="#000000" font-family="sans-serif" font-size="11" lengthAdjust="spacing" textLength="84" x="27" y="53.6348">isBuilt : boolean</text><ellipse cx="18" cy="62.9551" rx="3" ry="3" style="stroke:#038048;stroke-width:1.0;fill:none;"/><text fill="#000000" font-family="sans-serif" font-size="11" lengthAdjust="spacing" textLength="142" x="27" y="66.5898">selfElement : HTMLElement</text><ellipse cx="18" cy="75.9102" rx="3" ry="3" style="stroke:#038048;stroke-width:1.0;fill:none;"/><text fill="#000000" font-family="sans-serif" font-size="11" lengthAdjust="spacing" textLength="88" x="27" y="79.5449">uniqueId : string</text><ellipse cx="18" cy="88.8652" rx="3" ry="3" style="stroke:#038048;stroke-width:1.0;fill:none;"/><text fill="#000000" font-family="sans-serif" font-size="11" lengthAdjust="spacing" textLength="86" x="27" y="92.5">widgetId : string</text><line style="stroke:#272B30;stroke-width:1.5;" x1="8" x2="446" y1="98.8203" y2="98.8203"/><ellipse cx="18" cy="109.8203" fill="#84BE84" rx="3" ry="3" style="stroke:#038048;stroke-width:1.0;"/><text fill="#000000" font-family="sans-serif" font-size="11" lengthAdjust="spacing" textLength="67" x="27" y="113.4551">build() : void</text><ellipse cx="18" cy="122.7754" fill="#84BE84" rx="3" ry="3" style="stroke:#038048;stroke-width:1.0;"/><text fill="#000000" font-family="sans-serif" font-size="11" lengthAdjust="spacing" textLength="377" x="27" y="126.4102">changeProperty(propertyName: string, propertyValue: unknown) : void</text><ellipse cx="18" cy="135.7305" fill="#84BE84" rx="3" ry="3" style="stroke:#038048;stroke-width:1.0;"/><text fill="#000000" font-family="sans-serif" font-size="11" lengthAdjust="spacing" textLength="66" x="27" y="139.3652">clear() : void</text><ellipse cx="18" cy="148.6855" fill="#84BE84" rx="3" ry="3" style="stroke:#038048;stroke-width:1.0;"/><text fill="#000000" font-family="sans-serif" font-size="11" lengthAdjust="spacing" textLength="68" x="27" y="152.3203">close() : void</text><ellipse cx="18" cy="161.6406" fill="#84BE84" rx="3" ry="3" style="stroke:#038048;stroke-width:1.0;"/><text fill="#000000" font-family="sans-serif" font-size="11" lengthAdjust="spacing" textLength="82" x="27" y="165.2754">dispose() : void</text><ellipse cx="18" cy="174.5957" fill="#84BE84" rx="3" ry="3" style="stroke:#038048;stroke-width:1.0;"/><text fill="#000000" font-family="sans-serif" font-size="11" lengthAdjust="spacing" textLength="168" x="27" y="178.2305">equalsToID(id: string) : boolean</text><ellipse cx="18" cy="187.5508" fill="#84BE84" rx="3" ry="3" style="stroke:#038048;stroke-width:1.0;"/><text fill="#000000" font-family="sans-serif" font-size="11" lengthAdjust="spacing" textLength="67" x="27" y="191.1855">open() : void</text><ellipse cx="18" cy="200.5059" fill="#84BE84" rx="3" ry="3" style="stroke:#038048;stroke-width:1.0;"/><text fill="#000000" font-family="sans-serif" font-size="11" lengthAdjust="spacing" textLength="174" x="27" y="204.1406">setLanguage(value: string) : void</text><ellipse cx="18" cy="213.4609" fill="#84BE84" rx="3" ry="3" style="stroke:#038048;stroke-width:1.0;"/><text fill="#000000" font-family="sans-serif" font-size="11" lengthAdjust="spacing" textLength="256" x="27" y="217.0957">setProviderConfigs(providerConfigs: any) : void</text><ellipse cx="18" cy="226.416" fill="#84BE84" rx="3" ry="3" style="stroke:#038048;stroke-width:1.0;"/><text fill="#000000" font-family="sans-serif" font-size="11" lengthAdjust="spacing" textLength="414" x="27" y="230.0508">setProviderEvent(eventName: string, callback: Generic, uniqueId: string) : void</text><ellipse cx="18" cy="239.3711" fill="#84BE84" rx="3" ry="3" style="stroke:#038048;stroke-width:1.0;"/><text fill="#000000" font-family="sans-serif" font-size="11" lengthAdjust="spacing" textLength="221" x="27" y="243.0059">unsetProviderEvent(eventId: string) : void</text><!--MD5=[7edd5dd95bcecfba7ed5190d73f88bdb]
class IProviderPattern<Flatpickr>--><rect codeLine="46" fill="#FFFFFF" filter="url(#frira9cm121io)" height="216.416" id="IProviderPattern&lt;Flatpickr&gt;" style="stroke:#272B30;stroke-width:1.5;" width="403" x="482.5" y="20"/><ellipse cx="599.25" cy="36" fill="#B4A7E5" rx="11" ry="11" style="stroke:#272B30;stroke-width:1.0;"/><path d="M595.6777,32.2651 L595.6777,30.1069 L603.0571,30.1069 L603.0571,32.2651 L600.5918,32.2651 L600.5918,40.3418 L603.0571,40.3418 L603.0571,42.5 L595.6777,42.5 L595.6777,40.3418 L598.1431,40.3418 L598.1431,32.2651 Z " fill="#000000"/><text fill="#000000" font-family="sans-serif" font-size="12" font-style="italic" lengthAdjust="spacing" textLength="161" x="619.75" y="40.5352">IProviderPattern&lt;Flatpickr&gt;</text><line style="stroke:#272B30;stroke-width:1.5;" x1="483.5" x2="884.5" y1="52" y2="52"/><ellipse cx="493.5" cy="63" rx="3" ry="3" style="stroke:#038048;stroke-width:1.0;fill:none;"/><text fill="#000000" font-family="sans-serif" font-size="11" lengthAdjust="spacing" textLength="84" x="502.5" y="66.6348">isBuilt : boolean</text><ellipse cx="493.5" cy="75.9551" rx="3" ry="3" style="stroke:#038048;stroke-width:1.0;fill:none;"/><text fill="#000000" font-family="sans-serif" font-size="11" lengthAdjust="spacing" textLength="101" x="502.5" y="79.5898">provider : Flatpickr</text><ellipse cx="493.5" cy="88.9102" rx="3" ry="3" style="stroke:#038048;stroke-width:1.0;fill:none;"/><text fill="#000000" font-family="sans-serif" font-size="11" lengthAdjust="spacing" textLength="142" x="502.5" y="92.5449">providerInfo : ProviderInfo</text><ellipse cx="493.5" cy="101.8652" rx="3" ry="3" style="stroke:#038048;stroke-width:1.0;fill:none;"/><text fill="#000000" font-family="sans-serif" font-size="11" lengthAdjust="spacing" textLength="142" x="502.5" y="105.5">selfElement : HTMLElement</text><ellipse cx="493.5" cy="114.8203" rx="3" ry="3" style="stroke:#038048;stroke-width:1.0;fill:none;"/><text fill="#000000" font-family="sans-serif" font-size="11" lengthAdjust="spacing" textLength="88" x="502.5" y="118.4551">uniqueId : string</text><ellipse cx="493.5" cy="127.7754" rx="3" ry="3" style="stroke:#038048;stroke-width:1.0;fill:none;"/><text fill="#000000" font-family="sans-serif" font-size="11" lengthAdjust="spacing" textLength="86" x="502.5" y="131.4102">widgetId : string</text><line style="stroke:#272B30;stroke-width:1.5;" x1="483.5" x2="884.5" y1="137.7305" y2="137.7305"/><ellipse cx="493.5" cy="148.7305" fill="#84BE84" rx="3" ry="3" style="stroke:#038048;stroke-width:1.0;"/><text fill="#000000" font-family="sans-serif" font-size="11" lengthAdjust="spacing" textLength="67" x="502.5" y="152.3652">build() : void</text><ellipse cx="493.5" cy="161.6855" fill="#84BE84" rx="3" ry="3" style="stroke:#038048;stroke-width:1.0;"/><text fill="#000000" font-family="sans-serif" font-size="11" lengthAdjust="spacing" textLength="377" x="502.5" y="165.3203">changeProperty(propertyName: string, propertyValue: unknown) : void</text><ellipse cx="493.5" cy="174.6406" fill="#84BE84" rx="3" ry="3" style="stroke:#038048;stroke-width:1.0;"/><text fill="#000000" font-family="sans-serif" font-size="11" lengthAdjust="spacing" textLength="82" x="502.5" y="178.2754">dispose() : void</text><ellipse cx="493.5" cy="187.5957" fill="#84BE84" rx="3" ry="3" style="stroke:#038048;stroke-width:1.0;"/><text fill="#000000" font-family="sans-serif" font-size="11" lengthAdjust="spacing" textLength="168" x="502.5" y="191.2305">equalsToID(id: string) : boolean</text><ellipse cx="493.5" cy="200.5508" fill="#84BE84" rx="3" ry="3" style="stroke:#038048;stroke-width:1.0;"/><text fill="#000000" font-family="sans-serif" font-size="11" lengthAdjust="spacing" textLength="335" x="502.5" y="204.1855">registerCallback(eventName: string, callback: OSGeneric) : void</text><ellipse cx="493.5" cy="213.5059" fill="#84BE84" rx="3" ry="3" style="stroke:#038048;stroke-width:1.0;"/><text fill="#000000" font-family="sans-serif" font-size="11" lengthAdjust="spacing" textLength="231" x="502.5" y="217.1406">setProviderConfigs(newConfigs: any) : void</text><ellipse cx="493.5" cy="226.4609" fill="#84BE84" rx="3" ry="3" style="stroke:#038048;stroke-width:1.0;"/><text fill="#000000" font-family="sans-serif" font-size="11" lengthAdjust="spacing" textLength="296" x="502.5" y="230.0957">updateProviderEvents(providerInfo: ProviderInfo) : void</text><!--MD5=[54a153d952375f36f2edb44cab3971b6]
class OSUIFlatpickrMonth--><rect codeLine="62" fill="#FFFFFF" filter="url(#frira9cm121io)" height="566.2031" id="OSUIFlatpickrMonth" style="stroke:#272B30;stroke-width:1.5;" width="548" x="181" y="663"/><ellipse cx="395.75" cy="679" fill="#ADD1B2" rx="11" ry="11" style="stroke:#272B30;stroke-width:1.0;"/><path d="M398.2231,685.1431 Q397.6421,685.4419 397.0029,685.5913 Q396.3638,685.7407 395.6582,685.7407 Q393.1514,685.7407 391.8315,684.0889 Q390.5117,682.437 390.5117,679.3159 Q390.5117,676.1865 391.8315,674.5347 Q393.1514,672.8828 395.6582,672.8828 Q396.3638,672.8828 397.0112,673.0322 Q397.6587,673.1816 398.2231,673.4805 L398.2231,676.2031 Q397.5923,675.6221 396.9988,675.3523 Q396.4053,675.0825 395.7744,675.0825 Q394.4297,675.0825 393.7449,676.1492 Q393.0601,677.2158 393.0601,679.3159 Q393.0601,681.4077 393.7449,682.4744 Q394.4297,683.541 395.7744,683.541 Q396.4053,683.541 396.9988,683.2712 Q397.5923,683.0015 398.2231,682.4204 Z " fill="#000000"/><text fill="#000000" font-family="sans-serif" font-size="12" lengthAdjust="spacing" textLength="110" x="416.25" y="683.5352">OSUIFlatpickrMonth</text><line style="stroke:#272B30;stroke-width:1.5;" x1="182" x2="728" y1="695" y2="695"/><polygon fill="none" points="192,701,196,705,192,709,188,705" style="stroke:#B38D22;stroke-width:1.0;"/><text fill="#000000" font-family="sans-serif" font-size="11" lengthAdjust="spacing" textLength="304" x="201" y="709.6348">providerEventsManagerInstance : IProviderEventManager</text><polygon fill="none" points="192,713.9551,196,717.9551,192,721.9551,188,717.9551" style="stroke:#B38D22;stroke-width:1.0;"/><text fill="#000000" font-family="sans-serif" font-size="11" lengthAdjust="spacing" textLength="212" x="201" y="722.5898">_flatpickrInputElem : HTMLInputElement</text><polygon fill="none" points="192,726.9102,196,730.9102,192,734.9102,188,730.9102" style="stroke:#B38D22;stroke-width:1.0;"/><text fill="#000000" font-family="sans-serif" font-size="11" lengthAdjust="spacing" textLength="280" x="201" y="735.5449">_monthPickerProviderInputElem : HTMLInputElement</text><polygon fill="none" points="192,739.8652,196,743.8652,192,747.8652,188,743.8652" style="stroke:#B38D22;stroke-width:1.0;"/><text fill="#000000" font-family="sans-serif" font-size="11" lengthAdjust="spacing" textLength="251" x="201" y="748.5">_onSelectedCallbackEvent : OSOnSelectedEvent</text><polygon fill="none" points="192,752.8203,196,756.8203,192,760.8203,188,756.8203" style="stroke:#B38D22;stroke-width:1.0;"/><text fill="#000000" font-family="sans-serif" font-size="11" lengthAdjust="spacing" textLength="105" x="201" y="761.4551">_provider : flatpickr</text><polygon fill="none" points="192,765.7754,196,769.7754,192,773.7754,188,769.7754" style="stroke:#B38D22;stroke-width:1.0;"/><text fill="#000000" font-family="sans-serif" font-size="11" lengthAdjust="spacing" textLength="148" x="201" y="774.4102">_providerInfo : ProviderInfo</text><rect fill="none" height="6" style="stroke:#C82930;stroke-width:1.0;" width="6" x="189" y="780.7305"/><text fill="#000000" font-family="sans-serif" font-size="11" lengthAdjust="spacing" textLength="301" x="201" y="787.3652">_bodyScrollCommonBehaviour : UpdatePositionOnScroll</text><rect fill="none" height="6" style="stroke:#C82930;stroke-width:1.0;" width="6" x="189" y="793.6855"/><text fill="#000000" font-family="sans-serif" font-size="11" lengthAdjust="spacing" textLength="174" x="201" y="800.3203">_flatpickrOpts : FlatpickrOptions</text><rect fill="none" height="6" style="stroke:#C82930;stroke-width:1.0;" width="6" x="189" y="806.6406"/><text fill="#000000" font-family="sans-serif" font-size="11" lengthAdjust="spacing" textLength="203" x="201" y="813.2754">_onInitializeCallbackEvent : OSGeneric</text><rect fill="none" height="6" style="stroke:#C82930;stroke-width:1.0;" width="6" x="189" y="819.5957"/><text fill="#000000" font-family="sans-serif" font-size="11" lengthAdjust="spacing" textLength="221" x="201" y="826.2305">_zindexCommonBehavior : UpdateZindex</text><line style="stroke:#272B30;stroke-width:1.5;" x1="182" x2="728" y1="832.5508" y2="832.5508"/><ellipse cx="192" cy="843.5508" fill="#84BE84" rx="3" ry="3" style="stroke:#038048;stroke-width:1.0;"/><text fill="#000000" font-family="sans-serif" font-size="11" lengthAdjust="spacing" textLength="67" x="201" y="847.1855">build() : void</text><ellipse cx="192" cy="856.5059" fill="#84BE84" rx="3" ry="3" style="stroke:#038048;stroke-width:1.0;"/><text fill="#000000" font-family="sans-serif" font-size="11" lengthAdjust="spacing" textLength="377" x="201" y="860.1406">changeProperty(propertyName: string, propertyValue: unknown) : void</text><ellipse cx="192" cy="869.4609" fill="#84BE84" rx="3" ry="3" style="stroke:#038048;stroke-width:1.0;"/><text fill="#000000" font-family="sans-serif" font-size="11" lengthAdjust="spacing" textLength="186" x="201" y="873.0957">checkAddedProviderEvents() : void</text><ellipse cx="192" cy="882.416" fill="#84BE84" rx="3" ry="3" style="stroke:#038048;stroke-width:1.0;"/><text fill="#000000" font-family="sans-serif" font-size="11" lengthAdjust="spacing" textLength="194" x="201" y="886.0508">checkPendingProviderEvents() : void</text><ellipse cx="192" cy="895.3711" fill="#84BE84" rx="3" ry="3" style="stroke:#038048;stroke-width:1.0;"/><text fill="#000000" font-family="sans-serif" font-size="11" lengthAdjust="spacing" textLength="66" x="201" y="899.0059">clear() : void</text><ellipse cx="192" cy="908.3262" fill="#84BE84" rx="3" ry="3" style="stroke:#038048;stroke-width:1.0;"/><text fill="#000000" font-family="sans-serif" font-size="11" lengthAdjust="spacing" textLength="68" x="201" y="911.9609">close() : void</text><ellipse cx="192" cy="921.2813" fill="#84BE84" rx="3" ry="3" style="stroke:#038048;stroke-width:1.0;"/><text fill="#000000" font-family="sans-serif" font-size="11" lengthAdjust="spacing" textLength="82" x="201" y="924.916">dispose() : void</text><ellipse cx="192" cy="934.2363" fill="#84BE84" rx="3" ry="3" style="stroke:#038048;stroke-width:1.0;"/><text fill="#000000" font-family="sans-serif" font-size="11" lengthAdjust="spacing" textLength="207" x="201" y="937.8711">equalsToID(patternId: string) : boolean</text><ellipse cx="192" cy="947.1914" fill="#84BE84" rx="3" ry="3" style="stroke:#038048;stroke-width:1.0;"/><text fill="#000000" font-family="sans-serif" font-size="11" lengthAdjust="spacing" textLength="67" x="201" y="950.8262">open() : void</text><ellipse cx="192" cy="960.1465" fill="#84BE84" rx="3" ry="3" style="stroke:#038048;stroke-width:1.0;"/><text fill="#000000" font-family="sans-serif" font-size="11" lengthAdjust="spacing" textLength="335" x="201" y="963.7813">registerCallback(eventName: string, callback: OSGeneric) : void</text><ellipse cx="192" cy="973.1016" fill="#84BE84" rx="3" ry="3" style="stroke:#038048;stroke-width:1.0;"/><text fill="#000000" font-family="sans-serif" font-size="11" lengthAdjust="spacing" textLength="226" x="201" y="976.7363">setEditableInput(isEditable: boolean) : void</text><ellipse cx="192" cy="986.0566" fill="#84BE84" rx="3" ry="3" style="stroke:#038048;stroke-width:1.0;"/><text fill="#000000" font-family="sans-serif" font-size="11" lengthAdjust="spacing" textLength="174" x="201" y="989.6914">setLanguage(value: string) : void</text><ellipse cx="192" cy="999.0117" fill="#84BE84" rx="3" ry="3" style="stroke:#038048;stroke-width:1.0;"/><text fill="#000000" font-family="sans-serif" font-size="11" lengthAdjust="spacing" textLength="301" x="201" y="1002.6465">setProviderConfigs(newConfigs: FlatpickrOptions) : void</text><ellipse cx="192" cy="1011.9668" fill="#84BE84" rx="3" ry="3" style="stroke:#038048;stroke-width:1.0;"/><text fill="#000000" font-family="sans-serif" font-size="11" lengthAdjust="spacing" textLength="522" x="201" y="1015.6016">setProviderEvent(eventName: string, callback: Generic, uniqueId: string, saveEvent: boolean) : void</text><ellipse cx="192" cy="1024.9219" fill="#84BE84" rx="3" ry="3" style="stroke:#038048;stroke-width:1.0;"/><text fill="#000000" font-family="sans-serif" font-size="11" lengthAdjust="spacing" textLength="221" x="201" y="1028.5566">unsetProviderEvent(eventId: string) : void</text><ellipse cx="192" cy="1037.877" fill="#84BE84" rx="3" ry="3" style="stroke:#038048;stroke-width:1.0;"/><text fill="#000000" font-family="sans-serif" font-size="11" lengthAdjust="spacing" textLength="296" x="201" y="1041.5117">updateProviderEvents(providerInfo: ProviderInfo) : void</text><polygon fill="#FFFF44" points="192,1045.832,196,1049.832,192,1053.832,188,1049.832" style="stroke:#B38D22;stroke-width:1.0;"/><text fill="#000000" font-family="sans-serif" font-size="11" lengthAdjust="spacing" textLength="125" x="201" y="1054.4668">createdInstance() : void</text><polygon fill="#FFFF44" points="192,1058.7871,196,1062.7871,192,1066.7871,188,1062.7871" style="stroke:#B38D22;stroke-width:1.0;"/><text fill="#000000" font-family="sans-serif" font-size="11" lengthAdjust="spacing" textLength="163" x="201" y="1067.4219">createProviderInstance() : void</text><polygon fill="#FFFF44" points="192,1071.7422,196,1075.7422,192,1079.7422,188,1075.7422" style="stroke:#B38D22;stroke-width:1.0;"/><text fill="#000000" font-family="sans-serif" font-size="11" lengthAdjust="spacing" textLength="96" x="201" y="1080.377">finishBuild() : void</text><polygon fill="#FFFF44" points="192,1084.6973,196,1088.6973,192,1092.6973,188,1088.6973" style="stroke:#B38D22;stroke-width:1.0;"/><text fill="#000000" font-family="sans-serif" font-size="11" lengthAdjust="spacing" textLength="309" x="201" y="1093.332">onMonthSelectedEvent(selectedMonthYear: string[]) : void</text><polygon fill="#FFFF44" points="192,1097.6523,196,1101.6523,192,1105.6523,188,1101.6523" style="stroke:#B38D22;stroke-width:1.0;"/><text fill="#000000" font-family="sans-serif" font-size="11" lengthAdjust="spacing" textLength="124" x="201" y="1106.2871">prepareConfigs() : void</text><polygon fill="#FFFF44" points="192,1110.6074,196,1114.6074,192,1118.6074,188,1114.6074" style="stroke:#B38D22;stroke-width:1.0;"/><text fill="#000000" font-family="sans-serif" font-size="11" lengthAdjust="spacing" textLength="77" x="201" y="1119.2422">redraw() : void</text><polygon fill="#FFFF44" points="192,1123.5625,196,1127.5625,192,1131.5625,188,1127.5625" style="stroke:#B38D22;stroke-width:1.0;"/><text fill="#000000" font-family="sans-serif" font-size="11" lengthAdjust="spacing" textLength="140" x="201" y="1132.1973">setA11YProperties() : void</text><polygon fill="#FFFF44" points="192,1136.5176,196,1140.5176,192,1144.5176,188,1140.5176" style="stroke:#B38D22;stroke-width:1.0;"/><text fill="#000000" font-family="sans-serif" font-size="11" lengthAdjust="spacing" textLength="107" x="201" y="1145.1523">setCallbacks() : void</text><polygon fill="#FFFF44" points="192,1149.4727,196,1153.4727,192,1157.4727,188,1153.4727" style="stroke:#B38D22;stroke-width:1.0;"/><text fill="#000000" font-family="sans-serif" font-size="11" lengthAdjust="spacing" textLength="129" x="201" y="1158.1074">setHtmlElements() : void</text><polygon fill="#FFFF44" points="192,1162.4277,196,1166.4277,192,1170.4277,188,1166.4277" style="stroke:#B38D22;stroke-width:1.0;"/><text fill="#000000" font-family="sans-serif" font-size="11" lengthAdjust="spacing" textLength="357" x="201" y="1171.0625">triggerPlatformEventInitialized(platFormCallback: OSGeneric) : void</text><polygon fill="#FFFF44" points="192,1175.3828,196,1179.3828,192,1183.3828,188,1179.3828" style="stroke:#B38D22;stroke-width:1.0;"/><text fill="#000000" font-family="sans-serif" font-size="11" lengthAdjust="spacing" textLength="121" x="201" y="1184.0176">unsetCallbacks() : void</text><polygon fill="#FFFF44" points="192,1188.3379,196,1192.3379,192,1196.3379,188,1192.3379" style="stroke:#B38D22;stroke-width:1.0;"/><text fill="#000000" font-family="sans-serif" font-size="11" lengthAdjust="spacing" textLength="143" x="201" y="1196.9727">unsetHtmlElements() : void</text><rect fill="#F24D5C" height="6" style="stroke:#C82930;stroke-width:1.0;" width="6" x="189" y="1203.293"/><text fill="#000000" font-family="sans-serif" font-size="11" lengthAdjust="spacing" textLength="116" x="201" y="1209.9277">_setAttributes() : void</text><rect fill="#F24D5C" height="6" style="stroke:#C82930;stroke-width:1.0;" width="6" x="189" y="1216.248"/><text fill="#000000" font-family="sans-serif" font-size="11" lengthAdjust="spacing" textLength="171" x="201" y="1222.8828">_setCalendarCssClasses() : void</text><!--MD5=[17aa5defc950491a001c7010af231e79]
reverse link IMonthPicker to IFlatpickrMonth--><path codeLine="45" d="M322.57,265.65 C332.58,279.97 342.79,294.56 352.87,308.98 " fill="none" id="IMonthPicker-backto-IFlatpickrMonth" style="stroke:#272B30;stroke-width:1.0;"/><polygon fill="none" points="316.65,269.4,310.93,249,328.13,261.38,316.65,269.4" style="stroke:#272B30;stroke-width:1.0;"/><!--MD5=[e1deec6061d021a9465915f634849902]
reverse link IProviderPattern<Flatpickr> to IFlatpickrMonth--><path codeLine="61" d="M597.06,252.76 C584.22,271.04 570.89,290.03 557.76,308.71 " fill="none" id="IProviderPattern&lt;Flatpickr&gt;-backto-IFlatpickrMonth" style="stroke:#272B30;stroke-width:1.0;"/><polygon fill="none" points="591.48,248.54,608.7,236.2,602.93,256.59,591.48,248.54" style="stroke:#272B30;stroke-width:1.0;"/><!--MD5=[0437498343c108243de6a5c4a4ded192]
reverse link IFlatpickrMonth to OSUIFlatpickrMonth--><path codeLine="104" d="M455,623.09 C455,636.01 455,649.25 455,662.65 " fill="none" id="IFlatpickrMonth-backto-OSUIFlatpickrMonth" style="stroke:#272B30;stroke-width:1.0;stroke-dasharray:7.0,7.0;"/><polygon fill="none" points="448,623.09,455,603.09,462,623.09,448,623.09" style="stroke:#272B30;stroke-width:1.0;"/><!--MD5=[24f8c546e310fb2fa139060060891214]
@startuml
skinparam ClassArrowColor #272b30
skinparam ClassBorderColor #272b30
skinparam ClassBackgroundColor #fff
skinparam BackgroundColor #ced4da
hide empty methods
hide empty fields
interface "IFlatpickrMonth" {
    +isBuilt : boolean
    +provider : flatpickr
    +providerInfo : ProviderInfo
    +selfElement : HTMLElement
    +uniqueId : string
    +widgetId : string
    +build() : void
    +changeProperty(propertyName: string, propertyValue: unknown) : void
    +clear() : void
    +close() : void
    +dispose() : void
    +equalsToID(id: string) : boolean
    +open() : void
    +registerCallback(eventName: string, callback: OSGeneric) : void
    +setLanguage(value: string) : void
    +setProviderConfigs(providerConfigs: any) : void
    +setProviderEvent(eventName: string, callback: Generic, uniqueId: string) : void
    +unsetProviderEvent(eventId: string) : void
    +updateProviderEvents(providerInfo: ProviderInfo) : void
}
interface "IMonthPicker" {
    +isBuilt : boolean
    +selfElement : HTMLElement
    +uniqueId : string
    +widgetId : string
    +build() : void
    +changeProperty(propertyName: string, propertyValue: unknown) : void
    +clear() : void
    +close() : void
    +dispose() : void
    +equalsToID(id: string) : boolean
    +open() : void
    +setLanguage(value: string) : void
    +setProviderConfigs(providerConfigs: any) : void
    +setProviderEvent(eventName: string, callback: Generic, uniqueId: string) : void
    +unsetProviderEvent(eventId: string) : void
}
"IMonthPicker" <|- - "IFlatpickrMonth"
interface "IProviderPattern<Flatpickr>" {
    +isBuilt : boolean
    +provider : Flatpickr
    +providerInfo : ProviderInfo
    +selfElement : HTMLElement
    +uniqueId : string
    +widgetId : string
    +build() : void
    +changeProperty(propertyName: string, propertyValue: unknown) : void
    +dispose() : void
    +equalsToID(id: string) : boolean
    +registerCallback(eventName: string, callback: OSGeneric) : void
    +setProviderConfigs(newConfigs: any) : void
    +updateProviderEvents(providerInfo: ProviderInfo) : void
}
"IProviderPattern<Flatpickr>" <|- - "IFlatpickrMonth"
class "OSUIFlatpickrMonth" {
    #providerEventsManagerInstance : IProviderEventManager
    #_flatpickrInputElem : HTMLInputElement
    #_monthPickerProviderInputElem : HTMLInputElement
    #_onSelectedCallbackEvent : OSOnSelectedEvent
    #_provider : flatpickr
    #_providerInfo : ProviderInfo
    -_bodyScrollCommonBehaviour : UpdatePositionOnScroll
    -_flatpickrOpts : FlatpickrOptions
    -_onInitializeCallbackEvent : OSGeneric
    -_zindexCommonBehavior : UpdateZindex
    +build() : void
    +changeProperty(propertyName: string, propertyValue: unknown) : void
    +checkAddedProviderEvents() : void
    +checkPendingProviderEvents() : void
    +clear() : void
    +close() : void
    +dispose() : void
    +equalsToID(patternId: string) : boolean
    +open() : void
    +registerCallback(eventName: string, callback: OSGeneric) : void
    +setEditableInput(isEditable: boolean) : void
    +setLanguage(value: string) : void
    +setProviderConfigs(newConfigs: FlatpickrOptions) : void
    +setProviderEvent(eventName: string, callback: Generic, uniqueId: string, saveEvent: boolean) : void
    +unsetProviderEvent(eventId: string) : void
    +updateProviderEvents(providerInfo: ProviderInfo) : void
    #createdInstance() : void
    #createProviderInstance() : void
    #finishBuild() : void
    #onMonthSelectedEvent(selectedMonthYear: string[]) : void
    #prepareConfigs() : void
    #redraw() : void
    #setA11YProperties() : void
    #setCallbacks() : void
    #setHtmlElements() : void
    #triggerPlatformEventInitialized(platFormCallback: OSGeneric) : void
    #unsetCallbacks() : void
    #unsetHtmlElements() : void
    -_setAttributes() : void
    -_setCalendarCssClasses() : void
}
"IFlatpickrMonth" <|.. "OSUIFlatpickrMonth"
@enduml

PlantUML version 1.2021.14(Fri Nov 12 16:46:50 WET 2021)
(GPL source distribution)
Java Runtime: Java(TM) SE Runtime Environment
JVM: Java HotSpot(TM) 64-Bit Server VM
Default Encoding: UTF-8
Language: en
Country: PT
--></g></svg>