<?xml version="1.0" encoding="us-ascii" standalone="no"?><svg xmlns="http://www.w3.org/2000/svg" xmlns:xlink="http://www.w3.org/1999/xlink" contentStyleType="text/css" height="483px" preserveAspectRatio="none" style="width:696px;height:483px;background:#CED4DA;" version="1.1" viewBox="0 0 696 483" width="696px" zoomAndPan="magnify"><defs/><g><rect fill="#CED4DA" height="483" style="stroke:none;stroke-width:1.0;" width="696" x="0" y="0"/><!--class IGestureEvent--><g id="elem_IGestureEvent"><rect codeLine="7" fill="#FFFFFF" height="80.9766" id="IGestureEvent" rx="2.5" ry="2.5" style="stroke:#272B30;stroke-width:0.5;" width="227" x="235.5" y="7"/><ellipse cx="297.75" cy="23" fill="#B4A7E5" rx="11" ry="11" style="stroke:#181818;stroke-width:1.0;"/><path d="M294.1777,19.2651 L294.1777,17.1069 L301.5571,17.1069 L301.5571,19.2651 L299.0918,19.2651 L299.0918,27.3418 L301.5571,27.3418 L301.5571,29.5 L294.1777,29.5 L294.1777,27.3418 L296.6431,27.3418 L296.6431,19.2651 Z " fill="#000000"/><text fill="#000000" font-family="sans-serif" font-size="14" font-style="italic" lengthAdjust="spacing" textLength="94" x="318.25" y="28.291">IGestureEvent</text><line style="stroke:#272B30;stroke-width:0.5;" x1="236.5" x2="461.5" y1="39" y2="39"/><ellipse cx="246.5" cy="52.7441" fill="none" rx="3" ry="3" style="stroke:#038048;stroke-width:1.0;"/><text fill="#000000" font-family="sans-serif" font-size="14" lengthAdjust="spacing" textLength="201" x="255.5" y="56.5352">targetElement : HTMLElement</text><line style="stroke:#272B30;stroke-width:0.5;" x1="236.5" x2="461.5" y1="63.4883" y2="63.4883"/><ellipse cx="246.5" cy="77.2324" fill="#84BE84" rx="3" ry="3" style="stroke:#038048;stroke-width:1.0;"/><text fill="#000000" font-family="sans-serif" font-size="14" lengthAdjust="spacing" textLength="176" x="255.5" y="81.0234">unsetTouchEvents() : void</text></g><!--class AbstractGestureEvent--><g id="elem_AbstractGestureEvent"><rect codeLine="11" fill="#FFFFFF" height="328.3008" id="AbstractGestureEvent" rx="2.5" ry="2.5" style="stroke:#272B30;stroke-width:0.5;" width="680" x="9" y="148"/><ellipse cx="271.25" cy="164" fill="#A9DCDF" rx="11" ry="11" style="stroke:#181818;stroke-width:1.0;"/><path d="M271.1133,159.3481 L269.9595,164.4199 L272.2754,164.4199 Z M269.6191,157.1069 L272.6157,157.1069 L275.9609,169.5 L273.5122,169.5 L272.7485,166.437 L269.4697,166.437 L268.7227,169.5 L266.2739,169.5 Z " fill="#000000"/><text fill="#000000" font-family="sans-serif" font-size="14" font-style="italic" lengthAdjust="spacing" textLength="147" x="291.75" y="169.291">AbstractGestureEvent</text><line style="stroke:#272B30;stroke-width:0.5;" x1="10" x2="688" y1="180" y2="180"/><rect fill="none" height="6" style="stroke:#C82930;stroke-width:1.0;" width="6" x="17" y="190.7441"/><text fill="#000000" font-family="sans-serif" font-size="14" lengthAdjust="spacing" textLength="134" x="29" y="197.5352">_endEvent : Generic</text><rect fill="none" height="6" style="stroke:#C82930;stroke-width:1.0;" width="6" x="17" y="207.2324"/><text fill="#000000" font-family="sans-serif" font-size="14" lengthAdjust="spacing" textLength="206" x="29" y="214.0234">_endTriggerCallback : Generic</text><rect fill="none" height="6" style="stroke:#C82930;stroke-width:1.0;" width="6" x="17" y="223.7207"/><text fill="#000000" font-family="sans-serif" font-size="14" lengthAdjust="spacing" textLength="224" x="29" y="230.5117">_gestureParams : GestureParams</text><rect fill="none" height="6" style="stroke:#C82930;stroke-width:1.0;" width="6" x="17" y="240.209"/><text fill="#000000" font-family="sans-serif" font-size="14" lengthAdjust="spacing" textLength="145" x="29" y="247">_moveEvent : Generic</text><rect fill="none" height="6" style="stroke:#C82930;stroke-width:1.0;" width="6" x="17" y="256.6973"/><text fill="#000000" font-family="sans-serif" font-size="14" lengthAdjust="spacing" textLength="217" x="29" y="263.4883">_moveTriggerCallback : Generic</text><rect fill="none" height="6" style="stroke:#C82930;stroke-width:1.0;" width="6" x="17" y="273.1855"/><text fill="#000000" font-family="sans-serif" font-size="14" lengthAdjust="spacing" textLength="139" x="29" y="279.9766">_startEvent : Generic</text><rect fill="none" height="6" style="stroke:#C82930;stroke-width:1.0;" width="6" x="17" y="289.6738"/><text fill="#000000" font-family="sans-serif" font-size="14" lengthAdjust="spacing" textLength="211" x="29" y="296.4648">_startTriggerCallback : Generic</text><rect fill="none" height="6" style="stroke:#C82930;stroke-width:1.0;" width="6" x="17" y="306.1621"/><text fill="#000000" font-family="sans-serif" font-size="14" lengthAdjust="spacing" textLength="208" x="29" y="312.9531">_targetElement : HTMLElement</text><line style="stroke:#272B30;stroke-width:0.5;" x1="10" x2="688" y1="319.9063" y2="319.9063"/><ellipse cx="20" cy="333.6504" fill="#84BE84" rx="3" ry="3" style="stroke:#038048;stroke-width:1.0;"/><text fill="#000000" font-family="sans-serif" font-size="14" lengthAdjust="spacing" textLength="176" x="29" y="337.4414">unsetTouchEvents() : void</text><polygon fill="#FFFF44" points="20,345.1387,24,349.1387,20,353.1387,16,349.1387" style="stroke:#B38D22;stroke-width:1.0;"/><text fill="#000000" font-family="sans-serif" font-size="14" lengthAdjust="spacing" textLength="654" x="29" y="353.9297">setCallbacks(onStartCallback: Generic, onMoveCallback: Generic, onEndCallback: Generic) : void</text><polygon fill="#FFFF44" points="20,361.627,24,365.627,20,369.627,16,365.627" style="stroke:#B38D22;stroke-width:1.0;"/><text fill="#000000" font-family="sans-serif" font-size="14" lengthAdjust="spacing" textLength="169" x="29" y="370.418">setEventListeners() : void</text><polygon fill="#FFFF44" points="20,378.1152,24,382.1152,20,386.1152,16,382.1152" style="stroke:#B38D22;stroke-width:1.0;"/><text fill="#000000" font-family="sans-serif" font-size="14" font-style="italic" lengthAdjust="spacing" textLength="255" x="29" y="386.9063">setSwipeEvents(args: Generic[]) : void</text><rect fill="#F24D5C" height="6" style="stroke:#C82930;stroke-width:1.0;" width="6" x="17" y="396.6035"/><text fill="#000000" font-family="sans-serif" font-size="14" lengthAdjust="spacing" textLength="164" x="29" y="403.3945">_eventTouchEnd() : void</text><rect fill="#F24D5C" height="6" style="stroke:#C82930;stroke-width:1.0;" width="6" x="17" y="413.0918"/><text fill="#000000" font-family="sans-serif" font-size="14" lengthAdjust="spacing" textLength="282" x="29" y="419.8828">_eventTouchMove(evt: TouchEvent) : void</text><rect fill="#F24D5C" height="6" style="stroke:#C82930;stroke-width:1.0;" width="6" x="17" y="429.5801"/><text fill="#000000" font-family="sans-serif" font-size="14" lengthAdjust="spacing" textLength="278" x="29" y="436.3711">_eventTouchStart(evt: TouchEvent) : void</text><rect fill="#F24D5C" height="6" style="stroke:#C82930;stroke-width:1.0;" width="6" x="17" y="446.0684"/><text fill="#000000" font-family="sans-serif" font-size="14" lengthAdjust="spacing" textLength="207" x="29" y="452.8594">_removeEventListeners() : void</text><rect fill="#F24D5C" height="6" style="stroke:#C82930;stroke-width:1.0;" width="6" x="17" y="462.5566"/><text fill="#000000" font-family="sans-serif" font-size="14" lengthAdjust="spacing" textLength="161" x="29" y="469.3477">_unsetCallbacks() : void</text></g><!--reverse link IGestureEvent to AbstractGestureEvent--><g id="link_IGestureEvent_AbstractGestureEvent"><path codeLine="30" d="M349,108.11 C349,120.39 349,133.88 349,147.89 " fill="none" id="IGestureEvent-backto-AbstractGestureEvent" style="stroke:#272B30;stroke-width:1.0;stroke-dasharray:7.0,7.0;"/><polygon fill="none" points="342,108.08,349,88.08,356,108.08,342,108.08" style="stroke:#272B30;stroke-width:1.0;"/></g><!--SRC=[fLDHQy8m47xlhmZwqh4fmmq6ueiJSGE5WRwD8J6vrc2RI2wj3ET_NnAhLctdm_fsztsNx-wxAww4N5DDKp98A69VQxKPg4HfqkoyT1PFZm6UCrwLvg3_fb2sYhNA92zeKHILE5Sm0_xCQR0K70YaQ_DDKZ1BnR6SYWGaDYEa0HrH1gJnFW8qcOPX3j8qo3OWzhitLCTWXWcaDakwv6qs6HVHdf1913DJ6LlwGWplB2jNWWUxW2xGQCeCOMuEqkWNSPLIQmwI-uoj7u44BTW9c6aHnzOdcYGBE-yL9Tw_-E4SGO-MueAJgXog1HnoIm6j4wQwt4EtwlzXf8ER5ZoyZQ6IKwTvI1or7eYI4pjC9J2q5tAPlzBmscE1nk4NFMmF-znvwdGZrb3qQeV3uwEVNsTbTe6Ej1zDyh0MT9s7a9ikETbGI_O6t61hEEwyPgJMtDj-ShPqlPT_HE-dtQwvuLy0]--></g></svg>