<?xml version="1.0" encoding="us-ascii" standalone="no"?><svg xmlns="http://www.w3.org/2000/svg" xmlns:xlink="http://www.w3.org/1999/xlink" contentStyleType="text/css" height="837px" preserveAspectRatio="none" style="width:612px;height:837px;background:#CED4DA;" version="1.1" viewBox="0 0 612 837" width="612px" zoomAndPan="magnify"><defs/><g><rect fill="#CED4DA" height="837" style="stroke:none;stroke-width:1.0;" width="612" x="0" y="0"/><!--class IInlineSvg--><g id="elem_IInlineSvg"><rect codeLine="7" fill="#FFFFFF" height="196.3945" id="IInlineSvg" rx="2.5" ry="2.5" style="stroke:#272B30;stroke-width:0.5;" width="508" x="53" y="263"/><ellipse cx="269.75" cy="279" fill="#B4A7E5" rx="11" ry="11" style="stroke:#181818;stroke-width:1.0;"/><path d="M266.1777,275.2651 L266.1777,273.1069 L273.5571,273.1069 L273.5571,275.2651 L271.0918,275.2651 L271.0918,283.3418 L273.5571,283.3418 L273.5571,285.5 L266.1777,285.5 L266.1777,283.3418 L268.6431,283.3418 L268.6431,275.2651 Z " fill="#000000"/><text fill="#000000" font-family="sans-serif" font-size="14" font-style="italic" lengthAdjust="spacing" textLength="66" x="290.25" y="284.291">IInlineSvg</text><line style="stroke:#272B30;stroke-width:0.5;" x1="54" x2="560" y1="295" y2="295"/><ellipse cx="64" cy="308.7441" fill="none" rx="3" ry="3" style="stroke:#038048;stroke-width:1.0;"/><text fill="#000000" font-family="sans-serif" font-size="14" lengthAdjust="spacing" textLength="109" x="73" y="312.5352">isBuilt : boolean</text><ellipse cx="64" cy="325.2324" fill="none" rx="3" ry="3" style="stroke:#038048;stroke-width:1.0;"/><text fill="#000000" font-family="sans-serif" font-size="14" lengthAdjust="spacing" textLength="184" x="73" y="329.0234">selfElement : HTMLElement</text><ellipse cx="64" cy="341.7207" fill="none" rx="3" ry="3" style="stroke:#038048;stroke-width:1.0;"/><text fill="#000000" font-family="sans-serif" font-size="14" lengthAdjust="spacing" textLength="113" x="73" y="345.5117">uniqueId : string</text><ellipse cx="64" cy="358.209" fill="none" rx="3" ry="3" style="stroke:#038048;stroke-width:1.0;"/><text fill="#000000" font-family="sans-serif" font-size="14" lengthAdjust="spacing" textLength="111" x="73" y="362">widgetId : string</text><line style="stroke:#272B30;stroke-width:0.5;" x1="54" x2="560" y1="368.9531" y2="368.9531"/><ellipse cx="64" cy="382.6973" fill="#84BE84" rx="3" ry="3" style="stroke:#038048;stroke-width:1.0;"/><text fill="#000000" font-family="sans-serif" font-size="14" lengthAdjust="spacing" textLength="86" x="73" y="386.4883">build() : void</text><ellipse cx="64" cy="399.1855" fill="#84BE84" rx="3" ry="3" style="stroke:#038048;stroke-width:1.0;"/><text fill="#000000" font-family="sans-serif" font-size="14" lengthAdjust="spacing" textLength="482" x="73" y="402.9766">changeProperty(propertyName: string, propertyValue: unknown) : void</text><ellipse cx="64" cy="415.6738" fill="#84BE84" rx="3" ry="3" style="stroke:#038048;stroke-width:1.0;"/><text fill="#000000" font-family="sans-serif" font-size="14" lengthAdjust="spacing" textLength="104" x="73" y="419.4648">dispose() : void</text><ellipse cx="64" cy="432.1621" fill="#84BE84" rx="3" ry="3" style="stroke:#038048;stroke-width:1.0;"/><text fill="#000000" font-family="sans-serif" font-size="14" lengthAdjust="spacing" textLength="216" x="73" y="435.9531">equalsToID(id: string) : boolean</text><ellipse cx="64" cy="448.6504" fill="#84BE84" rx="3" ry="3" style="stroke:#038048;stroke-width:1.0;"/><text fill="#000000" font-family="sans-serif" font-size="14" lengthAdjust="spacing" textLength="428" x="73" y="452.4414">registerCallback(eventName: string, callback: OSGeneric) : void</text></g><!--class IPattern--><g id="elem_IPattern"><rect codeLine="18" fill="#FFFFFF" height="196.3945" id="IPattern" rx="2.5" ry="2.5" style="stroke:#272B30;stroke-width:0.5;" width="508" x="53" y="7"/><ellipse cx="276.25" cy="23" fill="#B4A7E5" rx="11" ry="11" style="stroke:#181818;stroke-width:1.0;"/><path d="M272.6777,19.2651 L272.6777,17.1069 L280.0571,17.1069 L280.0571,19.2651 L277.5918,19.2651 L277.5918,27.3418 L280.0571,27.3418 L280.0571,29.5 L272.6777,29.5 L272.6777,27.3418 L275.1431,27.3418 L275.1431,19.2651 Z " fill="#000000"/><text fill="#000000" font-family="sans-serif" font-size="14" font-style="italic" lengthAdjust="spacing" textLength="53" x="296.75" y="28.291">IPattern</text><line style="stroke:#272B30;stroke-width:0.5;" x1="54" x2="560" y1="39" y2="39"/><ellipse cx="64" cy="52.7441" fill="none" rx="3" ry="3" style="stroke:#038048;stroke-width:1.0;"/><text fill="#000000" font-family="sans-serif" font-size="14" lengthAdjust="spacing" textLength="109" x="73" y="56.5352">isBuilt : boolean</text><ellipse cx="64" cy="69.2324" fill="none" rx="3" ry="3" style="stroke:#038048;stroke-width:1.0;"/><text fill="#000000" font-family="sans-serif" font-size="14" lengthAdjust="spacing" textLength="184" x="73" y="73.0234">selfElement : HTMLElement</text><ellipse cx="64" cy="85.7207" fill="none" rx="3" ry="3" style="stroke:#038048;stroke-width:1.0;"/><text fill="#000000" font-family="sans-serif" font-size="14" lengthAdjust="spacing" textLength="113" x="73" y="89.5117">uniqueId : string</text><ellipse cx="64" cy="102.209" fill="none" rx="3" ry="3" style="stroke:#038048;stroke-width:1.0;"/><text fill="#000000" font-family="sans-serif" font-size="14" lengthAdjust="spacing" textLength="111" x="73" y="106">widgetId : string</text><line style="stroke:#272B30;stroke-width:0.5;" x1="54" x2="560" y1="112.9531" y2="112.9531"/><ellipse cx="64" cy="126.6973" fill="#84BE84" rx="3" ry="3" style="stroke:#038048;stroke-width:1.0;"/><text fill="#000000" font-family="sans-serif" font-size="14" lengthAdjust="spacing" textLength="86" x="73" y="130.4883">build() : void</text><ellipse cx="64" cy="143.1855" fill="#84BE84" rx="3" ry="3" style="stroke:#038048;stroke-width:1.0;"/><text fill="#000000" font-family="sans-serif" font-size="14" lengthAdjust="spacing" textLength="482" x="73" y="146.9766">changeProperty(propertyName: string, propertyValue: unknown) : void</text><ellipse cx="64" cy="159.6738" fill="#84BE84" rx="3" ry="3" style="stroke:#038048;stroke-width:1.0;"/><text fill="#000000" font-family="sans-serif" font-size="14" lengthAdjust="spacing" textLength="104" x="73" y="163.4648">dispose() : void</text><ellipse cx="64" cy="176.1621" fill="#84BE84" rx="3" ry="3" style="stroke:#038048;stroke-width:1.0;"/><text fill="#000000" font-family="sans-serif" font-size="14" lengthAdjust="spacing" textLength="216" x="73" y="179.9531">equalsToID(id: string) : boolean</text><ellipse cx="64" cy="192.6504" fill="#84BE84" rx="3" ry="3" style="stroke:#038048;stroke-width:1.0;"/><text fill="#000000" font-family="sans-serif" font-size="14" lengthAdjust="spacing" textLength="428" x="73" y="196.4414">registerCallback(eventName: string, callback: OSGeneric) : void</text></g><!--class InlineSvg--><g id="elem_InlineSvg"><rect codeLine="30" fill="#FFFFFF" height="311.8125" id="InlineSvg" rx="2.5" ry="2.5" style="stroke:#272B30;stroke-width:0.5;" width="596" x="9" y="519"/><ellipse cx="271.75" cy="535" fill="#ADD1B2" rx="11" ry="11" style="stroke:#181818;stroke-width:1.0;"/><path d="M274.2231,541.1431 Q273.6421,541.4419 273.0029,541.5913 Q272.3638,541.7407 271.6582,541.7407 Q269.1514,541.7407 267.8315,540.0889 Q266.5117,538.437 266.5117,535.3159 Q266.5117,532.1865 267.8315,530.5347 Q269.1514,528.8828 271.6582,528.8828 Q272.3638,528.8828 273.0112,529.0322 Q273.6587,529.1816 274.2231,529.4805 L274.2231,532.2031 Q273.5923,531.6221 272.9988,531.3523 Q272.4053,531.0825 271.7744,531.0825 Q270.4297,531.0825 269.7449,532.1492 Q269.0601,533.2158 269.0601,535.3159 Q269.0601,537.4077 269.7449,538.4744 Q270.4297,539.541 271.7744,539.541 Q272.4053,539.541 272.9988,539.2712 Q273.5923,539.0015 274.2231,538.4204 Z " fill="#000000"/><text fill="#000000" font-family="sans-serif" font-size="14" lengthAdjust="spacing" textLength="62" x="292.25" y="540.291">InlineSvg</text><line style="stroke:#272B30;stroke-width:0.5;" x1="10" x2="604" y1="551" y2="551"/><polygon fill="none" points="20,559.7441,24,563.7441,20,567.7441,16,563.7441" style="stroke:#B38D22;stroke-width:1.0;"/><text fill="#000000" font-family="sans-serif" font-size="14" lengthAdjust="spacing" textLength="176" x="29" y="568.5352">isProviderBased : boolean</text><line style="stroke:#272B30;stroke-width:0.5;" x1="10" x2="604" y1="575.4883" y2="575.4883"/><ellipse cx="20" cy="589.2324" fill="#84BE84" rx="3" ry="3" style="stroke:#038048;stroke-width:1.0;"/><text fill="#000000" font-family="sans-serif" font-size="14" lengthAdjust="spacing" textLength="86" x="29" y="593.0234">build() : void</text><ellipse cx="20" cy="605.7207" fill="#84BE84" rx="3" ry="3" style="stroke:#038048;stroke-width:1.0;"/><text fill="#000000" font-family="sans-serif" font-size="14" lengthAdjust="spacing" textLength="482" x="29" y="609.5117">changeProperty(propertyName: string, propertyValue: unknown) : void</text><ellipse cx="20" cy="622.209" fill="#84BE84" rx="3" ry="3" style="stroke:#038048;stroke-width:1.0;"/><text fill="#000000" font-family="sans-serif" font-size="14" lengthAdjust="spacing" textLength="104" x="29" y="626">dispose() : void</text><ellipse cx="20" cy="638.6973" fill="#84BE84" rx="3" ry="3" style="stroke:#038048;stroke-width:1.0;"/><text fill="#000000" font-family="sans-serif" font-size="14" lengthAdjust="spacing" textLength="266" x="29" y="642.4883">equalsToID(patternId: string) : boolean</text><ellipse cx="20" cy="655.1855" fill="#84BE84" rx="3" ry="3" style="stroke:#038048;stroke-width:1.0;"/><text fill="#000000" font-family="sans-serif" font-size="14" lengthAdjust="spacing" textLength="428" x="29" y="658.9766">registerCallback(eventName: string, callback: OSGeneric) : void</text><polygon fill="#FFFF44" points="20,666.6738,24,670.6738,20,674.6738,16,670.6738" style="stroke:#B38D22;stroke-width:1.0;"/><text fill="#000000" font-family="sans-serif" font-size="14" lengthAdjust="spacing" textLength="123" x="29" y="675.4648">finishBuild() : void</text><polygon fill="#FFFF44" points="20,683.1621,24,687.1621,20,691.1621,16,687.1621" style="stroke:#B38D22;stroke-width:1.0;"/><text fill="#000000" font-family="sans-serif" font-size="14" lengthAdjust="spacing" textLength="178" x="29" y="691.9531">setA11YProperties() : void</text><polygon fill="#FFFF44" points="20,699.6504,24,703.6504,20,707.6504,16,703.6504" style="stroke:#B38D22;stroke-width:1.0;"/><text fill="#000000" font-family="sans-serif" font-size="14" lengthAdjust="spacing" textLength="136" x="29" y="708.4414">setCallbacks() : void</text><polygon fill="#FFFF44" points="20,716.1387,24,720.1387,20,724.1387,16,720.1387" style="stroke:#B38D22;stroke-width:1.0;"/><text fill="#000000" font-family="sans-serif" font-size="14" lengthAdjust="spacing" textLength="165" x="29" y="724.9297">setHtmlElements() : void</text><polygon fill="#FFFF44" points="20,732.627,24,736.627,20,740.627,16,736.627" style="stroke:#B38D22;stroke-width:1.0;"/><text fill="#000000" font-family="sans-serif" font-size="14" lengthAdjust="spacing" textLength="570" x="29" y="741.418">triggerPlatformEventCallback(platFormCallback: OSGeneric, args: unknown[]) : void</text><polygon fill="#FFFF44" points="20,749.1152,24,753.1152,20,757.1152,16,753.1152" style="stroke:#B38D22;stroke-width:1.0;"/><text fill="#000000" font-family="sans-serif" font-size="14" lengthAdjust="spacing" textLength="318" x="29" y="757.9063">triggerPlatformInitializedEventCallback() : void</text><polygon fill="#FFFF44" points="20,765.6035,24,769.6035,20,773.6035,16,769.6035" style="stroke:#B38D22;stroke-width:1.0;"/><text fill="#000000" font-family="sans-serif" font-size="14" lengthAdjust="spacing" textLength="154" x="29" y="774.3945">unsetCallbacks() : void</text><polygon fill="#FFFF44" points="20,782.0918,24,786.0918,20,790.0918,16,786.0918" style="stroke:#B38D22;stroke-width:1.0;"/><text fill="#000000" font-family="sans-serif" font-size="14" lengthAdjust="spacing" textLength="198" x="29" y="790.8828">unsetGlobalCallbacks() : void</text><polygon fill="#FFFF44" points="20,798.5801,24,802.5801,20,806.5801,16,802.5801" style="stroke:#B38D22;stroke-width:1.0;"/><text fill="#000000" font-family="sans-serif" font-size="14" lengthAdjust="spacing" textLength="183" x="29" y="807.3711">unsetHtmlElements() : void</text><rect fill="#F24D5C" height="6" style="stroke:#C82930;stroke-width:1.0;" width="6" x="17" y="817.0684"/><text fill="#000000" font-family="sans-serif" font-size="14" lengthAdjust="spacing" textLength="138" x="29" y="823.8594">_setSvgCode() : void</text></g><!--reverse link IPattern to IInlineSvg--><g id="link_IPattern_IInlineSvg"><path codeLine="29" d="M307,223.14 C307,236.46 307,249.92 307,262.94 " fill="none" id="IPattern-backto-IInlineSvg" style="stroke:#272B30;stroke-width:1.0;"/><polygon fill="none" points="300,223.11,307,203.11,314,223.11,300,223.11" style="stroke:#272B30;stroke-width:1.0;"/></g><!--reverse link IInlineSvg to InlineSvg--><g id="link_IInlineSvg_InlineSvg"><path codeLine="48" d="M307,479.09 C307,492.1 307,505.5 307,518.89 " fill="none" id="IInlineSvg-backto-InlineSvg" style="stroke:#272B30;stroke-width:1.0;stroke-dasharray:7.0,7.0;"/><polygon fill="none" points="300,479.01,307,459.01,314,479.01,300,479.01" style="stroke:#272B30;stroke-width:1.0;"/></g><!--SRC=[xLDDQzj04BtxLopnnQ5nQD928UGIgsaYw8SX8H1AAIFjI1wysbLsLZPfq__USIGRVRG-jVHIdRJlpSxCUthY9TaIF1GgCi1yuRrRHyuuhyQdRqwJLoz7tAsOEQ_Hxo-1T9bxLrdTb6LPrgePq2dgrnf62zAei2Z3eoemB9pcDfGH6a781lGPfAWEujWQidYpoW_Kzv6IvmNnh28Jr9bAd3C8jeOPJNPfi42xeQvlFxnlJZLTMNgeCDR2SV1aynfUayun3E149kZ9eQ0hHxh6qWNO7EVUbUZ3uwHiNZv2WTlBHsgBte6f1AxiqhgrxJRInALZxBN7XmeCtxhuxOJqjk5XNwN7d5ZSYS2OH3oUu4eaTdT86-vCVRgvGekUqjse7nrpvn3aOFzR-sUiRHbw_ZITTj8xIZT_ZK3zF8-9HVXAVW8_0qRTN-lV-bNMWkA_Pzkp1nbPuiLiA7NC62vEJkuRhOGyvBUJVq5TXy8qMUspibgUevyR29dpnULcwvs6Kj1tWaR3nOyK-9ntVdx-ihTjR2aG6Fg6kZkXUwkoUtGyarV69M3sblnUxFIhq9AvoEdMjzu4jXN7ywVZutO-Vm80]--></g></svg>