<?xml version="1.0" encoding="us-ascii" standalone="no"?><svg xmlns="http://www.w3.org/2000/svg" xmlns:xlink="http://www.w3.org/1999/xlink" contentStyleType="text/css" height="718px" preserveAspectRatio="none" style="width:396px;height:718px;background:#CED4DA;" version="1.1" viewBox="0 0 396 718" width="396px" zoomAndPan="magnify"><defs/><g><rect fill="#CED4DA" height="718" style="stroke:none;stroke-width:1.0;" width="396" x="0" y="0"/><!--class IListener--><g id="elem_IListener"><rect codeLine="7" fill="#FFFFFF" height="194.6719" id="IListener" rx="2.5" ry="2.5" style="stroke:#272B30;stroke-width:0.5;" width="382" x="7" y="229"/><ellipse cx="164.25" cy="245" fill="#B4A7E5" rx="11" ry="11" style="stroke:#181818;stroke-width:1.0;"/><path d="M160.1719,240.7656 L160.1719,238.6094 L167.5625,238.6094 L167.5625,240.7656 L165.0938,240.7656 L165.0938,248.8438 L167.5625,248.8438 L167.5625,251 L160.1719,251 L160.1719,248.8438 L162.6406,248.8438 L162.6406,240.7656 L160.1719,240.7656 Z " fill="#000000"/><text fill="#000000" font-family="sans-serif" font-size="14" font-style="italic" lengthAdjust="spacing" textLength="59" x="184.75" y="249.8467">IListener</text><line style="stroke:#272B30;stroke-width:0.5;" x1="8" x2="388" y1="261" y2="261"/><ellipse cx="18" cy="274.6484" fill="none" rx="3" ry="3" style="stroke:#038048;stroke-width:1.0;"/><text fill="#000000" font-family="sans-serif" font-size="14" lengthAdjust="spacing" textLength="157" x="27" y="277.9951">handlers : OSGeneric[]</text><line style="stroke:#272B30;stroke-width:0.5;" x1="8" x2="388" y1="285.2969" y2="285.2969"/><ellipse cx="18" cy="298.9453" fill="#84BE84" rx="3" ry="3" style="stroke:#038048;stroke-width:1.0;"/><text fill="#000000" font-family="sans-serif" font-size="14" lengthAdjust="spacing" textLength="116" x="27" y="302.292">addEvent() : void</text><ellipse cx="18" cy="315.2422" fill="#84BE84" rx="3" ry="3" style="stroke:#038048;stroke-width:1.0;"/><text fill="#000000" font-family="sans-serif" font-size="14" lengthAdjust="spacing" textLength="346" x="27" y="318.5889">addHandler(handler: OSGeneric, args: any[]) : void</text><ellipse cx="18" cy="331.5391" fill="#84BE84" rx="3" ry="3" style="stroke:#038048;stroke-width:1.0;"/><text fill="#000000" font-family="sans-serif" font-size="14" lengthAdjust="spacing" textLength="206" x="27" y="334.8857">disableBodyClickEvent() : void</text><ellipse cx="18" cy="347.8359" fill="#84BE84" rx="3" ry="3" style="stroke:#038048;stroke-width:1.0;"/><text fill="#000000" font-family="sans-serif" font-size="14" lengthAdjust="spacing" textLength="204" x="27" y="351.1826">enableBodyClickEvent() : void</text><ellipse cx="18" cy="364.1328" fill="#84BE84" rx="3" ry="3" style="stroke:#038048;stroke-width:1.0;"/><text fill="#000000" font-family="sans-serif" font-size="14" lengthAdjust="spacing" textLength="165" x="27" y="367.4795">hasHandlers() : boolean</text><ellipse cx="18" cy="380.4297" fill="#84BE84" rx="3" ry="3" style="stroke:#038048;stroke-width:1.0;"/><text fill="#000000" font-family="sans-serif" font-size="14" lengthAdjust="spacing" textLength="142" x="27" y="383.7764">removeEvent() : void</text><ellipse cx="18" cy="396.7266" fill="#84BE84" rx="3" ry="3" style="stroke:#038048;stroke-width:1.0;"/><text fill="#000000" font-family="sans-serif" font-size="14" lengthAdjust="spacing" textLength="291" x="27" y="400.0732">removeHandler(handler: OSGeneric) : void</text><ellipse cx="18" cy="413.0234" fill="#84BE84" rx="3" ry="3" style="stroke:#038048;stroke-width:1.0;"/><text fill="#000000" font-family="sans-serif" font-size="14" lengthAdjust="spacing" textLength="356" x="27" y="416.3701">trigger(data: unknown, args: unknown[]) : unknown</text></g><!--class IEvent<unknown>--><g id="elem_IEvent&lt;unknown&gt;"><rect codeLine="18" fill="#FFFFFF" height="162.0781" id="IEvent&lt;unknown&gt;" rx="2.5" ry="2.5" style="stroke:#272B30;stroke-width:0.5;" width="382" x="7" y="7"/><ellipse cx="127.75" cy="23" fill="#B4A7E5" rx="11" ry="11" style="stroke:#181818;stroke-width:1.0;"/><path d="M123.6719,18.7656 L123.6719,16.6094 L131.0625,16.6094 L131.0625,18.7656 L128.5938,18.7656 L128.5938,26.8438 L131.0625,26.8438 L131.0625,29 L123.6719,29 L123.6719,26.8438 L126.1406,26.8438 L126.1406,18.7656 L123.6719,18.7656 Z " fill="#000000"/><text fill="#000000" font-family="sans-serif" font-size="14" font-style="italic" lengthAdjust="spacing" textLength="132" x="148.25" y="27.8467">IEvent&lt;unknown&gt;</text><line style="stroke:#272B30;stroke-width:0.5;" x1="8" x2="388" y1="39" y2="39"/><ellipse cx="18" cy="52.6484" fill="none" rx="3" ry="3" style="stroke:#038048;stroke-width:1.0;"/><text fill="#000000" font-family="sans-serif" font-size="14" lengthAdjust="spacing" textLength="157" x="27" y="55.9951">handlers : OSGeneric[]</text><line style="stroke:#272B30;stroke-width:0.5;" x1="8" x2="388" y1="63.2969" y2="63.2969"/><ellipse cx="18" cy="76.9453" fill="#84BE84" rx="3" ry="3" style="stroke:#038048;stroke-width:1.0;"/><text fill="#000000" font-family="sans-serif" font-size="14" lengthAdjust="spacing" textLength="116" x="27" y="80.292">addEvent() : void</text><ellipse cx="18" cy="93.2422" fill="#84BE84" rx="3" ry="3" style="stroke:#038048;stroke-width:1.0;"/><text fill="#000000" font-family="sans-serif" font-size="14" lengthAdjust="spacing" textLength="346" x="27" y="96.5889">addHandler(handler: OSGeneric, args: any[]) : void</text><ellipse cx="18" cy="109.5391" fill="#84BE84" rx="3" ry="3" style="stroke:#038048;stroke-width:1.0;"/><text fill="#000000" font-family="sans-serif" font-size="14" lengthAdjust="spacing" textLength="165" x="27" y="112.8857">hasHandlers() : boolean</text><ellipse cx="18" cy="125.8359" fill="#84BE84" rx="3" ry="3" style="stroke:#038048;stroke-width:1.0;"/><text fill="#000000" font-family="sans-serif" font-size="14" lengthAdjust="spacing" textLength="142" x="27" y="129.1826">removeEvent() : void</text><ellipse cx="18" cy="142.1328" fill="#84BE84" rx="3" ry="3" style="stroke:#038048;stroke-width:1.0;"/><text fill="#000000" font-family="sans-serif" font-size="14" lengthAdjust="spacing" textLength="291" x="27" y="145.4795">removeHandler(handler: OSGeneric) : void</text><ellipse cx="18" cy="158.4297" fill="#84BE84" rx="3" ry="3" style="stroke:#038048;stroke-width:1.0;"/><text fill="#000000" font-family="sans-serif" font-size="14" lengthAdjust="spacing" textLength="356" x="27" y="161.7764">trigger(data: unknown, args: unknown[]) : unknown</text></g><!--class AbstractListener<T>--><g id="elem_AbstractListener&lt;T&gt;"><rect codeLine="28" fill="#FFFFFF" height="227.2656" id="AbstractListener&lt;T&gt;" rx="2.5" ry="2.5" style="stroke:#272B30;stroke-width:0.5;" width="378" x="9" y="484"/><ellipse cx="121.25" cy="500" fill="#A9DCDF" rx="11" ry="11" style="stroke:#181818;stroke-width:1.0;"/><path d="M121.3594,495.3438 L120.2031,500.4219 L122.5313,500.4219 L121.3594,495.3438 Z M119.875,493.1094 L122.8594,493.1094 L126.2188,505.5 L123.7656,505.5 L123,502.4375 L119.7188,502.4375 L118.9688,505.5 L116.5313,505.5 L119.875,493.1094 Z " fill="#000000"/><text fill="#000000" font-family="sans-serif" font-size="14" font-style="italic" lengthAdjust="spacing" textLength="145" x="141.75" y="504.8467">AbstractListener&lt;T&gt;</text><line style="stroke:#272B30;stroke-width:0.5;" x1="10" x2="386" y1="516" y2="516"/><polygon fill="none" points="20,524.6484,24,528.6484,20,532.6484,16,528.6484" style="stroke:#B38D22;stroke-width:1.0;"/><text fill="#000000" font-family="sans-serif" font-size="14" lengthAdjust="spacing" textLength="248" x="29" y="532.9951">eventCallback : EventListenerObject</text><polygon fill="none" points="20,540.9453,24,544.9453,20,548.9453,16,544.9453" style="stroke:#B38D22;stroke-width:1.0;"/><text fill="#000000" font-family="sans-serif" font-size="14" lengthAdjust="spacing" textLength="150" x="29" y="549.292">useCapture : boolean</text><rect fill="none" height="6" style="stroke:#C82930;stroke-width:1.0;" width="6" x="17" y="559.2422"/><text fill="#000000" font-family="sans-serif" font-size="14" lengthAdjust="spacing" textLength="138" x="29" y="565.5889">_eventName : string</text><rect fill="none" height="6" style="stroke:#C82930;stroke-width:1.0;" width="6" x="17" y="575.5391"/><text fill="#000000" font-family="sans-serif" font-size="14" lengthAdjust="spacing" textLength="352" x="29" y="581.8857">_eventTarget : HTMLElement | Document | Window</text><rect fill="none" height="6" style="stroke:#C82930;stroke-width:1.0;" width="6" x="17" y="591.8359"/><text fill="#000000" font-family="sans-serif" font-size="14" lengthAdjust="spacing" textLength="302" x="29" y="598.1826">_eventType : HTMLEvent | BalloonOnToggle</text><line style="stroke:#272B30;stroke-width:0.5;" x1="10" x2="386" y1="605.4844" y2="605.4844"/><ellipse cx="20" cy="619.1328" fill="#84BE84" rx="3" ry="3" style="stroke:#038048;stroke-width:1.0;"/><text fill="#000000" font-family="sans-serif" font-size="14" lengthAdjust="spacing" textLength="116" x="29" y="622.4795">addEvent() : void</text><ellipse cx="20" cy="635.4297" fill="#84BE84" rx="3" ry="3" style="stroke:#038048;stroke-width:1.0;"/><text fill="#000000" font-family="sans-serif" font-size="14" lengthAdjust="spacing" textLength="265" x="29" y="638.7764">addHandler(handler: OSGeneric) : void</text><ellipse cx="20" cy="651.7266" fill="#84BE84" rx="3" ry="3" style="stroke:#038048;stroke-width:1.0;"/><text fill="#000000" font-family="sans-serif" font-size="14" lengthAdjust="spacing" textLength="165" x="29" y="655.0732">hasHandlers() : boolean</text><ellipse cx="20" cy="668.0234" fill="#84BE84" rx="3" ry="3" style="stroke:#038048;stroke-width:1.0;"/><text fill="#000000" font-family="sans-serif" font-size="14" lengthAdjust="spacing" textLength="142" x="29" y="671.3701">removeEvent() : void</text><ellipse cx="20" cy="684.3203" fill="#84BE84" rx="3" ry="3" style="stroke:#038048;stroke-width:1.0;"/><text fill="#000000" font-family="sans-serif" font-size="14" lengthAdjust="spacing" textLength="291" x="29" y="687.667">removeHandler(handler: OSGeneric) : void</text><ellipse cx="20" cy="700.6172" fill="#84BE84" rx="3" ry="3" style="stroke:#038048;stroke-width:1.0;"/><text fill="#000000" font-family="sans-serif" font-size="14" lengthAdjust="spacing" textLength="265" x="29" y="703.9639">trigger(data: T, args: unknown[]) : void</text></g><!--reverse link IEvent<unknown> to IListener--><g id="link_IEvent&lt;unknown&gt;_IListener"><path codeLine="27" d="M198,187.07 C198,206.23 198,208.89 198,228.72 " fill="none" id="IEvent&lt;unknown&gt;-backto-IListener" style="stroke:#272B30;stroke-width:1.0;"/><polygon fill="none" points="198,169.07,192,187.07,204,187.07,198,169.07" style="stroke:#272B30;stroke-width:1.0;"/></g><!--reverse link IListener to AbstractListener<T>--><g id="link_IListener_AbstractListener&lt;T&gt;"><path codeLine="41" d="M198,442.24 C198,461.52 198,463.92 198,483.69 " fill="none" id="IListener-backto-AbstractListener&lt;T&gt;" style="stroke:#272B30;stroke-width:1.0;stroke-dasharray:7.0,7.0;"/><polygon fill="none" points="198,424.24,192,442.24,204,442.24,198,424.24" style="stroke:#272B30;stroke-width:1.0;"/></g><!--SRC=[pLHDIyD04BtdLoprecYBg22K8hHHL51xCE11H2QxatJjPgViRbgAzR-x-QWcMXMyQ4xPUU_Dnvjix5Jg6HZ8MAZ0sg4nj0X9aM5R1yS7yU5-ODkC4Hc1vdiAy6bgADUYfYL9qk1yWZcA8m71H0facCtSacNe9YHiCvH8L3uYjKEJ04VMkRoIrg56qs7F0VFFxWIqK6WiwxFnxNa1INx_K64WnDaSjTlUyUYSf7WBNrIgxLhTqEunCAdjCz3B-uUsJaWBiS8HYMMe99zkoetwHye4R5tUbaXCf11q1HhCQ8wRP1NoTUDjjZCoJJrFW8C-o_LKqqAlPwkFrNpr8NXf-LnsCAYnaxzm-z_QzDcSmQhRRNwR0SJM6U2EyU9kiCwmFgyPW-ZDqYqiaeMWLEplY2zK9byJn_4JSbSHSuiXp5nky8CRtSSonmra1U8hIPqsWSYFWyv35z7rrPd2pCVOYfqIp-lNEwa5BLgQvGpNYdb56laUYVHOHvIc2d-_z3_VSxHnmoMxME_xFsQmwlKsR-yL]--></g></svg>