<?xml version="1.0" encoding="us-ascii" standalone="no"?><svg xmlns="http://www.w3.org/2000/svg" xmlns:xlink="http://www.w3.org/1999/xlink" contentStyleType="text/css" height="674px" preserveAspectRatio="none" style="width:395px;height:674px;background:#CED4DA;" version="1.1" viewBox="0 0 395 674" width="395px" zoomAndPan="magnify"><defs/><g><rect fill="#CED4DA" height="674" style="stroke:none;stroke-width:1.0;" width="395" x="0" y="0"/><!--class IListener--><g id="elem_IListener"><rect codeLine="7" fill="#FFFFFF" height="171.9063" id="IListener" rx="2.5" ry="2.5" style="stroke:#272B30;stroke-width:0.5;" width="381" x="7" y="206"/><ellipse cx="164.25" cy="222" fill="#B4A7E5" rx="11" ry="11" style="stroke:#181818;stroke-width:1.0;"/><path d="M160.6777,218.2651 L160.6777,216.1069 L168.0571,216.1069 L168.0571,218.2651 L165.5918,218.2651 L165.5918,226.3418 L168.0571,226.3418 L168.0571,228.5 L160.6777,228.5 L160.6777,226.3418 L163.1431,226.3418 L163.1431,218.2651 Z " fill="#000000"/><text fill="#000000" font-family="sans-serif" font-size="14" font-style="italic" lengthAdjust="spacing" textLength="58" x="184.75" y="227.291">IListener</text><line style="stroke:#272B30;stroke-width:0.5;" x1="8" x2="387" y1="238" y2="238"/><ellipse cx="18" cy="251.7441" fill="#84BE84" rx="3" ry="3" style="stroke:#038048;stroke-width:1.0;"/><text fill="#000000" font-family="sans-serif" font-size="14" lengthAdjust="spacing" textLength="114" x="27" y="255.5352">addEvent() : void</text><ellipse cx="18" cy="268.2324" fill="#84BE84" rx="3" ry="3" style="stroke:#038048;stroke-width:1.0;"/><text fill="#000000" font-family="sans-serif" font-size="14" lengthAdjust="spacing" textLength="343" x="27" y="272.0234">addHandler(handler: OSGeneric, args: any[]) : void</text><ellipse cx="18" cy="284.7207" fill="#84BE84" rx="3" ry="3" style="stroke:#038048;stroke-width:1.0;"/><text fill="#000000" font-family="sans-serif" font-size="14" lengthAdjust="spacing" textLength="203" x="27" y="288.5117">disableBodyClickEvent() : void</text><ellipse cx="18" cy="301.209" fill="#84BE84" rx="3" ry="3" style="stroke:#038048;stroke-width:1.0;"/><text fill="#000000" font-family="sans-serif" font-size="14" lengthAdjust="spacing" textLength="200" x="27" y="305">enableBodyClickEvent() : void</text><ellipse cx="18" cy="317.6973" fill="#84BE84" rx="3" ry="3" style="stroke:#038048;stroke-width:1.0;"/><text fill="#000000" font-family="sans-serif" font-size="14" lengthAdjust="spacing" textLength="163" x="27" y="321.4883">hasHandlers() : boolean</text><ellipse cx="18" cy="334.1855" fill="#84BE84" rx="3" ry="3" style="stroke:#038048;stroke-width:1.0;"/><text fill="#000000" font-family="sans-serif" font-size="14" lengthAdjust="spacing" textLength="139" x="27" y="337.9766">removeEvent() : void</text><ellipse cx="18" cy="350.6738" fill="#84BE84" rx="3" ry="3" style="stroke:#038048;stroke-width:1.0;"/><text fill="#000000" font-family="sans-serif" font-size="14" lengthAdjust="spacing" textLength="288" x="27" y="354.4648">removeHandler(handler: OSGeneric) : void</text><ellipse cx="18" cy="367.1621" fill="#84BE84" rx="3" ry="3" style="stroke:#038048;stroke-width:1.0;"/><text fill="#000000" font-family="sans-serif" font-size="14" lengthAdjust="spacing" textLength="355" x="27" y="370.9531">trigger(data: unknown, args: unknown[]) : unknown</text></g><!--class IEvent<unknown>--><g id="elem_IEvent&lt;unknown&gt;"><rect codeLine="17" fill="#FFFFFF" height="138.9297" id="IEvent&lt;unknown&gt;" rx="2.5" ry="2.5" style="stroke:#272B30;stroke-width:0.5;" width="381" x="7" y="7"/><ellipse cx="129.75" cy="23" fill="#B4A7E5" rx="11" ry="11" style="stroke:#181818;stroke-width:1.0;"/><path d="M126.1777,19.2651 L126.1777,17.1069 L133.5571,17.1069 L133.5571,19.2651 L131.0918,19.2651 L131.0918,27.3418 L133.5571,27.3418 L133.5571,29.5 L126.1777,29.5 L126.1777,27.3418 L128.6431,27.3418 L128.6431,19.2651 Z " fill="#000000"/><text fill="#000000" font-family="sans-serif" font-size="14" font-style="italic" lengthAdjust="spacing" textLength="127" x="150.25" y="28.291">IEvent&lt;unknown&gt;</text><line style="stroke:#272B30;stroke-width:0.5;" x1="8" x2="387" y1="39" y2="39"/><ellipse cx="18" cy="52.7441" fill="#84BE84" rx="3" ry="3" style="stroke:#038048;stroke-width:1.0;"/><text fill="#000000" font-family="sans-serif" font-size="14" lengthAdjust="spacing" textLength="114" x="27" y="56.5352">addEvent() : void</text><ellipse cx="18" cy="69.2324" fill="#84BE84" rx="3" ry="3" style="stroke:#038048;stroke-width:1.0;"/><text fill="#000000" font-family="sans-serif" font-size="14" lengthAdjust="spacing" textLength="343" x="27" y="73.0234">addHandler(handler: OSGeneric, args: any[]) : void</text><ellipse cx="18" cy="85.7207" fill="#84BE84" rx="3" ry="3" style="stroke:#038048;stroke-width:1.0;"/><text fill="#000000" font-family="sans-serif" font-size="14" lengthAdjust="spacing" textLength="163" x="27" y="89.5117">hasHandlers() : boolean</text><ellipse cx="18" cy="102.209" fill="#84BE84" rx="3" ry="3" style="stroke:#038048;stroke-width:1.0;"/><text fill="#000000" font-family="sans-serif" font-size="14" lengthAdjust="spacing" textLength="139" x="27" y="106">removeEvent() : void</text><ellipse cx="18" cy="118.6973" fill="#84BE84" rx="3" ry="3" style="stroke:#038048;stroke-width:1.0;"/><text fill="#000000" font-family="sans-serif" font-size="14" lengthAdjust="spacing" textLength="288" x="27" y="122.4883">removeHandler(handler: OSGeneric) : void</text><ellipse cx="18" cy="135.1855" fill="#84BE84" rx="3" ry="3" style="stroke:#038048;stroke-width:1.0;"/><text fill="#000000" font-family="sans-serif" font-size="14" lengthAdjust="spacing" textLength="355" x="27" y="138.9766">trigger(data: unknown, args: unknown[]) : unknown</text></g><!--class AbstractListener<T>--><g id="elem_AbstractListener&lt;T&gt;"><rect codeLine="26" fill="#FFFFFF" height="229.3711" id="AbstractListener&lt;T&gt;" rx="2.5" ry="2.5" style="stroke:#272B30;stroke-width:0.5;" width="314" x="40.5" y="438"/><ellipse cx="122.25" cy="454" fill="#A9DCDF" rx="11" ry="11" style="stroke:#181818;stroke-width:1.0;"/><path d="M122.1133,449.3481 L120.9595,454.4199 L123.2754,454.4199 Z M120.6191,447.1069 L123.6157,447.1069 L126.9609,459.5 L124.5122,459.5 L123.7485,456.437 L120.4697,456.437 L119.7227,459.5 L117.2739,459.5 Z " fill="#000000"/><text fill="#000000" font-family="sans-serif" font-size="14" font-style="italic" lengthAdjust="spacing" textLength="142" x="142.75" y="459.291">AbstractListener&lt;T&gt;</text><line style="stroke:#272B30;stroke-width:0.5;" x1="41.5" x2="353.5" y1="470" y2="470"/><polygon fill="none" points="51.5,478.7441,55.5,482.7441,51.5,486.7441,47.5,482.7441" style="stroke:#B38D22;stroke-width:1.0;"/><text fill="#000000" font-family="sans-serif" font-size="14" lengthAdjust="spacing" textLength="242" x="60.5" y="487.5352">eventCallback : EventListenerObject</text><polygon fill="none" points="51.5,495.2324,55.5,499.2324,51.5,503.2324,47.5,499.2324" style="stroke:#B38D22;stroke-width:1.0;"/><text fill="#000000" font-family="sans-serif" font-size="14" lengthAdjust="spacing" textLength="147" x="60.5" y="504.0234">useCapture : boolean</text><rect fill="none" height="6" style="stroke:#C82930;stroke-width:1.0;" width="6" x="48.5" y="513.7207"/><text fill="#000000" font-family="sans-serif" font-size="14" lengthAdjust="spacing" textLength="135" x="60.5" y="520.5117">_eventName : string</text><rect fill="none" height="6" style="stroke:#C82930;stroke-width:1.0;" width="6" x="48.5" y="530.209"/><text fill="#000000" font-family="sans-serif" font-size="14" lengthAdjust="spacing" textLength="261" x="60.5" y="537">_eventTarget : HTMLElement | Window</text><rect fill="none" height="6" style="stroke:#C82930;stroke-width:1.0;" width="6" x="48.5" y="546.6973"/><text fill="#000000" font-family="sans-serif" font-size="14" lengthAdjust="spacing" textLength="164" x="60.5" y="553.4883">_eventType : HTMLEvent</text><line style="stroke:#272B30;stroke-width:0.5;" x1="41.5" x2="353.5" y1="560.4414" y2="560.4414"/><ellipse cx="51.5" cy="574.1855" fill="#84BE84" rx="3" ry="3" style="stroke:#038048;stroke-width:1.0;"/><text fill="#000000" font-family="sans-serif" font-size="14" lengthAdjust="spacing" textLength="114" x="60.5" y="577.9766">addEvent() : void</text><ellipse cx="51.5" cy="590.6738" fill="#84BE84" rx="3" ry="3" style="stroke:#038048;stroke-width:1.0;"/><text fill="#000000" font-family="sans-serif" font-size="14" lengthAdjust="spacing" textLength="263" x="60.5" y="594.4648">addHandler(handler: OSGeneric) : void</text><ellipse cx="51.5" cy="607.1621" fill="#84BE84" rx="3" ry="3" style="stroke:#038048;stroke-width:1.0;"/><text fill="#000000" font-family="sans-serif" font-size="14" lengthAdjust="spacing" textLength="163" x="60.5" y="610.9531">hasHandlers() : boolean</text><ellipse cx="51.5" cy="623.6504" fill="#84BE84" rx="3" ry="3" style="stroke:#038048;stroke-width:1.0;"/><text fill="#000000" font-family="sans-serif" font-size="14" lengthAdjust="spacing" textLength="139" x="60.5" y="627.4414">removeEvent() : void</text><ellipse cx="51.5" cy="640.1387" fill="#84BE84" rx="3" ry="3" style="stroke:#038048;stroke-width:1.0;"/><text fill="#000000" font-family="sans-serif" font-size="14" lengthAdjust="spacing" textLength="288" x="60.5" y="643.9297">removeHandler(handler: OSGeneric) : void</text><ellipse cx="51.5" cy="656.627" fill="#84BE84" rx="3" ry="3" style="stroke:#038048;stroke-width:1.0;"/><text fill="#000000" font-family="sans-serif" font-size="14" lengthAdjust="spacing" textLength="265" x="60.5" y="660.418">trigger(data: T, args: unknown[]) : void</text></g><!--reverse link IEvent<unknown> to IListener--><g id="link_IEvent&lt;unknown&gt;_IListener"><path codeLine="25" d="M197.5,166.38 C197.5,179.47 197.5,192.93 197.5,205.94 " fill="none" id="IEvent&lt;unknown&gt;-backto-IListener" style="stroke:#272B30;stroke-width:1.0;"/><polygon fill="none" points="190.5,166.23,197.5,146.23,204.5,166.23,190.5,166.23" style="stroke:#272B30;stroke-width:1.0;"/></g><!--reverse link IListener to AbstractListener<T>--><g id="link_IListener_AbstractListener&lt;T&gt;"><path codeLine="39" d="M197.5,398.17 C197.5,411.23 197.5,424.64 197.5,437.82 " fill="none" id="IListener-backto-AbstractListener&lt;T&gt;" style="stroke:#272B30;stroke-width:1.0;stroke-dasharray:7.0,7.0;"/><polygon fill="none" points="190.5,398,197.5,378,204.5,398,190.5,398" style="stroke:#272B30;stroke-width:1.0;"/></g><!--SRC=[pPJVIm914CVVxwyOzCKe9Im8v0Zqa0mi7n9wY8YvsxbpSszNTbT5il-zlH-QbrOGHDtBClFzxCpE3yvCkPoXnXG2WSPqjLRBG0cbeTw-Q8Tdfvwf4Zsb6Ucl4OocYLPpoKeiZkCTPa-EY9qpz2QS4L0wioj8oKuKCxkkc9Dm7YujwHWZWjhra1jBadGDNZnmtp4orb-Gj8qZwC12SRPr3r0oGRenASuEZEwkigiyEW7KYUa0ojN3O_KUumP3GJt5Le7WqVHGR9BV8XCqPNgJAw5IWb0MegPKBUZGjKBv_E5LscgU98vZQB43SpcLQYatjPLcKLzfUA-LNkOly4ljyhSw-czRiTy0VzrixkwOXw6n6YCBKRRZKEkMzeRmnzksrIaB5g0GeTjrboWFlW57uJD5jW3dXWASsRcc3zreFkKnRZ7D59U9osHN6Bjoo3ffCBuPzWMbpWThkEUIgMK5NCreWsNsp-VwvwCS7nnYJcSJVFyT-EjMw_20tW00]--></g></svg>