<?xml version="1.0" encoding="UTF-8" standalone="no"?><svg xmlns="http://www.w3.org/2000/svg" xmlns:xlink="http://www.w3.org/1999/xlink" contentScriptType="application/ecmascript" contentStyleType="text/css" height="860px" preserveAspectRatio="none" style="width:677px;height:860px;background:#CED4DA;" version="1.1" viewBox="0 0 677 860" width="677px" zoomAndPan="magnify"><defs><filter height="300%" id="f8ntj3x0k4huh" width="300%" x="-1" y="-1"><feGaussianBlur result="blurOut" stdDeviation="2.0"/><feColorMatrix in="blurOut" result="blurOut2" type="matrix" values="0 0 0 0 0 0 0 0 0 0 0 0 0 0 0 0 0 0 .4 0"/><feOffset dx="4.0" dy="4.0" in="blurOut2" result="blurOut3"/><feBlend in="SourceGraphic" in2="blurOut3" mode="normal"/></filter></defs><g><!--MD5=[77bcc85a8972d579b80102ad151980e6]
class IMonthPicker--><rect codeLine="7" fill="#FFFFFF" filter="url(#f8ntj3x0k4huh)" height="240.0703" id="IMonthPicker" style="stroke:#272B30;stroke-width:1.5;" width="472" x="131.5" y="217"/><ellipse cx="323.25" cy="233" fill="#B4A7E5" rx="11" ry="11" style="stroke:#272B30;stroke-width:1.0;"/><path d="M319.1719,228.7656 L319.1719,226.6094 L326.5625,226.6094 L326.5625,228.7656 L324.0938,228.7656 L324.0938,236.8438 L326.5625,236.8438 L326.5625,239 L319.1719,239 L319.1719,236.8438 L321.6406,236.8438 L321.6406,228.7656 L319.1719,228.7656 Z " fill="#000000"/><text fill="#000000" font-family="sans-serif" font-size="12" font-style="italic" lengthAdjust="spacing" textLength="80" x="343.75" y="237.1543">IMonthPicker</text><line style="stroke:#272B30;stroke-width:1.5;" x1="132.5" x2="602.5" y1="249" y2="249"/><ellipse cx="142.5" cy="260" rx="3" ry="3" style="stroke:#038048;stroke-width:1.0;fill:none;"/><text fill="#000000" font-family="sans-serif" font-size="11" lengthAdjust="spacing" textLength="92" x="151.5" y="263.2104">isBuilt : boolean</text><ellipse cx="142.5" cy="272.8047" rx="3" ry="3" style="stroke:#038048;stroke-width:1.0;fill:none;"/><text fill="#000000" font-family="sans-serif" font-size="11" lengthAdjust="spacing" textLength="155" x="151.5" y="276.0151">selfElement : HTMLElement</text><ellipse cx="142.5" cy="285.6094" rx="3" ry="3" style="stroke:#038048;stroke-width:1.0;fill:none;"/><text fill="#000000" font-family="sans-serif" font-size="11" lengthAdjust="spacing" textLength="93" x="151.5" y="288.8198">uniqueId : string</text><ellipse cx="142.5" cy="298.4141" rx="3" ry="3" style="stroke:#038048;stroke-width:1.0;fill:none;"/><text fill="#000000" font-family="sans-serif" font-size="11" lengthAdjust="spacing" textLength="92" x="151.5" y="301.6245">widgetId : string</text><line style="stroke:#272B30;stroke-width:1.5;" x1="132.5" x2="602.5" y1="308.2188" y2="308.2188"/><ellipse cx="142.5" cy="319.2188" fill="#84BE84" rx="3" ry="3" style="stroke:#038048;stroke-width:1.0;"/><text fill="#000000" font-family="sans-serif" font-size="11" lengthAdjust="spacing" textLength="70" x="151.5" y="322.4292">build() : void</text><ellipse cx="142.5" cy="332.0234" fill="#84BE84" rx="3" ry="3" style="stroke:#038048;stroke-width:1.0;"/><text fill="#000000" font-family="sans-serif" font-size="11" lengthAdjust="spacing" textLength="399" x="151.5" y="335.2339">changeProperty(propertyName: string, propertyValue: unknown) : void</text><ellipse cx="142.5" cy="344.8281" fill="#84BE84" rx="3" ry="3" style="stroke:#038048;stroke-width:1.0;"/><text fill="#000000" font-family="sans-serif" font-size="11" lengthAdjust="spacing" textLength="71" x="151.5" y="348.0386">clear() : void</text><ellipse cx="142.5" cy="357.6328" fill="#84BE84" rx="3" ry="3" style="stroke:#038048;stroke-width:1.0;"/><text fill="#000000" font-family="sans-serif" font-size="11" lengthAdjust="spacing" textLength="73" x="151.5" y="360.8433">close() : void</text><ellipse cx="142.5" cy="370.4375" fill="#84BE84" rx="3" ry="3" style="stroke:#038048;stroke-width:1.0;"/><text fill="#000000" font-family="sans-serif" font-size="11" lengthAdjust="spacing" textLength="88" x="151.5" y="373.6479">dispose() : void</text><ellipse cx="142.5" cy="383.2422" fill="#84BE84" rx="3" ry="3" style="stroke:#038048;stroke-width:1.0;"/><text fill="#000000" font-family="sans-serif" font-size="11" lengthAdjust="spacing" textLength="179" x="151.5" y="386.4526">equalsToID(id: string) : boolean</text><ellipse cx="142.5" cy="396.0469" fill="#84BE84" rx="3" ry="3" style="stroke:#038048;stroke-width:1.0;"/><text fill="#000000" font-family="sans-serif" font-size="11" lengthAdjust="spacing" textLength="71" x="151.5" y="399.2573">open() : void</text><ellipse cx="142.5" cy="408.8516" fill="#84BE84" rx="3" ry="3" style="stroke:#038048;stroke-width:1.0;"/><text fill="#000000" font-family="sans-serif" font-size="11" lengthAdjust="spacing" textLength="187" x="151.5" y="412.062">setLanguage(value: string) : void</text><ellipse cx="142.5" cy="421.6563" fill="#84BE84" rx="3" ry="3" style="stroke:#038048;stroke-width:1.0;"/><text fill="#000000" font-family="sans-serif" font-size="11" lengthAdjust="spacing" textLength="269" x="151.5" y="424.8667">setProviderConfigs(providerConfigs: any) : void</text><ellipse cx="142.5" cy="434.4609" fill="#84BE84" rx="3" ry="3" style="stroke:#038048;stroke-width:1.0;"/><text fill="#000000" font-family="sans-serif" font-size="11" lengthAdjust="spacing" textLength="446" x="151.5" y="437.6714">setProviderEvent(eventName: string, callback: Generic, uniqueId: string) : void</text><ellipse cx="142.5" cy="447.2656" fill="#84BE84" rx="3" ry="3" style="stroke:#038048;stroke-width:1.0;"/><text fill="#000000" font-family="sans-serif" font-size="11" lengthAdjust="spacing" textLength="235" x="151.5" y="450.4761">unsetProviderEvent(eventId: string) : void</text><!--MD5=[3266101ea6228889a90c639b28de0501]
class IPattern--><rect codeLine="24" fill="#FFFFFF" filter="url(#f8ntj3x0k4huh)" height="150.4375" id="IPattern" style="stroke:#272B30;stroke-width:1.5;" width="425" x="7" y="7"/><ellipse cx="190.25" cy="23" fill="#B4A7E5" rx="11" ry="11" style="stroke:#272B30;stroke-width:1.0;"/><path d="M186.1719,18.7656 L186.1719,16.6094 L193.5625,16.6094 L193.5625,18.7656 L191.0938,18.7656 L191.0938,26.8438 L193.5625,26.8438 L193.5625,29 L186.1719,29 L186.1719,26.8438 L188.6406,26.8438 L188.6406,18.7656 L186.1719,18.7656 Z " fill="#000000"/><text fill="#000000" font-family="sans-serif" font-size="12" font-style="italic" lengthAdjust="spacing" textLength="50" x="210.75" y="27.1543">IPattern</text><line style="stroke:#272B30;stroke-width:1.5;" x1="8" x2="431" y1="39" y2="39"/><ellipse cx="18" cy="50" rx="3" ry="3" style="stroke:#038048;stroke-width:1.0;fill:none;"/><text fill="#000000" font-family="sans-serif" font-size="11" lengthAdjust="spacing" textLength="92" x="27" y="53.2104">isBuilt : boolean</text><ellipse cx="18" cy="62.8047" rx="3" ry="3" style="stroke:#038048;stroke-width:1.0;fill:none;"/><text fill="#000000" font-family="sans-serif" font-size="11" lengthAdjust="spacing" textLength="155" x="27" y="66.0151">selfElement : HTMLElement</text><ellipse cx="18" cy="75.6094" rx="3" ry="3" style="stroke:#038048;stroke-width:1.0;fill:none;"/><text fill="#000000" font-family="sans-serif" font-size="11" lengthAdjust="spacing" textLength="93" x="27" y="78.8198">uniqueId : string</text><ellipse cx="18" cy="88.4141" rx="3" ry="3" style="stroke:#038048;stroke-width:1.0;fill:none;"/><text fill="#000000" font-family="sans-serif" font-size="11" lengthAdjust="spacing" textLength="92" x="27" y="91.6245">widgetId : string</text><line style="stroke:#272B30;stroke-width:1.5;" x1="8" x2="431" y1="98.2188" y2="98.2188"/><ellipse cx="18" cy="109.2188" fill="#84BE84" rx="3" ry="3" style="stroke:#038048;stroke-width:1.0;"/><text fill="#000000" font-family="sans-serif" font-size="11" lengthAdjust="spacing" textLength="70" x="27" y="112.4292">build() : void</text><ellipse cx="18" cy="122.0234" fill="#84BE84" rx="3" ry="3" style="stroke:#038048;stroke-width:1.0;"/><text fill="#000000" font-family="sans-serif" font-size="11" lengthAdjust="spacing" textLength="399" x="27" y="125.2339">changeProperty(propertyName: string, propertyValue: unknown) : void</text><ellipse cx="18" cy="134.8281" fill="#84BE84" rx="3" ry="3" style="stroke:#038048;stroke-width:1.0;"/><text fill="#000000" font-family="sans-serif" font-size="11" lengthAdjust="spacing" textLength="88" x="27" y="138.0386">dispose() : void</text><ellipse cx="18" cy="147.6328" fill="#84BE84" rx="3" ry="3" style="stroke:#038048;stroke-width:1.0;"/><text fill="#000000" font-family="sans-serif" font-size="11" lengthAdjust="spacing" textLength="179" x="27" y="150.8433">equalsToID(id: string) : boolean</text><!--MD5=[10f0bc30af2cfecf3ef477b487a33739]
class IOpenable--><rect codeLine="35" fill="#FFFFFF" filter="url(#f8ntj3x0k4huh)" height="65.6094" id="IOpenable" style="stroke:#272B30;stroke-width:1.5;" width="99" x="467" y="49"/><ellipse cx="483.8" cy="65" fill="#B4A7E5" rx="11" ry="11" style="stroke:#272B30;stroke-width:1.0;"/><path d="M479.7219,60.7656 L479.7219,58.6094 L487.1125,58.6094 L487.1125,60.7656 L484.6438,60.7656 L484.6438,68.8438 L487.1125,68.8438 L487.1125,71 L479.7219,71 L479.7219,68.8438 L482.1906,68.8438 L482.1906,60.7656 L479.7219,60.7656 Z " fill="#000000"/><text fill="#000000" font-family="sans-serif" font-size="12" font-style="italic" lengthAdjust="spacing" textLength="63" x="498.2" y="69.1543">IOpenable</text><line style="stroke:#272B30;stroke-width:1.5;" x1="468" x2="565" y1="81" y2="81"/><ellipse cx="478" cy="92" fill="#84BE84" rx="3" ry="3" style="stroke:#038048;stroke-width:1.0;"/><text fill="#000000" font-family="sans-serif" font-size="11" lengthAdjust="spacing" textLength="73" x="487" y="95.2104">close() : void</text><ellipse cx="478" cy="104.8047" fill="#84BE84" rx="3" ry="3" style="stroke:#038048;stroke-width:1.0;"/><text fill="#000000" font-family="sans-serif" font-size="11" lengthAdjust="spacing" textLength="71" x="487" y="108.0151">open() : void</text><!--MD5=[4120854be68888f42cb1d6d95b54ba1c]
class AbstractMonthPicker<P, C>--><rect codeLine="40" fill="#FFFFFF" filter="url(#f8ntj3x0k4huh)" height="329.7031" id="AbstractMonthPicker&lt;P, C&gt;" style="stroke:#272B30;stroke-width:1.5;" width="591" x="72" y="517"/><ellipse cx="277.75" cy="533" fill="#A9DCDF" rx="11" ry="11" style="stroke:#272B30;stroke-width:1.0;"/><path d="M277.8594,528.3438 L276.7031,533.4219 L279.0313,533.4219 L277.8594,528.3438 Z M276.375,526.1094 L279.3594,526.1094 L282.7188,538.5 L280.2656,538.5 L279.5,535.4375 L276.2188,535.4375 L275.4688,538.5 L273.0313,538.5 L276.375,526.1094 Z " fill="#000000"/><text fill="#000000" font-family="sans-serif" font-size="12" font-style="italic" lengthAdjust="spacing" textLength="171" x="298.25" y="537.1543">AbstractMonthPicker&lt;P, C&gt;</text><line style="stroke:#272B30;stroke-width:1.5;" x1="73" x2="662" y1="549" y2="549"/><polygon fill="none" points="83,555,87,559,83,563,79,559" style="stroke:#B38D22;stroke-width:1.0;"/><text fill="#000000" font-family="sans-serif" font-size="11" lengthAdjust="spacing" textLength="324" x="92" y="563.2104">providerEventsManagerInstance : IProviderEventManager</text><polygon fill="none" points="83,567.8047,87,571.8047,83,575.8047,79,571.8047" style="stroke:#B38D22;stroke-width:1.0;"/><text fill="#000000" font-family="sans-serif" font-size="11" lengthAdjust="spacing" textLength="72" x="92" y="576.0151">_provider : P</text><polygon fill="none" points="83,580.6094,87,584.6094,83,588.6094,79,584.6094" style="stroke:#B38D22;stroke-width:1.0;"/><text fill="#000000" font-family="sans-serif" font-size="11" lengthAdjust="spacing" textLength="154" x="92" y="588.8198">_providerInfo : ProviderInfo</text><polygon fill="none" points="83,593.4141,87,597.4141,83,601.4141,79,597.4141" style="stroke:#B38D22;stroke-width:1.0;"/><text fill="#000000" font-family="sans-serif" font-size="11" lengthAdjust="spacing" textLength="143" x="92" y="601.6245">_selfElem : HTMLElement</text><polygon fill="none" points="83,606.2188,87,610.2188,83,614.2188,79,610.2188" style="stroke:#B38D22;stroke-width:1.0;"/><text fill="#000000" font-family="sans-serif" font-size="11" lengthAdjust="spacing" textLength="98" x="92" y="614.4292">_widgetId : string</text><line style="stroke:#272B30;stroke-width:1.5;" x1="73" x2="662" y1="621.0234" y2="621.0234"/><ellipse cx="83" cy="632.0234" fill="#84BE84" rx="3" ry="3" style="stroke:#038048;stroke-width:1.0;"/><text fill="#000000" font-family="sans-serif" font-size="11" lengthAdjust="spacing" textLength="70" x="92" y="635.2339">build() : void</text><ellipse cx="83" cy="644.8281" fill="#84BE84" rx="3" ry="3" style="stroke:#038048;stroke-width:1.0;"/><text fill="#000000" font-family="sans-serif" font-size="11" lengthAdjust="spacing" textLength="399" x="92" y="648.0386">changeProperty(propertyName: string, propertyValue: unknown) : void</text><ellipse cx="83" cy="657.6328" fill="#84BE84" rx="3" ry="3" style="stroke:#038048;stroke-width:1.0;"/><text fill="#000000" font-family="sans-serif" font-size="11" lengthAdjust="spacing" textLength="195" x="92" y="660.8433">checkAddedProviderEvents() : void</text><ellipse cx="83" cy="670.4375" fill="#84BE84" rx="3" ry="3" style="stroke:#038048;stroke-width:1.0;"/><text fill="#000000" font-family="sans-serif" font-size="11" lengthAdjust="spacing" textLength="205" x="92" y="673.6479">checkPendingProviderEvents() : void</text><ellipse cx="83" cy="683.2422" fill="#84BE84" rx="3" ry="3" style="stroke:#038048;stroke-width:1.0;"/><text fill="#000000" font-family="sans-serif" font-size="11" font-style="italic" lengthAdjust="spacing" textLength="72" x="92" y="686.4526">clear() : void</text><ellipse cx="83" cy="696.0469" fill="#84BE84" rx="3" ry="3" style="stroke:#038048;stroke-width:1.0;"/><text fill="#000000" font-family="sans-serif" font-size="11" font-style="italic" lengthAdjust="spacing" textLength="73" x="92" y="699.2573">close() : void</text><ellipse cx="83" cy="708.8516" fill="#84BE84" rx="3" ry="3" style="stroke:#038048;stroke-width:1.0;"/><text fill="#000000" font-family="sans-serif" font-size="11" lengthAdjust="spacing" textLength="88" x="92" y="712.062">dispose() : void</text><ellipse cx="83" cy="721.6563" fill="#84BE84" rx="3" ry="3" style="stroke:#038048;stroke-width:1.0;"/><text fill="#000000" font-family="sans-serif" font-size="11" lengthAdjust="spacing" textLength="220" x="92" y="724.8667">equalsToID(patternId: string) : boolean</text><ellipse cx="83" cy="734.4609" fill="#84BE84" rx="3" ry="3" style="stroke:#038048;stroke-width:1.0;"/><text fill="#000000" font-family="sans-serif" font-size="11" font-style="italic" lengthAdjust="spacing" textLength="72" x="92" y="737.6714">open() : void</text><ellipse cx="83" cy="747.2656" fill="#84BE84" rx="3" ry="3" style="stroke:#038048;stroke-width:1.0;"/><text fill="#000000" font-family="sans-serif" font-size="11" font-style="italic" lengthAdjust="spacing" textLength="361" x="92" y="750.4761">registerCallback(eventName: string, callback: OSGeneric) : void</text><ellipse cx="83" cy="760.0703" fill="#84BE84" rx="3" ry="3" style="stroke:#038048;stroke-width:1.0;"/><text fill="#000000" font-family="sans-serif" font-size="11" font-style="italic" lengthAdjust="spacing" textLength="187" x="92" y="763.2808">setLanguage(value: string) : void</text><ellipse cx="83" cy="772.875" fill="#84BE84" rx="3" ry="3" style="stroke:#038048;stroke-width:1.0;"/><text fill="#000000" font-family="sans-serif" font-size="11" font-style="italic" lengthAdjust="spacing" textLength="270" x="92" y="776.0854">setProviderConfigs(providerConfigs: any) : void</text><ellipse cx="83" cy="785.6797" fill="#84BE84" rx="3" ry="3" style="stroke:#038048;stroke-width:1.0;"/><text fill="#000000" font-family="sans-serif" font-size="11" lengthAdjust="spacing" textLength="565" x="92" y="788.8901">setProviderEvent(eventName: string, callback: Generic, uniqueId: string, saveEvent: boolean) : void</text><ellipse cx="83" cy="798.4844" fill="#84BE84" rx="3" ry="3" style="stroke:#038048;stroke-width:1.0;"/><text fill="#000000" font-family="sans-serif" font-size="11" lengthAdjust="spacing" textLength="235" x="92" y="801.6948">unsetProviderEvent(eventId: string) : void</text><ellipse cx="83" cy="811.2891" fill="#84BE84" rx="3" ry="3" style="stroke:#038048;stroke-width:1.0;"/><text fill="#000000" font-family="sans-serif" font-size="11" lengthAdjust="spacing" textLength="311" x="92" y="814.4995">updateProviderEvents(providerInfo: ProviderInfo) : void</text><polygon fill="#FFFF44" points="83,819.0938,87,823.0938,83,827.0938,79,823.0938" style="stroke:#B38D22;stroke-width:1.0;"/><text fill="#000000" font-family="sans-serif" font-size="11" lengthAdjust="spacing" textLength="102" x="92" y="827.3042">finishBuild() : void</text><polygon fill="#FFFF44" points="83,831.8984,87,835.8984,83,839.8984,79,835.8984" style="stroke:#B38D22;stroke-width:1.0;"/><text fill="#000000" font-family="sans-serif" font-size="11" lengthAdjust="spacing" textLength="378" x="92" y="840.1089">triggerPlatformEventInitialized(platFormCallback: OSGeneric) : void</text><!--MD5=[19301e4d51b6c3983b8304f485093df0]
reverse link IPattern to IMonthPicker--><path codeLine="34" d="M273.15,174.71 C281.12,188.34 289.43,202.54 297.67,216.63 " fill="none" id="IPattern-backto-IMonthPicker" style="stroke:#272B30;stroke-width:1.0;"/><polygon fill="none" points="266.96,178,262.9,157.2,279.05,170.93,266.96,178" style="stroke:#272B30;stroke-width:1.0;"/><!--MD5=[ab3c2e66a9ba6c78f319daad2b70de79]
reverse link IOpenable to IMonthPicker--><path codeLine="39" d="M487.46,132.3 C473.16,156.58 455.24,187.01 437.65,216.89 " fill="none" id="IOpenable-backto-IMonthPicker" style="stroke:#272B30;stroke-width:1.0;"/><polygon fill="none" points="481.45,128.72,497.63,115.04,493.51,135.83,481.45,128.72" style="stroke:#272B30;stroke-width:1.0;"/><!--MD5=[779168cd069837c3ed4f8dfaa64ec403]
reverse link IMonthPicker to AbstractMonthPicker<P, C>--><path codeLine="64" d="M367.5,477.26 C367.5,490.32 367.5,503.63 367.5,516.89 " fill="none" id="IMonthPicker-backto-AbstractMonthPicker&lt;P, C&gt;" style="stroke:#272B30;stroke-width:1.0;stroke-dasharray:7.0,7.0;"/><polygon fill="none" points="360.5,477,367.5,457,374.5,477,360.5,477" style="stroke:#272B30;stroke-width:1.0;"/><!--MD5=[ce5ff30ed49b582526f8b70481ad5609]
@startuml
skinparam ClassArrowColor #272b30
skinparam ClassBorderColor #272b30
skinparam ClassBackgroundColor #fff
skinparam BackgroundColor #ced4da
hide empty methods
hide empty fields
interface "IMonthPicker" {
    +isBuilt : boolean
    +selfElement : HTMLElement
    +uniqueId : string
    +widgetId : string
    +build() : void
    +changeProperty(propertyName: string, propertyValue: unknown) : void
    +clear() : void
    +close() : void
    +dispose() : void
    +equalsToID(id: string) : boolean
    +open() : void
    +setLanguage(value: string) : void
    +setProviderConfigs(providerConfigs: any) : void
    +setProviderEvent(eventName: string, callback: Generic, uniqueId: string) : void
    +unsetProviderEvent(eventId: string) : void
}
interface "IPattern" {
    +isBuilt : boolean
    +selfElement : HTMLElement
    +uniqueId : string
    +widgetId : string
    +build() : void
    +changeProperty(propertyName: string, propertyValue: unknown) : void
    +dispose() : void
    +equalsToID(id: string) : boolean
}
"IPattern" <|- - "IMonthPicker"
interface "IOpenable" {
    +close() : void
    +open() : void
}
"IOpenable" <|- - "IMonthPicker"
abstract class "AbstractMonthPicker<P, C>" {
    #providerEventsManagerInstance : IProviderEventManager
    #_provider : P
    #_providerInfo : ProviderInfo
    #_selfElem : HTMLElement
    #_widgetId : string
    +build() : void
    +changeProperty(propertyName: string, propertyValue: unknown) : void
    +checkAddedProviderEvents() : void
    +checkPendingProviderEvents() : void
    {abstract} +clear() : void
    {abstract} +close() : void
    +dispose() : void
    +equalsToID(patternId: string) : boolean
    {abstract} +open() : void
    {abstract} +registerCallback(eventName: string, callback: OSGeneric) : void
    {abstract} +setLanguage(value: string) : void
    {abstract} +setProviderConfigs(providerConfigs: any) : void
    +setProviderEvent(eventName: string, callback: Generic, uniqueId: string, saveEvent: boolean) : void
    +unsetProviderEvent(eventId: string) : void
    +updateProviderEvents(providerInfo: ProviderInfo) : void
    #finishBuild() : void
    #triggerPlatformEventInitialized(platFormCallback: OSGeneric) : void
}
"IMonthPicker" <|.. "AbstractMonthPicker<P, C>"
@enduml

PlantUML version 1.2021.14(Fri Nov 12 16:46:50 UTC 2021)
(GPL source distribution)
Java Runtime: OpenJDK Runtime Environment
JVM: OpenJDK 64-Bit Server VM
Default Encoding: UTF-8
Language: en
Country: null
--></g></svg>