<?xml version="1.0" encoding="UTF-8" standalone="no"?><svg xmlns="http://www.w3.org/2000/svg" xmlns:xlink="http://www.w3.org/1999/xlink" contentScriptType="application/ecmascript" contentStyleType="text/css" height="1205px" preserveAspectRatio="none" style="width:942px;height:1205px;background:#CED4DA;" version="1.1" viewBox="0 0 942 1205" width="942px" zoomAndPan="magnify"><defs><filter height="300%" id="f1vup7is1o35s4" width="300%" x="-1" y="-1"><feGaussianBlur result="blurOut" stdDeviation="2.0"/><feColorMatrix in="blurOut" result="blurOut2" type="matrix" values="0 0 0 0 0 0 0 0 0 0 0 0 0 0 0 0 0 0 .4 0"/><feOffset dx="4.0" dy="4.0" in="blurOut2" result="blurOut3"/><feBlend in="SourceGraphic" in2="blurOut3" mode="normal"/></filter></defs><g><!--MD5=[70dfdd3864f3e0f1cada0be33fdea72b]
class INotification--><rect codeLine="7" fill="#FFFFFF" filter="url(#f1vup7is1o35s4)" height="190.5059" id="INotification" style="stroke:#272B30;stroke-width:1.5;" width="403" x="267" y="219"/><ellipse cx="430.75" cy="235" fill="#B4A7E5" rx="11" ry="11" style="stroke:#272B30;stroke-width:1.0;"/><path d="M427.1777,231.2651 L427.1777,229.1069 L434.5571,229.1069 L434.5571,231.2651 L432.0918,231.2651 L432.0918,239.3418 L434.5571,239.3418 L434.5571,241.5 L427.1777,241.5 L427.1777,239.3418 L429.6431,239.3418 L429.6431,231.2651 Z " fill="#000000"/><text fill="#000000" font-family="sans-serif" font-size="12" font-style="italic" lengthAdjust="spacing" textLength="67" x="451.25" y="239.5352">INotification</text><line style="stroke:#272B30;stroke-width:1.5;" x1="268" x2="669" y1="251" y2="251"/><ellipse cx="278" cy="262" rx="3" ry="3" style="stroke:#038048;stroke-width:1.0;fill:none;"/><text fill="#000000" font-family="sans-serif" font-size="11" lengthAdjust="spacing" textLength="84" x="287" y="265.6348">isBuilt : boolean</text><ellipse cx="278" cy="274.9551" rx="3" ry="3" style="stroke:#038048;stroke-width:1.0;fill:none;"/><text fill="#000000" font-family="sans-serif" font-size="11" lengthAdjust="spacing" textLength="142" x="287" y="278.5898">selfElement : HTMLElement</text><ellipse cx="278" cy="287.9102" rx="3" ry="3" style="stroke:#038048;stroke-width:1.0;fill:none;"/><text fill="#000000" font-family="sans-serif" font-size="11" lengthAdjust="spacing" textLength="88" x="287" y="291.5449">uniqueId : string</text><ellipse cx="278" cy="300.8652" rx="3" ry="3" style="stroke:#038048;stroke-width:1.0;fill:none;"/><text fill="#000000" font-family="sans-serif" font-size="11" lengthAdjust="spacing" textLength="86" x="287" y="304.5">widgetId : string</text><line style="stroke:#272B30;stroke-width:1.5;" x1="268" x2="669" y1="310.8203" y2="310.8203"/><ellipse cx="278" cy="321.8203" fill="#84BE84" rx="3" ry="3" style="stroke:#038048;stroke-width:1.0;"/><text fill="#000000" font-family="sans-serif" font-size="11" lengthAdjust="spacing" textLength="67" x="287" y="325.4551">build() : void</text><ellipse cx="278" cy="334.7754" fill="#84BE84" rx="3" ry="3" style="stroke:#038048;stroke-width:1.0;"/><text fill="#000000" font-family="sans-serif" font-size="11" lengthAdjust="spacing" textLength="377" x="287" y="338.4102">changeProperty(propertyName: string, propertyValue: unknown) : void</text><ellipse cx="278" cy="347.7305" fill="#84BE84" rx="3" ry="3" style="stroke:#038048;stroke-width:1.0;"/><text fill="#000000" font-family="sans-serif" font-size="11" lengthAdjust="spacing" textLength="82" x="287" y="351.3652">dispose() : void</text><ellipse cx="278" cy="360.6855" fill="#84BE84" rx="3" ry="3" style="stroke:#038048;stroke-width:1.0;"/><text fill="#000000" font-family="sans-serif" font-size="11" lengthAdjust="spacing" textLength="168" x="287" y="364.3203">equalsToID(id: string) : boolean</text><ellipse cx="278" cy="373.6406" fill="#84BE84" rx="3" ry="3" style="stroke:#038048;stroke-width:1.0;"/><text fill="#000000" font-family="sans-serif" font-size="11" lengthAdjust="spacing" textLength="63" x="287" y="377.2754">hide() : void</text><ellipse cx="278" cy="386.5957" fill="#84BE84" rx="3" ry="3" style="stroke:#038048;stroke-width:1.0;"/><text fill="#000000" font-family="sans-serif" font-size="11" lengthAdjust="spacing" textLength="335" x="287" y="390.2305">registerCallback(eventName: string, callback: OSGeneric) : void</text><ellipse cx="278" cy="399.5508" fill="#84BE84" rx="3" ry="3" style="stroke:#038048;stroke-width:1.0;"/><text fill="#000000" font-family="sans-serif" font-size="11" lengthAdjust="spacing" textLength="68" x="287" y="403.1855">show() : void</text><!--MD5=[3266101ea6228889a90c639b28de0501]
class IPattern--><rect codeLine="20" fill="#FFFFFF" filter="url(#f1vup7is1o35s4)" height="151.6406" id="IPattern" style="stroke:#272B30;stroke-width:1.5;" width="403" x="267" y="7"/><ellipse cx="442.25" cy="23" fill="#B4A7E5" rx="11" ry="11" style="stroke:#272B30;stroke-width:1.0;"/><path d="M438.6777,19.2651 L438.6777,17.1069 L446.0571,17.1069 L446.0571,19.2651 L443.5918,19.2651 L443.5918,27.3418 L446.0571,27.3418 L446.0571,29.5 L438.6777,29.5 L438.6777,27.3418 L441.1431,27.3418 L441.1431,19.2651 Z " fill="#000000"/><text fill="#000000" font-family="sans-serif" font-size="12" font-style="italic" lengthAdjust="spacing" textLength="44" x="462.75" y="27.5352">IPattern</text><line style="stroke:#272B30;stroke-width:1.5;" x1="268" x2="669" y1="39" y2="39"/><ellipse cx="278" cy="50" rx="3" ry="3" style="stroke:#038048;stroke-width:1.0;fill:none;"/><text fill="#000000" font-family="sans-serif" font-size="11" lengthAdjust="spacing" textLength="84" x="287" y="53.6348">isBuilt : boolean</text><ellipse cx="278" cy="62.9551" rx="3" ry="3" style="stroke:#038048;stroke-width:1.0;fill:none;"/><text fill="#000000" font-family="sans-serif" font-size="11" lengthAdjust="spacing" textLength="142" x="287" y="66.5898">selfElement : HTMLElement</text><ellipse cx="278" cy="75.9102" rx="3" ry="3" style="stroke:#038048;stroke-width:1.0;fill:none;"/><text fill="#000000" font-family="sans-serif" font-size="11" lengthAdjust="spacing" textLength="88" x="287" y="79.5449">uniqueId : string</text><ellipse cx="278" cy="88.8652" rx="3" ry="3" style="stroke:#038048;stroke-width:1.0;fill:none;"/><text fill="#000000" font-family="sans-serif" font-size="11" lengthAdjust="spacing" textLength="86" x="287" y="92.5">widgetId : string</text><line style="stroke:#272B30;stroke-width:1.5;" x1="268" x2="669" y1="98.8203" y2="98.8203"/><ellipse cx="278" cy="109.8203" fill="#84BE84" rx="3" ry="3" style="stroke:#038048;stroke-width:1.0;"/><text fill="#000000" font-family="sans-serif" font-size="11" lengthAdjust="spacing" textLength="67" x="287" y="113.4551">build() : void</text><ellipse cx="278" cy="122.7754" fill="#84BE84" rx="3" ry="3" style="stroke:#038048;stroke-width:1.0;"/><text fill="#000000" font-family="sans-serif" font-size="11" lengthAdjust="spacing" textLength="377" x="287" y="126.4102">changeProperty(propertyName: string, propertyValue: unknown) : void</text><ellipse cx="278" cy="135.7305" fill="#84BE84" rx="3" ry="3" style="stroke:#038048;stroke-width:1.0;"/><text fill="#000000" font-family="sans-serif" font-size="11" lengthAdjust="spacing" textLength="82" x="287" y="139.3652">dispose() : void</text><ellipse cx="278" cy="148.6855" fill="#84BE84" rx="3" ry="3" style="stroke:#038048;stroke-width:1.0;"/><text fill="#000000" font-family="sans-serif" font-size="11" lengthAdjust="spacing" textLength="168" x="287" y="152.3203">equalsToID(id: string) : boolean</text><!--MD5=[76b5e19c9337179d2d7ae334371d68c8]
class Notification--><rect codeLine="31" fill="#FFFFFF" filter="url(#f1vup7is1o35s4)" height="721.6641" id="Notification" style="stroke:#272B30;stroke-width:1.5;" width="919" x="9" y="470"/><ellipse cx="432.25" cy="486" fill="#ADD1B2" rx="11" ry="11" style="stroke:#272B30;stroke-width:1.0;"/><path d="M434.7231,492.1431 Q434.1421,492.4419 433.5029,492.5913 Q432.8638,492.7407 432.1582,492.7407 Q429.6514,492.7407 428.3315,491.0889 Q427.0117,489.437 427.0117,486.3159 Q427.0117,483.1865 428.3315,481.5347 Q429.6514,479.8828 432.1582,479.8828 Q432.8638,479.8828 433.5112,480.0322 Q434.1587,480.1816 434.7231,480.4805 L434.7231,483.2031 Q434.0923,482.6221 433.4988,482.3523 Q432.9053,482.0825 432.2744,482.0825 Q430.9297,482.0825 430.2449,483.1492 Q429.5601,484.2158 429.5601,486.3159 Q429.5601,488.4077 430.2449,489.4744 Q430.9297,490.541 432.2744,490.541 Q432.9053,490.541 433.4988,490.2712 Q434.0923,490.0015 434.7231,489.4204 Z " fill="#000000"/><text fill="#000000" font-family="sans-serif" font-size="12" lengthAdjust="spacing" textLength="64" x="452.75" y="490.5352">Notification</text><line style="stroke:#272B30;stroke-width:1.5;" x1="10" x2="927" y1="502" y2="502"/><polygon fill="none" points="20,508,24,512,20,516,16,512" style="stroke:#B38D22;stroke-width:1.0;"/><text fill="#000000" font-family="sans-serif" font-size="11" lengthAdjust="spacing" textLength="131" x="29" y="516.6348">_selfElem : HTMLElement</text><polygon fill="none" points="20,520.9551,24,524.9551,20,528.9551,16,524.9551" style="stroke:#B38D22;stroke-width:1.0;"/><text fill="#000000" font-family="sans-serif" font-size="11" lengthAdjust="spacing" textLength="92" x="29" y="529.5898">_widgetId : string</text><rect fill="none" height="6" style="stroke:#C82930;stroke-width:1.0;" width="6" x="17" y="535.9102"/><text fill="#000000" font-family="sans-serif" font-size="11" lengthAdjust="spacing" textLength="127" x="29" y="542.5449">_eventOnClick : Generic</text><rect fill="none" height="6" style="stroke:#C82930;stroke-width:1.0;" width="6" x="17" y="548.8652"/><text fill="#000000" font-family="sans-serif" font-size="11" lengthAdjust="spacing" textLength="150" x="29" y="555.5">_eventOnKeypress : Generic</text><rect fill="none" height="6" style="stroke:#C82930;stroke-width:1.0;" width="6" x="17" y="561.8203"/><text fill="#000000" font-family="sans-serif" font-size="11" lengthAdjust="spacing" textLength="102" x="29" y="568.4551">_eventType : string</text><rect fill="none" height="6" style="stroke:#C82930;stroke-width:1.0;" width="6" x="17" y="574.7754"/><text fill="#000000" font-family="sans-serif" font-size="11" lengthAdjust="spacing" textLength="205" x="29" y="581.4102">_firstFocusableElement : HTMLElement</text><rect fill="none" height="6" style="stroke:#C82930;stroke-width:1.0;" width="6" x="17" y="587.7305"/><text fill="#000000" font-family="sans-serif" font-size="11" lengthAdjust="spacing" textLength="214" x="29" y="594.3652">_focusableActiveElement : HTMLElement</text><rect fill="none" height="6" style="stroke:#C82930;stroke-width:1.0;" width="6" x="17" y="600.6855"/><text fill="#000000" font-family="sans-serif" font-size="11" lengthAdjust="spacing" textLength="195" x="29" y="607.3203">_focusableElements : HTMLElement[]</text><rect fill="none" height="6" style="stroke:#C82930;stroke-width:1.0;" width="6" x="17" y="613.6406"/><text fill="#000000" font-family="sans-serif" font-size="11" lengthAdjust="spacing" textLength="172" x="29" y="620.2754">_focusTrapInstance : FocusTrap</text><rect fill="none" height="6" style="stroke:#C82930;stroke-width:1.0;" width="6" x="17" y="626.5957"/><text fill="#000000" font-family="sans-serif" font-size="11" lengthAdjust="spacing" textLength="189" x="29" y="633.2305">_gestureEventInstance : SwipeEvent</text><rect fill="none" height="6" style="stroke:#C82930;stroke-width:1.0;" width="6" x="17" y="639.5508"/><text fill="#000000" font-family="sans-serif" font-size="11" lengthAdjust="spacing" textLength="154" x="29" y="646.1855">_hasGestureEvents : boolean</text><rect fill="none" height="6" style="stroke:#C82930;stroke-width:1.0;" width="6" x="17" y="652.5059"/><text fill="#000000" font-family="sans-serif" font-size="11" lengthAdjust="spacing" textLength="96" x="29" y="659.1406">_isOpen : boolean</text><rect fill="none" height="6" style="stroke:#C82930;stroke-width:1.0;" width="6" x="17" y="665.4609"/><text fill="#000000" font-family="sans-serif" font-size="11" lengthAdjust="spacing" textLength="202" x="29" y="672.0957">_lastFocusableElement : HTMLElement</text><rect fill="none" height="6" style="stroke:#C82930;stroke-width:1.0;" width="6" x="17" y="678.416"/><text fill="#000000" font-family="sans-serif" font-size="11" lengthAdjust="spacing" textLength="141" x="29" y="685.0508">_parentSelf : HTMLElement</text><rect fill="none" height="6" style="stroke:#C82930;stroke-width:1.0;" width="6" x="17" y="691.3711"/><text fill="#000000" font-family="sans-serif" font-size="11" lengthAdjust="spacing" textLength="307" x="29" y="698.0059">_platformEventOnInitialize : OSNotificationInitializedEvent</text><rect fill="none" height="6" style="stroke:#C82930;stroke-width:1.0;" width="6" x="17" y="704.3262"/><text fill="#000000" font-family="sans-serif" font-size="11" lengthAdjust="spacing" textLength="286" x="29" y="710.9609">_platformEventOnToggle : OSNotificationToggleEvent</text><line style="stroke:#272B30;stroke-width:1.5;" x1="10" x2="927" y1="717.2813" y2="717.2813"/><ellipse cx="20" cy="728.2813" fill="#84BE84" rx="3" ry="3" style="stroke:#038048;stroke-width:1.0;"/><text fill="#000000" font-family="sans-serif" font-size="11" lengthAdjust="spacing" textLength="67" x="29" y="731.916">build() : void</text><ellipse cx="20" cy="741.2363" fill="#84BE84" rx="3" ry="3" style="stroke:#038048;stroke-width:1.0;"/><text fill="#000000" font-family="sans-serif" font-size="11" lengthAdjust="spacing" textLength="347" x="29" y="744.8711">changeProperty(propertyName: string, propertyValue: any) : void</text><ellipse cx="20" cy="754.1914" fill="#84BE84" rx="3" ry="3" style="stroke:#038048;stroke-width:1.0;"/><text fill="#000000" font-family="sans-serif" font-size="11" lengthAdjust="spacing" textLength="82" x="29" y="757.8262">dispose() : void</text><ellipse cx="20" cy="767.1465" fill="#84BE84" rx="3" ry="3" style="stroke:#038048;stroke-width:1.0;"/><text fill="#000000" font-family="sans-serif" font-size="11" lengthAdjust="spacing" textLength="207" x="29" y="770.7813">equalsToID(patternId: string) : boolean</text><ellipse cx="20" cy="780.1016" fill="#84BE84" rx="3" ry="3" style="stroke:#038048;stroke-width:1.0;"/><text fill="#000000" font-family="sans-serif" font-size="11" lengthAdjust="spacing" textLength="63" x="29" y="783.7363">hide() : void</text><ellipse cx="20" cy="793.0566" fill="#84BE84" rx="3" ry="3" style="stroke:#038048;stroke-width:1.0;"/><text fill="#000000" font-family="sans-serif" font-size="11" lengthAdjust="spacing" textLength="122" x="29" y="796.6914">onSwipeBottom() : void</text><ellipse cx="20" cy="806.0117" fill="#84BE84" rx="3" ry="3" style="stroke:#038048;stroke-width:1.0;"/><text fill="#000000" font-family="sans-serif" font-size="11" lengthAdjust="spacing" textLength="104" x="29" y="809.6465">onSwipeLeft() : void</text><ellipse cx="20" cy="818.9668" fill="#84BE84" rx="3" ry="3" style="stroke:#038048;stroke-width:1.0;"/><text fill="#000000" font-family="sans-serif" font-size="11" lengthAdjust="spacing" textLength="112" x="29" y="822.6016">onSwipeRight() : void</text><ellipse cx="20" cy="831.9219" fill="#84BE84" rx="3" ry="3" style="stroke:#038048;stroke-width:1.0;"/><text fill="#000000" font-family="sans-serif" font-size="11" lengthAdjust="spacing" textLength="99" x="29" y="835.5566">onSwipeUp() : void</text><ellipse cx="20" cy="844.877" fill="#84BE84" rx="3" ry="3" style="stroke:#038048;stroke-width:1.0;"/><text fill="#000000" font-family="sans-serif" font-size="11" lengthAdjust="spacing" textLength="335" x="29" y="848.5117">registerCallback(eventName: string, callback: OSGeneric) : void</text><ellipse cx="20" cy="857.832" fill="#84BE84" rx="3" ry="3" style="stroke:#038048;stroke-width:1.0;"/><text fill="#000000" font-family="sans-serif" font-size="11" lengthAdjust="spacing" textLength="157" x="29" y="861.4668">removeGestureEvents() : void</text><ellipse cx="20" cy="870.7871" fill="#84BE84" rx="3" ry="3" style="stroke:#038048;stroke-width:1.0;"/><text fill="#000000" font-family="sans-serif" font-size="11" lengthAdjust="spacing" textLength="68" x="29" y="874.4219">show() : void</text><polygon fill="#FFFF44" points="20,878.7422,24,882.7422,20,886.7422,16,882.7422" style="stroke:#B38D22;stroke-width:1.0;"/><text fill="#000000" font-family="sans-serif" font-size="11" lengthAdjust="spacing" textLength="96" x="29" y="887.377">finishBuild() : void</text><polygon fill="#FFFF44" points="20,891.6973,24,895.6973,20,899.6973,16,895.6973" style="stroke:#B38D22;stroke-width:1.0;"/><text fill="#000000" font-family="sans-serif" font-size="11" lengthAdjust="spacing" textLength="140" x="29" y="900.332">setA11YProperties() : void</text><polygon fill="#FFFF44" points="20,904.6523,24,908.6523,20,912.6523,16,908.6523" style="stroke:#B38D22;stroke-width:1.0;"/><text fill="#000000" font-family="sans-serif" font-size="11" lengthAdjust="spacing" textLength="107" x="29" y="913.2871">setCallbacks() : void</text><polygon fill="#FFFF44" points="20,917.6074,24,921.6074,20,925.6074,16,921.6074" style="stroke:#B38D22;stroke-width:1.0;"/><text fill="#000000" font-family="sans-serif" font-size="11" lengthAdjust="spacing" textLength="893" x="29" y="926.2422">setGestureEvents(onSwipeDownCallback: onSwipeDown, onSwipeLeftCallback: onSwipeLeft, onSwipeRightCallback: onSwipeRight, onSwipeUpCallback: onSwipeUp) : void</text><polygon fill="#FFFF44" points="20,930.5625,24,934.5625,20,938.5625,16,934.5625" style="stroke:#B38D22;stroke-width:1.0;"/><text fill="#000000" font-family="sans-serif" font-size="11" lengthAdjust="spacing" textLength="129" x="29" y="939.1973">setHtmlElements() : void</text><polygon fill="#FFFF44" points="20,943.5176,24,947.5176,20,951.5176,16,947.5176" style="stroke:#B38D22;stroke-width:1.0;"/><text fill="#000000" font-family="sans-serif" font-size="11" lengthAdjust="spacing" textLength="117" x="29" y="952.1523">setInitialStates() : void</text><polygon fill="#FFFF44" points="20,956.4727,24,960.4727,20,964.4727,16,960.4727" style="stroke:#B38D22;stroke-width:1.0;"/><text fill="#000000" font-family="sans-serif" font-size="11" lengthAdjust="spacing" textLength="121" x="29" y="965.1074">unsetCallbacks() : void</text><polygon fill="#FFFF44" points="20,969.4277,24,973.4277,20,977.4277,16,973.4277" style="stroke:#B38D22;stroke-width:1.0;"/><text fill="#000000" font-family="sans-serif" font-size="11" lengthAdjust="spacing" textLength="143" x="29" y="978.0625">unsetHtmlElements() : void</text><rect fill="#F24D5C" height="6" style="stroke:#C82930;stroke-width:1.0;" width="6" x="17" y="984.3828"/><text fill="#000000" font-family="sans-serif" font-size="11" lengthAdjust="spacing" textLength="162" x="29" y="991.0176">_autoCloseNotification() : void</text><rect fill="#F24D5C" height="6" style="stroke:#C82930;stroke-width:1.0;" width="6" x="17" y="997.3379"/><text fill="#000000" font-family="sans-serif" font-size="11" lengthAdjust="spacing" textLength="191" x="29" y="1003.9727">_clickCallback(e: MouseEvent) : void</text><rect fill="#F24D5C" height="6" style="stroke:#C82930;stroke-width:1.0;" width="6" x="17" y="1010.293"/><text fill="#000000" font-family="sans-serif" font-size="11" lengthAdjust="spacing" textLength="159" x="29" y="1016.9277">_focusBottomCallback() : void</text><rect fill="#F24D5C" height="6" style="stroke:#C82930;stroke-width:1.0;" width="6" x="17" y="1023.248"/><text fill="#000000" font-family="sans-serif" font-size="11" lengthAdjust="spacing" textLength="142" x="29" y="1029.8828">_focusTopCallback() : void</text><rect fill="#F24D5C" height="6" style="stroke:#C82930;stroke-width:1.0;" width="6" x="17" y="1036.2031"/><text fill="#000000" font-family="sans-serif" font-size="11" lengthAdjust="spacing" textLength="139" x="29" y="1042.8379">_handleFocusTrap() : void</text><rect fill="#F24D5C" height="6" style="stroke:#C82930;stroke-width:1.0;" width="6" x="17" y="1049.1582"/><text fill="#000000" font-family="sans-serif" font-size="11" lengthAdjust="spacing" textLength="159" x="29" y="1055.793">_handleGestureEvents() : void</text><rect fill="#F24D5C" height="6" style="stroke:#C82930;stroke-width:1.0;" width="6" x="17" y="1062.1133"/><text fill="#000000" font-family="sans-serif" font-size="11" lengthAdjust="spacing" textLength="131" x="29" y="1068.748">_hideNotification() : void</text><rect fill="#F24D5C" height="6" style="stroke:#C82930;stroke-width:1.0;" width="6" x="17" y="1075.0684"/><text fill="#000000" font-family="sans-serif" font-size="11" lengthAdjust="spacing" textLength="231" x="29" y="1081.7031">_keypressCallback(e: KeyboardEvent) : void</text><rect fill="#F24D5C" height="6" style="stroke:#C82930;stroke-width:1.0;" width="6" x="17" y="1088.0234"/><text fill="#000000" font-family="sans-serif" font-size="11" lengthAdjust="spacing" textLength="121" x="29" y="1094.6582">_removeEvents() : void</text><rect fill="#F24D5C" height="6" style="stroke:#C82930;stroke-width:1.0;" width="6" x="17" y="1100.9785"/><text fill="#000000" font-family="sans-serif" font-size="11" lengthAdjust="spacing" textLength="136" x="29" y="1107.6133">_showNotification() : void</text><rect fill="#F24D5C" height="6" style="stroke:#C82930;stroke-width:1.0;" width="6" x="17" y="1113.9336"/><text fill="#000000" font-family="sans-serif" font-size="11" lengthAdjust="spacing" textLength="252" x="29" y="1120.5684">_triggerOnToggleEvent(isOpen: boolean) : void</text><rect fill="#F24D5C" height="6" style="stroke:#C82930;stroke-width:1.0;" width="6" x="17" y="1126.8887"/><text fill="#000000" font-family="sans-serif" font-size="11" lengthAdjust="spacing" textLength="166" x="29" y="1133.5234">_updateA11yProperties() : void</text><rect fill="#F24D5C" height="6" style="stroke:#C82930;stroke-width:1.0;" width="6" x="17" y="1139.8438"/><text fill="#000000" font-family="sans-serif" font-size="11" lengthAdjust="spacing" textLength="242" x="29" y="1146.4785">_updateCloseAfterTime(value: number) : void</text><rect fill="#F24D5C" height="6" style="stroke:#C82930;stroke-width:1.0;" width="6" x="17" y="1152.7988"/><text fill="#000000" font-family="sans-serif" font-size="11" lengthAdjust="spacing" textLength="245" x="29" y="1159.4336">_updateInteractToClose(value: boolean) : void</text><rect fill="#F24D5C" height="6" style="stroke:#C82930;stroke-width:1.0;" width="6" x="17" y="1165.7539"/><text fill="#000000" font-family="sans-serif" font-size="11" lengthAdjust="spacing" textLength="208" x="29" y="1172.3887">_updatePosition(position: string) : void</text><rect fill="#F24D5C" height="6" style="stroke:#C82930;stroke-width:1.0;" width="6" x="17" y="1178.709"/><text fill="#000000" font-family="sans-serif" font-size="11" lengthAdjust="spacing" textLength="180" x="29" y="1185.3438">_updateWidth(width: string) : void</text><!--MD5=[49e044588c34e5e812a97762e1319616]
reverse link IPattern to INotification--><path codeLine="30" d="M468.5,179.32 C468.5,192.4 468.5,205.83 468.5,218.9 " fill="none" id="IPattern-backto-INotification" style="stroke:#272B30;stroke-width:1.0;"/><polygon fill="none" points="461.5,179.15,468.5,159.15,475.5,179.15,461.5,179.15" style="stroke:#272B30;stroke-width:1.0;"/><!--MD5=[8e72d689d6ccd37260087d14f507d6c8]
reverse link INotification to Notification--><path codeLine="85" d="M468.5,430.57 C468.5,443.07 468.5,456.23 468.5,469.86 " fill="none" id="INotification-backto-Notification" style="stroke:#272B30;stroke-width:1.0;stroke-dasharray:7.0,7.0;"/><polygon fill="none" points="461.5,430.17,468.5,410.17,475.5,430.17,461.5,430.17" style="stroke:#272B30;stroke-width:1.0;"/><!--MD5=[3d82227ccf6129384d911c27a8296186]
@startuml
skinparam ClassArrowColor #272b30
skinparam ClassBorderColor #272b30
skinparam ClassBackgroundColor #fff
skinparam BackgroundColor #ced4da
hide empty methods
hide empty fields
interface "INotification" {
    +isBuilt : boolean
    +selfElement : HTMLElement
    +uniqueId : string
    +widgetId : string
    +build() : void
    +changeProperty(propertyName: string, propertyValue: unknown) : void
    +dispose() : void
    +equalsToID(id: string) : boolean
    +hide() : void
    +registerCallback(eventName: string, callback: OSGeneric) : void
    +show() : void
}
interface "IPattern" {
    +isBuilt : boolean
    +selfElement : HTMLElement
    +uniqueId : string
    +widgetId : string
    +build() : void
    +changeProperty(propertyName: string, propertyValue: unknown) : void
    +dispose() : void
    +equalsToID(id: string) : boolean
}
"IPattern" <|- - "INotification"
class "Notification" {
    #_selfElem : HTMLElement
    #_widgetId : string
    -_eventOnClick : Generic
    -_eventOnKeypress : Generic
    -_eventType : string
    -_firstFocusableElement : HTMLElement
    -_focusableActiveElement : HTMLElement
    -_focusableElements : HTMLElement[]
    -_focusTrapInstance : FocusTrap
    -_gestureEventInstance : SwipeEvent
    -_hasGestureEvents : boolean
    -_isOpen : boolean
    -_lastFocusableElement : HTMLElement
    -_parentSelf : HTMLElement
    -_platformEventOnInitialize : OSNotificationInitializedEvent
    -_platformEventOnToggle : OSNotificationToggleEvent
    +build() : void
    +changeProperty(propertyName: string, propertyValue: any) : void
    +dispose() : void
    +equalsToID(patternId: string) : boolean
    +hide() : void
    +onSwipeBottom() : void
    +onSwipeLeft() : void
    +onSwipeRight() : void
    +onSwipeUp() : void
    +registerCallback(eventName: string, callback: OSGeneric) : void
    +removeGestureEvents() : void
    +show() : void
    #finishBuild() : void
    #setA11YProperties() : void
    #setCallbacks() : void
    #setGestureEvents(onSwipeDownCallback: onSwipeDown, onSwipeLeftCallback: onSwipeLeft, onSwipeRightCallback: onSwipeRight, onSwipeUpCallback: onSwipeUp) : void
    #setHtmlElements() : void
    #setInitialStates() : void
    #unsetCallbacks() : void
    #unsetHtmlElements() : void
    -_autoCloseNotification() : void
    -_clickCallback(e: MouseEvent) : void
    -_focusBottomCallback() : void
    -_focusTopCallback() : void
    -_handleFocusTrap() : void
    -_handleGestureEvents() : void
    -_hideNotification() : void
    -_keypressCallback(e: KeyboardEvent) : void
    -_removeEvents() : void
    -_showNotification() : void
    -_triggerOnToggleEvent(isOpen: boolean) : void
    -_updateA11yProperties() : void
    -_updateCloseAfterTime(value: number) : void
    -_updateInteractToClose(value: boolean) : void
    -_updatePosition(position: string) : void
    -_updateWidth(width: string) : void
}
"INotification" <|.. "Notification"
@enduml

PlantUML version 1.2021.14(Fri Nov 12 16:46:50 WET 2021)
(GPL source distribution)
Java Runtime: Java(TM) SE Runtime Environment
JVM: Java HotSpot(TM) 64-Bit Server VM
Default Encoding: UTF-8
Language: en
Country: PT
--></g></svg>