<?xml version="1.0" encoding="us-ascii" standalone="no"?><svg xmlns="http://www.w3.org/2000/svg" xmlns:xlink="http://www.w3.org/1999/xlink" contentStyleType="text/css" height="1467px" preserveAspectRatio="none" style="width:1122px;height:1467px;background:#CED4DA;" version="1.1" viewBox="0 0 1122 1467" width="1122px" zoomAndPan="magnify"><defs/><g><rect fill="#CED4DA" height="1467" style="stroke:none;stroke-width:1.0;" width="1122" x="0" y="0"/><!--class INoUiSlider--><g id="elem_INoUiSlider"><rect codeLine="7" fill="#FFFFFF" height="325.0469" id="INoUiSlider" rx="2.5" ry="2.5" style="stroke:#272B30;stroke-width:0.5;" width="563" x="293" y="343"/><ellipse cx="532.75" cy="359" fill="#B4A7E5" rx="11" ry="11" style="stroke:#181818;stroke-width:1.0;"/><path d="M528.6719,354.7656 L528.6719,352.6094 L536.0625,352.6094 L536.0625,354.7656 L533.5938,354.7656 L533.5938,362.8438 L536.0625,362.8438 L536.0625,365 L528.6719,365 L528.6719,362.8438 L531.1406,362.8438 L531.1406,354.7656 L528.6719,354.7656 Z " fill="#000000"/><text fill="#000000" font-family="sans-serif" font-size="14" font-style="italic" lengthAdjust="spacing" textLength="75" x="553.25" y="363.8467">INoUiSlider</text><line style="stroke:#272B30;stroke-width:0.5;" x1="294" x2="855" y1="375" y2="375"/><ellipse cx="304" cy="388.6484" fill="none" rx="3" ry="3" style="stroke:#038048;stroke-width:1.0;"/><text fill="#000000" font-family="sans-serif" font-size="14" lengthAdjust="spacing" textLength="110" x="313" y="391.9951">isBuilt : boolean</text><ellipse cx="304" cy="404.9453" fill="none" rx="3" ry="3" style="stroke:#038048;stroke-width:1.0;"/><text fill="#000000" font-family="sans-serif" font-size="14" lengthAdjust="spacing" textLength="138" x="313" y="408.292">provider : noUiSlider</text><ellipse cx="304" cy="421.2422" fill="none" rx="3" ry="3" style="stroke:#038048;stroke-width:1.0;"/><text fill="#000000" font-family="sans-serif" font-size="14" lengthAdjust="spacing" textLength="175" x="313" y="424.5889">providerInfo : ProviderInfo</text><ellipse cx="304" cy="437.5391" fill="none" rx="3" ry="3" style="stroke:#038048;stroke-width:1.0;"/><text fill="#000000" font-family="sans-serif" font-size="14" lengthAdjust="spacing" textLength="189" x="313" y="440.8857">selfElement : HTMLElement</text><ellipse cx="304" cy="453.8359" fill="none" rx="3" ry="3" style="stroke:#038048;stroke-width:1.0;"/><text fill="#000000" font-family="sans-serif" font-size="14" lengthAdjust="spacing" textLength="112" x="313" y="457.1826">uniqueId : string</text><ellipse cx="304" cy="470.1328" fill="none" rx="3" ry="3" style="stroke:#038048;stroke-width:1.0;"/><text fill="#000000" font-family="sans-serif" font-size="14" lengthAdjust="spacing" textLength="110" x="313" y="473.4795">widgetId : string</text><line style="stroke:#272B30;stroke-width:0.5;" x1="294" x2="855" y1="480.7813" y2="480.7813"/><ellipse cx="304" cy="494.4297" fill="#84BE84" rx="3" ry="3" style="stroke:#038048;stroke-width:1.0;"/><text fill="#000000" font-family="sans-serif" font-size="14" lengthAdjust="spacing" textLength="84" x="313" y="497.7764">build() : void</text><ellipse cx="304" cy="510.7266" fill="#84BE84" rx="3" ry="3" style="stroke:#038048;stroke-width:1.0;"/><text fill="#000000" font-family="sans-serif" font-size="14" lengthAdjust="spacing" textLength="484" x="313" y="514.0732">changeProperty(propertyName: string, propertyValue: unknown) : void</text><ellipse cx="304" cy="527.0234" fill="#84BE84" rx="3" ry="3" style="stroke:#038048;stroke-width:1.0;"/><text fill="#000000" font-family="sans-serif" font-size="14" lengthAdjust="spacing" textLength="208" x="313" y="530.3701">disable(uniqueId: string) : void</text><ellipse cx="304" cy="543.3203" fill="#84BE84" rx="3" ry="3" style="stroke:#038048;stroke-width:1.0;"/><text fill="#000000" font-family="sans-serif" font-size="14" lengthAdjust="spacing" textLength="106" x="313" y="546.667">dispose() : void</text><ellipse cx="304" cy="559.6172" fill="#84BE84" rx="3" ry="3" style="stroke:#038048;stroke-width:1.0;"/><text fill="#000000" font-family="sans-serif" font-size="14" lengthAdjust="spacing" textLength="206" x="313" y="562.9639">enable(uniqueId: string) : void</text><ellipse cx="304" cy="575.9141" fill="#84BE84" rx="3" ry="3" style="stroke:#038048;stroke-width:1.0;"/><text fill="#000000" font-family="sans-serif" font-size="14" lengthAdjust="spacing" textLength="217" x="313" y="579.2607">equalsToID(id: string) : boolean</text><ellipse cx="304" cy="592.2109" fill="#84BE84" rx="3" ry="3" style="stroke:#038048;stroke-width:1.0;"/><text fill="#000000" font-family="sans-serif" font-size="14" lengthAdjust="spacing" textLength="434" x="313" y="595.5576">registerCallback(eventName: string, callback: OSGeneric) : void</text><ellipse cx="304" cy="608.5078" fill="#84BE84" rx="3" ry="3" style="stroke:#038048;stroke-width:1.0;"/><text fill="#000000" font-family="sans-serif" font-size="14" lengthAdjust="spacing" textLength="322" x="313" y="611.8545">setProviderConfigs(providerConfigs: any) : void</text><ellipse cx="304" cy="624.8047" fill="#84BE84" rx="3" ry="3" style="stroke:#038048;stroke-width:1.0;"/><text fill="#000000" font-family="sans-serif" font-size="14" lengthAdjust="spacing" textLength="537" x="313" y="628.1514">setProviderEvent(eventName: string, callback: Generic, uniqueId: string) : void</text><ellipse cx="304" cy="641.1016" fill="#84BE84" rx="3" ry="3" style="stroke:#038048;stroke-width:1.0;"/><text fill="#000000" font-family="sans-serif" font-size="14" lengthAdjust="spacing" textLength="285" x="313" y="644.4482">unsetProviderEvent(eventId: string) : void</text><ellipse cx="304" cy="657.3984" fill="#84BE84" rx="3" ry="3" style="stroke:#038048;stroke-width:1.0;"/><text fill="#000000" font-family="sans-serif" font-size="14" lengthAdjust="spacing" textLength="374" x="313" y="660.7451">updateProviderEvents(providerInfo: ProviderInfo) : void</text></g><!--class IRangeSlider--><g id="elem_IRangeSlider"><rect codeLine="26" fill="#FFFFFF" height="276.1563" id="IRangeSlider" rx="2.5" ry="2.5" style="stroke:#272B30;stroke-width:0.5;" width="563" x="7" y="7"/><ellipse cx="240.75" cy="23" fill="#B4A7E5" rx="11" ry="11" style="stroke:#181818;stroke-width:1.0;"/><path d="M236.6719,18.7656 L236.6719,16.6094 L244.0625,16.6094 L244.0625,18.7656 L241.5938,18.7656 L241.5938,26.8438 L244.0625,26.8438 L244.0625,29 L236.6719,29 L236.6719,26.8438 L239.1406,26.8438 L239.1406,18.7656 L236.6719,18.7656 Z " fill="#000000"/><text fill="#000000" font-family="sans-serif" font-size="14" font-style="italic" lengthAdjust="spacing" textLength="87" x="261.25" y="27.8467">IRangeSlider</text><line style="stroke:#272B30;stroke-width:0.5;" x1="8" x2="569" y1="39" y2="39"/><ellipse cx="18" cy="52.6484" fill="none" rx="3" ry="3" style="stroke:#038048;stroke-width:1.0;"/><text fill="#000000" font-family="sans-serif" font-size="14" lengthAdjust="spacing" textLength="110" x="27" y="55.9951">isBuilt : boolean</text><ellipse cx="18" cy="68.9453" fill="none" rx="3" ry="3" style="stroke:#038048;stroke-width:1.0;"/><text fill="#000000" font-family="sans-serif" font-size="14" lengthAdjust="spacing" textLength="189" x="27" y="72.292">selfElement : HTMLElement</text><ellipse cx="18" cy="85.2422" fill="none" rx="3" ry="3" style="stroke:#038048;stroke-width:1.0;"/><text fill="#000000" font-family="sans-serif" font-size="14" lengthAdjust="spacing" textLength="112" x="27" y="88.5889">uniqueId : string</text><ellipse cx="18" cy="101.5391" fill="none" rx="3" ry="3" style="stroke:#038048;stroke-width:1.0;"/><text fill="#000000" font-family="sans-serif" font-size="14" lengthAdjust="spacing" textLength="110" x="27" y="104.8857">widgetId : string</text><line style="stroke:#272B30;stroke-width:0.5;" x1="8" x2="569" y1="112.1875" y2="112.1875"/><ellipse cx="18" cy="125.8359" fill="#84BE84" rx="3" ry="3" style="stroke:#038048;stroke-width:1.0;"/><text fill="#000000" font-family="sans-serif" font-size="14" lengthAdjust="spacing" textLength="84" x="27" y="129.1826">build() : void</text><ellipse cx="18" cy="142.1328" fill="#84BE84" rx="3" ry="3" style="stroke:#038048;stroke-width:1.0;"/><text fill="#000000" font-family="sans-serif" font-size="14" lengthAdjust="spacing" textLength="484" x="27" y="145.4795">changeProperty(propertyName: string, propertyValue: unknown) : void</text><ellipse cx="18" cy="158.4297" fill="#84BE84" rx="3" ry="3" style="stroke:#038048;stroke-width:1.0;"/><text fill="#000000" font-family="sans-serif" font-size="14" lengthAdjust="spacing" textLength="208" x="27" y="161.7764">disable(uniqueId: string) : void</text><ellipse cx="18" cy="174.7266" fill="#84BE84" rx="3" ry="3" style="stroke:#038048;stroke-width:1.0;"/><text fill="#000000" font-family="sans-serif" font-size="14" lengthAdjust="spacing" textLength="106" x="27" y="178.0732">dispose() : void</text><ellipse cx="18" cy="191.0234" fill="#84BE84" rx="3" ry="3" style="stroke:#038048;stroke-width:1.0;"/><text fill="#000000" font-family="sans-serif" font-size="14" lengthAdjust="spacing" textLength="206" x="27" y="194.3701">enable(uniqueId: string) : void</text><ellipse cx="18" cy="207.3203" fill="#84BE84" rx="3" ry="3" style="stroke:#038048;stroke-width:1.0;"/><text fill="#000000" font-family="sans-serif" font-size="14" lengthAdjust="spacing" textLength="217" x="27" y="210.667">equalsToID(id: string) : boolean</text><ellipse cx="18" cy="223.6172" fill="#84BE84" rx="3" ry="3" style="stroke:#038048;stroke-width:1.0;"/><text fill="#000000" font-family="sans-serif" font-size="14" lengthAdjust="spacing" textLength="434" x="27" y="226.9639">registerCallback(eventName: string, callback: OSGeneric) : void</text><ellipse cx="18" cy="239.9141" fill="#84BE84" rx="3" ry="3" style="stroke:#038048;stroke-width:1.0;"/><text fill="#000000" font-family="sans-serif" font-size="14" lengthAdjust="spacing" textLength="322" x="27" y="243.2607">setProviderConfigs(providerConfigs: any) : void</text><ellipse cx="18" cy="256.2109" fill="#84BE84" rx="3" ry="3" style="stroke:#038048;stroke-width:1.0;"/><text fill="#000000" font-family="sans-serif" font-size="14" lengthAdjust="spacing" textLength="537" x="27" y="259.5576">setProviderEvent(eventName: string, callback: Generic, uniqueId: string) : void</text><ellipse cx="18" cy="272.5078" fill="#84BE84" rx="3" ry="3" style="stroke:#038048;stroke-width:1.0;"/><text fill="#000000" font-family="sans-serif" font-size="14" lengthAdjust="spacing" textLength="285" x="27" y="275.8545">unsetProviderEvent(eventId: string) : void</text></g><!--class IProviderPattern<NoUiSlider>--><g id="elem_IProviderPattern&lt;NoUiSlider&gt;"><rect codeLine="43" fill="#FFFFFF" height="259.8594" id="IProviderPattern&lt;NoUiSlider&gt;" rx="2.5" ry="2.5" style="stroke:#272B30;stroke-width:0.5;" width="510" x="605.5" y="15"/><ellipse cx="754.25" cy="31" fill="#B4A7E5" rx="11" ry="11" style="stroke:#181818;stroke-width:1.0;"/><path d="M750.1719,26.7656 L750.1719,24.6094 L757.5625,24.6094 L757.5625,26.7656 L755.0938,26.7656 L755.0938,34.8438 L757.5625,34.8438 L757.5625,37 L750.1719,37 L750.1719,34.8438 L752.6406,34.8438 L752.6406,26.7656 L750.1719,26.7656 Z " fill="#000000"/><text fill="#000000" font-family="sans-serif" font-size="14" font-style="italic" lengthAdjust="spacing" textLength="204" x="774.75" y="35.8467">IProviderPattern&lt;NoUiSlider&gt;</text><line style="stroke:#272B30;stroke-width:0.5;" x1="606.5" x2="1114.5" y1="47" y2="47"/><ellipse cx="616.5" cy="60.6484" fill="none" rx="3" ry="3" style="stroke:#038048;stroke-width:1.0;"/><text fill="#000000" font-family="sans-serif" font-size="14" lengthAdjust="spacing" textLength="110" x="625.5" y="63.9951">isBuilt : boolean</text><ellipse cx="616.5" cy="76.9453" fill="none" rx="3" ry="3" style="stroke:#038048;stroke-width:1.0;"/><text fill="#000000" font-family="sans-serif" font-size="14" lengthAdjust="spacing" textLength="139" x="625.5" y="80.292">provider : NoUiSlider</text><ellipse cx="616.5" cy="93.2422" fill="none" rx="3" ry="3" style="stroke:#038048;stroke-width:1.0;"/><text fill="#000000" font-family="sans-serif" font-size="14" lengthAdjust="spacing" textLength="175" x="625.5" y="96.5889">providerInfo : ProviderInfo</text><ellipse cx="616.5" cy="109.5391" fill="none" rx="3" ry="3" style="stroke:#038048;stroke-width:1.0;"/><text fill="#000000" font-family="sans-serif" font-size="14" lengthAdjust="spacing" textLength="189" x="625.5" y="112.8857">selfElement : HTMLElement</text><ellipse cx="616.5" cy="125.8359" fill="none" rx="3" ry="3" style="stroke:#038048;stroke-width:1.0;"/><text fill="#000000" font-family="sans-serif" font-size="14" lengthAdjust="spacing" textLength="112" x="625.5" y="129.1826">uniqueId : string</text><ellipse cx="616.5" cy="142.1328" fill="none" rx="3" ry="3" style="stroke:#038048;stroke-width:1.0;"/><text fill="#000000" font-family="sans-serif" font-size="14" lengthAdjust="spacing" textLength="110" x="625.5" y="145.4795">widgetId : string</text><line style="stroke:#272B30;stroke-width:0.5;" x1="606.5" x2="1114.5" y1="152.7813" y2="152.7813"/><ellipse cx="616.5" cy="166.4297" fill="#84BE84" rx="3" ry="3" style="stroke:#038048;stroke-width:1.0;"/><text fill="#000000" font-family="sans-serif" font-size="14" lengthAdjust="spacing" textLength="84" x="625.5" y="169.7764">build() : void</text><ellipse cx="616.5" cy="182.7266" fill="#84BE84" rx="3" ry="3" style="stroke:#038048;stroke-width:1.0;"/><text fill="#000000" font-family="sans-serif" font-size="14" lengthAdjust="spacing" textLength="484" x="625.5" y="186.0732">changeProperty(propertyName: string, propertyValue: unknown) : void</text><ellipse cx="616.5" cy="199.0234" fill="#84BE84" rx="3" ry="3" style="stroke:#038048;stroke-width:1.0;"/><text fill="#000000" font-family="sans-serif" font-size="14" lengthAdjust="spacing" textLength="106" x="625.5" y="202.3701">dispose() : void</text><ellipse cx="616.5" cy="215.3203" fill="#84BE84" rx="3" ry="3" style="stroke:#038048;stroke-width:1.0;"/><text fill="#000000" font-family="sans-serif" font-size="14" lengthAdjust="spacing" textLength="217" x="625.5" y="218.667">equalsToID(id: string) : boolean</text><ellipse cx="616.5" cy="231.6172" fill="#84BE84" rx="3" ry="3" style="stroke:#038048;stroke-width:1.0;"/><text fill="#000000" font-family="sans-serif" font-size="14" lengthAdjust="spacing" textLength="434" x="625.5" y="234.9639">registerCallback(eventName: string, callback: OSGeneric) : void</text><ellipse cx="616.5" cy="247.9141" fill="#84BE84" rx="3" ry="3" style="stroke:#038048;stroke-width:1.0;"/><text fill="#000000" font-family="sans-serif" font-size="14" lengthAdjust="spacing" textLength="295" x="625.5" y="251.2607">setProviderConfigs(newConfigs: any) : void</text><ellipse cx="616.5" cy="264.2109" fill="#84BE84" rx="3" ry="3" style="stroke:#038048;stroke-width:1.0;"/><text fill="#000000" font-family="sans-serif" font-size="14" lengthAdjust="spacing" textLength="374" x="625.5" y="267.5576">updateProviderEvents(providerInfo: ProviderInfo) : void</text></g><!--class AbstractNoUiSlider<C>--><g id="elem_AbstractNoUiSlider&lt;C&gt;"><rect codeLine="59" fill="#FFFFFF" height="732.4688" id="AbstractNoUiSlider&lt;C&gt;" rx="2.5" ry="2.5" style="stroke:#272B30;stroke-width:0.5;" width="707" x="221" y="728"/><ellipse cx="489.25" cy="744" fill="#A9DCDF" rx="11" ry="11" style="stroke:#181818;stroke-width:1.0;"/><path d="M489.3594,739.3438 L488.2031,744.4219 L490.5313,744.4219 L489.3594,739.3438 Z M487.875,737.1094 L490.8594,737.1094 L494.2188,749.5 L491.7656,749.5 L491,746.4375 L487.7188,746.4375 L486.9688,749.5 L484.5313,749.5 L487.875,737.1094 Z " fill="#000000"/><text fill="#000000" font-family="sans-serif" font-size="14" font-style="italic" lengthAdjust="spacing" textLength="162" x="509.75" y="748.8467">AbstractNoUiSlider&lt;C&gt;</text><line style="stroke:#272B30;stroke-width:0.5;" x1="222" x2="927" y1="760" y2="760"/><polygon fill="none" points="232,768.6484,236,772.6484,232,776.6484,228,772.6484" style="stroke:#B38D22;stroke-width:1.0;"/><text fill="#000000" font-family="sans-serif" font-size="14" lengthAdjust="spacing" textLength="263" x="241" y="776.9951">eventProviderValueChanged : Generic</text><polygon fill="none" points="232,784.9453,236,788.9453,232,792.9453,228,788.9453" style="stroke:#B38D22;stroke-width:1.0;"/><text fill="#000000" font-family="sans-serif" font-size="14" lengthAdjust="spacing" textLength="180" x="241" y="793.292">isProviderBased : boolean</text><polygon fill="none" points="232,801.2422,236,805.2422,232,809.2422,228,805.2422" style="stroke:#B38D22;stroke-width:1.0;"/><text fill="#000000" font-family="sans-serif" font-size="14" lengthAdjust="spacing" textLength="169" x="241" y="809.5889">noUiSliderOpts : Options</text><polygon fill="none" points="232,817.5391,236,821.5391,232,825.5391,228,821.5391" style="stroke:#B38D22;stroke-width:1.0;"/><text fill="#000000" font-family="sans-serif" font-size="14" lengthAdjust="spacing" textLength="371" x="241" y="825.8857">platformEventValueChange : OSOnValueChangeEvent</text><polygon fill="none" points="232,833.8359,236,837.8359,232,841.8359,228,837.8359" style="stroke:#B38D22;stroke-width:1.0;"/><text fill="#000000" font-family="sans-serif" font-size="14" lengthAdjust="spacing" textLength="393" x="241" y="842.1826">providerEventsManagerInstance : IProviderEventManager</text><polygon fill="none" points="232,850.1328,236,854.1328,232,858.1328,228,854.1328" style="stroke:#B38D22;stroke-width:1.0;"/><text fill="#000000" font-family="sans-serif" font-size="14" lengthAdjust="spacing" textLength="126" x="241" y="858.4795">throttleTimer : any</text><polygon fill="none" points="232,866.4297,236,870.4297,232,874.4297,228,870.4297" style="stroke:#B38D22;stroke-width:1.0;"/><text fill="#000000" font-family="sans-serif" font-size="14" lengthAdjust="spacing" textLength="189" x="241" y="874.7764">throttleTimeValue : number</text><rect fill="none" height="6" style="stroke:#C82930;stroke-width:1.0;" width="6" x="229" y="884.7266"/><text fill="#000000" font-family="sans-serif" font-size="14" lengthAdjust="spacing" textLength="136" x="241" y="891.0732">_isInterval : boolean</text><rect fill="none" height="6" style="stroke:#C82930;stroke-width:1.0;" width="6" x="229" y="901.0234"/><text fill="#000000" font-family="sans-serif" font-size="14" lengthAdjust="spacing" textLength="283" x="241" y="907.3701">_rangeSliderProviderElem : HTMLElement</text><line style="stroke:#272B30;stroke-width:0.5;" x1="222" x2="927" y1="914.6719" y2="914.6719"/><ellipse cx="232" cy="928.3203" fill="#84BE84" rx="3" ry="3" style="stroke:#038048;stroke-width:1.0;"/><text fill="#000000" font-family="sans-serif" font-size="14" lengthAdjust="spacing" textLength="84" x="241" y="931.667">build() : void</text><ellipse cx="232" cy="944.6172" fill="#84BE84" rx="3" ry="3" style="stroke:#038048;stroke-width:1.0;"/><text fill="#000000" font-family="sans-serif" font-size="14" lengthAdjust="spacing" textLength="484" x="241" y="947.9639">changeProperty(propertyName: string, propertyValue: unknown) : void</text><ellipse cx="232" cy="960.9141" fill="#84BE84" rx="3" ry="3" style="stroke:#038048;stroke-width:1.0;"/><text fill="#000000" font-family="sans-serif" font-size="14" lengthAdjust="spacing" textLength="241" x="241" y="964.2607">checkAddedProviderEvents() : void</text><ellipse cx="232" cy="977.2109" fill="#84BE84" rx="3" ry="3" style="stroke:#038048;stroke-width:1.0;"/><text fill="#000000" font-family="sans-serif" font-size="14" lengthAdjust="spacing" textLength="253" x="241" y="980.5576">checkPendingProviderEvents() : void</text><ellipse cx="232" cy="993.5078" fill="#84BE84" rx="3" ry="3" style="stroke:#038048;stroke-width:1.0;"/><text fill="#000000" font-family="sans-serif" font-size="14" lengthAdjust="spacing" textLength="100" x="241" y="996.8545">disable() : void</text><ellipse cx="232" cy="1009.8047" fill="#84BE84" rx="3" ry="3" style="stroke:#038048;stroke-width:1.0;"/><text fill="#000000" font-family="sans-serif" font-size="14" lengthAdjust="spacing" textLength="106" x="241" y="1013.1514">dispose() : void</text><ellipse cx="232" cy="1026.1016" fill="#84BE84" rx="3" ry="3" style="stroke:#038048;stroke-width:1.0;"/><text fill="#000000" font-family="sans-serif" font-size="14" lengthAdjust="spacing" textLength="98" x="241" y="1029.4482">enable() : void</text><ellipse cx="232" cy="1042.3984" fill="#84BE84" rx="3" ry="3" style="stroke:#038048;stroke-width:1.0;"/><text fill="#000000" font-family="sans-serif" font-size="14" lengthAdjust="spacing" textLength="267" x="241" y="1045.7451">equalsToID(patternId: string) : boolean</text><ellipse cx="232" cy="1058.6953" fill="#84BE84" rx="3" ry="3" style="stroke:#038048;stroke-width:1.0;"/><text fill="#000000" font-family="sans-serif" font-size="14" lengthAdjust="spacing" textLength="215" x="241" y="1062.042">getValue() : number | number[]</text><ellipse cx="232" cy="1074.9922" fill="#84BE84" rx="3" ry="3" style="stroke:#038048;stroke-width:1.0;"/><text fill="#000000" font-family="sans-serif" font-size="14" lengthAdjust="spacing" textLength="434" x="241" y="1078.3389">registerCallback(eventName: string, callback: OSGeneric) : void</text><ellipse cx="232" cy="1091.2891" fill="#84BE84" rx="3" ry="3" style="stroke:#038048;stroke-width:1.0;"/><text fill="#000000" font-family="sans-serif" font-size="14" lengthAdjust="spacing" textLength="325" x="241" y="1094.6357">setProviderConfigs(newConfigs: Options) : void</text><ellipse cx="232" cy="1107.5859" fill="#84BE84" rx="3" ry="3" style="stroke:#038048;stroke-width:1.0;"/><text fill="#000000" font-family="sans-serif" font-size="14" lengthAdjust="spacing" textLength="681" x="241" y="1110.9326">setProviderEvent(eventName: string, callback: Generic, uniqueId: string, saveEvent: boolean) : void</text><ellipse cx="232" cy="1123.8828" fill="#84BE84" rx="3" ry="3" style="stroke:#038048;stroke-width:1.0;"/><text fill="#000000" font-family="sans-serif" font-size="14" lengthAdjust="spacing" textLength="301" x="241" y="1127.2295">setRangeIntervalChangeOnDragEnd() : void</text><ellipse cx="232" cy="1140.1797" fill="#84BE84" rx="3" ry="3" style="stroke:#038048;stroke-width:1.0;"/><text fill="#000000" font-family="sans-serif" font-size="14" lengthAdjust="spacing" textLength="285" x="241" y="1143.5264">unsetProviderEvent(eventId: string) : void</text><ellipse cx="232" cy="1156.4766" fill="#84BE84" rx="3" ry="3" style="stroke:#038048;stroke-width:1.0;"/><text fill="#000000" font-family="sans-serif" font-size="14" lengthAdjust="spacing" textLength="374" x="241" y="1159.8232">updateProviderEvents(providerInfo: ProviderInfo) : void</text><polygon fill="#FFFF44" points="232,1167.7734,236,1171.7734,232,1175.7734,228,1171.7734" style="stroke:#B38D22;stroke-width:1.0;"/><text fill="#000000" font-family="sans-serif" font-size="14" lengthAdjust="spacing" textLength="121" x="241" y="1176.1201">finishBuild() : void</text><polygon fill="#FFFF44" points="232,1184.0703,236,1188.0703,232,1192.0703,228,1188.0703" style="stroke:#B38D22;stroke-width:1.0;"/><text fill="#000000" font-family="sans-serif" font-size="14" font-style="italic" lengthAdjust="spacing" textLength="157" x="241" y="1192.417">prepareConfigs() : void</text><polygon fill="#FFFF44" points="232,1200.3672,236,1204.3672,232,1208.3672,228,1204.3672" style="stroke:#B38D22;stroke-width:1.0;"/><text fill="#000000" font-family="sans-serif" font-size="14" lengthAdjust="spacing" textLength="98" x="241" y="1208.7139">redraw() : void</text><polygon fill="#FFFF44" points="232,1216.6641,236,1220.6641,232,1224.6641,228,1220.6641" style="stroke:#B38D22;stroke-width:1.0;"/><text fill="#000000" font-family="sans-serif" font-size="14" font-style="italic" lengthAdjust="spacing" textLength="179" x="241" y="1225.0107">setA11YProperties() : void</text><polygon fill="#FFFF44" points="232,1232.9609,236,1236.9609,232,1240.9609,228,1236.9609" style="stroke:#B38D22;stroke-width:1.0;"/><text fill="#000000" font-family="sans-serif" font-size="14" font-style="italic" lengthAdjust="spacing" textLength="137" x="241" y="1241.3076">setCallbacks() : void</text><polygon fill="#FFFF44" points="232,1249.2578,236,1253.2578,232,1257.2578,228,1253.2578" style="stroke:#B38D22;stroke-width:1.0;"/><text fill="#000000" font-family="sans-serif" font-size="14" lengthAdjust="spacing" textLength="169" x="241" y="1257.6045">setHtmlElements() : void</text><polygon fill="#FFFF44" points="232,1265.5547,236,1269.5547,232,1273.5547,228,1269.5547" style="stroke:#B38D22;stroke-width:1.0;"/><text fill="#000000" font-family="sans-serif" font-size="14" lengthAdjust="spacing" textLength="189" x="241" y="1273.9014">setInitialCSSClasses() : void</text><polygon fill="#FFFF44" points="232,1281.8516,236,1285.8516,232,1289.8516,228,1285.8516" style="stroke:#B38D22;stroke-width:1.0;"/><text fill="#000000" font-family="sans-serif" font-size="14" lengthAdjust="spacing" textLength="569" x="241" y="1290.1982">triggerPlatformEventCallback(platFormCallback: OSGeneric, args: unknown[]) : void</text><polygon fill="#FFFF44" points="232,1298.1484,236,1302.1484,232,1306.1484,228,1302.1484" style="stroke:#B38D22;stroke-width:1.0;"/><text fill="#000000" font-family="sans-serif" font-size="14" lengthAdjust="spacing" textLength="311" x="241" y="1306.4951">triggerPlatformInitializedEventCallback() : void</text><polygon fill="#FFFF44" points="232,1314.4453,236,1318.4453,232,1322.4453,228,1318.4453" style="stroke:#B38D22;stroke-width:1.0;"/><text fill="#000000" font-family="sans-serif" font-size="14" lengthAdjust="spacing" textLength="156" x="241" y="1322.792">unsetCallbacks() : void</text><polygon fill="#FFFF44" points="232,1330.7422,236,1334.7422,232,1338.7422,228,1334.7422" style="stroke:#B38D22;stroke-width:1.0;"/><text fill="#000000" font-family="sans-serif" font-size="14" lengthAdjust="spacing" textLength="199" x="241" y="1339.0889">unsetGlobalCallbacks() : void</text><polygon fill="#FFFF44" points="232,1347.0391,236,1351.0391,232,1355.0391,228,1351.0391" style="stroke:#B38D22;stroke-width:1.0;"/><text fill="#000000" font-family="sans-serif" font-size="14" lengthAdjust="spacing" textLength="187" x="241" y="1355.3857">unsetHtmlElements() : void</text><rect fill="#F24D5C" height="6" style="stroke:#C82930;stroke-width:1.0;" width="6" x="229" y="1365.3359"/><text fill="#000000" font-family="sans-serif" font-size="14" lengthAdjust="spacing" textLength="210" x="241" y="1371.6826">createProviderInstance() : void</text><rect fill="#F24D5C" height="6" style="stroke:#C82930;stroke-width:1.0;" width="6" x="229" y="1381.6328"/><text fill="#000000" font-family="sans-serif" font-size="14" lengthAdjust="spacing" textLength="151" x="241" y="1387.9795">setInitialStates() : void</text><rect fill="#F24D5C" height="6" style="stroke:#C82930;stroke-width:1.0;" width="6" x="229" y="1397.9297"/><text fill="#000000" font-family="sans-serif" font-size="14" lengthAdjust="spacing" textLength="287" x="241" y="1404.2764">_setIsDisabled(isDisabled: boolean) : void</text><rect fill="#F24D5C" height="6" style="stroke:#C82930;stroke-width:1.0;" width="6" x="229" y="1414.2266"/><text fill="#000000" font-family="sans-serif" font-size="14" lengthAdjust="spacing" textLength="448" x="241" y="1420.5732">_setOnValueChangeEvent(changeEvent: NoUISliderEvents) : void</text><rect fill="#F24D5C" height="6" style="stroke:#C82930;stroke-width:1.0;" width="6" x="229" y="1430.5234"/><text fill="#000000" font-family="sans-serif" font-size="14" lengthAdjust="spacing" textLength="109" x="241" y="1436.8701">_setSize() : void</text><rect fill="#F24D5C" height="6" style="stroke:#C82930;stroke-width:1.0;" width="6" x="229" y="1446.8203"/><text fill="#000000" font-family="sans-serif" font-size="14" lengthAdjust="spacing" textLength="198" x="241" y="1453.167">_updateRangeValues() : void</text></g><!--reverse link IRangeSlider to INoUiSlider--><g id="link_IRangeSlider_INoUiSlider"><path codeLine="42" d="M409.0743,297.1418 C424.6843,316.7118 429.64,322.92 445.58,342.9 " fill="none" id="IRangeSlider-backto-INoUiSlider" style="stroke:#272B30;stroke-width:1.0;"/><polygon fill="none" points="397.85,283.07,404.3837,300.8832,413.7649,293.4003,397.85,283.07" style="stroke:#272B30;stroke-width:1.0;"/></g><!--reverse link IProviderPattern<NoUiSlider> to INoUiSlider--><g id="link_IProviderPattern&lt;NoUiSlider&gt;_INoUiSlider"><path codeLine="58" d="M746.2235,289.24 C728.6935,311.21 721.52,320.21 703.43,342.89 " fill="none" id="IProviderPattern&lt;NoUiSlider&gt;-backto-INoUiSlider" style="stroke:#272B30;stroke-width:1.0;"/><polygon fill="none" points="757.45,275.17,741.5335,285.4978,750.9135,292.9822,757.45,275.17" style="stroke:#272B30;stroke-width:1.0;"/></g><!--reverse link INoUiSlider to AbstractNoUiSlider<C>--><g id="link_INoUiSlider_AbstractNoUiSlider&lt;C&gt;"><path codeLine="103" d="M574.5,686.32 C574.5,705.39 574.5,707.4 574.5,727.9 " fill="none" id="INoUiSlider-backto-AbstractNoUiSlider&lt;C&gt;" style="stroke:#272B30;stroke-width:1.0;stroke-dasharray:7.0,7.0;"/><polygon fill="none" points="574.5,668.32,568.5,686.32,580.5,686.32,574.5,668.32" style="stroke:#272B30;stroke-width:1.0;"/></g><!--SRC=[xLTHJzim47xlhx3WfTCe6cpI98GcqS8WqaQhbKsQ449kV4cjEdQmdLOC-E-pdQIDawQ3IJ1feYzDxhwxyvs_EpjgHdcA9KxGW66bZgGKYu5WGgBj_O_xa_VlEif7z8Ka83T3S3YBfSWuAM1H55Km3NK8v0F1dIabW219zIrAG4y5KLLHH84P2UKQP8H3G5l1kVXEnyn0v1Qwwo3pUqjLFwDCemCq4O81vhaubM9kSKREbqQ-Ak2HCEfHvJK7A63H2OC4k7LxTl7rI_6MgpDERp88YD4fBIcFS_62aXXqGpmngoFTDqOw5vJaid2AUGmcS0fIttRJuk4S9r0Qxw1I-WEpp8WpFkDYmNr7X2eyOT0jbrHQDr2fK51R1F17cC9DXfcw4C5nbteGhzWIOghCBWqmOnEprrsOcshvwOI5xW0DnwV0GTBG3wL0brin43oYiUgc_li1mlosrUZ4njmSkOYxWpOddV7rRblnAS4QF8FLsYsjV98jZHyyRd-pd7WSkLy9-ahGHnBqeLDZrk5zh-TFKe-5fTSHraR83rUuJqyOkUV_zSXTnzL_IaCEYtO6_lrq-WCRrZ09JqmQEDGejBS2j7LKlAymXuCbZxPTzcK8L_E1soMxdqNgEP2g4jN7ogchPTrU7V33L2kZDNzKS9LhKuPr96JYCgz4iRZna5Sa3b4OUUNwYZcERNcKnZoqbe5NpqAVc-gf55epkA29wmMp8Ks5Yshl9baoAGnxrrG5jXFdcDKox5tBLGil8vi6MTShpyh-S0hXx8WG83L2hO6DW1FZU2EmF1-US1wqDbwQapHexpypB5nopaTUUdHVF5nUlLoF5lnybfDY1oaypwcypBuHo9q89TboyW_viSJn2QzJvwKkGwv58igfclQR3Buh9yk3xKqmdnLG5jRt8858l6WtDiaSxUtzB5g1Wje8BKbGZs9KPpfXHT-jqGQSQcfAEnwxxwDwc6rJkDXCZ55rDYqPPoVMPoCTD6csWx2q32gQy_9gezjY5VGN43-2R-Msk2rLfpnbOcAosGHfhqSlb52XH3b5Qw1LqSRQeEi-hgrU7UVZWdJfyd4zoHs-EToxuUhPtLA2VARcD6rw69lIrHUI4znra7DVMQazCgkVg8VtkxjjX-1l]--></g></svg>