<?xml version="1.0" encoding="UTF-8" standalone="no"?><svg xmlns="http://www.w3.org/2000/svg" xmlns:xlink="http://www.w3.org/1999/xlink" contentScriptType="application/ecmascript" contentStyleType="text/css" height="425px" preserveAspectRatio="none" style="width:1826px;height:425px;background:#CED4DA;" version="1.1" viewBox="0 0 1826 425" width="1826px" zoomAndPan="magnify"><defs><filter height="300%" id="f197p754lvc9aj" width="300%" x="-1" y="-1"><feGaussianBlur result="blurOut" stdDeviation="2.0"/><feColorMatrix in="blurOut" result="blurOut2" type="matrix" values="0 0 0 0 0 0 0 0 0 0 0 0 0 0 0 0 0 0 .4 0"/><feOffset dx="4.0" dy="4.0" in="blurOut2" result="blurOut3"/><feBlend in="SourceGraphic" in2="blurOut3" mode="normal"/></filter></defs><g><!--MD5=[10f0bc30af2cfecf3ef477b487a33739]
class IOpenable--><rect codeLine="7" fill="#FFFFFF" filter="url(#f197p754lvc9aj)" height="65.6094" id="IOpenable" style="stroke:#272B30;stroke-width:1.5;" width="99" x="860" y="7"/><ellipse cx="876.8" cy="23" fill="#B4A7E5" rx="11" ry="11" style="stroke:#272B30;stroke-width:1.0;"/><path d="M872.7219,18.7656 L872.7219,16.6094 L880.1125,16.6094 L880.1125,18.7656 L877.6438,18.7656 L877.6438,26.8438 L880.1125,26.8438 L880.1125,29 L872.7219,29 L872.7219,26.8438 L875.1906,26.8438 L875.1906,18.7656 L872.7219,18.7656 Z " fill="#000000"/><text fill="#000000" font-family="sans-serif" font-size="12" font-style="italic" lengthAdjust="spacing" textLength="63" x="891.2" y="27.1543">IOpenable</text><line style="stroke:#272B30;stroke-width:1.5;" x1="861" x2="958" y1="39" y2="39"/><ellipse cx="871" cy="50" fill="#84BE84" rx="3" ry="3" style="stroke:#038048;stroke-width:1.0;"/><text fill="#000000" font-family="sans-serif" font-size="11" lengthAdjust="spacing" textLength="73" x="880" y="53.2104">close() : void</text><ellipse cx="871" cy="62.8047" fill="#84BE84" rx="3" ry="3" style="stroke:#038048;stroke-width:1.0;"/><text fill="#000000" font-family="sans-serif" font-size="11" lengthAdjust="spacing" textLength="71" x="880" y="66.0151">open() : void</text><!--MD5=[c37acc2da49fd41b942858a217d69c1e]
class IAccordionItem--><rect codeLine="11" fill="#FFFFFF" filter="url(#f197p754lvc9aj)" height="278.4844" id="IAccordionItem" style="stroke:#272B30;stroke-width:1.5;" width="425" x="7" y="133"/><ellipse cx="168.25" cy="149" fill="#B4A7E5" rx="11" ry="11" style="stroke:#272B30;stroke-width:1.0;"/><path d="M164.1719,144.7656 L164.1719,142.6094 L171.5625,142.6094 L171.5625,144.7656 L169.0938,144.7656 L169.0938,152.8438 L171.5625,152.8438 L171.5625,155 L164.1719,155 L164.1719,152.8438 L166.6406,152.8438 L166.6406,144.7656 L164.1719,144.7656 Z " fill="#000000"/><text fill="#000000" font-family="sans-serif" font-size="12" font-style="italic" lengthAdjust="spacing" textLength="94" x="188.75" y="153.1543">IAccordionItem</text><line style="stroke:#272B30;stroke-width:1.5;" x1="8" x2="431" y1="165" y2="165"/><ellipse cx="18" cy="176" rx="3" ry="3" style="stroke:#038048;stroke-width:1.0;fill:none;"/><text fill="#000000" font-family="sans-serif" font-size="11" lengthAdjust="spacing" textLength="92" x="27" y="179.2104">isBuilt : boolean</text><ellipse cx="18" cy="188.8047" rx="3" ry="3" style="stroke:#038048;stroke-width:1.0;fill:none;"/><text fill="#000000" font-family="sans-serif" font-size="11" lengthAdjust="spacing" textLength="116" x="27" y="192.0151">isDisabled : boolean</text><ellipse cx="18" cy="201.6094" rx="3" ry="3" style="stroke:#038048;stroke-width:1.0;fill:none;"/><text fill="#000000" font-family="sans-serif" font-size="11" lengthAdjust="spacing" textLength="97" x="27" y="204.8198">isOpen : boolean</text><ellipse cx="18" cy="214.4141" rx="3" ry="3" style="stroke:#038048;stroke-width:1.0;fill:none;"/><text fill="#000000" font-family="sans-serif" font-size="11" lengthAdjust="spacing" textLength="155" x="27" y="217.6245">selfElement : HTMLElement</text><ellipse cx="18" cy="227.2188" rx="3" ry="3" style="stroke:#038048;stroke-width:1.0;fill:none;"/><text fill="#000000" font-family="sans-serif" font-size="11" lengthAdjust="spacing" textLength="93" x="27" y="230.4292">uniqueId : string</text><ellipse cx="18" cy="240.0234" rx="3" ry="3" style="stroke:#038048;stroke-width:1.0;fill:none;"/><text fill="#000000" font-family="sans-serif" font-size="11" lengthAdjust="spacing" textLength="92" x="27" y="243.2339">widgetId : string</text><line style="stroke:#272B30;stroke-width:1.5;" x1="8" x2="431" y1="249.8281" y2="249.8281"/><ellipse cx="18" cy="260.8281" fill="#84BE84" rx="3" ry="3" style="stroke:#038048;stroke-width:1.0;"/><text fill="#000000" font-family="sans-serif" font-size="11" lengthAdjust="spacing" textLength="131" x="27" y="264.0386">allowTitleEvents() : any</text><ellipse cx="18" cy="273.6328" fill="#84BE84" rx="3" ry="3" style="stroke:#038048;stroke-width:1.0;"/><text fill="#000000" font-family="sans-serif" font-size="11" lengthAdjust="spacing" textLength="70" x="27" y="276.8433">build() : void</text><ellipse cx="18" cy="286.4375" fill="#84BE84" rx="3" ry="3" style="stroke:#038048;stroke-width:1.0;"/><text fill="#000000" font-family="sans-serif" font-size="11" lengthAdjust="spacing" textLength="399" x="27" y="289.6479">changeProperty(propertyName: string, propertyValue: unknown) : void</text><ellipse cx="18" cy="299.2422" fill="#84BE84" rx="3" ry="3" style="stroke:#038048;stroke-width:1.0;"/><text fill="#000000" font-family="sans-serif" font-size="11" lengthAdjust="spacing" textLength="73" x="27" y="302.4526">close() : void</text><ellipse cx="18" cy="312.0469" fill="#84BE84" rx="3" ry="3" style="stroke:#038048;stroke-width:1.0;"/><text fill="#000000" font-family="sans-serif" font-size="11" lengthAdjust="spacing" textLength="88" x="27" y="315.2573">dispose() : void</text><ellipse cx="18" cy="324.8516" fill="#84BE84" rx="3" ry="3" style="stroke:#038048;stroke-width:1.0;"/><text fill="#000000" font-family="sans-serif" font-size="11" lengthAdjust="spacing" textLength="179" x="27" y="328.062">equalsToID(id: string) : boolean</text><ellipse cx="18" cy="337.6563" fill="#84BE84" rx="3" ry="3" style="stroke:#038048;stroke-width:1.0;"/><text fill="#000000" font-family="sans-serif" font-size="11" lengthAdjust="spacing" textLength="71" x="27" y="340.8667">open() : void</text><ellipse cx="18" cy="350.4609" fill="#84BE84" rx="3" ry="3" style="stroke:#038048;stroke-width:1.0;"/><text fill="#000000" font-family="sans-serif" font-size="11" lengthAdjust="spacing" textLength="249" x="27" y="353.6714">registerCallback(callback: OSGeneric) : void</text><ellipse cx="18" cy="363.2656" fill="#84BE84" rx="3" ry="3" style="stroke:#038048;stroke-width:1.0;"/><text fill="#000000" font-family="sans-serif" font-size="11" lengthAdjust="spacing" textLength="84" x="27" y="366.4761">setBlur() : void</text><ellipse cx="18" cy="376.0703" fill="#84BE84" rx="3" ry="3" style="stroke:#038048;stroke-width:1.0;"/><text fill="#000000" font-family="sans-serif" font-size="11" lengthAdjust="spacing" textLength="94" x="27" y="379.2808">setFocus() : void</text><ellipse cx="18" cy="388.875" fill="#84BE84" rx="3" ry="3" style="stroke:#038048;stroke-width:1.0;"/><text fill="#000000" font-family="sans-serif" font-size="11" lengthAdjust="spacing" textLength="112" x="27" y="392.0854">setTabindex() : void</text><ellipse cx="18" cy="401.6797" fill="#84BE84" rx="3" ry="3" style="stroke:#038048;stroke-width:1.0;"/><text fill="#000000" font-family="sans-serif" font-size="11" lengthAdjust="spacing" textLength="126" x="27" y="404.8901">unsetTabindex() : void</text><!--MD5=[269732d4b4d4bad0949a96b3ba380c4a]
class ISidebar--><rect codeLine="32" fill="#FFFFFF" filter="url(#f197p754lvc9aj)" height="201.6563" id="ISidebar" style="stroke:#272B30;stroke-width:1.5;" width="425" x="467" y="171"/><ellipse cx="649.25" cy="187" fill="#B4A7E5" rx="11" ry="11" style="stroke:#272B30;stroke-width:1.0;"/><path d="M645.1719,182.7656 L645.1719,180.6094 L652.5625,180.6094 L652.5625,182.7656 L650.0938,182.7656 L650.0938,190.8438 L652.5625,190.8438 L652.5625,193 L645.1719,193 L645.1719,190.8438 L647.6406,190.8438 L647.6406,182.7656 L645.1719,182.7656 Z " fill="#000000"/><text fill="#000000" font-family="sans-serif" font-size="12" font-style="italic" lengthAdjust="spacing" textLength="52" x="669.75" y="191.1543">ISidebar</text><line style="stroke:#272B30;stroke-width:1.5;" x1="468" x2="891" y1="203" y2="203"/><ellipse cx="478" cy="214" rx="3" ry="3" style="stroke:#038048;stroke-width:1.0;fill:none;"/><text fill="#000000" font-family="sans-serif" font-size="11" lengthAdjust="spacing" textLength="92" x="487" y="217.2104">isBuilt : boolean</text><ellipse cx="478" cy="226.8047" rx="3" ry="3" style="stroke:#038048;stroke-width:1.0;fill:none;"/><text fill="#000000" font-family="sans-serif" font-size="11" lengthAdjust="spacing" textLength="155" x="487" y="230.0151">selfElement : HTMLElement</text><ellipse cx="478" cy="239.6094" rx="3" ry="3" style="stroke:#038048;stroke-width:1.0;fill:none;"/><text fill="#000000" font-family="sans-serif" font-size="11" lengthAdjust="spacing" textLength="93" x="487" y="242.8198">uniqueId : string</text><ellipse cx="478" cy="252.4141" rx="3" ry="3" style="stroke:#038048;stroke-width:1.0;fill:none;"/><text fill="#000000" font-family="sans-serif" font-size="11" lengthAdjust="spacing" textLength="92" x="487" y="255.6245">widgetId : string</text><line style="stroke:#272B30;stroke-width:1.5;" x1="468" x2="891" y1="262.2188" y2="262.2188"/><ellipse cx="478" cy="273.2188" fill="#84BE84" rx="3" ry="3" style="stroke:#038048;stroke-width:1.0;"/><text fill="#000000" font-family="sans-serif" font-size="11" lengthAdjust="spacing" textLength="70" x="487" y="276.4292">build() : void</text><ellipse cx="478" cy="286.0234" fill="#84BE84" rx="3" ry="3" style="stroke:#038048;stroke-width:1.0;"/><text fill="#000000" font-family="sans-serif" font-size="11" lengthAdjust="spacing" textLength="399" x="487" y="289.2339">changeProperty(propertyName: string, propertyValue: unknown) : void</text><ellipse cx="478" cy="298.8281" fill="#84BE84" rx="3" ry="3" style="stroke:#038048;stroke-width:1.0;"/><text fill="#000000" font-family="sans-serif" font-size="11" lengthAdjust="spacing" textLength="73" x="487" y="302.0386">close() : void</text><ellipse cx="478" cy="311.6328" fill="#84BE84" rx="3" ry="3" style="stroke:#038048;stroke-width:1.0;"/><text fill="#000000" font-family="sans-serif" font-size="11" lengthAdjust="spacing" textLength="88" x="487" y="314.8433">dispose() : void</text><ellipse cx="478" cy="324.4375" fill="#84BE84" rx="3" ry="3" style="stroke:#038048;stroke-width:1.0;"/><text fill="#000000" font-family="sans-serif" font-size="11" lengthAdjust="spacing" textLength="179" x="487" y="327.6479">equalsToID(id: string) : boolean</text><ellipse cx="478" cy="337.2422" fill="#84BE84" rx="3" ry="3" style="stroke:#038048;stroke-width:1.0;"/><text fill="#000000" font-family="sans-serif" font-size="11" lengthAdjust="spacing" textLength="71" x="487" y="340.4526">open() : void</text><ellipse cx="478" cy="350.0469" fill="#84BE84" rx="3" ry="3" style="stroke:#038048;stroke-width:1.0;"/><text fill="#000000" font-family="sans-serif" font-size="11" lengthAdjust="spacing" textLength="249" x="487" y="353.2573">registerCallback(callback: OSGeneric) : void</text><ellipse cx="478" cy="362.8516" fill="#84BE84" rx="3" ry="3" style="stroke:#038048;stroke-width:1.0;"/><text fill="#000000" font-family="sans-serif" font-size="11" lengthAdjust="spacing" textLength="231" x="487" y="366.062">toggleGestures(enableSwipe: any) : void</text><!--MD5=[a7e8a8d2f0c5e8f7151c6d58329f21e4]
class ISubmenu--><rect codeLine="47" fill="#FFFFFF" filter="url(#f197p754lvc9aj)" height="188.8516" id="ISubmenu" style="stroke:#272B30;stroke-width:1.5;" width="425" x="927" y="177.5"/><ellipse cx="1103.75" cy="193.5" fill="#B4A7E5" rx="11" ry="11" style="stroke:#272B30;stroke-width:1.0;"/><path d="M1099.6719,189.2656 L1099.6719,187.1094 L1107.0625,187.1094 L1107.0625,189.2656 L1104.5938,189.2656 L1104.5938,197.3438 L1107.0625,197.3438 L1107.0625,199.5 L1099.6719,199.5 L1099.6719,197.3438 L1102.1406,197.3438 L1102.1406,189.2656 L1099.6719,189.2656 Z " fill="#000000"/><text fill="#000000" font-family="sans-serif" font-size="12" font-style="italic" lengthAdjust="spacing" textLength="63" x="1124.25" y="197.6543">ISubmenu</text><line style="stroke:#272B30;stroke-width:1.5;" x1="928" x2="1351" y1="209.5" y2="209.5"/><ellipse cx="938" cy="220.5" rx="3" ry="3" style="stroke:#038048;stroke-width:1.0;fill:none;"/><text fill="#000000" font-family="sans-serif" font-size="11" lengthAdjust="spacing" textLength="92" x="947" y="223.7104">isBuilt : boolean</text><ellipse cx="938" cy="233.3047" rx="3" ry="3" style="stroke:#038048;stroke-width:1.0;fill:none;"/><text fill="#000000" font-family="sans-serif" font-size="11" lengthAdjust="spacing" textLength="155" x="947" y="236.5151">selfElement : HTMLElement</text><ellipse cx="938" cy="246.1094" rx="3" ry="3" style="stroke:#038048;stroke-width:1.0;fill:none;"/><text fill="#000000" font-family="sans-serif" font-size="11" lengthAdjust="spacing" textLength="93" x="947" y="249.3198">uniqueId : string</text><ellipse cx="938" cy="258.9141" rx="3" ry="3" style="stroke:#038048;stroke-width:1.0;fill:none;"/><text fill="#000000" font-family="sans-serif" font-size="11" lengthAdjust="spacing" textLength="92" x="947" y="262.1245">widgetId : string</text><line style="stroke:#272B30;stroke-width:1.5;" x1="928" x2="1351" y1="268.7188" y2="268.7188"/><ellipse cx="938" cy="279.7188" fill="#84BE84" rx="3" ry="3" style="stroke:#038048;stroke-width:1.0;"/><text fill="#000000" font-family="sans-serif" font-size="11" lengthAdjust="spacing" textLength="70" x="947" y="282.9292">build() : void</text><ellipse cx="938" cy="292.5234" fill="#84BE84" rx="3" ry="3" style="stroke:#038048;stroke-width:1.0;"/><text fill="#000000" font-family="sans-serif" font-size="11" lengthAdjust="spacing" textLength="399" x="947" y="295.7339">changeProperty(propertyName: string, propertyValue: unknown) : void</text><ellipse cx="938" cy="305.3281" fill="#84BE84" rx="3" ry="3" style="stroke:#038048;stroke-width:1.0;"/><text fill="#000000" font-family="sans-serif" font-size="11" lengthAdjust="spacing" textLength="73" x="947" y="308.5386">close() : void</text><ellipse cx="938" cy="318.1328" fill="#84BE84" rx="3" ry="3" style="stroke:#038048;stroke-width:1.0;"/><text fill="#000000" font-family="sans-serif" font-size="11" lengthAdjust="spacing" textLength="88" x="947" y="321.3433">dispose() : void</text><ellipse cx="938" cy="330.9375" fill="#84BE84" rx="3" ry="3" style="stroke:#038048;stroke-width:1.0;"/><text fill="#000000" font-family="sans-serif" font-size="11" lengthAdjust="spacing" textLength="179" x="947" y="334.1479">equalsToID(id: string) : boolean</text><ellipse cx="938" cy="343.7422" fill="#84BE84" rx="3" ry="3" style="stroke:#038048;stroke-width:1.0;"/><text fill="#000000" font-family="sans-serif" font-size="11" lengthAdjust="spacing" textLength="71" x="947" y="346.9526">open() : void</text><ellipse cx="938" cy="356.5469" fill="#84BE84" rx="3" ry="3" style="stroke:#038048;stroke-width:1.0;"/><text fill="#000000" font-family="sans-serif" font-size="11" lengthAdjust="spacing" textLength="138" x="947" y="359.7573">updateOnRender() : void</text><!--MD5=[24c11dadffea028fa58a09a99a31b362]
class ITooltip--><rect codeLine="61" fill="#FFFFFF" filter="url(#f197p754lvc9aj)" height="176.0469" id="ITooltip" style="stroke:#272B30;stroke-width:1.5;" width="425" x="1387" y="184"/><ellipse cx="1572.25" cy="200" fill="#B4A7E5" rx="11" ry="11" style="stroke:#272B30;stroke-width:1.0;"/><path d="M1568.1719,195.7656 L1568.1719,193.6094 L1575.5625,193.6094 L1575.5625,195.7656 L1573.0938,195.7656 L1573.0938,203.8438 L1575.5625,203.8438 L1575.5625,206 L1568.1719,206 L1568.1719,203.8438 L1570.6406,203.8438 L1570.6406,195.7656 L1568.1719,195.7656 Z " fill="#000000"/><text fill="#000000" font-family="sans-serif" font-size="12" font-style="italic" lengthAdjust="spacing" textLength="46" x="1592.75" y="204.1543">ITooltip</text><line style="stroke:#272B30;stroke-width:1.5;" x1="1388" x2="1811" y1="216" y2="216"/><ellipse cx="1398" cy="227" rx="3" ry="3" style="stroke:#038048;stroke-width:1.0;fill:none;"/><text fill="#000000" font-family="sans-serif" font-size="11" lengthAdjust="spacing" textLength="92" x="1407" y="230.2104">isBuilt : boolean</text><ellipse cx="1398" cy="239.8047" rx="3" ry="3" style="stroke:#038048;stroke-width:1.0;fill:none;"/><text fill="#000000" font-family="sans-serif" font-size="11" lengthAdjust="spacing" textLength="155" x="1407" y="243.0151">selfElement : HTMLElement</text><ellipse cx="1398" cy="252.6094" rx="3" ry="3" style="stroke:#038048;stroke-width:1.0;fill:none;"/><text fill="#000000" font-family="sans-serif" font-size="11" lengthAdjust="spacing" textLength="93" x="1407" y="255.8198">uniqueId : string</text><ellipse cx="1398" cy="265.4141" rx="3" ry="3" style="stroke:#038048;stroke-width:1.0;fill:none;"/><text fill="#000000" font-family="sans-serif" font-size="11" lengthAdjust="spacing" textLength="92" x="1407" y="268.6245">widgetId : string</text><line style="stroke:#272B30;stroke-width:1.5;" x1="1388" x2="1811" y1="275.2188" y2="275.2188"/><ellipse cx="1398" cy="286.2188" fill="#84BE84" rx="3" ry="3" style="stroke:#038048;stroke-width:1.0;"/><text fill="#000000" font-family="sans-serif" font-size="11" lengthAdjust="spacing" textLength="70" x="1407" y="289.4292">build() : void</text><ellipse cx="1398" cy="299.0234" fill="#84BE84" rx="3" ry="3" style="stroke:#038048;stroke-width:1.0;"/><text fill="#000000" font-family="sans-serif" font-size="11" lengthAdjust="spacing" textLength="399" x="1407" y="302.2339">changeProperty(propertyName: string, propertyValue: unknown) : void</text><ellipse cx="1398" cy="311.8281" fill="#84BE84" rx="3" ry="3" style="stroke:#038048;stroke-width:1.0;"/><text fill="#000000" font-family="sans-serif" font-size="11" lengthAdjust="spacing" textLength="73" x="1407" y="315.0386">close() : void</text><ellipse cx="1398" cy="324.6328" fill="#84BE84" rx="3" ry="3" style="stroke:#038048;stroke-width:1.0;"/><text fill="#000000" font-family="sans-serif" font-size="11" lengthAdjust="spacing" textLength="88" x="1407" y="327.8433">dispose() : void</text><ellipse cx="1398" cy="337.4375" fill="#84BE84" rx="3" ry="3" style="stroke:#038048;stroke-width:1.0;"/><text fill="#000000" font-family="sans-serif" font-size="11" lengthAdjust="spacing" textLength="179" x="1407" y="340.6479">equalsToID(id: string) : boolean</text><ellipse cx="1398" cy="350.2422" fill="#84BE84" rx="3" ry="3" style="stroke:#038048;stroke-width:1.0;"/><text fill="#000000" font-family="sans-serif" font-size="11" lengthAdjust="spacing" textLength="71" x="1407" y="353.4526">open() : void</text><!--MD5=[89c640633a199b6642e7680e1c32a59f]
reverse link IOpenable to IAccordionItem--><path codeLine="31" d="M839.85,47.43 C747.91,57.58 582.17,81.71 449.5,133 C443.75,135.22 437.97,137.59 432.19,140.07 " fill="none" id="IOpenable-backto-IAccordionItem" style="stroke:#272B30;stroke-width:1.0;"/><polygon fill="none" points="839.32,40.45,859.95,45.3,840.79,54.37,839.32,40.45" style="stroke:#272B30;stroke-width:1.0;"/><!--MD5=[40652e3b26e45d4b461ee3ae91a638e5]
reverse link IOpenable to ISidebar--><path codeLine="46" d="M862.59,87.91 C838.59,111.91 808.4,142.1 779.5,171 " fill="none" id="IOpenable-backto-ISidebar" style="stroke:#272B30;stroke-width:1.0;"/><polygon fill="none" points="857.94,82.66,877.03,73.47,867.84,92.56,857.94,82.66" style="stroke:#272B30;stroke-width:1.0;"/><!--MD5=[f7ffe194f737e432b7f44ab3d9977473]
reverse link IOpenable to ISubmenu--><path codeLine="60" d="M956.25,87.75 C982.04,113.54 1015.01,146.51 1045.86,177.36 " fill="none" id="IOpenable-backto-ISubmenu" style="stroke:#272B30;stroke-width:1.0;"/><polygon fill="none" points="951.16,92.56,941.97,73.47,961.06,82.66,951.16,92.56" style="stroke:#272B30;stroke-width:1.0;"/><!--MD5=[c5babbf2c66b52d6968cfdf43d0ede46]
reverse link IOpenable to ITooltip--><path codeLine="73" d="M979.15,47.43 C1071.09,57.58 1236.83,81.71 1369.5,133 C1404.14,146.39 1439.52,164.83 1471.81,183.88 " fill="none" id="IOpenable-backto-ITooltip" style="stroke:#272B30;stroke-width:1.0;"/><polygon fill="none" points="978.21,54.37,959.05,45.3,979.68,40.45,978.21,54.37" style="stroke:#272B30;stroke-width:1.0;"/><!--MD5=[5ec87df7efa8d37c93daba32f030bf11]
@startuml
skinparam ClassArrowColor #272b30
skinparam ClassBorderColor #272b30
skinparam ClassBackgroundColor #fff
skinparam BackgroundColor #ced4da
hide empty methods
hide empty fields
interface "IOpenable" {
    +close() : void
    +open() : void
}
interface "IAccordionItem" {
    +isBuilt : boolean
    +isDisabled : boolean
    +isOpen : boolean
    +selfElement : HTMLElement
    +uniqueId : string
    +widgetId : string
    +allowTitleEvents() : any
    +build() : void
    +changeProperty(propertyName: string, propertyValue: unknown) : void
    +close() : void
    +dispose() : void
    +equalsToID(id: string) : boolean
    +open() : void
    +registerCallback(callback: OSGeneric) : void
    +setBlur() : void
    +setFocus() : void
    +setTabindex() : void
    +unsetTabindex() : void
}
"IOpenable" <|- - "IAccordionItem"
interface "ISidebar" {
    +isBuilt : boolean
    +selfElement : HTMLElement
    +uniqueId : string
    +widgetId : string
    +build() : void
    +changeProperty(propertyName: string, propertyValue: unknown) : void
    +close() : void
    +dispose() : void
    +equalsToID(id: string) : boolean
    +open() : void
    +registerCallback(callback: OSGeneric) : void
    +toggleGestures(enableSwipe: any) : void
}
"IOpenable" <|- - "ISidebar"
interface "ISubmenu" {
    +isBuilt : boolean
    +selfElement : HTMLElement
    +uniqueId : string
    +widgetId : string
    +build() : void
    +changeProperty(propertyName: string, propertyValue: unknown) : void
    +close() : void
    +dispose() : void
    +equalsToID(id: string) : boolean
    +open() : void
    +updateOnRender() : void
}
"IOpenable" <|- - "ISubmenu"
interface "ITooltip" {
    +isBuilt : boolean
    +selfElement : HTMLElement
    +uniqueId : string
    +widgetId : string
    +build() : void
    +changeProperty(propertyName: string, propertyValue: unknown) : void
    +close() : void
    +dispose() : void
    +equalsToID(id: string) : boolean
    +open() : void
}
"IOpenable" <|- - "ITooltip"
@enduml

PlantUML version 1.2021.14(Fri Nov 12 16:46:50 UTC 2021)
(GPL source distribution)
Java Runtime: OpenJDK Runtime Environment
JVM: OpenJDK 64-Bit Server VM
Default Encoding: UTF-8
Language: en
Country: null
--></g></svg>