<?xml version="1.0" encoding="UTF-8" standalone="no"?><svg xmlns="http://www.w3.org/2000/svg" xmlns:xlink="http://www.w3.org/1999/xlink" contentScriptType="application/ecmascript" contentStyleType="text/css" height="428px" preserveAspectRatio="none" style="width:2690px;height:428px;background:#CED4DA;" version="1.1" viewBox="0 0 2690 428" width="2690px" zoomAndPan="magnify"><defs><filter height="300%" id="f85l438kcsuc2" width="300%" x="-1" y="-1"><feGaussianBlur result="blurOut" stdDeviation="2.0"/><feColorMatrix in="blurOut" result="blurOut2" type="matrix" values="0 0 0 0 0 0 0 0 0 0 0 0 0 0 0 0 0 0 .4 0"/><feOffset dx="4.0" dy="4.0" in="blurOut2" result="blurOut3"/><feBlend in="SourceGraphic" in2="blurOut3" mode="normal"/></filter></defs><g><!--MD5=[10f0bc30af2cfecf3ef477b487a33739]
class IOpenable--><rect codeLine="7" fill="#FFFFFF" filter="url(#f85l438kcsuc2)" height="65.9102" id="IOpenable" style="stroke:#272B30;stroke-width:1.5;" width="94" x="1294.5" y="7"/><ellipse cx="1310.85" cy="23" fill="#B4A7E5" rx="11" ry="11" style="stroke:#272B30;stroke-width:1.0;"/><path d="M1307.2777,19.2651 L1307.2777,17.1069 L1314.6571,17.1069 L1314.6571,19.2651 L1312.1918,19.2651 L1312.1918,27.3418 L1314.6571,27.3418 L1314.6571,29.5 L1307.2777,29.5 L1307.2777,27.3418 L1309.7431,27.3418 L1309.7431,19.2651 Z " fill="#000000"/><text fill="#000000" font-family="sans-serif" font-size="12" font-style="italic" lengthAdjust="spacing" textLength="59" x="1325.15" y="27.5352">IOpenable</text><line style="stroke:#272B30;stroke-width:1.5;" x1="1295.5" x2="1387.5" y1="39" y2="39"/><ellipse cx="1305.5" cy="50" fill="#84BE84" rx="3" ry="3" style="stroke:#038048;stroke-width:1.0;"/><text fill="#000000" font-family="sans-serif" font-size="11" lengthAdjust="spacing" textLength="68" x="1314.5" y="53.6348">close() : void</text><ellipse cx="1305.5" cy="62.9551" fill="#84BE84" rx="3" ry="3" style="stroke:#038048;stroke-width:1.0;"/><text fill="#000000" font-family="sans-serif" font-size="11" lengthAdjust="spacing" textLength="67" x="1314.5" y="66.5898">open() : void</text><!--MD5=[c37acc2da49fd41b942858a217d69c1e]
class IAccordionItem--><rect codeLine="11" fill="#FFFFFF" filter="url(#f85l438kcsuc2)" height="281.1914" id="IAccordionItem" style="stroke:#272B30;stroke-width:1.5;" width="403" x="7" y="133"/><ellipse cx="161.75" cy="149" fill="#B4A7E5" rx="11" ry="11" style="stroke:#272B30;stroke-width:1.0;"/><path d="M158.1777,145.2651 L158.1777,143.1069 L165.5571,143.1069 L165.5571,145.2651 L163.0918,145.2651 L163.0918,153.3418 L165.5571,153.3418 L165.5571,155.5 L158.1777,155.5 L158.1777,153.3418 L160.6431,153.3418 L160.6431,145.2651 Z " fill="#000000"/><text fill="#000000" font-family="sans-serif" font-size="12" font-style="italic" lengthAdjust="spacing" textLength="85" x="182.25" y="153.5352">IAccordionItem</text><line style="stroke:#272B30;stroke-width:1.5;" x1="8" x2="409" y1="165" y2="165"/><ellipse cx="18" cy="176" rx="3" ry="3" style="stroke:#038048;stroke-width:1.0;fill:none;"/><text fill="#000000" font-family="sans-serif" font-size="11" lengthAdjust="spacing" textLength="84" x="27" y="179.6348">isBuilt : boolean</text><ellipse cx="18" cy="188.9551" rx="3" ry="3" style="stroke:#038048;stroke-width:1.0;fill:none;"/><text fill="#000000" font-family="sans-serif" font-size="11" lengthAdjust="spacing" textLength="107" x="27" y="192.5898">isDisabled : boolean</text><ellipse cx="18" cy="201.9102" rx="3" ry="3" style="stroke:#038048;stroke-width:1.0;fill:none;"/><text fill="#000000" font-family="sans-serif" font-size="11" lengthAdjust="spacing" textLength="90" x="27" y="205.5449">isOpen : boolean</text><ellipse cx="18" cy="214.8652" rx="3" ry="3" style="stroke:#038048;stroke-width:1.0;fill:none;"/><text fill="#000000" font-family="sans-serif" font-size="11" lengthAdjust="spacing" textLength="142" x="27" y="218.5">selfElement : HTMLElement</text><ellipse cx="18" cy="227.8203" rx="3" ry="3" style="stroke:#038048;stroke-width:1.0;fill:none;"/><text fill="#000000" font-family="sans-serif" font-size="11" lengthAdjust="spacing" textLength="88" x="27" y="231.4551">uniqueId : string</text><ellipse cx="18" cy="240.7754" rx="3" ry="3" style="stroke:#038048;stroke-width:1.0;fill:none;"/><text fill="#000000" font-family="sans-serif" font-size="11" lengthAdjust="spacing" textLength="86" x="27" y="244.4102">widgetId : string</text><line style="stroke:#272B30;stroke-width:1.5;" x1="8" x2="409" y1="250.7305" y2="250.7305"/><ellipse cx="18" cy="261.7305" fill="#84BE84" rx="3" ry="3" style="stroke:#038048;stroke-width:1.0;"/><text fill="#000000" font-family="sans-serif" font-size="11" lengthAdjust="spacing" textLength="121" x="27" y="265.3652">allowTitleEvents() : any</text><ellipse cx="18" cy="274.6855" fill="#84BE84" rx="3" ry="3" style="stroke:#038048;stroke-width:1.0;"/><text fill="#000000" font-family="sans-serif" font-size="11" lengthAdjust="spacing" textLength="67" x="27" y="278.3203">build() : void</text><ellipse cx="18" cy="287.6406" fill="#84BE84" rx="3" ry="3" style="stroke:#038048;stroke-width:1.0;"/><text fill="#000000" font-family="sans-serif" font-size="11" lengthAdjust="spacing" textLength="377" x="27" y="291.2754">changeProperty(propertyName: string, propertyValue: unknown) : void</text><ellipse cx="18" cy="300.5957" fill="#84BE84" rx="3" ry="3" style="stroke:#038048;stroke-width:1.0;"/><text fill="#000000" font-family="sans-serif" font-size="11" lengthAdjust="spacing" textLength="68" x="27" y="304.2305">close() : void</text><ellipse cx="18" cy="313.5508" fill="#84BE84" rx="3" ry="3" style="stroke:#038048;stroke-width:1.0;"/><text fill="#000000" font-family="sans-serif" font-size="11" lengthAdjust="spacing" textLength="82" x="27" y="317.1855">dispose() : void</text><ellipse cx="18" cy="326.5059" fill="#84BE84" rx="3" ry="3" style="stroke:#038048;stroke-width:1.0;"/><text fill="#000000" font-family="sans-serif" font-size="11" lengthAdjust="spacing" textLength="168" x="27" y="330.1406">equalsToID(id: string) : boolean</text><ellipse cx="18" cy="339.4609" fill="#84BE84" rx="3" ry="3" style="stroke:#038048;stroke-width:1.0;"/><text fill="#000000" font-family="sans-serif" font-size="11" lengthAdjust="spacing" textLength="67" x="27" y="343.0957">open() : void</text><ellipse cx="18" cy="352.416" fill="#84BE84" rx="3" ry="3" style="stroke:#038048;stroke-width:1.0;"/><text fill="#000000" font-family="sans-serif" font-size="11" lengthAdjust="spacing" textLength="232" x="27" y="356.0508">registerCallback(callback: OSGeneric) : void</text><ellipse cx="18" cy="365.3711" fill="#84BE84" rx="3" ry="3" style="stroke:#038048;stroke-width:1.0;"/><text fill="#000000" font-family="sans-serif" font-size="11" lengthAdjust="spacing" textLength="77" x="27" y="369.0059">setBlur() : void</text><ellipse cx="18" cy="378.3262" fill="#84BE84" rx="3" ry="3" style="stroke:#038048;stroke-width:1.0;"/><text fill="#000000" font-family="sans-serif" font-size="11" lengthAdjust="spacing" textLength="88" x="27" y="381.9609">setFocus() : void</text><ellipse cx="18" cy="391.2813" fill="#84BE84" rx="3" ry="3" style="stroke:#038048;stroke-width:1.0;"/><text fill="#000000" font-family="sans-serif" font-size="11" lengthAdjust="spacing" textLength="106" x="27" y="394.916">setTabindex() : void</text><ellipse cx="18" cy="404.2363" fill="#84BE84" rx="3" ry="3" style="stroke:#038048;stroke-width:1.0;"/><text fill="#000000" font-family="sans-serif" font-size="11" lengthAdjust="spacing" textLength="120" x="27" y="407.8711">unsetTabindex() : void</text><!--MD5=[77bcc85a8972d579b80102ad151980e6]
class IMonthPicker--><rect codeLine="32" fill="#FFFFFF" filter="url(#f85l438kcsuc2)" height="242.3262" id="IMonthPicker" style="stroke:#272B30;stroke-width:1.5;" width="440" x="445.5" y="152.5"/><ellipse cx="624.75" cy="168.5" fill="#B4A7E5" rx="11" ry="11" style="stroke:#272B30;stroke-width:1.0;"/><path d="M621.1777,164.7651 L621.1777,162.6069 L628.5571,162.6069 L628.5571,164.7651 L626.0918,164.7651 L626.0918,172.8418 L628.5571,172.8418 L628.5571,175 L621.1777,175 L621.1777,172.8418 L623.6431,172.8418 L623.6431,164.7651 Z " fill="#000000"/><text fill="#000000" font-family="sans-serif" font-size="12" font-style="italic" lengthAdjust="spacing" textLength="73" x="645.25" y="173.0352">IMonthPicker</text><line style="stroke:#272B30;stroke-width:1.5;" x1="446.5" x2="884.5" y1="184.5" y2="184.5"/><ellipse cx="456.5" cy="195.5" rx="3" ry="3" style="stroke:#038048;stroke-width:1.0;fill:none;"/><text fill="#000000" font-family="sans-serif" font-size="11" lengthAdjust="spacing" textLength="84" x="465.5" y="199.1348">isBuilt : boolean</text><ellipse cx="456.5" cy="208.4551" rx="3" ry="3" style="stroke:#038048;stroke-width:1.0;fill:none;"/><text fill="#000000" font-family="sans-serif" font-size="11" lengthAdjust="spacing" textLength="142" x="465.5" y="212.0898">selfElement : HTMLElement</text><ellipse cx="456.5" cy="221.4102" rx="3" ry="3" style="stroke:#038048;stroke-width:1.0;fill:none;"/><text fill="#000000" font-family="sans-serif" font-size="11" lengthAdjust="spacing" textLength="88" x="465.5" y="225.0449">uniqueId : string</text><ellipse cx="456.5" cy="234.3652" rx="3" ry="3" style="stroke:#038048;stroke-width:1.0;fill:none;"/><text fill="#000000" font-family="sans-serif" font-size="11" lengthAdjust="spacing" textLength="86" x="465.5" y="238">widgetId : string</text><line style="stroke:#272B30;stroke-width:1.5;" x1="446.5" x2="884.5" y1="244.3203" y2="244.3203"/><ellipse cx="456.5" cy="255.3203" fill="#84BE84" rx="3" ry="3" style="stroke:#038048;stroke-width:1.0;"/><text fill="#000000" font-family="sans-serif" font-size="11" lengthAdjust="spacing" textLength="67" x="465.5" y="258.9551">build() : void</text><ellipse cx="456.5" cy="268.2754" fill="#84BE84" rx="3" ry="3" style="stroke:#038048;stroke-width:1.0;"/><text fill="#000000" font-family="sans-serif" font-size="11" lengthAdjust="spacing" textLength="377" x="465.5" y="271.9102">changeProperty(propertyName: string, propertyValue: unknown) : void</text><ellipse cx="456.5" cy="281.2305" fill="#84BE84" rx="3" ry="3" style="stroke:#038048;stroke-width:1.0;"/><text fill="#000000" font-family="sans-serif" font-size="11" lengthAdjust="spacing" textLength="66" x="465.5" y="284.8652">clear() : void</text><ellipse cx="456.5" cy="294.1855" fill="#84BE84" rx="3" ry="3" style="stroke:#038048;stroke-width:1.0;"/><text fill="#000000" font-family="sans-serif" font-size="11" lengthAdjust="spacing" textLength="68" x="465.5" y="297.8203">close() : void</text><ellipse cx="456.5" cy="307.1406" fill="#84BE84" rx="3" ry="3" style="stroke:#038048;stroke-width:1.0;"/><text fill="#000000" font-family="sans-serif" font-size="11" lengthAdjust="spacing" textLength="82" x="465.5" y="310.7754">dispose() : void</text><ellipse cx="456.5" cy="320.0957" fill="#84BE84" rx="3" ry="3" style="stroke:#038048;stroke-width:1.0;"/><text fill="#000000" font-family="sans-serif" font-size="11" lengthAdjust="spacing" textLength="168" x="465.5" y="323.7305">equalsToID(id: string) : boolean</text><ellipse cx="456.5" cy="333.0508" fill="#84BE84" rx="3" ry="3" style="stroke:#038048;stroke-width:1.0;"/><text fill="#000000" font-family="sans-serif" font-size="11" lengthAdjust="spacing" textLength="67" x="465.5" y="336.6855">open() : void</text><ellipse cx="456.5" cy="346.0059" fill="#84BE84" rx="3" ry="3" style="stroke:#038048;stroke-width:1.0;"/><text fill="#000000" font-family="sans-serif" font-size="11" lengthAdjust="spacing" textLength="174" x="465.5" y="349.6406">setLanguage(value: string) : void</text><ellipse cx="456.5" cy="358.9609" fill="#84BE84" rx="3" ry="3" style="stroke:#038048;stroke-width:1.0;"/><text fill="#000000" font-family="sans-serif" font-size="11" lengthAdjust="spacing" textLength="256" x="465.5" y="362.5957">setProviderConfigs(providerConfigs: any) : void</text><ellipse cx="456.5" cy="371.916" fill="#84BE84" rx="3" ry="3" style="stroke:#038048;stroke-width:1.0;"/><text fill="#000000" font-family="sans-serif" font-size="11" lengthAdjust="spacing" textLength="414" x="465.5" y="375.5508">setProviderEvent(eventName: string, callback: Generic, uniqueId: string) : void</text><ellipse cx="456.5" cy="384.8711" fill="#84BE84" rx="3" ry="3" style="stroke:#038048;stroke-width:1.0;"/><text fill="#000000" font-family="sans-serif" font-size="11" lengthAdjust="spacing" textLength="221" x="465.5" y="388.5059">unsetProviderEvent(eventId: string) : void</text><!--MD5=[269732d4b4d4bad0949a96b3ba380c4a]
class ISidebar--><rect codeLine="50" fill="#FFFFFF" filter="url(#f85l438kcsuc2)" height="203.4609" id="ISidebar" style="stroke:#272B30;stroke-width:1.5;" width="403" x="921" y="172"/><ellipse cx="1094.75" cy="188" fill="#B4A7E5" rx="11" ry="11" style="stroke:#272B30;stroke-width:1.0;"/><path d="M1091.1777,184.2651 L1091.1777,182.1069 L1098.5571,182.1069 L1098.5571,184.2651 L1096.0918,184.2651 L1096.0918,192.3418 L1098.5571,192.3418 L1098.5571,194.5 L1091.1777,194.5 L1091.1777,192.3418 L1093.6431,192.3418 L1093.6431,184.2651 Z " fill="#000000"/><text fill="#000000" font-family="sans-serif" font-size="12" font-style="italic" lengthAdjust="spacing" textLength="47" x="1115.25" y="192.5352">ISidebar</text><line style="stroke:#272B30;stroke-width:1.5;" x1="922" x2="1323" y1="204" y2="204"/><ellipse cx="932" cy="215" rx="3" ry="3" style="stroke:#038048;stroke-width:1.0;fill:none;"/><text fill="#000000" font-family="sans-serif" font-size="11" lengthAdjust="spacing" textLength="84" x="941" y="218.6348">isBuilt : boolean</text><ellipse cx="932" cy="227.9551" rx="3" ry="3" style="stroke:#038048;stroke-width:1.0;fill:none;"/><text fill="#000000" font-family="sans-serif" font-size="11" lengthAdjust="spacing" textLength="142" x="941" y="231.5898">selfElement : HTMLElement</text><ellipse cx="932" cy="240.9102" rx="3" ry="3" style="stroke:#038048;stroke-width:1.0;fill:none;"/><text fill="#000000" font-family="sans-serif" font-size="11" lengthAdjust="spacing" textLength="88" x="941" y="244.5449">uniqueId : string</text><ellipse cx="932" cy="253.8652" rx="3" ry="3" style="stroke:#038048;stroke-width:1.0;fill:none;"/><text fill="#000000" font-family="sans-serif" font-size="11" lengthAdjust="spacing" textLength="86" x="941" y="257.5">widgetId : string</text><line style="stroke:#272B30;stroke-width:1.5;" x1="922" x2="1323" y1="263.8203" y2="263.8203"/><ellipse cx="932" cy="274.8203" fill="#84BE84" rx="3" ry="3" style="stroke:#038048;stroke-width:1.0;"/><text fill="#000000" font-family="sans-serif" font-size="11" lengthAdjust="spacing" textLength="67" x="941" y="278.4551">build() : void</text><ellipse cx="932" cy="287.7754" fill="#84BE84" rx="3" ry="3" style="stroke:#038048;stroke-width:1.0;"/><text fill="#000000" font-family="sans-serif" font-size="11" lengthAdjust="spacing" textLength="377" x="941" y="291.4102">changeProperty(propertyName: string, propertyValue: unknown) : void</text><ellipse cx="932" cy="300.7305" fill="#84BE84" rx="3" ry="3" style="stroke:#038048;stroke-width:1.0;"/><text fill="#000000" font-family="sans-serif" font-size="11" lengthAdjust="spacing" textLength="68" x="941" y="304.3652">close() : void</text><ellipse cx="932" cy="313.6855" fill="#84BE84" rx="3" ry="3" style="stroke:#038048;stroke-width:1.0;"/><text fill="#000000" font-family="sans-serif" font-size="11" lengthAdjust="spacing" textLength="82" x="941" y="317.3203">dispose() : void</text><ellipse cx="932" cy="326.6406" fill="#84BE84" rx="3" ry="3" style="stroke:#038048;stroke-width:1.0;"/><text fill="#000000" font-family="sans-serif" font-size="11" lengthAdjust="spacing" textLength="168" x="941" y="330.2754">equalsToID(id: string) : boolean</text><ellipse cx="932" cy="339.5957" fill="#84BE84" rx="3" ry="3" style="stroke:#038048;stroke-width:1.0;"/><text fill="#000000" font-family="sans-serif" font-size="11" lengthAdjust="spacing" textLength="67" x="941" y="343.2305">open() : void</text><ellipse cx="932" cy="352.5508" fill="#84BE84" rx="3" ry="3" style="stroke:#038048;stroke-width:1.0;"/><text fill="#000000" font-family="sans-serif" font-size="11" lengthAdjust="spacing" textLength="232" x="941" y="356.1855">registerCallback(callback: OSGeneric) : void</text><ellipse cx="932" cy="365.5059" fill="#84BE84" rx="3" ry="3" style="stroke:#038048;stroke-width:1.0;"/><text fill="#000000" font-family="sans-serif" font-size="11" lengthAdjust="spacing" textLength="236" x="941" y="369.1406">toggleGestures(enableSwipe: boolean) : void</text><!--MD5=[a7e8a8d2f0c5e8f7151c6d58329f21e4]
class ISubmenu--><rect codeLine="65" fill="#FFFFFF" filter="url(#f85l438kcsuc2)" height="190.5059" id="ISubmenu" style="stroke:#272B30;stroke-width:1.5;" width="403" x="1359" y="178"/><ellipse cx="1528.25" cy="194" fill="#B4A7E5" rx="11" ry="11" style="stroke:#272B30;stroke-width:1.0;"/><path d="M1524.6777,190.2651 L1524.6777,188.1069 L1532.0571,188.1069 L1532.0571,190.2651 L1529.5918,190.2651 L1529.5918,198.3418 L1532.0571,198.3418 L1532.0571,200.5 L1524.6777,200.5 L1524.6777,198.3418 L1527.1431,198.3418 L1527.1431,190.2651 Z " fill="#000000"/><text fill="#000000" font-family="sans-serif" font-size="12" font-style="italic" lengthAdjust="spacing" textLength="56" x="1548.75" y="198.5352">ISubmenu</text><line style="stroke:#272B30;stroke-width:1.5;" x1="1360" x2="1761" y1="210" y2="210"/><ellipse cx="1370" cy="221" rx="3" ry="3" style="stroke:#038048;stroke-width:1.0;fill:none;"/><text fill="#000000" font-family="sans-serif" font-size="11" lengthAdjust="spacing" textLength="84" x="1379" y="224.6348">isBuilt : boolean</text><ellipse cx="1370" cy="233.9551" rx="3" ry="3" style="stroke:#038048;stroke-width:1.0;fill:none;"/><text fill="#000000" font-family="sans-serif" font-size="11" lengthAdjust="spacing" textLength="142" x="1379" y="237.5898">selfElement : HTMLElement</text><ellipse cx="1370" cy="246.9102" rx="3" ry="3" style="stroke:#038048;stroke-width:1.0;fill:none;"/><text fill="#000000" font-family="sans-serif" font-size="11" lengthAdjust="spacing" textLength="88" x="1379" y="250.5449">uniqueId : string</text><ellipse cx="1370" cy="259.8652" rx="3" ry="3" style="stroke:#038048;stroke-width:1.0;fill:none;"/><text fill="#000000" font-family="sans-serif" font-size="11" lengthAdjust="spacing" textLength="86" x="1379" y="263.5">widgetId : string</text><line style="stroke:#272B30;stroke-width:1.5;" x1="1360" x2="1761" y1="269.8203" y2="269.8203"/><ellipse cx="1370" cy="280.8203" fill="#84BE84" rx="3" ry="3" style="stroke:#038048;stroke-width:1.0;"/><text fill="#000000" font-family="sans-serif" font-size="11" lengthAdjust="spacing" textLength="67" x="1379" y="284.4551">build() : void</text><ellipse cx="1370" cy="293.7754" fill="#84BE84" rx="3" ry="3" style="stroke:#038048;stroke-width:1.0;"/><text fill="#000000" font-family="sans-serif" font-size="11" lengthAdjust="spacing" textLength="377" x="1379" y="297.4102">changeProperty(propertyName: string, propertyValue: unknown) : void</text><ellipse cx="1370" cy="306.7305" fill="#84BE84" rx="3" ry="3" style="stroke:#038048;stroke-width:1.0;"/><text fill="#000000" font-family="sans-serif" font-size="11" lengthAdjust="spacing" textLength="68" x="1379" y="310.3652">close() : void</text><ellipse cx="1370" cy="319.6855" fill="#84BE84" rx="3" ry="3" style="stroke:#038048;stroke-width:1.0;"/><text fill="#000000" font-family="sans-serif" font-size="11" lengthAdjust="spacing" textLength="82" x="1379" y="323.3203">dispose() : void</text><ellipse cx="1370" cy="332.6406" fill="#84BE84" rx="3" ry="3" style="stroke:#038048;stroke-width:1.0;"/><text fill="#000000" font-family="sans-serif" font-size="11" lengthAdjust="spacing" textLength="168" x="1379" y="336.2754">equalsToID(id: string) : boolean</text><ellipse cx="1370" cy="345.5957" fill="#84BE84" rx="3" ry="3" style="stroke:#038048;stroke-width:1.0;"/><text fill="#000000" font-family="sans-serif" font-size="11" lengthAdjust="spacing" textLength="67" x="1379" y="349.2305">open() : void</text><ellipse cx="1370" cy="358.5508" fill="#84BE84" rx="3" ry="3" style="stroke:#038048;stroke-width:1.0;"/><text fill="#000000" font-family="sans-serif" font-size="11" lengthAdjust="spacing" textLength="131" x="1379" y="362.1855">updateOnRender() : void</text><!--MD5=[b9410e342671877b55711b5932e65ff0]
class ITimePicker--><rect codeLine="79" fill="#FFFFFF" filter="url(#f85l438kcsuc2)" height="255.2813" id="ITimePicker" style="stroke:#272B30;stroke-width:1.5;" width="440" x="1797.5" y="146"/><ellipse cx="1979.75" cy="162" fill="#B4A7E5" rx="11" ry="11" style="stroke:#272B30;stroke-width:1.0;"/><path d="M1976.1777,158.2651 L1976.1777,156.1069 L1983.5571,156.1069 L1983.5571,158.2651 L1981.0918,158.2651 L1981.0918,166.3418 L1983.5571,166.3418 L1983.5571,168.5 L1976.1777,168.5 L1976.1777,166.3418 L1978.6431,166.3418 L1978.6431,158.2651 Z " fill="#000000"/><text fill="#000000" font-family="sans-serif" font-size="12" font-style="italic" lengthAdjust="spacing" textLength="67" x="2000.25" y="166.5352">ITimePicker</text><line style="stroke:#272B30;stroke-width:1.5;" x1="1798.5" x2="2236.5" y1="178" y2="178"/><ellipse cx="1808.5" cy="189" rx="3" ry="3" style="stroke:#038048;stroke-width:1.0;fill:none;"/><text fill="#000000" font-family="sans-serif" font-size="11" lengthAdjust="spacing" textLength="84" x="1817.5" y="192.6348">isBuilt : boolean</text><ellipse cx="1808.5" cy="201.9551" rx="3" ry="3" style="stroke:#038048;stroke-width:1.0;fill:none;"/><text fill="#000000" font-family="sans-serif" font-size="11" lengthAdjust="spacing" textLength="142" x="1817.5" y="205.5898">selfElement : HTMLElement</text><ellipse cx="1808.5" cy="214.9102" rx="3" ry="3" style="stroke:#038048;stroke-width:1.0;fill:none;"/><text fill="#000000" font-family="sans-serif" font-size="11" lengthAdjust="spacing" textLength="88" x="1817.5" y="218.5449">uniqueId : string</text><ellipse cx="1808.5" cy="227.8652" rx="3" ry="3" style="stroke:#038048;stroke-width:1.0;fill:none;"/><text fill="#000000" font-family="sans-serif" font-size="11" lengthAdjust="spacing" textLength="86" x="1817.5" y="231.5">widgetId : string</text><line style="stroke:#272B30;stroke-width:1.5;" x1="1798.5" x2="2236.5" y1="237.8203" y2="237.8203"/><ellipse cx="1808.5" cy="248.8203" fill="#84BE84" rx="3" ry="3" style="stroke:#038048;stroke-width:1.0;"/><text fill="#000000" font-family="sans-serif" font-size="11" lengthAdjust="spacing" textLength="67" x="1817.5" y="252.4551">build() : void</text><ellipse cx="1808.5" cy="261.7754" fill="#84BE84" rx="3" ry="3" style="stroke:#038048;stroke-width:1.0;"/><text fill="#000000" font-family="sans-serif" font-size="11" lengthAdjust="spacing" textLength="377" x="1817.5" y="265.4102">changeProperty(propertyName: string, propertyValue: unknown) : void</text><ellipse cx="1808.5" cy="274.7305" fill="#84BE84" rx="3" ry="3" style="stroke:#038048;stroke-width:1.0;"/><text fill="#000000" font-family="sans-serif" font-size="11" lengthAdjust="spacing" textLength="66" x="1817.5" y="278.3652">clear() : void</text><ellipse cx="1808.5" cy="287.6855" fill="#84BE84" rx="3" ry="3" style="stroke:#038048;stroke-width:1.0;"/><text fill="#000000" font-family="sans-serif" font-size="11" lengthAdjust="spacing" textLength="68" x="1817.5" y="291.3203">close() : void</text><ellipse cx="1808.5" cy="300.6406" fill="#84BE84" rx="3" ry="3" style="stroke:#038048;stroke-width:1.0;"/><text fill="#000000" font-family="sans-serif" font-size="11" lengthAdjust="spacing" textLength="82" x="1817.5" y="304.2754">dispose() : void</text><ellipse cx="1808.5" cy="313.5957" fill="#84BE84" rx="3" ry="3" style="stroke:#038048;stroke-width:1.0;"/><text fill="#000000" font-family="sans-serif" font-size="11" lengthAdjust="spacing" textLength="168" x="1817.5" y="317.2305">equalsToID(id: string) : boolean</text><ellipse cx="1808.5" cy="326.5508" fill="#84BE84" rx="3" ry="3" style="stroke:#038048;stroke-width:1.0;"/><text fill="#000000" font-family="sans-serif" font-size="11" lengthAdjust="spacing" textLength="67" x="1817.5" y="330.1855">open() : void</text><ellipse cx="1808.5" cy="339.5059" fill="#84BE84" rx="3" ry="3" style="stroke:#038048;stroke-width:1.0;"/><text fill="#000000" font-family="sans-serif" font-size="11" lengthAdjust="spacing" textLength="174" x="1817.5" y="343.1406">setLanguage(value: string) : void</text><ellipse cx="1808.5" cy="352.4609" fill="#84BE84" rx="3" ry="3" style="stroke:#038048;stroke-width:1.0;"/><text fill="#000000" font-family="sans-serif" font-size="11" lengthAdjust="spacing" textLength="256" x="1817.5" y="356.0957">setProviderConfigs(providerConfigs: any) : void</text><ellipse cx="1808.5" cy="365.416" fill="#84BE84" rx="3" ry="3" style="stroke:#038048;stroke-width:1.0;"/><text fill="#000000" font-family="sans-serif" font-size="11" lengthAdjust="spacing" textLength="414" x="1817.5" y="369.0508">setProviderEvent(eventName: string, callback: Generic, uniqueId: string) : void</text><ellipse cx="1808.5" cy="378.3711" fill="#84BE84" rx="3" ry="3" style="stroke:#038048;stroke-width:1.0;"/><text fill="#000000" font-family="sans-serif" font-size="11" lengthAdjust="spacing" textLength="221" x="1817.5" y="382.0059">unsetProviderEvent(eventId: string) : void</text><ellipse cx="1808.5" cy="391.3262" fill="#84BE84" rx="3" ry="3" style="stroke:#038048;stroke-width:1.0;"/><text fill="#000000" font-family="sans-serif" font-size="11" lengthAdjust="spacing" textLength="193" x="1817.5" y="394.9609">updateInitialTime(time: string) : void</text><!--MD5=[24c11dadffea028fa58a09a99a31b362]
class ITooltip--><rect codeLine="98" fill="#FFFFFF" filter="url(#f85l438kcsuc2)" height="177.5508" id="ITooltip" style="stroke:#272B30;stroke-width:1.5;" width="403" x="2273" y="184.5"/><ellipse cx="2448.75" cy="200.5" fill="#B4A7E5" rx="11" ry="11" style="stroke:#272B30;stroke-width:1.0;"/><path d="M2445.1777,196.7651 L2445.1777,194.6069 L2452.5571,194.6069 L2452.5571,196.7651 L2450.0918,196.7651 L2450.0918,204.8418 L2452.5571,204.8418 L2452.5571,207 L2445.1777,207 L2445.1777,204.8418 L2447.6431,204.8418 L2447.6431,196.7651 Z " fill="#000000"/><text fill="#000000" font-family="sans-serif" font-size="12" font-style="italic" lengthAdjust="spacing" textLength="43" x="2469.25" y="205.0352">ITooltip</text><line style="stroke:#272B30;stroke-width:1.5;" x1="2274" x2="2675" y1="216.5" y2="216.5"/><ellipse cx="2284" cy="227.5" rx="3" ry="3" style="stroke:#038048;stroke-width:1.0;fill:none;"/><text fill="#000000" font-family="sans-serif" font-size="11" lengthAdjust="spacing" textLength="84" x="2293" y="231.1348">isBuilt : boolean</text><ellipse cx="2284" cy="240.4551" rx="3" ry="3" style="stroke:#038048;stroke-width:1.0;fill:none;"/><text fill="#000000" font-family="sans-serif" font-size="11" lengthAdjust="spacing" textLength="142" x="2293" y="244.0898">selfElement : HTMLElement</text><ellipse cx="2284" cy="253.4102" rx="3" ry="3" style="stroke:#038048;stroke-width:1.0;fill:none;"/><text fill="#000000" font-family="sans-serif" font-size="11" lengthAdjust="spacing" textLength="88" x="2293" y="257.0449">uniqueId : string</text><ellipse cx="2284" cy="266.3652" rx="3" ry="3" style="stroke:#038048;stroke-width:1.0;fill:none;"/><text fill="#000000" font-family="sans-serif" font-size="11" lengthAdjust="spacing" textLength="86" x="2293" y="270">widgetId : string</text><line style="stroke:#272B30;stroke-width:1.5;" x1="2274" x2="2675" y1="276.3203" y2="276.3203"/><ellipse cx="2284" cy="287.3203" fill="#84BE84" rx="3" ry="3" style="stroke:#038048;stroke-width:1.0;"/><text fill="#000000" font-family="sans-serif" font-size="11" lengthAdjust="spacing" textLength="67" x="2293" y="290.9551">build() : void</text><ellipse cx="2284" cy="300.2754" fill="#84BE84" rx="3" ry="3" style="stroke:#038048;stroke-width:1.0;"/><text fill="#000000" font-family="sans-serif" font-size="11" lengthAdjust="spacing" textLength="377" x="2293" y="303.9102">changeProperty(propertyName: string, propertyValue: unknown) : void</text><ellipse cx="2284" cy="313.2305" fill="#84BE84" rx="3" ry="3" style="stroke:#038048;stroke-width:1.0;"/><text fill="#000000" font-family="sans-serif" font-size="11" lengthAdjust="spacing" textLength="68" x="2293" y="316.8652">close() : void</text><ellipse cx="2284" cy="326.1855" fill="#84BE84" rx="3" ry="3" style="stroke:#038048;stroke-width:1.0;"/><text fill="#000000" font-family="sans-serif" font-size="11" lengthAdjust="spacing" textLength="82" x="2293" y="329.8203">dispose() : void</text><ellipse cx="2284" cy="339.1406" fill="#84BE84" rx="3" ry="3" style="stroke:#038048;stroke-width:1.0;"/><text fill="#000000" font-family="sans-serif" font-size="11" lengthAdjust="spacing" textLength="168" x="2293" y="342.7754">equalsToID(id: string) : boolean</text><ellipse cx="2284" cy="352.0957" fill="#84BE84" rx="3" ry="3" style="stroke:#038048;stroke-width:1.0;"/><text fill="#000000" font-family="sans-serif" font-size="11" lengthAdjust="spacing" textLength="67" x="2293" y="355.7305">open() : void</text><!--MD5=[89c640633a199b6642e7680e1c32a59f]
reverse link IOpenable to IAccordionItem--><path codeLine="31" d="M1274.31,43.73 C1090.81,51.83 584.39,78.6 427.5,133 C421.75,134.99 416,137.16 410.26,139.49 " fill="none" id="IOpenable-backto-IAccordionItem" style="stroke:#272B30;stroke-width:1.0;"/><polygon fill="none" points="1274.02,36.74,1294.3,42.87,1274.62,50.72,1274.02,36.74" style="stroke:#272B30;stroke-width:1.0;"/><!--MD5=[ab3c2e66a9ba6c78f319daad2b70de79]
reverse link IOpenable to IMonthPicker--><path codeLine="49" d="M1274.43,48.26 C1186.81,59.26 1029.69,84.26 903.5,133 C888.64,138.74 873.63,145.34 858.76,152.48 " fill="none" id="IOpenable-backto-IMonthPicker" style="stroke:#272B30;stroke-width:1.0;"/><polygon fill="none" points="1273.68,41.3,1294.38,45.85,1275.36,55.2,1273.68,41.3" style="stroke:#272B30;stroke-width:1.0;"/><!--MD5=[40652e3b26e45d4b461ee3ae91a638e5]
reverse link IOpenable to ISidebar--><path codeLine="64" d="M1297.26,87.77 C1274.31,112.03 1245.33,142.66 1217.61,171.96 " fill="none" id="IOpenable-backto-ISidebar" style="stroke:#272B30;stroke-width:1.0;"/><polygon fill="none" points="1292.22,82.91,1311.05,73.19,1302.39,92.53,1292.22,82.91" style="stroke:#272B30;stroke-width:1.0;"/><!--MD5=[f7ffe194f737e432b7f44ab3d9977473]
reverse link IOpenable to ISubmenu--><path codeLine="78" d="M1385.87,87.9 C1410.35,113.78 1441.65,146.87 1470.98,177.87 " fill="none" id="IOpenable-backto-ISubmenu" style="stroke:#272B30;stroke-width:1.0;"/><polygon fill="none" points="1380.61,92.53,1371.95,73.19,1390.78,82.91,1380.61,92.53" style="stroke:#272B30;stroke-width:1.0;"/><!--MD5=[87464f6d212e40157b64be287ad313e0]
reverse link IOpenable to ITimePicker--><path codeLine="97" d="M1408.57,48.26 C1496.19,59.26 1653.31,84.26 1779.5,133 C1789.66,136.93 1799.9,141.26 1810.12,145.89 " fill="none" id="IOpenable-backto-ITimePicker" style="stroke:#272B30;stroke-width:1.0;"/><polygon fill="none" points="1407.64,55.2,1388.62,45.85,1409.32,41.3,1407.64,55.2" style="stroke:#272B30;stroke-width:1.0;"/><!--MD5=[c5babbf2c66b52d6968cfdf43d0ede46]
reverse link IOpenable to ITooltip--><path codeLine="110" d="M1408.69,43.73 C1592.19,51.83 2098.61,78.6 2255.5,133 C2290.96,145.29 2326.51,164.34 2358.35,184.46 " fill="none" id="IOpenable-backto-ITooltip" style="stroke:#272B30;stroke-width:1.0;"/><polygon fill="none" points="1408.38,50.72,1388.7,42.87,1408.98,36.74,1408.38,50.72" style="stroke:#272B30;stroke-width:1.0;"/><!--MD5=[5e6de937aa86dc814a433d7feea7ae67]
@startuml
skinparam ClassArrowColor #272b30
skinparam ClassBorderColor #272b30
skinparam ClassBackgroundColor #fff
skinparam BackgroundColor #ced4da
hide empty methods
hide empty fields
interface "IOpenable" {
    +close() : void
    +open() : void
}
interface "IAccordionItem" {
    +isBuilt : boolean
    +isDisabled : boolean
    +isOpen : boolean
    +selfElement : HTMLElement
    +uniqueId : string
    +widgetId : string
    +allowTitleEvents() : any
    +build() : void
    +changeProperty(propertyName: string, propertyValue: unknown) : void
    +close() : void
    +dispose() : void
    +equalsToID(id: string) : boolean
    +open() : void
    +registerCallback(callback: OSGeneric) : void
    +setBlur() : void
    +setFocus() : void
    +setTabindex() : void
    +unsetTabindex() : void
}
"IOpenable" <|- - "IAccordionItem"
interface "IMonthPicker" {
    +isBuilt : boolean
    +selfElement : HTMLElement
    +uniqueId : string
    +widgetId : string
    +build() : void
    +changeProperty(propertyName: string, propertyValue: unknown) : void
    +clear() : void
    +close() : void
    +dispose() : void
    +equalsToID(id: string) : boolean
    +open() : void
    +setLanguage(value: string) : void
    +setProviderConfigs(providerConfigs: any) : void
    +setProviderEvent(eventName: string, callback: Generic, uniqueId: string) : void
    +unsetProviderEvent(eventId: string) : void
}
"IOpenable" <|- - "IMonthPicker"
interface "ISidebar" {
    +isBuilt : boolean
    +selfElement : HTMLElement
    +uniqueId : string
    +widgetId : string
    +build() : void
    +changeProperty(propertyName: string, propertyValue: unknown) : void
    +close() : void
    +dispose() : void
    +equalsToID(id: string) : boolean
    +open() : void
    +registerCallback(callback: OSGeneric) : void
    +toggleGestures(enableSwipe: boolean) : void
}
"IOpenable" <|- - "ISidebar"
interface "ISubmenu" {
    +isBuilt : boolean
    +selfElement : HTMLElement
    +uniqueId : string
    +widgetId : string
    +build() : void
    +changeProperty(propertyName: string, propertyValue: unknown) : void
    +close() : void
    +dispose() : void
    +equalsToID(id: string) : boolean
    +open() : void
    +updateOnRender() : void
}
"IOpenable" <|- - "ISubmenu"
interface "ITimePicker" {
    +isBuilt : boolean
    +selfElement : HTMLElement
    +uniqueId : string
    +widgetId : string
    +build() : void
    +changeProperty(propertyName: string, propertyValue: unknown) : void
    +clear() : void
    +close() : void
    +dispose() : void
    +equalsToID(id: string) : boolean
    +open() : void
    +setLanguage(value: string) : void
    +setProviderConfigs(providerConfigs: any) : void
    +setProviderEvent(eventName: string, callback: Generic, uniqueId: string) : void
    +unsetProviderEvent(eventId: string) : void
    +updateInitialTime(time: string) : void
}
"IOpenable" <|- - "ITimePicker"
interface "ITooltip" {
    +isBuilt : boolean
    +selfElement : HTMLElement
    +uniqueId : string
    +widgetId : string
    +build() : void
    +changeProperty(propertyName: string, propertyValue: unknown) : void
    +close() : void
    +dispose() : void
    +equalsToID(id: string) : boolean
    +open() : void
}
"IOpenable" <|- - "ITooltip"
@enduml

PlantUML version 1.2021.14(Fri Nov 12 16:46:50 WET 2021)
(GPL source distribution)
Java Runtime: Java(TM) SE Runtime Environment
JVM: Java HotSpot(TM) 64-Bit Server VM
Default Encoding: UTF-8
Language: en
Country: PT
--></g></svg>