<?xml version="1.0" encoding="us-ascii" standalone="no"?><svg xmlns="http://www.w3.org/2000/svg" xmlns:xlink="http://www.w3.org/1999/xlink" contentStyleType="text/css" height="1337px" preserveAspectRatio="none" style="width:842px;height:1337px;background:#CED4DA;" version="1.1" viewBox="0 0 842 1337" width="842px" zoomAndPan="magnify"><defs/><g><rect fill="#CED4DA" height="1337" style="stroke:none;stroke-width:1.0;" width="842" x="0" y="0"/><!--class IOverflowMenu--><g id="elem_IOverflowMenu"><rect codeLine="7" fill="#FFFFFF" height="276.1563" id="IOverflowMenu" rx="2.5" ry="2.5" style="stroke:#272B30;stroke-width:0.5;" width="570" x="193" y="262"/><ellipse cx="422.25" cy="278" fill="#B4A7E5" rx="11" ry="11" style="stroke:#181818;stroke-width:1.0;"/><path d="M418.1719,273.7656 L418.1719,271.6094 L425.5625,271.6094 L425.5625,273.7656 L423.0938,273.7656 L423.0938,281.8438 L425.5625,281.8438 L425.5625,284 L418.1719,284 L418.1719,281.8438 L420.6406,281.8438 L420.6406,273.7656 L418.1719,273.7656 Z " fill="#000000"/><text fill="#000000" font-family="sans-serif" font-size="14" font-style="italic" lengthAdjust="spacing" textLength="103" x="442.75" y="282.8467">IOverflowMenu</text><line style="stroke:#272B30;stroke-width:0.5;" x1="194" x2="762" y1="294" y2="294"/><ellipse cx="204" cy="307.6484" fill="none" rx="3" ry="3" style="stroke:#038048;stroke-width:1.0;"/><text fill="#000000" font-family="sans-serif" font-size="14" lengthAdjust="spacing" textLength="110" x="213" y="310.9951">isBuilt : boolean</text><ellipse cx="204" cy="323.9453" fill="none" rx="3" ry="3" style="stroke:#038048;stroke-width:1.0;"/><text fill="#000000" font-family="sans-serif" font-size="14" lengthAdjust="spacing" textLength="118" x="213" y="327.292">isOpen : boolean</text><ellipse cx="204" cy="340.2422" fill="none" rx="3" ry="3" style="stroke:#038048;stroke-width:1.0;"/><text fill="#000000" font-family="sans-serif" font-size="14" lengthAdjust="spacing" textLength="189" x="213" y="343.5889">selfElement : HTMLElement</text><ellipse cx="204" cy="356.5391" fill="none" rx="3" ry="3" style="stroke:#038048;stroke-width:1.0;"/><text fill="#000000" font-family="sans-serif" font-size="14" lengthAdjust="spacing" textLength="112" x="213" y="359.8857">uniqueId : string</text><ellipse cx="204" cy="372.8359" fill="none" rx="3" ry="3" style="stroke:#038048;stroke-width:1.0;"/><text fill="#000000" font-family="sans-serif" font-size="14" lengthAdjust="spacing" textLength="110" x="213" y="376.1826">widgetId : string</text><line style="stroke:#272B30;stroke-width:0.5;" x1="194" x2="762" y1="383.4844" y2="383.4844"/><ellipse cx="204" cy="397.1328" fill="#84BE84" rx="3" ry="3" style="stroke:#038048;stroke-width:1.0;"/><text fill="#000000" font-family="sans-serif" font-size="14" lengthAdjust="spacing" textLength="84" x="213" y="400.4795">build() : void</text><ellipse cx="204" cy="413.4297" fill="#84BE84" rx="3" ry="3" style="stroke:#038048;stroke-width:1.0;"/><text fill="#000000" font-family="sans-serif" font-size="14" lengthAdjust="spacing" textLength="484" x="213" y="416.7764">changeProperty(propertyName: string, propertyValue: unknown) : void</text><ellipse cx="204" cy="429.7266" fill="#84BE84" rx="3" ry="3" style="stroke:#038048;stroke-width:1.0;"/><text fill="#000000" font-family="sans-serif" font-size="14" lengthAdjust="spacing" textLength="88" x="213" y="433.0732">close() : void</text><ellipse cx="204" cy="446.0234" fill="#84BE84" rx="3" ry="3" style="stroke:#038048;stroke-width:1.0;"/><text fill="#000000" font-family="sans-serif" font-size="14" lengthAdjust="spacing" textLength="100" x="213" y="449.3701">disable() : void</text><ellipse cx="204" cy="462.3203" fill="#84BE84" rx="3" ry="3" style="stroke:#038048;stroke-width:1.0;"/><text fill="#000000" font-family="sans-serif" font-size="14" lengthAdjust="spacing" textLength="106" x="213" y="465.667">dispose() : void</text><ellipse cx="204" cy="478.6172" fill="#84BE84" rx="3" ry="3" style="stroke:#038048;stroke-width:1.0;"/><text fill="#000000" font-family="sans-serif" font-size="14" lengthAdjust="spacing" textLength="98" x="213" y="481.9639">enable() : void</text><ellipse cx="204" cy="494.9141" fill="#84BE84" rx="3" ry="3" style="stroke:#038048;stroke-width:1.0;"/><text fill="#000000" font-family="sans-serif" font-size="14" lengthAdjust="spacing" textLength="217" x="213" y="498.2607">equalsToID(id: string) : boolean</text><ellipse cx="204" cy="511.2109" fill="#84BE84" rx="3" ry="3" style="stroke:#038048;stroke-width:1.0;"/><text fill="#000000" font-family="sans-serif" font-size="14" lengthAdjust="spacing" textLength="544" x="213" y="514.5576">open(isOpenedByApi: boolean, arrowKeyPressed: ArrowDown | ArrowUp) : void</text><ellipse cx="204" cy="527.5078" fill="#84BE84" rx="3" ry="3" style="stroke:#038048;stroke-width:1.0;"/><text fill="#000000" font-family="sans-serif" font-size="14" lengthAdjust="spacing" textLength="434" x="213" y="530.8545">registerCallback(eventName: string, callback: OSGeneric) : void</text></g><!--class IPattern--><g id="elem_IPattern"><rect codeLine="23" fill="#FFFFFF" height="194.6719" id="IPattern" rx="2.5" ry="2.5" style="stroke:#272B30;stroke-width:0.5;" width="510" x="7" y="7"/><ellipse cx="231.25" cy="23" fill="#B4A7E5" rx="11" ry="11" style="stroke:#181818;stroke-width:1.0;"/><path d="M227.1719,18.7656 L227.1719,16.6094 L234.5625,16.6094 L234.5625,18.7656 L232.0938,18.7656 L232.0938,26.8438 L234.5625,26.8438 L234.5625,29 L227.1719,29 L227.1719,26.8438 L229.6406,26.8438 L229.6406,18.7656 L227.1719,18.7656 Z " fill="#000000"/><text fill="#000000" font-family="sans-serif" font-size="14" font-style="italic" lengthAdjust="spacing" textLength="53" x="251.75" y="27.8467">IPattern</text><line style="stroke:#272B30;stroke-width:0.5;" x1="8" x2="516" y1="39" y2="39"/><ellipse cx="18" cy="52.6484" fill="none" rx="3" ry="3" style="stroke:#038048;stroke-width:1.0;"/><text fill="#000000" font-family="sans-serif" font-size="14" lengthAdjust="spacing" textLength="110" x="27" y="55.9951">isBuilt : boolean</text><ellipse cx="18" cy="68.9453" fill="none" rx="3" ry="3" style="stroke:#038048;stroke-width:1.0;"/><text fill="#000000" font-family="sans-serif" font-size="14" lengthAdjust="spacing" textLength="189" x="27" y="72.292">selfElement : HTMLElement</text><ellipse cx="18" cy="85.2422" fill="none" rx="3" ry="3" style="stroke:#038048;stroke-width:1.0;"/><text fill="#000000" font-family="sans-serif" font-size="14" lengthAdjust="spacing" textLength="112" x="27" y="88.5889">uniqueId : string</text><ellipse cx="18" cy="101.5391" fill="none" rx="3" ry="3" style="stroke:#038048;stroke-width:1.0;"/><text fill="#000000" font-family="sans-serif" font-size="14" lengthAdjust="spacing" textLength="110" x="27" y="104.8857">widgetId : string</text><line style="stroke:#272B30;stroke-width:0.5;" x1="8" x2="516" y1="112.1875" y2="112.1875"/><ellipse cx="18" cy="125.8359" fill="#84BE84" rx="3" ry="3" style="stroke:#038048;stroke-width:1.0;"/><text fill="#000000" font-family="sans-serif" font-size="14" lengthAdjust="spacing" textLength="84" x="27" y="129.1826">build() : void</text><ellipse cx="18" cy="142.1328" fill="#84BE84" rx="3" ry="3" style="stroke:#038048;stroke-width:1.0;"/><text fill="#000000" font-family="sans-serif" font-size="14" lengthAdjust="spacing" textLength="484" x="27" y="145.4795">changeProperty(propertyName: string, propertyValue: unknown) : void</text><ellipse cx="18" cy="158.4297" fill="#84BE84" rx="3" ry="3" style="stroke:#038048;stroke-width:1.0;"/><text fill="#000000" font-family="sans-serif" font-size="14" lengthAdjust="spacing" textLength="106" x="27" y="161.7764">dispose() : void</text><ellipse cx="18" cy="174.7266" fill="#84BE84" rx="3" ry="3" style="stroke:#038048;stroke-width:1.0;"/><text fill="#000000" font-family="sans-serif" font-size="14" lengthAdjust="spacing" textLength="217" x="27" y="178.0732">equalsToID(id: string) : boolean</text><ellipse cx="18" cy="191.0234" fill="#84BE84" rx="3" ry="3" style="stroke:#038048;stroke-width:1.0;"/><text fill="#000000" font-family="sans-serif" font-size="14" lengthAdjust="spacing" textLength="434" x="27" y="194.3701">registerCallback(eventName: string, callback: OSGeneric) : void</text></g><!--class IOpenable--><g id="elem_IOpenable"><rect codeLine="35" fill="#FFFFFF" height="96.8906" id="IOpenable" rx="2.5" ry="2.5" style="stroke:#272B30;stroke-width:0.5;" width="283" x="552.5" y="56"/><ellipse cx="654.25" cy="72" fill="#B4A7E5" rx="11" ry="11" style="stroke:#181818;stroke-width:1.0;"/><path d="M650.1719,67.7656 L650.1719,65.6094 L657.5625,65.6094 L657.5625,67.7656 L655.0938,67.7656 L655.0938,75.8438 L657.5625,75.8438 L657.5625,78 L650.1719,78 L650.1719,75.8438 L652.6406,75.8438 L652.6406,67.7656 L650.1719,67.7656 Z " fill="#000000"/><text fill="#000000" font-family="sans-serif" font-size="14" font-style="italic" lengthAdjust="spacing" textLength="71" x="674.75" y="76.8467">IOpenable</text><line style="stroke:#272B30;stroke-width:0.5;" x1="553.5" x2="834.5" y1="88" y2="88"/><ellipse cx="563.5" cy="101.6484" fill="none" rx="3" ry="3" style="stroke:#038048;stroke-width:1.0;"/><text fill="#000000" font-family="sans-serif" font-size="14" lengthAdjust="spacing" textLength="118" x="572.5" y="104.9951">isOpen : boolean</text><line style="stroke:#272B30;stroke-width:0.5;" x1="553.5" x2="834.5" y1="112.2969" y2="112.2969"/><ellipse cx="563.5" cy="125.9453" fill="#84BE84" rx="3" ry="3" style="stroke:#038048;stroke-width:1.0;"/><text fill="#000000" font-family="sans-serif" font-size="14" lengthAdjust="spacing" textLength="88" x="572.5" y="129.292">close() : void</text><ellipse cx="563.5" cy="142.2422" fill="#84BE84" rx="3" ry="3" style="stroke:#038048;stroke-width:1.0;"/><text fill="#000000" font-family="sans-serif" font-size="14" lengthAdjust="spacing" textLength="257" x="572.5" y="145.5889">open(isOpenedByApi: boolean) : void</text></g><!--class OverflowMenu--><g id="elem_OverflowMenu"><rect codeLine="41" fill="#FFFFFF" height="732.4688" id="OverflowMenu" rx="2.5" ry="2.5" style="stroke:#272B30;stroke-width:0.5;" width="595" x="180.5" y="598"/><ellipse cx="424.75" cy="614" fill="#ADD1B2" rx="11" ry="11" style="stroke:#181818;stroke-width:1.0;"/><path d="M427.7188,619.6406 Q427.1406,619.9375 426.5,620.0781 Q425.8594,620.2344 425.1563,620.2344 Q422.6563,620.2344 421.3281,618.5938 Q420.0156,616.9375 420.0156,613.8125 Q420.0156,610.6875 421.3281,609.0313 Q422.6563,607.375 425.1563,607.375 Q425.8594,607.375 426.5,607.5313 Q427.1563,607.6875 427.7188,607.9844 L427.7188,610.7031 Q427.0938,610.125 426.5,609.8594 Q425.9063,609.5781 425.2813,609.5781 Q423.9375,609.5781 423.25,610.6563 Q422.5625,611.7188 422.5625,613.8125 Q422.5625,615.9063 423.25,616.9844 Q423.9375,618.0469 425.2813,618.0469 Q425.9063,618.0469 426.5,617.7813 Q427.0938,617.5 427.7188,616.9219 L427.7188,619.6406 Z " fill="#000000"/><text fill="#000000" font-family="sans-serif" font-size="14" lengthAdjust="spacing" textLength="98" x="445.25" y="618.8467">OverflowMenu</text><line style="stroke:#272B30;stroke-width:0.5;" x1="181.5" x2="774.5" y1="630" y2="630"/><ellipse cx="191.5" cy="643.6484" fill="none" rx="3" ry="3" style="stroke:#038048;stroke-width:1.0;"/><text fill="#000000" font-family="sans-serif" font-size="14" lengthAdjust="spacing" textLength="222" x="200.5" y="646.9951">balloonOptions : BalloonOptions</text><ellipse cx="191.5" cy="659.9453" fill="none" rx="3" ry="3" style="stroke:#038048;stroke-width:1.0;"/><text fill="#000000" font-family="sans-serif" font-size="14" lengthAdjust="spacing" textLength="118" x="200.5" y="663.292">isOpen : boolean</text><polygon fill="none" points="191.5,671.2422,195.5,675.2422,191.5,679.2422,187.5,675.2422" style="stroke:#B38D22;stroke-width:1.0;"/><text fill="#000000" font-family="sans-serif" font-size="14" lengthAdjust="spacing" textLength="180" x="200.5" y="679.5889">isProviderBased : boolean</text><rect fill="none" height="6" style="stroke:#C82930;stroke-width:1.0;" width="6" x="188.5" y="689.5391"/><text fill="#000000" font-family="sans-serif" font-size="14" lengthAdjust="spacing" textLength="168" x="200.5" y="695.8857">_ariaLabelTrigger : string</text><rect fill="none" height="6" style="stroke:#C82930;stroke-width:1.0;" width="6" x="188.5" y="705.8359"/><text fill="#000000" font-family="sans-serif" font-size="14" lengthAdjust="spacing" textLength="199" x="200.5" y="712.1826">_balloonElem : HTMLElement</text><rect fill="none" height="6" style="stroke:#C82930;stroke-width:1.0;" width="6" x="188.5" y="722.1328"/><text fill="#000000" font-family="sans-serif" font-size="14" lengthAdjust="spacing" textLength="177" x="200.5" y="728.4795">_balloonFeature : IBalloon</text><rect fill="none" height="6" style="stroke:#C82930;stroke-width:1.0;" width="6" x="188.5" y="738.4297"/><text fill="#000000" font-family="sans-serif" font-size="14" lengthAdjust="spacing" textLength="232" x="200.5" y="744.7764">_eventBalloonOnToggle : Generic</text><rect fill="none" height="6" style="stroke:#C82930;stroke-width:1.0;" width="6" x="188.5" y="754.7266"/><text fill="#000000" font-family="sans-serif" font-size="14" lengthAdjust="spacing" textLength="165" x="200.5" y="761.0732">_eventOnClick : Generic</text><rect fill="none" height="6" style="stroke:#C82930;stroke-width:1.0;" width="6" x="188.5" y="771.0234"/><text fill="#000000" font-family="sans-serif" font-size="14" lengthAdjust="spacing" textLength="196" x="200.5" y="777.3701">_eventOnKeydown : Generic</text><rect fill="none" height="6" style="stroke:#C82930;stroke-width:1.0;" width="6" x="188.5" y="787.3203"/><text fill="#000000" font-family="sans-serif" font-size="14" lengthAdjust="spacing" textLength="147" x="200.5" y="793.667">_isDisabled : boolean</text><rect fill="none" height="6" style="stroke:#C82930;stroke-width:1.0;" width="6" x="188.5" y="803.6172"/><text fill="#000000" font-family="sans-serif" font-size="14" lengthAdjust="spacing" textLength="181" x="200.5" y="809.9639">_isOpenedByApi : boolean</text><rect fill="none" height="6" style="stroke:#C82930;stroke-width:1.0;" width="6" x="188.5" y="819.9141"/><text fill="#000000" font-family="sans-serif" font-size="14" lengthAdjust="spacing" textLength="310" x="200.5" y="826.2607">_platformEventOnToggle : OSOnToggleEvent</text><rect fill="none" height="6" style="stroke:#C82930;stroke-width:1.0;" width="6" x="188.5" y="836.2109"/><text fill="#000000" font-family="sans-serif" font-size="14" lengthAdjust="spacing" textLength="194" x="200.5" y="842.5576">_triggerElem : HTMLElement</text><line style="stroke:#272B30;stroke-width:0.5;" x1="181.5" x2="774.5" y1="849.8594" y2="849.8594"/><ellipse cx="191.5" cy="863.5078" fill="#84BE84" rx="3" ry="3" style="stroke:#038048;stroke-width:1.0;"/><text fill="#000000" font-family="sans-serif" font-size="14" lengthAdjust="spacing" textLength="84" x="200.5" y="866.8545">build() : void</text><ellipse cx="191.5" cy="879.8047" fill="#84BE84" rx="3" ry="3" style="stroke:#038048;stroke-width:1.0;"/><text fill="#000000" font-family="sans-serif" font-size="14" lengthAdjust="spacing" textLength="484" x="200.5" y="883.1514">changeProperty(propertyName: string, propertyValue: unknown) : void</text><ellipse cx="191.5" cy="896.1016" fill="#84BE84" rx="3" ry="3" style="stroke:#038048;stroke-width:1.0;"/><text fill="#000000" font-family="sans-serif" font-size="14" lengthAdjust="spacing" textLength="88" x="200.5" y="899.4482">close() : void</text><ellipse cx="191.5" cy="912.3984" fill="#84BE84" rx="3" ry="3" style="stroke:#038048;stroke-width:1.0;"/><text fill="#000000" font-family="sans-serif" font-size="14" lengthAdjust="spacing" textLength="100" x="200.5" y="915.7451">disable() : void</text><ellipse cx="191.5" cy="928.6953" fill="#84BE84" rx="3" ry="3" style="stroke:#038048;stroke-width:1.0;"/><text fill="#000000" font-family="sans-serif" font-size="14" lengthAdjust="spacing" textLength="106" x="200.5" y="932.042">dispose() : void</text><ellipse cx="191.5" cy="944.9922" fill="#84BE84" rx="3" ry="3" style="stroke:#038048;stroke-width:1.0;"/><text fill="#000000" font-family="sans-serif" font-size="14" lengthAdjust="spacing" textLength="98" x="200.5" y="948.3389">enable() : void</text><ellipse cx="191.5" cy="961.2891" fill="#84BE84" rx="3" ry="3" style="stroke:#038048;stroke-width:1.0;"/><text fill="#000000" font-family="sans-serif" font-size="14" lengthAdjust="spacing" textLength="267" x="200.5" y="964.6357">equalsToID(patternId: string) : boolean</text><ellipse cx="191.5" cy="977.5859" fill="#84BE84" rx="3" ry="3" style="stroke:#038048;stroke-width:1.0;"/><text fill="#000000" font-family="sans-serif" font-size="14" lengthAdjust="spacing" textLength="505" x="200.5" y="980.9326">open(isOpenedByApi: boolean, keyPressed: ArrowDown | ArrowUp) : void</text><ellipse cx="191.5" cy="993.8828" fill="#84BE84" rx="3" ry="3" style="stroke:#038048;stroke-width:1.0;"/><text fill="#000000" font-family="sans-serif" font-size="14" lengthAdjust="spacing" textLength="434" x="200.5" y="997.2295">registerCallback(eventName: string, callback: OSGeneric) : void</text><ellipse cx="191.5" cy="1010.1797" fill="#84BE84" rx="3" ry="3" style="stroke:#038048;stroke-width:1.0;"/><text fill="#000000" font-family="sans-serif" font-size="14" lengthAdjust="spacing" textLength="396" x="200.5" y="1013.5264">setBalloonOptions(balloonOptions: BalloonOptions) : void</text><ellipse cx="191.5" cy="1026.4766" fill="#84BE84" rx="3" ry="3" style="stroke:#038048;stroke-width:1.0;"/><text fill="#000000" font-family="sans-serif" font-size="14" lengthAdjust="spacing" textLength="321" x="200.5" y="1029.8232">setTriggerAriaLabel(ariaLabelText: string) : void</text><polygon fill="#FFFF44" points="191.5,1037.7734,195.5,1041.7734,191.5,1045.7734,187.5,1041.7734" style="stroke:#B38D22;stroke-width:1.0;"/><text fill="#000000" font-family="sans-serif" font-size="14" lengthAdjust="spacing" textLength="121" x="200.5" y="1046.1201">finishBuild() : void</text><polygon fill="#FFFF44" points="191.5,1054.0703,195.5,1058.0703,191.5,1062.0703,187.5,1058.0703" style="stroke:#B38D22;stroke-width:1.0;"/><text fill="#000000" font-family="sans-serif" font-size="14" lengthAdjust="spacing" textLength="205" x="200.5" y="1062.417">removeEventListeners() : void</text><polygon fill="#FFFF44" points="191.5,1070.3672,195.5,1074.3672,191.5,1078.3672,187.5,1074.3672" style="stroke:#B38D22;stroke-width:1.0;"/><text fill="#000000" font-family="sans-serif" font-size="14" lengthAdjust="spacing" textLength="180" x="200.5" y="1078.7139">setA11YProperties() : void</text><polygon fill="#FFFF44" points="191.5,1086.6641,195.5,1090.6641,191.5,1094.6641,187.5,1090.6641" style="stroke:#B38D22;stroke-width:1.0;"/><text fill="#000000" font-family="sans-serif" font-size="14" lengthAdjust="spacing" textLength="138" x="200.5" y="1095.0107">setCallbacks() : void</text><polygon fill="#FFFF44" points="191.5,1102.9609,195.5,1106.9609,191.5,1110.9609,187.5,1106.9609" style="stroke:#B38D22;stroke-width:1.0;"/><text fill="#000000" font-family="sans-serif" font-size="14" lengthAdjust="spacing" textLength="175" x="200.5" y="1111.3076">setEventListeners() : void</text><polygon fill="#FFFF44" points="191.5,1119.2578,195.5,1123.2578,191.5,1127.2578,187.5,1123.2578" style="stroke:#B38D22;stroke-width:1.0;"/><text fill="#000000" font-family="sans-serif" font-size="14" lengthAdjust="spacing" textLength="169" x="200.5" y="1127.6045">setHtmlElements() : void</text><polygon fill="#FFFF44" points="191.5,1135.5547,195.5,1139.5547,191.5,1143.5547,187.5,1139.5547" style="stroke:#B38D22;stroke-width:1.0;"/><text fill="#000000" font-family="sans-serif" font-size="14" lengthAdjust="spacing" textLength="569" x="200.5" y="1143.9014">triggerPlatformEventCallback(platFormCallback: OSGeneric, args: unknown[]) : void</text><polygon fill="#FFFF44" points="191.5,1151.8516,195.5,1155.8516,191.5,1159.8516,187.5,1155.8516" style="stroke:#B38D22;stroke-width:1.0;"/><text fill="#000000" font-family="sans-serif" font-size="14" lengthAdjust="spacing" textLength="311" x="200.5" y="1160.1982">triggerPlatformInitializedEventCallback() : void</text><polygon fill="#FFFF44" points="191.5,1168.1484,195.5,1172.1484,191.5,1176.1484,187.5,1172.1484" style="stroke:#B38D22;stroke-width:1.0;"/><text fill="#000000" font-family="sans-serif" font-size="14" lengthAdjust="spacing" textLength="156" x="200.5" y="1176.4951">unsetCallbacks() : void</text><polygon fill="#FFFF44" points="191.5,1184.4453,195.5,1188.4453,191.5,1192.4453,187.5,1188.4453" style="stroke:#B38D22;stroke-width:1.0;"/><text fill="#000000" font-family="sans-serif" font-size="14" lengthAdjust="spacing" textLength="199" x="200.5" y="1192.792">unsetGlobalCallbacks() : void</text><polygon fill="#FFFF44" points="191.5,1200.7422,195.5,1204.7422,191.5,1208.7422,187.5,1204.7422" style="stroke:#B38D22;stroke-width:1.0;"/><text fill="#000000" font-family="sans-serif" font-size="14" lengthAdjust="spacing" textLength="187" x="200.5" y="1209.0889">unsetHtmlElements() : void</text><rect fill="#F24D5C" height="6" style="stroke:#C82930;stroke-width:1.0;" width="6" x="188.5" y="1219.0391"/><text fill="#000000" font-family="sans-serif" font-size="14" lengthAdjust="spacing" textLength="485" x="200.5" y="1225.3857">_balloonOnToggleCallback(_args: string, e: CustomEvent&lt;any&gt;) : void</text><rect fill="#F24D5C" height="6" style="stroke:#C82930;stroke-width:1.0;" width="6" x="188.5" y="1235.3359"/><text fill="#000000" font-family="sans-serif" font-size="14" lengthAdjust="spacing" textLength="165" x="200.5" y="1241.6826">_onClickCallback() : void</text><rect fill="#F24D5C" height="6" style="stroke:#C82930;stroke-width:1.0;" width="6" x="188.5" y="1251.6328"/><text fill="#000000" font-family="sans-serif" font-size="14" lengthAdjust="spacing" textLength="348" x="200.5" y="1257.9795">_onKeydownCallback(event: KeyboardEvent) : void</text><rect fill="#F24D5C" height="6" style="stroke:#C82930;stroke-width:1.0;" width="6" x="188.5" y="1267.9297"/><text fill="#000000" font-family="sans-serif" font-size="14" lengthAdjust="spacing" textLength="184" x="200.5" y="1274.2764">_setBalloonFeature() : void</text><rect fill="#F24D5C" height="6" style="stroke:#C82930;stroke-width:1.0;" width="6" x="188.5" y="1284.2266"/><text fill="#000000" font-family="sans-serif" font-size="14" lengthAdjust="spacing" textLength="360" x="200.5" y="1290.5732">_setOverflowMenuShape(shape: ShapeTypes) : void</text><rect fill="#F24D5C" height="6" style="stroke:#C82930;stroke-width:1.0;" width="6" x="188.5" y="1300.5234"/><text fill="#000000" font-family="sans-serif" font-size="14" lengthAdjust="spacing" textLength="266" x="200.5" y="1306.8701">_togglePattern(isOpen: boolean) : void</text><rect fill="#F24D5C" height="6" style="stroke:#C82930;stroke-width:1.0;" width="6" x="188.5" y="1316.8203"/><text fill="#000000" font-family="sans-serif" font-size="14" lengthAdjust="spacing" textLength="210" x="200.5" y="1323.167">_triggerOnToggleEvent() : void</text></g><!--reverse link IPattern to IOverflowMenu--><g id="link_IPattern_IOverflowMenu"><path codeLine="34" d="M343.6949,216.5103 C357.7649,235.6403 362.14,241.57 376.99,261.75 " fill="none" id="IPattern-backto-IOverflowMenu" style="stroke:#272B30;stroke-width:1.0;"/><polygon fill="none" points="333.03,202.01,338.8615,220.0653,348.5284,212.9554,333.03,202.01" style="stroke:#272B30;stroke-width:1.0;"/></g><!--reverse link IOpenable to IOverflowMenu--><g id="link_IOpenable_IOverflowMenu"><path codeLine="40" d="M648.1484,167.8054 C626.2684,197.5254 607.6,222.9 578.93,261.86 " fill="none" id="IOpenable-backto-IOverflowMenu" style="stroke:#272B30;stroke-width:1.0;"/><polygon fill="none" points="658.82,153.31,643.3166,164.2482,652.9802,171.3626,658.82,153.31" style="stroke:#272B30;stroke-width:1.0;"/></g><!--reverse link IOverflowMenu to OverflowMenu--><g id="link_IOverflowMenu_OverflowMenu"><path codeLine="85" d="M478,556.12 C478,575.05 478,577.17 478,597.97 " fill="none" id="IOverflowMenu-backto-OverflowMenu" style="stroke:#272B30;stroke-width:1.0;stroke-dasharray:7.0,7.0;"/><polygon fill="none" points="478,538.12,472,556.12,484,556.12,478,538.12" style="stroke:#272B30;stroke-width:1.0;"/></g><!--SRC=[rLLjQzim4FxUNo6QBovhozeD1g4CalGjh5q2pGPZZ29RPqT4bbn9JfQj- - -J8zcrR2ST6moQ3y6wv-vqBy-Tr8Bo34kSeX73IWsa5AkHO4AYtkcxq_3DwptbQmo5921tg-1eaKYHS-BKuZYkwRJW2CXRWlVcb022DDDhb8AU2wBgefW2CnBADSWOHu3snvEb-MHYTGiytqS_zv3vlQ9gc5EcKH-5GZ30l1HFCk1DgG8MNp18WHS6rxFR6tUoSCxfGmvZOZ2b9UM95QyeIK2tnA6vbmG7HheKb5XPDCSyWQaK6KYz3ZBtyH6dK1eVebBw6RFSY7E-u6B56uwOKD1mJgZ28UkGPcrTu1sgy91ZfcPYV1vGKiPpq2oI2Ou7jdv0Xkj1HYk5GuGBmdo0zLI2Kc2SR1XqRk97Z_RxK-PVAY6XoZHnX1aB3HK2M9g2-nM97DP7axihSwsaKUNabyU1ATRcm9zh_yjfz9Rs_L6d_hsqjOAUFHuTDOVC7x_CagfM-wuPwsBk3afvmJnTqHbDL6mRjD-v1qAJfn1yacagk39EXvvWHyGzgamVbsRro24sd6x0H_TOKdo3Gs0pIPC4f4-FetjtTS6m3h9L-2LWdKimAcCNcyCtNIl3vJEH9ApGSjsgAqtuYD5eiGqqSqcAIMp2L9tRrT7EpMjA2yqOrh6GwONrNuKskIiF6yHfQrkUBNLusVioisCo_ikrkVYV6zDjGErFGE1FI7D0MjQEx8EI_C7J6C1tNIz3PTQBAQTgFcmtkYSX5KlBbfiYEHEnQgYOEmSd9ryS6IXqu6L5Eg3dN5_hb3awDb77sscTx5NjYn6uDD9Hk-35QvYeYf1Vl-rqE-PKKype3o3-3RvLpdVakG6lc32jtAcoFTbg6vK3N8LnRvCf2MQuDigL5hOSPvYltpSS2RkCklCeOBUEV1htaH670ajRXORH4slTjWpQ2lNrVpV76GIg-E-ZpM6spa0rZFGcK_VIkHbjFq3U4lFsM-0_KjxpS_PuVDnuadu3]--></g></svg>