<?xml version="1.0" encoding="UTF-8" standalone="no"?><svg xmlns="http://www.w3.org/2000/svg" xmlns:xlink="http://www.w3.org/1999/xlink" contentScriptType="application/ecmascript" contentStyleType="text/css" height="726px" preserveAspectRatio="none" style="width:2482px;height:726px;background:#CED4DA;" version="1.1" viewBox="0 0 2482 726" width="2482px" zoomAndPan="magnify"><defs><filter height="300%" id="flge5akr69zol" width="300%" x="-1" y="-1"><feGaussianBlur result="blurOut" stdDeviation="2.0"/><feColorMatrix in="blurOut" result="blurOut2" type="matrix" values="0 0 0 0 0 0 0 0 0 0 0 0 0 0 0 0 0 0 .4 0"/><feOffset dx="4.0" dy="4.0" in="blurOut2" result="blurOut3"/><feBlend in="SourceGraphic" in2="blurOut3" mode="normal"/></filter></defs><g><!--MD5=[41c08e7a09cbc7135e3cebcc45b1c6e6]
class IParent--><rect codeLine="7" fill="#FFFFFF" filter="url(#flge5akr69zol)" height="164.5957" id="IParent" style="stroke:#272B30;stroke-width:1.5;" width="403" x="935" y="219"/><ellipse cx="1112.25" cy="235" fill="#B4A7E5" rx="11" ry="11" style="stroke:#272B30;stroke-width:1.0;"/><path d="M1108.6777,231.2651 L1108.6777,229.1069 L1116.0571,229.1069 L1116.0571,231.2651 L1113.5918,231.2651 L1113.5918,239.3418 L1116.0571,239.3418 L1116.0571,241.5 L1108.6777,241.5 L1108.6777,239.3418 L1111.1431,239.3418 L1111.1431,231.2651 Z " fill="#000000"/><text fill="#000000" font-family="sans-serif" font-size="12" font-style="italic" lengthAdjust="spacing" textLength="40" x="1132.75" y="239.5352">IParent</text><line style="stroke:#272B30;stroke-width:1.5;" x1="936" x2="1337" y1="251" y2="251"/><ellipse cx="946" cy="262" rx="3" ry="3" style="stroke:#038048;stroke-width:1.0;fill:none;"/><text fill="#000000" font-family="sans-serif" font-size="11" lengthAdjust="spacing" textLength="84" x="955" y="265.6348">isBuilt : boolean</text><ellipse cx="946" cy="274.9551" rx="3" ry="3" style="stroke:#038048;stroke-width:1.0;fill:none;"/><text fill="#000000" font-family="sans-serif" font-size="11" lengthAdjust="spacing" textLength="142" x="955" y="278.5898">selfElement : HTMLElement</text><ellipse cx="946" cy="287.9102" rx="3" ry="3" style="stroke:#038048;stroke-width:1.0;fill:none;"/><text fill="#000000" font-family="sans-serif" font-size="11" lengthAdjust="spacing" textLength="88" x="955" y="291.5449">uniqueId : string</text><ellipse cx="946" cy="300.8652" rx="3" ry="3" style="stroke:#038048;stroke-width:1.0;fill:none;"/><text fill="#000000" font-family="sans-serif" font-size="11" lengthAdjust="spacing" textLength="86" x="955" y="304.5">widgetId : string</text><line style="stroke:#272B30;stroke-width:1.5;" x1="936" x2="1337" y1="310.8203" y2="310.8203"/><ellipse cx="946" cy="321.8203" fill="#84BE84" rx="3" ry="3" style="stroke:#038048;stroke-width:1.0;"/><text fill="#000000" font-family="sans-serif" font-size="11" lengthAdjust="spacing" textLength="308" x="955" y="325.4551">beNotifiedByChild(childId: string, notifiedTo: string) : void</text><ellipse cx="946" cy="334.7754" fill="#84BE84" rx="3" ry="3" style="stroke:#038048;stroke-width:1.0;"/><text fill="#000000" font-family="sans-serif" font-size="11" lengthAdjust="spacing" textLength="67" x="955" y="338.4102">build() : void</text><ellipse cx="946" cy="347.7305" fill="#84BE84" rx="3" ry="3" style="stroke:#038048;stroke-width:1.0;"/><text fill="#000000" font-family="sans-serif" font-size="11" lengthAdjust="spacing" textLength="377" x="955" y="351.3652">changeProperty(propertyName: string, propertyValue: unknown) : void</text><ellipse cx="946" cy="360.6855" fill="#84BE84" rx="3" ry="3" style="stroke:#038048;stroke-width:1.0;"/><text fill="#000000" font-family="sans-serif" font-size="11" lengthAdjust="spacing" textLength="82" x="955" y="364.3203">dispose() : void</text><ellipse cx="946" cy="373.6406" fill="#84BE84" rx="3" ry="3" style="stroke:#038048;stroke-width:1.0;"/><text fill="#000000" font-family="sans-serif" font-size="11" lengthAdjust="spacing" textLength="168" x="955" y="377.2754">equalsToID(id: string) : boolean</text><!--MD5=[3266101ea6228889a90c639b28de0501]
class IPattern--><rect codeLine="18" fill="#FFFFFF" filter="url(#flge5akr69zol)" height="151.6406" id="IPattern" style="stroke:#272B30;stroke-width:1.5;" width="403" x="935" y="7"/><ellipse cx="1110.25" cy="23" fill="#B4A7E5" rx="11" ry="11" style="stroke:#272B30;stroke-width:1.0;"/><path d="M1106.6777,19.2651 L1106.6777,17.1069 L1114.0571,17.1069 L1114.0571,19.2651 L1111.5918,19.2651 L1111.5918,27.3418 L1114.0571,27.3418 L1114.0571,29.5 L1106.6777,29.5 L1106.6777,27.3418 L1109.1431,27.3418 L1109.1431,19.2651 Z " fill="#000000"/><text fill="#000000" font-family="sans-serif" font-size="12" font-style="italic" lengthAdjust="spacing" textLength="44" x="1130.75" y="27.5352">IPattern</text><line style="stroke:#272B30;stroke-width:1.5;" x1="936" x2="1337" y1="39" y2="39"/><ellipse cx="946" cy="50" rx="3" ry="3" style="stroke:#038048;stroke-width:1.0;fill:none;"/><text fill="#000000" font-family="sans-serif" font-size="11" lengthAdjust="spacing" textLength="84" x="955" y="53.6348">isBuilt : boolean</text><ellipse cx="946" cy="62.9551" rx="3" ry="3" style="stroke:#038048;stroke-width:1.0;fill:none;"/><text fill="#000000" font-family="sans-serif" font-size="11" lengthAdjust="spacing" textLength="142" x="955" y="66.5898">selfElement : HTMLElement</text><ellipse cx="946" cy="75.9102" rx="3" ry="3" style="stroke:#038048;stroke-width:1.0;fill:none;"/><text fill="#000000" font-family="sans-serif" font-size="11" lengthAdjust="spacing" textLength="88" x="955" y="79.5449">uniqueId : string</text><ellipse cx="946" cy="88.8652" rx="3" ry="3" style="stroke:#038048;stroke-width:1.0;fill:none;"/><text fill="#000000" font-family="sans-serif" font-size="11" lengthAdjust="spacing" textLength="86" x="955" y="92.5">widgetId : string</text><line style="stroke:#272B30;stroke-width:1.5;" x1="936" x2="1337" y1="98.8203" y2="98.8203"/><ellipse cx="946" cy="109.8203" fill="#84BE84" rx="3" ry="3" style="stroke:#038048;stroke-width:1.0;"/><text fill="#000000" font-family="sans-serif" font-size="11" lengthAdjust="spacing" textLength="67" x="955" y="113.4551">build() : void</text><ellipse cx="946" cy="122.7754" fill="#84BE84" rx="3" ry="3" style="stroke:#038048;stroke-width:1.0;"/><text fill="#000000" font-family="sans-serif" font-size="11" lengthAdjust="spacing" textLength="377" x="955" y="126.4102">changeProperty(propertyName: string, propertyValue: unknown) : void</text><ellipse cx="946" cy="135.7305" fill="#84BE84" rx="3" ry="3" style="stroke:#038048;stroke-width:1.0;"/><text fill="#000000" font-family="sans-serif" font-size="11" lengthAdjust="spacing" textLength="82" x="955" y="139.3652">dispose() : void</text><ellipse cx="946" cy="148.6855" fill="#84BE84" rx="3" ry="3" style="stroke:#038048;stroke-width:1.0;"/><text fill="#000000" font-family="sans-serif" font-size="11" lengthAdjust="spacing" textLength="168" x="955" y="152.3203">equalsToID(id: string) : boolean</text><!--MD5=[c1e444593d623e412a9e24ba5a15f734]
class IAccordion--><rect codeLine="29" fill="#FFFFFF" filter="url(#flge5akr69zol)" height="229.3711" id="IAccordion" style="stroke:#272B30;stroke-width:1.5;" width="417" x="7" y="463.5"/><ellipse cx="181.25" cy="479.5" fill="#B4A7E5" rx="11" ry="11" style="stroke:#272B30;stroke-width:1.0;"/><path d="M177.6777,475.7651 L177.6777,473.6069 L185.0571,473.6069 L185.0571,475.7651 L182.5918,475.7651 L182.5918,483.8418 L185.0571,483.8418 L185.0571,486 L177.6777,486 L177.6777,483.8418 L180.1431,483.8418 L180.1431,475.7651 Z " fill="#000000"/><text fill="#000000" font-family="sans-serif" font-size="12" font-style="italic" lengthAdjust="spacing" textLength="60" x="201.75" y="484.0352">IAccordion</text><line style="stroke:#272B30;stroke-width:1.5;" x1="8" x2="423" y1="495.5" y2="495.5"/><ellipse cx="18" cy="506.5" rx="3" ry="3" style="stroke:#038048;stroke-width:1.0;fill:none;"/><text fill="#000000" font-family="sans-serif" font-size="11" lengthAdjust="spacing" textLength="84" x="27" y="510.1348">isBuilt : boolean</text><ellipse cx="18" cy="519.4551" rx="3" ry="3" style="stroke:#038048;stroke-width:1.0;fill:none;"/><text fill="#000000" font-family="sans-serif" font-size="11" lengthAdjust="spacing" textLength="142" x="27" y="523.0898">selfElement : HTMLElement</text><ellipse cx="18" cy="532.4102" rx="3" ry="3" style="stroke:#038048;stroke-width:1.0;fill:none;"/><text fill="#000000" font-family="sans-serif" font-size="11" lengthAdjust="spacing" textLength="88" x="27" y="536.0449">uniqueId : string</text><ellipse cx="18" cy="545.3652" rx="3" ry="3" style="stroke:#038048;stroke-width:1.0;fill:none;"/><text fill="#000000" font-family="sans-serif" font-size="11" lengthAdjust="spacing" textLength="86" x="27" y="549">widgetId : string</text><line style="stroke:#272B30;stroke-width:1.5;" x1="8" x2="423" y1="555.3203" y2="555.3203"/><ellipse cx="18" cy="566.3203" fill="#84BE84" rx="3" ry="3" style="stroke:#038048;stroke-width:1.0;"/><text fill="#000000" font-family="sans-serif" font-size="11" lengthAdjust="spacing" textLength="391" x="27" y="569.9551">addAccordionItem(uniqueId: string, accordionItem: IAccordionItem) : any</text><ellipse cx="18" cy="579.2754" fill="#84BE84" rx="3" ry="3" style="stroke:#038048;stroke-width:1.0;"/><text fill="#000000" font-family="sans-serif" font-size="11" lengthAdjust="spacing" textLength="308" x="27" y="582.9102">beNotifiedByChild(childId: string, notifiedTo: string) : void</text><ellipse cx="18" cy="592.2305" fill="#84BE84" rx="3" ry="3" style="stroke:#038048;stroke-width:1.0;"/><text fill="#000000" font-family="sans-serif" font-size="11" lengthAdjust="spacing" textLength="67" x="27" y="595.8652">build() : void</text><ellipse cx="18" cy="605.1855" fill="#84BE84" rx="3" ry="3" style="stroke:#038048;stroke-width:1.0;"/><text fill="#000000" font-family="sans-serif" font-size="11" lengthAdjust="spacing" textLength="377" x="27" y="608.8203">changeProperty(propertyName: string, propertyValue: unknown) : void</text><ellipse cx="18" cy="618.1406" fill="#84BE84" rx="3" ry="3" style="stroke:#038048;stroke-width:1.0;"/><text fill="#000000" font-family="sans-serif" font-size="11" lengthAdjust="spacing" textLength="123" x="27" y="621.7754">collapseAllItems() : any</text><ellipse cx="18" cy="631.0957" fill="#84BE84" rx="3" ry="3" style="stroke:#038048;stroke-width:1.0;"/><text fill="#000000" font-family="sans-serif" font-size="11" lengthAdjust="spacing" textLength="82" x="27" y="634.7305">dispose() : void</text><ellipse cx="18" cy="644.0508" fill="#84BE84" rx="3" ry="3" style="stroke:#038048;stroke-width:1.0;"/><text fill="#000000" font-family="sans-serif" font-size="11" lengthAdjust="spacing" textLength="168" x="27" y="647.6855">equalsToID(id: string) : boolean</text><ellipse cx="18" cy="657.0059" fill="#84BE84" rx="3" ry="3" style="stroke:#038048;stroke-width:1.0;"/><text fill="#000000" font-family="sans-serif" font-size="11" lengthAdjust="spacing" textLength="119" x="27" y="660.6406">expandAllItems() : any</text><ellipse cx="18" cy="669.9609" fill="#84BE84" rx="3" ry="3" style="stroke:#038048;stroke-width:1.0;"/><text fill="#000000" font-family="sans-serif" font-size="11" lengthAdjust="spacing" textLength="240" x="27" y="673.5957">removeAccordionItem(uniqueId: string) : any</text><ellipse cx="18" cy="682.916" fill="#84BE84" rx="3" ry="3" style="stroke:#038048;stroke-width:1.0;"/><text fill="#000000" font-family="sans-serif" font-size="11" lengthAdjust="spacing" textLength="307" x="27" y="686.5508">triggerAccordionItemClose(accordionItemId: string) : any</text><!--MD5=[aa2b4abb94c8a809bbbca83a22100b52]
class IDropdownServerSide--><rect codeLine="46" fill="#FFFFFF" filter="url(#flge5akr69zol)" height="268.2363" id="IDropdownServerSide" style="stroke:#272B30;stroke-width:1.5;" width="440" x="459.5" y="444"/><ellipse cx="613.75" cy="460" fill="#B4A7E5" rx="11" ry="11" style="stroke:#272B30;stroke-width:1.0;"/><path d="M610.1777,456.2651 L610.1777,454.1069 L617.5571,454.1069 L617.5571,456.2651 L615.0918,456.2651 L615.0918,464.3418 L617.5571,464.3418 L617.5571,466.5 L610.1777,466.5 L610.1777,464.3418 L612.6431,464.3418 L612.6431,456.2651 Z " fill="#000000"/><text fill="#000000" font-family="sans-serif" font-size="12" font-style="italic" lengthAdjust="spacing" textLength="123" x="634.25" y="464.5352">IDropdownServerSide</text><line style="stroke:#272B30;stroke-width:1.5;" x1="460.5" x2="898.5" y1="476" y2="476"/><ellipse cx="470.5" cy="487" rx="3" ry="3" style="stroke:#038048;stroke-width:1.0;fill:none;"/><text fill="#000000" font-family="sans-serif" font-size="11" lengthAdjust="spacing" textLength="84" x="479.5" y="490.6348">isBuilt : boolean</text><ellipse cx="470.5" cy="499.9551" rx="3" ry="3" style="stroke:#038048;stroke-width:1.0;fill:none;"/><text fill="#000000" font-family="sans-serif" font-size="11" lengthAdjust="spacing" textLength="142" x="479.5" y="503.5898">selfElement : HTMLElement</text><ellipse cx="470.5" cy="512.9102" rx="3" ry="3" style="stroke:#038048;stroke-width:1.0;fill:none;"/><text fill="#000000" font-family="sans-serif" font-size="11" lengthAdjust="spacing" textLength="88" x="479.5" y="516.5449">uniqueId : string</text><ellipse cx="470.5" cy="525.8652" rx="3" ry="3" style="stroke:#038048;stroke-width:1.0;fill:none;"/><text fill="#000000" font-family="sans-serif" font-size="11" lengthAdjust="spacing" textLength="86" x="479.5" y="529.5">widgetId : string</text><line style="stroke:#272B30;stroke-width:1.5;" x1="460.5" x2="898.5" y1="535.8203" y2="535.8203"/><ellipse cx="470.5" cy="546.8203" fill="#84BE84" rx="3" ry="3" style="stroke:#038048;stroke-width:1.0;"/><text fill="#000000" font-family="sans-serif" font-size="11" lengthAdjust="spacing" textLength="308" x="479.5" y="550.4551">beNotifiedByChild(childId: string, notifiedTo: string) : void</text><ellipse cx="470.5" cy="559.7754" fill="#84BE84" rx="3" ry="3" style="stroke:#038048;stroke-width:1.0;"/><text fill="#000000" font-family="sans-serif" font-size="11" lengthAdjust="spacing" textLength="67" x="479.5" y="563.4102">build() : void</text><ellipse cx="470.5" cy="572.7305" fill="#84BE84" rx="3" ry="3" style="stroke:#038048;stroke-width:1.0;"/><text fill="#000000" font-family="sans-serif" font-size="11" lengthAdjust="spacing" textLength="377" x="479.5" y="576.3652">changeProperty(propertyName: string, propertyValue: unknown) : void</text><ellipse cx="470.5" cy="585.6855" fill="#84BE84" rx="3" ry="3" style="stroke:#038048;stroke-width:1.0;"/><text fill="#000000" font-family="sans-serif" font-size="11" lengthAdjust="spacing" textLength="66" x="479.5" y="589.3203">clear() : void</text><ellipse cx="470.5" cy="598.6406" fill="#84BE84" rx="3" ry="3" style="stroke:#038048;stroke-width:1.0;"/><text fill="#000000" font-family="sans-serif" font-size="11" lengthAdjust="spacing" textLength="78" x="479.5" y="602.2754">disable() : void</text><ellipse cx="470.5" cy="611.5957" fill="#84BE84" rx="3" ry="3" style="stroke:#038048;stroke-width:1.0;"/><text fill="#000000" font-family="sans-serif" font-size="11" lengthAdjust="spacing" textLength="82" x="479.5" y="615.2305">dispose() : void</text><ellipse cx="470.5" cy="624.5508" fill="#84BE84" rx="3" ry="3" style="stroke:#038048;stroke-width:1.0;"/><text fill="#000000" font-family="sans-serif" font-size="11" lengthAdjust="spacing" textLength="75" x="479.5" y="628.1855">enable() : void</text><ellipse cx="470.5" cy="637.5059" fill="#84BE84" rx="3" ry="3" style="stroke:#038048;stroke-width:1.0;"/><text fill="#000000" font-family="sans-serif" font-size="11" lengthAdjust="spacing" textLength="168" x="479.5" y="641.1406">equalsToID(id: string) : boolean</text><ellipse cx="470.5" cy="650.4609" fill="#84BE84" rx="3" ry="3" style="stroke:#038048;stroke-width:1.0;"/><text fill="#000000" font-family="sans-serif" font-size="11" lengthAdjust="spacing" textLength="145" x="479.5" y="654.0957">getSelectedValues() : string</text><ellipse cx="470.5" cy="663.416" fill="#84BE84" rx="3" ry="3" style="stroke:#038048;stroke-width:1.0;"/><text fill="#000000" font-family="sans-serif" font-size="11" lengthAdjust="spacing" textLength="256" x="479.5" y="667.0508">setProviderConfigs(providerConfigs: any) : void</text><ellipse cx="470.5" cy="676.3711" fill="#84BE84" rx="3" ry="3" style="stroke:#038048;stroke-width:1.0;"/><text fill="#000000" font-family="sans-serif" font-size="11" lengthAdjust="spacing" textLength="414" x="479.5" y="680.0059">setProviderEvent(eventName: string, callback: Generic, uniqueId: string) : void</text><ellipse cx="470.5" cy="689.3262" fill="#84BE84" rx="3" ry="3" style="stroke:#038048;stroke-width:1.0;"/><text fill="#000000" font-family="sans-serif" font-size="11" lengthAdjust="spacing" textLength="221" x="479.5" y="692.9609">unsetProviderEvent(eventId: string) : void</text><ellipse cx="470.5" cy="702.2813" fill="#84BE84" rx="3" ry="3" style="stroke:#038048;stroke-width:1.0;"/><text fill="#000000" font-family="sans-serif" font-size="11" lengthAdjust="spacing" textLength="318" x="479.5" y="705.916">validation(isValid: boolean, validationMessage: string) : void</text><!--MD5=[7cbc53f4a164bce5d581ee5c4ee15b97]
class ISectionIndex--><rect codeLine="66" fill="#FFFFFF" filter="url(#flge5akr69zol)" height="164.5957" id="ISectionIndex" style="stroke:#272B30;stroke-width:1.5;" width="403" x="935" y="495.5"/><ellipse cx="1094.75" cy="511.5" fill="#B4A7E5" rx="11" ry="11" style="stroke:#272B30;stroke-width:1.0;"/><path d="M1091.1777,507.7651 L1091.1777,505.6069 L1098.5571,505.6069 L1098.5571,507.7651 L1096.0918,507.7651 L1096.0918,515.8418 L1098.5571,515.8418 L1098.5571,518 L1091.1777,518 L1091.1777,515.8418 L1093.6431,515.8418 L1093.6431,507.7651 Z " fill="#000000"/><text fill="#000000" font-family="sans-serif" font-size="12" font-style="italic" lengthAdjust="spacing" textLength="75" x="1115.25" y="516.0352">ISectionIndex</text><line style="stroke:#272B30;stroke-width:1.5;" x1="936" x2="1337" y1="527.5" y2="527.5"/><ellipse cx="946" cy="538.5" rx="3" ry="3" style="stroke:#038048;stroke-width:1.0;fill:none;"/><text fill="#000000" font-family="sans-serif" font-size="11" lengthAdjust="spacing" textLength="84" x="955" y="542.1348">isBuilt : boolean</text><ellipse cx="946" cy="551.4551" rx="3" ry="3" style="stroke:#038048;stroke-width:1.0;fill:none;"/><text fill="#000000" font-family="sans-serif" font-size="11" lengthAdjust="spacing" textLength="142" x="955" y="555.0898">selfElement : HTMLElement</text><ellipse cx="946" cy="564.4102" rx="3" ry="3" style="stroke:#038048;stroke-width:1.0;fill:none;"/><text fill="#000000" font-family="sans-serif" font-size="11" lengthAdjust="spacing" textLength="88" x="955" y="568.0449">uniqueId : string</text><ellipse cx="946" cy="577.3652" rx="3" ry="3" style="stroke:#038048;stroke-width:1.0;fill:none;"/><text fill="#000000" font-family="sans-serif" font-size="11" lengthAdjust="spacing" textLength="86" x="955" y="581">widgetId : string</text><line style="stroke:#272B30;stroke-width:1.5;" x1="936" x2="1337" y1="587.3203" y2="587.3203"/><ellipse cx="946" cy="598.3203" fill="#84BE84" rx="3" ry="3" style="stroke:#038048;stroke-width:1.0;"/><text fill="#000000" font-family="sans-serif" font-size="11" lengthAdjust="spacing" textLength="308" x="955" y="601.9551">beNotifiedByChild(childId: string, notifiedTo: string) : void</text><ellipse cx="946" cy="611.2754" fill="#84BE84" rx="3" ry="3" style="stroke:#038048;stroke-width:1.0;"/><text fill="#000000" font-family="sans-serif" font-size="11" lengthAdjust="spacing" textLength="67" x="955" y="614.9102">build() : void</text><ellipse cx="946" cy="624.2305" fill="#84BE84" rx="3" ry="3" style="stroke:#038048;stroke-width:1.0;"/><text fill="#000000" font-family="sans-serif" font-size="11" lengthAdjust="spacing" textLength="377" x="955" y="627.8652">changeProperty(propertyName: string, propertyValue: unknown) : void</text><ellipse cx="946" cy="637.1855" fill="#84BE84" rx="3" ry="3" style="stroke:#038048;stroke-width:1.0;"/><text fill="#000000" font-family="sans-serif" font-size="11" lengthAdjust="spacing" textLength="82" x="955" y="640.8203">dispose() : void</text><ellipse cx="946" cy="650.1406" fill="#84BE84" rx="3" ry="3" style="stroke:#038048;stroke-width:1.0;"/><text fill="#000000" font-family="sans-serif" font-size="11" lengthAdjust="spacing" textLength="168" x="955" y="653.7754">equalsToID(id: string) : boolean</text><!--MD5=[13c86079cb4dd3326799044bc147a982]
class ITabs--><rect codeLine="78" fill="#FFFFFF" filter="url(#flge5akr69zol)" height="203.4609" id="ITabs" style="stroke:#272B30;stroke-width:1.5;" width="657" x="1373" y="476.5"/><ellipse cx="1681.25" cy="492.5" fill="#B4A7E5" rx="11" ry="11" style="stroke:#272B30;stroke-width:1.0;"/><path d="M1677.6777,488.7651 L1677.6777,486.6069 L1685.0571,486.6069 L1685.0571,488.7651 L1682.5918,488.7651 L1682.5918,496.8418 L1685.0571,496.8418 L1685.0571,499 L1677.6777,499 L1677.6777,496.8418 L1680.1431,496.8418 L1680.1431,488.7651 Z " fill="#000000"/><text fill="#000000" font-family="sans-serif" font-size="12" font-style="italic" lengthAdjust="spacing" textLength="32" x="1701.75" y="497.0352">ITabs</text><line style="stroke:#272B30;stroke-width:1.5;" x1="1374" x2="2029" y1="508.5" y2="508.5"/><ellipse cx="1384" cy="519.5" rx="3" ry="3" style="stroke:#038048;stroke-width:1.0;fill:none;"/><text fill="#000000" font-family="sans-serif" font-size="11" lengthAdjust="spacing" textLength="84" x="1393" y="523.1348">isBuilt : boolean</text><ellipse cx="1384" cy="532.4551" rx="3" ry="3" style="stroke:#038048;stroke-width:1.0;fill:none;"/><text fill="#000000" font-family="sans-serif" font-size="11" lengthAdjust="spacing" textLength="142" x="1393" y="536.0898">selfElement : HTMLElement</text><ellipse cx="1384" cy="545.4102" rx="3" ry="3" style="stroke:#038048;stroke-width:1.0;fill:none;"/><text fill="#000000" font-family="sans-serif" font-size="11" lengthAdjust="spacing" textLength="88" x="1393" y="549.0449">uniqueId : string</text><ellipse cx="1384" cy="558.3652" rx="3" ry="3" style="stroke:#038048;stroke-width:1.0;fill:none;"/><text fill="#000000" font-family="sans-serif" font-size="11" lengthAdjust="spacing" textLength="86" x="1393" y="562">widgetId : string</text><line style="stroke:#272B30;stroke-width:1.5;" x1="1374" x2="2029" y1="568.3203" y2="568.3203"/><ellipse cx="1384" cy="579.3203" fill="#84BE84" rx="3" ry="3" style="stroke:#038048;stroke-width:1.0;"/><text fill="#000000" font-family="sans-serif" font-size="11" lengthAdjust="spacing" textLength="308" x="1393" y="582.9551">beNotifiedByChild(childId: string, notifiedTo: string) : void</text><ellipse cx="1384" cy="592.2754" fill="#84BE84" rx="3" ry="3" style="stroke:#038048;stroke-width:1.0;"/><text fill="#000000" font-family="sans-serif" font-size="11" lengthAdjust="spacing" textLength="67" x="1393" y="595.9102">build() : void</text><ellipse cx="1384" cy="605.2305" fill="#84BE84" rx="3" ry="3" style="stroke:#038048;stroke-width:1.0;"/><text fill="#000000" font-family="sans-serif" font-size="11" lengthAdjust="spacing" textLength="377" x="1393" y="608.8652">changeProperty(propertyName: string, propertyValue: unknown) : void</text><ellipse cx="1384" cy="618.1855" fill="#84BE84" rx="3" ry="3" style="stroke:#038048;stroke-width:1.0;"/><text fill="#000000" font-family="sans-serif" font-size="11" lengthAdjust="spacing" textLength="631" x="1393" y="621.8203">changeTab(tabIndex: number, tabsHeaderItem: ITabsHeaderItem, blockObserver: boolean, triggerEvent: boolean) : any</text><ellipse cx="1384" cy="631.1406" fill="#84BE84" rx="3" ry="3" style="stroke:#038048;stroke-width:1.0;"/><text fill="#000000" font-family="sans-serif" font-size="11" lengthAdjust="spacing" textLength="82" x="1393" y="634.7754">dispose() : void</text><ellipse cx="1384" cy="644.0957" fill="#84BE84" rx="3" ry="3" style="stroke:#038048;stroke-width:1.0;"/><text fill="#000000" font-family="sans-serif" font-size="11" lengthAdjust="spacing" textLength="168" x="1393" y="647.7305">equalsToID(id: string) : boolean</text><ellipse cx="1384" cy="657.0508" fill="#84BE84" rx="3" ry="3" style="stroke:#038048;stroke-width:1.0;"/><text fill="#000000" font-family="sans-serif" font-size="11" lengthAdjust="spacing" textLength="232" x="1393" y="660.6855">registerCallback(callback: OSGeneric) : void</text><ellipse cx="1384" cy="670.0059" fill="#84BE84" rx="3" ry="3" style="stroke:#038048;stroke-width:1.0;"/><text fill="#000000" font-family="sans-serif" font-size="11" lengthAdjust="spacing" textLength="287" x="1393" y="673.6406">toggleDragGestures(addDragGestures: boolean) : any</text><!--MD5=[378567babf45b7364234d6ae39aec5e1]
class AbstractParent<C, CT>--><rect codeLine="93" fill="#FFFFFF" filter="url(#flge5akr69zol)" height="255.2813" id="AbstractParent&lt;C, CT&gt;" style="stroke:#272B30;stroke-width:1.5;" width="403" x="2065" y="450.5"/><ellipse cx="2193.75" cy="466.5" fill="#A9DCDF" rx="11" ry="11" style="stroke:#272B30;stroke-width:1.0;"/><path d="M2193.6133,461.8481 L2192.4595,466.9199 L2194.7754,466.9199 Z M2192.1191,459.6069 L2195.1157,459.6069 L2198.4609,472 L2196.0122,472 L2195.2485,468.937 L2191.9697,468.937 L2191.2227,472 L2188.7739,472 Z " fill="#000000"/><text fill="#000000" font-family="sans-serif" font-size="12" font-style="italic" lengthAdjust="spacing" textLength="137" x="2214.25" y="471.0352">AbstractParent&lt;C, CT&gt;</text><line style="stroke:#272B30;stroke-width:1.5;" x1="2066" x2="2467" y1="482.5" y2="482.5"/><polygon fill="none" points="2076,488.5,2080,492.5,2076,496.5,2072,492.5" style="stroke:#B38D22;stroke-width:1.0;"/><text fill="#000000" font-family="sans-serif" font-size="11" lengthAdjust="spacing" textLength="131" x="2085" y="497.1348">_selfElem : HTMLElement</text><polygon fill="none" points="2076,501.4551,2080,505.4551,2076,509.4551,2072,505.4551" style="stroke:#B38D22;stroke-width:1.0;"/><text fill="#000000" font-family="sans-serif" font-size="11" lengthAdjust="spacing" textLength="92" x="2085" y="510.0898">_widgetId : string</text><rect fill="none" height="6" style="stroke:#C82930;stroke-width:1.0;" width="6" x="2073" y="516.4102"/><text fill="#000000" font-family="sans-serif" font-size="11" lengthAdjust="spacing" textLength="205" x="2085" y="523.0449">_childIdsByType : Map&lt;string, string&gt;</text><rect fill="none" height="6" style="stroke:#C82930;stroke-width:1.0;" width="6" x="2073" y="529.3652"/><text fill="#000000" font-family="sans-serif" font-size="11" lengthAdjust="spacing" textLength="143" x="2085" y="536">_childItemsByType : Object</text><line style="stroke:#272B30;stroke-width:1.5;" x1="2066" x2="2467" y1="542.3203" y2="542.3203"/><ellipse cx="2076" cy="553.3203" fill="#84BE84" rx="3" ry="3" style="stroke:#038048;stroke-width:1.0;"/><text fill="#000000" font-family="sans-serif" font-size="11" font-style="italic" lengthAdjust="spacing" textLength="308" x="2085" y="556.9551">beNotifiedByChild(childId: string, notifiedTo: string) : void</text><ellipse cx="2076" cy="566.2754" fill="#84BE84" rx="3" ry="3" style="stroke:#038048;stroke-width:1.0;"/><text fill="#000000" font-family="sans-serif" font-size="11" lengthAdjust="spacing" textLength="67" x="2085" y="569.9102">build() : void</text><ellipse cx="2076" cy="579.2305" fill="#84BE84" rx="3" ry="3" style="stroke:#038048;stroke-width:1.0;"/><text fill="#000000" font-family="sans-serif" font-size="11" lengthAdjust="spacing" textLength="377" x="2085" y="582.8652">changeProperty(propertyName: string, propertyValue: unknown) : void</text><ellipse cx="2076" cy="592.1855" fill="#84BE84" rx="3" ry="3" style="stroke:#038048;stroke-width:1.0;"/><text fill="#000000" font-family="sans-serif" font-size="11" lengthAdjust="spacing" textLength="82" x="2085" y="595.8203">dispose() : void</text><ellipse cx="2076" cy="605.1406" fill="#84BE84" rx="3" ry="3" style="stroke:#038048;stroke-width:1.0;"/><text fill="#000000" font-family="sans-serif" font-size="11" lengthAdjust="spacing" textLength="207" x="2085" y="608.7754">equalsToID(patternId: string) : boolean</text><ellipse cx="2076" cy="618.0957" fill="#84BE84" rx="3" ry="3" style="stroke:#038048;stroke-width:1.0;"/><text fill="#000000" font-family="sans-serif" font-size="11" lengthAdjust="spacing" textLength="175" x="2085" y="621.7305">getChildItems(type: string) : CT[]</text><polygon fill="#FFFF44" points="2076,626.0508,2080,630.0508,2076,634.0508,2072,630.0508" style="stroke:#B38D22;stroke-width:1.0;"/><text fill="#000000" font-family="sans-serif" font-size="11" lengthAdjust="spacing" textLength="96" x="2085" y="634.6855">finishBuild() : void</text><polygon fill="#FFFF44" points="2076,639.0059,2080,643.0059,2076,647.0059,2072,643.0059" style="stroke:#B38D22;stroke-width:1.0;"/><text fill="#000000" font-family="sans-serif" font-size="11" lengthAdjust="spacing" textLength="151" x="2085" y="647.6406">getChild(childId: string) : CT</text><polygon fill="#FFFF44" points="2076,651.9609,2080,655.9609,2076,659.9609,2072,655.9609" style="stroke:#B38D22;stroke-width:1.0;"/><text fill="#000000" font-family="sans-serif" font-size="11" lengthAdjust="spacing" textLength="293" x="2085" y="660.5957">getChildByIndex(index: number, childType: string) : CT</text><polygon fill="#FFFF44" points="2076,664.916,2080,668.916,2076,672.916,2072,668.916" style="stroke:#B38D22;stroke-width:1.0;"/><text fill="#000000" font-family="sans-serif" font-size="11" lengthAdjust="spacing" textLength="208" x="2085" y="673.5508">getChildIndex(childId: string) : number</text><polygon fill="#FFFF44" points="2076,677.8711,2080,681.8711,2076,685.8711,2072,681.8711" style="stroke:#B38D22;stroke-width:1.0;"/><text fill="#000000" font-family="sans-serif" font-size="11" lengthAdjust="spacing" textLength="234" x="2085" y="686.5059">setChild(childId: string, childItem: CT) : void</text><polygon fill="#FFFF44" points="2076,690.8262,2080,694.8262,2076,698.8262,2072,694.8262" style="stroke:#B38D22;stroke-width:1.0;"/><text fill="#000000" font-family="sans-serif" font-size="11" lengthAdjust="spacing" textLength="172" x="2085" y="699.4609">unsetChild(childId: string) : void</text><!--MD5=[2bbab9a2909cc1d44c87e04e86b4d2a6]
reverse link IPattern to IParent--><path codeLine="28" d="M1136.5,179.45 C1136.5,192.6 1136.5,206 1136.5,218.87 " fill="none" id="IPattern-backto-IParent" style="stroke:#272B30;stroke-width:1.0;"/><polygon fill="none" points="1129.5,179.11,1136.5,159.11,1143.5,179.11,1129.5,179.11" style="stroke:#272B30;stroke-width:1.0;"/><!--MD5=[6764433b21c380b4d77c558b71698d28]
reverse link IParent to IAccordion--><path codeLine="45" d="M915.17,328.49 C775.96,349.44 594.37,385.34 441.5,444 C426.73,449.67 411.8,456.25 397.04,463.39 " fill="none" id="IParent-backto-IAccordion" style="stroke:#272B30;stroke-width:1.0;"/><polygon fill="none" points="914.15,321.56,934.96,325.56,916.2,335.41,914.15,321.56" style="stroke:#272B30;stroke-width:1.0;"/><!--MD5=[23777b7ff3020f281fe8edb25118c51b]
reverse link IParent to IDropdownServerSide--><path codeLine="65" d="M983.2,394.58 C956.32,410.73 927.87,427.82 899.59,444.8 " fill="none" id="IParent-backto-IDropdownServerSide" style="stroke:#272B30;stroke-width:1.0;"/><polygon fill="none" points="979.87,388.41,1000.62,384.12,987.08,400.41,979.87,388.41" style="stroke:#272B30;stroke-width:1.0;"/><!--MD5=[f8cbeeb5224dbe028dfc4d5bf37196ff]
reverse link IParent to ISectionIndex--><path codeLine="77" d="M1136.5,404.39 C1136.5,434.34 1136.5,466.7 1136.5,495.22 " fill="none" id="IParent-backto-ISectionIndex" style="stroke:#272B30;stroke-width:1.0;"/><polygon fill="none" points="1129.5,404.12,1136.5,384.12,1143.5,404.12,1129.5,404.12" style="stroke:#272B30;stroke-width:1.0;"/><!--MD5=[240853663f07bd5ab0f50c7dad26db68]
reverse link IParent to ITabs--><path codeLine="92" d="M1322.56,392.89 C1377.65,419.66 1438.31,449.13 1494.64,476.5 " fill="none" id="IParent-backto-ITabs" style="stroke:#272B30;stroke-width:1.0;"/><polygon fill="none" points="1319.42,399.15,1304.49,384.12,1325.54,386.56,1319.42,399.15" style="stroke:#272B30;stroke-width:1.0;"/><!--MD5=[d32823dad4b5aeded4983a199a42597f]
reverse link IParent to AbstractParent<C, CT>--><path codeLine="111" d="M1358.24,312.74 C1546.52,327.08 1821.37,361.47 2047.5,444 C2053.25,446.1 2059.01,448.35 2064.76,450.74 " fill="none" id="IParent-backto-AbstractParent&lt;C, CT&gt;" style="stroke:#272B30;stroke-width:1.0;stroke-dasharray:7.0,7.0;"/><polygon fill="none" points="1357.44,319.7,1338.01,311.25,1358.46,305.74,1357.44,319.7" style="stroke:#272B30;stroke-width:1.0;"/><!--MD5=[af24e058c8580c76cee6783719a1024f]
@startuml
skinparam ClassArrowColor #272b30
skinparam ClassBorderColor #272b30
skinparam ClassBackgroundColor #fff
skinparam BackgroundColor #ced4da
hide empty methods
hide empty fields
interface "IParent" {
    +isBuilt : boolean
    +selfElement : HTMLElement
    +uniqueId : string
    +widgetId : string
    +beNotifiedByChild(childId: string, notifiedTo: string) : void
    +build() : void
    +changeProperty(propertyName: string, propertyValue: unknown) : void
    +dispose() : void
    +equalsToID(id: string) : boolean
}
interface "IPattern" {
    +isBuilt : boolean
    +selfElement : HTMLElement
    +uniqueId : string
    +widgetId : string
    +build() : void
    +changeProperty(propertyName: string, propertyValue: unknown) : void
    +dispose() : void
    +equalsToID(id: string) : boolean
}
"IPattern" <|- - "IParent"
interface "IAccordion" {
    +isBuilt : boolean
    +selfElement : HTMLElement
    +uniqueId : string
    +widgetId : string
    +addAccordionItem(uniqueId: string, accordionItem: IAccordionItem) : any
    +beNotifiedByChild(childId: string, notifiedTo: string) : void
    +build() : void
    +changeProperty(propertyName: string, propertyValue: unknown) : void
    +collapseAllItems() : any
    +dispose() : void
    +equalsToID(id: string) : boolean
    +expandAllItems() : any
    +removeAccordionItem(uniqueId: string) : any
    +triggerAccordionItemClose(accordionItemId: string) : any
}
"IParent" <|- - "IAccordion"
interface "IDropdownServerSide" {
    +isBuilt : boolean
    +selfElement : HTMLElement
    +uniqueId : string
    +widgetId : string
    +beNotifiedByChild(childId: string, notifiedTo: string) : void
    +build() : void
    +changeProperty(propertyName: string, propertyValue: unknown) : void
    +clear() : void
    +disable() : void
    +dispose() : void
    +enable() : void
    +equalsToID(id: string) : boolean
    +getSelectedValues() : string
    +setProviderConfigs(providerConfigs: any) : void
    +setProviderEvent(eventName: string, callback: Generic, uniqueId: string) : void
    +unsetProviderEvent(eventId: string) : void
    +validation(isValid: boolean, validationMessage: string) : void
}
"IParent" <|- - "IDropdownServerSide"
interface "ISectionIndex" {
    +isBuilt : boolean
    +selfElement : HTMLElement
    +uniqueId : string
    +widgetId : string
    +beNotifiedByChild(childId: string, notifiedTo: string) : void
    +build() : void
    +changeProperty(propertyName: string, propertyValue: unknown) : void
    +dispose() : void
    +equalsToID(id: string) : boolean
}
"IParent" <|- - "ISectionIndex"
interface "ITabs" {
    +isBuilt : boolean
    +selfElement : HTMLElement
    +uniqueId : string
    +widgetId : string
    +beNotifiedByChild(childId: string, notifiedTo: string) : void
    +build() : void
    +changeProperty(propertyName: string, propertyValue: unknown) : void
    +changeTab(tabIndex: number, tabsHeaderItem: ITabsHeaderItem, blockObserver: boolean, triggerEvent: boolean) : any
    +dispose() : void
    +equalsToID(id: string) : boolean
    +registerCallback(callback: OSGeneric) : void
    +toggleDragGestures(addDragGestures: boolean) : any
}
"IParent" <|- - "ITabs"
abstract class "AbstractParent<C, CT>" {
    #_selfElem : HTMLElement
    #_widgetId : string
    -_childIdsByType : Map<string, string>
    -_childItemsByType : Object
    {abstract} +beNotifiedByChild(childId: string, notifiedTo: string) : void
    +build() : void
    +changeProperty(propertyName: string, propertyValue: unknown) : void
    +dispose() : void
    +equalsToID(patternId: string) : boolean
    +getChildItems(type: string) : CT[]
    #finishBuild() : void
    #getChild(childId: string) : CT
    #getChildByIndex(index: number, childType: string) : CT
    #getChildIndex(childId: string) : number
    #setChild(childId: string, childItem: CT) : void
    #unsetChild(childId: string) : void
}
"IParent" <|.. "AbstractParent<C, CT>"
@enduml

PlantUML version 1.2021.14(Fri Nov 12 16:46:50 WET 2021)
(GPL source distribution)
Java Runtime: Java(TM) SE Runtime Environment
JVM: Java HotSpot(TM) 64-Bit Server VM
Default Encoding: UTF-8
Language: en
Country: PT
--></g></svg>