<?xml version="1.0" encoding="UTF-8" standalone="no"?><svg xmlns="http://www.w3.org/2000/svg" xmlns:xlink="http://www.w3.org/1999/xlink" contentScriptType="application/ecmascript" contentStyleType="text/css" height="745px" preserveAspectRatio="none" style="width:2798px;height:745px;background:#CED4DA;" version="1.1" viewBox="0 0 2798 745" width="2798px" zoomAndPan="magnify"><defs><filter height="300%" id="f18m88ncda03sw" width="300%" x="-1" y="-1"><feGaussianBlur result="blurOut" stdDeviation="2.0"/><feColorMatrix in="blurOut" result="blurOut2" type="matrix" values="0 0 0 0 0 0 0 0 0 0 0 0 0 0 0 0 0 0 .4 0"/><feOffset dx="4.0" dy="4.0" in="blurOut2" result="blurOut3"/><feBlend in="SourceGraphic" in2="blurOut3" mode="normal"/></filter></defs><g><!--MD5=[41c08e7a09cbc7135e3cebcc45b1c6e6]
class IParent--><rect codeLine="7" fill="#FFFFFF" filter="url(#f18m88ncda03sw)" height="163.2422" id="IParent" style="stroke:#272B30;stroke-width:1.5;" width="425" x="975" y="217"/><ellipse cx="1160.75" cy="233" fill="#B4A7E5" rx="11" ry="11" style="stroke:#272B30;stroke-width:1.0;"/><path d="M1156.6719,228.7656 L1156.6719,226.6094 L1164.0625,226.6094 L1164.0625,228.7656 L1161.5938,228.7656 L1161.5938,236.8438 L1164.0625,236.8438 L1164.0625,239 L1156.6719,239 L1156.6719,236.8438 L1159.1406,236.8438 L1159.1406,228.7656 L1156.6719,228.7656 Z " fill="#000000"/><text fill="#000000" font-family="sans-serif" font-size="12" font-style="italic" lengthAdjust="spacing" textLength="45" x="1181.25" y="237.1543">IParent</text><line style="stroke:#272B30;stroke-width:1.5;" x1="976" x2="1399" y1="249" y2="249"/><ellipse cx="986" cy="260" rx="3" ry="3" style="stroke:#038048;stroke-width:1.0;fill:none;"/><text fill="#000000" font-family="sans-serif" font-size="11" lengthAdjust="spacing" textLength="92" x="995" y="263.2104">isBuilt : boolean</text><ellipse cx="986" cy="272.8047" rx="3" ry="3" style="stroke:#038048;stroke-width:1.0;fill:none;"/><text fill="#000000" font-family="sans-serif" font-size="11" lengthAdjust="spacing" textLength="155" x="995" y="276.0151">selfElement : HTMLElement</text><ellipse cx="986" cy="285.6094" rx="3" ry="3" style="stroke:#038048;stroke-width:1.0;fill:none;"/><text fill="#000000" font-family="sans-serif" font-size="11" lengthAdjust="spacing" textLength="93" x="995" y="288.8198">uniqueId : string</text><ellipse cx="986" cy="298.4141" rx="3" ry="3" style="stroke:#038048;stroke-width:1.0;fill:none;"/><text fill="#000000" font-family="sans-serif" font-size="11" lengthAdjust="spacing" textLength="92" x="995" y="301.6245">widgetId : string</text><line style="stroke:#272B30;stroke-width:1.5;" x1="976" x2="1399" y1="308.2188" y2="308.2188"/><ellipse cx="986" cy="319.2188" fill="#84BE84" rx="3" ry="3" style="stroke:#038048;stroke-width:1.0;"/><text fill="#000000" font-family="sans-serif" font-size="11" lengthAdjust="spacing" textLength="337" x="995" y="322.4292">beNotifiedByChild(childItem: IChild, notifiedTo: string) : void</text><ellipse cx="986" cy="332.0234" fill="#84BE84" rx="3" ry="3" style="stroke:#038048;stroke-width:1.0;"/><text fill="#000000" font-family="sans-serif" font-size="11" lengthAdjust="spacing" textLength="70" x="995" y="335.2339">build() : void</text><ellipse cx="986" cy="344.8281" fill="#84BE84" rx="3" ry="3" style="stroke:#038048;stroke-width:1.0;"/><text fill="#000000" font-family="sans-serif" font-size="11" lengthAdjust="spacing" textLength="399" x="995" y="348.0386">changeProperty(propertyName: string, propertyValue: unknown) : void</text><ellipse cx="986" cy="357.6328" fill="#84BE84" rx="3" ry="3" style="stroke:#038048;stroke-width:1.0;"/><text fill="#000000" font-family="sans-serif" font-size="11" lengthAdjust="spacing" textLength="88" x="995" y="360.8433">dispose() : void</text><ellipse cx="986" cy="370.4375" fill="#84BE84" rx="3" ry="3" style="stroke:#038048;stroke-width:1.0;"/><text fill="#000000" font-family="sans-serif" font-size="11" lengthAdjust="spacing" textLength="179" x="995" y="373.6479">equalsToID(id: string) : boolean</text><!--MD5=[3266101ea6228889a90c639b28de0501]
class IPattern--><rect codeLine="18" fill="#FFFFFF" filter="url(#f18m88ncda03sw)" height="150.4375" id="IPattern" style="stroke:#272B30;stroke-width:1.5;" width="425" x="975" y="7"/><ellipse cx="1158.25" cy="23" fill="#B4A7E5" rx="11" ry="11" style="stroke:#272B30;stroke-width:1.0;"/><path d="M1154.1719,18.7656 L1154.1719,16.6094 L1161.5625,16.6094 L1161.5625,18.7656 L1159.0938,18.7656 L1159.0938,26.8438 L1161.5625,26.8438 L1161.5625,29 L1154.1719,29 L1154.1719,26.8438 L1156.6406,26.8438 L1156.6406,18.7656 L1154.1719,18.7656 Z " fill="#000000"/><text fill="#000000" font-family="sans-serif" font-size="12" font-style="italic" lengthAdjust="spacing" textLength="50" x="1178.75" y="27.1543">IPattern</text><line style="stroke:#272B30;stroke-width:1.5;" x1="976" x2="1399" y1="39" y2="39"/><ellipse cx="986" cy="50" rx="3" ry="3" style="stroke:#038048;stroke-width:1.0;fill:none;"/><text fill="#000000" font-family="sans-serif" font-size="11" lengthAdjust="spacing" textLength="92" x="995" y="53.2104">isBuilt : boolean</text><ellipse cx="986" cy="62.8047" rx="3" ry="3" style="stroke:#038048;stroke-width:1.0;fill:none;"/><text fill="#000000" font-family="sans-serif" font-size="11" lengthAdjust="spacing" textLength="155" x="995" y="66.0151">selfElement : HTMLElement</text><ellipse cx="986" cy="75.6094" rx="3" ry="3" style="stroke:#038048;stroke-width:1.0;fill:none;"/><text fill="#000000" font-family="sans-serif" font-size="11" lengthAdjust="spacing" textLength="93" x="995" y="78.8198">uniqueId : string</text><ellipse cx="986" cy="88.4141" rx="3" ry="3" style="stroke:#038048;stroke-width:1.0;fill:none;"/><text fill="#000000" font-family="sans-serif" font-size="11" lengthAdjust="spacing" textLength="92" x="995" y="91.6245">widgetId : string</text><line style="stroke:#272B30;stroke-width:1.5;" x1="976" x2="1399" y1="98.2188" y2="98.2188"/><ellipse cx="986" cy="109.2188" fill="#84BE84" rx="3" ry="3" style="stroke:#038048;stroke-width:1.0;"/><text fill="#000000" font-family="sans-serif" font-size="11" lengthAdjust="spacing" textLength="70" x="995" y="112.4292">build() : void</text><ellipse cx="986" cy="122.0234" fill="#84BE84" rx="3" ry="3" style="stroke:#038048;stroke-width:1.0;"/><text fill="#000000" font-family="sans-serif" font-size="11" lengthAdjust="spacing" textLength="399" x="995" y="125.2339">changeProperty(propertyName: string, propertyValue: unknown) : void</text><ellipse cx="986" cy="134.8281" fill="#84BE84" rx="3" ry="3" style="stroke:#038048;stroke-width:1.0;"/><text fill="#000000" font-family="sans-serif" font-size="11" lengthAdjust="spacing" textLength="88" x="995" y="138.0386">dispose() : void</text><ellipse cx="986" cy="147.6328" fill="#84BE84" rx="3" ry="3" style="stroke:#038048;stroke-width:1.0;"/><text fill="#000000" font-family="sans-serif" font-size="11" lengthAdjust="spacing" textLength="179" x="995" y="150.8433">equalsToID(id: string) : boolean</text><!--MD5=[c1e444593d623e412a9e24ba5a15f734]
class IAccordion--><rect codeLine="29" fill="#FFFFFF" filter="url(#f18m88ncda03sw)" height="227.2656" id="IAccordion" style="stroke:#272B30;stroke-width:1.5;" width="425" x="7" y="472"/><ellipse cx="182.25" cy="488" fill="#B4A7E5" rx="11" ry="11" style="stroke:#272B30;stroke-width:1.0;"/><path d="M178.1719,483.7656 L178.1719,481.6094 L185.5625,481.6094 L185.5625,483.7656 L183.0938,483.7656 L183.0938,491.8438 L185.5625,491.8438 L185.5625,494 L178.1719,494 L178.1719,491.8438 L180.6406,491.8438 L180.6406,483.7656 L178.1719,483.7656 Z " fill="#000000"/><text fill="#000000" font-family="sans-serif" font-size="12" font-style="italic" lengthAdjust="spacing" textLength="66" x="202.75" y="492.1543">IAccordion</text><line style="stroke:#272B30;stroke-width:1.5;" x1="8" x2="431" y1="504" y2="504"/><ellipse cx="18" cy="515" rx="3" ry="3" style="stroke:#038048;stroke-width:1.0;fill:none;"/><text fill="#000000" font-family="sans-serif" font-size="11" lengthAdjust="spacing" textLength="92" x="27" y="518.2104">isBuilt : boolean</text><ellipse cx="18" cy="527.8047" rx="3" ry="3" style="stroke:#038048;stroke-width:1.0;fill:none;"/><text fill="#000000" font-family="sans-serif" font-size="11" lengthAdjust="spacing" textLength="155" x="27" y="531.0151">selfElement : HTMLElement</text><ellipse cx="18" cy="540.6094" rx="3" ry="3" style="stroke:#038048;stroke-width:1.0;fill:none;"/><text fill="#000000" font-family="sans-serif" font-size="11" lengthAdjust="spacing" textLength="93" x="27" y="543.8198">uniqueId : string</text><ellipse cx="18" cy="553.4141" rx="3" ry="3" style="stroke:#038048;stroke-width:1.0;fill:none;"/><text fill="#000000" font-family="sans-serif" font-size="11" lengthAdjust="spacing" textLength="92" x="27" y="556.6245">widgetId : string</text><line style="stroke:#272B30;stroke-width:1.5;" x1="8" x2="431" y1="563.2188" y2="563.2188"/><ellipse cx="18" cy="574.2188" fill="#84BE84" rx="3" ry="3" style="stroke:#038048;stroke-width:1.0;"/><text fill="#000000" font-family="sans-serif" font-size="11" lengthAdjust="spacing" textLength="312" x="27" y="577.4292">addAccordionItem(accordionItem: IAccordionItem) : any</text><ellipse cx="18" cy="587.0234" fill="#84BE84" rx="3" ry="3" style="stroke:#038048;stroke-width:1.0;"/><text fill="#000000" font-family="sans-serif" font-size="11" lengthAdjust="spacing" textLength="337" x="27" y="590.2339">beNotifiedByChild(childItem: IChild, notifiedTo: string) : void</text><ellipse cx="18" cy="599.8281" fill="#84BE84" rx="3" ry="3" style="stroke:#038048;stroke-width:1.0;"/><text fill="#000000" font-family="sans-serif" font-size="11" lengthAdjust="spacing" textLength="70" x="27" y="603.0386">build() : void</text><ellipse cx="18" cy="612.6328" fill="#84BE84" rx="3" ry="3" style="stroke:#038048;stroke-width:1.0;"/><text fill="#000000" font-family="sans-serif" font-size="11" lengthAdjust="spacing" textLength="399" x="27" y="615.8433">changeProperty(propertyName: string, propertyValue: unknown) : void</text><ellipse cx="18" cy="625.4375" fill="#84BE84" rx="3" ry="3" style="stroke:#038048;stroke-width:1.0;"/><text fill="#000000" font-family="sans-serif" font-size="11" lengthAdjust="spacing" textLength="132" x="27" y="628.6479">collapseAllItems() : any</text><ellipse cx="18" cy="638.2422" fill="#84BE84" rx="3" ry="3" style="stroke:#038048;stroke-width:1.0;"/><text fill="#000000" font-family="sans-serif" font-size="11" lengthAdjust="spacing" textLength="88" x="27" y="641.4526">dispose() : void</text><ellipse cx="18" cy="651.0469" fill="#84BE84" rx="3" ry="3" style="stroke:#038048;stroke-width:1.0;"/><text fill="#000000" font-family="sans-serif" font-size="11" lengthAdjust="spacing" textLength="179" x="27" y="654.2573">equalsToID(id: string) : boolean</text><ellipse cx="18" cy="663.8516" fill="#84BE84" rx="3" ry="3" style="stroke:#038048;stroke-width:1.0;"/><text fill="#000000" font-family="sans-serif" font-size="11" lengthAdjust="spacing" textLength="126" x="27" y="667.062">expandAllItems() : any</text><ellipse cx="18" cy="676.6563" fill="#84BE84" rx="3" ry="3" style="stroke:#038048;stroke-width:1.0;"/><text fill="#000000" font-family="sans-serif" font-size="11" lengthAdjust="spacing" textLength="252" x="27" y="679.8667">removeAccordionItem(uniqueId: string) : any</text><ellipse cx="18" cy="689.4609" fill="#84BE84" rx="3" ry="3" style="stroke:#038048;stroke-width:1.0;"/><text fill="#000000" font-family="sans-serif" font-size="11" lengthAdjust="spacing" textLength="321" x="27" y="692.6714">triggerAccordionItemClose(accordionItemId: string) : any</text><!--MD5=[aa2b4abb94c8a809bbbca83a22100b52]
class IDropdownServerSide--><rect codeLine="46" fill="#FFFFFF" filter="url(#f18m88ncda03sw)" height="265.6797" id="IDropdownServerSide" style="stroke:#272B30;stroke-width:1.5;" width="472" x="467.5" y="452.5"/><ellipse cx="631.75" cy="468.5" fill="#B4A7E5" rx="11" ry="11" style="stroke:#272B30;stroke-width:1.0;"/><path d="M627.6719,464.2656 L627.6719,462.1094 L635.0625,462.1094 L635.0625,464.2656 L632.5938,464.2656 L632.5938,472.3438 L635.0625,472.3438 L635.0625,474.5 L627.6719,474.5 L627.6719,472.3438 L630.1406,472.3438 L630.1406,464.2656 L627.6719,464.2656 Z " fill="#000000"/><text fill="#000000" font-family="sans-serif" font-size="12" font-style="italic" lengthAdjust="spacing" textLength="135" x="652.25" y="472.6543">IDropdownServerSide</text><line style="stroke:#272B30;stroke-width:1.5;" x1="468.5" x2="938.5" y1="484.5" y2="484.5"/><ellipse cx="478.5" cy="495.5" rx="3" ry="3" style="stroke:#038048;stroke-width:1.0;fill:none;"/><text fill="#000000" font-family="sans-serif" font-size="11" lengthAdjust="spacing" textLength="92" x="487.5" y="498.7104">isBuilt : boolean</text><ellipse cx="478.5" cy="508.3047" rx="3" ry="3" style="stroke:#038048;stroke-width:1.0;fill:none;"/><text fill="#000000" font-family="sans-serif" font-size="11" lengthAdjust="spacing" textLength="155" x="487.5" y="511.5151">selfElement : HTMLElement</text><ellipse cx="478.5" cy="521.1094" rx="3" ry="3" style="stroke:#038048;stroke-width:1.0;fill:none;"/><text fill="#000000" font-family="sans-serif" font-size="11" lengthAdjust="spacing" textLength="93" x="487.5" y="524.3198">uniqueId : string</text><ellipse cx="478.5" cy="533.9141" rx="3" ry="3" style="stroke:#038048;stroke-width:1.0;fill:none;"/><text fill="#000000" font-family="sans-serif" font-size="11" lengthAdjust="spacing" textLength="92" x="487.5" y="537.1245">widgetId : string</text><line style="stroke:#272B30;stroke-width:1.5;" x1="468.5" x2="938.5" y1="543.7188" y2="543.7188"/><ellipse cx="478.5" cy="554.7188" fill="#84BE84" rx="3" ry="3" style="stroke:#038048;stroke-width:1.0;"/><text fill="#000000" font-family="sans-serif" font-size="11" lengthAdjust="spacing" textLength="337" x="487.5" y="557.9292">beNotifiedByChild(childItem: IChild, notifiedTo: string) : void</text><ellipse cx="478.5" cy="567.5234" fill="#84BE84" rx="3" ry="3" style="stroke:#038048;stroke-width:1.0;"/><text fill="#000000" font-family="sans-serif" font-size="11" lengthAdjust="spacing" textLength="70" x="487.5" y="570.7339">build() : void</text><ellipse cx="478.5" cy="580.3281" fill="#84BE84" rx="3" ry="3" style="stroke:#038048;stroke-width:1.0;"/><text fill="#000000" font-family="sans-serif" font-size="11" lengthAdjust="spacing" textLength="399" x="487.5" y="583.5386">changeProperty(propertyName: string, propertyValue: unknown) : void</text><ellipse cx="478.5" cy="593.1328" fill="#84BE84" rx="3" ry="3" style="stroke:#038048;stroke-width:1.0;"/><text fill="#000000" font-family="sans-serif" font-size="11" lengthAdjust="spacing" textLength="71" x="487.5" y="596.3433">clear() : void</text><ellipse cx="478.5" cy="605.9375" fill="#84BE84" rx="3" ry="3" style="stroke:#038048;stroke-width:1.0;"/><text fill="#000000" font-family="sans-serif" font-size="11" lengthAdjust="spacing" textLength="84" x="487.5" y="609.1479">disable() : void</text><ellipse cx="478.5" cy="618.7422" fill="#84BE84" rx="3" ry="3" style="stroke:#038048;stroke-width:1.0;"/><text fill="#000000" font-family="sans-serif" font-size="11" lengthAdjust="spacing" textLength="88" x="487.5" y="621.9526">dispose() : void</text><ellipse cx="478.5" cy="631.5469" fill="#84BE84" rx="3" ry="3" style="stroke:#038048;stroke-width:1.0;"/><text fill="#000000" font-family="sans-serif" font-size="11" lengthAdjust="spacing" textLength="81" x="487.5" y="634.7573">enable() : void</text><ellipse cx="478.5" cy="644.3516" fill="#84BE84" rx="3" ry="3" style="stroke:#038048;stroke-width:1.0;"/><text fill="#000000" font-family="sans-serif" font-size="11" lengthAdjust="spacing" textLength="179" x="487.5" y="647.562">equalsToID(id: string) : boolean</text><ellipse cx="478.5" cy="657.1563" fill="#84BE84" rx="3" ry="3" style="stroke:#038048;stroke-width:1.0;"/><text fill="#000000" font-family="sans-serif" font-size="11" lengthAdjust="spacing" textLength="158" x="487.5" y="660.3667">getSelectedValues() : string</text><ellipse cx="478.5" cy="669.9609" fill="#84BE84" rx="3" ry="3" style="stroke:#038048;stroke-width:1.0;"/><text fill="#000000" font-family="sans-serif" font-size="11" lengthAdjust="spacing" textLength="269" x="487.5" y="673.1714">setProviderConfigs(providerConfigs: any) : void</text><ellipse cx="478.5" cy="682.7656" fill="#84BE84" rx="3" ry="3" style="stroke:#038048;stroke-width:1.0;"/><text fill="#000000" font-family="sans-serif" font-size="11" lengthAdjust="spacing" textLength="446" x="487.5" y="685.9761">setProviderEvent(eventName: string, callback: Generic, uniqueId: string) : void</text><ellipse cx="478.5" cy="695.5703" fill="#84BE84" rx="3" ry="3" style="stroke:#038048;stroke-width:1.0;"/><text fill="#000000" font-family="sans-serif" font-size="11" lengthAdjust="spacing" textLength="235" x="487.5" y="698.7808">unsetProviderEvent(eventId: string) : void</text><ellipse cx="478.5" cy="708.375" fill="#84BE84" rx="3" ry="3" style="stroke:#038048;stroke-width:1.0;"/><text fill="#000000" font-family="sans-serif" font-size="11" lengthAdjust="spacing" textLength="341" x="487.5" y="711.5854">validation(isValid: boolean, validationMessage: string) : void</text><!--MD5=[7cbc53f4a164bce5d581ee5c4ee15b97]
class ISectionIndex--><rect codeLine="66" fill="#FFFFFF" filter="url(#f18m88ncda03sw)" height="163.2422" id="ISectionIndex" style="stroke:#272B30;stroke-width:1.5;" width="425" x="975" y="504"/><ellipse cx="1140.25" cy="520" fill="#B4A7E5" rx="11" ry="11" style="stroke:#272B30;stroke-width:1.0;"/><path d="M1136.1719,515.7656 L1136.1719,513.6094 L1143.5625,513.6094 L1143.5625,515.7656 L1141.0938,515.7656 L1141.0938,523.8438 L1143.5625,523.8438 L1143.5625,526 L1136.1719,526 L1136.1719,523.8438 L1138.6406,523.8438 L1138.6406,515.7656 L1136.1719,515.7656 Z " fill="#000000"/><text fill="#000000" font-family="sans-serif" font-size="12" font-style="italic" lengthAdjust="spacing" textLength="86" x="1160.75" y="524.1543">ISectionIndex</text><line style="stroke:#272B30;stroke-width:1.5;" x1="976" x2="1399" y1="536" y2="536"/><ellipse cx="986" cy="547" rx="3" ry="3" style="stroke:#038048;stroke-width:1.0;fill:none;"/><text fill="#000000" font-family="sans-serif" font-size="11" lengthAdjust="spacing" textLength="92" x="995" y="550.2104">isBuilt : boolean</text><ellipse cx="986" cy="559.8047" rx="3" ry="3" style="stroke:#038048;stroke-width:1.0;fill:none;"/><text fill="#000000" font-family="sans-serif" font-size="11" lengthAdjust="spacing" textLength="155" x="995" y="563.0151">selfElement : HTMLElement</text><ellipse cx="986" cy="572.6094" rx="3" ry="3" style="stroke:#038048;stroke-width:1.0;fill:none;"/><text fill="#000000" font-family="sans-serif" font-size="11" lengthAdjust="spacing" textLength="93" x="995" y="575.8198">uniqueId : string</text><ellipse cx="986" cy="585.4141" rx="3" ry="3" style="stroke:#038048;stroke-width:1.0;fill:none;"/><text fill="#000000" font-family="sans-serif" font-size="11" lengthAdjust="spacing" textLength="92" x="995" y="588.6245">widgetId : string</text><line style="stroke:#272B30;stroke-width:1.5;" x1="976" x2="1399" y1="595.2188" y2="595.2188"/><ellipse cx="986" cy="606.2188" fill="#84BE84" rx="3" ry="3" style="stroke:#038048;stroke-width:1.0;"/><text fill="#000000" font-family="sans-serif" font-size="11" lengthAdjust="spacing" textLength="337" x="995" y="609.4292">beNotifiedByChild(childItem: IChild, notifiedTo: string) : void</text><ellipse cx="986" cy="619.0234" fill="#84BE84" rx="3" ry="3" style="stroke:#038048;stroke-width:1.0;"/><text fill="#000000" font-family="sans-serif" font-size="11" lengthAdjust="spacing" textLength="70" x="995" y="622.2339">build() : void</text><ellipse cx="986" cy="631.8281" fill="#84BE84" rx="3" ry="3" style="stroke:#038048;stroke-width:1.0;"/><text fill="#000000" font-family="sans-serif" font-size="11" lengthAdjust="spacing" textLength="399" x="995" y="635.0386">changeProperty(propertyName: string, propertyValue: unknown) : void</text><ellipse cx="986" cy="644.6328" fill="#84BE84" rx="3" ry="3" style="stroke:#038048;stroke-width:1.0;"/><text fill="#000000" font-family="sans-serif" font-size="11" lengthAdjust="spacing" textLength="88" x="995" y="647.8433">dispose() : void</text><ellipse cx="986" cy="657.4375" fill="#84BE84" rx="3" ry="3" style="stroke:#038048;stroke-width:1.0;"/><text fill="#000000" font-family="sans-serif" font-size="11" lengthAdjust="spacing" textLength="179" x="995" y="660.6479">equalsToID(id: string) : boolean</text><!--MD5=[13c86079cb4dd3326799044bc147a982]
class ITabs--><rect codeLine="78" fill="#FFFFFF" filter="url(#f18m88ncda03sw)" height="201.6563" id="ITabs" style="stroke:#272B30;stroke-width:1.5;" width="888" x="1435.5" y="484.5"/><ellipse cx="1858.75" cy="500.5" fill="#B4A7E5" rx="11" ry="11" style="stroke:#272B30;stroke-width:1.0;"/><path d="M1854.6719,496.2656 L1854.6719,494.1094 L1862.0625,494.1094 L1862.0625,496.2656 L1859.5938,496.2656 L1859.5938,504.3438 L1862.0625,504.3438 L1862.0625,506.5 L1854.6719,506.5 L1854.6719,504.3438 L1857.1406,504.3438 L1857.1406,496.2656 L1854.6719,496.2656 Z " fill="#000000"/><text fill="#000000" font-family="sans-serif" font-size="12" font-style="italic" lengthAdjust="spacing" textLength="33" x="1879.25" y="504.6543">ITabs</text><line style="stroke:#272B30;stroke-width:1.5;" x1="1436.5" x2="2322.5" y1="516.5" y2="516.5"/><ellipse cx="1446.5" cy="527.5" rx="3" ry="3" style="stroke:#038048;stroke-width:1.0;fill:none;"/><text fill="#000000" font-family="sans-serif" font-size="11" lengthAdjust="spacing" textLength="92" x="1455.5" y="530.7104">isBuilt : boolean</text><ellipse cx="1446.5" cy="540.3047" rx="3" ry="3" style="stroke:#038048;stroke-width:1.0;fill:none;"/><text fill="#000000" font-family="sans-serif" font-size="11" lengthAdjust="spacing" textLength="155" x="1455.5" y="543.5151">selfElement : HTMLElement</text><ellipse cx="1446.5" cy="553.1094" rx="3" ry="3" style="stroke:#038048;stroke-width:1.0;fill:none;"/><text fill="#000000" font-family="sans-serif" font-size="11" lengthAdjust="spacing" textLength="93" x="1455.5" y="556.3198">uniqueId : string</text><ellipse cx="1446.5" cy="565.9141" rx="3" ry="3" style="stroke:#038048;stroke-width:1.0;fill:none;"/><text fill="#000000" font-family="sans-serif" font-size="11" lengthAdjust="spacing" textLength="92" x="1455.5" y="569.1245">widgetId : string</text><line style="stroke:#272B30;stroke-width:1.5;" x1="1436.5" x2="2322.5" y1="575.7188" y2="575.7188"/><ellipse cx="1446.5" cy="586.7188" fill="#84BE84" rx="3" ry="3" style="stroke:#038048;stroke-width:1.0;"/><text fill="#000000" font-family="sans-serif" font-size="11" lengthAdjust="spacing" textLength="337" x="1455.5" y="589.9292">beNotifiedByChild(childItem: IChild, notifiedTo: string) : void</text><ellipse cx="1446.5" cy="599.5234" fill="#84BE84" rx="3" ry="3" style="stroke:#038048;stroke-width:1.0;"/><text fill="#000000" font-family="sans-serif" font-size="11" lengthAdjust="spacing" textLength="70" x="1455.5" y="602.7339">build() : void</text><ellipse cx="1446.5" cy="612.3281" fill="#84BE84" rx="3" ry="3" style="stroke:#038048;stroke-width:1.0;"/><text fill="#000000" font-family="sans-serif" font-size="11" lengthAdjust="spacing" textLength="399" x="1455.5" y="615.5386">changeProperty(propertyName: string, propertyValue: unknown) : void</text><ellipse cx="1446.5" cy="625.1328" fill="#84BE84" rx="3" ry="3" style="stroke:#038048;stroke-width:1.0;"/><text fill="#000000" font-family="sans-serif" font-size="11" lengthAdjust="spacing" textLength="862" x="1455.5" y="628.3433">changeTab(tabIndex: number, tabsHeaderItem: ITabsHeaderItem, blockObserver: boolean, triggerEvent: boolean, triggeredByObserver: boolean) : void</text><ellipse cx="1446.5" cy="637.9375" fill="#84BE84" rx="3" ry="3" style="stroke:#038048;stroke-width:1.0;"/><text fill="#000000" font-family="sans-serif" font-size="11" lengthAdjust="spacing" textLength="88" x="1455.5" y="641.1479">dispose() : void</text><ellipse cx="1446.5" cy="650.7422" fill="#84BE84" rx="3" ry="3" style="stroke:#038048;stroke-width:1.0;"/><text fill="#000000" font-family="sans-serif" font-size="11" lengthAdjust="spacing" textLength="179" x="1455.5" y="653.9526">equalsToID(id: string) : boolean</text><ellipse cx="1446.5" cy="663.5469" fill="#84BE84" rx="3" ry="3" style="stroke:#038048;stroke-width:1.0;"/><text fill="#000000" font-family="sans-serif" font-size="11" lengthAdjust="spacing" textLength="249" x="1455.5" y="666.7573">registerCallback(callback: OSGeneric) : void</text><ellipse cx="1446.5" cy="676.3516" fill="#84BE84" rx="3" ry="3" style="stroke:#038048;stroke-width:1.0;"/><text fill="#000000" font-family="sans-serif" font-size="11" lengthAdjust="spacing" textLength="312" x="1455.5" y="679.562">toggleDragGestures(addDragGestures: boolean) : void</text><!--MD5=[378567babf45b7364234d6ae39aec5e1]
class AbstractParent<C, CT>--><rect codeLine="93" fill="#FFFFFF" filter="url(#f18m88ncda03sw)" height="291.2891" id="AbstractParent&lt;C, CT&gt;" style="stroke:#272B30;stroke-width:1.5;" width="425" x="2359" y="440"/><ellipse cx="2495.25" cy="456" fill="#A9DCDF" rx="11" ry="11" style="stroke:#272B30;stroke-width:1.0;"/><path d="M2495.3594,451.3438 L2494.2031,456.4219 L2496.5313,456.4219 L2495.3594,451.3438 Z M2493.875,449.1094 L2496.8594,449.1094 L2500.2188,461.5 L2497.7656,461.5 L2497,458.4375 L2493.7188,458.4375 L2492.9688,461.5 L2490.5313,461.5 L2493.875,449.1094 Z " fill="#000000"/><text fill="#000000" font-family="sans-serif" font-size="12" font-style="italic" lengthAdjust="spacing" textLength="144" x="2515.75" y="460.1543">AbstractParent&lt;C, CT&gt;</text><line style="stroke:#272B30;stroke-width:1.5;" x1="2360" x2="2783" y1="472" y2="472"/><rect fill="none" height="6" style="stroke:#C82930;stroke-width:1.0;" width="6" x="2367" y="480"/><text fill="#000000" font-family="sans-serif" font-size="11" lengthAdjust="spacing" textLength="217" x="2379" y="486.2104">_childIdsByType : Map&lt;string, string&gt;</text><rect fill="none" height="6" style="stroke:#C82930;stroke-width:1.0;" width="6" x="2367" y="492.8047"/><text fill="#000000" font-family="sans-serif" font-size="11" lengthAdjust="spacing" textLength="153" x="2379" y="499.0151">_childItemsByType : Object</text><line style="stroke:#272B30;stroke-width:1.5;" x1="2360" x2="2783" y1="505.6094" y2="505.6094"/><ellipse cx="2370" cy="516.6094" fill="#84BE84" rx="3" ry="3" style="stroke:#038048;stroke-width:1.0;"/><text fill="#000000" font-family="sans-serif" font-size="11" font-style="italic" lengthAdjust="spacing" textLength="322" x="2379" y="519.8198">beNotifiedByChild(childItem: CT, notifiedTo: string) : void</text><ellipse cx="2370" cy="529.4141" fill="#84BE84" rx="3" ry="3" style="stroke:#038048;stroke-width:1.0;"/><text fill="#000000" font-family="sans-serif" font-size="11" lengthAdjust="spacing" textLength="70" x="2379" y="532.6245">build() : void</text><ellipse cx="2370" cy="542.2188" fill="#84BE84" rx="3" ry="3" style="stroke:#038048;stroke-width:1.0;"/><text fill="#000000" font-family="sans-serif" font-size="11" lengthAdjust="spacing" textLength="399" x="2379" y="545.4292">changeProperty(propertyName: string, propertyValue: unknown) : void</text><ellipse cx="2370" cy="555.0234" fill="#84BE84" rx="3" ry="3" style="stroke:#038048;stroke-width:1.0;"/><text fill="#000000" font-family="sans-serif" font-size="11" lengthAdjust="spacing" textLength="88" x="2379" y="558.2339">dispose() : void</text><ellipse cx="2370" cy="567.8281" fill="#84BE84" rx="3" ry="3" style="stroke:#038048;stroke-width:1.0;"/><text fill="#000000" font-family="sans-serif" font-size="11" lengthAdjust="spacing" textLength="220" x="2379" y="571.0386">equalsToID(patternId: string) : boolean</text><ellipse cx="2370" cy="580.6328" fill="#84BE84" rx="3" ry="3" style="stroke:#038048;stroke-width:1.0;"/><text fill="#000000" font-family="sans-serif" font-size="11" lengthAdjust="spacing" textLength="186" x="2379" y="583.8433">getChildItems(type: string) : CT[]</text><polygon fill="#FFFF44" points="2370,588.4375,2374,592.4375,2370,596.4375,2366,592.4375" style="stroke:#B38D22;stroke-width:1.0;"/><text fill="#000000" font-family="sans-serif" font-size="11" lengthAdjust="spacing" textLength="102" x="2379" y="596.6479">finishBuild() : void</text><polygon fill="#FFFF44" points="2370,601.2422,2374,605.2422,2370,609.2422,2366,605.2422" style="stroke:#B38D22;stroke-width:1.0;"/><text fill="#000000" font-family="sans-serif" font-size="11" lengthAdjust="spacing" textLength="158" x="2379" y="609.4526">getChild(childId: string) : CT</text><polygon fill="#FFFF44" points="2370,614.0469,2374,618.0469,2370,622.0469,2366,618.0469" style="stroke:#B38D22;stroke-width:1.0;"/><text fill="#000000" font-family="sans-serif" font-size="11" lengthAdjust="spacing" textLength="309" x="2379" y="622.2573">getChildByIndex(index: number, childType: string) : CT</text><polygon fill="#FFFF44" points="2370,626.8516,2374,630.8516,2370,634.8516,2366,630.8516" style="stroke:#B38D22;stroke-width:1.0;"/><text fill="#000000" font-family="sans-serif" font-size="11" lengthAdjust="spacing" textLength="217" x="2379" y="635.062">getChildIndex(childId: string) : number</text><polygon fill="#FFFF44" points="2370,639.6563,2374,643.6563,2370,647.6563,2366,643.6563" style="stroke:#B38D22;stroke-width:1.0;"/><text fill="#000000" font-family="sans-serif" font-size="11" font-style="italic" lengthAdjust="spacing" textLength="148" x="2379" y="647.8667">setA11YProperties() : void</text><polygon fill="#FFFF44" points="2370,652.4609,2374,656.4609,2370,660.4609,2366,656.4609" style="stroke:#B38D22;stroke-width:1.0;"/><text fill="#000000" font-family="sans-serif" font-size="11" font-style="italic" lengthAdjust="spacing" textLength="114" x="2379" y="660.6714">setCallbacks() : void</text><polygon fill="#FFFF44" points="2370,665.2656,2374,669.2656,2370,673.2656,2366,669.2656" style="stroke:#B38D22;stroke-width:1.0;"/><text fill="#000000" font-family="sans-serif" font-size="11" lengthAdjust="spacing" textLength="163" x="2379" y="673.4761">setChild(childItem: CT) : void</text><polygon fill="#FFFF44" points="2370,678.0703,2374,682.0703,2370,686.0703,2366,682.0703" style="stroke:#B38D22;stroke-width:1.0;"/><text fill="#000000" font-family="sans-serif" font-size="11" font-style="italic" lengthAdjust="spacing" textLength="139" x="2379" y="686.2808">setHtmlElements() : void</text><polygon fill="#FFFF44" points="2370,690.875,2374,694.875,2370,698.875,2366,694.875" style="stroke:#B38D22;stroke-width:1.0;"/><text fill="#000000" font-family="sans-serif" font-size="11" font-style="italic" lengthAdjust="spacing" textLength="128" x="2379" y="699.0854">unsetCallbacks() : void</text><polygon fill="#FFFF44" points="2370,703.6797,2374,707.6797,2370,711.6797,2366,707.6797" style="stroke:#B38D22;stroke-width:1.0;"/><text fill="#000000" font-family="sans-serif" font-size="11" lengthAdjust="spacing" textLength="180" x="2379" y="711.8901">unsetChild(childId: string) : void</text><polygon fill="#FFFF44" points="2370,716.4844,2374,720.4844,2370,724.4844,2366,720.4844" style="stroke:#B38D22;stroke-width:1.0;"/><text fill="#000000" font-family="sans-serif" font-size="11" font-style="italic" lengthAdjust="spacing" textLength="153" x="2379" y="724.6948">unsetHtmlElements() : void</text><!--MD5=[2bbab9a2909cc1d44c87e04e86b4d2a6]
reverse link IPattern to IParent--><path codeLine="28" d="M1187.5,177.42 C1187.5,190.55 1187.5,203.94 1187.5,216.78 " fill="none" id="IPattern-backto-IParent" style="stroke:#272B30;stroke-width:1.0;"/><polygon fill="none" points="1180.5,177.12,1187.5,157.12,1194.5,177.12,1180.5,177.12" style="stroke:#272B30;stroke-width:1.0;"/><!--MD5=[6764433b21c380b4d77c558b71698d28]
reverse link IParent to IAccordion--><path codeLine="45" d="M954.74,321.32 C806.29,340.64 611.97,376.13 449.5,440 C427.12,448.8 404.52,459.83 382.69,471.85 " fill="none" id="IParent-backto-IAccordion" style="stroke:#272B30;stroke-width:1.0;"/><polygon fill="none" points="954.19,314.33,974.92,318.75,955.96,328.22,954.19,314.33" style="stroke:#272B30;stroke-width:1.0;"/><!--MD5=[23777b7ff3020f281fe8edb25118c51b]
reverse link IParent to IDropdownServerSide--><path codeLine="65" d="M1033.42,390.23 C999.8,410.03 963.56,431.37 927.83,452.4 " fill="none" id="IParent-backto-IDropdownServerSide" style="stroke:#272B30;stroke-width:1.0;"/><polygon fill="none" points="1029.96,384.14,1050.75,380.03,1037.06,396.21,1029.96,384.14" style="stroke:#272B30;stroke-width:1.0;"/><!--MD5=[f8cbeeb5224dbe028dfc4d5bf37196ff]
reverse link IParent to ISectionIndex--><path codeLine="77" d="M1187.5,400.09 C1187.5,434.03 1187.5,471.46 1187.5,503.68 " fill="none" id="IParent-backto-ISectionIndex" style="stroke:#272B30;stroke-width:1.0;"/><polygon fill="none" points="1180.5,400.03,1187.5,380.03,1194.5,400.03,1180.5,400.03" style="stroke:#272B30;stroke-width:1.0;"/><!--MD5=[240853663f07bd5ab0f50c7dad26db68]
reverse link IParent to ITabs--><path codeLine="92" d="M1401.73,387.73 C1476.15,418.38 1560.13,452.97 1636.69,484.5 " fill="none" id="IParent-backto-ITabs" style="stroke:#272B30;stroke-width:1.0;"/><polygon fill="none" points="1398.85,394.12,1383.02,380.03,1404.18,381.17,1398.85,394.12" style="stroke:#272B30;stroke-width:1.0;"/><!--MD5=[d32823dad4b5aeded4983a199a42597f]
reverse link IParent to AbstractParent<C, CT>--><path codeLine="114" d="M1420.4,315.78 C1707.29,337.92 2176.88,381.58 2341.5,440 C2347.28,442.05 2353.06,444.27 2358.84,446.62 " fill="none" id="IParent-backto-AbstractParent&lt;C, CT&gt;" style="stroke:#272B30;stroke-width:1.0;stroke-dasharray:7.0,7.0;"/><polygon fill="none" points="1419.47,322.73,1400.07,314.22,1420.54,308.77,1419.47,322.73" style="stroke:#272B30;stroke-width:1.0;"/><!--MD5=[3dda18df922c03830699e506c1be7457]
@startuml
skinparam ClassArrowColor #272b30
skinparam ClassBorderColor #272b30
skinparam ClassBackgroundColor #fff
skinparam BackgroundColor #ced4da
hide empty methods
hide empty fields
interface "IParent" {
    +isBuilt : boolean
    +selfElement : HTMLElement
    +uniqueId : string
    +widgetId : string
    +beNotifiedByChild(childItem: IChild, notifiedTo: string) : void
    +build() : void
    +changeProperty(propertyName: string, propertyValue: unknown) : void
    +dispose() : void
    +equalsToID(id: string) : boolean
}
interface "IPattern" {
    +isBuilt : boolean
    +selfElement : HTMLElement
    +uniqueId : string
    +widgetId : string
    +build() : void
    +changeProperty(propertyName: string, propertyValue: unknown) : void
    +dispose() : void
    +equalsToID(id: string) : boolean
}
"IPattern" <|- - "IParent"
interface "IAccordion" {
    +isBuilt : boolean
    +selfElement : HTMLElement
    +uniqueId : string
    +widgetId : string
    +addAccordionItem(accordionItem: IAccordionItem) : any
    +beNotifiedByChild(childItem: IChild, notifiedTo: string) : void
    +build() : void
    +changeProperty(propertyName: string, propertyValue: unknown) : void
    +collapseAllItems() : any
    +dispose() : void
    +equalsToID(id: string) : boolean
    +expandAllItems() : any
    +removeAccordionItem(uniqueId: string) : any
    +triggerAccordionItemClose(accordionItemId: string) : any
}
"IParent" <|- - "IAccordion"
interface "IDropdownServerSide" {
    +isBuilt : boolean
    +selfElement : HTMLElement
    +uniqueId : string
    +widgetId : string
    +beNotifiedByChild(childItem: IChild, notifiedTo: string) : void
    +build() : void
    +changeProperty(propertyName: string, propertyValue: unknown) : void
    +clear() : void
    +disable() : void
    +dispose() : void
    +enable() : void
    +equalsToID(id: string) : boolean
    +getSelectedValues() : string
    +setProviderConfigs(providerConfigs: any) : void
    +setProviderEvent(eventName: string, callback: Generic, uniqueId: string) : void
    +unsetProviderEvent(eventId: string) : void
    +validation(isValid: boolean, validationMessage: string) : void
}
"IParent" <|- - "IDropdownServerSide"
interface "ISectionIndex" {
    +isBuilt : boolean
    +selfElement : HTMLElement
    +uniqueId : string
    +widgetId : string
    +beNotifiedByChild(childItem: IChild, notifiedTo: string) : void
    +build() : void
    +changeProperty(propertyName: string, propertyValue: unknown) : void
    +dispose() : void
    +equalsToID(id: string) : boolean
}
"IParent" <|- - "ISectionIndex"
interface "ITabs" {
    +isBuilt : boolean
    +selfElement : HTMLElement
    +uniqueId : string
    +widgetId : string
    +beNotifiedByChild(childItem: IChild, notifiedTo: string) : void
    +build() : void
    +changeProperty(propertyName: string, propertyValue: unknown) : void
    +changeTab(tabIndex: number, tabsHeaderItem: ITabsHeaderItem, blockObserver: boolean, triggerEvent: boolean, triggeredByObserver: boolean) : void
    +dispose() : void
    +equalsToID(id: string) : boolean
    +registerCallback(callback: OSGeneric) : void
    +toggleDragGestures(addDragGestures: boolean) : void
}
"IParent" <|- - "ITabs"
abstract class "AbstractParent<C, CT>" {
    -_childIdsByType : Map<string, string>
    -_childItemsByType : Object
    {abstract} +beNotifiedByChild(childItem: CT, notifiedTo: string) : void
    +build() : void
    +changeProperty(propertyName: string, propertyValue: unknown) : void
    +dispose() : void
    +equalsToID(patternId: string) : boolean
    +getChildItems(type: string) : CT[]
    #finishBuild() : void
    #getChild(childId: string) : CT
    #getChildByIndex(index: number, childType: string) : CT
    #getChildIndex(childId: string) : number
    {abstract} #setA11YProperties() : void
    {abstract} #setCallbacks() : void
    #setChild(childItem: CT) : void
    {abstract} #setHtmlElements() : void
    {abstract} #unsetCallbacks() : void
    #unsetChild(childId: string) : void
    {abstract} #unsetHtmlElements() : void
}
"IParent" <|.. "AbstractParent<C, CT>"
@enduml

PlantUML version 1.2021.14(Fri Nov 12 16:46:50 UTC 2021)
(GPL source distribution)
Java Runtime: OpenJDK Runtime Environment
JVM: OpenJDK 64-Bit Server VM
Default Encoding: UTF-8
Language: en
Country: null
--></g></svg>