<?xml version="1.0" encoding="us-ascii" standalone="no"?><svg xmlns="http://www.w3.org/2000/svg" xmlns:xlink="http://www.w3.org/1999/xlink" contentStyleType="text/css" height="1118px" preserveAspectRatio="none" style="width:3161px;height:1118px;background:#CED4DA;" version="1.1" viewBox="0 0 3161 1118" width="3161px" zoomAndPan="magnify"><defs/><g><rect fill="#CED4DA" height="1118" style="stroke:none;stroke-width:1.0;" width="3161" x="0" y="0"/><!--class IProviderPattern<P>--><g id="elem_IProviderPattern&lt;P&gt;"><rect codeLine="7" fill="#FFFFFF" height="262.3477" id="IProviderPattern&lt;P&gt;" rx="2.5" ry="2.5" style="stroke:#272B30;stroke-width:0.5;" width="508" x="1210.5" y="263"/><ellipse cx="1390.25" cy="279" fill="#B4A7E5" rx="11" ry="11" style="stroke:#181818;stroke-width:1.0;"/><path d="M1386.6777,275.2651 L1386.6777,273.1069 L1394.0571,273.1069 L1394.0571,275.2651 L1391.5918,275.2651 L1391.5918,283.3418 L1394.0571,283.3418 L1394.0571,285.5 L1386.6777,285.5 L1386.6777,283.3418 L1389.1431,283.3418 L1389.1431,275.2651 Z " fill="#000000"/><text fill="#000000" font-family="sans-serif" font-size="14" font-style="italic" lengthAdjust="spacing" textLength="140" x="1410.75" y="284.291">IProviderPattern&lt;P&gt;</text><line style="stroke:#272B30;stroke-width:0.5;" x1="1211.5" x2="1717.5" y1="295" y2="295"/><ellipse cx="1221.5" cy="308.7441" fill="none" rx="3" ry="3" style="stroke:#038048;stroke-width:1.0;"/><text fill="#000000" font-family="sans-serif" font-size="14" lengthAdjust="spacing" textLength="109" x="1230.5" y="312.5352">isBuilt : boolean</text><ellipse cx="1221.5" cy="325.2324" fill="none" rx="3" ry="3" style="stroke:#038048;stroke-width:1.0;"/><text fill="#000000" font-family="sans-serif" font-size="14" lengthAdjust="spacing" textLength="78" x="1230.5" y="329.0234">provider : P</text><ellipse cx="1221.5" cy="341.7207" fill="none" rx="3" ry="3" style="stroke:#038048;stroke-width:1.0;"/><text fill="#000000" font-family="sans-serif" font-size="14" lengthAdjust="spacing" textLength="181" x="1230.5" y="345.5117">providerInfo : ProviderInfo</text><ellipse cx="1221.5" cy="358.209" fill="none" rx="3" ry="3" style="stroke:#038048;stroke-width:1.0;"/><text fill="#000000" font-family="sans-serif" font-size="14" lengthAdjust="spacing" textLength="184" x="1230.5" y="362">selfElement : HTMLElement</text><ellipse cx="1221.5" cy="374.6973" fill="none" rx="3" ry="3" style="stroke:#038048;stroke-width:1.0;"/><text fill="#000000" font-family="sans-serif" font-size="14" lengthAdjust="spacing" textLength="113" x="1230.5" y="378.4883">uniqueId : string</text><ellipse cx="1221.5" cy="391.1855" fill="none" rx="3" ry="3" style="stroke:#038048;stroke-width:1.0;"/><text fill="#000000" font-family="sans-serif" font-size="14" lengthAdjust="spacing" textLength="111" x="1230.5" y="394.9766">widgetId : string</text><line style="stroke:#272B30;stroke-width:0.5;" x1="1211.5" x2="1717.5" y1="401.9297" y2="401.9297"/><ellipse cx="1221.5" cy="415.6738" fill="#84BE84" rx="3" ry="3" style="stroke:#038048;stroke-width:1.0;"/><text fill="#000000" font-family="sans-serif" font-size="14" lengthAdjust="spacing" textLength="86" x="1230.5" y="419.4648">build() : void</text><ellipse cx="1221.5" cy="432.1621" fill="#84BE84" rx="3" ry="3" style="stroke:#038048;stroke-width:1.0;"/><text fill="#000000" font-family="sans-serif" font-size="14" lengthAdjust="spacing" textLength="482" x="1230.5" y="435.9531">changeProperty(propertyName: string, propertyValue: unknown) : void</text><ellipse cx="1221.5" cy="448.6504" fill="#84BE84" rx="3" ry="3" style="stroke:#038048;stroke-width:1.0;"/><text fill="#000000" font-family="sans-serif" font-size="14" lengthAdjust="spacing" textLength="104" x="1230.5" y="452.4414">dispose() : void</text><ellipse cx="1221.5" cy="465.1387" fill="#84BE84" rx="3" ry="3" style="stroke:#038048;stroke-width:1.0;"/><text fill="#000000" font-family="sans-serif" font-size="14" lengthAdjust="spacing" textLength="216" x="1230.5" y="468.9297">equalsToID(id: string) : boolean</text><ellipse cx="1221.5" cy="481.627" fill="#84BE84" rx="3" ry="3" style="stroke:#038048;stroke-width:1.0;"/><text fill="#000000" font-family="sans-serif" font-size="14" lengthAdjust="spacing" textLength="428" x="1230.5" y="485.418">registerCallback(eventName: string, callback: OSGeneric) : void</text><ellipse cx="1221.5" cy="498.1152" fill="#84BE84" rx="3" ry="3" style="stroke:#038048;stroke-width:1.0;"/><text fill="#000000" font-family="sans-serif" font-size="14" lengthAdjust="spacing" textLength="294" x="1230.5" y="501.9063">setProviderConfigs(newConfigs: any) : void</text><ellipse cx="1221.5" cy="514.6035" fill="#84BE84" rx="3" ry="3" style="stroke:#038048;stroke-width:1.0;"/><text fill="#000000" font-family="sans-serif" font-size="14" lengthAdjust="spacing" textLength="377" x="1230.5" y="518.3945">updateProviderEvents(providerInfo: ProviderInfo) : void</text></g><!--class IPattern--><g id="elem_IPattern"><rect codeLine="22" fill="#FFFFFF" height="196.3945" id="IPattern" rx="2.5" ry="2.5" style="stroke:#272B30;stroke-width:0.5;" width="508" x="1210.5" y="7"/><ellipse cx="1433.75" cy="23" fill="#B4A7E5" rx="11" ry="11" style="stroke:#181818;stroke-width:1.0;"/><path d="M1430.1777,19.2651 L1430.1777,17.1069 L1437.5571,17.1069 L1437.5571,19.2651 L1435.0918,19.2651 L1435.0918,27.3418 L1437.5571,27.3418 L1437.5571,29.5 L1430.1777,29.5 L1430.1777,27.3418 L1432.6431,27.3418 L1432.6431,19.2651 Z " fill="#000000"/><text fill="#000000" font-family="sans-serif" font-size="14" font-style="italic" lengthAdjust="spacing" textLength="53" x="1454.25" y="28.291">IPattern</text><line style="stroke:#272B30;stroke-width:0.5;" x1="1211.5" x2="1717.5" y1="39" y2="39"/><ellipse cx="1221.5" cy="52.7441" fill="none" rx="3" ry="3" style="stroke:#038048;stroke-width:1.0;"/><text fill="#000000" font-family="sans-serif" font-size="14" lengthAdjust="spacing" textLength="109" x="1230.5" y="56.5352">isBuilt : boolean</text><ellipse cx="1221.5" cy="69.2324" fill="none" rx="3" ry="3" style="stroke:#038048;stroke-width:1.0;"/><text fill="#000000" font-family="sans-serif" font-size="14" lengthAdjust="spacing" textLength="184" x="1230.5" y="73.0234">selfElement : HTMLElement</text><ellipse cx="1221.5" cy="85.7207" fill="none" rx="3" ry="3" style="stroke:#038048;stroke-width:1.0;"/><text fill="#000000" font-family="sans-serif" font-size="14" lengthAdjust="spacing" textLength="113" x="1230.5" y="89.5117">uniqueId : string</text><ellipse cx="1221.5" cy="102.209" fill="none" rx="3" ry="3" style="stroke:#038048;stroke-width:1.0;"/><text fill="#000000" font-family="sans-serif" font-size="14" lengthAdjust="spacing" textLength="111" x="1230.5" y="106">widgetId : string</text><line style="stroke:#272B30;stroke-width:0.5;" x1="1211.5" x2="1717.5" y1="112.9531" y2="112.9531"/><ellipse cx="1221.5" cy="126.6973" fill="#84BE84" rx="3" ry="3" style="stroke:#038048;stroke-width:1.0;"/><text fill="#000000" font-family="sans-serif" font-size="14" lengthAdjust="spacing" textLength="86" x="1230.5" y="130.4883">build() : void</text><ellipse cx="1221.5" cy="143.1855" fill="#84BE84" rx="3" ry="3" style="stroke:#038048;stroke-width:1.0;"/><text fill="#000000" font-family="sans-serif" font-size="14" lengthAdjust="spacing" textLength="482" x="1230.5" y="146.9766">changeProperty(propertyName: string, propertyValue: unknown) : void</text><ellipse cx="1221.5" cy="159.6738" fill="#84BE84" rx="3" ry="3" style="stroke:#038048;stroke-width:1.0;"/><text fill="#000000" font-family="sans-serif" font-size="14" lengthAdjust="spacing" textLength="104" x="1230.5" y="163.4648">dispose() : void</text><ellipse cx="1221.5" cy="176.1621" fill="#84BE84" rx="3" ry="3" style="stroke:#038048;stroke-width:1.0;"/><text fill="#000000" font-family="sans-serif" font-size="14" lengthAdjust="spacing" textLength="216" x="1230.5" y="179.9531">equalsToID(id: string) : boolean</text><ellipse cx="1221.5" cy="192.6504" fill="#84BE84" rx="3" ry="3" style="stroke:#038048;stroke-width:1.0;"/><text fill="#000000" font-family="sans-serif" font-size="14" lengthAdjust="spacing" textLength="428" x="1230.5" y="196.4414">registerCallback(eventName: string, callback: OSGeneric) : void</text></g><!--class IFlatpickr--><g id="elem_IFlatpickr"><rect codeLine="34" fill="#FFFFFF" height="427.2305" id="IFlatpickr" rx="2.5" ry="2.5" style="stroke:#272B30;stroke-width:0.5;" width="555" x="7" y="634.5"/><ellipse cx="248.75" cy="650.5" fill="#B4A7E5" rx="11" ry="11" style="stroke:#181818;stroke-width:1.0;"/><path d="M245.1777,646.7651 L245.1777,644.6069 L252.5571,644.6069 L252.5571,646.7651 L250.0918,646.7651 L250.0918,654.8418 L252.5571,654.8418 L252.5571,657 L245.1777,657 L245.1777,654.8418 L247.6431,654.8418 L247.6431,646.7651 Z " fill="#000000"/><text fill="#000000" font-family="sans-serif" font-size="14" font-style="italic" lengthAdjust="spacing" textLength="63" x="269.25" y="655.791">IFlatpickr</text><line style="stroke:#272B30;stroke-width:0.5;" x1="8" x2="561" y1="666.5" y2="666.5"/><ellipse cx="18" cy="680.2441" fill="none" rx="3" ry="3" style="stroke:#038048;stroke-width:1.0;"/><text fill="#000000" font-family="sans-serif" font-size="14" lengthAdjust="spacing" textLength="109" x="27" y="684.0352">isBuilt : boolean</text><ellipse cx="18" cy="696.7324" fill="none" rx="3" ry="3" style="stroke:#038048;stroke-width:1.0;"/><text fill="#000000" font-family="sans-serif" font-size="14" lengthAdjust="spacing" textLength="126" x="27" y="700.5234">provider : flatpickr</text><ellipse cx="18" cy="713.2207" fill="none" rx="3" ry="3" style="stroke:#038048;stroke-width:1.0;"/><text fill="#000000" font-family="sans-serif" font-size="14" lengthAdjust="spacing" textLength="181" x="27" y="717.0117">providerInfo : ProviderInfo</text><ellipse cx="18" cy="729.709" fill="none" rx="3" ry="3" style="stroke:#038048;stroke-width:1.0;"/><text fill="#000000" font-family="sans-serif" font-size="14" lengthAdjust="spacing" textLength="184" x="27" y="733.5">selfElement : HTMLElement</text><ellipse cx="18" cy="746.1973" fill="none" rx="3" ry="3" style="stroke:#038048;stroke-width:1.0;"/><text fill="#000000" font-family="sans-serif" font-size="14" lengthAdjust="spacing" textLength="113" x="27" y="749.9883">uniqueId : string</text><ellipse cx="18" cy="762.6855" fill="none" rx="3" ry="3" style="stroke:#038048;stroke-width:1.0;"/><text fill="#000000" font-family="sans-serif" font-size="14" lengthAdjust="spacing" textLength="111" x="27" y="766.4766">widgetId : string</text><line style="stroke:#272B30;stroke-width:0.5;" x1="8" x2="561" y1="773.4297" y2="773.4297"/><ellipse cx="18" cy="787.1738" fill="#84BE84" rx="3" ry="3" style="stroke:#038048;stroke-width:1.0;"/><text fill="#000000" font-family="sans-serif" font-size="14" lengthAdjust="spacing" textLength="86" x="27" y="790.9648">build() : void</text><ellipse cx="18" cy="803.6621" fill="#84BE84" rx="3" ry="3" style="stroke:#038048;stroke-width:1.0;"/><text fill="#000000" font-family="sans-serif" font-size="14" lengthAdjust="spacing" textLength="482" x="27" y="807.4531">changeProperty(propertyName: string, propertyValue: unknown) : void</text><ellipse cx="18" cy="820.1504" fill="#84BE84" rx="3" ry="3" style="stroke:#038048;stroke-width:1.0;"/><text fill="#000000" font-family="sans-serif" font-size="14" lengthAdjust="spacing" textLength="84" x="27" y="823.9414">clear() : void</text><ellipse cx="18" cy="836.6387" fill="#84BE84" rx="3" ry="3" style="stroke:#038048;stroke-width:1.0;"/><text fill="#000000" font-family="sans-serif" font-size="14" lengthAdjust="spacing" textLength="86" x="27" y="840.4297">close() : void</text><ellipse cx="18" cy="853.127" fill="#84BE84" rx="3" ry="3" style="stroke:#038048;stroke-width:1.0;"/><text fill="#000000" font-family="sans-serif" font-size="14" lengthAdjust="spacing" textLength="271" x="27" y="856.918">disableDays(disableDays: string[]) : void</text><ellipse cx="18" cy="869.6152" fill="#84BE84" rx="3" ry="3" style="stroke:#038048;stroke-width:1.0;"/><text fill="#000000" font-family="sans-serif" font-size="14" lengthAdjust="spacing" textLength="321" x="27" y="873.4063">disableWeekDays(disableDays: number[]) : void</text><ellipse cx="18" cy="886.1035" fill="#84BE84" rx="3" ry="3" style="stroke:#038048;stroke-width:1.0;"/><text fill="#000000" font-family="sans-serif" font-size="14" lengthAdjust="spacing" textLength="104" x="27" y="889.8945">dispose() : void</text><ellipse cx="18" cy="902.5918" fill="#84BE84" rx="3" ry="3" style="stroke:#038048;stroke-width:1.0;"/><text fill="#000000" font-family="sans-serif" font-size="14" lengthAdjust="spacing" textLength="216" x="27" y="906.3828">equalsToID(id: string) : boolean</text><ellipse cx="18" cy="919.0801" fill="#84BE84" rx="3" ry="3" style="stroke:#038048;stroke-width:1.0;"/><text fill="#000000" font-family="sans-serif" font-size="14" lengthAdjust="spacing" textLength="86" x="27" y="922.8711">open() : void</text><ellipse cx="18" cy="935.5684" fill="#84BE84" rx="3" ry="3" style="stroke:#038048;stroke-width:1.0;"/><text fill="#000000" font-family="sans-serif" font-size="14" lengthAdjust="spacing" textLength="428" x="27" y="939.3594">registerCallback(eventName: string, callback: OSGeneric) : void</text><ellipse cx="18" cy="952.0566" fill="#84BE84" rx="3" ry="3" style="stroke:#038048;stroke-width:1.0;"/><text fill="#000000" font-family="sans-serif" font-size="14" lengthAdjust="spacing" textLength="222" x="27" y="955.8477">setLanguage(value: string) : void</text><ellipse cx="18" cy="968.5449" fill="#84BE84" rx="3" ry="3" style="stroke:#038048;stroke-width:1.0;"/><text fill="#000000" font-family="sans-serif" font-size="14" lengthAdjust="spacing" textLength="324" x="27" y="972.3359">setProviderConfigs(providerConfigs: any) : void</text><ellipse cx="18" cy="985.0332" fill="#84BE84" rx="3" ry="3" style="stroke:#038048;stroke-width:1.0;"/><text fill="#000000" font-family="sans-serif" font-size="14" lengthAdjust="spacing" textLength="529" x="27" y="988.8242">setProviderEvent(eventName: string, callback: Generic, uniqueId: string) : void</text><ellipse cx="18" cy="1001.5215" fill="#84BE84" rx="3" ry="3" style="stroke:#038048;stroke-width:1.0;"/><text fill="#000000" font-family="sans-serif" font-size="14" lengthAdjust="spacing" textLength="281" x="27" y="1005.3125">unsetProviderEvent(eventId: string) : void</text><ellipse cx="18" cy="1018.0098" fill="#84BE84" rx="3" ry="3" style="stroke:#038048;stroke-width:1.0;"/><text fill="#000000" font-family="sans-serif" font-size="14" lengthAdjust="spacing" textLength="350" x="27" y="1021.8008">updateInitialDate(date1: string, date2: string) : void</text><ellipse cx="18" cy="1034.498" fill="#84BE84" rx="3" ry="3" style="stroke:#038048;stroke-width:1.0;"/><text fill="#000000" font-family="sans-serif" font-size="14" lengthAdjust="spacing" textLength="307" x="27" y="1038.2891">updatePrompt(promptMessage: string) : void</text><ellipse cx="18" cy="1050.9863" fill="#84BE84" rx="3" ry="3" style="stroke:#038048;stroke-width:1.0;"/><text fill="#000000" font-family="sans-serif" font-size="14" lengthAdjust="spacing" textLength="377" x="27" y="1054.7773">updateProviderEvents(providerInfo: ProviderInfo) : void</text></g><!--class IFlatpickrMonth--><g id="elem_IFlatpickrMonth"><rect codeLine="60" fill="#FFFFFF" height="394.2539" id="IFlatpickrMonth" rx="2.5" ry="2.5" style="stroke:#272B30;stroke-width:0.5;" width="555" x="597" y="651"/><ellipse cx="816.75" cy="667" fill="#B4A7E5" rx="11" ry="11" style="stroke:#181818;stroke-width:1.0;"/><path d="M813.1777,663.2651 L813.1777,661.1069 L820.5571,661.1069 L820.5571,663.2651 L818.0918,663.2651 L818.0918,671.3418 L820.5571,671.3418 L820.5571,673.5 L813.1777,673.5 L813.1777,671.3418 L815.6431,671.3418 L815.6431,663.2651 Z " fill="#000000"/><text fill="#000000" font-family="sans-serif" font-size="14" font-style="italic" lengthAdjust="spacing" textLength="107" x="837.25" y="672.291">IFlatpickrMonth</text><line style="stroke:#272B30;stroke-width:0.5;" x1="598" x2="1151" y1="683" y2="683"/><ellipse cx="608" cy="696.7441" fill="none" rx="3" ry="3" style="stroke:#038048;stroke-width:1.0;"/><text fill="#000000" font-family="sans-serif" font-size="14" lengthAdjust="spacing" textLength="109" x="617" y="700.5352">isBuilt : boolean</text><ellipse cx="608" cy="713.2324" fill="none" rx="3" ry="3" style="stroke:#038048;stroke-width:1.0;"/><text fill="#000000" font-family="sans-serif" font-size="14" lengthAdjust="spacing" textLength="116" x="617" y="717.0234">isOpen : boolean</text><ellipse cx="608" cy="729.7207" fill="none" rx="3" ry="3" style="stroke:#038048;stroke-width:1.0;"/><text fill="#000000" font-family="sans-serif" font-size="14" lengthAdjust="spacing" textLength="126" x="617" y="733.5117">provider : flatpickr</text><ellipse cx="608" cy="746.209" fill="none" rx="3" ry="3" style="stroke:#038048;stroke-width:1.0;"/><text fill="#000000" font-family="sans-serif" font-size="14" lengthAdjust="spacing" textLength="181" x="617" y="750">providerInfo : ProviderInfo</text><ellipse cx="608" cy="762.6973" fill="none" rx="3" ry="3" style="stroke:#038048;stroke-width:1.0;"/><text fill="#000000" font-family="sans-serif" font-size="14" lengthAdjust="spacing" textLength="184" x="617" y="766.4883">selfElement : HTMLElement</text><ellipse cx="608" cy="779.1855" fill="none" rx="3" ry="3" style="stroke:#038048;stroke-width:1.0;"/><text fill="#000000" font-family="sans-serif" font-size="14" lengthAdjust="spacing" textLength="113" x="617" y="782.9766">uniqueId : string</text><ellipse cx="608" cy="795.6738" fill="none" rx="3" ry="3" style="stroke:#038048;stroke-width:1.0;"/><text fill="#000000" font-family="sans-serif" font-size="14" lengthAdjust="spacing" textLength="111" x="617" y="799.4648">widgetId : string</text><line style="stroke:#272B30;stroke-width:0.5;" x1="598" x2="1151" y1="806.418" y2="806.418"/><ellipse cx="608" cy="820.1621" fill="#84BE84" rx="3" ry="3" style="stroke:#038048;stroke-width:1.0;"/><text fill="#000000" font-family="sans-serif" font-size="14" lengthAdjust="spacing" textLength="86" x="617" y="823.9531">build() : void</text><ellipse cx="608" cy="836.6504" fill="#84BE84" rx="3" ry="3" style="stroke:#038048;stroke-width:1.0;"/><text fill="#000000" font-family="sans-serif" font-size="14" lengthAdjust="spacing" textLength="482" x="617" y="840.4414">changeProperty(propertyName: string, propertyValue: unknown) : void</text><ellipse cx="608" cy="853.1387" fill="#84BE84" rx="3" ry="3" style="stroke:#038048;stroke-width:1.0;"/><text fill="#000000" font-family="sans-serif" font-size="14" lengthAdjust="spacing" textLength="84" x="617" y="856.9297">clear() : void</text><ellipse cx="608" cy="869.627" fill="#84BE84" rx="3" ry="3" style="stroke:#038048;stroke-width:1.0;"/><text fill="#000000" font-family="sans-serif" font-size="14" lengthAdjust="spacing" textLength="86" x="617" y="873.418">close() : void</text><ellipse cx="608" cy="886.1152" fill="#84BE84" rx="3" ry="3" style="stroke:#038048;stroke-width:1.0;"/><text fill="#000000" font-family="sans-serif" font-size="14" lengthAdjust="spacing" textLength="104" x="617" y="889.9063">dispose() : void</text><ellipse cx="608" cy="902.6035" fill="#84BE84" rx="3" ry="3" style="stroke:#038048;stroke-width:1.0;"/><text fill="#000000" font-family="sans-serif" font-size="14" lengthAdjust="spacing" textLength="216" x="617" y="906.3945">equalsToID(id: string) : boolean</text><ellipse cx="608" cy="919.0918" fill="#84BE84" rx="3" ry="3" style="stroke:#038048;stroke-width:1.0;"/><text fill="#000000" font-family="sans-serif" font-size="14" lengthAdjust="spacing" textLength="253" x="617" y="922.8828">open(isOpenedByApi: boolean) : void</text><ellipse cx="608" cy="935.5801" fill="#84BE84" rx="3" ry="3" style="stroke:#038048;stroke-width:1.0;"/><text fill="#000000" font-family="sans-serif" font-size="14" lengthAdjust="spacing" textLength="428" x="617" y="939.3711">registerCallback(eventName: string, callback: OSGeneric) : void</text><ellipse cx="608" cy="952.0684" fill="#84BE84" rx="3" ry="3" style="stroke:#038048;stroke-width:1.0;"/><text fill="#000000" font-family="sans-serif" font-size="14" lengthAdjust="spacing" textLength="222" x="617" y="955.8594">setLanguage(value: string) : void</text><ellipse cx="608" cy="968.5566" fill="#84BE84" rx="3" ry="3" style="stroke:#038048;stroke-width:1.0;"/><text fill="#000000" font-family="sans-serif" font-size="14" lengthAdjust="spacing" textLength="324" x="617" y="972.3477">setProviderConfigs(providerConfigs: any) : void</text><ellipse cx="608" cy="985.0449" fill="#84BE84" rx="3" ry="3" style="stroke:#038048;stroke-width:1.0;"/><text fill="#000000" font-family="sans-serif" font-size="14" lengthAdjust="spacing" textLength="529" x="617" y="988.8359">setProviderEvent(eventName: string, callback: Generic, uniqueId: string) : void</text><ellipse cx="608" cy="1001.5332" fill="#84BE84" rx="3" ry="3" style="stroke:#038048;stroke-width:1.0;"/><text fill="#000000" font-family="sans-serif" font-size="14" lengthAdjust="spacing" textLength="281" x="617" y="1005.3242">unsetProviderEvent(eventId: string) : void</text><ellipse cx="608" cy="1018.0215" fill="#84BE84" rx="3" ry="3" style="stroke:#038048;stroke-width:1.0;"/><text fill="#000000" font-family="sans-serif" font-size="14" lengthAdjust="spacing" textLength="340" x="617" y="1021.8125">updateInitialMonth(monthYear: MonthYear) : void</text><ellipse cx="608" cy="1034.5098" fill="#84BE84" rx="3" ry="3" style="stroke:#038048;stroke-width:1.0;"/><text fill="#000000" font-family="sans-serif" font-size="14" lengthAdjust="spacing" textLength="377" x="617" y="1038.3008">updateProviderEvents(providerInfo: ProviderInfo) : void</text></g><!--class INoUiSlider--><g id="elem_INoUiSlider"><rect codeLine="84" fill="#FFFFFF" height="328.3008" id="INoUiSlider" rx="2.5" ry="2.5" style="stroke:#272B30;stroke-width:0.5;" width="555" x="1187" y="684"/><ellipse cx="1422.25" cy="700" fill="#B4A7E5" rx="11" ry="11" style="stroke:#181818;stroke-width:1.0;"/><path d="M1418.6777,696.2651 L1418.6777,694.1069 L1426.0571,694.1069 L1426.0571,696.2651 L1423.5918,696.2651 L1423.5918,704.3418 L1426.0571,704.3418 L1426.0571,706.5 L1418.6777,706.5 L1418.6777,704.3418 L1421.1431,704.3418 L1421.1431,696.2651 Z " fill="#000000"/><text fill="#000000" font-family="sans-serif" font-size="14" font-style="italic" lengthAdjust="spacing" textLength="76" x="1442.75" y="705.291">INoUiSlider</text><line style="stroke:#272B30;stroke-width:0.5;" x1="1188" x2="1741" y1="716" y2="716"/><ellipse cx="1198" cy="729.7441" fill="none" rx="3" ry="3" style="stroke:#038048;stroke-width:1.0;"/><text fill="#000000" font-family="sans-serif" font-size="14" lengthAdjust="spacing" textLength="109" x="1207" y="733.5352">isBuilt : boolean</text><ellipse cx="1198" cy="746.2324" fill="none" rx="3" ry="3" style="stroke:#038048;stroke-width:1.0;"/><text fill="#000000" font-family="sans-serif" font-size="14" lengthAdjust="spacing" textLength="141" x="1207" y="750.0234">provider : noUiSlider</text><ellipse cx="1198" cy="762.7207" fill="none" rx="3" ry="3" style="stroke:#038048;stroke-width:1.0;"/><text fill="#000000" font-family="sans-serif" font-size="14" lengthAdjust="spacing" textLength="181" x="1207" y="766.5117">providerInfo : ProviderInfo</text><ellipse cx="1198" cy="779.209" fill="none" rx="3" ry="3" style="stroke:#038048;stroke-width:1.0;"/><text fill="#000000" font-family="sans-serif" font-size="14" lengthAdjust="spacing" textLength="184" x="1207" y="783">selfElement : HTMLElement</text><ellipse cx="1198" cy="795.6973" fill="none" rx="3" ry="3" style="stroke:#038048;stroke-width:1.0;"/><text fill="#000000" font-family="sans-serif" font-size="14" lengthAdjust="spacing" textLength="113" x="1207" y="799.4883">uniqueId : string</text><ellipse cx="1198" cy="812.1855" fill="none" rx="3" ry="3" style="stroke:#038048;stroke-width:1.0;"/><text fill="#000000" font-family="sans-serif" font-size="14" lengthAdjust="spacing" textLength="111" x="1207" y="815.9766">widgetId : string</text><line style="stroke:#272B30;stroke-width:0.5;" x1="1188" x2="1741" y1="822.9297" y2="822.9297"/><ellipse cx="1198" cy="836.6738" fill="#84BE84" rx="3" ry="3" style="stroke:#038048;stroke-width:1.0;"/><text fill="#000000" font-family="sans-serif" font-size="14" lengthAdjust="spacing" textLength="86" x="1207" y="840.4648">build() : void</text><ellipse cx="1198" cy="853.1621" fill="#84BE84" rx="3" ry="3" style="stroke:#038048;stroke-width:1.0;"/><text fill="#000000" font-family="sans-serif" font-size="14" lengthAdjust="spacing" textLength="482" x="1207" y="856.9531">changeProperty(propertyName: string, propertyValue: unknown) : void</text><ellipse cx="1198" cy="869.6504" fill="#84BE84" rx="3" ry="3" style="stroke:#038048;stroke-width:1.0;"/><text fill="#000000" font-family="sans-serif" font-size="14" lengthAdjust="spacing" textLength="209" x="1207" y="873.4414">disable(uniqueId: string) : void</text><ellipse cx="1198" cy="886.1387" fill="#84BE84" rx="3" ry="3" style="stroke:#038048;stroke-width:1.0;"/><text fill="#000000" font-family="sans-serif" font-size="14" lengthAdjust="spacing" textLength="104" x="1207" y="889.9297">dispose() : void</text><ellipse cx="1198" cy="902.627" fill="#84BE84" rx="3" ry="3" style="stroke:#038048;stroke-width:1.0;"/><text fill="#000000" font-family="sans-serif" font-size="14" lengthAdjust="spacing" textLength="206" x="1207" y="906.418">enable(uniqueId: string) : void</text><ellipse cx="1198" cy="919.1152" fill="#84BE84" rx="3" ry="3" style="stroke:#038048;stroke-width:1.0;"/><text fill="#000000" font-family="sans-serif" font-size="14" lengthAdjust="spacing" textLength="216" x="1207" y="922.9063">equalsToID(id: string) : boolean</text><ellipse cx="1198" cy="935.6035" fill="#84BE84" rx="3" ry="3" style="stroke:#038048;stroke-width:1.0;"/><text fill="#000000" font-family="sans-serif" font-size="14" lengthAdjust="spacing" textLength="428" x="1207" y="939.3945">registerCallback(eventName: string, callback: OSGeneric) : void</text><ellipse cx="1198" cy="952.0918" fill="#84BE84" rx="3" ry="3" style="stroke:#038048;stroke-width:1.0;"/><text fill="#000000" font-family="sans-serif" font-size="14" lengthAdjust="spacing" textLength="324" x="1207" y="955.8828">setProviderConfigs(providerConfigs: any) : void</text><ellipse cx="1198" cy="968.5801" fill="#84BE84" rx="3" ry="3" style="stroke:#038048;stroke-width:1.0;"/><text fill="#000000" font-family="sans-serif" font-size="14" lengthAdjust="spacing" textLength="529" x="1207" y="972.3711">setProviderEvent(eventName: string, callback: Generic, uniqueId: string) : void</text><ellipse cx="1198" cy="985.0684" fill="#84BE84" rx="3" ry="3" style="stroke:#038048;stroke-width:1.0;"/><text fill="#000000" font-family="sans-serif" font-size="14" lengthAdjust="spacing" textLength="281" x="1207" y="988.8594">unsetProviderEvent(eventId: string) : void</text><ellipse cx="1198" cy="1001.5566" fill="#84BE84" rx="3" ry="3" style="stroke:#038048;stroke-width:1.0;"/><text fill="#000000" font-family="sans-serif" font-size="14" lengthAdjust="spacing" textLength="377" x="1207" y="1005.3477">updateProviderEvents(providerInfo: ProviderInfo) : void</text></g><!--class IFlatpickrTime--><g id="elem_IFlatpickrTime"><rect codeLine="104" fill="#FFFFFF" height="394.2539" id="IFlatpickrTime" rx="2.5" ry="2.5" style="stroke:#272B30;stroke-width:0.5;" width="555" x="1777" y="651"/><ellipse cx="2001.75" cy="667" fill="#B4A7E5" rx="11" ry="11" style="stroke:#181818;stroke-width:1.0;"/><path d="M1998.1777,663.2651 L1998.1777,661.1069 L2005.5571,661.1069 L2005.5571,663.2651 L2003.0918,663.2651 L2003.0918,671.3418 L2005.5571,671.3418 L2005.5571,673.5 L1998.1777,673.5 L1998.1777,671.3418 L2000.6431,671.3418 L2000.6431,663.2651 Z " fill="#000000"/><text fill="#000000" font-family="sans-serif" font-size="14" font-style="italic" lengthAdjust="spacing" textLength="97" x="2022.25" y="672.291">IFlatpickrTime</text><line style="stroke:#272B30;stroke-width:0.5;" x1="1778" x2="2331" y1="683" y2="683"/><ellipse cx="1788" cy="696.7441" fill="none" rx="3" ry="3" style="stroke:#038048;stroke-width:1.0;"/><text fill="#000000" font-family="sans-serif" font-size="14" lengthAdjust="spacing" textLength="109" x="1797" y="700.5352">isBuilt : boolean</text><ellipse cx="1788" cy="713.2324" fill="none" rx="3" ry="3" style="stroke:#038048;stroke-width:1.0;"/><text fill="#000000" font-family="sans-serif" font-size="14" lengthAdjust="spacing" textLength="116" x="1797" y="717.0234">isOpen : boolean</text><ellipse cx="1788" cy="729.7207" fill="none" rx="3" ry="3" style="stroke:#038048;stroke-width:1.0;"/><text fill="#000000" font-family="sans-serif" font-size="14" lengthAdjust="spacing" textLength="126" x="1797" y="733.5117">provider : flatpickr</text><ellipse cx="1788" cy="746.209" fill="none" rx="3" ry="3" style="stroke:#038048;stroke-width:1.0;"/><text fill="#000000" font-family="sans-serif" font-size="14" lengthAdjust="spacing" textLength="181" x="1797" y="750">providerInfo : ProviderInfo</text><ellipse cx="1788" cy="762.6973" fill="none" rx="3" ry="3" style="stroke:#038048;stroke-width:1.0;"/><text fill="#000000" font-family="sans-serif" font-size="14" lengthAdjust="spacing" textLength="184" x="1797" y="766.4883">selfElement : HTMLElement</text><ellipse cx="1788" cy="779.1855" fill="none" rx="3" ry="3" style="stroke:#038048;stroke-width:1.0;"/><text fill="#000000" font-family="sans-serif" font-size="14" lengthAdjust="spacing" textLength="113" x="1797" y="782.9766">uniqueId : string</text><ellipse cx="1788" cy="795.6738" fill="none" rx="3" ry="3" style="stroke:#038048;stroke-width:1.0;"/><text fill="#000000" font-family="sans-serif" font-size="14" lengthAdjust="spacing" textLength="111" x="1797" y="799.4648">widgetId : string</text><line style="stroke:#272B30;stroke-width:0.5;" x1="1778" x2="2331" y1="806.418" y2="806.418"/><ellipse cx="1788" cy="820.1621" fill="#84BE84" rx="3" ry="3" style="stroke:#038048;stroke-width:1.0;"/><text fill="#000000" font-family="sans-serif" font-size="14" lengthAdjust="spacing" textLength="86" x="1797" y="823.9531">build() : void</text><ellipse cx="1788" cy="836.6504" fill="#84BE84" rx="3" ry="3" style="stroke:#038048;stroke-width:1.0;"/><text fill="#000000" font-family="sans-serif" font-size="14" lengthAdjust="spacing" textLength="482" x="1797" y="840.4414">changeProperty(propertyName: string, propertyValue: unknown) : void</text><ellipse cx="1788" cy="853.1387" fill="#84BE84" rx="3" ry="3" style="stroke:#038048;stroke-width:1.0;"/><text fill="#000000" font-family="sans-serif" font-size="14" lengthAdjust="spacing" textLength="84" x="1797" y="856.9297">clear() : void</text><ellipse cx="1788" cy="869.627" fill="#84BE84" rx="3" ry="3" style="stroke:#038048;stroke-width:1.0;"/><text fill="#000000" font-family="sans-serif" font-size="14" lengthAdjust="spacing" textLength="86" x="1797" y="873.418">close() : void</text><ellipse cx="1788" cy="886.1152" fill="#84BE84" rx="3" ry="3" style="stroke:#038048;stroke-width:1.0;"/><text fill="#000000" font-family="sans-serif" font-size="14" lengthAdjust="spacing" textLength="104" x="1797" y="889.9063">dispose() : void</text><ellipse cx="1788" cy="902.6035" fill="#84BE84" rx="3" ry="3" style="stroke:#038048;stroke-width:1.0;"/><text fill="#000000" font-family="sans-serif" font-size="14" lengthAdjust="spacing" textLength="216" x="1797" y="906.3945">equalsToID(id: string) : boolean</text><ellipse cx="1788" cy="919.0918" fill="#84BE84" rx="3" ry="3" style="stroke:#038048;stroke-width:1.0;"/><text fill="#000000" font-family="sans-serif" font-size="14" lengthAdjust="spacing" textLength="253" x="1797" y="922.8828">open(isOpenedByApi: boolean) : void</text><ellipse cx="1788" cy="935.5801" fill="#84BE84" rx="3" ry="3" style="stroke:#038048;stroke-width:1.0;"/><text fill="#000000" font-family="sans-serif" font-size="14" lengthAdjust="spacing" textLength="428" x="1797" y="939.3711">registerCallback(eventName: string, callback: OSGeneric) : void</text><ellipse cx="1788" cy="952.0684" fill="#84BE84" rx="3" ry="3" style="stroke:#038048;stroke-width:1.0;"/><text fill="#000000" font-family="sans-serif" font-size="14" lengthAdjust="spacing" textLength="222" x="1797" y="955.8594">setLanguage(value: string) : void</text><ellipse cx="1788" cy="968.5566" fill="#84BE84" rx="3" ry="3" style="stroke:#038048;stroke-width:1.0;"/><text fill="#000000" font-family="sans-serif" font-size="14" lengthAdjust="spacing" textLength="324" x="1797" y="972.3477">setProviderConfigs(providerConfigs: any) : void</text><ellipse cx="1788" cy="985.0449" fill="#84BE84" rx="3" ry="3" style="stroke:#038048;stroke-width:1.0;"/><text fill="#000000" font-family="sans-serif" font-size="14" lengthAdjust="spacing" textLength="529" x="1797" y="988.8359">setProviderEvent(eventName: string, callback: Generic, uniqueId: string) : void</text><ellipse cx="1788" cy="1001.5332" fill="#84BE84" rx="3" ry="3" style="stroke:#038048;stroke-width:1.0;"/><text fill="#000000" font-family="sans-serif" font-size="14" lengthAdjust="spacing" textLength="281" x="1797" y="1005.3242">unsetProviderEvent(eventId: string) : void</text><ellipse cx="1788" cy="1018.0215" fill="#84BE84" rx="3" ry="3" style="stroke:#038048;stroke-width:1.0;"/><text fill="#000000" font-family="sans-serif" font-size="14" lengthAdjust="spacing" textLength="249" x="1797" y="1021.8125">updateInitialTime(time: string) : void</text><ellipse cx="1788" cy="1034.5098" fill="#84BE84" rx="3" ry="3" style="stroke:#038048;stroke-width:1.0;"/><text fill="#000000" font-family="sans-serif" font-size="14" lengthAdjust="spacing" textLength="377" x="1797" y="1038.3008">updateProviderEvents(providerInfo: ProviderInfo) : void</text></g><!--class AbstractProviderPattern<P, C>--><g id="elem_AbstractProviderPattern&lt;P, C&gt;"><rect codeLine="128" fill="#FFFFFF" height="526.1602" id="AbstractProviderPattern&lt;P, C&gt;" rx="2.5" ry="2.5" style="stroke:#272B30;stroke-width:0.5;" width="787" x="2367" y="585"/><ellipse cx="2650.75" cy="601" fill="#A9DCDF" rx="11" ry="11" style="stroke:#181818;stroke-width:1.0;"/><path d="M2650.6133,596.3481 L2649.4595,601.4199 L2651.7754,601.4199 Z M2649.1191,594.1069 L2652.1157,594.1069 L2655.4609,606.5 L2653.0122,606.5 L2652.2485,603.437 L2648.9697,603.437 L2648.2227,606.5 L2645.7739,606.5 Z " fill="#000000"/><text fill="#000000" font-family="sans-serif" font-size="14" font-style="italic" lengthAdjust="spacing" textLength="211" x="2671.25" y="606.291">AbstractProviderPattern&lt;P, C&gt;</text><line style="stroke:#272B30;stroke-width:0.5;" x1="2368" x2="3153" y1="617" y2="617"/><polygon fill="none" points="2378,625.7441,2382,629.7441,2378,633.7441,2374,629.7441" style="stroke:#B38D22;stroke-width:1.0;"/><text fill="#000000" font-family="sans-serif" font-size="14" lengthAdjust="spacing" textLength="176" x="2387" y="634.5352">isProviderBased : boolean</text><polygon fill="none" points="2378,642.2324,2382,646.2324,2378,650.2324,2374,646.2324" style="stroke:#B38D22;stroke-width:1.0;"/><text fill="#000000" font-family="sans-serif" font-size="14" lengthAdjust="spacing" textLength="389" x="2387" y="651.0234">providerEventsManagerInstance : IProviderEventManager</text><rect fill="none" height="6" style="stroke:#C82930;stroke-width:1.0;" width="6" x="2375" y="660.7207"/><text fill="#000000" font-family="sans-serif" font-size="14" lengthAdjust="spacing" textLength="407" x="2387" y="667.5117">_platformEventProviderConfigsAppliedCallback : OSGeneric</text><rect fill="none" height="6" style="stroke:#C82930;stroke-width:1.0;" width="6" x="2375" y="677.209"/><text fill="#000000" font-family="sans-serif" font-size="14" lengthAdjust="spacing" textLength="85" x="2387" y="684">_provider : P</text><rect fill="none" height="6" style="stroke:#C82930;stroke-width:1.0;" width="6" x="2375" y="693.6973"/><text fill="#000000" font-family="sans-serif" font-size="14" lengthAdjust="spacing" textLength="188" x="2387" y="700.4883">_providerInfo : ProviderInfo</text><line style="stroke:#272B30;stroke-width:0.5;" x1="2368" x2="3153" y1="707.4414" y2="707.4414"/><ellipse cx="2378" cy="721.1855" fill="#84BE84" rx="3" ry="3" style="stroke:#038048;stroke-width:1.0;"/><text fill="#000000" font-family="sans-serif" font-size="14" lengthAdjust="spacing" textLength="86" x="2387" y="724.9766">build() : void</text><ellipse cx="2378" cy="737.6738" fill="#84BE84" rx="3" ry="3" style="stroke:#038048;stroke-width:1.0;"/><text fill="#000000" font-family="sans-serif" font-size="14" lengthAdjust="spacing" textLength="482" x="2387" y="741.4648">changeProperty(propertyName: string, propertyValue: unknown) : void</text><ellipse cx="2378" cy="754.1621" fill="#84BE84" rx="3" ry="3" style="stroke:#038048;stroke-width:1.0;"/><text fill="#000000" font-family="sans-serif" font-size="14" lengthAdjust="spacing" textLength="236" x="2387" y="757.9531">checkAddedProviderEvents() : void</text><ellipse cx="2378" cy="770.6504" fill="#84BE84" rx="3" ry="3" style="stroke:#038048;stroke-width:1.0;"/><text fill="#000000" font-family="sans-serif" font-size="14" lengthAdjust="spacing" textLength="247" x="2387" y="774.4414">checkPendingProviderEvents() : void</text><ellipse cx="2378" cy="787.1387" fill="#84BE84" rx="3" ry="3" style="stroke:#038048;stroke-width:1.0;"/><text fill="#000000" font-family="sans-serif" font-size="14" lengthAdjust="spacing" textLength="104" x="2387" y="790.9297">dispose() : void</text><ellipse cx="2378" cy="803.627" fill="#84BE84" rx="3" ry="3" style="stroke:#038048;stroke-width:1.0;"/><text fill="#000000" font-family="sans-serif" font-size="14" lengthAdjust="spacing" textLength="266" x="2387" y="807.418">equalsToID(patternId: string) : boolean</text><ellipse cx="2378" cy="820.1152" fill="#84BE84" rx="3" ry="3" style="stroke:#038048;stroke-width:1.0;"/><text fill="#000000" font-family="sans-serif" font-size="14" lengthAdjust="spacing" textLength="428" x="2387" y="823.9063">registerCallback(eventName: string, callback: OSGeneric) : void</text><ellipse cx="2378" cy="836.6035" fill="#84BE84" rx="3" ry="3" style="stroke:#038048;stroke-width:1.0;"/><text fill="#000000" font-family="sans-serif" font-size="14" lengthAdjust="spacing" textLength="364" x="2387" y="840.3945">setProviderConfigs(providerConfigs: unknown) : void</text><ellipse cx="2378" cy="853.0918" fill="#84BE84" rx="3" ry="3" style="stroke:#038048;stroke-width:1.0;"/><text fill="#000000" font-family="sans-serif" font-size="14" lengthAdjust="spacing" textLength="668" x="2387" y="856.8828">setProviderEvent(eventName: string, callback: Generic, uniqueId: string, saveEvent: boolean) : void</text><ellipse cx="2378" cy="869.5801" fill="#84BE84" rx="3" ry="3" style="stroke:#038048;stroke-width:1.0;"/><text fill="#000000" font-family="sans-serif" font-size="14" lengthAdjust="spacing" textLength="281" x="2387" y="873.3711">unsetProviderEvent(eventId: string) : void</text><ellipse cx="2378" cy="886.0684" fill="#84BE84" rx="3" ry="3" style="stroke:#038048;stroke-width:1.0;"/><text fill="#000000" font-family="sans-serif" font-size="14" lengthAdjust="spacing" textLength="377" x="2387" y="889.8594">updateProviderEvents(providerInfo: ProviderInfo) : void</text><polygon fill="#FFFF44" points="2378,897.5566,2382,901.5566,2378,905.5566,2374,901.5566" style="stroke:#B38D22;stroke-width:1.0;"/><text fill="#000000" font-family="sans-serif" font-size="14" lengthAdjust="spacing" textLength="123" x="2387" y="906.3477">finishBuild() : void</text><polygon fill="#FFFF44" points="2378,914.0449,2382,918.0449,2378,922.0449,2374,918.0449" style="stroke:#B38D22;stroke-width:1.0;"/><text fill="#000000" font-family="sans-serif" font-size="14" font-style="italic" lengthAdjust="spacing" textLength="158" x="2387" y="922.8359">prepareConfigs() : void</text><polygon fill="#FFFF44" points="2378,930.5332,2382,934.5332,2378,938.5332,2374,934.5332" style="stroke:#B38D22;stroke-width:1.0;"/><text fill="#000000" font-family="sans-serif" font-size="14" lengthAdjust="spacing" textLength="99" x="2387" y="939.3242">redraw() : void</text><polygon fill="#FFFF44" points="2378,947.0215,2382,951.0215,2378,955.0215,2374,951.0215" style="stroke:#B38D22;stroke-width:1.0;"/><text fill="#000000" font-family="sans-serif" font-size="14" font-style="italic" lengthAdjust="spacing" textLength="178" x="2387" y="955.8125">setA11YProperties() : void</text><polygon fill="#FFFF44" points="2378,963.5098,2382,967.5098,2378,971.5098,2374,967.5098" style="stroke:#B38D22;stroke-width:1.0;"/><text fill="#000000" font-family="sans-serif" font-size="14" font-style="italic" lengthAdjust="spacing" textLength="136" x="2387" y="972.3008">setCallbacks() : void</text><polygon fill="#FFFF44" points="2378,979.998,2382,983.998,2378,987.998,2374,983.998" style="stroke:#B38D22;stroke-width:1.0;"/><text fill="#000000" font-family="sans-serif" font-size="14" font-style="italic" lengthAdjust="spacing" textLength="165" x="2387" y="988.7891">setHtmlElements() : void</text><polygon fill="#FFFF44" points="2378,996.4863,2382,1000.4863,2378,1004.4863,2374,1000.4863" style="stroke:#B38D22;stroke-width:1.0;"/><text fill="#000000" font-family="sans-serif" font-size="14" lengthAdjust="spacing" textLength="570" x="2387" y="1005.2773">triggerPlatformEventCallback(platFormCallback: OSGeneric, args: unknown[]) : void</text><polygon fill="#FFFF44" points="2378,1012.9746,2382,1016.9746,2378,1020.9746,2374,1016.9746" style="stroke:#B38D22;stroke-width:1.0;"/><text fill="#000000" font-family="sans-serif" font-size="14" lengthAdjust="spacing" textLength="318" x="2387" y="1021.7656">triggerPlatformInitializedEventCallback() : void</text><polygon fill="#FFFF44" points="2378,1029.4629,2382,1033.4629,2378,1037.4629,2374,1033.4629" style="stroke:#B38D22;stroke-width:1.0;"/><text fill="#000000" font-family="sans-serif" font-size="14" lengthAdjust="spacing" textLength="154" x="2387" y="1038.2539">unsetCallbacks() : void</text><polygon fill="#FFFF44" points="2378,1045.9512,2382,1049.9512,2378,1053.9512,2374,1049.9512" style="stroke:#B38D22;stroke-width:1.0;"/><text fill="#000000" font-family="sans-serif" font-size="14" lengthAdjust="spacing" textLength="198" x="2387" y="1054.7422">unsetGlobalCallbacks() : void</text><polygon fill="#FFFF44" points="2378,1062.4395,2382,1066.4395,2378,1070.4395,2374,1066.4395" style="stroke:#B38D22;stroke-width:1.0;"/><text fill="#000000" font-family="sans-serif" font-size="14" font-style="italic" lengthAdjust="spacing" textLength="183" x="2387" y="1071.2305">unsetHtmlElements() : void</text><rect fill="#F24D5C" height="6" style="stroke:#C82930;stroke-width:1.0;" width="6" x="2375" y="1080.9277"/><text fill="#000000" font-family="sans-serif" font-size="14" lengthAdjust="spacing" textLength="397" x="2387" y="1087.7188">_getEventIndexFromArray(event: IProviderEvent) : number</text><rect fill="#F24D5C" height="6" style="stroke:#C82930;stroke-width:1.0;" width="6" x="2375" y="1097.416"/><text fill="#000000" font-family="sans-serif" font-size="14" lengthAdjust="spacing" textLength="761" x="2387" y="1104.207">_handleProviderEventsAPI(eventName: string, callback: Generic, addEvent: boolean, event: IProviderEvent) : void</text></g><!--reverse link IPattern to IProviderPattern<P>--><g id="link_IPattern_IProviderPattern&lt;P&gt;"><path codeLine="33" d="M1464.5,223.33 C1464.5,236.36 1464.5,249.68 1464.5,262.86 " fill="none" id="IPattern-backto-IProviderPattern&lt;P&gt;" style="stroke:#272B30;stroke-width:1.0;"/><polygon fill="none" points="1457.5,223.17,1464.5,203.17,1471.5,223.17,1457.5,223.17" style="stroke:#272B30;stroke-width:1.0;"/></g><!--reverse link IProviderPattern<P> to IFlatpickr--><g id="link_IProviderPattern&lt;P&gt;_IFlatpickr"><path codeLine="59" d="M1190.45,417.27 C1009.19,440.61 770.63,488.19 579.5,585 C552.31,598.77 525.66,615.68 500.18,634.2 " fill="none" id="IProviderPattern&lt;P&gt;-backto-IFlatpickr" style="stroke:#272B30;stroke-width:1.0;"/><polygon fill="none" points="1189.59,410.33,1210.31,414.79,1191.33,424.22,1189.59,410.33" style="stroke:#272B30;stroke-width:1.0;"/></g><!--reverse link IProviderPattern<P> to IFlatpickrMonth--><g id="link_IProviderPattern&lt;P&gt;_IFlatpickrMonth"><path codeLine="83" d="M1236.66,536.69 C1213.64,552.51 1190.88,568.77 1169.5,585 C1142.35,605.6 1114.62,628.09 1087.55,650.96 " fill="none" id="IProviderPattern&lt;P&gt;-backto-IFlatpickrMonth" style="stroke:#272B30;stroke-width:1.0;"/><polygon fill="none" points="1232.99,530.72,1253.46,525.26,1240.87,542.3,1232.99,530.72" style="stroke:#272B30;stroke-width:1.0;"/></g><!--reverse link IProviderPattern<P> to INoUiSlider--><g id="link_IProviderPattern&lt;P&gt;_INoUiSlider"><path codeLine="103" d="M1464.5,545.19 C1464.5,589.59 1464.5,638.4 1464.5,683.59 " fill="none" id="IProviderPattern&lt;P&gt;-backto-INoUiSlider" style="stroke:#272B30;stroke-width:1.0;"/><polygon fill="none" points="1457.5,545.13,1464.5,525.13,1471.5,545.13,1457.5,545.13" style="stroke:#272B30;stroke-width:1.0;"/></g><!--reverse link IProviderPattern<P> to IFlatpickrTime--><g id="link_IProviderPattern&lt;P&gt;_IFlatpickrTime"><path codeLine="127" d="M1692.34,536.69 C1715.36,552.51 1738.12,568.77 1759.5,585 C1786.65,605.6 1814.38,628.09 1841.45,650.96 " fill="none" id="IProviderPattern&lt;P&gt;-backto-IFlatpickrTime" style="stroke:#272B30;stroke-width:1.0;"/><polygon fill="none" points="1688.13,542.3,1675.54,525.26,1696.01,530.72,1688.13,542.3" style="stroke:#272B30;stroke-width:1.0;"/></g><!--reverse link IProviderPattern<P> to AbstractProviderPattern<P, C>--><g id="link_IProviderPattern&lt;P&gt;_AbstractProviderPattern&lt;P, C&gt;"><path codeLine="159" d="M1738.48,428.11 C1917.23,455.88 2152.98,504.33 2349.5,585 C2355.27,587.37 2361.05,589.82 2366.84,592.35 " fill="none" id="IProviderPattern&lt;P&gt;-backto-AbstractProviderPattern&lt;P, C&gt;" style="stroke:#272B30;stroke-width:1.0;stroke-dasharray:7.0,7.0;"/><polygon fill="none" points="1737.33,435.02,1718.62,425.08,1739.45,421.18,1737.33,435.02" style="stroke:#272B30;stroke-width:1.0;"/></g><!--SRC=[xLXjRzCm4FxUNs5jNuBe41j8I1L2QZi6aIXKOe0GGiYDBwrLnmwsqr9W_vtBMnUdQRh1U9kw3rjylZkVxvxdBekPSnbJJICo5DIOljPgELH2QN9uykXayk1-nxWQ0wKPw7OL6iodMYMI5MfX65PqDhO3O0yPxSmu0m9HR5Sa0ZjJp5H58GU14Yujw906G0xyiLOBLD1ZQb4e7u-V791l7O8_TxaP95nOqYCJfGHGcOlZmWBbOrVYor2bqieoLp0WmgS28f2fj-VdenV5AjzE9F-SWCzmprZDvJGNBpcRWjqGJp0evjr1wK9nbik26PLJm8DZq7RbnSN3Inf1QTmbfVGj5GcA4pcNQYbTHuoRM1cekOVF2HNcNFcd7cUbmplrn6YOSeD9758X9bWV3nPuHJU6eDZhaLUldu44pGFtA0EspDzGoP1FZITXMJps29KhLp-96RLGcZnDJpHUjI1kFTR65ouAykhlAls-ZbUfuqMdaj37tu-Eccdc5E1CK1lpOAwlmRwmjBbrB0pmlhhkN6pM4wjC9m9EwSfubUVoi0yV6zNV0SmtJMGIJK0tcFmqZl2UicPuKotY1IOweLFm5daMBoDexIInksve9nMZh9Uq1rY4roKbTfeZIMIpswtwMK_p9RUSYbDyzDBryMK4wVAapHOFmu6NtXV_ZC0OpDKE_Mltp-RPMV3zai_DD1yfQMUxkCxDAuJGlWEqTu1VusUUOs23LJ_cQuKzQt-HjHc-lIZz_HuhsIEZyl7FqY_dcSF1b-eDVorImslCMhaskesllEaKzDhHi8LeyWgcV_Vj-RzYpuqJeGBsva5qpYFOpw7z7BgbSoY5jsTvz9VU_Z9sTUW4pwQ19K7wPOSSz8lrXeSk6Qu_lnnoK-uFg05MGyrXx0GzeX8BYa4QIoKol4TyvrR5VcPwz2d6-4AbesohLkP-70iEhCGOgG2fjAv_0BeKRMNyxoNf389vdp5WjKesg8r1CdJSghYJp75UCFyVc6QD2RaX7dQ9eGl8F6pfI7zgocM83xdaPZROHDAtac0NAIqWfXhAVBaUD31DbzkDyJBzu-Ft1IGvc5RLihRjMizj98hfLWy74pH5KewhR5m39kNe6Kg7coZf4gehjQzziwYxBJeX_mhCFS6roagvvKhvvZEX9bHSuTQPzlPx7tt2CPw5uai6Nyxmd_I-rdILGwVUkLBJ_DjCOOnTWuaQXlfZ_ueOfuovWEwIhSVkQFNtxkrgvJy0]--></g></svg>