<?xml version="1.0" encoding="UTF-8" standalone="no"?><svg xmlns="http://www.w3.org/2000/svg" xmlns:xlink="http://www.w3.org/1999/xlink" contentScriptType="application/ecmascript" contentStyleType="text/css" height="622px" preserveAspectRatio="none" style="width:862px;height:622px;background:#CED4DA;" version="1.1" viewBox="0 0 862 622" width="862px" zoomAndPan="magnify"><defs><filter height="300%" id="f1e9hb3g63i7kl" width="300%" x="-1" y="-1"><feGaussianBlur result="blurOut" stdDeviation="2.0"/><feColorMatrix in="blurOut" result="blurOut2" type="matrix" values="0 0 0 0 0 0 0 0 0 0 0 0 0 0 0 0 0 0 .4 0"/><feOffset dx="4.0" dy="4.0" in="blurOut2" result="blurOut3"/><feBlend in="SourceGraphic" in2="blurOut3" mode="normal"/></filter></defs><g><!--MD5=[bed2d126a4d0ed931c02a0aac4b26ac4]
class IRangeSlider--><rect codeLine="7" fill="#FFFFFF" filter="url(#f1e9hb3g63i7kl)" height="151.6406" id="IRangeSlider" style="stroke:#272B30;stroke-width:1.5;" width="403" x="226" y="219"/><ellipse cx="387.75" cy="235" fill="#B4A7E5" rx="11" ry="11" style="stroke:#272B30;stroke-width:1.0;"/><path d="M384.1777,231.2651 L384.1777,229.1069 L391.5571,229.1069 L391.5571,231.2651 L389.0918,231.2651 L389.0918,239.3418 L391.5571,239.3418 L391.5571,241.5 L384.1777,241.5 L384.1777,239.3418 L386.6431,239.3418 L386.6431,231.2651 Z " fill="#000000"/><text fill="#000000" font-family="sans-serif" font-size="12" font-style="italic" lengthAdjust="spacing" textLength="71" x="408.25" y="239.5352">IRangeSlider</text><line style="stroke:#272B30;stroke-width:1.5;" x1="227" x2="628" y1="251" y2="251"/><ellipse cx="237" cy="262" rx="3" ry="3" style="stroke:#038048;stroke-width:1.0;fill:none;"/><text fill="#000000" font-family="sans-serif" font-size="11" lengthAdjust="spacing" textLength="84" x="246" y="265.6348">isBuilt : boolean</text><ellipse cx="237" cy="274.9551" rx="3" ry="3" style="stroke:#038048;stroke-width:1.0;fill:none;"/><text fill="#000000" font-family="sans-serif" font-size="11" lengthAdjust="spacing" textLength="142" x="246" y="278.5898">selfElement : HTMLElement</text><ellipse cx="237" cy="287.9102" rx="3" ry="3" style="stroke:#038048;stroke-width:1.0;fill:none;"/><text fill="#000000" font-family="sans-serif" font-size="11" lengthAdjust="spacing" textLength="88" x="246" y="291.5449">uniqueId : string</text><ellipse cx="237" cy="300.8652" rx="3" ry="3" style="stroke:#038048;stroke-width:1.0;fill:none;"/><text fill="#000000" font-family="sans-serif" font-size="11" lengthAdjust="spacing" textLength="86" x="246" y="304.5">widgetId : string</text><line style="stroke:#272B30;stroke-width:1.5;" x1="227" x2="628" y1="310.8203" y2="310.8203"/><ellipse cx="237" cy="321.8203" fill="#84BE84" rx="3" ry="3" style="stroke:#038048;stroke-width:1.0;"/><text fill="#000000" font-family="sans-serif" font-size="11" lengthAdjust="spacing" textLength="67" x="246" y="325.4551">build() : void</text><ellipse cx="237" cy="334.7754" fill="#84BE84" rx="3" ry="3" style="stroke:#038048;stroke-width:1.0;"/><text fill="#000000" font-family="sans-serif" font-size="11" lengthAdjust="spacing" textLength="377" x="246" y="338.4102">changeProperty(propertyName: string, propertyValue: unknown) : void</text><ellipse cx="237" cy="347.7305" fill="#84BE84" rx="3" ry="3" style="stroke:#038048;stroke-width:1.0;"/><text fill="#000000" font-family="sans-serif" font-size="11" lengthAdjust="spacing" textLength="82" x="246" y="351.3652">dispose() : void</text><ellipse cx="237" cy="360.6855" fill="#84BE84" rx="3" ry="3" style="stroke:#038048;stroke-width:1.0;"/><text fill="#000000" font-family="sans-serif" font-size="11" lengthAdjust="spacing" textLength="168" x="246" y="364.3203">equalsToID(id: string) : boolean</text><!--MD5=[3266101ea6228889a90c639b28de0501]
class IPattern--><rect codeLine="17" fill="#FFFFFF" filter="url(#f1e9hb3g63i7kl)" height="151.6406" id="IPattern" style="stroke:#272B30;stroke-width:1.5;" width="403" x="226" y="7"/><ellipse cx="401.25" cy="23" fill="#B4A7E5" rx="11" ry="11" style="stroke:#272B30;stroke-width:1.0;"/><path d="M397.6777,19.2651 L397.6777,17.1069 L405.0571,17.1069 L405.0571,19.2651 L402.5918,19.2651 L402.5918,27.3418 L405.0571,27.3418 L405.0571,29.5 L397.6777,29.5 L397.6777,27.3418 L400.1431,27.3418 L400.1431,19.2651 Z " fill="#000000"/><text fill="#000000" font-family="sans-serif" font-size="12" font-style="italic" lengthAdjust="spacing" textLength="44" x="421.75" y="27.5352">IPattern</text><line style="stroke:#272B30;stroke-width:1.5;" x1="227" x2="628" y1="39" y2="39"/><ellipse cx="237" cy="50" rx="3" ry="3" style="stroke:#038048;stroke-width:1.0;fill:none;"/><text fill="#000000" font-family="sans-serif" font-size="11" lengthAdjust="spacing" textLength="84" x="246" y="53.6348">isBuilt : boolean</text><ellipse cx="237" cy="62.9551" rx="3" ry="3" style="stroke:#038048;stroke-width:1.0;fill:none;"/><text fill="#000000" font-family="sans-serif" font-size="11" lengthAdjust="spacing" textLength="142" x="246" y="66.5898">selfElement : HTMLElement</text><ellipse cx="237" cy="75.9102" rx="3" ry="3" style="stroke:#038048;stroke-width:1.0;fill:none;"/><text fill="#000000" font-family="sans-serif" font-size="11" lengthAdjust="spacing" textLength="88" x="246" y="79.5449">uniqueId : string</text><ellipse cx="237" cy="88.8652" rx="3" ry="3" style="stroke:#038048;stroke-width:1.0;fill:none;"/><text fill="#000000" font-family="sans-serif" font-size="11" lengthAdjust="spacing" textLength="86" x="246" y="92.5">widgetId : string</text><line style="stroke:#272B30;stroke-width:1.5;" x1="227" x2="628" y1="98.8203" y2="98.8203"/><ellipse cx="237" cy="109.8203" fill="#84BE84" rx="3" ry="3" style="stroke:#038048;stroke-width:1.0;"/><text fill="#000000" font-family="sans-serif" font-size="11" lengthAdjust="spacing" textLength="67" x="246" y="113.4551">build() : void</text><ellipse cx="237" cy="122.7754" fill="#84BE84" rx="3" ry="3" style="stroke:#038048;stroke-width:1.0;"/><text fill="#000000" font-family="sans-serif" font-size="11" lengthAdjust="spacing" textLength="377" x="246" y="126.4102">changeProperty(propertyName: string, propertyValue: unknown) : void</text><ellipse cx="237" cy="135.7305" fill="#84BE84" rx="3" ry="3" style="stroke:#038048;stroke-width:1.0;"/><text fill="#000000" font-family="sans-serif" font-size="11" lengthAdjust="spacing" textLength="82" x="246" y="139.3652">dispose() : void</text><ellipse cx="237" cy="148.6855" fill="#84BE84" rx="3" ry="3" style="stroke:#038048;stroke-width:1.0;"/><text fill="#000000" font-family="sans-serif" font-size="11" lengthAdjust="spacing" textLength="168" x="246" y="152.3203">equalsToID(id: string) : boolean</text><!--MD5=[f89f7c2d9f61d02c77644fe87f481d07]
class INoUiSlider--><rect codeLine="28" fill="#FFFFFF" filter="url(#f1e9hb3g63i7kl)" height="177.5508" id="INoUiSlider" style="stroke:#272B30;stroke-width:1.5;" width="403" x="7" y="431"/><ellipse cx="173.25" cy="447" fill="#B4A7E5" rx="11" ry="11" style="stroke:#272B30;stroke-width:1.0;"/><path d="M169.6777,443.2651 L169.6777,441.1069 L177.0571,441.1069 L177.0571,443.2651 L174.5918,443.2651 L174.5918,451.3418 L177.0571,451.3418 L177.0571,453.5 L169.6777,453.5 L169.6777,451.3418 L172.1431,451.3418 L172.1431,443.2651 Z " fill="#000000"/><text fill="#000000" font-family="sans-serif" font-size="12" font-style="italic" lengthAdjust="spacing" textLength="62" x="193.75" y="451.5352">INoUiSlider</text><line style="stroke:#272B30;stroke-width:1.5;" x1="8" x2="409" y1="463" y2="463"/><ellipse cx="18" cy="474" rx="3" ry="3" style="stroke:#038048;stroke-width:1.0;fill:none;"/><text fill="#000000" font-family="sans-serif" font-size="11" lengthAdjust="spacing" textLength="84" x="27" y="477.6348">isBuilt : boolean</text><ellipse cx="18" cy="486.9551" rx="3" ry="3" style="stroke:#038048;stroke-width:1.0;fill:none;"/><text fill="#000000" font-family="sans-serif" font-size="11" lengthAdjust="spacing" textLength="110" x="27" y="490.5898">provider : noUiSlider</text><ellipse cx="18" cy="499.9102" rx="3" ry="3" style="stroke:#038048;stroke-width:1.0;fill:none;"/><text fill="#000000" font-family="sans-serif" font-size="11" lengthAdjust="spacing" textLength="142" x="27" y="503.5449">selfElement : HTMLElement</text><ellipse cx="18" cy="512.8652" rx="3" ry="3" style="stroke:#038048;stroke-width:1.0;fill:none;"/><text fill="#000000" font-family="sans-serif" font-size="11" lengthAdjust="spacing" textLength="88" x="27" y="516.5">uniqueId : string</text><ellipse cx="18" cy="525.8203" rx="3" ry="3" style="stroke:#038048;stroke-width:1.0;fill:none;"/><text fill="#000000" font-family="sans-serif" font-size="11" lengthAdjust="spacing" textLength="86" x="27" y="529.4551">widgetId : string</text><line style="stroke:#272B30;stroke-width:1.5;" x1="8" x2="409" y1="535.7754" y2="535.7754"/><ellipse cx="18" cy="546.7754" fill="#84BE84" rx="3" ry="3" style="stroke:#038048;stroke-width:1.0;"/><text fill="#000000" font-family="sans-serif" font-size="11" lengthAdjust="spacing" textLength="67" x="27" y="550.4102">build() : void</text><ellipse cx="18" cy="559.7305" fill="#84BE84" rx="3" ry="3" style="stroke:#038048;stroke-width:1.0;"/><text fill="#000000" font-family="sans-serif" font-size="11" lengthAdjust="spacing" textLength="377" x="27" y="563.3652">changeProperty(propertyName: string, propertyValue: unknown) : void</text><ellipse cx="18" cy="572.6855" fill="#84BE84" rx="3" ry="3" style="stroke:#038048;stroke-width:1.0;"/><text fill="#000000" font-family="sans-serif" font-size="11" lengthAdjust="spacing" textLength="82" x="27" y="576.3203">dispose() : void</text><ellipse cx="18" cy="585.6406" fill="#84BE84" rx="3" ry="3" style="stroke:#038048;stroke-width:1.0;"/><text fill="#000000" font-family="sans-serif" font-size="11" lengthAdjust="spacing" textLength="168" x="27" y="589.2754">equalsToID(id: string) : boolean</text><ellipse cx="18" cy="598.5957" fill="#84BE84" rx="3" ry="3" style="stroke:#038048;stroke-width:1.0;"/><text fill="#000000" font-family="sans-serif" font-size="11" lengthAdjust="spacing" textLength="335" x="27" y="602.2305">registerCallback(eventName: string, callback: OSGeneric) : void</text><!--MD5=[99d7fd0faeafe5edafd44853e0335d67]
class AbstractRangeSlider<P, C>--><rect codeLine="41" fill="#FFFFFF" filter="url(#f1e9hb3g63i7kl)" height="177.5508" id="AbstractRangeSlider&lt;P, C&gt;" style="stroke:#272B30;stroke-width:1.5;" width="403" x="445" y="431"/><ellipse cx="562.75" cy="447" fill="#A9DCDF" rx="11" ry="11" style="stroke:#272B30;stroke-width:1.0;"/><path d="M562.6133,442.3481 L561.4595,447.4199 L563.7754,447.4199 Z M561.1191,440.1069 L564.1157,440.1069 L567.4609,452.5 L565.0122,452.5 L564.2485,449.437 L560.9697,449.437 L560.2227,452.5 L557.7739,452.5 Z " fill="#000000"/><text fill="#000000" font-family="sans-serif" font-size="12" font-style="italic" lengthAdjust="spacing" textLength="159" x="583.25" y="451.5352">AbstractRangeSlider&lt;P, C&gt;</text><line style="stroke:#272B30;stroke-width:1.5;" x1="446" x2="847" y1="463" y2="463"/><polygon fill="none" points="456,469,460,473,456,477,452,473" style="stroke:#B38D22;stroke-width:1.0;"/><text fill="#000000" font-family="sans-serif" font-size="11" lengthAdjust="spacing" textLength="131" x="465" y="477.6348">_selfElem : HTMLElement</text><polygon fill="none" points="456,481.9551,460,485.9551,456,489.9551,452,485.9551" style="stroke:#B38D22;stroke-width:1.0;"/><text fill="#000000" font-family="sans-serif" font-size="11" lengthAdjust="spacing" textLength="92" x="465" y="490.5898">_widgetId : string</text><rect fill="none" height="6" style="stroke:#C82930;stroke-width:1.0;" width="6" x="453" y="496.9102"/><text fill="#000000" font-family="sans-serif" font-size="11" lengthAdjust="spacing" textLength="67" x="465" y="503.5449">_provider : P</text><line style="stroke:#272B30;stroke-width:1.5;" x1="446" x2="847" y1="509.8652" y2="509.8652"/><ellipse cx="456" cy="520.8652" fill="#84BE84" rx="3" ry="3" style="stroke:#038048;stroke-width:1.0;"/><text fill="#000000" font-family="sans-serif" font-size="11" lengthAdjust="spacing" textLength="67" x="465" y="524.5">build() : void</text><ellipse cx="456" cy="533.8203" fill="#84BE84" rx="3" ry="3" style="stroke:#038048;stroke-width:1.0;"/><text fill="#000000" font-family="sans-serif" font-size="11" lengthAdjust="spacing" textLength="377" x="465" y="537.4551">changeProperty(propertyName: string, propertyValue: unknown) : void</text><ellipse cx="456" cy="546.7754" fill="#84BE84" rx="3" ry="3" style="stroke:#038048;stroke-width:1.0;"/><text fill="#000000" font-family="sans-serif" font-size="11" lengthAdjust="spacing" textLength="82" x="465" y="550.4102">dispose() : void</text><ellipse cx="456" cy="559.7305" fill="#84BE84" rx="3" ry="3" style="stroke:#038048;stroke-width:1.0;"/><text fill="#000000" font-family="sans-serif" font-size="11" lengthAdjust="spacing" textLength="207" x="465" y="563.3652">equalsToID(patternId: string) : boolean</text><ellipse cx="456" cy="572.6855" fill="#84BE84" rx="3" ry="3" style="stroke:#038048;stroke-width:1.0;"/><text fill="#000000" font-family="sans-serif" font-size="11" font-style="italic" lengthAdjust="spacing" textLength="335" x="465" y="576.3203">registerCallback(eventName: string, callback: OSGeneric) : void</text><ellipse cx="456" cy="585.6406" fill="#84BE84" rx="3" ry="3" style="stroke:#038048;stroke-width:1.0;"/><text fill="#000000" font-family="sans-serif" font-size="11" font-style="italic" lengthAdjust="spacing" textLength="232" x="465" y="589.2754">setRangeIntervalChangeOnDragEnd() : void</text><polygon fill="#FFFF44" points="456,593.5957,460,597.5957,456,601.5957,452,597.5957" style="stroke:#B38D22;stroke-width:1.0;"/><text fill="#000000" font-family="sans-serif" font-size="11" lengthAdjust="spacing" textLength="96" x="465" y="602.2305">finishBuild() : void</text><!--MD5=[8b2ce6b6c81f4e3a80e8736c902c48c0]
reverse link IPattern to IRangeSlider--><path codeLine="27" d="M427.5,179.65 C427.5,192.83 427.5,206.21 427.5,218.95 " fill="none" id="IPattern-backto-IRangeSlider" style="stroke:#272B30;stroke-width:1.0;"/><polygon fill="none" points="420.5,179.22,427.5,159.22,434.5,179.22,420.5,179.22" style="stroke:#272B30;stroke-width:1.0;"/><!--MD5=[eb12bbccc77e2cd28b9dca257cc995f3]
reverse link IRangeSlider to INoUiSlider--><path codeLine="40" d="M339.35,385.76 C324.81,400.56 309.76,415.89 295.27,430.65 " fill="none" id="IRangeSlider-backto-INoUiSlider" style="stroke:#272B30;stroke-width:1.0;"/><polygon fill="none" points="334.65,380.55,353.66,371.19,344.64,390.36,334.65,380.55" style="stroke:#272B30;stroke-width:1.0;"/><!--MD5=[57d154e01b52757678f39df071940e68]
reverse link IRangeSlider to AbstractRangeSlider<P, C>--><path codeLine="53" d="M515.65,385.76 C530.19,400.56 545.24,415.89 559.73,430.65 " fill="none" id="IRangeSlider-backto-AbstractRangeSlider&lt;P, C&gt;" style="stroke:#272B30;stroke-width:1.0;stroke-dasharray:7.0,7.0;"/><polygon fill="none" points="510.36,390.36,501.34,371.19,520.35,380.55,510.36,390.36" style="stroke:#272B30;stroke-width:1.0;"/><!--MD5=[6b6888c03d2f712ca3c62aeb2b29987b]
@startuml
skinparam ClassArrowColor #272b30
skinparam ClassBorderColor #272b30
skinparam ClassBackgroundColor #fff
skinparam BackgroundColor #ced4da
hide empty methods
hide empty fields
interface "IRangeSlider" {
    +isBuilt : boolean
    +selfElement : HTMLElement
    +uniqueId : string
    +widgetId : string
    +build() : void
    +changeProperty(propertyName: string, propertyValue: unknown) : void
    +dispose() : void
    +equalsToID(id: string) : boolean
}
interface "IPattern" {
    +isBuilt : boolean
    +selfElement : HTMLElement
    +uniqueId : string
    +widgetId : string
    +build() : void
    +changeProperty(propertyName: string, propertyValue: unknown) : void
    +dispose() : void
    +equalsToID(id: string) : boolean
}
"IPattern" <|- - "IRangeSlider"
interface "INoUiSlider" {
    +isBuilt : boolean
    +provider : noUiSlider
    +selfElement : HTMLElement
    +uniqueId : string
    +widgetId : string
    +build() : void
    +changeProperty(propertyName: string, propertyValue: unknown) : void
    +dispose() : void
    +equalsToID(id: string) : boolean
    +registerCallback(eventName: string, callback: OSGeneric) : void
}
"IRangeSlider" <|- - "INoUiSlider"
abstract class "AbstractRangeSlider<P, C>" {
    #_selfElem : HTMLElement
    #_widgetId : string
    -_provider : P
    +build() : void
    +changeProperty(propertyName: string, propertyValue: unknown) : void
    +dispose() : void
    +equalsToID(patternId: string) : boolean
    {abstract} +registerCallback(eventName: string, callback: OSGeneric) : void
    {abstract} +setRangeIntervalChangeOnDragEnd() : void
    #finishBuild() : void
}
"IRangeSlider" <|.. "AbstractRangeSlider<P, C>"
@enduml

PlantUML version 1.2021.14(Fri Nov 12 16:46:50 WET 2021)
(GPL source distribution)
Java Runtime: Java(TM) SE Runtime Environment
JVM: Java HotSpot(TM) 64-Bit Server VM
Default Encoding: UTF-8
Language: en
Country: PT
--></g></svg>