<?xml version="1.0" encoding="us-ascii" standalone="no"?><svg xmlns="http://www.w3.org/2000/svg" xmlns:xlink="http://www.w3.org/1999/xlink" contentStyleType="text/css" height="1386px" preserveAspectRatio="none" style="width:611px;height:1386px;background:#CED4DA;" version="1.1" viewBox="0 0 611 1386" width="611px" zoomAndPan="magnify"><defs/><g><rect fill="#CED4DA" height="1386" style="stroke:none;stroke-width:1.0;" width="611" x="0" y="0"/><!--class IRating--><g id="elem_IRating"><rect codeLine="7" fill="#FFFFFF" height="227.2656" id="IRating" rx="2.5" ry="2.5" style="stroke:#272B30;stroke-width:0.5;" width="510" x="51.5" y="262"/><ellipse cx="278.25" cy="278" fill="#B4A7E5" rx="11" ry="11" style="stroke:#181818;stroke-width:1.0;"/><path d="M274.1719,273.7656 L274.1719,271.6094 L281.5625,271.6094 L281.5625,273.7656 L279.0938,273.7656 L279.0938,281.8438 L281.5625,281.8438 L281.5625,284 L274.1719,284 L274.1719,281.8438 L276.6406,281.8438 L276.6406,273.7656 L274.1719,273.7656 Z " fill="#000000"/><text fill="#000000" font-family="sans-serif" font-size="14" font-style="italic" lengthAdjust="spacing" textLength="48" x="298.75" y="282.8467">IRating</text><line style="stroke:#272B30;stroke-width:0.5;" x1="52.5" x2="560.5" y1="294" y2="294"/><ellipse cx="62.5" cy="307.6484" fill="none" rx="3" ry="3" style="stroke:#038048;stroke-width:1.0;"/><text fill="#000000" font-family="sans-serif" font-size="14" lengthAdjust="spacing" textLength="110" x="71.5" y="310.9951">isBuilt : boolean</text><ellipse cx="62.5" cy="323.9453" fill="none" rx="3" ry="3" style="stroke:#038048;stroke-width:1.0;"/><text fill="#000000" font-family="sans-serif" font-size="14" lengthAdjust="spacing" textLength="189" x="71.5" y="327.292">selfElement : HTMLElement</text><ellipse cx="62.5" cy="340.2422" fill="none" rx="3" ry="3" style="stroke:#038048;stroke-width:1.0;"/><text fill="#000000" font-family="sans-serif" font-size="14" lengthAdjust="spacing" textLength="112" x="71.5" y="343.5889">uniqueId : string</text><ellipse cx="62.5" cy="356.5391" fill="none" rx="3" ry="3" style="stroke:#038048;stroke-width:1.0;"/><text fill="#000000" font-family="sans-serif" font-size="14" lengthAdjust="spacing" textLength="110" x="71.5" y="359.8857">widgetId : string</text><line style="stroke:#272B30;stroke-width:0.5;" x1="52.5" x2="560.5" y1="367.1875" y2="367.1875"/><ellipse cx="62.5" cy="380.8359" fill="#84BE84" rx="3" ry="3" style="stroke:#038048;stroke-width:1.0;"/><text fill="#000000" font-family="sans-serif" font-size="14" lengthAdjust="spacing" textLength="84" x="71.5" y="384.1826">build() : void</text><ellipse cx="62.5" cy="397.1328" fill="#84BE84" rx="3" ry="3" style="stroke:#038048;stroke-width:1.0;"/><text fill="#000000" font-family="sans-serif" font-size="14" lengthAdjust="spacing" textLength="484" x="71.5" y="400.4795">changeProperty(propertyName: string, propertyValue: unknown) : void</text><ellipse cx="62.5" cy="413.4297" fill="#84BE84" rx="3" ry="3" style="stroke:#038048;stroke-width:1.0;"/><text fill="#000000" font-family="sans-serif" font-size="14" lengthAdjust="spacing" textLength="100" x="71.5" y="416.7764">disable() : void</text><ellipse cx="62.5" cy="429.7266" fill="#84BE84" rx="3" ry="3" style="stroke:#038048;stroke-width:1.0;"/><text fill="#000000" font-family="sans-serif" font-size="14" lengthAdjust="spacing" textLength="106" x="71.5" y="433.0732">dispose() : void</text><ellipse cx="62.5" cy="446.0234" fill="#84BE84" rx="3" ry="3" style="stroke:#038048;stroke-width:1.0;"/><text fill="#000000" font-family="sans-serif" font-size="14" lengthAdjust="spacing" textLength="98" x="71.5" y="449.3701">enable() : void</text><ellipse cx="62.5" cy="462.3203" fill="#84BE84" rx="3" ry="3" style="stroke:#038048;stroke-width:1.0;"/><text fill="#000000" font-family="sans-serif" font-size="14" lengthAdjust="spacing" textLength="217" x="71.5" y="465.667">equalsToID(id: string) : boolean</text><ellipse cx="62.5" cy="478.6172" fill="#84BE84" rx="3" ry="3" style="stroke:#038048;stroke-width:1.0;"/><text fill="#000000" font-family="sans-serif" font-size="14" lengthAdjust="spacing" textLength="434" x="71.5" y="481.9639">registerCallback(eventName: string, callback: OSGeneric) : void</text></g><!--class IPattern--><g id="elem_IPattern"><rect codeLine="20" fill="#FFFFFF" height="194.6719" id="IPattern" rx="2.5" ry="2.5" style="stroke:#272B30;stroke-width:0.5;" width="510" x="51.5" y="7"/><ellipse cx="275.75" cy="23" fill="#B4A7E5" rx="11" ry="11" style="stroke:#181818;stroke-width:1.0;"/><path d="M271.6719,18.7656 L271.6719,16.6094 L279.0625,16.6094 L279.0625,18.7656 L276.5938,18.7656 L276.5938,26.8438 L279.0625,26.8438 L279.0625,29 L271.6719,29 L271.6719,26.8438 L274.1406,26.8438 L274.1406,18.7656 L271.6719,18.7656 Z " fill="#000000"/><text fill="#000000" font-family="sans-serif" font-size="14" font-style="italic" lengthAdjust="spacing" textLength="53" x="296.25" y="27.8467">IPattern</text><line style="stroke:#272B30;stroke-width:0.5;" x1="52.5" x2="560.5" y1="39" y2="39"/><ellipse cx="62.5" cy="52.6484" fill="none" rx="3" ry="3" style="stroke:#038048;stroke-width:1.0;"/><text fill="#000000" font-family="sans-serif" font-size="14" lengthAdjust="spacing" textLength="110" x="71.5" y="55.9951">isBuilt : boolean</text><ellipse cx="62.5" cy="68.9453" fill="none" rx="3" ry="3" style="stroke:#038048;stroke-width:1.0;"/><text fill="#000000" font-family="sans-serif" font-size="14" lengthAdjust="spacing" textLength="189" x="71.5" y="72.292">selfElement : HTMLElement</text><ellipse cx="62.5" cy="85.2422" fill="none" rx="3" ry="3" style="stroke:#038048;stroke-width:1.0;"/><text fill="#000000" font-family="sans-serif" font-size="14" lengthAdjust="spacing" textLength="112" x="71.5" y="88.5889">uniqueId : string</text><ellipse cx="62.5" cy="101.5391" fill="none" rx="3" ry="3" style="stroke:#038048;stroke-width:1.0;"/><text fill="#000000" font-family="sans-serif" font-size="14" lengthAdjust="spacing" textLength="110" x="71.5" y="104.8857">widgetId : string</text><line style="stroke:#272B30;stroke-width:0.5;" x1="52.5" x2="560.5" y1="112.1875" y2="112.1875"/><ellipse cx="62.5" cy="125.8359" fill="#84BE84" rx="3" ry="3" style="stroke:#038048;stroke-width:1.0;"/><text fill="#000000" font-family="sans-serif" font-size="14" lengthAdjust="spacing" textLength="84" x="71.5" y="129.1826">build() : void</text><ellipse cx="62.5" cy="142.1328" fill="#84BE84" rx="3" ry="3" style="stroke:#038048;stroke-width:1.0;"/><text fill="#000000" font-family="sans-serif" font-size="14" lengthAdjust="spacing" textLength="484" x="71.5" y="145.4795">changeProperty(propertyName: string, propertyValue: unknown) : void</text><ellipse cx="62.5" cy="158.4297" fill="#84BE84" rx="3" ry="3" style="stroke:#038048;stroke-width:1.0;"/><text fill="#000000" font-family="sans-serif" font-size="14" lengthAdjust="spacing" textLength="106" x="71.5" y="161.7764">dispose() : void</text><ellipse cx="62.5" cy="174.7266" fill="#84BE84" rx="3" ry="3" style="stroke:#038048;stroke-width:1.0;"/><text fill="#000000" font-family="sans-serif" font-size="14" lengthAdjust="spacing" textLength="217" x="71.5" y="178.0732">equalsToID(id: string) : boolean</text><ellipse cx="62.5" cy="191.0234" fill="#84BE84" rx="3" ry="3" style="stroke:#038048;stroke-width:1.0;"/><text fill="#000000" font-family="sans-serif" font-size="14" lengthAdjust="spacing" textLength="434" x="71.5" y="194.3701">registerCallback(eventName: string, callback: OSGeneric) : void</text></g><!--class Rating--><g id="elem_Rating"><rect codeLine="32" fill="#FFFFFF" height="830.25" id="Rating" rx="2.5" ry="2.5" style="stroke:#272B30;stroke-width:0.5;" width="595" x="9" y="549"/><ellipse cx="280.25" cy="565" fill="#ADD1B2" rx="11" ry="11" style="stroke:#181818;stroke-width:1.0;"/><path d="M283.2188,570.6406 Q282.6406,570.9375 282,571.0781 Q281.3594,571.2344 280.6563,571.2344 Q278.1563,571.2344 276.8281,569.5938 Q275.5156,567.9375 275.5156,564.8125 Q275.5156,561.6875 276.8281,560.0313 Q278.1563,558.375 280.6563,558.375 Q281.3594,558.375 282,558.5313 Q282.6563,558.6875 283.2188,558.9844 L283.2188,561.7031 Q282.5938,561.125 282,560.8594 Q281.4063,560.5781 280.7813,560.5781 Q279.4375,560.5781 278.75,561.6563 Q278.0625,562.7188 278.0625,564.8125 Q278.0625,566.9063 278.75,567.9844 Q279.4375,569.0469 280.7813,569.0469 Q281.4063,569.0469 282,568.7813 Q282.5938,568.5 283.2188,567.9219 L283.2188,570.6406 Z " fill="#000000"/><text fill="#000000" font-family="sans-serif" font-size="14" lengthAdjust="spacing" textLength="44" x="300.75" y="569.8467">Rating</text><line style="stroke:#272B30;stroke-width:0.5;" x1="10" x2="603" y1="581" y2="581"/><polygon fill="none" points="20,589.6484,24,593.6484,20,597.6484,16,593.6484" style="stroke:#B38D22;stroke-width:1.0;"/><text fill="#000000" font-family="sans-serif" font-size="14" lengthAdjust="spacing" textLength="180" x="29" y="597.9951">isProviderBased : boolean</text><rect fill="none" height="6" style="stroke:#C82930;stroke-width:1.0;" width="6" x="17" y="607.9453"/><text fill="#000000" font-family="sans-serif" font-size="14" lengthAdjust="spacing" textLength="261" x="29" y="614.292">_clonedPlaceholders : HTMLElement[]</text><rect fill="none" height="6" style="stroke:#C82930;stroke-width:1.0;" width="6" x="17" y="624.2422"/><text fill="#000000" font-family="sans-serif" font-size="14" lengthAdjust="spacing" textLength="165" x="29" y="630.5889">_decimalValue : number</text><rect fill="none" height="6" style="stroke:#C82930;stroke-width:1.0;" width="6" x="17" y="640.5391"/><text fill="#000000" font-family="sans-serif" font-size="14" lengthAdjust="spacing" textLength="134" x="29" y="646.8857">_disabled : boolean</text><rect fill="none" height="6" style="stroke:#C82930;stroke-width:1.0;" width="6" x="17" y="656.8359"/><text fill="#000000" font-family="sans-serif" font-size="14" lengthAdjust="spacing" textLength="209" x="29" y="663.1826">_eventOnRatingClick : Generic</text><rect fill="none" height="6" style="stroke:#C82930;stroke-width:1.0;" width="6" x="17" y="673.1328"/><text fill="#000000" font-family="sans-serif" font-size="14" lengthAdjust="spacing" textLength="255" x="29" y="679.4795">_eventOnRatingInputKeyup : Generic</text><rect fill="none" height="6" style="stroke:#C82930;stroke-width:1.0;" width="6" x="17" y="689.4297"/><text fill="#000000" font-family="sans-serif" font-size="14" lengthAdjust="spacing" textLength="150" x="29" y="695.7764">_isHalfValue : boolean</text><rect fill="none" height="6" style="stroke:#C82930;stroke-width:1.0;" width="6" x="17" y="705.7266"/><text fill="#000000" font-family="sans-serif" font-size="14" lengthAdjust="spacing" textLength="252" x="29" y="712.0732">_platformEventOnSelect : OSGeneric</text><rect fill="none" height="6" style="stroke:#C82930;stroke-width:1.0;" width="6" x="17" y="722.0234"/><text fill="#000000" font-family="sans-serif" font-size="14" lengthAdjust="spacing" textLength="242" x="29" y="728.3701">_ratingFieldsetElem : HTMLElement</text><rect fill="none" height="6" style="stroke:#C82930;stroke-width:1.0;" width="6" x="17" y="738.3203"/><text fill="#000000" font-family="sans-serif" font-size="14" lengthAdjust="spacing" textLength="261" x="29" y="744.667">_ratingIconStatesElem : HTMLElement</text><rect fill="none" height="6" style="stroke:#C82930;stroke-width:1.0;" width="6" x="17" y="754.6172"/><text fill="#000000" font-family="sans-serif" font-size="14" lengthAdjust="spacing" textLength="173" x="29" y="760.9639">_ratingInputName : string</text><line style="stroke:#272B30;stroke-width:0.5;" x1="10" x2="603" y1="768.2656" y2="768.2656"/><ellipse cx="20" cy="781.9141" fill="#84BE84" rx="3" ry="3" style="stroke:#038048;stroke-width:1.0;"/><text fill="#000000" font-family="sans-serif" font-size="14" lengthAdjust="spacing" textLength="84" x="29" y="785.2607">build() : void</text><ellipse cx="20" cy="798.2109" fill="#84BE84" rx="3" ry="3" style="stroke:#038048;stroke-width:1.0;"/><text fill="#000000" font-family="sans-serif" font-size="14" lengthAdjust="spacing" textLength="484" x="29" y="801.5576">changeProperty(propertyName: string, propertyValue: unknown) : void</text><ellipse cx="20" cy="814.5078" fill="#84BE84" rx="3" ry="3" style="stroke:#038048;stroke-width:1.0;"/><text fill="#000000" font-family="sans-serif" font-size="14" lengthAdjust="spacing" textLength="100" x="29" y="817.8545">disable() : void</text><ellipse cx="20" cy="830.8047" fill="#84BE84" rx="3" ry="3" style="stroke:#038048;stroke-width:1.0;"/><text fill="#000000" font-family="sans-serif" font-size="14" lengthAdjust="spacing" textLength="106" x="29" y="834.1514">dispose() : void</text><ellipse cx="20" cy="847.1016" fill="#84BE84" rx="3" ry="3" style="stroke:#038048;stroke-width:1.0;"/><text fill="#000000" font-family="sans-serif" font-size="14" lengthAdjust="spacing" textLength="98" x="29" y="850.4482">enable() : void</text><ellipse cx="20" cy="863.3984" fill="#84BE84" rx="3" ry="3" style="stroke:#038048;stroke-width:1.0;"/><text fill="#000000" font-family="sans-serif" font-size="14" lengthAdjust="spacing" textLength="267" x="29" y="866.7451">equalsToID(patternId: string) : boolean</text><ellipse cx="20" cy="879.6953" fill="#84BE84" rx="3" ry="3" style="stroke:#038048;stroke-width:1.0;"/><text fill="#000000" font-family="sans-serif" font-size="14" lengthAdjust="spacing" textLength="434" x="29" y="883.042">registerCallback(eventName: string, callback: OSGeneric) : void</text><polygon fill="#FFFF44" points="20,890.9922,24,894.9922,20,898.9922,16,894.9922" style="stroke:#B38D22;stroke-width:1.0;"/><text fill="#000000" font-family="sans-serif" font-size="14" lengthAdjust="spacing" textLength="121" x="29" y="899.3389">finishBuild() : void</text><polygon fill="#FFFF44" points="20,907.2891,24,911.2891,20,915.2891,16,911.2891" style="stroke:#B38D22;stroke-width:1.0;"/><text fill="#000000" font-family="sans-serif" font-size="14" lengthAdjust="spacing" textLength="180" x="29" y="915.6357">setA11YProperties() : void</text><polygon fill="#FFFF44" points="20,923.5859,24,927.5859,20,931.5859,16,927.5859" style="stroke:#B38D22;stroke-width:1.0;"/><text fill="#000000" font-family="sans-serif" font-size="14" lengthAdjust="spacing" textLength="138" x="29" y="931.9326">setCallbacks() : void</text><polygon fill="#FFFF44" points="20,939.8828,24,943.8828,20,947.8828,16,943.8828" style="stroke:#B38D22;stroke-width:1.0;"/><text fill="#000000" font-family="sans-serif" font-size="14" lengthAdjust="spacing" textLength="169" x="29" y="948.2295">setHtmlElements() : void</text><polygon fill="#FFFF44" points="20,956.1797,24,960.1797,20,964.1797,16,960.1797" style="stroke:#B38D22;stroke-width:1.0;"/><text fill="#000000" font-family="sans-serif" font-size="14" lengthAdjust="spacing" textLength="569" x="29" y="964.5264">triggerPlatformEventCallback(platFormCallback: OSGeneric, args: unknown[]) : void</text><polygon fill="#FFFF44" points="20,972.4766,24,976.4766,20,980.4766,16,976.4766" style="stroke:#B38D22;stroke-width:1.0;"/><text fill="#000000" font-family="sans-serif" font-size="14" lengthAdjust="spacing" textLength="311" x="29" y="980.8232">triggerPlatformInitializedEventCallback() : void</text><polygon fill="#FFFF44" points="20,988.7734,24,992.7734,20,996.7734,16,992.7734" style="stroke:#B38D22;stroke-width:1.0;"/><text fill="#000000" font-family="sans-serif" font-size="14" lengthAdjust="spacing" textLength="156" x="29" y="997.1201">unsetCallbacks() : void</text><polygon fill="#FFFF44" points="20,1005.0703,24,1009.0703,20,1013.0703,16,1009.0703" style="stroke:#B38D22;stroke-width:1.0;"/><text fill="#000000" font-family="sans-serif" font-size="14" lengthAdjust="spacing" textLength="199" x="29" y="1013.417">unsetGlobalCallbacks() : void</text><polygon fill="#FFFF44" points="20,1021.3672,24,1025.3672,20,1029.3672,16,1025.3672" style="stroke:#B38D22;stroke-width:1.0;"/><text fill="#000000" font-family="sans-serif" font-size="14" lengthAdjust="spacing" textLength="187" x="29" y="1029.7139">unsetHtmlElements() : void</text><rect fill="#F24D5C" height="6" style="stroke:#C82930;stroke-width:1.0;" width="6" x="17" y="1039.6641"/><text fill="#000000" font-family="sans-serif" font-size="14" lengthAdjust="spacing" textLength="140" x="29" y="1046.0107">_createItems() : void</text><rect fill="#F24D5C" height="6" style="stroke:#C82930;stroke-width:1.0;" width="6" x="17" y="1055.9609"/><text fill="#000000" font-family="sans-serif" font-size="14" lengthAdjust="spacing" textLength="299" x="29" y="1062.3076">_getDecimalValue(value: number) : number</text><rect fill="#F24D5C" height="6" style="stroke:#C82930;stroke-width:1.0;" width="6" x="17" y="1072.2578"/><text fill="#000000" font-family="sans-serif" font-size="14" lengthAdjust="spacing" textLength="282" x="29" y="1078.6045">_getIsHalfValue(value: number) : boolean</text><rect fill="#F24D5C" height="6" style="stroke:#C82930;stroke-width:1.0;" width="6" x="17" y="1088.5547"/><text fill="#000000" font-family="sans-serif" font-size="14" lengthAdjust="spacing" textLength="145" x="29" y="1094.9014">_getValue() : number</text><rect fill="#F24D5C" height="6" style="stroke:#C82930;stroke-width:1.0;" width="6" x="17" y="1104.8516"/><text fill="#000000" font-family="sans-serif" font-size="14" lengthAdjust="spacing" textLength="194" x="29" y="1111.1982">_handlePlaceholders() : void</text><rect fill="#F24D5C" height="6" style="stroke:#C82930;stroke-width:1.0;" width="6" x="17" y="1121.1484"/><text fill="#000000" font-family="sans-serif" font-size="14" lengthAdjust="spacing" textLength="317" x="29" y="1127.4951">_ratingInputOnKeyup(e: KeyboardEvent) : void</text><rect fill="#F24D5C" height="6" style="stroke:#C82930;stroke-width:1.0;" width="6" x="17" y="1137.4453"/><text fill="#000000" font-family="sans-serif" font-size="14" lengthAdjust="spacing" textLength="253" x="29" y="1143.792">_ratingOnClick(e: MouseEvent) : void</text><rect fill="#F24D5C" height="6" style="stroke:#C82930;stroke-width:1.0;" width="6" x="17" y="1153.7422"/><text fill="#000000" font-family="sans-serif" font-size="14" lengthAdjust="spacing" textLength="234" x="29" y="1160.0889">_renderItem(index: number) : void</text><rect fill="#F24D5C" height="6" style="stroke:#C82930;stroke-width:1.0;" width="6" x="17" y="1170.0391"/><text fill="#000000" font-family="sans-serif" font-size="14" lengthAdjust="spacing" textLength="127" x="29" y="1176.3857">_setEvents() : void</text><rect fill="#F24D5C" height="6" style="stroke:#C82930;stroke-width:1.0;" width="6" x="17" y="1186.3359"/><text fill="#000000" font-family="sans-serif" font-size="14" lengthAdjust="spacing" textLength="374" x="29" y="1192.6826">_setFieldsetDisabledStatus(isDisabled: boolean) : void</text><rect fill="#F24D5C" height="6" style="stroke:#C82930;stroke-width:1.0;" width="6" x="17" y="1202.6328"/><text fill="#000000" font-family="sans-serif" font-size="14" lengthAdjust="spacing" textLength="194" x="29" y="1208.9795">_setInitialCssClasses() : void</text><rect fill="#F24D5C" height="6" style="stroke:#C82930;stroke-width:1.0;" width="6" x="17" y="1218.9297"/><text fill="#000000" font-family="sans-serif" font-size="14" lengthAdjust="spacing" textLength="231" x="29" y="1225.2764">_setInitialPropertiesValues() : void</text><rect fill="#F24D5C" height="6" style="stroke:#C82930;stroke-width:1.0;" width="6" x="17" y="1235.2266"/><text fill="#000000" font-family="sans-serif" font-size="14" lengthAdjust="spacing" textLength="287" x="29" y="1241.5732">_setIsDisabled(isDisabled: boolean) : void</text><rect fill="#F24D5C" height="6" style="stroke:#C82930;stroke-width:1.0;" width="6" x="17" y="1251.5234"/><text fill="#000000" font-family="sans-serif" font-size="14" lengthAdjust="spacing" textLength="117" x="29" y="1257.8701">_setIsEdit() : void</text><rect fill="#F24D5C" height="6" style="stroke:#C82930;stroke-width:1.0;" width="6" x="17" y="1267.8203"/><text fill="#000000" font-family="sans-serif" font-size="14" lengthAdjust="spacing" textLength="117" x="29" y="1274.167">_setScale() : void</text><rect fill="#F24D5C" height="6" style="stroke:#C82930;stroke-width:1.0;" width="6" x="17" y="1284.1172"/><text fill="#000000" font-family="sans-serif" font-size="14" lengthAdjust="spacing" textLength="207" x="29" y="1290.4639">_setSize(oldSize: string) : void</text><rect fill="#F24D5C" height="6" style="stroke:#C82930;stroke-width:1.0;" width="6" x="17" y="1300.4141"/><text fill="#000000" font-family="sans-serif" font-size="14" lengthAdjust="spacing" textLength="267" x="29" y="1306.7607">_setValue(triggerEvent: boolean) : void</text><rect fill="#F24D5C" height="6" style="stroke:#C82930;stroke-width:1.0;" width="6" x="17" y="1316.7109"/><text fill="#000000" font-family="sans-serif" font-size="14" lengthAdjust="spacing" textLength="327" x="29" y="1323.0576">_toggleRatingInputsEvents(add: boolean) : void</text><rect fill="#F24D5C" height="6" style="stroke:#C82930;stroke-width:1.0;" width="6" x="17" y="1333.0078"/><text fill="#000000" font-family="sans-serif" font-size="14" lengthAdjust="spacing" textLength="304" x="29" y="1339.3545">_triggerOnSelectEvent(value: number) : void</text><rect fill="#F24D5C" height="6" style="stroke:#C82930;stroke-width:1.0;" width="6" x="17" y="1349.3047"/><text fill="#000000" font-family="sans-serif" font-size="14" lengthAdjust="spacing" textLength="145" x="29" y="1355.6514">_unsetEvents() : void</text><rect fill="#F24D5C" height="6" style="stroke:#C82930;stroke-width:1.0;" width="6" x="17" y="1365.6016"/><text fill="#000000" font-family="sans-serif" font-size="14" lengthAdjust="spacing" textLength="418" x="29" y="1371.9482">_updateClonePlaceholdersAttrs(ratingIndex: number) : string</text></g><!--reverse link IPattern to IRating--><g id="link_IPattern_IRating"><path codeLine="31" d="M306.5,220.24 C306.5,239.52 306.5,241.92 306.5,261.69 " fill="none" id="IPattern-backto-IRating" style="stroke:#272B30;stroke-width:1.0;"/><polygon fill="none" points="306.5,202.24,300.5,220.24,312.5,220.24,306.5,202.24" style="stroke:#272B30;stroke-width:1.0;"/></g><!--reverse link IRating to Rating--><g id="link_IRating_Rating"><path codeLine="82" d="M306.5,507.24 C306.5,525.7 306.5,527.73 306.5,548.77 " fill="none" id="IRating-backto-Rating" style="stroke:#272B30;stroke-width:1.0;stroke-dasharray:7.0,7.0;"/><polygon fill="none" points="306.5,489.24,300.5,507.24,312.5,507.24,306.5,489.24" style="stroke:#272B30;stroke-width:1.0;"/></g><!--SRC=[tLRVJzim47xlNn71Iz003JPf4kA5Xb_HnbgjQDA4qEJ4bzIgOmVRAR2n_ttdn0dvHRUNJThwqlJkyztvk-ykrIicSg98vWMSQ7sYbBmF99VAspvyTnYzUJtHNSHKAWfgCuJ4grJ9Gb07IvAaXHcuOw1lAPai6GKFijmyUXcOfQIwRKeOSBGmOK0b90PlA_n431FfblTzuk7d5TFJWd7Z7NcHb1o8gCmQU7B68GDXNPVNLn_ShyfT27PNG4ZHfut2U9Nvdj4KpC0SOGRgxw1rBHcjRF6IY1JcIkQWpAEVkuUF98FwyAvNMpyJNg2v42iXxqKt46MQH1pyWJMNkcy5CGA5ku9mVIt3Kv_HElTEdn05ATF8Oa0uZx0NFgoHZMwviVCTURF51GXGB6vI_UWqOKuC_X3_LHV6-FvBrBO8FNxQstjM-IIse-LjTKM_pJHUUOrZegP40-qLjFSrvb80dNDirb9oXEak_JUt3aWXPXdX9JC84KKMWQfzbJ27qSlhpKHLKy1Pl4A8kzGO91HvOTx3Ov4FS4nV4fxKwRjfSavC8bLsLiLQ08VOogWXqE5KcUIyt1HWx0r7j5R3mbYAXI46zA-0jcZRmtzr5-ILei8_fzjIYWaJJ2-dGrQsiHad1mTV72qCzD1VPnvnNPgCkxxqlLXQceAQj_NHtC6gvXojmR3mNO-eL3VKtznk31iAPXZXx1lGReRkgK9ik4VflE0o8dmZvENBuYmhGBc61hA12xVaQMk0_NKbhMgAT_hpR7VgyxWDmTtfGtI56yH1iLCExUNIhwirGJDH3hwFcV0XaaHLR8wUc8bocrZmbImqZ291O4fBXy_mwQ5zWnRCReBr69teg5V5gLjmTXyKscUwDZHS3CywLGHQbtzwO2o-mpmBloHo5Dca_Cti-emoCn9eWNCAOtQKhuzDij_jFT15LOrs-YzfUwa68zEKGskjQySoeI_MxUBM6xmyC5HVwq0v4kFTAtAAmn3OrrjRW2V6e0fhsVLKuRQtVSlMhz7Zf_tzvgNw4m00]--></g></svg>