<?xml version="1.0" encoding="us-ascii" standalone="no"?><svg xmlns="http://www.w3.org/2000/svg" xmlns:xlink="http://www.w3.org/1999/xlink" contentStyleType="text/css" height="425px" preserveAspectRatio="none" style="width:1065px;height:425px;background:#CED4DA;" version="1.1" viewBox="0 0 1065 425" width="1065px" zoomAndPan="magnify"><defs/><g><rect fill="#CED4DA" height="425" style="stroke:none;stroke-width:1.0;" width="1065" x="0" y="0"/><!--class IRenderUpdate--><g id="elem_IRenderUpdate"><rect codeLine="7" fill="#FFFFFF" height="56.4883" id="IRenderUpdate" rx="2.5" ry="2.5" style="stroke:#272B30;stroke-width:0.5;" width="194" x="435" y="7"/><ellipse cx="477" cy="23" fill="#B4A7E5" rx="11" ry="11" style="stroke:#181818;stroke-width:1.0;"/><path d="M473.4277,19.2651 L473.4277,17.1069 L480.8071,17.1069 L480.8071,19.2651 L478.3418,19.2651 L478.3418,27.3418 L480.8071,27.3418 L480.8071,29.5 L473.4277,29.5 L473.4277,27.3418 L475.8931,27.3418 L475.8931,19.2651 Z " fill="#000000"/><text fill="#000000" font-family="sans-serif" font-size="14" font-style="italic" lengthAdjust="spacing" textLength="102" x="497" y="28.291">IRenderUpdate</text><line style="stroke:#272B30;stroke-width:0.5;" x1="436" x2="628" y1="39" y2="39"/><ellipse cx="446" cy="52.7441" fill="#84BE84" rx="3" ry="3" style="stroke:#038048;stroke-width:1.0;"/><text fill="#000000" font-family="sans-serif" font-size="14" lengthAdjust="spacing" textLength="168" x="455" y="56.5352">updateOnRender() : void</text></g><!--class IAnimatedLabel--><g id="elem_IAnimatedLabel"><rect codeLine="10" fill="#FFFFFF" height="212.8828" id="IAnimatedLabel" rx="2.5" ry="2.5" style="stroke:#272B30;stroke-width:0.5;" width="508" x="7" y="164"/><ellipse cx="203.75" cy="180" fill="#B4A7E5" rx="11" ry="11" style="stroke:#181818;stroke-width:1.0;"/><path d="M200.1777,176.2651 L200.1777,174.1069 L207.5571,174.1069 L207.5571,176.2651 L205.0918,176.2651 L205.0918,184.3418 L207.5571,184.3418 L207.5571,186.5 L200.1777,186.5 L200.1777,184.3418 L202.6431,184.3418 L202.6431,176.2651 Z " fill="#000000"/><text fill="#000000" font-family="sans-serif" font-size="14" font-style="italic" lengthAdjust="spacing" textLength="106" x="224.25" y="185.291">IAnimatedLabel</text><line style="stroke:#272B30;stroke-width:0.5;" x1="8" x2="514" y1="196" y2="196"/><ellipse cx="18" cy="209.7441" fill="none" rx="3" ry="3" style="stroke:#038048;stroke-width:1.0;"/><text fill="#000000" font-family="sans-serif" font-size="14" lengthAdjust="spacing" textLength="109" x="27" y="213.5352">isBuilt : boolean</text><ellipse cx="18" cy="226.2324" fill="none" rx="3" ry="3" style="stroke:#038048;stroke-width:1.0;"/><text fill="#000000" font-family="sans-serif" font-size="14" lengthAdjust="spacing" textLength="184" x="27" y="230.0234">selfElement : HTMLElement</text><ellipse cx="18" cy="242.7207" fill="none" rx="3" ry="3" style="stroke:#038048;stroke-width:1.0;"/><text fill="#000000" font-family="sans-serif" font-size="14" lengthAdjust="spacing" textLength="113" x="27" y="246.5117">uniqueId : string</text><ellipse cx="18" cy="259.209" fill="none" rx="3" ry="3" style="stroke:#038048;stroke-width:1.0;"/><text fill="#000000" font-family="sans-serif" font-size="14" lengthAdjust="spacing" textLength="111" x="27" y="263">widgetId : string</text><line style="stroke:#272B30;stroke-width:0.5;" x1="8" x2="514" y1="269.9531" y2="269.9531"/><ellipse cx="18" cy="283.6973" fill="#84BE84" rx="3" ry="3" style="stroke:#038048;stroke-width:1.0;"/><text fill="#000000" font-family="sans-serif" font-size="14" lengthAdjust="spacing" textLength="86" x="27" y="287.4883">build() : void</text><ellipse cx="18" cy="300.1855" fill="#84BE84" rx="3" ry="3" style="stroke:#038048;stroke-width:1.0;"/><text fill="#000000" font-family="sans-serif" font-size="14" lengthAdjust="spacing" textLength="482" x="27" y="303.9766">changeProperty(propertyName: string, propertyValue: unknown) : void</text><ellipse cx="18" cy="316.6738" fill="#84BE84" rx="3" ry="3" style="stroke:#038048;stroke-width:1.0;"/><text fill="#000000" font-family="sans-serif" font-size="14" lengthAdjust="spacing" textLength="104" x="27" y="320.4648">dispose() : void</text><ellipse cx="18" cy="333.1621" fill="#84BE84" rx="3" ry="3" style="stroke:#038048;stroke-width:1.0;"/><text fill="#000000" font-family="sans-serif" font-size="14" lengthAdjust="spacing" textLength="216" x="27" y="336.9531">equalsToID(id: string) : boolean</text><ellipse cx="18" cy="349.6504" fill="#84BE84" rx="3" ry="3" style="stroke:#038048;stroke-width:1.0;"/><text fill="#000000" font-family="sans-serif" font-size="14" lengthAdjust="spacing" textLength="428" x="27" y="353.4414">registerCallback(eventName: string, callback: OSGeneric) : void</text><ellipse cx="18" cy="366.1387" fill="#84BE84" rx="3" ry="3" style="stroke:#038048;stroke-width:1.0;"/><text fill="#000000" font-family="sans-serif" font-size="14" lengthAdjust="spacing" textLength="168" x="27" y="369.9297">updateOnRender() : void</text></g><!--class ISubmenu--><g id="elem_ISubmenu"><rect codeLine="23" fill="#FFFFFF" height="295.3242" id="ISubmenu" rx="2.5" ry="2.5" style="stroke:#272B30;stroke-width:0.5;" width="508" x="550" y="123"/><ellipse cx="765.25" cy="139" fill="#B4A7E5" rx="11" ry="11" style="stroke:#181818;stroke-width:1.0;"/><path d="M761.6777,135.2651 L761.6777,133.1069 L769.0571,133.1069 L769.0571,135.2651 L766.5918,135.2651 L766.5918,143.3418 L769.0571,143.3418 L769.0571,145.5 L761.6777,145.5 L761.6777,143.3418 L764.1431,143.3418 L764.1431,135.2651 Z " fill="#000000"/><text fill="#000000" font-family="sans-serif" font-size="14" font-style="italic" lengthAdjust="spacing" textLength="69" x="785.75" y="144.291">ISubmenu</text><line style="stroke:#272B30;stroke-width:0.5;" x1="551" x2="1057" y1="155" y2="155"/><ellipse cx="561" cy="168.7441" fill="none" rx="3" ry="3" style="stroke:#038048;stroke-width:1.0;"/><text fill="#000000" font-family="sans-serif" font-size="14" lengthAdjust="spacing" textLength="109" x="570" y="172.5352">isBuilt : boolean</text><ellipse cx="561" cy="185.2324" fill="none" rx="3" ry="3" style="stroke:#038048;stroke-width:1.0;"/><text fill="#000000" font-family="sans-serif" font-size="14" lengthAdjust="spacing" textLength="116" x="570" y="189.0234">isOpen : boolean</text><ellipse cx="561" cy="201.7207" fill="none" rx="3" ry="3" style="stroke:#038048;stroke-width:1.0;"/><text fill="#000000" font-family="sans-serif" font-size="14" lengthAdjust="spacing" textLength="184" x="570" y="205.5117">selfElement : HTMLElement</text><ellipse cx="561" cy="218.209" fill="none" rx="3" ry="3" style="stroke:#038048;stroke-width:1.0;"/><text fill="#000000" font-family="sans-serif" font-size="14" lengthAdjust="spacing" textLength="113" x="570" y="222">uniqueId : string</text><ellipse cx="561" cy="234.6973" fill="none" rx="3" ry="3" style="stroke:#038048;stroke-width:1.0;"/><text fill="#000000" font-family="sans-serif" font-size="14" lengthAdjust="spacing" textLength="111" x="570" y="238.4883">widgetId : string</text><line style="stroke:#272B30;stroke-width:0.5;" x1="551" x2="1057" y1="245.4414" y2="245.4414"/><ellipse cx="561" cy="259.1855" fill="#84BE84" rx="3" ry="3" style="stroke:#038048;stroke-width:1.0;"/><text fill="#000000" font-family="sans-serif" font-size="14" lengthAdjust="spacing" textLength="86" x="570" y="262.9766">build() : void</text><ellipse cx="561" cy="275.6738" fill="#84BE84" rx="3" ry="3" style="stroke:#038048;stroke-width:1.0;"/><text fill="#000000" font-family="sans-serif" font-size="14" lengthAdjust="spacing" textLength="482" x="570" y="279.4648">changeProperty(propertyName: string, propertyValue: unknown) : void</text><ellipse cx="561" cy="292.1621" fill="#84BE84" rx="3" ry="3" style="stroke:#038048;stroke-width:1.0;"/><text fill="#000000" font-family="sans-serif" font-size="14" lengthAdjust="spacing" textLength="393" x="570" y="295.9531">clickOutsideToClose(clickOutsideToClose: boolean) : void</text><ellipse cx="561" cy="308.6504" fill="#84BE84" rx="3" ry="3" style="stroke:#038048;stroke-width:1.0;"/><text fill="#000000" font-family="sans-serif" font-size="14" lengthAdjust="spacing" textLength="86" x="570" y="312.4414">close() : void</text><ellipse cx="561" cy="325.1387" fill="#84BE84" rx="3" ry="3" style="stroke:#038048;stroke-width:1.0;"/><text fill="#000000" font-family="sans-serif" font-size="14" lengthAdjust="spacing" textLength="104" x="570" y="328.9297">dispose() : void</text><ellipse cx="561" cy="341.627" fill="#84BE84" rx="3" ry="3" style="stroke:#038048;stroke-width:1.0;"/><text fill="#000000" font-family="sans-serif" font-size="14" lengthAdjust="spacing" textLength="216" x="570" y="345.418">equalsToID(id: string) : boolean</text><ellipse cx="561" cy="358.1152" fill="#84BE84" rx="3" ry="3" style="stroke:#038048;stroke-width:1.0;"/><text fill="#000000" font-family="sans-serif" font-size="14" lengthAdjust="spacing" textLength="253" x="570" y="361.9063">open(isOpenedByApi: boolean) : void</text><ellipse cx="561" cy="374.6035" fill="#84BE84" rx="3" ry="3" style="stroke:#038048;stroke-width:1.0;"/><text fill="#000000" font-family="sans-serif" font-size="14" lengthAdjust="spacing" textLength="428" x="570" y="378.3945">registerCallback(eventName: string, callback: OSGeneric) : void</text><ellipse cx="561" cy="391.0918" fill="#84BE84" rx="3" ry="3" style="stroke:#038048;stroke-width:1.0;"/><text fill="#000000" font-family="sans-serif" font-size="14" lengthAdjust="spacing" textLength="168" x="570" y="394.8828">setOpenOnHover() : void</text><ellipse cx="561" cy="407.5801" fill="#84BE84" rx="3" ry="3" style="stroke:#038048;stroke-width:1.0;"/><text fill="#000000" font-family="sans-serif" font-size="14" lengthAdjust="spacing" textLength="168" x="570" y="411.3711">updateOnRender() : void</text></g><!--reverse link IRenderUpdate to IAnimatedLabel--><g id="link_IRenderUpdate_IAnimatedLabel"><path codeLine="22" d="M485.17,76.35 C456.96,100.66 419.59,132.85 383.48,163.97 " fill="none" id="IRenderUpdate-backto-IAnimatedLabel" style="stroke:#272B30;stroke-width:1.0;"/><polygon fill="none" points="480.93,70.77,500.65,63.01,490.07,81.37,480.93,70.77" style="stroke:#272B30;stroke-width:1.0;"/></g><!--reverse link IRenderUpdate to ISubmenu--><g id="link_IRenderUpdate_ISubmenu"><path codeLine="40" d="M578.83,76.2 C594.65,89.78 613.34,105.82 633.08,122.77 " fill="none" id="IRenderUpdate-backto-ISubmenu" style="stroke:#272B30;stroke-width:1.0;"/><polygon fill="none" points="574.08,81.35,563.47,63.01,583.2,70.73,574.08,81.35" style="stroke:#272B30;stroke-width:1.0;"/></g><!--SRC=[rL9DJy904BttLspmKg8a1arCY1T08oHeZQBtRNTQ9cndotv0YFhVNQ0W1T54lTXJzyt7cvdtp1Yfu9hdh2kvCMsjrQohfDBig7dHZCzE0rFDw2WjG7-TmfDnffKZKQQbQRgLinTEG9mB7enG08Eyi7EMWnqfORQX545w1Cc2Jda2hDP_0FAZF1M2MwYnbu3vxzWjdn6jWc6TjTXKeGZUAgLjmjodYG6FGMvgqNGSIkjBOgKaS5h11cHwBI47MeHwmzj1-IeP2ISE-iB7ZDL8sGgUeSZ0xi6nPn0VOosnPCGfWtkj2j1s7XRbpntFOLrymjReCvVEmux6f6PKRIJG5Ch0JdkOE2xDKFMlGXJhXlNTBJLaQFo5kbpAs4iKmjIlM9qXAMCj5ZtU0876f4fr-FgxSbs-DXfxGbGqUdInFxBxJXqqKG7qVpLB92RZo5dZlJvKNRdGxnDiizzkzRxUlt61dvV2rKb1TERj0WyG_ubT3DW5KqGzDTssoy-yj3RCEm00]--></g></svg>