<?xml version="1.0" encoding="us-ascii" standalone="no"?><svg xmlns="http://www.w3.org/2000/svg" xmlns:xlink="http://www.w3.org/1999/xlink" contentStyleType="text/css" height="422px" preserveAspectRatio="none" style="width:1069px;height:422px;background:#CED4DA;" version="1.1" viewBox="0 0 1069 422" width="1069px" zoomAndPan="magnify"><defs/><g><rect fill="#CED4DA" height="422" style="stroke:none;stroke-width:1.0;" width="1069" x="0" y="0"/><!--class IRenderUpdate--><g id="elem_IRenderUpdate"><rect codeLine="7" fill="#FFFFFF" height="56.2969" id="IRenderUpdate" rx="2.5" ry="2.5" style="stroke:#272B30;stroke-width:0.5;" width="197" x="435.5" y="7"/><ellipse cx="477.5" cy="23" fill="#B4A7E5" rx="11" ry="11" style="stroke:#181818;stroke-width:1.0;"/><path d="M473.4219,18.7656 L473.4219,16.6094 L480.8125,16.6094 L480.8125,18.7656 L478.3438,18.7656 L478.3438,26.8438 L480.8125,26.8438 L480.8125,29 L473.4219,29 L473.4219,26.8438 L475.8906,26.8438 L475.8906,18.7656 L473.4219,18.7656 Z " fill="#000000"/><text fill="#000000" font-family="sans-serif" font-size="14" font-style="italic" lengthAdjust="spacing" textLength="105" x="497.5" y="27.8467">IRenderUpdate</text><line style="stroke:#272B30;stroke-width:0.5;" x1="436.5" x2="631.5" y1="39" y2="39"/><ellipse cx="446.5" cy="52.6484" fill="#84BE84" rx="3" ry="3" style="stroke:#038048;stroke-width:1.0;"/><text fill="#000000" font-family="sans-serif" font-size="14" lengthAdjust="spacing" textLength="171" x="455.5" y="55.9951">updateOnRender() : void</text></g><!--class IAnimatedLabel--><g id="elem_IAnimatedLabel"><rect codeLine="10" fill="#FFFFFF" height="210.9688" id="IAnimatedLabel" rx="2.5" ry="2.5" style="stroke:#272B30;stroke-width:0.5;" width="510" x="7" y="163.5"/><ellipse cx="204.25" cy="179.5" fill="#B4A7E5" rx="11" ry="11" style="stroke:#181818;stroke-width:1.0;"/><path d="M200.1719,175.2656 L200.1719,173.1094 L207.5625,173.1094 L207.5625,175.2656 L205.0938,175.2656 L205.0938,183.3438 L207.5625,183.3438 L207.5625,185.5 L200.1719,185.5 L200.1719,183.3438 L202.6406,183.3438 L202.6406,175.2656 L200.1719,175.2656 Z " fill="#000000"/><text fill="#000000" font-family="sans-serif" font-size="14" font-style="italic" lengthAdjust="spacing" textLength="107" x="224.75" y="184.3467">IAnimatedLabel</text><line style="stroke:#272B30;stroke-width:0.5;" x1="8" x2="516" y1="195.5" y2="195.5"/><ellipse cx="18" cy="209.1484" fill="none" rx="3" ry="3" style="stroke:#038048;stroke-width:1.0;"/><text fill="#000000" font-family="sans-serif" font-size="14" lengthAdjust="spacing" textLength="110" x="27" y="212.4951">isBuilt : boolean</text><ellipse cx="18" cy="225.4453" fill="none" rx="3" ry="3" style="stroke:#038048;stroke-width:1.0;"/><text fill="#000000" font-family="sans-serif" font-size="14" lengthAdjust="spacing" textLength="189" x="27" y="228.792">selfElement : HTMLElement</text><ellipse cx="18" cy="241.7422" fill="none" rx="3" ry="3" style="stroke:#038048;stroke-width:1.0;"/><text fill="#000000" font-family="sans-serif" font-size="14" lengthAdjust="spacing" textLength="112" x="27" y="245.0889">uniqueId : string</text><ellipse cx="18" cy="258.0391" fill="none" rx="3" ry="3" style="stroke:#038048;stroke-width:1.0;"/><text fill="#000000" font-family="sans-serif" font-size="14" lengthAdjust="spacing" textLength="110" x="27" y="261.3857">widgetId : string</text><line style="stroke:#272B30;stroke-width:0.5;" x1="8" x2="516" y1="268.6875" y2="268.6875"/><ellipse cx="18" cy="282.3359" fill="#84BE84" rx="3" ry="3" style="stroke:#038048;stroke-width:1.0;"/><text fill="#000000" font-family="sans-serif" font-size="14" lengthAdjust="spacing" textLength="84" x="27" y="285.6826">build() : void</text><ellipse cx="18" cy="298.6328" fill="#84BE84" rx="3" ry="3" style="stroke:#038048;stroke-width:1.0;"/><text fill="#000000" font-family="sans-serif" font-size="14" lengthAdjust="spacing" textLength="484" x="27" y="301.9795">changeProperty(propertyName: string, propertyValue: unknown) : void</text><ellipse cx="18" cy="314.9297" fill="#84BE84" rx="3" ry="3" style="stroke:#038048;stroke-width:1.0;"/><text fill="#000000" font-family="sans-serif" font-size="14" lengthAdjust="spacing" textLength="106" x="27" y="318.2764">dispose() : void</text><ellipse cx="18" cy="331.2266" fill="#84BE84" rx="3" ry="3" style="stroke:#038048;stroke-width:1.0;"/><text fill="#000000" font-family="sans-serif" font-size="14" lengthAdjust="spacing" textLength="217" x="27" y="334.5732">equalsToID(id: string) : boolean</text><ellipse cx="18" cy="347.5234" fill="#84BE84" rx="3" ry="3" style="stroke:#038048;stroke-width:1.0;"/><text fill="#000000" font-family="sans-serif" font-size="14" lengthAdjust="spacing" textLength="434" x="27" y="350.8701">registerCallback(eventName: string, callback: OSGeneric) : void</text><ellipse cx="18" cy="363.8203" fill="#84BE84" rx="3" ry="3" style="stroke:#038048;stroke-width:1.0;"/><text fill="#000000" font-family="sans-serif" font-size="14" lengthAdjust="spacing" textLength="171" x="27" y="367.167">updateOnRender() : void</text></g><!--class ISubmenu--><g id="elem_ISubmenu"><rect codeLine="23" fill="#FFFFFF" height="292.4531" id="ISubmenu" rx="2.5" ry="2.5" style="stroke:#272B30;stroke-width:0.5;" width="510" x="552" y="123"/><ellipse cx="767.25" cy="139" fill="#B4A7E5" rx="11" ry="11" style="stroke:#181818;stroke-width:1.0;"/><path d="M763.1719,134.7656 L763.1719,132.6094 L770.5625,132.6094 L770.5625,134.7656 L768.0938,134.7656 L768.0938,142.8438 L770.5625,142.8438 L770.5625,145 L763.1719,145 L763.1719,142.8438 L765.6406,142.8438 L765.6406,134.7656 L763.1719,134.7656 Z " fill="#000000"/><text fill="#000000" font-family="sans-serif" font-size="14" font-style="italic" lengthAdjust="spacing" textLength="71" x="787.75" y="143.8467">ISubmenu</text><line style="stroke:#272B30;stroke-width:0.5;" x1="553" x2="1061" y1="155" y2="155"/><ellipse cx="563" cy="168.6484" fill="none" rx="3" ry="3" style="stroke:#038048;stroke-width:1.0;"/><text fill="#000000" font-family="sans-serif" font-size="14" lengthAdjust="spacing" textLength="110" x="572" y="171.9951">isBuilt : boolean</text><ellipse cx="563" cy="184.9453" fill="none" rx="3" ry="3" style="stroke:#038048;stroke-width:1.0;"/><text fill="#000000" font-family="sans-serif" font-size="14" lengthAdjust="spacing" textLength="118" x="572" y="188.292">isOpen : boolean</text><ellipse cx="563" cy="201.2422" fill="none" rx="3" ry="3" style="stroke:#038048;stroke-width:1.0;"/><text fill="#000000" font-family="sans-serif" font-size="14" lengthAdjust="spacing" textLength="189" x="572" y="204.5889">selfElement : HTMLElement</text><ellipse cx="563" cy="217.5391" fill="none" rx="3" ry="3" style="stroke:#038048;stroke-width:1.0;"/><text fill="#000000" font-family="sans-serif" font-size="14" lengthAdjust="spacing" textLength="112" x="572" y="220.8857">uniqueId : string</text><ellipse cx="563" cy="233.8359" fill="none" rx="3" ry="3" style="stroke:#038048;stroke-width:1.0;"/><text fill="#000000" font-family="sans-serif" font-size="14" lengthAdjust="spacing" textLength="110" x="572" y="237.1826">widgetId : string</text><line style="stroke:#272B30;stroke-width:0.5;" x1="553" x2="1061" y1="244.4844" y2="244.4844"/><ellipse cx="563" cy="258.1328" fill="#84BE84" rx="3" ry="3" style="stroke:#038048;stroke-width:1.0;"/><text fill="#000000" font-family="sans-serif" font-size="14" lengthAdjust="spacing" textLength="84" x="572" y="261.4795">build() : void</text><ellipse cx="563" cy="274.4297" fill="#84BE84" rx="3" ry="3" style="stroke:#038048;stroke-width:1.0;"/><text fill="#000000" font-family="sans-serif" font-size="14" lengthAdjust="spacing" textLength="484" x="572" y="277.7764">changeProperty(propertyName: string, propertyValue: unknown) : void</text><ellipse cx="563" cy="290.7266" fill="#84BE84" rx="3" ry="3" style="stroke:#038048;stroke-width:1.0;"/><text fill="#000000" font-family="sans-serif" font-size="14" lengthAdjust="spacing" textLength="398" x="572" y="294.0732">clickOutsideToClose(clickOutsideToClose: boolean) : void</text><ellipse cx="563" cy="307.0234" fill="#84BE84" rx="3" ry="3" style="stroke:#038048;stroke-width:1.0;"/><text fill="#000000" font-family="sans-serif" font-size="14" lengthAdjust="spacing" textLength="88" x="572" y="310.3701">close() : void</text><ellipse cx="563" cy="323.3203" fill="#84BE84" rx="3" ry="3" style="stroke:#038048;stroke-width:1.0;"/><text fill="#000000" font-family="sans-serif" font-size="14" lengthAdjust="spacing" textLength="106" x="572" y="326.667">dispose() : void</text><ellipse cx="563" cy="339.6172" fill="#84BE84" rx="3" ry="3" style="stroke:#038048;stroke-width:1.0;"/><text fill="#000000" font-family="sans-serif" font-size="14" lengthAdjust="spacing" textLength="217" x="572" y="342.9639">equalsToID(id: string) : boolean</text><ellipse cx="563" cy="355.9141" fill="#84BE84" rx="3" ry="3" style="stroke:#038048;stroke-width:1.0;"/><text fill="#000000" font-family="sans-serif" font-size="14" lengthAdjust="spacing" textLength="257" x="572" y="359.2607">open(isOpenedByApi: boolean) : void</text><ellipse cx="563" cy="372.2109" fill="#84BE84" rx="3" ry="3" style="stroke:#038048;stroke-width:1.0;"/><text fill="#000000" font-family="sans-serif" font-size="14" lengthAdjust="spacing" textLength="434" x="572" y="375.5576">registerCallback(eventName: string, callback: OSGeneric) : void</text><ellipse cx="563" cy="388.5078" fill="#84BE84" rx="3" ry="3" style="stroke:#038048;stroke-width:1.0;"/><text fill="#000000" font-family="sans-serif" font-size="14" lengthAdjust="spacing" textLength="171" x="572" y="391.8545">setOpenOnHover() : void</text><ellipse cx="563" cy="404.8047" fill="#84BE84" rx="3" ry="3" style="stroke:#038048;stroke-width:1.0;"/><text fill="#000000" font-family="sans-serif" font-size="14" lengthAdjust="spacing" textLength="171" x="572" y="408.1514">updateOnRender() : void</text></g><!--reverse link IRenderUpdate to IAnimatedLabel--><g id="link_IRenderUpdate_IAnimatedLabel"><path codeLine="22" d="M488.5742,74.7502 C459.4242,99.6102 428,126.41 384.7,163.35 " fill="none" id="IRenderUpdate-backto-IAnimatedLabel" style="stroke:#272B30;stroke-width:1.0;"/><polygon fill="none" points="502.27,63.07,484.6809,70.1849,492.4676,79.3154,502.27,63.07" style="stroke:#272B30;stroke-width:1.0;"/></g><!--reverse link IRenderUpdate to ISubmenu--><g id="link_IRenderUpdate_ISubmenu"><path codeLine="40" d="M579.5665,74.7257 C598.1365,90.5057 609.44,100.11 636.35,122.98 " fill="none" id="IRenderUpdate-backto-ISubmenu" style="stroke:#272B30;stroke-width:1.0;"/><polygon fill="none" points="565.85,63.07,575.6813,79.2979,583.4518,70.1536,565.85,63.07" style="stroke:#272B30;stroke-width:1.0;"/></g><!--SRC=[rL9DJy904BttLspmKg8a1arCY1T08oHeZQBtRNTQ9cndotv0YFhVNQ0W1T54lTXJzyt7cvdtp1Yfu9hdh2kvCMsjrQohfDBig7dHZCzE0rFDw2WjG7-TmfDnffKZKQQbQRgLinTEG9mB7enG08Eyi7EMWnqfORQX545w1Cc2Jda2hDP_0FAZF1M2MwYnbu3vxzWjdn6jWc6TjTXKeGZUAgLjmjodYG6FGMvgqNGSIkjBOgKaS5h11cHwBI47MeHwmzj1-IeP2ISE-iB7ZDL8sGgUeSZ0xi6nPn0VOosnPCGfWtkj2j1s7XRbpntFOLrymjReCvVEmux6f6PKRIJG5Ch0JdkOE2xDKFMlGXJhXlNTBJLaQFo5kbpAs4iKmjIlM9qXAMCj5ZtU0876f4fr-FgxSbs-DXfxGbGqUdInFxBxJXqqKG7qVpLB92RZo5dZlJvKNRdGxnDiizzkzRxUlt61dvV2rKb1TERj0WyG_ubT3DW5KqGzDTssoy-yj3RCEm00]--></g></svg>