<?xml version="1.0" encoding="UTF-8" standalone="no"?><svg xmlns="http://www.w3.org/2000/svg" xmlns:xlink="http://www.w3.org/1999/xlink" contentScriptType="application/ecmascript" contentStyleType="text/css" height="886px" preserveAspectRatio="none" style="width:890px;height:886px;background:#CED4DA;" version="1.1" viewBox="0 0 890 886" width="890px" zoomAndPan="magnify"><defs><filter height="300%" id="fd7mxrys97hxd" width="300%" x="-1" y="-1"><feGaussianBlur result="blurOut" stdDeviation="2.0"/><feColorMatrix in="blurOut" result="blurOut2" type="matrix" values="0 0 0 0 0 0 0 0 0 0 0 0 0 0 0 0 0 0 .4 0"/><feOffset dx="4.0" dy="4.0" in="blurOut2" result="blurOut3"/><feBlend in="SourceGraphic" in2="blurOut3" mode="normal"/></filter></defs><g><!--MD5=[fc06c8a10155844f9f4e658799271422]
class ISearch--><rect codeLine="7" fill="#FFFFFF" filter="url(#fd7mxrys97hxd)" height="188.8516" id="ISearch" style="stroke:#272B30;stroke-width:1.5;" width="425" x="392" y="217"/><ellipse cx="576.25" cy="233" fill="#B4A7E5" rx="11" ry="11" style="stroke:#272B30;stroke-width:1.0;"/><path d="M572.1719,228.7656 L572.1719,226.6094 L579.5625,226.6094 L579.5625,228.7656 L577.0938,228.7656 L577.0938,236.8438 L579.5625,236.8438 L579.5625,239 L572.1719,239 L572.1719,236.8438 L574.6406,236.8438 L574.6406,228.7656 L572.1719,228.7656 Z " fill="#000000"/><text fill="#000000" font-family="sans-serif" font-size="12" font-style="italic" lengthAdjust="spacing" textLength="48" x="596.75" y="237.1543">ISearch</text><line style="stroke:#272B30;stroke-width:1.5;" x1="393" x2="816" y1="249" y2="249"/><ellipse cx="403" cy="260" rx="3" ry="3" style="stroke:#038048;stroke-width:1.0;fill:none;"/><text fill="#000000" font-family="sans-serif" font-size="11" lengthAdjust="spacing" textLength="92" x="412" y="263.2104">isBuilt : boolean</text><ellipse cx="403" cy="272.8047" rx="3" ry="3" style="stroke:#038048;stroke-width:1.0;fill:none;"/><text fill="#000000" font-family="sans-serif" font-size="11" lengthAdjust="spacing" textLength="155" x="412" y="276.0151">selfElement : HTMLElement</text><ellipse cx="403" cy="285.6094" rx="3" ry="3" style="stroke:#038048;stroke-width:1.0;fill:none;"/><text fill="#000000" font-family="sans-serif" font-size="11" lengthAdjust="spacing" textLength="93" x="412" y="288.8198">uniqueId : string</text><ellipse cx="403" cy="298.4141" rx="3" ry="3" style="stroke:#038048;stroke-width:1.0;fill:none;"/><text fill="#000000" font-family="sans-serif" font-size="11" lengthAdjust="spacing" textLength="92" x="412" y="301.6245">widgetId : string</text><line style="stroke:#272B30;stroke-width:1.5;" x1="393" x2="816" y1="308.2188" y2="308.2188"/><ellipse cx="403" cy="319.2188" fill="#84BE84" rx="3" ry="3" style="stroke:#038048;stroke-width:1.0;"/><text fill="#000000" font-family="sans-serif" font-size="11" lengthAdjust="spacing" textLength="70" x="412" y="322.4292">build() : void</text><ellipse cx="403" cy="332.0234" fill="#84BE84" rx="3" ry="3" style="stroke:#038048;stroke-width:1.0;"/><text fill="#000000" font-family="sans-serif" font-size="11" lengthAdjust="spacing" textLength="399" x="412" y="335.2339">changeProperty(propertyName: string, propertyValue: unknown) : void</text><ellipse cx="403" cy="344.8281" fill="#84BE84" rx="3" ry="3" style="stroke:#038048;stroke-width:1.0;"/><text fill="#000000" font-family="sans-serif" font-size="11" lengthAdjust="spacing" textLength="73" x="412" y="348.0386">close() : void</text><ellipse cx="403" cy="357.6328" fill="#84BE84" rx="3" ry="3" style="stroke:#038048;stroke-width:1.0;"/><text fill="#000000" font-family="sans-serif" font-size="11" lengthAdjust="spacing" textLength="88" x="412" y="360.8433">dispose() : void</text><ellipse cx="403" cy="370.4375" fill="#84BE84" rx="3" ry="3" style="stroke:#038048;stroke-width:1.0;"/><text fill="#000000" font-family="sans-serif" font-size="11" lengthAdjust="spacing" textLength="179" x="412" y="373.6479">equalsToID(id: string) : boolean</text><ellipse cx="403" cy="383.2422" fill="#84BE84" rx="3" ry="3" style="stroke:#038048;stroke-width:1.0;"/><text fill="#000000" font-family="sans-serif" font-size="11" lengthAdjust="spacing" textLength="71" x="412" y="386.4526">open() : void</text><ellipse cx="403" cy="396.0469" fill="#84BE84" rx="3" ry="3" style="stroke:#038048;stroke-width:1.0;"/><text fill="#000000" font-family="sans-serif" font-size="11" lengthAdjust="spacing" textLength="249" x="412" y="399.2573">registerCallback(callback: OSGeneric) : void</text><!--MD5=[3266101ea6228889a90c639b28de0501]
class IPattern--><rect codeLine="20" fill="#FFFFFF" filter="url(#fd7mxrys97hxd)" height="150.4375" id="IPattern" style="stroke:#272B30;stroke-width:1.5;" width="425" x="7" y="7"/><ellipse cx="190.25" cy="23" fill="#B4A7E5" rx="11" ry="11" style="stroke:#272B30;stroke-width:1.0;"/><path d="M186.1719,18.7656 L186.1719,16.6094 L193.5625,16.6094 L193.5625,18.7656 L191.0938,18.7656 L191.0938,26.8438 L193.5625,26.8438 L193.5625,29 L186.1719,29 L186.1719,26.8438 L188.6406,26.8438 L188.6406,18.7656 L186.1719,18.7656 Z " fill="#000000"/><text fill="#000000" font-family="sans-serif" font-size="12" font-style="italic" lengthAdjust="spacing" textLength="50" x="210.75" y="27.1543">IPattern</text><line style="stroke:#272B30;stroke-width:1.5;" x1="8" x2="431" y1="39" y2="39"/><ellipse cx="18" cy="50" rx="3" ry="3" style="stroke:#038048;stroke-width:1.0;fill:none;"/><text fill="#000000" font-family="sans-serif" font-size="11" lengthAdjust="spacing" textLength="92" x="27" y="53.2104">isBuilt : boolean</text><ellipse cx="18" cy="62.8047" rx="3" ry="3" style="stroke:#038048;stroke-width:1.0;fill:none;"/><text fill="#000000" font-family="sans-serif" font-size="11" lengthAdjust="spacing" textLength="155" x="27" y="66.0151">selfElement : HTMLElement</text><ellipse cx="18" cy="75.6094" rx="3" ry="3" style="stroke:#038048;stroke-width:1.0;fill:none;"/><text fill="#000000" font-family="sans-serif" font-size="11" lengthAdjust="spacing" textLength="93" x="27" y="78.8198">uniqueId : string</text><ellipse cx="18" cy="88.4141" rx="3" ry="3" style="stroke:#038048;stroke-width:1.0;fill:none;"/><text fill="#000000" font-family="sans-serif" font-size="11" lengthAdjust="spacing" textLength="92" x="27" y="91.6245">widgetId : string</text><line style="stroke:#272B30;stroke-width:1.5;" x1="8" x2="431" y1="98.2188" y2="98.2188"/><ellipse cx="18" cy="109.2188" fill="#84BE84" rx="3" ry="3" style="stroke:#038048;stroke-width:1.0;"/><text fill="#000000" font-family="sans-serif" font-size="11" lengthAdjust="spacing" textLength="70" x="27" y="112.4292">build() : void</text><ellipse cx="18" cy="122.0234" fill="#84BE84" rx="3" ry="3" style="stroke:#038048;stroke-width:1.0;"/><text fill="#000000" font-family="sans-serif" font-size="11" lengthAdjust="spacing" textLength="399" x="27" y="125.2339">changeProperty(propertyName: string, propertyValue: unknown) : void</text><ellipse cx="18" cy="134.8281" fill="#84BE84" rx="3" ry="3" style="stroke:#038048;stroke-width:1.0;"/><text fill="#000000" font-family="sans-serif" font-size="11" lengthAdjust="spacing" textLength="88" x="27" y="138.0386">dispose() : void</text><ellipse cx="18" cy="147.6328" fill="#84BE84" rx="3" ry="3" style="stroke:#038048;stroke-width:1.0;"/><text fill="#000000" font-family="sans-serif" font-size="11" lengthAdjust="spacing" textLength="179" x="27" y="150.8433">equalsToID(id: string) : boolean</text><!--MD5=[5ee2cdc9c4d5751c0281d37de494dd68]
class ICallback--><rect codeLine="31" fill="#FFFFFF" filter="url(#fd7mxrys97hxd)" height="52.8047" id="ICallback" style="stroke:#272B30;stroke-width:1.5;" width="275" x="467" y="55.5"/><ellipse cx="572.25" cy="71.5" fill="#B4A7E5" rx="11" ry="11" style="stroke:#272B30;stroke-width:1.0;"/><path d="M568.1719,67.2656 L568.1719,65.1094 L575.5625,65.1094 L575.5625,67.2656 L573.0938,67.2656 L573.0938,75.3438 L575.5625,75.3438 L575.5625,77.5 L568.1719,77.5 L568.1719,75.3438 L570.6406,75.3438 L570.6406,67.2656 L568.1719,67.2656 Z " fill="#000000"/><text fill="#000000" font-family="sans-serif" font-size="12" font-style="italic" lengthAdjust="spacing" textLength="56" x="592.75" y="75.6543">ICallback</text><line style="stroke:#272B30;stroke-width:1.5;" x1="468" x2="741" y1="87.5" y2="87.5"/><ellipse cx="478" cy="98.5" fill="#84BE84" rx="3" ry="3" style="stroke:#038048;stroke-width:1.0;"/><text fill="#000000" font-family="sans-serif" font-size="11" lengthAdjust="spacing" textLength="249" x="487" y="101.7104">registerCallback(callback: OSGeneric) : void</text><!--MD5=[10f0bc30af2cfecf3ef477b487a33739]
class IOpenable--><rect codeLine="35" fill="#FFFFFF" filter="url(#fd7mxrys97hxd)" height="65.6094" id="IOpenable" style="stroke:#272B30;stroke-width:1.5;" width="99" x="777" y="49"/><ellipse cx="793.8" cy="65" fill="#B4A7E5" rx="11" ry="11" style="stroke:#272B30;stroke-width:1.0;"/><path d="M789.7219,60.7656 L789.7219,58.6094 L797.1125,58.6094 L797.1125,60.7656 L794.6438,60.7656 L794.6438,68.8438 L797.1125,68.8438 L797.1125,71 L789.7219,71 L789.7219,68.8438 L792.1906,68.8438 L792.1906,60.7656 L789.7219,60.7656 Z " fill="#000000"/><text fill="#000000" font-family="sans-serif" font-size="12" font-style="italic" lengthAdjust="spacing" textLength="63" x="808.2" y="69.1543">IOpenable</text><line style="stroke:#272B30;stroke-width:1.5;" x1="778" x2="875" y1="81" y2="81"/><ellipse cx="788" cy="92" fill="#84BE84" rx="3" ry="3" style="stroke:#038048;stroke-width:1.0;"/><text fill="#000000" font-family="sans-serif" font-size="11" lengthAdjust="spacing" textLength="73" x="797" y="95.2104">close() : void</text><ellipse cx="788" cy="104.8047" fill="#84BE84" rx="3" ry="3" style="stroke:#038048;stroke-width:1.0;"/><text fill="#000000" font-family="sans-serif" font-size="11" lengthAdjust="spacing" textLength="71" x="797" y="108.0151">open() : void</text><!--MD5=[d5a630d213adc2e3986060bd811a90b1]
class Search--><rect codeLine="40" fill="#FFFFFF" filter="url(#fd7mxrys97hxd)" height="406.5313" id="Search" style="stroke:#272B30;stroke-width:1.5;" width="425" x="392" y="466"/><ellipse cx="578.25" cy="482" fill="#ADD1B2" rx="11" ry="11" style="stroke:#272B30;stroke-width:1.0;"/><path d="M581.2188,487.6406 Q580.6406,487.9375 580,488.0781 Q579.3594,488.2344 578.6563,488.2344 Q576.1563,488.2344 574.8281,486.5938 Q573.5156,484.9375 573.5156,481.8125 Q573.5156,478.6875 574.8281,477.0313 Q576.1563,475.375 578.6563,475.375 Q579.3594,475.375 580,475.5313 Q580.6563,475.6875 581.2188,475.9844 L581.2188,478.7031 Q580.5938,478.125 580,477.8594 Q579.4063,477.5781 578.7813,477.5781 Q577.4375,477.5781 576.75,478.6563 Q576.0625,479.7188 576.0625,481.8125 Q576.0625,483.9063 576.75,484.9844 Q577.4375,486.0469 578.7813,486.0469 Q579.4063,486.0469 580,485.7813 Q580.5938,485.5 581.2188,484.9219 L581.2188,487.6406 Z " fill="#000000"/><text fill="#000000" font-family="sans-serif" font-size="12" lengthAdjust="spacing" textLength="44" x="598.75" y="486.1543">Search</text><line style="stroke:#272B30;stroke-width:1.5;" x1="393" x2="816" y1="498" y2="498"/><polygon fill="none" points="403,504,407,508,403,512,399,508" style="stroke:#B38D22;stroke-width:1.0;"/><text fill="#000000" font-family="sans-serif" font-size="11" lengthAdjust="spacing" textLength="143" x="412" y="512.2104">_selfElem : HTMLElement</text><polygon fill="none" points="403,516.8047,407,520.8047,403,524.8047,399,520.8047" style="stroke:#B38D22;stroke-width:1.0;"/><text fill="#000000" font-family="sans-serif" font-size="11" lengthAdjust="spacing" textLength="98" x="412" y="525.0151">_widgetId : string</text><rect fill="none" height="6" style="stroke:#C82930;stroke-width:1.0;" width="6" x="400" y="531.6094"/><text fill="#000000" font-family="sans-serif" font-size="11" lengthAdjust="spacing" textLength="192" x="412" y="537.8198">_eventSearchGlassClick : Generic</text><rect fill="none" height="6" style="stroke:#C82930;stroke-width:1.0;" width="6" x="400" y="544.4141"/><text fill="#000000" font-family="sans-serif" font-size="11" lengthAdjust="spacing" textLength="155" x="412" y="550.6245">_globalEventBody : Generic</text><rect fill="none" height="6" style="stroke:#C82930;stroke-width:1.0;" width="6" x="400" y="557.2188"/><text fill="#000000" font-family="sans-serif" font-size="11" lengthAdjust="spacing" textLength="178" x="412" y="563.4292">_inputElem : HTMLInputElement</text><rect fill="none" height="6" style="stroke:#C82930;stroke-width:1.0;" width="6" x="400" y="570.0234"/><text fill="#000000" font-family="sans-serif" font-size="11" lengthAdjust="spacing" textLength="110" x="412" y="576.2339">_inputValue : string</text><rect fill="none" height="6" style="stroke:#C82930;stroke-width:1.0;" width="6" x="400" y="582.8281"/><text fill="#000000" font-family="sans-serif" font-size="11" lengthAdjust="spacing" textLength="103" x="412" y="589.0386">_isOpen : boolean</text><rect fill="none" height="6" style="stroke:#C82930;stroke-width:1.0;" width="6" x="400" y="595.6328"/><text fill="#000000" font-family="sans-serif" font-size="11" lengthAdjust="spacing" textLength="259" x="412" y="601.8433">_platformEventCollapse : OSOnCollapseEvent</text><rect fill="none" height="6" style="stroke:#C82930;stroke-width:1.0;" width="6" x="400" y="608.4375"/><text fill="#000000" font-family="sans-serif" font-size="11" lengthAdjust="spacing" textLength="166" x="412" y="614.6479">_searchGlass : HTMLElement</text><line style="stroke:#272B30;stroke-width:1.5;" x1="393" x2="816" y1="621.2422" y2="621.2422"/><ellipse cx="403" cy="632.2422" fill="#84BE84" rx="3" ry="3" style="stroke:#038048;stroke-width:1.0;"/><text fill="#000000" font-family="sans-serif" font-size="11" lengthAdjust="spacing" textLength="70" x="412" y="635.4526">build() : void</text><ellipse cx="403" cy="645.0469" fill="#84BE84" rx="3" ry="3" style="stroke:#038048;stroke-width:1.0;"/><text fill="#000000" font-family="sans-serif" font-size="11" lengthAdjust="spacing" textLength="399" x="412" y="648.2573">changeProperty(propertyName: string, propertyValue: unknown) : void</text><ellipse cx="403" cy="657.8516" fill="#84BE84" rx="3" ry="3" style="stroke:#038048;stroke-width:1.0;"/><text fill="#000000" font-family="sans-serif" font-size="11" lengthAdjust="spacing" textLength="73" x="412" y="661.062">close() : void</text><ellipse cx="403" cy="670.6563" fill="#84BE84" rx="3" ry="3" style="stroke:#038048;stroke-width:1.0;"/><text fill="#000000" font-family="sans-serif" font-size="11" lengthAdjust="spacing" textLength="88" x="412" y="673.8667">dispose() : void</text><ellipse cx="403" cy="683.4609" fill="#84BE84" rx="3" ry="3" style="stroke:#038048;stroke-width:1.0;"/><text fill="#000000" font-family="sans-serif" font-size="11" lengthAdjust="spacing" textLength="220" x="412" y="686.6714">equalsToID(patternId: string) : boolean</text><ellipse cx="403" cy="696.2656" fill="#84BE84" rx="3" ry="3" style="stroke:#038048;stroke-width:1.0;"/><text fill="#000000" font-family="sans-serif" font-size="11" lengthAdjust="spacing" textLength="71" x="412" y="699.4761">open() : void</text><ellipse cx="403" cy="709.0703" fill="#84BE84" rx="3" ry="3" style="stroke:#038048;stroke-width:1.0;"/><text fill="#000000" font-family="sans-serif" font-size="11" lengthAdjust="spacing" textLength="301" x="412" y="712.2808">registerCallback(callback: OSOnCollapseEvent) : void</text><polygon fill="#FFFF44" points="403,716.875,407,720.875,403,724.875,399,720.875" style="stroke:#B38D22;stroke-width:1.0;"/><text fill="#000000" font-family="sans-serif" font-size="11" lengthAdjust="spacing" textLength="102" x="412" y="725.0854">finishBuild() : void</text><polygon fill="#FFFF44" points="403,729.6797,407,733.6797,403,737.6797,399,733.6797" style="stroke:#B38D22;stroke-width:1.0;"/><text fill="#000000" font-family="sans-serif" font-size="11" lengthAdjust="spacing" textLength="147" x="412" y="737.8901">setA11yProperties() : void</text><polygon fill="#FFFF44" points="403,742.4844,407,746.4844,403,750.4844,399,746.4844" style="stroke:#B38D22;stroke-width:1.0;"/><text fill="#000000" font-family="sans-serif" font-size="11" lengthAdjust="spacing" textLength="115" x="412" y="750.6948">setCallbacks() : void</text><polygon fill="#FFFF44" points="403,755.2891,407,759.2891,403,763.2891,399,759.2891" style="stroke:#B38D22;stroke-width:1.0;"/><text fill="#000000" font-family="sans-serif" font-size="11" lengthAdjust="spacing" textLength="140" x="412" y="763.4995">setHtmlElements() : void</text><polygon fill="#FFFF44" points="403,768.0938,407,772.0938,403,776.0938,399,772.0938" style="stroke:#B38D22;stroke-width:1.0;"/><text fill="#000000" font-family="sans-serif" font-size="11" lengthAdjust="spacing" textLength="128" x="412" y="776.3042">setInitialStates() : void</text><polygon fill="#FFFF44" points="403,780.8984,407,784.8984,403,788.8984,399,784.8984" style="stroke:#B38D22;stroke-width:1.0;"/><text fill="#000000" font-family="sans-serif" font-size="11" lengthAdjust="spacing" textLength="129" x="412" y="789.1089">unsetCallbacks() : void</text><polygon fill="#FFFF44" points="403,793.7031,407,797.7031,403,801.7031,399,797.7031" style="stroke:#B38D22;stroke-width:1.0;"/><text fill="#000000" font-family="sans-serif" font-size="11" lengthAdjust="spacing" textLength="154" x="412" y="801.9136">unsetHtmlElements() : void</text><rect fill="#F24D5C" height="6" style="stroke:#C82930;stroke-width:1.0;" width="6" x="400" y="808.5078"/><text fill="#000000" font-family="sans-serif" font-size="11" lengthAdjust="spacing" textLength="232" x="412" y="814.7183">_bodyClickCallback(e: MouseEvent) : void</text><rect fill="#F24D5C" height="6" style="stroke:#C82930;stroke-width:1.0;" width="6" x="400" y="821.3125"/><text fill="#000000" font-family="sans-serif" font-size="11" lengthAdjust="spacing" textLength="140" x="412" y="827.5229">_checkInputValue() : void</text><rect fill="#F24D5C" height="6" style="stroke:#C82930;stroke-width:1.0;" width="6" x="400" y="834.1172"/><text fill="#000000" font-family="sans-serif" font-size="11" lengthAdjust="spacing" textLength="184" x="412" y="840.3276">_onToggle(e: MouseEvent) : void</text><rect fill="#F24D5C" height="6" style="stroke:#C82930;stroke-width:1.0;" width="6" x="400" y="846.9219"/><text fill="#000000" font-family="sans-serif" font-size="11" lengthAdjust="spacing" textLength="130" x="412" y="853.1323">_removeEvents() : void</text><rect fill="#F24D5C" height="6" style="stroke:#C82930;stroke-width:1.0;" width="6" x="400" y="859.7266"/><text fill="#000000" font-family="sans-serif" font-size="11" lengthAdjust="spacing" textLength="166" x="412" y="865.937">_triggerPlatformEvent() : void</text><!--MD5=[a6e23631da34f4deb5cd801e0b61aee8]
reverse link IPattern to ISearch--><path codeLine="30" d="M362.08,167.25 C389.5,183.45 418.36,200.51 446.24,216.98 " fill="none" id="IPattern-backto-ISearch" style="stroke:#272B30;stroke-width:1.0;"/><polygon fill="none" points="358.42,173.22,344.76,157.02,365.54,161.17,358.42,173.22" style="stroke:#272B30;stroke-width:1.0;"/><!--MD5=[cd3b4a66b2cc89d64046f54d413d7de4]
reverse link ICallback to ISearch--><path codeLine="34" d="M604.5,128.81 C604.5,154.08 604.5,186.4 604.5,216.76 " fill="none" id="ICallback-backto-ISearch" style="stroke:#272B30;stroke-width:1.0;"/><polygon fill="none" points="597.5,128.65,604.5,108.65,611.5,128.65,597.5,128.65" style="stroke:#272B30;stroke-width:1.0;"/><!--MD5=[342c019e689420b2473d39d34e1a1b58]
reverse link IOpenable to ISearch--><path codeLine="39" d="M784.47,130.19 C776.28,139.18 767.69,148.44 759.5,157 C740.79,176.57 720.43,197.18 700.82,216.73 " fill="none" id="IOpenable-backto-ISearch" style="stroke:#272B30;stroke-width:1.0;"/><polygon fill="none" points="779.57,125.17,798.18,115.04,789.96,134.57,779.57,125.17" style="stroke:#272B30;stroke-width:1.0;"/><!--MD5=[01856e28f6f2047b0715537604f9b36e]
reverse link ISearch to Search--><path codeLine="70" d="M604.5,426.36 C604.5,439.16 604.5,452.48 604.5,465.99 " fill="none" id="ISearch-backto-Search" style="stroke:#272B30;stroke-width:1.0;stroke-dasharray:7.0,7.0;"/><polygon fill="none" points="597.5,426.03,604.5,406.03,611.5,426.03,597.5,426.03" style="stroke:#272B30;stroke-width:1.0;"/><!--MD5=[33d83b04e8347cb43c2963d9362e7270]
@startuml
skinparam ClassArrowColor #272b30
skinparam ClassBorderColor #272b30
skinparam ClassBackgroundColor #fff
skinparam BackgroundColor #ced4da
hide empty methods
hide empty fields
interface "ISearch" {
    +isBuilt : boolean
    +selfElement : HTMLElement
    +uniqueId : string
    +widgetId : string
    +build() : void
    +changeProperty(propertyName: string, propertyValue: unknown) : void
    +close() : void
    +dispose() : void
    +equalsToID(id: string) : boolean
    +open() : void
    +registerCallback(callback: OSGeneric) : void
}
interface "IPattern" {
    +isBuilt : boolean
    +selfElement : HTMLElement
    +uniqueId : string
    +widgetId : string
    +build() : void
    +changeProperty(propertyName: string, propertyValue: unknown) : void
    +dispose() : void
    +equalsToID(id: string) : boolean
}
"IPattern" <|- - "ISearch"
interface "ICallback" {
    +registerCallback(callback: OSGeneric) : void
}
"ICallback" <|- - "ISearch"
interface "IOpenable" {
    +close() : void
    +open() : void
}
"IOpenable" <|- - "ISearch"
class "Search" {
    #_selfElem : HTMLElement
    #_widgetId : string
    -_eventSearchGlassClick : Generic
    -_globalEventBody : Generic
    -_inputElem : HTMLInputElement
    -_inputValue : string
    -_isOpen : boolean
    -_platformEventCollapse : OSOnCollapseEvent
    -_searchGlass : HTMLElement
    +build() : void
    +changeProperty(propertyName: string, propertyValue: unknown) : void
    +close() : void
    +dispose() : void
    +equalsToID(patternId: string) : boolean
    +open() : void
    +registerCallback(callback: OSOnCollapseEvent) : void
    #finishBuild() : void
    #setA11yProperties() : void
    #setCallbacks() : void
    #setHtmlElements() : void
    #setInitialStates() : void
    #unsetCallbacks() : void
    #unsetHtmlElements() : void
    -_bodyClickCallback(e: MouseEvent) : void
    -_checkInputValue() : void
    -_onToggle(e: MouseEvent) : void
    -_removeEvents() : void
    -_triggerPlatformEvent() : void
}
"ISearch" <|.. "Search"
@enduml

PlantUML version 1.2021.14(Fri Nov 12 16:46:50 UTC 2021)
(GPL source distribution)
Java Runtime: OpenJDK Runtime Environment
JVM: OpenJDK 64-Bit Server VM
Default Encoding: UTF-8
Language: en
Country: null
--></g></svg>