<?xml version="1.0" encoding="UTF-8" standalone="no"?><svg xmlns="http://www.w3.org/2000/svg" xmlns:xlink="http://www.w3.org/1999/xlink" contentScriptType="application/ecmascript" contentStyleType="text/css" height="998px" preserveAspectRatio="none" style="width:519px;height:998px;background:#CED4DA;" version="1.1" viewBox="0 0 519 998" width="519px" zoomAndPan="magnify"><defs><filter height="300%" id="f41j0zdtyvvz7" width="300%" x="-1" y="-1"><feGaussianBlur result="blurOut" stdDeviation="2.0"/><feColorMatrix in="blurOut" result="blurOut2" type="matrix" values="0 0 0 0 0 0 0 0 0 0 0 0 0 0 0 0 0 0 .4 0"/><feOffset dx="4.0" dy="4.0" in="blurOut2" result="blurOut3"/><feBlend in="SourceGraphic" in2="blurOut3" mode="normal"/></filter></defs><g><!--MD5=[7cbc53f4a164bce5d581ee5c4ee15b97]
class ISectionIndex--><rect codeLine="7" fill="#FFFFFF" filter="url(#f41j0zdtyvvz7)" height="190.5059" id="ISectionIndex" style="stroke:#272B30;stroke-width:1.5;" width="403" x="55.5" y="245"/><ellipse cx="215.25" cy="261" fill="#B4A7E5" rx="11" ry="11" style="stroke:#272B30;stroke-width:1.0;"/><path d="M211.6777,257.2651 L211.6777,255.1069 L219.0571,255.1069 L219.0571,257.2651 L216.5918,257.2651 L216.5918,265.3418 L219.0571,265.3418 L219.0571,267.5 L211.6777,267.5 L211.6777,265.3418 L214.1431,265.3418 L214.1431,257.2651 Z " fill="#000000"/><text fill="#000000" font-family="sans-serif" font-size="12" font-style="italic" lengthAdjust="spacing" textLength="75" x="235.75" y="265.5352">ISectionIndex</text><line style="stroke:#272B30;stroke-width:1.5;" x1="56.5" x2="457.5" y1="277" y2="277"/><ellipse cx="66.5" cy="288" rx="3" ry="3" style="stroke:#038048;stroke-width:1.0;fill:none;"/><text fill="#000000" font-family="sans-serif" font-size="11" lengthAdjust="spacing" textLength="198" x="75.5" y="291.6348">contentPaddingTop : string | number</text><ellipse cx="66.5" cy="300.9551" rx="3" ry="3" style="stroke:#038048;stroke-width:1.0;fill:none;"/><text fill="#000000" font-family="sans-serif" font-size="11" lengthAdjust="spacing" textLength="84" x="75.5" y="304.5898">isBuilt : boolean</text><ellipse cx="66.5" cy="313.9102" rx="3" ry="3" style="stroke:#038048;stroke-width:1.0;fill:none;"/><text fill="#000000" font-family="sans-serif" font-size="11" lengthAdjust="spacing" textLength="142" x="75.5" y="317.5449">selfElement : HTMLElement</text><ellipse cx="66.5" cy="326.8652" rx="3" ry="3" style="stroke:#038048;stroke-width:1.0;fill:none;"/><text fill="#000000" font-family="sans-serif" font-size="11" lengthAdjust="spacing" textLength="88" x="75.5" y="330.5">uniqueId : string</text><ellipse cx="66.5" cy="339.8203" rx="3" ry="3" style="stroke:#038048;stroke-width:1.0;fill:none;"/><text fill="#000000" font-family="sans-serif" font-size="11" lengthAdjust="spacing" textLength="86" x="75.5" y="343.4551">widgetId : string</text><line style="stroke:#272B30;stroke-width:1.5;" x1="56.5" x2="457.5" y1="349.7754" y2="349.7754"/><ellipse cx="66.5" cy="360.7754" fill="#84BE84" rx="3" ry="3" style="stroke:#038048;stroke-width:1.0;"/><text fill="#000000" font-family="sans-serif" font-size="11" lengthAdjust="spacing" textLength="320" x="75.5" y="364.4102">beNotifiedByChild(childItem: IChild, notifiedTo: string) : void</text><ellipse cx="66.5" cy="373.7305" fill="#84BE84" rx="3" ry="3" style="stroke:#038048;stroke-width:1.0;"/><text fill="#000000" font-family="sans-serif" font-size="11" lengthAdjust="spacing" textLength="67" x="75.5" y="377.3652">build() : void</text><ellipse cx="66.5" cy="386.6855" fill="#84BE84" rx="3" ry="3" style="stroke:#038048;stroke-width:1.0;"/><text fill="#000000" font-family="sans-serif" font-size="11" lengthAdjust="spacing" textLength="377" x="75.5" y="390.3203">changeProperty(propertyName: string, propertyValue: unknown) : void</text><ellipse cx="66.5" cy="399.6406" fill="#84BE84" rx="3" ry="3" style="stroke:#038048;stroke-width:1.0;"/><text fill="#000000" font-family="sans-serif" font-size="11" lengthAdjust="spacing" textLength="82" x="75.5" y="403.2754">dispose() : void</text><ellipse cx="66.5" cy="412.5957" fill="#84BE84" rx="3" ry="3" style="stroke:#038048;stroke-width:1.0;"/><text fill="#000000" font-family="sans-serif" font-size="11" lengthAdjust="spacing" textLength="168" x="75.5" y="416.2305">equalsToID(id: string) : boolean</text><ellipse cx="66.5" cy="425.5508" fill="#84BE84" rx="3" ry="3" style="stroke:#038048;stroke-width:1.0;"/><text fill="#000000" font-family="sans-serif" font-size="11" lengthAdjust="spacing" textLength="335" x="75.5" y="429.1855">registerCallback(eventName: string, callback: OSGeneric) : void</text><!--MD5=[41c08e7a09cbc7135e3cebcc45b1c6e6]
class IParent--><rect codeLine="20" fill="#FFFFFF" filter="url(#f41j0zdtyvvz7)" height="177.5508" id="IParent" style="stroke:#272B30;stroke-width:1.5;" width="403" x="55.5" y="7"/><ellipse cx="232.75" cy="23" fill="#B4A7E5" rx="11" ry="11" style="stroke:#272B30;stroke-width:1.0;"/><path d="M229.1777,19.2651 L229.1777,17.1069 L236.5571,17.1069 L236.5571,19.2651 L234.0918,19.2651 L234.0918,27.3418 L236.5571,27.3418 L236.5571,29.5 L229.1777,29.5 L229.1777,27.3418 L231.6431,27.3418 L231.6431,19.2651 Z " fill="#000000"/><text fill="#000000" font-family="sans-serif" font-size="12" font-style="italic" lengthAdjust="spacing" textLength="40" x="253.25" y="27.5352">IParent</text><line style="stroke:#272B30;stroke-width:1.5;" x1="56.5" x2="457.5" y1="39" y2="39"/><ellipse cx="66.5" cy="50" rx="3" ry="3" style="stroke:#038048;stroke-width:1.0;fill:none;"/><text fill="#000000" font-family="sans-serif" font-size="11" lengthAdjust="spacing" textLength="84" x="75.5" y="53.6348">isBuilt : boolean</text><ellipse cx="66.5" cy="62.9551" rx="3" ry="3" style="stroke:#038048;stroke-width:1.0;fill:none;"/><text fill="#000000" font-family="sans-serif" font-size="11" lengthAdjust="spacing" textLength="142" x="75.5" y="66.5898">selfElement : HTMLElement</text><ellipse cx="66.5" cy="75.9102" rx="3" ry="3" style="stroke:#038048;stroke-width:1.0;fill:none;"/><text fill="#000000" font-family="sans-serif" font-size="11" lengthAdjust="spacing" textLength="88" x="75.5" y="79.5449">uniqueId : string</text><ellipse cx="66.5" cy="88.8652" rx="3" ry="3" style="stroke:#038048;stroke-width:1.0;fill:none;"/><text fill="#000000" font-family="sans-serif" font-size="11" lengthAdjust="spacing" textLength="86" x="75.5" y="92.5">widgetId : string</text><line style="stroke:#272B30;stroke-width:1.5;" x1="56.5" x2="457.5" y1="98.8203" y2="98.8203"/><ellipse cx="66.5" cy="109.8203" fill="#84BE84" rx="3" ry="3" style="stroke:#038048;stroke-width:1.0;"/><text fill="#000000" font-family="sans-serif" font-size="11" lengthAdjust="spacing" textLength="320" x="75.5" y="113.4551">beNotifiedByChild(childItem: IChild, notifiedTo: string) : void</text><ellipse cx="66.5" cy="122.7754" fill="#84BE84" rx="3" ry="3" style="stroke:#038048;stroke-width:1.0;"/><text fill="#000000" font-family="sans-serif" font-size="11" lengthAdjust="spacing" textLength="67" x="75.5" y="126.4102">build() : void</text><ellipse cx="66.5" cy="135.7305" fill="#84BE84" rx="3" ry="3" style="stroke:#038048;stroke-width:1.0;"/><text fill="#000000" font-family="sans-serif" font-size="11" lengthAdjust="spacing" textLength="377" x="75.5" y="139.3652">changeProperty(propertyName: string, propertyValue: unknown) : void</text><ellipse cx="66.5" cy="148.6855" fill="#84BE84" rx="3" ry="3" style="stroke:#038048;stroke-width:1.0;"/><text fill="#000000" font-family="sans-serif" font-size="11" lengthAdjust="spacing" textLength="82" x="75.5" y="152.3203">dispose() : void</text><ellipse cx="66.5" cy="161.6406" fill="#84BE84" rx="3" ry="3" style="stroke:#038048;stroke-width:1.0;"/><text fill="#000000" font-family="sans-serif" font-size="11" lengthAdjust="spacing" textLength="168" x="75.5" y="165.2754">equalsToID(id: string) : boolean</text><ellipse cx="66.5" cy="174.5957" fill="#84BE84" rx="3" ry="3" style="stroke:#038048;stroke-width:1.0;"/><text fill="#000000" font-family="sans-serif" font-size="11" lengthAdjust="spacing" textLength="335" x="75.5" y="178.2305">registerCallback(eventName: string, callback: OSGeneric) : void</text><!--MD5=[10760952ad3526950e279de6cc5b2d50]
class SectionIndex--><rect codeLine="33" fill="#FFFFFF" filter="url(#f41j0zdtyvvz7)" height="488.4727" id="SectionIndex" style="stroke:#272B30;stroke-width:1.5;" width="496" x="9" y="496"/><ellipse cx="216.75" cy="512" fill="#ADD1B2" rx="11" ry="11" style="stroke:#272B30;stroke-width:1.0;"/><path d="M219.2231,518.1431 Q218.6421,518.4419 218.0029,518.5913 Q217.3638,518.7407 216.6582,518.7407 Q214.1514,518.7407 212.8315,517.0889 Q211.5117,515.437 211.5117,512.3159 Q211.5117,509.1865 212.8315,507.5347 Q214.1514,505.8828 216.6582,505.8828 Q217.3638,505.8828 218.0112,506.0322 Q218.6587,506.1816 219.2231,506.4805 L219.2231,509.2031 Q218.5923,508.6221 217.9988,508.3523 Q217.4053,508.0825 216.7744,508.0825 Q215.4297,508.0825 214.7449,509.1492 Q214.0601,510.2158 214.0601,512.3159 Q214.0601,514.4077 214.7449,515.4744 Q215.4297,516.541 216.7744,516.541 Q217.4053,516.541 217.9988,516.2712 Q218.5923,516.0015 219.2231,515.4204 Z " fill="#000000"/><text fill="#000000" font-family="sans-serif" font-size="12" lengthAdjust="spacing" textLength="72" x="237.25" y="516.5352">SectionIndex</text><line style="stroke:#272B30;stroke-width:1.5;" x1="10" x2="504" y1="528" y2="528"/><polygon fill="none" points="20,534,24,538,20,542,16,538" style="stroke:#B38D22;stroke-width:1.0;"/><text fill="#000000" font-family="sans-serif" font-size="11" lengthAdjust="spacing" textLength="137" x="29" y="542.6348">isProviderBased : boolean</text><rect fill="none" height="6" style="stroke:#C82930;stroke-width:1.0;" width="6" x="17" y="548.9551"/><text fill="#000000" font-family="sans-serif" font-size="11" lengthAdjust="spacing" textLength="233" x="29" y="555.5898">_activeSectionIndexItem : ISectionIndexItem</text><rect fill="none" height="6" style="stroke:#C82930;stroke-width:1.0;" width="6" x="17" y="561.9102"/><text fill="#000000" font-family="sans-serif" font-size="11" lengthAdjust="spacing" textLength="204" x="29" y="568.5449">_contentPaddingTop : string | number</text><rect fill="none" height="6" style="stroke:#C82930;stroke-width:1.0;" width="6" x="17" y="574.8652"/><text fill="#000000" font-family="sans-serif" font-size="11" lengthAdjust="spacing" textLength="238" x="29" y="581.5">_mainScrollContainerElement : HTMLElement</text><rect fill="none" height="6" style="stroke:#C82930;stroke-width:1.0;" width="6" x="17" y="587.8203"/><text fill="#000000" font-family="sans-serif" font-size="11" lengthAdjust="spacing" textLength="145" x="29" y="594.4551">_navigateOnClick : boolean</text><rect fill="none" height="6" style="stroke:#C82930;stroke-width:1.0;" width="6" x="17" y="600.7754"/><text fill="#000000" font-family="sans-serif" font-size="11" lengthAdjust="spacing" textLength="131" x="29" y="607.4102">_scrollTimeout : number</text><line style="stroke:#272B30;stroke-width:1.5;" x1="10" x2="504" y1="613.7305" y2="613.7305"/><ellipse cx="20" cy="624.7305" fill="#84BE84" rx="3" ry="3" style="stroke:#038048;stroke-width:1.0;"/><text fill="#000000" font-family="sans-serif" font-size="11" lengthAdjust="spacing" textLength="470" x="29" y="628.3652">beNotifiedByChild(childItem: SectionIndexItem, notifiedTo: ChildNotifyActionType) : void</text><ellipse cx="20" cy="637.6855" fill="#84BE84" rx="3" ry="3" style="stroke:#038048;stroke-width:1.0;"/><text fill="#000000" font-family="sans-serif" font-size="11" lengthAdjust="spacing" textLength="67" x="29" y="641.3203">build() : void</text><ellipse cx="20" cy="650.6406" fill="#84BE84" rx="3" ry="3" style="stroke:#038048;stroke-width:1.0;"/><text fill="#000000" font-family="sans-serif" font-size="11" lengthAdjust="spacing" textLength="377" x="29" y="654.2754">changeProperty(propertyName: string, propertyValue: unknown) : void</text><ellipse cx="20" cy="663.5957" fill="#84BE84" rx="3" ry="3" style="stroke:#038048;stroke-width:1.0;"/><text fill="#000000" font-family="sans-serif" font-size="11" lengthAdjust="spacing" textLength="82" x="29" y="667.2305">dispose() : void</text><ellipse cx="20" cy="676.5508" fill="#84BE84" rx="3" ry="3" style="stroke:#038048;stroke-width:1.0;"/><text fill="#000000" font-family="sans-serif" font-size="11" lengthAdjust="spacing" textLength="207" x="29" y="680.1855">equalsToID(patternId: string) : boolean</text><ellipse cx="20" cy="689.5059" fill="#84BE84" rx="3" ry="3" style="stroke:#038048;stroke-width:1.0;"/><text fill="#000000" font-family="sans-serif" font-size="11" lengthAdjust="spacing" textLength="255" x="29" y="693.1406">getChildItems(type: string) : ISectionIndexItem[]</text><ellipse cx="20" cy="702.4609" fill="#84BE84" rx="3" ry="3" style="stroke:#038048;stroke-width:1.0;"/><text fill="#000000" font-family="sans-serif" font-size="11" lengthAdjust="spacing" textLength="335" x="29" y="706.0957">registerCallback(eventName: string, callback: OSGeneric) : void</text><polygon fill="#FFFF44" points="20,710.416,24,714.416,20,718.416,16,714.416" style="stroke:#B38D22;stroke-width:1.0;"/><text fill="#000000" font-family="sans-serif" font-size="11" lengthAdjust="spacing" textLength="96" x="29" y="719.0508">finishBuild() : void</text><polygon fill="#FFFF44" points="20,723.3711,24,727.3711,20,731.3711,16,727.3711" style="stroke:#B38D22;stroke-width:1.0;"/><text fill="#000000" font-family="sans-serif" font-size="11" lengthAdjust="spacing" textLength="231" x="29" y="732.0059">getChild(childId: string) : ISectionIndexItem</text><polygon fill="#FFFF44" points="20,736.3262,24,740.3262,20,744.3262,16,740.3262" style="stroke:#B38D22;stroke-width:1.0;"/><text fill="#000000" font-family="sans-serif" font-size="11" lengthAdjust="spacing" textLength="373" x="29" y="744.9609">getChildByIndex(index: number, childType: string) : ISectionIndexItem</text><polygon fill="#FFFF44" points="20,749.2813,24,753.2813,20,757.2813,16,753.2813" style="stroke:#B38D22;stroke-width:1.0;"/><text fill="#000000" font-family="sans-serif" font-size="11" lengthAdjust="spacing" textLength="208" x="29" y="757.916">getChildIndex(childId: string) : number</text><polygon fill="#FFFF44" points="20,762.2363,24,766.2363,20,770.2363,16,766.2363" style="stroke:#B38D22;stroke-width:1.0;"/><text fill="#000000" font-family="sans-serif" font-size="11" lengthAdjust="spacing" textLength="140" x="29" y="770.8711">setA11YProperties() : void</text><polygon fill="#FFFF44" points="20,775.1914,24,779.1914,20,783.1914,16,779.1914" style="stroke:#B38D22;stroke-width:1.0;"/><text fill="#000000" font-family="sans-serif" font-size="11" lengthAdjust="spacing" textLength="107" x="29" y="783.8262">setCallbacks() : void</text><polygon fill="#FFFF44" points="20,788.1465,24,792.1465,20,796.1465,16,792.1465" style="stroke:#B38D22;stroke-width:1.0;"/><text fill="#000000" font-family="sans-serif" font-size="11" lengthAdjust="spacing" textLength="234" x="29" y="796.7813">setChild(childItem: ISectionIndexItem) : void</text><polygon fill="#FFFF44" points="20,801.1016,24,805.1016,20,809.1016,16,805.1016" style="stroke:#B38D22;stroke-width:1.0;"/><text fill="#000000" font-family="sans-serif" font-size="11" lengthAdjust="spacing" textLength="129" x="29" y="809.7363">setHtmlElements() : void</text><polygon fill="#FFFF44" points="20,814.0566,24,818.0566,20,822.0566,16,818.0566" style="stroke:#B38D22;stroke-width:1.0;"/><text fill="#000000" font-family="sans-serif" font-size="11" lengthAdjust="spacing" textLength="444" x="29" y="822.6914">triggerPlatformEventCallback(platFormCallback: OSGeneric, args: unknown[]) : void</text><polygon fill="#FFFF44" points="20,827.0117,24,831.0117,20,835.0117,16,831.0117" style="stroke:#B38D22;stroke-width:1.0;"/><text fill="#000000" font-family="sans-serif" font-size="11" lengthAdjust="spacing" textLength="247" x="29" y="835.6465">triggerPlatformInitializedEventCallback() : void</text><polygon fill="#FFFF44" points="20,839.9668,24,843.9668,20,847.9668,16,843.9668" style="stroke:#B38D22;stroke-width:1.0;"/><text fill="#000000" font-family="sans-serif" font-size="11" lengthAdjust="spacing" textLength="121" x="29" y="848.6016">unsetCallbacks() : void</text><polygon fill="#FFFF44" points="20,852.9219,24,856.9219,20,860.9219,16,856.9219" style="stroke:#B38D22;stroke-width:1.0;"/><text fill="#000000" font-family="sans-serif" font-size="11" lengthAdjust="spacing" textLength="172" x="29" y="861.5566">unsetChild(childId: string) : void</text><polygon fill="#FFFF44" points="20,865.877,24,869.877,20,873.877,16,869.877" style="stroke:#B38D22;stroke-width:1.0;"/><text fill="#000000" font-family="sans-serif" font-size="11" lengthAdjust="spacing" textLength="155" x="29" y="874.5117">unsetGlobalCallbacks() : void</text><polygon fill="#FFFF44" points="20,878.832,24,882.832,20,886.832,16,882.832" style="stroke:#B38D22;stroke-width:1.0;"/><text fill="#000000" font-family="sans-serif" font-size="11" lengthAdjust="spacing" textLength="143" x="29" y="887.4668">unsetHtmlElements() : void</text><rect fill="#F24D5C" height="6" style="stroke:#C82930;stroke-width:1.0;" width="6" x="17" y="893.7871"/><text fill="#000000" font-family="sans-serif" font-size="11" lengthAdjust="spacing" textLength="305" x="29" y="900.4219">_addSectionIndexItem(childItem: SectionIndexItem) : void</text><rect fill="#F24D5C" height="6" style="stroke:#C82930;stroke-width:1.0;" width="6" x="17" y="906.7422"/><text fill="#000000" font-family="sans-serif" font-size="11" lengthAdjust="spacing" textLength="253" x="29" y="913.377">_childItemHasBeenClicked(childId: string) : void</text><rect fill="#F24D5C" height="6" style="stroke:#C82930;stroke-width:1.0;" width="6" x="17" y="919.6973"/><text fill="#000000" font-family="sans-serif" font-size="11" lengthAdjust="spacing" textLength="170" x="29" y="926.332">_getContentPaddingTop() : void</text><rect fill="#F24D5C" height="6" style="stroke:#C82930;stroke-width:1.0;" width="6" x="17" y="932.6523"/><text fill="#000000" font-family="sans-serif" font-size="11" lengthAdjust="spacing" textLength="252" x="29" y="939.2871">_removeSectionIndexItem(childId: string) : void</text><rect fill="#F24D5C" height="6" style="stroke:#C82930;stroke-width:1.0;" width="6" x="17" y="945.6074"/><text fill="#000000" font-family="sans-serif" font-size="11" lengthAdjust="spacing" textLength="292" x="29" y="952.2422">_setActiveChildOnClick(child: ISectionIndexItem) : void</text><rect fill="#F24D5C" height="6" style="stroke:#C82930;stroke-width:1.0;" width="6" x="17" y="958.5625"/><text fill="#000000" font-family="sans-serif" font-size="11" lengthAdjust="spacing" textLength="296" x="29" y="965.1973">_setActiveChildOnScroll(child: ISectionIndexItem) : void</text><rect fill="#F24D5C" height="6" style="stroke:#C82930;stroke-width:1.0;" width="6" x="17" y="971.5176"/><text fill="#000000" font-family="sans-serif" font-size="11" lengthAdjust="spacing" textLength="118" x="29" y="978.1523">_toggleIsFixed() : void</text><!--MD5=[f8cbeeb5224dbe028dfc4d5bf37196ff]
reverse link IParent to ISectionIndex--><path codeLine="32" d="M257,205.55 C257,218.63 257,231.92 257,244.79 " fill="none" id="IParent-backto-ISectionIndex" style="stroke:#272B30;stroke-width:1.0;"/><polygon fill="none" points="250,205.23,257,185.23,264,205.23,250,205.23" style="stroke:#272B30;stroke-width:1.0;"/><!--MD5=[3ce6b6acd755a0644afa4f692b23f5a6]
reverse link ISectionIndex to SectionIndex--><path codeLine="69" d="M257,456.28 C257,468.95 257,482.18 257,495.7 " fill="none" id="ISectionIndex-backto-SectionIndex" style="stroke:#272B30;stroke-width:1.0;stroke-dasharray:7.0,7.0;"/><polygon fill="none" points="250,456.21,257,436.21,264,456.21,250,456.21" style="stroke:#272B30;stroke-width:1.0;"/><!--MD5=[66d2066ae4c6cdc171bd2ef2bde3d6a3]
@startuml
skinparam ClassArrowColor #272b30
skinparam ClassBorderColor #272b30
skinparam ClassBackgroundColor #fff
skinparam BackgroundColor #ced4da
hide empty methods
hide empty fields
interface "ISectionIndex" {
    +contentPaddingTop : string | number
    +isBuilt : boolean
    +selfElement : HTMLElement
    +uniqueId : string
    +widgetId : string
    +beNotifiedByChild(childItem: IChild, notifiedTo: string) : void
    +build() : void
    +changeProperty(propertyName: string, propertyValue: unknown) : void
    +dispose() : void
    +equalsToID(id: string) : boolean
    +registerCallback(eventName: string, callback: OSGeneric) : void
}
interface "IParent" {
    +isBuilt : boolean
    +selfElement : HTMLElement
    +uniqueId : string
    +widgetId : string
    +beNotifiedByChild(childItem: IChild, notifiedTo: string) : void
    +build() : void
    +changeProperty(propertyName: string, propertyValue: unknown) : void
    +dispose() : void
    +equalsToID(id: string) : boolean
    +registerCallback(eventName: string, callback: OSGeneric) : void
}
"IParent" <|- - "ISectionIndex"
class "SectionIndex" {
    #isProviderBased : boolean
    -_activeSectionIndexItem : ISectionIndexItem
    -_contentPaddingTop : string | number
    -_mainScrollContainerElement : HTMLElement
    -_navigateOnClick : boolean
    -_scrollTimeout : number
    +beNotifiedByChild(childItem: SectionIndexItem, notifiedTo: ChildNotifyActionType) : void
    +build() : void
    +changeProperty(propertyName: string, propertyValue: unknown) : void
    +dispose() : void
    +equalsToID(patternId: string) : boolean
    +getChildItems(type: string) : ISectionIndexItem[]
    +registerCallback(eventName: string, callback: OSGeneric) : void
    #finishBuild() : void
    #getChild(childId: string) : ISectionIndexItem
    #getChildByIndex(index: number, childType: string) : ISectionIndexItem
    #getChildIndex(childId: string) : number
    #setA11YProperties() : void
    #setCallbacks() : void
    #setChild(childItem: ISectionIndexItem) : void
    #setHtmlElements() : void
    #triggerPlatformEventCallback(platFormCallback: OSGeneric, args: unknown[]) : void
    #triggerPlatformInitializedEventCallback() : void
    #unsetCallbacks() : void
    #unsetChild(childId: string) : void
    #unsetGlobalCallbacks() : void
    #unsetHtmlElements() : void
    -_addSectionIndexItem(childItem: SectionIndexItem) : void
    -_childItemHasBeenClicked(childId: string) : void
    -_getContentPaddingTop() : void
    -_removeSectionIndexItem(childId: string) : void
    -_setActiveChildOnClick(child: ISectionIndexItem) : void
    -_setActiveChildOnScroll(child: ISectionIndexItem) : void
    -_toggleIsFixed() : void
}
"ISectionIndex" <|.. "SectionIndex"
@enduml

PlantUML version 1.2021.14(Fri Nov 12 16:46:50 WET 2021)
(GPL source distribution)
Java Runtime: Java(TM) SE Runtime Environment
JVM: Java HotSpot(TM) 64-Bit Server VM
Default Encoding: UTF-8
Language: en
Country: PT
--></g></svg>