<?xml version="1.0" encoding="UTF-8" standalone="no"?><svg xmlns="http://www.w3.org/2000/svg" xmlns:xlink="http://www.w3.org/1999/xlink" contentScriptType="application/ecmascript" contentStyleType="text/css" height="1027px" preserveAspectRatio="none" style="width:594px;height:1027px;background:#CED4DA;" version="1.1" viewBox="0 0 594 1027" width="594px" zoomAndPan="magnify"><defs><filter height="300%" id="f1rbgmq0o0a4jn" width="300%" x="-1" y="-1"><feGaussianBlur result="blurOut" stdDeviation="2.0"/><feColorMatrix in="blurOut" result="blurOut2" type="matrix" values="0 0 0 0 0 0 0 0 0 0 0 0 0 0 0 0 0 0 .4 0"/><feOffset dx="4.0" dy="4.0" in="blurOut2" result="blurOut3"/><feBlend in="SourceGraphic" in2="blurOut3" mode="normal"/></filter></defs><g><!--MD5=[822676b925c8e001bce71cad4a86da40]
class ISectionIndexItem--><rect codeLine="7" fill="#FFFFFF" filter="url(#f1rbgmq0o0a4jn)" height="227.2656" id="ISectionIndexItem" style="stroke:#272B30;stroke-width:1.5;" width="425" x="82" y="269"/><ellipse cx="233.25" cy="285" fill="#B4A7E5" rx="11" ry="11" style="stroke:#272B30;stroke-width:1.0;"/><path d="M229.1719,280.7656 L229.1719,278.6094 L236.5625,278.6094 L236.5625,280.7656 L234.0938,280.7656 L234.0938,288.8438 L236.5625,288.8438 L236.5625,291 L229.1719,291 L229.1719,288.8438 L231.6406,288.8438 L231.6406,280.7656 L229.1719,280.7656 Z " fill="#000000"/><text fill="#000000" font-family="sans-serif" font-size="12" font-style="italic" lengthAdjust="spacing" textLength="114" x="253.75" y="289.1543">ISectionIndexItem</text><line style="stroke:#272B30;stroke-width:1.5;" x1="83" x2="506" y1="301" y2="301"/><ellipse cx="93" cy="312" rx="3" ry="3" style="stroke:#038048;stroke-width:1.0;fill:none;"/><text fill="#000000" font-family="sans-serif" font-size="11" lengthAdjust="spacing" textLength="92" x="102" y="315.2104">isBuilt : boolean</text><ellipse cx="93" cy="324.8047" rx="3" ry="3" style="stroke:#038048;stroke-width:1.0;fill:none;"/><text fill="#000000" font-family="sans-serif" font-size="11" lengthAdjust="spacing" textLength="155" x="102" y="328.0151">selfElement : HTMLElement</text><ellipse cx="93" cy="337.6094" rx="3" ry="3" style="stroke:#038048;stroke-width:1.0;fill:none;"/><text fill="#000000" font-family="sans-serif" font-size="11" lengthAdjust="spacing" textLength="93" x="102" y="340.8198">uniqueId : string</text><ellipse cx="93" cy="350.4141" rx="3" ry="3" style="stroke:#038048;stroke-width:1.0;fill:none;"/><text fill="#000000" font-family="sans-serif" font-size="11" lengthAdjust="spacing" textLength="92" x="102" y="353.6245">widgetId : string</text><line style="stroke:#272B30;stroke-width:1.5;" x1="83" x2="506" y1="360.2188" y2="360.2188"/><ellipse cx="93" cy="371.2188" fill="#84BE84" rx="3" ry="3" style="stroke:#038048;stroke-width:1.0;"/><text fill="#000000" font-family="sans-serif" font-size="11" lengthAdjust="spacing" textLength="70" x="102" y="374.4292">build() : void</text><ellipse cx="93" cy="384.0234" fill="#84BE84" rx="3" ry="3" style="stroke:#038048;stroke-width:1.0;"/><text fill="#000000" font-family="sans-serif" font-size="11" lengthAdjust="spacing" textLength="399" x="102" y="387.2339">changeProperty(propertyName: string, propertyValue: unknown) : void</text><ellipse cx="93" cy="396.8281" fill="#84BE84" rx="3" ry="3" style="stroke:#038048;stroke-width:1.0;"/><text fill="#000000" font-family="sans-serif" font-size="11" lengthAdjust="spacing" textLength="88" x="102" y="400.0386">dispose() : void</text><ellipse cx="93" cy="409.6328" fill="#84BE84" rx="3" ry="3" style="stroke:#038048;stroke-width:1.0;"/><text fill="#000000" font-family="sans-serif" font-size="11" lengthAdjust="spacing" textLength="179" x="102" y="412.8433">equalsToID(id: string) : boolean</text><ellipse cx="93" cy="422.4375" fill="#84BE84" rx="3" ry="3" style="stroke:#038048;stroke-width:1.0;"/><text fill="#000000" font-family="sans-serif" font-size="11" lengthAdjust="spacing" textLength="84" x="102" y="425.6479">setBlur() : void</text><ellipse cx="93" cy="435.2422" fill="#84BE84" rx="3" ry="3" style="stroke:#038048;stroke-width:1.0;"/><text fill="#000000" font-family="sans-serif" font-size="11" lengthAdjust="spacing" textLength="94" x="102" y="438.4526">setFocus() : void</text><ellipse cx="93" cy="448.0469" fill="#84BE84" rx="3" ry="3" style="stroke:#038048;stroke-width:1.0;"/><text fill="#000000" font-family="sans-serif" font-size="11" lengthAdjust="spacing" textLength="104" x="102" y="451.2573">setIsActive() : void</text><ellipse cx="93" cy="460.8516" fill="#84BE84" rx="3" ry="3" style="stroke:#038048;stroke-width:1.0;"/><text fill="#000000" font-family="sans-serif" font-size="11" lengthAdjust="spacing" textLength="112" x="102" y="464.062">setTabindex() : void</text><ellipse cx="93" cy="473.6563" fill="#84BE84" rx="3" ry="3" style="stroke:#038048;stroke-width:1.0;"/><text fill="#000000" font-family="sans-serif" font-size="11" lengthAdjust="spacing" textLength="118" x="102" y="476.8667">unsetIsActive() : void</text><ellipse cx="93" cy="486.4609" fill="#84BE84" rx="3" ry="3" style="stroke:#038048;stroke-width:1.0;"/><text fill="#000000" font-family="sans-serif" font-size="11" lengthAdjust="spacing" textLength="126" x="102" y="489.6714">unsetTabindex() : void</text><!--MD5=[1123f0c3b94494dd3d3555a8beccd8c4]
class IChild--><rect codeLine="23" fill="#FFFFFF" filter="url(#f1rbgmq0o0a4jn)" height="201.6563" id="IChild" style="stroke:#272B30;stroke-width:1.5;" width="425" x="82" y="7"/><ellipse cx="273.25" cy="23" fill="#B4A7E5" rx="11" ry="11" style="stroke:#272B30;stroke-width:1.0;"/><path d="M269.1719,18.7656 L269.1719,16.6094 L276.5625,16.6094 L276.5625,18.7656 L274.0938,18.7656 L274.0938,26.8438 L276.5625,26.8438 L276.5625,29 L269.1719,29 L269.1719,26.8438 L271.6406,26.8438 L271.6406,18.7656 L269.1719,18.7656 Z " fill="#000000"/><text fill="#000000" font-family="sans-serif" font-size="12" font-style="italic" lengthAdjust="spacing" textLength="34" x="293.75" y="27.1543">IChild</text><line style="stroke:#272B30;stroke-width:1.5;" x1="83" x2="506" y1="39" y2="39"/><ellipse cx="93" cy="50" rx="3" ry="3" style="stroke:#038048;stroke-width:1.0;fill:none;"/><text fill="#000000" font-family="sans-serif" font-size="11" lengthAdjust="spacing" textLength="92" x="102" y="53.2104">isBuilt : boolean</text><ellipse cx="93" cy="62.8047" rx="3" ry="3" style="stroke:#038048;stroke-width:1.0;fill:none;"/><text fill="#000000" font-family="sans-serif" font-size="11" lengthAdjust="spacing" textLength="155" x="102" y="66.0151">selfElement : HTMLElement</text><ellipse cx="93" cy="75.6094" rx="3" ry="3" style="stroke:#038048;stroke-width:1.0;fill:none;"/><text fill="#000000" font-family="sans-serif" font-size="11" lengthAdjust="spacing" textLength="93" x="102" y="78.8198">uniqueId : string</text><ellipse cx="93" cy="88.4141" rx="3" ry="3" style="stroke:#038048;stroke-width:1.0;fill:none;"/><text fill="#000000" font-family="sans-serif" font-size="11" lengthAdjust="spacing" textLength="92" x="102" y="91.6245">widgetId : string</text><line style="stroke:#272B30;stroke-width:1.5;" x1="83" x2="506" y1="98.2188" y2="98.2188"/><ellipse cx="93" cy="109.2188" fill="#84BE84" rx="3" ry="3" style="stroke:#038048;stroke-width:1.0;"/><text fill="#000000" font-family="sans-serif" font-size="11" lengthAdjust="spacing" textLength="70" x="102" y="112.4292">build() : void</text><ellipse cx="93" cy="122.0234" fill="#84BE84" rx="3" ry="3" style="stroke:#038048;stroke-width:1.0;"/><text fill="#000000" font-family="sans-serif" font-size="11" lengthAdjust="spacing" textLength="399" x="102" y="125.2339">changeProperty(propertyName: string, propertyValue: unknown) : void</text><ellipse cx="93" cy="134.8281" fill="#84BE84" rx="3" ry="3" style="stroke:#038048;stroke-width:1.0;"/><text fill="#000000" font-family="sans-serif" font-size="11" lengthAdjust="spacing" textLength="88" x="102" y="138.0386">dispose() : void</text><ellipse cx="93" cy="147.6328" fill="#84BE84" rx="3" ry="3" style="stroke:#038048;stroke-width:1.0;"/><text fill="#000000" font-family="sans-serif" font-size="11" lengthAdjust="spacing" textLength="179" x="102" y="150.8433">equalsToID(id: string) : boolean</text><ellipse cx="93" cy="160.4375" fill="#84BE84" rx="3" ry="3" style="stroke:#038048;stroke-width:1.0;"/><text fill="#000000" font-family="sans-serif" font-size="11" lengthAdjust="spacing" textLength="84" x="102" y="163.6479">setBlur() : void</text><ellipse cx="93" cy="173.2422" fill="#84BE84" rx="3" ry="3" style="stroke:#038048;stroke-width:1.0;"/><text fill="#000000" font-family="sans-serif" font-size="11" lengthAdjust="spacing" textLength="94" x="102" y="176.4526">setFocus() : void</text><ellipse cx="93" cy="186.0469" fill="#84BE84" rx="3" ry="3" style="stroke:#038048;stroke-width:1.0;"/><text fill="#000000" font-family="sans-serif" font-size="11" lengthAdjust="spacing" textLength="112" x="102" y="189.2573">setTabindex() : void</text><ellipse cx="93" cy="198.8516" fill="#84BE84" rx="3" ry="3" style="stroke:#038048;stroke-width:1.0;"/><text fill="#000000" font-family="sans-serif" font-size="11" lengthAdjust="spacing" textLength="126" x="102" y="202.062">unsetTabindex() : void</text><!--MD5=[014a276441c362f167faaa4956b4eefc]
class SectionIndexItem--><rect codeLine="38" fill="#FFFFFF" filter="url(#f1rbgmq0o0a4jn)" height="457.75" id="SectionIndexItem" style="stroke:#272B30;stroke-width:1.5;" width="571" x="9" y="556"/><ellipse cx="236.75" cy="572" fill="#ADD1B2" rx="11" ry="11" style="stroke:#272B30;stroke-width:1.0;"/><path d="M239.7188,577.6406 Q239.1406,577.9375 238.5,578.0781 Q237.8594,578.2344 237.1563,578.2344 Q234.6563,578.2344 233.3281,576.5938 Q232.0156,574.9375 232.0156,571.8125 Q232.0156,568.6875 233.3281,567.0313 Q234.6563,565.375 237.1563,565.375 Q237.8594,565.375 238.5,565.5313 Q239.1563,565.6875 239.7188,565.9844 L239.7188,568.7031 Q239.0938,568.125 238.5,567.8594 Q237.9063,567.5781 237.2813,567.5781 Q235.9375,567.5781 235.25,568.6563 Q234.5625,569.7188 234.5625,571.8125 Q234.5625,573.9063 235.25,574.9844 Q235.9375,576.0469 237.2813,576.0469 Q237.9063,576.0469 238.5,575.7813 Q239.0938,575.5 239.7188,574.9219 L239.7188,577.6406 Z " fill="#000000"/><text fill="#000000" font-family="sans-serif" font-size="12" lengthAdjust="spacing" textLength="107" x="257.25" y="576.1543">SectionIndexItem</text><line style="stroke:#272B30;stroke-width:1.5;" x1="10" x2="579" y1="588" y2="588"/><rect fill="none" height="6" style="stroke:#C82930;stroke-width:1.0;" width="6" x="17" y="596"/><text fill="#000000" font-family="sans-serif" font-size="11" lengthAdjust="spacing" textLength="169" x="29" y="602.2104">_eventOnBodyScroll : Generic</text><rect fill="none" height="6" style="stroke:#C82930;stroke-width:1.0;" width="6" x="17" y="608.8047"/><text fill="#000000" font-family="sans-serif" font-size="11" lengthAdjust="spacing" textLength="135" x="29" y="615.0151">_eventOnClick : Generic</text><rect fill="none" height="6" style="stroke:#C82930;stroke-width:1.0;" width="6" x="17" y="621.6094"/><text fill="#000000" font-family="sans-serif" font-size="11" lengthAdjust="spacing" textLength="195" x="29" y="627.8198">_eventOnkeyBoardPress : Generic</text><rect fill="none" height="6" style="stroke:#C82930;stroke-width:1.0;" width="6" x="17" y="634.4141"/><text fill="#000000" font-family="sans-serif" font-size="11" lengthAdjust="spacing" textLength="138" x="29" y="640.6245">_headerHeight : number</text><rect fill="none" height="6" style="stroke:#C82930;stroke-width:1.0;" width="6" x="17" y="647.2188"/><text fill="#000000" font-family="sans-serif" font-size="11" lengthAdjust="spacing" textLength="142" x="29" y="653.4292">_headerIsFixed : boolean</text><rect fill="none" height="6" style="stroke:#C82930;stroke-width:1.0;" width="6" x="17" y="660.0234"/><text fill="#000000" font-family="sans-serif" font-size="11" lengthAdjust="spacing" textLength="106" x="29" y="666.2339">_isActive : boolean</text><rect fill="none" height="6" style="stroke:#C82930;stroke-width:1.0;" width="6" x="17" y="672.8281"/><text fill="#000000" font-family="sans-serif" font-size="11" lengthAdjust="spacing" textLength="255" x="29" y="679.0386">_mainScrollContainerElement : HTMLElement</text><rect fill="none" height="6" style="stroke:#C82930;stroke-width:1.0;" width="6" x="17" y="685.6328"/><text fill="#000000" font-family="sans-serif" font-size="11" lengthAdjust="spacing" textLength="174" x="29" y="691.8433">_targetElement : HTMLElement</text><rect fill="none" height="6" style="stroke:#C82930;stroke-width:1.0;" width="6" x="17" y="698.4375"/><text fill="#000000" font-family="sans-serif" font-size="11" lengthAdjust="spacing" textLength="206" x="29" y="704.6479">_targetElementOffset : OffsetValues</text><line style="stroke:#272B30;stroke-width:1.5;" x1="10" x2="579" y1="711.2422" y2="711.2422"/><ellipse cx="20" cy="722.2422" fill="#84BE84" rx="3" ry="3" style="stroke:#038048;stroke-width:1.0;"/><text fill="#000000" font-family="sans-serif" font-size="11" lengthAdjust="spacing" textLength="70" x="29" y="725.4526">build() : void</text><ellipse cx="20" cy="735.0469" fill="#84BE84" rx="3" ry="3" style="stroke:#038048;stroke-width:1.0;"/><text fill="#000000" font-family="sans-serif" font-size="11" lengthAdjust="spacing" textLength="399" x="29" y="738.2573">changeProperty(propertyName: string, propertyValue: unknown) : void</text><ellipse cx="20" cy="747.8516" fill="#84BE84" rx="3" ry="3" style="stroke:#038048;stroke-width:1.0;"/><text fill="#000000" font-family="sans-serif" font-size="11" lengthAdjust="spacing" textLength="88" x="29" y="751.062">dispose() : void</text><ellipse cx="20" cy="760.6563" fill="#84BE84" rx="3" ry="3" style="stroke:#038048;stroke-width:1.0;"/><text fill="#000000" font-family="sans-serif" font-size="11" lengthAdjust="spacing" textLength="220" x="29" y="763.8667">equalsToID(patternId: string) : boolean</text><ellipse cx="20" cy="773.4609" fill="#84BE84" rx="3" ry="3" style="stroke:#038048;stroke-width:1.0;"/><text fill="#000000" font-family="sans-serif" font-size="11" lengthAdjust="spacing" textLength="104" x="29" y="776.6714">setIsActive() : void</text><ellipse cx="20" cy="786.2656" fill="#84BE84" rx="3" ry="3" style="stroke:#038048;stroke-width:1.0;"/><text fill="#000000" font-family="sans-serif" font-size="11" lengthAdjust="spacing" textLength="118" x="29" y="789.4761">unsetIsActive() : void</text><polygon fill="#FFFF44" points="20,794.0703,24,798.0703,20,802.0703,16,798.0703" style="stroke:#B38D22;stroke-width:1.0;"/><text fill="#000000" font-family="sans-serif" font-size="11" lengthAdjust="spacing" textLength="102" x="29" y="802.2808">finishBuild() : void</text><polygon fill="#FFFF44" points="20,806.875,24,810.875,20,814.875,16,810.875" style="stroke:#B38D22;stroke-width:1.0;"/><text fill="#000000" font-family="sans-serif" font-size="11" lengthAdjust="spacing" textLength="213" x="29" y="815.0854">notifyParent(actionType: string) : void</text><polygon fill="#FFFF44" points="20,819.6797,24,823.6797,20,827.6797,16,823.6797" style="stroke:#B38D22;stroke-width:1.0;"/><text fill="#000000" font-family="sans-serif" font-size="11" lengthAdjust="spacing" textLength="148" x="29" y="827.8901">setA11YProperties() : void</text><polygon fill="#FFFF44" points="20,832.4844,24,836.4844,20,840.4844,16,836.4844" style="stroke:#B38D22;stroke-width:1.0;"/><text fill="#000000" font-family="sans-serif" font-size="11" lengthAdjust="spacing" textLength="115" x="29" y="840.6948">setCallbacks() : void</text><polygon fill="#FFFF44" points="20,845.2891,24,849.2891,20,853.2891,16,849.2891" style="stroke:#B38D22;stroke-width:1.0;"/><text fill="#000000" font-family="sans-serif" font-size="11" lengthAdjust="spacing" textLength="140" x="29" y="853.4995">setHtmlElements() : void</text><polygon fill="#FFFF44" points="20,858.0938,24,862.0938,20,866.0938,16,862.0938" style="stroke:#B38D22;stroke-width:1.0;"/><text fill="#000000" font-family="sans-serif" font-size="11" lengthAdjust="spacing" textLength="545" x="29" y="866.3042">setParentInfo(parentSelector: string, getPatternByIdAPI: Function, canBeOrphan: boolean) : void</text><polygon fill="#FFFF44" points="20,870.8984,24,874.8984,20,878.8984,16,874.8984" style="stroke:#B38D22;stroke-width:1.0;"/><text fill="#000000" font-family="sans-serif" font-size="11" lengthAdjust="spacing" textLength="129" x="29" y="879.1089">unsetCallbacks() : void</text><polygon fill="#FFFF44" points="20,883.7031,24,887.7031,20,891.7031,16,887.7031" style="stroke:#B38D22;stroke-width:1.0;"/><text fill="#000000" font-family="sans-serif" font-size="11" lengthAdjust="spacing" textLength="154" x="29" y="891.9136">unsetHtmlElements() : void</text><rect fill="#F24D5C" height="6" style="stroke:#C82930;stroke-width:1.0;" width="6" x="17" y="898.5078"/><text fill="#000000" font-family="sans-serif" font-size="11" lengthAdjust="spacing" textLength="123" x="29" y="904.7183">_onBodyScroll() : void</text><rect fill="#F24D5C" height="6" style="stroke:#C82930;stroke-width:1.0;" width="6" x="17" y="911.3125"/><text fill="#000000" font-family="sans-serif" font-size="11" lengthAdjust="spacing" textLength="286" x="29" y="917.5229">_onKeyboardPressed(event: KeyboardEvent) : void</text><rect fill="#F24D5C" height="6" style="stroke:#C82930;stroke-width:1.0;" width="6" x="17" y="924.1172"/><text fill="#000000" font-family="sans-serif" font-size="11" lengthAdjust="spacing" textLength="182" x="29" y="930.3276">_onSelected(event: Event) : void</text><rect fill="#F24D5C" height="6" style="stroke:#C82930;stroke-width:1.0;" width="6" x="17" y="936.9219"/><text fill="#000000" font-family="sans-serif" font-size="11" lengthAdjust="spacing" textLength="130" x="29" y="943.1323">_removeEvents() : void</text><rect fill="#F24D5C" height="6" style="stroke:#C82930;stroke-width:1.0;" width="6" x="17" y="949.7266"/><text fill="#000000" font-family="sans-serif" font-size="11" lengthAdjust="spacing" textLength="131" x="29" y="955.937">_setHeaderSize() : void</text><rect fill="#F24D5C" height="6" style="stroke:#C82930;stroke-width:1.0;" width="6" x="17" y="962.5313"/><text fill="#000000" font-family="sans-serif" font-size="11" lengthAdjust="spacing" textLength="137" x="29" y="968.7417">_setLinkAttribute() : void</text><rect fill="#F24D5C" height="6" style="stroke:#C82930;stroke-width:1.0;" width="6" x="17" y="975.3359"/><text fill="#000000" font-family="sans-serif" font-size="11" lengthAdjust="spacing" textLength="150" x="29" y="981.5464">_setTargetElement() : void</text><rect fill="#F24D5C" height="6" style="stroke:#C82930;stroke-width:1.0;" width="6" x="17" y="988.1406"/><text fill="#000000" font-family="sans-serif" font-size="11" lengthAdjust="spacing" textLength="160" x="29" y="994.3511">_setTargetOffsetInfo() : void</text><rect fill="#F24D5C" height="6" style="stroke:#C82930;stroke-width:1.0;" width="6" x="17" y="1000.9453"/><text fill="#000000" font-family="sans-serif" font-size="11" lengthAdjust="spacing" textLength="120" x="29" y="1007.1558">_setUpEvents() : void</text><!--MD5=[718758aa451c991bd672bdedb0d47729]
reverse link IChild to ISectionIndexItem--><path codeLine="37" d="M294.5,229.64 C294.5,242.73 294.5,256.01 294.5,268.99 " fill="none" id="IChild-backto-ISectionIndexItem" style="stroke:#272B30;stroke-width:1.0;"/><polygon fill="none" points="287.5,229.31,294.5,209.31,301.5,229.31,287.5,229.31" style="stroke:#272B30;stroke-width:1.0;"/><!--MD5=[090a083ce839f0b2463071509fc75c46]
reverse link ISectionIndexItem to SectionIndexItem--><path codeLine="72" d="M294.5,516.45 C294.5,529.2 294.5,542.36 294.5,555.68 " fill="none" id="ISectionIndexItem-backto-SectionIndexItem" style="stroke:#272B30;stroke-width:1.0;stroke-dasharray:7.0,7.0;"/><polygon fill="none" points="287.5,516.13,294.5,496.13,301.5,516.13,287.5,516.13" style="stroke:#272B30;stroke-width:1.0;"/><!--MD5=[ba80aee3b3494ff4f41200e801ef2e88]
@startuml
skinparam ClassArrowColor #272b30
skinparam ClassBorderColor #272b30
skinparam ClassBackgroundColor #fff
skinparam BackgroundColor #ced4da
hide empty methods
hide empty fields
interface "ISectionIndexItem" {
    +isBuilt : boolean
    +selfElement : HTMLElement
    +uniqueId : string
    +widgetId : string
    +build() : void
    +changeProperty(propertyName: string, propertyValue: unknown) : void
    +dispose() : void
    +equalsToID(id: string) : boolean
    +setBlur() : void
    +setFocus() : void
    +setIsActive() : void
    +setTabindex() : void
    +unsetIsActive() : void
    +unsetTabindex() : void
}
interface "IChild" {
    +isBuilt : boolean
    +selfElement : HTMLElement
    +uniqueId : string
    +widgetId : string
    +build() : void
    +changeProperty(propertyName: string, propertyValue: unknown) : void
    +dispose() : void
    +equalsToID(id: string) : boolean
    +setBlur() : void
    +setFocus() : void
    +setTabindex() : void
    +unsetTabindex() : void
}
"IChild" <|- - "ISectionIndexItem"
class "SectionIndexItem" {
    -_eventOnBodyScroll : Generic
    -_eventOnClick : Generic
    -_eventOnkeyBoardPress : Generic
    -_headerHeight : number
    -_headerIsFixed : boolean
    -_isActive : boolean
    -_mainScrollContainerElement : HTMLElement
    -_targetElement : HTMLElement
    -_targetElementOffset : OffsetValues
    +build() : void
    +changeProperty(propertyName: string, propertyValue: unknown) : void
    +dispose() : void
    +equalsToID(patternId: string) : boolean
    +setIsActive() : void
    +unsetIsActive() : void
    #finishBuild() : void
    #notifyParent(actionType: string) : void
    #setA11YProperties() : void
    #setCallbacks() : void
    #setHtmlElements() : void
    #setParentInfo(parentSelector: string, getPatternByIdAPI: Function, canBeOrphan: boolean) : void
    #unsetCallbacks() : void
    #unsetHtmlElements() : void
    -_onBodyScroll() : void
    -_onKeyboardPressed(event: KeyboardEvent) : void
    -_onSelected(event: Event) : void
    -_removeEvents() : void
    -_setHeaderSize() : void
    -_setLinkAttribute() : void
    -_setTargetElement() : void
    -_setTargetOffsetInfo() : void
    -_setUpEvents() : void
}
"ISectionIndexItem" <|.. "SectionIndexItem"
@enduml

PlantUML version 1.2021.14(Fri Nov 12 16:46:50 UTC 2021)
(GPL source distribution)
Java Runtime: OpenJDK Runtime Environment
JVM: OpenJDK 64-Bit Server VM
Default Encoding: UTF-8
Language: en
Country: null
--></g></svg>