<?xml version="1.0" encoding="UTF-8" standalone="no"?><svg xmlns="http://www.w3.org/2000/svg" xmlns:xlink="http://www.w3.org/1999/xlink" contentScriptType="application/ecmascript" contentStyleType="text/css" height="1078px" preserveAspectRatio="none" style="width:779px;height:1078px;background:#CED4DA;" version="1.1" viewBox="0 0 779 1078" width="779px" zoomAndPan="magnify"><defs><filter height="300%" id="f1u3rfuylzudvz" width="300%" x="-1" y="-1"><feGaussianBlur result="blurOut" stdDeviation="2.0"/><feColorMatrix in="blurOut" result="blurOut2" type="matrix" values="0 0 0 0 0 0 0 0 0 0 0 0 0 0 0 0 0 0 .4 0"/><feOffset dx="4.0" dy="4.0" in="blurOut2" result="blurOut3"/><feBlend in="SourceGraphic" in2="blurOut3" mode="normal"/></filter></defs><g><!--MD5=[a7e8a8d2f0c5e8f7151c6d58329f21e4]
class ISubmenu--><rect codeLine="7" fill="#FFFFFF" filter="url(#f1u3rfuylzudvz)" height="188.8516" id="ISubmenu" style="stroke:#272B30;stroke-width:1.5;" width="425" x="304" y="217"/><ellipse cx="480.75" cy="233" fill="#B4A7E5" rx="11" ry="11" style="stroke:#272B30;stroke-width:1.0;"/><path d="M476.6719,228.7656 L476.6719,226.6094 L484.0625,226.6094 L484.0625,228.7656 L481.5938,228.7656 L481.5938,236.8438 L484.0625,236.8438 L484.0625,239 L476.6719,239 L476.6719,236.8438 L479.1406,236.8438 L479.1406,228.7656 L476.6719,228.7656 Z " fill="#000000"/><text fill="#000000" font-family="sans-serif" font-size="12" font-style="italic" lengthAdjust="spacing" textLength="63" x="501.25" y="237.1543">ISubmenu</text><line style="stroke:#272B30;stroke-width:1.5;" x1="305" x2="728" y1="249" y2="249"/><ellipse cx="315" cy="260" rx="3" ry="3" style="stroke:#038048;stroke-width:1.0;fill:none;"/><text fill="#000000" font-family="sans-serif" font-size="11" lengthAdjust="spacing" textLength="92" x="324" y="263.2104">isBuilt : boolean</text><ellipse cx="315" cy="272.8047" rx="3" ry="3" style="stroke:#038048;stroke-width:1.0;fill:none;"/><text fill="#000000" font-family="sans-serif" font-size="11" lengthAdjust="spacing" textLength="155" x="324" y="276.0151">selfElement : HTMLElement</text><ellipse cx="315" cy="285.6094" rx="3" ry="3" style="stroke:#038048;stroke-width:1.0;fill:none;"/><text fill="#000000" font-family="sans-serif" font-size="11" lengthAdjust="spacing" textLength="93" x="324" y="288.8198">uniqueId : string</text><ellipse cx="315" cy="298.4141" rx="3" ry="3" style="stroke:#038048;stroke-width:1.0;fill:none;"/><text fill="#000000" font-family="sans-serif" font-size="11" lengthAdjust="spacing" textLength="92" x="324" y="301.6245">widgetId : string</text><line style="stroke:#272B30;stroke-width:1.5;" x1="305" x2="728" y1="308.2188" y2="308.2188"/><ellipse cx="315" cy="319.2188" fill="#84BE84" rx="3" ry="3" style="stroke:#038048;stroke-width:1.0;"/><text fill="#000000" font-family="sans-serif" font-size="11" lengthAdjust="spacing" textLength="70" x="324" y="322.4292">build() : void</text><ellipse cx="315" cy="332.0234" fill="#84BE84" rx="3" ry="3" style="stroke:#038048;stroke-width:1.0;"/><text fill="#000000" font-family="sans-serif" font-size="11" lengthAdjust="spacing" textLength="399" x="324" y="335.2339">changeProperty(propertyName: string, propertyValue: unknown) : void</text><ellipse cx="315" cy="344.8281" fill="#84BE84" rx="3" ry="3" style="stroke:#038048;stroke-width:1.0;"/><text fill="#000000" font-family="sans-serif" font-size="11" lengthAdjust="spacing" textLength="73" x="324" y="348.0386">close() : void</text><ellipse cx="315" cy="357.6328" fill="#84BE84" rx="3" ry="3" style="stroke:#038048;stroke-width:1.0;"/><text fill="#000000" font-family="sans-serif" font-size="11" lengthAdjust="spacing" textLength="88" x="324" y="360.8433">dispose() : void</text><ellipse cx="315" cy="370.4375" fill="#84BE84" rx="3" ry="3" style="stroke:#038048;stroke-width:1.0;"/><text fill="#000000" font-family="sans-serif" font-size="11" lengthAdjust="spacing" textLength="179" x="324" y="373.6479">equalsToID(id: string) : boolean</text><ellipse cx="315" cy="383.2422" fill="#84BE84" rx="3" ry="3" style="stroke:#038048;stroke-width:1.0;"/><text fill="#000000" font-family="sans-serif" font-size="11" lengthAdjust="spacing" textLength="71" x="324" y="386.4526">open() : void</text><ellipse cx="315" cy="396.0469" fill="#84BE84" rx="3" ry="3" style="stroke:#038048;stroke-width:1.0;"/><text fill="#000000" font-family="sans-serif" font-size="11" lengthAdjust="spacing" textLength="138" x="324" y="399.2573">updateOnRender() : void</text><!--MD5=[3266101ea6228889a90c639b28de0501]
class IPattern--><rect codeLine="20" fill="#FFFFFF" filter="url(#f1u3rfuylzudvz)" height="150.4375" id="IPattern" style="stroke:#272B30;stroke-width:1.5;" width="425" x="7" y="7"/><ellipse cx="190.25" cy="23" fill="#B4A7E5" rx="11" ry="11" style="stroke:#272B30;stroke-width:1.0;"/><path d="M186.1719,18.7656 L186.1719,16.6094 L193.5625,16.6094 L193.5625,18.7656 L191.0938,18.7656 L191.0938,26.8438 L193.5625,26.8438 L193.5625,29 L186.1719,29 L186.1719,26.8438 L188.6406,26.8438 L188.6406,18.7656 L186.1719,18.7656 Z " fill="#000000"/><text fill="#000000" font-family="sans-serif" font-size="12" font-style="italic" lengthAdjust="spacing" textLength="50" x="210.75" y="27.1543">IPattern</text><line style="stroke:#272B30;stroke-width:1.5;" x1="8" x2="431" y1="39" y2="39"/><ellipse cx="18" cy="50" rx="3" ry="3" style="stroke:#038048;stroke-width:1.0;fill:none;"/><text fill="#000000" font-family="sans-serif" font-size="11" lengthAdjust="spacing" textLength="92" x="27" y="53.2104">isBuilt : boolean</text><ellipse cx="18" cy="62.8047" rx="3" ry="3" style="stroke:#038048;stroke-width:1.0;fill:none;"/><text fill="#000000" font-family="sans-serif" font-size="11" lengthAdjust="spacing" textLength="155" x="27" y="66.0151">selfElement : HTMLElement</text><ellipse cx="18" cy="75.6094" rx="3" ry="3" style="stroke:#038048;stroke-width:1.0;fill:none;"/><text fill="#000000" font-family="sans-serif" font-size="11" lengthAdjust="spacing" textLength="93" x="27" y="78.8198">uniqueId : string</text><ellipse cx="18" cy="88.4141" rx="3" ry="3" style="stroke:#038048;stroke-width:1.0;fill:none;"/><text fill="#000000" font-family="sans-serif" font-size="11" lengthAdjust="spacing" textLength="92" x="27" y="91.6245">widgetId : string</text><line style="stroke:#272B30;stroke-width:1.5;" x1="8" x2="431" y1="98.2188" y2="98.2188"/><ellipse cx="18" cy="109.2188" fill="#84BE84" rx="3" ry="3" style="stroke:#038048;stroke-width:1.0;"/><text fill="#000000" font-family="sans-serif" font-size="11" lengthAdjust="spacing" textLength="70" x="27" y="112.4292">build() : void</text><ellipse cx="18" cy="122.0234" fill="#84BE84" rx="3" ry="3" style="stroke:#038048;stroke-width:1.0;"/><text fill="#000000" font-family="sans-serif" font-size="11" lengthAdjust="spacing" textLength="399" x="27" y="125.2339">changeProperty(propertyName: string, propertyValue: unknown) : void</text><ellipse cx="18" cy="134.8281" fill="#84BE84" rx="3" ry="3" style="stroke:#038048;stroke-width:1.0;"/><text fill="#000000" font-family="sans-serif" font-size="11" lengthAdjust="spacing" textLength="88" x="27" y="138.0386">dispose() : void</text><ellipse cx="18" cy="147.6328" fill="#84BE84" rx="3" ry="3" style="stroke:#038048;stroke-width:1.0;"/><text fill="#000000" font-family="sans-serif" font-size="11" lengthAdjust="spacing" textLength="179" x="27" y="150.8433">equalsToID(id: string) : boolean</text><!--MD5=[10f0bc30af2cfecf3ef477b487a33739]
class IOpenable--><rect codeLine="31" fill="#FFFFFF" filter="url(#f1u3rfuylzudvz)" height="65.6094" id="IOpenable" style="stroke:#272B30;stroke-width:1.5;" width="99" x="467" y="49"/><ellipse cx="483.8" cy="65" fill="#B4A7E5" rx="11" ry="11" style="stroke:#272B30;stroke-width:1.0;"/><path d="M479.7219,60.7656 L479.7219,58.6094 L487.1125,58.6094 L487.1125,60.7656 L484.6438,60.7656 L484.6438,68.8438 L487.1125,68.8438 L487.1125,71 L479.7219,71 L479.7219,68.8438 L482.1906,68.8438 L482.1906,60.7656 L479.7219,60.7656 Z " fill="#000000"/><text fill="#000000" font-family="sans-serif" font-size="12" font-style="italic" lengthAdjust="spacing" textLength="63" x="498.2" y="69.1543">IOpenable</text><line style="stroke:#272B30;stroke-width:1.5;" x1="468" x2="565" y1="81" y2="81"/><ellipse cx="478" cy="92" fill="#84BE84" rx="3" ry="3" style="stroke:#038048;stroke-width:1.0;"/><text fill="#000000" font-family="sans-serif" font-size="11" lengthAdjust="spacing" textLength="73" x="487" y="95.2104">close() : void</text><ellipse cx="478" cy="104.8047" fill="#84BE84" rx="3" ry="3" style="stroke:#038048;stroke-width:1.0;"/><text fill="#000000" font-family="sans-serif" font-size="11" lengthAdjust="spacing" textLength="71" x="487" y="108.0151">open() : void</text><!--MD5=[a445315206821f8b9643888867512579]
class IRenderUpdate--><rect codeLine="36" fill="#FFFFFF" filter="url(#f1u3rfuylzudvz)" height="52.8047" id="IRenderUpdate" style="stroke:#272B30;stroke-width:1.5;" width="164" x="601.5" y="55.5"/><ellipse cx="633.15" cy="71.5" fill="#B4A7E5" rx="11" ry="11" style="stroke:#272B30;stroke-width:1.0;"/><path d="M629.0719,67.2656 L629.0719,65.1094 L636.4625,65.1094 L636.4625,67.2656 L633.9938,67.2656 L633.9938,75.3438 L636.4625,75.3438 L636.4625,77.5 L629.0719,77.5 L629.0719,75.3438 L631.5406,75.3438 L631.5406,67.2656 L629.0719,67.2656 Z " fill="#000000"/><text fill="#000000" font-family="sans-serif" font-size="12" font-style="italic" lengthAdjust="spacing" textLength="95" x="650.85" y="75.6543">IRenderUpdate</text><line style="stroke:#272B30;stroke-width:1.5;" x1="602.5" x2="764.5" y1="87.5" y2="87.5"/><ellipse cx="612.5" cy="98.5" fill="#84BE84" rx="3" ry="3" style="stroke:#038048;stroke-width:1.0;"/><text fill="#000000" font-family="sans-serif" font-size="11" lengthAdjust="spacing" textLength="138" x="621.5" y="101.7104">updateOnRender() : void</text><!--MD5=[e34f4f9cd3bc483ce861bdf3dd4706a6]
class Submenu--><rect codeLine="40" fill="#FFFFFF" filter="url(#f1u3rfuylzudvz)" height="598.6016" id="Submenu" style="stroke:#272B30;stroke-width:1.5;" width="425" x="304" y="466"/><ellipse cx="482.75" cy="482" fill="#ADD1B2" rx="11" ry="11" style="stroke:#272B30;stroke-width:1.0;"/><path d="M485.7188,487.6406 Q485.1406,487.9375 484.5,488.0781 Q483.8594,488.2344 483.1563,488.2344 Q480.6563,488.2344 479.3281,486.5938 Q478.0156,484.9375 478.0156,481.8125 Q478.0156,478.6875 479.3281,477.0313 Q480.6563,475.375 483.1563,475.375 Q483.8594,475.375 484.5,475.5313 Q485.1563,475.6875 485.7188,475.9844 L485.7188,478.7031 Q485.0938,478.125 484.5,477.8594 Q483.9063,477.5781 483.2813,477.5781 Q481.9375,477.5781 481.25,478.6563 Q480.5625,479.7188 480.5625,481.8125 Q480.5625,483.9063 481.25,484.9844 Q481.9375,486.0469 483.2813,486.0469 Q483.9063,486.0469 484.5,485.7813 Q485.0938,485.5 485.7188,484.9219 L485.7188,487.6406 Z " fill="#000000"/><text fill="#000000" font-family="sans-serif" font-size="12" lengthAdjust="spacing" textLength="59" x="503.25" y="486.1543">Submenu</text><line style="stroke:#272B30;stroke-width:1.5;" x1="305" x2="728" y1="498" y2="498"/><rect fill="none" height="6" style="stroke:#C82930;stroke-width:1.0;" width="6" x="312" y="506"/><text fill="#000000" font-family="sans-serif" font-size="11" lengthAdjust="spacing" textLength="176" x="324" y="512.2104">_dynamicallyOpening : boolean</text><rect fill="none" height="6" style="stroke:#C82930;stroke-width:1.0;" width="6" x="312" y="518.8047"/><text fill="#000000" font-family="sans-serif" font-size="11" lengthAdjust="spacing" textLength="119" x="324" y="525.0151">_eventClick : Generic</text><rect fill="none" height="6" style="stroke:#C82930;stroke-width:1.0;" width="6" x="312" y="531.6094"/><text fill="#000000" font-family="sans-serif" font-size="11" lengthAdjust="spacing" textLength="146" x="324" y="537.8198">_eventKeypress : Generic</text><rect fill="none" height="6" style="stroke:#C82930;stroke-width:1.0;" width="6" x="312" y="544.4141"/><text fill="#000000" font-family="sans-serif" font-size="11" lengthAdjust="spacing" textLength="176" x="324" y="550.6245">_eventOnMouseEnter : Generic</text><rect fill="none" height="6" style="stroke:#C82930;stroke-width:1.0;" width="6" x="312" y="557.2188"/><text fill="#000000" font-family="sans-serif" font-size="11" lengthAdjust="spacing" textLength="179" x="324" y="563.4292">_eventOnMouseLeave : Generic</text><rect fill="none" height="6" style="stroke:#C82930;stroke-width:1.0;" width="6" x="312" y="570.0234"/><text fill="#000000" font-family="sans-serif" font-size="11" lengthAdjust="spacing" textLength="155" x="324" y="576.2339">_globalEventBody : Generic</text><rect fill="none" height="6" style="stroke:#C82930;stroke-width:1.0;" width="6" x="312" y="582.8281"/><text fill="#000000" font-family="sans-serif" font-size="11" lengthAdjust="spacing" textLength="157" x="324" y="589.0386">_globalEventOpen : Generic</text><rect fill="none" height="6" style="stroke:#C82930;stroke-width:1.0;" width="6" x="312" y="595.6328"/><text fill="#000000" font-family="sans-serif" font-size="11" lengthAdjust="spacing" textLength="146" x="324" y="601.8433">_hasActiveLinks : boolean</text><rect fill="none" height="6" style="stroke:#C82930;stroke-width:1.0;" width="6" x="312" y="608.4375"/><text fill="#000000" font-family="sans-serif" font-size="11" lengthAdjust="spacing" textLength="137" x="324" y="614.6479">_hasElements : boolean</text><rect fill="none" height="6" style="stroke:#C82930;stroke-width:1.0;" width="6" x="312" y="621.2422"/><text fill="#000000" font-family="sans-serif" font-size="11" lengthAdjust="spacing" textLength="106" x="324" y="627.4526">_isActive : boolean</text><rect fill="none" height="6" style="stroke:#C82930;stroke-width:1.0;" width="6" x="312" y="634.0469"/><text fill="#000000" font-family="sans-serif" font-size="11" lengthAdjust="spacing" textLength="103" x="324" y="640.2573">_isOpen : boolean</text><rect fill="none" height="6" style="stroke:#C82930;stroke-width:1.0;" width="6" x="312" y="646.8516"/><text fill="#000000" font-family="sans-serif" font-size="11" lengthAdjust="spacing" textLength="255" x="324" y="653.062">_submenuActiveLinksElement : HTMLElement</text><rect fill="none" height="6" style="stroke:#C82930;stroke-width:1.0;" width="6" x="312" y="659.6563"/><text fill="#000000" font-family="sans-serif" font-size="11" lengthAdjust="spacing" textLength="282" x="324" y="665.8667">_submenuAllLinksElement : HTMLAnchorElement[]</text><rect fill="none" height="6" style="stroke:#C82930;stroke-width:1.0;" width="6" x="312" y="672.4609"/><text fill="#000000" font-family="sans-serif" font-size="11" lengthAdjust="spacing" textLength="234" x="324" y="678.6714">_submenuHeaderElement : HTMLElement</text><rect fill="none" height="6" style="stroke:#C82930;stroke-width:1.0;" width="6" x="312" y="685.2656"/><text fill="#000000" font-family="sans-serif" font-size="11" lengthAdjust="spacing" textLength="222" x="324" y="691.4761">_submenuLinksElement : HTMLElement</text><line style="stroke:#272B30;stroke-width:1.5;" x1="305" x2="728" y1="698.0703" y2="698.0703"/><ellipse cx="315" cy="709.0703" fill="#84BE84" rx="3" ry="3" style="stroke:#038048;stroke-width:1.0;"/><text fill="#000000" font-family="sans-serif" font-size="11" lengthAdjust="spacing" textLength="70" x="324" y="712.2808">build() : void</text><ellipse cx="315" cy="721.875" fill="#84BE84" rx="3" ry="3" style="stroke:#038048;stroke-width:1.0;"/><text fill="#000000" font-family="sans-serif" font-size="11" lengthAdjust="spacing" textLength="399" x="324" y="725.0854">changeProperty(propertyName: string, propertyValue: unknown) : void</text><ellipse cx="315" cy="734.6797" fill="#84BE84" rx="3" ry="3" style="stroke:#038048;stroke-width:1.0;"/><text fill="#000000" font-family="sans-serif" font-size="11" lengthAdjust="spacing" textLength="73" x="324" y="737.8901">close() : void</text><ellipse cx="315" cy="747.4844" fill="#84BE84" rx="3" ry="3" style="stroke:#038048;stroke-width:1.0;"/><text fill="#000000" font-family="sans-serif" font-size="11" lengthAdjust="spacing" textLength="88" x="324" y="750.6948">dispose() : void</text><ellipse cx="315" cy="760.2891" fill="#84BE84" rx="3" ry="3" style="stroke:#038048;stroke-width:1.0;"/><text fill="#000000" font-family="sans-serif" font-size="11" lengthAdjust="spacing" textLength="220" x="324" y="763.4995">equalsToID(patternId: string) : boolean</text><ellipse cx="315" cy="773.0938" fill="#84BE84" rx="3" ry="3" style="stroke:#038048;stroke-width:1.0;"/><text fill="#000000" font-family="sans-serif" font-size="11" lengthAdjust="spacing" textLength="71" x="324" y="776.3042">open() : void</text><ellipse cx="315" cy="785.8984" fill="#84BE84" rx="3" ry="3" style="stroke:#038048;stroke-width:1.0;"/><text fill="#000000" font-family="sans-serif" font-size="11" lengthAdjust="spacing" textLength="138" x="324" y="789.1089">updateOnRender() : void</text><polygon fill="#FFFF44" points="315,793.7031,319,797.7031,315,801.7031,311,797.7031" style="stroke:#B38D22;stroke-width:1.0;"/><text fill="#000000" font-family="sans-serif" font-size="11" lengthAdjust="spacing" textLength="102" x="324" y="801.9136">finishBuild() : void</text><polygon fill="#FFFF44" points="315,806.5078,319,810.5078,315,814.5078,311,810.5078" style="stroke:#B38D22;stroke-width:1.0;"/><text fill="#000000" font-family="sans-serif" font-size="11" lengthAdjust="spacing" textLength="148" x="324" y="814.7183">setA11YProperties() : void</text><polygon fill="#FFFF44" points="315,819.3125,319,823.3125,315,827.3125,311,823.3125" style="stroke:#B38D22;stroke-width:1.0;"/><text fill="#000000" font-family="sans-serif" font-size="11" lengthAdjust="spacing" textLength="115" x="324" y="827.5229">setCallbacks() : void</text><polygon fill="#FFFF44" points="315,832.1172,319,836.1172,315,840.1172,311,836.1172" style="stroke:#B38D22;stroke-width:1.0;"/><text fill="#000000" font-family="sans-serif" font-size="11" lengthAdjust="spacing" textLength="140" x="324" y="840.3276">setHtmlElements() : void</text><polygon fill="#FFFF44" points="315,844.9219,319,848.9219,315,852.9219,311,848.9219" style="stroke:#B38D22;stroke-width:1.0;"/><text fill="#000000" font-family="sans-serif" font-size="11" lengthAdjust="spacing" textLength="128" x="324" y="853.1323">setInitialStates() : void</text><polygon fill="#FFFF44" points="315,857.7266,319,861.7266,315,865.7266,311,861.7266" style="stroke:#B38D22;stroke-width:1.0;"/><text fill="#000000" font-family="sans-serif" font-size="11" lengthAdjust="spacing" textLength="129" x="324" y="865.937">unsetCallbacks() : void</text><polygon fill="#FFFF44" points="315,870.5313,319,874.5313,315,878.5313,311,874.5313" style="stroke:#B38D22;stroke-width:1.0;"/><text fill="#000000" font-family="sans-serif" font-size="11" lengthAdjust="spacing" textLength="154" x="324" y="878.7417">unsetHtmlElements() : void</text><rect fill="#F24D5C" height="6" style="stroke:#C82930;stroke-width:1.0;" width="6" x="312" y="885.3359"/><text fill="#000000" font-family="sans-serif" font-size="11" lengthAdjust="spacing" textLength="313" x="324" y="891.5464">_bodyClickCallback(_args: string, e: MouseEvent) : void</text><rect fill="#F24D5C" height="6" style="stroke:#C82930;stroke-width:1.0;" width="6" x="312" y="898.1406"/><text fill="#000000" font-family="sans-serif" font-size="11" lengthAdjust="spacing" textLength="161" x="324" y="904.3511">_checkForActiveLinks() : void</text><rect fill="#F24D5C" height="6" style="stroke:#C82930;stroke-width:1.0;" width="6" x="312" y="910.9453"/><text fill="#000000" font-family="sans-serif" font-size="11" lengthAdjust="spacing" textLength="203" x="324" y="917.1558">_clickCallback(e: MouseEvent) : void</text><rect fill="#F24D5C" height="6" style="stroke:#C82930;stroke-width:1.0;" width="6" x="312" y="923.75"/><text fill="#000000" font-family="sans-serif" font-size="11" lengthAdjust="spacing" textLength="247" x="324" y="929.9604">_keypressCallback(e: KeyboardEvent) : void</text><rect fill="#F24D5C" height="6" style="stroke:#C82930;stroke-width:1.0;" width="6" x="312" y="936.5547"/><text fill="#000000" font-family="sans-serif" font-size="11" lengthAdjust="spacing" textLength="260" x="324" y="942.7651">_onMouseEnterCallback(e: MouseEvent) : void</text><rect fill="#F24D5C" height="6" style="stroke:#C82930;stroke-width:1.0;" width="6" x="312" y="949.3594"/><text fill="#000000" font-family="sans-serif" font-size="11" lengthAdjust="spacing" textLength="263" x="324" y="955.5698">_onMouseLeaveCallback(e: MouseEvent) : void</text><rect fill="#F24D5C" height="6" style="stroke:#C82930;stroke-width:1.0;" width="6" x="312" y="962.1641"/><text fill="#000000" font-family="sans-serif" font-size="11" lengthAdjust="spacing" textLength="211" x="324" y="968.3745">_openCallback(element: string) : void</text><rect fill="#F24D5C" height="6" style="stroke:#C82930;stroke-width:1.0;" width="6" x="312" y="974.9688"/><text fill="#000000" font-family="sans-serif" font-size="11" lengthAdjust="spacing" textLength="125" x="324" y="981.1792">_removeActive() : void</text><rect fill="#F24D5C" height="6" style="stroke:#C82930;stroke-width:1.0;" width="6" x="312" y="987.7734"/><text fill="#000000" font-family="sans-serif" font-size="11" lengthAdjust="spacing" textLength="130" x="324" y="993.9839">_removeEvents() : void</text><rect fill="#F24D5C" height="6" style="stroke:#C82930;stroke-width:1.0;" width="6" x="312" y="1000.5781"/><text fill="#000000" font-family="sans-serif" font-size="11" lengthAdjust="spacing" textLength="100" x="324" y="1006.7886">_setActive() : void</text><rect fill="#F24D5C" height="6" style="stroke:#C82930;stroke-width:1.0;" width="6" x="312" y="1013.3828"/><text fill="#000000" font-family="sans-serif" font-size="11" lengthAdjust="spacing" textLength="146" x="324" y="1019.5933">_setOpenOnHover() : void</text><rect fill="#F24D5C" height="6" style="stroke:#C82930;stroke-width:1.0;" width="6" x="312" y="1026.1875"/><text fill="#000000" font-family="sans-serif" font-size="11" lengthAdjust="spacing" textLength="79" x="324" y="1032.3979">_show() : void</text><rect fill="#F24D5C" height="6" style="stroke:#C82930;stroke-width:1.0;" width="6" x="312" y="1038.9922"/><text fill="#000000" font-family="sans-serif" font-size="11" lengthAdjust="spacing" textLength="138" x="324" y="1045.2026">_toggleSubmenu() : void</text><rect fill="#F24D5C" height="6" style="stroke:#C82930;stroke-width:1.0;" width="6" x="312" y="1051.7969"/><text fill="#000000" font-family="sans-serif" font-size="11" lengthAdjust="spacing" textLength="174" x="324" y="1058.0073">_updateA11yProperties() : void</text><!--MD5=[aa0d663ad4243881a07090e2a1ab861b]
reverse link IPattern to ISubmenu--><path codeLine="30" d="M332.35,169.44 C352.6,184.96 373.8,201.19 394.3,216.9 " fill="none" id="IPattern-backto-ISubmenu" style="stroke:#272B30;stroke-width:1.0;"/><polygon fill="none" points="327.96,174.9,316.34,157.18,336.47,163.78,327.96,174.9" style="stroke:#272B30;stroke-width:1.0;"/><!--MD5=[f7ffe194f737e432b7f44ab3d9977473]
reverse link IOpenable to ISubmenu--><path codeLine="35" d="M516.5,135.25 C516.5,159.47 516.5,189 516.5,216.87 " fill="none" id="IOpenable-backto-ISubmenu" style="stroke:#272B30;stroke-width:1.0;"/><polygon fill="none" points="509.5,135.11,516.5,115.11,523.5,135.11,509.5,135.11" style="stroke:#272B30;stroke-width:1.0;"/><!--MD5=[40fa41c1ba1a09af4d2c4efe84b031a2]
reverse link IRenderUpdate to ISubmenu--><path codeLine="39" d="M652.64,125.04 C633.72,150.81 608.72,184.87 585.31,216.76 " fill="none" id="IRenderUpdate-backto-ISubmenu" style="stroke:#272B30;stroke-width:1.0;"/><polygon fill="none" points="647.19,120.64,664.67,108.65,658.48,128.92,647.19,120.64" style="stroke:#272B30;stroke-width:1.0;"/><!--MD5=[62821044dda963a7e894af59c5ec6231]
reverse link ISubmenu to Submenu--><path codeLine="85" d="M516.5,426.61 C516.5,439.13 516.5,452.26 516.5,465.78 " fill="none" id="ISubmenu-backto-Submenu" style="stroke:#272B30;stroke-width:1.0;stroke-dasharray:7.0,7.0;"/><polygon fill="none" points="509.5,426.15,516.5,406.15,523.5,426.15,509.5,426.15" style="stroke:#272B30;stroke-width:1.0;"/><!--MD5=[48035f57e7cf905681cea93881150220]
@startuml
skinparam ClassArrowColor #272b30
skinparam ClassBorderColor #272b30
skinparam ClassBackgroundColor #fff
skinparam BackgroundColor #ced4da
hide empty methods
hide empty fields
interface "ISubmenu" {
    +isBuilt : boolean
    +selfElement : HTMLElement
    +uniqueId : string
    +widgetId : string
    +build() : void
    +changeProperty(propertyName: string, propertyValue: unknown) : void
    +close() : void
    +dispose() : void
    +equalsToID(id: string) : boolean
    +open() : void
    +updateOnRender() : void
}
interface "IPattern" {
    +isBuilt : boolean
    +selfElement : HTMLElement
    +uniqueId : string
    +widgetId : string
    +build() : void
    +changeProperty(propertyName: string, propertyValue: unknown) : void
    +dispose() : void
    +equalsToID(id: string) : boolean
}
"IPattern" <|- - "ISubmenu"
interface "IOpenable" {
    +close() : void
    +open() : void
}
"IOpenable" <|- - "ISubmenu"
interface "IRenderUpdate" {
    +updateOnRender() : void
}
"IRenderUpdate" <|- - "ISubmenu"
class "Submenu" {
    -_dynamicallyOpening : boolean
    -_eventClick : Generic
    -_eventKeypress : Generic
    -_eventOnMouseEnter : Generic
    -_eventOnMouseLeave : Generic
    -_globalEventBody : Generic
    -_globalEventOpen : Generic
    -_hasActiveLinks : boolean
    -_hasElements : boolean
    -_isActive : boolean
    -_isOpen : boolean
    -_submenuActiveLinksElement : HTMLElement
    -_submenuAllLinksElement : HTMLAnchorElement[]
    -_submenuHeaderElement : HTMLElement
    -_submenuLinksElement : HTMLElement
    +build() : void
    +changeProperty(propertyName: string, propertyValue: unknown) : void
    +close() : void
    +dispose() : void
    +equalsToID(patternId: string) : boolean
    +open() : void
    +updateOnRender() : void
    #finishBuild() : void
    #setA11YProperties() : void
    #setCallbacks() : void
    #setHtmlElements() : void
    #setInitialStates() : void
    #unsetCallbacks() : void
    #unsetHtmlElements() : void
    -_bodyClickCallback(_args: string, e: MouseEvent) : void
    -_checkForActiveLinks() : void
    -_clickCallback(e: MouseEvent) : void
    -_keypressCallback(e: KeyboardEvent) : void
    -_onMouseEnterCallback(e: MouseEvent) : void
    -_onMouseLeaveCallback(e: MouseEvent) : void
    -_openCallback(element: string) : void
    -_removeActive() : void
    -_removeEvents() : void
    -_setActive() : void
    -_setOpenOnHover() : void
    -_show() : void
    -_toggleSubmenu() : void
    -_updateA11yProperties() : void
}
"ISubmenu" <|.. "Submenu"
@enduml

PlantUML version 1.2021.14(Fri Nov 12 16:46:50 UTC 2021)
(GPL source distribution)
Java Runtime: OpenJDK Runtime Environment
JVM: OpenJDK 64-Bit Server VM
Default Encoding: UTF-8
Language: en
Country: null
--></g></svg>