<?xml version="1.0" encoding="UTF-8" standalone="no"?><svg xmlns="http://www.w3.org/2000/svg" xmlns:xlink="http://www.w3.org/1999/xlink" contentScriptType="application/ecmascript" contentStyleType="text/css" height="1103px" preserveAspectRatio="none" style="width:1202px;height:1103px;background:#CED4DA;" version="1.1" viewBox="0 0 1202 1103" width="1202px" zoomAndPan="magnify"><defs><filter height="300%" id="fmx1kak9v2jv1" width="300%" x="-1" y="-1"><feGaussianBlur result="blurOut" stdDeviation="2.0"/><feColorMatrix in="blurOut" result="blurOut2" type="matrix" values="0 0 0 0 0 0 0 0 0 0 0 0 0 0 0 0 0 0 .4 0"/><feOffset dx="4.0" dy="4.0" in="blurOut2" result="blurOut3"/><feBlend in="SourceGraphic" in2="blurOut3" mode="normal"/></filter></defs><g><!--MD5=[a7e8a8d2f0c5e8f7151c6d58329f21e4]
class ISubmenu--><rect codeLine="7" fill="#FFFFFF" filter="url(#fmx1kak9v2jv1)" height="214.4609" id="ISubmenu" style="stroke:#272B30;stroke-width:1.5;" width="425" x="387" y="217"/><ellipse cx="563.75" cy="233" fill="#B4A7E5" rx="11" ry="11" style="stroke:#272B30;stroke-width:1.0;"/><path d="M559.6719,228.7656 L559.6719,226.6094 L567.0625,226.6094 L567.0625,228.7656 L564.5938,228.7656 L564.5938,236.8438 L567.0625,236.8438 L567.0625,239 L559.6719,239 L559.6719,236.8438 L562.1406,236.8438 L562.1406,228.7656 L559.6719,228.7656 Z " fill="#000000"/><text fill="#000000" font-family="sans-serif" font-size="12" font-style="italic" lengthAdjust="spacing" textLength="63" x="584.25" y="237.1543">ISubmenu</text><line style="stroke:#272B30;stroke-width:1.5;" x1="388" x2="811" y1="249" y2="249"/><ellipse cx="398" cy="260" rx="3" ry="3" style="stroke:#038048;stroke-width:1.0;fill:none;"/><text fill="#000000" font-family="sans-serif" font-size="11" lengthAdjust="spacing" textLength="92" x="407" y="263.2104">isBuilt : boolean</text><ellipse cx="398" cy="272.8047" rx="3" ry="3" style="stroke:#038048;stroke-width:1.0;fill:none;"/><text fill="#000000" font-family="sans-serif" font-size="11" lengthAdjust="spacing" textLength="155" x="407" y="276.0151">selfElement : HTMLElement</text><ellipse cx="398" cy="285.6094" rx="3" ry="3" style="stroke:#038048;stroke-width:1.0;fill:none;"/><text fill="#000000" font-family="sans-serif" font-size="11" lengthAdjust="spacing" textLength="93" x="407" y="288.8198">uniqueId : string</text><ellipse cx="398" cy="298.4141" rx="3" ry="3" style="stroke:#038048;stroke-width:1.0;fill:none;"/><text fill="#000000" font-family="sans-serif" font-size="11" lengthAdjust="spacing" textLength="92" x="407" y="301.6245">widgetId : string</text><line style="stroke:#272B30;stroke-width:1.5;" x1="388" x2="811" y1="308.2188" y2="308.2188"/><ellipse cx="398" cy="319.2188" fill="#84BE84" rx="3" ry="3" style="stroke:#038048;stroke-width:1.0;"/><text fill="#000000" font-family="sans-serif" font-size="11" lengthAdjust="spacing" textLength="70" x="407" y="322.4292">build() : void</text><ellipse cx="398" cy="332.0234" fill="#84BE84" rx="3" ry="3" style="stroke:#038048;stroke-width:1.0;"/><text fill="#000000" font-family="sans-serif" font-size="11" lengthAdjust="spacing" textLength="399" x="407" y="335.2339">changeProperty(propertyName: string, propertyValue: unknown) : void</text><ellipse cx="398" cy="344.8281" fill="#84BE84" rx="3" ry="3" style="stroke:#038048;stroke-width:1.0;"/><text fill="#000000" font-family="sans-serif" font-size="11" lengthAdjust="spacing" textLength="73" x="407" y="348.0386">close() : void</text><ellipse cx="398" cy="357.6328" fill="#84BE84" rx="3" ry="3" style="stroke:#038048;stroke-width:1.0;"/><text fill="#000000" font-family="sans-serif" font-size="11" lengthAdjust="spacing" textLength="88" x="407" y="360.8433">dispose() : void</text><ellipse cx="398" cy="370.4375" fill="#84BE84" rx="3" ry="3" style="stroke:#038048;stroke-width:1.0;"/><text fill="#000000" font-family="sans-serif" font-size="11" lengthAdjust="spacing" textLength="179" x="407" y="373.6479">equalsToID(id: string) : boolean</text><ellipse cx="398" cy="383.2422" fill="#84BE84" rx="3" ry="3" style="stroke:#038048;stroke-width:1.0;"/><text fill="#000000" font-family="sans-serif" font-size="11" lengthAdjust="spacing" textLength="71" x="407" y="386.4526">open() : void</text><ellipse cx="398" cy="396.0469" fill="#84BE84" rx="3" ry="3" style="stroke:#038048;stroke-width:1.0;"/><text fill="#000000" font-family="sans-serif" font-size="11" lengthAdjust="spacing" textLength="362" x="407" y="399.2573">registerCallback(callback: OSGeneric, eventName: string) : void</text><ellipse cx="398" cy="408.8516" fill="#84BE84" rx="3" ry="3" style="stroke:#038048;stroke-width:1.0;"/><text fill="#000000" font-family="sans-serif" font-size="11" lengthAdjust="spacing" textLength="140" x="407" y="412.062">setOpenOnHover() : void</text><ellipse cx="398" cy="421.6563" fill="#84BE84" rx="3" ry="3" style="stroke:#038048;stroke-width:1.0;"/><text fill="#000000" font-family="sans-serif" font-size="11" lengthAdjust="spacing" textLength="138" x="407" y="424.8667">updateOnRender() : void</text><!--MD5=[3266101ea6228889a90c639b28de0501]
class IPattern--><rect codeLine="22" fill="#FFFFFF" filter="url(#fmx1kak9v2jv1)" height="150.4375" id="IPattern" style="stroke:#272B30;stroke-width:1.5;" width="425" x="7" y="7"/><ellipse cx="190.25" cy="23" fill="#B4A7E5" rx="11" ry="11" style="stroke:#272B30;stroke-width:1.0;"/><path d="M186.1719,18.7656 L186.1719,16.6094 L193.5625,16.6094 L193.5625,18.7656 L191.0938,18.7656 L191.0938,26.8438 L193.5625,26.8438 L193.5625,29 L186.1719,29 L186.1719,26.8438 L188.6406,26.8438 L188.6406,18.7656 L186.1719,18.7656 Z " fill="#000000"/><text fill="#000000" font-family="sans-serif" font-size="12" font-style="italic" lengthAdjust="spacing" textLength="50" x="210.75" y="27.1543">IPattern</text><line style="stroke:#272B30;stroke-width:1.5;" x1="8" x2="431" y1="39" y2="39"/><ellipse cx="18" cy="50" rx="3" ry="3" style="stroke:#038048;stroke-width:1.0;fill:none;"/><text fill="#000000" font-family="sans-serif" font-size="11" lengthAdjust="spacing" textLength="92" x="27" y="53.2104">isBuilt : boolean</text><ellipse cx="18" cy="62.8047" rx="3" ry="3" style="stroke:#038048;stroke-width:1.0;fill:none;"/><text fill="#000000" font-family="sans-serif" font-size="11" lengthAdjust="spacing" textLength="155" x="27" y="66.0151">selfElement : HTMLElement</text><ellipse cx="18" cy="75.6094" rx="3" ry="3" style="stroke:#038048;stroke-width:1.0;fill:none;"/><text fill="#000000" font-family="sans-serif" font-size="11" lengthAdjust="spacing" textLength="93" x="27" y="78.8198">uniqueId : string</text><ellipse cx="18" cy="88.4141" rx="3" ry="3" style="stroke:#038048;stroke-width:1.0;fill:none;"/><text fill="#000000" font-family="sans-serif" font-size="11" lengthAdjust="spacing" textLength="92" x="27" y="91.6245">widgetId : string</text><line style="stroke:#272B30;stroke-width:1.5;" x1="8" x2="431" y1="98.2188" y2="98.2188"/><ellipse cx="18" cy="109.2188" fill="#84BE84" rx="3" ry="3" style="stroke:#038048;stroke-width:1.0;"/><text fill="#000000" font-family="sans-serif" font-size="11" lengthAdjust="spacing" textLength="70" x="27" y="112.4292">build() : void</text><ellipse cx="18" cy="122.0234" fill="#84BE84" rx="3" ry="3" style="stroke:#038048;stroke-width:1.0;"/><text fill="#000000" font-family="sans-serif" font-size="11" lengthAdjust="spacing" textLength="399" x="27" y="125.2339">changeProperty(propertyName: string, propertyValue: unknown) : void</text><ellipse cx="18" cy="134.8281" fill="#84BE84" rx="3" ry="3" style="stroke:#038048;stroke-width:1.0;"/><text fill="#000000" font-family="sans-serif" font-size="11" lengthAdjust="spacing" textLength="88" x="27" y="138.0386">dispose() : void</text><ellipse cx="18" cy="147.6328" fill="#84BE84" rx="3" ry="3" style="stroke:#038048;stroke-width:1.0;"/><text fill="#000000" font-family="sans-serif" font-size="11" lengthAdjust="spacing" textLength="179" x="27" y="150.8433">equalsToID(id: string) : boolean</text><!--MD5=[10f0bc30af2cfecf3ef477b487a33739]
class IOpenable--><rect codeLine="33" fill="#FFFFFF" filter="url(#fmx1kak9v2jv1)" height="65.6094" id="IOpenable" style="stroke:#272B30;stroke-width:1.5;" width="99" x="467" y="49"/><ellipse cx="483.8" cy="65" fill="#B4A7E5" rx="11" ry="11" style="stroke:#272B30;stroke-width:1.0;"/><path d="M479.7219,60.7656 L479.7219,58.6094 L487.1125,58.6094 L487.1125,60.7656 L484.6438,60.7656 L484.6438,68.8438 L487.1125,68.8438 L487.1125,71 L479.7219,71 L479.7219,68.8438 L482.1906,68.8438 L482.1906,60.7656 L479.7219,60.7656 Z " fill="#000000"/><text fill="#000000" font-family="sans-serif" font-size="12" font-style="italic" lengthAdjust="spacing" textLength="63" x="498.2" y="69.1543">IOpenable</text><line style="stroke:#272B30;stroke-width:1.5;" x1="468" x2="565" y1="81" y2="81"/><ellipse cx="478" cy="92" fill="#84BE84" rx="3" ry="3" style="stroke:#038048;stroke-width:1.0;"/><text fill="#000000" font-family="sans-serif" font-size="11" lengthAdjust="spacing" textLength="73" x="487" y="95.2104">close() : void</text><ellipse cx="478" cy="104.8047" fill="#84BE84" rx="3" ry="3" style="stroke:#038048;stroke-width:1.0;"/><text fill="#000000" font-family="sans-serif" font-size="11" lengthAdjust="spacing" textLength="71" x="487" y="108.0151">open() : void</text><!--MD5=[a445315206821f8b9643888867512579]
class IRenderUpdate--><rect codeLine="38" fill="#FFFFFF" filter="url(#fmx1kak9v2jv1)" height="52.8047" id="IRenderUpdate" style="stroke:#272B30;stroke-width:1.5;" width="164" x="601.5" y="55.5"/><ellipse cx="633.15" cy="71.5" fill="#B4A7E5" rx="11" ry="11" style="stroke:#272B30;stroke-width:1.0;"/><path d="M629.0719,67.2656 L629.0719,65.1094 L636.4625,65.1094 L636.4625,67.2656 L633.9938,67.2656 L633.9938,75.3438 L636.4625,75.3438 L636.4625,77.5 L629.0719,77.5 L629.0719,75.3438 L631.5406,75.3438 L631.5406,67.2656 L629.0719,67.2656 Z " fill="#000000"/><text fill="#000000" font-family="sans-serif" font-size="12" font-style="italic" lengthAdjust="spacing" textLength="95" x="650.85" y="75.6543">IRenderUpdate</text><line style="stroke:#272B30;stroke-width:1.5;" x1="602.5" x2="764.5" y1="87.5" y2="87.5"/><ellipse cx="612.5" cy="98.5" fill="#84BE84" rx="3" ry="3" style="stroke:#038048;stroke-width:1.0;"/><text fill="#000000" font-family="sans-serif" font-size="11" lengthAdjust="spacing" textLength="138" x="621.5" y="101.7104">updateOnRender() : void</text><!--MD5=[5ee2cdc9c4d5751c0281d37de494dd68]
class ICallback--><rect codeLine="42" fill="#FFFFFF" filter="url(#fmx1kak9v2jv1)" height="52.8047" id="ICallback" style="stroke:#272B30;stroke-width:1.5;" width="388" x="800.5" y="55.5"/><ellipse cx="962.25" cy="71.5" fill="#B4A7E5" rx="11" ry="11" style="stroke:#272B30;stroke-width:1.0;"/><path d="M958.1719,67.2656 L958.1719,65.1094 L965.5625,65.1094 L965.5625,67.2656 L963.0938,67.2656 L963.0938,75.3438 L965.5625,75.3438 L965.5625,77.5 L958.1719,77.5 L958.1719,75.3438 L960.6406,75.3438 L960.6406,67.2656 L958.1719,67.2656 Z " fill="#000000"/><text fill="#000000" font-family="sans-serif" font-size="12" font-style="italic" lengthAdjust="spacing" textLength="56" x="982.75" y="75.6543">ICallback</text><line style="stroke:#272B30;stroke-width:1.5;" x1="801.5" x2="1187.5" y1="87.5" y2="87.5"/><ellipse cx="811.5" cy="98.5" fill="#84BE84" rx="3" ry="3" style="stroke:#038048;stroke-width:1.0;"/><text fill="#000000" font-family="sans-serif" font-size="11" lengthAdjust="spacing" textLength="362" x="820.5" y="101.7104">registerCallback(callback: OSGeneric, eventName: string) : void</text><!--MD5=[e34f4f9cd3bc483ce861bdf3dd4706a6]
class Submenu--><rect codeLine="46" fill="#FFFFFF" filter="url(#fmx1kak9v2jv1)" height="598.6016" id="Submenu" style="stroke:#272B30;stroke-width:1.5;" width="425" x="387" y="491"/><ellipse cx="565.75" cy="507" fill="#ADD1B2" rx="11" ry="11" style="stroke:#272B30;stroke-width:1.0;"/><path d="M568.7188,512.6406 Q568.1406,512.9375 567.5,513.0781 Q566.8594,513.2344 566.1563,513.2344 Q563.6563,513.2344 562.3281,511.5938 Q561.0156,509.9375 561.0156,506.8125 Q561.0156,503.6875 562.3281,502.0313 Q563.6563,500.375 566.1563,500.375 Q566.8594,500.375 567.5,500.5313 Q568.1563,500.6875 568.7188,500.9844 L568.7188,503.7031 Q568.0938,503.125 567.5,502.8594 Q566.9063,502.5781 566.2813,502.5781 Q564.9375,502.5781 564.25,503.6563 Q563.5625,504.7188 563.5625,506.8125 Q563.5625,508.9063 564.25,509.9844 Q564.9375,511.0469 566.2813,511.0469 Q566.9063,511.0469 567.5,510.7813 Q568.0938,510.5 568.7188,509.9219 L568.7188,512.6406 Z " fill="#000000"/><text fill="#000000" font-family="sans-serif" font-size="12" lengthAdjust="spacing" textLength="59" x="586.25" y="511.1543">Submenu</text><line style="stroke:#272B30;stroke-width:1.5;" x1="388" x2="811" y1="523" y2="523"/><rect fill="none" height="6" style="stroke:#C82930;stroke-width:1.0;" width="6" x="395" y="531"/><text fill="#000000" font-family="sans-serif" font-size="11" lengthAdjust="spacing" textLength="119" x="407" y="537.2104">_eventClick : Generic</text><rect fill="none" height="6" style="stroke:#C82930;stroke-width:1.0;" width="6" x="395" y="543.8047"/><text fill="#000000" font-family="sans-serif" font-size="11" lengthAdjust="spacing" textLength="146" x="407" y="550.0151">_eventKeypress : Generic</text><rect fill="none" height="6" style="stroke:#C82930;stroke-width:1.0;" width="6" x="395" y="556.6094"/><text fill="#000000" font-family="sans-serif" font-size="11" lengthAdjust="spacing" textLength="176" x="407" y="562.8198">_eventOnMouseEnter : Generic</text><rect fill="none" height="6" style="stroke:#C82930;stroke-width:1.0;" width="6" x="395" y="569.4141"/><text fill="#000000" font-family="sans-serif" font-size="11" lengthAdjust="spacing" textLength="179" x="407" y="575.6245">_eventOnMouseLeave : Generic</text><rect fill="none" height="6" style="stroke:#C82930;stroke-width:1.0;" width="6" x="395" y="582.2188"/><text fill="#000000" font-family="sans-serif" font-size="11" lengthAdjust="spacing" textLength="155" x="407" y="588.4292">_globalEventBody : Generic</text><rect fill="none" height="6" style="stroke:#C82930;stroke-width:1.0;" width="6" x="395" y="595.0234"/><text fill="#000000" font-family="sans-serif" font-size="11" lengthAdjust="spacing" textLength="146" x="407" y="601.2339">_hasActiveLinks : boolean</text><rect fill="none" height="6" style="stroke:#C82930;stroke-width:1.0;" width="6" x="395" y="607.8281"/><text fill="#000000" font-family="sans-serif" font-size="11" lengthAdjust="spacing" textLength="137" x="407" y="614.0386">_hasElements : boolean</text><rect fill="none" height="6" style="stroke:#C82930;stroke-width:1.0;" width="6" x="395" y="620.6328"/><text fill="#000000" font-family="sans-serif" font-size="11" lengthAdjust="spacing" textLength="106" x="407" y="626.8433">_isActive : boolean</text><rect fill="none" height="6" style="stroke:#C82930;stroke-width:1.0;" width="6" x="395" y="633.4375"/><text fill="#000000" font-family="sans-serif" font-size="11" lengthAdjust="spacing" textLength="103" x="407" y="639.6479">_isOpen : boolean</text><rect fill="none" height="6" style="stroke:#C82930;stroke-width:1.0;" width="6" x="395" y="646.2422"/><text fill="#000000" font-family="sans-serif" font-size="11" lengthAdjust="spacing" textLength="257" x="407" y="652.4526">_platformEventInitializedCallback : OSGeneric</text><rect fill="none" height="6" style="stroke:#C82930;stroke-width:1.0;" width="6" x="395" y="659.0469"/><text fill="#000000" font-family="sans-serif" font-size="11" lengthAdjust="spacing" textLength="259" x="407" y="665.2573">_platformEventOnToggleCallback : OSGeneric</text><rect fill="none" height="6" style="stroke:#C82930;stroke-width:1.0;" width="6" x="395" y="671.8516"/><text fill="#000000" font-family="sans-serif" font-size="11" lengthAdjust="spacing" textLength="255" x="407" y="678.062">_submenuActiveLinksElement : HTMLElement</text><rect fill="none" height="6" style="stroke:#C82930;stroke-width:1.0;" width="6" x="395" y="684.6563"/><text fill="#000000" font-family="sans-serif" font-size="11" lengthAdjust="spacing" textLength="282" x="407" y="690.8667">_submenuAllLinksElement : HTMLAnchorElement[]</text><rect fill="none" height="6" style="stroke:#C82930;stroke-width:1.0;" width="6" x="395" y="697.4609"/><text fill="#000000" font-family="sans-serif" font-size="11" lengthAdjust="spacing" textLength="234" x="407" y="703.6714">_submenuHeaderElement : HTMLElement</text><rect fill="none" height="6" style="stroke:#C82930;stroke-width:1.0;" width="6" x="395" y="710.2656"/><text fill="#000000" font-family="sans-serif" font-size="11" lengthAdjust="spacing" textLength="222" x="407" y="716.4761">_submenuLinksElement : HTMLElement</text><line style="stroke:#272B30;stroke-width:1.5;" x1="388" x2="811" y1="723.0703" y2="723.0703"/><ellipse cx="398" cy="734.0703" fill="#84BE84" rx="3" ry="3" style="stroke:#038048;stroke-width:1.0;"/><text fill="#000000" font-family="sans-serif" font-size="11" lengthAdjust="spacing" textLength="70" x="407" y="737.2808">build() : void</text><ellipse cx="398" cy="746.875" fill="#84BE84" rx="3" ry="3" style="stroke:#038048;stroke-width:1.0;"/><text fill="#000000" font-family="sans-serif" font-size="11" lengthAdjust="spacing" textLength="399" x="407" y="750.0854">changeProperty(propertyName: string, propertyValue: unknown) : void</text><ellipse cx="398" cy="759.6797" fill="#84BE84" rx="3" ry="3" style="stroke:#038048;stroke-width:1.0;"/><text fill="#000000" font-family="sans-serif" font-size="11" lengthAdjust="spacing" textLength="73" x="407" y="762.8901">close() : void</text><ellipse cx="398" cy="772.4844" fill="#84BE84" rx="3" ry="3" style="stroke:#038048;stroke-width:1.0;"/><text fill="#000000" font-family="sans-serif" font-size="11" lengthAdjust="spacing" textLength="88" x="407" y="775.6948">dispose() : void</text><ellipse cx="398" cy="785.2891" fill="#84BE84" rx="3" ry="3" style="stroke:#038048;stroke-width:1.0;"/><text fill="#000000" font-family="sans-serif" font-size="11" lengthAdjust="spacing" textLength="220" x="407" y="788.4995">equalsToID(patternId: string) : boolean</text><ellipse cx="398" cy="798.0938" fill="#84BE84" rx="3" ry="3" style="stroke:#038048;stroke-width:1.0;"/><text fill="#000000" font-family="sans-serif" font-size="11" lengthAdjust="spacing" textLength="71" x="407" y="801.3042">open() : void</text><ellipse cx="398" cy="810.8984" fill="#84BE84" rx="3" ry="3" style="stroke:#038048;stroke-width:1.0;"/><text fill="#000000" font-family="sans-serif" font-size="11" lengthAdjust="spacing" textLength="362" x="407" y="814.1089">registerCallback(callback: OSGeneric, eventName: string) : void</text><ellipse cx="398" cy="823.7031" fill="#84BE84" rx="3" ry="3" style="stroke:#038048;stroke-width:1.0;"/><text fill="#000000" font-family="sans-serif" font-size="11" lengthAdjust="spacing" textLength="140" x="407" y="826.9136">setOpenOnHover() : void</text><ellipse cx="398" cy="836.5078" fill="#84BE84" rx="3" ry="3" style="stroke:#038048;stroke-width:1.0;"/><text fill="#000000" font-family="sans-serif" font-size="11" lengthAdjust="spacing" textLength="138" x="407" y="839.7183">updateOnRender() : void</text><polygon fill="#FFFF44" points="398,844.3125,402,848.3125,398,852.3125,394,848.3125" style="stroke:#B38D22;stroke-width:1.0;"/><text fill="#000000" font-family="sans-serif" font-size="11" lengthAdjust="spacing" textLength="102" x="407" y="852.5229">finishBuild() : void</text><polygon fill="#FFFF44" points="398,857.1172,402,861.1172,398,865.1172,394,861.1172" style="stroke:#B38D22;stroke-width:1.0;"/><text fill="#000000" font-family="sans-serif" font-size="11" lengthAdjust="spacing" textLength="148" x="407" y="865.3276">setA11YProperties() : void</text><polygon fill="#FFFF44" points="398,869.9219,402,873.9219,398,877.9219,394,873.9219" style="stroke:#B38D22;stroke-width:1.0;"/><text fill="#000000" font-family="sans-serif" font-size="11" lengthAdjust="spacing" textLength="115" x="407" y="878.1323">setCallbacks() : void</text><polygon fill="#FFFF44" points="398,882.7266,402,886.7266,398,890.7266,394,886.7266" style="stroke:#B38D22;stroke-width:1.0;"/><text fill="#000000" font-family="sans-serif" font-size="11" lengthAdjust="spacing" textLength="140" x="407" y="890.937">setHtmlElements() : void</text><polygon fill="#FFFF44" points="398,895.5313,402,899.5313,398,903.5313,394,899.5313" style="stroke:#B38D22;stroke-width:1.0;"/><text fill="#000000" font-family="sans-serif" font-size="11" lengthAdjust="spacing" textLength="128" x="407" y="903.7417">setInitialStates() : void</text><polygon fill="#FFFF44" points="398,908.3359,402,912.3359,398,916.3359,394,912.3359" style="stroke:#B38D22;stroke-width:1.0;"/><text fill="#000000" font-family="sans-serif" font-size="11" lengthAdjust="spacing" textLength="129" x="407" y="916.5464">unsetCallbacks() : void</text><polygon fill="#FFFF44" points="398,921.1406,402,925.1406,398,929.1406,394,925.1406" style="stroke:#B38D22;stroke-width:1.0;"/><text fill="#000000" font-family="sans-serif" font-size="11" lengthAdjust="spacing" textLength="154" x="407" y="929.3511">unsetHtmlElements() : void</text><rect fill="#F24D5C" height="6" style="stroke:#C82930;stroke-width:1.0;" width="6" x="395" y="935.9453"/><text fill="#000000" font-family="sans-serif" font-size="11" lengthAdjust="spacing" textLength="313" x="407" y="942.1558">_bodyClickCallback(_args: string, e: MouseEvent) : void</text><rect fill="#F24D5C" height="6" style="stroke:#C82930;stroke-width:1.0;" width="6" x="395" y="948.75"/><text fill="#000000" font-family="sans-serif" font-size="11" lengthAdjust="spacing" textLength="161" x="407" y="954.9604">_checkForActiveLinks() : void</text><rect fill="#F24D5C" height="6" style="stroke:#C82930;stroke-width:1.0;" width="6" x="395" y="961.5547"/><text fill="#000000" font-family="sans-serif" font-size="11" lengthAdjust="spacing" textLength="120" x="407" y="967.7651">_clickCallback() : void</text><rect fill="#F24D5C" height="6" style="stroke:#C82930;stroke-width:1.0;" width="6" x="395" y="974.3594"/><text fill="#000000" font-family="sans-serif" font-size="11" lengthAdjust="spacing" textLength="247" x="407" y="980.5698">_keypressCallback(e: KeyboardEvent) : void</text><rect fill="#F24D5C" height="6" style="stroke:#C82930;stroke-width:1.0;" width="6" x="395" y="987.1641"/><text fill="#000000" font-family="sans-serif" font-size="11" lengthAdjust="spacing" textLength="260" x="407" y="993.3745">_onMouseEnterCallback(e: MouseEvent) : void</text><rect fill="#F24D5C" height="6" style="stroke:#C82930;stroke-width:1.0;" width="6" x="395" y="999.9688"/><text fill="#000000" font-family="sans-serif" font-size="11" lengthAdjust="spacing" textLength="263" x="407" y="1006.1792">_onMouseLeaveCallback(e: MouseEvent) : void</text><rect fill="#F24D5C" height="6" style="stroke:#C82930;stroke-width:1.0;" width="6" x="395" y="1012.7734"/><text fill="#000000" font-family="sans-serif" font-size="11" lengthAdjust="spacing" textLength="125" x="407" y="1018.9839">_removeActive() : void</text><rect fill="#F24D5C" height="6" style="stroke:#C82930;stroke-width:1.0;" width="6" x="395" y="1025.5781"/><text fill="#000000" font-family="sans-serif" font-size="11" lengthAdjust="spacing" textLength="130" x="407" y="1031.7886">_removeEvents() : void</text><rect fill="#F24D5C" height="6" style="stroke:#C82930;stroke-width:1.0;" width="6" x="395" y="1038.3828"/><text fill="#000000" font-family="sans-serif" font-size="11" lengthAdjust="spacing" textLength="100" x="407" y="1044.5933">_setActive() : void</text><rect fill="#F24D5C" height="6" style="stroke:#C82930;stroke-width:1.0;" width="6" x="395" y="1051.1875"/><text fill="#000000" font-family="sans-serif" font-size="11" lengthAdjust="spacing" textLength="79" x="407" y="1057.3979">_show() : void</text><rect fill="#F24D5C" height="6" style="stroke:#C82930;stroke-width:1.0;" width="6" x="395" y="1063.9922"/><text fill="#000000" font-family="sans-serif" font-size="11" lengthAdjust="spacing" textLength="138" x="407" y="1070.2026">_toggleSubmenu() : void</text><rect fill="#F24D5C" height="6" style="stroke:#C82930;stroke-width:1.0;" width="6" x="395" y="1076.7969"/><text fill="#000000" font-family="sans-serif" font-size="11" lengthAdjust="spacing" textLength="174" x="407" y="1083.0073">_updateA11yProperties() : void</text><!--MD5=[aa0d663ad4243881a07090e2a1ab861b]
reverse link IPattern to ISubmenu--><path codeLine="32" d="M354.01,167.95 C379.13,183.82 405.66,200.58 431.64,216.98 " fill="none" id="IPattern-backto-ISubmenu" style="stroke:#272B30;stroke-width:1.0;"/><polygon fill="none" points="350.04,173.73,336.87,157.13,357.52,161.89,350.04,173.73" style="stroke:#272B30;stroke-width:1.0;"/><!--MD5=[f7ffe194f737e432b7f44ab3d9977473]
reverse link IOpenable to ISubmenu--><path codeLine="37" d="M534.33,134.56 C542.67,158.66 552.91,188.29 562.79,216.86 " fill="none" id="IOpenable-backto-ISubmenu" style="stroke:#272B30;stroke-width:1.0;"/><polygon fill="none" points="527.62,136.56,527.69,115.37,540.85,131.98,527.62,136.56" style="stroke:#272B30;stroke-width:1.0;"/><!--MD5=[40fa41c1ba1a09af4d2c4efe84b031a2]
reverse link IRenderUpdate to ISubmenu--><path codeLine="41" d="M667.79,127.9 C658.98,153.06 647.6,185.59 636.66,216.84 " fill="none" id="IRenderUpdate-backto-ISubmenu" style="stroke:#272B30;stroke-width:1.0;"/><polygon fill="none" points="661.3,125.25,674.51,108.68,674.51,129.87,661.3,125.25" style="stroke:#272B30;stroke-width:1.0;"/><!--MD5=[f79faca8f1c7994b4b040e6d4017ace0]
reverse link ICallback to ISubmenu--><path codeLine="45" d="M934.97,119.17 C892.07,145.23 831.83,181.83 774.22,216.84 " fill="none" id="ICallback-backto-ISubmenu" style="stroke:#272B30;stroke-width:1.0;"/><polygon fill="none" points="931.5,113.09,952.23,108.68,938.77,125.05,931.5,113.09" style="stroke:#272B30;stroke-width:1.0;"/><!--MD5=[62821044dda963a7e894af59c5ec6231]
reverse link ISubmenu to Submenu--><path codeLine="91" d="M599.5,451.45 C599.5,464.16 599.5,477.41 599.5,490.99 " fill="none" id="ISubmenu-backto-Submenu" style="stroke:#272B30;stroke-width:1.0;stroke-dasharray:7.0,7.0;"/><polygon fill="none" points="592.5,451.27,599.5,431.27,606.5,451.27,592.5,451.27" style="stroke:#272B30;stroke-width:1.0;"/><!--MD5=[85aa8d6293be6fc01053e44d70314c17]
@startuml
skinparam ClassArrowColor #272b30
skinparam ClassBorderColor #272b30
skinparam ClassBackgroundColor #fff
skinparam BackgroundColor #ced4da
hide empty methods
hide empty fields
interface "ISubmenu" {
    +isBuilt : boolean
    +selfElement : HTMLElement
    +uniqueId : string
    +widgetId : string
    +build() : void
    +changeProperty(propertyName: string, propertyValue: unknown) : void
    +close() : void
    +dispose() : void
    +equalsToID(id: string) : boolean
    +open() : void
    +registerCallback(callback: OSGeneric, eventName: string) : void
    +setOpenOnHover() : void
    +updateOnRender() : void
}
interface "IPattern" {
    +isBuilt : boolean
    +selfElement : HTMLElement
    +uniqueId : string
    +widgetId : string
    +build() : void
    +changeProperty(propertyName: string, propertyValue: unknown) : void
    +dispose() : void
    +equalsToID(id: string) : boolean
}
"IPattern" <|- - "ISubmenu"
interface "IOpenable" {
    +close() : void
    +open() : void
}
"IOpenable" <|- - "ISubmenu"
interface "IRenderUpdate" {
    +updateOnRender() : void
}
"IRenderUpdate" <|- - "ISubmenu"
interface "ICallback" {
    +registerCallback(callback: OSGeneric, eventName: string) : void
}
"ICallback" <|- - "ISubmenu"
class "Submenu" {
    -_eventClick : Generic
    -_eventKeypress : Generic
    -_eventOnMouseEnter : Generic
    -_eventOnMouseLeave : Generic
    -_globalEventBody : Generic
    -_hasActiveLinks : boolean
    -_hasElements : boolean
    -_isActive : boolean
    -_isOpen : boolean
    -_platformEventInitializedCallback : OSGeneric
    -_platformEventOnToggleCallback : OSGeneric
    -_submenuActiveLinksElement : HTMLElement
    -_submenuAllLinksElement : HTMLAnchorElement[]
    -_submenuHeaderElement : HTMLElement
    -_submenuLinksElement : HTMLElement
    +build() : void
    +changeProperty(propertyName: string, propertyValue: unknown) : void
    +close() : void
    +dispose() : void
    +equalsToID(patternId: string) : boolean
    +open() : void
    +registerCallback(callback: OSGeneric, eventName: string) : void
    +setOpenOnHover() : void
    +updateOnRender() : void
    #finishBuild() : void
    #setA11YProperties() : void
    #setCallbacks() : void
    #setHtmlElements() : void
    #setInitialStates() : void
    #unsetCallbacks() : void
    #unsetHtmlElements() : void
    -_bodyClickCallback(_args: string, e: MouseEvent) : void
    -_checkForActiveLinks() : void
    -_clickCallback() : void
    -_keypressCallback(e: KeyboardEvent) : void
    -_onMouseEnterCallback(e: MouseEvent) : void
    -_onMouseLeaveCallback(e: MouseEvent) : void
    -_removeActive() : void
    -_removeEvents() : void
    -_setActive() : void
    -_show() : void
    -_toggleSubmenu() : void
    -_updateA11yProperties() : void
}
"ISubmenu" <|.. "Submenu"
@enduml

PlantUML version 1.2021.14(Fri Nov 12 16:46:50 UTC 2021)
(GPL source distribution)
Java Runtime: OpenJDK Runtime Environment
JVM: OpenJDK 64-Bit Server VM
Default Encoding: UTF-8
Language: en
Country: null
--></g></svg>