<?xml version="1.0" encoding="UTF-8" standalone="no"?><svg xmlns="http://www.w3.org/2000/svg" xmlns:xlink="http://www.w3.org/1999/xlink" contentScriptType="application/ecmascript" contentStyleType="text/css" height="959px" preserveAspectRatio="none" style="width:493px;height:959px;background:#CED4DA;" version="1.1" viewBox="0 0 493 959" width="493px" zoomAndPan="magnify"><defs><filter height="300%" id="f1pdpn8jh9vgjo" width="300%" x="-1" y="-1"><feGaussianBlur result="blurOut" stdDeviation="2.0"/><feColorMatrix in="blurOut" result="blurOut2" type="matrix" values="0 0 0 0 0 0 0 0 0 0 0 0 0 0 0 0 0 0 .4 0"/><feOffset dx="4.0" dy="4.0" in="blurOut2" result="blurOut3"/><feBlend in="SourceGraphic" in2="blurOut3" mode="normal"/></filter></defs><g><!--MD5=[64c928c84d705bf3a17bcea82688d460]
class ISwipeEvents--><rect codeLine="7" fill="#FFFFFF" filter="url(#f1pdpn8jh9vgjo)" height="190.5059" id="ISwipeEvents" style="stroke:#272B30;stroke-width:1.5;" width="403" x="42.5" y="232"/><ellipse cx="203.25" cy="248" fill="#B4A7E5" rx="11" ry="11" style="stroke:#272B30;stroke-width:1.0;"/><path d="M199.6777,244.2651 L199.6777,242.1069 L207.0571,242.1069 L207.0571,244.2651 L204.5918,244.2651 L204.5918,252.3418 L207.0571,252.3418 L207.0571,254.5 L199.6777,254.5 L199.6777,252.3418 L202.1431,252.3418 L202.1431,244.2651 Z " fill="#000000"/><text fill="#000000" font-family="sans-serif" font-size="12" font-style="italic" lengthAdjust="spacing" textLength="73" x="223.75" y="252.5352">ISwipeEvents</text><line style="stroke:#272B30;stroke-width:1.5;" x1="43.5" x2="444.5" y1="264" y2="264"/><ellipse cx="53.5" cy="275" rx="3" ry="3" style="stroke:#038048;stroke-width:1.0;fill:none;"/><text fill="#000000" font-family="sans-serif" font-size="11" lengthAdjust="spacing" textLength="141" x="62.5" y="278.6348">EventGestureEnd : Generic</text><ellipse cx="53.5" cy="287.9551" rx="3" ry="3" style="stroke:#038048;stroke-width:1.0;fill:none;"/><text fill="#000000" font-family="sans-serif" font-size="11" lengthAdjust="spacing" textLength="149" x="62.5" y="291.5898">EventGestureMove : Generic</text><ellipse cx="53.5" cy="300.9102" rx="3" ry="3" style="stroke:#038048;stroke-width:1.0;fill:none;"/><text fill="#000000" font-family="sans-serif" font-size="11" lengthAdjust="spacing" textLength="84" x="62.5" y="304.5449">isBuilt : boolean</text><ellipse cx="53.5" cy="313.8652" rx="3" ry="3" style="stroke:#038048;stroke-width:1.0;fill:none;"/><text fill="#000000" font-family="sans-serif" font-size="11" lengthAdjust="spacing" textLength="142" x="62.5" y="317.5">selfElement : HTMLElement</text><ellipse cx="53.5" cy="326.8203" rx="3" ry="3" style="stroke:#038048;stroke-width:1.0;fill:none;"/><text fill="#000000" font-family="sans-serif" font-size="11" lengthAdjust="spacing" textLength="88" x="62.5" y="330.4551">uniqueId : string</text><ellipse cx="53.5" cy="339.7754" rx="3" ry="3" style="stroke:#038048;stroke-width:1.0;fill:none;"/><text fill="#000000" font-family="sans-serif" font-size="11" lengthAdjust="spacing" textLength="86" x="62.5" y="343.4102">widgetId : string</text><line style="stroke:#272B30;stroke-width:1.5;" x1="43.5" x2="444.5" y1="349.7305" y2="349.7305"/><ellipse cx="53.5" cy="360.7305" fill="#84BE84" rx="3" ry="3" style="stroke:#038048;stroke-width:1.0;"/><text fill="#000000" font-family="sans-serif" font-size="11" lengthAdjust="spacing" textLength="67" x="62.5" y="364.3652">build() : void</text><ellipse cx="53.5" cy="373.6855" fill="#84BE84" rx="3" ry="3" style="stroke:#038048;stroke-width:1.0;"/><text fill="#000000" font-family="sans-serif" font-size="11" lengthAdjust="spacing" textLength="377" x="62.5" y="377.3203">changeProperty(propertyName: string, propertyValue: unknown) : void</text><ellipse cx="53.5" cy="386.6406" fill="#84BE84" rx="3" ry="3" style="stroke:#038048;stroke-width:1.0;"/><text fill="#000000" font-family="sans-serif" font-size="11" lengthAdjust="spacing" textLength="82" x="62.5" y="390.2754">dispose() : void</text><ellipse cx="53.5" cy="399.5957" fill="#84BE84" rx="3" ry="3" style="stroke:#038048;stroke-width:1.0;"/><text fill="#000000" font-family="sans-serif" font-size="11" lengthAdjust="spacing" textLength="168" x="62.5" y="403.2305">equalsToID(id: string) : boolean</text><ellipse cx="53.5" cy="412.5508" fill="#84BE84" rx="3" ry="3" style="stroke:#038048;stroke-width:1.0;"/><text fill="#000000" font-family="sans-serif" font-size="11" lengthAdjust="spacing" textLength="335" x="62.5" y="416.1855">registerCallback(eventName: string, callback: OSGeneric) : void</text><!--MD5=[3266101ea6228889a90c639b28de0501]
class IPattern--><rect codeLine="20" fill="#FFFFFF" filter="url(#f1pdpn8jh9vgjo)" height="164.5957" id="IPattern" style="stroke:#272B30;stroke-width:1.5;" width="403" x="42.5" y="7"/><ellipse cx="217.75" cy="23" fill="#B4A7E5" rx="11" ry="11" style="stroke:#272B30;stroke-width:1.0;"/><path d="M214.1777,19.2651 L214.1777,17.1069 L221.5571,17.1069 L221.5571,19.2651 L219.0918,19.2651 L219.0918,27.3418 L221.5571,27.3418 L221.5571,29.5 L214.1777,29.5 L214.1777,27.3418 L216.6431,27.3418 L216.6431,19.2651 Z " fill="#000000"/><text fill="#000000" font-family="sans-serif" font-size="12" font-style="italic" lengthAdjust="spacing" textLength="44" x="238.25" y="27.5352">IPattern</text><line style="stroke:#272B30;stroke-width:1.5;" x1="43.5" x2="444.5" y1="39" y2="39"/><ellipse cx="53.5" cy="50" rx="3" ry="3" style="stroke:#038048;stroke-width:1.0;fill:none;"/><text fill="#000000" font-family="sans-serif" font-size="11" lengthAdjust="spacing" textLength="84" x="62.5" y="53.6348">isBuilt : boolean</text><ellipse cx="53.5" cy="62.9551" rx="3" ry="3" style="stroke:#038048;stroke-width:1.0;fill:none;"/><text fill="#000000" font-family="sans-serif" font-size="11" lengthAdjust="spacing" textLength="142" x="62.5" y="66.5898">selfElement : HTMLElement</text><ellipse cx="53.5" cy="75.9102" rx="3" ry="3" style="stroke:#038048;stroke-width:1.0;fill:none;"/><text fill="#000000" font-family="sans-serif" font-size="11" lengthAdjust="spacing" textLength="88" x="62.5" y="79.5449">uniqueId : string</text><ellipse cx="53.5" cy="88.8652" rx="3" ry="3" style="stroke:#038048;stroke-width:1.0;fill:none;"/><text fill="#000000" font-family="sans-serif" font-size="11" lengthAdjust="spacing" textLength="86" x="62.5" y="92.5">widgetId : string</text><line style="stroke:#272B30;stroke-width:1.5;" x1="43.5" x2="444.5" y1="98.8203" y2="98.8203"/><ellipse cx="53.5" cy="109.8203" fill="#84BE84" rx="3" ry="3" style="stroke:#038048;stroke-width:1.0;"/><text fill="#000000" font-family="sans-serif" font-size="11" lengthAdjust="spacing" textLength="67" x="62.5" y="113.4551">build() : void</text><ellipse cx="53.5" cy="122.7754" fill="#84BE84" rx="3" ry="3" style="stroke:#038048;stroke-width:1.0;"/><text fill="#000000" font-family="sans-serif" font-size="11" lengthAdjust="spacing" textLength="377" x="62.5" y="126.4102">changeProperty(propertyName: string, propertyValue: unknown) : void</text><ellipse cx="53.5" cy="135.7305" fill="#84BE84" rx="3" ry="3" style="stroke:#038048;stroke-width:1.0;"/><text fill="#000000" font-family="sans-serif" font-size="11" lengthAdjust="spacing" textLength="82" x="62.5" y="139.3652">dispose() : void</text><ellipse cx="53.5" cy="148.6855" fill="#84BE84" rx="3" ry="3" style="stroke:#038048;stroke-width:1.0;"/><text fill="#000000" font-family="sans-serif" font-size="11" lengthAdjust="spacing" textLength="168" x="62.5" y="152.3203">equalsToID(id: string) : boolean</text><ellipse cx="53.5" cy="161.6406" fill="#84BE84" rx="3" ry="3" style="stroke:#038048;stroke-width:1.0;"/><text fill="#000000" font-family="sans-serif" font-size="11" lengthAdjust="spacing" textLength="335" x="62.5" y="165.2754">registerCallback(eventName: string, callback: OSGeneric) : void</text><!--MD5=[8ee927d1a0b655bb8138921af99c174f]
class SwipeEvents--><rect codeLine="32" fill="#FFFFFF" filter="url(#f1pdpn8jh9vgjo)" height="462.5625" id="SwipeEvents" style="stroke:#272B30;stroke-width:1.5;" width="470" x="9" y="483"/><ellipse cx="204.75" cy="499" fill="#ADD1B2" rx="11" ry="11" style="stroke:#272B30;stroke-width:1.0;"/><path d="M207.2231,505.1431 Q206.6421,505.4419 206.0029,505.5913 Q205.3638,505.7407 204.6582,505.7407 Q202.1514,505.7407 200.8315,504.0889 Q199.5117,502.437 199.5117,499.3159 Q199.5117,496.1865 200.8315,494.5347 Q202.1514,492.8828 204.6582,492.8828 Q205.3638,492.8828 206.0112,493.0322 Q206.6587,493.1816 207.2231,493.4805 L207.2231,496.2031 Q206.5923,495.6221 205.9988,495.3523 Q205.4053,495.0825 204.7744,495.0825 Q203.4297,495.0825 202.7449,496.1492 Q202.0601,497.2158 202.0601,499.3159 Q202.0601,501.4077 202.7449,502.4744 Q203.4297,503.541 204.7744,503.541 Q205.4053,503.541 205.9988,503.2712 Q206.5923,503.0015 207.2231,502.4204 Z " fill="#000000"/><text fill="#000000" font-family="sans-serif" font-size="12" lengthAdjust="spacing" textLength="70" x="225.25" y="503.5352">SwipeEvents</text><line style="stroke:#272B30;stroke-width:1.5;" x1="10" x2="478" y1="515" y2="515"/><polygon fill="none" points="20,521,24,525,20,529,16,525" style="stroke:#B38D22;stroke-width:1.0;"/><text fill="#000000" font-family="sans-serif" font-size="11" lengthAdjust="spacing" textLength="137" x="29" y="529.6348">isProviderBased : boolean</text><rect fill="none" height="6" style="stroke:#C82930;stroke-width:1.0;" width="6" x="17" y="535.9551"/><text fill="#000000" font-family="sans-serif" font-size="11" lengthAdjust="spacing" textLength="154" x="29" y="542.5898">_gestureMoveEvent : Generic</text><rect fill="none" height="6" style="stroke:#C82930;stroke-width:1.0;" width="6" x="17" y="548.9102"/><text fill="#000000" font-family="sans-serif" font-size="11" lengthAdjust="spacing" textLength="151" x="29" y="555.5449">_gestureStartEvent : Generic</text><rect fill="none" height="6" style="stroke:#C82930;stroke-width:1.0;" width="6" x="17" y="561.8652"/><text fill="#000000" font-family="sans-serif" font-size="11" lengthAdjust="spacing" textLength="175" x="29" y="568.5">_swipableElement : HTMLElement</text><rect fill="none" height="6" style="stroke:#C82930;stroke-width:1.0;" width="6" x="17" y="574.8203"/><text fill="#000000" font-family="sans-serif" font-size="11" lengthAdjust="spacing" textLength="161" x="29" y="581.4551">_swipeDownCallback : Generic</text><rect fill="none" height="6" style="stroke:#C82930;stroke-width:1.0;" width="6" x="17" y="587.7754"/><text fill="#000000" font-family="sans-serif" font-size="11" lengthAdjust="spacing" textLength="151" x="29" y="594.4102">_swipeLeftCallback : Generic</text><rect fill="none" height="6" style="stroke:#C82930;stroke-width:1.0;" width="6" x="17" y="600.7305"/><text fill="#000000" font-family="sans-serif" font-size="11" lengthAdjust="spacing" textLength="159" x="29" y="607.3652">_swipeRightCallback : Generic</text><rect fill="none" height="6" style="stroke:#C82930;stroke-width:1.0;" width="6" x="17" y="613.6855"/><text fill="#000000" font-family="sans-serif" font-size="11" lengthAdjust="spacing" textLength="146" x="29" y="620.3203">_swipeUpCallback : Generic</text><rect fill="none" height="6" style="stroke:#C82930;stroke-width:1.0;" width="6" x="17" y="626.6406"/><text fill="#000000" font-family="sans-serif" font-size="11" lengthAdjust="spacing" textLength="109" x="29" y="633.2754">_threshold : number</text><rect fill="none" height="6" style="stroke:#C82930;stroke-width:1.0;" width="6" x="17" y="639.5957"/><text fill="#000000" font-family="sans-serif" font-size="11" lengthAdjust="spacing" textLength="98" x="29" y="646.2305">_velocity : number</text><line style="stroke:#272B30;stroke-width:1.5;" x1="10" x2="478" y1="652.5508" y2="652.5508"/><ellipse cx="20" cy="663.5508" fill="#84BE84" rx="3" ry="3" style="stroke:#038048;stroke-width:1.0;"/><text fill="#000000" font-family="sans-serif" font-size="11" lengthAdjust="spacing" textLength="67" x="29" y="667.1855">build() : void</text><ellipse cx="20" cy="676.5059" fill="#84BE84" rx="3" ry="3" style="stroke:#038048;stroke-width:1.0;"/><text fill="#000000" font-family="sans-serif" font-size="11" lengthAdjust="spacing" textLength="377" x="29" y="680.1406">changeProperty(propertyName: string, propertyValue: unknown) : void</text><ellipse cx="20" cy="689.4609" fill="#84BE84" rx="3" ry="3" style="stroke:#038048;stroke-width:1.0;"/><text fill="#000000" font-family="sans-serif" font-size="11" lengthAdjust="spacing" textLength="82" x="29" y="693.0957">dispose() : void</text><ellipse cx="20" cy="702.416" fill="#84BE84" rx="3" ry="3" style="stroke:#038048;stroke-width:1.0;"/><text fill="#000000" font-family="sans-serif" font-size="11" lengthAdjust="spacing" textLength="207" x="29" y="706.0508">equalsToID(patternId: string) : boolean</text><ellipse cx="20" cy="715.3711" fill="#84BE84" rx="3" ry="3" style="stroke:#038048;stroke-width:1.0;"/><text fill="#000000" font-family="sans-serif" font-size="11" lengthAdjust="spacing" textLength="418" x="29" y="719.0059">EventGestureEnd(offsetX: number, offsetY: number, timeTaken: number) : void</text><ellipse cx="20" cy="728.3262" fill="#84BE84" rx="3" ry="3" style="stroke:#038048;stroke-width:1.0;"/><text fill="#000000" font-family="sans-serif" font-size="11" lengthAdjust="spacing" textLength="237" x="29" y="731.9609">EventGestureMove(event: TouchEvent) : void</text><ellipse cx="20" cy="741.2813" fill="#84BE84" rx="3" ry="3" style="stroke:#038048;stroke-width:1.0;"/><text fill="#000000" font-family="sans-serif" font-size="11" lengthAdjust="spacing" textLength="335" x="29" y="744.916">registerCallback(eventName: string, callback: OSGeneric) : void</text><polygon fill="#FFFF44" points="20,749.2363,24,753.2363,20,757.2363,16,753.2363" style="stroke:#B38D22;stroke-width:1.0;"/><text fill="#000000" font-family="sans-serif" font-size="11" lengthAdjust="spacing" textLength="96" x="29" y="757.8711">finishBuild() : void</text><polygon fill="#FFFF44" points="20,762.1914,24,766.1914,20,770.1914,16,766.1914" style="stroke:#B38D22;stroke-width:1.0;"/><text fill="#000000" font-family="sans-serif" font-size="11" lengthAdjust="spacing" textLength="140" x="29" y="770.8262">setA11YProperties() : void</text><polygon fill="#FFFF44" points="20,775.1465,24,779.1465,20,783.1465,16,779.1465" style="stroke:#B38D22;stroke-width:1.0;"/><text fill="#000000" font-family="sans-serif" font-size="11" lengthAdjust="spacing" textLength="107" x="29" y="783.7813">setCallbacks() : void</text><polygon fill="#FFFF44" points="20,788.1016,24,792.1016,20,796.1016,16,792.1016" style="stroke:#B38D22;stroke-width:1.0;"/><text fill="#000000" font-family="sans-serif" font-size="11" lengthAdjust="spacing" textLength="129" x="29" y="796.7363">setHtmlElements() : void</text><polygon fill="#FFFF44" points="20,801.0566,24,805.0566,20,809.0566,16,805.0566" style="stroke:#B38D22;stroke-width:1.0;"/><text fill="#000000" font-family="sans-serif" font-size="11" lengthAdjust="spacing" textLength="444" x="29" y="809.6914">triggerPlatformEventCallback(platFormCallback: OSGeneric, args: unknown[]) : void</text><polygon fill="#FFFF44" points="20,814.0117,24,818.0117,20,822.0117,16,818.0117" style="stroke:#B38D22;stroke-width:1.0;"/><text fill="#000000" font-family="sans-serif" font-size="11" lengthAdjust="spacing" textLength="247" x="29" y="822.6465">triggerPlatformInitializedEventCallback() : void</text><polygon fill="#FFFF44" points="20,826.9668,24,830.9668,20,834.9668,16,830.9668" style="stroke:#B38D22;stroke-width:1.0;"/><text fill="#000000" font-family="sans-serif" font-size="11" lengthAdjust="spacing" textLength="121" x="29" y="835.6016">unsetCallbacks() : void</text><polygon fill="#FFFF44" points="20,839.9219,24,843.9219,20,847.9219,16,843.9219" style="stroke:#B38D22;stroke-width:1.0;"/><text fill="#000000" font-family="sans-serif" font-size="11" lengthAdjust="spacing" textLength="155" x="29" y="848.5566">unsetGlobalCallbacks() : void</text><polygon fill="#FFFF44" points="20,852.877,24,856.877,20,860.877,16,856.877" style="stroke:#B38D22;stroke-width:1.0;"/><text fill="#000000" font-family="sans-serif" font-size="11" lengthAdjust="spacing" textLength="143" x="29" y="861.5117">unsetHtmlElements() : void</text><rect fill="#F24D5C" height="6" style="stroke:#C82930;stroke-width:1.0;" width="6" x="17" y="867.832"/><text fill="#000000" font-family="sans-serif" font-size="11" lengthAdjust="spacing" textLength="164" x="29" y="874.4668">_removeEventListeners() : void</text><rect fill="#F24D5C" height="6" style="stroke:#C82930;stroke-width:1.0;" width="6" x="17" y="880.7871"/><text fill="#000000" font-family="sans-serif" font-size="11" lengthAdjust="spacing" textLength="140" x="29" y="887.4219">_setEventListeners() : void</text><rect fill="#F24D5C" height="6" style="stroke:#C82930;stroke-width:1.0;" width="6" x="17" y="893.7422"/><text fill="#000000" font-family="sans-serif" font-size="11" lengthAdjust="spacing" textLength="143" x="29" y="900.377">_triggerSwipeDown() : void</text><rect fill="#F24D5C" height="6" style="stroke:#C82930;stroke-width:1.0;" width="6" x="17" y="906.6973"/><text fill="#000000" font-family="sans-serif" font-size="11" lengthAdjust="spacing" textLength="133" x="29" y="913.332">_triggerSwipeLeft() : void</text><rect fill="#F24D5C" height="6" style="stroke:#C82930;stroke-width:1.0;" width="6" x="17" y="919.6523"/><text fill="#000000" font-family="sans-serif" font-size="11" lengthAdjust="spacing" textLength="141" x="29" y="926.2871">_triggerSwipeRight() : void</text><rect fill="#F24D5C" height="6" style="stroke:#C82930;stroke-width:1.0;" width="6" x="17" y="932.6074"/><text fill="#000000" font-family="sans-serif" font-size="11" lengthAdjust="spacing" textLength="128" x="29" y="939.2422">_triggerSwipeUp() : void</text><!--MD5=[0b138511fdd5f4af580910e7ac774723]
reverse link IPattern to ISwipeEvents--><path codeLine="31" d="M244,192.39 C244,205.53 244,218.95 244,231.97 " fill="none" id="IPattern-backto-ISwipeEvents" style="stroke:#272B30;stroke-width:1.0;"/><polygon fill="none" points="237,192.05,244,172.05,251,192.05,237,192.05" style="stroke:#272B30;stroke-width:1.0;"/><!--MD5=[a43d19e21be9f9bb797f151c6c9dd8db]
reverse link ISwipeEvents to SwipeEvents--><path codeLine="66" d="M244,443.35 C244,456.08 244,469.35 244,482.89 " fill="none" id="ISwipeEvents-backto-SwipeEvents" style="stroke:#272B30;stroke-width:1.0;stroke-dasharray:7.0,7.0;"/><polygon fill="none" points="237,443.17,244,423.17,251,443.17,237,443.17" style="stroke:#272B30;stroke-width:1.0;"/><!--MD5=[787399dd159c71d3ab920a1b6fb4c89e]
@startuml
skinparam ClassArrowColor #272b30
skinparam ClassBorderColor #272b30
skinparam ClassBackgroundColor #fff
skinparam BackgroundColor #ced4da
hide empty methods
hide empty fields
interface "ISwipeEvents" {
    +EventGestureEnd : Generic
    +EventGestureMove : Generic
    +isBuilt : boolean
    +selfElement : HTMLElement
    +uniqueId : string
    +widgetId : string
    +build() : void
    +changeProperty(propertyName: string, propertyValue: unknown) : void
    +dispose() : void
    +equalsToID(id: string) : boolean
    +registerCallback(eventName: string, callback: OSGeneric) : void
}
interface "IPattern" {
    +isBuilt : boolean
    +selfElement : HTMLElement
    +uniqueId : string
    +widgetId : string
    +build() : void
    +changeProperty(propertyName: string, propertyValue: unknown) : void
    +dispose() : void
    +equalsToID(id: string) : boolean
    +registerCallback(eventName: string, callback: OSGeneric) : void
}
"IPattern" <|- - "ISwipeEvents"
class "SwipeEvents" {
    #isProviderBased : boolean
    -_gestureMoveEvent : Generic
    -_gestureStartEvent : Generic
    -_swipableElement : HTMLElement
    -_swipeDownCallback : Generic
    -_swipeLeftCallback : Generic
    -_swipeRightCallback : Generic
    -_swipeUpCallback : Generic
    -_threshold : number
    -_velocity : number
    +build() : void
    +changeProperty(propertyName: string, propertyValue: unknown) : void
    +dispose() : void
    +equalsToID(patternId: string) : boolean
    +EventGestureEnd(offsetX: number, offsetY: number, timeTaken: number) : void
    +EventGestureMove(event: TouchEvent) : void
    +registerCallback(eventName: string, callback: OSGeneric) : void
    #finishBuild() : void
    #setA11YProperties() : void
    #setCallbacks() : void
    #setHtmlElements() : void
    #triggerPlatformEventCallback(platFormCallback: OSGeneric, args: unknown[]) : void
    #triggerPlatformInitializedEventCallback() : void
    #unsetCallbacks() : void
    #unsetGlobalCallbacks() : void
    #unsetHtmlElements() : void
    -_removeEventListeners() : void
    -_setEventListeners() : void
    -_triggerSwipeDown() : void
    -_triggerSwipeLeft() : void
    -_triggerSwipeRight() : void
    -_triggerSwipeUp() : void
}
"ISwipeEvents" <|.. "SwipeEvents"
@enduml

PlantUML version 1.2021.14(Fri Nov 12 16:46:50 WET 2021)
(GPL source distribution)
Java Runtime: Java(TM) SE Runtime Environment
JVM: Java HotSpot(TM) 64-Bit Server VM
Default Encoding: UTF-8
Language: en
Country: PT
--></g></svg>