<?xml version="1.0" encoding="us-ascii" standalone="no"?><svg xmlns="http://www.w3.org/2000/svg" xmlns:xlink="http://www.w3.org/1999/xlink" contentStyleType="text/css" height="1125px" preserveAspectRatio="none" style="width:611px;height:1125px;background:#CED4DA;" version="1.1" viewBox="0 0 611 1125" width="611px" zoomAndPan="magnify"><defs/><g><rect fill="#CED4DA" height="1125" style="stroke:none;stroke-width:1.0;" width="611" x="0" y="0"/><!--class ISwipeEvents--><g id="elem_ISwipeEvents"><rect codeLine="7" fill="#FFFFFF" height="227.2656" id="ISwipeEvents" rx="2.5" ry="2.5" style="stroke:#272B30;stroke-width:0.5;" width="510" x="51.5" y="262"/><ellipse cx="256.25" cy="278" fill="#B4A7E5" rx="11" ry="11" style="stroke:#181818;stroke-width:1.0;"/><path d="M252.1719,273.7656 L252.1719,271.6094 L259.5625,271.6094 L259.5625,273.7656 L257.0938,273.7656 L257.0938,281.8438 L259.5625,281.8438 L259.5625,284 L252.1719,284 L252.1719,281.8438 L254.6406,281.8438 L254.6406,273.7656 L252.1719,273.7656 Z " fill="#000000"/><text fill="#000000" font-family="sans-serif" font-size="14" font-style="italic" lengthAdjust="spacing" textLength="92" x="276.75" y="282.8467">ISwipeEvents</text><line style="stroke:#272B30;stroke-width:0.5;" x1="52.5" x2="560.5" y1="294" y2="294"/><ellipse cx="62.5" cy="307.6484" fill="none" rx="3" ry="3" style="stroke:#038048;stroke-width:1.0;"/><text fill="#000000" font-family="sans-serif" font-size="14" lengthAdjust="spacing" textLength="189" x="71.5" y="310.9951">EventGestureEnd : Generic</text><ellipse cx="62.5" cy="323.9453" fill="none" rx="3" ry="3" style="stroke:#038048;stroke-width:1.0;"/><text fill="#000000" font-family="sans-serif" font-size="14" lengthAdjust="spacing" textLength="199" x="71.5" y="327.292">EventGestureMove : Generic</text><ellipse cx="62.5" cy="340.2422" fill="none" rx="3" ry="3" style="stroke:#038048;stroke-width:1.0;"/><text fill="#000000" font-family="sans-serif" font-size="14" lengthAdjust="spacing" textLength="110" x="71.5" y="343.5889">isBuilt : boolean</text><ellipse cx="62.5" cy="356.5391" fill="none" rx="3" ry="3" style="stroke:#038048;stroke-width:1.0;"/><text fill="#000000" font-family="sans-serif" font-size="14" lengthAdjust="spacing" textLength="189" x="71.5" y="359.8857">selfElement : HTMLElement</text><ellipse cx="62.5" cy="372.8359" fill="none" rx="3" ry="3" style="stroke:#038048;stroke-width:1.0;"/><text fill="#000000" font-family="sans-serif" font-size="14" lengthAdjust="spacing" textLength="112" x="71.5" y="376.1826">uniqueId : string</text><ellipse cx="62.5" cy="389.1328" fill="none" rx="3" ry="3" style="stroke:#038048;stroke-width:1.0;"/><text fill="#000000" font-family="sans-serif" font-size="14" lengthAdjust="spacing" textLength="110" x="71.5" y="392.4795">widgetId : string</text><line style="stroke:#272B30;stroke-width:0.5;" x1="52.5" x2="560.5" y1="399.7813" y2="399.7813"/><ellipse cx="62.5" cy="413.4297" fill="#84BE84" rx="3" ry="3" style="stroke:#038048;stroke-width:1.0;"/><text fill="#000000" font-family="sans-serif" font-size="14" lengthAdjust="spacing" textLength="84" x="71.5" y="416.7764">build() : void</text><ellipse cx="62.5" cy="429.7266" fill="#84BE84" rx="3" ry="3" style="stroke:#038048;stroke-width:1.0;"/><text fill="#000000" font-family="sans-serif" font-size="14" lengthAdjust="spacing" textLength="484" x="71.5" y="433.0732">changeProperty(propertyName: string, propertyValue: unknown) : void</text><ellipse cx="62.5" cy="446.0234" fill="#84BE84" rx="3" ry="3" style="stroke:#038048;stroke-width:1.0;"/><text fill="#000000" font-family="sans-serif" font-size="14" lengthAdjust="spacing" textLength="106" x="71.5" y="449.3701">dispose() : void</text><ellipse cx="62.5" cy="462.3203" fill="#84BE84" rx="3" ry="3" style="stroke:#038048;stroke-width:1.0;"/><text fill="#000000" font-family="sans-serif" font-size="14" lengthAdjust="spacing" textLength="217" x="71.5" y="465.667">equalsToID(id: string) : boolean</text><ellipse cx="62.5" cy="478.6172" fill="#84BE84" rx="3" ry="3" style="stroke:#038048;stroke-width:1.0;"/><text fill="#000000" font-family="sans-serif" font-size="14" lengthAdjust="spacing" textLength="434" x="71.5" y="481.9639">registerCallback(eventName: string, callback: OSGeneric) : void</text></g><!--class IPattern--><g id="elem_IPattern"><rect codeLine="20" fill="#FFFFFF" height="194.6719" id="IPattern" rx="2.5" ry="2.5" style="stroke:#272B30;stroke-width:0.5;" width="510" x="51.5" y="7"/><ellipse cx="275.75" cy="23" fill="#B4A7E5" rx="11" ry="11" style="stroke:#181818;stroke-width:1.0;"/><path d="M271.6719,18.7656 L271.6719,16.6094 L279.0625,16.6094 L279.0625,18.7656 L276.5938,18.7656 L276.5938,26.8438 L279.0625,26.8438 L279.0625,29 L271.6719,29 L271.6719,26.8438 L274.1406,26.8438 L274.1406,18.7656 L271.6719,18.7656 Z " fill="#000000"/><text fill="#000000" font-family="sans-serif" font-size="14" font-style="italic" lengthAdjust="spacing" textLength="53" x="296.25" y="27.8467">IPattern</text><line style="stroke:#272B30;stroke-width:0.5;" x1="52.5" x2="560.5" y1="39" y2="39"/><ellipse cx="62.5" cy="52.6484" fill="none" rx="3" ry="3" style="stroke:#038048;stroke-width:1.0;"/><text fill="#000000" font-family="sans-serif" font-size="14" lengthAdjust="spacing" textLength="110" x="71.5" y="55.9951">isBuilt : boolean</text><ellipse cx="62.5" cy="68.9453" fill="none" rx="3" ry="3" style="stroke:#038048;stroke-width:1.0;"/><text fill="#000000" font-family="sans-serif" font-size="14" lengthAdjust="spacing" textLength="189" x="71.5" y="72.292">selfElement : HTMLElement</text><ellipse cx="62.5" cy="85.2422" fill="none" rx="3" ry="3" style="stroke:#038048;stroke-width:1.0;"/><text fill="#000000" font-family="sans-serif" font-size="14" lengthAdjust="spacing" textLength="112" x="71.5" y="88.5889">uniqueId : string</text><ellipse cx="62.5" cy="101.5391" fill="none" rx="3" ry="3" style="stroke:#038048;stroke-width:1.0;"/><text fill="#000000" font-family="sans-serif" font-size="14" lengthAdjust="spacing" textLength="110" x="71.5" y="104.8857">widgetId : string</text><line style="stroke:#272B30;stroke-width:0.5;" x1="52.5" x2="560.5" y1="112.1875" y2="112.1875"/><ellipse cx="62.5" cy="125.8359" fill="#84BE84" rx="3" ry="3" style="stroke:#038048;stroke-width:1.0;"/><text fill="#000000" font-family="sans-serif" font-size="14" lengthAdjust="spacing" textLength="84" x="71.5" y="129.1826">build() : void</text><ellipse cx="62.5" cy="142.1328" fill="#84BE84" rx="3" ry="3" style="stroke:#038048;stroke-width:1.0;"/><text fill="#000000" font-family="sans-serif" font-size="14" lengthAdjust="spacing" textLength="484" x="71.5" y="145.4795">changeProperty(propertyName: string, propertyValue: unknown) : void</text><ellipse cx="62.5" cy="158.4297" fill="#84BE84" rx="3" ry="3" style="stroke:#038048;stroke-width:1.0;"/><text fill="#000000" font-family="sans-serif" font-size="14" lengthAdjust="spacing" textLength="106" x="71.5" y="161.7764">dispose() : void</text><ellipse cx="62.5" cy="174.7266" fill="#84BE84" rx="3" ry="3" style="stroke:#038048;stroke-width:1.0;"/><text fill="#000000" font-family="sans-serif" font-size="14" lengthAdjust="spacing" textLength="217" x="71.5" y="178.0732">equalsToID(id: string) : boolean</text><ellipse cx="62.5" cy="191.0234" fill="#84BE84" rx="3" ry="3" style="stroke:#038048;stroke-width:1.0;"/><text fill="#000000" font-family="sans-serif" font-size="14" lengthAdjust="spacing" textLength="434" x="71.5" y="194.3701">registerCallback(eventName: string, callback: OSGeneric) : void</text></g><!--class SwipeEvents--><g id="elem_SwipeEvents"><rect codeLine="32" fill="#FFFFFF" height="569.5" id="SwipeEvents" rx="2.5" ry="2.5" style="stroke:#272B30;stroke-width:0.5;" width="595" x="9" y="549"/><ellipse cx="258.25" cy="565" fill="#ADD1B2" rx="11" ry="11" style="stroke:#181818;stroke-width:1.0;"/><path d="M261.2188,570.6406 Q260.6406,570.9375 260,571.0781 Q259.3594,571.2344 258.6563,571.2344 Q256.1563,571.2344 254.8281,569.5938 Q253.5156,567.9375 253.5156,564.8125 Q253.5156,561.6875 254.8281,560.0313 Q256.1563,558.375 258.6563,558.375 Q259.3594,558.375 260,558.5313 Q260.6563,558.6875 261.2188,558.9844 L261.2188,561.7031 Q260.5938,561.125 260,560.8594 Q259.4063,560.5781 258.7813,560.5781 Q257.4375,560.5781 256.75,561.6563 Q256.0625,562.7188 256.0625,564.8125 Q256.0625,566.9063 256.75,567.9844 Q257.4375,569.0469 258.7813,569.0469 Q259.4063,569.0469 260,568.7813 Q260.5938,568.5 261.2188,567.9219 L261.2188,570.6406 Z " fill="#000000"/><text fill="#000000" font-family="sans-serif" font-size="14" lengthAdjust="spacing" textLength="88" x="278.75" y="569.8467">SwipeEvents</text><line style="stroke:#272B30;stroke-width:0.5;" x1="10" x2="603" y1="581" y2="581"/><polygon fill="none" points="20,589.6484,24,593.6484,20,597.6484,16,593.6484" style="stroke:#B38D22;stroke-width:1.0;"/><text fill="#000000" font-family="sans-serif" font-size="14" lengthAdjust="spacing" textLength="180" x="29" y="597.9951">isProviderBased : boolean</text><rect fill="none" height="6" style="stroke:#C82930;stroke-width:1.0;" width="6" x="17" y="607.9453"/><text fill="#000000" font-family="sans-serif" font-size="14" lengthAdjust="spacing" textLength="204" x="29" y="614.292">_gestureMoveEvent : Generic</text><rect fill="none" height="6" style="stroke:#C82930;stroke-width:1.0;" width="6" x="17" y="624.2422"/><text fill="#000000" font-family="sans-serif" font-size="14" lengthAdjust="spacing" textLength="199" x="29" y="630.5889">_gestureStartEvent : Generic</text><rect fill="none" height="6" style="stroke:#C82930;stroke-width:1.0;" width="6" x="17" y="640.5391"/><text fill="#000000" font-family="sans-serif" font-size="14" lengthAdjust="spacing" textLength="232" x="29" y="646.8857">_swipableElement : HTMLElement</text><rect fill="none" height="6" style="stroke:#C82930;stroke-width:1.0;" width="6" x="17" y="656.8359"/><text fill="#000000" font-family="sans-serif" font-size="14" lengthAdjust="spacing" textLength="211" x="29" y="663.1826">_swipeDownCallback : Generic</text><rect fill="none" height="6" style="stroke:#C82930;stroke-width:1.0;" width="6" x="17" y="673.1328"/><text fill="#000000" font-family="sans-serif" font-size="14" lengthAdjust="spacing" textLength="196" x="29" y="679.4795">_swipeLeftCallback : Generic</text><rect fill="none" height="6" style="stroke:#C82930;stroke-width:1.0;" width="6" x="17" y="689.4297"/><text fill="#000000" font-family="sans-serif" font-size="14" lengthAdjust="spacing" textLength="207" x="29" y="695.7764">_swipeRightCallback : Generic</text><rect fill="none" height="6" style="stroke:#C82930;stroke-width:1.0;" width="6" x="17" y="705.7266"/><text fill="#000000" font-family="sans-serif" font-size="14" lengthAdjust="spacing" textLength="190" x="29" y="712.0732">_swipeUpCallback : Generic</text><rect fill="none" height="6" style="stroke:#C82930;stroke-width:1.0;" width="6" x="17" y="722.0234"/><text fill="#000000" font-family="sans-serif" font-size="14" lengthAdjust="spacing" textLength="140" x="29" y="728.3701">_threshold : number</text><rect fill="none" height="6" style="stroke:#C82930;stroke-width:1.0;" width="6" x="17" y="738.3203"/><text fill="#000000" font-family="sans-serif" font-size="14" lengthAdjust="spacing" textLength="125" x="29" y="744.667">_velocity : number</text><line style="stroke:#272B30;stroke-width:0.5;" x1="10" x2="603" y1="751.9688" y2="751.9688"/><ellipse cx="20" cy="765.6172" fill="#84BE84" rx="3" ry="3" style="stroke:#038048;stroke-width:1.0;"/><text fill="#000000" font-family="sans-serif" font-size="14" lengthAdjust="spacing" textLength="84" x="29" y="768.9639">build() : void</text><ellipse cx="20" cy="781.9141" fill="#84BE84" rx="3" ry="3" style="stroke:#038048;stroke-width:1.0;"/><text fill="#000000" font-family="sans-serif" font-size="14" lengthAdjust="spacing" textLength="484" x="29" y="785.2607">changeProperty(propertyName: string, propertyValue: unknown) : void</text><ellipse cx="20" cy="798.2109" fill="#84BE84" rx="3" ry="3" style="stroke:#038048;stroke-width:1.0;"/><text fill="#000000" font-family="sans-serif" font-size="14" lengthAdjust="spacing" textLength="106" x="29" y="801.5576">dispose() : void</text><ellipse cx="20" cy="814.5078" fill="#84BE84" rx="3" ry="3" style="stroke:#038048;stroke-width:1.0;"/><text fill="#000000" font-family="sans-serif" font-size="14" lengthAdjust="spacing" textLength="267" x="29" y="817.8545">equalsToID(patternId: string) : boolean</text><ellipse cx="20" cy="830.8047" fill="#84BE84" rx="3" ry="3" style="stroke:#038048;stroke-width:1.0;"/><text fill="#000000" font-family="sans-serif" font-size="14" lengthAdjust="spacing" textLength="547" x="29" y="834.1514">EventGestureEnd(offsetX: number, offsetY: number, timeTaken: number) : void</text><ellipse cx="20" cy="847.1016" fill="#84BE84" rx="3" ry="3" style="stroke:#038048;stroke-width:1.0;"/><text fill="#000000" font-family="sans-serif" font-size="14" lengthAdjust="spacing" textLength="314" x="29" y="850.4482">EventGestureMove(event: TouchEvent) : void</text><ellipse cx="20" cy="863.3984" fill="#84BE84" rx="3" ry="3" style="stroke:#038048;stroke-width:1.0;"/><text fill="#000000" font-family="sans-serif" font-size="14" lengthAdjust="spacing" textLength="434" x="29" y="866.7451">registerCallback(eventName: string, callback: OSGeneric) : void</text><polygon fill="#FFFF44" points="20,874.6953,24,878.6953,20,882.6953,16,878.6953" style="stroke:#B38D22;stroke-width:1.0;"/><text fill="#000000" font-family="sans-serif" font-size="14" lengthAdjust="spacing" textLength="121" x="29" y="883.042">finishBuild() : void</text><polygon fill="#FFFF44" points="20,890.9922,24,894.9922,20,898.9922,16,894.9922" style="stroke:#B38D22;stroke-width:1.0;"/><text fill="#000000" font-family="sans-serif" font-size="14" lengthAdjust="spacing" textLength="180" x="29" y="899.3389">setA11YProperties() : void</text><polygon fill="#FFFF44" points="20,907.2891,24,911.2891,20,915.2891,16,911.2891" style="stroke:#B38D22;stroke-width:1.0;"/><text fill="#000000" font-family="sans-serif" font-size="14" lengthAdjust="spacing" textLength="138" x="29" y="915.6357">setCallbacks() : void</text><polygon fill="#FFFF44" points="20,923.5859,24,927.5859,20,931.5859,16,927.5859" style="stroke:#B38D22;stroke-width:1.0;"/><text fill="#000000" font-family="sans-serif" font-size="14" lengthAdjust="spacing" textLength="169" x="29" y="931.9326">setHtmlElements() : void</text><polygon fill="#FFFF44" points="20,939.8828,24,943.8828,20,947.8828,16,943.8828" style="stroke:#B38D22;stroke-width:1.0;"/><text fill="#000000" font-family="sans-serif" font-size="14" lengthAdjust="spacing" textLength="569" x="29" y="948.2295">triggerPlatformEventCallback(platFormCallback: OSGeneric, args: unknown[]) : void</text><polygon fill="#FFFF44" points="20,956.1797,24,960.1797,20,964.1797,16,960.1797" style="stroke:#B38D22;stroke-width:1.0;"/><text fill="#000000" font-family="sans-serif" font-size="14" lengthAdjust="spacing" textLength="311" x="29" y="964.5264">triggerPlatformInitializedEventCallback() : void</text><polygon fill="#FFFF44" points="20,972.4766,24,976.4766,20,980.4766,16,976.4766" style="stroke:#B38D22;stroke-width:1.0;"/><text fill="#000000" font-family="sans-serif" font-size="14" lengthAdjust="spacing" textLength="156" x="29" y="980.8232">unsetCallbacks() : void</text><polygon fill="#FFFF44" points="20,988.7734,24,992.7734,20,996.7734,16,992.7734" style="stroke:#B38D22;stroke-width:1.0;"/><text fill="#000000" font-family="sans-serif" font-size="14" lengthAdjust="spacing" textLength="199" x="29" y="997.1201">unsetGlobalCallbacks() : void</text><polygon fill="#FFFF44" points="20,1005.0703,24,1009.0703,20,1013.0703,16,1009.0703" style="stroke:#B38D22;stroke-width:1.0;"/><text fill="#000000" font-family="sans-serif" font-size="14" lengthAdjust="spacing" textLength="187" x="29" y="1013.417">unsetHtmlElements() : void</text><rect fill="#F24D5C" height="6" style="stroke:#C82930;stroke-width:1.0;" width="6" x="17" y="1023.3672"/><text fill="#000000" font-family="sans-serif" font-size="14" lengthAdjust="spacing" textLength="212" x="29" y="1029.7139">_removeEventListeners() : void</text><rect fill="#F24D5C" height="6" style="stroke:#C82930;stroke-width:1.0;" width="6" x="17" y="1039.6641"/><text fill="#000000" font-family="sans-serif" font-size="14" lengthAdjust="spacing" textLength="182" x="29" y="1046.0107">_setEventListeners() : void</text><rect fill="#F24D5C" height="6" style="stroke:#C82930;stroke-width:1.0;" width="6" x="17" y="1055.9609"/><text fill="#000000" font-family="sans-serif" font-size="14" lengthAdjust="spacing" textLength="184" x="29" y="1062.3076">_triggerSwipeDown() : void</text><rect fill="#F24D5C" height="6" style="stroke:#C82930;stroke-width:1.0;" width="6" x="17" y="1072.2578"/><text fill="#000000" font-family="sans-serif" font-size="14" lengthAdjust="spacing" textLength="169" x="29" y="1078.6045">_triggerSwipeLeft() : void</text><rect fill="#F24D5C" height="6" style="stroke:#C82930;stroke-width:1.0;" width="6" x="17" y="1088.5547"/><text fill="#000000" font-family="sans-serif" font-size="14" lengthAdjust="spacing" textLength="180" x="29" y="1094.9014">_triggerSwipeRight() : void</text><rect fill="#F24D5C" height="6" style="stroke:#C82930;stroke-width:1.0;" width="6" x="17" y="1104.8516"/><text fill="#000000" font-family="sans-serif" font-size="14" lengthAdjust="spacing" textLength="163" x="29" y="1111.1982">_triggerSwipeUp() : void</text></g><!--reverse link IPattern to ISwipeEvents--><g id="link_IPattern_ISwipeEvents"><path codeLine="31" d="M306.5,220.24 C306.5,239.52 306.5,241.92 306.5,261.69 " fill="none" id="IPattern-backto-ISwipeEvents" style="stroke:#272B30;stroke-width:1.0;"/><polygon fill="none" points="306.5,202.24,300.5,220.24,312.5,220.24,306.5,202.24" style="stroke:#272B30;stroke-width:1.0;"/></g><!--reverse link ISwipeEvents to SwipeEvents--><g id="link_ISwipeEvents_SwipeEvents"><path codeLine="66" d="M306.5,507.22 C306.5,525.94 306.5,528.08 306.5,548.87 " fill="none" id="ISwipeEvents-backto-SwipeEvents" style="stroke:#272B30;stroke-width:1.0;stroke-dasharray:7.0,7.0;"/><polygon fill="none" points="306.5,489.22,300.5,507.22,312.5,507.22,306.5,489.22" style="stroke:#272B30;stroke-width:1.0;"/></g><!--SRC=[xLHTRzem57tdLrZbXMfGhTsaIQWlXJAAH3SqwBHgcYedlackSEpKTa3Tkly-vulY1BA7FknbUOhFERxNzrElKIHKqPYCETNwIYcv7Kik5UbUVBZmthtjQ5Snaeg1QfTGVnqgcGfMoe8WsDCqQ1_OUqOx4J8W42VcYSHW8idqFXGWS8kWCA02wWCvcIstcC1a0yBe4_AhG-pt9ZzEGPjKmKGmCYHJ4A3GRzAtSWDr7lKeHMuix4d9WOe2ri232OVONhRKpUfsNfuAEXNucC8iywQDGX4My1PP2AO1UzO3wvrQT2EH5PWVKH72Gia4b7dg9UNF9nf3TRbFAlGhvQc5Kx4MSYjSGmnr8ZNKpCDZIhbUoTbr3rbbyBGUfO8GjKtlc7BksIBr8CkM-mQ_v8RayxBCtCxLRwSw2shiGUmgyp-rhqhjNa8ldmU3Mljt_6pmoCc1aUYYji5lx2If4TN0QayRF8Gluv3VhCt4Jh0qL9d32ctTKe_3yK8M6hYsMQroSD0Ap24mxOel64P_aTmbHtaJAT2Hv5aUH1fxe4fY0rpwQ3UDW__ZbagAci-ETrPjuVLa46WmtweW-gG0xby0Wp6iw1f41RdUwokoQDKXMSdKZtBIrR-sjVCU3L2WZaRDN7Vjsw_Ep-_BP2Fe9bzvFa3Tc9YNRLXdxTF24DI2KnD85UUHxM98BFhHekFcm_k4gb3l2lhzHwlPcK23bEDFOAu7zrOgMkB8oIcN7kMjakF13XuKnDLypxDosL0Q6ckYNL36jgmckOtFvhYDpwUuJN2Nz9prvwoso-UpCtVR_G40]--></g></svg>