<?xml version="1.0" encoding="UTF-8" standalone="no"?><svg xmlns="http://www.w3.org/2000/svg" xmlns:xlink="http://www.w3.org/1999/xlink" contentScriptType="application/ecmascript" contentStyleType="text/css" height="938px" preserveAspectRatio="none" style="width:956px;height:938px;background:#CED4DA;" version="1.1" viewBox="0 0 956 938" width="956px" zoomAndPan="magnify"><defs><filter height="300%" id="f1b1syqk6i7b2u" width="300%" x="-1" y="-1"><feGaussianBlur result="blurOut" stdDeviation="2.0"/><feColorMatrix in="blurOut" result="blurOut2" type="matrix" values="0 0 0 0 0 0 0 0 0 0 0 0 0 0 0 0 0 0 .4 0"/><feOffset dx="4.0" dy="4.0" in="blurOut2" result="blurOut3"/><feBlend in="SourceGraphic" in2="blurOut3" mode="normal"/></filter></defs><g><!--MD5=[0eba6ad72cee485a23268172bf76ada7]
class ISwipeEvent--><rect codeLine="7" fill="#FFFFFF" filter="url(#f1b1syqk6i7b2u)" height="99.2188" id="ISwipeEvent" style="stroke:#272B30;stroke-width:1.5;" width="870" x="40.5" y="141"/><ellipse cx="433.25" cy="157" fill="#B4A7E5" rx="11" ry="11" style="stroke:#272B30;stroke-width:1.0;"/><path d="M429.1719,152.7656 L429.1719,150.6094 L436.5625,150.6094 L436.5625,152.7656 L434.0938,152.7656 L434.0938,160.8438 L436.5625,160.8438 L436.5625,163 L429.1719,163 L429.1719,160.8438 L431.6406,160.8438 L431.6406,152.7656 L429.1719,152.7656 Z " fill="#000000"/><text fill="#000000" font-family="sans-serif" font-size="12" font-style="italic" lengthAdjust="spacing" textLength="76" x="453.75" y="161.1543">ISwipeEvent</text><line style="stroke:#272B30;stroke-width:1.5;" x1="41.5" x2="909.5" y1="173" y2="173"/><ellipse cx="51.5" cy="184" rx="3" ry="3" style="stroke:#038048;stroke-width:1.0;fill:none;"/><text fill="#000000" font-family="sans-serif" font-size="11" lengthAdjust="spacing" textLength="200" x="60.5" y="187.2104">gestureEventInstance : SwipeEvent</text><ellipse cx="51.5" cy="196.8047" rx="3" ry="3" style="stroke:#038048;stroke-width:1.0;fill:none;"/><text fill="#000000" font-family="sans-serif" font-size="11" lengthAdjust="spacing" textLength="162" x="60.5" y="200.0151">hasGestureEvents : boolean</text><line style="stroke:#272B30;stroke-width:1.5;" x1="41.5" x2="909.5" y1="206.6094" y2="206.6094"/><ellipse cx="51.5" cy="217.6094" fill="#84BE84" rx="3" ry="3" style="stroke:#038048;stroke-width:1.0;"/><text fill="#000000" font-family="sans-serif" font-size="11" lengthAdjust="spacing" textLength="170" x="60.5" y="220.8198">removeGestureEvents() : void</text><ellipse cx="51.5" cy="230.4141" fill="#84BE84" rx="3" ry="3" style="stroke:#038048;stroke-width:1.0;"/><text fill="#000000" font-family="sans-serif" font-size="11" lengthAdjust="spacing" textLength="844" x="60.5" y="233.6245">setGestureEvents(swipeDownCallback: SwipeDown, swipeLeftCallback: SwipeLeft, swipeRightCallback: SwipeRight, swipeUpCallback: SwipeUp) : any</text><!--MD5=[b77f7276797818d7acc623e8c6b374ab]
class IGestureEvent--><rect codeLine="13" fill="#FFFFFF" filter="url(#f1b1syqk6i7b2u)" height="73.6094" id="IGestureEvent" style="stroke:#272B30;stroke-width:1.5;" width="196" x="377.5" y="7"/><ellipse cx="427.25" cy="23" fill="#B4A7E5" rx="11" ry="11" style="stroke:#272B30;stroke-width:1.0;"/><path d="M423.1719,18.7656 L423.1719,16.6094 L430.5625,16.6094 L430.5625,18.7656 L428.0938,18.7656 L428.0938,26.8438 L430.5625,26.8438 L430.5625,29 L423.1719,29 L423.1719,26.8438 L425.6406,26.8438 L425.6406,18.7656 L423.1719,18.7656 Z " fill="#000000"/><text fill="#000000" font-family="sans-serif" font-size="12" font-style="italic" lengthAdjust="spacing" textLength="88" x="447.75" y="27.1543">IGestureEvent</text><line style="stroke:#272B30;stroke-width:1.5;" x1="378.5" x2="572.5" y1="39" y2="39"/><ellipse cx="388.5" cy="50" rx="3" ry="3" style="stroke:#038048;stroke-width:1.0;fill:none;"/><text fill="#000000" font-family="sans-serif" font-size="11" lengthAdjust="spacing" textLength="162" x="397.5" y="53.2104">hasGestureEvents : boolean</text><line style="stroke:#272B30;stroke-width:1.5;" x1="378.5" x2="572.5" y1="59.8047" y2="59.8047"/><ellipse cx="388.5" cy="70.8047" fill="#84BE84" rx="3" ry="3" style="stroke:#038048;stroke-width:1.0;"/><text fill="#000000" font-family="sans-serif" font-size="11" lengthAdjust="spacing" textLength="170" x="397.5" y="74.0151">removeGestureEvents() : void</text><!--MD5=[76b5e19c9337179d2d7ae334371d68c8]
class Notification--><rect codeLine="18" fill="#FFFFFF" filter="url(#f1b1syqk6i7b2u)" height="624.2109" id="Notification" style="stroke:#272B30;stroke-width:1.5;" width="933" x="9" y="300"/><ellipse cx="435.75" cy="316" fill="#ADD1B2" rx="11" ry="11" style="stroke:#272B30;stroke-width:1.0;"/><path d="M438.7188,321.6406 Q438.1406,321.9375 437.5,322.0781 Q436.8594,322.2344 436.1563,322.2344 Q433.6563,322.2344 432.3281,320.5938 Q431.0156,318.9375 431.0156,315.8125 Q431.0156,312.6875 432.3281,311.0313 Q433.6563,309.375 436.1563,309.375 Q436.8594,309.375 437.5,309.5313 Q438.1563,309.6875 438.7188,309.9844 L438.7188,312.7031 Q438.0938,312.125 437.5,311.8594 Q436.9063,311.5781 436.2813,311.5781 Q434.9375,311.5781 434.25,312.6563 Q433.5625,313.7188 433.5625,315.8125 Q433.5625,317.9063 434.25,318.9844 Q434.9375,320.0469 436.2813,320.0469 Q436.9063,320.0469 437.5,319.7813 Q438.0938,319.5 438.7188,318.9219 L438.7188,321.6406 Z " fill="#000000"/><text fill="#000000" font-family="sans-serif" font-size="12" lengthAdjust="spacing" textLength="71" x="456.25" y="320.1543">Notification</text><line style="stroke:#272B30;stroke-width:1.5;" x1="10" x2="941" y1="332" y2="332"/><rect fill="none" height="6" style="stroke:#C82930;stroke-width:1.0;" width="6" x="17" y="340"/><text fill="#000000" font-family="sans-serif" font-size="11" lengthAdjust="spacing" textLength="135" x="29" y="346.2104">_eventOnClick : Generic</text><rect fill="none" height="6" style="stroke:#C82930;stroke-width:1.0;" width="6" x="17" y="352.8047"/><text fill="#000000" font-family="sans-serif" font-size="11" lengthAdjust="spacing" textLength="162" x="29" y="359.0151">_eventOnKeypress : Generic</text><rect fill="none" height="6" style="stroke:#C82930;stroke-width:1.0;" width="6" x="17" y="365.6094"/><text fill="#000000" font-family="sans-serif" font-size="11" lengthAdjust="spacing" textLength="109" x="29" y="371.8198">_eventType : string</text><rect fill="none" height="6" style="stroke:#C82930;stroke-width:1.0;" width="6" x="17" y="378.4141"/><text fill="#000000" font-family="sans-serif" font-size="11" lengthAdjust="spacing" textLength="228" x="29" y="384.6245">_focusableActiveElement : HTMLElement</text><rect fill="none" height="6" style="stroke:#C82930;stroke-width:1.0;" width="6" x="17" y="391.2188"/><text fill="#000000" font-family="sans-serif" font-size="11" lengthAdjust="spacing" textLength="182" x="29" y="397.4292">_focusTrapInstance : FocusTrap</text><rect fill="none" height="6" style="stroke:#C82930;stroke-width:1.0;" width="6" x="17" y="404.0234"/><text fill="#000000" font-family="sans-serif" font-size="11" lengthAdjust="spacing" textLength="206" x="29" y="410.2339">_gestureEventInstance : SwipeEvent</text><rect fill="none" height="6" style="stroke:#C82930;stroke-width:1.0;" width="6" x="17" y="416.8281"/><text fill="#000000" font-family="sans-serif" font-size="11" lengthAdjust="spacing" textLength="168" x="29" y="423.0386">_hasGestureEvents : boolean</text><rect fill="none" height="6" style="stroke:#C82930;stroke-width:1.0;" width="6" x="17" y="429.6328"/><text fill="#000000" font-family="sans-serif" font-size="11" lengthAdjust="spacing" textLength="103" x="29" y="435.8433">_isOpen : boolean</text><rect fill="none" height="6" style="stroke:#C82930;stroke-width:1.0;" width="6" x="17" y="442.4375"/><text fill="#000000" font-family="sans-serif" font-size="11" lengthAdjust="spacing" textLength="153" x="29" y="448.6479">_parentSelf : HTMLElement</text><rect fill="none" height="6" style="stroke:#C82930;stroke-width:1.0;" width="6" x="17" y="455.2422"/><text fill="#000000" font-family="sans-serif" font-size="11" lengthAdjust="spacing" textLength="258" x="29" y="461.4526">_platformEventOnInitialize : OSInitializedEvent</text><rect fill="none" height="6" style="stroke:#C82930;stroke-width:1.0;" width="6" x="17" y="468.0469"/><text fill="#000000" font-family="sans-serif" font-size="11" lengthAdjust="spacing" textLength="253" x="29" y="474.2573">_platformEventOnToggle : OSOnToggleEvent</text><line style="stroke:#272B30;stroke-width:1.5;" x1="10" x2="941" y1="480.8516" y2="480.8516"/><ellipse cx="20" cy="491.8516" fill="#84BE84" rx="3" ry="3" style="stroke:#038048;stroke-width:1.0;"/><text fill="#000000" font-family="sans-serif" font-size="11" lengthAdjust="spacing" textLength="70" x="29" y="495.062">build() : void</text><ellipse cx="20" cy="504.6563" fill="#84BE84" rx="3" ry="3" style="stroke:#038048;stroke-width:1.0;"/><text fill="#000000" font-family="sans-serif" font-size="11" lengthAdjust="spacing" textLength="369" x="29" y="507.8667">changeProperty(propertyName: string, propertyValue: any) : void</text><ellipse cx="20" cy="517.4609" fill="#84BE84" rx="3" ry="3" style="stroke:#038048;stroke-width:1.0;"/><text fill="#000000" font-family="sans-serif" font-size="11" lengthAdjust="spacing" textLength="88" x="29" y="520.6714">dispose() : void</text><ellipse cx="20" cy="530.2656" fill="#84BE84" rx="3" ry="3" style="stroke:#038048;stroke-width:1.0;"/><text fill="#000000" font-family="sans-serif" font-size="11" lengthAdjust="spacing" textLength="220" x="29" y="533.4761">equalsToID(patternId: string) : boolean</text><ellipse cx="20" cy="543.0703" fill="#84BE84" rx="3" ry="3" style="stroke:#038048;stroke-width:1.0;"/><text fill="#000000" font-family="sans-serif" font-size="11" lengthAdjust="spacing" textLength="67" x="29" y="546.2808">hide() : void</text><ellipse cx="20" cy="555.875" fill="#84BE84" rx="3" ry="3" style="stroke:#038048;stroke-width:1.0;"/><text fill="#000000" font-family="sans-serif" font-size="11" lengthAdjust="spacing" textLength="132" x="29" y="559.0854">onSwipeBottom() : void</text><ellipse cx="20" cy="568.6797" fill="#84BE84" rx="3" ry="3" style="stroke:#038048;stroke-width:1.0;"/><text fill="#000000" font-family="sans-serif" font-size="11" lengthAdjust="spacing" textLength="112" x="29" y="571.8901">onSwipeLeft() : void</text><ellipse cx="20" cy="581.4844" fill="#84BE84" rx="3" ry="3" style="stroke:#038048;stroke-width:1.0;"/><text fill="#000000" font-family="sans-serif" font-size="11" lengthAdjust="spacing" textLength="119" x="29" y="584.6948">onSwipeRight() : void</text><ellipse cx="20" cy="594.2891" fill="#84BE84" rx="3" ry="3" style="stroke:#038048;stroke-width:1.0;"/><text fill="#000000" font-family="sans-serif" font-size="11" lengthAdjust="spacing" textLength="106" x="29" y="597.4995">onSwipeUp() : void</text><ellipse cx="20" cy="607.0938" fill="#84BE84" rx="3" ry="3" style="stroke:#038048;stroke-width:1.0;"/><text fill="#000000" font-family="sans-serif" font-size="11" lengthAdjust="spacing" textLength="362" x="29" y="610.3042">registerCallback(eventName: string, callback: OSGeneric) : void</text><ellipse cx="20" cy="619.8984" fill="#84BE84" rx="3" ry="3" style="stroke:#038048;stroke-width:1.0;"/><text fill="#000000" font-family="sans-serif" font-size="11" lengthAdjust="spacing" textLength="170" x="29" y="623.1089">removeGestureEvents() : void</text><ellipse cx="20" cy="632.7031" fill="#84BE84" rx="3" ry="3" style="stroke:#038048;stroke-width:1.0;"/><text fill="#000000" font-family="sans-serif" font-size="11" lengthAdjust="spacing" textLength="73" x="29" y="635.9136">show() : void</text><polygon fill="#FFFF44" points="20,640.5078,24,644.5078,20,648.5078,16,644.5078" style="stroke:#B38D22;stroke-width:1.0;"/><text fill="#000000" font-family="sans-serif" font-size="11" lengthAdjust="spacing" textLength="102" x="29" y="648.7183">finishBuild() : void</text><polygon fill="#FFFF44" points="20,653.3125,24,657.3125,20,661.3125,16,657.3125" style="stroke:#B38D22;stroke-width:1.0;"/><text fill="#000000" font-family="sans-serif" font-size="11" lengthAdjust="spacing" textLength="148" x="29" y="661.5229">setA11YProperties() : void</text><polygon fill="#FFFF44" points="20,666.1172,24,670.1172,20,674.1172,16,670.1172" style="stroke:#B38D22;stroke-width:1.0;"/><text fill="#000000" font-family="sans-serif" font-size="11" lengthAdjust="spacing" textLength="115" x="29" y="674.3276">setCallbacks() : void</text><polygon fill="#FFFF44" points="20,678.9219,24,682.9219,20,686.9219,16,682.9219" style="stroke:#B38D22;stroke-width:1.0;"/><text fill="#000000" font-family="sans-serif" font-size="11" lengthAdjust="spacing" textLength="907" x="29" y="687.1323">setGestureEvents(onSwipeDownCallback: SwipeDown, onSwipeLeftCallback: SwipeLeft, onSwipeRightCallback: SwipeRight, onSwipeUpCallback: SwipeUp) : void</text><polygon fill="#FFFF44" points="20,691.7266,24,695.7266,20,699.7266,16,695.7266" style="stroke:#B38D22;stroke-width:1.0;"/><text fill="#000000" font-family="sans-serif" font-size="11" lengthAdjust="spacing" textLength="140" x="29" y="699.937">setHtmlElements() : void</text><polygon fill="#FFFF44" points="20,704.5313,24,708.5313,20,712.5313,16,708.5313" style="stroke:#B38D22;stroke-width:1.0;"/><text fill="#000000" font-family="sans-serif" font-size="11" lengthAdjust="spacing" textLength="128" x="29" y="712.7417">setInitialStates() : void</text><polygon fill="#FFFF44" points="20,717.3359,24,721.3359,20,725.3359,16,721.3359" style="stroke:#B38D22;stroke-width:1.0;"/><text fill="#000000" font-family="sans-serif" font-size="11" lengthAdjust="spacing" textLength="129" x="29" y="725.5464">unsetCallbacks() : void</text><polygon fill="#FFFF44" points="20,730.1406,24,734.1406,20,738.1406,16,734.1406" style="stroke:#B38D22;stroke-width:1.0;"/><text fill="#000000" font-family="sans-serif" font-size="11" lengthAdjust="spacing" textLength="154" x="29" y="738.3511">unsetHtmlElements() : void</text><rect fill="#F24D5C" height="6" style="stroke:#C82930;stroke-width:1.0;" width="6" x="17" y="744.9453"/><text fill="#000000" font-family="sans-serif" font-size="11" lengthAdjust="spacing" textLength="169" x="29" y="751.1558">_autoCloseNotification() : void</text><rect fill="#F24D5C" height="6" style="stroke:#C82930;stroke-width:1.0;" width="6" x="17" y="757.75"/><text fill="#000000" font-family="sans-serif" font-size="11" lengthAdjust="spacing" textLength="203" x="29" y="763.9604">_clickCallback(e: MouseEvent) : void</text><rect fill="#F24D5C" height="6" style="stroke:#C82930;stroke-width:1.0;" width="6" x="17" y="770.5547"/><text fill="#000000" font-family="sans-serif" font-size="11" lengthAdjust="spacing" textLength="146" x="29" y="776.7651">_handleFocusTrap() : void</text><rect fill="#F24D5C" height="6" style="stroke:#C82930;stroke-width:1.0;" width="6" x="17" y="783.3594"/><text fill="#000000" font-family="sans-serif" font-size="11" lengthAdjust="spacing" textLength="171" x="29" y="789.5698">_handleGestureEvents() : void</text><rect fill="#F24D5C" height="6" style="stroke:#C82930;stroke-width:1.0;" width="6" x="17" y="796.1641"/><text fill="#000000" font-family="sans-serif" font-size="11" lengthAdjust="spacing" textLength="136" x="29" y="802.3745">_hideNotification() : void</text><rect fill="#F24D5C" height="6" style="stroke:#C82930;stroke-width:1.0;" width="6" x="17" y="808.9688"/><text fill="#000000" font-family="sans-serif" font-size="11" lengthAdjust="spacing" textLength="247" x="29" y="815.1792">_keypressCallback(e: KeyboardEvent) : void</text><rect fill="#F24D5C" height="6" style="stroke:#C82930;stroke-width:1.0;" width="6" x="17" y="821.7734"/><text fill="#000000" font-family="sans-serif" font-size="11" lengthAdjust="spacing" textLength="130" x="29" y="827.9839">_removeEvents() : void</text><rect fill="#F24D5C" height="6" style="stroke:#C82930;stroke-width:1.0;" width="6" x="17" y="834.5781"/><text fill="#000000" font-family="sans-serif" font-size="11" lengthAdjust="spacing" textLength="142" x="29" y="840.7886">_showNotification() : void</text><rect fill="#F24D5C" height="6" style="stroke:#C82930;stroke-width:1.0;" width="6" x="17" y="847.3828"/><text fill="#000000" font-family="sans-serif" font-size="11" lengthAdjust="spacing" textLength="265" x="29" y="853.5933">_triggerOnToggleEvent(isOpen: boolean) : void</text><rect fill="#F24D5C" height="6" style="stroke:#C82930;stroke-width:1.0;" width="6" x="17" y="860.1875"/><text fill="#000000" font-family="sans-serif" font-size="11" lengthAdjust="spacing" textLength="174" x="29" y="866.3979">_updateA11yProperties() : void</text><rect fill="#F24D5C" height="6" style="stroke:#C82930;stroke-width:1.0;" width="6" x="17" y="872.9922"/><text fill="#000000" font-family="sans-serif" font-size="11" lengthAdjust="spacing" textLength="257" x="29" y="879.2026">_updateCloseAfterTime(value: number) : void</text><rect fill="#F24D5C" height="6" style="stroke:#C82930;stroke-width:1.0;" width="6" x="17" y="885.7969"/><text fill="#000000" font-family="sans-serif" font-size="11" lengthAdjust="spacing" textLength="260" x="29" y="892.0073">_updateInteractToClose(value: boolean) : void</text><rect fill="#F24D5C" height="6" style="stroke:#C82930;stroke-width:1.0;" width="6" x="17" y="898.6016"/><text fill="#000000" font-family="sans-serif" font-size="11" lengthAdjust="spacing" textLength="219" x="29" y="904.812">_updatePosition(position: string) : void</text><rect fill="#F24D5C" height="6" style="stroke:#C82930;stroke-width:1.0;" width="6" x="17" y="911.4063"/><text fill="#000000" font-family="sans-serif" font-size="11" lengthAdjust="spacing" textLength="189" x="29" y="917.6167">_updateWidth(width: string) : void</text><!--MD5=[0e3d197200cefb56de74e54ea9bc132b]
reverse link IGestureEvent to ISwipeEvent--><path codeLine="17" d="M475.5,101.35 C475.5,114.38 475.5,128.13 475.5,140.8 " fill="none" id="IGestureEvent-backto-ISwipeEvent" style="stroke:#272B30;stroke-width:1.0;"/><polygon fill="none" points="468.5,101.09,475.5,81.09,482.5,101.09,468.5,101.09" style="stroke:#272B30;stroke-width:1.0;"/><!--MD5=[06948f93ca94cfdf9aee06c2ac99690e]
reverse link ISwipeEvent to Notification--><path codeLine="65" d="M475.5,260.04 C475.5,272.26 475.5,285.69 475.5,299.93 " fill="none" id="ISwipeEvent-backto-Notification" style="stroke:#272B30;stroke-width:1.0;stroke-dasharray:7.0,7.0;"/><polygon fill="none" points="468.5,260.03,475.5,240.03,482.5,260.03,468.5,260.03" style="stroke:#272B30;stroke-width:1.0;"/><!--MD5=[6f7f58aec130f8538b61d86ae3bb4dc3]
@startuml
skinparam ClassArrowColor #272b30
skinparam ClassBorderColor #272b30
skinparam ClassBackgroundColor #fff
skinparam BackgroundColor #ced4da
hide empty methods
hide empty fields
interface "ISwipeEvent" {
    +gestureEventInstance : SwipeEvent
    +hasGestureEvents : boolean
    +removeGestureEvents() : void
    +setGestureEvents(swipeDownCallback: SwipeDown, swipeLeftCallback: SwipeLeft, swipeRightCallback: SwipeRight, swipeUpCallback: SwipeUp) : any
}
interface "IGestureEvent" {
    +hasGestureEvents : boolean
    +removeGestureEvents() : void
}
"IGestureEvent" <|- - "ISwipeEvent"
class "Notification" {
    -_eventOnClick : Generic
    -_eventOnKeypress : Generic
    -_eventType : string
    -_focusableActiveElement : HTMLElement
    -_focusTrapInstance : FocusTrap
    -_gestureEventInstance : SwipeEvent
    -_hasGestureEvents : boolean
    -_isOpen : boolean
    -_parentSelf : HTMLElement
    -_platformEventOnInitialize : OSInitializedEvent
    -_platformEventOnToggle : OSOnToggleEvent
    +build() : void
    +changeProperty(propertyName: string, propertyValue: any) : void
    +dispose() : void
    +equalsToID(patternId: string) : boolean
    +hide() : void
    +onSwipeBottom() : void
    +onSwipeLeft() : void
    +onSwipeRight() : void
    +onSwipeUp() : void
    +registerCallback(eventName: string, callback: OSGeneric) : void
    +removeGestureEvents() : void
    +show() : void
    #finishBuild() : void
    #setA11YProperties() : void
    #setCallbacks() : void
    #setGestureEvents(onSwipeDownCallback: SwipeDown, onSwipeLeftCallback: SwipeLeft, onSwipeRightCallback: SwipeRight, onSwipeUpCallback: SwipeUp) : void
    #setHtmlElements() : void
    #setInitialStates() : void
    #unsetCallbacks() : void
    #unsetHtmlElements() : void
    -_autoCloseNotification() : void
    -_clickCallback(e: MouseEvent) : void
    -_handleFocusTrap() : void
    -_handleGestureEvents() : void
    -_hideNotification() : void
    -_keypressCallback(e: KeyboardEvent) : void
    -_removeEvents() : void
    -_showNotification() : void
    -_triggerOnToggleEvent(isOpen: boolean) : void
    -_updateA11yProperties() : void
    -_updateCloseAfterTime(value: number) : void
    -_updateInteractToClose(value: boolean) : void
    -_updatePosition(position: string) : void
    -_updateWidth(width: string) : void
}
"ISwipeEvent" <|.. "Notification"
@enduml

PlantUML version 1.2021.14(Fri Nov 12 16:46:50 UTC 2021)
(GPL source distribution)
Java Runtime: OpenJDK Runtime Environment
JVM: OpenJDK 64-Bit Server VM
Default Encoding: UTF-8
Language: en
Country: null
--></g></svg>