<?xml version="1.0" encoding="us-ascii" standalone="no"?><svg xmlns="http://www.w3.org/2000/svg" xmlns:xlink="http://www.w3.org/1999/xlink" contentStyleType="text/css" height="1382px" preserveAspectRatio="none" style="width:693px;height:1382px;background:#CED4DA;" version="1.1" viewBox="0 0 693 1382" width="693px" zoomAndPan="magnify"><defs/><g><rect fill="#CED4DA" height="1382" style="stroke:none;stroke-width:1.0;" width="693" x="0" y="0"/><!--class ITabsHeaderItem--><g id="elem_ITabsHeaderItem"><rect codeLine="7" fill="#FFFFFF" height="410.7422" id="ITabsHeaderItem" rx="2.5" ry="2.5" style="stroke:#272B30;stroke-width:0.5;" width="508" x="93.5" y="329"/><ellipse cx="285.25" cy="345" fill="#B4A7E5" rx="11" ry="11" style="stroke:#181818;stroke-width:1.0;"/><path d="M281.6777,341.2651 L281.6777,339.1069 L289.0571,339.1069 L289.0571,341.2651 L286.5918,341.2651 L286.5918,349.3418 L289.0571,349.3418 L289.0571,351.5 L281.6777,351.5 L281.6777,349.3418 L284.1431,349.3418 L284.1431,341.2651 Z " fill="#000000"/><text fill="#000000" font-family="sans-serif" font-size="14" font-style="italic" lengthAdjust="spacing" textLength="116" x="305.75" y="350.291">ITabsHeaderItem</text><line style="stroke:#272B30;stroke-width:0.5;" x1="94.5" x2="600.5" y1="361" y2="361"/><ellipse cx="104.5" cy="374.7441" fill="none" rx="3" ry="3" style="stroke:#038048;stroke-width:1.0;"/><text fill="#000000" font-family="sans-serif" font-size="14" lengthAdjust="spacing" textLength="120" x="113.5" y="378.5352">IsActive : boolean</text><ellipse cx="104.5" cy="391.2324" fill="none" rx="3" ry="3" style="stroke:#038048;stroke-width:1.0;"/><text fill="#000000" font-family="sans-serif" font-size="14" lengthAdjust="spacing" textLength="109" x="113.5" y="395.0234">isBuilt : boolean</text><ellipse cx="104.5" cy="407.7207" fill="none" rx="3" ry="3" style="stroke:#038048;stroke-width:1.0;"/><text fill="#000000" font-family="sans-serif" font-size="14" lengthAdjust="spacing" textLength="184" x="113.5" y="411.5117">selfElement : HTMLElement</text><ellipse cx="104.5" cy="424.209" fill="none" rx="3" ry="3" style="stroke:#038048;stroke-width:1.0;"/><text fill="#000000" font-family="sans-serif" font-size="14" lengthAdjust="spacing" textLength="113" x="113.5" y="428">uniqueId : string</text><ellipse cx="104.5" cy="440.6973" fill="none" rx="3" ry="3" style="stroke:#038048;stroke-width:1.0;"/><text fill="#000000" font-family="sans-serif" font-size="14" lengthAdjust="spacing" textLength="111" x="113.5" y="444.4883">widgetId : string</text><line style="stroke:#272B30;stroke-width:0.5;" x1="94.5" x2="600.5" y1="451.4414" y2="451.4414"/><ellipse cx="104.5" cy="465.1855" fill="#84BE84" rx="3" ry="3" style="stroke:#038048;stroke-width:1.0;"/><text fill="#000000" font-family="sans-serif" font-size="14" lengthAdjust="spacing" textLength="86" x="113.5" y="468.9766">build() : void</text><ellipse cx="104.5" cy="481.6738" fill="#84BE84" rx="3" ry="3" style="stroke:#038048;stroke-width:1.0;"/><text fill="#000000" font-family="sans-serif" font-size="14" lengthAdjust="spacing" textLength="482" x="113.5" y="485.4648">changeProperty(propertyName: string, propertyValue: unknown) : void</text><ellipse cx="104.5" cy="498.1621" fill="#84BE84" rx="3" ry="3" style="stroke:#038048;stroke-width:1.0;"/><text fill="#000000" font-family="sans-serif" font-size="14" lengthAdjust="spacing" textLength="100" x="113.5" y="501.9531">disable() : void</text><ellipse cx="104.5" cy="514.6504" fill="#84BE84" rx="3" ry="3" style="stroke:#038048;stroke-width:1.0;"/><text fill="#000000" font-family="sans-serif" font-size="14" lengthAdjust="spacing" textLength="104" x="113.5" y="518.4414">dispose() : void</text><ellipse cx="104.5" cy="531.1387" fill="#84BE84" rx="3" ry="3" style="stroke:#038048;stroke-width:1.0;"/><text fill="#000000" font-family="sans-serif" font-size="14" lengthAdjust="spacing" textLength="97" x="113.5" y="534.9297">enable() : void</text><ellipse cx="104.5" cy="547.627" fill="#84BE84" rx="3" ry="3" style="stroke:#038048;stroke-width:1.0;"/><text fill="#000000" font-family="sans-serif" font-size="14" lengthAdjust="spacing" textLength="216" x="113.5" y="551.418">equalsToID(id: string) : boolean</text><ellipse cx="104.5" cy="564.1152" fill="#84BE84" rx="3" ry="3" style="stroke:#038048;stroke-width:1.0;"/><text fill="#000000" font-family="sans-serif" font-size="14" lengthAdjust="spacing" textLength="155" x="113.5" y="567.9063">getDataTab() : number</text><ellipse cx="104.5" cy="580.6035" fill="#84BE84" rx="3" ry="3" style="stroke:#038048;stroke-width:1.0;"/><text fill="#000000" font-family="sans-serif" font-size="14" lengthAdjust="spacing" textLength="428" x="113.5" y="584.3945">registerCallback(eventName: string, callback: OSGeneric) : void</text><ellipse cx="104.5" cy="597.0918" fill="#84BE84" rx="3" ry="3" style="stroke:#038048;stroke-width:1.0;"/><text fill="#000000" font-family="sans-serif" font-size="14" lengthAdjust="spacing" textLength="362" x="113.5" y="600.8828">setAriaControlsAttribute(contentItemId: string) : void</text><ellipse cx="104.5" cy="613.5801" fill="#84BE84" rx="3" ry="3" style="stroke:#038048;stroke-width:1.0;"/><text fill="#000000" font-family="sans-serif" font-size="14" lengthAdjust="spacing" textLength="98" x="113.5" y="617.3711">setBlur() : void</text><ellipse cx="104.5" cy="630.0684" fill="#84BE84" rx="3" ry="3" style="stroke:#038048;stroke-width:1.0;"/><text fill="#000000" font-family="sans-serif" font-size="14" lengthAdjust="spacing" textLength="246" x="113.5" y="633.8594">setDataTab(dataTab: number) : void</text><ellipse cx="104.5" cy="646.5566" fill="#84BE84" rx="3" ry="3" style="stroke:#038048;stroke-width:1.0;"/><text fill="#000000" font-family="sans-serif" font-size="14" lengthAdjust="spacing" textLength="111" x="113.5" y="650.3477">setFocus() : void</text><ellipse cx="104.5" cy="663.0449" fill="#84BE84" rx="3" ry="3" style="stroke:#038048;stroke-width:1.0;"/><text fill="#000000" font-family="sans-serif" font-size="14" lengthAdjust="spacing" textLength="123" x="113.5" y="666.8359">setIsActive() : void</text><ellipse cx="104.5" cy="679.5332" fill="#84BE84" rx="3" ry="3" style="stroke:#038048;stroke-width:1.0;"/><text fill="#000000" font-family="sans-serif" font-size="14" lengthAdjust="spacing" textLength="136" x="113.5" y="683.3242">setTabindex() : void</text><ellipse cx="104.5" cy="696.0215" fill="#84BE84" rx="3" ry="3" style="stroke:#038048;stroke-width:1.0;"/><text fill="#000000" font-family="sans-serif" font-size="14" lengthAdjust="spacing" textLength="141" x="113.5" y="699.8125">unsetIsActive() : void</text><ellipse cx="104.5" cy="712.5098" fill="#84BE84" rx="3" ry="3" style="stroke:#038048;stroke-width:1.0;"/><text fill="#000000" font-family="sans-serif" font-size="14" lengthAdjust="spacing" textLength="154" x="113.5" y="716.3008">unsetTabindex() : void</text><ellipse cx="104.5" cy="728.998" fill="#84BE84" rx="3" ry="3" style="stroke:#038048;stroke-width:1.0;"/><text fill="#000000" font-family="sans-serif" font-size="14" lengthAdjust="spacing" textLength="168" x="113.5" y="732.7891">updateOnRender() : void</text></g><!--class IChild--><g id="elem_IChild"><rect codeLine="31" fill="#FFFFFF" height="262.3477" id="IChild" rx="2.5" ry="2.5" style="stroke:#272B30;stroke-width:0.5;" width="508" x="93.5" y="7"/><ellipse cx="323.25" cy="23" fill="#B4A7E5" rx="11" ry="11" style="stroke:#181818;stroke-width:1.0;"/><path d="M319.6777,19.2651 L319.6777,17.1069 L327.0571,17.1069 L327.0571,19.2651 L324.5918,19.2651 L324.5918,27.3418 L327.0571,27.3418 L327.0571,29.5 L319.6777,29.5 L319.6777,27.3418 L322.1431,27.3418 L322.1431,19.2651 Z " fill="#000000"/><text fill="#000000" font-family="sans-serif" font-size="14" font-style="italic" lengthAdjust="spacing" textLength="40" x="343.75" y="28.291">IChild</text><line style="stroke:#272B30;stroke-width:0.5;" x1="94.5" x2="600.5" y1="39" y2="39"/><ellipse cx="104.5" cy="52.7441" fill="none" rx="3" ry="3" style="stroke:#038048;stroke-width:1.0;"/><text fill="#000000" font-family="sans-serif" font-size="14" lengthAdjust="spacing" textLength="109" x="113.5" y="56.5352">isBuilt : boolean</text><ellipse cx="104.5" cy="69.2324" fill="none" rx="3" ry="3" style="stroke:#038048;stroke-width:1.0;"/><text fill="#000000" font-family="sans-serif" font-size="14" lengthAdjust="spacing" textLength="184" x="113.5" y="73.0234">selfElement : HTMLElement</text><ellipse cx="104.5" cy="85.7207" fill="none" rx="3" ry="3" style="stroke:#038048;stroke-width:1.0;"/><text fill="#000000" font-family="sans-serif" font-size="14" lengthAdjust="spacing" textLength="113" x="113.5" y="89.5117">uniqueId : string</text><ellipse cx="104.5" cy="102.209" fill="none" rx="3" ry="3" style="stroke:#038048;stroke-width:1.0;"/><text fill="#000000" font-family="sans-serif" font-size="14" lengthAdjust="spacing" textLength="111" x="113.5" y="106">widgetId : string</text><line style="stroke:#272B30;stroke-width:0.5;" x1="94.5" x2="600.5" y1="112.9531" y2="112.9531"/><ellipse cx="104.5" cy="126.6973" fill="#84BE84" rx="3" ry="3" style="stroke:#038048;stroke-width:1.0;"/><text fill="#000000" font-family="sans-serif" font-size="14" lengthAdjust="spacing" textLength="86" x="113.5" y="130.4883">build() : void</text><ellipse cx="104.5" cy="143.1855" fill="#84BE84" rx="3" ry="3" style="stroke:#038048;stroke-width:1.0;"/><text fill="#000000" font-family="sans-serif" font-size="14" lengthAdjust="spacing" textLength="482" x="113.5" y="146.9766">changeProperty(propertyName: string, propertyValue: unknown) : void</text><ellipse cx="104.5" cy="159.6738" fill="#84BE84" rx="3" ry="3" style="stroke:#038048;stroke-width:1.0;"/><text fill="#000000" font-family="sans-serif" font-size="14" lengthAdjust="spacing" textLength="104" x="113.5" y="163.4648">dispose() : void</text><ellipse cx="104.5" cy="176.1621" fill="#84BE84" rx="3" ry="3" style="stroke:#038048;stroke-width:1.0;"/><text fill="#000000" font-family="sans-serif" font-size="14" lengthAdjust="spacing" textLength="216" x="113.5" y="179.9531">equalsToID(id: string) : boolean</text><ellipse cx="104.5" cy="192.6504" fill="#84BE84" rx="3" ry="3" style="stroke:#038048;stroke-width:1.0;"/><text fill="#000000" font-family="sans-serif" font-size="14" lengthAdjust="spacing" textLength="428" x="113.5" y="196.4414">registerCallback(eventName: string, callback: OSGeneric) : void</text><ellipse cx="104.5" cy="209.1387" fill="#84BE84" rx="3" ry="3" style="stroke:#038048;stroke-width:1.0;"/><text fill="#000000" font-family="sans-serif" font-size="14" lengthAdjust="spacing" textLength="98" x="113.5" y="212.9297">setBlur() : void</text><ellipse cx="104.5" cy="225.627" fill="#84BE84" rx="3" ry="3" style="stroke:#038048;stroke-width:1.0;"/><text fill="#000000" font-family="sans-serif" font-size="14" lengthAdjust="spacing" textLength="111" x="113.5" y="229.418">setFocus() : void</text><ellipse cx="104.5" cy="242.1152" fill="#84BE84" rx="3" ry="3" style="stroke:#038048;stroke-width:1.0;"/><text fill="#000000" font-family="sans-serif" font-size="14" lengthAdjust="spacing" textLength="136" x="113.5" y="245.9063">setTabindex() : void</text><ellipse cx="104.5" cy="258.6035" fill="#84BE84" rx="3" ry="3" style="stroke:#038048;stroke-width:1.0;"/><text fill="#000000" font-family="sans-serif" font-size="14" lengthAdjust="spacing" textLength="154" x="113.5" y="262.3945">unsetTabindex() : void</text></g><!--class TabsHeaderItem--><g id="elem_TabsHeaderItem"><rect codeLine="47" fill="#FFFFFF" height="575.625" id="TabsHeaderItem" rx="2.5" ry="2.5" style="stroke:#272B30;stroke-width:0.5;" width="677" x="9" y="800"/><ellipse cx="287.25" cy="816" fill="#ADD1B2" rx="11" ry="11" style="stroke:#181818;stroke-width:1.0;"/><path d="M289.7231,822.1431 Q289.1421,822.4419 288.5029,822.5913 Q287.8638,822.7407 287.1582,822.7407 Q284.6514,822.7407 283.3315,821.0889 Q282.0117,819.437 282.0117,816.3159 Q282.0117,813.1865 283.3315,811.5347 Q284.6514,809.8828 287.1582,809.8828 Q287.8638,809.8828 288.5112,810.0322 Q289.1587,810.1816 289.7231,810.4805 L289.7231,813.2031 Q289.0923,812.6221 288.4988,812.3523 Q287.9053,812.0825 287.2744,812.0825 Q285.9297,812.0825 285.2449,813.1492 Q284.5601,814.2158 284.5601,816.3159 Q284.5601,818.4077 285.2449,819.4744 Q285.9297,820.541 287.2744,820.541 Q287.9053,820.541 288.4988,820.2712 Q289.0923,820.0015 289.7231,819.4204 Z " fill="#000000"/><text fill="#000000" font-family="sans-serif" font-size="14" lengthAdjust="spacing" textLength="112" x="307.75" y="821.291">TabsHeaderItem</text><line style="stroke:#272B30;stroke-width:0.5;" x1="10" x2="685" y1="832" y2="832"/><polygon fill="none" points="20,840.7441,24,844.7441,20,848.7441,16,844.7441" style="stroke:#B38D22;stroke-width:1.0;"/><text fill="#000000" font-family="sans-serif" font-size="14" lengthAdjust="spacing" textLength="176" x="29" y="849.5352">isProviderBased : boolean</text><rect fill="none" height="6" style="stroke:#C82930;stroke-width:1.0;" width="6" x="17" y="859.2324"/><text fill="#000000" font-family="sans-serif" font-size="14" lengthAdjust="spacing" textLength="129" x="29" y="866.0234">_dataTab : number</text><rect fill="none" height="6" style="stroke:#C82930;stroke-width:1.0;" width="6" x="17" y="875.7207"/><text fill="#000000" font-family="sans-serif" font-size="14" lengthAdjust="spacing" textLength="194" x="29" y="882.5117">_eventOnTabsClick : Generic</text><rect fill="none" height="6" style="stroke:#C82930;stroke-width:1.0;" width="6" x="17" y="892.209"/><text fill="#000000" font-family="sans-serif" font-size="14" lengthAdjust="spacing" textLength="127" x="29" y="899">_isActive : boolean</text><line style="stroke:#272B30;stroke-width:0.5;" x1="10" x2="685" y1="905.9531" y2="905.9531"/><ellipse cx="20" cy="919.6973" fill="#84BE84" rx="3" ry="3" style="stroke:#038048;stroke-width:1.0;"/><text fill="#000000" font-family="sans-serif" font-size="14" lengthAdjust="spacing" textLength="86" x="29" y="923.4883">build() : void</text><ellipse cx="20" cy="936.1855" fill="#84BE84" rx="3" ry="3" style="stroke:#038048;stroke-width:1.0;"/><text fill="#000000" font-family="sans-serif" font-size="14" lengthAdjust="spacing" textLength="482" x="29" y="939.9766">changeProperty(propertyName: string, propertyValue: unknown) : void</text><ellipse cx="20" cy="952.6738" fill="#84BE84" rx="3" ry="3" style="stroke:#038048;stroke-width:1.0;"/><text fill="#000000" font-family="sans-serif" font-size="14" lengthAdjust="spacing" textLength="100" x="29" y="956.4648">disable() : void</text><ellipse cx="20" cy="969.1621" fill="#84BE84" rx="3" ry="3" style="stroke:#038048;stroke-width:1.0;"/><text fill="#000000" font-family="sans-serif" font-size="14" lengthAdjust="spacing" textLength="104" x="29" y="972.9531">dispose() : void</text><ellipse cx="20" cy="985.6504" fill="#84BE84" rx="3" ry="3" style="stroke:#038048;stroke-width:1.0;"/><text fill="#000000" font-family="sans-serif" font-size="14" lengthAdjust="spacing" textLength="97" x="29" y="989.4414">enable() : void</text><ellipse cx="20" cy="1002.1387" fill="#84BE84" rx="3" ry="3" style="stroke:#038048;stroke-width:1.0;"/><text fill="#000000" font-family="sans-serif" font-size="14" lengthAdjust="spacing" textLength="266" x="29" y="1005.9297">equalsToID(patternId: string) : boolean</text><ellipse cx="20" cy="1018.627" fill="#84BE84" rx="3" ry="3" style="stroke:#038048;stroke-width:1.0;"/><text fill="#000000" font-family="sans-serif" font-size="14" lengthAdjust="spacing" textLength="155" x="29" y="1022.418">getDataTab() : number</text><ellipse cx="20" cy="1035.1152" fill="#84BE84" rx="3" ry="3" style="stroke:#038048;stroke-width:1.0;"/><text fill="#000000" font-family="sans-serif" font-size="14" lengthAdjust="spacing" textLength="428" x="29" y="1038.9063">registerCallback(eventName: string, callback: OSGeneric) : void</text><ellipse cx="20" cy="1051.6035" fill="#84BE84" rx="3" ry="3" style="stroke:#038048;stroke-width:1.0;"/><text fill="#000000" font-family="sans-serif" font-size="14" lengthAdjust="spacing" textLength="362" x="29" y="1055.3945">setAriaControlsAttribute(contentItemId: string) : void</text><ellipse cx="20" cy="1068.0918" fill="#84BE84" rx="3" ry="3" style="stroke:#038048;stroke-width:1.0;"/><text fill="#000000" font-family="sans-serif" font-size="14" lengthAdjust="spacing" textLength="246" x="29" y="1071.8828">setDataTab(dataTab: number) : void</text><ellipse cx="20" cy="1084.5801" fill="#84BE84" rx="3" ry="3" style="stroke:#038048;stroke-width:1.0;"/><text fill="#000000" font-family="sans-serif" font-size="14" lengthAdjust="spacing" textLength="111" x="29" y="1088.3711">setFocus() : void</text><ellipse cx="20" cy="1101.0684" fill="#84BE84" rx="3" ry="3" style="stroke:#038048;stroke-width:1.0;"/><text fill="#000000" font-family="sans-serif" font-size="14" lengthAdjust="spacing" textLength="123" x="29" y="1104.8594">setIsActive() : void</text><ellipse cx="20" cy="1117.5566" fill="#84BE84" rx="3" ry="3" style="stroke:#038048;stroke-width:1.0;"/><text fill="#000000" font-family="sans-serif" font-size="14" lengthAdjust="spacing" textLength="141" x="29" y="1121.3477">unsetIsActive() : void</text><ellipse cx="20" cy="1134.0449" fill="#84BE84" rx="3" ry="3" style="stroke:#038048;stroke-width:1.0;"/><text fill="#000000" font-family="sans-serif" font-size="14" lengthAdjust="spacing" textLength="168" x="29" y="1137.8359">updateOnRender() : void</text><polygon fill="#FFFF44" points="20,1145.5332,24,1149.5332,20,1153.5332,16,1149.5332" style="stroke:#B38D22;stroke-width:1.0;"/><text fill="#000000" font-family="sans-serif" font-size="14" lengthAdjust="spacing" textLength="123" x="29" y="1154.3242">finishBuild() : void</text><polygon fill="#FFFF44" points="20,1162.0215,24,1166.0215,20,1170.0215,16,1166.0215" style="stroke:#B38D22;stroke-width:1.0;"/><text fill="#000000" font-family="sans-serif" font-size="14" lengthAdjust="spacing" textLength="257" x="29" y="1170.8125">notifyParent(actionType: string) : void</text><polygon fill="#FFFF44" points="20,1178.5098,24,1182.5098,20,1186.5098,16,1182.5098" style="stroke:#B38D22;stroke-width:1.0;"/><text fill="#000000" font-family="sans-serif" font-size="14" lengthAdjust="spacing" textLength="302" x="29" y="1187.3008">setA11YProperties(isUpdate: boolean) : void</text><polygon fill="#FFFF44" points="20,1194.998,24,1198.998,20,1202.998,16,1198.998" style="stroke:#B38D22;stroke-width:1.0;"/><text fill="#000000" font-family="sans-serif" font-size="14" lengthAdjust="spacing" textLength="136" x="29" y="1203.7891">setCallbacks() : void</text><polygon fill="#FFFF44" points="20,1211.4863,24,1215.4863,20,1219.4863,16,1215.4863" style="stroke:#B38D22;stroke-width:1.0;"/><text fill="#000000" font-family="sans-serif" font-size="14" lengthAdjust="spacing" textLength="165" x="29" y="1220.2773">setHtmlElements() : void</text><polygon fill="#FFFF44" points="20,1227.9746,24,1231.9746,20,1235.9746,16,1231.9746" style="stroke:#B38D22;stroke-width:1.0;"/><text fill="#000000" font-family="sans-serif" font-size="14" lengthAdjust="spacing" textLength="651" x="29" y="1236.7656">setParentInfo(parentSelector: string, getPatternByIdAPI: Function, canBeOrphan: boolean) : void</text><polygon fill="#FFFF44" points="20,1244.4629,24,1248.4629,20,1252.4629,16,1248.4629" style="stroke:#B38D22;stroke-width:1.0;"/><text fill="#000000" font-family="sans-serif" font-size="14" lengthAdjust="spacing" textLength="570" x="29" y="1253.2539">triggerPlatformEventCallback(platFormCallback: OSGeneric, args: unknown[]) : void</text><polygon fill="#FFFF44" points="20,1260.9512,24,1264.9512,20,1268.9512,16,1264.9512" style="stroke:#B38D22;stroke-width:1.0;"/><text fill="#000000" font-family="sans-serif" font-size="14" lengthAdjust="spacing" textLength="318" x="29" y="1269.7422">triggerPlatformInitializedEventCallback() : void</text><polygon fill="#FFFF44" points="20,1277.4395,24,1281.4395,20,1285.4395,16,1281.4395" style="stroke:#B38D22;stroke-width:1.0;"/><text fill="#000000" font-family="sans-serif" font-size="14" lengthAdjust="spacing" textLength="154" x="29" y="1286.2305">unsetCallbacks() : void</text><polygon fill="#FFFF44" points="20,1293.9277,24,1297.9277,20,1301.9277,16,1297.9277" style="stroke:#B38D22;stroke-width:1.0;"/><text fill="#000000" font-family="sans-serif" font-size="14" lengthAdjust="spacing" textLength="198" x="29" y="1302.7188">unsetGlobalCallbacks() : void</text><polygon fill="#FFFF44" points="20,1310.416,24,1314.416,20,1318.416,16,1314.416" style="stroke:#B38D22;stroke-width:1.0;"/><text fill="#000000" font-family="sans-serif" font-size="14" lengthAdjust="spacing" textLength="183" x="29" y="1319.207">unsetHtmlElements() : void</text><rect fill="#F24D5C" height="6" style="stroke:#C82930;stroke-width:1.0;" width="6" x="17" y="1328.9043"/><text fill="#000000" font-family="sans-serif" font-size="14" lengthAdjust="spacing" textLength="175" x="29" y="1335.6953">_handleClickEvent() : void</text><rect fill="#F24D5C" height="6" style="stroke:#C82930;stroke-width:1.0;" width="6" x="17" y="1345.3926"/><text fill="#000000" font-family="sans-serif" font-size="14" lengthAdjust="spacing" textLength="153" x="29" y="1352.1836">_removeEvents() : void</text><rect fill="#F24D5C" height="6" style="stroke:#C82930;stroke-width:1.0;" width="6" x="17" y="1361.8809"/><text fill="#000000" font-family="sans-serif" font-size="14" lengthAdjust="spacing" textLength="141" x="29" y="1368.6719">_setUpEvents() : void</text></g><!--reverse link IChild to ITabsHeaderItem--><g id="link_IChild_ITabsHeaderItem"><path codeLine="46" d="M347.5,289.36 C347.5,302.32 347.5,315.57 347.5,328.86 " fill="none" id="IChild-backto-ITabsHeaderItem" style="stroke:#272B30;stroke-width:1.0;"/><polygon fill="none" points="340.5,289.27,347.5,269.27,354.5,289.27,340.5,289.27" style="stroke:#272B30;stroke-width:1.0;"/></g><!--reverse link ITabsHeaderItem to TabsHeaderItem--><g id="link_ITabsHeaderItem_TabsHeaderItem"><path codeLine="81" d="M347.5,760.31 C347.5,773.28 347.5,786.41 347.5,799.57 " fill="none" id="ITabsHeaderItem-backto-TabsHeaderItem" style="stroke:#272B30;stroke-width:1.0;stroke-dasharray:7.0,7.0;"/><polygon fill="none" points="340.5,760.07,347.5,740.07,354.5,760.07,340.5,760.07" style="stroke:#272B30;stroke-width:1.0;"/></g><!--SRC=[tLHDRzD04BtdLwoQYokQYXOafAYNsFso12IYAH92g5fxnyugwrrtTvqIQFyxuu-4sXj77E1GSadotinuFfwVMNAPKqqp4WXgp4HhzH0eeJGPdhuxZTwy7fXsXAyq0xq_XCRBLAj2iYOiIP9dCGuT0tlBw6316H38Shic6TY5OkOvb70GY71fGISq1d8Gpcbahe5YEw65x83y713yl0hD9BPy1MHC8gK4K5dZtFW55xOB6n39XO0CP4bTpp-yR_xLT27vVG4XGyvOpMLQmm-SfM0TEC8dCEyGqPNYhCRY1PKfpBJAGTkrbpS_Fj8CDib7P8D-fg90k91BgHvakn3ZXaO2F0VDbUcY87U4mdr1XPchyDpZRFFim-v2SAvpQYbkjqgNHHQ1hYaDAJTuW80A4U4PFLZXejgJn0qt9jERAv2WUTpkme2TQ4u39QrMmami9aQ51Iz61CkLnmnRxRLoVL5epq4t7RFwUzEs4tUfuiAuwHlDk0mMuvB1zmvJoFwiYklBox53cCfFWEIpEPvQoWuMAAEjeFy7uUwIw1-fyMz9RhTiUkImx-WkzpJONkpiSJHodMaGbxP83dORrf0RtF4AhKxxr03hR61qrsYw_IwExgf5J6LPD10yNYBV3Dy4y1uZV34cbLEBbvVXY_MgV-DAUxsdnrygeILSShFmtVCFfR8yMS-enfayYeMLdAzps3dOi5pAoScNHYmSZCVDRVNSxNMSXCqLEbEMrBNDHEDSEzYwfr0c2kLG_hm10R5L-lSLqpAgKeg_3jba5ex9PI6h8SeJIn-cEaTzztI7LT8Kz4nGcoYTNPGosOecH_GIqS1LoX6XEZNRr-3hjxrbGyajfuB_0DP-GZkhkctViYhoIgY8YhqX_HiTtU4Uc83ACAe-kho6JAsWefnSB7sRTwdI_Rh6TlPuVEpOtIy0]--></g></svg>