<?xml version="1.0" encoding="us-ascii" standalone="no"?><svg xmlns="http://www.w3.org/2000/svg" xmlns:xlink="http://www.w3.org/1999/xlink" contentStyleType="text/css" height="1305px" preserveAspectRatio="none" style="width:703px;height:1305px;background:#CED4DA;" version="1.1" viewBox="0 0 703 1305" width="703px" zoomAndPan="magnify"><defs/><g><rect fill="#CED4DA" height="1305" style="stroke:none;stroke-width:1.0;" width="703" x="0" y="0"/><!--class ITabsContentItem--><g id="elem_ITabsContentItem"><rect codeLine="7" fill="#FFFFFF" height="406.5313" id="ITabsContentItem" rx="2.5" ry="2.5" style="stroke:#272B30;stroke-width:0.5;" width="510" x="97.5" y="327"/><ellipse cx="286.25" cy="343" fill="#B4A7E5" rx="11" ry="11" style="stroke:#181818;stroke-width:1.0;"/><path d="M282.1719,338.7656 L282.1719,336.6094 L289.5625,336.6094 L289.5625,338.7656 L287.0938,338.7656 L287.0938,346.8438 L289.5625,346.8438 L289.5625,349 L282.1719,349 L282.1719,346.8438 L284.6406,346.8438 L284.6406,338.7656 L282.1719,338.7656 Z " fill="#000000"/><text fill="#000000" font-family="sans-serif" font-size="14" font-style="italic" lengthAdjust="spacing" textLength="124" x="306.75" y="347.8467">ITabsContentItem</text><line style="stroke:#272B30;stroke-width:0.5;" x1="98.5" x2="606.5" y1="359" y2="359"/><ellipse cx="108.5" cy="372.6484" fill="none" rx="3" ry="3" style="stroke:#038048;stroke-width:1.0;"/><text fill="#000000" font-family="sans-serif" font-size="14" lengthAdjust="spacing" textLength="121" x="117.5" y="375.9951">IsActive : boolean</text><ellipse cx="108.5" cy="388.9453" fill="none" rx="3" ry="3" style="stroke:#038048;stroke-width:1.0;"/><text fill="#000000" font-family="sans-serif" font-size="14" lengthAdjust="spacing" textLength="110" x="117.5" y="392.292">isBuilt : boolean</text><ellipse cx="108.5" cy="405.2422" fill="none" rx="3" ry="3" style="stroke:#038048;stroke-width:1.0;"/><text fill="#000000" font-family="sans-serif" font-size="14" lengthAdjust="spacing" textLength="189" x="117.5" y="408.5889">selfElement : HTMLElement</text><ellipse cx="108.5" cy="421.5391" fill="none" rx="3" ry="3" style="stroke:#038048;stroke-width:1.0;"/><text fill="#000000" font-family="sans-serif" font-size="14" lengthAdjust="spacing" textLength="112" x="117.5" y="424.8857">uniqueId : string</text><ellipse cx="108.5" cy="437.8359" fill="none" rx="3" ry="3" style="stroke:#038048;stroke-width:1.0;"/><text fill="#000000" font-family="sans-serif" font-size="14" lengthAdjust="spacing" textLength="110" x="117.5" y="441.1826">widgetId : string</text><line style="stroke:#272B30;stroke-width:0.5;" x1="98.5" x2="606.5" y1="448.4844" y2="448.4844"/><ellipse cx="108.5" cy="462.1328" fill="#84BE84" rx="3" ry="3" style="stroke:#038048;stroke-width:1.0;"/><text fill="#000000" font-family="sans-serif" font-size="14" lengthAdjust="spacing" textLength="84" x="117.5" y="465.4795">build() : void</text><ellipse cx="108.5" cy="478.4297" fill="#84BE84" rx="3" ry="3" style="stroke:#038048;stroke-width:1.0;"/><text fill="#000000" font-family="sans-serif" font-size="14" lengthAdjust="spacing" textLength="484" x="117.5" y="481.7764">changeProperty(propertyName: string, propertyValue: unknown) : void</text><ellipse cx="108.5" cy="494.7266" fill="#84BE84" rx="3" ry="3" style="stroke:#038048;stroke-width:1.0;"/><text fill="#000000" font-family="sans-serif" font-size="14" lengthAdjust="spacing" textLength="106" x="117.5" y="498.0732">dispose() : void</text><ellipse cx="108.5" cy="511.0234" fill="#84BE84" rx="3" ry="3" style="stroke:#038048;stroke-width:1.0;"/><text fill="#000000" font-family="sans-serif" font-size="14" lengthAdjust="spacing" textLength="217" x="117.5" y="514.3701">equalsToID(id: string) : boolean</text><ellipse cx="108.5" cy="527.3203" fill="#84BE84" rx="3" ry="3" style="stroke:#038048;stroke-width:1.0;"/><text fill="#000000" font-family="sans-serif" font-size="14" lengthAdjust="spacing" textLength="158" x="117.5" y="530.667">getDataTab() : number</text><ellipse cx="108.5" cy="543.6172" fill="#84BE84" rx="3" ry="3" style="stroke:#038048;stroke-width:1.0;"/><text fill="#000000" font-family="sans-serif" font-size="14" lengthAdjust="spacing" textLength="166" x="117.5" y="546.9639">getOffsetLeft() : number</text><ellipse cx="108.5" cy="559.9141" fill="#84BE84" rx="3" ry="3" style="stroke:#038048;stroke-width:1.0;"/><text fill="#000000" font-family="sans-serif" font-size="14" lengthAdjust="spacing" textLength="434" x="117.5" y="563.2607">registerCallback(eventName: string, callback: OSGeneric) : void</text><ellipse cx="108.5" cy="576.2109" fill="#84BE84" rx="3" ry="3" style="stroke:#038048;stroke-width:1.0;"/><text fill="#000000" font-family="sans-serif" font-size="14" lengthAdjust="spacing" textLength="370" x="117.5" y="579.5576">setAriaLabelledByAttribute(headerItemId: string) : void</text><ellipse cx="108.5" cy="592.5078" fill="#84BE84" rx="3" ry="3" style="stroke:#038048;stroke-width:1.0;"/><text fill="#000000" font-family="sans-serif" font-size="14" lengthAdjust="spacing" textLength="100" x="117.5" y="595.8545">setBlur() : void</text><ellipse cx="108.5" cy="608.8047" fill="#84BE84" rx="3" ry="3" style="stroke:#038048;stroke-width:1.0;"/><text fill="#000000" font-family="sans-serif" font-size="14" lengthAdjust="spacing" textLength="250" x="117.5" y="612.1514">setDataTab(dataTab: number) : void</text><ellipse cx="108.5" cy="625.1016" fill="#84BE84" rx="3" ry="3" style="stroke:#038048;stroke-width:1.0;"/><text fill="#000000" font-family="sans-serif" font-size="14" lengthAdjust="spacing" textLength="115" x="117.5" y="628.4482">setFocus() : void</text><ellipse cx="108.5" cy="641.3984" fill="#84BE84" rx="3" ry="3" style="stroke:#038048;stroke-width:1.0;"/><text fill="#000000" font-family="sans-serif" font-size="14" lengthAdjust="spacing" textLength="125" x="117.5" y="644.7451">setIsActive() : void</text><ellipse cx="108.5" cy="657.6953" fill="#84BE84" rx="3" ry="3" style="stroke:#038048;stroke-width:1.0;"/><text fill="#000000" font-family="sans-serif" font-size="14" lengthAdjust="spacing" textLength="404" x="117.5" y="661.042">setOnDragObserver(observer: IntersectionObserver) : void</text><ellipse cx="108.5" cy="673.9922" fill="#84BE84" rx="3" ry="3" style="stroke:#038048;stroke-width:1.0;"/><text fill="#000000" font-family="sans-serif" font-size="14" lengthAdjust="spacing" textLength="136" x="117.5" y="677.3389">setTabindex() : void</text><ellipse cx="108.5" cy="690.2891" fill="#84BE84" rx="3" ry="3" style="stroke:#038048;stroke-width:1.0;"/><text fill="#000000" font-family="sans-serif" font-size="14" lengthAdjust="spacing" textLength="436" x="117.5" y="693.6357">unobserveDragObserver(observer: IntersectionObserver) : void</text><ellipse cx="108.5" cy="706.5859" fill="#84BE84" rx="3" ry="3" style="stroke:#038048;stroke-width:1.0;"/><text fill="#000000" font-family="sans-serif" font-size="14" lengthAdjust="spacing" textLength="143" x="117.5" y="709.9326">unsetIsActive() : void</text><ellipse cx="108.5" cy="722.8828" fill="#84BE84" rx="3" ry="3" style="stroke:#038048;stroke-width:1.0;"/><text fill="#000000" font-family="sans-serif" font-size="14" lengthAdjust="spacing" textLength="154" x="117.5" y="726.2295">unsetTabindex() : void</text></g><!--class IChild--><g id="elem_IChild"><rect codeLine="31" fill="#FFFFFF" height="259.8594" id="IChild" rx="2.5" ry="2.5" style="stroke:#272B30;stroke-width:0.5;" width="510" x="97.5" y="7"/><ellipse cx="329.25" cy="23" fill="#B4A7E5" rx="11" ry="11" style="stroke:#181818;stroke-width:1.0;"/><path d="M325.1719,18.7656 L325.1719,16.6094 L332.5625,16.6094 L332.5625,18.7656 L330.0938,18.7656 L330.0938,26.8438 L332.5625,26.8438 L332.5625,29 L325.1719,29 L325.1719,26.8438 L327.6406,26.8438 L327.6406,18.7656 L325.1719,18.7656 Z " fill="#000000"/><text fill="#000000" font-family="sans-serif" font-size="14" font-style="italic" lengthAdjust="spacing" textLength="38" x="349.75" y="27.8467">IChild</text><line style="stroke:#272B30;stroke-width:0.5;" x1="98.5" x2="606.5" y1="39" y2="39"/><ellipse cx="108.5" cy="52.6484" fill="none" rx="3" ry="3" style="stroke:#038048;stroke-width:1.0;"/><text fill="#000000" font-family="sans-serif" font-size="14" lengthAdjust="spacing" textLength="110" x="117.5" y="55.9951">isBuilt : boolean</text><ellipse cx="108.5" cy="68.9453" fill="none" rx="3" ry="3" style="stroke:#038048;stroke-width:1.0;"/><text fill="#000000" font-family="sans-serif" font-size="14" lengthAdjust="spacing" textLength="189" x="117.5" y="72.292">selfElement : HTMLElement</text><ellipse cx="108.5" cy="85.2422" fill="none" rx="3" ry="3" style="stroke:#038048;stroke-width:1.0;"/><text fill="#000000" font-family="sans-serif" font-size="14" lengthAdjust="spacing" textLength="112" x="117.5" y="88.5889">uniqueId : string</text><ellipse cx="108.5" cy="101.5391" fill="none" rx="3" ry="3" style="stroke:#038048;stroke-width:1.0;"/><text fill="#000000" font-family="sans-serif" font-size="14" lengthAdjust="spacing" textLength="110" x="117.5" y="104.8857">widgetId : string</text><line style="stroke:#272B30;stroke-width:0.5;" x1="98.5" x2="606.5" y1="112.1875" y2="112.1875"/><ellipse cx="108.5" cy="125.8359" fill="#84BE84" rx="3" ry="3" style="stroke:#038048;stroke-width:1.0;"/><text fill="#000000" font-family="sans-serif" font-size="14" lengthAdjust="spacing" textLength="84" x="117.5" y="129.1826">build() : void</text><ellipse cx="108.5" cy="142.1328" fill="#84BE84" rx="3" ry="3" style="stroke:#038048;stroke-width:1.0;"/><text fill="#000000" font-family="sans-serif" font-size="14" lengthAdjust="spacing" textLength="484" x="117.5" y="145.4795">changeProperty(propertyName: string, propertyValue: unknown) : void</text><ellipse cx="108.5" cy="158.4297" fill="#84BE84" rx="3" ry="3" style="stroke:#038048;stroke-width:1.0;"/><text fill="#000000" font-family="sans-serif" font-size="14" lengthAdjust="spacing" textLength="106" x="117.5" y="161.7764">dispose() : void</text><ellipse cx="108.5" cy="174.7266" fill="#84BE84" rx="3" ry="3" style="stroke:#038048;stroke-width:1.0;"/><text fill="#000000" font-family="sans-serif" font-size="14" lengthAdjust="spacing" textLength="217" x="117.5" y="178.0732">equalsToID(id: string) : boolean</text><ellipse cx="108.5" cy="191.0234" fill="#84BE84" rx="3" ry="3" style="stroke:#038048;stroke-width:1.0;"/><text fill="#000000" font-family="sans-serif" font-size="14" lengthAdjust="spacing" textLength="434" x="117.5" y="194.3701">registerCallback(eventName: string, callback: OSGeneric) : void</text><ellipse cx="108.5" cy="207.3203" fill="#84BE84" rx="3" ry="3" style="stroke:#038048;stroke-width:1.0;"/><text fill="#000000" font-family="sans-serif" font-size="14" lengthAdjust="spacing" textLength="100" x="117.5" y="210.667">setBlur() : void</text><ellipse cx="108.5" cy="223.6172" fill="#84BE84" rx="3" ry="3" style="stroke:#038048;stroke-width:1.0;"/><text fill="#000000" font-family="sans-serif" font-size="14" lengthAdjust="spacing" textLength="115" x="117.5" y="226.9639">setFocus() : void</text><ellipse cx="108.5" cy="239.9141" fill="#84BE84" rx="3" ry="3" style="stroke:#038048;stroke-width:1.0;"/><text fill="#000000" font-family="sans-serif" font-size="14" lengthAdjust="spacing" textLength="136" x="117.5" y="243.2607">setTabindex() : void</text><ellipse cx="108.5" cy="256.2109" fill="#84BE84" rx="3" ry="3" style="stroke:#038048;stroke-width:1.0;"/><text fill="#000000" font-family="sans-serif" font-size="14" lengthAdjust="spacing" textLength="154" x="117.5" y="259.5576">unsetTabindex() : void</text></g><!--class TabsContentItem--><g id="elem_TabsContentItem"><rect codeLine="47" fill="#FFFFFF" height="504.3125" id="TabsContentItem" rx="2.5" ry="2.5" style="stroke:#272B30;stroke-width:0.5;" width="687" x="9" y="794"/><ellipse cx="288.25" cy="810" fill="#ADD1B2" rx="11" ry="11" style="stroke:#181818;stroke-width:1.0;"/><path d="M291.2188,815.6406 Q290.6406,815.9375 290,816.0781 Q289.3594,816.2344 288.6563,816.2344 Q286.1563,816.2344 284.8281,814.5938 Q283.5156,812.9375 283.5156,809.8125 Q283.5156,806.6875 284.8281,805.0313 Q286.1563,803.375 288.6563,803.375 Q289.3594,803.375 290,803.5313 Q290.6563,803.6875 291.2188,803.9844 L291.2188,806.7031 Q290.5938,806.125 290,805.8594 Q289.4063,805.5781 288.7813,805.5781 Q287.4375,805.5781 286.75,806.6563 Q286.0625,807.7188 286.0625,809.8125 Q286.0625,811.9063 286.75,812.9844 Q287.4375,814.0469 288.7813,814.0469 Q289.4063,814.0469 290,813.7813 Q290.5938,813.5 291.2188,812.9219 L291.2188,815.6406 Z " fill="#000000"/><text fill="#000000" font-family="sans-serif" font-size="14" lengthAdjust="spacing" textLength="120" x="308.75" y="814.8467">TabsContentItem</text><line style="stroke:#272B30;stroke-width:0.5;" x1="10" x2="695" y1="826" y2="826"/><polygon fill="none" points="20,834.6484,24,838.6484,20,842.6484,16,838.6484" style="stroke:#B38D22;stroke-width:1.0;"/><text fill="#000000" font-family="sans-serif" font-size="14" lengthAdjust="spacing" textLength="180" x="29" y="842.9951">isProviderBased : boolean</text><rect fill="none" height="6" style="stroke:#C82930;stroke-width:1.0;" width="6" x="17" y="852.9453"/><text fill="#000000" font-family="sans-serif" font-size="14" lengthAdjust="spacing" textLength="130" x="29" y="859.292">_dataTab : number</text><rect fill="none" height="6" style="stroke:#C82930;stroke-width:1.0;" width="6" x="17" y="869.2422"/><text fill="#000000" font-family="sans-serif" font-size="14" lengthAdjust="spacing" textLength="257" x="29" y="875.5889">_focusableElements : HTMLElement[]</text><rect fill="none" height="6" style="stroke:#C82930;stroke-width:1.0;" width="6" x="17" y="885.5391"/><text fill="#000000" font-family="sans-serif" font-size="14" lengthAdjust="spacing" textLength="128" x="29" y="891.8857">_isActive : boolean</text><line style="stroke:#272B30;stroke-width:0.5;" x1="10" x2="695" y1="899.1875" y2="899.1875"/><ellipse cx="20" cy="912.8359" fill="#84BE84" rx="3" ry="3" style="stroke:#038048;stroke-width:1.0;"/><text fill="#000000" font-family="sans-serif" font-size="14" lengthAdjust="spacing" textLength="84" x="29" y="916.1826">build() : void</text><ellipse cx="20" cy="929.1328" fill="#84BE84" rx="3" ry="3" style="stroke:#038048;stroke-width:1.0;"/><text fill="#000000" font-family="sans-serif" font-size="14" lengthAdjust="spacing" textLength="484" x="29" y="932.4795">changeProperty(propertyName: string, propertyValue: unknown) : void</text><ellipse cx="20" cy="945.4297" fill="#84BE84" rx="3" ry="3" style="stroke:#038048;stroke-width:1.0;"/><text fill="#000000" font-family="sans-serif" font-size="14" lengthAdjust="spacing" textLength="106" x="29" y="948.7764">dispose() : void</text><ellipse cx="20" cy="961.7266" fill="#84BE84" rx="3" ry="3" style="stroke:#038048;stroke-width:1.0;"/><text fill="#000000" font-family="sans-serif" font-size="14" lengthAdjust="spacing" textLength="267" x="29" y="965.0732">equalsToID(patternId: string) : boolean</text><ellipse cx="20" cy="978.0234" fill="#84BE84" rx="3" ry="3" style="stroke:#038048;stroke-width:1.0;"/><text fill="#000000" font-family="sans-serif" font-size="14" lengthAdjust="spacing" textLength="158" x="29" y="981.3701">getDataTab() : number</text><ellipse cx="20" cy="994.3203" fill="#84BE84" rx="3" ry="3" style="stroke:#038048;stroke-width:1.0;"/><text fill="#000000" font-family="sans-serif" font-size="14" lengthAdjust="spacing" textLength="166" x="29" y="997.667">getOffsetLeft() : number</text><ellipse cx="20" cy="1010.6172" fill="#84BE84" rx="3" ry="3" style="stroke:#038048;stroke-width:1.0;"/><text fill="#000000" font-family="sans-serif" font-size="14" lengthAdjust="spacing" textLength="434" x="29" y="1013.9639">registerCallback(eventName: string, callback: OSGeneric) : void</text><ellipse cx="20" cy="1026.9141" fill="#84BE84" rx="3" ry="3" style="stroke:#038048;stroke-width:1.0;"/><text fill="#000000" font-family="sans-serif" font-size="14" lengthAdjust="spacing" textLength="370" x="29" y="1030.2607">setAriaLabelledByAttribute(headerItemId: string) : void</text><ellipse cx="20" cy="1043.2109" fill="#84BE84" rx="3" ry="3" style="stroke:#038048;stroke-width:1.0;"/><text fill="#000000" font-family="sans-serif" font-size="14" lengthAdjust="spacing" textLength="250" x="29" y="1046.5576">setDataTab(dataTab: number) : void</text><ellipse cx="20" cy="1059.5078" fill="#84BE84" rx="3" ry="3" style="stroke:#038048;stroke-width:1.0;"/><text fill="#000000" font-family="sans-serif" font-size="14" lengthAdjust="spacing" textLength="125" x="29" y="1062.8545">setIsActive() : void</text><ellipse cx="20" cy="1075.8047" fill="#84BE84" rx="3" ry="3" style="stroke:#038048;stroke-width:1.0;"/><text fill="#000000" font-family="sans-serif" font-size="14" lengthAdjust="spacing" textLength="404" x="29" y="1079.1514">setOnDragObserver(observer: IntersectionObserver) : void</text><ellipse cx="20" cy="1092.1016" fill="#84BE84" rx="3" ry="3" style="stroke:#038048;stroke-width:1.0;"/><text fill="#000000" font-family="sans-serif" font-size="14" lengthAdjust="spacing" textLength="436" x="29" y="1095.4482">unobserveDragObserver(observer: IntersectionObserver) : void</text><ellipse cx="20" cy="1108.3984" fill="#84BE84" rx="3" ry="3" style="stroke:#038048;stroke-width:1.0;"/><text fill="#000000" font-family="sans-serif" font-size="14" lengthAdjust="spacing" textLength="143" x="29" y="1111.7451">unsetIsActive() : void</text><polygon fill="#FFFF44" points="20,1119.6953,24,1123.6953,20,1127.6953,16,1123.6953" style="stroke:#B38D22;stroke-width:1.0;"/><text fill="#000000" font-family="sans-serif" font-size="14" lengthAdjust="spacing" textLength="121" x="29" y="1128.042">finishBuild() : void</text><polygon fill="#FFFF44" points="20,1135.9922,24,1139.9922,20,1143.9922,16,1139.9922" style="stroke:#B38D22;stroke-width:1.0;"/><text fill="#000000" font-family="sans-serif" font-size="14" lengthAdjust="spacing" textLength="257" x="29" y="1144.3389">notifyParent(actionType: string) : void</text><polygon fill="#FFFF44" points="20,1152.2891,24,1156.2891,20,1160.2891,16,1156.2891" style="stroke:#B38D22;stroke-width:1.0;"/><text fill="#000000" font-family="sans-serif" font-size="14" lengthAdjust="spacing" textLength="306" x="29" y="1160.6357">setA11YProperties(isUpdate: boolean) : void</text><polygon fill="#FFFF44" points="20,1168.5859,24,1172.5859,20,1176.5859,16,1172.5859" style="stroke:#B38D22;stroke-width:1.0;"/><text fill="#000000" font-family="sans-serif" font-size="14" lengthAdjust="spacing" textLength="138" x="29" y="1176.9326">setCallbacks() : void</text><polygon fill="#FFFF44" points="20,1184.8828,24,1188.8828,20,1192.8828,16,1188.8828" style="stroke:#B38D22;stroke-width:1.0;"/><text fill="#000000" font-family="sans-serif" font-size="14" lengthAdjust="spacing" textLength="169" x="29" y="1193.2295">setHtmlElements() : void</text><polygon fill="#FFFF44" points="20,1201.1797,24,1205.1797,20,1209.1797,16,1205.1797" style="stroke:#B38D22;stroke-width:1.0;"/><text fill="#000000" font-family="sans-serif" font-size="14" lengthAdjust="spacing" textLength="661" x="29" y="1209.5264">setParentInfo(parentSelector: string, getPatternByIdAPI: Function, canBeOrphan: boolean) : void</text><polygon fill="#FFFF44" points="20,1217.4766,24,1221.4766,20,1225.4766,16,1221.4766" style="stroke:#B38D22;stroke-width:1.0;"/><text fill="#000000" font-family="sans-serif" font-size="14" lengthAdjust="spacing" textLength="569" x="29" y="1225.8232">triggerPlatformEventCallback(platFormCallback: OSGeneric, args: unknown[]) : void</text><polygon fill="#FFFF44" points="20,1233.7734,24,1237.7734,20,1241.7734,16,1237.7734" style="stroke:#B38D22;stroke-width:1.0;"/><text fill="#000000" font-family="sans-serif" font-size="14" lengthAdjust="spacing" textLength="311" x="29" y="1242.1201">triggerPlatformInitializedEventCallback() : void</text><polygon fill="#FFFF44" points="20,1250.0703,24,1254.0703,20,1258.0703,16,1254.0703" style="stroke:#B38D22;stroke-width:1.0;"/><text fill="#000000" font-family="sans-serif" font-size="14" lengthAdjust="spacing" textLength="156" x="29" y="1258.417">unsetCallbacks() : void</text><polygon fill="#FFFF44" points="20,1266.3672,24,1270.3672,20,1274.3672,16,1270.3672" style="stroke:#B38D22;stroke-width:1.0;"/><text fill="#000000" font-family="sans-serif" font-size="14" lengthAdjust="spacing" textLength="199" x="29" y="1274.7139">unsetGlobalCallbacks() : void</text><polygon fill="#FFFF44" points="20,1282.6641,24,1286.6641,20,1290.6641,16,1286.6641" style="stroke:#B38D22;stroke-width:1.0;"/><text fill="#000000" font-family="sans-serif" font-size="14" lengthAdjust="spacing" textLength="187" x="29" y="1291.0107">unsetHtmlElements() : void</text></g><!--reverse link IChild to ITabsContentItem--><g id="link_IChild_ITabsContentItem"><path codeLine="46" d="M352.5,285.01 C352.5,304.28 352.5,306.53 352.5,326.88 " fill="none" id="IChild-backto-ITabsContentItem" style="stroke:#272B30;stroke-width:1.0;"/><polygon fill="none" points="352.5,267.01,346.5,285.01,358.5,285.01,352.5,267.01" style="stroke:#272B30;stroke-width:1.0;"/></g><!--reverse link ITabsContentItem to TabsContentItem--><g id="link_ITabsContentItem_TabsContentItem"><path codeLine="77" d="M352.5,752.08 C352.5,771.71 352.5,773.79 352.5,793.82 " fill="none" id="ITabsContentItem-backto-TabsContentItem" style="stroke:#272B30;stroke-width:1.0;stroke-dasharray:7.0,7.0;"/><polygon fill="none" points="352.5,734.08,346.5,752.08,358.5,752.08,352.5,734.08" style="stroke:#272B30;stroke-width:1.0;"/></g><!--SRC=[vLJVQzim47xFNo6Q5vSrPUq6Wz2NEFrbw9P0iy4efSZMoH6L9LUIqsNh_lUT7JkhepYCiJBOyXBv- -vEfxllpjuBbLD3CpAMrDgHCVfnhAKsf7_yxZX-yxfdsnQXDWpCRXEQtAT65uhLPfppPpOUdG1xosXlBXWGo7At91cukMRsESG5I4I4Sc0uJO3iHJCQsx56GBd8GRP7llK8_bv5TfGuiG0o9B7M4gXQuSA6XP1k4xOW-Pc43CCWTJbxVrL_hUX2YOS28eQSTKQeT0K_2fQ2y-0ORs31Fg8BBTWAI-PKfJ0rEWVZba5U7pxG31hd0zAWdwWi42xKlTAFgXs82Pjh2nlXuQ6WqivqT1e8rWJSttmb9djA7SMQLUwgo68mQsh2kGLt1Tnvh85KM2pwc4ePO-i2M61jsiadDJSaa-iBK614qiuHWu-Ce5Sq1Yc1XSkHGzUuS13CWQAWoWP6hUnRpg4iJE2XpOFOwh_9sxCxrqbXVVT69pupKQU6ffFOWbc02NHz69Aeb9y5TDEgeJrlJ4Ke1bysuXQgZlFRiGlLdNN5-JT_RqtCU8xgNC_9VpqFVqhMsvNPeRXEPNJqRjsnawV1OCl6woNblYLx7PkmBonMUO5Br8JK0jkemU2k7fpsn0_kU9azZINKZRTj7TpSrdQYOz7-tQRdr65VLVIlxi9VtNelijvUT8drkL32paDVFdsbdU3BAJLOxu1MuMVB7BOMgLzM-EZeSoqs0JOGzcEEzOAr43o7fgKRKrjIbowJpIJux2gdI76DoYkFro3n_Thyb4HQMbMY39SH6qsZ8JalLFM8KYygX8d9SJuwiiCeQGfcAgdZscHdfURM2imHFKTqxClkW52JslKOtTpk31ifuGILuYkmzWrjhwfzNSMgo0kfOoftccolQBdll4rsydHuw2-u7m00]--></g></svg>