<?xml version="1.0" encoding="UTF-8" standalone="no"?><svg xmlns="http://www.w3.org/2000/svg" xmlns:xlink="http://www.w3.org/1999/xlink" contentScriptType="application/ecmascript" contentStyleType="text/css" height="1048px" preserveAspectRatio="none" style="width:556px;height:1048px;background:#CED4DA;" version="1.1" viewBox="0 0 556 1048" width="556px" zoomAndPan="magnify"><defs><filter height="300%" id="f1m0neeiqr94rv" width="300%" x="-1" y="-1"><feGaussianBlur result="blurOut" stdDeviation="2.0"/><feColorMatrix in="blurOut" result="blurOut2" type="matrix" values="0 0 0 0 0 0 0 0 0 0 0 0 0 0 0 0 0 0 .4 0"/><feOffset dx="4.0" dy="4.0" in="blurOut2" result="blurOut3"/><feBlend in="SourceGraphic" in2="blurOut3" mode="normal"/></filter></defs><g><!--MD5=[8ed90dd5402d8b4987d381f4b2872a93]
class ITabsHeaderItem--><rect codeLine="7" fill="#FFFFFF" filter="url(#f1m0neeiqr94rv)" height="307.1016" id="ITabsHeaderItem" style="stroke:#272B30;stroke-width:1.5;" width="403" x="74" y="270"/><ellipse cx="221.25" cy="286" fill="#B4A7E5" rx="11" ry="11" style="stroke:#272B30;stroke-width:1.0;"/><path d="M217.6777,282.2651 L217.6777,280.1069 L225.0571,280.1069 L225.0571,282.2651 L222.5918,282.2651 L222.5918,290.3418 L225.0571,290.3418 L225.0571,292.5 L217.6777,292.5 L217.6777,290.3418 L220.1431,290.3418 L220.1431,282.2651 Z " fill="#000000"/><text fill="#000000" font-family="sans-serif" font-size="12" font-style="italic" lengthAdjust="spacing" textLength="100" x="241.75" y="290.5352">ITabsHeaderItem</text><line style="stroke:#272B30;stroke-width:1.5;" x1="75" x2="476" y1="302" y2="302"/><ellipse cx="85" cy="313" rx="3" ry="3" style="stroke:#038048;stroke-width:1.0;fill:none;"/><text fill="#000000" font-family="sans-serif" font-size="11" lengthAdjust="spacing" textLength="84" x="94" y="316.6348">isBuilt : boolean</text><ellipse cx="85" cy="325.9551" rx="3" ry="3" style="stroke:#038048;stroke-width:1.0;fill:none;"/><text fill="#000000" font-family="sans-serif" font-size="11" lengthAdjust="spacing" textLength="142" x="94" y="329.5898">selfElement : HTMLElement</text><ellipse cx="85" cy="338.9102" rx="3" ry="3" style="stroke:#038048;stroke-width:1.0;fill:none;"/><text fill="#000000" font-family="sans-serif" font-size="11" lengthAdjust="spacing" textLength="88" x="94" y="342.5449">uniqueId : string</text><ellipse cx="85" cy="351.8652" rx="3" ry="3" style="stroke:#038048;stroke-width:1.0;fill:none;"/><text fill="#000000" font-family="sans-serif" font-size="11" lengthAdjust="spacing" textLength="86" x="94" y="355.5">widgetId : string</text><line style="stroke:#272B30;stroke-width:1.5;" x1="75" x2="476" y1="361.8203" y2="361.8203"/><ellipse cx="85" cy="372.8203" fill="#84BE84" rx="3" ry="3" style="stroke:#038048;stroke-width:1.0;"/><text fill="#000000" font-family="sans-serif" font-size="11" lengthAdjust="spacing" textLength="67" x="94" y="376.4551">build() : void</text><ellipse cx="85" cy="385.7754" fill="#84BE84" rx="3" ry="3" style="stroke:#038048;stroke-width:1.0;"/><text fill="#000000" font-family="sans-serif" font-size="11" lengthAdjust="spacing" textLength="377" x="94" y="389.4102">changeProperty(propertyName: string, propertyValue: unknown) : void</text><ellipse cx="85" cy="398.7305" fill="#84BE84" rx="3" ry="3" style="stroke:#038048;stroke-width:1.0;"/><text fill="#000000" font-family="sans-serif" font-size="11" lengthAdjust="spacing" textLength="78" x="94" y="402.3652">disable() : void</text><ellipse cx="85" cy="411.6855" fill="#84BE84" rx="3" ry="3" style="stroke:#038048;stroke-width:1.0;"/><text fill="#000000" font-family="sans-serif" font-size="11" lengthAdjust="spacing" textLength="82" x="94" y="415.3203">dispose() : void</text><ellipse cx="85" cy="424.6406" fill="#84BE84" rx="3" ry="3" style="stroke:#038048;stroke-width:1.0;"/><text fill="#000000" font-family="sans-serif" font-size="11" lengthAdjust="spacing" textLength="75" x="94" y="428.2754">enable() : void</text><ellipse cx="85" cy="437.5957" fill="#84BE84" rx="3" ry="3" style="stroke:#038048;stroke-width:1.0;"/><text fill="#000000" font-family="sans-serif" font-size="11" lengthAdjust="spacing" textLength="168" x="94" y="441.2305">equalsToID(id: string) : boolean</text><ellipse cx="85" cy="450.5508" fill="#84BE84" rx="3" ry="3" style="stroke:#038048;stroke-width:1.0;"/><text fill="#000000" font-family="sans-serif" font-size="11" lengthAdjust="spacing" textLength="120" x="94" y="454.1855">getDataTab() : number</text><ellipse cx="85" cy="463.5059" fill="#84BE84" rx="3" ry="3" style="stroke:#038048;stroke-width:1.0;"/><text fill="#000000" font-family="sans-serif" font-size="11" lengthAdjust="spacing" textLength="285" x="94" y="467.1406">setAriaControlsAttribute(contentItemId: string) : void</text><ellipse cx="85" cy="476.4609" fill="#84BE84" rx="3" ry="3" style="stroke:#038048;stroke-width:1.0;"/><text fill="#000000" font-family="sans-serif" font-size="11" lengthAdjust="spacing" textLength="77" x="94" y="480.0957">setBlur() : void</text><ellipse cx="85" cy="489.416" fill="#84BE84" rx="3" ry="3" style="stroke:#038048;stroke-width:1.0;"/><text fill="#000000" font-family="sans-serif" font-size="11" lengthAdjust="spacing" textLength="191" x="94" y="493.0508">setDataTab(dataTab: number) : void</text><ellipse cx="85" cy="502.3711" fill="#84BE84" rx="3" ry="3" style="stroke:#038048;stroke-width:1.0;"/><text fill="#000000" font-family="sans-serif" font-size="11" lengthAdjust="spacing" textLength="88" x="94" y="506.0059">setFocus() : void</text><ellipse cx="85" cy="515.3262" fill="#84BE84" rx="3" ry="3" style="stroke:#038048;stroke-width:1.0;"/><text fill="#000000" font-family="sans-serif" font-size="11" lengthAdjust="spacing" textLength="98" x="94" y="518.9609">setIsActive() : void</text><ellipse cx="85" cy="528.2813" fill="#84BE84" rx="3" ry="3" style="stroke:#038048;stroke-width:1.0;"/><text fill="#000000" font-family="sans-serif" font-size="11" lengthAdjust="spacing" textLength="106" x="94" y="531.916">setTabindex() : void</text><ellipse cx="85" cy="541.2363" fill="#84BE84" rx="3" ry="3" style="stroke:#038048;stroke-width:1.0;"/><text fill="#000000" font-family="sans-serif" font-size="11" lengthAdjust="spacing" textLength="112" x="94" y="544.8711">unsetIsActive() : void</text><ellipse cx="85" cy="554.1914" fill="#84BE84" rx="3" ry="3" style="stroke:#038048;stroke-width:1.0;"/><text fill="#000000" font-family="sans-serif" font-size="11" lengthAdjust="spacing" textLength="120" x="94" y="557.8262">unsetTabindex() : void</text><ellipse cx="85" cy="567.1465" fill="#84BE84" rx="3" ry="3" style="stroke:#038048;stroke-width:1.0;"/><text fill="#000000" font-family="sans-serif" font-size="11" lengthAdjust="spacing" textLength="131" x="94" y="570.7813">updateOnRender() : void</text><!--MD5=[1123f0c3b94494dd3d3555a8beccd8c4]
class IChild--><rect codeLine="29" fill="#FFFFFF" filter="url(#f1m0neeiqr94rv)" height="203.4609" id="IChild" style="stroke:#272B30;stroke-width:1.5;" width="403" x="74" y="7"/><ellipse cx="255.25" cy="23" fill="#B4A7E5" rx="11" ry="11" style="stroke:#272B30;stroke-width:1.0;"/><path d="M251.6777,19.2651 L251.6777,17.1069 L259.0571,17.1069 L259.0571,19.2651 L256.5918,19.2651 L256.5918,27.3418 L259.0571,27.3418 L259.0571,29.5 L251.6777,29.5 L251.6777,27.3418 L254.1431,27.3418 L254.1431,19.2651 Z " fill="#000000"/><text fill="#000000" font-family="sans-serif" font-size="12" font-style="italic" lengthAdjust="spacing" textLength="32" x="275.75" y="27.5352">IChild</text><line style="stroke:#272B30;stroke-width:1.5;" x1="75" x2="476" y1="39" y2="39"/><ellipse cx="85" cy="50" rx="3" ry="3" style="stroke:#038048;stroke-width:1.0;fill:none;"/><text fill="#000000" font-family="sans-serif" font-size="11" lengthAdjust="spacing" textLength="84" x="94" y="53.6348">isBuilt : boolean</text><ellipse cx="85" cy="62.9551" rx="3" ry="3" style="stroke:#038048;stroke-width:1.0;fill:none;"/><text fill="#000000" font-family="sans-serif" font-size="11" lengthAdjust="spacing" textLength="142" x="94" y="66.5898">selfElement : HTMLElement</text><ellipse cx="85" cy="75.9102" rx="3" ry="3" style="stroke:#038048;stroke-width:1.0;fill:none;"/><text fill="#000000" font-family="sans-serif" font-size="11" lengthAdjust="spacing" textLength="88" x="94" y="79.5449">uniqueId : string</text><ellipse cx="85" cy="88.8652" rx="3" ry="3" style="stroke:#038048;stroke-width:1.0;fill:none;"/><text fill="#000000" font-family="sans-serif" font-size="11" lengthAdjust="spacing" textLength="86" x="94" y="92.5">widgetId : string</text><line style="stroke:#272B30;stroke-width:1.5;" x1="75" x2="476" y1="98.8203" y2="98.8203"/><ellipse cx="85" cy="109.8203" fill="#84BE84" rx="3" ry="3" style="stroke:#038048;stroke-width:1.0;"/><text fill="#000000" font-family="sans-serif" font-size="11" lengthAdjust="spacing" textLength="67" x="94" y="113.4551">build() : void</text><ellipse cx="85" cy="122.7754" fill="#84BE84" rx="3" ry="3" style="stroke:#038048;stroke-width:1.0;"/><text fill="#000000" font-family="sans-serif" font-size="11" lengthAdjust="spacing" textLength="377" x="94" y="126.4102">changeProperty(propertyName: string, propertyValue: unknown) : void</text><ellipse cx="85" cy="135.7305" fill="#84BE84" rx="3" ry="3" style="stroke:#038048;stroke-width:1.0;"/><text fill="#000000" font-family="sans-serif" font-size="11" lengthAdjust="spacing" textLength="82" x="94" y="139.3652">dispose() : void</text><ellipse cx="85" cy="148.6855" fill="#84BE84" rx="3" ry="3" style="stroke:#038048;stroke-width:1.0;"/><text fill="#000000" font-family="sans-serif" font-size="11" lengthAdjust="spacing" textLength="168" x="94" y="152.3203">equalsToID(id: string) : boolean</text><ellipse cx="85" cy="161.6406" fill="#84BE84" rx="3" ry="3" style="stroke:#038048;stroke-width:1.0;"/><text fill="#000000" font-family="sans-serif" font-size="11" lengthAdjust="spacing" textLength="77" x="94" y="165.2754">setBlur() : void</text><ellipse cx="85" cy="174.5957" fill="#84BE84" rx="3" ry="3" style="stroke:#038048;stroke-width:1.0;"/><text fill="#000000" font-family="sans-serif" font-size="11" lengthAdjust="spacing" textLength="88" x="94" y="178.2305">setFocus() : void</text><ellipse cx="85" cy="187.5508" fill="#84BE84" rx="3" ry="3" style="stroke:#038048;stroke-width:1.0;"/><text fill="#000000" font-family="sans-serif" font-size="11" lengthAdjust="spacing" textLength="106" x="94" y="191.1855">setTabindex() : void</text><ellipse cx="85" cy="200.5059" fill="#84BE84" rx="3" ry="3" style="stroke:#038048;stroke-width:1.0;"/><text fill="#000000" font-family="sans-serif" font-size="11" lengthAdjust="spacing" textLength="120" x="94" y="204.1406">unsetTabindex() : void</text><!--MD5=[3b1fbec47010594bd24d1d1326e187ba]
class TabsHeaderItem--><rect codeLine="44" fill="#FFFFFF" filter="url(#f1m0neeiqr94rv)" height="397.7871" id="TabsHeaderItem" style="stroke:#272B30;stroke-width:1.5;" width="533" x="9" y="637"/><ellipse cx="222.75" cy="653" fill="#ADD1B2" rx="11" ry="11" style="stroke:#272B30;stroke-width:1.0;"/><path d="M225.2231,659.1431 Q224.6421,659.4419 224.0029,659.5913 Q223.3638,659.7407 222.6582,659.7407 Q220.1514,659.7407 218.8315,658.0889 Q217.5117,656.437 217.5117,653.3159 Q217.5117,650.1865 218.8315,648.5347 Q220.1514,646.8828 222.6582,646.8828 Q223.3638,646.8828 224.0112,647.0322 Q224.6587,647.1816 225.2231,647.4805 L225.2231,650.2031 Q224.5923,649.6221 223.9988,649.3523 Q223.4053,649.0825 222.7744,649.0825 Q221.4297,649.0825 220.7449,650.1492 Q220.0601,651.2158 220.0601,653.3159 Q220.0601,655.4077 220.7449,656.4744 Q221.4297,657.541 222.7744,657.541 Q223.4053,657.541 223.9988,657.2712 Q224.5923,657.0015 225.2231,656.4204 Z " fill="#000000"/><text fill="#000000" font-family="sans-serif" font-size="12" lengthAdjust="spacing" textLength="97" x="243.25" y="657.5352">TabsHeaderItem</text><line style="stroke:#272B30;stroke-width:1.5;" x1="10" x2="541" y1="669" y2="669"/><rect fill="none" height="6" style="stroke:#C82930;stroke-width:1.0;" width="6" x="17" y="677"/><text fill="#000000" font-family="sans-serif" font-size="11" lengthAdjust="spacing" textLength="100" x="29" y="683.6348">_dataTab : number</text><rect fill="none" height="6" style="stroke:#C82930;stroke-width:1.0;" width="6" x="17" y="689.9551"/><text fill="#000000" font-family="sans-serif" font-size="11" lengthAdjust="spacing" textLength="153" x="29" y="696.5898">_eventOnTabsClick : Generic</text><rect fill="none" height="6" style="stroke:#C82930;stroke-width:1.0;" width="6" x="17" y="702.9102"/><text fill="#000000" font-family="sans-serif" font-size="11" lengthAdjust="spacing" textLength="100" x="29" y="709.5449">_isActive : boolean</text><line style="stroke:#272B30;stroke-width:1.5;" x1="10" x2="541" y1="715.8652" y2="715.8652"/><ellipse cx="20" cy="726.8652" fill="#84BE84" rx="3" ry="3" style="stroke:#038048;stroke-width:1.0;"/><text fill="#000000" font-family="sans-serif" font-size="11" lengthAdjust="spacing" textLength="67" x="29" y="730.5">build() : void</text><ellipse cx="20" cy="739.8203" fill="#84BE84" rx="3" ry="3" style="stroke:#038048;stroke-width:1.0;"/><text fill="#000000" font-family="sans-serif" font-size="11" lengthAdjust="spacing" textLength="377" x="29" y="743.4551">changeProperty(propertyName: string, propertyValue: unknown) : void</text><ellipse cx="20" cy="752.7754" fill="#84BE84" rx="3" ry="3" style="stroke:#038048;stroke-width:1.0;"/><text fill="#000000" font-family="sans-serif" font-size="11" lengthAdjust="spacing" textLength="78" x="29" y="756.4102">disable() : void</text><ellipse cx="20" cy="765.7305" fill="#84BE84" rx="3" ry="3" style="stroke:#038048;stroke-width:1.0;"/><text fill="#000000" font-family="sans-serif" font-size="11" lengthAdjust="spacing" textLength="82" x="29" y="769.3652">dispose() : void</text><ellipse cx="20" cy="778.6855" fill="#84BE84" rx="3" ry="3" style="stroke:#038048;stroke-width:1.0;"/><text fill="#000000" font-family="sans-serif" font-size="11" lengthAdjust="spacing" textLength="75" x="29" y="782.3203">enable() : void</text><ellipse cx="20" cy="791.6406" fill="#84BE84" rx="3" ry="3" style="stroke:#038048;stroke-width:1.0;"/><text fill="#000000" font-family="sans-serif" font-size="11" lengthAdjust="spacing" textLength="207" x="29" y="795.2754">equalsToID(patternId: string) : boolean</text><ellipse cx="20" cy="804.5957" fill="#84BE84" rx="3" ry="3" style="stroke:#038048;stroke-width:1.0;"/><text fill="#000000" font-family="sans-serif" font-size="11" lengthAdjust="spacing" textLength="120" x="29" y="808.2305">getDataTab() : number</text><ellipse cx="20" cy="817.5508" fill="#84BE84" rx="3" ry="3" style="stroke:#038048;stroke-width:1.0;"/><text fill="#000000" font-family="sans-serif" font-size="11" lengthAdjust="spacing" textLength="285" x="29" y="821.1855">setAriaControlsAttribute(contentItemId: string) : void</text><ellipse cx="20" cy="830.5059" fill="#84BE84" rx="3" ry="3" style="stroke:#038048;stroke-width:1.0;"/><text fill="#000000" font-family="sans-serif" font-size="11" lengthAdjust="spacing" textLength="191" x="29" y="834.1406">setDataTab(dataTab: number) : void</text><ellipse cx="20" cy="843.4609" fill="#84BE84" rx="3" ry="3" style="stroke:#038048;stroke-width:1.0;"/><text fill="#000000" font-family="sans-serif" font-size="11" lengthAdjust="spacing" textLength="88" x="29" y="847.0957">setFocus() : void</text><ellipse cx="20" cy="856.416" fill="#84BE84" rx="3" ry="3" style="stroke:#038048;stroke-width:1.0;"/><text fill="#000000" font-family="sans-serif" font-size="11" lengthAdjust="spacing" textLength="98" x="29" y="860.0508">setIsActive() : void</text><ellipse cx="20" cy="869.3711" fill="#84BE84" rx="3" ry="3" style="stroke:#038048;stroke-width:1.0;"/><text fill="#000000" font-family="sans-serif" font-size="11" lengthAdjust="spacing" textLength="112" x="29" y="873.0059">unsetIsActive() : void</text><ellipse cx="20" cy="882.3262" fill="#84BE84" rx="3" ry="3" style="stroke:#038048;stroke-width:1.0;"/><text fill="#000000" font-family="sans-serif" font-size="11" lengthAdjust="spacing" textLength="131" x="29" y="885.9609">updateOnRender() : void</text><polygon fill="#FFFF44" points="20,890.2813,24,894.2813,20,898.2813,16,894.2813" style="stroke:#B38D22;stroke-width:1.0;"/><text fill="#000000" font-family="sans-serif" font-size="11" lengthAdjust="spacing" textLength="96" x="29" y="898.916">finishBuild() : void</text><polygon fill="#FFFF44" points="20,903.2363,24,907.2363,20,911.2363,16,907.2363" style="stroke:#B38D22;stroke-width:1.0;"/><text fill="#000000" font-family="sans-serif" font-size="11" lengthAdjust="spacing" textLength="202" x="29" y="911.8711">notifyParent(actionType: string) : void</text><polygon fill="#FFFF44" points="20,916.1914,24,920.1914,20,924.1914,16,920.1914" style="stroke:#B38D22;stroke-width:1.0;"/><text fill="#000000" font-family="sans-serif" font-size="11" lengthAdjust="spacing" textLength="236" x="29" y="924.8262">setA11YProperties(isUpdate: boolean) : void</text><polygon fill="#FFFF44" points="20,929.1465,24,933.1465,20,937.1465,16,933.1465" style="stroke:#B38D22;stroke-width:1.0;"/><text fill="#000000" font-family="sans-serif" font-size="11" lengthAdjust="spacing" textLength="107" x="29" y="937.7813">setCallbacks() : void</text><polygon fill="#FFFF44" points="20,942.1016,24,946.1016,20,950.1016,16,946.1016" style="stroke:#B38D22;stroke-width:1.0;"/><text fill="#000000" font-family="sans-serif" font-size="11" lengthAdjust="spacing" textLength="129" x="29" y="950.7363">setHtmlElements() : void</text><polygon fill="#FFFF44" points="20,955.0566,24,959.0566,20,963.0566,16,959.0566" style="stroke:#B38D22;stroke-width:1.0;"/><text fill="#000000" font-family="sans-serif" font-size="11" lengthAdjust="spacing" textLength="507" x="29" y="963.6914">setParentInfo(parentSelector: string, getPatternByIdAPI: Function, canBeOrphan: boolean) : void</text><polygon fill="#FFFF44" points="20,968.0117,24,972.0117,20,976.0117,16,972.0117" style="stroke:#B38D22;stroke-width:1.0;"/><text fill="#000000" font-family="sans-serif" font-size="11" lengthAdjust="spacing" textLength="121" x="29" y="976.6465">unsetCallbacks() : void</text><polygon fill="#FFFF44" points="20,980.9668,24,984.9668,20,988.9668,16,984.9668" style="stroke:#B38D22;stroke-width:1.0;"/><text fill="#000000" font-family="sans-serif" font-size="11" lengthAdjust="spacing" textLength="143" x="29" y="989.6016">unsetHtmlElements() : void</text><rect fill="#F24D5C" height="6" style="stroke:#C82930;stroke-width:1.0;" width="6" x="17" y="995.9219"/><text fill="#000000" font-family="sans-serif" font-size="11" lengthAdjust="spacing" textLength="137" x="29" y="1002.5566">_handleClickEvent() : void</text><rect fill="#F24D5C" height="6" style="stroke:#C82930;stroke-width:1.0;" width="6" x="17" y="1008.877"/><text fill="#000000" font-family="sans-serif" font-size="11" lengthAdjust="spacing" textLength="121" x="29" y="1015.5117">_removeEvents() : void</text><rect fill="#F24D5C" height="6" style="stroke:#C82930;stroke-width:1.0;" width="6" x="17" y="1021.832"/><text fill="#000000" font-family="sans-serif" font-size="11" lengthAdjust="spacing" textLength="112" x="29" y="1028.4668">_setUpEvents() : void</text><!--MD5=[a28bd913ce8bd94e233e0c4be5f3ce50]
reverse link IChild to ITabsHeaderItem--><path codeLine="43" d="M275.5,230.28 C275.5,243.24 275.5,256.54 275.5,269.8 " fill="none" id="IChild-backto-ITabsHeaderItem" style="stroke:#272B30;stroke-width:1.0;"/><polygon fill="none" points="268.5,230.26,275.5,210.26,282.5,230.26,268.5,230.26" style="stroke:#272B30;stroke-width:1.0;"/><!--MD5=[256f04e2fdc72998215694b2216990bf]
reverse link ITabsHeaderItem to TabsHeaderItem--><path codeLine="73" d="M275.5,597.38 C275.5,610.43 275.5,623.65 275.5,636.83 " fill="none" id="ITabsHeaderItem-backto-TabsHeaderItem" style="stroke:#272B30;stroke-width:1.0;stroke-dasharray:7.0,7.0;"/><polygon fill="none" points="268.5,597.06,275.5,577.06,282.5,597.06,268.5,597.06" style="stroke:#272B30;stroke-width:1.0;"/><!--MD5=[4038df2b9cfb3906fe09caff4c9646ac]
@startuml
skinparam ClassArrowColor #272b30
skinparam ClassBorderColor #272b30
skinparam ClassBackgroundColor #fff
skinparam BackgroundColor #ced4da
hide empty methods
hide empty fields
interface "ITabsHeaderItem" {
    +isBuilt : boolean
    +selfElement : HTMLElement
    +uniqueId : string
    +widgetId : string
    +build() : void
    +changeProperty(propertyName: string, propertyValue: unknown) : void
    +disable() : void
    +dispose() : void
    +enable() : void
    +equalsToID(id: string) : boolean
    +getDataTab() : number
    +setAriaControlsAttribute(contentItemId: string) : void
    +setBlur() : void
    +setDataTab(dataTab: number) : void
    +setFocus() : void
    +setIsActive() : void
    +setTabindex() : void
    +unsetIsActive() : void
    +unsetTabindex() : void
    +updateOnRender() : void
}
interface "IChild" {
    +isBuilt : boolean
    +selfElement : HTMLElement
    +uniqueId : string
    +widgetId : string
    +build() : void
    +changeProperty(propertyName: string, propertyValue: unknown) : void
    +dispose() : void
    +equalsToID(id: string) : boolean
    +setBlur() : void
    +setFocus() : void
    +setTabindex() : void
    +unsetTabindex() : void
}
"IChild" <|- - "ITabsHeaderItem"
class "TabsHeaderItem" {
    -_dataTab : number
    -_eventOnTabsClick : Generic
    -_isActive : boolean
    +build() : void
    +changeProperty(propertyName: string, propertyValue: unknown) : void
    +disable() : void
    +dispose() : void
    +enable() : void
    +equalsToID(patternId: string) : boolean
    +getDataTab() : number
    +setAriaControlsAttribute(contentItemId: string) : void
    +setDataTab(dataTab: number) : void
    +setFocus() : void
    +setIsActive() : void
    +unsetIsActive() : void
    +updateOnRender() : void
    #finishBuild() : void
    #notifyParent(actionType: string) : void
    #setA11YProperties(isUpdate: boolean) : void
    #setCallbacks() : void
    #setHtmlElements() : void
    #setParentInfo(parentSelector: string, getPatternByIdAPI: Function, canBeOrphan: boolean) : void
    #unsetCallbacks() : void
    #unsetHtmlElements() : void
    -_handleClickEvent() : void
    -_removeEvents() : void
    -_setUpEvents() : void
}
"ITabsHeaderItem" <|.. "TabsHeaderItem"
@enduml

PlantUML version 1.2021.14(Fri Nov 12 16:46:50 WET 2021)
(GPL source distribution)
Java Runtime: Java(TM) SE Runtime Environment
JVM: Java HotSpot(TM) 64-Bit Server VM
Default Encoding: UTF-8
Language: en
Country: PT
--></g></svg>