<?xml version="1.0" encoding="us-ascii" standalone="no"?><svg xmlns="http://www.w3.org/2000/svg" xmlns:xlink="http://www.w3.org/1999/xlink" contentStyleType="text/css" height="1712px" preserveAspectRatio="none" style="width:1081px;height:1712px;background:#CED4DA;" version="1.1" viewBox="0 0 1081 1712" width="1081px" zoomAndPan="magnify"><defs/><g><rect fill="#CED4DA" height="1712" style="stroke:none;stroke-width:1.0;" width="1081" x="0" y="0"/><!--class ITabs--><g id="elem_ITabs"><rect codeLine="7" fill="#FFFFFF" height="243.5625" id="ITabs" rx="2.5" ry="2.5" style="stroke:#272B30;stroke-width:0.5;" width="1067" x="7" y="278"/><ellipse cx="517.75" cy="294" fill="#B4A7E5" rx="11" ry="11" style="stroke:#181818;stroke-width:1.0;"/><path d="M513.6719,289.7656 L513.6719,287.6094 L521.0625,287.6094 L521.0625,289.7656 L518.5938,289.7656 L518.5938,297.8438 L521.0625,297.8438 L521.0625,300 L513.6719,300 L513.6719,297.8438 L516.1406,297.8438 L516.1406,289.7656 L513.6719,289.7656 Z " fill="#000000"/><text fill="#000000" font-family="sans-serif" font-size="14" font-style="italic" lengthAdjust="spacing" textLength="37" x="538.25" y="298.8467">ITabs</text><line style="stroke:#272B30;stroke-width:0.5;" x1="8" x2="1073" y1="310" y2="310"/><ellipse cx="18" cy="323.6484" fill="none" rx="3" ry="3" style="stroke:#038048;stroke-width:1.0;"/><text fill="#000000" font-family="sans-serif" font-size="14" lengthAdjust="spacing" textLength="110" x="27" y="326.9951">isBuilt : boolean</text><ellipse cx="18" cy="339.9453" fill="none" rx="3" ry="3" style="stroke:#038048;stroke-width:1.0;"/><text fill="#000000" font-family="sans-serif" font-size="14" lengthAdjust="spacing" textLength="189" x="27" y="343.292">selfElement : HTMLElement</text><ellipse cx="18" cy="356.2422" fill="none" rx="3" ry="3" style="stroke:#038048;stroke-width:1.0;"/><text fill="#000000" font-family="sans-serif" font-size="14" lengthAdjust="spacing" textLength="112" x="27" y="359.5889">uniqueId : string</text><ellipse cx="18" cy="372.5391" fill="none" rx="3" ry="3" style="stroke:#038048;stroke-width:1.0;"/><text fill="#000000" font-family="sans-serif" font-size="14" lengthAdjust="spacing" textLength="110" x="27" y="375.8857">widgetId : string</text><line style="stroke:#272B30;stroke-width:0.5;" x1="8" x2="1073" y1="383.1875" y2="383.1875"/><ellipse cx="18" cy="396.8359" fill="#84BE84" rx="3" ry="3" style="stroke:#038048;stroke-width:1.0;"/><text fill="#000000" font-family="sans-serif" font-size="14" lengthAdjust="spacing" textLength="405" x="27" y="400.1826">beNotifiedByChild(childItem: IChild, notifiedTo: string) : void</text><ellipse cx="18" cy="413.1328" fill="#84BE84" rx="3" ry="3" style="stroke:#038048;stroke-width:1.0;"/><text fill="#000000" font-family="sans-serif" font-size="14" lengthAdjust="spacing" textLength="84" x="27" y="416.4795">build() : void</text><ellipse cx="18" cy="429.4297" fill="#84BE84" rx="3" ry="3" style="stroke:#038048;stroke-width:1.0;"/><text fill="#000000" font-family="sans-serif" font-size="14" lengthAdjust="spacing" textLength="484" x="27" y="432.7764">changeProperty(propertyName: string, propertyValue: unknown) : void</text><ellipse cx="18" cy="445.7266" fill="#84BE84" rx="3" ry="3" style="stroke:#038048;stroke-width:1.0;"/><text fill="#000000" font-family="sans-serif" font-size="14" lengthAdjust="spacing" textLength="1041" x="27" y="449.0732">changeTab(tabIndex: number, tabsHeaderItem: ITabsHeaderItem, blockObserver: boolean, triggerEvent: boolean, triggeredByObserver: boolean) : void</text><ellipse cx="18" cy="462.0234" fill="#84BE84" rx="3" ry="3" style="stroke:#038048;stroke-width:1.0;"/><text fill="#000000" font-family="sans-serif" font-size="14" lengthAdjust="spacing" textLength="106" x="27" y="465.3701">dispose() : void</text><ellipse cx="18" cy="478.3203" fill="#84BE84" rx="3" ry="3" style="stroke:#038048;stroke-width:1.0;"/><text fill="#000000" font-family="sans-serif" font-size="14" lengthAdjust="spacing" textLength="217" x="27" y="481.667">equalsToID(id: string) : boolean</text><ellipse cx="18" cy="494.6172" fill="#84BE84" rx="3" ry="3" style="stroke:#038048;stroke-width:1.0;"/><text fill="#000000" font-family="sans-serif" font-size="14" lengthAdjust="spacing" textLength="434" x="27" y="497.9639">registerCallback(eventName: string, callback: OSGeneric) : void</text><ellipse cx="18" cy="510.9141" fill="#84BE84" rx="3" ry="3" style="stroke:#038048;stroke-width:1.0;"/><text fill="#000000" font-family="sans-serif" font-size="14" lengthAdjust="spacing" textLength="380" x="27" y="514.2607">toggleDragGestures(addDragGestures: boolean) : void</text></g><!--class IParent--><g id="elem_IParent"><rect codeLine="21" fill="#FFFFFF" height="210.9688" id="IParent" rx="2.5" ry="2.5" style="stroke:#272B30;stroke-width:0.5;" width="510" x="285.5" y="7"/><ellipse cx="512.25" cy="23" fill="#B4A7E5" rx="11" ry="11" style="stroke:#181818;stroke-width:1.0;"/><path d="M508.1719,18.7656 L508.1719,16.6094 L515.5625,16.6094 L515.5625,18.7656 L513.0938,18.7656 L513.0938,26.8438 L515.5625,26.8438 L515.5625,29 L508.1719,29 L508.1719,26.8438 L510.6406,26.8438 L510.6406,18.7656 L508.1719,18.7656 Z " fill="#000000"/><text fill="#000000" font-family="sans-serif" font-size="14" font-style="italic" lengthAdjust="spacing" textLength="48" x="532.75" y="27.8467">IParent</text><line style="stroke:#272B30;stroke-width:0.5;" x1="286.5" x2="794.5" y1="39" y2="39"/><ellipse cx="296.5" cy="52.6484" fill="none" rx="3" ry="3" style="stroke:#038048;stroke-width:1.0;"/><text fill="#000000" font-family="sans-serif" font-size="14" lengthAdjust="spacing" textLength="110" x="305.5" y="55.9951">isBuilt : boolean</text><ellipse cx="296.5" cy="68.9453" fill="none" rx="3" ry="3" style="stroke:#038048;stroke-width:1.0;"/><text fill="#000000" font-family="sans-serif" font-size="14" lengthAdjust="spacing" textLength="189" x="305.5" y="72.292">selfElement : HTMLElement</text><ellipse cx="296.5" cy="85.2422" fill="none" rx="3" ry="3" style="stroke:#038048;stroke-width:1.0;"/><text fill="#000000" font-family="sans-serif" font-size="14" lengthAdjust="spacing" textLength="112" x="305.5" y="88.5889">uniqueId : string</text><ellipse cx="296.5" cy="101.5391" fill="none" rx="3" ry="3" style="stroke:#038048;stroke-width:1.0;"/><text fill="#000000" font-family="sans-serif" font-size="14" lengthAdjust="spacing" textLength="110" x="305.5" y="104.8857">widgetId : string</text><line style="stroke:#272B30;stroke-width:0.5;" x1="286.5" x2="794.5" y1="112.1875" y2="112.1875"/><ellipse cx="296.5" cy="125.8359" fill="#84BE84" rx="3" ry="3" style="stroke:#038048;stroke-width:1.0;"/><text fill="#000000" font-family="sans-serif" font-size="14" lengthAdjust="spacing" textLength="405" x="305.5" y="129.1826">beNotifiedByChild(childItem: IChild, notifiedTo: string) : void</text><ellipse cx="296.5" cy="142.1328" fill="#84BE84" rx="3" ry="3" style="stroke:#038048;stroke-width:1.0;"/><text fill="#000000" font-family="sans-serif" font-size="14" lengthAdjust="spacing" textLength="84" x="305.5" y="145.4795">build() : void</text><ellipse cx="296.5" cy="158.4297" fill="#84BE84" rx="3" ry="3" style="stroke:#038048;stroke-width:1.0;"/><text fill="#000000" font-family="sans-serif" font-size="14" lengthAdjust="spacing" textLength="484" x="305.5" y="161.7764">changeProperty(propertyName: string, propertyValue: unknown) : void</text><ellipse cx="296.5" cy="174.7266" fill="#84BE84" rx="3" ry="3" style="stroke:#038048;stroke-width:1.0;"/><text fill="#000000" font-family="sans-serif" font-size="14" lengthAdjust="spacing" textLength="106" x="305.5" y="178.0732">dispose() : void</text><ellipse cx="296.5" cy="191.0234" fill="#84BE84" rx="3" ry="3" style="stroke:#038048;stroke-width:1.0;"/><text fill="#000000" font-family="sans-serif" font-size="14" lengthAdjust="spacing" textLength="217" x="305.5" y="194.3701">equalsToID(id: string) : boolean</text><ellipse cx="296.5" cy="207.3203" fill="#84BE84" rx="3" ry="3" style="stroke:#038048;stroke-width:1.0;"/><text fill="#000000" font-family="sans-serif" font-size="14" lengthAdjust="spacing" textLength="434" x="305.5" y="210.667">registerCallback(eventName: string, callback: OSGeneric) : void</text></g><!--class Tabs--><g id="elem_Tabs"><rect codeLine="34" fill="#FFFFFF" height="1123.5938" id="Tabs" rx="2.5" ry="2.5" style="stroke:#272B30;stroke-width:0.5;" width="894" x="93.5" y="582"/><ellipse cx="519.25" cy="598" fill="#ADD1B2" rx="11" ry="11" style="stroke:#181818;stroke-width:1.0;"/><path d="M522.2188,603.6406 Q521.6406,603.9375 521,604.0781 Q520.3594,604.2344 519.6563,604.2344 Q517.1563,604.2344 515.8281,602.5938 Q514.5156,600.9375 514.5156,597.8125 Q514.5156,594.6875 515.8281,593.0313 Q517.1563,591.375 519.6563,591.375 Q520.3594,591.375 521,591.5313 Q521.6563,591.6875 522.2188,591.9844 L522.2188,594.7031 Q521.5938,594.125 521,593.8594 Q520.4063,593.5781 519.7813,593.5781 Q518.4375,593.5781 517.75,594.6563 Q517.0625,595.7188 517.0625,597.8125 Q517.0625,599.9063 517.75,600.9844 Q518.4375,602.0469 519.7813,602.0469 Q520.4063,602.0469 521,601.7813 Q521.5938,601.5 522.2188,600.9219 L522.2188,603.6406 Z " fill="#000000"/><text fill="#000000" font-family="sans-serif" font-size="14" lengthAdjust="spacing" textLength="34" x="539.75" y="602.8467">Tabs</text><line style="stroke:#272B30;stroke-width:0.5;" x1="94.5" x2="986.5" y1="614" y2="614"/><polygon fill="none" points="104.5,622.6484,108.5,626.6484,104.5,630.6484,100.5,626.6484" style="stroke:#B38D22;stroke-width:1.0;"/><text fill="#000000" font-family="sans-serif" font-size="14" lengthAdjust="spacing" textLength="180" x="113.5" y="630.9951">isProviderBased : boolean</text><rect fill="none" height="6" style="stroke:#C82930;stroke-width:1.0;" width="6" x="101.5" y="640.9453"/><text fill="#000000" font-family="sans-serif" font-size="14" lengthAdjust="spacing" textLength="322" x="113.5" y="647.292">_activeTabContentElement : ITabsContentItem</text><rect fill="none" height="6" style="stroke:#C82930;stroke-width:1.0;" width="6" x="101.5" y="657.2422"/><text fill="#000000" font-family="sans-serif" font-size="14" lengthAdjust="spacing" textLength="310" x="113.5" y="663.5889">_activeTabHeaderElement : ITabsHeaderItem</text><rect fill="none" height="6" style="stroke:#C82930;stroke-width:1.0;" width="6" x="101.5" y="673.5391"/><text fill="#000000" font-family="sans-serif" font-size="14" lengthAdjust="spacing" textLength="222" x="113.5" y="679.8857">_currentOrientation : Orientation</text><rect fill="none" height="6" style="stroke:#C82930;stroke-width:1.0;" width="6" x="101.5" y="689.8359"/><text fill="#000000" font-family="sans-serif" font-size="14" lengthAdjust="spacing" textLength="234" x="113.5" y="696.1826">_currentVerticalPositon : Direction</text><rect fill="none" height="6" style="stroke:#C82930;stroke-width:1.0;" width="6" x="101.5" y="706.1328"/><text fill="#000000" font-family="sans-serif" font-size="14" lengthAdjust="spacing" textLength="259" x="113.5" y="712.4795">_dragObserver : IntersectionObserver</text><rect fill="none" height="6" style="stroke:#C82930;stroke-width:1.0;" width="6" x="101.5" y="722.4297"/><text fill="#000000" font-family="sans-serif" font-size="14" lengthAdjust="spacing" textLength="247" x="113.5" y="728.7764">_eventOnHeaderKeypress : Generic</text><rect fill="none" height="6" style="stroke:#C82930;stroke-width:1.0;" width="6" x="101.5" y="738.7266"/><text fill="#000000" font-family="sans-serif" font-size="14" lengthAdjust="spacing" textLength="180" x="113.5" y="745.0732">_eventOnResize : Generic</text><rect fill="none" height="6" style="stroke:#C82930;stroke-width:1.0;" width="6" x="101.5" y="755.0234"/><text fill="#000000" font-family="sans-serif" font-size="14" lengthAdjust="spacing" textLength="198" x="113.5" y="761.3701">_hasDragGestures : boolean</text><rect fill="none" height="6" style="stroke:#C82930;stroke-width:1.0;" width="6" x="101.5" y="771.3203"/><text fill="#000000" font-family="sans-serif" font-size="14" lengthAdjust="spacing" textLength="199" x="113.5" y="777.667">_hasSingleContent : boolean</text><rect fill="none" height="6" style="stroke:#C82930;stroke-width:1.0;" width="6" x="101.5" y="787.6172"/><text fill="#000000" font-family="sans-serif" font-size="14" lengthAdjust="spacing" textLength="209" x="113.5" y="793.9639">_headerItemsLength : number</text><rect fill="none" height="6" style="stroke:#C82930;stroke-width:1.0;" width="6" x="101.5" y="803.9141"/><text fill="#000000" font-family="sans-serif" font-size="14" lengthAdjust="spacing" textLength="356" x="113.5" y="810.2607">_platformEventTabsOnChange : OSOnChangeEvent</text><rect fill="none" height="6" style="stroke:#C82930;stroke-width:1.0;" width="6" x="101.5" y="820.2109"/><text fill="#000000" font-family="sans-serif" font-size="14" lengthAdjust="spacing" textLength="365" x="113.5" y="826.5576">_requestAnimationFrameOnIndicatorResize : number</text><rect fill="none" height="6" style="stroke:#C82930;stroke-width:1.0;" width="6" x="101.5" y="836.5078"/><text fill="#000000" font-family="sans-serif" font-size="14" lengthAdjust="spacing" textLength="258" x="113.5" y="842.8545">_tabsContentElement : HTMLElement</text><rect fill="none" height="6" style="stroke:#C82930;stroke-width:1.0;" width="6" x="101.5" y="852.8047"/><text fill="#000000" font-family="sans-serif" font-size="14" lengthAdjust="spacing" textLength="252" x="113.5" y="859.1514">_tabsHeaderElement : HTMLElement</text><rect fill="none" height="6" style="stroke:#C82930;stroke-width:1.0;" width="6" x="101.5" y="869.1016"/><text fill="#000000" font-family="sans-serif" font-size="14" lengthAdjust="spacing" textLength="261" x="113.5" y="875.4482">_tabsIndicatorElement : HTMLElement</text><line style="stroke:#272B30;stroke-width:0.5;" x1="94.5" x2="986.5" y1="882.75" y2="882.75"/><ellipse cx="104.5" cy="896.3984" fill="#84BE84" rx="3" ry="3" style="stroke:#038048;stroke-width:1.0;"/><text fill="#000000" font-family="sans-serif" font-size="14" lengthAdjust="spacing" textLength="725" x="113.5" y="899.7451">beNotifiedByChild(childItem: TabsHeaderItem | TabsContentItem, notifiedTo: ChildNotifyActionType) : void</text><ellipse cx="104.5" cy="912.6953" fill="#84BE84" rx="3" ry="3" style="stroke:#038048;stroke-width:1.0;"/><text fill="#000000" font-family="sans-serif" font-size="14" lengthAdjust="spacing" textLength="84" x="113.5" y="916.042">build() : void</text><ellipse cx="104.5" cy="928.9922" fill="#84BE84" rx="3" ry="3" style="stroke:#038048;stroke-width:1.0;"/><text fill="#000000" font-family="sans-serif" font-size="14" lengthAdjust="spacing" textLength="484" x="113.5" y="932.3389">changeProperty(propertyName: string, propertyValue: unknown) : void</text><ellipse cx="104.5" cy="945.2891" fill="#84BE84" rx="3" ry="3" style="stroke:#038048;stroke-width:1.0;"/><text fill="#000000" font-family="sans-serif" font-size="14" lengthAdjust="spacing" textLength="868" x="113.5" y="948.6357">changeTab(tabIndex: number, tabsHeaderItem: ITabsHeaderItem, triggerEvent: boolean, triggeredByObserver: boolean) : void</text><ellipse cx="104.5" cy="961.5859" fill="#84BE84" rx="3" ry="3" style="stroke:#038048;stroke-width:1.0;"/><text fill="#000000" font-family="sans-serif" font-size="14" lengthAdjust="spacing" textLength="106" x="113.5" y="964.9326">dispose() : void</text><ellipse cx="104.5" cy="977.8828" fill="#84BE84" rx="3" ry="3" style="stroke:#038048;stroke-width:1.0;"/><text fill="#000000" font-family="sans-serif" font-size="14" lengthAdjust="spacing" textLength="267" x="113.5" y="981.2295">equalsToID(patternId: string) : boolean</text><ellipse cx="104.5" cy="994.1797" fill="#84BE84" rx="3" ry="3" style="stroke:#038048;stroke-width:1.0;"/><text fill="#000000" font-family="sans-serif" font-size="14" lengthAdjust="spacing" textLength="469" x="113.5" y="997.5264">getChildItems(type: string) : (ITabsHeaderItem | ITabsContentItem)[]</text><ellipse cx="104.5" cy="1010.4766" fill="#84BE84" rx="3" ry="3" style="stroke:#038048;stroke-width:1.0;"/><text fill="#000000" font-family="sans-serif" font-size="14" lengthAdjust="spacing" textLength="434" x="113.5" y="1013.8232">registerCallback(eventName: string, callback: OSGeneric) : void</text><ellipse cx="104.5" cy="1026.7734" fill="#84BE84" rx="3" ry="3" style="stroke:#038048;stroke-width:1.0;"/><text fill="#000000" font-family="sans-serif" font-size="14" lengthAdjust="spacing" textLength="380" x="113.5" y="1030.1201">toggleDragGestures(addDragGestures: boolean) : void</text><polygon fill="#FFFF44" points="104.5,1038.0703,108.5,1042.0703,104.5,1046.0703,100.5,1042.0703" style="stroke:#B38D22;stroke-width:1.0;"/><text fill="#000000" font-family="sans-serif" font-size="14" lengthAdjust="spacing" textLength="121" x="113.5" y="1046.417">finishBuild() : void</text><polygon fill="#FFFF44" points="104.5,1054.3672,108.5,1058.3672,104.5,1062.3672,100.5,1058.3672" style="stroke:#B38D22;stroke-width:1.0;"/><text fill="#000000" font-family="sans-serif" font-size="14" lengthAdjust="spacing" textLength="425" x="113.5" y="1062.7139">getChild(childId: string) : ITabsHeaderItem | ITabsContentItem</text><polygon fill="#FFFF44" points="104.5,1070.6641,108.5,1074.6641,104.5,1078.6641,100.5,1074.6641" style="stroke:#B38D22;stroke-width:1.0;"/><text fill="#000000" font-family="sans-serif" font-size="14" lengthAdjust="spacing" textLength="609" x="113.5" y="1079.0107">getChildByIndex(index: number, childType: string) : ITabsHeaderItem | ITabsContentItem</text><polygon fill="#FFFF44" points="104.5,1086.9609,108.5,1090.9609,104.5,1094.9609,100.5,1090.9609" style="stroke:#B38D22;stroke-width:1.0;"/><text fill="#000000" font-family="sans-serif" font-size="14" lengthAdjust="spacing" textLength="263" x="113.5" y="1095.3076">getChildIndex(childId: string) : number</text><polygon fill="#FFFF44" points="104.5,1103.2578,108.5,1107.2578,104.5,1111.2578,100.5,1107.2578" style="stroke:#B38D22;stroke-width:1.0;"/><text fill="#000000" font-family="sans-serif" font-size="14" lengthAdjust="spacing" textLength="180" x="113.5" y="1111.6045">setA11YProperties() : void</text><polygon fill="#FFFF44" points="104.5,1119.5547,108.5,1123.5547,104.5,1127.5547,100.5,1123.5547" style="stroke:#B38D22;stroke-width:1.0;"/><text fill="#000000" font-family="sans-serif" font-size="14" lengthAdjust="spacing" textLength="138" x="113.5" y="1127.9014">setCallbacks() : void</text><polygon fill="#FFFF44" points="104.5,1135.8516,108.5,1139.8516,104.5,1143.8516,100.5,1139.8516" style="stroke:#B38D22;stroke-width:1.0;"/><text fill="#000000" font-family="sans-serif" font-size="14" lengthAdjust="spacing" textLength="431" x="113.5" y="1144.1982">setChild(childItem: ITabsHeaderItem | ITabsContentItem) : void</text><polygon fill="#FFFF44" points="104.5,1152.1484,108.5,1156.1484,104.5,1160.1484,100.5,1156.1484" style="stroke:#B38D22;stroke-width:1.0;"/><text fill="#000000" font-family="sans-serif" font-size="14" lengthAdjust="spacing" textLength="169" x="113.5" y="1160.4951">setHtmlElements() : void</text><polygon fill="#FFFF44" points="104.5,1168.4453,108.5,1172.4453,104.5,1176.4453,100.5,1172.4453" style="stroke:#B38D22;stroke-width:1.0;"/><text fill="#000000" font-family="sans-serif" font-size="14" lengthAdjust="spacing" textLength="569" x="113.5" y="1176.792">triggerPlatformEventCallback(platFormCallback: OSGeneric, args: unknown[]) : void</text><polygon fill="#FFFF44" points="104.5,1184.7422,108.5,1188.7422,104.5,1192.7422,100.5,1188.7422" style="stroke:#B38D22;stroke-width:1.0;"/><text fill="#000000" font-family="sans-serif" font-size="14" lengthAdjust="spacing" textLength="311" x="113.5" y="1193.0889">triggerPlatformInitializedEventCallback() : void</text><polygon fill="#FFFF44" points="104.5,1201.0391,108.5,1205.0391,104.5,1209.0391,100.5,1205.0391" style="stroke:#B38D22;stroke-width:1.0;"/><text fill="#000000" font-family="sans-serif" font-size="14" lengthAdjust="spacing" textLength="156" x="113.5" y="1209.3857">unsetCallbacks() : void</text><polygon fill="#FFFF44" points="104.5,1217.3359,108.5,1221.3359,104.5,1225.3359,100.5,1221.3359" style="stroke:#B38D22;stroke-width:1.0;"/><text fill="#000000" font-family="sans-serif" font-size="14" lengthAdjust="spacing" textLength="217" x="113.5" y="1225.6826">unsetChild(childId: string) : void</text><polygon fill="#FFFF44" points="104.5,1233.6328,108.5,1237.6328,104.5,1241.6328,100.5,1237.6328" style="stroke:#B38D22;stroke-width:1.0;"/><text fill="#000000" font-family="sans-serif" font-size="14" lengthAdjust="spacing" textLength="199" x="113.5" y="1241.9795">unsetGlobalCallbacks() : void</text><polygon fill="#FFFF44" points="104.5,1249.9297,108.5,1253.9297,104.5,1257.9297,100.5,1253.9297" style="stroke:#B38D22;stroke-width:1.0;"/><text fill="#000000" font-family="sans-serif" font-size="14" lengthAdjust="spacing" textLength="187" x="113.5" y="1258.2764">unsetHtmlElements() : void</text><rect fill="#F24D5C" height="6" style="stroke:#C82930;stroke-width:1.0;" width="6" x="101.5" y="1268.2266"/><text fill="#000000" font-family="sans-serif" font-size="14" lengthAdjust="spacing" textLength="449" x="113.5" y="1274.5732">_addContentItem(tabsContentChildItem: TabsContentItem) : void</text><rect fill="#F24D5C" height="6" style="stroke:#C82930;stroke-width:1.0;" width="6" x="101.5" y="1284.5234"/><text fill="#000000" font-family="sans-serif" font-size="14" lengthAdjust="spacing" textLength="131" x="113.5" y="1290.8701">_addEvents() : void</text><rect fill="#F24D5C" height="6" style="stroke:#C82930;stroke-width:1.0;" width="6" x="101.5" y="1300.8203"/><text fill="#000000" font-family="sans-serif" font-size="14" lengthAdjust="spacing" textLength="431" x="113.5" y="1307.167">_addHeaderItem(tabsHeaderChildItem: TabsHeaderItem) : void</text><rect fill="#F24D5C" height="6" style="stroke:#C82930;stroke-width:1.0;" width="6" x="101.5" y="1317.1172"/><text fill="#000000" font-family="sans-serif" font-size="14" lengthAdjust="spacing" textLength="608" x="113.5" y="1323.4639">_changeActiveContentItem(newTabIndex: number, triggeredByObserver: boolean) : void</text><rect fill="#F24D5C" height="6" style="stroke:#C82930;stroke-width:1.0;" width="6" x="101.5" y="1333.4141"/><text fill="#000000" font-family="sans-serif" font-size="14" lengthAdjust="spacing" textLength="466" x="113.5" y="1339.7607">_changeActiveHeaderItem(newHeaderItem: ITabsHeaderItem) : void</text><rect fill="#F24D5C" height="6" style="stroke:#C82930;stroke-width:1.0;" width="6" x="101.5" y="1349.7109"/><text fill="#000000" font-family="sans-serif" font-size="14" lengthAdjust="spacing" textLength="311" x="113.5" y="1356.0576">_getTargetIndex(tabIndex: number) : number</text><rect fill="#F24D5C" height="6" style="stroke:#C82930;stroke-width:1.0;" width="6" x="101.5" y="1366.0078"/><text fill="#000000" font-family="sans-serif" font-size="14" lengthAdjust="spacing" textLength="330" x="113.5" y="1372.3545">_handleKeypressEvent(e: KeyboardEvent) : void</text><rect fill="#F24D5C" height="6" style="stroke:#C82930;stroke-width:1.0;" width="6" x="101.5" y="1382.3047"/><text fill="#000000" font-family="sans-serif" font-size="14" lengthAdjust="spacing" textLength="211" x="113.5" y="1388.6514">_handleOnResizeEvent() : void</text><rect fill="#F24D5C" height="6" style="stroke:#C82930;stroke-width:1.0;" width="6" x="101.5" y="1398.6016"/><text fill="#000000" font-family="sans-serif" font-size="14" lengthAdjust="spacing" textLength="190" x="113.5" y="1404.9482">_handleTabIndicator() : void</text><rect fill="#F24D5C" height="6" style="stroke:#C82930;stroke-width:1.0;" width="6" x="101.5" y="1414.8984"/><text fill="#000000" font-family="sans-serif" font-size="14" lengthAdjust="spacing" textLength="283" x="113.5" y="1421.2451">_prepareHeaderAndContentItems() : void</text><rect fill="#F24D5C" height="6" style="stroke:#C82930;stroke-width:1.0;" width="6" x="101.5" y="1431.1953"/><text fill="#000000" font-family="sans-serif" font-size="14" lengthAdjust="spacing" textLength="344" x="113.5" y="1437.542">_removeContentItem(childContentId: string) : void</text><rect fill="#F24D5C" height="6" style="stroke:#C82930;stroke-width:1.0;" width="6" x="101.5" y="1447.4922"/><text fill="#000000" font-family="sans-serif" font-size="14" lengthAdjust="spacing" textLength="157" x="113.5" y="1453.8389">_removeEvents() : void</text><rect fill="#F24D5C" height="6" style="stroke:#C82930;stroke-width:1.0;" width="6" x="101.5" y="1463.7891"/><text fill="#000000" font-family="sans-serif" font-size="14" lengthAdjust="spacing" textLength="332" x="113.5" y="1470.1357">_removeHeaderItem(childHeaderId: string) : void</text><rect fill="#F24D5C" height="6" style="stroke:#C82930;stroke-width:1.0;" width="6" x="101.5" y="1480.0859"/><text fill="#000000" font-family="sans-serif" font-size="14" lengthAdjust="spacing" textLength="460" x="113.5" y="1486.4326">_scrollToTargetContent(newContentItem: ITabsContentItem) : void</text><rect fill="#F24D5C" height="6" style="stroke:#C82930;stroke-width:1.0;" width="6" x="101.5" y="1496.3828"/><text fill="#000000" font-family="sans-serif" font-size="14" lengthAdjust="spacing" textLength="380" x="113.5" y="1502.7295">_setContentAutoHeight(hasAutoHeight: boolean) : void</text><rect fill="#F24D5C" height="6" style="stroke:#C82930;stroke-width:1.0;" width="6" x="101.5" y="1512.6797"/><text fill="#000000" font-family="sans-serif" font-size="14" lengthAdjust="spacing" textLength="176" x="113.5" y="1519.0264">_setDragObserver() : void</text><rect fill="#F24D5C" height="6" style="stroke:#C82930;stroke-width:1.0;" width="6" x="101.5" y="1528.9766"/><text fill="#000000" font-family="sans-serif" font-size="14" lengthAdjust="spacing" textLength="429" x="113.5" y="1535.3232">_setHeaderItemsCustomProperty(itemsLength: number) : void</text><rect fill="#F24D5C" height="6" style="stroke:#C82930;stroke-width:1.0;" width="6" x="101.5" y="1545.2734"/><text fill="#000000" font-family="sans-serif" font-size="14" lengthAdjust="spacing" textLength="217" x="113.5" y="1551.6201">_setHeight(height: string) : void</text><rect fill="#F24D5C" height="6" style="stroke:#C82930;stroke-width:1.0;" width="6" x="101.5" y="1561.5703"/><text fill="#000000" font-family="sans-serif" font-size="14" lengthAdjust="spacing" textLength="168" x="113.5" y="1567.917">_setInitialOptions() : void</text><rect fill="#F24D5C" height="6" style="stroke:#C82930;stroke-width:1.0;" width="6" x="101.5" y="1577.8672"/><text fill="#000000" font-family="sans-serif" font-size="14" lengthAdjust="spacing" textLength="273" x="113.5" y="1584.2139">_setIsJustified(isJustified: boolean) : void</text><rect fill="#F24D5C" height="6" style="stroke:#C82930;stroke-width:1.0;" width="6" x="101.5" y="1594.1641"/><text fill="#000000" font-family="sans-serif" font-size="14" lengthAdjust="spacing" textLength="315" x="113.5" y="1600.5107">_setOrientation(orientation: Orientation) : void</text><rect fill="#F24D5C" height="6" style="stroke:#C82930;stroke-width:1.0;" width="6" x="101.5" y="1610.4609"/><text fill="#000000" font-family="sans-serif" font-size="14" lengthAdjust="spacing" textLength="261" x="113.5" y="1616.8076">_setPosition(position: Direction) : void</text><rect fill="#F24D5C" height="6" style="stroke:#C82930;stroke-width:1.0;" width="6" x="101.5" y="1626.7578"/><text fill="#000000" font-family="sans-serif" font-size="14" lengthAdjust="spacing" textLength="576" x="113.5" y="1633.1045">_setTabHeaderItemDisabledStatus(childHeaderId: string, isDisabled: boolean) : void</text><rect fill="#F24D5C" height="6" style="stroke:#C82930;stroke-width:1.0;" width="6" x="101.5" y="1643.0547"/><text fill="#000000" font-family="sans-serif" font-size="14" lengthAdjust="spacing" textLength="415" x="113.5" y="1649.4014">_tabHeaderItemHasBeenClicked(childHeaderId: string) : void</text><rect fill="#F24D5C" height="6" style="stroke:#C82930;stroke-width:1.0;" width="6" x="101.5" y="1659.3516"/><text fill="#000000" font-family="sans-serif" font-size="14" lengthAdjust="spacing" textLength="345" x="113.5" y="1665.6982">_triggerOnChangeEvent(activeTab: number) : void</text><rect fill="#F24D5C" height="6" style="stroke:#C82930;stroke-width:1.0;" width="6" x="101.5" y="1675.6484"/><text fill="#000000" font-family="sans-serif" font-size="14" lengthAdjust="spacing" textLength="194" x="113.5" y="1681.9951">_unsetDragObserver() : void</text><rect fill="#F24D5C" height="6" style="stroke:#C82930;stroke-width:1.0;" width="6" x="101.5" y="1691.9453"/><text fill="#000000" font-family="sans-serif" font-size="14" lengthAdjust="spacing" textLength="397" x="113.5" y="1698.292">_updateItemsConnection(updateDataTab: boolean) : void</text></g><!--reverse link IParent to ITabs--><g id="link_IParent_ITabs"><path codeLine="33" d="M540.5,236.19 C540.5,255.6 540.5,258.03 540.5,277.89 " fill="none" id="IParent-backto-ITabs" style="stroke:#272B30;stroke-width:1.0;"/><polygon fill="none" points="540.5,218.19,534.5,236.19,546.5,236.19,540.5,218.19" style="stroke:#272B30;stroke-width:1.0;"/></g><!--reverse link ITabs to Tabs--><g id="link_ITabs_Tabs"><path codeLine="102" d="M540.5,540.28 C540.5,558.77 540.5,560.81 540.5,581.97 " fill="none" id="ITabs-backto-Tabs" style="stroke:#272B30;stroke-width:1.0;stroke-dasharray:7.0,7.0;"/><polygon fill="none" points="540.5,522.28,534.5,540.28,546.5,540.28,540.5,522.28" style="stroke:#272B30;stroke-width:1.0;"/></g><!--SRC=[xLZVRzis47xFNq4aBmhc56itO83H5rjk4szT7In6WQ4e1aeyoqGeKYMffDxI_tqdYh98oNQxXs4Ri3mOqltYyRllZbJCFPSLrRGagQ36pBHMZwaIIfEB5p-yoBxxzip45dEb6UZJ9ZI_BxIg9VDccyqci1cfSs3VCtgsvGm8b9NTaHBiLZ4JYZOS14gujA0tD0TolbpJp9oJFyu8_dt3pRpcmf8foPGIG6KhDY0shmIK81lLpVhdD_wjLTUIVwnXoL1dhEQoQCMFd1LWH-8CtYhBCHCstwLRBbYIDxzB2-MKB9raGgGtMQlE-HB3F2ZEV92wSOnb-PRA0cwrga3RNLBvXxUqX2x8X7JITrJKAAxblLIFyb0W12QnD5jA1f-cHDPb1df2K69kW6BrVCBhI30XcL3v_Iepe1z0xt54HysB0lIh1uHjB6x063d5MJ5kAcLWi6duM5DXrcgvI3WBiOeAgA7W1ckUKY4oP4u2JHenChdNJSdgxXeaQ9x7IrbL508McXRNO6ojmIIKiV1zdFddY6ktLEEo_xFjNrFNpsTzKLu-NLrry-0iRqOGEG-7mmKtkDi772PwJWsmGIvNlz7SyeUcRLA5DPUshw4BwgKDyaE7jdy6zdrJUVEyrascAytnbrgk99e6Rx7PEyITuzvlbU7McIwuXZmmPCZShkUQHHkYcjQY4tjBX-fAjXdz1BiAkMxGnSCPM_q2XlyE8-sMch1LHkYX_Wxh9S3ZD3ROus7UW2pibdHJoHjKWjgDqgKRCGs2AvawaZOmtNKlJkizDB8Cyvb9NZe4N-F90Yk98m-HiqhljnAjO_jY7c_JrcnOsCDM-_LETFt9FexfGfx8W6znXpjt5sqtSzLUxohuhnmlV_ynKb6BZI2NnwSEpjcq0zya5j4BJPFbg1p3_hzy_-4VFfVSGDjmoSrsFgxrHRT3Jx88YYzlBuuntxaQ9pokj8ky7c3tLsEtaGya6JJiXG4xU_xyLyzSZl34cqLzX_yXrUZG_79vXp5kR2byDmzNyCIz3MVNdWtDH7kDqdHCWGcXkZ3x3dl_uMJOfUIMKu73ZCKhn5wrF855gpp6Ye7TjL0P5IT37GS5JqR60ZoJOEAcyTGxXheBuRPwA7PVlQGVEEcnUJhmRyVNp9tTOP8I7jVZUVQrSocE6oI8OKyCn44Cx8iryWBlWQunXlFrSdYKuP9CG7UYExmIR4WKP8hg5i314grBTyotBWTDMZ3QWsreWSlXPvpVvao6nHxLIqEfOgGT_Jh1OHPsReSfqEe2a5r4_tuieCcr4cAjMe3zyarvWjIcfsS11jbxpcghRe0NMvlWrQT_EqOFz5m45xPahExtOzBQM5NkpshUNvf2AWpTssHy5eSnQ9ZbHicgQcuEva0QI_CZhkvk6mdldq_iAxZ39gf_ZYwtOoztiMrSAlyGt737rljRTeFFWXkQ2M1t6BisXwi_8TnqTiTojs7G6shc038LFBy7zbMKyjCXkfec-w-28wLom_CK5UgAKGij3vIKBI99ArrGIrteyOTgzw-Gbq_Fdlaldpy1]--></g></svg>