<?xml version="1.0" encoding="us-ascii" standalone="no"?><svg xmlns="http://www.w3.org/2000/svg" xmlns:xlink="http://www.w3.org/1999/xlink" contentStyleType="text/css" height="1217px" preserveAspectRatio="none" style="width:612px;height:1217px;background:#CED4DA;" version="1.1" viewBox="0 0 612 1217" width="612px" zoomAndPan="magnify"><defs/><g><rect fill="#CED4DA" height="1217" style="stroke:none;stroke-width:1.0;" width="612" x="0" y="0"/><!--class ITouchEvents--><g id="elem_ITouchEvents"><rect codeLine="7" fill="#FFFFFF" height="196.3945" id="ITouchEvents" rx="2.5" ry="2.5" style="stroke:#272B30;stroke-width:0.5;" width="508" x="53" y="263"/><ellipse cx="257.25" cy="279" fill="#B4A7E5" rx="11" ry="11" style="stroke:#181818;stroke-width:1.0;"/><path d="M253.6777,275.2651 L253.6777,273.1069 L261.0571,273.1069 L261.0571,275.2651 L258.5918,275.2651 L258.5918,283.3418 L261.0571,283.3418 L261.0571,285.5 L253.6777,285.5 L253.6777,283.3418 L256.1431,283.3418 L256.1431,275.2651 Z " fill="#000000"/><text fill="#000000" font-family="sans-serif" font-size="14" font-style="italic" lengthAdjust="spacing" textLength="91" x="277.75" y="284.291">ITouchEvents</text><line style="stroke:#272B30;stroke-width:0.5;" x1="54" x2="560" y1="295" y2="295"/><ellipse cx="64" cy="308.7441" fill="none" rx="3" ry="3" style="stroke:#038048;stroke-width:1.0;"/><text fill="#000000" font-family="sans-serif" font-size="14" lengthAdjust="spacing" textLength="109" x="73" y="312.5352">isBuilt : boolean</text><ellipse cx="64" cy="325.2324" fill="none" rx="3" ry="3" style="stroke:#038048;stroke-width:1.0;"/><text fill="#000000" font-family="sans-serif" font-size="14" lengthAdjust="spacing" textLength="184" x="73" y="329.0234">selfElement : HTMLElement</text><ellipse cx="64" cy="341.7207" fill="none" rx="3" ry="3" style="stroke:#038048;stroke-width:1.0;"/><text fill="#000000" font-family="sans-serif" font-size="14" lengthAdjust="spacing" textLength="113" x="73" y="345.5117">uniqueId : string</text><ellipse cx="64" cy="358.209" fill="none" rx="3" ry="3" style="stroke:#038048;stroke-width:1.0;"/><text fill="#000000" font-family="sans-serif" font-size="14" lengthAdjust="spacing" textLength="111" x="73" y="362">widgetId : string</text><line style="stroke:#272B30;stroke-width:0.5;" x1="54" x2="560" y1="368.9531" y2="368.9531"/><ellipse cx="64" cy="382.6973" fill="#84BE84" rx="3" ry="3" style="stroke:#038048;stroke-width:1.0;"/><text fill="#000000" font-family="sans-serif" font-size="14" lengthAdjust="spacing" textLength="86" x="73" y="386.4883">build() : void</text><ellipse cx="64" cy="399.1855" fill="#84BE84" rx="3" ry="3" style="stroke:#038048;stroke-width:1.0;"/><text fill="#000000" font-family="sans-serif" font-size="14" lengthAdjust="spacing" textLength="482" x="73" y="402.9766">changeProperty(propertyName: string, propertyValue: unknown) : void</text><ellipse cx="64" cy="415.6738" fill="#84BE84" rx="3" ry="3" style="stroke:#038048;stroke-width:1.0;"/><text fill="#000000" font-family="sans-serif" font-size="14" lengthAdjust="spacing" textLength="104" x="73" y="419.4648">dispose() : void</text><ellipse cx="64" cy="432.1621" fill="#84BE84" rx="3" ry="3" style="stroke:#038048;stroke-width:1.0;"/><text fill="#000000" font-family="sans-serif" font-size="14" lengthAdjust="spacing" textLength="216" x="73" y="435.9531">equalsToID(id: string) : boolean</text><ellipse cx="64" cy="448.6504" fill="#84BE84" rx="3" ry="3" style="stroke:#038048;stroke-width:1.0;"/><text fill="#000000" font-family="sans-serif" font-size="14" lengthAdjust="spacing" textLength="428" x="73" y="452.4414">registerCallback(eventName: string, callback: OSGeneric) : void</text></g><!--class IPattern--><g id="elem_IPattern"><rect codeLine="18" fill="#FFFFFF" height="196.3945" id="IPattern" rx="2.5" ry="2.5" style="stroke:#272B30;stroke-width:0.5;" width="508" x="53" y="7"/><ellipse cx="276.25" cy="23" fill="#B4A7E5" rx="11" ry="11" style="stroke:#181818;stroke-width:1.0;"/><path d="M272.6777,19.2651 L272.6777,17.1069 L280.0571,17.1069 L280.0571,19.2651 L277.5918,19.2651 L277.5918,27.3418 L280.0571,27.3418 L280.0571,29.5 L272.6777,29.5 L272.6777,27.3418 L275.1431,27.3418 L275.1431,19.2651 Z " fill="#000000"/><text fill="#000000" font-family="sans-serif" font-size="14" font-style="italic" lengthAdjust="spacing" textLength="53" x="296.75" y="28.291">IPattern</text><line style="stroke:#272B30;stroke-width:0.5;" x1="54" x2="560" y1="39" y2="39"/><ellipse cx="64" cy="52.7441" fill="none" rx="3" ry="3" style="stroke:#038048;stroke-width:1.0;"/><text fill="#000000" font-family="sans-serif" font-size="14" lengthAdjust="spacing" textLength="109" x="73" y="56.5352">isBuilt : boolean</text><ellipse cx="64" cy="69.2324" fill="none" rx="3" ry="3" style="stroke:#038048;stroke-width:1.0;"/><text fill="#000000" font-family="sans-serif" font-size="14" lengthAdjust="spacing" textLength="184" x="73" y="73.0234">selfElement : HTMLElement</text><ellipse cx="64" cy="85.7207" fill="none" rx="3" ry="3" style="stroke:#038048;stroke-width:1.0;"/><text fill="#000000" font-family="sans-serif" font-size="14" lengthAdjust="spacing" textLength="113" x="73" y="89.5117">uniqueId : string</text><ellipse cx="64" cy="102.209" fill="none" rx="3" ry="3" style="stroke:#038048;stroke-width:1.0;"/><text fill="#000000" font-family="sans-serif" font-size="14" lengthAdjust="spacing" textLength="111" x="73" y="106">widgetId : string</text><line style="stroke:#272B30;stroke-width:0.5;" x1="54" x2="560" y1="112.9531" y2="112.9531"/><ellipse cx="64" cy="126.6973" fill="#84BE84" rx="3" ry="3" style="stroke:#038048;stroke-width:1.0;"/><text fill="#000000" font-family="sans-serif" font-size="14" lengthAdjust="spacing" textLength="86" x="73" y="130.4883">build() : void</text><ellipse cx="64" cy="143.1855" fill="#84BE84" rx="3" ry="3" style="stroke:#038048;stroke-width:1.0;"/><text fill="#000000" font-family="sans-serif" font-size="14" lengthAdjust="spacing" textLength="482" x="73" y="146.9766">changeProperty(propertyName: string, propertyValue: unknown) : void</text><ellipse cx="64" cy="159.6738" fill="#84BE84" rx="3" ry="3" style="stroke:#038048;stroke-width:1.0;"/><text fill="#000000" font-family="sans-serif" font-size="14" lengthAdjust="spacing" textLength="104" x="73" y="163.4648">dispose() : void</text><ellipse cx="64" cy="176.1621" fill="#84BE84" rx="3" ry="3" style="stroke:#038048;stroke-width:1.0;"/><text fill="#000000" font-family="sans-serif" font-size="14" lengthAdjust="spacing" textLength="216" x="73" y="179.9531">equalsToID(id: string) : boolean</text><ellipse cx="64" cy="192.6504" fill="#84BE84" rx="3" ry="3" style="stroke:#038048;stroke-width:1.0;"/><text fill="#000000" font-family="sans-serif" font-size="14" lengthAdjust="spacing" textLength="428" x="73" y="196.4414">registerCallback(eventName: string, callback: OSGeneric) : void</text></g><!--class TouchEvents--><g id="elem_TouchEvents"><rect codeLine="30" fill="#FFFFFF" height="691.043" id="TouchEvents" rx="2.5" ry="2.5" style="stroke:#272B30;stroke-width:0.5;" width="596" x="9" y="519"/><ellipse cx="259.25" cy="535" fill="#ADD1B2" rx="11" ry="11" style="stroke:#181818;stroke-width:1.0;"/><path d="M261.7231,541.1431 Q261.1421,541.4419 260.5029,541.5913 Q259.8638,541.7407 259.1582,541.7407 Q256.6514,541.7407 255.3315,540.0889 Q254.0117,538.437 254.0117,535.3159 Q254.0117,532.1865 255.3315,530.5347 Q256.6514,528.8828 259.1582,528.8828 Q259.8638,528.8828 260.5112,529.0322 Q261.1587,529.1816 261.7231,529.4805 L261.7231,532.2031 Q261.0923,531.6221 260.4988,531.3523 Q259.9053,531.0825 259.2744,531.0825 Q257.9297,531.0825 257.2449,532.1492 Q256.5601,533.2158 256.5601,535.3159 Q256.5601,537.4077 257.2449,538.4744 Q257.9297,539.541 259.2744,539.541 Q259.9053,539.541 260.4988,539.2712 Q261.0923,539.0015 261.7231,538.4204 Z " fill="#000000"/><text fill="#000000" font-family="sans-serif" font-size="14" lengthAdjust="spacing" textLength="87" x="279.75" y="540.291">TouchEvents</text><line style="stroke:#272B30;stroke-width:0.5;" x1="10" x2="604" y1="551" y2="551"/><polygon fill="none" points="20,559.7441,24,563.7441,20,567.7441,16,563.7441" style="stroke:#B38D22;stroke-width:1.0;"/><text fill="#000000" font-family="sans-serif" font-size="14" lengthAdjust="spacing" textLength="176" x="29" y="568.5352">isProviderBased : boolean</text><rect fill="none" height="6" style="stroke:#C82930;stroke-width:1.0;" width="6" x="17" y="578.2324"/><text fill="#000000" font-family="sans-serif" font-size="14" lengthAdjust="spacing" textLength="132" x="29" y="585.0234">_currentX : number</text><rect fill="none" height="6" style="stroke:#C82930;stroke-width:1.0;" width="6" x="17" y="594.7207"/><text fill="#000000" font-family="sans-serif" font-size="14" lengthAdjust="spacing" textLength="132" x="29" y="601.5117">_currentY : number</text><rect fill="none" height="6" style="stroke:#C82930;stroke-width:1.0;" width="6" x="17" y="611.209"/><text fill="#000000" font-family="sans-serif" font-size="14" lengthAdjust="spacing" textLength="134" x="29" y="618">_endEvent : Generic</text><rect fill="none" height="6" style="stroke:#C82930;stroke-width:1.0;" width="6" x="17" y="627.6973"/><text fill="#000000" font-family="sans-serif" font-size="14" lengthAdjust="spacing" textLength="192" x="29" y="634.4883">_endEventCallback : Generic</text><rect fill="none" height="6" style="stroke:#C82930;stroke-width:1.0;" width="6" x="17" y="644.1855"/><text fill="#000000" font-family="sans-serif" font-size="14" lengthAdjust="spacing" textLength="202" x="29" y="650.9766">_eventMoveCallback : Generic</text><rect fill="none" height="6" style="stroke:#C82930;stroke-width:1.0;" width="6" x="17" y="660.6738"/><text fill="#000000" font-family="sans-serif" font-size="14" lengthAdjust="spacing" textLength="198" x="29" y="667.4648">_eventStartCallback : Generic</text><rect fill="none" height="6" style="stroke:#C82930;stroke-width:1.0;" width="6" x="17" y="677.1621"/><text fill="#000000" font-family="sans-serif" font-size="14" lengthAdjust="spacing" textLength="145" x="29" y="683.9531">_moveEvent : Generic</text><rect fill="none" height="6" style="stroke:#C82930;stroke-width:1.0;" width="6" x="17" y="693.6504"/><text fill="#000000" font-family="sans-serif" font-size="14" lengthAdjust="spacing" textLength="139" x="29" y="700.4414">_startEvent : Generic</text><rect fill="none" height="6" style="stroke:#C82930;stroke-width:1.0;" width="6" x="17" y="710.1387"/><text fill="#000000" font-family="sans-serif" font-size="14" lengthAdjust="spacing" textLength="138" x="29" y="716.9297">_startTime : number</text><rect fill="none" height="6" style="stroke:#C82930;stroke-width:1.0;" width="6" x="17" y="726.627"/><text fill="#000000" font-family="sans-serif" font-size="14" lengthAdjust="spacing" textLength="113" x="29" y="733.418">_startX : number</text><rect fill="none" height="6" style="stroke:#C82930;stroke-width:1.0;" width="6" x="17" y="743.1152"/><text fill="#000000" font-family="sans-serif" font-size="14" lengthAdjust="spacing" textLength="113" x="29" y="749.9063">_startY : number</text><rect fill="none" height="6" style="stroke:#C82930;stroke-width:1.0;" width="6" x="17" y="759.6035"/><text fill="#000000" font-family="sans-serif" font-size="14" lengthAdjust="spacing" textLength="145" x="29" y="766.3945">_timeTaken : number</text><rect fill="none" height="6" style="stroke:#C82930;stroke-width:1.0;" width="6" x="17" y="776.0918"/><text fill="#000000" font-family="sans-serif" font-size="14" lengthAdjust="spacing" textLength="191" x="29" y="782.8828">_touchingElement : boolean</text><rect fill="none" height="6" style="stroke:#C82930;stroke-width:1.0;" width="6" x="17" y="792.5801"/><text fill="#000000" font-family="sans-serif" font-size="14" lengthAdjust="spacing" textLength="230" x="29" y="799.3711">_trackableElement : HTMLElement</text><rect fill="none" height="6" style="stroke:#C82930;stroke-width:1.0;" width="6" x="17" y="809.0684"/><text fill="#000000" font-family="sans-serif" font-size="14" lengthAdjust="spacing" textLength="142" x="29" y="815.8594">_translateX : number</text><rect fill="none" height="6" style="stroke:#C82930;stroke-width:1.0;" width="6" x="17" y="825.5566"/><text fill="#000000" font-family="sans-serif" font-size="14" lengthAdjust="spacing" textLength="142" x="29" y="832.3477">_translateY : number</text><line style="stroke:#272B30;stroke-width:0.5;" x1="10" x2="604" y1="839.3008" y2="839.3008"/><ellipse cx="20" cy="853.0449" fill="#84BE84" rx="3" ry="3" style="stroke:#038048;stroke-width:1.0;"/><text fill="#000000" font-family="sans-serif" font-size="14" lengthAdjust="spacing" textLength="86" x="29" y="856.8359">build() : void</text><ellipse cx="20" cy="869.5332" fill="#84BE84" rx="3" ry="3" style="stroke:#038048;stroke-width:1.0;"/><text fill="#000000" font-family="sans-serif" font-size="14" lengthAdjust="spacing" textLength="482" x="29" y="873.3242">changeProperty(propertyName: string, propertyValue: unknown) : void</text><ellipse cx="20" cy="886.0215" fill="#84BE84" rx="3" ry="3" style="stroke:#038048;stroke-width:1.0;"/><text fill="#000000" font-family="sans-serif" font-size="14" lengthAdjust="spacing" textLength="104" x="29" y="889.8125">dispose() : void</text><ellipse cx="20" cy="902.5098" fill="#84BE84" rx="3" ry="3" style="stroke:#038048;stroke-width:1.0;"/><text fill="#000000" font-family="sans-serif" font-size="14" lengthAdjust="spacing" textLength="266" x="29" y="906.3008">equalsToID(patternId: string) : boolean</text><ellipse cx="20" cy="918.998" fill="#84BE84" rx="3" ry="3" style="stroke:#038048;stroke-width:1.0;"/><text fill="#000000" font-family="sans-serif" font-size="14" lengthAdjust="spacing" textLength="428" x="29" y="922.7891">registerCallback(eventName: string, callback: OSGeneric) : void</text><polygon fill="#FFFF44" points="20,930.4863,24,934.4863,20,938.4863,16,934.4863" style="stroke:#B38D22;stroke-width:1.0;"/><text fill="#000000" font-family="sans-serif" font-size="14" lengthAdjust="spacing" textLength="123" x="29" y="939.2773">finishBuild() : void</text><polygon fill="#FFFF44" points="20,946.9746,24,950.9746,20,954.9746,16,950.9746" style="stroke:#B38D22;stroke-width:1.0;"/><text fill="#000000" font-family="sans-serif" font-size="14" lengthAdjust="spacing" textLength="178" x="29" y="955.7656">setA11YProperties() : void</text><polygon fill="#FFFF44" points="20,963.4629,24,967.4629,20,971.4629,16,967.4629" style="stroke:#B38D22;stroke-width:1.0;"/><text fill="#000000" font-family="sans-serif" font-size="14" lengthAdjust="spacing" textLength="136" x="29" y="972.2539">setCallbacks() : void</text><polygon fill="#FFFF44" points="20,979.9512,24,983.9512,20,987.9512,16,983.9512" style="stroke:#B38D22;stroke-width:1.0;"/><text fill="#000000" font-family="sans-serif" font-size="14" lengthAdjust="spacing" textLength="165" x="29" y="988.7422">setHtmlElements() : void</text><polygon fill="#FFFF44" points="20,996.4395,24,1000.4395,20,1004.4395,16,1000.4395" style="stroke:#B38D22;stroke-width:1.0;"/><text fill="#000000" font-family="sans-serif" font-size="14" lengthAdjust="spacing" textLength="570" x="29" y="1005.2305">triggerPlatformEventCallback(platFormCallback: OSGeneric, args: unknown[]) : void</text><polygon fill="#FFFF44" points="20,1012.9277,24,1016.9277,20,1020.9277,16,1016.9277" style="stroke:#B38D22;stroke-width:1.0;"/><text fill="#000000" font-family="sans-serif" font-size="14" lengthAdjust="spacing" textLength="318" x="29" y="1021.7188">triggerPlatformInitializedEventCallback() : void</text><polygon fill="#FFFF44" points="20,1029.416,24,1033.416,20,1037.416,16,1033.416" style="stroke:#B38D22;stroke-width:1.0;"/><text fill="#000000" font-family="sans-serif" font-size="14" lengthAdjust="spacing" textLength="154" x="29" y="1038.207">unsetCallbacks() : void</text><polygon fill="#FFFF44" points="20,1045.9043,24,1049.9043,20,1053.9043,16,1049.9043" style="stroke:#B38D22;stroke-width:1.0;"/><text fill="#000000" font-family="sans-serif" font-size="14" lengthAdjust="spacing" textLength="198" x="29" y="1054.6953">unsetGlobalCallbacks() : void</text><polygon fill="#FFFF44" points="20,1062.3926,24,1066.3926,20,1070.3926,16,1066.3926" style="stroke:#B38D22;stroke-width:1.0;"/><text fill="#000000" font-family="sans-serif" font-size="14" lengthAdjust="spacing" textLength="183" x="29" y="1071.1836">unsetHtmlElements() : void</text><rect fill="#F24D5C" height="6" style="stroke:#C82930;stroke-width:1.0;" width="6" x="17" y="1080.8809"/><text fill="#000000" font-family="sans-serif" font-size="14" lengthAdjust="spacing" textLength="164" x="29" y="1087.6719">_eventTouchEnd() : void</text><rect fill="#F24D5C" height="6" style="stroke:#C82930;stroke-width:1.0;" width="6" x="17" y="1097.3691"/><text fill="#000000" font-family="sans-serif" font-size="14" lengthAdjust="spacing" textLength="282" x="29" y="1104.1602">_eventTouchMove(evt: TouchEvent) : void</text><rect fill="#F24D5C" height="6" style="stroke:#C82930;stroke-width:1.0;" width="6" x="17" y="1113.8574"/><text fill="#000000" font-family="sans-serif" font-size="14" lengthAdjust="spacing" textLength="278" x="29" y="1120.6484">_eventTouchStart(evt: TouchEvent) : void</text><rect fill="#F24D5C" height="6" style="stroke:#C82930;stroke-width:1.0;" width="6" x="17" y="1130.3457"/><text fill="#000000" font-family="sans-serif" font-size="14" lengthAdjust="spacing" textLength="207" x="29" y="1137.1367">_removeEventListeners() : void</text><rect fill="#F24D5C" height="6" style="stroke:#C82930;stroke-width:1.0;" width="6" x="17" y="1146.834"/><text fill="#000000" font-family="sans-serif" font-size="14" lengthAdjust="spacing" textLength="176" x="29" y="1153.625">_setEventListeners() : void</text><rect fill="#F24D5C" height="6" style="stroke:#C82930;stroke-width:1.0;" width="6" x="17" y="1163.3223"/><text fill="#000000" font-family="sans-serif" font-size="14" lengthAdjust="spacing" textLength="174" x="29" y="1170.1133">_triggerTouchEnd() : void</text><rect fill="#F24D5C" height="6" style="stroke:#C82930;stroke-width:1.0;" width="6" x="17" y="1179.8105"/><text fill="#000000" font-family="sans-serif" font-size="14" lengthAdjust="spacing" textLength="309" x="29" y="1186.6016">_triggerTouchMove(event: TouchEvent) : void</text><rect fill="#F24D5C" height="6" style="stroke:#C82930;stroke-width:1.0;" width="6" x="17" y="1196.2988"/><text fill="#000000" font-family="sans-serif" font-size="14" lengthAdjust="spacing" textLength="180" x="29" y="1203.0898">_triggerTouchStart() : void</text></g><!--reverse link IPattern to ITouchEvents--><g id="link_IPattern_ITouchEvents"><path codeLine="29" d="M307,223.14 C307,236.46 307,249.92 307,262.94 " fill="none" id="IPattern-backto-ITouchEvents" style="stroke:#272B30;stroke-width:1.0;"/><polygon fill="none" points="300,223.11,307,203.11,314,223.11,300,223.11" style="stroke:#272B30;stroke-width:1.0;"/></g><!--reverse link ITouchEvents to TouchEvents--><g id="link_ITouchEvents_TouchEvents"><path codeLine="71" d="M307,479.59 C307,492.02 307,505.06 307,518.53 " fill="none" id="ITouchEvents-backto-TouchEvents" style="stroke:#272B30;stroke-width:1.0;stroke-dasharray:7.0,7.0;"/><polygon fill="none" points="300,479.29,307,459.29,314,479.29,300,479.29" style="stroke:#272B30;stroke-width:1.0;"/></g><!--SRC=[xLHDRzim3BtdLmZ99SMQOkq630XwQRAk3T1k0HeCBOPXa2tQ4I9BBYKbwDRzzz4VIMCxzYuRTbbEyNkF5Fb4ogwaJZdoX4qLj_O2qMocHXbaWxDtPy6RrprRLKmC2i1k2GzNCHglHIcBecXFqw1346y5xosb00P9wfvO0cvfXDs78WcA4AaTOCH3OFtPmlXmURa6xMoV_UWn-hsITkAbScpC0cCKS5t05bHqgI0XBL7NYzkRygkWlPQF7cQ2EEjGwhY0DrB4u1fmG2U8uH6XQoD5WOLBhcEOeqa1tTCmBVzyv0biWu_P5ltCbIVOwvKs6rrD9AHDZOLQUdZqNDc5cRqVIh5DU5Jl4Y6MbloPSgK2Sda8cJdL6iAI6xDFTrUW0MMuE-fdnTuvT_IX_rlxPwpTC_JyUJIgpMylp3Q7zG_Cz41QQdvDgu0JRa7KIXjz2pqY1TmJeNqI05RnXpeEMkGd45wMMIEsJJO56Njhrj2jk7CSsvCa57_uV9l5TL0BcK2zcPouFuWs6dSKl-0hq0qYSvtky6MEgmuxf4PueA1zq7EHjeexQ5IpOseL_UDnJujvdFszgS_7Dv9QskMasUh0WhiuFNqeUvLWc_psv0FKjKjKUGDrbagBOy0vUHuPJ2f3FKm9_K3ej5duCUCOsvsVNxvsffrfwIHNyZjKrwPMZDSTVUJabJ81LvsIzcRBdIiU3YtQoMnlwGBTcBqyCgtYV8L_eqROhV9DDYPaOQCsAhrRK7hQLlu-NJP0sJgAsWyecgYymPNtzVpvvAJwvFu2]--></g></svg>