<?xml version="1.0" encoding="us-ascii" standalone="no"?><svg xmlns="http://www.w3.org/2000/svg" xmlns:xlink="http://www.w3.org/1999/xlink" contentStyleType="text/css" height="1191px" preserveAspectRatio="none" style="width:611px;height:1191px;background:#CED4DA;" version="1.1" viewBox="0 0 611 1191" width="611px" zoomAndPan="magnify"><defs/><g><rect fill="#CED4DA" height="1191" style="stroke:none;stroke-width:1.0;" width="611" x="0" y="0"/><!--class IVideo--><g id="elem_IVideo"><rect codeLine="7" fill="#FFFFFF" height="259.8594" id="IVideo" rx="2.5" ry="2.5" style="stroke:#272B30;stroke-width:0.5;" width="510" x="51.5" y="262"/><ellipse cx="280.25" cy="278" fill="#B4A7E5" rx="11" ry="11" style="stroke:#181818;stroke-width:1.0;"/><path d="M276.1719,273.7656 L276.1719,271.6094 L283.5625,271.6094 L283.5625,273.7656 L281.0938,273.7656 L281.0938,281.8438 L283.5625,281.8438 L283.5625,284 L276.1719,284 L276.1719,281.8438 L278.6406,281.8438 L278.6406,273.7656 L276.1719,273.7656 Z " fill="#000000"/><text fill="#000000" font-family="sans-serif" font-size="14" font-style="italic" lengthAdjust="spacing" textLength="44" x="300.75" y="282.8467">IVideo</text><line style="stroke:#272B30;stroke-width:0.5;" x1="52.5" x2="560.5" y1="294" y2="294"/><ellipse cx="62.5" cy="307.6484" fill="none" rx="3" ry="3" style="stroke:#038048;stroke-width:1.0;"/><text fill="#000000" font-family="sans-serif" font-size="14" lengthAdjust="spacing" textLength="150" x="71.5" y="310.9951">getVideoState : string</text><ellipse cx="62.5" cy="323.9453" fill="none" rx="3" ry="3" style="stroke:#038048;stroke-width:1.0;"/><text fill="#000000" font-family="sans-serif" font-size="14" lengthAdjust="spacing" textLength="110" x="71.5" y="327.292">isBuilt : boolean</text><ellipse cx="62.5" cy="340.2422" fill="none" rx="3" ry="3" style="stroke:#038048;stroke-width:1.0;"/><text fill="#000000" font-family="sans-serif" font-size="14" lengthAdjust="spacing" textLength="189" x="71.5" y="343.5889">selfElement : HTMLElement</text><ellipse cx="62.5" cy="356.5391" fill="none" rx="3" ry="3" style="stroke:#038048;stroke-width:1.0;"/><text fill="#000000" font-family="sans-serif" font-size="14" lengthAdjust="spacing" textLength="112" x="71.5" y="359.8857">uniqueId : string</text><ellipse cx="62.5" cy="372.8359" fill="none" rx="3" ry="3" style="stroke:#038048;stroke-width:1.0;"/><text fill="#000000" font-family="sans-serif" font-size="14" lengthAdjust="spacing" textLength="110" x="71.5" y="376.1826">widgetId : string</text><line style="stroke:#272B30;stroke-width:0.5;" x1="52.5" x2="560.5" y1="383.4844" y2="383.4844"/><ellipse cx="62.5" cy="397.1328" fill="#84BE84" rx="3" ry="3" style="stroke:#038048;stroke-width:1.0;"/><text fill="#000000" font-family="sans-serif" font-size="14" lengthAdjust="spacing" textLength="84" x="71.5" y="400.4795">build() : void</text><ellipse cx="62.5" cy="413.4297" fill="#84BE84" rx="3" ry="3" style="stroke:#038048;stroke-width:1.0;"/><text fill="#000000" font-family="sans-serif" font-size="14" lengthAdjust="spacing" textLength="484" x="71.5" y="416.7764">changeProperty(propertyName: string, propertyValue: unknown) : void</text><ellipse cx="62.5" cy="429.7266" fill="#84BE84" rx="3" ry="3" style="stroke:#038048;stroke-width:1.0;"/><text fill="#000000" font-family="sans-serif" font-size="14" lengthAdjust="spacing" textLength="106" x="71.5" y="433.0732">dispose() : void</text><ellipse cx="62.5" cy="446.0234" fill="#84BE84" rx="3" ry="3" style="stroke:#038048;stroke-width:1.0;"/><text fill="#000000" font-family="sans-serif" font-size="14" lengthAdjust="spacing" textLength="217" x="71.5" y="449.3701">equalsToID(id: string) : boolean</text><ellipse cx="62.5" cy="462.3203" fill="#84BE84" rx="3" ry="3" style="stroke:#038048;stroke-width:1.0;"/><text fill="#000000" font-family="sans-serif" font-size="14" lengthAdjust="spacing" textLength="434" x="71.5" y="465.667">registerCallback(eventName: string, callback: OSGeneric) : void</text><ellipse cx="62.5" cy="478.6172" fill="#84BE84" rx="3" ry="3" style="stroke:#038048;stroke-width:1.0;"/><text fill="#000000" font-family="sans-serif" font-size="14" lengthAdjust="spacing" textLength="345" x="71.5" y="481.9639">setVideoJumpToTime(currentTime: number) : void</text><ellipse cx="62.5" cy="494.9141" fill="#84BE84" rx="3" ry="3" style="stroke:#038048;stroke-width:1.0;"/><text fill="#000000" font-family="sans-serif" font-size="14" lengthAdjust="spacing" textLength="155" x="71.5" y="498.2607">setVideoPause() : void</text><ellipse cx="62.5" cy="511.2109" fill="#84BE84" rx="3" ry="3" style="stroke:#038048;stroke-width:1.0;"/><text fill="#000000" font-family="sans-serif" font-size="14" lengthAdjust="spacing" textLength="139" x="71.5" y="514.5576">setVideoPlay() : void</text></g><!--class IPattern--><g id="elem_IPattern"><rect codeLine="22" fill="#FFFFFF" height="194.6719" id="IPattern" rx="2.5" ry="2.5" style="stroke:#272B30;stroke-width:0.5;" width="510" x="51.5" y="7"/><ellipse cx="275.75" cy="23" fill="#B4A7E5" rx="11" ry="11" style="stroke:#181818;stroke-width:1.0;"/><path d="M271.6719,18.7656 L271.6719,16.6094 L279.0625,16.6094 L279.0625,18.7656 L276.5938,18.7656 L276.5938,26.8438 L279.0625,26.8438 L279.0625,29 L271.6719,29 L271.6719,26.8438 L274.1406,26.8438 L274.1406,18.7656 L271.6719,18.7656 Z " fill="#000000"/><text fill="#000000" font-family="sans-serif" font-size="14" font-style="italic" lengthAdjust="spacing" textLength="53" x="296.25" y="27.8467">IPattern</text><line style="stroke:#272B30;stroke-width:0.5;" x1="52.5" x2="560.5" y1="39" y2="39"/><ellipse cx="62.5" cy="52.6484" fill="none" rx="3" ry="3" style="stroke:#038048;stroke-width:1.0;"/><text fill="#000000" font-family="sans-serif" font-size="14" lengthAdjust="spacing" textLength="110" x="71.5" y="55.9951">isBuilt : boolean</text><ellipse cx="62.5" cy="68.9453" fill="none" rx="3" ry="3" style="stroke:#038048;stroke-width:1.0;"/><text fill="#000000" font-family="sans-serif" font-size="14" lengthAdjust="spacing" textLength="189" x="71.5" y="72.292">selfElement : HTMLElement</text><ellipse cx="62.5" cy="85.2422" fill="none" rx="3" ry="3" style="stroke:#038048;stroke-width:1.0;"/><text fill="#000000" font-family="sans-serif" font-size="14" lengthAdjust="spacing" textLength="112" x="71.5" y="88.5889">uniqueId : string</text><ellipse cx="62.5" cy="101.5391" fill="none" rx="3" ry="3" style="stroke:#038048;stroke-width:1.0;"/><text fill="#000000" font-family="sans-serif" font-size="14" lengthAdjust="spacing" textLength="110" x="71.5" y="104.8857">widgetId : string</text><line style="stroke:#272B30;stroke-width:0.5;" x1="52.5" x2="560.5" y1="112.1875" y2="112.1875"/><ellipse cx="62.5" cy="125.8359" fill="#84BE84" rx="3" ry="3" style="stroke:#038048;stroke-width:1.0;"/><text fill="#000000" font-family="sans-serif" font-size="14" lengthAdjust="spacing" textLength="84" x="71.5" y="129.1826">build() : void</text><ellipse cx="62.5" cy="142.1328" fill="#84BE84" rx="3" ry="3" style="stroke:#038048;stroke-width:1.0;"/><text fill="#000000" font-family="sans-serif" font-size="14" lengthAdjust="spacing" textLength="484" x="71.5" y="145.4795">changeProperty(propertyName: string, propertyValue: unknown) : void</text><ellipse cx="62.5" cy="158.4297" fill="#84BE84" rx="3" ry="3" style="stroke:#038048;stroke-width:1.0;"/><text fill="#000000" font-family="sans-serif" font-size="14" lengthAdjust="spacing" textLength="106" x="71.5" y="161.7764">dispose() : void</text><ellipse cx="62.5" cy="174.7266" fill="#84BE84" rx="3" ry="3" style="stroke:#038048;stroke-width:1.0;"/><text fill="#000000" font-family="sans-serif" font-size="14" lengthAdjust="spacing" textLength="217" x="71.5" y="178.0732">equalsToID(id: string) : boolean</text><ellipse cx="62.5" cy="191.0234" fill="#84BE84" rx="3" ry="3" style="stroke:#038048;stroke-width:1.0;"/><text fill="#000000" font-family="sans-serif" font-size="14" lengthAdjust="spacing" textLength="434" x="71.5" y="194.3701">registerCallback(eventName: string, callback: OSGeneric) : void</text></g><!--class Video--><g id="elem_Video"><rect codeLine="34" fill="#FFFFFF" height="602.0938" id="Video" rx="2.5" ry="2.5" style="stroke:#272B30;stroke-width:0.5;" width="595" x="9" y="582"/><ellipse cx="282.75" cy="598" fill="#ADD1B2" rx="11" ry="11" style="stroke:#181818;stroke-width:1.0;"/><path d="M285.7188,603.6406 Q285.1406,603.9375 284.5,604.0781 Q283.8594,604.2344 283.1563,604.2344 Q280.6563,604.2344 279.3281,602.5938 Q278.0156,600.9375 278.0156,597.8125 Q278.0156,594.6875 279.3281,593.0313 Q280.6563,591.375 283.1563,591.375 Q283.8594,591.375 284.5,591.5313 Q285.1563,591.6875 285.7188,591.9844 L285.7188,594.7031 Q285.0938,594.125 284.5,593.8594 Q283.9063,593.5781 283.2813,593.5781 Q281.9375,593.5781 281.25,594.6563 Q280.5625,595.7188 280.5625,597.8125 Q280.5625,599.9063 281.25,600.9844 Q281.9375,602.0469 283.2813,602.0469 Q283.9063,602.0469 284.5,601.7813 Q285.0938,601.5 285.7188,600.9219 L285.7188,603.6406 Z " fill="#000000"/><text fill="#000000" font-family="sans-serif" font-size="14" lengthAdjust="spacing" textLength="39" x="303.25" y="602.8467">Video</text><line style="stroke:#272B30;stroke-width:0.5;" x1="10" x2="603" y1="614" y2="614"/><polygon fill="none" points="20,622.6484,24,626.6484,20,630.6484,16,626.6484" style="stroke:#B38D22;stroke-width:1.0;"/><text fill="#000000" font-family="sans-serif" font-size="14" lengthAdjust="spacing" textLength="180" x="29" y="630.9951">isProviderBased : boolean</text><rect fill="none" height="6" style="stroke:#C82930;stroke-width:1.0;" width="6" x="17" y="640.9453"/><text fill="#000000" font-family="sans-serif" font-size="14" lengthAdjust="spacing" textLength="412" x="29" y="647.292">_platformEventOnStateChanged : OSOnStateChangedEvent</text><rect fill="none" height="6" style="stroke:#C82930;stroke-width:1.0;" width="6" x="17" y="657.2422"/><text fill="#000000" font-family="sans-serif" font-size="14" lengthAdjust="spacing" textLength="248" x="29" y="663.5889">_videoElement : HTMLVideoElement</text><rect fill="none" height="6" style="stroke:#C82930;stroke-width:1.0;" width="6" x="17" y="673.5391"/><text fill="#000000" font-family="sans-serif" font-size="14" lengthAdjust="spacing" textLength="179" x="29" y="679.8857">_videoJumpTime : number</text><rect fill="none" height="6" style="stroke:#C82930;stroke-width:1.0;" width="6" x="17" y="689.8359"/><text fill="#000000" font-family="sans-serif" font-size="14" lengthAdjust="spacing" textLength="307" x="29" y="696.1826">_videoSourceElement : HTMLSourceElement</text><rect fill="none" height="6" style="stroke:#C82930;stroke-width:1.0;" width="6" x="17" y="706.1328"/><text fill="#000000" font-family="sans-serif" font-size="14" lengthAdjust="spacing" textLength="132" x="29" y="712.4795">_videoState : string</text><line style="stroke:#272B30;stroke-width:0.5;" x1="10" x2="603" y1="719.7813" y2="719.7813"/><ellipse cx="20" cy="733.4297" fill="#84BE84" rx="3" ry="3" style="stroke:#038048;stroke-width:1.0;"/><text fill="#000000" font-family="sans-serif" font-size="14" lengthAdjust="spacing" textLength="84" x="29" y="736.7764">build() : void</text><ellipse cx="20" cy="749.7266" fill="#84BE84" rx="3" ry="3" style="stroke:#038048;stroke-width:1.0;"/><text fill="#000000" font-family="sans-serif" font-size="14" lengthAdjust="spacing" textLength="484" x="29" y="753.0732">changeProperty(propertyName: string, propertyValue: unknown) : void</text><ellipse cx="20" cy="766.0234" fill="#84BE84" rx="3" ry="3" style="stroke:#038048;stroke-width:1.0;"/><text fill="#000000" font-family="sans-serif" font-size="14" lengthAdjust="spacing" textLength="106" x="29" y="769.3701">dispose() : void</text><ellipse cx="20" cy="782.3203" fill="#84BE84" rx="3" ry="3" style="stroke:#038048;stroke-width:1.0;"/><text fill="#000000" font-family="sans-serif" font-size="14" lengthAdjust="spacing" textLength="267" x="29" y="785.667">equalsToID(patternId: string) : boolean</text><ellipse cx="20" cy="798.6172" fill="#84BE84" rx="3" ry="3" style="stroke:#038048;stroke-width:1.0;"/><text fill="#000000" font-family="sans-serif" font-size="14" lengthAdjust="spacing" textLength="434" x="29" y="801.9639">registerCallback(eventName: string, callback: OSGeneric) : void</text><ellipse cx="20" cy="814.9141" fill="#84BE84" rx="3" ry="3" style="stroke:#038048;stroke-width:1.0;"/><text fill="#000000" font-family="sans-serif" font-size="14" lengthAdjust="spacing" textLength="345" x="29" y="818.2607">setVideoJumpToTime(currentTime: number) : void</text><ellipse cx="20" cy="831.2109" fill="#84BE84" rx="3" ry="3" style="stroke:#038048;stroke-width:1.0;"/><text fill="#000000" font-family="sans-serif" font-size="14" lengthAdjust="spacing" textLength="155" x="29" y="834.5576">setVideoPause() : void</text><ellipse cx="20" cy="847.5078" fill="#84BE84" rx="3" ry="3" style="stroke:#038048;stroke-width:1.0;"/><text fill="#000000" font-family="sans-serif" font-size="14" lengthAdjust="spacing" textLength="139" x="29" y="850.8545">setVideoPlay() : void</text><polygon fill="#FFFF44" points="20,858.8047,24,862.8047,20,866.8047,16,862.8047" style="stroke:#B38D22;stroke-width:1.0;"/><text fill="#000000" font-family="sans-serif" font-size="14" lengthAdjust="spacing" textLength="121" x="29" y="867.1514">finishBuild() : void</text><polygon fill="#FFFF44" points="20,875.1016,24,879.1016,20,883.1016,16,879.1016" style="stroke:#B38D22;stroke-width:1.0;"/><text fill="#000000" font-family="sans-serif" font-size="14" lengthAdjust="spacing" textLength="180" x="29" y="883.4482">setA11YProperties() : void</text><polygon fill="#FFFF44" points="20,891.3984,24,895.3984,20,899.3984,16,895.3984" style="stroke:#B38D22;stroke-width:1.0;"/><text fill="#000000" font-family="sans-serif" font-size="14" lengthAdjust="spacing" textLength="138" x="29" y="899.7451">setCallbacks() : void</text><polygon fill="#FFFF44" points="20,907.6953,24,911.6953,20,915.6953,16,911.6953" style="stroke:#B38D22;stroke-width:1.0;"/><text fill="#000000" font-family="sans-serif" font-size="14" lengthAdjust="spacing" textLength="169" x="29" y="916.042">setHtmlElements() : void</text><polygon fill="#FFFF44" points="20,923.9922,24,927.9922,20,931.9922,16,927.9922" style="stroke:#B38D22;stroke-width:1.0;"/><text fill="#000000" font-family="sans-serif" font-size="14" lengthAdjust="spacing" textLength="569" x="29" y="932.3389">triggerPlatformEventCallback(platFormCallback: OSGeneric, args: unknown[]) : void</text><polygon fill="#FFFF44" points="20,940.2891,24,944.2891,20,948.2891,16,944.2891" style="stroke:#B38D22;stroke-width:1.0;"/><text fill="#000000" font-family="sans-serif" font-size="14" lengthAdjust="spacing" textLength="311" x="29" y="948.6357">triggerPlatformInitializedEventCallback() : void</text><polygon fill="#FFFF44" points="20,956.5859,24,960.5859,20,964.5859,16,960.5859" style="stroke:#B38D22;stroke-width:1.0;"/><text fill="#000000" font-family="sans-serif" font-size="14" lengthAdjust="spacing" textLength="156" x="29" y="964.9326">unsetCallbacks() : void</text><polygon fill="#FFFF44" points="20,972.8828,24,976.8828,20,980.8828,16,976.8828" style="stroke:#B38D22;stroke-width:1.0;"/><text fill="#000000" font-family="sans-serif" font-size="14" lengthAdjust="spacing" textLength="199" x="29" y="981.2295">unsetGlobalCallbacks() : void</text><polygon fill="#FFFF44" points="20,989.1797,24,993.1797,20,997.1797,16,993.1797" style="stroke:#B38D22;stroke-width:1.0;"/><text fill="#000000" font-family="sans-serif" font-size="14" lengthAdjust="spacing" textLength="187" x="29" y="997.5264">unsetHtmlElements() : void</text><rect fill="#F24D5C" height="6" style="stroke:#C82930;stroke-width:1.0;" width="6" x="17" y="1007.4766"/><text fill="#000000" font-family="sans-serif" font-size="14" lengthAdjust="spacing" textLength="139" x="29" y="1013.8232">_setAutoplay() : void</text><rect fill="#F24D5C" height="6" style="stroke:#C82930;stroke-width:1.0;" width="6" x="17" y="1023.7734"/><text fill="#000000" font-family="sans-serif" font-size="14" lengthAdjust="spacing" textLength="138" x="29" y="1030.1201">_setControls() : void</text><rect fill="#F24D5C" height="6" style="stroke:#C82930;stroke-width:1.0;" width="6" x="17" y="1040.0703"/><text fill="#000000" font-family="sans-serif" font-size="14" lengthAdjust="spacing" textLength="125" x="29" y="1046.417">_setHeight() : void</text><rect fill="#F24D5C" height="6" style="stroke:#C82930;stroke-width:1.0;" width="6" x="17" y="1056.3672"/><text fill="#000000" font-family="sans-serif" font-size="14" lengthAdjust="spacing" textLength="114" x="29" y="1062.7139">_setLoop() : void</text><rect fill="#F24D5C" height="6" style="stroke:#C82930;stroke-width:1.0;" width="6" x="17" y="1072.6641"/><text fill="#000000" font-family="sans-serif" font-size="14" lengthAdjust="spacing" textLength="124" x="29" y="1079.0107">_setMuted() : void</text><rect fill="#F24D5C" height="6" style="stroke:#C82930;stroke-width:1.0;" width="6" x="17" y="1088.9609"/><text fill="#000000" font-family="sans-serif" font-size="14" lengthAdjust="spacing" textLength="143" x="29" y="1095.3076">_setPosterUrl() : void</text><rect fill="#F24D5C" height="6" style="stroke:#C82930;stroke-width:1.0;" width="6" x="17" y="1105.2578"/><text fill="#000000" font-family="sans-serif" font-size="14" lengthAdjust="spacing" textLength="171" x="29" y="1111.6045">_setVideoConfigs() : void</text><rect fill="#F24D5C" height="6" style="stroke:#C82930;stroke-width:1.0;" width="6" x="17" y="1121.5547"/><text fill="#000000" font-family="sans-serif" font-size="14" lengthAdjust="spacing" textLength="168" x="29" y="1127.9014">_setVideoSource() : void</text><rect fill="#F24D5C" height="6" style="stroke:#C82930;stroke-width:1.0;" width="6" x="17" y="1137.8516"/><text fill="#000000" font-family="sans-serif" font-size="14" lengthAdjust="spacing" textLength="157" x="29" y="1144.1982">_setVideoTrack() : void</text><rect fill="#F24D5C" height="6" style="stroke:#C82930;stroke-width:1.0;" width="6" x="17" y="1154.1484"/><text fill="#000000" font-family="sans-serif" font-size="14" lengthAdjust="spacing" textLength="119" x="29" y="1160.4951">_setWidth() : void</text><rect fill="#F24D5C" height="6" style="stroke:#C82930;stroke-width:1.0;" width="6" x="17" y="1170.4453"/><text fill="#000000" font-family="sans-serif" font-size="14" lengthAdjust="spacing" textLength="407" x="29" y="1176.792">_triggerOnStateChangedEvent(stateChanged: string) : void</text></g><!--reverse link IPattern to IVideo--><g id="link_IPattern_IVideo"><path codeLine="33" d="M306.5,220.16 C306.5,239.33 306.5,241.74 306.5,261.79 " fill="none" id="IPattern-backto-IVideo" style="stroke:#272B30;stroke-width:1.0;"/><polygon fill="none" points="306.5,202.16,300.5,220.16,312.5,220.16,306.5,202.16" style="stroke:#272B30;stroke-width:1.0;"/></g><!--reverse link IVideo to Video--><g id="link_IVideo_Video"><path codeLine="70" d="M306.5,540.12 C306.5,559.08 306.5,561.24 306.5,581.96 " fill="none" id="IVideo-backto-Video" style="stroke:#272B30;stroke-width:1.0;stroke-dasharray:7.0,7.0;"/><polygon fill="none" points="306.5,522.12,300.5,540.12,312.5,540.12,306.5,522.12" style="stroke:#272B30;stroke-width:1.0;"/></g><!--SRC=[xLHBJnin4BxdLrXm2If1XLQgXBYGb99KK28bfQgg2ZdhsSq8hsVnWoWj_FTwdzqNkVHGgUgUlDytC_Pyyp3tg1AkUSmcaXjphZLj9YH9i_sJToUhDwy7fcan9Yr0xpRXmNsaoIbHc8LXMBFfq068ju8FrYY0GPpOBOl1hacOEXGYI8-Wig137W3RczrwblROpm7ptwi8R0OiBBV0Jfcn6bMKSsZ63gNrw8f80bSvR4265n9YK2arNLvV5NyvxHG-E9Y9Lh0D2dzN1rxv6yJmmAEFX2B7WZLN4Smr9Q3jTfWKXqyyXjBva9NeBPVEmqxTAzgePY219Y43hV3muBWqIvgz7w8e0nwqizGGeV6gJRYKAw_z41vzYiqt10LtocuMbw10Oz2yoXJgVdHnigGbnZ0CdDO-K7e-PSh5Az3zFdFkEa-lECctlwddHdtdtFeVLLNuVnN_e8hFWvgWPq-ZKJL0Wo0TMhRN6ATzD3xXHm_fCJSWMiyPtIMIsv1qV94-uqPbKpV9X4fjRnPDABCgFDEWr2pORGsgMsNTvlkBbGrM9nVaT03DG0siOTop5VvkhPEy6BD_Od2pbWbHeLcFkwhkUwVpu-ElXQm8fikNIVPGKnlBegHjrgiGHQ3dzMQiv4fRz8D79rsD3XdNaQbAz-txph0pXHQvn1z58rStDBsSsf57HbvAMd6vq-JbP4TtgOpEKjAHFgCcfAmcsUSr1OpMjeUu8afwu6jdGVJWSqhxyREMFLpM5VuD8KRc9JeVpvVOfUvecf5VKDXr6ozArBDcXgQ6r8UhseF5fZjxEZegrzul]--></g></svg>