<?xml version="1.0" encoding="us-ascii" standalone="no"?><svg xmlns="http://www.w3.org/2000/svg" xmlns:xlink="http://www.w3.org/1999/xlink" contentStyleType="text/css" height="1777px" preserveAspectRatio="none" style="width:723px;height:1777px;background:#CED4DA;" version="1.1" viewBox="0 0 723 1777" width="723px" zoomAndPan="magnify"><defs/><g><rect fill="#CED4DA" height="1777" style="stroke:none;stroke-width:1.0;" width="723" x="0" y="0"/><!--class IVirtualSelect--><g id="elem_IVirtualSelect"><rect codeLine="7" fill="#FFFFFF" height="390.2344" id="IVirtualSelect" rx="2.5" ry="2.5" style="stroke:#272B30;stroke-width:0.5;" width="563" x="81" y="425"/><ellipse cx="313.25" cy="441" fill="#B4A7E5" rx="11" ry="11" style="stroke:#181818;stroke-width:1.0;"/><path d="M309.1719,436.7656 L309.1719,434.6094 L316.5625,434.6094 L316.5625,436.7656 L314.0938,436.7656 L314.0938,444.8438 L316.5625,444.8438 L316.5625,447 L309.1719,447 L309.1719,444.8438 L311.6406,444.8438 L311.6406,436.7656 L309.1719,436.7656 Z " fill="#000000"/><text fill="#000000" font-family="sans-serif" font-size="14" font-style="italic" lengthAdjust="spacing" textLength="90" x="333.75" y="445.8467">IVirtualSelect</text><line style="stroke:#272B30;stroke-width:0.5;" x1="82" x2="643" y1="457" y2="457"/><ellipse cx="92" cy="470.6484" fill="none" rx="3" ry="3" style="stroke:#038048;stroke-width:1.0;"/><text fill="#000000" font-family="sans-serif" font-size="14" lengthAdjust="spacing" textLength="110" x="101" y="473.9951">isBuilt : boolean</text><ellipse cx="92" cy="486.9453" fill="none" rx="3" ry="3" style="stroke:#038048;stroke-width:1.0;"/><text fill="#000000" font-family="sans-serif" font-size="14" lengthAdjust="spacing" textLength="189" x="101" y="490.292">selfElement : HTMLElement</text><ellipse cx="92" cy="503.2422" fill="none" rx="3" ry="3" style="stroke:#038048;stroke-width:1.0;"/><text fill="#000000" font-family="sans-serif" font-size="14" lengthAdjust="spacing" textLength="112" x="101" y="506.5889">uniqueId : string</text><ellipse cx="92" cy="519.5391" fill="none" rx="3" ry="3" style="stroke:#038048;stroke-width:1.0;"/><text fill="#000000" font-family="sans-serif" font-size="14" lengthAdjust="spacing" textLength="110" x="101" y="522.8857">widgetId : string</text><line style="stroke:#272B30;stroke-width:0.5;" x1="82" x2="643" y1="530.1875" y2="530.1875"/><ellipse cx="92" cy="543.8359" fill="#84BE84" rx="3" ry="3" style="stroke:#038048;stroke-width:1.0;"/><text fill="#000000" font-family="sans-serif" font-size="14" lengthAdjust="spacing" textLength="84" x="101" y="547.1826">build() : void</text><ellipse cx="92" cy="560.1328" fill="#84BE84" rx="3" ry="3" style="stroke:#038048;stroke-width:1.0;"/><text fill="#000000" font-family="sans-serif" font-size="14" lengthAdjust="spacing" textLength="484" x="101" y="563.4795">changeProperty(propertyName: string, propertyValue: unknown) : void</text><ellipse cx="92" cy="576.4297" fill="#84BE84" rx="3" ry="3" style="stroke:#038048;stroke-width:1.0;"/><text fill="#000000" font-family="sans-serif" font-size="14" lengthAdjust="spacing" textLength="84" x="101" y="579.7764">clear() : void</text><ellipse cx="92" cy="592.7266" fill="#84BE84" rx="3" ry="3" style="stroke:#038048;stroke-width:1.0;"/><text fill="#000000" font-family="sans-serif" font-size="14" lengthAdjust="spacing" textLength="88" x="101" y="596.0732">close() : void</text><ellipse cx="92" cy="609.0234" fill="#84BE84" rx="3" ry="3" style="stroke:#038048;stroke-width:1.0;"/><text fill="#000000" font-family="sans-serif" font-size="14" lengthAdjust="spacing" textLength="100" x="101" y="612.3701">disable() : void</text><ellipse cx="92" cy="625.3203" fill="#84BE84" rx="3" ry="3" style="stroke:#038048;stroke-width:1.0;"/><text fill="#000000" font-family="sans-serif" font-size="14" lengthAdjust="spacing" textLength="106" x="101" y="628.667">dispose() : void</text><ellipse cx="92" cy="641.6172" fill="#84BE84" rx="3" ry="3" style="stroke:#038048;stroke-width:1.0;"/><text fill="#000000" font-family="sans-serif" font-size="14" lengthAdjust="spacing" textLength="98" x="101" y="644.9639">enable() : void</text><ellipse cx="92" cy="657.9141" fill="#84BE84" rx="3" ry="3" style="stroke:#038048;stroke-width:1.0;"/><text fill="#000000" font-family="sans-serif" font-size="14" lengthAdjust="spacing" textLength="217" x="101" y="661.2607">equalsToID(id: string) : boolean</text><ellipse cx="92" cy="674.2109" fill="#84BE84" rx="3" ry="3" style="stroke:#038048;stroke-width:1.0;"/><text fill="#000000" font-family="sans-serif" font-size="14" lengthAdjust="spacing" textLength="192" x="101" y="677.5576">getSelectedValues() : string</text><ellipse cx="92" cy="690.5078" fill="#84BE84" rx="3" ry="3" style="stroke:#038048;stroke-width:1.0;"/><text fill="#000000" font-family="sans-serif" font-size="14" lengthAdjust="spacing" textLength="87" x="101" y="693.8545">open() : void</text><ellipse cx="92" cy="706.8047" fill="#84BE84" rx="3" ry="3" style="stroke:#038048;stroke-width:1.0;"/><text fill="#000000" font-family="sans-serif" font-size="14" lengthAdjust="spacing" textLength="434" x="101" y="710.1514">registerCallback(eventName: string, callback: OSGeneric) : void</text><ellipse cx="92" cy="723.1016" fill="#84BE84" rx="3" ry="3" style="stroke:#038048;stroke-width:1.0;"/><text fill="#000000" font-family="sans-serif" font-size="14" lengthAdjust="spacing" textLength="322" x="101" y="726.4482">setProviderConfigs(providerConfigs: any) : void</text><ellipse cx="92" cy="739.3984" fill="#84BE84" rx="3" ry="3" style="stroke:#038048;stroke-width:1.0;"/><text fill="#000000" font-family="sans-serif" font-size="14" lengthAdjust="spacing" textLength="537" x="101" y="742.7451">setProviderEvent(eventName: string, callback: Generic, uniqueId: string) : void</text><ellipse cx="92" cy="755.6953" fill="#84BE84" rx="3" ry="3" style="stroke:#038048;stroke-width:1.0;"/><text fill="#000000" font-family="sans-serif" font-size="14" lengthAdjust="spacing" textLength="356" x="101" y="759.042">setValue(selectedValues: DropDownOption[]) : void</text><ellipse cx="92" cy="771.9922" fill="#84BE84" rx="3" ry="3" style="stroke:#038048;stroke-width:1.0;"/><text fill="#000000" font-family="sans-serif" font-size="14" lengthAdjust="spacing" textLength="272" x="101" y="775.3389">togglePopup(isEnabled: boolean) : void</text><ellipse cx="92" cy="788.2891" fill="#84BE84" rx="3" ry="3" style="stroke:#038048;stroke-width:1.0;"/><text fill="#000000" font-family="sans-serif" font-size="14" lengthAdjust="spacing" textLength="285" x="101" y="791.6357">unsetProviderEvent(eventId: string) : void</text><ellipse cx="92" cy="804.5859" fill="#84BE84" rx="3" ry="3" style="stroke:#038048;stroke-width:1.0;"/><text fill="#000000" font-family="sans-serif" font-size="14" lengthAdjust="spacing" textLength="406" x="101" y="807.9326">validation(isValid: boolean, validationMessage: string) : void</text></g><!--class IDropdown--><g id="elem_IDropdown"><rect codeLine="30" fill="#FFFFFF" height="357.6406" id="IDropdown" rx="2.5" ry="2.5" style="stroke:#272B30;stroke-width:0.5;" width="563" x="81" y="7"/><ellipse cx="320.25" cy="23" fill="#B4A7E5" rx="11" ry="11" style="stroke:#181818;stroke-width:1.0;"/><path d="M316.1719,18.7656 L316.1719,16.6094 L323.5625,16.6094 L323.5625,18.7656 L321.0938,18.7656 L321.0938,26.8438 L323.5625,26.8438 L323.5625,29 L316.1719,29 L316.1719,26.8438 L318.6406,26.8438 L318.6406,18.7656 L316.1719,18.7656 Z " fill="#000000"/><text fill="#000000" font-family="sans-serif" font-size="14" font-style="italic" lengthAdjust="spacing" textLength="76" x="340.75" y="27.8467">IDropdown</text><line style="stroke:#272B30;stroke-width:0.5;" x1="82" x2="643" y1="39" y2="39"/><ellipse cx="92" cy="52.6484" fill="none" rx="3" ry="3" style="stroke:#038048;stroke-width:1.0;"/><text fill="#000000" font-family="sans-serif" font-size="14" lengthAdjust="spacing" textLength="110" x="101" y="55.9951">isBuilt : boolean</text><ellipse cx="92" cy="68.9453" fill="none" rx="3" ry="3" style="stroke:#038048;stroke-width:1.0;"/><text fill="#000000" font-family="sans-serif" font-size="14" lengthAdjust="spacing" textLength="189" x="101" y="72.292">selfElement : HTMLElement</text><ellipse cx="92" cy="85.2422" fill="none" rx="3" ry="3" style="stroke:#038048;stroke-width:1.0;"/><text fill="#000000" font-family="sans-serif" font-size="14" lengthAdjust="spacing" textLength="112" x="101" y="88.5889">uniqueId : string</text><ellipse cx="92" cy="101.5391" fill="none" rx="3" ry="3" style="stroke:#038048;stroke-width:1.0;"/><text fill="#000000" font-family="sans-serif" font-size="14" lengthAdjust="spacing" textLength="110" x="101" y="104.8857">widgetId : string</text><line style="stroke:#272B30;stroke-width:0.5;" x1="82" x2="643" y1="112.1875" y2="112.1875"/><ellipse cx="92" cy="125.8359" fill="#84BE84" rx="3" ry="3" style="stroke:#038048;stroke-width:1.0;"/><text fill="#000000" font-family="sans-serif" font-size="14" lengthAdjust="spacing" textLength="84" x="101" y="129.1826">build() : void</text><ellipse cx="92" cy="142.1328" fill="#84BE84" rx="3" ry="3" style="stroke:#038048;stroke-width:1.0;"/><text fill="#000000" font-family="sans-serif" font-size="14" lengthAdjust="spacing" textLength="484" x="101" y="145.4795">changeProperty(propertyName: string, propertyValue: unknown) : void</text><ellipse cx="92" cy="158.4297" fill="#84BE84" rx="3" ry="3" style="stroke:#038048;stroke-width:1.0;"/><text fill="#000000" font-family="sans-serif" font-size="14" lengthAdjust="spacing" textLength="84" x="101" y="161.7764">clear() : void</text><ellipse cx="92" cy="174.7266" fill="#84BE84" rx="3" ry="3" style="stroke:#038048;stroke-width:1.0;"/><text fill="#000000" font-family="sans-serif" font-size="14" lengthAdjust="spacing" textLength="88" x="101" y="178.0732">close() : void</text><ellipse cx="92" cy="191.0234" fill="#84BE84" rx="3" ry="3" style="stroke:#038048;stroke-width:1.0;"/><text fill="#000000" font-family="sans-serif" font-size="14" lengthAdjust="spacing" textLength="100" x="101" y="194.3701">disable() : void</text><ellipse cx="92" cy="207.3203" fill="#84BE84" rx="3" ry="3" style="stroke:#038048;stroke-width:1.0;"/><text fill="#000000" font-family="sans-serif" font-size="14" lengthAdjust="spacing" textLength="106" x="101" y="210.667">dispose() : void</text><ellipse cx="92" cy="223.6172" fill="#84BE84" rx="3" ry="3" style="stroke:#038048;stroke-width:1.0;"/><text fill="#000000" font-family="sans-serif" font-size="14" lengthAdjust="spacing" textLength="98" x="101" y="226.9639">enable() : void</text><ellipse cx="92" cy="239.9141" fill="#84BE84" rx="3" ry="3" style="stroke:#038048;stroke-width:1.0;"/><text fill="#000000" font-family="sans-serif" font-size="14" lengthAdjust="spacing" textLength="217" x="101" y="243.2607">equalsToID(id: string) : boolean</text><ellipse cx="92" cy="256.2109" fill="#84BE84" rx="3" ry="3" style="stroke:#038048;stroke-width:1.0;"/><text fill="#000000" font-family="sans-serif" font-size="14" lengthAdjust="spacing" textLength="192" x="101" y="259.5576">getSelectedValues() : string</text><ellipse cx="92" cy="272.5078" fill="#84BE84" rx="3" ry="3" style="stroke:#038048;stroke-width:1.0;"/><text fill="#000000" font-family="sans-serif" font-size="14" lengthAdjust="spacing" textLength="87" x="101" y="275.8545">open() : void</text><ellipse cx="92" cy="288.8047" fill="#84BE84" rx="3" ry="3" style="stroke:#038048;stroke-width:1.0;"/><text fill="#000000" font-family="sans-serif" font-size="14" lengthAdjust="spacing" textLength="434" x="101" y="292.1514">registerCallback(eventName: string, callback: OSGeneric) : void</text><ellipse cx="92" cy="305.1016" fill="#84BE84" rx="3" ry="3" style="stroke:#038048;stroke-width:1.0;"/><text fill="#000000" font-family="sans-serif" font-size="14" lengthAdjust="spacing" textLength="322" x="101" y="308.4482">setProviderConfigs(providerConfigs: any) : void</text><ellipse cx="92" cy="321.3984" fill="#84BE84" rx="3" ry="3" style="stroke:#038048;stroke-width:1.0;"/><text fill="#000000" font-family="sans-serif" font-size="14" lengthAdjust="spacing" textLength="537" x="101" y="324.7451">setProviderEvent(eventName: string, callback: Generic, uniqueId: string) : void</text><ellipse cx="92" cy="337.6953" fill="#84BE84" rx="3" ry="3" style="stroke:#038048;stroke-width:1.0;"/><text fill="#000000" font-family="sans-serif" font-size="14" lengthAdjust="spacing" textLength="285" x="101" y="341.042">unsetProviderEvent(eventId: string) : void</text><ellipse cx="92" cy="353.9922" fill="#84BE84" rx="3" ry="3" style="stroke:#038048;stroke-width:1.0;"/><text fill="#000000" font-family="sans-serif" font-size="14" lengthAdjust="spacing" textLength="406" x="101" y="357.3389">validation(isValid: boolean, validationMessage: string) : void</text></g><!--class AbstractVirtualSelect<C>--><g id="elem_AbstractVirtualSelect&lt;C&gt;"><rect codeLine="52" fill="#FFFFFF" height="895.4375" id="AbstractVirtualSelect&lt;C&gt;" rx="2.5" ry="2.5" style="stroke:#272B30;stroke-width:0.5;" width="707" x="9" y="875"/><ellipse cx="269.75" cy="891" fill="#A9DCDF" rx="11" ry="11" style="stroke:#181818;stroke-width:1.0;"/><path d="M269.8594,886.3438 L268.7031,891.4219 L271.0313,891.4219 L269.8594,886.3438 Z M268.375,884.1094 L271.3594,884.1094 L274.7188,896.5 L272.2656,896.5 L271.5,893.4375 L268.2188,893.4375 L267.4688,896.5 L265.0313,896.5 L268.375,884.1094 Z " fill="#000000"/><text fill="#000000" font-family="sans-serif" font-size="14" font-style="italic" lengthAdjust="spacing" textLength="177" x="290.25" y="895.8467">AbstractVirtualSelect&lt;C&gt;</text><line style="stroke:#272B30;stroke-width:0.5;" x1="10" x2="715" y1="907" y2="907"/><polygon fill="none" points="20,915.6484,24,919.6484,20,923.6484,16,919.6484" style="stroke:#B38D22;stroke-width:1.0;"/><text fill="#000000" font-family="sans-serif" font-size="14" lengthAdjust="spacing" textLength="274" x="29" y="923.9951">hiddenInputWrapperAriaLabelVal : string</text><polygon fill="none" points="20,931.9453,24,935.9453,20,939.9453,16,935.9453" style="stroke:#B38D22;stroke-width:1.0;"/><text fill="#000000" font-family="sans-serif" font-size="14" lengthAdjust="spacing" textLength="180" x="29" y="940.292">isProviderBased : boolean</text><polygon fill="none" points="20,948.2422,24,952.2422,20,956.2422,16,952.2422" style="stroke:#B38D22;stroke-width:1.0;"/><text fill="#000000" font-family="sans-serif" font-size="14" lengthAdjust="spacing" textLength="393" x="29" y="956.5889">providerEventsManagerInstance : IProviderEventManager</text><polygon fill="none" points="20,964.5391,24,968.5391,20,972.5391,16,968.5391" style="stroke:#B38D22;stroke-width:1.0;"/><text fill="#000000" font-family="sans-serif" font-size="14" lengthAdjust="spacing" textLength="293" x="29" y="972.8857">virtualselectConfigs : VirtualSelectMethods</text><polygon fill="none" points="20,980.8359,24,984.8359,20,988.8359,16,984.8359" style="stroke:#B38D22;stroke-width:1.0;"/><text fill="#000000" font-family="sans-serif" font-size="14" lengthAdjust="spacing" textLength="246" x="29" y="989.1826">virtualselectOpts : VirtualSelectOpts</text><rect fill="none" height="6" style="stroke:#C82930;stroke-width:1.0;" width="6" x="17" y="999.1328"/><text fill="#000000" font-family="sans-serif" font-size="14" lengthAdjust="spacing" textLength="234" x="29" y="1005.4795">_eventOnWindowResize : Generic</text><rect fill="none" height="6" style="stroke:#C82930;stroke-width:1.0;" width="6" x="17" y="1015.4297"/><text fill="#000000" font-family="sans-serif" font-size="14" lengthAdjust="spacing" textLength="197" x="29" y="1021.7764">_onMouseUpEvent : Generic</text><rect fill="none" height="6" style="stroke:#C82930;stroke-width:1.0;" width="6" x="17" y="1031.7266"/><text fill="#000000" font-family="sans-serif" font-size="14" lengthAdjust="spacing" textLength="238" x="29" y="1038.0732">_onSelectedOptionEvent : Generic</text><rect fill="none" height="6" style="stroke:#C82930;stroke-width:1.0;" width="6" x="17" y="1048.0234"/><text fill="#000000" font-family="sans-serif" font-size="14" lengthAdjust="spacing" textLength="380" x="29" y="1054.3701">_platformEventSelectedOptCallback : OSOnSelectEvent</text><line style="stroke:#272B30;stroke-width:0.5;" x1="10" x2="715" y1="1061.6719" y2="1061.6719"/><ellipse cx="20" cy="1075.3203" fill="#84BE84" rx="3" ry="3" style="stroke:#038048;stroke-width:1.0;"/><text fill="#000000" font-family="sans-serif" font-size="14" lengthAdjust="spacing" textLength="84" x="29" y="1078.667">build() : void</text><ellipse cx="20" cy="1091.6172" fill="#84BE84" rx="3" ry="3" style="stroke:#038048;stroke-width:1.0;"/><text fill="#000000" font-family="sans-serif" font-size="14" lengthAdjust="spacing" textLength="484" x="29" y="1094.9639">changeProperty(propertyName: string, propertyValue: unknown) : void</text><ellipse cx="20" cy="1107.9141" fill="#84BE84" rx="3" ry="3" style="stroke:#038048;stroke-width:1.0;"/><text fill="#000000" font-family="sans-serif" font-size="14" lengthAdjust="spacing" textLength="241" x="29" y="1111.2607">checkAddedProviderEvents() : void</text><ellipse cx="20" cy="1124.2109" fill="#84BE84" rx="3" ry="3" style="stroke:#038048;stroke-width:1.0;"/><text fill="#000000" font-family="sans-serif" font-size="14" lengthAdjust="spacing" textLength="253" x="29" y="1127.5576">checkPendingProviderEvents() : void</text><ellipse cx="20" cy="1140.5078" fill="#84BE84" rx="3" ry="3" style="stroke:#038048;stroke-width:1.0;"/><text fill="#000000" font-family="sans-serif" font-size="14" lengthAdjust="spacing" textLength="84" x="29" y="1143.8545">clear() : void</text><ellipse cx="20" cy="1156.8047" fill="#84BE84" rx="3" ry="3" style="stroke:#038048;stroke-width:1.0;"/><text fill="#000000" font-family="sans-serif" font-size="14" lengthAdjust="spacing" textLength="88" x="29" y="1160.1514">close() : void</text><ellipse cx="20" cy="1173.1016" fill="#84BE84" rx="3" ry="3" style="stroke:#038048;stroke-width:1.0;"/><text fill="#000000" font-family="sans-serif" font-size="14" lengthAdjust="spacing" textLength="100" x="29" y="1176.4482">disable() : void</text><ellipse cx="20" cy="1189.3984" fill="#84BE84" rx="3" ry="3" style="stroke:#038048;stroke-width:1.0;"/><text fill="#000000" font-family="sans-serif" font-size="14" lengthAdjust="spacing" textLength="106" x="29" y="1192.7451">dispose() : void</text><ellipse cx="20" cy="1205.6953" fill="#84BE84" rx="3" ry="3" style="stroke:#038048;stroke-width:1.0;"/><text fill="#000000" font-family="sans-serif" font-size="14" lengthAdjust="spacing" textLength="98" x="29" y="1209.042">enable() : void</text><ellipse cx="20" cy="1221.9922" fill="#84BE84" rx="3" ry="3" style="stroke:#038048;stroke-width:1.0;"/><text fill="#000000" font-family="sans-serif" font-size="14" lengthAdjust="spacing" textLength="267" x="29" y="1225.3389">equalsToID(patternId: string) : boolean</text><ellipse cx="20" cy="1238.2891" fill="#84BE84" rx="3" ry="3" style="stroke:#038048;stroke-width:1.0;"/><text fill="#000000" font-family="sans-serif" font-size="14" lengthAdjust="spacing" textLength="192" x="29" y="1241.6357">getSelectedValues() : string</text><ellipse cx="20" cy="1254.5859" fill="#84BE84" rx="3" ry="3" style="stroke:#038048;stroke-width:1.0;"/><text fill="#000000" font-family="sans-serif" font-size="14" lengthAdjust="spacing" textLength="87" x="29" y="1257.9326">open() : void</text><ellipse cx="20" cy="1270.8828" fill="#84BE84" rx="3" ry="3" style="stroke:#038048;stroke-width:1.0;"/><text fill="#000000" font-family="sans-serif" font-size="14" lengthAdjust="spacing" textLength="434" x="29" y="1274.2295">registerCallback(eventName: string, callback: OSGeneric) : void</text><ellipse cx="20" cy="1287.1797" fill="#84BE84" rx="3" ry="3" style="stroke:#038048;stroke-width:1.0;"/><text fill="#000000" font-family="sans-serif" font-size="14" lengthAdjust="spacing" textLength="380" x="29" y="1290.5264">setHiddenInputWrapperAriaLabelVal(value: string) : void</text><ellipse cx="20" cy="1303.4766" fill="#84BE84" rx="3" ry="3" style="stroke:#038048;stroke-width:1.0;"/><text fill="#000000" font-family="sans-serif" font-size="14" lengthAdjust="spacing" textLength="389" x="29" y="1306.8232">setProviderConfigs(newConfigs: VirtualSelectOpts) : void</text><ellipse cx="20" cy="1319.7734" fill="#84BE84" rx="3" ry="3" style="stroke:#038048;stroke-width:1.0;"/><text fill="#000000" font-family="sans-serif" font-size="14" lengthAdjust="spacing" textLength="681" x="29" y="1323.1201">setProviderEvent(eventName: string, callback: Generic, uniqueId: string, saveEvent: boolean) : void</text><ellipse cx="20" cy="1336.0703" fill="#84BE84" rx="3" ry="3" style="stroke:#038048;stroke-width:1.0;"/><text fill="#000000" font-family="sans-serif" font-size="14" lengthAdjust="spacing" textLength="595" x="29" y="1339.417">setValue(optionsToSelect: DropDownOption[], silentOnChangedEvent: boolean) : void</text><ellipse cx="20" cy="1352.3672" fill="#84BE84" rx="3" ry="3" style="stroke:#038048;stroke-width:1.0;"/><text fill="#000000" font-family="sans-serif" font-size="14" lengthAdjust="spacing" textLength="272" x="29" y="1355.7139">togglePopup(isEnabled: boolean) : void</text><ellipse cx="20" cy="1368.6641" fill="#84BE84" rx="3" ry="3" style="stroke:#038048;stroke-width:1.0;"/><text fill="#000000" font-family="sans-serif" font-size="14" lengthAdjust="spacing" textLength="285" x="29" y="1372.0107">unsetProviderEvent(eventId: string) : void</text><ellipse cx="20" cy="1384.9609" fill="#84BE84" rx="3" ry="3" style="stroke:#038048;stroke-width:1.0;"/><text fill="#000000" font-family="sans-serif" font-size="14" lengthAdjust="spacing" textLength="374" x="29" y="1388.3076">updateProviderEvents(providerInfo: ProviderInfo) : void</text><ellipse cx="20" cy="1401.2578" fill="#84BE84" rx="3" ry="3" style="stroke:#038048;stroke-width:1.0;"/><text fill="#000000" font-family="sans-serif" font-size="14" lengthAdjust="spacing" textLength="406" x="29" y="1404.6045">validation(isValid: boolean, validationMessage: string) : void</text><polygon fill="#FFFF44" points="20,1412.5547,24,1416.5547,20,1420.5547,16,1416.5547" style="stroke:#B38D22;stroke-width:1.0;"/><text fill="#000000" font-family="sans-serif" font-size="14" lengthAdjust="spacing" textLength="210" x="29" y="1420.9014">createProviderInstance() : void</text><polygon fill="#FFFF44" points="20,1428.8516,24,1432.8516,20,1436.8516,16,1432.8516" style="stroke:#B38D22;stroke-width:1.0;"/><text fill="#000000" font-family="sans-serif" font-size="14" lengthAdjust="spacing" textLength="121" x="29" y="1437.1982">finishBuild() : void</text><polygon fill="#FFFF44" points="20,1445.1484,24,1449.1484,20,1453.1484,16,1449.1484" style="stroke:#B38D22;stroke-width:1.0;"/><text fill="#000000" font-family="sans-serif" font-size="14" font-style="italic" lengthAdjust="spacing" textLength="354" x="29" y="1453.4951">getSelectedOptionsStructure() : DropDownOption[]</text><polygon fill="#FFFF44" points="20,1461.4453,24,1465.4453,20,1469.4453,16,1465.4453" style="stroke:#B38D22;stroke-width:1.0;"/><text fill="#000000" font-family="sans-serif" font-size="14" font-style="italic" lengthAdjust="spacing" textLength="157" x="29" y="1469.792">prepareConfigs() : void</text><polygon fill="#FFFF44" points="20,1477.7422,24,1481.7422,20,1485.7422,16,1481.7422" style="stroke:#B38D22;stroke-width:1.0;"/><text fill="#000000" font-family="sans-serif" font-size="14" lengthAdjust="spacing" textLength="98" x="29" y="1486.0889">redraw() : void</text><polygon fill="#FFFF44" points="20,1494.0391,24,1498.0391,20,1502.0391,16,1498.0391" style="stroke:#B38D22;stroke-width:1.0;"/><text fill="#000000" font-family="sans-serif" font-size="14" lengthAdjust="spacing" textLength="180" x="29" y="1502.3857">setA11YProperties() : void</text><polygon fill="#FFFF44" points="20,1510.3359,24,1514.3359,20,1518.3359,16,1514.3359" style="stroke:#B38D22;stroke-width:1.0;"/><text fill="#000000" font-family="sans-serif" font-size="14" lengthAdjust="spacing" textLength="138" x="29" y="1518.6826">setCallbacks() : void</text><polygon fill="#FFFF44" points="20,1526.6328,24,1530.6328,20,1534.6328,16,1530.6328" style="stroke:#B38D22;stroke-width:1.0;"/><text fill="#000000" font-family="sans-serif" font-size="14" lengthAdjust="spacing" textLength="169" x="29" y="1534.9795">setHtmlElements() : void</text><polygon fill="#FFFF44" points="20,1542.9297,24,1546.9297,20,1550.9297,16,1546.9297" style="stroke:#B38D22;stroke-width:1.0;"/><text fill="#000000" font-family="sans-serif" font-size="14" lengthAdjust="spacing" textLength="569" x="29" y="1551.2764">triggerPlatformEventCallback(platFormCallback: OSGeneric, args: unknown[]) : void</text><polygon fill="#FFFF44" points="20,1559.2266,24,1563.2266,20,1567.2266,16,1563.2266" style="stroke:#B38D22;stroke-width:1.0;"/><text fill="#000000" font-family="sans-serif" font-size="14" lengthAdjust="spacing" textLength="311" x="29" y="1567.5732">triggerPlatformInitializedEventCallback() : void</text><polygon fill="#FFFF44" points="20,1575.5234,24,1579.5234,20,1583.5234,16,1579.5234" style="stroke:#B38D22;stroke-width:1.0;"/><text fill="#000000" font-family="sans-serif" font-size="14" lengthAdjust="spacing" textLength="156" x="29" y="1583.8701">unsetCallbacks() : void</text><polygon fill="#FFFF44" points="20,1591.8203,24,1595.8203,20,1599.8203,16,1595.8203" style="stroke:#B38D22;stroke-width:1.0;"/><text fill="#000000" font-family="sans-serif" font-size="14" lengthAdjust="spacing" textLength="199" x="29" y="1600.167">unsetGlobalCallbacks() : void</text><polygon fill="#FFFF44" points="20,1608.1172,24,1612.1172,20,1616.1172,16,1612.1172" style="stroke:#B38D22;stroke-width:1.0;"/><text fill="#000000" font-family="sans-serif" font-size="14" lengthAdjust="spacing" textLength="187" x="29" y="1616.4639">unsetHtmlElements() : void</text><rect fill="#F24D5C" height="6" style="stroke:#C82930;stroke-width:1.0;" width="6" x="17" y="1626.4141"/><text fill="#000000" font-family="sans-serif" font-size="14" lengthAdjust="spacing" textLength="254" x="29" y="1632.7607">_addErrorMessage(text: string) : void</text><rect fill="#F24D5C" height="6" style="stroke:#C82930;stroke-width:1.0;" width="6" x="17" y="1642.7109"/><text fill="#000000" font-family="sans-serif" font-size="14" lengthAdjust="spacing" textLength="181" x="29" y="1649.0576">_manageAttributes() : void</text><rect fill="#F24D5C" height="6" style="stroke:#C82930;stroke-width:1.0;" width="6" x="17" y="1659.0078"/><text fill="#000000" font-family="sans-serif" font-size="14" lengthAdjust="spacing" textLength="209" x="29" y="1665.3545">_manageDisableStatus() : void</text><rect fill="#F24D5C" height="6" style="stroke:#C82930;stroke-width:1.0;" width="6" x="17" y="1675.3047"/><text fill="#000000" font-family="sans-serif" font-size="14" lengthAdjust="spacing" textLength="214" x="29" y="1681.6514">_onMouseUp(event: any) : void</text><rect fill="#F24D5C" height="6" style="stroke:#C82930;stroke-width:1.0;" width="6" x="17" y="1691.6016"/><text fill="#000000" font-family="sans-serif" font-size="14" lengthAdjust="spacing" textLength="183" x="29" y="1697.9482">_onSelectedOption() : void</text><rect fill="#F24D5C" height="6" style="stroke:#C82930;stroke-width:1.0;" width="6" x="17" y="1707.8984"/><text fill="#000000" font-family="sans-serif" font-size="14" lengthAdjust="spacing" textLength="177" x="29" y="1714.2451">_onWindowResize() : void</text><rect fill="#F24D5C" height="6" style="stroke:#C82930;stroke-width:1.0;" width="6" x="17" y="1724.1953"/><text fill="#000000" font-family="sans-serif" font-size="14" lengthAdjust="spacing" textLength="149" x="29" y="1730.542">_setElementId() : void</text><rect fill="#F24D5C" height="6" style="stroke:#C82930;stroke-width:1.0;" width="6" x="17" y="1740.4922"/><text fill="#000000" font-family="sans-serif" font-size="14" lengthAdjust="spacing" textLength="146" x="29" y="1746.8389">_setUpEvents() : void</text><rect fill="#F24D5C" height="6" style="stroke:#C82930;stroke-width:1.0;" width="6" x="17" y="1756.7891"/><text fill="#000000" font-family="sans-serif" font-size="14" lengthAdjust="spacing" textLength="145" x="29" y="1763.1357">_unsetEvents() : void</text></g><!--reverse link IDropdown to IVirtualSelect--><g id="link_IDropdown_IVirtualSelect"><path codeLine="51" d="M362.5,383.21 C362.5,402.84 362.5,404.91 362.5,424.74 " fill="none" id="IDropdown-backto-IVirtualSelect" style="stroke:#272B30;stroke-width:1.0;"/><polygon fill="none" points="362.5,365.21,356.5,383.21,368.5,383.21,362.5,365.21" style="stroke:#272B30;stroke-width:1.0;"/></g><!--reverse link IVirtualSelect to AbstractVirtualSelect<C>--><g id="link_IVirtualSelect_AbstractVirtualSelect&lt;C&gt;"><path codeLine="106" d="M362.5,833.2 C362.5,852.43 362.5,854.45 362.5,874.95 " fill="none" id="IVirtualSelect-backto-AbstractVirtualSelect&lt;C&gt;" style="stroke:#272B30;stroke-width:1.0;stroke-dasharray:7.0,7.0;"/><polygon fill="none" points="362.5,815.2,356.5,833.2,368.5,833.2,362.5,815.2" style="stroke:#272B30;stroke-width:1.0;"/></g><!--SRC=[xLVTRzCm47_VNs6jBq6qY2y9gPgGkcwmI8nL38OGGfCJNr9hhXrifsLy_EzS7ASaSTed1Zomf-NkVBxxtTtlN7F3PK4rNP6veCRCj5QRkH9Aaz7ZPu-J9myFJDVYM6a6Uhy9JMzohKh9l5cMPIsRG9q2UyhemP8p8B0gx2rPWLqgPjgYZ8D02PSMT4PJ88Vn5TUsfE8I1AJsa7mx8FXtdvlZaWjBfYHHIW2LjTY0o4u5h41MghEtvw_yLwqk9VzSGinGPwpcCg_56yvoi84umHjOT0-bQyLPBKkNLEQmqAe0RM-Zml_pcgwWEJmcZVIAYXB5fRoHQYDxZZ1etNSkb86UZ7534p4WBK9Ra0Ecy1dHCszLV19nriHuhmySvbyZ3Cn5RPoNDXgOakovrf1pWvMQKo4Ih7S4QuIwYqNgTLDoSVaI96YUTfqOi0Zdchj-andFJOLg-tjAgBpTUUYqkdF_pVxUCMdgtuQXuzJb7faE4bDoWlKymGfU59Oh-V5JzvXLUIvWeOgoYBWvTJLWMtYxjgKSZdnNI6igEAFLhUZwglhOEXwJNyfpC8Rc4FZuqPcaAWs6QVmVelz3T6T3zCSxlDtNHzydas1b7D043z7KahJQM-HmvhyxPaVpvyrSZ70XCP2nB4hxNjC2st2cENr54n0OORUa8swQR8-f0TRhYL7HXiASKubPw5WQIoKEvPJ47QoylZwwhkEhsSYN4KzqmZxtEpGyW6GLM5SoPpgvTaMvaE-vHEZUWE5VgsXyaRqDmgvA0-yA5zk0kkdscXY7hGf1RQRqocbR1vf-9rLJNtXNpkXF4CSIqfiPLfbru3VHWDa294F7-mt_0X4Lr29joFWVvQEplKCKhUlgxDZ3VJAJiDdoMD3HTy9gOsBe6fo77Rjy-rnGhlknA7L8uNi1VN7Xnctk6fZjStkNpucoG3Q5NYSt31NBJ4t9elNrMvdQCLIgeHL0GuFT3XnbN7ApF0xd_rl3v3_8gDNRDSpcqkeojQMktVLh43WeDE0l5MWwh1k21gRffYT4h6UF7dtmzCF1XFfcQ0PKPtOb_3kghqMWScJzHPifj-DNyUSBbCx3cHiJggk9y1JNUvZstSQIMuvb-khxRtj3zvJhgLrvEELBeH8gzfhiJdPoJHaxnH-WsZTAPE6B7UoMoVNAhSEPHLrIMWXSrVgJcbGlBRLbOBBTOVLaXC-WS8-5BjfRig_5R7scCHlG-UKPnELWwgkgrqplz-xHzmSFzZnPVW80]--></g></svg>