<?xml version="1.0" encoding="us-ascii" standalone="no"?><svg xmlns="http://www.w3.org/2000/svg" xmlns:xlink="http://www.w3.org/1999/xlink" contentStyleType="text/css" height="1794px" preserveAspectRatio="none" style="width:710px;height:1794px;background:#CED4DA;" version="1.1" viewBox="0 0 710 1794" width="710px" zoomAndPan="magnify"><defs/><g><rect fill="#CED4DA" height="1794" style="stroke:none;stroke-width:1.0;" width="710" x="0" y="0"/><!--class IVirtualSelect--><g id="elem_IVirtualSelect"><rect codeLine="7" fill="#FFFFFF" height="394.2539" id="IVirtualSelect" rx="2.5" ry="2.5" style="stroke:#272B30;stroke-width:0.5;" width="555" x="78.5" y="428"/><ellipse cx="307.25" cy="444" fill="#B4A7E5" rx="11" ry="11" style="stroke:#181818;stroke-width:1.0;"/><path d="M303.6777,440.2651 L303.6777,438.1069 L311.0571,438.1069 L311.0571,440.2651 L308.5918,440.2651 L308.5918,448.3418 L311.0571,448.3418 L311.0571,450.5 L303.6777,450.5 L303.6777,448.3418 L306.1431,448.3418 L306.1431,440.2651 Z " fill="#000000"/><text fill="#000000" font-family="sans-serif" font-size="14" font-style="italic" lengthAdjust="spacing" textLength="89" x="327.75" y="449.291">IVirtualSelect</text><line style="stroke:#272B30;stroke-width:0.5;" x1="79.5" x2="632.5" y1="460" y2="460"/><ellipse cx="89.5" cy="473.7441" fill="none" rx="3" ry="3" style="stroke:#038048;stroke-width:1.0;"/><text fill="#000000" font-family="sans-serif" font-size="14" lengthAdjust="spacing" textLength="109" x="98.5" y="477.5352">isBuilt : boolean</text><ellipse cx="89.5" cy="490.2324" fill="none" rx="3" ry="3" style="stroke:#038048;stroke-width:1.0;"/><text fill="#000000" font-family="sans-serif" font-size="14" lengthAdjust="spacing" textLength="184" x="98.5" y="494.0234">selfElement : HTMLElement</text><ellipse cx="89.5" cy="506.7207" fill="none" rx="3" ry="3" style="stroke:#038048;stroke-width:1.0;"/><text fill="#000000" font-family="sans-serif" font-size="14" lengthAdjust="spacing" textLength="113" x="98.5" y="510.5117">uniqueId : string</text><ellipse cx="89.5" cy="523.209" fill="none" rx="3" ry="3" style="stroke:#038048;stroke-width:1.0;"/><text fill="#000000" font-family="sans-serif" font-size="14" lengthAdjust="spacing" textLength="111" x="98.5" y="527">widgetId : string</text><line style="stroke:#272B30;stroke-width:0.5;" x1="79.5" x2="632.5" y1="533.9531" y2="533.9531"/><ellipse cx="89.5" cy="547.6973" fill="#84BE84" rx="3" ry="3" style="stroke:#038048;stroke-width:1.0;"/><text fill="#000000" font-family="sans-serif" font-size="14" lengthAdjust="spacing" textLength="86" x="98.5" y="551.4883">build() : void</text><ellipse cx="89.5" cy="564.1855" fill="#84BE84" rx="3" ry="3" style="stroke:#038048;stroke-width:1.0;"/><text fill="#000000" font-family="sans-serif" font-size="14" lengthAdjust="spacing" textLength="482" x="98.5" y="567.9766">changeProperty(propertyName: string, propertyValue: unknown) : void</text><ellipse cx="89.5" cy="580.6738" fill="#84BE84" rx="3" ry="3" style="stroke:#038048;stroke-width:1.0;"/><text fill="#000000" font-family="sans-serif" font-size="14" lengthAdjust="spacing" textLength="84" x="98.5" y="584.4648">clear() : void</text><ellipse cx="89.5" cy="597.1621" fill="#84BE84" rx="3" ry="3" style="stroke:#038048;stroke-width:1.0;"/><text fill="#000000" font-family="sans-serif" font-size="14" lengthAdjust="spacing" textLength="86" x="98.5" y="600.9531">close() : void</text><ellipse cx="89.5" cy="613.6504" fill="#84BE84" rx="3" ry="3" style="stroke:#038048;stroke-width:1.0;"/><text fill="#000000" font-family="sans-serif" font-size="14" lengthAdjust="spacing" textLength="100" x="98.5" y="617.4414">disable() : void</text><ellipse cx="89.5" cy="630.1387" fill="#84BE84" rx="3" ry="3" style="stroke:#038048;stroke-width:1.0;"/><text fill="#000000" font-family="sans-serif" font-size="14" lengthAdjust="spacing" textLength="104" x="98.5" y="633.9297">dispose() : void</text><ellipse cx="89.5" cy="646.627" fill="#84BE84" rx="3" ry="3" style="stroke:#038048;stroke-width:1.0;"/><text fill="#000000" font-family="sans-serif" font-size="14" lengthAdjust="spacing" textLength="97" x="98.5" y="650.418">enable() : void</text><ellipse cx="89.5" cy="663.1152" fill="#84BE84" rx="3" ry="3" style="stroke:#038048;stroke-width:1.0;"/><text fill="#000000" font-family="sans-serif" font-size="14" lengthAdjust="spacing" textLength="216" x="98.5" y="666.9063">equalsToID(id: string) : boolean</text><ellipse cx="89.5" cy="679.6035" fill="#84BE84" rx="3" ry="3" style="stroke:#038048;stroke-width:1.0;"/><text fill="#000000" font-family="sans-serif" font-size="14" lengthAdjust="spacing" textLength="186" x="98.5" y="683.3945">getSelectedValues() : string</text><ellipse cx="89.5" cy="696.0918" fill="#84BE84" rx="3" ry="3" style="stroke:#038048;stroke-width:1.0;"/><text fill="#000000" font-family="sans-serif" font-size="14" lengthAdjust="spacing" textLength="86" x="98.5" y="699.8828">open() : void</text><ellipse cx="89.5" cy="712.5801" fill="#84BE84" rx="3" ry="3" style="stroke:#038048;stroke-width:1.0;"/><text fill="#000000" font-family="sans-serif" font-size="14" lengthAdjust="spacing" textLength="428" x="98.5" y="716.3711">registerCallback(eventName: string, callback: OSGeneric) : void</text><ellipse cx="89.5" cy="729.0684" fill="#84BE84" rx="3" ry="3" style="stroke:#038048;stroke-width:1.0;"/><text fill="#000000" font-family="sans-serif" font-size="14" lengthAdjust="spacing" textLength="324" x="98.5" y="732.8594">setProviderConfigs(providerConfigs: any) : void</text><ellipse cx="89.5" cy="745.5566" fill="#84BE84" rx="3" ry="3" style="stroke:#038048;stroke-width:1.0;"/><text fill="#000000" font-family="sans-serif" font-size="14" lengthAdjust="spacing" textLength="529" x="98.5" y="749.3477">setProviderEvent(eventName: string, callback: Generic, uniqueId: string) : void</text><ellipse cx="89.5" cy="762.0449" fill="#84BE84" rx="3" ry="3" style="stroke:#038048;stroke-width:1.0;"/><text fill="#000000" font-family="sans-serif" font-size="14" lengthAdjust="spacing" textLength="348" x="98.5" y="765.8359">setValue(selectedValues: DropDownOption[]) : void</text><ellipse cx="89.5" cy="778.5332" fill="#84BE84" rx="3" ry="3" style="stroke:#038048;stroke-width:1.0;"/><text fill="#000000" font-family="sans-serif" font-size="14" lengthAdjust="spacing" textLength="269" x="98.5" y="782.3242">togglePopup(isEnabled: boolean) : void</text><ellipse cx="89.5" cy="795.0215" fill="#84BE84" rx="3" ry="3" style="stroke:#038048;stroke-width:1.0;"/><text fill="#000000" font-family="sans-serif" font-size="14" lengthAdjust="spacing" textLength="281" x="98.5" y="798.8125">unsetProviderEvent(eventId: string) : void</text><ellipse cx="89.5" cy="811.5098" fill="#84BE84" rx="3" ry="3" style="stroke:#038048;stroke-width:1.0;"/><text fill="#000000" font-family="sans-serif" font-size="14" lengthAdjust="spacing" textLength="409" x="98.5" y="815.3008">validation(isValid: boolean, validationMessage: string) : void</text></g><!--class IDropdown--><g id="elem_IDropdown"><rect codeLine="30" fill="#FFFFFF" height="361.2773" id="IDropdown" rx="2.5" ry="2.5" style="stroke:#272B30;stroke-width:0.5;" width="555" x="78.5" y="7"/><ellipse cx="313.75" cy="23" fill="#B4A7E5" rx="11" ry="11" style="stroke:#181818;stroke-width:1.0;"/><path d="M310.1777,19.2651 L310.1777,17.1069 L317.5571,17.1069 L317.5571,19.2651 L315.0918,19.2651 L315.0918,27.3418 L317.5571,27.3418 L317.5571,29.5 L310.1777,29.5 L310.1777,27.3418 L312.6431,27.3418 L312.6431,19.2651 Z " fill="#000000"/><text fill="#000000" font-family="sans-serif" font-size="14" font-style="italic" lengthAdjust="spacing" textLength="76" x="334.25" y="28.291">IDropdown</text><line style="stroke:#272B30;stroke-width:0.5;" x1="79.5" x2="632.5" y1="39" y2="39"/><ellipse cx="89.5" cy="52.7441" fill="none" rx="3" ry="3" style="stroke:#038048;stroke-width:1.0;"/><text fill="#000000" font-family="sans-serif" font-size="14" lengthAdjust="spacing" textLength="109" x="98.5" y="56.5352">isBuilt : boolean</text><ellipse cx="89.5" cy="69.2324" fill="none" rx="3" ry="3" style="stroke:#038048;stroke-width:1.0;"/><text fill="#000000" font-family="sans-serif" font-size="14" lengthAdjust="spacing" textLength="184" x="98.5" y="73.0234">selfElement : HTMLElement</text><ellipse cx="89.5" cy="85.7207" fill="none" rx="3" ry="3" style="stroke:#038048;stroke-width:1.0;"/><text fill="#000000" font-family="sans-serif" font-size="14" lengthAdjust="spacing" textLength="113" x="98.5" y="89.5117">uniqueId : string</text><ellipse cx="89.5" cy="102.209" fill="none" rx="3" ry="3" style="stroke:#038048;stroke-width:1.0;"/><text fill="#000000" font-family="sans-serif" font-size="14" lengthAdjust="spacing" textLength="111" x="98.5" y="106">widgetId : string</text><line style="stroke:#272B30;stroke-width:0.5;" x1="79.5" x2="632.5" y1="112.9531" y2="112.9531"/><ellipse cx="89.5" cy="126.6973" fill="#84BE84" rx="3" ry="3" style="stroke:#038048;stroke-width:1.0;"/><text fill="#000000" font-family="sans-serif" font-size="14" lengthAdjust="spacing" textLength="86" x="98.5" y="130.4883">build() : void</text><ellipse cx="89.5" cy="143.1855" fill="#84BE84" rx="3" ry="3" style="stroke:#038048;stroke-width:1.0;"/><text fill="#000000" font-family="sans-serif" font-size="14" lengthAdjust="spacing" textLength="482" x="98.5" y="146.9766">changeProperty(propertyName: string, propertyValue: unknown) : void</text><ellipse cx="89.5" cy="159.6738" fill="#84BE84" rx="3" ry="3" style="stroke:#038048;stroke-width:1.0;"/><text fill="#000000" font-family="sans-serif" font-size="14" lengthAdjust="spacing" textLength="84" x="98.5" y="163.4648">clear() : void</text><ellipse cx="89.5" cy="176.1621" fill="#84BE84" rx="3" ry="3" style="stroke:#038048;stroke-width:1.0;"/><text fill="#000000" font-family="sans-serif" font-size="14" lengthAdjust="spacing" textLength="86" x="98.5" y="179.9531">close() : void</text><ellipse cx="89.5" cy="192.6504" fill="#84BE84" rx="3" ry="3" style="stroke:#038048;stroke-width:1.0;"/><text fill="#000000" font-family="sans-serif" font-size="14" lengthAdjust="spacing" textLength="100" x="98.5" y="196.4414">disable() : void</text><ellipse cx="89.5" cy="209.1387" fill="#84BE84" rx="3" ry="3" style="stroke:#038048;stroke-width:1.0;"/><text fill="#000000" font-family="sans-serif" font-size="14" lengthAdjust="spacing" textLength="104" x="98.5" y="212.9297">dispose() : void</text><ellipse cx="89.5" cy="225.627" fill="#84BE84" rx="3" ry="3" style="stroke:#038048;stroke-width:1.0;"/><text fill="#000000" font-family="sans-serif" font-size="14" lengthAdjust="spacing" textLength="97" x="98.5" y="229.418">enable() : void</text><ellipse cx="89.5" cy="242.1152" fill="#84BE84" rx="3" ry="3" style="stroke:#038048;stroke-width:1.0;"/><text fill="#000000" font-family="sans-serif" font-size="14" lengthAdjust="spacing" textLength="216" x="98.5" y="245.9063">equalsToID(id: string) : boolean</text><ellipse cx="89.5" cy="258.6035" fill="#84BE84" rx="3" ry="3" style="stroke:#038048;stroke-width:1.0;"/><text fill="#000000" font-family="sans-serif" font-size="14" lengthAdjust="spacing" textLength="186" x="98.5" y="262.3945">getSelectedValues() : string</text><ellipse cx="89.5" cy="275.0918" fill="#84BE84" rx="3" ry="3" style="stroke:#038048;stroke-width:1.0;"/><text fill="#000000" font-family="sans-serif" font-size="14" lengthAdjust="spacing" textLength="86" x="98.5" y="278.8828">open() : void</text><ellipse cx="89.5" cy="291.5801" fill="#84BE84" rx="3" ry="3" style="stroke:#038048;stroke-width:1.0;"/><text fill="#000000" font-family="sans-serif" font-size="14" lengthAdjust="spacing" textLength="428" x="98.5" y="295.3711">registerCallback(eventName: string, callback: OSGeneric) : void</text><ellipse cx="89.5" cy="308.0684" fill="#84BE84" rx="3" ry="3" style="stroke:#038048;stroke-width:1.0;"/><text fill="#000000" font-family="sans-serif" font-size="14" lengthAdjust="spacing" textLength="324" x="98.5" y="311.8594">setProviderConfigs(providerConfigs: any) : void</text><ellipse cx="89.5" cy="324.5566" fill="#84BE84" rx="3" ry="3" style="stroke:#038048;stroke-width:1.0;"/><text fill="#000000" font-family="sans-serif" font-size="14" lengthAdjust="spacing" textLength="529" x="98.5" y="328.3477">setProviderEvent(eventName: string, callback: Generic, uniqueId: string) : void</text><ellipse cx="89.5" cy="341.0449" fill="#84BE84" rx="3" ry="3" style="stroke:#038048;stroke-width:1.0;"/><text fill="#000000" font-family="sans-serif" font-size="14" lengthAdjust="spacing" textLength="281" x="98.5" y="344.8359">unsetProviderEvent(eventId: string) : void</text><ellipse cx="89.5" cy="357.5332" fill="#84BE84" rx="3" ry="3" style="stroke:#038048;stroke-width:1.0;"/><text fill="#000000" font-family="sans-serif" font-size="14" lengthAdjust="spacing" textLength="409" x="98.5" y="361.3242">validation(isValid: boolean, validationMessage: string) : void</text></g><!--class AbstractVirtualSelect<C>--><g id="elem_AbstractVirtualSelect&lt;C&gt;"><rect codeLine="52" fill="#FFFFFF" height="905.3906" id="AbstractVirtualSelect&lt;C&gt;" rx="2.5" ry="2.5" style="stroke:#272B30;stroke-width:0.5;" width="694" x="9" y="882"/><ellipse cx="264.75" cy="898" fill="#A9DCDF" rx="11" ry="11" style="stroke:#181818;stroke-width:1.0;"/><path d="M264.6133,893.3481 L263.4595,898.4199 L265.7754,898.4199 Z M263.1191,891.1069 L266.1157,891.1069 L269.4609,903.5 L267.0122,903.5 L266.2485,900.437 L262.9697,900.437 L262.2227,903.5 L259.7739,903.5 Z " fill="#000000"/><text fill="#000000" font-family="sans-serif" font-size="14" font-style="italic" lengthAdjust="spacing" textLength="174" x="285.25" y="903.291">AbstractVirtualSelect&lt;C&gt;</text><line style="stroke:#272B30;stroke-width:0.5;" x1="10" x2="702" y1="914" y2="914"/><polygon fill="none" points="20,922.7441,24,926.7441,20,930.7441,16,926.7441" style="stroke:#B38D22;stroke-width:1.0;"/><text fill="#000000" font-family="sans-serif" font-size="14" lengthAdjust="spacing" textLength="279" x="29" y="931.5352">hiddenInputWrapperAriaLabelVal : string</text><polygon fill="none" points="20,939.2324,24,943.2324,20,947.2324,16,943.2324" style="stroke:#B38D22;stroke-width:1.0;"/><text fill="#000000" font-family="sans-serif" font-size="14" lengthAdjust="spacing" textLength="176" x="29" y="948.0234">isProviderBased : boolean</text><polygon fill="none" points="20,955.7207,24,959.7207,20,963.7207,16,959.7207" style="stroke:#B38D22;stroke-width:1.0;"/><text fill="#000000" font-family="sans-serif" font-size="14" lengthAdjust="spacing" textLength="389" x="29" y="964.5117">providerEventsManagerInstance : IProviderEventManager</text><polygon fill="none" points="20,972.209,24,976.209,20,980.209,16,976.209" style="stroke:#B38D22;stroke-width:1.0;"/><text fill="#000000" font-family="sans-serif" font-size="14" lengthAdjust="spacing" textLength="291" x="29" y="981">virtualselectConfigs : VirtualSelectMethods</text><polygon fill="none" points="20,988.6973,24,992.6973,20,996.6973,16,992.6973" style="stroke:#B38D22;stroke-width:1.0;"/><text fill="#000000" font-family="sans-serif" font-size="14" lengthAdjust="spacing" textLength="243" x="29" y="997.4883">virtualselectOpts : VirtualSelectOpts</text><rect fill="none" height="6" style="stroke:#C82930;stroke-width:1.0;" width="6" x="17" y="1007.1855"/><text fill="#000000" font-family="sans-serif" font-size="14" lengthAdjust="spacing" textLength="226" x="29" y="1013.9766">_eventOnWindowResize : Generic</text><rect fill="none" height="6" style="stroke:#C82930;stroke-width:1.0;" width="6" x="17" y="1023.6738"/><text fill="#000000" font-family="sans-serif" font-size="14" lengthAdjust="spacing" textLength="190" x="29" y="1030.4648">_onMouseUpEvent : Generic</text><rect fill="none" height="6" style="stroke:#C82930;stroke-width:1.0;" width="6" x="17" y="1040.1621"/><text fill="#000000" font-family="sans-serif" font-size="14" lengthAdjust="spacing" textLength="230" x="29" y="1046.9531">_onSelectedOptionEvent : Generic</text><rect fill="none" height="6" style="stroke:#C82930;stroke-width:1.0;" width="6" x="17" y="1056.6504"/><text fill="#000000" font-family="sans-serif" font-size="14" lengthAdjust="spacing" textLength="371" x="29" y="1063.4414">_platformEventSelectedOptCallback : OSOnSelectEvent</text><line style="stroke:#272B30;stroke-width:0.5;" x1="10" x2="702" y1="1070.3945" y2="1070.3945"/><ellipse cx="20" cy="1084.1387" fill="#84BE84" rx="3" ry="3" style="stroke:#038048;stroke-width:1.0;"/><text fill="#000000" font-family="sans-serif" font-size="14" lengthAdjust="spacing" textLength="86" x="29" y="1087.9297">build() : void</text><ellipse cx="20" cy="1100.627" fill="#84BE84" rx="3" ry="3" style="stroke:#038048;stroke-width:1.0;"/><text fill="#000000" font-family="sans-serif" font-size="14" lengthAdjust="spacing" textLength="482" x="29" y="1104.418">changeProperty(propertyName: string, propertyValue: unknown) : void</text><ellipse cx="20" cy="1117.1152" fill="#84BE84" rx="3" ry="3" style="stroke:#038048;stroke-width:1.0;"/><text fill="#000000" font-family="sans-serif" font-size="14" lengthAdjust="spacing" textLength="236" x="29" y="1120.9063">checkAddedProviderEvents() : void</text><ellipse cx="20" cy="1133.6035" fill="#84BE84" rx="3" ry="3" style="stroke:#038048;stroke-width:1.0;"/><text fill="#000000" font-family="sans-serif" font-size="14" lengthAdjust="spacing" textLength="247" x="29" y="1137.3945">checkPendingProviderEvents() : void</text><ellipse cx="20" cy="1150.0918" fill="#84BE84" rx="3" ry="3" style="stroke:#038048;stroke-width:1.0;"/><text fill="#000000" font-family="sans-serif" font-size="14" lengthAdjust="spacing" textLength="84" x="29" y="1153.8828">clear() : void</text><ellipse cx="20" cy="1166.5801" fill="#84BE84" rx="3" ry="3" style="stroke:#038048;stroke-width:1.0;"/><text fill="#000000" font-family="sans-serif" font-size="14" lengthAdjust="spacing" textLength="86" x="29" y="1170.3711">close() : void</text><ellipse cx="20" cy="1183.0684" fill="#84BE84" rx="3" ry="3" style="stroke:#038048;stroke-width:1.0;"/><text fill="#000000" font-family="sans-serif" font-size="14" lengthAdjust="spacing" textLength="100" x="29" y="1186.8594">disable() : void</text><ellipse cx="20" cy="1199.5566" fill="#84BE84" rx="3" ry="3" style="stroke:#038048;stroke-width:1.0;"/><text fill="#000000" font-family="sans-serif" font-size="14" lengthAdjust="spacing" textLength="104" x="29" y="1203.3477">dispose() : void</text><ellipse cx="20" cy="1216.0449" fill="#84BE84" rx="3" ry="3" style="stroke:#038048;stroke-width:1.0;"/><text fill="#000000" font-family="sans-serif" font-size="14" lengthAdjust="spacing" textLength="97" x="29" y="1219.8359">enable() : void</text><ellipse cx="20" cy="1232.5332" fill="#84BE84" rx="3" ry="3" style="stroke:#038048;stroke-width:1.0;"/><text fill="#000000" font-family="sans-serif" font-size="14" lengthAdjust="spacing" textLength="266" x="29" y="1236.3242">equalsToID(patternId: string) : boolean</text><ellipse cx="20" cy="1249.0215" fill="#84BE84" rx="3" ry="3" style="stroke:#038048;stroke-width:1.0;"/><text fill="#000000" font-family="sans-serif" font-size="14" lengthAdjust="spacing" textLength="186" x="29" y="1252.8125">getSelectedValues() : string</text><ellipse cx="20" cy="1265.5098" fill="#84BE84" rx="3" ry="3" style="stroke:#038048;stroke-width:1.0;"/><text fill="#000000" font-family="sans-serif" font-size="14" lengthAdjust="spacing" textLength="86" x="29" y="1269.3008">open() : void</text><ellipse cx="20" cy="1281.998" fill="#84BE84" rx="3" ry="3" style="stroke:#038048;stroke-width:1.0;"/><text fill="#000000" font-family="sans-serif" font-size="14" lengthAdjust="spacing" textLength="428" x="29" y="1285.7891">registerCallback(eventName: string, callback: OSGeneric) : void</text><ellipse cx="20" cy="1298.4863" fill="#84BE84" rx="3" ry="3" style="stroke:#038048;stroke-width:1.0;"/><text fill="#000000" font-family="sans-serif" font-size="14" lengthAdjust="spacing" textLength="383" x="29" y="1302.2773">setHiddenInputWrapperAriaLabelVal(value: string) : void</text><ellipse cx="20" cy="1314.9746" fill="#84BE84" rx="3" ry="3" style="stroke:#038048;stroke-width:1.0;"/><text fill="#000000" font-family="sans-serif" font-size="14" lengthAdjust="spacing" textLength="387" x="29" y="1318.7656">setProviderConfigs(newConfigs: VirtualSelectOpts) : void</text><ellipse cx="20" cy="1331.4629" fill="#84BE84" rx="3" ry="3" style="stroke:#038048;stroke-width:1.0;"/><text fill="#000000" font-family="sans-serif" font-size="14" lengthAdjust="spacing" textLength="668" x="29" y="1335.2539">setProviderEvent(eventName: string, callback: Generic, uniqueId: string, saveEvent: boolean) : void</text><ellipse cx="20" cy="1347.9512" fill="#84BE84" rx="3" ry="3" style="stroke:#038048;stroke-width:1.0;"/><text fill="#000000" font-family="sans-serif" font-size="14" lengthAdjust="spacing" textLength="585" x="29" y="1351.7422">setValue(optionsToSelect: DropDownOption[], silentOnChangedEvent: boolean) : void</text><ellipse cx="20" cy="1364.4395" fill="#84BE84" rx="3" ry="3" style="stroke:#038048;stroke-width:1.0;"/><text fill="#000000" font-family="sans-serif" font-size="14" lengthAdjust="spacing" textLength="269" x="29" y="1368.2305">togglePopup(isEnabled: boolean) : void</text><ellipse cx="20" cy="1380.9277" fill="#84BE84" rx="3" ry="3" style="stroke:#038048;stroke-width:1.0;"/><text fill="#000000" font-family="sans-serif" font-size="14" lengthAdjust="spacing" textLength="281" x="29" y="1384.7188">unsetProviderEvent(eventId: string) : void</text><ellipse cx="20" cy="1397.416" fill="#84BE84" rx="3" ry="3" style="stroke:#038048;stroke-width:1.0;"/><text fill="#000000" font-family="sans-serif" font-size="14" lengthAdjust="spacing" textLength="377" x="29" y="1401.207">updateProviderEvents(providerInfo: ProviderInfo) : void</text><ellipse cx="20" cy="1413.9043" fill="#84BE84" rx="3" ry="3" style="stroke:#038048;stroke-width:1.0;"/><text fill="#000000" font-family="sans-serif" font-size="14" lengthAdjust="spacing" textLength="409" x="29" y="1417.6953">validation(isValid: boolean, validationMessage: string) : void</text><polygon fill="#FFFF44" points="20,1425.3926,24,1429.3926,20,1433.3926,16,1429.3926" style="stroke:#B38D22;stroke-width:1.0;"/><text fill="#000000" font-family="sans-serif" font-size="14" lengthAdjust="spacing" textLength="207" x="29" y="1434.1836">createProviderInstance() : void</text><polygon fill="#FFFF44" points="20,1441.8809,24,1445.8809,20,1449.8809,16,1445.8809" style="stroke:#B38D22;stroke-width:1.0;"/><text fill="#000000" font-family="sans-serif" font-size="14" lengthAdjust="spacing" textLength="123" x="29" y="1450.6719">finishBuild() : void</text><polygon fill="#FFFF44" points="20,1458.3691,24,1462.3691,20,1466.3691,16,1462.3691" style="stroke:#B38D22;stroke-width:1.0;"/><text fill="#000000" font-family="sans-serif" font-size="14" font-style="italic" lengthAdjust="spacing" textLength="348" x="29" y="1467.1602">getSelectedOptionsStructure() : DropDownOption[]</text><polygon fill="#FFFF44" points="20,1474.8574,24,1478.8574,20,1482.8574,16,1478.8574" style="stroke:#B38D22;stroke-width:1.0;"/><text fill="#000000" font-family="sans-serif" font-size="14" font-style="italic" lengthAdjust="spacing" textLength="158" x="29" y="1483.6484">prepareConfigs() : void</text><polygon fill="#FFFF44" points="20,1491.3457,24,1495.3457,20,1499.3457,16,1495.3457" style="stroke:#B38D22;stroke-width:1.0;"/><text fill="#000000" font-family="sans-serif" font-size="14" lengthAdjust="spacing" textLength="99" x="29" y="1500.1367">redraw() : void</text><polygon fill="#FFFF44" points="20,1507.834,24,1511.834,20,1515.834,16,1511.834" style="stroke:#B38D22;stroke-width:1.0;"/><text fill="#000000" font-family="sans-serif" font-size="14" lengthAdjust="spacing" textLength="178" x="29" y="1516.625">setA11YProperties() : void</text><polygon fill="#FFFF44" points="20,1524.3223,24,1528.3223,20,1532.3223,16,1528.3223" style="stroke:#B38D22;stroke-width:1.0;"/><text fill="#000000" font-family="sans-serif" font-size="14" lengthAdjust="spacing" textLength="136" x="29" y="1533.1133">setCallbacks() : void</text><polygon fill="#FFFF44" points="20,1540.8105,24,1544.8105,20,1548.8105,16,1544.8105" style="stroke:#B38D22;stroke-width:1.0;"/><text fill="#000000" font-family="sans-serif" font-size="14" lengthAdjust="spacing" textLength="165" x="29" y="1549.6016">setHtmlElements() : void</text><polygon fill="#FFFF44" points="20,1557.2988,24,1561.2988,20,1565.2988,16,1561.2988" style="stroke:#B38D22;stroke-width:1.0;"/><text fill="#000000" font-family="sans-serif" font-size="14" lengthAdjust="spacing" textLength="570" x="29" y="1566.0898">triggerPlatformEventCallback(platFormCallback: OSGeneric, args: unknown[]) : void</text><polygon fill="#FFFF44" points="20,1573.7871,24,1577.7871,20,1581.7871,16,1577.7871" style="stroke:#B38D22;stroke-width:1.0;"/><text fill="#000000" font-family="sans-serif" font-size="14" lengthAdjust="spacing" textLength="318" x="29" y="1582.5781">triggerPlatformInitializedEventCallback() : void</text><polygon fill="#FFFF44" points="20,1590.2754,24,1594.2754,20,1598.2754,16,1594.2754" style="stroke:#B38D22;stroke-width:1.0;"/><text fill="#000000" font-family="sans-serif" font-size="14" lengthAdjust="spacing" textLength="154" x="29" y="1599.0664">unsetCallbacks() : void</text><polygon fill="#FFFF44" points="20,1606.7637,24,1610.7637,20,1614.7637,16,1610.7637" style="stroke:#B38D22;stroke-width:1.0;"/><text fill="#000000" font-family="sans-serif" font-size="14" lengthAdjust="spacing" textLength="198" x="29" y="1615.5547">unsetGlobalCallbacks() : void</text><polygon fill="#FFFF44" points="20,1623.252,24,1627.252,20,1631.252,16,1627.252" style="stroke:#B38D22;stroke-width:1.0;"/><text fill="#000000" font-family="sans-serif" font-size="14" lengthAdjust="spacing" textLength="183" x="29" y="1632.043">unsetHtmlElements() : void</text><rect fill="#F24D5C" height="6" style="stroke:#C82930;stroke-width:1.0;" width="6" x="17" y="1641.7402"/><text fill="#000000" font-family="sans-serif" font-size="14" lengthAdjust="spacing" textLength="253" x="29" y="1648.5313">_addErrorMessage(text: string) : void</text><rect fill="#F24D5C" height="6" style="stroke:#C82930;stroke-width:1.0;" width="6" x="17" y="1658.2285"/><text fill="#000000" font-family="sans-serif" font-size="14" lengthAdjust="spacing" textLength="181" x="29" y="1665.0195">_manageAttributes() : void</text><rect fill="#F24D5C" height="6" style="stroke:#C82930;stroke-width:1.0;" width="6" x="17" y="1674.7168"/><text fill="#000000" font-family="sans-serif" font-size="14" lengthAdjust="spacing" textLength="205" x="29" y="1681.5078">_manageDisableStatus() : void</text><rect fill="#F24D5C" height="6" style="stroke:#C82930;stroke-width:1.0;" width="6" x="17" y="1691.2051"/><text fill="#000000" font-family="sans-serif" font-size="14" lengthAdjust="spacing" textLength="209" x="29" y="1697.9961">_onMouseUp(event: any) : void</text><rect fill="#F24D5C" height="6" style="stroke:#C82930;stroke-width:1.0;" width="6" x="17" y="1707.6934"/><text fill="#000000" font-family="sans-serif" font-size="14" lengthAdjust="spacing" textLength="180" x="29" y="1714.4844">_onSelectedOption() : void</text><rect fill="#F24D5C" height="6" style="stroke:#C82930;stroke-width:1.0;" width="6" x="17" y="1724.1816"/><text fill="#000000" font-family="sans-serif" font-size="14" lengthAdjust="spacing" textLength="174" x="29" y="1730.9727">_onWindowResize() : void</text><rect fill="#F24D5C" height="6" style="stroke:#C82930;stroke-width:1.0;" width="6" x="17" y="1740.6699"/><text fill="#000000" font-family="sans-serif" font-size="14" lengthAdjust="spacing" textLength="146" x="29" y="1747.4609">_setElementId() : void</text><rect fill="#F24D5C" height="6" style="stroke:#C82930;stroke-width:1.0;" width="6" x="17" y="1757.1582"/><text fill="#000000" font-family="sans-serif" font-size="14" lengthAdjust="spacing" textLength="141" x="29" y="1763.9492">_setUpEvents() : void</text><rect fill="#F24D5C" height="6" style="stroke:#C82930;stroke-width:1.0;" width="6" x="17" y="1773.6465"/><text fill="#000000" font-family="sans-serif" font-size="14" lengthAdjust="spacing" textLength="140" x="29" y="1780.4375">_unsetEvents() : void</text></g><!--reverse link IDropdown to IVirtualSelect--><g id="link_IDropdown_IVirtualSelect"><path codeLine="51" d="M356,388.57 C356,401.63 356,414.77 356,427.81 " fill="none" id="IDropdown-backto-IVirtualSelect" style="stroke:#272B30;stroke-width:1.0;"/><polygon fill="none" points="349,388.15,356,368.15,363,388.15,349,388.15" style="stroke:#272B30;stroke-width:1.0;"/></g><!--reverse link IVirtualSelect to AbstractVirtualSelect<C>--><g id="link_IVirtualSelect_AbstractVirtualSelect&lt;C&gt;"><path codeLine="106" d="M356,842.22 C356,855.17 356,868.4 356,881.84 " fill="none" id="IVirtualSelect-backto-AbstractVirtualSelect&lt;C&gt;" style="stroke:#272B30;stroke-width:1.0;stroke-dasharray:7.0,7.0;"/><polygon fill="none" points="349,842.14,356,822.14,363,842.14,349,842.14" style="stroke:#272B30;stroke-width:1.0;"/></g><!--SRC=[xLVTRzCm47_VNs6jBq6qY2y9gPgGkcwmI8nL38OGGfCJNr9hhXrifsLy_EzS7ASaSTed1Zomf-NkVBxxtTtlN7F3PK4rNP6veCRCj5QRkH9Aaz7ZPu-J9myFJDVYM6a6Uhy9JMzohKh9l5cMPIsRG9q2UyhemP8p8B0gx2rPWLqgPjgYZ8D02PSMT4PJ88Vn5TUsfE8I1AJsa7mx8FXtdvlZaWjBfYHHIW2LjTY0o4u5h41MghEtvw_yLwqk9VzSGinGPwpcCg_56yvoi84umHjOT0-bQyLPBKkNLEQmqAe0RM-Zml_pcgwWEJmcZVIAYXB5fRoHQYDxZZ1etNSkb86UZ7534p4WBK9Ra0Ecy1dHCszLV19nriHuhmySvbyZ3Cn5RPoNDXgOakovrf1pWvMQKo4Ih7S4QuIwYqNgTLDoSVaI96YUTfqOi0Zdchj-andFJOLg-tjAgBpTUUYqkdF_pVxUCMdgtuQXuzJb7faE4bDoWlKymGfU59Oh-V5JzvXLUIvWeOgoYBWvTJLWMtYxjgKSZdnNI6igEAFLhUZwglhOEXwJNyfpC8Rc4FZuqPcaAWs6QVmVelz3T6T3zCSxlDtNHzydas1b7D043z7KahJQM-HmvhyxPaVpvyrSZ70XCP2nB4hxNjC2st2cENr54n0OORUa8swQR8-f0TRhYL7HXiASKubPw5WQIoKEvPJ47QoylZwwhkEhsSYN4KzqmZxtEpGyW6GLM5SoPpgvTaMvaE-vHEZUWE5VgsXyaRqDmgvA0-yA5zk0kkdscXY7hGf1RQRqocbR1vf-9rLJNtXNpkXF4CSIqfiPLfbru3VHWDa294F7-mt_0X4Lr29joFWVvQEplKCKhUlgxDZ3VJAJiDdoMD3HTy9gOsBe6fo77Rjy-rnGhlknA7L8uNi1VN7Xnctk6fZjStkNpucoG3Q5NYSt31NBJ4t9elNrMvdQCLIgeHL0GuFT3XnbN7ApF0xd_rl3v3_8gDNRDSpcqkeojQMktVLh43WeDE0l5MWwh1k21gRffYT4h6UF7dtmzCF1XFfcQ0PKPtOb_3kghqMWScJzHPifj-DNyUSBbCx3cHiJggk9y1JNUvZstSQIMuvb-khxRtj3zvJhgLrvEELBeH8gzfhiJdPoJHaxnH-WsZTAPE6B7UoMoVNAhSEPHLrIMWXSrVgJcbGlBRLbOBBTOVLaXC-WS8-5BjfRig_5R7scCHlG-UKPnELWwgkgrqplz-xHzmSFzZnPVW80]--></g></svg>