<?xml version="1.0" encoding="us-ascii" standalone="no"?><svg xmlns="http://www.w3.org/2000/svg" xmlns:xlink="http://www.w3.org/1999/xlink" contentStyleType="text/css" height="479px" preserveAspectRatio="none" style="width:422px;height:479px;background:#CED4DA;" version="1.1" viewBox="0 0 422 479" width="422px" zoomAndPan="magnify"><defs/><g><rect fill="#CED4DA" height="479" style="stroke:none;stroke-width:1.0;" width="422" x="0" y="0"/><!--class LangObserver--><g id="elem_LangObserver"><rect codeLine="7" fill="#FFFFFF" height="210.9688" id="LangObserver" rx="2.5" ry="2.5" style="stroke:#272B30;stroke-width:0.5;" width="404" x="10" y="262"/><ellipse cx="159.75" cy="278" fill="#ADD1B2" rx="11" ry="11" style="stroke:#181818;stroke-width:1.0;"/><path d="M162.7188,283.6406 Q162.1406,283.9375 161.5,284.0781 Q160.8594,284.2344 160.1563,284.2344 Q157.6563,284.2344 156.3281,282.5938 Q155.0156,280.9375 155.0156,277.8125 Q155.0156,274.6875 156.3281,273.0313 Q157.6563,271.375 160.1563,271.375 Q160.8594,271.375 161.5,271.5313 Q162.1563,271.6875 162.7188,271.9844 L162.7188,274.7031 Q162.0938,274.125 161.5,273.8594 Q160.9063,273.5781 160.2813,273.5781 Q158.9375,273.5781 158.25,274.6563 Q157.5625,275.7188 157.5625,277.8125 Q157.5625,279.9063 158.25,280.9844 Q158.9375,282.0469 160.2813,282.0469 Q160.9063,282.0469 161.5,281.7813 Q162.0938,281.5 162.7188,280.9219 L162.7188,283.6406 Z " fill="#000000"/><text fill="#000000" font-family="sans-serif" font-size="14" lengthAdjust="spacing" textLength="96" x="180.25" y="282.8467">LangObserver</text><line style="stroke:#272B30;stroke-width:0.5;" x1="11" x2="413" y1="294" y2="294"/><polygon fill="none" points="21,302.6484,25,306.6484,21,310.6484,17,306.6484" style="stroke:#B38D22;stroke-width:1.0;"/><text fill="#000000" font-family="sans-serif" font-size="14" lengthAdjust="spacing" textLength="320" x="30" y="310.9951">observer : ResizeObserver | MutationObserver</text><rect fill="none" height="6" style="stroke:#C82930;stroke-width:1.0;" width="6" x="18" y="320.9453"/><text fill="#000000" font-family="sans-serif" font-size="14" lengthAdjust="spacing" textLength="142" x="30" y="327.292">_currentLang : string</text><line style="stroke:#272B30;stroke-width:0.5;" x1="11" x2="413" y1="334.5938" y2="334.5938"/><ellipse cx="21" cy="348.2422" fill="#84BE84" rx="3" ry="3" style="stroke:#038048;stroke-width:1.0;"/><text fill="#000000" font-family="sans-serif" font-size="14" lengthAdjust="spacing" textLength="116" x="30" y="351.5889">addEvent() : void</text><ellipse cx="21" cy="364.5391" fill="#84BE84" rx="3" ry="3" style="stroke:#038048;stroke-width:1.0;"/><text fill="#000000" font-family="sans-serif" font-size="14" lengthAdjust="spacing" textLength="265" x="30" y="367.8857">addHandler(handler: OSGeneric) : void</text><ellipse cx="21" cy="380.8359" fill="#84BE84" rx="3" ry="3" style="stroke:#038048;stroke-width:1.0;"/><text fill="#000000" font-family="sans-serif" font-size="14" lengthAdjust="spacing" textLength="165" x="30" y="384.1826">hasHandlers() : boolean</text><ellipse cx="21" cy="397.1328" fill="#84BE84" rx="3" ry="3" style="stroke:#038048;stroke-width:1.0;"/><text fill="#000000" font-family="sans-serif" font-size="14" lengthAdjust="spacing" textLength="378" x="30" y="400.4795">observerHandler(mutationList: MutationRecord[]) : void</text><ellipse cx="21" cy="413.4297" fill="#84BE84" rx="3" ry="3" style="stroke:#038048;stroke-width:1.0;"/><text fill="#000000" font-family="sans-serif" font-size="14" lengthAdjust="spacing" textLength="142" x="30" y="416.7764">removeEvent() : void</text><ellipse cx="21" cy="429.7266" fill="#84BE84" rx="3" ry="3" style="stroke:#038048;stroke-width:1.0;"/><text fill="#000000" font-family="sans-serif" font-size="14" lengthAdjust="spacing" textLength="291" x="30" y="433.0732">removeHandler(handler: OSGeneric) : void</text><ellipse cx="21" cy="446.0234" fill="#84BE84" rx="3" ry="3" style="stroke:#038048;stroke-width:1.0;"/><text fill="#000000" font-family="sans-serif" font-size="14" lengthAdjust="spacing" textLength="295" x="30" y="449.3701">trigger(data: string, args: unknown[]) : void</text><polygon fill="#FFFF44" points="21,457.3203,25,461.3203,21,465.3203,17,461.3203" style="stroke:#B38D22;stroke-width:1.0;"/><text fill="#000000" font-family="sans-serif" font-size="14" lengthAdjust="spacing" textLength="145" x="30" y="465.667">startObserver() : void</text></g><!--class AbstractMutationObserver--><g id="elem_AbstractMutationObserver"><rect codeLine="19" fill="#FFFFFF" height="194.6719" id="AbstractMutationObserver" rx="2.5" ry="2.5" style="stroke:#272B30;stroke-width:0.5;" width="406" x="9" y="7"/><ellipse cx="117.75" cy="23" fill="#A9DCDF" rx="11" ry="11" style="stroke:#181818;stroke-width:1.0;"/><path d="M117.8594,18.3438 L116.7031,23.4219 L119.0313,23.4219 L117.8594,18.3438 Z M116.375,16.1094 L119.3594,16.1094 L122.7188,28.5 L120.2656,28.5 L119.5,25.4375 L116.2188,25.4375 L115.4688,28.5 L113.0313,28.5 L116.375,16.1094 Z " fill="#000000"/><text fill="#000000" font-family="sans-serif" font-size="14" font-style="italic" lengthAdjust="spacing" textLength="180" x="138.25" y="27.8467">AbstractMutationObserver</text><line style="stroke:#272B30;stroke-width:0.5;" x1="10" x2="414" y1="39" y2="39"/><polygon fill="none" points="20,47.6484,24,51.6484,20,55.6484,16,51.6484" style="stroke:#B38D22;stroke-width:1.0;"/><text fill="#000000" font-family="sans-serif" font-size="14" lengthAdjust="spacing" textLength="320" x="29" y="55.9951">observer : ResizeObserver | MutationObserver</text><line style="stroke:#272B30;stroke-width:0.5;" x1="10" x2="414" y1="63.2969" y2="63.2969"/><ellipse cx="20" cy="76.9453" fill="#84BE84" rx="3" ry="3" style="stroke:#038048;stroke-width:1.0;"/><text fill="#000000" font-family="sans-serif" font-size="14" lengthAdjust="spacing" textLength="116" x="29" y="80.292">addEvent() : void</text><ellipse cx="20" cy="93.2422" fill="#84BE84" rx="3" ry="3" style="stroke:#038048;stroke-width:1.0;"/><text fill="#000000" font-family="sans-serif" font-size="14" lengthAdjust="spacing" textLength="265" x="29" y="96.5889">addHandler(handler: OSGeneric) : void</text><ellipse cx="20" cy="109.5391" fill="#84BE84" rx="3" ry="3" style="stroke:#038048;stroke-width:1.0;"/><text fill="#000000" font-family="sans-serif" font-size="14" lengthAdjust="spacing" textLength="165" x="29" y="112.8857">hasHandlers() : boolean</text><ellipse cx="20" cy="125.8359" fill="#84BE84" rx="3" ry="3" style="stroke:#038048;stroke-width:1.0;"/><text fill="#000000" font-family="sans-serif" font-size="14" lengthAdjust="spacing" textLength="142" x="29" y="129.1826">removeEvent() : void</text><ellipse cx="20" cy="142.1328" fill="#84BE84" rx="3" ry="3" style="stroke:#038048;stroke-width:1.0;"/><text fill="#000000" font-family="sans-serif" font-size="14" lengthAdjust="spacing" textLength="291" x="29" y="145.4795">removeHandler(handler: OSGeneric) : void</text><ellipse cx="20" cy="158.4297" fill="#84BE84" rx="3" ry="3" style="stroke:#038048;stroke-width:1.0;"/><text fill="#000000" font-family="sans-serif" font-size="14" lengthAdjust="spacing" textLength="295" x="29" y="161.7764">trigger(data: string, args: unknown[]) : void</text><polygon fill="#FFFF44" points="20,169.7266,24,173.7266,20,177.7266,16,173.7266" style="stroke:#B38D22;stroke-width:1.0;"/><text fill="#000000" font-family="sans-serif" font-size="14" font-style="italic" lengthAdjust="spacing" textLength="380" x="29" y="178.0732">observerHandler(mutationList: MutationRecord[]) : void</text><polygon fill="#FFFF44" points="20,186.0234,24,190.0234,20,194.0234,16,190.0234" style="stroke:#B38D22;stroke-width:1.0;"/><text fill="#000000" font-family="sans-serif" font-size="14" lengthAdjust="spacing" textLength="145" x="29" y="194.3701">startObserver() : void</text></g><!--reverse link AbstractMutationObserver to LangObserver--><g id="link_AbstractMutationObserver_LangObserver"><path codeLine="30" d="M212,220.32 C212,239.76 212,242.27 212,261.96 " fill="none" id="AbstractMutationObserver-backto-LangObserver" style="stroke:#272B30;stroke-width:1.0;"/><polygon fill="none" points="212,202.32,206,220.32,218,220.32,212,202.32" style="stroke:#272B30;stroke-width:1.0;"/></g><!--SRC=[nLF1IiD04BtdAuRsKj62L448NceHFLGAzIWYazr9iZJPBRER56txxsxRf6sg5Yc8kInvxytCspU9dIWzHSOS1XbQssSsiu7934ExTzEBhYu3srJS6PR4noKe9WcRGijA5iVndkOBBKXUImnI9GaedxftoCcbHjfzA5QKUKIi1a1hY3ePHPQu96x1F03_j4q5G0XZikg3QWKiuAbmw9JHDRIkwBw9WfcqMxNpLTQnqicQEaSfxqjFTSuyKHebj_0ZQfaHTzBD6SBe-O4qiH9DQOgsajfrayYOZ51loDfhtIol_0sLTU7MxPY4Z_lbjTcOAJSbVUTkm_pMeBzjadYTH8VrvIy0ER4X57gYpKmVZ6vRX-pg37V3bm56lXw5Wsf1_UhzCFVJb_NN6_c_LETrUCjTB2Ty5pylvyWsRXVTxi7lz0a0]--></g></svg>