<?xml version="1.0" encoding="us-ascii" standalone="no"?><svg xmlns="http://www.w3.org/2000/svg" xmlns:xlink="http://www.w3.org/1999/xlink" contentStyleType="text/css" height="1327px" preserveAspectRatio="none" style="width:2241px;height:1327px;background:#CED4DA;" version="1.1" viewBox="0 0 2241 1327" width="2241px" zoomAndPan="magnify"><defs/><g><rect fill="#CED4DA" height="1327" style="stroke:none;stroke-width:1.0;" width="2241" x="0" y="0"/><!--class Notification--><g id="elem_Notification"><rect codeLine="7" fill="#FFFFFF" height="830.25" id="Notification" rx="2.5" ry="2.5" style="stroke:#272B30;stroke-width:0.5;" width="1130" x="329.5" y="490"/><ellipse cx="852.25" cy="506" fill="#ADD1B2" rx="11" ry="11" style="stroke:#181818;stroke-width:1.0;"/><path d="M855.2188,511.6406 Q854.6406,511.9375 854,512.0781 Q853.3594,512.2344 852.6563,512.2344 Q850.1563,512.2344 848.8281,510.5938 Q847.5156,508.9375 847.5156,505.8125 Q847.5156,502.6875 848.8281,501.0313 Q850.1563,499.375 852.6563,499.375 Q853.3594,499.375 854,499.5313 Q854.6563,499.6875 855.2188,499.9844 L855.2188,502.7031 Q854.5938,502.125 854,501.8594 Q853.4063,501.5781 852.7813,501.5781 Q851.4375,501.5781 850.75,502.6563 Q850.0625,503.7188 850.0625,505.8125 Q850.0625,507.9063 850.75,508.9844 Q851.4375,510.0469 852.7813,510.0469 Q853.4063,510.0469 854,509.7813 Q854.5938,509.5 855.2188,508.9219 L855.2188,511.6406 Z " fill="#000000"/><text fill="#000000" font-family="sans-serif" font-size="14" lengthAdjust="spacing" textLength="76" x="872.75" y="510.8467">Notification</text><line style="stroke:#272B30;stroke-width:0.5;" x1="330.5" x2="1458.5" y1="522" y2="522"/><polygon fill="none" points="340.5,530.6484,344.5,534.6484,340.5,538.6484,336.5,534.6484" style="stroke:#B38D22;stroke-width:1.0;"/><text fill="#000000" font-family="sans-serif" font-size="14" lengthAdjust="spacing" textLength="180" x="349.5" y="538.9951">isProviderBased : boolean</text><rect fill="none" height="6" style="stroke:#C82930;stroke-width:1.0;" width="6" x="337.5" y="548.9453"/><text fill="#000000" font-family="sans-serif" font-size="14" lengthAdjust="spacing" textLength="165" x="349.5" y="555.292">_eventOnClick : Generic</text><rect fill="none" height="6" style="stroke:#C82930;stroke-width:1.0;" width="6" x="337.5" y="565.2422"/><text fill="#000000" font-family="sans-serif" font-size="14" lengthAdjust="spacing" textLength="197" x="349.5" y="571.5889">_eventOnKeypress : Generic</text><rect fill="none" height="6" style="stroke:#C82930;stroke-width:1.0;" width="6" x="337.5" y="581.5391"/><text fill="#000000" font-family="sans-serif" font-size="14" lengthAdjust="spacing" textLength="132" x="349.5" y="587.8857">_eventType : string</text><rect fill="none" height="6" style="stroke:#C82930;stroke-width:1.0;" width="6" x="337.5" y="597.8359"/><text fill="#000000" font-family="sans-serif" font-size="14" lengthAdjust="spacing" textLength="279" x="349.5" y="604.1826">_focusManagerInstance : FocusManager</text><rect fill="none" height="6" style="stroke:#C82930;stroke-width:1.0;" width="6" x="337.5" y="614.1328"/><text fill="#000000" font-family="sans-serif" font-size="14" lengthAdjust="spacing" textLength="221" x="349.5" y="620.4795">_focusTrapInstance : FocusTrap</text><rect fill="none" height="6" style="stroke:#C82930;stroke-width:1.0;" width="6" x="337.5" y="630.4297"/><text fill="#000000" font-family="sans-serif" font-size="14" lengthAdjust="spacing" textLength="252" x="349.5" y="636.7764">_gestureEventInstance : SwipeEvent</text><rect fill="none" height="6" style="stroke:#C82930;stroke-width:1.0;" width="6" x="337.5" y="646.7266"/><text fill="#000000" font-family="sans-serif" font-size="14" lengthAdjust="spacing" textLength="204" x="349.5" y="653.0732">_hasGestureEvents : boolean</text><rect fill="none" height="6" style="stroke:#C82930;stroke-width:1.0;" width="6" x="337.5" y="663.0234"/><text fill="#000000" font-family="sans-serif" font-size="14" lengthAdjust="spacing" textLength="125" x="349.5" y="669.3701">_isOpen : boolean</text><rect fill="none" height="6" style="stroke:#C82930;stroke-width:1.0;" width="6" x="337.5" y="679.3203"/><text fill="#000000" font-family="sans-serif" font-size="14" lengthAdjust="spacing" textLength="185" x="349.5" y="685.667">_parentSelf : HTMLElement</text><rect fill="none" height="6" style="stroke:#C82930;stroke-width:1.0;" width="6" x="337.5" y="695.6172"/><text fill="#000000" font-family="sans-serif" font-size="14" lengthAdjust="spacing" textLength="310" x="349.5" y="701.9639">_platformEventOnToggle : OSOnToggleEvent</text><line style="stroke:#272B30;stroke-width:0.5;" x1="330.5" x2="1458.5" y1="709.2656" y2="709.2656"/><ellipse cx="340.5" cy="722.9141" fill="#84BE84" rx="3" ry="3" style="stroke:#038048;stroke-width:1.0;"/><text fill="#000000" font-family="sans-serif" font-size="14" lengthAdjust="spacing" textLength="84" x="349.5" y="726.2607">build() : void</text><ellipse cx="340.5" cy="739.2109" fill="#84BE84" rx="3" ry="3" style="stroke:#038048;stroke-width:1.0;"/><text fill="#000000" font-family="sans-serif" font-size="14" lengthAdjust="spacing" textLength="444" x="349.5" y="742.5576">changeProperty(propertyName: string, propertyValue: any) : void</text><ellipse cx="340.5" cy="755.5078" fill="#84BE84" rx="3" ry="3" style="stroke:#038048;stroke-width:1.0;"/><text fill="#000000" font-family="sans-serif" font-size="14" lengthAdjust="spacing" textLength="106" x="349.5" y="758.8545">dispose() : void</text><ellipse cx="340.5" cy="771.8047" fill="#84BE84" rx="3" ry="3" style="stroke:#038048;stroke-width:1.0;"/><text fill="#000000" font-family="sans-serif" font-size="14" lengthAdjust="spacing" textLength="267" x="349.5" y="775.1514">equalsToID(patternId: string) : boolean</text><ellipse cx="340.5" cy="788.1016" fill="#84BE84" rx="3" ry="3" style="stroke:#038048;stroke-width:1.0;"/><text fill="#000000" font-family="sans-serif" font-size="14" lengthAdjust="spacing" textLength="81" x="349.5" y="791.4482">hide() : void</text><ellipse cx="340.5" cy="804.3984" fill="#84BE84" rx="3" ry="3" style="stroke:#038048;stroke-width:1.0;"/><text fill="#000000" font-family="sans-serif" font-size="14" lengthAdjust="spacing" textLength="161" x="349.5" y="807.7451">onSwipeBottom() : void</text><ellipse cx="340.5" cy="820.6953" fill="#84BE84" rx="3" ry="3" style="stroke:#038048;stroke-width:1.0;"/><text fill="#000000" font-family="sans-serif" font-size="14" lengthAdjust="spacing" textLength="135" x="349.5" y="824.042">onSwipeLeft() : void</text><ellipse cx="340.5" cy="836.9922" fill="#84BE84" rx="3" ry="3" style="stroke:#038048;stroke-width:1.0;"/><text fill="#000000" font-family="sans-serif" font-size="14" lengthAdjust="spacing" textLength="146" x="349.5" y="840.3389">onSwipeRight() : void</text><ellipse cx="340.5" cy="853.2891" fill="#84BE84" rx="3" ry="3" style="stroke:#038048;stroke-width:1.0;"/><text fill="#000000" font-family="sans-serif" font-size="14" lengthAdjust="spacing" textLength="129" x="349.5" y="856.6357">onSwipeUp() : void</text><ellipse cx="340.5" cy="869.5859" fill="#84BE84" rx="3" ry="3" style="stroke:#038048;stroke-width:1.0;"/><text fill="#000000" font-family="sans-serif" font-size="14" lengthAdjust="spacing" textLength="434" x="349.5" y="872.9326">registerCallback(eventName: string, callback: OSGeneric) : void</text><ellipse cx="340.5" cy="885.8828" fill="#84BE84" rx="3" ry="3" style="stroke:#038048;stroke-width:1.0;"/><text fill="#000000" font-family="sans-serif" font-size="14" lengthAdjust="spacing" textLength="206" x="349.5" y="889.2295">removeGestureEvents() : void</text><ellipse cx="340.5" cy="902.1797" fill="#84BE84" rx="3" ry="3" style="stroke:#038048;stroke-width:1.0;"/><text fill="#000000" font-family="sans-serif" font-size="14" lengthAdjust="spacing" textLength="88" x="349.5" y="905.5264">show() : void</text><polygon fill="#FFFF44" points="340.5,913.4766,344.5,917.4766,340.5,921.4766,336.5,917.4766" style="stroke:#B38D22;stroke-width:1.0;"/><text fill="#000000" font-family="sans-serif" font-size="14" lengthAdjust="spacing" textLength="121" x="349.5" y="921.8232">finishBuild() : void</text><polygon fill="#FFFF44" points="340.5,929.7734,344.5,933.7734,340.5,937.7734,336.5,933.7734" style="stroke:#B38D22;stroke-width:1.0;"/><text fill="#000000" font-family="sans-serif" font-size="14" lengthAdjust="spacing" textLength="180" x="349.5" y="938.1201">setA11YProperties() : void</text><polygon fill="#FFFF44" points="340.5,946.0703,344.5,950.0703,340.5,954.0703,336.5,950.0703" style="stroke:#B38D22;stroke-width:1.0;"/><text fill="#000000" font-family="sans-serif" font-size="14" lengthAdjust="spacing" textLength="138" x="349.5" y="954.417">setCallbacks() : void</text><polygon fill="#FFFF44" points="340.5,962.3672,344.5,966.3672,340.5,970.3672,336.5,966.3672" style="stroke:#B38D22;stroke-width:1.0;"/><text fill="#000000" font-family="sans-serif" font-size="14" lengthAdjust="spacing" textLength="1104" x="349.5" y="970.7139">setGestureEvents(onSwipeDownCallback: SwipeDown, onSwipeLeftCallback: SwipeLeft, onSwipeRightCallback: SwipeRight, onSwipeUpCallback: SwipeUp) : void</text><polygon fill="#FFFF44" points="340.5,978.6641,344.5,982.6641,340.5,986.6641,336.5,982.6641" style="stroke:#B38D22;stroke-width:1.0;"/><text fill="#000000" font-family="sans-serif" font-size="14" lengthAdjust="spacing" textLength="169" x="349.5" y="987.0107">setHtmlElements() : void</text><polygon fill="#FFFF44" points="340.5,994.9609,344.5,998.9609,340.5,1002.9609,336.5,998.9609" style="stroke:#B38D22;stroke-width:1.0;"/><text fill="#000000" font-family="sans-serif" font-size="14" lengthAdjust="spacing" textLength="151" x="349.5" y="1003.3076">setInitialStates() : void</text><polygon fill="#FFFF44" points="340.5,1011.2578,344.5,1015.2578,340.5,1019.2578,336.5,1015.2578" style="stroke:#B38D22;stroke-width:1.0;"/><text fill="#000000" font-family="sans-serif" font-size="14" lengthAdjust="spacing" textLength="569" x="349.5" y="1019.6045">triggerPlatformEventCallback(platFormCallback: OSGeneric, args: unknown[]) : void</text><polygon fill="#FFFF44" points="340.5,1027.5547,344.5,1031.5547,340.5,1035.5547,336.5,1031.5547" style="stroke:#B38D22;stroke-width:1.0;"/><text fill="#000000" font-family="sans-serif" font-size="14" lengthAdjust="spacing" textLength="311" x="349.5" y="1035.9014">triggerPlatformInitializedEventCallback() : void</text><polygon fill="#FFFF44" points="340.5,1043.8516,344.5,1047.8516,340.5,1051.8516,336.5,1047.8516" style="stroke:#B38D22;stroke-width:1.0;"/><text fill="#000000" font-family="sans-serif" font-size="14" lengthAdjust="spacing" textLength="156" x="349.5" y="1052.1982">unsetCallbacks() : void</text><polygon fill="#FFFF44" points="340.5,1060.1484,344.5,1064.1484,340.5,1068.1484,336.5,1064.1484" style="stroke:#B38D22;stroke-width:1.0;"/><text fill="#000000" font-family="sans-serif" font-size="14" lengthAdjust="spacing" textLength="199" x="349.5" y="1068.4951">unsetGlobalCallbacks() : void</text><polygon fill="#FFFF44" points="340.5,1076.4453,344.5,1080.4453,340.5,1084.4453,336.5,1080.4453" style="stroke:#B38D22;stroke-width:1.0;"/><text fill="#000000" font-family="sans-serif" font-size="14" lengthAdjust="spacing" textLength="187" x="349.5" y="1084.792">unsetHtmlElements() : void</text><rect fill="#F24D5C" height="6" style="stroke:#C82930;stroke-width:1.0;" width="6" x="337.5" y="1094.7422"/><text fill="#000000" font-family="sans-serif" font-size="14" lengthAdjust="spacing" textLength="204" x="349.5" y="1101.0889">_autoCloseNotification() : void</text><rect fill="#F24D5C" height="6" style="stroke:#C82930;stroke-width:1.0;" width="6" x="337.5" y="1111.0391"/><text fill="#000000" font-family="sans-serif" font-size="14" lengthAdjust="spacing" textLength="249" x="349.5" y="1117.3857">_clickCallback(e: MouseEvent) : void</text><rect fill="#F24D5C" height="6" style="stroke:#C82930;stroke-width:1.0;" width="6" x="337.5" y="1127.3359"/><text fill="#000000" font-family="sans-serif" font-size="14" lengthAdjust="spacing" textLength="207" x="349.5" y="1133.6826">_handleFocusBehavior() : void</text><rect fill="#F24D5C" height="6" style="stroke:#C82930;stroke-width:1.0;" width="6" x="337.5" y="1143.6328"/><text fill="#000000" font-family="sans-serif" font-size="14" lengthAdjust="spacing" textLength="208" x="349.5" y="1149.9795">_handleGestureEvents() : void</text><rect fill="#F24D5C" height="6" style="stroke:#C82930;stroke-width:1.0;" width="6" x="337.5" y="1159.9297"/><text fill="#000000" font-family="sans-serif" font-size="14" lengthAdjust="spacing" textLength="164" x="349.5" y="1166.2764">_hideNotification() : void</text><rect fill="#F24D5C" height="6" style="stroke:#C82930;stroke-width:1.0;" width="6" x="337.5" y="1176.2266"/><text fill="#000000" font-family="sans-serif" font-size="14" lengthAdjust="spacing" textLength="300" x="349.5" y="1182.5732">_keypressCallback(e: KeyboardEvent) : void</text><rect fill="#F24D5C" height="6" style="stroke:#C82930;stroke-width:1.0;" width="6" x="337.5" y="1192.5234"/><text fill="#000000" font-family="sans-serif" font-size="14" lengthAdjust="spacing" textLength="157" x="349.5" y="1198.8701">_removeEvents() : void</text><rect fill="#F24D5C" height="6" style="stroke:#C82930;stroke-width:1.0;" width="6" x="337.5" y="1208.8203"/><text fill="#000000" font-family="sans-serif" font-size="14" lengthAdjust="spacing" textLength="171" x="349.5" y="1215.167">_showNotification() : void</text><rect fill="#F24D5C" height="6" style="stroke:#C82930;stroke-width:1.0;" width="6" x="337.5" y="1225.1172"/><text fill="#000000" font-family="sans-serif" font-size="14" lengthAdjust="spacing" textLength="324" x="349.5" y="1231.4639">_triggerOnToggleEvent(isOpen: boolean) : void</text><rect fill="#F24D5C" height="6" style="stroke:#C82930;stroke-width:1.0;" width="6" x="337.5" y="1241.4141"/><text fill="#000000" font-family="sans-serif" font-size="14" lengthAdjust="spacing" textLength="212" x="349.5" y="1247.7607">_updateA11yProperties() : void</text><rect fill="#F24D5C" height="6" style="stroke:#C82930;stroke-width:1.0;" width="6" x="337.5" y="1257.7109"/><text fill="#000000" font-family="sans-serif" font-size="14" lengthAdjust="spacing" textLength="311" x="349.5" y="1264.0576">_updateCloseAfterTime(value: number) : void</text><rect fill="#F24D5C" height="6" style="stroke:#C82930;stroke-width:1.0;" width="6" x="337.5" y="1274.0078"/><text fill="#000000" font-family="sans-serif" font-size="14" lengthAdjust="spacing" textLength="317" x="349.5" y="1280.3545">_updateInteractToClose(value: boolean) : void</text><rect fill="#F24D5C" height="6" style="stroke:#C82930;stroke-width:1.0;" width="6" x="337.5" y="1290.3047"/><text fill="#000000" font-family="sans-serif" font-size="14" lengthAdjust="spacing" textLength="265" x="349.5" y="1296.6514">_updatePosition(position: string) : void</text><rect fill="#F24D5C" height="6" style="stroke:#C82930;stroke-width:1.0;" width="6" x="337.5" y="1306.6016"/><text fill="#000000" font-family="sans-serif" font-size="14" lengthAdjust="spacing" textLength="231" x="349.5" y="1312.9482">_updateWidth(width: string) : void</text></g><!--class AbstractPattern<NotificationConfig>--><g id="elem_AbstractPattern&lt;NotificationConfig&gt;"><rect codeLine="57" fill="#FFFFFF" height="422.8281" id="AbstractPattern&lt;NotificationConfig&gt;" rx="2.5" ry="2.5" style="stroke:#272B30;stroke-width:0.5;" width="595" x="9" y="7"/><ellipse cx="176.75" cy="23" fill="#A9DCDF" rx="11" ry="11" style="stroke:#181818;stroke-width:1.0;"/><path d="M176.8594,18.3438 L175.7031,23.4219 L178.0313,23.4219 L176.8594,18.3438 Z M175.375,16.1094 L178.3594,16.1094 L181.7188,28.5 L179.2656,28.5 L178.5,25.4375 L175.2188,25.4375 L174.4688,28.5 L172.0313,28.5 L175.375,16.1094 Z " fill="#000000"/><text fill="#000000" font-family="sans-serif" font-size="14" font-style="italic" lengthAdjust="spacing" textLength="251" x="197.25" y="27.8467">AbstractPattern&lt;NotificationConfig&gt;</text><line style="stroke:#272B30;stroke-width:0.5;" x1="10" x2="603" y1="39" y2="39"/><polygon fill="none" points="20,47.6484,24,51.6484,20,55.6484,16,51.6484" style="stroke:#B38D22;stroke-width:1.0;"/><text fill="#000000" font-family="sans-serif" font-size="14" lengthAdjust="spacing" textLength="180" x="29" y="55.9951">isProviderBased : boolean</text><rect fill="none" height="6" style="stroke:#C82930;stroke-width:1.0;" width="6" x="17" y="65.9453"/><text fill="#000000" font-family="sans-serif" font-size="14" lengthAdjust="spacing" textLength="190" x="29" y="72.292">_configs : NotificationConfig</text><rect fill="none" height="6" style="stroke:#C82930;stroke-width:1.0;" width="6" x="17" y="82.2422"/><text fill="#000000" font-family="sans-serif" font-size="14" lengthAdjust="spacing" textLength="117" x="29" y="88.5889">_isBuilt : boolean</text><rect fill="none" height="6" style="stroke:#C82930;stroke-width:1.0;" width="6" x="17" y="98.5391"/><text fill="#000000" font-family="sans-serif" font-size="14" lengthAdjust="spacing" textLength="252" x="29" y="104.8857">_platformEventInitialized : OSGeneric</text><rect fill="none" height="6" style="stroke:#C82930;stroke-width:1.0;" width="6" x="17" y="114.8359"/><text fill="#000000" font-family="sans-serif" font-size="14" lengthAdjust="spacing" textLength="173" x="29" y="121.1826">_selfElem : HTMLElement</text><rect fill="none" height="6" style="stroke:#C82930;stroke-width:1.0;" width="6" x="17" y="131.1328"/><text fill="#000000" font-family="sans-serif" font-size="14" lengthAdjust="spacing" textLength="119" x="29" y="137.4795">_uniqueId : string</text><rect fill="none" height="6" style="stroke:#C82930;stroke-width:1.0;" width="6" x="17" y="147.4297"/><text fill="#000000" font-family="sans-serif" font-size="14" lengthAdjust="spacing" textLength="117" x="29" y="153.7764">_widgetId : string</text><line style="stroke:#272B30;stroke-width:0.5;" x1="10" x2="603" y1="161.0781" y2="161.0781"/><ellipse cx="20" cy="174.7266" fill="#84BE84" rx="3" ry="3" style="stroke:#038048;stroke-width:1.0;"/><text fill="#000000" font-family="sans-serif" font-size="14" lengthAdjust="spacing" textLength="84" x="29" y="178.0732">build() : void</text><ellipse cx="20" cy="191.0234" fill="#84BE84" rx="3" ry="3" style="stroke:#038048;stroke-width:1.0;"/><text fill="#000000" font-family="sans-serif" font-size="14" lengthAdjust="spacing" textLength="484" x="29" y="194.3701">changeProperty(propertyName: string, propertyValue: unknown) : void</text><ellipse cx="20" cy="207.3203" fill="#84BE84" rx="3" ry="3" style="stroke:#038048;stroke-width:1.0;"/><text fill="#000000" font-family="sans-serif" font-size="14" lengthAdjust="spacing" textLength="106" x="29" y="210.667">dispose() : void</text><ellipse cx="20" cy="223.6172" fill="#84BE84" rx="3" ry="3" style="stroke:#038048;stroke-width:1.0;"/><text fill="#000000" font-family="sans-serif" font-size="14" lengthAdjust="spacing" textLength="267" x="29" y="226.9639">equalsToID(patternId: string) : boolean</text><ellipse cx="20" cy="239.9141" fill="#84BE84" rx="3" ry="3" style="stroke:#038048;stroke-width:1.0;"/><text fill="#000000" font-family="sans-serif" font-size="14" lengthAdjust="spacing" textLength="434" x="29" y="243.2607">registerCallback(eventName: string, callback: OSGeneric) : void</text><polygon fill="#FFFF44" points="20,251.2109,24,255.2109,20,259.2109,16,255.2109" style="stroke:#B38D22;stroke-width:1.0;"/><text fill="#000000" font-family="sans-serif" font-size="14" lengthAdjust="spacing" textLength="121" x="29" y="259.5576">finishBuild() : void</text><polygon fill="#FFFF44" points="20,267.5078,24,271.5078,20,275.5078,16,271.5078" style="stroke:#B38D22;stroke-width:1.0;"/><text fill="#000000" font-family="sans-serif" font-size="14" font-style="italic" lengthAdjust="spacing" textLength="179" x="29" y="275.8545">setA11YProperties() : void</text><polygon fill="#FFFF44" points="20,283.8047,24,287.8047,20,291.8047,16,287.8047" style="stroke:#B38D22;stroke-width:1.0;"/><text fill="#000000" font-family="sans-serif" font-size="14" font-style="italic" lengthAdjust="spacing" textLength="137" x="29" y="292.1514">setCallbacks() : void</text><polygon fill="#FFFF44" points="20,300.1016,24,304.1016,20,308.1016,16,304.1016" style="stroke:#B38D22;stroke-width:1.0;"/><text fill="#000000" font-family="sans-serif" font-size="14" font-style="italic" lengthAdjust="spacing" textLength="169" x="29" y="308.4482">setHtmlElements() : void</text><polygon fill="#FFFF44" points="20,316.3984,24,320.3984,20,324.3984,16,320.3984" style="stroke:#B38D22;stroke-width:1.0;"/><text fill="#000000" font-family="sans-serif" font-size="14" lengthAdjust="spacing" textLength="569" x="29" y="324.7451">triggerPlatformEventCallback(platFormCallback: OSGeneric, args: unknown[]) : void</text><polygon fill="#FFFF44" points="20,332.6953,24,336.6953,20,340.6953,16,336.6953" style="stroke:#B38D22;stroke-width:1.0;"/><text fill="#000000" font-family="sans-serif" font-size="14" lengthAdjust="spacing" textLength="311" x="29" y="341.042">triggerPlatformInitializedEventCallback() : void</text><polygon fill="#FFFF44" points="20,348.9922,24,352.9922,20,356.9922,16,352.9922" style="stroke:#B38D22;stroke-width:1.0;"/><text fill="#000000" font-family="sans-serif" font-size="14" font-style="italic" lengthAdjust="spacing" textLength="155" x="29" y="357.3389">unsetCallbacks() : void</text><polygon fill="#FFFF44" points="20,365.2891,24,369.2891,20,373.2891,16,369.2891" style="stroke:#B38D22;stroke-width:1.0;"/><text fill="#000000" font-family="sans-serif" font-size="14" lengthAdjust="spacing" textLength="199" x="29" y="373.6357">unsetGlobalCallbacks() : void</text><polygon fill="#FFFF44" points="20,381.5859,24,385.5859,20,389.5859,16,385.5859" style="stroke:#B38D22;stroke-width:1.0;"/><text fill="#000000" font-family="sans-serif" font-size="14" font-style="italic" lengthAdjust="spacing" textLength="187" x="29" y="389.9326">unsetHtmlElements() : void</text><rect fill="#F24D5C" height="6" style="stroke:#C82930;stroke-width:1.0;" width="6" x="17" y="399.8828"/><text fill="#000000" font-family="sans-serif" font-size="14" lengthAdjust="spacing" textLength="239" x="29" y="406.2295">_setCommonHtmlElements() : void</text><rect fill="#F24D5C" height="6" style="stroke:#C82930;stroke-width:1.0;" width="6" x="17" y="416.1797"/><text fill="#000000" font-family="sans-serif" font-size="14" lengthAdjust="spacing" textLength="257" x="29" y="422.5264">_unsetCommonHtmlElements() : void</text></g><!--class INotification--><g id="elem_INotification"><rect codeLine="83" fill="#FFFFFF" height="227.2656" id="INotification" rx="2.5" ry="2.5" style="stroke:#272B30;stroke-width:0.5;" width="510" x="639.5" y="105"/><ellipse cx="849.75" cy="121" fill="#B4A7E5" rx="11" ry="11" style="stroke:#181818;stroke-width:1.0;"/><path d="M845.6719,116.7656 L845.6719,114.6094 L853.0625,114.6094 L853.0625,116.7656 L850.5938,116.7656 L850.5938,124.8438 L853.0625,124.8438 L853.0625,127 L845.6719,127 L845.6719,124.8438 L848.1406,124.8438 L848.1406,116.7656 L845.6719,116.7656 Z " fill="#000000"/><text fill="#000000" font-family="sans-serif" font-size="14" font-style="italic" lengthAdjust="spacing" textLength="81" x="870.25" y="125.8467">INotification</text><line style="stroke:#272B30;stroke-width:0.5;" x1="640.5" x2="1148.5" y1="137" y2="137"/><ellipse cx="650.5" cy="150.6484" fill="none" rx="3" ry="3" style="stroke:#038048;stroke-width:1.0;"/><text fill="#000000" font-family="sans-serif" font-size="14" lengthAdjust="spacing" textLength="110" x="659.5" y="153.9951">isBuilt : boolean</text><ellipse cx="650.5" cy="166.9453" fill="none" rx="3" ry="3" style="stroke:#038048;stroke-width:1.0;"/><text fill="#000000" font-family="sans-serif" font-size="14" lengthAdjust="spacing" textLength="189" x="659.5" y="170.292">selfElement : HTMLElement</text><ellipse cx="650.5" cy="183.2422" fill="none" rx="3" ry="3" style="stroke:#038048;stroke-width:1.0;"/><text fill="#000000" font-family="sans-serif" font-size="14" lengthAdjust="spacing" textLength="112" x="659.5" y="186.5889">uniqueId : string</text><ellipse cx="650.5" cy="199.5391" fill="none" rx="3" ry="3" style="stroke:#038048;stroke-width:1.0;"/><text fill="#000000" font-family="sans-serif" font-size="14" lengthAdjust="spacing" textLength="110" x="659.5" y="202.8857">widgetId : string</text><line style="stroke:#272B30;stroke-width:0.5;" x1="640.5" x2="1148.5" y1="210.1875" y2="210.1875"/><ellipse cx="650.5" cy="223.8359" fill="#84BE84" rx="3" ry="3" style="stroke:#038048;stroke-width:1.0;"/><text fill="#000000" font-family="sans-serif" font-size="14" lengthAdjust="spacing" textLength="84" x="659.5" y="227.1826">build() : void</text><ellipse cx="650.5" cy="240.1328" fill="#84BE84" rx="3" ry="3" style="stroke:#038048;stroke-width:1.0;"/><text fill="#000000" font-family="sans-serif" font-size="14" lengthAdjust="spacing" textLength="484" x="659.5" y="243.4795">changeProperty(propertyName: string, propertyValue: unknown) : void</text><ellipse cx="650.5" cy="256.4297" fill="#84BE84" rx="3" ry="3" style="stroke:#038048;stroke-width:1.0;"/><text fill="#000000" font-family="sans-serif" font-size="14" lengthAdjust="spacing" textLength="106" x="659.5" y="259.7764">dispose() : void</text><ellipse cx="650.5" cy="272.7266" fill="#84BE84" rx="3" ry="3" style="stroke:#038048;stroke-width:1.0;"/><text fill="#000000" font-family="sans-serif" font-size="14" lengthAdjust="spacing" textLength="217" x="659.5" y="276.0732">equalsToID(id: string) : boolean</text><ellipse cx="650.5" cy="289.0234" fill="#84BE84" rx="3" ry="3" style="stroke:#038048;stroke-width:1.0;"/><text fill="#000000" font-family="sans-serif" font-size="14" lengthAdjust="spacing" textLength="81" x="659.5" y="292.3701">hide() : void</text><ellipse cx="650.5" cy="305.3203" fill="#84BE84" rx="3" ry="3" style="stroke:#038048;stroke-width:1.0;"/><text fill="#000000" font-family="sans-serif" font-size="14" lengthAdjust="spacing" textLength="434" x="659.5" y="308.667">registerCallback(eventName: string, callback: OSGeneric) : void</text><ellipse cx="650.5" cy="321.6172" fill="#84BE84" rx="3" ry="3" style="stroke:#038048;stroke-width:1.0;"/><text fill="#000000" font-family="sans-serif" font-size="14" lengthAdjust="spacing" textLength="88" x="659.5" y="324.9639">show() : void</text></g><!--class ISwipeEvent--><g id="elem_ISwipeEvent"><rect codeLine="97" fill="#FFFFFF" height="113.1875" id="ISwipeEvent" rx="2.5" ry="2.5" style="stroke:#272B30;stroke-width:0.5;" width="1050" x="1184.5" y="162"/><ellipse cx="1662.75" cy="178" fill="#B4A7E5" rx="11" ry="11" style="stroke:#181818;stroke-width:1.0;"/><path d="M1658.6719,173.7656 L1658.6719,171.6094 L1666.0625,171.6094 L1666.0625,173.7656 L1663.5938,173.7656 L1663.5938,181.8438 L1666.0625,181.8438 L1666.0625,184 L1658.6719,184 L1658.6719,181.8438 L1661.1406,181.8438 L1661.1406,173.7656 L1658.6719,173.7656 Z " fill="#000000"/><text fill="#000000" font-family="sans-serif" font-size="14" font-style="italic" lengthAdjust="spacing" textLength="85" x="1683.25" y="182.8467">ISwipeEvent</text><line style="stroke:#272B30;stroke-width:0.5;" x1="1185.5" x2="2233.5" y1="194" y2="194"/><ellipse cx="1195.5" cy="207.6484" fill="none" rx="3" ry="3" style="stroke:#038048;stroke-width:1.0;"/><text fill="#000000" font-family="sans-serif" font-size="14" lengthAdjust="spacing" textLength="245" x="1204.5" y="210.9951">gestureEventInstance : SwipeEvent</text><ellipse cx="1195.5" cy="223.9453" fill="none" rx="3" ry="3" style="stroke:#038048;stroke-width:1.0;"/><text fill="#000000" font-family="sans-serif" font-size="14" lengthAdjust="spacing" textLength="197" x="1204.5" y="227.292">hasGestureEvents : boolean</text><line style="stroke:#272B30;stroke-width:0.5;" x1="1185.5" x2="2233.5" y1="234.5938" y2="234.5938"/><ellipse cx="1195.5" cy="248.2422" fill="#84BE84" rx="3" ry="3" style="stroke:#038048;stroke-width:1.0;"/><text fill="#000000" font-family="sans-serif" font-size="14" lengthAdjust="spacing" textLength="206" x="1204.5" y="251.5889">removeGestureEvents() : void</text><ellipse cx="1195.5" cy="264.5391" fill="#84BE84" rx="3" ry="3" style="stroke:#038048;stroke-width:1.0;"/><text fill="#000000" font-family="sans-serif" font-size="14" lengthAdjust="spacing" textLength="1024" x="1204.5" y="267.8857">setGestureEvents(swipeDownCallback: SwipeDown, swipeLeftCallback: SwipeLeft, swipeRightCallback: SwipeRight, swipeUpCallback: SwipeUp) : any</text></g><!--reverse link AbstractPattern<NotificationConfig> to Notification--><g id="link_AbstractPattern&lt;NotificationConfig&gt;_Notification"><path codeLine="82" d="M499.4465,444.1161 C515.9765,463.3661 521.35,469.61 538.74,489.86 " fill="none" id="AbstractPattern&lt;NotificationConfig&gt;-backto-Notification" style="stroke:#272B30;stroke-width:1.0;"/><polygon fill="none" points="487.72,430.46,494.8945,448.0249,503.9985,440.2073,487.72,430.46" style="stroke:#272B30;stroke-width:1.0;"/></g><!--reverse link INotification to Notification--><g id="link_INotification_Notification"><path codeLine="96" d="M894.5,350.15 C894.5,395.21 894.5,432.14 894.5,489.92 " fill="none" id="INotification-backto-Notification" style="stroke:#272B30;stroke-width:1.0;stroke-dasharray:7.0,7.0;"/><polygon fill="none" points="894.5,332.15,888.5,350.15,900.5,350.15,894.5,332.15" style="stroke:#272B30;stroke-width:1.0;"/></g><!--reverse link ISwipeEvent to Notification--><g id="link_ISwipeEvent_Notification"><path codeLine="103" d="M1629.3651,286.8049 C1569.4851,337.0849 1489.23,404.5 1387.75,489.73 " fill="none" id="ISwipeEvent-backto-Notification" style="stroke:#272B30;stroke-width:1.0;stroke-dasharray:7.0,7.0;"/><polygon fill="none" points="1643.15,275.23,1625.5068,282.2099,1633.2234,291.3998,1643.15,275.23" style="stroke:#272B30;stroke-width:1.0;"/></g><!--SRC=[pLVVRziu37xFNs6qBndI3hSVm82Y6D1aNHVSkXPhkiFXS1WKYxQ5o98doGcohV_xA5jEPTbnUxW-B0-1JNuIALByIEiL4mLH98zcd6XzffJSp2INAZfy-URbyjKV8zr6JAMYe8OX95wbIfQ2EbYI91wceuw1lgPab34A4UI5sKOvc4nIxOiI1XmbiJKG7NoIXYKi9eP9SH3z64NuEsJwMiarBb5Jee569z5IIWv4LEhZhx06OQx4ZBDuXSeB4A1Ot5R-2Tj20PherI-s1Q166yL4wXI9Z4jzIGH9GSs5DaJ45lFU4_l8XI952BCoXqb1crB1kRNcmMushAY53fSHVU51TUUmJ5yL83fYJ072Ru0dgFgmkFnupY6_txRWn2HIvUTrD1OoJRcrVtNJlDmxCLcMZDFnCrIl9QErBCw8I07pK80ost7X7ZwH79gu7KMDz0lX9Og9sBOteKmNKaEmDNmh2TSBENytBeWneCISDdi-2muwiJSdM2z55SMfD4Rc_RgFa9X-pMUMPdjKjqKWLv0oZVxD2ETBlEpZwkwqGn0xdGsjksZX9hbSGol7WHcToKrRT9WmmNGsxURbK8CvU_7YRvSO1hghRzpjKRNTSET-9pTYjZl6JdGKUS4Cz5QqqrSX3G2LR8UuBGBrRT5nxOF9kRl3FOxF1JECy1j3JEV8c8aKY_FQl_AxbDb2U8_IMJTFHn5HgJw9Ih4IUDv__XtSrdd0lWDjMsYlAiL01Yhb1PTBmWSX-sDn_9MKHiuuLfLFdI4ejjHuVsrFeajPwZhj0HBBd7Aes6iA6LapgSQza84RZ12iqY5_LewDVPUGePUIADhdLLqq_RPikGpPSdbhyTouPj4TjmHBoeBYlSAwskwhgmPJHVuiGL9Oi1p6wvhuH9alGVKkc0l4ajWiwgGrAuRyk9QQLGSht8DFZXtqNuoQRBon_ntStOWiKOJc8zTlpzpxTKsyftuWPr8aB7txw3OSLtZRiRgxx9gNvJ3JxLv-hNgL5NdbsQGRMvojXTusLmhshOGv3NivXYD5qWZaJzRe76CyURDxYeQpltVyQ2x3tODj983k8Qi0DS3WlnD5-rx_JxRkR3L4tDQIp7CfXa2rGmEmkz7ZQlZqv_5nC5wFcEMYXE0WUZ3l6xmd_UKwQKeGFUcfmab_4Kv-onfa_sdIV981i3tUOVw2s9_-VFvyA5FtdmoxF3tkusBomBV5OqRJS6JKWmEZ7XmNzGF3eXuO5V7JeWgT7uoUmFq2]--></g></svg>