<?xml version="1.0" encoding="us-ascii" standalone="no"?><svg xmlns="http://www.w3.org/2000/svg" xmlns:xlink="http://www.w3.org/1999/xlink" contentStyleType="text/css" height="565px" preserveAspectRatio="none" style="width:631px;height:565px;background:#CED4DA;" version="1.1" viewBox="0 0 631 565" width="631px" zoomAndPan="magnify"><defs/><g><rect fill="#CED4DA" height="565" style="stroke:none;stroke-width:1.0;" width="631" x="0" y="0"/><!--class NotificationConfig--><g id="elem_NotificationConfig"><rect codeLine="7" fill="#FFFFFF" height="295.3242" id="NotificationConfig" rx="2.5" ry="2.5" style="stroke:#272B30;stroke-width:0.5;" width="615" x="9" y="263"/><ellipse cx="249.75" cy="279" fill="#ADD1B2" rx="11" ry="11" style="stroke:#181818;stroke-width:1.0;"/><path d="M252.2231,285.1431 Q251.6421,285.4419 251.0029,285.5913 Q250.3638,285.7407 249.6582,285.7407 Q247.1514,285.7407 245.8315,284.0889 Q244.5117,282.437 244.5117,279.3159 Q244.5117,276.1865 245.8315,274.5347 Q247.1514,272.8828 249.6582,272.8828 Q250.3638,272.8828 251.0112,273.0322 Q251.6587,273.1816 252.2231,273.4805 L252.2231,276.2031 Q251.5923,275.6221 250.9988,275.3523 Q250.4053,275.0825 249.7744,275.0825 Q248.4297,275.0825 247.7449,276.1492 Q247.0601,277.2158 247.0601,279.3159 Q247.0601,281.4077 247.7449,282.4744 Q248.4297,283.541 249.7744,283.541 Q250.4053,283.541 250.9988,283.2712 Q251.5923,283.0015 252.2231,282.4204 Z " fill="#000000"/><text fill="#000000" font-family="sans-serif" font-size="14" lengthAdjust="spacing" textLength="125" x="270.25" y="284.291">NotificationConfig</text><line style="stroke:#272B30;stroke-width:0.5;" x1="10" x2="623" y1="295" y2="295"/><ellipse cx="20" cy="308.7441" fill="none" rx="3" ry="3" style="stroke:#038048;stroke-width:1.0;"/><text fill="#000000" font-family="sans-serif" font-size="14" lengthAdjust="spacing" textLength="172" x="29" y="312.5352">CloseAfterTime : number</text><ellipse cx="20" cy="325.2324" fill="none" rx="3" ry="3" style="stroke:#038048;stroke-width:1.0;"/><text fill="#000000" font-family="sans-serif" font-size="14" lengthAdjust="spacing" textLength="153" x="29" y="329.0234">ExtendedClass : string</text><ellipse cx="20" cy="341.7207" fill="none" rx="3" ry="3" style="stroke:#038048;stroke-width:1.0;"/><text fill="#000000" font-family="sans-serif" font-size="14" lengthAdjust="spacing" textLength="176" x="29" y="345.5117">InteractToClose : boolean</text><ellipse cx="20" cy="358.209" fill="none" rx="3" ry="3" style="stroke:#038048;stroke-width:1.0;"/><text fill="#000000" font-family="sans-serif" font-size="14" lengthAdjust="spacing" textLength="157" x="29" y="362">NeedsSwipes : boolean</text><ellipse cx="20" cy="374.6973" fill="none" rx="3" ry="3" style="stroke:#038048;stroke-width:1.0;"/><text fill="#000000" font-family="sans-serif" font-size="14" lengthAdjust="spacing" textLength="107" x="29" y="378.4883">Position : string</text><ellipse cx="20" cy="391.1855" fill="none" rx="3" ry="3" style="stroke:#038048;stroke-width:1.0;"/><text fill="#000000" font-family="sans-serif" font-size="14" lengthAdjust="spacing" textLength="144" x="29" y="394.9766">StartsOpen : boolean</text><ellipse cx="20" cy="407.6738" fill="none" rx="3" ry="3" style="stroke:#038048;stroke-width:1.0;"/><text fill="#000000" font-family="sans-serif" font-size="14" lengthAdjust="spacing" textLength="91" x="29" y="411.4648">Width : string</text><line style="stroke:#272B30;stroke-width:0.5;" x1="10" x2="623" y1="418.418" y2="418.418"/><ellipse cx="20" cy="432.1621" fill="#84BE84" rx="3" ry="3" style="stroke:#038048;stroke-width:1.0;"/><text fill="#000000" font-family="sans-serif" font-size="14" lengthAdjust="spacing" textLength="395" x="29" y="435.9531">validateCanChange(isBuilt: boolean, key: string) : boolean</text><ellipse cx="20" cy="448.6504" fill="#84BE84" rx="3" ry="3" style="stroke:#038048;stroke-width:1.0;"/><text fill="#000000" font-family="sans-serif" font-size="14" lengthAdjust="spacing" textLength="375" x="29" y="452.4414">validateDefault(key: string, value: unknown) : unknown</text><polygon fill="#FFFF44" points="20,460.1387,24,464.1387,20,468.1387,16,464.1387" style="stroke:#B38D22;stroke-width:1.0;"/><text fill="#000000" font-family="sans-serif" font-size="14" lengthAdjust="spacing" textLength="444" x="29" y="468.9297">validateBoolean(value: boolean, defaultValue: boolean) : boolean</text><polygon fill="#FFFF44" points="20,476.627,24,480.627,20,484.627,16,480.627" style="stroke:#B38D22;stroke-width:1.0;"/><text fill="#000000" font-family="sans-serif" font-size="14" lengthAdjust="spacing" textLength="460" x="29" y="485.418">validateDate(value: string | Date, defaultValue: string) : string | Date</text><polygon fill="#FFFF44" points="20,493.1152,24,497.1152,20,501.1152,16,497.1152" style="stroke:#B38D22;stroke-width:1.0;"/><text fill="#000000" font-family="sans-serif" font-size="14" lengthAdjust="spacing" textLength="589" x="29" y="501.9063">validateInRange(value: unknown, defaultValue: unknown, args: unknown[]) : unknown</text><polygon fill="#FFFF44" points="20,509.6035,24,513.6035,20,517.6035,16,513.6035" style="stroke:#B38D22;stroke-width:1.0;"/><text fill="#000000" font-family="sans-serif" font-size="14" lengthAdjust="spacing" textLength="438" x="29" y="518.3945">validateNumber(value: number, defaultValue: number) : number</text><polygon fill="#FFFF44" points="20,526.0918,24,530.0918,20,534.0918,16,530.0918" style="stroke:#B38D22;stroke-width:1.0;"/><text fill="#000000" font-family="sans-serif" font-size="14" lengthAdjust="spacing" textLength="382" x="29" y="534.8828">validateString(value: string, defaultValue: string) : string</text><polygon fill="#FFFF44" points="20,542.5801,24,546.5801,20,550.5801,16,546.5801" style="stroke:#B38D22;stroke-width:1.0;"/><text fill="#000000" font-family="sans-serif" font-size="14" lengthAdjust="spacing" textLength="375" x="29" y="551.3711">validateTime(value: string, defaultValue: string) : string</text></g><!--class AbstractConfiguration--><g id="elem_AbstractConfiguration"><rect codeLine="24" fill="#FFFFFF" height="196.3945" id="AbstractConfiguration" rx="2.5" ry="2.5" style="stroke:#272B30;stroke-width:0.5;" width="615" x="9" y="7"/><ellipse cx="235.75" cy="23" fill="#A9DCDF" rx="11" ry="11" style="stroke:#181818;stroke-width:1.0;"/><path d="M235.6133,18.3481 L234.4595,23.4199 L236.7754,23.4199 Z M234.1191,16.1069 L237.1157,16.1069 L240.4609,28.5 L238.0122,28.5 L237.2485,25.437 L233.9697,25.437 L233.2227,28.5 L230.7739,28.5 Z " fill="#000000"/><text fill="#000000" font-family="sans-serif" font-size="14" font-style="italic" lengthAdjust="spacing" textLength="153" x="256.25" y="28.291">AbstractConfiguration</text><line style="stroke:#272B30;stroke-width:0.5;" x1="10" x2="623" y1="39" y2="39"/><ellipse cx="20" cy="52.7441" fill="none" rx="3" ry="3" style="stroke:#038048;stroke-width:1.0;"/><text fill="#000000" font-family="sans-serif" font-size="14" lengthAdjust="spacing" textLength="153" x="29" y="56.5352">ExtendedClass : string</text><line style="stroke:#272B30;stroke-width:0.5;" x1="10" x2="623" y1="63.4883" y2="63.4883"/><ellipse cx="20" cy="77.2324" fill="#84BE84" rx="3" ry="3" style="stroke:#038048;stroke-width:1.0;"/><text fill="#000000" font-family="sans-serif" font-size="14" lengthAdjust="spacing" textLength="409" x="29" y="81.0234">validateCanChange(_isBuilt: boolean, _key: string) : boolean</text><ellipse cx="20" cy="93.7207" fill="#84BE84" rx="3" ry="3" style="stroke:#038048;stroke-width:1.0;"/><text fill="#000000" font-family="sans-serif" font-size="14" lengthAdjust="spacing" textLength="382" x="29" y="97.5117">validateDefault(_key: string, value: unknown) : unknown</text><polygon fill="#FFFF44" points="20,105.209,24,109.209,20,113.209,16,109.209" style="stroke:#B38D22;stroke-width:1.0;"/><text fill="#000000" font-family="sans-serif" font-size="14" lengthAdjust="spacing" textLength="444" x="29" y="114">validateBoolean(value: boolean, defaultValue: boolean) : boolean</text><polygon fill="#FFFF44" points="20,121.6973,24,125.6973,20,129.6973,16,125.6973" style="stroke:#B38D22;stroke-width:1.0;"/><text fill="#000000" font-family="sans-serif" font-size="14" lengthAdjust="spacing" textLength="460" x="29" y="130.4883">validateDate(value: string | Date, defaultValue: string) : string | Date</text><polygon fill="#FFFF44" points="20,138.1855,24,142.1855,20,146.1855,16,142.1855" style="stroke:#B38D22;stroke-width:1.0;"/><text fill="#000000" font-family="sans-serif" font-size="14" lengthAdjust="spacing" textLength="589" x="29" y="146.9766">validateInRange(value: unknown, defaultValue: unknown, args: unknown[]) : unknown</text><polygon fill="#FFFF44" points="20,154.6738,24,158.6738,20,162.6738,16,158.6738" style="stroke:#B38D22;stroke-width:1.0;"/><text fill="#000000" font-family="sans-serif" font-size="14" lengthAdjust="spacing" textLength="438" x="29" y="163.4648">validateNumber(value: number, defaultValue: number) : number</text><polygon fill="#FFFF44" points="20,171.1621,24,175.1621,20,179.1621,16,175.1621" style="stroke:#B38D22;stroke-width:1.0;"/><text fill="#000000" font-family="sans-serif" font-size="14" lengthAdjust="spacing" textLength="382" x="29" y="179.9531">validateString(value: string, defaultValue: string) : string</text><polygon fill="#FFFF44" points="20,187.6504,24,191.6504,20,195.6504,16,191.6504" style="stroke:#B38D22;stroke-width:1.0;"/><text fill="#000000" font-family="sans-serif" font-size="14" lengthAdjust="spacing" textLength="375" x="29" y="196.4414">validateTime(value: string, defaultValue: string) : string</text></g><!--reverse link AbstractConfiguration to NotificationConfig--><g id="link_AbstractConfiguration_NotificationConfig"><path codeLine="35" d="M316.5,223.73 C316.5,236.52 316.5,249.66 316.5,262.74 " fill="none" id="AbstractConfiguration-backto-NotificationConfig" style="stroke:#272B30;stroke-width:1.0;"/><polygon fill="none" points="309.5,223.28,316.5,203.28,323.5,223.28,309.5,223.28" style="stroke:#272B30;stroke-width:1.0;"/></g><!--SRC=[xLJFQy8m5BxthmXwKQOmt60WksZTmOiRKxR3698shsrecvGadPEv_trfqtOsJeVNiK8XUT-Fl5U-LCQKPLZW5Ba9bd8Y1D-uFE42TKSt8-_gqf5jnfGB0k8q1VjnA7ZEI4KBWc2FSm3xGAu9TY9A046QgIrAGKMSoFrIG27H5Ryu07KMND60-bXHpbpE0Xfsq8U3z7FX9bp2950WLZG5D4OiJpqG1hnxLy08aB9FZKabA0iDDcTQWtsrugM5HZtE4y3Cm0i08fSRce6qeGSkQT69PRXKM2Xvdm6p1S-KgCXYl-644gp0nSoDC0kXH-Kqfubgj0CKmxOMzMtFMZ-30EU9wkrn1qY3EOnHpcB6DwpGLijIswsrKsFOg-ZDkSHuFhNATWUDoqo_jOLf0ErGKRIDlYTfqTfkS_POVets2BPLKyOYbCtsvVNeg8io5RMhoOXjQghzTeOQXsNPStlGtoPiEnG1FLF_wM1FBtLCKNKL9jNUN8DSb7UYkGsd0d-OkFLXvDRdP6xz7xg_6RfZARlT3OS__es_0000]--></g></svg>