<?xml version="1.0" encoding="UTF-8" standalone="no"?><svg xmlns="http://www.w3.org/2000/svg" xmlns:xlink="http://www.w3.org/1999/xlink" contentScriptType="application/ecmascript" contentStyleType="text/css" height="979px" preserveAspectRatio="none" style="width:1702px;height:979px;background:#CED4DA;" version="1.1" viewBox="0 0 1702 979" width="1702px" zoomAndPan="magnify"><defs><filter height="300%" id="f1xrynadd6iy9y" width="300%" x="-1" y="-1"><feGaussianBlur result="blurOut" stdDeviation="2.0"/><feColorMatrix in="blurOut" result="blurOut2" type="matrix" values="0 0 0 0 0 0 0 0 0 0 0 0 0 0 0 0 0 0 .4 0"/><feOffset dx="4.0" dy="4.0" in="blurOut2" result="blurOut3"/><feBlend in="SourceGraphic" in2="blurOut3" mode="normal"/></filter></defs><g><!--MD5=[76b5e19c9337179d2d7ae334371d68c8]
class Notification--><rect codeLine="7" fill="#FFFFFF" filter="url(#f1xrynadd6iy9y)" height="630.9785" id="Notification" style="stroke:#272B30;stroke-width:1.5;" width="863" x="217" y="335"/><ellipse cx="612.25" cy="351" fill="#ADD1B2" rx="11" ry="11" style="stroke:#272B30;stroke-width:1.0;"/><path d="M614.7231,357.1431 Q614.1421,357.4419 613.5029,357.5913 Q612.8638,357.7407 612.1582,357.7407 Q609.6514,357.7407 608.3315,356.0889 Q607.0117,354.437 607.0117,351.3159 Q607.0117,348.1865 608.3315,346.5347 Q609.6514,344.8828 612.1582,344.8828 Q612.8638,344.8828 613.5112,345.0322 Q614.1587,345.1816 614.7231,345.4805 L614.7231,348.2031 Q614.0923,347.6221 613.4988,347.3523 Q612.9053,347.0825 612.2744,347.0825 Q610.9297,347.0825 610.2449,348.1492 Q609.5601,349.2158 609.5601,351.3159 Q609.5601,353.4077 610.2449,354.4744 Q610.9297,355.541 612.2744,355.541 Q612.9053,355.541 613.4988,355.2712 Q614.0923,355.0015 614.7231,354.4204 Z " fill="#000000"/><text fill="#000000" font-family="sans-serif" font-size="12" lengthAdjust="spacing" textLength="64" x="632.75" y="355.5352">Notification</text><line style="stroke:#272B30;stroke-width:1.5;" x1="218" x2="1079" y1="367" y2="367"/><rect fill="none" height="6" style="stroke:#C82930;stroke-width:1.0;" width="6" x="225" y="375"/><text fill="#000000" font-family="sans-serif" font-size="11" lengthAdjust="spacing" textLength="127" x="237" y="381.6348">_eventOnClick : Generic</text><rect fill="none" height="6" style="stroke:#C82930;stroke-width:1.0;" width="6" x="225" y="387.9551"/><text fill="#000000" font-family="sans-serif" font-size="11" lengthAdjust="spacing" textLength="150" x="237" y="394.5898">_eventOnKeypress : Generic</text><rect fill="none" height="6" style="stroke:#C82930;stroke-width:1.0;" width="6" x="225" y="400.9102"/><text fill="#000000" font-family="sans-serif" font-size="11" lengthAdjust="spacing" textLength="102" x="237" y="407.5449">_eventType : string</text><rect fill="none" height="6" style="stroke:#C82930;stroke-width:1.0;" width="6" x="225" y="413.8652"/><text fill="#000000" font-family="sans-serif" font-size="11" lengthAdjust="spacing" textLength="214" x="237" y="420.5">_focusableActiveElement : HTMLElement</text><rect fill="none" height="6" style="stroke:#C82930;stroke-width:1.0;" width="6" x="225" y="426.8203"/><text fill="#000000" font-family="sans-serif" font-size="11" lengthAdjust="spacing" textLength="172" x="237" y="433.4551">_focusTrapInstance : FocusTrap</text><rect fill="none" height="6" style="stroke:#C82930;stroke-width:1.0;" width="6" x="225" y="439.7754"/><text fill="#000000" font-family="sans-serif" font-size="11" lengthAdjust="spacing" textLength="189" x="237" y="446.4102">_gestureEventInstance : SwipeEvent</text><rect fill="none" height="6" style="stroke:#C82930;stroke-width:1.0;" width="6" x="225" y="452.7305"/><text fill="#000000" font-family="sans-serif" font-size="11" lengthAdjust="spacing" textLength="154" x="237" y="459.3652">_hasGestureEvents : boolean</text><rect fill="none" height="6" style="stroke:#C82930;stroke-width:1.0;" width="6" x="225" y="465.6855"/><text fill="#000000" font-family="sans-serif" font-size="11" lengthAdjust="spacing" textLength="96" x="237" y="472.3203">_isOpen : boolean</text><rect fill="none" height="6" style="stroke:#C82930;stroke-width:1.0;" width="6" x="225" y="478.6406"/><text fill="#000000" font-family="sans-serif" font-size="11" lengthAdjust="spacing" textLength="141" x="237" y="485.2754">_parentSelf : HTMLElement</text><rect fill="none" height="6" style="stroke:#C82930;stroke-width:1.0;" width="6" x="225" y="491.5957"/><text fill="#000000" font-family="sans-serif" font-size="11" lengthAdjust="spacing" textLength="245" x="237" y="498.2305">_platformEventOnInitialize : OSInitializedEvent</text><rect fill="none" height="6" style="stroke:#C82930;stroke-width:1.0;" width="6" x="225" y="504.5508"/><text fill="#000000" font-family="sans-serif" font-size="11" lengthAdjust="spacing" textLength="240" x="237" y="511.1855">_platformEventOnToggle : OSOnToggleEvent</text><line style="stroke:#272B30;stroke-width:1.5;" x1="218" x2="1079" y1="517.5059" y2="517.5059"/><ellipse cx="228" cy="528.5059" fill="#84BE84" rx="3" ry="3" style="stroke:#038048;stroke-width:1.0;"/><text fill="#000000" font-family="sans-serif" font-size="11" lengthAdjust="spacing" textLength="67" x="237" y="532.1406">build() : void</text><ellipse cx="228" cy="541.4609" fill="#84BE84" rx="3" ry="3" style="stroke:#038048;stroke-width:1.0;"/><text fill="#000000" font-family="sans-serif" font-size="11" lengthAdjust="spacing" textLength="347" x="237" y="545.0957">changeProperty(propertyName: string, propertyValue: any) : void</text><ellipse cx="228" cy="554.416" fill="#84BE84" rx="3" ry="3" style="stroke:#038048;stroke-width:1.0;"/><text fill="#000000" font-family="sans-serif" font-size="11" lengthAdjust="spacing" textLength="82" x="237" y="558.0508">dispose() : void</text><ellipse cx="228" cy="567.3711" fill="#84BE84" rx="3" ry="3" style="stroke:#038048;stroke-width:1.0;"/><text fill="#000000" font-family="sans-serif" font-size="11" lengthAdjust="spacing" textLength="207" x="237" y="571.0059">equalsToID(patternId: string) : boolean</text><ellipse cx="228" cy="580.3262" fill="#84BE84" rx="3" ry="3" style="stroke:#038048;stroke-width:1.0;"/><text fill="#000000" font-family="sans-serif" font-size="11" lengthAdjust="spacing" textLength="63" x="237" y="583.9609">hide() : void</text><ellipse cx="228" cy="593.2813" fill="#84BE84" rx="3" ry="3" style="stroke:#038048;stroke-width:1.0;"/><text fill="#000000" font-family="sans-serif" font-size="11" lengthAdjust="spacing" textLength="122" x="237" y="596.916">onSwipeBottom() : void</text><ellipse cx="228" cy="606.2363" fill="#84BE84" rx="3" ry="3" style="stroke:#038048;stroke-width:1.0;"/><text fill="#000000" font-family="sans-serif" font-size="11" lengthAdjust="spacing" textLength="104" x="237" y="609.8711">onSwipeLeft() : void</text><ellipse cx="228" cy="619.1914" fill="#84BE84" rx="3" ry="3" style="stroke:#038048;stroke-width:1.0;"/><text fill="#000000" font-family="sans-serif" font-size="11" lengthAdjust="spacing" textLength="112" x="237" y="622.8262">onSwipeRight() : void</text><ellipse cx="228" cy="632.1465" fill="#84BE84" rx="3" ry="3" style="stroke:#038048;stroke-width:1.0;"/><text fill="#000000" font-family="sans-serif" font-size="11" lengthAdjust="spacing" textLength="99" x="237" y="635.7813">onSwipeUp() : void</text><ellipse cx="228" cy="645.1016" fill="#84BE84" rx="3" ry="3" style="stroke:#038048;stroke-width:1.0;"/><text fill="#000000" font-family="sans-serif" font-size="11" lengthAdjust="spacing" textLength="335" x="237" y="648.7363">registerCallback(eventName: string, callback: OSGeneric) : void</text><ellipse cx="228" cy="658.0566" fill="#84BE84" rx="3" ry="3" style="stroke:#038048;stroke-width:1.0;"/><text fill="#000000" font-family="sans-serif" font-size="11" lengthAdjust="spacing" textLength="157" x="237" y="661.6914">removeGestureEvents() : void</text><ellipse cx="228" cy="671.0117" fill="#84BE84" rx="3" ry="3" style="stroke:#038048;stroke-width:1.0;"/><text fill="#000000" font-family="sans-serif" font-size="11" lengthAdjust="spacing" textLength="68" x="237" y="674.6465">show() : void</text><polygon fill="#FFFF44" points="228,678.9668,232,682.9668,228,686.9668,224,682.9668" style="stroke:#B38D22;stroke-width:1.0;"/><text fill="#000000" font-family="sans-serif" font-size="11" lengthAdjust="spacing" textLength="96" x="237" y="687.6016">finishBuild() : void</text><polygon fill="#FFFF44" points="228,691.9219,232,695.9219,228,699.9219,224,695.9219" style="stroke:#B38D22;stroke-width:1.0;"/><text fill="#000000" font-family="sans-serif" font-size="11" lengthAdjust="spacing" textLength="140" x="237" y="700.5566">setA11YProperties() : void</text><polygon fill="#FFFF44" points="228,704.877,232,708.877,228,712.877,224,708.877" style="stroke:#B38D22;stroke-width:1.0;"/><text fill="#000000" font-family="sans-serif" font-size="11" lengthAdjust="spacing" textLength="107" x="237" y="713.5117">setCallbacks() : void</text><polygon fill="#FFFF44" points="228,717.832,232,721.832,228,725.832,224,721.832" style="stroke:#B38D22;stroke-width:1.0;"/><text fill="#000000" font-family="sans-serif" font-size="11" lengthAdjust="spacing" textLength="837" x="237" y="726.4668">setGestureEvents(onSwipeDownCallback: SwipeDown, onSwipeLeftCallback: SwipeLeft, onSwipeRightCallback: SwipeRight, onSwipeUpCallback: SwipeUp) : void</text><polygon fill="#FFFF44" points="228,730.7871,232,734.7871,228,738.7871,224,734.7871" style="stroke:#B38D22;stroke-width:1.0;"/><text fill="#000000" font-family="sans-serif" font-size="11" lengthAdjust="spacing" textLength="129" x="237" y="739.4219">setHtmlElements() : void</text><polygon fill="#FFFF44" points="228,743.7422,232,747.7422,228,751.7422,224,747.7422" style="stroke:#B38D22;stroke-width:1.0;"/><text fill="#000000" font-family="sans-serif" font-size="11" lengthAdjust="spacing" textLength="117" x="237" y="752.377">setInitialStates() : void</text><polygon fill="#FFFF44" points="228,756.6973,232,760.6973,228,764.6973,224,760.6973" style="stroke:#B38D22;stroke-width:1.0;"/><text fill="#000000" font-family="sans-serif" font-size="11" lengthAdjust="spacing" textLength="121" x="237" y="765.332">unsetCallbacks() : void</text><polygon fill="#FFFF44" points="228,769.6523,232,773.6523,228,777.6523,224,773.6523" style="stroke:#B38D22;stroke-width:1.0;"/><text fill="#000000" font-family="sans-serif" font-size="11" lengthAdjust="spacing" textLength="143" x="237" y="778.2871">unsetHtmlElements() : void</text><rect fill="#F24D5C" height="6" style="stroke:#C82930;stroke-width:1.0;" width="6" x="225" y="784.6074"/><text fill="#000000" font-family="sans-serif" font-size="11" lengthAdjust="spacing" textLength="162" x="237" y="791.2422">_autoCloseNotification() : void</text><rect fill="#F24D5C" height="6" style="stroke:#C82930;stroke-width:1.0;" width="6" x="225" y="797.5625"/><text fill="#000000" font-family="sans-serif" font-size="11" lengthAdjust="spacing" textLength="191" x="237" y="804.1973">_clickCallback(e: MouseEvent) : void</text><rect fill="#F24D5C" height="6" style="stroke:#C82930;stroke-width:1.0;" width="6" x="225" y="810.5176"/><text fill="#000000" font-family="sans-serif" font-size="11" lengthAdjust="spacing" textLength="139" x="237" y="817.1523">_handleFocusTrap() : void</text><rect fill="#F24D5C" height="6" style="stroke:#C82930;stroke-width:1.0;" width="6" x="225" y="823.4727"/><text fill="#000000" font-family="sans-serif" font-size="11" lengthAdjust="spacing" textLength="159" x="237" y="830.1074">_handleGestureEvents() : void</text><rect fill="#F24D5C" height="6" style="stroke:#C82930;stroke-width:1.0;" width="6" x="225" y="836.4277"/><text fill="#000000" font-family="sans-serif" font-size="11" lengthAdjust="spacing" textLength="131" x="237" y="843.0625">_hideNotification() : void</text><rect fill="#F24D5C" height="6" style="stroke:#C82930;stroke-width:1.0;" width="6" x="225" y="849.3828"/><text fill="#000000" font-family="sans-serif" font-size="11" lengthAdjust="spacing" textLength="231" x="237" y="856.0176">_keypressCallback(e: KeyboardEvent) : void</text><rect fill="#F24D5C" height="6" style="stroke:#C82930;stroke-width:1.0;" width="6" x="225" y="862.3379"/><text fill="#000000" font-family="sans-serif" font-size="11" lengthAdjust="spacing" textLength="121" x="237" y="868.9727">_removeEvents() : void</text><rect fill="#F24D5C" height="6" style="stroke:#C82930;stroke-width:1.0;" width="6" x="225" y="875.293"/><text fill="#000000" font-family="sans-serif" font-size="11" lengthAdjust="spacing" textLength="136" x="237" y="881.9277">_showNotification() : void</text><rect fill="#F24D5C" height="6" style="stroke:#C82930;stroke-width:1.0;" width="6" x="225" y="888.248"/><text fill="#000000" font-family="sans-serif" font-size="11" lengthAdjust="spacing" textLength="252" x="237" y="894.8828">_triggerOnToggleEvent(isOpen: boolean) : void</text><rect fill="#F24D5C" height="6" style="stroke:#C82930;stroke-width:1.0;" width="6" x="225" y="901.2031"/><text fill="#000000" font-family="sans-serif" font-size="11" lengthAdjust="spacing" textLength="166" x="237" y="907.8379">_updateA11yProperties() : void</text><rect fill="#F24D5C" height="6" style="stroke:#C82930;stroke-width:1.0;" width="6" x="225" y="914.1582"/><text fill="#000000" font-family="sans-serif" font-size="11" lengthAdjust="spacing" textLength="242" x="237" y="920.793">_updateCloseAfterTime(value: number) : void</text><rect fill="#F24D5C" height="6" style="stroke:#C82930;stroke-width:1.0;" width="6" x="225" y="927.1133"/><text fill="#000000" font-family="sans-serif" font-size="11" lengthAdjust="spacing" textLength="245" x="237" y="933.748">_updateInteractToClose(value: boolean) : void</text><rect fill="#F24D5C" height="6" style="stroke:#C82930;stroke-width:1.0;" width="6" x="225" y="940.0684"/><text fill="#000000" font-family="sans-serif" font-size="11" lengthAdjust="spacing" textLength="208" x="237" y="946.7031">_updatePosition(position: string) : void</text><rect fill="#F24D5C" height="6" style="stroke:#C82930;stroke-width:1.0;" width="6" x="225" y="953.0234"/><text fill="#000000" font-family="sans-serif" font-size="11" lengthAdjust="spacing" textLength="180" x="237" y="959.6582">_updateWidth(width: string) : void</text><!--MD5=[700d667a4d5d726e7aa40d8959f206d6]
class AbstractPattern<NotificationConfig>--><rect codeLine="54" fill="#FFFFFF" filter="url(#f1xrynadd6iy9y)" height="268.2363" id="AbstractPattern&lt;NotificationConfig&gt;" style="stroke:#272B30;stroke-width:1.5;" width="403" x="9" y="7"/><ellipse cx="101.75" cy="23" fill="#A9DCDF" rx="11" ry="11" style="stroke:#272B30;stroke-width:1.0;"/><path d="M101.6133,18.3481 L100.4595,23.4199 L102.7754,23.4199 Z M100.1191,16.1069 L103.1157,16.1069 L106.4609,28.5 L104.0122,28.5 L103.2485,25.437 L99.9697,25.437 L99.2227,28.5 L96.7739,28.5 Z " fill="#000000"/><text fill="#000000" font-family="sans-serif" font-size="12" font-style="italic" lengthAdjust="spacing" textLength="209" x="122.25" y="27.5352">AbstractPattern&lt;NotificationConfig&gt;</text><line style="stroke:#272B30;stroke-width:1.5;" x1="10" x2="411" y1="39" y2="39"/><rect fill="none" height="6" style="stroke:#C82930;stroke-width:1.0;" width="6" x="17" y="47"/><text fill="#000000" font-family="sans-serif" font-size="11" lengthAdjust="spacing" textLength="153" x="29" y="53.6348">_configs : NotificationConfig</text><rect fill="none" height="6" style="stroke:#C82930;stroke-width:1.0;" width="6" x="17" y="59.9551"/><text fill="#000000" font-family="sans-serif" font-size="11" lengthAdjust="spacing" textLength="90" x="29" y="66.5898">_isBuilt : boolean</text><rect fill="none" height="6" style="stroke:#C82930;stroke-width:1.0;" width="6" x="17" y="72.9102"/><text fill="#000000" font-family="sans-serif" font-size="11" lengthAdjust="spacing" textLength="131" x="29" y="79.5449">_selfElem : HTMLElement</text><rect fill="none" height="6" style="stroke:#C82930;stroke-width:1.0;" width="6" x="17" y="85.8652"/><text fill="#000000" font-family="sans-serif" font-size="11" lengthAdjust="spacing" textLength="94" x="29" y="92.5">_uniqueId : string</text><rect fill="none" height="6" style="stroke:#C82930;stroke-width:1.0;" width="6" x="17" y="98.8203"/><text fill="#000000" font-family="sans-serif" font-size="11" lengthAdjust="spacing" textLength="92" x="29" y="105.4551">_widgetId : string</text><line style="stroke:#272B30;stroke-width:1.5;" x1="10" x2="411" y1="111.7754" y2="111.7754"/><ellipse cx="20" cy="122.7754" fill="#84BE84" rx="3" ry="3" style="stroke:#038048;stroke-width:1.0;"/><text fill="#000000" font-family="sans-serif" font-size="11" lengthAdjust="spacing" textLength="67" x="29" y="126.4102">build() : void</text><ellipse cx="20" cy="135.7305" fill="#84BE84" rx="3" ry="3" style="stroke:#038048;stroke-width:1.0;"/><text fill="#000000" font-family="sans-serif" font-size="11" lengthAdjust="spacing" textLength="377" x="29" y="139.3652">changeProperty(propertyName: string, propertyValue: unknown) : void</text><ellipse cx="20" cy="148.6855" fill="#84BE84" rx="3" ry="3" style="stroke:#038048;stroke-width:1.0;"/><text fill="#000000" font-family="sans-serif" font-size="11" lengthAdjust="spacing" textLength="82" x="29" y="152.3203">dispose() : void</text><ellipse cx="20" cy="161.6406" fill="#84BE84" rx="3" ry="3" style="stroke:#038048;stroke-width:1.0;"/><text fill="#000000" font-family="sans-serif" font-size="11" lengthAdjust="spacing" textLength="207" x="29" y="165.2754">equalsToID(patternId: string) : boolean</text><polygon fill="#FFFF44" points="20,169.5957,24,173.5957,20,177.5957,16,173.5957" style="stroke:#B38D22;stroke-width:1.0;"/><text fill="#000000" font-family="sans-serif" font-size="11" lengthAdjust="spacing" textLength="96" x="29" y="178.2305">finishBuild() : void</text><polygon fill="#FFFF44" points="20,182.5508,24,186.5508,20,190.5508,16,186.5508" style="stroke:#B38D22;stroke-width:1.0;"/><text fill="#000000" font-family="sans-serif" font-size="11" font-style="italic" lengthAdjust="spacing" textLength="140" x="29" y="191.1855">setA11YProperties() : void</text><polygon fill="#FFFF44" points="20,195.5059,24,199.5059,20,203.5059,16,199.5059" style="stroke:#B38D22;stroke-width:1.0;"/><text fill="#000000" font-family="sans-serif" font-size="11" font-style="italic" lengthAdjust="spacing" textLength="107" x="29" y="204.1406">setCallbacks() : void</text><polygon fill="#FFFF44" points="20,208.4609,24,212.4609,20,216.4609,16,212.4609" style="stroke:#B38D22;stroke-width:1.0;"/><text fill="#000000" font-family="sans-serif" font-size="11" font-style="italic" lengthAdjust="spacing" textLength="129" x="29" y="217.0957">setHtmlElements() : void</text><polygon fill="#FFFF44" points="20,221.416,24,225.416,20,229.416,16,225.416" style="stroke:#B38D22;stroke-width:1.0;"/><text fill="#000000" font-family="sans-serif" font-size="11" font-style="italic" lengthAdjust="spacing" textLength="121" x="29" y="230.0508">unsetCallbacks() : void</text><polygon fill="#FFFF44" points="20,234.3711,24,238.3711,20,242.3711,16,238.3711" style="stroke:#B38D22;stroke-width:1.0;"/><text fill="#000000" font-family="sans-serif" font-size="11" font-style="italic" lengthAdjust="spacing" textLength="143" x="29" y="243.0059">unsetHtmlElements() : void</text><rect fill="#F24D5C" height="6" style="stroke:#C82930;stroke-width:1.0;" width="6" x="17" y="249.3262"/><text fill="#000000" font-family="sans-serif" font-size="11" lengthAdjust="spacing" textLength="184" x="29" y="255.9609">_setCommonHtmlElements() : void</text><rect fill="#F24D5C" height="6" style="stroke:#C82930;stroke-width:1.0;" width="6" x="17" y="262.2813"/><text fill="#000000" font-family="sans-serif" font-size="11" lengthAdjust="spacing" textLength="198" x="29" y="268.916">_unsetCommonHtmlElements() : void</text><!--MD5=[70dfdd3864f3e0f1cada0be33fdea72b]
class INotification--><rect codeLine="74" fill="#FFFFFF" filter="url(#f1xrynadd6iy9y)" height="190.5059" id="INotification" style="stroke:#272B30;stroke-width:1.5;" width="403" x="447" y="45.5"/><ellipse cx="610.75" cy="61.5" fill="#B4A7E5" rx="11" ry="11" style="stroke:#272B30;stroke-width:1.0;"/><path d="M607.1777,57.7651 L607.1777,55.6069 L614.5571,55.6069 L614.5571,57.7651 L612.0918,57.7651 L612.0918,65.8418 L614.5571,65.8418 L614.5571,68 L607.1777,68 L607.1777,65.8418 L609.6431,65.8418 L609.6431,57.7651 Z " fill="#000000"/><text fill="#000000" font-family="sans-serif" font-size="12" font-style="italic" lengthAdjust="spacing" textLength="67" x="631.25" y="66.0352">INotification</text><line style="stroke:#272B30;stroke-width:1.5;" x1="448" x2="849" y1="77.5" y2="77.5"/><ellipse cx="458" cy="88.5" rx="3" ry="3" style="stroke:#038048;stroke-width:1.0;fill:none;"/><text fill="#000000" font-family="sans-serif" font-size="11" lengthAdjust="spacing" textLength="84" x="467" y="92.1348">isBuilt : boolean</text><ellipse cx="458" cy="101.4551" rx="3" ry="3" style="stroke:#038048;stroke-width:1.0;fill:none;"/><text fill="#000000" font-family="sans-serif" font-size="11" lengthAdjust="spacing" textLength="142" x="467" y="105.0898">selfElement : HTMLElement</text><ellipse cx="458" cy="114.4102" rx="3" ry="3" style="stroke:#038048;stroke-width:1.0;fill:none;"/><text fill="#000000" font-family="sans-serif" font-size="11" lengthAdjust="spacing" textLength="88" x="467" y="118.0449">uniqueId : string</text><ellipse cx="458" cy="127.3652" rx="3" ry="3" style="stroke:#038048;stroke-width:1.0;fill:none;"/><text fill="#000000" font-family="sans-serif" font-size="11" lengthAdjust="spacing" textLength="86" x="467" y="131">widgetId : string</text><line style="stroke:#272B30;stroke-width:1.5;" x1="448" x2="849" y1="137.3203" y2="137.3203"/><ellipse cx="458" cy="148.3203" fill="#84BE84" rx="3" ry="3" style="stroke:#038048;stroke-width:1.0;"/><text fill="#000000" font-family="sans-serif" font-size="11" lengthAdjust="spacing" textLength="67" x="467" y="151.9551">build() : void</text><ellipse cx="458" cy="161.2754" fill="#84BE84" rx="3" ry="3" style="stroke:#038048;stroke-width:1.0;"/><text fill="#000000" font-family="sans-serif" font-size="11" lengthAdjust="spacing" textLength="377" x="467" y="164.9102">changeProperty(propertyName: string, propertyValue: unknown) : void</text><ellipse cx="458" cy="174.2305" fill="#84BE84" rx="3" ry="3" style="stroke:#038048;stroke-width:1.0;"/><text fill="#000000" font-family="sans-serif" font-size="11" lengthAdjust="spacing" textLength="82" x="467" y="177.8652">dispose() : void</text><ellipse cx="458" cy="187.1855" fill="#84BE84" rx="3" ry="3" style="stroke:#038048;stroke-width:1.0;"/><text fill="#000000" font-family="sans-serif" font-size="11" lengthAdjust="spacing" textLength="168" x="467" y="190.8203">equalsToID(id: string) : boolean</text><ellipse cx="458" cy="200.1406" fill="#84BE84" rx="3" ry="3" style="stroke:#038048;stroke-width:1.0;"/><text fill="#000000" font-family="sans-serif" font-size="11" lengthAdjust="spacing" textLength="63" x="467" y="203.7754">hide() : void</text><ellipse cx="458" cy="213.0957" fill="#84BE84" rx="3" ry="3" style="stroke:#038048;stroke-width:1.0;"/><text fill="#000000" font-family="sans-serif" font-size="11" lengthAdjust="spacing" textLength="335" x="467" y="216.7305">registerCallback(eventName: string, callback: OSGeneric) : void</text><ellipse cx="458" cy="226.0508" fill="#84BE84" rx="3" ry="3" style="stroke:#038048;stroke-width:1.0;"/><text fill="#000000" font-family="sans-serif" font-size="11" lengthAdjust="spacing" textLength="68" x="467" y="229.6855">show() : void</text><!--MD5=[0eba6ad72cee485a23268172bf76ada7]
class ISwipeEvent--><rect codeLine="88" fill="#FFFFFF" filter="url(#f1xrynadd6iy9y)" height="99.8203" id="ISwipeEvent" style="stroke:#272B30;stroke-width:1.5;" width="803" x="885" y="91"/><ellipse cx="1248.75" cy="107" fill="#B4A7E5" rx="11" ry="11" style="stroke:#272B30;stroke-width:1.0;"/><path d="M1245.1777,103.2651 L1245.1777,101.1069 L1252.5571,101.1069 L1252.5571,103.2651 L1250.0918,103.2651 L1250.0918,111.3418 L1252.5571,111.3418 L1252.5571,113.5 L1245.1777,113.5 L1245.1777,111.3418 L1247.6431,111.3418 L1247.6431,103.2651 Z " fill="#000000"/><text fill="#000000" font-family="sans-serif" font-size="12" font-style="italic" lengthAdjust="spacing" textLength="67" x="1269.25" y="111.5352">ISwipeEvent</text><line style="stroke:#272B30;stroke-width:1.5;" x1="886" x2="1687" y1="123" y2="123"/><ellipse cx="896" cy="134" rx="3" ry="3" style="stroke:#038048;stroke-width:1.0;fill:none;"/><text fill="#000000" font-family="sans-serif" font-size="11" lengthAdjust="spacing" textLength="183" x="905" y="137.6348">gestureEventInstance : SwipeEvent</text><ellipse cx="896" cy="146.9551" rx="3" ry="3" style="stroke:#038048;stroke-width:1.0;fill:none;"/><text fill="#000000" font-family="sans-serif" font-size="11" lengthAdjust="spacing" textLength="148" x="905" y="150.5898">hasGestureEvents : boolean</text><line style="stroke:#272B30;stroke-width:1.5;" x1="886" x2="1687" y1="156.9102" y2="156.9102"/><ellipse cx="896" cy="167.9102" fill="#84BE84" rx="3" ry="3" style="stroke:#038048;stroke-width:1.0;"/><text fill="#000000" font-family="sans-serif" font-size="11" lengthAdjust="spacing" textLength="157" x="905" y="171.5449">removeGestureEvents() : void</text><ellipse cx="896" cy="180.8652" fill="#84BE84" rx="3" ry="3" style="stroke:#038048;stroke-width:1.0;"/><text fill="#000000" font-family="sans-serif" font-size="11" lengthAdjust="spacing" textLength="777" x="905" y="184.5">setGestureEvents(swipeDownCallback: SwipeDown, swipeLeftCallback: SwipeLeft, swipeRightCallback: SwipeRight, swipeUpCallback: SwipeUp) : any</text><!--MD5=[691de9383e0155b69cac60d57d2c29f7]
reverse link AbstractPattern<NotificationConfig> to Notification--><path codeLine="73" d="M338.53,290.34 C350.9,304.68 363.74,319.56 376.86,334.75 " fill="none" id="AbstractPattern&lt;NotificationConfig&gt;-backto-Notification" style="stroke:#272B30;stroke-width:1.0;"/><polygon fill="none" points="333.06,294.72,325.29,275.01,343.66,285.58,333.06,294.72" style="stroke:#272B30;stroke-width:1.0;"/><!--MD5=[8e72d689d6ccd37260087d14f507d6c8]
reverse link INotification to Notification--><path codeLine="87" d="M648.5,256.67 C648.5,280.8 648.5,307.37 648.5,334.95 " fill="none" id="INotification-backto-Notification" style="stroke:#272B30;stroke-width:1.0;stroke-dasharray:7.0,7.0;"/><polygon fill="none" points="641.5,256.56,648.5,236.56,655.5,256.56,641.5,256.56" style="stroke:#272B30;stroke-width:1.0;"/><!--MD5=[06948f93ca94cfdf9aee06c2ac99690e]
reverse link ISwipeEvent to Notification--><path codeLine="94" d="M1209,203.65 C1165.22,238.47 1106.82,284.93 1044.22,334.73 " fill="none" id="ISwipeEvent-backto-Notification" style="stroke:#272B30;stroke-width:1.0;stroke-dasharray:7.0,7.0;"/><polygon fill="none" points="1204.74,198.09,1224.75,191.12,1213.45,209.05,1204.74,198.09" style="stroke:#272B30;stroke-width:1.0;"/><!--MD5=[d35ce5b2aa9804cc098a62f99101991a]
@startuml
skinparam ClassArrowColor #272b30
skinparam ClassBorderColor #272b30
skinparam ClassBackgroundColor #fff
skinparam BackgroundColor #ced4da
hide empty methods
hide empty fields
class "Notification" {
    -_eventOnClick : Generic
    -_eventOnKeypress : Generic
    -_eventType : string
    -_focusableActiveElement : HTMLElement
    -_focusTrapInstance : FocusTrap
    -_gestureEventInstance : SwipeEvent
    -_hasGestureEvents : boolean
    -_isOpen : boolean
    -_parentSelf : HTMLElement
    -_platformEventOnInitialize : OSInitializedEvent
    -_platformEventOnToggle : OSOnToggleEvent
    +build() : void
    +changeProperty(propertyName: string, propertyValue: any) : void
    +dispose() : void
    +equalsToID(patternId: string) : boolean
    +hide() : void
    +onSwipeBottom() : void
    +onSwipeLeft() : void
    +onSwipeRight() : void
    +onSwipeUp() : void
    +registerCallback(eventName: string, callback: OSGeneric) : void
    +removeGestureEvents() : void
    +show() : void
    #finishBuild() : void
    #setA11YProperties() : void
    #setCallbacks() : void
    #setGestureEvents(onSwipeDownCallback: SwipeDown, onSwipeLeftCallback: SwipeLeft, onSwipeRightCallback: SwipeRight, onSwipeUpCallback: SwipeUp) : void
    #setHtmlElements() : void
    #setInitialStates() : void
    #unsetCallbacks() : void
    #unsetHtmlElements() : void
    -_autoCloseNotification() : void
    -_clickCallback(e: MouseEvent) : void
    -_handleFocusTrap() : void
    -_handleGestureEvents() : void
    -_hideNotification() : void
    -_keypressCallback(e: KeyboardEvent) : void
    -_removeEvents() : void
    -_showNotification() : void
    -_triggerOnToggleEvent(isOpen: boolean) : void
    -_updateA11yProperties() : void
    -_updateCloseAfterTime(value: number) : void
    -_updateInteractToClose(value: boolean) : void
    -_updatePosition(position: string) : void
    -_updateWidth(width: string) : void
}
abstract class "AbstractPattern<NotificationConfig>" {
    -_configs : NotificationConfig
    -_isBuilt : boolean
    -_selfElem : HTMLElement
    -_uniqueId : string
    -_widgetId : string
    +build() : void
    +changeProperty(propertyName: string, propertyValue: unknown) : void
    +dispose() : void
    +equalsToID(patternId: string) : boolean
    #finishBuild() : void
    {abstract} #setA11YProperties() : void
    {abstract} #setCallbacks() : void
    {abstract} #setHtmlElements() : void
    {abstract} #unsetCallbacks() : void
    {abstract} #unsetHtmlElements() : void
    -_setCommonHtmlElements() : void
    -_unsetCommonHtmlElements() : void
}
"AbstractPattern<NotificationConfig>" <|- - "Notification"
interface "INotification" {
    +isBuilt : boolean
    +selfElement : HTMLElement
    +uniqueId : string
    +widgetId : string
    +build() : void
    +changeProperty(propertyName: string, propertyValue: unknown) : void
    +dispose() : void
    +equalsToID(id: string) : boolean
    +hide() : void
    +registerCallback(eventName: string, callback: OSGeneric) : void
    +show() : void
}
"INotification" <|.. "Notification"
interface "ISwipeEvent" {
    +gestureEventInstance : SwipeEvent
    +hasGestureEvents : boolean
    +removeGestureEvents() : void
    +setGestureEvents(swipeDownCallback: SwipeDown, swipeLeftCallback: SwipeLeft, swipeRightCallback: SwipeRight, swipeUpCallback: SwipeUp) : any
}
"ISwipeEvent" <|.. "Notification"
@enduml

PlantUML version 1.2021.14(Fri Nov 12 16:46:50 WET 2021)
(GPL source distribution)
Java Runtime: Java(TM) SE Runtime Environment
JVM: Java HotSpot(TM) 64-Bit Server VM
Default Encoding: UTF-8
Language: en
Country: PT
--></g></svg>