<?xml version="1.0" encoding="UTF-8" standalone="no"?><svg xmlns="http://www.w3.org/2000/svg" xmlns:xlink="http://www.w3.org/1999/xlink" contentScriptType="application/ecmascript" contentStyleType="text/css" height="940px" preserveAspectRatio="none" style="width:1702px;height:940px;background:#CED4DA;" version="1.1" viewBox="0 0 1702 940" width="1702px" zoomAndPan="magnify"><defs><filter height="300%" id="f14r2i8sl5pl5s" width="300%" x="-1" y="-1"><feGaussianBlur result="blurOut" stdDeviation="2.0"/><feColorMatrix in="blurOut" result="blurOut2" type="matrix" values="0 0 0 0 0 0 0 0 0 0 0 0 0 0 0 0 0 0 .4 0"/><feOffset dx="4.0" dy="4.0" in="blurOut2" result="blurOut3"/><feBlend in="SourceGraphic" in2="blurOut3" mode="normal"/></filter></defs><g><!--MD5=[76b5e19c9337179d2d7ae334371d68c8]
class Notification--><rect codeLine="7" fill="#FFFFFF" filter="url(#f14r2i8sl5pl5s)" height="656.8887" id="Notification" style="stroke:#272B30;stroke-width:1.5;" width="863" x="217" y="270"/><ellipse cx="612.25" cy="286" fill="#ADD1B2" rx="11" ry="11" style="stroke:#272B30;stroke-width:1.0;"/><path d="M614.7231,292.1431 Q614.1421,292.4419 613.5029,292.5913 Q612.8638,292.7407 612.1582,292.7407 Q609.6514,292.7407 608.3315,291.0889 Q607.0117,289.437 607.0117,286.3159 Q607.0117,283.1865 608.3315,281.5347 Q609.6514,279.8828 612.1582,279.8828 Q612.8638,279.8828 613.5112,280.0322 Q614.1587,280.1816 614.7231,280.4805 L614.7231,283.2031 Q614.0923,282.6221 613.4988,282.3523 Q612.9053,282.0825 612.2744,282.0825 Q610.9297,282.0825 610.2449,283.1492 Q609.5601,284.2158 609.5601,286.3159 Q609.5601,288.4077 610.2449,289.4744 Q610.9297,290.541 612.2744,290.541 Q612.9053,290.541 613.4988,290.2712 Q614.0923,290.0015 614.7231,289.4204 Z " fill="#000000"/><text fill="#000000" font-family="sans-serif" font-size="12" lengthAdjust="spacing" textLength="64" x="632.75" y="290.5352">Notification</text><line style="stroke:#272B30;stroke-width:1.5;" x1="218" x2="1079" y1="302" y2="302"/><polygon fill="none" points="228,308,232,312,228,316,224,312" style="stroke:#B38D22;stroke-width:1.0;"/><text fill="#000000" font-family="sans-serif" font-size="11" lengthAdjust="spacing" textLength="131" x="237" y="316.6348">_selfElem : HTMLElement</text><polygon fill="none" points="228,320.9551,232,324.9551,228,328.9551,224,324.9551" style="stroke:#B38D22;stroke-width:1.0;"/><text fill="#000000" font-family="sans-serif" font-size="11" lengthAdjust="spacing" textLength="92" x="237" y="329.5898">_widgetId : string</text><rect fill="none" height="6" style="stroke:#C82930;stroke-width:1.0;" width="6" x="225" y="335.9102"/><text fill="#000000" font-family="sans-serif" font-size="11" lengthAdjust="spacing" textLength="127" x="237" y="342.5449">_eventOnClick : Generic</text><rect fill="none" height="6" style="stroke:#C82930;stroke-width:1.0;" width="6" x="225" y="348.8652"/><text fill="#000000" font-family="sans-serif" font-size="11" lengthAdjust="spacing" textLength="150" x="237" y="355.5">_eventOnKeypress : Generic</text><rect fill="none" height="6" style="stroke:#C82930;stroke-width:1.0;" width="6" x="225" y="361.8203"/><text fill="#000000" font-family="sans-serif" font-size="11" lengthAdjust="spacing" textLength="102" x="237" y="368.4551">_eventType : string</text><rect fill="none" height="6" style="stroke:#C82930;stroke-width:1.0;" width="6" x="225" y="374.7754"/><text fill="#000000" font-family="sans-serif" font-size="11" lengthAdjust="spacing" textLength="214" x="237" y="381.4102">_focusableActiveElement : HTMLElement</text><rect fill="none" height="6" style="stroke:#C82930;stroke-width:1.0;" width="6" x="225" y="387.7305"/><text fill="#000000" font-family="sans-serif" font-size="11" lengthAdjust="spacing" textLength="172" x="237" y="394.3652">_focusTrapInstance : FocusTrap</text><rect fill="none" height="6" style="stroke:#C82930;stroke-width:1.0;" width="6" x="225" y="400.6855"/><text fill="#000000" font-family="sans-serif" font-size="11" lengthAdjust="spacing" textLength="189" x="237" y="407.3203">_gestureEventInstance : SwipeEvent</text><rect fill="none" height="6" style="stroke:#C82930;stroke-width:1.0;" width="6" x="225" y="413.6406"/><text fill="#000000" font-family="sans-serif" font-size="11" lengthAdjust="spacing" textLength="154" x="237" y="420.2754">_hasGestureEvents : boolean</text><rect fill="none" height="6" style="stroke:#C82930;stroke-width:1.0;" width="6" x="225" y="426.5957"/><text fill="#000000" font-family="sans-serif" font-size="11" lengthAdjust="spacing" textLength="96" x="237" y="433.2305">_isOpen : boolean</text><rect fill="none" height="6" style="stroke:#C82930;stroke-width:1.0;" width="6" x="225" y="439.5508"/><text fill="#000000" font-family="sans-serif" font-size="11" lengthAdjust="spacing" textLength="141" x="237" y="446.1855">_parentSelf : HTMLElement</text><rect fill="none" height="6" style="stroke:#C82930;stroke-width:1.0;" width="6" x="225" y="452.5059"/><text fill="#000000" font-family="sans-serif" font-size="11" lengthAdjust="spacing" textLength="245" x="237" y="459.1406">_platformEventOnInitialize : OSInitializedEvent</text><rect fill="none" height="6" style="stroke:#C82930;stroke-width:1.0;" width="6" x="225" y="465.4609"/><text fill="#000000" font-family="sans-serif" font-size="11" lengthAdjust="spacing" textLength="240" x="237" y="472.0957">_platformEventOnToggle : OSOnToggleEvent</text><line style="stroke:#272B30;stroke-width:1.5;" x1="218" x2="1079" y1="478.416" y2="478.416"/><ellipse cx="228" cy="489.416" fill="#84BE84" rx="3" ry="3" style="stroke:#038048;stroke-width:1.0;"/><text fill="#000000" font-family="sans-serif" font-size="11" lengthAdjust="spacing" textLength="67" x="237" y="493.0508">build() : void</text><ellipse cx="228" cy="502.3711" fill="#84BE84" rx="3" ry="3" style="stroke:#038048;stroke-width:1.0;"/><text fill="#000000" font-family="sans-serif" font-size="11" lengthAdjust="spacing" textLength="347" x="237" y="506.0059">changeProperty(propertyName: string, propertyValue: any) : void</text><ellipse cx="228" cy="515.3262" fill="#84BE84" rx="3" ry="3" style="stroke:#038048;stroke-width:1.0;"/><text fill="#000000" font-family="sans-serif" font-size="11" lengthAdjust="spacing" textLength="82" x="237" y="518.9609">dispose() : void</text><ellipse cx="228" cy="528.2813" fill="#84BE84" rx="3" ry="3" style="stroke:#038048;stroke-width:1.0;"/><text fill="#000000" font-family="sans-serif" font-size="11" lengthAdjust="spacing" textLength="207" x="237" y="531.916">equalsToID(patternId: string) : boolean</text><ellipse cx="228" cy="541.2363" fill="#84BE84" rx="3" ry="3" style="stroke:#038048;stroke-width:1.0;"/><text fill="#000000" font-family="sans-serif" font-size="11" lengthAdjust="spacing" textLength="63" x="237" y="544.8711">hide() : void</text><ellipse cx="228" cy="554.1914" fill="#84BE84" rx="3" ry="3" style="stroke:#038048;stroke-width:1.0;"/><text fill="#000000" font-family="sans-serif" font-size="11" lengthAdjust="spacing" textLength="122" x="237" y="557.8262">onSwipeBottom() : void</text><ellipse cx="228" cy="567.1465" fill="#84BE84" rx="3" ry="3" style="stroke:#038048;stroke-width:1.0;"/><text fill="#000000" font-family="sans-serif" font-size="11" lengthAdjust="spacing" textLength="104" x="237" y="570.7813">onSwipeLeft() : void</text><ellipse cx="228" cy="580.1016" fill="#84BE84" rx="3" ry="3" style="stroke:#038048;stroke-width:1.0;"/><text fill="#000000" font-family="sans-serif" font-size="11" lengthAdjust="spacing" textLength="112" x="237" y="583.7363">onSwipeRight() : void</text><ellipse cx="228" cy="593.0566" fill="#84BE84" rx="3" ry="3" style="stroke:#038048;stroke-width:1.0;"/><text fill="#000000" font-family="sans-serif" font-size="11" lengthAdjust="spacing" textLength="99" x="237" y="596.6914">onSwipeUp() : void</text><ellipse cx="228" cy="606.0117" fill="#84BE84" rx="3" ry="3" style="stroke:#038048;stroke-width:1.0;"/><text fill="#000000" font-family="sans-serif" font-size="11" lengthAdjust="spacing" textLength="335" x="237" y="609.6465">registerCallback(eventName: string, callback: OSGeneric) : void</text><ellipse cx="228" cy="618.9668" fill="#84BE84" rx="3" ry="3" style="stroke:#038048;stroke-width:1.0;"/><text fill="#000000" font-family="sans-serif" font-size="11" lengthAdjust="spacing" textLength="157" x="237" y="622.6016">removeGestureEvents() : void</text><ellipse cx="228" cy="631.9219" fill="#84BE84" rx="3" ry="3" style="stroke:#038048;stroke-width:1.0;"/><text fill="#000000" font-family="sans-serif" font-size="11" lengthAdjust="spacing" textLength="68" x="237" y="635.5566">show() : void</text><polygon fill="#FFFF44" points="228,639.877,232,643.877,228,647.877,224,643.877" style="stroke:#B38D22;stroke-width:1.0;"/><text fill="#000000" font-family="sans-serif" font-size="11" lengthAdjust="spacing" textLength="96" x="237" y="648.5117">finishBuild() : void</text><polygon fill="#FFFF44" points="228,652.832,232,656.832,228,660.832,224,656.832" style="stroke:#B38D22;stroke-width:1.0;"/><text fill="#000000" font-family="sans-serif" font-size="11" lengthAdjust="spacing" textLength="140" x="237" y="661.4668">setA11YProperties() : void</text><polygon fill="#FFFF44" points="228,665.7871,232,669.7871,228,673.7871,224,669.7871" style="stroke:#B38D22;stroke-width:1.0;"/><text fill="#000000" font-family="sans-serif" font-size="11" lengthAdjust="spacing" textLength="107" x="237" y="674.4219">setCallbacks() : void</text><polygon fill="#FFFF44" points="228,678.7422,232,682.7422,228,686.7422,224,682.7422" style="stroke:#B38D22;stroke-width:1.0;"/><text fill="#000000" font-family="sans-serif" font-size="11" lengthAdjust="spacing" textLength="837" x="237" y="687.377">setGestureEvents(onSwipeDownCallback: SwipeDown, onSwipeLeftCallback: SwipeLeft, onSwipeRightCallback: SwipeRight, onSwipeUpCallback: SwipeUp) : void</text><polygon fill="#FFFF44" points="228,691.6973,232,695.6973,228,699.6973,224,695.6973" style="stroke:#B38D22;stroke-width:1.0;"/><text fill="#000000" font-family="sans-serif" font-size="11" lengthAdjust="spacing" textLength="129" x="237" y="700.332">setHtmlElements() : void</text><polygon fill="#FFFF44" points="228,704.6523,232,708.6523,228,712.6523,224,708.6523" style="stroke:#B38D22;stroke-width:1.0;"/><text fill="#000000" font-family="sans-serif" font-size="11" lengthAdjust="spacing" textLength="117" x="237" y="713.2871">setInitialStates() : void</text><polygon fill="#FFFF44" points="228,717.6074,232,721.6074,228,725.6074,224,721.6074" style="stroke:#B38D22;stroke-width:1.0;"/><text fill="#000000" font-family="sans-serif" font-size="11" lengthAdjust="spacing" textLength="121" x="237" y="726.2422">unsetCallbacks() : void</text><polygon fill="#FFFF44" points="228,730.5625,232,734.5625,228,738.5625,224,734.5625" style="stroke:#B38D22;stroke-width:1.0;"/><text fill="#000000" font-family="sans-serif" font-size="11" lengthAdjust="spacing" textLength="143" x="237" y="739.1973">unsetHtmlElements() : void</text><rect fill="#F24D5C" height="6" style="stroke:#C82930;stroke-width:1.0;" width="6" x="225" y="745.5176"/><text fill="#000000" font-family="sans-serif" font-size="11" lengthAdjust="spacing" textLength="162" x="237" y="752.1523">_autoCloseNotification() : void</text><rect fill="#F24D5C" height="6" style="stroke:#C82930;stroke-width:1.0;" width="6" x="225" y="758.4727"/><text fill="#000000" font-family="sans-serif" font-size="11" lengthAdjust="spacing" textLength="191" x="237" y="765.1074">_clickCallback(e: MouseEvent) : void</text><rect fill="#F24D5C" height="6" style="stroke:#C82930;stroke-width:1.0;" width="6" x="225" y="771.4277"/><text fill="#000000" font-family="sans-serif" font-size="11" lengthAdjust="spacing" textLength="139" x="237" y="778.0625">_handleFocusTrap() : void</text><rect fill="#F24D5C" height="6" style="stroke:#C82930;stroke-width:1.0;" width="6" x="225" y="784.3828"/><text fill="#000000" font-family="sans-serif" font-size="11" lengthAdjust="spacing" textLength="159" x="237" y="791.0176">_handleGestureEvents() : void</text><rect fill="#F24D5C" height="6" style="stroke:#C82930;stroke-width:1.0;" width="6" x="225" y="797.3379"/><text fill="#000000" font-family="sans-serif" font-size="11" lengthAdjust="spacing" textLength="131" x="237" y="803.9727">_hideNotification() : void</text><rect fill="#F24D5C" height="6" style="stroke:#C82930;stroke-width:1.0;" width="6" x="225" y="810.293"/><text fill="#000000" font-family="sans-serif" font-size="11" lengthAdjust="spacing" textLength="231" x="237" y="816.9277">_keypressCallback(e: KeyboardEvent) : void</text><rect fill="#F24D5C" height="6" style="stroke:#C82930;stroke-width:1.0;" width="6" x="225" y="823.248"/><text fill="#000000" font-family="sans-serif" font-size="11" lengthAdjust="spacing" textLength="121" x="237" y="829.8828">_removeEvents() : void</text><rect fill="#F24D5C" height="6" style="stroke:#C82930;stroke-width:1.0;" width="6" x="225" y="836.2031"/><text fill="#000000" font-family="sans-serif" font-size="11" lengthAdjust="spacing" textLength="136" x="237" y="842.8379">_showNotification() : void</text><rect fill="#F24D5C" height="6" style="stroke:#C82930;stroke-width:1.0;" width="6" x="225" y="849.1582"/><text fill="#000000" font-family="sans-serif" font-size="11" lengthAdjust="spacing" textLength="252" x="237" y="855.793">_triggerOnToggleEvent(isOpen: boolean) : void</text><rect fill="#F24D5C" height="6" style="stroke:#C82930;stroke-width:1.0;" width="6" x="225" y="862.1133"/><text fill="#000000" font-family="sans-serif" font-size="11" lengthAdjust="spacing" textLength="166" x="237" y="868.748">_updateA11yProperties() : void</text><rect fill="#F24D5C" height="6" style="stroke:#C82930;stroke-width:1.0;" width="6" x="225" y="875.0684"/><text fill="#000000" font-family="sans-serif" font-size="11" lengthAdjust="spacing" textLength="242" x="237" y="881.7031">_updateCloseAfterTime(value: number) : void</text><rect fill="#F24D5C" height="6" style="stroke:#C82930;stroke-width:1.0;" width="6" x="225" y="888.0234"/><text fill="#000000" font-family="sans-serif" font-size="11" lengthAdjust="spacing" textLength="245" x="237" y="894.6582">_updateInteractToClose(value: boolean) : void</text><rect fill="#F24D5C" height="6" style="stroke:#C82930;stroke-width:1.0;" width="6" x="225" y="900.9785"/><text fill="#000000" font-family="sans-serif" font-size="11" lengthAdjust="spacing" textLength="208" x="237" y="907.6133">_updatePosition(position: string) : void</text><rect fill="#F24D5C" height="6" style="stroke:#C82930;stroke-width:1.0;" width="6" x="225" y="913.9336"/><text fill="#000000" font-family="sans-serif" font-size="11" lengthAdjust="spacing" textLength="180" x="237" y="920.5684">_updateWidth(width: string) : void</text><!--MD5=[700d667a4d5d726e7aa40d8959f206d6]
class AbstractPattern<NotificationConfig>--><rect codeLine="56" fill="#FFFFFF" filter="url(#f14r2i8sl5pl5s)" height="203.4609" id="AbstractPattern&lt;NotificationConfig&gt;" style="stroke:#272B30;stroke-width:1.5;" width="403" x="9" y="7"/><ellipse cx="101.75" cy="23" fill="#A9DCDF" rx="11" ry="11" style="stroke:#272B30;stroke-width:1.0;"/><path d="M101.6133,18.3481 L100.4595,23.4199 L102.7754,23.4199 Z M100.1191,16.1069 L103.1157,16.1069 L106.4609,28.5 L104.0122,28.5 L103.2485,25.437 L99.9697,25.437 L99.2227,28.5 L96.7739,28.5 Z " fill="#000000"/><text fill="#000000" font-family="sans-serif" font-size="12" font-style="italic" lengthAdjust="spacing" textLength="209" x="122.25" y="27.5352">AbstractPattern&lt;NotificationConfig&gt;</text><line style="stroke:#272B30;stroke-width:1.5;" x1="10" x2="411" y1="39" y2="39"/><polygon fill="none" points="20,45,24,49,20,53,16,49" style="stroke:#B38D22;stroke-width:1.0;"/><text fill="#000000" font-family="sans-serif" font-size="11" lengthAdjust="spacing" textLength="131" x="29" y="53.6348">_selfElem : HTMLElement</text><polygon fill="none" points="20,57.9551,24,61.9551,20,65.9551,16,61.9551" style="stroke:#B38D22;stroke-width:1.0;"/><text fill="#000000" font-family="sans-serif" font-size="11" lengthAdjust="spacing" textLength="92" x="29" y="66.5898">_widgetId : string</text><rect fill="none" height="6" style="stroke:#C82930;stroke-width:1.0;" width="6" x="17" y="72.9102"/><text fill="#000000" font-family="sans-serif" font-size="11" lengthAdjust="spacing" textLength="153" x="29" y="79.5449">_configs : NotificationConfig</text><rect fill="none" height="6" style="stroke:#C82930;stroke-width:1.0;" width="6" x="17" y="85.8652"/><text fill="#000000" font-family="sans-serif" font-size="11" lengthAdjust="spacing" textLength="90" x="29" y="92.5">_isBuilt : boolean</text><rect fill="none" height="6" style="stroke:#C82930;stroke-width:1.0;" width="6" x="17" y="98.8203"/><text fill="#000000" font-family="sans-serif" font-size="11" lengthAdjust="spacing" textLength="94" x="29" y="105.4551">_uniqueId : string</text><line style="stroke:#272B30;stroke-width:1.5;" x1="10" x2="411" y1="111.7754" y2="111.7754"/><ellipse cx="20" cy="122.7754" fill="#84BE84" rx="3" ry="3" style="stroke:#038048;stroke-width:1.0;"/><text fill="#000000" font-family="sans-serif" font-size="11" lengthAdjust="spacing" textLength="67" x="29" y="126.4102">build() : void</text><ellipse cx="20" cy="135.7305" fill="#84BE84" rx="3" ry="3" style="stroke:#038048;stroke-width:1.0;"/><text fill="#000000" font-family="sans-serif" font-size="11" lengthAdjust="spacing" textLength="377" x="29" y="139.3652">changeProperty(propertyName: string, propertyValue: unknown) : void</text><ellipse cx="20" cy="148.6855" fill="#84BE84" rx="3" ry="3" style="stroke:#038048;stroke-width:1.0;"/><text fill="#000000" font-family="sans-serif" font-size="11" lengthAdjust="spacing" textLength="82" x="29" y="152.3203">dispose() : void</text><ellipse cx="20" cy="161.6406" fill="#84BE84" rx="3" ry="3" style="stroke:#038048;stroke-width:1.0;"/><text fill="#000000" font-family="sans-serif" font-size="11" lengthAdjust="spacing" textLength="207" x="29" y="165.2754">equalsToID(patternId: string) : boolean</text><polygon fill="#FFFF44" points="20,169.5957,24,173.5957,20,177.5957,16,173.5957" style="stroke:#B38D22;stroke-width:1.0;"/><text fill="#000000" font-family="sans-serif" font-size="11" lengthAdjust="spacing" textLength="96" x="29" y="178.2305">finishBuild() : void</text><polygon fill="#FFFF44" points="20,182.5508,24,186.5508,20,190.5508,16,186.5508" style="stroke:#B38D22;stroke-width:1.0;"/><text fill="#000000" font-family="sans-serif" font-size="11" lengthAdjust="spacing" textLength="198" x="29" y="191.1855">_unsetCommonHtmlElements() : void</text><rect fill="#F24D5C" height="6" style="stroke:#C82930;stroke-width:1.0;" width="6" x="17" y="197.5059"/><text fill="#000000" font-family="sans-serif" font-size="11" lengthAdjust="spacing" textLength="184" x="29" y="204.1406">_setCommonHtmlElements() : void</text><!--MD5=[70dfdd3864f3e0f1cada0be33fdea72b]
class INotification--><rect codeLine="71" fill="#FFFFFF" filter="url(#f14r2i8sl5pl5s)" height="190.5059" id="INotification" style="stroke:#272B30;stroke-width:1.5;" width="403" x="447" y="13"/><ellipse cx="610.75" cy="29" fill="#B4A7E5" rx="11" ry="11" style="stroke:#272B30;stroke-width:1.0;"/><path d="M607.1777,25.2651 L607.1777,23.1069 L614.5571,23.1069 L614.5571,25.2651 L612.0918,25.2651 L612.0918,33.3418 L614.5571,33.3418 L614.5571,35.5 L607.1777,35.5 L607.1777,33.3418 L609.6431,33.3418 L609.6431,25.2651 Z " fill="#000000"/><text fill="#000000" font-family="sans-serif" font-size="12" font-style="italic" lengthAdjust="spacing" textLength="67" x="631.25" y="33.5352">INotification</text><line style="stroke:#272B30;stroke-width:1.5;" x1="448" x2="849" y1="45" y2="45"/><ellipse cx="458" cy="56" rx="3" ry="3" style="stroke:#038048;stroke-width:1.0;fill:none;"/><text fill="#000000" font-family="sans-serif" font-size="11" lengthAdjust="spacing" textLength="84" x="467" y="59.6348">isBuilt : boolean</text><ellipse cx="458" cy="68.9551" rx="3" ry="3" style="stroke:#038048;stroke-width:1.0;fill:none;"/><text fill="#000000" font-family="sans-serif" font-size="11" lengthAdjust="spacing" textLength="142" x="467" y="72.5898">selfElement : HTMLElement</text><ellipse cx="458" cy="81.9102" rx="3" ry="3" style="stroke:#038048;stroke-width:1.0;fill:none;"/><text fill="#000000" font-family="sans-serif" font-size="11" lengthAdjust="spacing" textLength="88" x="467" y="85.5449">uniqueId : string</text><ellipse cx="458" cy="94.8652" rx="3" ry="3" style="stroke:#038048;stroke-width:1.0;fill:none;"/><text fill="#000000" font-family="sans-serif" font-size="11" lengthAdjust="spacing" textLength="86" x="467" y="98.5">widgetId : string</text><line style="stroke:#272B30;stroke-width:1.5;" x1="448" x2="849" y1="104.8203" y2="104.8203"/><ellipse cx="458" cy="115.8203" fill="#84BE84" rx="3" ry="3" style="stroke:#038048;stroke-width:1.0;"/><text fill="#000000" font-family="sans-serif" font-size="11" lengthAdjust="spacing" textLength="67" x="467" y="119.4551">build() : void</text><ellipse cx="458" cy="128.7754" fill="#84BE84" rx="3" ry="3" style="stroke:#038048;stroke-width:1.0;"/><text fill="#000000" font-family="sans-serif" font-size="11" lengthAdjust="spacing" textLength="377" x="467" y="132.4102">changeProperty(propertyName: string, propertyValue: unknown) : void</text><ellipse cx="458" cy="141.7305" fill="#84BE84" rx="3" ry="3" style="stroke:#038048;stroke-width:1.0;"/><text fill="#000000" font-family="sans-serif" font-size="11" lengthAdjust="spacing" textLength="82" x="467" y="145.3652">dispose() : void</text><ellipse cx="458" cy="154.6855" fill="#84BE84" rx="3" ry="3" style="stroke:#038048;stroke-width:1.0;"/><text fill="#000000" font-family="sans-serif" font-size="11" lengthAdjust="spacing" textLength="168" x="467" y="158.3203">equalsToID(id: string) : boolean</text><ellipse cx="458" cy="167.6406" fill="#84BE84" rx="3" ry="3" style="stroke:#038048;stroke-width:1.0;"/><text fill="#000000" font-family="sans-serif" font-size="11" lengthAdjust="spacing" textLength="63" x="467" y="171.2754">hide() : void</text><ellipse cx="458" cy="180.5957" fill="#84BE84" rx="3" ry="3" style="stroke:#038048;stroke-width:1.0;"/><text fill="#000000" font-family="sans-serif" font-size="11" lengthAdjust="spacing" textLength="335" x="467" y="184.2305">registerCallback(eventName: string, callback: OSGeneric) : void</text><ellipse cx="458" cy="193.5508" fill="#84BE84" rx="3" ry="3" style="stroke:#038048;stroke-width:1.0;"/><text fill="#000000" font-family="sans-serif" font-size="11" lengthAdjust="spacing" textLength="68" x="467" y="197.1855">show() : void</text><!--MD5=[0eba6ad72cee485a23268172bf76ada7]
class ISwipeEvent--><rect codeLine="85" fill="#FFFFFF" filter="url(#f14r2i8sl5pl5s)" height="99.8203" id="ISwipeEvent" style="stroke:#272B30;stroke-width:1.5;" width="803" x="885" y="58.5"/><ellipse cx="1248.75" cy="74.5" fill="#B4A7E5" rx="11" ry="11" style="stroke:#272B30;stroke-width:1.0;"/><path d="M1245.1777,70.7651 L1245.1777,68.6069 L1252.5571,68.6069 L1252.5571,70.7651 L1250.0918,70.7651 L1250.0918,78.8418 L1252.5571,78.8418 L1252.5571,81 L1245.1777,81 L1245.1777,78.8418 L1247.6431,78.8418 L1247.6431,70.7651 Z " fill="#000000"/><text fill="#000000" font-family="sans-serif" font-size="12" font-style="italic" lengthAdjust="spacing" textLength="67" x="1269.25" y="79.0352">ISwipeEvent</text><line style="stroke:#272B30;stroke-width:1.5;" x1="886" x2="1687" y1="90.5" y2="90.5"/><ellipse cx="896" cy="101.5" rx="3" ry="3" style="stroke:#038048;stroke-width:1.0;fill:none;"/><text fill="#000000" font-family="sans-serif" font-size="11" lengthAdjust="spacing" textLength="183" x="905" y="105.1348">gestureEventInstance : SwipeEvent</text><ellipse cx="896" cy="114.4551" rx="3" ry="3" style="stroke:#038048;stroke-width:1.0;fill:none;"/><text fill="#000000" font-family="sans-serif" font-size="11" lengthAdjust="spacing" textLength="148" x="905" y="118.0898">hasGestureEvents : boolean</text><line style="stroke:#272B30;stroke-width:1.5;" x1="886" x2="1687" y1="124.4102" y2="124.4102"/><ellipse cx="896" cy="135.4102" fill="#84BE84" rx="3" ry="3" style="stroke:#038048;stroke-width:1.0;"/><text fill="#000000" font-family="sans-serif" font-size="11" lengthAdjust="spacing" textLength="157" x="905" y="139.0449">removeGestureEvents() : void</text><ellipse cx="896" cy="148.3652" fill="#84BE84" rx="3" ry="3" style="stroke:#038048;stroke-width:1.0;"/><text fill="#000000" font-family="sans-serif" font-size="11" lengthAdjust="spacing" textLength="777" x="905" y="152">setGestureEvents(swipeDownCallback: SwipeDown, swipeLeftCallback: SwipeLeft, swipeRightCallback: SwipeRight, swipeUpCallback: SwipeUp) : any</text><!--MD5=[691de9383e0155b69cac60d57d2c29f7]
reverse link AbstractPattern<NotificationConfig> to Notification--><path codeLine="70" d="M314.2,225.04 C326.9,239.19 340.32,254.14 354.19,269.6 " fill="none" id="AbstractPattern&lt;NotificationConfig&gt;-backto-Notification" style="stroke:#272B30;stroke-width:1.0;"/><polygon fill="none" points="308.87,229.58,300.72,210.02,319.29,220.23,308.87,229.58" style="stroke:#272B30;stroke-width:1.0;"/><!--MD5=[8e72d689d6ccd37260087d14f507d6c8]
reverse link INotification to Notification--><path codeLine="84" d="M648.5,224.48 C648.5,238.77 648.5,253.89 648.5,269.53 " fill="none" id="INotification-backto-Notification" style="stroke:#272B30;stroke-width:1.0;stroke-dasharray:7.0,7.0;"/><polygon fill="none" points="641.5,224.17,648.5,204.17,655.5,224.17,641.5,224.17" style="stroke:#272B30;stroke-width:1.0;"/><!--MD5=[06948f93ca94cfdf9aee06c2ac99690e]
reverse link ISwipeEvent to Notification--><path codeLine="91" d="M1206.21,170.91 C1170.61,198.14 1125.74,232.46 1076.99,269.75 " fill="none" id="ISwipeEvent-backto-Notification" style="stroke:#272B30;stroke-width:1.0;stroke-dasharray:7.0,7.0;"/><polygon fill="none" points="1202.27,165.12,1222.4,158.53,1210.77,176.24,1202.27,165.12" style="stroke:#272B30;stroke-width:1.0;"/><!--MD5=[4b61d205bdd47a47b49dfe467c2be81f]
@startuml
skinparam ClassArrowColor #272b30
skinparam ClassBorderColor #272b30
skinparam ClassBackgroundColor #fff
skinparam BackgroundColor #ced4da
hide empty methods
hide empty fields
class "Notification" {
    #_selfElem : HTMLElement
    #_widgetId : string
    -_eventOnClick : Generic
    -_eventOnKeypress : Generic
    -_eventType : string
    -_focusableActiveElement : HTMLElement
    -_focusTrapInstance : FocusTrap
    -_gestureEventInstance : SwipeEvent
    -_hasGestureEvents : boolean
    -_isOpen : boolean
    -_parentSelf : HTMLElement
    -_platformEventOnInitialize : OSInitializedEvent
    -_platformEventOnToggle : OSOnToggleEvent
    +build() : void
    +changeProperty(propertyName: string, propertyValue: any) : void
    +dispose() : void
    +equalsToID(patternId: string) : boolean
    +hide() : void
    +onSwipeBottom() : void
    +onSwipeLeft() : void
    +onSwipeRight() : void
    +onSwipeUp() : void
    +registerCallback(eventName: string, callback: OSGeneric) : void
    +removeGestureEvents() : void
    +show() : void
    #finishBuild() : void
    #setA11YProperties() : void
    #setCallbacks() : void
    #setGestureEvents(onSwipeDownCallback: SwipeDown, onSwipeLeftCallback: SwipeLeft, onSwipeRightCallback: SwipeRight, onSwipeUpCallback: SwipeUp) : void
    #setHtmlElements() : void
    #setInitialStates() : void
    #unsetCallbacks() : void
    #unsetHtmlElements() : void
    -_autoCloseNotification() : void
    -_clickCallback(e: MouseEvent) : void
    -_handleFocusTrap() : void
    -_handleGestureEvents() : void
    -_hideNotification() : void
    -_keypressCallback(e: KeyboardEvent) : void
    -_removeEvents() : void
    -_showNotification() : void
    -_triggerOnToggleEvent(isOpen: boolean) : void
    -_updateA11yProperties() : void
    -_updateCloseAfterTime(value: number) : void
    -_updateInteractToClose(value: boolean) : void
    -_updatePosition(position: string) : void
    -_updateWidth(width: string) : void
}
abstract class "AbstractPattern<NotificationConfig>" {
    #_selfElem : HTMLElement
    #_widgetId : string
    -_configs : NotificationConfig
    -_isBuilt : boolean
    -_uniqueId : string
    +build() : void
    +changeProperty(propertyName: string, propertyValue: unknown) : void
    +dispose() : void
    +equalsToID(patternId: string) : boolean
    #finishBuild() : void
    #_unsetCommonHtmlElements() : void
    -_setCommonHtmlElements() : void
}
"AbstractPattern<NotificationConfig>" <|- - "Notification"
interface "INotification" {
    +isBuilt : boolean
    +selfElement : HTMLElement
    +uniqueId : string
    +widgetId : string
    +build() : void
    +changeProperty(propertyName: string, propertyValue: unknown) : void
    +dispose() : void
    +equalsToID(id: string) : boolean
    +hide() : void
    +registerCallback(eventName: string, callback: OSGeneric) : void
    +show() : void
}
"INotification" <|.. "Notification"
interface "ISwipeEvent" {
    +gestureEventInstance : SwipeEvent
    +hasGestureEvents : boolean
    +removeGestureEvents() : void
    +setGestureEvents(swipeDownCallback: SwipeDown, swipeLeftCallback: SwipeLeft, swipeRightCallback: SwipeRight, swipeUpCallback: SwipeUp) : any
}
"ISwipeEvent" <|.. "Notification"
@enduml

PlantUML version 1.2021.14(Fri Nov 12 16:46:50 WET 2021)
(GPL source distribution)
Java Runtime: Java(TM) SE Runtime Environment
JVM: Java HotSpot(TM) 64-Bit Server VM
Default Encoding: UTF-8
Language: en
Country: PT
--></g></svg>