<?xml version="1.0" encoding="us-ascii" standalone="no"?><svg xmlns="http://www.w3.org/2000/svg" xmlns:xlink="http://www.w3.org/1999/xlink" contentStyleType="text/css" height="561px" preserveAspectRatio="none" style="width:634px;height:561px;background:#CED4DA;" version="1.1" viewBox="0 0 634 561" width="634px" zoomAndPan="magnify"><defs/><g><rect fill="#CED4DA" height="561" style="stroke:none;stroke-width:1.0;" width="634" x="0" y="0"/><!--class NotificationConfig--><g id="elem_NotificationConfig"><rect codeLine="7" fill="#FFFFFF" height="292.4531" id="NotificationConfig" rx="2.5" ry="2.5" style="stroke:#272B30;stroke-width:0.5;" width="618" x="9" y="262"/><ellipse cx="253.75" cy="278" fill="#ADD1B2" rx="11" ry="11" style="stroke:#181818;stroke-width:1.0;"/><path d="M256.7188,283.6406 Q256.1406,283.9375 255.5,284.0781 Q254.8594,284.2344 254.1563,284.2344 Q251.6563,284.2344 250.3281,282.5938 Q249.0156,280.9375 249.0156,277.8125 Q249.0156,274.6875 250.3281,273.0313 Q251.6563,271.375 254.1563,271.375 Q254.8594,271.375 255.5,271.5313 Q256.1563,271.6875 256.7188,271.9844 L256.7188,274.7031 Q256.0938,274.125 255.5,273.8594 Q254.9063,273.5781 254.2813,273.5781 Q252.9375,273.5781 252.25,274.6563 Q251.5625,275.7188 251.5625,277.8125 Q251.5625,279.9063 252.25,280.9844 Q252.9375,282.0469 254.2813,282.0469 Q254.9063,282.0469 255.5,281.7813 Q256.0938,281.5 256.7188,280.9219 L256.7188,283.6406 Z " fill="#000000"/><text fill="#000000" font-family="sans-serif" font-size="14" lengthAdjust="spacing" textLength="120" x="274.25" y="282.8467">NotificationConfig</text><line style="stroke:#272B30;stroke-width:0.5;" x1="10" x2="626" y1="294" y2="294"/><ellipse cx="20" cy="307.6484" fill="none" rx="3" ry="3" style="stroke:#038048;stroke-width:1.0;"/><text fill="#000000" font-family="sans-serif" font-size="14" lengthAdjust="spacing" textLength="172" x="29" y="310.9951">CloseAfterTime : number</text><ellipse cx="20" cy="323.9453" fill="none" rx="3" ry="3" style="stroke:#038048;stroke-width:1.0;"/><text fill="#000000" font-family="sans-serif" font-size="14" lengthAdjust="spacing" textLength="155" x="29" y="327.292">ExtendedClass : string</text><ellipse cx="20" cy="340.2422" fill="none" rx="3" ry="3" style="stroke:#038048;stroke-width:1.0;"/><text fill="#000000" font-family="sans-serif" font-size="14" lengthAdjust="spacing" textLength="178" x="29" y="343.5889">InteractToClose : boolean</text><ellipse cx="20" cy="356.5391" fill="none" rx="3" ry="3" style="stroke:#038048;stroke-width:1.0;"/><text fill="#000000" font-family="sans-serif" font-size="14" lengthAdjust="spacing" textLength="163" x="29" y="359.8857">NeedsSwipes : boolean</text><ellipse cx="20" cy="372.8359" fill="none" rx="3" ry="3" style="stroke:#038048;stroke-width:1.0;"/><text fill="#000000" font-family="sans-serif" font-size="14" lengthAdjust="spacing" textLength="107" x="29" y="376.1826">Position : string</text><ellipse cx="20" cy="389.1328" fill="none" rx="3" ry="3" style="stroke:#038048;stroke-width:1.0;"/><text fill="#000000" font-family="sans-serif" font-size="14" lengthAdjust="spacing" textLength="147" x="29" y="392.4795">StartsOpen : boolean</text><ellipse cx="20" cy="405.4297" fill="none" rx="3" ry="3" style="stroke:#038048;stroke-width:1.0;"/><text fill="#000000" font-family="sans-serif" font-size="14" lengthAdjust="spacing" textLength="91" x="29" y="408.7764">Width : string</text><line style="stroke:#272B30;stroke-width:0.5;" x1="10" x2="626" y1="416.0781" y2="416.0781"/><ellipse cx="20" cy="429.7266" fill="#84BE84" rx="3" ry="3" style="stroke:#038048;stroke-width:1.0;"/><text fill="#000000" font-family="sans-serif" font-size="14" lengthAdjust="spacing" textLength="398" x="29" y="433.0732">validateCanChange(isBuilt: boolean, key: string) : boolean</text><ellipse cx="20" cy="446.0234" fill="#84BE84" rx="3" ry="3" style="stroke:#038048;stroke-width:1.0;"/><text fill="#000000" font-family="sans-serif" font-size="14" lengthAdjust="spacing" textLength="377" x="29" y="449.3701">validateDefault(key: string, value: unknown) : unknown</text><polygon fill="#FFFF44" points="20,457.3203,24,461.3203,20,465.3203,16,461.3203" style="stroke:#B38D22;stroke-width:1.0;"/><text fill="#000000" font-family="sans-serif" font-size="14" lengthAdjust="spacing" textLength="447" x="29" y="465.667">validateBoolean(value: boolean, defaultValue: boolean) : boolean</text><polygon fill="#FFFF44" points="20,473.6172,24,477.6172,20,481.6172,16,477.6172" style="stroke:#B38D22;stroke-width:1.0;"/><text fill="#000000" font-family="sans-serif" font-size="14" lengthAdjust="spacing" textLength="464" x="29" y="481.9639">validateDate(value: string | Date, defaultValue: string) : string | Date</text><polygon fill="#FFFF44" points="20,489.9141,24,493.9141,20,497.9141,16,493.9141" style="stroke:#B38D22;stroke-width:1.0;"/><text fill="#000000" font-family="sans-serif" font-size="14" lengthAdjust="spacing" textLength="592" x="29" y="498.2607">validateInRange(value: unknown, defaultValue: unknown, args: unknown[]) : unknown</text><polygon fill="#FFFF44" points="20,506.2109,24,510.2109,20,514.2109,16,510.2109" style="stroke:#B38D22;stroke-width:1.0;"/><text fill="#000000" font-family="sans-serif" font-size="14" lengthAdjust="spacing" textLength="439" x="29" y="514.5576">validateNumber(value: number, defaultValue: number) : number</text><polygon fill="#FFFF44" points="20,522.5078,24,526.5078,20,530.5078,16,526.5078" style="stroke:#B38D22;stroke-width:1.0;"/><text fill="#000000" font-family="sans-serif" font-size="14" lengthAdjust="spacing" textLength="379" x="29" y="530.8545">validateString(value: string, defaultValue: string) : string</text><polygon fill="#FFFF44" points="20,538.8047,24,542.8047,20,546.8047,16,542.8047" style="stroke:#B38D22;stroke-width:1.0;"/><text fill="#000000" font-family="sans-serif" font-size="14" lengthAdjust="spacing" textLength="373" x="29" y="547.1514">validateTime(value: string, defaultValue: string) : string</text></g><!--class AbstractConfiguration--><g id="elem_AbstractConfiguration"><rect codeLine="24" fill="#FFFFFF" height="194.6719" id="AbstractConfiguration" rx="2.5" ry="2.5" style="stroke:#272B30;stroke-width:0.5;" width="618" x="9" y="7"/><ellipse cx="239.25" cy="23" fill="#A9DCDF" rx="11" ry="11" style="stroke:#181818;stroke-width:1.0;"/><path d="M239.3594,18.3438 L238.2031,23.4219 L240.5313,23.4219 L239.3594,18.3438 Z M237.875,16.1094 L240.8594,16.1094 L244.2188,28.5 L241.7656,28.5 L241,25.4375 L237.7188,25.4375 L236.9688,28.5 L234.5313,28.5 L237.875,16.1094 Z " fill="#000000"/><text fill="#000000" font-family="sans-serif" font-size="14" font-style="italic" lengthAdjust="spacing" textLength="149" x="259.75" y="27.8467">AbstractConfiguration</text><line style="stroke:#272B30;stroke-width:0.5;" x1="10" x2="626" y1="39" y2="39"/><ellipse cx="20" cy="52.6484" fill="none" rx="3" ry="3" style="stroke:#038048;stroke-width:1.0;"/><text fill="#000000" font-family="sans-serif" font-size="14" lengthAdjust="spacing" textLength="155" x="29" y="55.9951">ExtendedClass : string</text><line style="stroke:#272B30;stroke-width:0.5;" x1="10" x2="626" y1="63.2969" y2="63.2969"/><ellipse cx="20" cy="76.9453" fill="#84BE84" rx="3" ry="3" style="stroke:#038048;stroke-width:1.0;"/><text fill="#000000" font-family="sans-serif" font-size="14" lengthAdjust="spacing" textLength="412" x="29" y="80.292">validateCanChange(_isBuilt: boolean, _key: string) : boolean</text><ellipse cx="20" cy="93.2422" fill="#84BE84" rx="3" ry="3" style="stroke:#038048;stroke-width:1.0;"/><text fill="#000000" font-family="sans-serif" font-size="14" lengthAdjust="spacing" textLength="384" x="29" y="96.5889">validateDefault(_key: string, value: unknown) : unknown</text><polygon fill="#FFFF44" points="20,104.5391,24,108.5391,20,112.5391,16,108.5391" style="stroke:#B38D22;stroke-width:1.0;"/><text fill="#000000" font-family="sans-serif" font-size="14" lengthAdjust="spacing" textLength="447" x="29" y="112.8857">validateBoolean(value: boolean, defaultValue: boolean) : boolean</text><polygon fill="#FFFF44" points="20,120.8359,24,124.8359,20,128.8359,16,124.8359" style="stroke:#B38D22;stroke-width:1.0;"/><text fill="#000000" font-family="sans-serif" font-size="14" lengthAdjust="spacing" textLength="464" x="29" y="129.1826">validateDate(value: string | Date, defaultValue: string) : string | Date</text><polygon fill="#FFFF44" points="20,137.1328,24,141.1328,20,145.1328,16,141.1328" style="stroke:#B38D22;stroke-width:1.0;"/><text fill="#000000" font-family="sans-serif" font-size="14" lengthAdjust="spacing" textLength="592" x="29" y="145.4795">validateInRange(value: unknown, defaultValue: unknown, args: unknown[]) : unknown</text><polygon fill="#FFFF44" points="20,153.4297,24,157.4297,20,161.4297,16,157.4297" style="stroke:#B38D22;stroke-width:1.0;"/><text fill="#000000" font-family="sans-serif" font-size="14" lengthAdjust="spacing" textLength="439" x="29" y="161.7764">validateNumber(value: number, defaultValue: number) : number</text><polygon fill="#FFFF44" points="20,169.7266,24,173.7266,20,177.7266,16,173.7266" style="stroke:#B38D22;stroke-width:1.0;"/><text fill="#000000" font-family="sans-serif" font-size="14" lengthAdjust="spacing" textLength="379" x="29" y="178.0732">validateString(value: string, defaultValue: string) : string</text><polygon fill="#FFFF44" points="20,186.0234,24,190.0234,20,194.0234,16,190.0234" style="stroke:#B38D22;stroke-width:1.0;"/><text fill="#000000" font-family="sans-serif" font-size="14" lengthAdjust="spacing" textLength="373" x="29" y="194.3701">validateTime(value: string, defaultValue: string) : string</text></g><!--reverse link AbstractConfiguration to NotificationConfig--><g id="link_AbstractConfiguration_NotificationConfig"><path codeLine="35" d="M318,220.14 C318,239.17 318,241.53 318,261.76 " fill="none" id="AbstractConfiguration-backto-NotificationConfig" style="stroke:#272B30;stroke-width:1.0;"/><polygon fill="none" points="318,202.14,312,220.14,324,220.14,318,202.14" style="stroke:#272B30;stroke-width:1.0;"/></g><!--SRC=[xLJFQy8m5BxthmXwKQOmt60WksZTmOiRKxR3698shsrecvGadPEv_trfqtOsJeVNiK8XUT-Fl5U-LCQKPLZW5Ba9bd8Y1D-uFE42TKSt8-_gqf5jnfGB0k8q1VjnA7ZEI4KBWc2FSm3xGAu9TY9A046QgIrAGKMSoFrIG27H5Ryu07KMND60-bXHpbpE0Xfsq8U3z7FX9bp2950WLZG5D4OiJpqG1hnxLy08aB9FZKabA0iDDcTQWtsrugM5HZtE4y3Cm0i08fSRce6qeGSkQT69PRXKM2Xvdm6p1S-KgCXYl-644gp0nSoDC0kXH-Kqfubgj0CKmxOMzMtFMZ-30EU9wkrn1qY3EOnHpcB6DwpGLijIswsrKsFOg-ZDkSHuFhNATWUDoqo_jOLf0ErGKRIDlYTfqTfkS_POVets2BPLKyOYbCtsvVNeg8io5RMhoOXjQghzTeOQXsNPStlGtoPiEnG1FLF_wM1FBtLCKNKL9jNUN8DSb7UYkGsd0d-OkFLXvDRdP6xz7xg_6RfZARlT3OS__es_0000]--></g></svg>