<?xml version="1.0" encoding="us-ascii" standalone="no"?><svg xmlns="http://www.w3.org/2000/svg" xmlns:xlink="http://www.w3.org/1999/xlink" contentStyleType="text/css" height="1209px" preserveAspectRatio="none" style="width:632px;height:1209px;background:#CED4DA;" version="1.1" viewBox="0 0 632 1209" width="632px" zoomAndPan="magnify"><defs/><g><rect fill="#CED4DA" height="1209" style="stroke:none;stroke-width:1.0;" width="632" x="0" y="0"/><!--class NoUiSliderSingleConfig--><g id="elem_NoUiSliderSingleConfig"><rect codeLine="7" fill="#FFFFFF" height="559.1367" id="NoUiSliderSingleConfig" rx="2.5" ry="2.5" style="stroke:#272B30;stroke-width:0.5;" width="616" x="9" y="643"/><ellipse cx="232.75" cy="659" fill="#ADD1B2" rx="11" ry="11" style="stroke:#181818;stroke-width:1.0;"/><path d="M235.2231,665.1431 Q234.6421,665.4419 234.0029,665.5913 Q233.3638,665.7407 232.6582,665.7407 Q230.1514,665.7407 228.8315,664.0889 Q227.5117,662.437 227.5117,659.3159 Q227.5117,656.1865 228.8315,654.5347 Q230.1514,652.8828 232.6582,652.8828 Q233.3638,652.8828 234.0112,653.0322 Q234.6587,653.1816 235.2231,653.4805 L235.2231,656.2031 Q234.5923,655.6221 233.9988,655.3523 Q233.4053,655.0825 232.7744,655.0825 Q231.4297,655.0825 230.7449,656.1492 Q230.0601,657.2158 230.0601,659.3159 Q230.0601,661.4077 230.7449,662.4744 Q231.4297,663.541 232.7744,663.541 Q233.4053,663.541 233.9988,663.2712 Q234.5923,663.0015 235.2231,662.4204 Z " fill="#000000"/><text fill="#000000" font-family="sans-serif" font-size="14" lengthAdjust="spacing" textLength="160" x="253.25" y="664.291">NoUiSliderSingleConfig</text><line style="stroke:#272B30;stroke-width:0.5;" x1="10" x2="624" y1="675" y2="675"/><ellipse cx="20" cy="688.7441" fill="none" rx="3" ry="3" style="stroke:#038048;stroke-width:1.0;"/><text fill="#000000" font-family="sans-serif" font-size="14" lengthAdjust="spacing" textLength="153" x="29" y="692.5352">ExtendedClass : string</text><ellipse cx="20" cy="705.2324" fill="none" rx="3" ry="3" style="stroke:#038048;stroke-width:1.0;"/><text fill="#000000" font-family="sans-serif" font-size="14" lengthAdjust="spacing" textLength="178" x="29" y="709.0234">InitialValueFrom : number</text><ellipse cx="20" cy="721.7207" fill="none" rx="3" ry="3" style="stroke:#038048;stroke-width:1.0;"/><text fill="#000000" font-family="sans-serif" font-size="14" lengthAdjust="spacing" textLength="160" x="29" y="725.5117">InitialValueTo : number</text><ellipse cx="20" cy="738.209" fill="none" rx="3" ry="3" style="stroke:#038048;stroke-width:1.0;"/><text fill="#000000" font-family="sans-serif" font-size="14" lengthAdjust="spacing" textLength="138" x="29" y="742">IsDisabled : boolean</text><ellipse cx="20" cy="754.6973" fill="none" rx="3" ry="3" style="stroke:#038048;stroke-width:1.0;"/><text fill="#000000" font-family="sans-serif" font-size="14" lengthAdjust="spacing" textLength="130" x="29" y="758.4883">IsInterval : boolean</text><ellipse cx="20" cy="771.1855" fill="none" rx="3" ry="3" style="stroke:#038048;stroke-width:1.0;"/><text fill="#000000" font-family="sans-serif" font-size="14" lengthAdjust="spacing" textLength="133" x="29" y="774.9766">MaxValue : number</text><ellipse cx="20" cy="787.6738" fill="none" rx="3" ry="3" style="stroke:#038048;stroke-width:1.0;"/><text fill="#000000" font-family="sans-serif" font-size="14" lengthAdjust="spacing" textLength="129" x="29" y="791.4648">MinValue : number</text><ellipse cx="20" cy="804.1621" fill="none" rx="3" ry="3" style="stroke:#038048;stroke-width:1.0;"/><text fill="#000000" font-family="sans-serif" font-size="14" lengthAdjust="spacing" textLength="114" x="29" y="807.9531">Orientation : any</text><ellipse cx="20" cy="820.6504" fill="none" rx="3" ry="3" style="stroke:#038048;stroke-width:1.0;"/><text fill="#000000" font-family="sans-serif" font-size="14" lengthAdjust="spacing" textLength="167" x="29" y="824.4414">rangeSliderMode : Mode</text><ellipse cx="20" cy="837.1387" fill="none" rx="3" ry="3" style="stroke:#038048;stroke-width:1.0;"/><text fill="#000000" font-family="sans-serif" font-size="14" lengthAdjust="spacing" textLength="197" x="29" y="840.9297">ShowFloatingLabel : boolean</text><ellipse cx="20" cy="853.627" fill="none" rx="3" ry="3" style="stroke:#038048;stroke-width:1.0;"/><text fill="#000000" font-family="sans-serif" font-size="14" lengthAdjust="spacing" textLength="174" x="29" y="857.418">ShowTickMarks : boolean</text><ellipse cx="20" cy="870.1152" fill="none" rx="3" ry="3" style="stroke:#038048;stroke-width:1.0;"/><text fill="#000000" font-family="sans-serif" font-size="14" lengthAdjust="spacing" textLength="80" x="29" y="873.9063">Size : string</text><ellipse cx="20" cy="886.6035" fill="none" rx="3" ry="3" style="stroke:#038048;stroke-width:1.0;"/><text fill="#000000" font-family="sans-serif" font-size="14" lengthAdjust="spacing" textLength="194" x="29" y="890.3945">StartingValueFrom : number</text><ellipse cx="20" cy="903.0918" fill="none" rx="3" ry="3" style="stroke:#038048;stroke-width:1.0;"/><text fill="#000000" font-family="sans-serif" font-size="14" lengthAdjust="spacing" textLength="176" x="29" y="906.8828">StartingValueTo : number</text><ellipse cx="20" cy="919.5801" fill="none" rx="3" ry="3" style="stroke:#038048;stroke-width:1.0;"/><text fill="#000000" font-family="sans-serif" font-size="14" lengthAdjust="spacing" textLength="96" x="29" y="923.3711">Step : number</text><ellipse cx="20" cy="936.0684" fill="none" rx="3" ry="3" style="stroke:#038048;stroke-width:1.0;"/><text fill="#000000" font-family="sans-serif" font-size="14" lengthAdjust="spacing" textLength="186" x="29" y="939.8594">TickMarksInterval : number</text><polygon fill="none" points="20,947.5566,24,951.5566,20,955.5566,16,951.5566" style="stroke:#B38D22;stroke-width:1.0;"/><text fill="#000000" font-family="sans-serif" font-size="14" lengthAdjust="spacing" textLength="243" x="29" y="956.3477">providerExtendedOptions : Options</text><line style="stroke:#272B30;stroke-width:0.5;" x1="10" x2="624" y1="963.3008" y2="963.3008"/><ellipse cx="20" cy="977.0449" fill="#84BE84" rx="3" ry="3" style="stroke:#038048;stroke-width:1.0;"/><text fill="#000000" font-family="sans-serif" font-size="14" lengthAdjust="spacing" textLength="146" x="29" y="980.8359">getPipsConfig() : Pips</text><ellipse cx="20" cy="993.5332" fill="#84BE84" rx="3" ry="3" style="stroke:#038048;stroke-width:1.0;"/><text fill="#000000" font-family="sans-serif" font-size="14" lengthAdjust="spacing" textLength="201" x="29" y="997.3242">getProviderConfig() : Options</text><ellipse cx="20" cy="1010.0215" fill="#84BE84" rx="3" ry="3" style="stroke:#038048;stroke-width:1.0;"/><text fill="#000000" font-family="sans-serif" font-size="14" lengthAdjust="spacing" textLength="176" x="29" y="1013.8125">getRangeConfig() : Range</text><ellipse cx="20" cy="1026.5098" fill="#84BE84" rx="3" ry="3" style="stroke:#038048;stroke-width:1.0;"/><text fill="#000000" font-family="sans-serif" font-size="14" lengthAdjust="spacing" textLength="166" x="29" y="1030.3008">getTooltipFormat() : any</text><ellipse cx="20" cy="1042.998" fill="#84BE84" rx="3" ry="3" style="stroke:#038048;stroke-width:1.0;"/><text fill="#000000" font-family="sans-serif" font-size="14" lengthAdjust="spacing" textLength="350" x="29" y="1046.7891">setExtensibilityConfigs(newConfigs: Options) : void</text><ellipse cx="20" cy="1059.4863" fill="#84BE84" rx="3" ry="3" style="stroke:#038048;stroke-width:1.0;"/><text fill="#000000" font-family="sans-serif" font-size="14" lengthAdjust="spacing" textLength="409" x="29" y="1063.2773">validateCanChange(_isBuilt: boolean, _key: string) : boolean</text><ellipse cx="20" cy="1075.9746" fill="#84BE84" rx="3" ry="3" style="stroke:#038048;stroke-width:1.0;"/><text fill="#000000" font-family="sans-serif" font-size="14" lengthAdjust="spacing" textLength="375" x="29" y="1079.7656">validateDefault(key: string, value: unknown) : unknown</text><polygon fill="#FFFF44" points="20,1087.4629,24,1091.4629,20,1095.4629,16,1091.4629" style="stroke:#B38D22;stroke-width:1.0;"/><text fill="#000000" font-family="sans-serif" font-size="14" lengthAdjust="spacing" textLength="590" x="29" y="1096.2539">mergeConfigs(commonConfigs: any, specificConfigs: any, extendedConfigs: any) : any</text><polygon fill="#FFFF44" points="20,1103.9512,24,1107.9512,20,1111.9512,16,1107.9512" style="stroke:#B38D22;stroke-width:1.0;"/><text fill="#000000" font-family="sans-serif" font-size="14" lengthAdjust="spacing" textLength="444" x="29" y="1112.7422">validateBoolean(value: boolean, defaultValue: boolean) : boolean</text><polygon fill="#FFFF44" points="20,1120.4395,24,1124.4395,20,1128.4395,16,1124.4395" style="stroke:#B38D22;stroke-width:1.0;"/><text fill="#000000" font-family="sans-serif" font-size="14" lengthAdjust="spacing" textLength="460" x="29" y="1129.2305">validateDate(value: string | Date, defaultValue: string) : string | Date</text><polygon fill="#FFFF44" points="20,1136.9277,24,1140.9277,20,1144.9277,16,1140.9277" style="stroke:#B38D22;stroke-width:1.0;"/><text fill="#000000" font-family="sans-serif" font-size="14" lengthAdjust="spacing" textLength="589" x="29" y="1145.7188">validateInRange(value: unknown, defaultValue: unknown, args: unknown[]) : unknown</text><polygon fill="#FFFF44" points="20,1153.416,24,1157.416,20,1161.416,16,1157.416" style="stroke:#B38D22;stroke-width:1.0;"/><text fill="#000000" font-family="sans-serif" font-size="14" lengthAdjust="spacing" textLength="438" x="29" y="1162.207">validateNumber(value: number, defaultValue: number) : number</text><polygon fill="#FFFF44" points="20,1169.9043,24,1173.9043,20,1177.9043,16,1173.9043" style="stroke:#B38D22;stroke-width:1.0;"/><text fill="#000000" font-family="sans-serif" font-size="14" lengthAdjust="spacing" textLength="382" x="29" y="1178.6953">validateString(value: string, defaultValue: string) : string</text><polygon fill="#FFFF44" points="20,1186.3926,24,1190.3926,20,1194.3926,16,1190.3926" style="stroke:#B38D22;stroke-width:1.0;"/><text fill="#000000" font-family="sans-serif" font-size="14" lengthAdjust="spacing" textLength="375" x="29" y="1195.1836">validateTime(value: string, defaultValue: string) : string</text></g><!--class AbstractNoUiSliderConfig--><g id="elem_AbstractNoUiSliderConfig"><rect codeLine="40" fill="#FFFFFF" height="575.625" id="AbstractNoUiSliderConfig" rx="2.5" ry="2.5" style="stroke:#272B30;stroke-width:0.5;" width="616" x="9" y="7"/><ellipse cx="225.25" cy="23" fill="#A9DCDF" rx="11" ry="11" style="stroke:#181818;stroke-width:1.0;"/><path d="M225.1133,18.3481 L223.9595,23.4199 L226.2754,23.4199 Z M223.6191,16.1069 L226.6157,16.1069 L229.9609,28.5 L227.5122,28.5 L226.7485,25.437 L223.4697,25.437 L222.7227,28.5 L220.2739,28.5 Z " fill="#000000"/><text fill="#000000" font-family="sans-serif" font-size="14" font-style="italic" lengthAdjust="spacing" textLength="175" x="245.75" y="28.291">AbstractNoUiSliderConfig</text><line style="stroke:#272B30;stroke-width:0.5;" x1="10" x2="624" y1="39" y2="39"/><ellipse cx="20" cy="52.7441" fill="none" rx="3" ry="3" style="stroke:#038048;stroke-width:1.0;"/><text fill="#000000" font-family="sans-serif" font-size="14" lengthAdjust="spacing" textLength="153" x="29" y="56.5352">ExtendedClass : string</text><ellipse cx="20" cy="69.2324" fill="none" rx="3" ry="3" style="stroke:#038048;stroke-width:1.0;"/><text fill="#000000" font-family="sans-serif" font-size="14" lengthAdjust="spacing" textLength="178" x="29" y="73.0234">InitialValueFrom : number</text><ellipse cx="20" cy="85.7207" fill="none" rx="3" ry="3" style="stroke:#038048;stroke-width:1.0;"/><text fill="#000000" font-family="sans-serif" font-size="14" lengthAdjust="spacing" textLength="160" x="29" y="89.5117">InitialValueTo : number</text><ellipse cx="20" cy="102.209" fill="none" rx="3" ry="3" style="stroke:#038048;stroke-width:1.0;"/><text fill="#000000" font-family="sans-serif" font-size="14" lengthAdjust="spacing" textLength="138" x="29" y="106">IsDisabled : boolean</text><ellipse cx="20" cy="118.6973" fill="none" rx="3" ry="3" style="stroke:#038048;stroke-width:1.0;"/><text fill="#000000" font-family="sans-serif" font-size="14" lengthAdjust="spacing" textLength="130" x="29" y="122.4883">IsInterval : boolean</text><ellipse cx="20" cy="135.1855" fill="none" rx="3" ry="3" style="stroke:#038048;stroke-width:1.0;"/><text fill="#000000" font-family="sans-serif" font-size="14" lengthAdjust="spacing" textLength="133" x="29" y="138.9766">MaxValue : number</text><ellipse cx="20" cy="151.6738" fill="none" rx="3" ry="3" style="stroke:#038048;stroke-width:1.0;"/><text fill="#000000" font-family="sans-serif" font-size="14" lengthAdjust="spacing" textLength="129" x="29" y="155.4648">MinValue : number</text><ellipse cx="20" cy="168.1621" fill="none" rx="3" ry="3" style="stroke:#038048;stroke-width:1.0;"/><text fill="#000000" font-family="sans-serif" font-size="14" lengthAdjust="spacing" textLength="114" x="29" y="171.9531">Orientation : any</text><ellipse cx="20" cy="184.6504" fill="none" rx="3" ry="3" style="stroke:#038048;stroke-width:1.0;"/><text fill="#000000" font-family="sans-serif" font-size="14" lengthAdjust="spacing" textLength="167" x="29" y="188.4414">rangeSliderMode : Mode</text><ellipse cx="20" cy="201.1387" fill="none" rx="3" ry="3" style="stroke:#038048;stroke-width:1.0;"/><text fill="#000000" font-family="sans-serif" font-size="14" lengthAdjust="spacing" textLength="197" x="29" y="204.9297">ShowFloatingLabel : boolean</text><ellipse cx="20" cy="217.627" fill="none" rx="3" ry="3" style="stroke:#038048;stroke-width:1.0;"/><text fill="#000000" font-family="sans-serif" font-size="14" lengthAdjust="spacing" textLength="174" x="29" y="221.418">ShowTickMarks : boolean</text><ellipse cx="20" cy="234.1152" fill="none" rx="3" ry="3" style="stroke:#038048;stroke-width:1.0;"/><text fill="#000000" font-family="sans-serif" font-size="14" lengthAdjust="spacing" textLength="80" x="29" y="237.9063">Size : string</text><ellipse cx="20" cy="250.6035" fill="none" rx="3" ry="3" style="stroke:#038048;stroke-width:1.0;"/><text fill="#000000" font-family="sans-serif" font-size="14" lengthAdjust="spacing" textLength="194" x="29" y="254.3945">StartingValueFrom : number</text><ellipse cx="20" cy="267.0918" fill="none" rx="3" ry="3" style="stroke:#038048;stroke-width:1.0;"/><text fill="#000000" font-family="sans-serif" font-size="14" lengthAdjust="spacing" textLength="176" x="29" y="270.8828">StartingValueTo : number</text><ellipse cx="20" cy="283.5801" fill="none" rx="3" ry="3" style="stroke:#038048;stroke-width:1.0;"/><text fill="#000000" font-family="sans-serif" font-size="14" lengthAdjust="spacing" textLength="96" x="29" y="287.3711">Step : number</text><ellipse cx="20" cy="300.0684" fill="none" rx="3" ry="3" style="stroke:#038048;stroke-width:1.0;"/><text fill="#000000" font-family="sans-serif" font-size="14" lengthAdjust="spacing" textLength="186" x="29" y="303.8594">TickMarksInterval : number</text><polygon fill="none" points="20,311.5566,24,315.5566,20,319.5566,16,315.5566" style="stroke:#B38D22;stroke-width:1.0;"/><text fill="#000000" font-family="sans-serif" font-size="14" lengthAdjust="spacing" textLength="243" x="29" y="320.3477">providerExtendedOptions : Options</text><rect fill="none" height="6" style="stroke:#C82930;stroke-width:1.0;" width="6" x="17" y="330.0449"/><text fill="#000000" font-family="sans-serif" font-size="14" lengthAdjust="spacing" textLength="185" x="29" y="336.8359">_providerOptions : Options</text><line style="stroke:#272B30;stroke-width:0.5;" x1="10" x2="624" y1="343.7891" y2="343.7891"/><ellipse cx="20" cy="357.5332" fill="#84BE84" rx="3" ry="3" style="stroke:#038048;stroke-width:1.0;"/><text fill="#000000" font-family="sans-serif" font-size="14" lengthAdjust="spacing" textLength="146" x="29" y="361.3242">getPipsConfig() : Pips</text><ellipse cx="20" cy="374.0215" fill="#84BE84" rx="3" ry="3" style="stroke:#038048;stroke-width:1.0;"/><text fill="#000000" font-family="sans-serif" font-size="14" lengthAdjust="spacing" textLength="201" x="29" y="377.8125">getProviderConfig() : Options</text><ellipse cx="20" cy="390.5098" fill="#84BE84" rx="3" ry="3" style="stroke:#038048;stroke-width:1.0;"/><text fill="#000000" font-family="sans-serif" font-size="14" lengthAdjust="spacing" textLength="176" x="29" y="394.3008">getRangeConfig() : Range</text><ellipse cx="20" cy="406.998" fill="#84BE84" rx="3" ry="3" style="stroke:#038048;stroke-width:1.0;"/><text fill="#000000" font-family="sans-serif" font-size="14" lengthAdjust="spacing" textLength="166" x="29" y="410.7891">getTooltipFormat() : any</text><ellipse cx="20" cy="423.4863" fill="#84BE84" rx="3" ry="3" style="stroke:#038048;stroke-width:1.0;"/><text fill="#000000" font-family="sans-serif" font-size="14" lengthAdjust="spacing" textLength="350" x="29" y="427.2773">setExtensibilityConfigs(newConfigs: Options) : void</text><ellipse cx="20" cy="439.9746" fill="#84BE84" rx="3" ry="3" style="stroke:#038048;stroke-width:1.0;"/><text fill="#000000" font-family="sans-serif" font-size="14" lengthAdjust="spacing" textLength="409" x="29" y="443.7656">validateCanChange(_isBuilt: boolean, _key: string) : boolean</text><ellipse cx="20" cy="456.4629" fill="#84BE84" rx="3" ry="3" style="stroke:#038048;stroke-width:1.0;"/><text fill="#000000" font-family="sans-serif" font-size="14" lengthAdjust="spacing" textLength="375" x="29" y="460.2539">validateDefault(key: string, value: unknown) : unknown</text><polygon fill="#FFFF44" points="20,467.9512,24,471.9512,20,475.9512,16,471.9512" style="stroke:#B38D22;stroke-width:1.0;"/><text fill="#000000" font-family="sans-serif" font-size="14" lengthAdjust="spacing" textLength="590" x="29" y="476.7422">mergeConfigs(commonConfigs: any, specificConfigs: any, extendedConfigs: any) : any</text><polygon fill="#FFFF44" points="20,484.4395,24,488.4395,20,492.4395,16,488.4395" style="stroke:#B38D22;stroke-width:1.0;"/><text fill="#000000" font-family="sans-serif" font-size="14" lengthAdjust="spacing" textLength="444" x="29" y="493.2305">validateBoolean(value: boolean, defaultValue: boolean) : boolean</text><polygon fill="#FFFF44" points="20,500.9277,24,504.9277,20,508.9277,16,504.9277" style="stroke:#B38D22;stroke-width:1.0;"/><text fill="#000000" font-family="sans-serif" font-size="14" lengthAdjust="spacing" textLength="460" x="29" y="509.7188">validateDate(value: string | Date, defaultValue: string) : string | Date</text><polygon fill="#FFFF44" points="20,517.416,24,521.416,20,525.416,16,521.416" style="stroke:#B38D22;stroke-width:1.0;"/><text fill="#000000" font-family="sans-serif" font-size="14" lengthAdjust="spacing" textLength="589" x="29" y="526.207">validateInRange(value: unknown, defaultValue: unknown, args: unknown[]) : unknown</text><polygon fill="#FFFF44" points="20,533.9043,24,537.9043,20,541.9043,16,537.9043" style="stroke:#B38D22;stroke-width:1.0;"/><text fill="#000000" font-family="sans-serif" font-size="14" lengthAdjust="spacing" textLength="438" x="29" y="542.6953">validateNumber(value: number, defaultValue: number) : number</text><polygon fill="#FFFF44" points="20,550.3926,24,554.3926,20,558.3926,16,554.3926" style="stroke:#B38D22;stroke-width:1.0;"/><text fill="#000000" font-family="sans-serif" font-size="14" lengthAdjust="spacing" textLength="382" x="29" y="559.1836">validateString(value: string, defaultValue: string) : string</text><polygon fill="#FFFF44" points="20,566.8809,24,570.8809,20,574.8809,16,570.8809" style="stroke:#B38D22;stroke-width:1.0;"/><text fill="#000000" font-family="sans-serif" font-size="14" lengthAdjust="spacing" textLength="375" x="29" y="575.6719">validateTime(value: string, defaultValue: string) : string</text></g><!--reverse link AbstractNoUiSliderConfig to NoUiSliderSingleConfig--><g id="link_AbstractNoUiSliderConfig_NoUiSliderSingleConfig"><path codeLine="74" d="M317,603.22 C317,616.48 317,629.76 317,642.95 " fill="none" id="AbstractNoUiSliderConfig-backto-NoUiSliderSingleConfig" style="stroke:#272B30;stroke-width:1.0;"/><polygon fill="none" points="310,603.12,317,583.12,324,603.12,310,603.12" style="stroke:#272B30;stroke-width:1.0;"/></g><!--SRC=[xLPDYzim4BtdLuZDnQ49b6sXiFIoIHe8DBkbIVTIIf2jiJDObeoa99js-zyhMRRZZ-wMGaybXc1ftipJp1jvY4vHv5JHZCmurVfMANcSIIuL6Lw_kmxVl1xejiTKAWRgPHSQfOcIUy5AjpYE6puzE0Bsbj713XaGo79p8XcOdMIwQOeHkBL4xW1oTIU_u9fRLArH91ncKiION94V0sAVLnyU3GW6h4Y7t11jb7Nps5AWGSeVAD_3GidCmcAVXQ3wy4PsGJr7JKCEp0AXb1oeg92bCA0Eb7UH5Nqio3fKAnI_Czyh166eGIaiGiN9cnKL2VY2LvAv8FVos7edZmikROn8Fj8GUXauXmr6wOggLFT0_0uTXTQ6AaVsd4GjlAVHsa3UCTM7DpHguCDSoOChhMhRVUxgTwcMAq-JWFc4kVQz3aOMTjipLh8qy6xuPoTZ0o_sDRgnkXZC5r9br1HuhRy6KoIdCKIEvkGvT23WM2xhmrpSGIBpWRPOPDJ0Z8hPpfqMR55FzyXDtOSnsQPmgbemwZQeOfX3JFVS10tVCJcu5joGlKY5F0eNMowzi1cegbuTH3BBfAZJjRMDYSuXmXYZjXMgpwTXRSenh7AQ-aI3Cesw8EPpVMYPkvNLB7FxgoXyOUI9E6ENwAnGowtDjXH5LuEsD5sgsaoLAx3SVltMax2YlIlkQyNgRs-Nr5j7dTjTCQoBdDk5_gd2DiC6C_ZB-9y36jebZGmfH-TjkJ-FqClm_F-7vsHR-Ls6wsMuNeRhFngkBqpJzq-JoRD_L7y1]--></g></svg>