<?xml version="1.0" encoding="us-ascii" standalone="no"?><svg xmlns="http://www.w3.org/2000/svg" xmlns:xlink="http://www.w3.org/1999/xlink" contentStyleType="text/css" height="341px" preserveAspectRatio="none" style="width:667px;height:341px;background:#CED4DA;" version="1.1" viewBox="0 0 667 341" width="667px" zoomAndPan="magnify"><defs/><g><rect fill="#CED4DA" height="341" style="stroke:none;stroke-width:1.0;" width="667" x="0" y="0"/><!--class ObserverManager--><g id="elem_ObserverManager"><rect codeLine="7" fill="#FFFFFF" height="121.4844" id="ObserverManager" rx="2.5" ry="2.5" style="stroke:#272B30;stroke-width:0.5;" width="651" x="9" y="213"/><ellipse cx="268.75" cy="229" fill="#ADD1B2" rx="11" ry="11" style="stroke:#181818;stroke-width:1.0;"/><path d="M271.7188,234.6406 Q271.1406,234.9375 270.5,235.0781 Q269.8594,235.2344 269.1563,235.2344 Q266.6563,235.2344 265.3281,233.5938 Q264.0156,231.9375 264.0156,228.8125 Q264.0156,225.6875 265.3281,224.0313 Q266.6563,222.375 269.1563,222.375 Q269.8594,222.375 270.5,222.5313 Q271.1563,222.6875 271.7188,222.9844 L271.7188,225.7031 Q271.0938,225.125 270.5,224.8594 Q269.9063,224.5781 269.2813,224.5781 Q267.9375,224.5781 267.25,225.6563 Q266.5625,226.7188 266.5625,228.8125 Q266.5625,230.9063 267.25,231.9844 Q267.9375,233.0469 269.2813,233.0469 Q269.9063,233.0469 270.5,232.7813 Q271.0938,232.5 271.7188,231.9219 L271.7188,234.6406 Z " fill="#000000"/><text fill="#000000" font-family="sans-serif" font-size="14" lengthAdjust="spacing" textLength="123" x="289.25" y="233.8467">ObserverManager</text><line style="stroke:#272B30;stroke-width:0.5;" x1="10" x2="659" y1="245" y2="245"/><ellipse cx="20" cy="258.6484" fill="#84BE84" rx="3" ry="3" style="stroke:#038048;stroke-width:1.0;"/><text fill="#000000" font-family="sans-serif" font-size="14" lengthAdjust="spacing" textLength="399" x="29" y="261.9951">addHandler(eventType: unknown, handler: Generic) : void</text><ellipse cx="20" cy="274.9453" fill="#84BE84" rx="3" ry="3" style="stroke:#038048;stroke-width:1.0;"/><text fill="#000000" font-family="sans-serif" font-size="14" lengthAdjust="spacing" textLength="311" x="29" y="278.292">hasHandlers(eventType: unknown) : boolean</text><ellipse cx="20" cy="291.2422" fill="#84BE84" rx="3" ry="3" style="stroke:#038048;stroke-width:1.0;"/><text fill="#000000" font-family="sans-serif" font-size="14" lengthAdjust="spacing" textLength="425" x="29" y="294.5889">removeHandler(eventType: unknown, handler: Generic) : void</text><ellipse cx="20" cy="307.5391" fill="#84BE84" rx="3" ry="3" style="stroke:#038048;stroke-width:1.0;"/><text fill="#000000" font-family="sans-serif" font-size="14" lengthAdjust="spacing" textLength="449" x="29" y="310.8857">trigger(eventType: unknown, data: string, args: unknown[]) : void</text><polygon fill="#FFFF44" points="20,318.8359,24,322.8359,20,326.8359,16,322.8359" style="stroke:#B38D22;stroke-width:1.0;"/><text fill="#000000" font-family="sans-serif" font-size="14" lengthAdjust="spacing" textLength="625" x="29" y="327.1826">getInstanceOfEventType(observerType: ObserverEvent) : IObserver&lt;unknown, unknown&gt;</text></g><!--class AbstractEventsManager<unknown, string>--><g id="elem_AbstractEventsManager&lt;unknown, string&gt;"><rect codeLine="14" fill="#FFFFFF" height="145.7813" id="AbstractEventsManager&lt;unknown, string&gt;" rx="2.5" ry="2.5" style="stroke:#272B30;stroke-width:0.5;" width="475" x="97" y="7"/><ellipse cx="181.25" cy="23" fill="#A9DCDF" rx="11" ry="11" style="stroke:#181818;stroke-width:1.0;"/><path d="M181.3594,18.3438 L180.2031,23.4219 L182.5313,23.4219 L181.3594,18.3438 Z M179.875,16.1094 L182.8594,16.1094 L186.2188,28.5 L183.7656,28.5 L183,25.4375 L179.7188,25.4375 L178.9688,28.5 L176.5313,28.5 L179.875,16.1094 Z " fill="#000000"/><text fill="#000000" font-family="sans-serif" font-size="14" font-style="italic" lengthAdjust="spacing" textLength="298" x="201.75" y="27.8467">AbstractEventsManager&lt;unknown, string&gt;</text><line style="stroke:#272B30;stroke-width:0.5;" x1="98" x2="571" y1="39" y2="39"/><rect fill="none" height="6" style="stroke:#C82930;stroke-width:1.0;" width="6" x="105" y="49.6484"/><text fill="#000000" font-family="sans-serif" font-size="14" lengthAdjust="spacing" textLength="297" x="117" y="55.9951">_events : Map&lt;unknown, IEvent&lt;string&gt;&gt;</text><line style="stroke:#272B30;stroke-width:0.5;" x1="98" x2="571" y1="63.2969" y2="63.2969"/><ellipse cx="108" cy="76.9453" fill="#84BE84" rx="3" ry="3" style="stroke:#038048;stroke-width:1.0;"/><text fill="#000000" font-family="sans-serif" font-size="14" lengthAdjust="spacing" textLength="399" x="117" y="80.292">addHandler(eventType: unknown, handler: Generic) : void</text><ellipse cx="108" cy="93.2422" fill="#84BE84" rx="3" ry="3" style="stroke:#038048;stroke-width:1.0;"/><text fill="#000000" font-family="sans-serif" font-size="14" lengthAdjust="spacing" textLength="311" x="117" y="96.5889">hasHandlers(eventType: unknown) : boolean</text><ellipse cx="108" cy="109.5391" fill="#84BE84" rx="3" ry="3" style="stroke:#038048;stroke-width:1.0;"/><text fill="#000000" font-family="sans-serif" font-size="14" lengthAdjust="spacing" textLength="425" x="117" y="112.8857">removeHandler(eventType: unknown, handler: Generic) : void</text><ellipse cx="108" cy="125.8359" fill="#84BE84" rx="3" ry="3" style="stroke:#038048;stroke-width:1.0;"/><text fill="#000000" font-family="sans-serif" font-size="14" lengthAdjust="spacing" textLength="449" x="117" y="129.1826">trigger(eventType: unknown, data: string, args: unknown[]) : void</text><polygon fill="#FFFF44" points="108,137.1328,112,141.1328,108,145.1328,104,141.1328" style="stroke:#B38D22;stroke-width:1.0;"/><text fill="#000000" font-family="sans-serif" font-size="14" font-style="italic" lengthAdjust="spacing" textLength="449" x="117" y="145.4795">getInstanceOfEventType(eventType: unknown) : IEvent&lt;string&gt;</text></g><!--reverse link AbstractEventsManager<unknown, string> to ObserverManager--><g id="link_AbstractEventsManager&lt;unknown, string&gt;_ObserverManager"><path codeLine="22" d="M334.5,171.13 C334.5,190.85 334.5,193.99 334.5,212.93 " fill="none" id="AbstractEventsManager&lt;unknown, string&gt;-backto-ObserverManager" style="stroke:#272B30;stroke-width:1.0;"/><polygon fill="none" points="334.5,153.13,328.5,171.13,340.5,171.13,334.5,153.13" style="stroke:#272B30;stroke-width:1.0;"/></g><!--SRC=[vLDDQy904BtdLmnwiLIXs48X1C5AQJs8bzvAAPFiP1DCTiFi6X7hVszCDdwWbj9hzxGxyzwytVTOiqXLWOmvJ38qPioiLnETQORky74OtjzvvXJnf5aG_mp1Q25PBvLmi3YEZp1dxOZ4Wq0lIGK1vOLTGqusqS8Sb-AKigeIxGIWCmyDSKayGuMIk0CR3wfrYqAyeX8PSOzAKlPjNP0FIxLGUgNwa3Gz7rv84QVH3VXGwbGqv0ID8viBx1qsr3eZL0sSATSb_LtESYhb5QP0YpwO2g9a7v2bsJVVFqx6T2NPgJ8MLKJp-BcTrTFEeMPmwrVTt_6dRINOQxhDoDjw65RI65bmTe_TkQORP_g1sTnprAOm-AoVP2gP6HO7sBIc1muz-g-9RLftjrV3k_oMK_-gc7wTI_0r69n_ccy0]--></g></svg>