<?xml version="1.0" encoding="UTF-8" standalone="no"?><svg xmlns="http://www.w3.org/2000/svg" xmlns:xlink="http://www.w3.org/1999/xlink" contentScriptType="application/ecmascript" contentStyleType="text/css" height="284px" preserveAspectRatio="none" style="width:294px;height:284px;background:#CED4DA;" version="1.1" viewBox="0 0 294 284" width="294px" zoomAndPan="magnify"><defs><filter height="300%" id="fg4i9a0ztp2qb" width="300%" x="-1" y="-1"><feGaussianBlur result="blurOut" stdDeviation="2.0"/><feColorMatrix in="blurOut" result="blurOut2" type="matrix" values="0 0 0 0 0 0 0 0 0 0 0 0 0 0 0 0 0 0 .4 0"/><feOffset dx="4.0" dy="4.0" in="blurOut2" result="blurOut3"/><feBlend in="SourceGraphic" in2="blurOut3" mode="normal"/></filter></defs><g><!--MD5=[f7b1256a464262a81d5827fb39e684fb]
class Open--><rect codeLine="7" fill="#FFFFFF" filter="url(#fg4i9a0ztp2qb)" height="91.2188" id="Open" style="stroke:#272B30;stroke-width:1.5;" width="273" x="7" y="179"/><ellipse cx="122.75" cy="195" fill="#ADD1B2" rx="11" ry="11" style="stroke:#272B30;stroke-width:1.0;"/><path d="M125.7188,200.6406 Q125.1406,200.9375 124.5,201.0781 Q123.8594,201.2344 123.1563,201.2344 Q120.6563,201.2344 119.3281,199.5938 Q118.0156,197.9375 118.0156,194.8125 Q118.0156,191.6875 119.3281,190.0313 Q120.6563,188.375 123.1563,188.375 Q123.8594,188.375 124.5,188.5313 Q125.1563,188.6875 125.7188,188.9844 L125.7188,191.7031 Q125.0938,191.125 124.5,190.8594 Q123.9063,190.5781 123.2813,190.5781 Q121.9375,190.5781 121.25,191.6563 Q120.5625,192.7188 120.5625,194.8125 Q120.5625,196.9063 121.25,197.9844 Q121.9375,199.0469 123.2813,199.0469 Q123.9063,199.0469 124.5,198.7813 Q125.0938,198.5 125.7188,197.9219 L125.7188,200.6406 Z " fill="#000000"/><text fill="#000000" font-family="sans-serif" font-size="12" lengthAdjust="spacing" textLength="33" x="143.25" y="199.1543">Open</text><line style="stroke:#272B30;stroke-width:1.5;" x1="8" x2="279" y1="211" y2="211"/><ellipse cx="18" cy="222" fill="#84BE84" rx="3" ry="3" style="stroke:#038048;stroke-width:1.0;"/><text fill="#000000" font-family="sans-serif" font-size="11" lengthAdjust="spacing" textLength="220" x="27" y="225.2104">addHandler(handler: OSGeneric) : void</text><ellipse cx="18" cy="234.8047" fill="#84BE84" rx="3" ry="3" style="stroke:#038048;stroke-width:1.0;"/><text fill="#000000" font-family="sans-serif" font-size="11" lengthAdjust="spacing" textLength="137" x="27" y="238.0151">hasHandlers() : boolean</text><ellipse cx="18" cy="247.6094" fill="#84BE84" rx="3" ry="3" style="stroke:#038048;stroke-width:1.0;"/><text fill="#000000" font-family="sans-serif" font-size="11" lengthAdjust="spacing" textLength="242" x="27" y="250.8198">removeHandler(handler: OSGeneric) : void</text><ellipse cx="18" cy="260.4141" fill="#84BE84" rx="3" ry="3" style="stroke:#038048;stroke-width:1.0;"/><text fill="#000000" font-family="sans-serif" font-size="11" lengthAdjust="spacing" textLength="247" x="27" y="263.6245">trigger(data: string, args: unknown[]) : void</text><!--MD5=[3bb7872f488c5331b1ab2ddd8f0b1815]
class AbstractEvent<string>--><rect codeLine="13" fill="#FFFFFF" filter="url(#fg4i9a0ztp2qb)" height="112.0234" id="AbstractEvent&lt;string&gt;" style="stroke:#272B30;stroke-width:1.5;" width="273" x="7" y="7"/><ellipse cx="68.25" cy="23" fill="#A9DCDF" rx="11" ry="11" style="stroke:#272B30;stroke-width:1.0;"/><path d="M68.3594,18.3438 L67.2031,23.4219 L69.5313,23.4219 L68.3594,18.3438 Z M66.875,16.1094 L69.8594,16.1094 L73.2188,28.5 L70.7656,28.5 L70,25.4375 L66.7188,25.4375 L65.9688,28.5 L63.5313,28.5 L66.875,16.1094 Z " fill="#000000"/><text fill="#000000" font-family="sans-serif" font-size="12" font-style="italic" lengthAdjust="spacing" textLength="142" x="88.75" y="27.1543">AbstractEvent&lt;string&gt;</text><line style="stroke:#272B30;stroke-width:1.5;" x1="8" x2="279" y1="39" y2="39"/><rect fill="none" height="6" style="stroke:#C82930;stroke-width:1.0;" width="6" x="15" y="47"/><text fill="#000000" font-family="sans-serif" font-size="11" lengthAdjust="spacing" textLength="137" x="27" y="53.2104">_handlers : OSGeneric[]</text><line style="stroke:#272B30;stroke-width:1.5;" x1="8" x2="279" y1="59.8047" y2="59.8047"/><ellipse cx="18" cy="70.8047" fill="#84BE84" rx="3" ry="3" style="stroke:#038048;stroke-width:1.0;"/><text fill="#000000" font-family="sans-serif" font-size="11" lengthAdjust="spacing" textLength="220" x="27" y="74.0151">addHandler(handler: OSGeneric) : void</text><ellipse cx="18" cy="83.6094" fill="#84BE84" rx="3" ry="3" style="stroke:#038048;stroke-width:1.0;"/><text fill="#000000" font-family="sans-serif" font-size="11" lengthAdjust="spacing" textLength="137" x="27" y="86.8198">hasHandlers() : boolean</text><ellipse cx="18" cy="96.4141" fill="#84BE84" rx="3" ry="3" style="stroke:#038048;stroke-width:1.0;"/><text fill="#000000" font-family="sans-serif" font-size="11" lengthAdjust="spacing" textLength="242" x="27" y="99.6245">removeHandler(handler: OSGeneric) : void</text><ellipse cx="18" cy="109.2188" fill="#84BE84" rx="3" ry="3" style="stroke:#038048;stroke-width:1.0;"/><text fill="#000000" font-family="sans-serif" font-size="11" lengthAdjust="spacing" textLength="247" x="27" y="112.4292">trigger(data: string, args: unknown[]) : void</text><!--MD5=[907350ed9a4388a88cffbefbc94ff0bb]
reverse link AbstractEvent<string> to Open--><path codeLine="20" d="M143.5,139.45 C143.5,152.92 143.5,166.55 143.5,178.8 " fill="none" id="AbstractEvent&lt;string&gt;-backto-Open" style="stroke:#272B30;stroke-width:1.0;"/><polygon fill="none" points="136.5,139.34,143.5,119.34,150.5,139.34,136.5,139.34" style="stroke:#272B30;stroke-width:1.0;"/><!--MD5=[261e44690ca26608fdf256f1ecdf10a2]
@startuml
skinparam ClassArrowColor #272b30
skinparam ClassBorderColor #272b30
skinparam ClassBackgroundColor #fff
skinparam BackgroundColor #ced4da
hide empty methods
hide empty fields
class "Open" {
    +addHandler(handler: OSGeneric) : void
    +hasHandlers() : boolean
    +removeHandler(handler: OSGeneric) : void
    +trigger(data: string, args: unknown[]) : void
}
abstract class "AbstractEvent<string>" {
    -_handlers : OSGeneric[]
    +addHandler(handler: OSGeneric) : void
    +hasHandlers() : boolean
    +removeHandler(handler: OSGeneric) : void
    +trigger(data: string, args: unknown[]) : void
}
"AbstractEvent<string>" <|- - "Open"
@enduml

PlantUML version 1.2021.14(Fri Nov 12 16:46:50 UTC 2021)
(GPL source distribution)
Java Runtime: OpenJDK Runtime Environment
JVM: OpenJDK 64-Bit Server VM
Default Encoding: UTF-8
Language: en
Country: null
--></g></svg>