<?xml version="1.0" encoding="UTF-8" standalone="no"?><svg xmlns="http://www.w3.org/2000/svg" xmlns:xlink="http://www.w3.org/1999/xlink" contentScriptType="application/ecmascript" contentStyleType="text/css" height="1393px" preserveAspectRatio="none" style="width:614px;height:1393px;background:#CED4DA;" version="1.1" viewBox="0 0 614 1393" width="614px" zoomAndPan="magnify"><defs><filter height="300%" id="f1a2o9fv6uvz2r" width="300%" x="-1" y="-1"><feGaussianBlur result="blurOut" stdDeviation="2.0"/><feColorMatrix in="blurOut" result="blurOut2" type="matrix" values="0 0 0 0 0 0 0 0 0 0 0 0 0 0 0 0 0 0 .4 0"/><feOffset dx="4.0" dy="4.0" in="blurOut2" result="blurOut3"/><feBlend in="SourceGraphic" in2="blurOut3" mode="normal"/></filter></defs><g><!--MD5=[6830a19cf35d6396a2fc96ce07957070]
class OSUIFlatpickrSingleDate--><rect codeLine="7" fill="#FFFFFF" filter="url(#f1a2o9fv6uvz2r)" height="611.4063" id="OSUIFlatpickrSingleDate" style="stroke:#272B30;stroke-width:1.5;" width="591" x="9" y="768"/><ellipse cx="225.25" cy="784" fill="#ADD1B2" rx="11" ry="11" style="stroke:#272B30;stroke-width:1.0;"/><path d="M228.2188,789.6406 Q227.6406,789.9375 227,790.0781 Q226.3594,790.2344 225.6563,790.2344 Q223.1563,790.2344 221.8281,788.5938 Q220.5156,786.9375 220.5156,783.8125 Q220.5156,780.6875 221.8281,779.0313 Q223.1563,777.375 225.6563,777.375 Q226.3594,777.375 227,777.5313 Q227.6563,777.6875 228.2188,777.9844 L228.2188,780.7031 Q227.5938,780.125 227,779.8594 Q226.4063,779.5781 225.7813,779.5781 Q224.4375,779.5781 223.75,780.6563 Q223.0625,781.7188 223.0625,783.8125 Q223.0625,785.9063 223.75,786.9844 Q224.4375,788.0469 225.7813,788.0469 Q226.4063,788.0469 227,787.7813 Q227.5938,787.5 228.2188,786.9219 L228.2188,789.6406 Z " fill="#000000"/><text fill="#000000" font-family="sans-serif" font-size="12" lengthAdjust="spacing" textLength="150" x="245.75" y="788.1543">OSUIFlatpickrSingleDate</text><line style="stroke:#272B30;stroke-width:1.5;" x1="10" x2="599" y1="800" y2="800"/><polygon fill="none" points="20,806,24,810,20,814,16,810" style="stroke:#B38D22;stroke-width:1.0;"/><text fill="#000000" font-family="sans-serif" font-size="11" lengthAdjust="spacing" textLength="324" x="29" y="814.2104">providerEventsManagerInstance : IProviderEventManager</text><polygon fill="none" points="20,818.8047,24,822.8047,20,826.8047,16,822.8047" style="stroke:#B38D22;stroke-width:1.0;"/><text fill="#000000" font-family="sans-serif" font-size="11" lengthAdjust="spacing" textLength="285" x="29" y="827.0151">_datePickerPlatformInputElem : HTMLInputElement</text><polygon fill="none" points="20,831.6094,24,835.6094,20,839.6094,16,835.6094" style="stroke:#B38D22;stroke-width:1.0;"/><text fill="#000000" font-family="sans-serif" font-size="11" lengthAdjust="spacing" textLength="223" x="29" y="839.8198">_flatpickrInputElem : HTMLInputElement</text><polygon fill="none" points="20,844.4141,24,848.4141,20,852.4141,16,848.4141" style="stroke:#B38D22;stroke-width:1.0;"/><text fill="#000000" font-family="sans-serif" font-size="11" lengthAdjust="spacing" textLength="181" x="29" y="852.6245">_flatpickrOpts : FlatpickrOptions</text><polygon fill="none" points="20,857.2188,24,861.2188,20,865.2188,16,861.2188" style="stroke:#B38D22;stroke-width:1.0;"/><text fill="#000000" font-family="sans-serif" font-size="11" lengthAdjust="spacing" textLength="266" x="29" y="865.4292">_onSelectedCallbackEvent : OSOnChangeEvent</text><polygon fill="none" points="20,870.0234,24,874.0234,20,878.0234,16,874.0234" style="stroke:#B38D22;stroke-width:1.0;"/><text fill="#000000" font-family="sans-serif" font-size="11" lengthAdjust="spacing" textLength="110" x="29" y="878.2339">_provider : flatpickr</text><polygon fill="none" points="20,882.8281,24,886.8281,20,890.8281,16,886.8281" style="stroke:#B38D22;stroke-width:1.0;"/><text fill="#000000" font-family="sans-serif" font-size="11" lengthAdjust="spacing" textLength="154" x="29" y="891.0386">_providerInfo : ProviderInfo</text><rect fill="none" height="6" style="stroke:#C82930;stroke-width:1.0;" width="6" x="17" y="897.6328"/><text fill="#000000" font-family="sans-serif" font-size="11" lengthAdjust="spacing" textLength="256" x="29" y="903.8433">_isUpdatedInitialDateByClientAction : boolean</text><line style="stroke:#272B30;stroke-width:1.5;" x1="10" x2="599" y1="910.4375" y2="910.4375"/><ellipse cx="20" cy="921.4375" fill="#84BE84" rx="3" ry="3" style="stroke:#038048;stroke-width:1.0;"/><text fill="#000000" font-family="sans-serif" font-size="11" lengthAdjust="spacing" textLength="70" x="29" y="924.6479">build() : void</text><ellipse cx="20" cy="934.2422" fill="#84BE84" rx="3" ry="3" style="stroke:#038048;stroke-width:1.0;"/><text fill="#000000" font-family="sans-serif" font-size="11" lengthAdjust="spacing" textLength="399" x="29" y="937.4526">changeProperty(propertyName: string, propertyValue: unknown) : void</text><ellipse cx="20" cy="947.0469" fill="#84BE84" rx="3" ry="3" style="stroke:#038048;stroke-width:1.0;"/><text fill="#000000" font-family="sans-serif" font-size="11" lengthAdjust="spacing" textLength="195" x="29" y="950.2573">checkAddedProviderEvents() : void</text><ellipse cx="20" cy="959.8516" fill="#84BE84" rx="3" ry="3" style="stroke:#038048;stroke-width:1.0;"/><text fill="#000000" font-family="sans-serif" font-size="11" lengthAdjust="spacing" textLength="205" x="29" y="963.062">checkPendingProviderEvents() : void</text><ellipse cx="20" cy="972.6563" fill="#84BE84" rx="3" ry="3" style="stroke:#038048;stroke-width:1.0;"/><text fill="#000000" font-family="sans-serif" font-size="11" lengthAdjust="spacing" textLength="71" x="29" y="975.8667">clear() : void</text><ellipse cx="20" cy="985.4609" fill="#84BE84" rx="3" ry="3" style="stroke:#038048;stroke-width:1.0;"/><text fill="#000000" font-family="sans-serif" font-size="11" lengthAdjust="spacing" textLength="73" x="29" y="988.6714">close() : void</text><ellipse cx="20" cy="998.2656" fill="#84BE84" rx="3" ry="3" style="stroke:#038048;stroke-width:1.0;"/><text fill="#000000" font-family="sans-serif" font-size="11" lengthAdjust="spacing" textLength="230" x="29" y="1001.4761">disableDays(disableDays: string[]) : void</text><ellipse cx="20" cy="1011.0703" fill="#84BE84" rx="3" ry="3" style="stroke:#038048;stroke-width:1.0;"/><text fill="#000000" font-family="sans-serif" font-size="11" lengthAdjust="spacing" textLength="299" x="29" y="1014.2808">disableWeekDays(disableWeekDays: number[]) : void</text><ellipse cx="20" cy="1023.875" fill="#84BE84" rx="3" ry="3" style="stroke:#038048;stroke-width:1.0;"/><text fill="#000000" font-family="sans-serif" font-size="11" lengthAdjust="spacing" textLength="88" x="29" y="1027.0854">dispose() : void</text><ellipse cx="20" cy="1036.6797" fill="#84BE84" rx="3" ry="3" style="stroke:#038048;stroke-width:1.0;"/><text fill="#000000" font-family="sans-serif" font-size="11" lengthAdjust="spacing" textLength="220" x="29" y="1039.8901">equalsToID(patternId: string) : boolean</text><ellipse cx="20" cy="1049.4844" fill="#84BE84" rx="3" ry="3" style="stroke:#038048;stroke-width:1.0;"/><text fill="#000000" font-family="sans-serif" font-size="11" lengthAdjust="spacing" textLength="71" x="29" y="1052.6948">open() : void</text><ellipse cx="20" cy="1062.2891" fill="#84BE84" rx="3" ry="3" style="stroke:#038048;stroke-width:1.0;"/><text fill="#000000" font-family="sans-serif" font-size="11" lengthAdjust="spacing" textLength="362" x="29" y="1065.4995">registerCallback(eventName: string, callback: OSGeneric) : void</text><ellipse cx="20" cy="1075.0938" fill="#84BE84" rx="3" ry="3" style="stroke:#038048;stroke-width:1.0;"/><text fill="#000000" font-family="sans-serif" font-size="11" lengthAdjust="spacing" textLength="242" x="29" y="1078.3042">setEditableInput(isEditable: boolean) : void</text><ellipse cx="20" cy="1087.8984" fill="#84BE84" rx="3" ry="3" style="stroke:#038048;stroke-width:1.0;"/><text fill="#000000" font-family="sans-serif" font-size="11" lengthAdjust="spacing" textLength="187" x="29" y="1091.1089">setLanguage(value: string) : void</text><ellipse cx="20" cy="1100.7031" fill="#84BE84" rx="3" ry="3" style="stroke:#038048;stroke-width:1.0;"/><text fill="#000000" font-family="sans-serif" font-size="11" lengthAdjust="spacing" textLength="316" x="29" y="1103.9136">setProviderConfigs(newConfigs: FlatpickrOptions) : void</text><ellipse cx="20" cy="1113.5078" fill="#84BE84" rx="3" ry="3" style="stroke:#038048;stroke-width:1.0;"/><text fill="#000000" font-family="sans-serif" font-size="11" lengthAdjust="spacing" textLength="565" x="29" y="1116.7183">setProviderEvent(eventName: string, callback: Generic, uniqueId: string, saveEvent: boolean) : void</text><ellipse cx="20" cy="1126.3125" fill="#84BE84" rx="3" ry="3" style="stroke:#038048;stroke-width:1.0;"/><text fill="#000000" font-family="sans-serif" font-size="11" lengthAdjust="spacing" textLength="261" x="29" y="1129.5229">toggleNativeBehavior(isNative: boolean) : void</text><ellipse cx="20" cy="1139.1172" fill="#84BE84" rx="3" ry="3" style="stroke:#038048;stroke-width:1.0;"/><text fill="#000000" font-family="sans-serif" font-size="11" lengthAdjust="spacing" textLength="235" x="29" y="1142.3276">unsetProviderEvent(eventId: string) : void</text><ellipse cx="20" cy="1151.9219" fill="#84BE84" rx="3" ry="3" style="stroke:#038048;stroke-width:1.0;"/><text fill="#000000" font-family="sans-serif" font-size="11" lengthAdjust="spacing" textLength="209" x="29" y="1155.1323">updateInitialDate(value: string) : void</text><ellipse cx="20" cy="1164.7266" fill="#84BE84" rx="3" ry="3" style="stroke:#038048;stroke-width:1.0;"/><text fill="#000000" font-family="sans-serif" font-size="11" lengthAdjust="spacing" textLength="311" x="29" y="1167.937">updateProviderEvents(providerInfo: ProviderInfo) : void</text><polygon fill="#FFFF44" points="20,1172.5313,24,1176.5313,20,1180.5313,16,1176.5313" style="stroke:#B38D22;stroke-width:1.0;"/><text fill="#000000" font-family="sans-serif" font-size="11" lengthAdjust="spacing" textLength="117" x="29" y="1180.7417">addTodayBtn() : void</text><polygon fill="#FFFF44" points="20,1185.3359,24,1189.3359,20,1193.3359,16,1189.3359" style="stroke:#B38D22;stroke-width:1.0;"/><text fill="#000000" font-family="sans-serif" font-size="11" lengthAdjust="spacing" textLength="174" x="29" y="1193.5464">createProviderInstance() : void</text><polygon fill="#FFFF44" points="20,1198.1406,24,1202.1406,20,1206.1406,16,1202.1406" style="stroke:#B38D22;stroke-width:1.0;"/><text fill="#000000" font-family="sans-serif" font-size="11" lengthAdjust="spacing" textLength="102" x="29" y="1206.3511">finishBuild() : void</text><polygon fill="#FFFF44" points="20,1210.9453,24,1214.9453,20,1218.9453,16,1214.9453" style="stroke:#B38D22;stroke-width:1.0;"/><text fill="#000000" font-family="sans-serif" font-size="11" lengthAdjust="spacing" textLength="126" x="29" y="1219.1558">jumpIntoToday() : void</text><polygon fill="#FFFF44" points="20,1223.75,24,1227.75,20,1231.75,16,1227.75" style="stroke:#B38D22;stroke-width:1.0;"/><text fill="#000000" font-family="sans-serif" font-size="11" lengthAdjust="spacing" textLength="293" x="29" y="1231.9604">onDateSelectedEvent(selectedDates: string[]) : void</text><polygon fill="#FFFF44" points="20,1236.5547,24,1240.5547,20,1244.5547,16,1240.5547" style="stroke:#B38D22;stroke-width:1.0;"/><text fill="#000000" font-family="sans-serif" font-size="11" lengthAdjust="spacing" textLength="131" x="29" y="1244.7651">prepareConfigs() : void</text><polygon fill="#FFFF44" points="20,1249.3594,24,1253.3594,20,1257.3594,16,1253.3594" style="stroke:#B38D22;stroke-width:1.0;"/><text fill="#000000" font-family="sans-serif" font-size="11" lengthAdjust="spacing" textLength="165" x="29" y="1257.5698">prepareToAndRedraw() : void</text><polygon fill="#FFFF44" points="20,1262.1641,24,1266.1641,20,1270.1641,16,1266.1641" style="stroke:#B38D22;stroke-width:1.0;"/><text fill="#000000" font-family="sans-serif" font-size="11" lengthAdjust="spacing" textLength="83" x="29" y="1270.3745">redraw() : void</text><polygon fill="#FFFF44" points="20,1274.9688,24,1278.9688,20,1282.9688,16,1278.9688" style="stroke:#B38D22;stroke-width:1.0;"/><text fill="#000000" font-family="sans-serif" font-size="11" lengthAdjust="spacing" textLength="148" x="29" y="1283.1792">setA11YProperties() : void</text><polygon fill="#FFFF44" points="20,1287.7734,24,1291.7734,20,1295.7734,16,1291.7734" style="stroke:#B38D22;stroke-width:1.0;"/><text fill="#000000" font-family="sans-serif" font-size="11" lengthAdjust="spacing" textLength="115" x="29" y="1295.9839">setCallbacks() : void</text><polygon fill="#FFFF44" points="20,1300.5781,24,1304.5781,20,1308.5781,16,1304.5781" style="stroke:#B38D22;stroke-width:1.0;"/><text fill="#000000" font-family="sans-serif" font-size="11" lengthAdjust="spacing" textLength="140" x="29" y="1308.7886">setHtmlElements() : void</text><polygon fill="#FFFF44" points="20,1313.3828,24,1317.3828,20,1321.3828,16,1317.3828" style="stroke:#B38D22;stroke-width:1.0;"/><text fill="#000000" font-family="sans-serif" font-size="11" lengthAdjust="spacing" textLength="226" x="29" y="1321.5933">todayBtnClick(event: MouseEvent) : void</text><polygon fill="#FFFF44" points="20,1326.1875,24,1330.1875,20,1334.1875,16,1330.1875" style="stroke:#B38D22;stroke-width:1.0;"/><text fill="#000000" font-family="sans-serif" font-size="11" lengthAdjust="spacing" textLength="378" x="29" y="1334.3979">triggerPlatformEventInitialized(platFormCallback: OSGeneric) : void</text><polygon fill="#FFFF44" points="20,1338.9922,24,1342.9922,20,1346.9922,16,1342.9922" style="stroke:#B38D22;stroke-width:1.0;"/><text fill="#000000" font-family="sans-serif" font-size="11" lengthAdjust="spacing" textLength="129" x="29" y="1347.2026">unsetCallbacks() : void</text><polygon fill="#FFFF44" points="20,1351.7969,24,1355.7969,20,1359.7969,16,1355.7969" style="stroke:#B38D22;stroke-width:1.0;"/><text fill="#000000" font-family="sans-serif" font-size="11" lengthAdjust="spacing" textLength="154" x="29" y="1360.0073">unsetHtmlElements() : void</text><polygon fill="#FFFF44" points="20,1364.6016,24,1368.6016,20,1372.6016,16,1368.6016" style="stroke:#B38D22;stroke-width:1.0;"/><text fill="#000000" font-family="sans-serif" font-size="11" lengthAdjust="spacing" textLength="185" x="29" y="1372.812">updatePlatformInputAttrs() : void</text><!--MD5=[f354fce91bbaac5f3ab269e473d2ed43]
class AbstractFlatpickr<FlatpickrSingleDateConfig>--><rect codeLine="53" fill="#FFFFFF" filter="url(#f1a2o9fv6uvz2r)" height="701.0391" id="AbstractFlatpickr&lt;FlatpickrSingleDateConfig&gt;" style="stroke:#272B30;stroke-width:1.5;" width="591" x="9" y="7"/><ellipse cx="157.75" cy="23" fill="#A9DCDF" rx="11" ry="11" style="stroke:#272B30;stroke-width:1.0;"/><path d="M157.8594,18.3438 L156.7031,23.4219 L159.0313,23.4219 L157.8594,18.3438 Z M156.375,16.1094 L159.3594,16.1094 L162.7188,28.5 L160.2656,28.5 L159.5,25.4375 L156.2188,25.4375 L155.4688,28.5 L153.0313,28.5 L156.375,16.1094 Z " fill="#000000"/><text fill="#000000" font-family="sans-serif" font-size="12" font-style="italic" lengthAdjust="spacing" textLength="285" x="178.25" y="27.1543">AbstractFlatpickr&lt;FlatpickrSingleDateConfig&gt;</text><line style="stroke:#272B30;stroke-width:1.5;" x1="10" x2="599" y1="39" y2="39"/><polygon fill="none" points="20,45,24,49,20,53,16,49" style="stroke:#B38D22;stroke-width:1.0;"/><text fill="#000000" font-family="sans-serif" font-size="11" lengthAdjust="spacing" textLength="324" x="29" y="53.2104">providerEventsManagerInstance : IProviderEventManager</text><polygon fill="none" points="20,57.8047,24,61.8047,20,65.8047,16,61.8047" style="stroke:#B38D22;stroke-width:1.0;"/><text fill="#000000" font-family="sans-serif" font-size="11" lengthAdjust="spacing" textLength="285" x="29" y="66.0151">_datePickerPlatformInputElem : HTMLInputElement</text><polygon fill="none" points="20,70.6094,24,74.6094,20,78.6094,16,74.6094" style="stroke:#B38D22;stroke-width:1.0;"/><text fill="#000000" font-family="sans-serif" font-size="11" lengthAdjust="spacing" textLength="223" x="29" y="78.8198">_flatpickrInputElem : HTMLInputElement</text><polygon fill="none" points="20,83.4141,24,87.4141,20,91.4141,16,87.4141" style="stroke:#B38D22;stroke-width:1.0;"/><text fill="#000000" font-family="sans-serif" font-size="11" lengthAdjust="spacing" textLength="181" x="29" y="91.6245">_flatpickrOpts : FlatpickrOptions</text><polygon fill="none" points="20,96.2188,24,100.2188,20,104.2188,16,100.2188" style="stroke:#B38D22;stroke-width:1.0;"/><text fill="#000000" font-family="sans-serif" font-size="11" lengthAdjust="spacing" textLength="266" x="29" y="104.4292">_onSelectedCallbackEvent : OSOnChangeEvent</text><polygon fill="none" points="20,109.0234,24,113.0234,20,117.0234,16,113.0234" style="stroke:#B38D22;stroke-width:1.0;"/><text fill="#000000" font-family="sans-serif" font-size="11" lengthAdjust="spacing" textLength="110" x="29" y="117.2339">_provider : flatpickr</text><polygon fill="none" points="20,121.8281,24,125.8281,20,129.8281,16,125.8281" style="stroke:#B38D22;stroke-width:1.0;"/><text fill="#000000" font-family="sans-serif" font-size="11" lengthAdjust="spacing" textLength="154" x="29" y="130.0386">_providerInfo : ProviderInfo</text><rect fill="none" height="6" style="stroke:#C82930;stroke-width:1.0;" width="6" x="17" y="136.6328"/><text fill="#000000" font-family="sans-serif" font-size="11" lengthAdjust="spacing" textLength="225" x="29" y="142.8433">_a11yInfoContainerElem : HTMLElement</text><rect fill="none" height="6" style="stroke:#C82930;stroke-width:1.0;" width="6" x="17" y="149.4375"/><text fill="#000000" font-family="sans-serif" font-size="11" lengthAdjust="spacing" textLength="318" x="29" y="155.6479">_bodyScrollCommonBehaviour : UpdatePositionOnScroll</text><rect fill="none" height="6" style="stroke:#C82930;stroke-width:1.0;" width="6" x="17" y="162.2422"/><text fill="#000000" font-family="sans-serif" font-size="11" lengthAdjust="spacing" textLength="216" x="29" y="168.4526">_onInitializeCallbackEvent : OSGeneric</text><rect fill="none" height="6" style="stroke:#C82930;stroke-width:1.0;" width="6" x="17" y="175.0469"/><text fill="#000000" font-family="sans-serif" font-size="11" lengthAdjust="spacing" textLength="233" x="29" y="181.2573">_zindexCommonBehavior : UpdateZindex</text><line style="stroke:#272B30;stroke-width:1.5;" x1="10" x2="599" y1="187.8516" y2="187.8516"/><ellipse cx="20" cy="198.8516" fill="#84BE84" rx="3" ry="3" style="stroke:#038048;stroke-width:1.0;"/><text fill="#000000" font-family="sans-serif" font-size="11" lengthAdjust="spacing" textLength="70" x="29" y="202.062">build() : void</text><ellipse cx="20" cy="211.6563" fill="#84BE84" rx="3" ry="3" style="stroke:#038048;stroke-width:1.0;"/><text fill="#000000" font-family="sans-serif" font-size="11" lengthAdjust="spacing" textLength="399" x="29" y="214.8667">changeProperty(propertyName: string, propertyValue: unknown) : void</text><ellipse cx="20" cy="224.4609" fill="#84BE84" rx="3" ry="3" style="stroke:#038048;stroke-width:1.0;"/><text fill="#000000" font-family="sans-serif" font-size="11" lengthAdjust="spacing" textLength="195" x="29" y="227.6714">checkAddedProviderEvents() : void</text><ellipse cx="20" cy="237.2656" fill="#84BE84" rx="3" ry="3" style="stroke:#038048;stroke-width:1.0;"/><text fill="#000000" font-family="sans-serif" font-size="11" lengthAdjust="spacing" textLength="205" x="29" y="240.4761">checkPendingProviderEvents() : void</text><ellipse cx="20" cy="250.0703" fill="#84BE84" rx="3" ry="3" style="stroke:#038048;stroke-width:1.0;"/><text fill="#000000" font-family="sans-serif" font-size="11" lengthAdjust="spacing" textLength="71" x="29" y="253.2808">clear() : void</text><ellipse cx="20" cy="262.875" fill="#84BE84" rx="3" ry="3" style="stroke:#038048;stroke-width:1.0;"/><text fill="#000000" font-family="sans-serif" font-size="11" lengthAdjust="spacing" textLength="73" x="29" y="266.0854">close() : void</text><ellipse cx="20" cy="275.6797" fill="#84BE84" rx="3" ry="3" style="stroke:#038048;stroke-width:1.0;"/><text fill="#000000" font-family="sans-serif" font-size="11" lengthAdjust="spacing" textLength="230" x="29" y="278.8901">disableDays(disableDays: string[]) : void</text><ellipse cx="20" cy="288.4844" fill="#84BE84" rx="3" ry="3" style="stroke:#038048;stroke-width:1.0;"/><text fill="#000000" font-family="sans-serif" font-size="11" lengthAdjust="spacing" textLength="299" x="29" y="291.6948">disableWeekDays(disableWeekDays: number[]) : void</text><ellipse cx="20" cy="301.2891" fill="#84BE84" rx="3" ry="3" style="stroke:#038048;stroke-width:1.0;"/><text fill="#000000" font-family="sans-serif" font-size="11" lengthAdjust="spacing" textLength="88" x="29" y="304.4995">dispose() : void</text><ellipse cx="20" cy="314.0938" fill="#84BE84" rx="3" ry="3" style="stroke:#038048;stroke-width:1.0;"/><text fill="#000000" font-family="sans-serif" font-size="11" lengthAdjust="spacing" textLength="220" x="29" y="317.3042">equalsToID(patternId: string) : boolean</text><ellipse cx="20" cy="326.8984" fill="#84BE84" rx="3" ry="3" style="stroke:#038048;stroke-width:1.0;"/><text fill="#000000" font-family="sans-serif" font-size="11" lengthAdjust="spacing" textLength="71" x="29" y="330.1089">open() : void</text><ellipse cx="20" cy="339.7031" fill="#84BE84" rx="3" ry="3" style="stroke:#038048;stroke-width:1.0;"/><text fill="#000000" font-family="sans-serif" font-size="11" lengthAdjust="spacing" textLength="362" x="29" y="342.9136">registerCallback(eventName: string, callback: OSGeneric) : void</text><ellipse cx="20" cy="352.5078" fill="#84BE84" rx="3" ry="3" style="stroke:#038048;stroke-width:1.0;"/><text fill="#000000" font-family="sans-serif" font-size="11" lengthAdjust="spacing" textLength="242" x="29" y="355.7183">setEditableInput(isEditable: boolean) : void</text><ellipse cx="20" cy="365.3125" fill="#84BE84" rx="3" ry="3" style="stroke:#038048;stroke-width:1.0;"/><text fill="#000000" font-family="sans-serif" font-size="11" lengthAdjust="spacing" textLength="187" x="29" y="368.5229">setLanguage(value: string) : void</text><ellipse cx="20" cy="378.1172" fill="#84BE84" rx="3" ry="3" style="stroke:#038048;stroke-width:1.0;"/><text fill="#000000" font-family="sans-serif" font-size="11" lengthAdjust="spacing" textLength="316" x="29" y="381.3276">setProviderConfigs(newConfigs: FlatpickrOptions) : void</text><ellipse cx="20" cy="390.9219" fill="#84BE84" rx="3" ry="3" style="stroke:#038048;stroke-width:1.0;"/><text fill="#000000" font-family="sans-serif" font-size="11" lengthAdjust="spacing" textLength="565" x="29" y="394.1323">setProviderEvent(eventName: string, callback: Generic, uniqueId: string, saveEvent: boolean) : void</text><ellipse cx="20" cy="403.7266" fill="#84BE84" rx="3" ry="3" style="stroke:#038048;stroke-width:1.0;"/><text fill="#000000" font-family="sans-serif" font-size="11" lengthAdjust="spacing" textLength="261" x="29" y="406.937">toggleNativeBehavior(isNative: boolean) : void</text><ellipse cx="20" cy="416.5313" fill="#84BE84" rx="3" ry="3" style="stroke:#038048;stroke-width:1.0;"/><text fill="#000000" font-family="sans-serif" font-size="11" lengthAdjust="spacing" textLength="235" x="29" y="419.7417">unsetProviderEvent(eventId: string) : void</text><ellipse cx="20" cy="429.3359" fill="#84BE84" rx="3" ry="3" style="stroke:#038048;stroke-width:1.0;"/><text fill="#000000" font-family="sans-serif" font-size="11" font-style="italic" lengthAdjust="spacing" textLength="274" x="29" y="432.5464">updateInitialDate(start: string, end: string) : void</text><ellipse cx="20" cy="442.1406" fill="#84BE84" rx="3" ry="3" style="stroke:#038048;stroke-width:1.0;"/><text fill="#000000" font-family="sans-serif" font-size="11" lengthAdjust="spacing" textLength="311" x="29" y="445.3511">updateProviderEvents(providerInfo: ProviderInfo) : void</text><polygon fill="#FFFF44" points="20,449.9453,24,453.9453,20,457.9453,16,453.9453" style="stroke:#B38D22;stroke-width:1.0;"/><text fill="#000000" font-family="sans-serif" font-size="11" lengthAdjust="spacing" textLength="117" x="29" y="458.1558">addTodayBtn() : void</text><polygon fill="#FFFF44" points="20,462.75,24,466.75,20,470.75,16,466.75" style="stroke:#B38D22;stroke-width:1.0;"/><text fill="#000000" font-family="sans-serif" font-size="11" lengthAdjust="spacing" textLength="174" x="29" y="470.9604">createProviderInstance() : void</text><polygon fill="#FFFF44" points="20,475.5547,24,479.5547,20,483.5547,16,479.5547" style="stroke:#B38D22;stroke-width:1.0;"/><text fill="#000000" font-family="sans-serif" font-size="11" lengthAdjust="spacing" textLength="102" x="29" y="483.7651">finishBuild() : void</text><polygon fill="#FFFF44" points="20,488.3594,24,492.3594,20,496.3594,16,492.3594" style="stroke:#B38D22;stroke-width:1.0;"/><text fill="#000000" font-family="sans-serif" font-size="11" lengthAdjust="spacing" textLength="126" x="29" y="496.5698">jumpIntoToday() : void</text><polygon fill="#FFFF44" points="20,501.1641,24,505.1641,20,509.1641,16,505.1641" style="stroke:#B38D22;stroke-width:1.0;"/><text fill="#000000" font-family="sans-serif" font-size="11" font-style="italic" lengthAdjust="spacing" textLength="452" x="29" y="509.3745">onDateSelectedEvent(selectedDates: string[], dateStr: string, fp: flatpickr) : void</text><polygon fill="#FFFF44" points="20,513.9688,24,517.9688,20,521.9688,16,517.9688" style="stroke:#B38D22;stroke-width:1.0;"/><text fill="#000000" font-family="sans-serif" font-size="11" lengthAdjust="spacing" textLength="131" x="29" y="522.1792">prepareConfigs() : void</text><polygon fill="#FFFF44" points="20,526.7734,24,530.7734,20,534.7734,16,530.7734" style="stroke:#B38D22;stroke-width:1.0;"/><text fill="#000000" font-family="sans-serif" font-size="11" lengthAdjust="spacing" textLength="165" x="29" y="534.9839">prepareToAndRedraw() : void</text><polygon fill="#FFFF44" points="20,539.5781,24,543.5781,20,547.5781,16,543.5781" style="stroke:#B38D22;stroke-width:1.0;"/><text fill="#000000" font-family="sans-serif" font-size="11" lengthAdjust="spacing" textLength="83" x="29" y="547.7886">redraw() : void</text><polygon fill="#FFFF44" points="20,552.3828,24,556.3828,20,560.3828,16,556.3828" style="stroke:#B38D22;stroke-width:1.0;"/><text fill="#000000" font-family="sans-serif" font-size="11" lengthAdjust="spacing" textLength="148" x="29" y="560.5933">setA11YProperties() : void</text><polygon fill="#FFFF44" points="20,565.1875,24,569.1875,20,573.1875,16,569.1875" style="stroke:#B38D22;stroke-width:1.0;"/><text fill="#000000" font-family="sans-serif" font-size="11" lengthAdjust="spacing" textLength="115" x="29" y="573.3979">setCallbacks() : void</text><polygon fill="#FFFF44" points="20,577.9922,24,581.9922,20,585.9922,16,581.9922" style="stroke:#B38D22;stroke-width:1.0;"/><text fill="#000000" font-family="sans-serif" font-size="11" lengthAdjust="spacing" textLength="140" x="29" y="586.2026">setHtmlElements() : void</text><polygon fill="#FFFF44" points="20,590.7969,24,594.7969,20,598.7969,16,594.7969" style="stroke:#B38D22;stroke-width:1.0;"/><text fill="#000000" font-family="sans-serif" font-size="11" font-style="italic" lengthAdjust="spacing" textLength="229" x="29" y="599.0073">todayBtnClick(event: MouseEvent) : void</text><polygon fill="#FFFF44" points="20,603.6016,24,607.6016,20,611.6016,16,607.6016" style="stroke:#B38D22;stroke-width:1.0;"/><text fill="#000000" font-family="sans-serif" font-size="11" lengthAdjust="spacing" textLength="378" x="29" y="611.812">triggerPlatformEventInitialized(platFormCallback: OSGeneric) : void</text><polygon fill="#FFFF44" points="20,616.4063,24,620.4063,20,624.4063,16,620.4063" style="stroke:#B38D22;stroke-width:1.0;"/><text fill="#000000" font-family="sans-serif" font-size="11" lengthAdjust="spacing" textLength="129" x="29" y="624.6167">unsetCallbacks() : void</text><polygon fill="#FFFF44" points="20,629.2109,24,633.2109,20,637.2109,16,633.2109" style="stroke:#B38D22;stroke-width:1.0;"/><text fill="#000000" font-family="sans-serif" font-size="11" lengthAdjust="spacing" textLength="154" x="29" y="637.4214">unsetHtmlElements() : void</text><polygon fill="#FFFF44" points="20,642.0156,24,646.0156,20,650.0156,16,646.0156" style="stroke:#B38D22;stroke-width:1.0;"/><text fill="#000000" font-family="sans-serif" font-size="11" font-style="italic" lengthAdjust="spacing" textLength="186" x="29" y="650.2261">updatePlatformInputAttrs() : void</text><rect fill="#F24D5C" height="6" style="stroke:#C82930;stroke-width:1.0;" width="6" x="17" y="656.8203"/><text fill="#000000" font-family="sans-serif" font-size="11" lengthAdjust="spacing" textLength="122" x="29" y="663.0308">_setAttributes() : void</text><rect fill="#F24D5C" height="6" style="stroke:#C82930;stroke-width:1.0;" width="6" x="17" y="669.625"/><text fill="#000000" font-family="sans-serif" font-size="11" lengthAdjust="spacing" textLength="186" x="29" y="675.8354">_setCalendarCssClasses() : void</text><rect fill="#F24D5C" height="6" style="stroke:#C82930;stroke-width:1.0;" width="6" x="17" y="682.4297"/><text fill="#000000" font-family="sans-serif" font-size="11" lengthAdjust="spacing" textLength="159" x="29" y="688.6401">_setParentMinHeight() : void</text><rect fill="#F24D5C" height="6" style="stroke:#C82930;stroke-width:1.0;" width="6" x="17" y="695.2344"/><text fill="#000000" font-family="sans-serif" font-size="11" lengthAdjust="spacing" textLength="173" x="29" y="701.4448">_unsetParentMinHeight() : void</text><!--MD5=[bc9aff9b2634e1e1e04356a3018bcbac]
reverse link AbstractFlatpickr<FlatpickrSingleDateConfig> to OSUIFlatpickrSingleDate--><path codeLine="106" d="M304.5,728.3 C304.5,741.55 304.5,754.78 304.5,767.91 " fill="none" id="AbstractFlatpickr&lt;FlatpickrSingleDateConfig&gt;-backto-OSUIFlatpickrSingleDate" style="stroke:#272B30;stroke-width:1.0;"/><polygon fill="none" points="297.5,728.18,304.5,708.18,311.5,728.18,297.5,728.18" style="stroke:#272B30;stroke-width:1.0;"/><!--MD5=[3088c1e0c8e804a6fe42fe7e5318d277]
@startuml
skinparam ClassArrowColor #272b30
skinparam ClassBorderColor #272b30
skinparam ClassBackgroundColor #fff
skinparam BackgroundColor #ced4da
hide empty methods
hide empty fields
class "OSUIFlatpickrSingleDate" {
    #providerEventsManagerInstance : IProviderEventManager
    #_datePickerPlatformInputElem : HTMLInputElement
    #_flatpickrInputElem : HTMLInputElement
    #_flatpickrOpts : FlatpickrOptions
    #_onSelectedCallbackEvent : OSOnChangeEvent
    #_provider : flatpickr
    #_providerInfo : ProviderInfo
    -_isUpdatedInitialDateByClientAction : boolean
    +build() : void
    +changeProperty(propertyName: string, propertyValue: unknown) : void
    +checkAddedProviderEvents() : void
    +checkPendingProviderEvents() : void
    +clear() : void
    +close() : void
    +disableDays(disableDays: string[]) : void
    +disableWeekDays(disableWeekDays: number[]) : void
    +dispose() : void
    +equalsToID(patternId: string) : boolean
    +open() : void
    +registerCallback(eventName: string, callback: OSGeneric) : void
    +setEditableInput(isEditable: boolean) : void
    +setLanguage(value: string) : void
    +setProviderConfigs(newConfigs: FlatpickrOptions) : void
    +setProviderEvent(eventName: string, callback: Generic, uniqueId: string, saveEvent: boolean) : void
    +toggleNativeBehavior(isNative: boolean) : void
    +unsetProviderEvent(eventId: string) : void
    +updateInitialDate(value: string) : void
    +updateProviderEvents(providerInfo: ProviderInfo) : void
    #addTodayBtn() : void
    #createProviderInstance() : void
    #finishBuild() : void
    #jumpIntoToday() : void
    #onDateSelectedEvent(selectedDates: string[]) : void
    #prepareConfigs() : void
    #prepareToAndRedraw() : void
    #redraw() : void
    #setA11YProperties() : void
    #setCallbacks() : void
    #setHtmlElements() : void
    #todayBtnClick(event: MouseEvent) : void
    #triggerPlatformEventInitialized(platFormCallback: OSGeneric) : void
    #unsetCallbacks() : void
    #unsetHtmlElements() : void
    #updatePlatformInputAttrs() : void
}
abstract class "AbstractFlatpickr<FlatpickrSingleDateConfig>" {
    #providerEventsManagerInstance : IProviderEventManager
    #_datePickerPlatformInputElem : HTMLInputElement
    #_flatpickrInputElem : HTMLInputElement
    #_flatpickrOpts : FlatpickrOptions
    #_onSelectedCallbackEvent : OSOnChangeEvent
    #_provider : flatpickr
    #_providerInfo : ProviderInfo
    -_a11yInfoContainerElem : HTMLElement
    -_bodyScrollCommonBehaviour : UpdatePositionOnScroll
    -_onInitializeCallbackEvent : OSGeneric
    -_zindexCommonBehavior : UpdateZindex
    +build() : void
    +changeProperty(propertyName: string, propertyValue: unknown) : void
    +checkAddedProviderEvents() : void
    +checkPendingProviderEvents() : void
    +clear() : void
    +close() : void
    +disableDays(disableDays: string[]) : void
    +disableWeekDays(disableWeekDays: number[]) : void
    +dispose() : void
    +equalsToID(patternId: string) : boolean
    +open() : void
    +registerCallback(eventName: string, callback: OSGeneric) : void
    +setEditableInput(isEditable: boolean) : void
    +setLanguage(value: string) : void
    +setProviderConfigs(newConfigs: FlatpickrOptions) : void
    +setProviderEvent(eventName: string, callback: Generic, uniqueId: string, saveEvent: boolean) : void
    +toggleNativeBehavior(isNative: boolean) : void
    +unsetProviderEvent(eventId: string) : void
    {abstract} +updateInitialDate(start: string, end: string) : void
    +updateProviderEvents(providerInfo: ProviderInfo) : void
    #addTodayBtn() : void
    #createProviderInstance() : void
    #finishBuild() : void
    #jumpIntoToday() : void
    {abstract} #onDateSelectedEvent(selectedDates: string[], dateStr: string, fp: flatpickr) : void
    #prepareConfigs() : void
    #prepareToAndRedraw() : void
    #redraw() : void
    #setA11YProperties() : void
    #setCallbacks() : void
    #setHtmlElements() : void
    {abstract} #todayBtnClick(event: MouseEvent) : void
    #triggerPlatformEventInitialized(platFormCallback: OSGeneric) : void
    #unsetCallbacks() : void
    #unsetHtmlElements() : void
    {abstract} #updatePlatformInputAttrs() : void
    -_setAttributes() : void
    -_setCalendarCssClasses() : void
    -_setParentMinHeight() : void
    -_unsetParentMinHeight() : void
}
"AbstractFlatpickr<FlatpickrSingleDateConfig>" <|- - "OSUIFlatpickrSingleDate"
@enduml

PlantUML version 1.2021.14(Fri Nov 12 16:46:50 UTC 2021)
(GPL source distribution)
Java Runtime: OpenJDK Runtime Environment
JVM: OpenJDK 64-Bit Server VM
Default Encoding: UTF-8
Language: en
Country: null
--></g></svg>