<?xml version="1.0" encoding="us-ascii" standalone="no"?><svg xmlns="http://www.w3.org/2000/svg" xmlns:xlink="http://www.w3.org/1999/xlink" contentStyleType="text/css" height="1851px" preserveAspectRatio="none" style="width:710px;height:1851px;background:#CED4DA;" version="1.1" viewBox="0 0 710 1851" width="710px" zoomAndPan="magnify"><defs/><g><rect fill="#CED4DA" height="1851" style="stroke:none;stroke-width:1.0;" width="710" x="0" y="0"/><!--class OSUIFlatpickrRangeDate--><g id="elem_OSUIFlatpickrRangeDate"><rect codeLine="7" fill="#FFFFFF" height="822.9492" id="OSUIFlatpickrRangeDate" rx="2.5" ry="2.5" style="stroke:#272B30;stroke-width:0.5;" width="694" x="9" y="1022"/><ellipse cx="268.75" cy="1038" fill="#ADD1B2" rx="11" ry="11" style="stroke:#181818;stroke-width:1.0;"/><path d="M271.2231,1044.1431 Q270.6421,1044.4419 270.0029,1044.5913 Q269.3638,1044.7407 268.6582,1044.7407 Q266.1514,1044.7407 264.8315,1043.0889 Q263.5117,1041.437 263.5117,1038.3159 Q263.5117,1035.1865 264.8315,1033.5347 Q266.1514,1031.8828 268.6582,1031.8828 Q269.3638,1031.8828 270.0112,1032.0322 Q270.6587,1032.1816 271.2231,1032.4805 L271.2231,1035.2031 Q270.5923,1034.6221 269.9988,1034.3523 Q269.4053,1034.0825 268.7744,1034.0825 Q267.4297,1034.0825 266.7449,1035.1492 Q266.0601,1036.2158 266.0601,1038.3159 Q266.0601,1040.4077 266.7449,1041.4744 Q267.4297,1042.541 268.7744,1042.541 Q269.4053,1042.541 269.9988,1042.2712 Q270.5923,1042.0015 271.2231,1041.4204 Z " fill="#000000"/><text fill="#000000" font-family="sans-serif" font-size="14" lengthAdjust="spacing" textLength="166" x="289.25" y="1043.291">OSUIFlatpickrRangeDate</text><line style="stroke:#272B30;stroke-width:0.5;" x1="10" x2="702" y1="1054" y2="1054"/><polygon fill="none" points="20,1062.7441,24,1066.7441,20,1070.7441,16,1066.7441" style="stroke:#B38D22;stroke-width:1.0;"/><text fill="#000000" font-family="sans-serif" font-size="14" lengthAdjust="spacing" textLength="339" x="29" y="1071.5352">datePickerPlatformInputElem : HTMLInputElement</text><polygon fill="none" points="20,1079.2324,24,1083.2324,20,1087.2324,16,1083.2324" style="stroke:#B38D22;stroke-width:1.0;"/><text fill="#000000" font-family="sans-serif" font-size="14" lengthAdjust="spacing" textLength="266" x="29" y="1088.0234">flatpickrInputElem : HTMLInputElement</text><polygon fill="none" points="20,1095.7207,24,1099.7207,20,1103.7207,16,1099.7207" style="stroke:#B38D22;stroke-width:1.0;"/><text fill="#000000" font-family="sans-serif" font-size="14" lengthAdjust="spacing" textLength="213" x="29" y="1104.5117">flatpickrOpts : FlatpickrOptions</text><polygon fill="none" points="20,1112.209,24,1116.209,20,1120.209,16,1116.209" style="stroke:#B38D22;stroke-width:1.0;"/><text fill="#000000" font-family="sans-serif" font-size="14" lengthAdjust="spacing" textLength="176" x="29" y="1121">isProviderBased : boolean</text><polygon fill="none" points="20,1128.6973,24,1132.6973,20,1136.6973,16,1132.6973" style="stroke:#B38D22;stroke-width:1.0;"/><text fill="#000000" font-family="sans-serif" font-size="14" lengthAdjust="spacing" textLength="311" x="29" y="1137.4883">onSelectedCallbackEvent : OSOnChangeEvent</text><polygon fill="none" points="20,1145.1855,24,1149.1855,20,1153.1855,16,1149.1855" style="stroke:#B38D22;stroke-width:1.0;"/><text fill="#000000" font-family="sans-serif" font-size="14" lengthAdjust="spacing" textLength="389" x="29" y="1153.9766">providerEventsManagerInstance : IProviderEventManager</text><line style="stroke:#272B30;stroke-width:0.5;" x1="10" x2="702" y1="1160.9297" y2="1160.9297"/><ellipse cx="20" cy="1174.6738" fill="#84BE84" rx="3" ry="3" style="stroke:#038048;stroke-width:1.0;"/><text fill="#000000" font-family="sans-serif" font-size="14" lengthAdjust="spacing" textLength="86" x="29" y="1178.4648">build() : void</text><ellipse cx="20" cy="1191.1621" fill="#84BE84" rx="3" ry="3" style="stroke:#038048;stroke-width:1.0;"/><text fill="#000000" font-family="sans-serif" font-size="14" lengthAdjust="spacing" textLength="482" x="29" y="1194.9531">changeProperty(propertyName: string, propertyValue: unknown) : void</text><ellipse cx="20" cy="1207.6504" fill="#84BE84" rx="3" ry="3" style="stroke:#038048;stroke-width:1.0;"/><text fill="#000000" font-family="sans-serif" font-size="14" lengthAdjust="spacing" textLength="236" x="29" y="1211.4414">checkAddedProviderEvents() : void</text><ellipse cx="20" cy="1224.1387" fill="#84BE84" rx="3" ry="3" style="stroke:#038048;stroke-width:1.0;"/><text fill="#000000" font-family="sans-serif" font-size="14" lengthAdjust="spacing" textLength="247" x="29" y="1227.9297">checkPendingProviderEvents() : void</text><ellipse cx="20" cy="1240.627" fill="#84BE84" rx="3" ry="3" style="stroke:#038048;stroke-width:1.0;"/><text fill="#000000" font-family="sans-serif" font-size="14" lengthAdjust="spacing" textLength="84" x="29" y="1244.418">clear() : void</text><ellipse cx="20" cy="1257.1152" fill="#84BE84" rx="3" ry="3" style="stroke:#038048;stroke-width:1.0;"/><text fill="#000000" font-family="sans-serif" font-size="14" lengthAdjust="spacing" textLength="86" x="29" y="1260.9063">close() : void</text><ellipse cx="20" cy="1273.6035" fill="#84BE84" rx="3" ry="3" style="stroke:#038048;stroke-width:1.0;"/><text fill="#000000" font-family="sans-serif" font-size="14" lengthAdjust="spacing" textLength="271" x="29" y="1277.3945">disableDays(disableDays: string[]) : void</text><ellipse cx="20" cy="1290.0918" fill="#84BE84" rx="3" ry="3" style="stroke:#038048;stroke-width:1.0;"/><text fill="#000000" font-family="sans-serif" font-size="14" lengthAdjust="spacing" textLength="357" x="29" y="1293.8828">disableWeekDays(disableWeekDays: number[]) : void</text><ellipse cx="20" cy="1306.5801" fill="#84BE84" rx="3" ry="3" style="stroke:#038048;stroke-width:1.0;"/><text fill="#000000" font-family="sans-serif" font-size="14" lengthAdjust="spacing" textLength="104" x="29" y="1310.3711">dispose() : void</text><ellipse cx="20" cy="1323.0684" fill="#84BE84" rx="3" ry="3" style="stroke:#038048;stroke-width:1.0;"/><text fill="#000000" font-family="sans-serif" font-size="14" lengthAdjust="spacing" textLength="266" x="29" y="1326.8594">equalsToID(patternId: string) : boolean</text><ellipse cx="20" cy="1339.5566" fill="#84BE84" rx="3" ry="3" style="stroke:#038048;stroke-width:1.0;"/><text fill="#000000" font-family="sans-serif" font-size="14" lengthAdjust="spacing" textLength="86" x="29" y="1343.3477">open() : void</text><ellipse cx="20" cy="1356.0449" fill="#84BE84" rx="3" ry="3" style="stroke:#038048;stroke-width:1.0;"/><text fill="#000000" font-family="sans-serif" font-size="14" lengthAdjust="spacing" textLength="428" x="29" y="1359.8359">registerCallback(eventName: string, callback: OSGeneric) : void</text><ellipse cx="20" cy="1372.5332" fill="#84BE84" rx="3" ry="3" style="stroke:#038048;stroke-width:1.0;"/><text fill="#000000" font-family="sans-serif" font-size="14" lengthAdjust="spacing" textLength="292" x="29" y="1376.3242">setEditableInput(isEditable: boolean) : void</text><ellipse cx="20" cy="1389.0215" fill="#84BE84" rx="3" ry="3" style="stroke:#038048;stroke-width:1.0;"/><text fill="#000000" font-family="sans-serif" font-size="14" lengthAdjust="spacing" textLength="222" x="29" y="1392.8125">setLanguage(value: string) : void</text><ellipse cx="20" cy="1405.5098" fill="#84BE84" rx="3" ry="3" style="stroke:#038048;stroke-width:1.0;"/><text fill="#000000" font-family="sans-serif" font-size="14" lengthAdjust="spacing" textLength="383" x="29" y="1409.3008">setProviderConfigs(newConfigs: FlatpickrOptions) : void</text><ellipse cx="20" cy="1421.998" fill="#84BE84" rx="3" ry="3" style="stroke:#038048;stroke-width:1.0;"/><text fill="#000000" font-family="sans-serif" font-size="14" lengthAdjust="spacing" textLength="668" x="29" y="1425.7891">setProviderEvent(eventName: string, callback: Generic, uniqueId: string, saveEvent: boolean) : void</text><ellipse cx="20" cy="1438.4863" fill="#84BE84" rx="3" ry="3" style="stroke:#038048;stroke-width:1.0;"/><text fill="#000000" font-family="sans-serif" font-size="14" lengthAdjust="spacing" textLength="313" x="29" y="1442.2773">toggleNativeBehavior(isNative: boolean) : void</text><ellipse cx="20" cy="1454.9746" fill="#84BE84" rx="3" ry="3" style="stroke:#038048;stroke-width:1.0;"/><text fill="#000000" font-family="sans-serif" font-size="14" lengthAdjust="spacing" textLength="281" x="29" y="1458.7656">unsetProviderEvent(eventId: string) : void</text><ellipse cx="20" cy="1471.4629" fill="#84BE84" rx="3" ry="3" style="stroke:#038048;stroke-width:1.0;"/><text fill="#000000" font-family="sans-serif" font-size="14" lengthAdjust="spacing" textLength="391" x="29" y="1475.2539">updateInitialDate(startDate: string, endDate: string) : void</text><ellipse cx="20" cy="1487.9512" fill="#84BE84" rx="3" ry="3" style="stroke:#038048;stroke-width:1.0;"/><text fill="#000000" font-family="sans-serif" font-size="14" lengthAdjust="spacing" textLength="307" x="29" y="1491.7422">updatePrompt(promptMessage: string) : void</text><ellipse cx="20" cy="1504.4395" fill="#84BE84" rx="3" ry="3" style="stroke:#038048;stroke-width:1.0;"/><text fill="#000000" font-family="sans-serif" font-size="14" lengthAdjust="spacing" textLength="377" x="29" y="1508.2305">updateProviderEvents(providerInfo: ProviderInfo) : void</text><polygon fill="#FFFF44" points="20,1515.9277,24,1519.9277,20,1523.9277,16,1519.9277" style="stroke:#B38D22;stroke-width:1.0;"/><text fill="#000000" font-family="sans-serif" font-size="14" lengthAdjust="spacing" textLength="141" x="29" y="1524.7188">addTodayBtn() : void</text><polygon fill="#FFFF44" points="20,1532.416,24,1536.416,20,1540.416,16,1536.416" style="stroke:#B38D22;stroke-width:1.0;"/><text fill="#000000" font-family="sans-serif" font-size="14" lengthAdjust="spacing" textLength="207" x="29" y="1541.207">createProviderInstance() : void</text><polygon fill="#FFFF44" points="20,1548.9043,24,1552.9043,20,1556.9043,16,1552.9043" style="stroke:#B38D22;stroke-width:1.0;"/><text fill="#000000" font-family="sans-serif" font-size="14" lengthAdjust="spacing" textLength="123" x="29" y="1557.6953">finishBuild() : void</text><polygon fill="#FFFF44" points="20,1565.3926,24,1569.3926,20,1573.3926,16,1569.3926" style="stroke:#B38D22;stroke-width:1.0;"/><text fill="#000000" font-family="sans-serif" font-size="14" lengthAdjust="spacing" textLength="155" x="29" y="1574.1836">jumpIntoToday() : void</text><polygon fill="#FFFF44" points="20,1581.8809,24,1585.8809,20,1589.8809,16,1585.8809" style="stroke:#B38D22;stroke-width:1.0;"/><text fill="#000000" font-family="sans-serif" font-size="14" lengthAdjust="spacing" textLength="337" x="29" y="1590.6719">onDateSelectedEvent(selectedDates: Date[]) : void</text><polygon fill="#FFFF44" points="20,1598.3691,24,1602.3691,20,1606.3691,16,1602.3691" style="stroke:#B38D22;stroke-width:1.0;"/><text fill="#000000" font-family="sans-serif" font-size="14" lengthAdjust="spacing" textLength="158" x="29" y="1607.1602">prepareConfigs() : void</text><polygon fill="#FFFF44" points="20,1614.8574,24,1618.8574,20,1622.8574,16,1618.8574" style="stroke:#B38D22;stroke-width:1.0;"/><text fill="#000000" font-family="sans-serif" font-size="14" lengthAdjust="spacing" textLength="202" x="29" y="1623.6484">prepareToAndRedraw() : void</text><polygon fill="#FFFF44" points="20,1631.3457,24,1635.3457,20,1639.3457,16,1635.3457" style="stroke:#B38D22;stroke-width:1.0;"/><text fill="#000000" font-family="sans-serif" font-size="14" lengthAdjust="spacing" textLength="99" x="29" y="1640.1367">redraw() : void</text><polygon fill="#FFFF44" points="20,1647.834,24,1651.834,20,1655.834,16,1651.834" style="stroke:#B38D22;stroke-width:1.0;"/><text fill="#000000" font-family="sans-serif" font-size="14" lengthAdjust="spacing" textLength="178" x="29" y="1656.625">setA11YProperties() : void</text><polygon fill="#FFFF44" points="20,1664.3223,24,1668.3223,20,1672.3223,16,1668.3223" style="stroke:#B38D22;stroke-width:1.0;"/><text fill="#000000" font-family="sans-serif" font-size="14" lengthAdjust="spacing" textLength="136" x="29" y="1673.1133">setCallbacks() : void</text><polygon fill="#FFFF44" points="20,1680.8105,24,1684.8105,20,1688.8105,16,1684.8105" style="stroke:#B38D22;stroke-width:1.0;"/><text fill="#000000" font-family="sans-serif" font-size="14" lengthAdjust="spacing" textLength="165" x="29" y="1689.6016">setHtmlElements() : void</text><polygon fill="#FFFF44" points="20,1697.2988,24,1701.2988,20,1705.2988,16,1701.2988" style="stroke:#B38D22;stroke-width:1.0;"/><text fill="#000000" font-family="sans-serif" font-size="14" lengthAdjust="spacing" textLength="271" x="29" y="1706.0898">todayBtnClick(event: MouseEvent) : void</text><polygon fill="#FFFF44" points="20,1713.7871,24,1717.7871,20,1721.7871,16,1717.7871" style="stroke:#B38D22;stroke-width:1.0;"/><text fill="#000000" font-family="sans-serif" font-size="14" lengthAdjust="spacing" textLength="570" x="29" y="1722.5781">triggerPlatformEventCallback(platFormCallback: OSGeneric, args: unknown[]) : void</text><polygon fill="#FFFF44" points="20,1730.2754,24,1734.2754,20,1738.2754,16,1734.2754" style="stroke:#B38D22;stroke-width:1.0;"/><text fill="#000000" font-family="sans-serif" font-size="14" lengthAdjust="spacing" textLength="318" x="29" y="1739.0664">triggerPlatformInitializedEventCallback() : void</text><polygon fill="#FFFF44" points="20,1746.7637,24,1750.7637,20,1754.7637,16,1750.7637" style="stroke:#B38D22;stroke-width:1.0;"/><text fill="#000000" font-family="sans-serif" font-size="14" lengthAdjust="spacing" textLength="154" x="29" y="1755.5547">unsetCallbacks() : void</text><polygon fill="#FFFF44" points="20,1763.252,24,1767.252,20,1771.252,16,1767.252" style="stroke:#B38D22;stroke-width:1.0;"/><text fill="#000000" font-family="sans-serif" font-size="14" lengthAdjust="spacing" textLength="198" x="29" y="1772.043">unsetGlobalCallbacks() : void</text><polygon fill="#FFFF44" points="20,1779.7402,24,1783.7402,20,1787.7402,16,1783.7402" style="stroke:#B38D22;stroke-width:1.0;"/><text fill="#000000" font-family="sans-serif" font-size="14" lengthAdjust="spacing" textLength="183" x="29" y="1788.5313">unsetHtmlElements() : void</text><polygon fill="#FFFF44" points="20,1796.2285,24,1800.2285,20,1804.2285,16,1800.2285" style="stroke:#B38D22;stroke-width:1.0;"/><text fill="#000000" font-family="sans-serif" font-size="14" lengthAdjust="spacing" textLength="226" x="29" y="1805.0195">updatePlatformInputAttrs() : void</text><rect fill="#F24D5C" height="6" style="stroke:#C82930;stroke-width:1.0;" width="6" x="17" y="1814.7168"/><text fill="#000000" font-family="sans-serif" font-size="14" lengthAdjust="spacing" textLength="205" x="29" y="1821.5078">_onUpdateDateFormat() : void</text><rect fill="#F24D5C" height="6" style="stroke:#C82930;stroke-width:1.0;" width="6" x="17" y="1831.2051"/><text fill="#000000" font-family="sans-serif" font-size="14" lengthAdjust="spacing" textLength="268" x="29" y="1837.9961">_updateInitialStartAndEndDates() : void</text></g><!--class AbstractFlatpickr<FlatpickrRangeDateConfig>--><g id="elem_AbstractFlatpickr&lt;FlatpickrRangeDateConfig&gt;"><rect codeLine="56" fill="#FFFFFF" height="954.8555" id="AbstractFlatpickr&lt;FlatpickrRangeDateConfig&gt;" rx="2.5" ry="2.5" style="stroke:#272B30;stroke-width:0.5;" width="694" x="9" y="7"/><ellipse cx="193.25" cy="23" fill="#A9DCDF" rx="11" ry="11" style="stroke:#181818;stroke-width:1.0;"/><path d="M193.1133,18.3481 L191.9595,23.4199 L194.2754,23.4199 Z M191.6191,16.1069 L194.6157,16.1069 L197.9609,28.5 L195.5122,28.5 L194.7485,25.437 L191.4697,25.437 L190.7227,28.5 L188.2739,28.5 Z " fill="#000000"/><text fill="#000000" font-family="sans-serif" font-size="14" font-style="italic" lengthAdjust="spacing" textLength="317" x="213.75" y="28.291">AbstractFlatpickr&lt;FlatpickrRangeDateConfig&gt;</text><line style="stroke:#272B30;stroke-width:0.5;" x1="10" x2="702" y1="39" y2="39"/><polygon fill="none" points="20,47.7441,24,51.7441,20,55.7441,16,51.7441" style="stroke:#B38D22;stroke-width:1.0;"/><text fill="#000000" font-family="sans-serif" font-size="14" lengthAdjust="spacing" textLength="339" x="29" y="56.5352">datePickerPlatformInputElem : HTMLInputElement</text><polygon fill="none" points="20,64.2324,24,68.2324,20,72.2324,16,68.2324" style="stroke:#B38D22;stroke-width:1.0;"/><text fill="#000000" font-family="sans-serif" font-size="14" lengthAdjust="spacing" textLength="266" x="29" y="73.0234">flatpickrInputElem : HTMLInputElement</text><polygon fill="none" points="20,80.7207,24,84.7207,20,88.7207,16,84.7207" style="stroke:#B38D22;stroke-width:1.0;"/><text fill="#000000" font-family="sans-serif" font-size="14" lengthAdjust="spacing" textLength="213" x="29" y="89.5117">flatpickrOpts : FlatpickrOptions</text><polygon fill="none" points="20,97.209,24,101.209,20,105.209,16,101.209" style="stroke:#B38D22;stroke-width:1.0;"/><text fill="#000000" font-family="sans-serif" font-size="14" lengthAdjust="spacing" textLength="176" x="29" y="106">isProviderBased : boolean</text><polygon fill="none" points="20,113.6973,24,117.6973,20,121.6973,16,117.6973" style="stroke:#B38D22;stroke-width:1.0;"/><text fill="#000000" font-family="sans-serif" font-size="14" lengthAdjust="spacing" textLength="311" x="29" y="122.4883">onSelectedCallbackEvent : OSOnChangeEvent</text><polygon fill="none" points="20,130.1855,24,134.1855,20,138.1855,16,134.1855" style="stroke:#B38D22;stroke-width:1.0;"/><text fill="#000000" font-family="sans-serif" font-size="14" lengthAdjust="spacing" textLength="389" x="29" y="138.9766">providerEventsManagerInstance : IProviderEventManager</text><rect fill="none" height="6" style="stroke:#C82930;stroke-width:1.0;" width="6" x="17" y="148.6738"/><text fill="#000000" font-family="sans-serif" font-size="14" lengthAdjust="spacing" textLength="273" x="29" y="155.4648">_a11yInfoContainerElem : HTMLElement</text><rect fill="none" height="6" style="stroke:#C82930;stroke-width:1.0;" width="6" x="17" y="165.1621"/><text fill="#000000" font-family="sans-serif" font-size="14" lengthAdjust="spacing" textLength="384" x="29" y="171.9531">_bodyScrollCommonBehaviour : UpdatePositionOnScroll</text><rect fill="none" height="6" style="stroke:#C82930;stroke-width:1.0;" width="6" x="17" y="181.6504"/><text fill="#000000" font-family="sans-serif" font-size="14" lengthAdjust="spacing" textLength="289" x="29" y="188.4414">_providerFocusSpanTarget : HTMLElement</text><rect fill="none" height="6" style="stroke:#C82930;stroke-width:1.0;" width="6" x="17" y="198.1387"/><text fill="#000000" font-family="sans-serif" font-size="14" lengthAdjust="spacing" textLength="228" x="29" y="204.9297">_todayButtonElem : HTMLElement</text><rect fill="none" height="6" style="stroke:#C82930;stroke-width:1.0;" width="6" x="17" y="214.627"/><text fill="#000000" font-family="sans-serif" font-size="14" lengthAdjust="spacing" textLength="284" x="29" y="221.418">_zindexCommonBehavior : UpdateZindex</text><line style="stroke:#272B30;stroke-width:0.5;" x1="10" x2="702" y1="228.3711" y2="228.3711"/><ellipse cx="20" cy="242.1152" fill="#84BE84" rx="3" ry="3" style="stroke:#038048;stroke-width:1.0;"/><text fill="#000000" font-family="sans-serif" font-size="14" lengthAdjust="spacing" textLength="86" x="29" y="245.9063">build() : void</text><ellipse cx="20" cy="258.6035" fill="#84BE84" rx="3" ry="3" style="stroke:#038048;stroke-width:1.0;"/><text fill="#000000" font-family="sans-serif" font-size="14" lengthAdjust="spacing" textLength="482" x="29" y="262.3945">changeProperty(propertyName: string, propertyValue: unknown) : void</text><ellipse cx="20" cy="275.0918" fill="#84BE84" rx="3" ry="3" style="stroke:#038048;stroke-width:1.0;"/><text fill="#000000" font-family="sans-serif" font-size="14" lengthAdjust="spacing" textLength="236" x="29" y="278.8828">checkAddedProviderEvents() : void</text><ellipse cx="20" cy="291.5801" fill="#84BE84" rx="3" ry="3" style="stroke:#038048;stroke-width:1.0;"/><text fill="#000000" font-family="sans-serif" font-size="14" lengthAdjust="spacing" textLength="247" x="29" y="295.3711">checkPendingProviderEvents() : void</text><ellipse cx="20" cy="308.0684" fill="#84BE84" rx="3" ry="3" style="stroke:#038048;stroke-width:1.0;"/><text fill="#000000" font-family="sans-serif" font-size="14" lengthAdjust="spacing" textLength="84" x="29" y="311.8594">clear() : void</text><ellipse cx="20" cy="324.5566" fill="#84BE84" rx="3" ry="3" style="stroke:#038048;stroke-width:1.0;"/><text fill="#000000" font-family="sans-serif" font-size="14" lengthAdjust="spacing" textLength="86" x="29" y="328.3477">close() : void</text><ellipse cx="20" cy="341.0449" fill="#84BE84" rx="3" ry="3" style="stroke:#038048;stroke-width:1.0;"/><text fill="#000000" font-family="sans-serif" font-size="14" lengthAdjust="spacing" textLength="271" x="29" y="344.8359">disableDays(disableDays: string[]) : void</text><ellipse cx="20" cy="357.5332" fill="#84BE84" rx="3" ry="3" style="stroke:#038048;stroke-width:1.0;"/><text fill="#000000" font-family="sans-serif" font-size="14" lengthAdjust="spacing" textLength="357" x="29" y="361.3242">disableWeekDays(disableWeekDays: number[]) : void</text><ellipse cx="20" cy="374.0215" fill="#84BE84" rx="3" ry="3" style="stroke:#038048;stroke-width:1.0;"/><text fill="#000000" font-family="sans-serif" font-size="14" lengthAdjust="spacing" textLength="104" x="29" y="377.8125">dispose() : void</text><ellipse cx="20" cy="390.5098" fill="#84BE84" rx="3" ry="3" style="stroke:#038048;stroke-width:1.0;"/><text fill="#000000" font-family="sans-serif" font-size="14" lengthAdjust="spacing" textLength="266" x="29" y="394.3008">equalsToID(patternId: string) : boolean</text><ellipse cx="20" cy="406.998" fill="#84BE84" rx="3" ry="3" style="stroke:#038048;stroke-width:1.0;"/><text fill="#000000" font-family="sans-serif" font-size="14" lengthAdjust="spacing" textLength="86" x="29" y="410.7891">open() : void</text><ellipse cx="20" cy="423.4863" fill="#84BE84" rx="3" ry="3" style="stroke:#038048;stroke-width:1.0;"/><text fill="#000000" font-family="sans-serif" font-size="14" lengthAdjust="spacing" textLength="428" x="29" y="427.2773">registerCallback(eventName: string, callback: OSGeneric) : void</text><ellipse cx="20" cy="439.9746" fill="#84BE84" rx="3" ry="3" style="stroke:#038048;stroke-width:1.0;"/><text fill="#000000" font-family="sans-serif" font-size="14" lengthAdjust="spacing" textLength="292" x="29" y="443.7656">setEditableInput(isEditable: boolean) : void</text><ellipse cx="20" cy="456.4629" fill="#84BE84" rx="3" ry="3" style="stroke:#038048;stroke-width:1.0;"/><text fill="#000000" font-family="sans-serif" font-size="14" lengthAdjust="spacing" textLength="222" x="29" y="460.2539">setLanguage(value: string) : void</text><ellipse cx="20" cy="472.9512" fill="#84BE84" rx="3" ry="3" style="stroke:#038048;stroke-width:1.0;"/><text fill="#000000" font-family="sans-serif" font-size="14" lengthAdjust="spacing" textLength="383" x="29" y="476.7422">setProviderConfigs(newConfigs: FlatpickrOptions) : void</text><ellipse cx="20" cy="489.4395" fill="#84BE84" rx="3" ry="3" style="stroke:#038048;stroke-width:1.0;"/><text fill="#000000" font-family="sans-serif" font-size="14" lengthAdjust="spacing" textLength="668" x="29" y="493.2305">setProviderEvent(eventName: string, callback: Generic, uniqueId: string, saveEvent: boolean) : void</text><ellipse cx="20" cy="505.9277" fill="#84BE84" rx="3" ry="3" style="stroke:#038048;stroke-width:1.0;"/><text fill="#000000" font-family="sans-serif" font-size="14" lengthAdjust="spacing" textLength="313" x="29" y="509.7188">toggleNativeBehavior(isNative: boolean) : void</text><ellipse cx="20" cy="522.416" fill="#84BE84" rx="3" ry="3" style="stroke:#038048;stroke-width:1.0;"/><text fill="#000000" font-family="sans-serif" font-size="14" lengthAdjust="spacing" textLength="281" x="29" y="526.207">unsetProviderEvent(eventId: string) : void</text><ellipse cx="20" cy="538.9043" fill="#84BE84" rx="3" ry="3" style="stroke:#038048;stroke-width:1.0;"/><text fill="#000000" font-family="sans-serif" font-size="14" font-style="italic" lengthAdjust="spacing" textLength="329" x="29" y="542.6953">updateInitialDate(start: string, end: string) : void</text><ellipse cx="20" cy="555.3926" fill="#84BE84" rx="3" ry="3" style="stroke:#038048;stroke-width:1.0;"/><text fill="#000000" font-family="sans-serif" font-size="14" lengthAdjust="spacing" textLength="307" x="29" y="559.1836">updatePrompt(promptMessage: string) : void</text><ellipse cx="20" cy="571.8809" fill="#84BE84" rx="3" ry="3" style="stroke:#038048;stroke-width:1.0;"/><text fill="#000000" font-family="sans-serif" font-size="14" lengthAdjust="spacing" textLength="377" x="29" y="575.6719">updateProviderEvents(providerInfo: ProviderInfo) : void</text><polygon fill="#FFFF44" points="20,583.3691,24,587.3691,20,591.3691,16,587.3691" style="stroke:#B38D22;stroke-width:1.0;"/><text fill="#000000" font-family="sans-serif" font-size="14" lengthAdjust="spacing" textLength="141" x="29" y="592.1602">addTodayBtn() : void</text><polygon fill="#FFFF44" points="20,599.8574,24,603.8574,20,607.8574,16,603.8574" style="stroke:#B38D22;stroke-width:1.0;"/><text fill="#000000" font-family="sans-serif" font-size="14" lengthAdjust="spacing" textLength="207" x="29" y="608.6484">createProviderInstance() : void</text><polygon fill="#FFFF44" points="20,616.3457,24,620.3457,20,624.3457,16,620.3457" style="stroke:#B38D22;stroke-width:1.0;"/><text fill="#000000" font-family="sans-serif" font-size="14" lengthAdjust="spacing" textLength="123" x="29" y="625.1367">finishBuild() : void</text><polygon fill="#FFFF44" points="20,632.834,24,636.834,20,640.834,16,636.834" style="stroke:#B38D22;stroke-width:1.0;"/><text fill="#000000" font-family="sans-serif" font-size="14" lengthAdjust="spacing" textLength="155" x="29" y="641.625">jumpIntoToday() : void</text><polygon fill="#FFFF44" points="20,649.3223,24,653.3223,20,657.3223,16,653.3223" style="stroke:#B38D22;stroke-width:1.0;"/><text fill="#000000" font-family="sans-serif" font-size="14" font-style="italic" lengthAdjust="spacing" textLength="337" x="29" y="658.1133">onDateSelectedEvent(selectedDates: Date[]) : void</text><polygon fill="#FFFF44" points="20,665.8105,24,669.8105,20,673.8105,16,669.8105" style="stroke:#B38D22;stroke-width:1.0;"/><text fill="#000000" font-family="sans-serif" font-size="14" lengthAdjust="spacing" textLength="158" x="29" y="674.6016">prepareConfigs() : void</text><polygon fill="#FFFF44" points="20,682.2988,24,686.2988,20,690.2988,16,686.2988" style="stroke:#B38D22;stroke-width:1.0;"/><text fill="#000000" font-family="sans-serif" font-size="14" lengthAdjust="spacing" textLength="202" x="29" y="691.0898">prepareToAndRedraw() : void</text><polygon fill="#FFFF44" points="20,698.7871,24,702.7871,20,706.7871,16,702.7871" style="stroke:#B38D22;stroke-width:1.0;"/><text fill="#000000" font-family="sans-serif" font-size="14" lengthAdjust="spacing" textLength="99" x="29" y="707.5781">redraw() : void</text><polygon fill="#FFFF44" points="20,715.2754,24,719.2754,20,723.2754,16,719.2754" style="stroke:#B38D22;stroke-width:1.0;"/><text fill="#000000" font-family="sans-serif" font-size="14" lengthAdjust="spacing" textLength="178" x="29" y="724.0664">setA11YProperties() : void</text><polygon fill="#FFFF44" points="20,731.7637,24,735.7637,20,739.7637,16,735.7637" style="stroke:#B38D22;stroke-width:1.0;"/><text fill="#000000" font-family="sans-serif" font-size="14" lengthAdjust="spacing" textLength="136" x="29" y="740.5547">setCallbacks() : void</text><polygon fill="#FFFF44" points="20,748.252,24,752.252,20,756.252,16,752.252" style="stroke:#B38D22;stroke-width:1.0;"/><text fill="#000000" font-family="sans-serif" font-size="14" lengthAdjust="spacing" textLength="165" x="29" y="757.043">setHtmlElements() : void</text><polygon fill="#FFFF44" points="20,764.7402,24,768.7402,20,772.7402,16,768.7402" style="stroke:#B38D22;stroke-width:1.0;"/><text fill="#000000" font-family="sans-serif" font-size="14" font-style="italic" lengthAdjust="spacing" textLength="271" x="29" y="773.5313">todayBtnClick(event: MouseEvent) : void</text><polygon fill="#FFFF44" points="20,781.2285,24,785.2285,20,789.2285,16,785.2285" style="stroke:#B38D22;stroke-width:1.0;"/><text fill="#000000" font-family="sans-serif" font-size="14" lengthAdjust="spacing" textLength="570" x="29" y="790.0195">triggerPlatformEventCallback(platFormCallback: OSGeneric, args: unknown[]) : void</text><polygon fill="#FFFF44" points="20,797.7168,24,801.7168,20,805.7168,16,801.7168" style="stroke:#B38D22;stroke-width:1.0;"/><text fill="#000000" font-family="sans-serif" font-size="14" lengthAdjust="spacing" textLength="318" x="29" y="806.5078">triggerPlatformInitializedEventCallback() : void</text><polygon fill="#FFFF44" points="20,814.2051,24,818.2051,20,822.2051,16,818.2051" style="stroke:#B38D22;stroke-width:1.0;"/><text fill="#000000" font-family="sans-serif" font-size="14" lengthAdjust="spacing" textLength="154" x="29" y="822.9961">unsetCallbacks() : void</text><polygon fill="#FFFF44" points="20,830.6934,24,834.6934,20,838.6934,16,834.6934" style="stroke:#B38D22;stroke-width:1.0;"/><text fill="#000000" font-family="sans-serif" font-size="14" lengthAdjust="spacing" textLength="198" x="29" y="839.4844">unsetGlobalCallbacks() : void</text><polygon fill="#FFFF44" points="20,847.1816,24,851.1816,20,855.1816,16,851.1816" style="stroke:#B38D22;stroke-width:1.0;"/><text fill="#000000" font-family="sans-serif" font-size="14" lengthAdjust="spacing" textLength="183" x="29" y="855.9727">unsetHtmlElements() : void</text><polygon fill="#FFFF44" points="20,863.6699,24,867.6699,20,871.6699,16,867.6699" style="stroke:#B38D22;stroke-width:1.0;"/><text fill="#000000" font-family="sans-serif" font-size="14" font-style="italic" lengthAdjust="spacing" textLength="226" x="29" y="872.4609">updatePlatformInputAttrs() : void</text><rect fill="#F24D5C" height="6" style="stroke:#C82930;stroke-width:1.0;" width="6" x="17" y="882.1582"/><text fill="#000000" font-family="sans-serif" font-size="14" lengthAdjust="spacing" textLength="146" x="29" y="888.9492">_setAttributes() : void</text><rect fill="#F24D5C" height="6" style="stroke:#C82930;stroke-width:1.0;" width="6" x="17" y="898.6465"/><text fill="#000000" font-family="sans-serif" font-size="14" lengthAdjust="spacing" textLength="215" x="29" y="905.4375">_setCalendarCssClasses() : void</text><rect fill="#F24D5C" height="6" style="stroke:#C82930;stroke-width:1.0;" width="6" x="17" y="915.1348"/><text fill="#000000" font-family="sans-serif" font-size="14" lengthAdjust="spacing" textLength="192" x="29" y="921.9258">_setParentMinHeight() : void</text><rect fill="#F24D5C" height="6" style="stroke:#C82930;stroke-width:1.0;" width="6" x="17" y="931.623"/><text fill="#000000" font-family="sans-serif" font-size="14" lengthAdjust="spacing" textLength="321" x="29" y="938.4141">_todayButtonKeydown(e: KeyboardEvent) : void</text><rect fill="#F24D5C" height="6" style="stroke:#C82930;stroke-width:1.0;" width="6" x="17" y="948.1113"/><text fill="#000000" font-family="sans-serif" font-size="14" lengthAdjust="spacing" textLength="210" x="29" y="954.9023">_unsetParentMinHeight() : void</text></g><!--reverse link AbstractFlatpickr<FlatpickrRangeDateConfig> to OSUIFlatpickrRangeDate--><g id="link_AbstractFlatpickr&lt;FlatpickrRangeDateConfig&gt;_OSUIFlatpickrRangeDate"><path codeLine="113" d="M356,982.18 C356,995.39 356,1008.57 356,1021.69 " fill="none" id="AbstractFlatpickr&lt;FlatpickrRangeDateConfig&gt;-backto-OSUIFlatpickrRangeDate" style="stroke:#272B30;stroke-width:1.0;"/><polygon fill="none" points="349,982.12,356,962.12,363,982.12,349,982.12" style="stroke:#272B30;stroke-width:1.0;"/></g><!--SRC=[xLXBZzis4BxxLmZnHK7MG3SjKC082jZARjPeDZPYfqLR50jA7CkiAL8XAM-TTFzxXn9bKm-xIQ-nBnPdlXdEMmFfBHCvKIGB8awqdYWb7oF9fGg6Btzy6N__tK0t4LEfAAZp499iKoKBGHrilLvxc0ux0Ve39OCDen10bfjza87PIAfzqfe1HqfYBmYUpPSVPhUSc9mbM_MUY1HU4mFFWi-307z3YeS5ia0j4BIMAfk9l30t7B9W7DojxjyUpY1C9REkrNq5T9uRZQXRxyoaq1MAwOMIE_H0JOa6YhXOIWv4L6mfbi0XCK0ZmdcCGRdPuGq8co_d8jfOfqfA1S-ThfAaxuaWAQ2fsX2H00hD5Zx0yKlH5t71E0sV8sWd6QreIQaVPN9GPX_cxk4ToM0SQAEOIA-2cleBuGMI2x4Lyb6q5K6odL0Aj6603djW2n0K5Py7OeHKXoOrj6YKQH9pJFjUXzvpRVmVV_R2VmNO-YBrUHo88ej1zOZbtRlXOq6uNidPwp0dne0ICrfV_BoLvnSOGj6ILv0oZM9ruaEmaMZ6Fd4yMmvlG81YILE91dD3cR5Ub1KQCbsV3nPq9DvYrWkiZ71NfVHeSmDMPoYIOirI7GfuT8_TOZyfNARtl6lEiIiiBVQnW6CKhm9DTbNvdt36o3Jby8uOjeCfRCYEIOKXg0WdP0hHRrupUnu-juDa9fXXXDi14sAxAMEVZePYJVk4FWru9SumssJuTmzQOmR-0-ytIDtwCx6Mus3XdHh2GqBfIbAodvfMmGqJ1PxQUcgqG6iccDvCkyDY-5UHvJDXPAcznPF2Ub-FiYgesfqi1ol6_hKQ2ySPuDi0wWBhPQxaHD3tG1LvR05K7n5pExc-_itDD0QwowyRheTrPpBkXdoRQrnG8yxgNXq7zxBGLO6sm8gbwV6zKo8EVPuZzHQfKRUvhmAYR7kv8TkELqkjgqdsoONyS4DJgYpuKqwNp3TSneIVXPo9Z2jN_nqxCKQrOAC7AJwKI5i9rdzYseX6gorjbs7kRwhMyjGz3KYCVKCI4xXDOEBEXx7qghiNL5NsqsKzw5iFHW_a-dflfmc6oH26rUXvvpisUeWbtIyJ9JcFP9P9uGPleH1TPNWXDRDEpaM5SuArURSoAVGo9sA5rGwczvAgtGfZf3Xfo2ScAFpTCE9em-ybyxBxN7QVo-xpVtUVp_MSVJgv1ZLMe6zq_V72z0riGhwtbwNe2uBqfVkHJHZIMLmOw6EYATXZH4LQbrzOUa4BB1HyjJDn1opTT3OixxNwC-mfXZF4BiJ7M195kqd3dKoSq_eq-BhTwzK_ez793pV_0W00]--></g></svg>