<?xml version="1.0" encoding="UTF-8" standalone="no"?><svg xmlns="http://www.w3.org/2000/svg" xmlns:xlink="http://www.w3.org/1999/xlink" contentScriptType="application/ecmascript" contentStyleType="text/css" height="475px" preserveAspectRatio="none" style="width:502px;height:475px;background:#CED4DA;" version="1.1" viewBox="0 0 502 475" width="502px" zoomAndPan="magnify"><defs><filter height="300%" id="f130g8fe22up56" width="300%" x="-1" y="-1"><feGaussianBlur result="blurOut" stdDeviation="2.0"/><feColorMatrix in="blurOut" result="blurOut2" type="matrix" values="0 0 0 0 0 0 0 0 0 0 0 0 0 0 0 0 0 0 .4 0"/><feOffset dx="4.0" dy="4.0" in="blurOut2" result="blurOut3"/><feBlend in="SourceGraphic" in2="blurOut3" mode="normal"/></filter></defs><g><!--MD5=[3504c17139be4a30779007da82b85c79]
class OSUIDropdownServerSideConfig--><rect codeLine="7" fill="#FFFFFF" filter="url(#f130g8fe22up56)" height="229.3711" id="OSUIDropdownServerSideConfig" style="stroke:#272B30;stroke-width:1.5;" width="479" x="9" y="232"/><ellipse cx="153.25" cy="248" fill="#ADD1B2" rx="11" ry="11" style="stroke:#272B30;stroke-width:1.0;"/><path d="M155.7231,254.1431 Q155.1421,254.4419 154.5029,254.5913 Q153.8638,254.7407 153.1582,254.7407 Q150.6514,254.7407 149.3315,253.0889 Q148.0117,251.437 148.0117,248.3159 Q148.0117,245.1865 149.3315,243.5347 Q150.6514,241.8828 153.1582,241.8828 Q153.8638,241.8828 154.5112,242.0322 Q155.1587,242.1816 155.7231,242.4805 L155.7231,245.2031 Q155.0923,244.6221 154.4988,244.3523 Q153.9053,244.0825 153.2744,244.0825 Q151.9297,244.0825 151.2449,245.1492 Q150.5601,246.2158 150.5601,248.3159 Q150.5601,250.4077 151.2449,251.4744 Q151.9297,252.541 153.2744,252.541 Q153.9053,252.541 154.4988,252.2712 Q155.0923,252.0015 155.7231,251.4204 Z " fill="#000000"/><text fill="#000000" font-family="sans-serif" font-size="12" lengthAdjust="spacing" textLength="182" x="173.75" y="252.5352">OSUIDropdownServerSideConfig</text><line style="stroke:#272B30;stroke-width:1.5;" x1="10" x2="487" y1="264" y2="264"/><ellipse cx="20" cy="275" rx="3" ry="3" style="stroke:#038048;stroke-width:1.0;fill:none;"/><text fill="#000000" font-family="sans-serif" font-size="11" lengthAdjust="spacing" textLength="171" x="29" y="278.6348">AllowMultipleSelection : boolean</text><ellipse cx="20" cy="287.9551" rx="3" ry="3" style="stroke:#038048;stroke-width:1.0;fill:none;"/><text fill="#000000" font-family="sans-serif" font-size="11" lengthAdjust="spacing" textLength="120" x="29" y="291.5898">ExtendedClass : string</text><ellipse cx="20" cy="300.9102" rx="3" ry="3" style="stroke:#038048;stroke-width:1.0;fill:none;"/><text fill="#000000" font-family="sans-serif" font-size="11" lengthAdjust="spacing" textLength="107" x="29" y="304.5449">IsDisabled : boolean</text><rect fill="none" height="6" style="stroke:#C82930;stroke-width:1.0;" width="6" x="17" y="310.8652"/><text fill="#000000" font-family="sans-serif" font-size="11" lengthAdjust="spacing" textLength="202" x="29" y="317.5">_balloonMaxHeight : PropertiesValues</text><rect fill="none" height="6" style="stroke:#C82930;stroke-width:1.0;" width="6" x="17" y="323.8203"/><text fill="#000000" font-family="sans-serif" font-size="11" lengthAdjust="spacing" textLength="177" x="29" y="330.4551">_balloonOptionsArialabel : string</text><rect fill="none" height="6" style="stroke:#C82930;stroke-width:1.0;" width="6" x="17" y="336.7754"/><text fill="#000000" font-family="sans-serif" font-size="11" lengthAdjust="spacing" textLength="266" x="29" y="343.4102">_selectValuesWrapperAriaLabel : PropertiesValues</text><line style="stroke:#272B30;stroke-width:1.5;" x1="10" x2="487" y1="349.7305" y2="349.7305"/><ellipse cx="20" cy="360.7305" fill="#84BE84" rx="3" ry="3" style="stroke:#038048;stroke-width:1.0;"/><text fill="#000000" font-family="sans-serif" font-size="11" lengthAdjust="spacing" textLength="318" x="29" y="364.3652">validateCanChange(_isBuilt: boolean, _key: string) : boolean</text><ellipse cx="20" cy="373.6855" fill="#84BE84" rx="3" ry="3" style="stroke:#038048;stroke-width:1.0;"/><text fill="#000000" font-family="sans-serif" font-size="11" lengthAdjust="spacing" textLength="290" x="29" y="377.3203">validateDefault(key: string, value: unknown) : unknown</text><polygon fill="#FFFF44" points="20,381.6406,24,385.6406,20,389.6406,16,385.6406" style="stroke:#B38D22;stroke-width:1.0;"/><text fill="#000000" font-family="sans-serif" font-size="11" lengthAdjust="spacing" textLength="341" x="29" y="390.2754">validateBoolean(value: boolean, defaultValue: boolean) : boolean</text><polygon fill="#FFFF44" points="20,394.5957,24,398.5957,20,402.5957,16,398.5957" style="stroke:#B38D22;stroke-width:1.0;"/><text fill="#000000" font-family="sans-serif" font-size="11" lengthAdjust="spacing" textLength="358" x="29" y="403.2305">validateDate(value: string | Date, defaultValue: string) : string | Date</text><polygon fill="#FFFF44" points="20,407.5508,24,411.5508,20,415.5508,16,411.5508" style="stroke:#B38D22;stroke-width:1.0;"/><text fill="#000000" font-family="sans-serif" font-size="11" lengthAdjust="spacing" textLength="453" x="29" y="416.1855">validateInRange(value: unknown, defaultValue: unknown, args: unknown[]) : unknown</text><polygon fill="#FFFF44" points="20,420.5059,24,424.5059,20,428.5059,16,424.5059" style="stroke:#B38D22;stroke-width:1.0;"/><text fill="#000000" font-family="sans-serif" font-size="11" lengthAdjust="spacing" textLength="339" x="29" y="429.1406">validateNumber(value: number, defaultValue: number) : number</text><polygon fill="#FFFF44" points="20,433.4609,24,437.4609,20,441.4609,16,437.4609" style="stroke:#B38D22;stroke-width:1.0;"/><text fill="#000000" font-family="sans-serif" font-size="11" lengthAdjust="spacing" textLength="298" x="29" y="442.0957">validateString(value: string, defaultValue: string) : string</text><polygon fill="#FFFF44" points="20,446.416,24,450.416,20,454.416,16,450.416" style="stroke:#B38D22;stroke-width:1.0;"/><text fill="#000000" font-family="sans-serif" font-size="11" lengthAdjust="spacing" textLength="292" x="29" y="455.0508">validateTime(value: string, defaultValue: string) : string</text><!--MD5=[cf034526073bc6863bceac2b0caf27a3]
class AbstractConfiguration--><rect codeLine="23" fill="#FFFFFF" filter="url(#f130g8fe22up56)" height="164.5957" id="AbstractConfiguration" style="stroke:#272B30;stroke-width:1.5;" width="479" x="9" y="7"/><ellipse cx="182.25" cy="23" fill="#A9DCDF" rx="11" ry="11" style="stroke:#272B30;stroke-width:1.0;"/><path d="M182.1133,18.3481 L180.9595,23.4199 L183.2754,23.4199 Z M180.6191,16.1069 L183.6157,16.1069 L186.9609,28.5 L184.5122,28.5 L183.7485,25.437 L180.4697,25.437 L179.7227,28.5 L177.2739,28.5 Z " fill="#000000"/><text fill="#000000" font-family="sans-serif" font-size="12" font-style="italic" lengthAdjust="spacing" textLength="124" x="202.75" y="27.5352">AbstractConfiguration</text><line style="stroke:#272B30;stroke-width:1.5;" x1="10" x2="487" y1="39" y2="39"/><ellipse cx="20" cy="50" rx="3" ry="3" style="stroke:#038048;stroke-width:1.0;fill:none;"/><text fill="#000000" font-family="sans-serif" font-size="11" lengthAdjust="spacing" textLength="120" x="29" y="53.6348">ExtendedClass : string</text><line style="stroke:#272B30;stroke-width:1.5;" x1="10" x2="487" y1="59.9551" y2="59.9551"/><ellipse cx="20" cy="70.9551" fill="#84BE84" rx="3" ry="3" style="stroke:#038048;stroke-width:1.0;"/><text fill="#000000" font-family="sans-serif" font-size="11" lengthAdjust="spacing" textLength="318" x="29" y="74.5898">validateCanChange(_isBuilt: boolean, _key: string) : boolean</text><ellipse cx="20" cy="83.9102" fill="#84BE84" rx="3" ry="3" style="stroke:#038048;stroke-width:1.0;"/><text fill="#000000" font-family="sans-serif" font-size="11" lengthAdjust="spacing" textLength="296" x="29" y="87.5449">validateDefault(_key: string, value: unknown) : unknown</text><polygon fill="#FFFF44" points="20,91.8652,24,95.8652,20,99.8652,16,95.8652" style="stroke:#B38D22;stroke-width:1.0;"/><text fill="#000000" font-family="sans-serif" font-size="11" lengthAdjust="spacing" textLength="341" x="29" y="100.5">validateBoolean(value: boolean, defaultValue: boolean) : boolean</text><polygon fill="#FFFF44" points="20,104.8203,24,108.8203,20,112.8203,16,108.8203" style="stroke:#B38D22;stroke-width:1.0;"/><text fill="#000000" font-family="sans-serif" font-size="11" lengthAdjust="spacing" textLength="358" x="29" y="113.4551">validateDate(value: string | Date, defaultValue: string) : string | Date</text><polygon fill="#FFFF44" points="20,117.7754,24,121.7754,20,125.7754,16,121.7754" style="stroke:#B38D22;stroke-width:1.0;"/><text fill="#000000" font-family="sans-serif" font-size="11" lengthAdjust="spacing" textLength="453" x="29" y="126.4102">validateInRange(value: unknown, defaultValue: unknown, args: unknown[]) : unknown</text><polygon fill="#FFFF44" points="20,130.7305,24,134.7305,20,138.7305,16,134.7305" style="stroke:#B38D22;stroke-width:1.0;"/><text fill="#000000" font-family="sans-serif" font-size="11" lengthAdjust="spacing" textLength="339" x="29" y="139.3652">validateNumber(value: number, defaultValue: number) : number</text><polygon fill="#FFFF44" points="20,143.6855,24,147.6855,20,151.6855,16,147.6855" style="stroke:#B38D22;stroke-width:1.0;"/><text fill="#000000" font-family="sans-serif" font-size="11" lengthAdjust="spacing" textLength="298" x="29" y="152.3203">validateString(value: string, defaultValue: string) : string</text><polygon fill="#FFFF44" points="20,156.6406,24,160.6406,20,164.6406,16,160.6406" style="stroke:#B38D22;stroke-width:1.0;"/><text fill="#000000" font-family="sans-serif" font-size="11" lengthAdjust="spacing" textLength="292" x="29" y="165.2754">validateTime(value: string, defaultValue: string) : string</text><!--MD5=[38a26cff69ac87c7e524bf4109513f3d]
reverse link AbstractConfiguration to OSUIDropdownServerSideConfig--><path codeLine="34" d="M248.5,192.7 C248.5,205.53 248.5,218.71 248.5,231.7 " fill="none" id="AbstractConfiguration-backto-OSUIDropdownServerSideConfig" style="stroke:#272B30;stroke-width:1.0;"/><polygon fill="none" points="241.5,192.24,248.5,172.24,255.5,192.24,241.5,192.24" style="stroke:#272B30;stroke-width:1.0;"/><!--MD5=[cf01d30f93be0c01f74d5b5c7c24b56a]
@startuml
skinparam ClassArrowColor #272b30
skinparam ClassBorderColor #272b30
skinparam ClassBackgroundColor #fff
skinparam BackgroundColor #ced4da
hide empty methods
hide empty fields
class "OSUIDropdownServerSideConfig" {
    +AllowMultipleSelection : boolean
    +ExtendedClass : string
    +IsDisabled : boolean
    -_balloonMaxHeight : PropertiesValues
    -_balloonOptionsArialabel : string
    -_selectValuesWrapperAriaLabel : PropertiesValues
    +validateCanChange(_isBuilt: boolean, _key: string) : boolean
    +validateDefault(key: string, value: unknown) : unknown
    #validateBoolean(value: boolean, defaultValue: boolean) : boolean
    #validateDate(value: string | Date, defaultValue: string) : string | Date
    #validateInRange(value: unknown, defaultValue: unknown, args: unknown[]) : unknown
    #validateNumber(value: number, defaultValue: number) : number
    #validateString(value: string, defaultValue: string) : string
    #validateTime(value: string, defaultValue: string) : string
}
abstract class "AbstractConfiguration" {
    +ExtendedClass : string
    +validateCanChange(_isBuilt: boolean, _key: string) : boolean
    +validateDefault(_key: string, value: unknown) : unknown
    #validateBoolean(value: boolean, defaultValue: boolean) : boolean
    #validateDate(value: string | Date, defaultValue: string) : string | Date
    #validateInRange(value: unknown, defaultValue: unknown, args: unknown[]) : unknown
    #validateNumber(value: number, defaultValue: number) : number
    #validateString(value: string, defaultValue: string) : string
    #validateTime(value: string, defaultValue: string) : string
}
"AbstractConfiguration" <|- - "OSUIDropdownServerSideConfig"
@enduml

PlantUML version 1.2021.14(Fri Nov 12 16:46:50 WET 2021)
(GPL source distribution)
Java Runtime: Java(TM) SE Runtime Environment
JVM: Java HotSpot(TM) 64-Bit Server VM
Default Encoding: UTF-8
Language: en
Country: PT
--></g></svg>