<?xml version="1.0" encoding="us-ascii" standalone="no"?><svg xmlns="http://www.w3.org/2000/svg" xmlns:xlink="http://www.w3.org/1999/xlink" contentStyleType="text/css" height="1652px" preserveAspectRatio="none" style="width:723px;height:1652px;background:#CED4DA;" version="1.1" viewBox="0 0 723 1652" width="723px" zoomAndPan="magnify"><defs/><g><rect fill="#CED4DA" height="1652" style="stroke:none;stroke-width:1.0;" width="723" x="0" y="0"/><!--class OSUIVirtualSelectSearch--><g id="elem_OSUIVirtualSelectSearch"><rect codeLine="7" fill="#FFFFFF" height="683.5781" id="OSUIVirtualSelectSearch" rx="2.5" ry="2.5" style="stroke:#272B30;stroke-width:0.5;" width="707" x="9" y="962"/><ellipse cx="275.25" cy="978" fill="#ADD1B2" rx="11" ry="11" style="stroke:#181818;stroke-width:1.0;"/><path d="M278.2188,983.6406 Q277.6406,983.9375 277,984.0781 Q276.3594,984.2344 275.6563,984.2344 Q273.1563,984.2344 271.8281,982.5938 Q270.5156,980.9375 270.5156,977.8125 Q270.5156,974.6875 271.8281,973.0313 Q273.1563,971.375 275.6563,971.375 Q276.3594,971.375 277,971.5313 Q277.6563,971.6875 278.2188,971.9844 L278.2188,974.7031 Q277.5938,974.125 277,973.8594 Q276.4063,973.5781 275.7813,973.5781 Q274.4375,973.5781 273.75,974.6563 Q273.0625,975.7188 273.0625,977.8125 Q273.0625,979.9063 273.75,980.9844 Q274.4375,982.0469 275.7813,982.0469 Q276.4063,982.0469 277,981.7813 Q277.5938,981.5 278.2188,980.9219 L278.2188,983.6406 Z " fill="#000000"/><text fill="#000000" font-family="sans-serif" font-size="14" lengthAdjust="spacing" textLength="166" x="295.75" y="982.8467">OSUIVirtualSelectSearch</text><line style="stroke:#272B30;stroke-width:0.5;" x1="10" x2="715" y1="994" y2="994"/><polygon fill="none" points="20,1002.6484,24,1006.6484,20,1010.6484,16,1006.6484" style="stroke:#B38D22;stroke-width:1.0;"/><text fill="#000000" font-family="sans-serif" font-size="14" lengthAdjust="spacing" textLength="274" x="29" y="1010.9951">hiddenInputWrapperAriaLabelVal : string</text><polygon fill="none" points="20,1018.9453,24,1022.9453,20,1026.9453,16,1022.9453" style="stroke:#B38D22;stroke-width:1.0;"/><text fill="#000000" font-family="sans-serif" font-size="14" lengthAdjust="spacing" textLength="180" x="29" y="1027.292">isProviderBased : boolean</text><polygon fill="none" points="20,1035.2422,24,1039.2422,20,1043.2422,16,1039.2422" style="stroke:#B38D22;stroke-width:1.0;"/><text fill="#000000" font-family="sans-serif" font-size="14" lengthAdjust="spacing" textLength="393" x="29" y="1043.5889">providerEventsManagerInstance : IProviderEventManager</text><polygon fill="none" points="20,1051.5391,24,1055.5391,20,1059.5391,16,1055.5391" style="stroke:#B38D22;stroke-width:1.0;"/><text fill="#000000" font-family="sans-serif" font-size="14" lengthAdjust="spacing" textLength="293" x="29" y="1059.8857">virtualselectConfigs : VirtualSelectMethods</text><polygon fill="none" points="20,1067.8359,24,1071.8359,20,1075.8359,16,1071.8359" style="stroke:#B38D22;stroke-width:1.0;"/><text fill="#000000" font-family="sans-serif" font-size="14" lengthAdjust="spacing" textLength="246" x="29" y="1076.1826">virtualselectOpts : VirtualSelectOpts</text><line style="stroke:#272B30;stroke-width:0.5;" x1="10" x2="715" y1="1083.4844" y2="1083.4844"/><ellipse cx="20" cy="1097.1328" fill="#84BE84" rx="3" ry="3" style="stroke:#038048;stroke-width:1.0;"/><text fill="#000000" font-family="sans-serif" font-size="14" lengthAdjust="spacing" textLength="84" x="29" y="1100.4795">build() : void</text><ellipse cx="20" cy="1113.4297" fill="#84BE84" rx="3" ry="3" style="stroke:#038048;stroke-width:1.0;"/><text fill="#000000" font-family="sans-serif" font-size="14" lengthAdjust="spacing" textLength="484" x="29" y="1116.7764">changeProperty(propertyName: string, propertyValue: unknown) : void</text><ellipse cx="20" cy="1129.7266" fill="#84BE84" rx="3" ry="3" style="stroke:#038048;stroke-width:1.0;"/><text fill="#000000" font-family="sans-serif" font-size="14" lengthAdjust="spacing" textLength="241" x="29" y="1133.0732">checkAddedProviderEvents() : void</text><ellipse cx="20" cy="1146.0234" fill="#84BE84" rx="3" ry="3" style="stroke:#038048;stroke-width:1.0;"/><text fill="#000000" font-family="sans-serif" font-size="14" lengthAdjust="spacing" textLength="253" x="29" y="1149.3701">checkPendingProviderEvents() : void</text><ellipse cx="20" cy="1162.3203" fill="#84BE84" rx="3" ry="3" style="stroke:#038048;stroke-width:1.0;"/><text fill="#000000" font-family="sans-serif" font-size="14" lengthAdjust="spacing" textLength="84" x="29" y="1165.667">clear() : void</text><ellipse cx="20" cy="1178.6172" fill="#84BE84" rx="3" ry="3" style="stroke:#038048;stroke-width:1.0;"/><text fill="#000000" font-family="sans-serif" font-size="14" lengthAdjust="spacing" textLength="88" x="29" y="1181.9639">close() : void</text><ellipse cx="20" cy="1194.9141" fill="#84BE84" rx="3" ry="3" style="stroke:#038048;stroke-width:1.0;"/><text fill="#000000" font-family="sans-serif" font-size="14" lengthAdjust="spacing" textLength="100" x="29" y="1198.2607">disable() : void</text><ellipse cx="20" cy="1211.2109" fill="#84BE84" rx="3" ry="3" style="stroke:#038048;stroke-width:1.0;"/><text fill="#000000" font-family="sans-serif" font-size="14" lengthAdjust="spacing" textLength="106" x="29" y="1214.5576">dispose() : void</text><ellipse cx="20" cy="1227.5078" fill="#84BE84" rx="3" ry="3" style="stroke:#038048;stroke-width:1.0;"/><text fill="#000000" font-family="sans-serif" font-size="14" lengthAdjust="spacing" textLength="98" x="29" y="1230.8545">enable() : void</text><ellipse cx="20" cy="1243.8047" fill="#84BE84" rx="3" ry="3" style="stroke:#038048;stroke-width:1.0;"/><text fill="#000000" font-family="sans-serif" font-size="14" lengthAdjust="spacing" textLength="267" x="29" y="1247.1514">equalsToID(patternId: string) : boolean</text><ellipse cx="20" cy="1260.1016" fill="#84BE84" rx="3" ry="3" style="stroke:#038048;stroke-width:1.0;"/><text fill="#000000" font-family="sans-serif" font-size="14" lengthAdjust="spacing" textLength="192" x="29" y="1263.4482">getSelectedValues() : string</text><ellipse cx="20" cy="1276.3984" fill="#84BE84" rx="3" ry="3" style="stroke:#038048;stroke-width:1.0;"/><text fill="#000000" font-family="sans-serif" font-size="14" lengthAdjust="spacing" textLength="87" x="29" y="1279.7451">open() : void</text><ellipse cx="20" cy="1292.6953" fill="#84BE84" rx="3" ry="3" style="stroke:#038048;stroke-width:1.0;"/><text fill="#000000" font-family="sans-serif" font-size="14" lengthAdjust="spacing" textLength="434" x="29" y="1296.042">registerCallback(eventName: string, callback: OSGeneric) : void</text><ellipse cx="20" cy="1308.9922" fill="#84BE84" rx="3" ry="3" style="stroke:#038048;stroke-width:1.0;"/><text fill="#000000" font-family="sans-serif" font-size="14" lengthAdjust="spacing" textLength="380" x="29" y="1312.3389">setHiddenInputWrapperAriaLabelVal(value: string) : void</text><ellipse cx="20" cy="1325.2891" fill="#84BE84" rx="3" ry="3" style="stroke:#038048;stroke-width:1.0;"/><text fill="#000000" font-family="sans-serif" font-size="14" lengthAdjust="spacing" textLength="389" x="29" y="1328.6357">setProviderConfigs(newConfigs: VirtualSelectOpts) : void</text><ellipse cx="20" cy="1341.5859" fill="#84BE84" rx="3" ry="3" style="stroke:#038048;stroke-width:1.0;"/><text fill="#000000" font-family="sans-serif" font-size="14" lengthAdjust="spacing" textLength="681" x="29" y="1344.9326">setProviderEvent(eventName: string, callback: Generic, uniqueId: string, saveEvent: boolean) : void</text><ellipse cx="20" cy="1357.8828" fill="#84BE84" rx="3" ry="3" style="stroke:#038048;stroke-width:1.0;"/><text fill="#000000" font-family="sans-serif" font-size="14" lengthAdjust="spacing" textLength="595" x="29" y="1361.2295">setValue(optionsToSelect: DropDownOption[], silentOnChangedEvent: boolean) : void</text><ellipse cx="20" cy="1374.1797" fill="#84BE84" rx="3" ry="3" style="stroke:#038048;stroke-width:1.0;"/><text fill="#000000" font-family="sans-serif" font-size="14" lengthAdjust="spacing" textLength="272" x="29" y="1377.5264">togglePopup(isEnabled: boolean) : void</text><ellipse cx="20" cy="1390.4766" fill="#84BE84" rx="3" ry="3" style="stroke:#038048;stroke-width:1.0;"/><text fill="#000000" font-family="sans-serif" font-size="14" lengthAdjust="spacing" textLength="285" x="29" y="1393.8232">unsetProviderEvent(eventId: string) : void</text><ellipse cx="20" cy="1406.7734" fill="#84BE84" rx="3" ry="3" style="stroke:#038048;stroke-width:1.0;"/><text fill="#000000" font-family="sans-serif" font-size="14" lengthAdjust="spacing" textLength="374" x="29" y="1410.1201">updateProviderEvents(providerInfo: ProviderInfo) : void</text><ellipse cx="20" cy="1423.0703" fill="#84BE84" rx="3" ry="3" style="stroke:#038048;stroke-width:1.0;"/><text fill="#000000" font-family="sans-serif" font-size="14" lengthAdjust="spacing" textLength="406" x="29" y="1426.417">validation(isValid: boolean, validationMessage: string) : void</text><polygon fill="#FFFF44" points="20,1434.3672,24,1438.3672,20,1442.3672,16,1438.3672" style="stroke:#B38D22;stroke-width:1.0;"/><text fill="#000000" font-family="sans-serif" font-size="14" lengthAdjust="spacing" textLength="210" x="29" y="1442.7139">createProviderInstance() : void</text><polygon fill="#FFFF44" points="20,1450.6641,24,1454.6641,20,1458.6641,16,1454.6641" style="stroke:#B38D22;stroke-width:1.0;"/><text fill="#000000" font-family="sans-serif" font-size="14" lengthAdjust="spacing" textLength="121" x="29" y="1459.0107">finishBuild() : void</text><polygon fill="#FFFF44" points="20,1466.9609,24,1470.9609,20,1474.9609,16,1470.9609" style="stroke:#B38D22;stroke-width:1.0;"/><text fill="#000000" font-family="sans-serif" font-size="14" lengthAdjust="spacing" textLength="355" x="29" y="1475.3076">getSelectedOptionsStructure() : DropDownOption[]</text><polygon fill="#FFFF44" points="20,1483.2578,24,1487.2578,20,1491.2578,16,1487.2578" style="stroke:#B38D22;stroke-width:1.0;"/><text fill="#000000" font-family="sans-serif" font-size="14" lengthAdjust="spacing" textLength="157" x="29" y="1491.6045">prepareConfigs() : void</text><polygon fill="#FFFF44" points="20,1499.5547,24,1503.5547,20,1507.5547,16,1503.5547" style="stroke:#B38D22;stroke-width:1.0;"/><text fill="#000000" font-family="sans-serif" font-size="14" lengthAdjust="spacing" textLength="98" x="29" y="1507.9014">redraw() : void</text><polygon fill="#FFFF44" points="20,1515.8516,24,1519.8516,20,1523.8516,16,1519.8516" style="stroke:#B38D22;stroke-width:1.0;"/><text fill="#000000" font-family="sans-serif" font-size="14" lengthAdjust="spacing" textLength="180" x="29" y="1524.1982">setA11YProperties() : void</text><polygon fill="#FFFF44" points="20,1532.1484,24,1536.1484,20,1540.1484,16,1536.1484" style="stroke:#B38D22;stroke-width:1.0;"/><text fill="#000000" font-family="sans-serif" font-size="14" lengthAdjust="spacing" textLength="138" x="29" y="1540.4951">setCallbacks() : void</text><polygon fill="#FFFF44" points="20,1548.4453,24,1552.4453,20,1556.4453,16,1552.4453" style="stroke:#B38D22;stroke-width:1.0;"/><text fill="#000000" font-family="sans-serif" font-size="14" lengthAdjust="spacing" textLength="169" x="29" y="1556.792">setHtmlElements() : void</text><polygon fill="#FFFF44" points="20,1564.7422,24,1568.7422,20,1572.7422,16,1568.7422" style="stroke:#B38D22;stroke-width:1.0;"/><text fill="#000000" font-family="sans-serif" font-size="14" lengthAdjust="spacing" textLength="569" x="29" y="1573.0889">triggerPlatformEventCallback(platFormCallback: OSGeneric, args: unknown[]) : void</text><polygon fill="#FFFF44" points="20,1581.0391,24,1585.0391,20,1589.0391,16,1585.0391" style="stroke:#B38D22;stroke-width:1.0;"/><text fill="#000000" font-family="sans-serif" font-size="14" lengthAdjust="spacing" textLength="311" x="29" y="1589.3857">triggerPlatformInitializedEventCallback() : void</text><polygon fill="#FFFF44" points="20,1597.3359,24,1601.3359,20,1605.3359,16,1601.3359" style="stroke:#B38D22;stroke-width:1.0;"/><text fill="#000000" font-family="sans-serif" font-size="14" lengthAdjust="spacing" textLength="156" x="29" y="1605.6826">unsetCallbacks() : void</text><polygon fill="#FFFF44" points="20,1613.6328,24,1617.6328,20,1621.6328,16,1617.6328" style="stroke:#B38D22;stroke-width:1.0;"/><text fill="#000000" font-family="sans-serif" font-size="14" lengthAdjust="spacing" textLength="199" x="29" y="1621.9795">unsetGlobalCallbacks() : void</text><polygon fill="#FFFF44" points="20,1629.9297,24,1633.9297,20,1637.9297,16,1633.9297" style="stroke:#B38D22;stroke-width:1.0;"/><text fill="#000000" font-family="sans-serif" font-size="14" lengthAdjust="spacing" textLength="187" x="29" y="1638.2764">unsetHtmlElements() : void</text></g><!--class AbstractVirtualSelect<VirtualSelectSearchConfig>--><g id="elem_AbstractVirtualSelect&lt;VirtualSelectSearchConfig&gt;"><rect codeLine="48" fill="#FFFFFF" height="895.4375" id="AbstractVirtualSelect&lt;VirtualSelectSearchConfig&gt;" rx="2.5" ry="2.5" style="stroke:#272B30;stroke-width:0.5;" width="707" x="9" y="7"/><ellipse cx="185.75" cy="23" fill="#A9DCDF" rx="11" ry="11" style="stroke:#181818;stroke-width:1.0;"/><path d="M185.8594,18.3438 L184.7031,23.4219 L187.0313,23.4219 L185.8594,18.3438 Z M184.375,16.1094 L187.3594,16.1094 L190.7188,28.5 L188.2656,28.5 L187.5,25.4375 L184.2188,25.4375 L183.4688,28.5 L181.0313,28.5 L184.375,16.1094 Z " fill="#000000"/><text fill="#000000" font-family="sans-serif" font-size="14" font-style="italic" lengthAdjust="spacing" textLength="345" x="206.25" y="27.8467">AbstractVirtualSelect&lt;VirtualSelectSearchConfig&gt;</text><line style="stroke:#272B30;stroke-width:0.5;" x1="10" x2="715" y1="39" y2="39"/><polygon fill="none" points="20,47.6484,24,51.6484,20,55.6484,16,51.6484" style="stroke:#B38D22;stroke-width:1.0;"/><text fill="#000000" font-family="sans-serif" font-size="14" lengthAdjust="spacing" textLength="274" x="29" y="55.9951">hiddenInputWrapperAriaLabelVal : string</text><polygon fill="none" points="20,63.9453,24,67.9453,20,71.9453,16,67.9453" style="stroke:#B38D22;stroke-width:1.0;"/><text fill="#000000" font-family="sans-serif" font-size="14" lengthAdjust="spacing" textLength="180" x="29" y="72.292">isProviderBased : boolean</text><polygon fill="none" points="20,80.2422,24,84.2422,20,88.2422,16,84.2422" style="stroke:#B38D22;stroke-width:1.0;"/><text fill="#000000" font-family="sans-serif" font-size="14" lengthAdjust="spacing" textLength="393" x="29" y="88.5889">providerEventsManagerInstance : IProviderEventManager</text><polygon fill="none" points="20,96.5391,24,100.5391,20,104.5391,16,100.5391" style="stroke:#B38D22;stroke-width:1.0;"/><text fill="#000000" font-family="sans-serif" font-size="14" lengthAdjust="spacing" textLength="293" x="29" y="104.8857">virtualselectConfigs : VirtualSelectMethods</text><polygon fill="none" points="20,112.8359,24,116.8359,20,120.8359,16,116.8359" style="stroke:#B38D22;stroke-width:1.0;"/><text fill="#000000" font-family="sans-serif" font-size="14" lengthAdjust="spacing" textLength="246" x="29" y="121.1826">virtualselectOpts : VirtualSelectOpts</text><rect fill="none" height="6" style="stroke:#C82930;stroke-width:1.0;" width="6" x="17" y="131.1328"/><text fill="#000000" font-family="sans-serif" font-size="14" lengthAdjust="spacing" textLength="234" x="29" y="137.4795">_eventOnWindowResize : Generic</text><rect fill="none" height="6" style="stroke:#C82930;stroke-width:1.0;" width="6" x="17" y="147.4297"/><text fill="#000000" font-family="sans-serif" font-size="14" lengthAdjust="spacing" textLength="197" x="29" y="153.7764">_onMouseUpEvent : Generic</text><rect fill="none" height="6" style="stroke:#C82930;stroke-width:1.0;" width="6" x="17" y="163.7266"/><text fill="#000000" font-family="sans-serif" font-size="14" lengthAdjust="spacing" textLength="238" x="29" y="170.0732">_onSelectedOptionEvent : Generic</text><rect fill="none" height="6" style="stroke:#C82930;stroke-width:1.0;" width="6" x="17" y="180.0234"/><text fill="#000000" font-family="sans-serif" font-size="14" lengthAdjust="spacing" textLength="380" x="29" y="186.3701">_platformEventSelectedOptCallback : OSOnSelectEvent</text><line style="stroke:#272B30;stroke-width:0.5;" x1="10" x2="715" y1="193.6719" y2="193.6719"/><ellipse cx="20" cy="207.3203" fill="#84BE84" rx="3" ry="3" style="stroke:#038048;stroke-width:1.0;"/><text fill="#000000" font-family="sans-serif" font-size="14" lengthAdjust="spacing" textLength="84" x="29" y="210.667">build() : void</text><ellipse cx="20" cy="223.6172" fill="#84BE84" rx="3" ry="3" style="stroke:#038048;stroke-width:1.0;"/><text fill="#000000" font-family="sans-serif" font-size="14" lengthAdjust="spacing" textLength="484" x="29" y="226.9639">changeProperty(propertyName: string, propertyValue: unknown) : void</text><ellipse cx="20" cy="239.9141" fill="#84BE84" rx="3" ry="3" style="stroke:#038048;stroke-width:1.0;"/><text fill="#000000" font-family="sans-serif" font-size="14" lengthAdjust="spacing" textLength="241" x="29" y="243.2607">checkAddedProviderEvents() : void</text><ellipse cx="20" cy="256.2109" fill="#84BE84" rx="3" ry="3" style="stroke:#038048;stroke-width:1.0;"/><text fill="#000000" font-family="sans-serif" font-size="14" lengthAdjust="spacing" textLength="253" x="29" y="259.5576">checkPendingProviderEvents() : void</text><ellipse cx="20" cy="272.5078" fill="#84BE84" rx="3" ry="3" style="stroke:#038048;stroke-width:1.0;"/><text fill="#000000" font-family="sans-serif" font-size="14" lengthAdjust="spacing" textLength="84" x="29" y="275.8545">clear() : void</text><ellipse cx="20" cy="288.8047" fill="#84BE84" rx="3" ry="3" style="stroke:#038048;stroke-width:1.0;"/><text fill="#000000" font-family="sans-serif" font-size="14" lengthAdjust="spacing" textLength="88" x="29" y="292.1514">close() : void</text><ellipse cx="20" cy="305.1016" fill="#84BE84" rx="3" ry="3" style="stroke:#038048;stroke-width:1.0;"/><text fill="#000000" font-family="sans-serif" font-size="14" lengthAdjust="spacing" textLength="100" x="29" y="308.4482">disable() : void</text><ellipse cx="20" cy="321.3984" fill="#84BE84" rx="3" ry="3" style="stroke:#038048;stroke-width:1.0;"/><text fill="#000000" font-family="sans-serif" font-size="14" lengthAdjust="spacing" textLength="106" x="29" y="324.7451">dispose() : void</text><ellipse cx="20" cy="337.6953" fill="#84BE84" rx="3" ry="3" style="stroke:#038048;stroke-width:1.0;"/><text fill="#000000" font-family="sans-serif" font-size="14" lengthAdjust="spacing" textLength="98" x="29" y="341.042">enable() : void</text><ellipse cx="20" cy="353.9922" fill="#84BE84" rx="3" ry="3" style="stroke:#038048;stroke-width:1.0;"/><text fill="#000000" font-family="sans-serif" font-size="14" lengthAdjust="spacing" textLength="267" x="29" y="357.3389">equalsToID(patternId: string) : boolean</text><ellipse cx="20" cy="370.2891" fill="#84BE84" rx="3" ry="3" style="stroke:#038048;stroke-width:1.0;"/><text fill="#000000" font-family="sans-serif" font-size="14" lengthAdjust="spacing" textLength="192" x="29" y="373.6357">getSelectedValues() : string</text><ellipse cx="20" cy="386.5859" fill="#84BE84" rx="3" ry="3" style="stroke:#038048;stroke-width:1.0;"/><text fill="#000000" font-family="sans-serif" font-size="14" lengthAdjust="spacing" textLength="87" x="29" y="389.9326">open() : void</text><ellipse cx="20" cy="402.8828" fill="#84BE84" rx="3" ry="3" style="stroke:#038048;stroke-width:1.0;"/><text fill="#000000" font-family="sans-serif" font-size="14" lengthAdjust="spacing" textLength="434" x="29" y="406.2295">registerCallback(eventName: string, callback: OSGeneric) : void</text><ellipse cx="20" cy="419.1797" fill="#84BE84" rx="3" ry="3" style="stroke:#038048;stroke-width:1.0;"/><text fill="#000000" font-family="sans-serif" font-size="14" lengthAdjust="spacing" textLength="380" x="29" y="422.5264">setHiddenInputWrapperAriaLabelVal(value: string) : void</text><ellipse cx="20" cy="435.4766" fill="#84BE84" rx="3" ry="3" style="stroke:#038048;stroke-width:1.0;"/><text fill="#000000" font-family="sans-serif" font-size="14" lengthAdjust="spacing" textLength="389" x="29" y="438.8232">setProviderConfigs(newConfigs: VirtualSelectOpts) : void</text><ellipse cx="20" cy="451.7734" fill="#84BE84" rx="3" ry="3" style="stroke:#038048;stroke-width:1.0;"/><text fill="#000000" font-family="sans-serif" font-size="14" lengthAdjust="spacing" textLength="681" x="29" y="455.1201">setProviderEvent(eventName: string, callback: Generic, uniqueId: string, saveEvent: boolean) : void</text><ellipse cx="20" cy="468.0703" fill="#84BE84" rx="3" ry="3" style="stroke:#038048;stroke-width:1.0;"/><text fill="#000000" font-family="sans-serif" font-size="14" lengthAdjust="spacing" textLength="595" x="29" y="471.417">setValue(optionsToSelect: DropDownOption[], silentOnChangedEvent: boolean) : void</text><ellipse cx="20" cy="484.3672" fill="#84BE84" rx="3" ry="3" style="stroke:#038048;stroke-width:1.0;"/><text fill="#000000" font-family="sans-serif" font-size="14" lengthAdjust="spacing" textLength="272" x="29" y="487.7139">togglePopup(isEnabled: boolean) : void</text><ellipse cx="20" cy="500.6641" fill="#84BE84" rx="3" ry="3" style="stroke:#038048;stroke-width:1.0;"/><text fill="#000000" font-family="sans-serif" font-size="14" lengthAdjust="spacing" textLength="285" x="29" y="504.0107">unsetProviderEvent(eventId: string) : void</text><ellipse cx="20" cy="516.9609" fill="#84BE84" rx="3" ry="3" style="stroke:#038048;stroke-width:1.0;"/><text fill="#000000" font-family="sans-serif" font-size="14" lengthAdjust="spacing" textLength="374" x="29" y="520.3076">updateProviderEvents(providerInfo: ProviderInfo) : void</text><ellipse cx="20" cy="533.2578" fill="#84BE84" rx="3" ry="3" style="stroke:#038048;stroke-width:1.0;"/><text fill="#000000" font-family="sans-serif" font-size="14" lengthAdjust="spacing" textLength="406" x="29" y="536.6045">validation(isValid: boolean, validationMessage: string) : void</text><polygon fill="#FFFF44" points="20,544.5547,24,548.5547,20,552.5547,16,548.5547" style="stroke:#B38D22;stroke-width:1.0;"/><text fill="#000000" font-family="sans-serif" font-size="14" lengthAdjust="spacing" textLength="210" x="29" y="552.9014">createProviderInstance() : void</text><polygon fill="#FFFF44" points="20,560.8516,24,564.8516,20,568.8516,16,564.8516" style="stroke:#B38D22;stroke-width:1.0;"/><text fill="#000000" font-family="sans-serif" font-size="14" lengthAdjust="spacing" textLength="121" x="29" y="569.1982">finishBuild() : void</text><polygon fill="#FFFF44" points="20,577.1484,24,581.1484,20,585.1484,16,581.1484" style="stroke:#B38D22;stroke-width:1.0;"/><text fill="#000000" font-family="sans-serif" font-size="14" font-style="italic" lengthAdjust="spacing" textLength="354" x="29" y="585.4951">getSelectedOptionsStructure() : DropDownOption[]</text><polygon fill="#FFFF44" points="20,593.4453,24,597.4453,20,601.4453,16,597.4453" style="stroke:#B38D22;stroke-width:1.0;"/><text fill="#000000" font-family="sans-serif" font-size="14" font-style="italic" lengthAdjust="spacing" textLength="157" x="29" y="601.792">prepareConfigs() : void</text><polygon fill="#FFFF44" points="20,609.7422,24,613.7422,20,617.7422,16,613.7422" style="stroke:#B38D22;stroke-width:1.0;"/><text fill="#000000" font-family="sans-serif" font-size="14" lengthAdjust="spacing" textLength="98" x="29" y="618.0889">redraw() : void</text><polygon fill="#FFFF44" points="20,626.0391,24,630.0391,20,634.0391,16,630.0391" style="stroke:#B38D22;stroke-width:1.0;"/><text fill="#000000" font-family="sans-serif" font-size="14" lengthAdjust="spacing" textLength="180" x="29" y="634.3857">setA11YProperties() : void</text><polygon fill="#FFFF44" points="20,642.3359,24,646.3359,20,650.3359,16,646.3359" style="stroke:#B38D22;stroke-width:1.0;"/><text fill="#000000" font-family="sans-serif" font-size="14" lengthAdjust="spacing" textLength="138" x="29" y="650.6826">setCallbacks() : void</text><polygon fill="#FFFF44" points="20,658.6328,24,662.6328,20,666.6328,16,662.6328" style="stroke:#B38D22;stroke-width:1.0;"/><text fill="#000000" font-family="sans-serif" font-size="14" lengthAdjust="spacing" textLength="169" x="29" y="666.9795">setHtmlElements() : void</text><polygon fill="#FFFF44" points="20,674.9297,24,678.9297,20,682.9297,16,678.9297" style="stroke:#B38D22;stroke-width:1.0;"/><text fill="#000000" font-family="sans-serif" font-size="14" lengthAdjust="spacing" textLength="569" x="29" y="683.2764">triggerPlatformEventCallback(platFormCallback: OSGeneric, args: unknown[]) : void</text><polygon fill="#FFFF44" points="20,691.2266,24,695.2266,20,699.2266,16,695.2266" style="stroke:#B38D22;stroke-width:1.0;"/><text fill="#000000" font-family="sans-serif" font-size="14" lengthAdjust="spacing" textLength="311" x="29" y="699.5732">triggerPlatformInitializedEventCallback() : void</text><polygon fill="#FFFF44" points="20,707.5234,24,711.5234,20,715.5234,16,711.5234" style="stroke:#B38D22;stroke-width:1.0;"/><text fill="#000000" font-family="sans-serif" font-size="14" lengthAdjust="spacing" textLength="156" x="29" y="715.8701">unsetCallbacks() : void</text><polygon fill="#FFFF44" points="20,723.8203,24,727.8203,20,731.8203,16,727.8203" style="stroke:#B38D22;stroke-width:1.0;"/><text fill="#000000" font-family="sans-serif" font-size="14" lengthAdjust="spacing" textLength="199" x="29" y="732.167">unsetGlobalCallbacks() : void</text><polygon fill="#FFFF44" points="20,740.1172,24,744.1172,20,748.1172,16,744.1172" style="stroke:#B38D22;stroke-width:1.0;"/><text fill="#000000" font-family="sans-serif" font-size="14" lengthAdjust="spacing" textLength="187" x="29" y="748.4639">unsetHtmlElements() : void</text><rect fill="#F24D5C" height="6" style="stroke:#C82930;stroke-width:1.0;" width="6" x="17" y="758.4141"/><text fill="#000000" font-family="sans-serif" font-size="14" lengthAdjust="spacing" textLength="254" x="29" y="764.7607">_addErrorMessage(text: string) : void</text><rect fill="#F24D5C" height="6" style="stroke:#C82930;stroke-width:1.0;" width="6" x="17" y="774.7109"/><text fill="#000000" font-family="sans-serif" font-size="14" lengthAdjust="spacing" textLength="181" x="29" y="781.0576">_manageAttributes() : void</text><rect fill="#F24D5C" height="6" style="stroke:#C82930;stroke-width:1.0;" width="6" x="17" y="791.0078"/><text fill="#000000" font-family="sans-serif" font-size="14" lengthAdjust="spacing" textLength="209" x="29" y="797.3545">_manageDisableStatus() : void</text><rect fill="#F24D5C" height="6" style="stroke:#C82930;stroke-width:1.0;" width="6" x="17" y="807.3047"/><text fill="#000000" font-family="sans-serif" font-size="14" lengthAdjust="spacing" textLength="214" x="29" y="813.6514">_onMouseUp(event: any) : void</text><rect fill="#F24D5C" height="6" style="stroke:#C82930;stroke-width:1.0;" width="6" x="17" y="823.6016"/><text fill="#000000" font-family="sans-serif" font-size="14" lengthAdjust="spacing" textLength="183" x="29" y="829.9482">_onSelectedOption() : void</text><rect fill="#F24D5C" height="6" style="stroke:#C82930;stroke-width:1.0;" width="6" x="17" y="839.8984"/><text fill="#000000" font-family="sans-serif" font-size="14" lengthAdjust="spacing" textLength="177" x="29" y="846.2451">_onWindowResize() : void</text><rect fill="#F24D5C" height="6" style="stroke:#C82930;stroke-width:1.0;" width="6" x="17" y="856.1953"/><text fill="#000000" font-family="sans-serif" font-size="14" lengthAdjust="spacing" textLength="149" x="29" y="862.542">_setElementId() : void</text><rect fill="#F24D5C" height="6" style="stroke:#C82930;stroke-width:1.0;" width="6" x="17" y="872.4922"/><text fill="#000000" font-family="sans-serif" font-size="14" lengthAdjust="spacing" textLength="146" x="29" y="878.8389">_setUpEvents() : void</text><rect fill="#F24D5C" height="6" style="stroke:#C82930;stroke-width:1.0;" width="6" x="17" y="888.7891"/><text fill="#000000" font-family="sans-serif" font-size="14" lengthAdjust="spacing" textLength="145" x="29" y="895.1357">_unsetEvents() : void</text></g><!--reverse link AbstractVirtualSelect<VirtualSelectSearchConfig> to OSUIVirtualSelectSearch--><g id="link_AbstractVirtualSelect&lt;VirtualSelectSearchConfig&gt;_OSUIVirtualSelectSearch"><path codeLine="102" d="M362.5,920.21 C362.5,940.22 362.5,942.17 362.5,961.87 " fill="none" id="AbstractVirtualSelect&lt;VirtualSelectSearchConfig&gt;-backto-OSUIVirtualSelectSearch" style="stroke:#272B30;stroke-width:1.0;"/><polygon fill="none" points="362.5,902.21,356.5,920.21,368.5,920.21,362.5,902.21" style="stroke:#272B30;stroke-width:1.0;"/></g><!--SRC=[xLTBRnen4BxpAwnosIf4wakgXAfAXAJ9Iar1fKbKHL7bNG-B5MExjXUQjldl7RnUiYyuzD1BuSJEV3CxZszcmDvpgQcXIp8MrDgHCMezLa8Pqd_rzbNo-aNFrX4doZ0m-o4qlS-CoYKBiFbyNi6qr2cmDups5fm1WQLs3sG9Rg6OhOhc70HAqiqBoBF9x2g-viRbLCn0GEfcG4swU4P-zGX- -cZ8GCPIv-x6KAt1Z0od7sa2ufeACYJM6Iwp0ipjrAWLligSK0iCjObI0gWir3eeprOWdRsaacPWOcaTbIaWE9vM0K5VcAwA4AqFSQpad6SMBMgHNuPSsmOJxLheZSn3ZvAS2nOzHy1ASLR8qWML6M0ycB1xY7JuyeakeKnvG4ef5Y97SIxlfLhBfYD8xqTOGrPBpaOTi2b8Xext0x6SfYLJ5XeonYrDH8TKjx4WEw3mVLE-Boe-ZJHr3eoCMPdwyqPdZp9mHLM1-M8KKLUeSOILaeqt6CYuHSTZAaI2L8vWat2zn6dG3SbaTWuI34_hJYouYxqKZLP5TvuYhncNnGwSYYIimzSElkoqzgtQ7t-8Ve0quTzpU2hcW5Yw0kzXMzNMYtnL8wKTLnARKeGq9AV8m5FatCGhRk_G5nVeQ2B7di1idrkdiap0LEbSHzoUUHAm7TXSTcTRvqG5hnbrq61oEV-ndAiXcLQUwiROCOxcc176TRrvs4Or84_AIx0MDqHd0FtKG2M0SidK6TYVSydjugGz__qAeOlQsfapUUfoK_Xe5hvSS82R6KekrLqQO8Qk6qAiwkZbowzXqN2mRNqv7Xsg2xSKPmAMxJtHnv9ak3sdWhgvCalVWUsWQPH-GEcuFLq3Gis6-s6PtTxjTHjBxZWsv6TWslODTIlFdbrvUEMvK0aLUo7ToJxsQ8BzfwaZuQADmdDjUjzrtBYYJU__erDt_CqFxKJUSCdK-ZDOx1pPxgQ0mSbIkOKhxMFhKDSdenkbgyIh69Gj9XlEJO8h3peSuyCnFXpZmp5kpV-lSiC__kLThZeudEX_VgABWq0PEyF_n2OG9NBmmtMovVZRqf_3aKDTaZjekIhqfyLIdJdgyXPaUyEAoHWIAXzQa3gJsYwgLxAfnMn3fZ7hq8NZsOhBbwcfUkpznO-MTx-FZtV_VVy3]--></g></svg>