<?xml version="1.0" encoding="us-ascii" standalone="no"?><svg xmlns="http://www.w3.org/2000/svg" xmlns:xlink="http://www.w3.org/1999/xlink" contentStyleType="text/css" height="2272px" preserveAspectRatio="none" style="width:1209px;height:2272px;background:#CED4DA;" version="1.1" viewBox="0 0 1209 2272" width="1209px" zoomAndPan="magnify"><defs/><g><rect fill="#CED4DA" height="2272" style="stroke:none;stroke-width:1.0;" width="1209" x="0" y="0"/><!--class OSUIDropdownServerSide--><g id="elem_OSUIDropdownServerSide"><rect codeLine="7" fill="#FFFFFF" height="1759.1719" id="OSUIDropdownServerSide" rx="2.5" ry="2.5" style="stroke:#272B30;stroke-width:0.5;" width="763" x="232" y="506"/><ellipse cx="519.75" cy="522" fill="#ADD1B2" rx="11" ry="11" style="stroke:#181818;stroke-width:1.0;"/><path d="M522.7188,527.6406 Q522.1406,527.9375 521.5,528.0781 Q520.8594,528.2344 520.1563,528.2344 Q517.6563,528.2344 516.3281,526.5938 Q515.0156,524.9375 515.0156,521.8125 Q515.0156,518.6875 516.3281,517.0313 Q517.6563,515.375 520.1563,515.375 Q520.8594,515.375 521.5,515.5313 Q522.1563,515.6875 522.7188,515.9844 L522.7188,518.7031 Q522.0938,518.125 521.5,517.8594 Q520.9063,517.5781 520.2813,517.5781 Q518.9375,517.5781 518.25,518.6563 Q517.5625,519.7188 517.5625,521.8125 Q517.5625,523.9063 518.25,524.9844 Q518.9375,526.0469 520.2813,526.0469 Q520.9063,526.0469 521.5,525.7813 Q522.0938,525.5 522.7188,524.9219 L522.7188,527.6406 Z " fill="#000000"/><text fill="#000000" font-family="sans-serif" font-size="14" lengthAdjust="spacing" textLength="179" x="540.25" y="526.8467">OSUIDropdownServerSide</text><line style="stroke:#272B30;stroke-width:0.5;" x1="233" x2="994" y1="538" y2="538"/><polygon fill="none" points="243,546.6484,247,550.6484,243,554.6484,239,550.6484" style="stroke:#B38D22;stroke-width:1.0;"/><text fill="#000000" font-family="sans-serif" font-size="14" lengthAdjust="spacing" textLength="180" x="252" y="554.9951">isProviderBased : boolean</text><rect fill="none" height="6" style="stroke:#C82930;stroke-width:1.0;" width="6" x="240" y="564.9453"/><text fill="#000000" font-family="sans-serif" font-size="14" lengthAdjust="spacing" textLength="261" x="252" y="571.292">_activeScreenElement : HTMLElement</text><rect fill="none" height="6" style="stroke:#C82930;stroke-width:1.0;" width="6" x="240" y="581.2422"/><text fill="#000000" font-family="sans-serif" font-size="14" lengthAdjust="spacing" textLength="289" x="252" y="587.5889">_balloonContainerElement : HTMLElement</text><rect fill="none" height="6" style="stroke:#C82930;stroke-width:1.0;" width="6" x="240" y="597.5391"/><text fill="#000000" font-family="sans-serif" font-size="14" lengthAdjust="spacing" textLength="278" x="252" y="603.8857">_balloonContentElement : HTMLElement</text><rect fill="none" height="6" style="stroke:#C82930;stroke-width:1.0;" width="6" x="240" y="613.8359"/><text fill="#000000" font-family="sans-serif" font-size="14" lengthAdjust="spacing" textLength="345" x="252" y="620.1826">_balloonFocusableElemsInFooter : HTMLElement[]</text><rect fill="none" height="6" style="stroke:#C82930;stroke-width:1.0;" width="6" x="240" y="630.1328"/><text fill="#000000" font-family="sans-serif" font-size="14" lengthAdjust="spacing" textLength="267" x="252" y="636.4795">_balloonFooterElement : HTMLElement</text><rect fill="none" height="6" style="stroke:#C82930;stroke-width:1.0;" width="6" x="240" y="646.4297"/><text fill="#000000" font-family="sans-serif" font-size="14" lengthAdjust="spacing" textLength="224" x="252" y="652.7764">_balloonOptionsAriaLabel : string</text><rect fill="none" height="6" style="stroke:#C82930;stroke-width:1.0;" width="6" x="240" y="662.7266"/><text fill="#000000" font-family="sans-serif" font-size="14" lengthAdjust="spacing" textLength="334" x="252" y="669.0732">_balloonOptionsWrapperElement : HTMLElement</text><rect fill="none" height="6" style="stroke:#C82930;stroke-width:1.0;" width="6" x="240" y="679.0234"/><text fill="#000000" font-family="sans-serif" font-size="14" lengthAdjust="spacing" textLength="201" x="252" y="685.3701">_balloonPositionClass : string</text><rect fill="none" height="6" style="stroke:#C82930;stroke-width:1.0;" width="6" x="240" y="695.3203"/><text fill="#000000" font-family="sans-serif" font-size="14" lengthAdjust="spacing" textLength="305" x="252" y="701.667">_balloonSearchInputElement : HTMLElement</text><rect fill="none" height="6" style="stroke:#C82930;stroke-width:1.0;" width="6" x="240" y="711.6172"/><text fill="#000000" font-family="sans-serif" font-size="14" lengthAdjust="spacing" textLength="363" x="252" y="717.9639">_balloonSearchInputWrapperElement : HTMLElement</text><rect fill="none" height="6" style="stroke:#C82930;stroke-width:1.0;" width="6" x="240" y="727.9141"/><text fill="#000000" font-family="sans-serif" font-size="14" lengthAdjust="spacing" textLength="280" x="252" y="734.2607">_balloonWrapperElement : HTMLElement</text><rect fill="none" height="6" style="stroke:#C82930;stroke-width:1.0;" width="6" x="240" y="744.2109"/><text fill="#000000" font-family="sans-serif" font-size="14" lengthAdjust="spacing" textLength="193" x="252" y="750.5576">_closeDynamically : boolean</text><rect fill="none" height="6" style="stroke:#C82930;stroke-width:1.0;" width="6" x="240" y="760.5078"/><text fill="#000000" font-family="sans-serif" font-size="14" lengthAdjust="spacing" textLength="200" x="252" y="766.8545">_eventOnBodyClick : Generic</text><rect fill="none" height="6" style="stroke:#C82930;stroke-width:1.0;" width="6" x="240" y="776.8047"/><text fill="#000000" font-family="sans-serif" font-size="14" lengthAdjust="spacing" textLength="165" x="252" y="783.1514">_eventOnClick : Generic</text><rect fill="none" height="6" style="stroke:#C82930;stroke-width:1.0;" width="6" x="240" y="793.1016"/><text fill="#000000" font-family="sans-serif" font-size="14" lengthAdjust="spacing" textLength="248" x="252" y="799.4482">_eventOnClickInputSearch : Generic</text><rect fill="none" height="6" style="stroke:#C82930;stroke-width:1.0;" width="6" x="240" y="809.3984"/><text fill="#000000" font-family="sans-serif" font-size="14" lengthAdjust="spacing" textLength="267" x="252" y="815.7451">_eventOnCloseTransitionEnd : Generic</text><rect fill="none" height="6" style="stroke:#C82930;stroke-width:1.0;" width="6" x="240" y="825.6953"/><text fill="#000000" font-family="sans-serif" font-size="14" lengthAdjust="spacing" textLength="236" x="252" y="832.042">_eventOnkeyboardPress : Generic</text><rect fill="none" height="6" style="stroke:#C82930;stroke-width:1.0;" width="6" x="240" y="841.9922"/><text fill="#000000" font-family="sans-serif" font-size="14" lengthAdjust="spacing" textLength="263" x="252" y="848.3389">_eventOnOrientationChange : Generic</text><rect fill="none" height="6" style="stroke:#C82930;stroke-width:1.0;" width="6" x="240" y="858.2891"/><text fill="#000000" font-family="sans-serif" font-size="14" lengthAdjust="spacing" textLength="219" x="252" y="864.6357">_eventOnScreenScroll : Generic</text><rect fill="none" height="6" style="stroke:#C82930;stroke-width:1.0;" width="6" x="240" y="874.5859"/><text fill="#000000" font-family="sans-serif" font-size="14" lengthAdjust="spacing" textLength="243" x="252" y="880.9326">_eventOnSearchInputBlur : Generic</text><rect fill="none" height="6" style="stroke:#C82930;stroke-width:1.0;" width="6" x="240" y="890.8828"/><text fill="#000000" font-family="sans-serif" font-size="14" lengthAdjust="spacing" textLength="258" x="252" y="897.2295">_eventOnSearchInputFocus : Generic</text><rect fill="none" height="6" style="stroke:#C82930;stroke-width:1.0;" width="6" x="240" y="907.1797"/><text fill="#000000" font-family="sans-serif" font-size="14" lengthAdjust="spacing" textLength="210" x="252" y="913.5264">_eventOnSpanFocus : Generic</text><rect fill="none" height="6" style="stroke:#C82930;stroke-width:1.0;" width="6" x="240" y="923.4766"/><text fill="#000000" font-family="sans-serif" font-size="14" lengthAdjust="spacing" textLength="214" x="252" y="929.8232">_eventOnTouchMove : Generic</text><rect fill="none" height="6" style="stroke:#C82930;stroke-width:1.0;" width="6" x="240" y="939.7734"/><text fill="#000000" font-family="sans-serif" font-size="14" lengthAdjust="spacing" textLength="234" x="252" y="946.1201">_eventOnWindowResize : Generic</text><rect fill="none" height="6" style="stroke:#C82930;stroke-width:1.0;" width="6" x="240" y="956.0703"/><text fill="#000000" font-family="sans-serif" font-size="14" lengthAdjust="spacing" textLength="221" x="252" y="962.417">_focusTrapInstance : FocusTrap</text><rect fill="none" height="6" style="stroke:#C82930;stroke-width:1.0;" width="6" x="240" y="972.3672"/><text fill="#000000" font-family="sans-serif" font-size="14" lengthAdjust="spacing" textLength="191" x="252" y="978.7139">_hasA11yEnabled : boolean</text><rect fill="none" height="6" style="stroke:#C82930;stroke-width:1.0;" width="6" x="240" y="988.6641"/><text fill="#000000" font-family="sans-serif" font-size="14" lengthAdjust="spacing" textLength="310" x="252" y="995.0107">_intersectionObserver : IntersectionObserver</text><rect fill="none" height="6" style="stroke:#C82930;stroke-width:1.0;" width="6" x="240" y="1004.9609"/><text fill="#000000" font-family="sans-serif" font-size="14" lengthAdjust="spacing" textLength="143" x="252" y="1011.3076">_isBlocked : boolean</text><rect fill="none" height="6" style="stroke:#C82930;stroke-width:1.0;" width="6" x="240" y="1021.2578"/><text fill="#000000" font-family="sans-serif" font-size="14" lengthAdjust="spacing" textLength="173" x="252" y="1027.6045">_isInsidePopup : boolean</text><rect fill="none" height="6" style="stroke:#C82930;stroke-width:1.0;" width="6" x="240" y="1037.5547"/><text fill="#000000" font-family="sans-serif" font-size="14" lengthAdjust="spacing" textLength="125" x="252" y="1043.9014">_isOpen : boolean</text><rect fill="none" height="6" style="stroke:#C82930;stroke-width:1.0;" width="6" x="240" y="1053.8516"/><text fill="#000000" font-family="sans-serif" font-size="14" lengthAdjust="spacing" textLength="314" x="252" y="1060.1982">_platformEventOnToggleCallback : OSGeneric</text><rect fill="none" height="6" style="stroke:#C82930;stroke-width:1.0;" width="6" x="240" y="1070.1484"/><text fill="#000000" font-family="sans-serif" font-size="14" lengthAdjust="spacing" textLength="261" x="252" y="1076.4951">_selectValuesWrapper : HTMLElement</text><rect fill="none" height="6" style="stroke:#C82930;stroke-width:1.0;" width="6" x="240" y="1086.4453"/><text fill="#000000" font-family="sans-serif" font-size="14" lengthAdjust="spacing" textLength="266" x="252" y="1092.792">_selectValuesWrapperAriaLabel : string</text><rect fill="none" height="6" style="stroke:#C82930;stroke-width:1.0;" width="6" x="240" y="1102.7422"/><text fill="#000000" font-family="sans-serif" font-size="14" lengthAdjust="spacing" textLength="305" x="252" y="1109.0889">_selfElementBoundingClientRect : DOMRect</text><rect fill="none" height="6" style="stroke:#C82930;stroke-width:1.0;" width="6" x="240" y="1119.0391"/><text fill="#000000" font-family="sans-serif" font-size="14" lengthAdjust="spacing" textLength="165" x="252" y="1125.3857">_windowWidth : number</text><line style="stroke:#272B30;stroke-width:0.5;" x1="233" x2="994" y1="1132.6875" y2="1132.6875"/><ellipse cx="243" cy="1146.3359" fill="#84BE84" rx="3" ry="3" style="stroke:#038048;stroke-width:1.0;"/><text fill="#000000" font-family="sans-serif" font-size="14" lengthAdjust="spacing" textLength="654" x="252" y="1149.6826">beNotifiedByChild(childItem: DropdownServerSideItem, notifiedTo: ChildNotifyActionType) : void</text><ellipse cx="243" cy="1162.6328" fill="#84BE84" rx="3" ry="3" style="stroke:#038048;stroke-width:1.0;"/><text fill="#000000" font-family="sans-serif" font-size="14" lengthAdjust="spacing" textLength="84" x="252" y="1165.9795">build() : void</text><ellipse cx="243" cy="1178.9297" fill="#84BE84" rx="3" ry="3" style="stroke:#038048;stroke-width:1.0;"/><text fill="#000000" font-family="sans-serif" font-size="14" lengthAdjust="spacing" textLength="484" x="252" y="1182.2764">changeProperty(propertyName: string, propertyValue: unknown) : void</text><ellipse cx="243" cy="1195.2266" fill="#84BE84" rx="3" ry="3" style="stroke:#038048;stroke-width:1.0;"/><text fill="#000000" font-family="sans-serif" font-size="14" lengthAdjust="spacing" textLength="84" x="252" y="1198.5732">clear() : void</text><ellipse cx="243" cy="1211.5234" fill="#84BE84" rx="3" ry="3" style="stroke:#038048;stroke-width:1.0;"/><text fill="#000000" font-family="sans-serif" font-size="14" lengthAdjust="spacing" textLength="88" x="252" y="1214.8701">close() : void</text><ellipse cx="243" cy="1227.8203" fill="#84BE84" rx="3" ry="3" style="stroke:#038048;stroke-width:1.0;"/><text fill="#000000" font-family="sans-serif" font-size="14" lengthAdjust="spacing" textLength="100" x="252" y="1231.167">disable() : void</text><ellipse cx="243" cy="1244.1172" fill="#84BE84" rx="3" ry="3" style="stroke:#038048;stroke-width:1.0;"/><text fill="#000000" font-family="sans-serif" font-size="14" lengthAdjust="spacing" textLength="106" x="252" y="1247.4639">dispose() : void</text><ellipse cx="243" cy="1260.4141" fill="#84BE84" rx="3" ry="3" style="stroke:#038048;stroke-width:1.0;"/><text fill="#000000" font-family="sans-serif" font-size="14" lengthAdjust="spacing" textLength="98" x="252" y="1263.7607">enable() : void</text><ellipse cx="243" cy="1276.7109" fill="#84BE84" rx="3" ry="3" style="stroke:#038048;stroke-width:1.0;"/><text fill="#000000" font-family="sans-serif" font-size="14" lengthAdjust="spacing" textLength="267" x="252" y="1280.0576">equalsToID(patternId: string) : boolean</text><ellipse cx="243" cy="1293.0078" fill="#84BE84" rx="3" ry="3" style="stroke:#038048;stroke-width:1.0;"/><text fill="#000000" font-family="sans-serif" font-size="14" lengthAdjust="spacing" textLength="385" x="252" y="1296.3545">getChildItems(type: string) : IDropdownServerSideItem[]</text><ellipse cx="243" cy="1309.3047" fill="#84BE84" rx="3" ry="3" style="stroke:#038048;stroke-width:1.0;"/><text fill="#000000" font-family="sans-serif" font-size="14" lengthAdjust="spacing" textLength="192" x="252" y="1312.6514">getSelectedValues() : string</text><ellipse cx="243" cy="1325.6016" fill="#84BE84" rx="3" ry="3" style="stroke:#038048;stroke-width:1.0;"/><text fill="#000000" font-family="sans-serif" font-size="14" lengthAdjust="spacing" textLength="87" x="252" y="1328.9482">open() : void</text><ellipse cx="243" cy="1341.8984" fill="#84BE84" rx="3" ry="3" style="stroke:#038048;stroke-width:1.0;"/><text fill="#000000" font-family="sans-serif" font-size="14" lengthAdjust="spacing" textLength="434" x="252" y="1345.2451">registerCallback(eventName: string, callback: OSGeneric) : void</text><ellipse cx="243" cy="1358.1953" fill="#84BE84" rx="3" ry="3" style="stroke:#038048;stroke-width:1.0;"/><text fill="#000000" font-family="sans-serif" font-size="14" lengthAdjust="spacing" textLength="323" x="252" y="1361.542">setBalloonOptionsAriaLabel(value: string) : void</text><ellipse cx="243" cy="1374.4922" fill="#84BE84" rx="3" ry="3" style="stroke:#038048;stroke-width:1.0;"/><text fill="#000000" font-family="sans-serif" font-size="14" lengthAdjust="spacing" textLength="192" x="252" y="1377.8389">setProviderConfigs() : string</text><ellipse cx="243" cy="1390.7891" fill="#84BE84" rx="3" ry="3" style="stroke:#038048;stroke-width:1.0;"/><text fill="#000000" font-family="sans-serif" font-size="14" lengthAdjust="spacing" textLength="179" x="252" y="1394.1357">setProviderEvent() : string</text><ellipse cx="243" cy="1407.0859" fill="#84BE84" rx="3" ry="3" style="stroke:#038048;stroke-width:1.0;"/><text fill="#000000" font-family="sans-serif" font-size="14" lengthAdjust="spacing" textLength="261" x="252" y="1410.4326">setSelectAriaLabel(value: string) : void</text><ellipse cx="243" cy="1423.3828" fill="#84BE84" rx="3" ry="3" style="stroke:#038048;stroke-width:1.0;"/><text fill="#000000" font-family="sans-serif" font-size="14" lengthAdjust="spacing" textLength="197" x="252" y="1426.7295">unsetProviderEvent() : string</text><ellipse cx="243" cy="1439.6797" fill="#84BE84" rx="3" ry="3" style="stroke:#038048;stroke-width:1.0;"/><text fill="#000000" font-family="sans-serif" font-size="14" lengthAdjust="spacing" textLength="406" x="252" y="1443.0264">validation(isValid: boolean, validationMessage: string) : void</text><polygon fill="#FFFF44" points="243,1450.9766,247,1454.9766,243,1458.9766,239,1454.9766" style="stroke:#B38D22;stroke-width:1.0;"/><text fill="#000000" font-family="sans-serif" font-size="14" lengthAdjust="spacing" textLength="121" x="252" y="1459.3232">finishBuild() : void</text><polygon fill="#FFFF44" points="243,1467.2734,247,1471.2734,243,1475.2734,239,1471.2734" style="stroke:#B38D22;stroke-width:1.0;"/><text fill="#000000" font-family="sans-serif" font-size="14" lengthAdjust="spacing" textLength="351" x="252" y="1475.6201">getChild(childId: string) : IDropdownServerSideItem</text><polygon fill="#FFFF44" points="243,1483.5703,247,1487.5703,243,1491.5703,239,1487.5703" style="stroke:#B38D22;stroke-width:1.0;"/><text fill="#000000" font-family="sans-serif" font-size="14" lengthAdjust="spacing" textLength="535" x="252" y="1491.917">getChildByIndex(index: number, childType: string) : IDropdownServerSideItem</text><polygon fill="#FFFF44" points="243,1499.8672,247,1503.8672,243,1507.8672,239,1503.8672" style="stroke:#B38D22;stroke-width:1.0;"/><text fill="#000000" font-family="sans-serif" font-size="14" lengthAdjust="spacing" textLength="263" x="252" y="1508.2139">getChildIndex(childId: string) : number</text><polygon fill="#FFFF44" points="243,1516.1641,247,1520.1641,243,1524.1641,239,1520.1641" style="stroke:#B38D22;stroke-width:1.0;"/><text fill="#000000" font-family="sans-serif" font-size="14" lengthAdjust="spacing" textLength="180" x="252" y="1524.5107">setA11YProperties() : void</text><polygon fill="#FFFF44" points="243,1532.4609,247,1536.4609,243,1540.4609,239,1536.4609" style="stroke:#B38D22;stroke-width:1.0;"/><text fill="#000000" font-family="sans-serif" font-size="14" lengthAdjust="spacing" textLength="138" x="252" y="1540.8076">setCallbacks() : void</text><polygon fill="#FFFF44" points="243,1548.7578,247,1552.7578,243,1556.7578,239,1552.7578" style="stroke:#B38D22;stroke-width:1.0;"/><text fill="#000000" font-family="sans-serif" font-size="14" lengthAdjust="spacing" textLength="357" x="252" y="1557.1045">setChild(childItem: IDropdownServerSideItem) : void</text><polygon fill="#FFFF44" points="243,1565.0547,247,1569.0547,243,1573.0547,239,1569.0547" style="stroke:#B38D22;stroke-width:1.0;"/><text fill="#000000" font-family="sans-serif" font-size="14" lengthAdjust="spacing" textLength="169" x="252" y="1573.4014">setHtmlElements() : void</text><polygon fill="#FFFF44" points="243,1581.3516,247,1585.3516,243,1589.3516,239,1585.3516" style="stroke:#B38D22;stroke-width:1.0;"/><text fill="#000000" font-family="sans-serif" font-size="14" lengthAdjust="spacing" textLength="569" x="252" y="1589.6982">triggerPlatformEventCallback(platFormCallback: OSGeneric, args: unknown[]) : void</text><polygon fill="#FFFF44" points="243,1597.6484,247,1601.6484,243,1605.6484,239,1601.6484" style="stroke:#B38D22;stroke-width:1.0;"/><text fill="#000000" font-family="sans-serif" font-size="14" lengthAdjust="spacing" textLength="311" x="252" y="1605.9951">triggerPlatformInitializedEventCallback() : void</text><polygon fill="#FFFF44" points="243,1613.9453,247,1617.9453,243,1621.9453,239,1617.9453" style="stroke:#B38D22;stroke-width:1.0;"/><text fill="#000000" font-family="sans-serif" font-size="14" lengthAdjust="spacing" textLength="156" x="252" y="1622.292">unsetCallbacks() : void</text><polygon fill="#FFFF44" points="243,1630.2422,247,1634.2422,243,1638.2422,239,1634.2422" style="stroke:#B38D22;stroke-width:1.0;"/><text fill="#000000" font-family="sans-serif" font-size="14" lengthAdjust="spacing" textLength="217" x="252" y="1638.5889">unsetChild(childId: string) : void</text><polygon fill="#FFFF44" points="243,1646.5391,247,1650.5391,243,1654.5391,239,1650.5391" style="stroke:#B38D22;stroke-width:1.0;"/><text fill="#000000" font-family="sans-serif" font-size="14" lengthAdjust="spacing" textLength="199" x="252" y="1654.8857">unsetGlobalCallbacks() : void</text><polygon fill="#FFFF44" points="243,1662.8359,247,1666.8359,243,1670.8359,239,1666.8359" style="stroke:#B38D22;stroke-width:1.0;"/><text fill="#000000" font-family="sans-serif" font-size="14" lengthAdjust="spacing" textLength="187" x="252" y="1671.1826">unsetHtmlElements() : void</text><rect fill="#F24D5C" height="6" style="stroke:#C82930;stroke-width:1.0;" width="6" x="240" y="1681.1328"/><text fill="#000000" font-family="sans-serif" font-size="14" lengthAdjust="spacing" textLength="254" x="252" y="1687.4795">_addErrorMessage(text: string) : void</text><rect fill="#F24D5C" height="6" style="stroke:#C82930;stroke-width:1.0;" width="6" x="240" y="1697.4297"/><text fill="#000000" font-family="sans-serif" font-size="14" lengthAdjust="spacing" textLength="95" x="252" y="1703.7764">_close() : void</text><rect fill="#F24D5C" height="6" style="stroke:#C82930;stroke-width:1.0;" width="6" x="240" y="1713.7266"/><text fill="#000000" font-family="sans-serif" font-size="14" lengthAdjust="spacing" textLength="207" x="252" y="1720.0732">_endOfCloseAnimation() : void</text><rect fill="#F24D5C" height="6" style="stroke:#C82930;stroke-width:1.0;" width="6" x="240" y="1730.0234"/><text fill="#000000" font-family="sans-serif" font-size="14" lengthAdjust="spacing" textLength="621" x="252" y="1736.3701">_getRecommendedPosition(isIntersecting: boolean, boundingClientRect: DOMRect) : void</text><rect fill="#F24D5C" height="6" style="stroke:#C82930;stroke-width:1.0;" width="6" x="240" y="1746.3203"/><text fill="#000000" font-family="sans-serif" font-size="14" lengthAdjust="spacing" textLength="178" x="252" y="1752.667">_handleFocusTrap() : void</text><rect fill="#F24D5C" height="6" style="stroke:#C82930;stroke-width:1.0;" width="6" x="240" y="1762.6172"/><text fill="#000000" font-family="sans-serif" font-size="14" lengthAdjust="spacing" textLength="220" x="252" y="1768.9639">_hasNoImplementation() : string</text><rect fill="#F24D5C" height="6" style="stroke:#C82930;stroke-width:1.0;" width="6" x="240" y="1778.9141"/><text fill="#000000" font-family="sans-serif" font-size="14" lengthAdjust="spacing" textLength="195" x="252" y="1785.2607">_moveBallonElement() : void</text><rect fill="#F24D5C" height="6" style="stroke:#C82930;stroke-width:1.0;" width="6" x="240" y="1795.2109"/><text fill="#000000" font-family="sans-serif" font-size="14" lengthAdjust="spacing" textLength="413" x="252" y="1801.5576">_onBodyClick(_eventType: string, event: MouseEvent) : void</text><rect fill="#F24D5C" height="6" style="stroke:#C82930;stroke-width:1.0;" width="6" x="240" y="1811.5078"/><text fill="#000000" font-family="sans-serif" font-size="14" lengthAdjust="spacing" textLength="350" x="252" y="1817.8545">_onKeyboardPressed(event: KeyboardEvent) : void</text><rect fill="#F24D5C" height="6" style="stroke:#C82930;stroke-width:1.0;" width="6" x="240" y="1827.8047"/><text fill="#000000" font-family="sans-serif" font-size="14" lengthAdjust="spacing" textLength="206" x="252" y="1834.1514">_onOrientationChange() : void</text><rect fill="#F24D5C" height="6" style="stroke:#C82930;stroke-width:1.0;" width="6" x="240" y="1844.1016"/><text fill="#000000" font-family="sans-serif" font-size="14" lengthAdjust="spacing" textLength="162" x="252" y="1850.4482">_onScreenScroll() : void</text><rect fill="#F24D5C" height="6" style="stroke:#C82930;stroke-width:1.0;" width="6" x="240" y="1860.3984"/><text fill="#000000" font-family="sans-serif" font-size="14" lengthAdjust="spacing" textLength="186" x="252" y="1866.7451">_onSearchInputBlur() : void</text><rect fill="#F24D5C" height="6" style="stroke:#C82930;stroke-width:1.0;" width="6" x="240" y="1876.6953"/><text fill="#000000" font-family="sans-serif" font-size="14" lengthAdjust="spacing" textLength="343" x="252" y="1883.042">_onSearchInputClicked(event: MouseEvent) : void</text><rect fill="#F24D5C" height="6" style="stroke:#C82930;stroke-width:1.0;" width="6" x="240" y="1892.9922"/><text fill="#000000" font-family="sans-serif" font-size="14" lengthAdjust="spacing" textLength="201" x="252" y="1899.3389">_onSearchInputFocus() : void</text><rect fill="#F24D5C" height="6" style="stroke:#C82930;stroke-width:1.0;" width="6" x="240" y="1909.2891"/><text fill="#000000" font-family="sans-serif" font-size="14" lengthAdjust="spacing" textLength="273" x="252" y="1915.6357">_onSelectValuesWrapperClicked() : void</text><rect fill="#F24D5C" height="6" style="stroke:#C82930;stroke-width:1.0;" width="6" x="240" y="1925.5859"/><text fill="#000000" font-family="sans-serif" font-size="14" lengthAdjust="spacing" textLength="210" x="252" y="1931.9326">_onSpanElementFocus() : void</text><rect fill="#F24D5C" height="6" style="stroke:#C82930;stroke-width:1.0;" width="6" x="240" y="1941.8828"/><text fill="#000000" font-family="sans-serif" font-size="14" lengthAdjust="spacing" textLength="288" x="252" y="1948.2295">_onTouchMove(event: TouchEvent) : void</text><rect fill="#F24D5C" height="6" style="stroke:#C82930;stroke-width:1.0;" width="6" x="240" y="1958.1797"/><text fill="#000000" font-family="sans-serif" font-size="14" lengthAdjust="spacing" textLength="177" x="252" y="1964.5264">_onWindowResize() : void</text><rect fill="#F24D5C" height="6" style="stroke:#C82930;stroke-width:1.0;" width="6" x="240" y="1974.4766"/><text fill="#000000" font-family="sans-serif" font-size="14" lengthAdjust="spacing" textLength="94" x="252" y="1980.8232">_open() : void</text><rect fill="#F24D5C" height="6" style="stroke:#C82930;stroke-width:1.0;" width="6" x="240" y="1990.7734"/><text fill="#000000" font-family="sans-serif" font-size="14" lengthAdjust="spacing" textLength="379" x="252" y="1997.1201">_optionItemHasBeenClicked(optionItemId: string) : void</text><rect fill="#F24D5C" height="6" style="stroke:#C82930;stroke-width:1.0;" width="6" x="240" y="2007.0703"/><text fill="#000000" font-family="sans-serif" font-size="14" lengthAdjust="spacing" textLength="348" x="252" y="2013.417">_optionItemKeyPressed(optionItemId: string) : void</text><rect fill="#F24D5C" height="6" style="stroke:#C82930;stroke-width:1.0;" width="6" x="240" y="2023.3672"/><text fill="#000000" font-family="sans-serif" font-size="14" lengthAdjust="spacing" textLength="387" x="252" y="2029.7139">_setBalloonCoordinates(lookAtXPosition: boolean) : void</text><rect fill="#F24D5C" height="6" style="stroke:#C82930;stroke-width:1.0;" width="6" x="240" y="2039.6641"/><text fill="#000000" font-family="sans-serif" font-size="14" lengthAdjust="spacing" textLength="654" x="252" y="2046.0107">_setBalloonWrapperExtendedClass(newExtendedClass: string, preExtendedClass: string) : void</text><rect fill="#F24D5C" height="6" style="stroke:#C82930;stroke-width:1.0;" width="6" x="240" y="2055.9609"/><text fill="#000000" font-family="sans-serif" font-size="14" lengthAdjust="spacing" textLength="160" x="252" y="2062.3076">_setCssClasses() : void</text><rect fill="#F24D5C" height="6" style="stroke:#C82930;stroke-width:1.0;" width="6" x="240" y="2072.2578"/><text fill="#000000" font-family="sans-serif" font-size="14" lengthAdjust="spacing" textLength="168" x="252" y="2078.6045">_setInitialOptions() : void</text><rect fill="#F24D5C" height="6" style="stroke:#C82930;stroke-width:1.0;" width="6" x="240" y="2088.5547"/><text fill="#000000" font-family="sans-serif" font-size="14" lengthAdjust="spacing" textLength="445" x="252" y="2094.9014">_setNewOptionItem(optionItem: DropdownServerSideItem) : void</text><rect fill="#F24D5C" height="6" style="stroke:#C82930;stroke-width:1.0;" width="6" x="240" y="2104.8516"/><text fill="#000000" font-family="sans-serif" font-size="14" lengthAdjust="spacing" textLength="143" x="252" y="2111.1982">_setObserver() : void</text><rect fill="#F24D5C" height="6" style="stroke:#C82930;stroke-width:1.0;" width="6" x="240" y="2121.1484"/><text fill="#000000" font-family="sans-serif" font-size="14" lengthAdjust="spacing" textLength="146" x="252" y="2127.4951">_setUpEvents() : void</text><rect fill="#F24D5C" height="6" style="stroke:#C82930;stroke-width:1.0;" width="6" x="240" y="2137.4453"/><text fill="#000000" font-family="sans-serif" font-size="14" lengthAdjust="spacing" textLength="135" x="252" y="2143.792">_touchMove() : void</text><rect fill="#F24D5C" height="6" style="stroke:#C82930;stroke-width:1.0;" width="6" x="240" y="2153.7422"/><text fill="#000000" font-family="sans-serif" font-size="14" lengthAdjust="spacing" textLength="244" x="252" y="2160.0889">_triggerToogleCalbackEvent() : void</text><rect fill="#F24D5C" height="6" style="stroke:#C82930;stroke-width:1.0;" width="6" x="240" y="2170.0391"/><text fill="#000000" font-family="sans-serif" font-size="14" lengthAdjust="spacing" textLength="271" x="252" y="2176.3857">_unsetEvents(isUpdate: boolean) : void</text><rect fill="#F24D5C" height="6" style="stroke:#C82930;stroke-width:1.0;" width="6" x="240" y="2186.3359"/><text fill="#000000" font-family="sans-serif" font-size="14" lengthAdjust="spacing" textLength="338" x="252" y="2192.6826">_unsetNewOptionItem(optionItemId: string) : void</text><rect fill="#F24D5C" height="6" style="stroke:#C82930;stroke-width:1.0;" width="6" x="240" y="2202.6328"/><text fill="#000000" font-family="sans-serif" font-size="14" lengthAdjust="spacing" textLength="161" x="252" y="2208.9795">_unsetObserver() : void</text><rect fill="#F24D5C" height="6" style="stroke:#C82930;stroke-width:1.0;" width="6" x="240" y="2218.9297"/><text fill="#000000" font-family="sans-serif" font-size="14" lengthAdjust="spacing" textLength="306" x="252" y="2225.2764">_updateBalloonAccessibilityElements() : void</text><rect fill="#F24D5C" height="6" style="stroke:#C82930;stroke-width:1.0;" width="6" x="240" y="2235.2266"/><text fill="#000000" font-family="sans-serif" font-size="14" lengthAdjust="spacing" textLength="737" x="252" y="2241.5732">_updateOptionItemFocuStateOnKeyPress(optionItem: IDropdownServerSideItem, itemIndex: number) : void</text><rect fill="#F24D5C" height="6" style="stroke:#C82930;stroke-width:1.0;" width="6" x="240" y="2251.5234"/><text fill="#000000" font-family="sans-serif" font-size="14" lengthAdjust="spacing" textLength="193" x="252" y="2257.8701">_updatePatternState() : void</text></g><!--class AbstractParent<OSUIDropdownServerSideConfig, IDropdownServerSideItem>--><g id="elem_AbstractParent&lt;OSUIDropdownServerSideConfig, IDropdownServerSideItem&gt;"><rect codeLine="114" fill="#FFFFFF" height="439.125" id="AbstractParent&lt;OSUIDropdownServerSideConfig, IDropdownServerSideItem&gt;" rx="2.5" ry="2.5" style="stroke:#272B30;stroke-width:0.5;" width="595" x="9" y="7"/><ellipse cx="34.35" cy="23" fill="#A9DCDF" rx="11" ry="11" style="stroke:#181818;stroke-width:1.0;"/><path d="M34.4594,18.3438 L33.3031,23.4219 L35.6313,23.4219 L34.4594,18.3438 Z M32.975,16.1094 L35.9594,16.1094 L39.3188,28.5 L36.8656,28.5 L36.1,25.4375 L32.8188,25.4375 L32.0688,28.5 L29.6313,28.5 L32.975,16.1094 Z " fill="#000000"/><text fill="#000000" font-family="sans-serif" font-size="14" font-style="italic" lengthAdjust="spacing" textLength="540" x="50.65" y="27.8467">AbstractParent&lt;OSUIDropdownServerSideConfig, IDropdownServerSideItem&gt;</text><line style="stroke:#272B30;stroke-width:0.5;" x1="10" x2="603" y1="39" y2="39"/><polygon fill="none" points="20,47.6484,24,51.6484,20,55.6484,16,51.6484" style="stroke:#B38D22;stroke-width:1.0;"/><text fill="#000000" font-family="sans-serif" font-size="14" lengthAdjust="spacing" textLength="180" x="29" y="55.9951">isProviderBased : boolean</text><rect fill="none" height="6" style="stroke:#C82930;stroke-width:1.0;" width="6" x="17" y="65.9453"/><text fill="#000000" font-family="sans-serif" font-size="14" lengthAdjust="spacing" textLength="262" x="29" y="72.292">_childIdsByType : Map&lt;string, string&gt;</text><rect fill="none" height="6" style="stroke:#C82930;stroke-width:1.0;" width="6" x="17" y="82.2422"/><text fill="#000000" font-family="sans-serif" font-size="14" lengthAdjust="spacing" textLength="186" x="29" y="88.5889">_childItemsByType : Object</text><line style="stroke:#272B30;stroke-width:0.5;" x1="10" x2="603" y1="95.8906" y2="95.8906"/><ellipse cx="20" cy="109.5391" fill="#84BE84" rx="3" ry="3" style="stroke:#038048;stroke-width:1.0;"/><text fill="#000000" font-family="sans-serif" font-size="14" font-style="italic" lengthAdjust="spacing" textLength="553" x="29" y="112.8857">beNotifiedByChild(childItem: IDropdownServerSideItem, notifiedTo: string) : void</text><ellipse cx="20" cy="125.8359" fill="#84BE84" rx="3" ry="3" style="stroke:#038048;stroke-width:1.0;"/><text fill="#000000" font-family="sans-serif" font-size="14" lengthAdjust="spacing" textLength="84" x="29" y="129.1826">build() : void</text><ellipse cx="20" cy="142.1328" fill="#84BE84" rx="3" ry="3" style="stroke:#038048;stroke-width:1.0;"/><text fill="#000000" font-family="sans-serif" font-size="14" lengthAdjust="spacing" textLength="484" x="29" y="145.4795">changeProperty(propertyName: string, propertyValue: unknown) : void</text><ellipse cx="20" cy="158.4297" fill="#84BE84" rx="3" ry="3" style="stroke:#038048;stroke-width:1.0;"/><text fill="#000000" font-family="sans-serif" font-size="14" lengthAdjust="spacing" textLength="106" x="29" y="161.7764">dispose() : void</text><ellipse cx="20" cy="174.7266" fill="#84BE84" rx="3" ry="3" style="stroke:#038048;stroke-width:1.0;"/><text fill="#000000" font-family="sans-serif" font-size="14" lengthAdjust="spacing" textLength="267" x="29" y="178.0732">equalsToID(patternId: string) : boolean</text><ellipse cx="20" cy="191.0234" fill="#84BE84" rx="3" ry="3" style="stroke:#038048;stroke-width:1.0;"/><text fill="#000000" font-family="sans-serif" font-size="14" lengthAdjust="spacing" textLength="385" x="29" y="194.3701">getChildItems(type: string) : IDropdownServerSideItem[]</text><ellipse cx="20" cy="207.3203" fill="#84BE84" rx="3" ry="3" style="stroke:#038048;stroke-width:1.0;"/><text fill="#000000" font-family="sans-serif" font-size="14" lengthAdjust="spacing" textLength="434" x="29" y="210.667">registerCallback(eventName: string, callback: OSGeneric) : void</text><polygon fill="#FFFF44" points="20,218.6172,24,222.6172,20,226.6172,16,222.6172" style="stroke:#B38D22;stroke-width:1.0;"/><text fill="#000000" font-family="sans-serif" font-size="14" lengthAdjust="spacing" textLength="121" x="29" y="226.9639">finishBuild() : void</text><polygon fill="#FFFF44" points="20,234.9141,24,238.9141,20,242.9141,16,238.9141" style="stroke:#B38D22;stroke-width:1.0;"/><text fill="#000000" font-family="sans-serif" font-size="14" lengthAdjust="spacing" textLength="351" x="29" y="243.2607">getChild(childId: string) : IDropdownServerSideItem</text><polygon fill="#FFFF44" points="20,251.2109,24,255.2109,20,259.2109,16,255.2109" style="stroke:#B38D22;stroke-width:1.0;"/><text fill="#000000" font-family="sans-serif" font-size="14" lengthAdjust="spacing" textLength="535" x="29" y="259.5576">getChildByIndex(index: number, childType: string) : IDropdownServerSideItem</text><polygon fill="#FFFF44" points="20,267.5078,24,271.5078,20,275.5078,16,271.5078" style="stroke:#B38D22;stroke-width:1.0;"/><text fill="#000000" font-family="sans-serif" font-size="14" lengthAdjust="spacing" textLength="263" x="29" y="275.8545">getChildIndex(childId: string) : number</text><polygon fill="#FFFF44" points="20,283.8047,24,287.8047,20,291.8047,16,287.8047" style="stroke:#B38D22;stroke-width:1.0;"/><text fill="#000000" font-family="sans-serif" font-size="14" font-style="italic" lengthAdjust="spacing" textLength="179" x="29" y="292.1514">setA11YProperties() : void</text><polygon fill="#FFFF44" points="20,300.1016,24,304.1016,20,308.1016,16,304.1016" style="stroke:#B38D22;stroke-width:1.0;"/><text fill="#000000" font-family="sans-serif" font-size="14" font-style="italic" lengthAdjust="spacing" textLength="137" x="29" y="308.4482">setCallbacks() : void</text><polygon fill="#FFFF44" points="20,316.3984,24,320.3984,20,324.3984,16,320.3984" style="stroke:#B38D22;stroke-width:1.0;"/><text fill="#000000" font-family="sans-serif" font-size="14" lengthAdjust="spacing" textLength="357" x="29" y="324.7451">setChild(childItem: IDropdownServerSideItem) : void</text><polygon fill="#FFFF44" points="20,332.6953,24,336.6953,20,340.6953,16,336.6953" style="stroke:#B38D22;stroke-width:1.0;"/><text fill="#000000" font-family="sans-serif" font-size="14" font-style="italic" lengthAdjust="spacing" textLength="169" x="29" y="341.042">setHtmlElements() : void</text><polygon fill="#FFFF44" points="20,348.9922,24,352.9922,20,356.9922,16,352.9922" style="stroke:#B38D22;stroke-width:1.0;"/><text fill="#000000" font-family="sans-serif" font-size="14" lengthAdjust="spacing" textLength="569" x="29" y="357.3389">triggerPlatformEventCallback(platFormCallback: OSGeneric, args: unknown[]) : void</text><polygon fill="#FFFF44" points="20,365.2891,24,369.2891,20,373.2891,16,369.2891" style="stroke:#B38D22;stroke-width:1.0;"/><text fill="#000000" font-family="sans-serif" font-size="14" lengthAdjust="spacing" textLength="311" x="29" y="373.6357">triggerPlatformInitializedEventCallback() : void</text><polygon fill="#FFFF44" points="20,381.5859,24,385.5859,20,389.5859,16,385.5859" style="stroke:#B38D22;stroke-width:1.0;"/><text fill="#000000" font-family="sans-serif" font-size="14" font-style="italic" lengthAdjust="spacing" textLength="155" x="29" y="389.9326">unsetCallbacks() : void</text><polygon fill="#FFFF44" points="20,397.8828,24,401.8828,20,405.8828,16,401.8828" style="stroke:#B38D22;stroke-width:1.0;"/><text fill="#000000" font-family="sans-serif" font-size="14" lengthAdjust="spacing" textLength="217" x="29" y="406.2295">unsetChild(childId: string) : void</text><polygon fill="#FFFF44" points="20,414.1797,24,418.1797,20,422.1797,16,418.1797" style="stroke:#B38D22;stroke-width:1.0;"/><text fill="#000000" font-family="sans-serif" font-size="14" lengthAdjust="spacing" textLength="199" x="29" y="422.5264">unsetGlobalCallbacks() : void</text><polygon fill="#FFFF44" points="20,430.4766,24,434.4766,20,438.4766,16,434.4766" style="stroke:#B38D22;stroke-width:1.0;"/><text fill="#000000" font-family="sans-serif" font-size="14" font-style="italic" lengthAdjust="spacing" textLength="187" x="29" y="438.8232">unsetHtmlElements() : void</text></g><!--class IDropdownServerSide--><g id="elem_IDropdownServerSide"><rect codeLine="141" fill="#FFFFFF" height="373.9375" id="IDropdownServerSide" rx="2.5" ry="2.5" style="stroke:#272B30;stroke-width:0.5;" width="563" x="639" y="39.5"/><ellipse cx="840.75" cy="55.5" fill="#B4A7E5" rx="11" ry="11" style="stroke:#181818;stroke-width:1.0;"/><path d="M836.6719,51.2656 L836.6719,49.1094 L844.0625,49.1094 L844.0625,51.2656 L841.5938,51.2656 L841.5938,59.3438 L844.0625,59.3438 L844.0625,61.5 L836.6719,61.5 L836.6719,59.3438 L839.1406,59.3438 L839.1406,51.2656 L836.6719,51.2656 Z " fill="#000000"/><text fill="#000000" font-family="sans-serif" font-size="14" font-style="italic" lengthAdjust="spacing" textLength="151" x="861.25" y="60.3467">IDropdownServerSide</text><line style="stroke:#272B30;stroke-width:0.5;" x1="640" x2="1201" y1="71.5" y2="71.5"/><ellipse cx="650" cy="85.1484" fill="none" rx="3" ry="3" style="stroke:#038048;stroke-width:1.0;"/><text fill="#000000" font-family="sans-serif" font-size="14" lengthAdjust="spacing" textLength="110" x="659" y="88.4951">isBuilt : boolean</text><ellipse cx="650" cy="101.4453" fill="none" rx="3" ry="3" style="stroke:#038048;stroke-width:1.0;"/><text fill="#000000" font-family="sans-serif" font-size="14" lengthAdjust="spacing" textLength="189" x="659" y="104.792">selfElement : HTMLElement</text><ellipse cx="650" cy="117.7422" fill="none" rx="3" ry="3" style="stroke:#038048;stroke-width:1.0;"/><text fill="#000000" font-family="sans-serif" font-size="14" lengthAdjust="spacing" textLength="112" x="659" y="121.0889">uniqueId : string</text><ellipse cx="650" cy="134.0391" fill="none" rx="3" ry="3" style="stroke:#038048;stroke-width:1.0;"/><text fill="#000000" font-family="sans-serif" font-size="14" lengthAdjust="spacing" textLength="110" x="659" y="137.3857">widgetId : string</text><line style="stroke:#272B30;stroke-width:0.5;" x1="640" x2="1201" y1="144.6875" y2="144.6875"/><ellipse cx="650" cy="158.3359" fill="#84BE84" rx="3" ry="3" style="stroke:#038048;stroke-width:1.0;"/><text fill="#000000" font-family="sans-serif" font-size="14" lengthAdjust="spacing" textLength="405" x="659" y="161.6826">beNotifiedByChild(childItem: IChild, notifiedTo: string) : void</text><ellipse cx="650" cy="174.6328" fill="#84BE84" rx="3" ry="3" style="stroke:#038048;stroke-width:1.0;"/><text fill="#000000" font-family="sans-serif" font-size="14" lengthAdjust="spacing" textLength="84" x="659" y="177.9795">build() : void</text><ellipse cx="650" cy="190.9297" fill="#84BE84" rx="3" ry="3" style="stroke:#038048;stroke-width:1.0;"/><text fill="#000000" font-family="sans-serif" font-size="14" lengthAdjust="spacing" textLength="484" x="659" y="194.2764">changeProperty(propertyName: string, propertyValue: unknown) : void</text><ellipse cx="650" cy="207.2266" fill="#84BE84" rx="3" ry="3" style="stroke:#038048;stroke-width:1.0;"/><text fill="#000000" font-family="sans-serif" font-size="14" lengthAdjust="spacing" textLength="84" x="659" y="210.5732">clear() : void</text><ellipse cx="650" cy="223.5234" fill="#84BE84" rx="3" ry="3" style="stroke:#038048;stroke-width:1.0;"/><text fill="#000000" font-family="sans-serif" font-size="14" lengthAdjust="spacing" textLength="88" x="659" y="226.8701">close() : void</text><ellipse cx="650" cy="239.8203" fill="#84BE84" rx="3" ry="3" style="stroke:#038048;stroke-width:1.0;"/><text fill="#000000" font-family="sans-serif" font-size="14" lengthAdjust="spacing" textLength="100" x="659" y="243.167">disable() : void</text><ellipse cx="650" cy="256.1172" fill="#84BE84" rx="3" ry="3" style="stroke:#038048;stroke-width:1.0;"/><text fill="#000000" font-family="sans-serif" font-size="14" lengthAdjust="spacing" textLength="106" x="659" y="259.4639">dispose() : void</text><ellipse cx="650" cy="272.4141" fill="#84BE84" rx="3" ry="3" style="stroke:#038048;stroke-width:1.0;"/><text fill="#000000" font-family="sans-serif" font-size="14" lengthAdjust="spacing" textLength="98" x="659" y="275.7607">enable() : void</text><ellipse cx="650" cy="288.7109" fill="#84BE84" rx="3" ry="3" style="stroke:#038048;stroke-width:1.0;"/><text fill="#000000" font-family="sans-serif" font-size="14" lengthAdjust="spacing" textLength="217" x="659" y="292.0576">equalsToID(id: string) : boolean</text><ellipse cx="650" cy="305.0078" fill="#84BE84" rx="3" ry="3" style="stroke:#038048;stroke-width:1.0;"/><text fill="#000000" font-family="sans-serif" font-size="14" lengthAdjust="spacing" textLength="192" x="659" y="308.3545">getSelectedValues() : string</text><ellipse cx="650" cy="321.3047" fill="#84BE84" rx="3" ry="3" style="stroke:#038048;stroke-width:1.0;"/><text fill="#000000" font-family="sans-serif" font-size="14" lengthAdjust="spacing" textLength="87" x="659" y="324.6514">open() : void</text><ellipse cx="650" cy="337.6016" fill="#84BE84" rx="3" ry="3" style="stroke:#038048;stroke-width:1.0;"/><text fill="#000000" font-family="sans-serif" font-size="14" lengthAdjust="spacing" textLength="434" x="659" y="340.9482">registerCallback(eventName: string, callback: OSGeneric) : void</text><ellipse cx="650" cy="353.8984" fill="#84BE84" rx="3" ry="3" style="stroke:#038048;stroke-width:1.0;"/><text fill="#000000" font-family="sans-serif" font-size="14" lengthAdjust="spacing" textLength="322" x="659" y="357.2451">setProviderConfigs(providerConfigs: any) : void</text><ellipse cx="650" cy="370.1953" fill="#84BE84" rx="3" ry="3" style="stroke:#038048;stroke-width:1.0;"/><text fill="#000000" font-family="sans-serif" font-size="14" lengthAdjust="spacing" textLength="537" x="659" y="373.542">setProviderEvent(eventName: string, callback: Generic, uniqueId: string) : void</text><ellipse cx="650" cy="386.4922" fill="#84BE84" rx="3" ry="3" style="stroke:#038048;stroke-width:1.0;"/><text fill="#000000" font-family="sans-serif" font-size="14" lengthAdjust="spacing" textLength="285" x="659" y="389.8389">unsetProviderEvent(eventId: string) : void</text><ellipse cx="650" cy="402.7891" fill="#84BE84" rx="3" ry="3" style="stroke:#038048;stroke-width:1.0;"/><text fill="#000000" font-family="sans-serif" font-size="14" lengthAdjust="spacing" textLength="406" x="659" y="406.1357">validation(isValid: boolean, validationMessage: string) : void</text></g><!--reverse link AbstractParent<OSUIDropdownServerSideConfig, IDropdownServerSideItem> to OSUIDropdownServerSide--><g id="link_AbstractParent&lt;OSUIDropdownServerSideConfig, IDropdownServerSideItem&gt;_OSUIDropdownServerSide"><path codeLine="140" d="M369.1326,463.5363 C374.2026,482.6163 374.87,485.16 380.35,505.81 " fill="none" id="AbstractParent&lt;OSUIDropdownServerSideConfig, IDropdownServerSideItem&gt;-backto-OSUIDropdownServerSide" style="stroke:#272B30;stroke-width:1.0;"/><polygon fill="none" points="364.51,446.14,363.3338,465.0772,374.9314,461.9954,364.51,446.14" style="stroke:#272B30;stroke-width:1.0;"/></g><!--reverse link IDropdownServerSide to OSUIDropdownServerSide--><g id="link_IDropdownServerSide_OSUIDropdownServerSide"><path codeLine="163" d="M866.4722,431.1076 C858.9022,459.6276 855.32,473.15 846.65,505.83 " fill="none" id="IDropdownServerSide-backto-OSUIDropdownServerSide" style="stroke:#272B30;stroke-width:1.0;stroke-dasharray:7.0,7.0;"/><polygon fill="none" points="871.09,413.71,860.673,429.5683,872.2714,432.6469,871.09,413.71" style="stroke:#272B30;stroke-width:1.0;"/></g><!--SRC=[tLXjRzis4FwUNo4qNrGaBTPkm80WA60xQIkiYOtQRJSKnK29PvkBJAeavKHz-UyxKgAjDpe2rhNOyY69xfux7k-DHweRnZCYoIQOf4IfaPJYTY9I8OFZfxy-ZN_-wKWr4MCXASZ349BShAJ8EQrWo-MoXkcm4w2_K7AqPXG2s6Iw23QWruAgEcd984LAOXO87apdRw8BAJ8gRlaSv1Ra7A4FWiz70VuSCpMJOeiKEIOAQ70Mn4AaGBXbF_gJ99fjOPv807wPmWQuHipBnTMhwgl2nIHDXU0JmJLX7EH0B18789-B95SaJi5mLOJVGeDiIhp_q9Onc07AfvbcWcCy6Nb5OaWHgxHaVDKBUoT9bWtIEnEA6H4RQ8_IEH2Ph2EUvKFSK4CFDsC0Cac5Wek2amrBKAZe905i4JpbOq6BISgI6mIy00moIvg0-vdM-78VVXnQiv24b-wxvDI7l84Y5aJIcGJhuLxGL3ByIsmareIlm0SiSnn_YpJrOlOH6AUv702pgUl5POGV12n4dgolnDPhz3l6iR1VWsAVkfYbKOsUp2AkDE69GJntj0gp9chqv4bnoKrvTSkVOObA1ObntpHMjdyWAEeXEmarJaLoqwSBArTXfvc9BCzwkDCCU8USfKGlXTnSEeUiLYbCC4jZObDjEc_kMK6APhqbQGwkLdjplWVdxG28NLRIOzECaOF9Z5-lKGM2BwPNvhyAVMj3yevHRLASvvkuyir93DT2CspFT5nCrYobOM9-HnesgAJJemtzDE2Lo4AS1LR8wYX6rlUB8eE7kCfMC5gjaHkzJLfYynxxF6vI5s5M_NDDDk1sUXeugdN9MP3p6uxMj1HXO6HRkIdN5eqoswsxrAoB1Tu3XOyvITL2H1TXHZJc6e-eC_LXAqTELg0dpeygrEYIEZJgTsnrN1ZXkKq5e6KoM4jguJz1j_2MUH9MJA5LBWz3MurDVoOLhvQYJIKAzBZ_10gtPGpscsX8kGCRpyybMtKDha5irVG1oZqFMZ7dzof4QKPjYmsPUci-TY4w3VRCAspJPDM_pF6ISQRMusxw7hluLjL21qItAJWk8axXBcJcjoj9Z93XBOQbIrDXgQx7d5gr7wFNiBF-KPKTgp9hlotak_pfOxNxWyUmZk1BlKchPjLMYsQkLY1dzPQwIs7JQ9yZTTBDszE0o9NQzOJt7mwgZJYUsnZpJq2RApIbR5hv750oVK5luLwa0cUTWwhyJi49bz9BdELbbPsXXZlTkrerABNbWTFfqWuj8yusPHMq89WtU4283QvFWRh1C3G7eZj7-QfMCd7dbDaTCYtDsDbf2hj3FUomrRM8DbcvzRrjZUDjW_E5xKHkm6zh4Vl9Bom7ZthLd0QMT1PSYLo13Nb7_hVwf0Oqh2GSkL-eCxbrxQhFR3tSvhHs461tjxVim5xQmrsVsiviuTHtiJW2LcxtQDlDWCusI-YthJuETZHrpZ53CzurVUGbKMDqfRDpp_2KNbqMm-W2Eq1kV-vD1DwG6ISQUoD-tupqxwusTiNW5NRtcZjjYyhUia8Ejmr2VRo1NavN_qGfYu1EB91PDRVgnEu1NCFjTEU3cZjy0rvNWvkdUvI_oMpOE-lgNOgq6MLhNWXHJiscGUwFy1hGTibAELDlCZommHS3Y_NjqnjsA-NRMsuNh28xIX9C9XQpbEd2rxLBYRq9fdZcsf2uIyU6zoFVVCsCqVN1e7UXMJc5sXNsfdmz8Z5kbk0je7fj6LNVCoBHwlF-nvToS3lrsVHiyEDCTJQgSM4QChAlI7RkChxy-wm1DHFo3ZoD_tAtbizk7r_lkQL4GwufVLFaltelyTmiljibublS1_vt0t0jf-wRXLlGRpqMjzJ_HoRakjNVQLZkBDdlggz7twhFdNzvzCZxH7ra7v-M987WmO4dx1EcJD7eTaNNNcrwNe3mMii-vX3HrbNsbb5CyWxvS5Eqb1_S0t_4smmxs4z_tBjA-uKaQtwV1OGNNg5oFZguygxgNH8DVZcnQdtuV_YCWcNPMoRdNnu_zXRPtm00]--></g></svg>