<?xml version="1.0" encoding="us-ascii" standalone="no"?><svg xmlns="http://www.w3.org/2000/svg" xmlns:xlink="http://www.w3.org/1999/xlink" contentStyleType="text/css" height="1439px" preserveAspectRatio="none" style="width:1300px;height:1439px;background:#CED4DA;" version="1.1" viewBox="0 0 1300 1439" width="1300px" zoomAndPan="magnify"><defs/><g><rect fill="#CED4DA" height="1439" style="stroke:none;stroke-width:1.0;" width="1300" x="0" y="0"/><!--class OSUIFlatpickrMonth--><g id="elem_OSUIFlatpickrMonth"><rect codeLine="7" fill="#FFFFFF" height="822.9492" id="OSUIFlatpickrMonth" rx="2.5" ry="2.5" style="stroke:#272B30;stroke-width:0.5;" width="694" x="339" y="610"/><ellipse cx="613.75" cy="626" fill="#ADD1B2" rx="11" ry="11" style="stroke:#181818;stroke-width:1.0;"/><path d="M616.2231,632.1431 Q615.6421,632.4419 615.0029,632.5913 Q614.3638,632.7407 613.6582,632.7407 Q611.1514,632.7407 609.8315,631.0889 Q608.5117,629.437 608.5117,626.3159 Q608.5117,623.1865 609.8315,621.5347 Q611.1514,619.8828 613.6582,619.8828 Q614.3638,619.8828 615.0112,620.0322 Q615.6587,620.1816 616.2231,620.4805 L616.2231,623.2031 Q615.5923,622.6221 614.9988,622.3523 Q614.4053,622.0825 613.7744,622.0825 Q612.4297,622.0825 611.7449,623.1492 Q611.0601,624.2158 611.0601,626.3159 Q611.0601,628.4077 611.7449,629.4744 Q612.4297,630.541 613.7744,630.541 Q614.4053,630.541 614.9988,630.2712 Q615.5923,630.0015 616.2231,629.4204 Z " fill="#000000"/><text fill="#000000" font-family="sans-serif" font-size="14" lengthAdjust="spacing" textLength="136" x="634.25" y="631.291">OSUIFlatpickrMonth</text><line style="stroke:#272B30;stroke-width:0.5;" x1="340" x2="1032" y1="642" y2="642"/><polygon fill="none" points="350,650.7441,354,654.7441,350,658.7441,346,654.7441" style="stroke:#B38D22;stroke-width:1.0;"/><text fill="#000000" font-family="sans-serif" font-size="14" lengthAdjust="spacing" textLength="266" x="359" y="659.5352">flatpickrInputElem : HTMLInputElement</text><polygon fill="none" points="350,667.2324,354,671.2324,350,675.2324,346,671.2324" style="stroke:#B38D22;stroke-width:1.0;"/><text fill="#000000" font-family="sans-serif" font-size="14" lengthAdjust="spacing" textLength="176" x="359" y="676.0234">isProviderBased : boolean</text><polygon fill="none" points="350,683.7207,354,687.7207,350,691.7207,346,687.7207" style="stroke:#B38D22;stroke-width:1.0;"/><text fill="#000000" font-family="sans-serif" font-size="14" lengthAdjust="spacing" textLength="354" x="359" y="692.5117">monthPickerPlatformInputElem : HTMLInputElement</text><polygon fill="none" points="350,700.209,354,704.209,350,708.209,346,704.209" style="stroke:#B38D22;stroke-width:1.0;"/><text fill="#000000" font-family="sans-serif" font-size="14" lengthAdjust="spacing" textLength="315" x="359" y="709">onSelectedCallbackEvent : OSOnSelectedEvent</text><polygon fill="none" points="350,716.6973,354,720.6973,350,724.6973,346,720.6973" style="stroke:#B38D22;stroke-width:1.0;"/><text fill="#000000" font-family="sans-serif" font-size="14" lengthAdjust="spacing" textLength="389" x="359" y="725.4883">providerEventsManagerInstance : IProviderEventManager</text><rect fill="none" height="6" style="stroke:#C82930;stroke-width:1.0;" width="6" x="347" y="735.1855"/><text fill="#000000" font-family="sans-serif" font-size="14" lengthAdjust="spacing" textLength="273" x="359" y="741.9766">_a11yInfoContainerElem : HTMLElement</text><rect fill="none" height="6" style="stroke:#C82930;stroke-width:1.0;" width="6" x="347" y="751.6738"/><text fill="#000000" font-family="sans-serif" font-size="14" lengthAdjust="spacing" textLength="245" x="359" y="758.4648">_bodyOnClickGlobalEvent : IListener</text><rect fill="none" height="6" style="stroke:#C82930;stroke-width:1.0;" width="6" x="347" y="768.1621"/><text fill="#000000" font-family="sans-serif" font-size="14" lengthAdjust="spacing" textLength="384" x="359" y="774.9531">_bodyScrollCommonBehaviour : UpdatePositionOnScroll</text><rect fill="none" height="6" style="stroke:#C82930;stroke-width:1.0;" width="6" x="347" y="784.6504"/><text fill="#000000" font-family="sans-serif" font-size="14" lengthAdjust="spacing" textLength="220" x="359" y="791.4414">_flatpickrOpts : FlatpickrOptions</text><rect fill="none" height="6" style="stroke:#C82930;stroke-width:1.0;" width="6" x="347" y="801.1387"/><text fill="#000000" font-family="sans-serif" font-size="14" lengthAdjust="spacing" textLength="284" x="359" y="807.9297">_zindexCommonBehavior : UpdateZindex</text><line style="stroke:#272B30;stroke-width:0.5;" x1="340" x2="1032" y1="814.8828" y2="814.8828"/><ellipse cx="350" cy="828.627" fill="#84BE84" rx="3" ry="3" style="stroke:#038048;stroke-width:1.0;"/><text fill="#000000" font-family="sans-serif" font-size="14" lengthAdjust="spacing" textLength="86" x="359" y="832.418">build() : void</text><ellipse cx="350" cy="845.1152" fill="#84BE84" rx="3" ry="3" style="stroke:#038048;stroke-width:1.0;"/><text fill="#000000" font-family="sans-serif" font-size="14" lengthAdjust="spacing" textLength="482" x="359" y="848.9063">changeProperty(propertyName: string, propertyValue: unknown) : void</text><ellipse cx="350" cy="861.6035" fill="#84BE84" rx="3" ry="3" style="stroke:#038048;stroke-width:1.0;"/><text fill="#000000" font-family="sans-serif" font-size="14" lengthAdjust="spacing" textLength="236" x="359" y="865.3945">checkAddedProviderEvents() : void</text><ellipse cx="350" cy="878.0918" fill="#84BE84" rx="3" ry="3" style="stroke:#038048;stroke-width:1.0;"/><text fill="#000000" font-family="sans-serif" font-size="14" lengthAdjust="spacing" textLength="247" x="359" y="881.8828">checkPendingProviderEvents() : void</text><ellipse cx="350" cy="894.5801" fill="#84BE84" rx="3" ry="3" style="stroke:#038048;stroke-width:1.0;"/><text fill="#000000" font-family="sans-serif" font-size="14" lengthAdjust="spacing" textLength="84" x="359" y="898.3711">clear() : void</text><ellipse cx="350" cy="911.0684" fill="#84BE84" rx="3" ry="3" style="stroke:#038048;stroke-width:1.0;"/><text fill="#000000" font-family="sans-serif" font-size="14" lengthAdjust="spacing" textLength="86" x="359" y="914.8594">close() : void</text><ellipse cx="350" cy="927.5566" fill="#84BE84" rx="3" ry="3" style="stroke:#038048;stroke-width:1.0;"/><text fill="#000000" font-family="sans-serif" font-size="14" lengthAdjust="spacing" textLength="104" x="359" y="931.3477">dispose() : void</text><ellipse cx="350" cy="944.0449" fill="#84BE84" rx="3" ry="3" style="stroke:#038048;stroke-width:1.0;"/><text fill="#000000" font-family="sans-serif" font-size="14" lengthAdjust="spacing" textLength="266" x="359" y="947.8359">equalsToID(patternId: string) : boolean</text><ellipse cx="350" cy="960.5332" fill="#84BE84" rx="3" ry="3" style="stroke:#038048;stroke-width:1.0;"/><text fill="#000000" font-family="sans-serif" font-size="14" lengthAdjust="spacing" textLength="86" x="359" y="964.3242">open() : void</text><ellipse cx="350" cy="977.0215" fill="#84BE84" rx="3" ry="3" style="stroke:#038048;stroke-width:1.0;"/><text fill="#000000" font-family="sans-serif" font-size="14" lengthAdjust="spacing" textLength="428" x="359" y="980.8125">registerCallback(eventName: string, callback: OSGeneric) : void</text><ellipse cx="350" cy="993.5098" fill="#84BE84" rx="3" ry="3" style="stroke:#038048;stroke-width:1.0;"/><text fill="#000000" font-family="sans-serif" font-size="14" lengthAdjust="spacing" textLength="292" x="359" y="997.3008">setEditableInput(isEditable: boolean) : void</text><ellipse cx="350" cy="1009.998" fill="#84BE84" rx="3" ry="3" style="stroke:#038048;stroke-width:1.0;"/><text fill="#000000" font-family="sans-serif" font-size="14" lengthAdjust="spacing" textLength="222" x="359" y="1013.7891">setLanguage(value: string) : void</text><ellipse cx="350" cy="1026.4863" fill="#84BE84" rx="3" ry="3" style="stroke:#038048;stroke-width:1.0;"/><text fill="#000000" font-family="sans-serif" font-size="14" lengthAdjust="spacing" textLength="383" x="359" y="1030.2773">setProviderConfigs(newConfigs: FlatpickrOptions) : void</text><ellipse cx="350" cy="1042.9746" fill="#84BE84" rx="3" ry="3" style="stroke:#038048;stroke-width:1.0;"/><text fill="#000000" font-family="sans-serif" font-size="14" lengthAdjust="spacing" textLength="668" x="359" y="1046.7656">setProviderEvent(eventName: string, callback: Generic, uniqueId: string, saveEvent: boolean) : void</text><ellipse cx="350" cy="1059.4629" fill="#84BE84" rx="3" ry="3" style="stroke:#038048;stroke-width:1.0;"/><text fill="#000000" font-family="sans-serif" font-size="14" lengthAdjust="spacing" textLength="281" x="359" y="1063.2539">unsetProviderEvent(eventId: string) : void</text><ellipse cx="350" cy="1075.9512" fill="#84BE84" rx="3" ry="3" style="stroke:#038048;stroke-width:1.0;"/><text fill="#000000" font-family="sans-serif" font-size="14" lengthAdjust="spacing" textLength="340" x="359" y="1079.7422">updateInitialMonth(monthYear: MonthYear) : void</text><ellipse cx="350" cy="1092.4395" fill="#84BE84" rx="3" ry="3" style="stroke:#038048;stroke-width:1.0;"/><text fill="#000000" font-family="sans-serif" font-size="14" lengthAdjust="spacing" textLength="307" x="359" y="1096.2305">updatePrompt(promptMessage: string) : void</text><ellipse cx="350" cy="1108.9277" fill="#84BE84" rx="3" ry="3" style="stroke:#038048;stroke-width:1.0;"/><text fill="#000000" font-family="sans-serif" font-size="14" lengthAdjust="spacing" textLength="377" x="359" y="1112.7188">updateProviderEvents(providerInfo: ProviderInfo) : void</text><polygon fill="#FFFF44" points="350,1120.416,354,1124.416,350,1128.416,346,1124.416" style="stroke:#B38D22;stroke-width:1.0;"/><text fill="#000000" font-family="sans-serif" font-size="14" lengthAdjust="spacing" textLength="207" x="359" y="1129.207">createProviderInstance() : void</text><polygon fill="#FFFF44" points="350,1136.9043,354,1140.9043,350,1144.9043,346,1140.9043" style="stroke:#B38D22;stroke-width:1.0;"/><text fill="#000000" font-family="sans-serif" font-size="14" lengthAdjust="spacing" textLength="123" x="359" y="1145.6953">finishBuild() : void</text><polygon fill="#FFFF44" points="350,1153.3926,354,1157.3926,350,1161.3926,346,1157.3926" style="stroke:#B38D22;stroke-width:1.0;"/><text fill="#000000" font-family="sans-serif" font-size="14" lengthAdjust="spacing" textLength="107" x="359" y="1162.1836">onClose() : void</text><polygon fill="#FFFF44" points="350,1169.8809,354,1173.8809,350,1177.8809,346,1173.8809" style="stroke:#B38D22;stroke-width:1.0;"/><text fill="#000000" font-family="sans-serif" font-size="14" lengthAdjust="spacing" textLength="387" x="359" y="1178.6719">onMonthSelectedEvent(selectedMonthYear: Date[]) : void</text><polygon fill="#FFFF44" points="350,1186.3691,354,1190.3691,350,1194.3691,346,1190.3691" style="stroke:#B38D22;stroke-width:1.0;"/><text fill="#000000" font-family="sans-serif" font-size="14" lengthAdjust="spacing" textLength="106" x="359" y="1195.1602">onOpen() : void</text><polygon fill="#FFFF44" points="350,1202.8574,354,1206.8574,350,1210.8574,346,1206.8574" style="stroke:#B38D22;stroke-width:1.0;"/><text fill="#000000" font-family="sans-serif" font-size="14" lengthAdjust="spacing" textLength="158" x="359" y="1211.6484">prepareConfigs() : void</text><polygon fill="#FFFF44" points="350,1219.3457,354,1223.3457,350,1227.3457,346,1223.3457" style="stroke:#B38D22;stroke-width:1.0;"/><text fill="#000000" font-family="sans-serif" font-size="14" lengthAdjust="spacing" textLength="99" x="359" y="1228.1367">redraw() : void</text><polygon fill="#FFFF44" points="350,1235.834,354,1239.834,350,1243.834,346,1239.834" style="stroke:#B38D22;stroke-width:1.0;"/><text fill="#000000" font-family="sans-serif" font-size="14" lengthAdjust="spacing" textLength="178" x="359" y="1244.625">setA11YProperties() : void</text><polygon fill="#FFFF44" points="350,1252.3223,354,1256.3223,350,1260.3223,346,1256.3223" style="stroke:#B38D22;stroke-width:1.0;"/><text fill="#000000" font-family="sans-serif" font-size="14" lengthAdjust="spacing" textLength="136" x="359" y="1261.1133">setCallbacks() : void</text><polygon fill="#FFFF44" points="350,1268.8105,354,1272.8105,350,1276.8105,346,1272.8105" style="stroke:#B38D22;stroke-width:1.0;"/><text fill="#000000" font-family="sans-serif" font-size="14" lengthAdjust="spacing" textLength="165" x="359" y="1277.6016">setHtmlElements() : void</text><polygon fill="#FFFF44" points="350,1285.2988,354,1289.2988,350,1293.2988,346,1289.2988" style="stroke:#B38D22;stroke-width:1.0;"/><text fill="#000000" font-family="sans-serif" font-size="14" lengthAdjust="spacing" textLength="570" x="359" y="1294.0898">triggerPlatformEventCallback(platFormCallback: OSGeneric, args: unknown[]) : void</text><polygon fill="#FFFF44" points="350,1301.7871,354,1305.7871,350,1309.7871,346,1305.7871" style="stroke:#B38D22;stroke-width:1.0;"/><text fill="#000000" font-family="sans-serif" font-size="14" lengthAdjust="spacing" textLength="318" x="359" y="1310.5781">triggerPlatformInitializedEventCallback() : void</text><polygon fill="#FFFF44" points="350,1318.2754,354,1322.2754,350,1326.2754,346,1322.2754" style="stroke:#B38D22;stroke-width:1.0;"/><text fill="#000000" font-family="sans-serif" font-size="14" lengthAdjust="spacing" textLength="154" x="359" y="1327.0664">unsetCallbacks() : void</text><polygon fill="#FFFF44" points="350,1334.7637,354,1338.7637,350,1342.7637,346,1338.7637" style="stroke:#B38D22;stroke-width:1.0;"/><text fill="#000000" font-family="sans-serif" font-size="14" lengthAdjust="spacing" textLength="198" x="359" y="1343.5547">unsetGlobalCallbacks() : void</text><polygon fill="#FFFF44" points="350,1351.252,354,1355.252,350,1359.252,346,1355.252" style="stroke:#B38D22;stroke-width:1.0;"/><text fill="#000000" font-family="sans-serif" font-size="14" lengthAdjust="spacing" textLength="183" x="359" y="1360.043">unsetHtmlElements() : void</text><polygon fill="#FFFF44" points="350,1367.7402,354,1371.7402,350,1375.7402,346,1371.7402" style="stroke:#B38D22;stroke-width:1.0;"/><text fill="#000000" font-family="sans-serif" font-size="14" lengthAdjust="spacing" textLength="226" x="359" y="1376.5313">updatePlatformInputAttrs() : void</text><rect fill="#F24D5C" height="6" style="stroke:#C82930;stroke-width:1.0;" width="6" x="347" y="1386.2285"/><text fill="#000000" font-family="sans-serif" font-size="14" lengthAdjust="spacing" textLength="247" x="359" y="1393.0195">_getBodyOnClickGlobalEvent() : void</text><rect fill="#F24D5C" height="6" style="stroke:#C82930;stroke-width:1.0;" width="6" x="347" y="1402.7168"/><text fill="#000000" font-family="sans-serif" font-size="14" lengthAdjust="spacing" textLength="146" x="359" y="1409.5078">_setAttributes() : void</text><rect fill="#F24D5C" height="6" style="stroke:#C82930;stroke-width:1.0;" width="6" x="347" y="1419.2051"/><text fill="#000000" font-family="sans-serif" font-size="14" lengthAdjust="spacing" textLength="215" x="359" y="1425.9961">_setCalendarCssClasses() : void</text></g><!--class AbstractMonthPicker<Flatpickr, FlatpickrMonthConfig>--><g id="elem_AbstractMonthPicker&lt;Flatpickr, FlatpickrMonthConfig&gt;"><rect codeLine="56" fill="#FFFFFF" height="542.6484" id="AbstractMonthPicker&lt;Flatpickr, FlatpickrMonthConfig&gt;" rx="2.5" ry="2.5" style="stroke:#272B30;stroke-width:0.5;" width="694" x="9" y="7"/><ellipse cx="161.75" cy="23" fill="#A9DCDF" rx="11" ry="11" style="stroke:#181818;stroke-width:1.0;"/><path d="M161.6133,18.3481 L160.4595,23.4199 L162.7754,23.4199 Z M160.1191,16.1069 L163.1157,16.1069 L166.4609,28.5 L164.0122,28.5 L163.2485,25.437 L159.9697,25.437 L159.2227,28.5 L156.7739,28.5 Z " fill="#000000"/><text fill="#000000" font-family="sans-serif" font-size="14" font-style="italic" lengthAdjust="spacing" textLength="380" x="182.25" y="28.291">AbstractMonthPicker&lt;Flatpickr, FlatpickrMonthConfig&gt;</text><line style="stroke:#272B30;stroke-width:0.5;" x1="10" x2="702" y1="39" y2="39"/><polygon fill="none" points="20,47.7441,24,51.7441,20,55.7441,16,51.7441" style="stroke:#B38D22;stroke-width:1.0;"/><text fill="#000000" font-family="sans-serif" font-size="14" lengthAdjust="spacing" textLength="176" x="29" y="56.5352">isProviderBased : boolean</text><polygon fill="none" points="20,64.2324,24,68.2324,20,72.2324,16,68.2324" style="stroke:#B38D22;stroke-width:1.0;"/><text fill="#000000" font-family="sans-serif" font-size="14" lengthAdjust="spacing" textLength="389" x="29" y="73.0234">providerEventsManagerInstance : IProviderEventManager</text><line style="stroke:#272B30;stroke-width:0.5;" x1="10" x2="702" y1="79.9766" y2="79.9766"/><ellipse cx="20" cy="93.7207" fill="#84BE84" rx="3" ry="3" style="stroke:#038048;stroke-width:1.0;"/><text fill="#000000" font-family="sans-serif" font-size="14" lengthAdjust="spacing" textLength="86" x="29" y="97.5117">build() : void</text><ellipse cx="20" cy="110.209" fill="#84BE84" rx="3" ry="3" style="stroke:#038048;stroke-width:1.0;"/><text fill="#000000" font-family="sans-serif" font-size="14" lengthAdjust="spacing" textLength="482" x="29" y="114">changeProperty(propertyName: string, propertyValue: unknown) : void</text><ellipse cx="20" cy="126.6973" fill="#84BE84" rx="3" ry="3" style="stroke:#038048;stroke-width:1.0;"/><text fill="#000000" font-family="sans-serif" font-size="14" lengthAdjust="spacing" textLength="236" x="29" y="130.4883">checkAddedProviderEvents() : void</text><ellipse cx="20" cy="143.1855" fill="#84BE84" rx="3" ry="3" style="stroke:#038048;stroke-width:1.0;"/><text fill="#000000" font-family="sans-serif" font-size="14" lengthAdjust="spacing" textLength="247" x="29" y="146.9766">checkPendingProviderEvents() : void</text><ellipse cx="20" cy="159.6738" fill="#84BE84" rx="3" ry="3" style="stroke:#038048;stroke-width:1.0;"/><text fill="#000000" font-family="sans-serif" font-size="14" font-style="italic" lengthAdjust="spacing" textLength="84" x="29" y="163.4648">clear() : void</text><ellipse cx="20" cy="176.1621" fill="#84BE84" rx="3" ry="3" style="stroke:#038048;stroke-width:1.0;"/><text fill="#000000" font-family="sans-serif" font-size="14" font-style="italic" lengthAdjust="spacing" textLength="86" x="29" y="179.9531">close() : void</text><ellipse cx="20" cy="192.6504" fill="#84BE84" rx="3" ry="3" style="stroke:#038048;stroke-width:1.0;"/><text fill="#000000" font-family="sans-serif" font-size="14" lengthAdjust="spacing" textLength="104" x="29" y="196.4414">dispose() : void</text><ellipse cx="20" cy="209.1387" fill="#84BE84" rx="3" ry="3" style="stroke:#038048;stroke-width:1.0;"/><text fill="#000000" font-family="sans-serif" font-size="14" lengthAdjust="spacing" textLength="266" x="29" y="212.9297">equalsToID(patternId: string) : boolean</text><ellipse cx="20" cy="225.627" fill="#84BE84" rx="3" ry="3" style="stroke:#038048;stroke-width:1.0;"/><text fill="#000000" font-family="sans-serif" font-size="14" font-style="italic" lengthAdjust="spacing" textLength="86" x="29" y="229.418">open() : void</text><ellipse cx="20" cy="242.1152" fill="#84BE84" rx="3" ry="3" style="stroke:#038048;stroke-width:1.0;"/><text fill="#000000" font-family="sans-serif" font-size="14" lengthAdjust="spacing" textLength="428" x="29" y="245.9063">registerCallback(eventName: string, callback: OSGeneric) : void</text><ellipse cx="20" cy="258.6035" fill="#84BE84" rx="3" ry="3" style="stroke:#038048;stroke-width:1.0;"/><text fill="#000000" font-family="sans-serif" font-size="14" font-style="italic" lengthAdjust="spacing" textLength="222" x="29" y="262.3945">setLanguage(value: string) : void</text><ellipse cx="20" cy="275.0918" fill="#84BE84" rx="3" ry="3" style="stroke:#038048;stroke-width:1.0;"/><text fill="#000000" font-family="sans-serif" font-size="14" lengthAdjust="spacing" textLength="364" x="29" y="278.8828">setProviderConfigs(providerConfigs: unknown) : void</text><ellipse cx="20" cy="291.5801" fill="#84BE84" rx="3" ry="3" style="stroke:#038048;stroke-width:1.0;"/><text fill="#000000" font-family="sans-serif" font-size="14" lengthAdjust="spacing" textLength="668" x="29" y="295.3711">setProviderEvent(eventName: string, callback: Generic, uniqueId: string, saveEvent: boolean) : void</text><ellipse cx="20" cy="308.0684" fill="#84BE84" rx="3" ry="3" style="stroke:#038048;stroke-width:1.0;"/><text fill="#000000" font-family="sans-serif" font-size="14" lengthAdjust="spacing" textLength="281" x="29" y="311.8594">unsetProviderEvent(eventId: string) : void</text><ellipse cx="20" cy="324.5566" fill="#84BE84" rx="3" ry="3" style="stroke:#038048;stroke-width:1.0;"/><text fill="#000000" font-family="sans-serif" font-size="14" font-style="italic" lengthAdjust="spacing" textLength="340" x="29" y="328.3477">updateInitialMonth(monthYear: MonthYear) : void</text><ellipse cx="20" cy="341.0449" fill="#84BE84" rx="3" ry="3" style="stroke:#038048;stroke-width:1.0;"/><text fill="#000000" font-family="sans-serif" font-size="14" font-style="italic" lengthAdjust="spacing" textLength="307" x="29" y="344.8359">updatePrompt(promptMessage: string) : void</text><ellipse cx="20" cy="357.5332" fill="#84BE84" rx="3" ry="3" style="stroke:#038048;stroke-width:1.0;"/><text fill="#000000" font-family="sans-serif" font-size="14" lengthAdjust="spacing" textLength="377" x="29" y="361.3242">updateProviderEvents(providerInfo: ProviderInfo) : void</text><polygon fill="#FFFF44" points="20,369.0215,24,373.0215,20,377.0215,16,373.0215" style="stroke:#B38D22;stroke-width:1.0;"/><text fill="#000000" font-family="sans-serif" font-size="14" lengthAdjust="spacing" textLength="123" x="29" y="377.8125">finishBuild() : void</text><polygon fill="#FFFF44" points="20,385.5098,24,389.5098,20,393.5098,16,389.5098" style="stroke:#B38D22;stroke-width:1.0;"/><text fill="#000000" font-family="sans-serif" font-size="14" font-style="italic" lengthAdjust="spacing" textLength="158" x="29" y="394.3008">prepareConfigs() : void</text><polygon fill="#FFFF44" points="20,401.998,24,405.998,20,409.998,16,405.998" style="stroke:#B38D22;stroke-width:1.0;"/><text fill="#000000" font-family="sans-serif" font-size="14" lengthAdjust="spacing" textLength="99" x="29" y="410.7891">redraw() : void</text><polygon fill="#FFFF44" points="20,418.4863,24,422.4863,20,426.4863,16,422.4863" style="stroke:#B38D22;stroke-width:1.0;"/><text fill="#000000" font-family="sans-serif" font-size="14" font-style="italic" lengthAdjust="spacing" textLength="178" x="29" y="427.2773">setA11YProperties() : void</text><polygon fill="#FFFF44" points="20,434.9746,24,438.9746,20,442.9746,16,438.9746" style="stroke:#B38D22;stroke-width:1.0;"/><text fill="#000000" font-family="sans-serif" font-size="14" font-style="italic" lengthAdjust="spacing" textLength="136" x="29" y="443.7656">setCallbacks() : void</text><polygon fill="#FFFF44" points="20,451.4629,24,455.4629,20,459.4629,16,455.4629" style="stroke:#B38D22;stroke-width:1.0;"/><text fill="#000000" font-family="sans-serif" font-size="14" font-style="italic" lengthAdjust="spacing" textLength="165" x="29" y="460.2539">setHtmlElements() : void</text><polygon fill="#FFFF44" points="20,467.9512,24,471.9512,20,475.9512,16,471.9512" style="stroke:#B38D22;stroke-width:1.0;"/><text fill="#000000" font-family="sans-serif" font-size="14" lengthAdjust="spacing" textLength="570" x="29" y="476.7422">triggerPlatformEventCallback(platFormCallback: OSGeneric, args: unknown[]) : void</text><polygon fill="#FFFF44" points="20,484.4395,24,488.4395,20,492.4395,16,488.4395" style="stroke:#B38D22;stroke-width:1.0;"/><text fill="#000000" font-family="sans-serif" font-size="14" lengthAdjust="spacing" textLength="318" x="29" y="493.2305">triggerPlatformInitializedEventCallback() : void</text><polygon fill="#FFFF44" points="20,500.9277,24,504.9277,20,508.9277,16,504.9277" style="stroke:#B38D22;stroke-width:1.0;"/><text fill="#000000" font-family="sans-serif" font-size="14" lengthAdjust="spacing" textLength="154" x="29" y="509.7188">unsetCallbacks() : void</text><polygon fill="#FFFF44" points="20,517.416,24,521.416,20,525.416,16,521.416" style="stroke:#B38D22;stroke-width:1.0;"/><text fill="#000000" font-family="sans-serif" font-size="14" lengthAdjust="spacing" textLength="198" x="29" y="526.207">unsetGlobalCallbacks() : void</text><polygon fill="#FFFF44" points="20,533.9043,24,537.9043,20,541.9043,16,537.9043" style="stroke:#B38D22;stroke-width:1.0;"/><text fill="#000000" font-family="sans-serif" font-size="14" font-style="italic" lengthAdjust="spacing" textLength="183" x="29" y="542.6953">unsetHtmlElements() : void</text></g><!--class IFlatpickrMonth--><g id="elem_IFlatpickrMonth"><rect codeLine="89" fill="#FFFFFF" height="394.2539" id="IFlatpickrMonth" rx="2.5" ry="2.5" style="stroke:#272B30;stroke-width:0.5;" width="555" x="738.5" y="81.5"/><ellipse cx="958.25" cy="97.5" fill="#B4A7E5" rx="11" ry="11" style="stroke:#181818;stroke-width:1.0;"/><path d="M954.6777,93.7651 L954.6777,91.6069 L962.0571,91.6069 L962.0571,93.7651 L959.5918,93.7651 L959.5918,101.8418 L962.0571,101.8418 L962.0571,104 L954.6777,104 L954.6777,101.8418 L957.1431,101.8418 L957.1431,93.7651 Z " fill="#000000"/><text fill="#000000" font-family="sans-serif" font-size="14" font-style="italic" lengthAdjust="spacing" textLength="107" x="978.75" y="102.791">IFlatpickrMonth</text><line style="stroke:#272B30;stroke-width:0.5;" x1="739.5" x2="1292.5" y1="113.5" y2="113.5"/><ellipse cx="749.5" cy="127.2441" fill="none" rx="3" ry="3" style="stroke:#038048;stroke-width:1.0;"/><text fill="#000000" font-family="sans-serif" font-size="14" lengthAdjust="spacing" textLength="109" x="758.5" y="131.0352">isBuilt : boolean</text><ellipse cx="749.5" cy="143.7324" fill="none" rx="3" ry="3" style="stroke:#038048;stroke-width:1.0;"/><text fill="#000000" font-family="sans-serif" font-size="14" lengthAdjust="spacing" textLength="116" x="758.5" y="147.5234">isOpen : boolean</text><ellipse cx="749.5" cy="160.2207" fill="none" rx="3" ry="3" style="stroke:#038048;stroke-width:1.0;"/><text fill="#000000" font-family="sans-serif" font-size="14" lengthAdjust="spacing" textLength="126" x="758.5" y="164.0117">provider : flatpickr</text><ellipse cx="749.5" cy="176.709" fill="none" rx="3" ry="3" style="stroke:#038048;stroke-width:1.0;"/><text fill="#000000" font-family="sans-serif" font-size="14" lengthAdjust="spacing" textLength="181" x="758.5" y="180.5">providerInfo : ProviderInfo</text><ellipse cx="749.5" cy="193.1973" fill="none" rx="3" ry="3" style="stroke:#038048;stroke-width:1.0;"/><text fill="#000000" font-family="sans-serif" font-size="14" lengthAdjust="spacing" textLength="184" x="758.5" y="196.9883">selfElement : HTMLElement</text><ellipse cx="749.5" cy="209.6855" fill="none" rx="3" ry="3" style="stroke:#038048;stroke-width:1.0;"/><text fill="#000000" font-family="sans-serif" font-size="14" lengthAdjust="spacing" textLength="113" x="758.5" y="213.4766">uniqueId : string</text><ellipse cx="749.5" cy="226.1738" fill="none" rx="3" ry="3" style="stroke:#038048;stroke-width:1.0;"/><text fill="#000000" font-family="sans-serif" font-size="14" lengthAdjust="spacing" textLength="111" x="758.5" y="229.9648">widgetId : string</text><line style="stroke:#272B30;stroke-width:0.5;" x1="739.5" x2="1292.5" y1="236.918" y2="236.918"/><ellipse cx="749.5" cy="250.6621" fill="#84BE84" rx="3" ry="3" style="stroke:#038048;stroke-width:1.0;"/><text fill="#000000" font-family="sans-serif" font-size="14" lengthAdjust="spacing" textLength="86" x="758.5" y="254.4531">build() : void</text><ellipse cx="749.5" cy="267.1504" fill="#84BE84" rx="3" ry="3" style="stroke:#038048;stroke-width:1.0;"/><text fill="#000000" font-family="sans-serif" font-size="14" lengthAdjust="spacing" textLength="482" x="758.5" y="270.9414">changeProperty(propertyName: string, propertyValue: unknown) : void</text><ellipse cx="749.5" cy="283.6387" fill="#84BE84" rx="3" ry="3" style="stroke:#038048;stroke-width:1.0;"/><text fill="#000000" font-family="sans-serif" font-size="14" lengthAdjust="spacing" textLength="84" x="758.5" y="287.4297">clear() : void</text><ellipse cx="749.5" cy="300.127" fill="#84BE84" rx="3" ry="3" style="stroke:#038048;stroke-width:1.0;"/><text fill="#000000" font-family="sans-serif" font-size="14" lengthAdjust="spacing" textLength="86" x="758.5" y="303.918">close() : void</text><ellipse cx="749.5" cy="316.6152" fill="#84BE84" rx="3" ry="3" style="stroke:#038048;stroke-width:1.0;"/><text fill="#000000" font-family="sans-serif" font-size="14" lengthAdjust="spacing" textLength="104" x="758.5" y="320.4063">dispose() : void</text><ellipse cx="749.5" cy="333.1035" fill="#84BE84" rx="3" ry="3" style="stroke:#038048;stroke-width:1.0;"/><text fill="#000000" font-family="sans-serif" font-size="14" lengthAdjust="spacing" textLength="216" x="758.5" y="336.8945">equalsToID(id: string) : boolean</text><ellipse cx="749.5" cy="349.5918" fill="#84BE84" rx="3" ry="3" style="stroke:#038048;stroke-width:1.0;"/><text fill="#000000" font-family="sans-serif" font-size="14" lengthAdjust="spacing" textLength="253" x="758.5" y="353.3828">open(isOpenedByApi: boolean) : void</text><ellipse cx="749.5" cy="366.0801" fill="#84BE84" rx="3" ry="3" style="stroke:#038048;stroke-width:1.0;"/><text fill="#000000" font-family="sans-serif" font-size="14" lengthAdjust="spacing" textLength="428" x="758.5" y="369.8711">registerCallback(eventName: string, callback: OSGeneric) : void</text><ellipse cx="749.5" cy="382.5684" fill="#84BE84" rx="3" ry="3" style="stroke:#038048;stroke-width:1.0;"/><text fill="#000000" font-family="sans-serif" font-size="14" lengthAdjust="spacing" textLength="222" x="758.5" y="386.3594">setLanguage(value: string) : void</text><ellipse cx="749.5" cy="399.0566" fill="#84BE84" rx="3" ry="3" style="stroke:#038048;stroke-width:1.0;"/><text fill="#000000" font-family="sans-serif" font-size="14" lengthAdjust="spacing" textLength="324" x="758.5" y="402.8477">setProviderConfigs(providerConfigs: any) : void</text><ellipse cx="749.5" cy="415.5449" fill="#84BE84" rx="3" ry="3" style="stroke:#038048;stroke-width:1.0;"/><text fill="#000000" font-family="sans-serif" font-size="14" lengthAdjust="spacing" textLength="529" x="758.5" y="419.3359">setProviderEvent(eventName: string, callback: Generic, uniqueId: string) : void</text><ellipse cx="749.5" cy="432.0332" fill="#84BE84" rx="3" ry="3" style="stroke:#038048;stroke-width:1.0;"/><text fill="#000000" font-family="sans-serif" font-size="14" lengthAdjust="spacing" textLength="281" x="758.5" y="435.8242">unsetProviderEvent(eventId: string) : void</text><ellipse cx="749.5" cy="448.5215" fill="#84BE84" rx="3" ry="3" style="stroke:#038048;stroke-width:1.0;"/><text fill="#000000" font-family="sans-serif" font-size="14" lengthAdjust="spacing" textLength="340" x="758.5" y="452.3125">updateInitialMonth(monthYear: MonthYear) : void</text><ellipse cx="749.5" cy="465.0098" fill="#84BE84" rx="3" ry="3" style="stroke:#038048;stroke-width:1.0;"/><text fill="#000000" font-family="sans-serif" font-size="14" lengthAdjust="spacing" textLength="377" x="758.5" y="468.8008">updateProviderEvents(providerInfo: ProviderInfo) : void</text></g><!--reverse link AbstractMonthPicker<Flatpickr, FlatpickrMonthConfig> to OSUIFlatpickrMonth--><g id="link_AbstractMonthPicker&lt;Flatpickr, FlatpickrMonthConfig&gt;_OSUIFlatpickrMonth"><path codeLine="88" d="M484.74,568.59 C490.79,582.17 496.91,595.91 503.06,609.73 " fill="none" id="AbstractMonthPicker&lt;Flatpickr, FlatpickrMonthConfig&gt;-backto-OSUIFlatpickrMonth" style="stroke:#272B30;stroke-width:1.0;"/><polygon fill="none" points="478.28,571.28,476.54,550.16,491.07,565.59,478.28,571.28" style="stroke:#272B30;stroke-width:1.0;"/></g><!--reverse link IFlatpickrMonth to OSUIFlatpickrMonth--><g id="link_IFlatpickrMonth_OSUIFlatpickrMonth"><path codeLine="112" d="M920.45,494.05 C904.08,530.8 886.6,570.06 868.84,609.95 " fill="none" id="IFlatpickrMonth-backto-OSUIFlatpickrMonth" style="stroke:#272B30;stroke-width:1.0;stroke-dasharray:7.0,7.0;"/><polygon fill="none" points="914.12,491.07,928.65,475.64,926.91,496.76,914.12,491.07" style="stroke:#272B30;stroke-width:1.0;"/></g><!--SRC=[vLTjRzis4FxkNq4aNrJ4BfPkm80WA62hIMiWdWsa7T0LGq299vamJQeaPTTjyzztaYXPRtRG8DaBbYynxvuxyexFtObcnML2DLqJNr1ZnbghhQ-4qkJqrQ-lWfz_6fWcOg8q0tqSGiDLh5KgcOD5KLJ3TDGXi5yO7Imv0mBhnEx86knICLCNHHm4Ii9i0t8ol_qmlHRK9ZnSwPcITdb2lWq8_fr6fNWgazHU2LYJ2_Bk_UocMeEq1PIRXLORt4DFg066k40f0LGMwdNcTu6kG2_GQQJq-c6VIjw2WD02ywaG0SPwjK4bukUtyqgNomg3n1qX5vaPbJG6FBknL8Q0PjD57U3qkUdeZfwVxwOoKZwUb7A9cFtHwgSQtGMAxURI5nZDMw42AifJJM-uiI0hbndmDjHA25-jCGCJMD8DLwb6x8U4KGiBPRZbIc8qESuPLdcV9zOW-BgsHhHniAzSClZIyBrt_KUkp95dGSe5yrwWRgCuAsJXaieOC249QBlp4lVZDxg62sAivZ8UabBwEnKfYbEvacehsuuWN8qP0zR8hl5wO0kG31qV1o9hT4Uc3BHaZ9kaAuNFAHNclPg-yH9gBMWvPMKyBrgiFCFWPCjUGvnTeYuPvq5sncPMGgVBUFWsksyUDfqOi5UCMne8o5djSLEkgnDqB6xmFb8afBSfahq_SmDMvWvv6l7OU1AsxcUN9mUDyyGV3yq5DiHBvvzJs6TnI0pTGExXG32fxD-gUHCrV4xOgSHIe2BlG5xUBpuY4Ix8hFpPPuIxO4lBs8l_Pc0C9l3O9YtcbGqZA_mBigYj6iQdeOQQSTbHcjGvZRZaPZdfrXesChzBO9JceJNwc6VSQhPFm1lS-jEVRTjvXxlO_W370fJCQ2erC4stBI7Uq_Zy_AFh0XnCLryMGe_gdLqBrnhRMho0EDxt-ZosggGIb5wZrE_MqP1GdJ7PTPfss2stZZBygyjUjKFJAkVZeJXoPT77ZqAE1EkeLPzhOsjr2pQwYy5EUcT76vXT2phWGMh1z2ZneDX8gVQDoRyIwg3x0GsG_pIqn0tuiLlFzZFuikeKGzAS_GLvNbUV00_CzSTFtF_KKFfMvlI-TpurrSyngkexFDFKgc_n-76KDDS7hkVVEehgENZCLEhQ_qq3wk3igPten-T3tVY1KT627cYbBTJ_P83KepuoI-u7ZspLbzz7ezvtt81BR0eHnLPySk2DTyPDnXhR_ZJc9ll0Q4jBEgAyUgCqDHarIPEfPScBoCNSywewAqkRbCLHYBUSuTJiY9ztTZpL0uG_yF8eSWniiXid_403Uwhto5ErSoftpzBA_yaNn0ysNApJJZ5TVd_vihS4_m80]--></g></svg>