<?xml version="1.0" encoding="us-ascii" standalone="no"?><svg xmlns="http://www.w3.org/2000/svg" xmlns:xlink="http://www.w3.org/1999/xlink" contentStyleType="text/css" height="1979px" preserveAspectRatio="none" style="width:723px;height:1979px;background:#CED4DA;" version="1.1" viewBox="0 0 723 1979" width="723px" zoomAndPan="magnify"><defs/><g><rect fill="#CED4DA" height="1979" style="stroke:none;stroke-width:1.0;" width="723" x="0" y="0"/><!--class OSUIFlatpickrRangeDate--><g id="elem_OSUIFlatpickrRangeDate"><rect codeLine="7" fill="#FFFFFF" height="879.1406" id="OSUIFlatpickrRangeDate" rx="2.5" ry="2.5" style="stroke:#272B30;stroke-width:0.5;" width="707" x="9" y="1093"/><ellipse cx="274.25" cy="1109" fill="#ADD1B2" rx="11" ry="11" style="stroke:#181818;stroke-width:1.0;"/><path d="M277.2188,1114.6406 Q276.6406,1114.9375 276,1115.0781 Q275.3594,1115.2344 274.6563,1115.2344 Q272.1563,1115.2344 270.8281,1113.5938 Q269.5156,1111.9375 269.5156,1108.8125 Q269.5156,1105.6875 270.8281,1104.0313 Q272.1563,1102.375 274.6563,1102.375 Q275.3594,1102.375 276,1102.5313 Q276.6563,1102.6875 277.2188,1102.9844 L277.2188,1105.7031 Q276.5938,1105.125 276,1104.8594 Q275.4063,1104.5781 274.7813,1104.5781 Q273.4375,1104.5781 272.75,1105.6563 Q272.0625,1106.7188 272.0625,1108.8125 Q272.0625,1110.9063 272.75,1111.9844 Q273.4375,1113.0469 274.7813,1113.0469 Q275.4063,1113.0469 276,1112.7813 Q276.5938,1112.5 277.2188,1111.9219 L277.2188,1114.6406 Z " fill="#000000"/><text fill="#000000" font-family="sans-serif" font-size="14" lengthAdjust="spacing" textLength="168" x="294.75" y="1113.8467">OSUIFlatpickrRangeDate</text><line style="stroke:#272B30;stroke-width:0.5;" x1="10" x2="715" y1="1125" y2="1125"/><ellipse cx="20" cy="1138.6484" fill="none" rx="3" ry="3" style="stroke:#038048;stroke-width:1.0;"/><text fill="#000000" font-family="sans-serif" font-size="14" lengthAdjust="spacing" textLength="205" x="29" y="1141.9951">onCloseCustomCallback : any</text><polygon fill="none" points="20,1149.9453,24,1153.9453,20,1157.9453,16,1153.9453" style="stroke:#B38D22;stroke-width:1.0;"/><text fill="#000000" font-family="sans-serif" font-size="14" lengthAdjust="spacing" textLength="341" x="29" y="1158.292">datePickerPlatformInputElem : HTMLInputElement</text><polygon fill="none" points="20,1166.2422,24,1170.2422,20,1174.2422,16,1170.2422" style="stroke:#B38D22;stroke-width:1.0;"/><text fill="#000000" font-family="sans-serif" font-size="14" lengthAdjust="spacing" textLength="265" x="29" y="1174.5889">flatpickrInputElem : HTMLInputElement</text><polygon fill="none" points="20,1182.5391,24,1186.5391,20,1190.5391,16,1186.5391" style="stroke:#B38D22;stroke-width:1.0;"/><text fill="#000000" font-family="sans-serif" font-size="14" lengthAdjust="spacing" textLength="210" x="29" y="1190.8857">flatpickrOpts : FlatpickrOptions</text><polygon fill="none" points="20,1198.8359,24,1202.8359,20,1206.8359,16,1202.8359" style="stroke:#B38D22;stroke-width:1.0;"/><text fill="#000000" font-family="sans-serif" font-size="14" lengthAdjust="spacing" textLength="180" x="29" y="1207.1826">isProviderBased : boolean</text><polygon fill="none" points="20,1215.1328,24,1219.1328,20,1223.1328,16,1219.1328" style="stroke:#B38D22;stroke-width:1.0;"/><text fill="#000000" font-family="sans-serif" font-size="14" lengthAdjust="spacing" textLength="321" x="29" y="1223.4795">onSelectedCallbackEvent : OSOnChangeEvent</text><polygon fill="none" points="20,1231.4297,24,1235.4297,20,1239.4297,16,1235.4297" style="stroke:#B38D22;stroke-width:1.0;"/><text fill="#000000" font-family="sans-serif" font-size="14" lengthAdjust="spacing" textLength="393" x="29" y="1239.7764">providerEventsManagerInstance : IProviderEventManager</text><line style="stroke:#272B30;stroke-width:0.5;" x1="10" x2="715" y1="1247.0781" y2="1247.0781"/><ellipse cx="20" cy="1260.7266" fill="#84BE84" rx="3" ry="3" style="stroke:#038048;stroke-width:1.0;"/><text fill="#000000" font-family="sans-serif" font-size="14" lengthAdjust="spacing" textLength="84" x="29" y="1264.0732">build() : void</text><ellipse cx="20" cy="1277.0234" fill="#84BE84" rx="3" ry="3" style="stroke:#038048;stroke-width:1.0;"/><text fill="#000000" font-family="sans-serif" font-size="14" lengthAdjust="spacing" textLength="484" x="29" y="1280.3701">changeProperty(propertyName: string, propertyValue: unknown) : void</text><ellipse cx="20" cy="1293.3203" fill="#84BE84" rx="3" ry="3" style="stroke:#038048;stroke-width:1.0;"/><text fill="#000000" font-family="sans-serif" font-size="14" lengthAdjust="spacing" textLength="241" x="29" y="1296.667">checkAddedProviderEvents() : void</text><ellipse cx="20" cy="1309.6172" fill="#84BE84" rx="3" ry="3" style="stroke:#038048;stroke-width:1.0;"/><text fill="#000000" font-family="sans-serif" font-size="14" lengthAdjust="spacing" textLength="253" x="29" y="1312.9639">checkPendingProviderEvents() : void</text><ellipse cx="20" cy="1325.9141" fill="#84BE84" rx="3" ry="3" style="stroke:#038048;stroke-width:1.0;"/><text fill="#000000" font-family="sans-serif" font-size="14" lengthAdjust="spacing" textLength="84" x="29" y="1329.2607">clear() : void</text><ellipse cx="20" cy="1342.2109" fill="#84BE84" rx="3" ry="3" style="stroke:#038048;stroke-width:1.0;"/><text fill="#000000" font-family="sans-serif" font-size="14" lengthAdjust="spacing" textLength="88" x="29" y="1345.5576">close() : void</text><ellipse cx="20" cy="1358.5078" fill="#84BE84" rx="3" ry="3" style="stroke:#038048;stroke-width:1.0;"/><text fill="#000000" font-family="sans-serif" font-size="14" lengthAdjust="spacing" textLength="275" x="29" y="1361.8545">disableDays(disableDays: string[]) : void</text><ellipse cx="20" cy="1374.8047" fill="#84BE84" rx="3" ry="3" style="stroke:#038048;stroke-width:1.0;"/><text fill="#000000" font-family="sans-serif" font-size="14" lengthAdjust="spacing" textLength="368" x="29" y="1378.1514">disableWeekDays(disableWeekDays: number[]) : void</text><ellipse cx="20" cy="1391.1016" fill="#84BE84" rx="3" ry="3" style="stroke:#038048;stroke-width:1.0;"/><text fill="#000000" font-family="sans-serif" font-size="14" lengthAdjust="spacing" textLength="106" x="29" y="1394.4482">dispose() : void</text><ellipse cx="20" cy="1407.3984" fill="#84BE84" rx="3" ry="3" style="stroke:#038048;stroke-width:1.0;"/><text fill="#000000" font-family="sans-serif" font-size="14" lengthAdjust="spacing" textLength="267" x="29" y="1410.7451">equalsToID(patternId: string) : boolean</text><ellipse cx="20" cy="1423.6953" fill="#84BE84" rx="3" ry="3" style="stroke:#038048;stroke-width:1.0;"/><text fill="#000000" font-family="sans-serif" font-size="14" lengthAdjust="spacing" textLength="120" x="29" y="1427.042">onRender() : void</text><ellipse cx="20" cy="1439.9922" fill="#84BE84" rx="3" ry="3" style="stroke:#038048;stroke-width:1.0;"/><text fill="#000000" font-family="sans-serif" font-size="14" lengthAdjust="spacing" textLength="87" x="29" y="1443.3389">open() : void</text><ellipse cx="20" cy="1456.2891" fill="#84BE84" rx="3" ry="3" style="stroke:#038048;stroke-width:1.0;"/><text fill="#000000" font-family="sans-serif" font-size="14" lengthAdjust="spacing" textLength="434" x="29" y="1459.6357">registerCallback(eventName: string, callback: OSGeneric) : void</text><ellipse cx="20" cy="1472.5859" fill="#84BE84" rx="3" ry="3" style="stroke:#038048;stroke-width:1.0;"/><text fill="#000000" font-family="sans-serif" font-size="14" lengthAdjust="spacing" textLength="294" x="29" y="1475.9326">setEditableInput(isEditable: boolean) : void</text><ellipse cx="20" cy="1488.8828" fill="#84BE84" rx="3" ry="3" style="stroke:#038048;stroke-width:1.0;"/><text fill="#000000" font-family="sans-serif" font-size="14" lengthAdjust="spacing" textLength="225" x="29" y="1492.2295">setLanguage(value: string) : void</text><ellipse cx="20" cy="1505.1797" fill="#84BE84" rx="3" ry="3" style="stroke:#038048;stroke-width:1.0;"/><text fill="#000000" font-family="sans-serif" font-size="14" lengthAdjust="spacing" textLength="382" x="29" y="1508.5264">setProviderConfigs(newConfigs: FlatpickrOptions) : void</text><ellipse cx="20" cy="1521.4766" fill="#84BE84" rx="3" ry="3" style="stroke:#038048;stroke-width:1.0;"/><text fill="#000000" font-family="sans-serif" font-size="14" lengthAdjust="spacing" textLength="681" x="29" y="1524.8232">setProviderEvent(eventName: string, callback: Generic, uniqueId: string, saveEvent: boolean) : void</text><ellipse cx="20" cy="1537.7734" fill="#84BE84" rx="3" ry="3" style="stroke:#038048;stroke-width:1.0;"/><text fill="#000000" font-family="sans-serif" font-size="14" lengthAdjust="spacing" textLength="197" x="29" y="1541.1201">toggleNativeBehavior() : void</text><ellipse cx="20" cy="1554.0703" fill="#84BE84" rx="3" ry="3" style="stroke:#038048;stroke-width:1.0;"/><text fill="#000000" font-family="sans-serif" font-size="14" lengthAdjust="spacing" textLength="285" x="29" y="1557.417">unsetProviderEvent(eventId: string) : void</text><ellipse cx="20" cy="1570.3672" fill="#84BE84" rx="3" ry="3" style="stroke:#038048;stroke-width:1.0;"/><text fill="#000000" font-family="sans-serif" font-size="14" lengthAdjust="spacing" textLength="395" x="29" y="1573.7139">updateInitialDate(startDate: string, endDate: string) : void</text><ellipse cx="20" cy="1586.6641" fill="#84BE84" rx="3" ry="3" style="stroke:#038048;stroke-width:1.0;"/><text fill="#000000" font-family="sans-serif" font-size="14" lengthAdjust="spacing" textLength="311" x="29" y="1590.0107">updatePrompt(promptMessage: string) : void</text><ellipse cx="20" cy="1602.9609" fill="#84BE84" rx="3" ry="3" style="stroke:#038048;stroke-width:1.0;"/><text fill="#000000" font-family="sans-serif" font-size="14" lengthAdjust="spacing" textLength="374" x="29" y="1606.3076">updateProviderEvents(providerInfo: ProviderInfo) : void</text><polygon fill="#FFFF44" points="20,1614.2578,24,1618.2578,20,1622.2578,16,1618.2578" style="stroke:#B38D22;stroke-width:1.0;"/><text fill="#000000" font-family="sans-serif" font-size="14" lengthAdjust="spacing" textLength="143" x="29" y="1622.6045">addTodayBtn() : void</text><polygon fill="#FFFF44" points="20,1630.5547,24,1634.5547,20,1638.5547,16,1634.5547" style="stroke:#B38D22;stroke-width:1.0;"/><text fill="#000000" font-family="sans-serif" font-size="14" lengthAdjust="spacing" textLength="210" x="29" y="1638.9014">createProviderInstance() : void</text><polygon fill="#FFFF44" points="20,1646.8516,24,1650.8516,20,1654.8516,16,1650.8516" style="stroke:#B38D22;stroke-width:1.0;"/><text fill="#000000" font-family="sans-serif" font-size="14" lengthAdjust="spacing" textLength="121" x="29" y="1655.1982">finishBuild() : void</text><polygon fill="#FFFF44" points="20,1663.1484,24,1667.1484,20,1671.1484,16,1667.1484" style="stroke:#B38D22;stroke-width:1.0;"/><text fill="#000000" font-family="sans-serif" font-size="14" lengthAdjust="spacing" textLength="153" x="29" y="1671.4951">jumpIntoToday() : void</text><polygon fill="#FFFF44" points="20,1679.4453,24,1683.4453,20,1687.4453,16,1683.4453" style="stroke:#B38D22;stroke-width:1.0;"/><text fill="#000000" font-family="sans-serif" font-size="14" lengthAdjust="spacing" textLength="183" x="29" y="1687.792">onDatePickerClose() : void</text><polygon fill="#FFFF44" points="20,1695.7422,24,1699.7422,20,1703.7422,16,1699.7422" style="stroke:#B38D22;stroke-width:1.0;"/><text fill="#000000" font-family="sans-serif" font-size="14" lengthAdjust="spacing" textLength="182" x="29" y="1704.0889">onDatePickerOpen() : void</text><polygon fill="#FFFF44" points="20,1712.0391,24,1716.0391,20,1720.0391,16,1716.0391" style="stroke:#B38D22;stroke-width:1.0;"/><text fill="#000000" font-family="sans-serif" font-size="14" lengthAdjust="spacing" textLength="355" x="29" y="1720.3857">onDateSelectedEvent(selectedDates: Date[]) : void</text><polygon fill="#FFFF44" points="20,1728.3359,24,1732.3359,20,1736.3359,16,1732.3359" style="stroke:#B38D22;stroke-width:1.0;"/><text fill="#000000" font-family="sans-serif" font-size="14" lengthAdjust="spacing" textLength="157" x="29" y="1736.6826">prepareConfigs() : void</text><polygon fill="#FFFF44" points="20,1744.6328,24,1748.6328,20,1752.6328,16,1748.6328" style="stroke:#B38D22;stroke-width:1.0;"/><text fill="#000000" font-family="sans-serif" font-size="14" lengthAdjust="spacing" textLength="202" x="29" y="1752.9795">prepareToAndRedraw() : void</text><polygon fill="#FFFF44" points="20,1760.9297,24,1764.9297,20,1768.9297,16,1764.9297" style="stroke:#B38D22;stroke-width:1.0;"/><text fill="#000000" font-family="sans-serif" font-size="14" lengthAdjust="spacing" textLength="98" x="29" y="1769.2764">redraw() : void</text><polygon fill="#FFFF44" points="20,1777.2266,24,1781.2266,20,1785.2266,16,1781.2266" style="stroke:#B38D22;stroke-width:1.0;"/><text fill="#000000" font-family="sans-serif" font-size="14" lengthAdjust="spacing" textLength="180" x="29" y="1785.5732">setA11YProperties() : void</text><polygon fill="#FFFF44" points="20,1793.5234,24,1797.5234,20,1801.5234,16,1797.5234" style="stroke:#B38D22;stroke-width:1.0;"/><text fill="#000000" font-family="sans-serif" font-size="14" lengthAdjust="spacing" textLength="138" x="29" y="1801.8701">setCallbacks() : void</text><polygon fill="#FFFF44" points="20,1809.8203,24,1813.8203,20,1817.8203,16,1813.8203" style="stroke:#B38D22;stroke-width:1.0;"/><text fill="#000000" font-family="sans-serif" font-size="14" lengthAdjust="spacing" textLength="169" x="29" y="1818.167">setHtmlElements() : void</text><polygon fill="#FFFF44" points="20,1826.1172,24,1830.1172,20,1834.1172,16,1830.1172" style="stroke:#B38D22;stroke-width:1.0;"/><text fill="#000000" font-family="sans-serif" font-size="14" lengthAdjust="spacing" textLength="279" x="29" y="1834.4639">todayBtnClick(event: MouseEvent) : void</text><polygon fill="#FFFF44" points="20,1842.4141,24,1846.4141,20,1850.4141,16,1846.4141" style="stroke:#B38D22;stroke-width:1.0;"/><text fill="#000000" font-family="sans-serif" font-size="14" lengthAdjust="spacing" textLength="569" x="29" y="1850.7607">triggerPlatformEventCallback(platFormCallback: OSGeneric, args: unknown[]) : void</text><polygon fill="#FFFF44" points="20,1858.7109,24,1862.7109,20,1866.7109,16,1862.7109" style="stroke:#B38D22;stroke-width:1.0;"/><text fill="#000000" font-family="sans-serif" font-size="14" lengthAdjust="spacing" textLength="311" x="29" y="1867.0576">triggerPlatformInitializedEventCallback() : void</text><polygon fill="#FFFF44" points="20,1875.0078,24,1879.0078,20,1883.0078,16,1879.0078" style="stroke:#B38D22;stroke-width:1.0;"/><text fill="#000000" font-family="sans-serif" font-size="14" lengthAdjust="spacing" textLength="156" x="29" y="1883.3545">unsetCallbacks() : void</text><polygon fill="#FFFF44" points="20,1891.3047,24,1895.3047,20,1899.3047,16,1895.3047" style="stroke:#B38D22;stroke-width:1.0;"/><text fill="#000000" font-family="sans-serif" font-size="14" lengthAdjust="spacing" textLength="199" x="29" y="1899.6514">unsetGlobalCallbacks() : void</text><polygon fill="#FFFF44" points="20,1907.6016,24,1911.6016,20,1915.6016,16,1911.6016" style="stroke:#B38D22;stroke-width:1.0;"/><text fill="#000000" font-family="sans-serif" font-size="14" lengthAdjust="spacing" textLength="187" x="29" y="1915.9482">unsetHtmlElements() : void</text><polygon fill="#FFFF44" points="20,1923.8984,24,1927.8984,20,1931.8984,16,1927.8984" style="stroke:#B38D22;stroke-width:1.0;"/><text fill="#000000" font-family="sans-serif" font-size="14" lengthAdjust="spacing" textLength="223" x="29" y="1932.2451">updatePlatformInputAttrs() : void</text><rect fill="#F24D5C" height="6" style="stroke:#C82930;stroke-width:1.0;" width="6" x="17" y="1942.1953"/><text fill="#000000" font-family="sans-serif" font-size="14" lengthAdjust="spacing" textLength="207" x="29" y="1948.542">_onUpdateDateFormat() : void</text><rect fill="#F24D5C" height="6" style="stroke:#C82930;stroke-width:1.0;" width="6" x="17" y="1958.4922"/><text fill="#000000" font-family="sans-serif" font-size="14" lengthAdjust="spacing" textLength="268" x="29" y="1964.8389">_updateInitialStartAndEndDates() : void</text></g><!--class AbstractFlatpickr<FlatpickrRangeDateConfig>--><g id="elem_AbstractFlatpickr&lt;FlatpickrRangeDateConfig&gt;"><rect codeLine="60" fill="#FFFFFF" height="1025.8125" id="AbstractFlatpickr&lt;FlatpickrRangeDateConfig&gt;" rx="2.5" ry="2.5" style="stroke:#272B30;stroke-width:0.5;" width="707" x="9" y="7"/><ellipse cx="199.75" cy="23" fill="#A9DCDF" rx="11" ry="11" style="stroke:#181818;stroke-width:1.0;"/><path d="M199.8594,18.3438 L198.7031,23.4219 L201.0313,23.4219 L199.8594,18.3438 Z M198.375,16.1094 L201.3594,16.1094 L204.7188,28.5 L202.2656,28.5 L201.5,25.4375 L198.2188,25.4375 L197.4688,28.5 L195.0313,28.5 L198.375,16.1094 Z " fill="#000000"/><text fill="#000000" font-family="sans-serif" font-size="14" font-style="italic" lengthAdjust="spacing" textLength="317" x="220.25" y="27.8467">AbstractFlatpickr&lt;FlatpickrRangeDateConfig&gt;</text><line style="stroke:#272B30;stroke-width:0.5;" x1="10" x2="715" y1="39" y2="39"/><ellipse cx="20" cy="52.6484" fill="none" rx="3" ry="3" style="stroke:#038048;stroke-width:1.0;"/><text fill="#000000" font-family="sans-serif" font-size="14" lengthAdjust="spacing" textLength="205" x="29" y="55.9951">onCloseCustomCallback : any</text><polygon fill="none" points="20,63.9453,24,67.9453,20,71.9453,16,67.9453" style="stroke:#B38D22;stroke-width:1.0;"/><text fill="#000000" font-family="sans-serif" font-size="14" lengthAdjust="spacing" textLength="341" x="29" y="72.292">datePickerPlatformInputElem : HTMLInputElement</text><polygon fill="none" points="20,80.2422,24,84.2422,20,88.2422,16,84.2422" style="stroke:#B38D22;stroke-width:1.0;"/><text fill="#000000" font-family="sans-serif" font-size="14" lengthAdjust="spacing" textLength="265" x="29" y="88.5889">flatpickrInputElem : HTMLInputElement</text><polygon fill="none" points="20,96.5391,24,100.5391,20,104.5391,16,100.5391" style="stroke:#B38D22;stroke-width:1.0;"/><text fill="#000000" font-family="sans-serif" font-size="14" lengthAdjust="spacing" textLength="210" x="29" y="104.8857">flatpickrOpts : FlatpickrOptions</text><polygon fill="none" points="20,112.8359,24,116.8359,20,120.8359,16,116.8359" style="stroke:#B38D22;stroke-width:1.0;"/><text fill="#000000" font-family="sans-serif" font-size="14" lengthAdjust="spacing" textLength="180" x="29" y="121.1826">isProviderBased : boolean</text><polygon fill="none" points="20,129.1328,24,133.1328,20,137.1328,16,133.1328" style="stroke:#B38D22;stroke-width:1.0;"/><text fill="#000000" font-family="sans-serif" font-size="14" lengthAdjust="spacing" textLength="321" x="29" y="137.4795">onSelectedCallbackEvent : OSOnChangeEvent</text><polygon fill="none" points="20,145.4297,24,149.4297,20,153.4297,16,149.4297" style="stroke:#B38D22;stroke-width:1.0;"/><text fill="#000000" font-family="sans-serif" font-size="14" lengthAdjust="spacing" textLength="393" x="29" y="153.7764">providerEventsManagerInstance : IProviderEventManager</text><rect fill="none" height="6" style="stroke:#C82930;stroke-width:1.0;" width="6" x="17" y="163.7266"/><text fill="#000000" font-family="sans-serif" font-size="14" lengthAdjust="spacing" textLength="274" x="29" y="170.0732">_a11yInfoContainerElem : HTMLElement</text><rect fill="none" height="6" style="stroke:#C82930;stroke-width:1.0;" width="6" x="17" y="180.0234"/><text fill="#000000" font-family="sans-serif" font-size="14" lengthAdjust="spacing" textLength="385" x="29" y="186.3701">_bodyScrollCommonBehaviour : UpdatePositionOnScroll</text><rect fill="none" height="6" style="stroke:#C82930;stroke-width:1.0;" width="6" x="17" y="196.3203"/><text fill="#000000" font-family="sans-serif" font-size="14" lengthAdjust="spacing" textLength="238" x="29" y="202.667">_isPlatformInputDisabled : boolean</text><rect fill="none" height="6" style="stroke:#C82930;stroke-width:1.0;" width="6" x="17" y="212.6172"/><text fill="#000000" font-family="sans-serif" font-size="14" lengthAdjust="spacing" textLength="293" x="29" y="218.9639">_providerFocusSpanTarget : HTMLElement</text><rect fill="none" height="6" style="stroke:#C82930;stroke-width:1.0;" width="6" x="17" y="228.9141"/><text fill="#000000" font-family="sans-serif" font-size="14" lengthAdjust="spacing" textLength="234" x="29" y="235.2607">_todayButtonElem : HTMLElement</text><rect fill="none" height="6" style="stroke:#C82930;stroke-width:1.0;" width="6" x="17" y="245.2109"/><text fill="#000000" font-family="sans-serif" font-size="14" lengthAdjust="spacing" textLength="285" x="29" y="251.5576">_zindexCommonBehavior : UpdateZindex</text><line style="stroke:#272B30;stroke-width:0.5;" x1="10" x2="715" y1="258.8594" y2="258.8594"/><ellipse cx="20" cy="272.5078" fill="#84BE84" rx="3" ry="3" style="stroke:#038048;stroke-width:1.0;"/><text fill="#000000" font-family="sans-serif" font-size="14" lengthAdjust="spacing" textLength="84" x="29" y="275.8545">build() : void</text><ellipse cx="20" cy="288.8047" fill="#84BE84" rx="3" ry="3" style="stroke:#038048;stroke-width:1.0;"/><text fill="#000000" font-family="sans-serif" font-size="14" lengthAdjust="spacing" textLength="484" x="29" y="292.1514">changeProperty(propertyName: string, propertyValue: unknown) : void</text><ellipse cx="20" cy="305.1016" fill="#84BE84" rx="3" ry="3" style="stroke:#038048;stroke-width:1.0;"/><text fill="#000000" font-family="sans-serif" font-size="14" lengthAdjust="spacing" textLength="241" x="29" y="308.4482">checkAddedProviderEvents() : void</text><ellipse cx="20" cy="321.3984" fill="#84BE84" rx="3" ry="3" style="stroke:#038048;stroke-width:1.0;"/><text fill="#000000" font-family="sans-serif" font-size="14" lengthAdjust="spacing" textLength="253" x="29" y="324.7451">checkPendingProviderEvents() : void</text><ellipse cx="20" cy="337.6953" fill="#84BE84" rx="3" ry="3" style="stroke:#038048;stroke-width:1.0;"/><text fill="#000000" font-family="sans-serif" font-size="14" lengthAdjust="spacing" textLength="84" x="29" y="341.042">clear() : void</text><ellipse cx="20" cy="353.9922" fill="#84BE84" rx="3" ry="3" style="stroke:#038048;stroke-width:1.0;"/><text fill="#000000" font-family="sans-serif" font-size="14" lengthAdjust="spacing" textLength="88" x="29" y="357.3389">close() : void</text><ellipse cx="20" cy="370.2891" fill="#84BE84" rx="3" ry="3" style="stroke:#038048;stroke-width:1.0;"/><text fill="#000000" font-family="sans-serif" font-size="14" lengthAdjust="spacing" textLength="275" x="29" y="373.6357">disableDays(disableDays: string[]) : void</text><ellipse cx="20" cy="386.5859" fill="#84BE84" rx="3" ry="3" style="stroke:#038048;stroke-width:1.0;"/><text fill="#000000" font-family="sans-serif" font-size="14" lengthAdjust="spacing" textLength="368" x="29" y="389.9326">disableWeekDays(disableWeekDays: number[]) : void</text><ellipse cx="20" cy="402.8828" fill="#84BE84" rx="3" ry="3" style="stroke:#038048;stroke-width:1.0;"/><text fill="#000000" font-family="sans-serif" font-size="14" lengthAdjust="spacing" textLength="106" x="29" y="406.2295">dispose() : void</text><ellipse cx="20" cy="419.1797" fill="#84BE84" rx="3" ry="3" style="stroke:#038048;stroke-width:1.0;"/><text fill="#000000" font-family="sans-serif" font-size="14" lengthAdjust="spacing" textLength="267" x="29" y="422.5264">equalsToID(patternId: string) : boolean</text><ellipse cx="20" cy="435.4766" fill="#84BE84" rx="3" ry="3" style="stroke:#038048;stroke-width:1.0;"/><text fill="#000000" font-family="sans-serif" font-size="14" lengthAdjust="spacing" textLength="120" x="29" y="438.8232">onRender() : void</text><ellipse cx="20" cy="451.7734" fill="#84BE84" rx="3" ry="3" style="stroke:#038048;stroke-width:1.0;"/><text fill="#000000" font-family="sans-serif" font-size="14" lengthAdjust="spacing" textLength="87" x="29" y="455.1201">open() : void</text><ellipse cx="20" cy="468.0703" fill="#84BE84" rx="3" ry="3" style="stroke:#038048;stroke-width:1.0;"/><text fill="#000000" font-family="sans-serif" font-size="14" lengthAdjust="spacing" textLength="434" x="29" y="471.417">registerCallback(eventName: string, callback: OSGeneric) : void</text><ellipse cx="20" cy="484.3672" fill="#84BE84" rx="3" ry="3" style="stroke:#038048;stroke-width:1.0;"/><text fill="#000000" font-family="sans-serif" font-size="14" lengthAdjust="spacing" textLength="294" x="29" y="487.7139">setEditableInput(isEditable: boolean) : void</text><ellipse cx="20" cy="500.6641" fill="#84BE84" rx="3" ry="3" style="stroke:#038048;stroke-width:1.0;"/><text fill="#000000" font-family="sans-serif" font-size="14" lengthAdjust="spacing" textLength="225" x="29" y="504.0107">setLanguage(value: string) : void</text><ellipse cx="20" cy="516.9609" fill="#84BE84" rx="3" ry="3" style="stroke:#038048;stroke-width:1.0;"/><text fill="#000000" font-family="sans-serif" font-size="14" lengthAdjust="spacing" textLength="382" x="29" y="520.3076">setProviderConfigs(newConfigs: FlatpickrOptions) : void</text><ellipse cx="20" cy="533.2578" fill="#84BE84" rx="3" ry="3" style="stroke:#038048;stroke-width:1.0;"/><text fill="#000000" font-family="sans-serif" font-size="14" lengthAdjust="spacing" textLength="681" x="29" y="536.6045">setProviderEvent(eventName: string, callback: Generic, uniqueId: string, saveEvent: boolean) : void</text><ellipse cx="20" cy="549.5547" fill="#84BE84" rx="3" ry="3" style="stroke:#038048;stroke-width:1.0;"/><text fill="#000000" font-family="sans-serif" font-size="14" lengthAdjust="spacing" textLength="285" x="29" y="552.9014">unsetProviderEvent(eventId: string) : void</text><ellipse cx="20" cy="565.8516" fill="#84BE84" rx="3" ry="3" style="stroke:#038048;stroke-width:1.0;"/><text fill="#000000" font-family="sans-serif" font-size="14" font-style="italic" lengthAdjust="spacing" textLength="328" x="29" y="569.1982">updateInitialDate(start: string, end: string) : void</text><ellipse cx="20" cy="582.1484" fill="#84BE84" rx="3" ry="3" style="stroke:#038048;stroke-width:1.0;"/><text fill="#000000" font-family="sans-serif" font-size="14" lengthAdjust="spacing" textLength="311" x="29" y="585.4951">updatePrompt(promptMessage: string) : void</text><ellipse cx="20" cy="598.4453" fill="#84BE84" rx="3" ry="3" style="stroke:#038048;stroke-width:1.0;"/><text fill="#000000" font-family="sans-serif" font-size="14" lengthAdjust="spacing" textLength="374" x="29" y="601.792">updateProviderEvents(providerInfo: ProviderInfo) : void</text><polygon fill="#FFFF44" points="20,609.7422,24,613.7422,20,617.7422,16,613.7422" style="stroke:#B38D22;stroke-width:1.0;"/><text fill="#000000" font-family="sans-serif" font-size="14" lengthAdjust="spacing" textLength="143" x="29" y="618.0889">addTodayBtn() : void</text><polygon fill="#FFFF44" points="20,626.0391,24,630.0391,20,634.0391,16,630.0391" style="stroke:#B38D22;stroke-width:1.0;"/><text fill="#000000" font-family="sans-serif" font-size="14" lengthAdjust="spacing" textLength="210" x="29" y="634.3857">createProviderInstance() : void</text><polygon fill="#FFFF44" points="20,642.3359,24,646.3359,20,650.3359,16,646.3359" style="stroke:#B38D22;stroke-width:1.0;"/><text fill="#000000" font-family="sans-serif" font-size="14" lengthAdjust="spacing" textLength="121" x="29" y="650.6826">finishBuild() : void</text><polygon fill="#FFFF44" points="20,658.6328,24,662.6328,20,666.6328,16,662.6328" style="stroke:#B38D22;stroke-width:1.0;"/><text fill="#000000" font-family="sans-serif" font-size="14" lengthAdjust="spacing" textLength="153" x="29" y="666.9795">jumpIntoToday() : void</text><polygon fill="#FFFF44" points="20,674.9297,24,678.9297,20,682.9297,16,678.9297" style="stroke:#B38D22;stroke-width:1.0;"/><text fill="#000000" font-family="sans-serif" font-size="14" lengthAdjust="spacing" textLength="183" x="29" y="683.2764">onDatePickerClose() : void</text><polygon fill="#FFFF44" points="20,691.2266,24,695.2266,20,699.2266,16,695.2266" style="stroke:#B38D22;stroke-width:1.0;"/><text fill="#000000" font-family="sans-serif" font-size="14" lengthAdjust="spacing" textLength="182" x="29" y="699.5732">onDatePickerOpen() : void</text><polygon fill="#FFFF44" points="20,707.5234,24,711.5234,20,715.5234,16,711.5234" style="stroke:#B38D22;stroke-width:1.0;"/><text fill="#000000" font-family="sans-serif" font-size="14" font-style="italic" lengthAdjust="spacing" textLength="355" x="29" y="715.8701">onDateSelectedEvent(selectedDates: Date[]) : void</text><polygon fill="#FFFF44" points="20,723.8203,24,727.8203,20,731.8203,16,727.8203" style="stroke:#B38D22;stroke-width:1.0;"/><text fill="#000000" font-family="sans-serif" font-size="14" lengthAdjust="spacing" textLength="157" x="29" y="732.167">prepareConfigs() : void</text><polygon fill="#FFFF44" points="20,740.1172,24,744.1172,20,748.1172,16,744.1172" style="stroke:#B38D22;stroke-width:1.0;"/><text fill="#000000" font-family="sans-serif" font-size="14" lengthAdjust="spacing" textLength="202" x="29" y="748.4639">prepareToAndRedraw() : void</text><polygon fill="#FFFF44" points="20,756.4141,24,760.4141,20,764.4141,16,760.4141" style="stroke:#B38D22;stroke-width:1.0;"/><text fill="#000000" font-family="sans-serif" font-size="14" lengthAdjust="spacing" textLength="98" x="29" y="764.7607">redraw() : void</text><polygon fill="#FFFF44" points="20,772.7109,24,776.7109,20,780.7109,16,776.7109" style="stroke:#B38D22;stroke-width:1.0;"/><text fill="#000000" font-family="sans-serif" font-size="14" lengthAdjust="spacing" textLength="180" x="29" y="781.0576">setA11YProperties() : void</text><polygon fill="#FFFF44" points="20,789.0078,24,793.0078,20,797.0078,16,793.0078" style="stroke:#B38D22;stroke-width:1.0;"/><text fill="#000000" font-family="sans-serif" font-size="14" lengthAdjust="spacing" textLength="138" x="29" y="797.3545">setCallbacks() : void</text><polygon fill="#FFFF44" points="20,805.3047,24,809.3047,20,813.3047,16,809.3047" style="stroke:#B38D22;stroke-width:1.0;"/><text fill="#000000" font-family="sans-serif" font-size="14" lengthAdjust="spacing" textLength="169" x="29" y="813.6514">setHtmlElements() : void</text><polygon fill="#FFFF44" points="20,821.6016,24,825.6016,20,829.6016,16,825.6016" style="stroke:#B38D22;stroke-width:1.0;"/><text fill="#000000" font-family="sans-serif" font-size="14" font-style="italic" lengthAdjust="spacing" textLength="282" x="29" y="829.9482">todayBtnClick(event: MouseEvent) : void</text><polygon fill="#FFFF44" points="20,837.8984,24,841.8984,20,845.8984,16,841.8984" style="stroke:#B38D22;stroke-width:1.0;"/><text fill="#000000" font-family="sans-serif" font-size="14" lengthAdjust="spacing" textLength="569" x="29" y="846.2451">triggerPlatformEventCallback(platFormCallback: OSGeneric, args: unknown[]) : void</text><polygon fill="#FFFF44" points="20,854.1953,24,858.1953,20,862.1953,16,858.1953" style="stroke:#B38D22;stroke-width:1.0;"/><text fill="#000000" font-family="sans-serif" font-size="14" lengthAdjust="spacing" textLength="311" x="29" y="862.542">triggerPlatformInitializedEventCallback() : void</text><polygon fill="#FFFF44" points="20,870.4922,24,874.4922,20,878.4922,16,874.4922" style="stroke:#B38D22;stroke-width:1.0;"/><text fill="#000000" font-family="sans-serif" font-size="14" lengthAdjust="spacing" textLength="156" x="29" y="878.8389">unsetCallbacks() : void</text><polygon fill="#FFFF44" points="20,886.7891,24,890.7891,20,894.7891,16,890.7891" style="stroke:#B38D22;stroke-width:1.0;"/><text fill="#000000" font-family="sans-serif" font-size="14" lengthAdjust="spacing" textLength="199" x="29" y="895.1357">unsetGlobalCallbacks() : void</text><polygon fill="#FFFF44" points="20,903.0859,24,907.0859,20,911.0859,16,907.0859" style="stroke:#B38D22;stroke-width:1.0;"/><text fill="#000000" font-family="sans-serif" font-size="14" lengthAdjust="spacing" textLength="187" x="29" y="911.4326">unsetHtmlElements() : void</text><polygon fill="#FFFF44" points="20,919.3828,24,923.3828,20,927.3828,16,923.3828" style="stroke:#B38D22;stroke-width:1.0;"/><text fill="#000000" font-family="sans-serif" font-size="14" font-style="italic" lengthAdjust="spacing" textLength="224" x="29" y="927.7295">updatePlatformInputAttrs() : void</text><rect fill="#F24D5C" height="6" style="stroke:#C82930;stroke-width:1.0;" width="6" x="17" y="937.6797"/><text fill="#000000" font-family="sans-serif" font-size="14" lengthAdjust="spacing" textLength="147" x="29" y="944.0264">_setAttributes() : void</text><rect fill="#F24D5C" height="6" style="stroke:#C82930;stroke-width:1.0;" width="6" x="17" y="953.9766"/><text fill="#000000" font-family="sans-serif" font-size="14" lengthAdjust="spacing" textLength="221" x="29" y="960.3232">_setCalendarCssClasses() : void</text><rect fill="#F24D5C" height="6" style="stroke:#C82930;stroke-width:1.0;" width="6" x="17" y="970.2734"/><text fill="#000000" font-family="sans-serif" font-size="14" lengthAdjust="spacing" textLength="194" x="29" y="976.6201">_setParentMinHeight() : void</text><rect fill="#F24D5C" height="6" style="stroke:#C82930;stroke-width:1.0;" width="6" x="17" y="986.5703"/><text fill="#000000" font-family="sans-serif" font-size="14" lengthAdjust="spacing" textLength="328" x="29" y="992.917">_todayButtonKeydown(e: KeyboardEvent) : void</text><rect fill="#F24D5C" height="6" style="stroke:#C82930;stroke-width:1.0;" width="6" x="17" y="1002.8672"/><text fill="#000000" font-family="sans-serif" font-size="14" lengthAdjust="spacing" textLength="212" x="29" y="1009.2139">_unsetParentMinHeight() : void</text><rect fill="#F24D5C" height="6" style="stroke:#C82930;stroke-width:1.0;" width="6" x="17" y="1019.1641"/><text fill="#000000" font-family="sans-serif" font-size="14" lengthAdjust="spacing" textLength="212" x="29" y="1025.5107">_updateA11yProperties() : void</text></g><!--reverse link AbstractFlatpickr<FlatpickrRangeDateConfig> to OSUIFlatpickrRangeDate--><g id="link_AbstractFlatpickr&lt;FlatpickrRangeDateConfig&gt;_OSUIFlatpickrRangeDate"><path codeLine="122" d="M362.5,1051.28 C362.5,1071.2 362.5,1073.1 362.5,1092.87 " fill="none" id="AbstractFlatpickr&lt;FlatpickrRangeDateConfig&gt;-backto-OSUIFlatpickrRangeDate" style="stroke:#272B30;stroke-width:1.0;"/><polygon fill="none" points="362.5,1033.28,356.5,1051.28,368.5,1051.28,362.5,1033.28" style="stroke:#272B30;stroke-width:1.0;"/></g><!--SRC=[xLZVRzis47xtNo7KBoeM0qitO81H3B2Lf37Mr4RiRjY68Q34ayoP8bMISkfs-TztaYYR-c6twMkTbuXt7u-yk- -E1-iD4nbH9FK2JhIUA2KV0ycbyeQlVdaL_lJZG3SHKwaegDCG4cqI9ND1BIoEOmVJKKT0VwPai6OKF4Wpi_DIC6j9jIkA6N2KHCK1telvyltiXXEJiMYZxeb8u8eOUE5z7dZuzuCK0PSQWbmRcGQ4yn3FzCOU4RiICAI8Nk1UK0kq4akLpaIMcsiEAS9kLtTlzsiGfjeJr-Sz0phFZ4RKZRDcKkWAnVH2oIswgAP40qLSA2K78Ygr54lW41cWjGVNMpm1OVFbN0JhmkjIKi4pQwiKwJiYI09uLMs8Y00tpHOkmEghS8KvuzH_YQ2jPBIIHQLzt9E1CZi_in_lI0fZJnl5H7BXrTBV2SzHd8kDa8-YRGYYpOHIe8qBQBy7jW11qV1f84P8TMIOxPQCCar2ZhpOQT_vhY__zp-zy3y0DkwMUZtsH9w6e7gsPTspuKDEk5x9sPMV4MD0YHcj3txPoZEIzHxTXhPF65dH4Yb8c4PhDHzyA0BKJ4baTGLBte00nQAc4GtccZ9JE5SIrsUwNkylrjdn5icG8s7yRPNfWoiDM9suG8gO9TeNy6W_kpLmT7EPzTEkMSSka77iGmw7u5vuccohgZZYZ959mk4TCMmBKrYJBPFjoEUY_pRD73huh6WdCy4C8xpeGpuMdJB5r-5Uc69Nq6S1ZyHMLvGQ_hi3hJ7WNy2xPL8tW9c8vTXREAl6vY6XT2KfsKrDYr_3I85ZjkuTBL3C1DFhQRTb3F_DqsmcZ2ojjtHINErRRj2jreP-tc6-LTVziCg9jgj2W_mg_hMg4tiYu9i3DHrxbIiv4VGUg2AFBO3g4o8r9fUNVzh6o41tzNLvzgXkJShjIz7M6fkJWBEwiiVUdSnrHUSMMB4aEJnU9MBV5JAKtg0qwBQ22u-eeXXjfsx7gsNMKffziY7Vdz3SLTRBCQTBvHikGy9FGav4nhBTVQWdngWMRFGWnViIMJ2Xy9-ODg9HgSkYI37trrLbEkQU1YJ4iYEHyUoyCR7hVHDxtPq-AfRzUXv2lca86JsGoyjTqQqmZeOmfAlZdUlOw26KTBUCbEGya6agXUtZkK9qHO65rAnmSYugdDs8phgHlghU-BRJeuVQZHiPvNgP4R72iW7JUvcgRdDZf3XwuKyC7_YFZSiUxlfNgJnFOkT9xFkQn9uvPdskU_BJqOchCMsT9wrlcRISA7y7GvVhxNd- -eeWVUqeLYGCvIpC3VGfyIfOeaG5MfS_6VM25aWK71AOk0MMh3l3dFFm_WOxYk7qiOZnCvH4qMxISFmJNxPQUOXis_MnxMdml57mzN-ZqT5Vg_u7]--></g></svg>