<?xml version="1.0" encoding="UTF-8" standalone="no"?><svg xmlns="http://www.w3.org/2000/svg" xmlns:xlink="http://www.w3.org/1999/xlink" contentScriptType="application/ecmascript" contentStyleType="text/css" height="1201px" preserveAspectRatio="none" style="width:614px;height:1201px;background:#CED4DA;" version="1.1" viewBox="0 0 614 1201" width="614px" zoomAndPan="magnify"><defs><filter height="300%" id="fpzp6jjz4d7ir" width="300%" x="-1" y="-1"><feGaussianBlur result="blurOut" stdDeviation="2.0"/><feColorMatrix in="blurOut" result="blurOut2" type="matrix" values="0 0 0 0 0 0 0 0 0 0 0 0 0 0 0 0 0 0 .4 0"/><feOffset dx="4.0" dy="4.0" in="blurOut2" result="blurOut3"/><feBlend in="SourceGraphic" in2="blurOut3" mode="normal"/></filter></defs><g><!--MD5=[4816f7f02a3badec2568e210fb64acef]
class OSUINoUiSliderSingle--><rect codeLine="7" fill="#FFFFFF" filter="url(#fpzp6jjz4d7ir)" height="560.1875" id="OSUINoUiSliderSingle" style="stroke:#272B30;stroke-width:1.5;" width="591" x="9" y="627"/><ellipse cx="234.75" cy="643" fill="#ADD1B2" rx="11" ry="11" style="stroke:#272B30;stroke-width:1.0;"/><path d="M237.7188,648.6406 Q237.1406,648.9375 236.5,649.0781 Q235.8594,649.2344 235.1563,649.2344 Q232.6563,649.2344 231.3281,647.5938 Q230.0156,645.9375 230.0156,642.8125 Q230.0156,639.6875 231.3281,638.0313 Q232.6563,636.375 235.1563,636.375 Q235.8594,636.375 236.5,636.5313 Q237.1563,636.6875 237.7188,636.9844 L237.7188,639.7031 Q237.0938,639.125 236.5,638.8594 Q235.9063,638.5781 235.2813,638.5781 Q233.9375,638.5781 233.25,639.6563 Q232.5625,640.7188 232.5625,642.8125 Q232.5625,644.9063 233.25,645.9844 Q233.9375,647.0469 235.2813,647.0469 Q235.9063,647.0469 236.5,646.7813 Q237.0938,646.5 237.7188,645.9219 L237.7188,648.6406 Z " fill="#000000"/><text fill="#000000" font-family="sans-serif" font-size="12" lengthAdjust="spacing" textLength="131" x="255.25" y="647.1543">OSUINoUiSliderSingle</text><line style="stroke:#272B30;stroke-width:1.5;" x1="10" x2="599" y1="659" y2="659"/><polygon fill="none" points="20,665,24,669,20,673,16,669" style="stroke:#B38D22;stroke-width:1.0;"/><text fill="#000000" font-family="sans-serif" font-size="11" lengthAdjust="spacing" textLength="215" x="29" y="673.2104">eventProviderValueChanged : Generic</text><polygon fill="none" points="20,677.8047,24,681.8047,20,685.8047,16,681.8047" style="stroke:#B38D22;stroke-width:1.0;"/><text fill="#000000" font-family="sans-serif" font-size="11" lengthAdjust="spacing" textLength="197" x="29" y="686.0151">platformEventInitialize : OSGeneric</text><polygon fill="none" points="20,690.6094,24,694.6094,20,698.6094,16,694.6094" style="stroke:#B38D22;stroke-width:1.0;"/><text fill="#000000" font-family="sans-serif" font-size="11" lengthAdjust="spacing" textLength="303" x="29" y="698.8198">platformEventValueChange : OSOnValueChangeEvent</text><polygon fill="none" points="20,703.4141,24,707.4141,20,711.4141,16,707.4141" style="stroke:#B38D22;stroke-width:1.0;"/><text fill="#000000" font-family="sans-serif" font-size="11" lengthAdjust="spacing" textLength="324" x="29" y="711.6245">providerEventsManagerInstance : IProviderEventManager</text><polygon fill="none" points="20,716.2188,24,720.2188,20,724.2188,16,720.2188" style="stroke:#B38D22;stroke-width:1.0;"/><text fill="#000000" font-family="sans-serif" font-size="11" lengthAdjust="spacing" textLength="205" x="29" y="724.4292">providerOptions : noUiSliderOptions</text><polygon fill="none" points="20,729.0234,24,733.0234,20,737.0234,16,733.0234" style="stroke:#B38D22;stroke-width:1.0;"/><text fill="#000000" font-family="sans-serif" font-size="11" lengthAdjust="spacing" textLength="106" x="29" y="737.2339">throttleTimer : any</text><polygon fill="none" points="20,741.8281,24,745.8281,20,749.8281,16,745.8281" style="stroke:#B38D22;stroke-width:1.0;"/><text fill="#000000" font-family="sans-serif" font-size="11" lengthAdjust="spacing" textLength="156" x="29" y="750.0386">throttleTimeValue : number</text><polygon fill="none" points="20,754.6328,24,758.6328,20,762.6328,16,758.6328" style="stroke:#B38D22;stroke-width:1.0;"/><text fill="#000000" font-family="sans-serif" font-size="11" lengthAdjust="spacing" textLength="123" x="29" y="762.8433">_provider : noUiSlider</text><polygon fill="none" points="20,767.4375,24,771.4375,20,775.4375,16,771.4375" style="stroke:#B38D22;stroke-width:1.0;"/><text fill="#000000" font-family="sans-serif" font-size="11" lengthAdjust="spacing" textLength="154" x="29" y="775.6479">_providerInfo : ProviderInfo</text><polygon fill="none" points="20,780.2422,24,784.2422,20,788.2422,16,784.2422" style="stroke:#B38D22;stroke-width:1.0;"/><text fill="#000000" font-family="sans-serif" font-size="11" lengthAdjust="spacing" textLength="143" x="29" y="788.4526">_selfElem : HTMLElement</text><polygon fill="none" points="20,793.0469,24,797.0469,20,801.0469,16,797.0469" style="stroke:#B38D22;stroke-width:1.0;"/><text fill="#000000" font-family="sans-serif" font-size="11" lengthAdjust="spacing" textLength="98" x="29" y="801.2573">_widgetId : string</text><line style="stroke:#272B30;stroke-width:1.5;" x1="10" x2="599" y1="807.8516" y2="807.8516"/><ellipse cx="20" cy="818.8516" fill="#84BE84" rx="3" ry="3" style="stroke:#038048;stroke-width:1.0;"/><text fill="#000000" font-family="sans-serif" font-size="11" lengthAdjust="spacing" textLength="70" x="29" y="822.062">build() : void</text><ellipse cx="20" cy="831.6563" fill="#84BE84" rx="3" ry="3" style="stroke:#038048;stroke-width:1.0;"/><text fill="#000000" font-family="sans-serif" font-size="11" lengthAdjust="spacing" textLength="399" x="29" y="834.8667">changeProperty(propertyName: string, propertyValue: unknown) : void</text><ellipse cx="20" cy="844.4609" fill="#84BE84" rx="3" ry="3" style="stroke:#038048;stroke-width:1.0;"/><text fill="#000000" font-family="sans-serif" font-size="11" lengthAdjust="spacing" textLength="195" x="29" y="847.6714">checkAddedProviderEvents() : void</text><ellipse cx="20" cy="857.2656" fill="#84BE84" rx="3" ry="3" style="stroke:#038048;stroke-width:1.0;"/><text fill="#000000" font-family="sans-serif" font-size="11" lengthAdjust="spacing" textLength="205" x="29" y="860.4761">checkPendingProviderEvents() : void</text><ellipse cx="20" cy="870.0703" fill="#84BE84" rx="3" ry="3" style="stroke:#038048;stroke-width:1.0;"/><text fill="#000000" font-family="sans-serif" font-size="11" lengthAdjust="spacing" textLength="88" x="29" y="873.2808">dispose() : void</text><ellipse cx="20" cy="882.875" fill="#84BE84" rx="3" ry="3" style="stroke:#038048;stroke-width:1.0;"/><text fill="#000000" font-family="sans-serif" font-size="11" lengthAdjust="spacing" textLength="220" x="29" y="886.0854">equalsToID(patternId: string) : boolean</text><ellipse cx="20" cy="895.6797" fill="#84BE84" rx="3" ry="3" style="stroke:#038048;stroke-width:1.0;"/><text fill="#000000" font-family="sans-serif" font-size="11" lengthAdjust="spacing" textLength="177" x="29" y="898.8901">getValue() : number | number[]</text><ellipse cx="20" cy="908.4844" fill="#84BE84" rx="3" ry="3" style="stroke:#038048;stroke-width:1.0;"/><text fill="#000000" font-family="sans-serif" font-size="11" lengthAdjust="spacing" textLength="362" x="29" y="911.6948">registerCallback(eventName: string, callback: OSGeneric) : void</text><ellipse cx="20" cy="921.2891" fill="#84BE84" rx="3" ry="3" style="stroke:#038048;stroke-width:1.0;"/><text fill="#000000" font-family="sans-serif" font-size="11" lengthAdjust="spacing" textLength="104" x="29" y="924.4995">resetValue() : void</text><ellipse cx="20" cy="934.0938" fill="#84BE84" rx="3" ry="3" style="stroke:#038048;stroke-width:1.0;"/><text fill="#000000" font-family="sans-serif" font-size="11" lengthAdjust="spacing" textLength="327" x="29" y="937.3042">setProviderConfigs(newConfigs: noUiSliderOptions) : void</text><ellipse cx="20" cy="946.8984" fill="#84BE84" rx="3" ry="3" style="stroke:#038048;stroke-width:1.0;"/><text fill="#000000" font-family="sans-serif" font-size="11" lengthAdjust="spacing" textLength="565" x="29" y="950.1089">setProviderEvent(eventName: string, callback: Generic, uniqueId: string, saveEvent: boolean) : void</text><ellipse cx="20" cy="959.7031" fill="#84BE84" rx="3" ry="3" style="stroke:#038048;stroke-width:1.0;"/><text fill="#000000" font-family="sans-serif" font-size="11" lengthAdjust="spacing" textLength="245" x="29" y="962.9136">setRangeIntervalChangeOnDragEnd() : void</text><ellipse cx="20" cy="972.5078" fill="#84BE84" rx="3" ry="3" style="stroke:#038048;stroke-width:1.0;"/><text fill="#000000" font-family="sans-serif" font-size="11" lengthAdjust="spacing" textLength="174" x="29" y="975.7183">setValue(value: number) : void</text><ellipse cx="20" cy="985.3125" fill="#84BE84" rx="3" ry="3" style="stroke:#038048;stroke-width:1.0;"/><text fill="#000000" font-family="sans-serif" font-size="11" lengthAdjust="spacing" textLength="235" x="29" y="988.5229">unsetProviderEvent(eventId: string) : void</text><ellipse cx="20" cy="998.1172" fill="#84BE84" rx="3" ry="3" style="stroke:#038048;stroke-width:1.0;"/><text fill="#000000" font-family="sans-serif" font-size="11" lengthAdjust="spacing" textLength="311" x="29" y="1001.3276">updateProviderEvents(providerInfo: ProviderInfo) : void</text><polygon fill="#FFFF44" points="20,1005.9219,24,1009.9219,20,1013.9219,16,1009.9219" style="stroke:#B38D22;stroke-width:1.0;"/><text fill="#000000" font-family="sans-serif" font-size="11" lengthAdjust="spacing" textLength="102" x="29" y="1014.1323">finishBuild() : void</text><polygon fill="#FFFF44" points="20,1018.7266,24,1022.7266,20,1026.7266,16,1022.7266" style="stroke:#B38D22;stroke-width:1.0;"/><text fill="#000000" font-family="sans-serif" font-size="11" lengthAdjust="spacing" textLength="131" x="29" y="1026.937">prepareConfigs() : void</text><polygon fill="#FFFF44" points="20,1031.5313,24,1035.5313,20,1039.5313,16,1035.5313" style="stroke:#B38D22;stroke-width:1.0;"/><text fill="#000000" font-family="sans-serif" font-size="11" lengthAdjust="spacing" textLength="147" x="29" y="1039.7417">setA11yProperties() : void</text><polygon fill="#FFFF44" points="20,1044.3359,24,1048.3359,20,1052.3359,16,1048.3359" style="stroke:#B38D22;stroke-width:1.0;"/><text fill="#000000" font-family="sans-serif" font-size="11" lengthAdjust="spacing" textLength="115" x="29" y="1052.5464">setCallbacks() : void</text><polygon fill="#FFFF44" points="20,1057.1406,24,1061.1406,20,1065.1406,16,1061.1406" style="stroke:#B38D22;stroke-width:1.0;"/><text fill="#000000" font-family="sans-serif" font-size="11" lengthAdjust="spacing" textLength="140" x="29" y="1065.3511">setHtmlElements() : void</text><polygon fill="#FFFF44" points="20,1069.9453,24,1073.9453,20,1077.9453,16,1073.9453" style="stroke:#B38D22;stroke-width:1.0;"/><text fill="#000000" font-family="sans-serif" font-size="11" lengthAdjust="spacing" textLength="161" x="29" y="1078.1558">setInitialCSSClasses() : void</text><polygon fill="#FFFF44" points="20,1082.75,24,1086.75,20,1090.75,16,1086.75" style="stroke:#B38D22;stroke-width:1.0;"/><text fill="#000000" font-family="sans-serif" font-size="11" lengthAdjust="spacing" textLength="378" x="29" y="1090.9604">triggerPlatformEventInitialized(platFormCallback: OSGeneric) : void</text><polygon fill="#FFFF44" points="20,1095.5547,24,1099.5547,20,1103.5547,16,1099.5547" style="stroke:#B38D22;stroke-width:1.0;"/><text fill="#000000" font-family="sans-serif" font-size="11" lengthAdjust="spacing" textLength="129" x="29" y="1103.7651">unsetCallbacks() : void</text><polygon fill="#FFFF44" points="20,1108.3594,24,1112.3594,20,1116.3594,16,1112.3594" style="stroke:#B38D22;stroke-width:1.0;"/><text fill="#000000" font-family="sans-serif" font-size="11" lengthAdjust="spacing" textLength="154" x="29" y="1116.5698">unsetHtmlElements() : void</text><rect fill="#F24D5C" height="6" style="stroke:#C82930;stroke-width:1.0;" width="6" x="17" y="1123.1641"/><text fill="#000000" font-family="sans-serif" font-size="11" lengthAdjust="spacing" textLength="174" x="29" y="1129.3745">createProviderInstance() : void</text><rect fill="#F24D5C" height="6" style="stroke:#C82930;stroke-width:1.0;" width="6" x="17" y="1135.9688"/><text fill="#000000" font-family="sans-serif" font-size="11" lengthAdjust="spacing" textLength="128" x="29" y="1142.1792">setInitialStates() : void</text><rect fill="#F24D5C" height="6" style="stroke:#C82930;stroke-width:1.0;" width="6" x="17" y="1148.7734"/><text fill="#000000" font-family="sans-serif" font-size="11" lengthAdjust="spacing" textLength="150" x="29" y="1154.9839">updateRangeSlider() : void</text><rect fill="#F24D5C" height="6" style="stroke:#C82930;stroke-width:1.0;" width="6" x="17" y="1161.5781"/><text fill="#000000" font-family="sans-serif" font-size="11" lengthAdjust="spacing" textLength="156" x="29" y="1167.7886">_updateRangeSlider() : void</text><rect fill="#F24D5C" height="6" style="stroke:#C82930;stroke-width:1.0;" width="6" x="17" y="1174.3828"/><text fill="#000000" font-family="sans-serif" font-size="11" lengthAdjust="spacing" textLength="259" x="29" y="1180.5933">_valueChangeCallback(value: number[]) : void</text><!--MD5=[f020447c3c60d4f7b05f88dedae58a92]
class AbstractNoUiSlider<NoUiSliderSingleConfig>--><rect codeLine="49" fill="#FFFFFF" filter="url(#fpzp6jjz4d7ir)" height="560.1875" id="AbstractNoUiSlider&lt;NoUiSliderSingleConfig&gt;" style="stroke:#272B30;stroke-width:1.5;" width="591" x="9" y="7"/><ellipse cx="161.75" cy="23" fill="#A9DCDF" rx="11" ry="11" style="stroke:#272B30;stroke-width:1.0;"/><path d="M161.8594,18.3438 L160.7031,23.4219 L163.0313,23.4219 L161.8594,18.3438 Z M160.375,16.1094 L163.3594,16.1094 L166.7188,28.5 L164.2656,28.5 L163.5,25.4375 L160.2188,25.4375 L159.4688,28.5 L157.0313,28.5 L160.375,16.1094 Z " fill="#000000"/><text fill="#000000" font-family="sans-serif" font-size="12" font-style="italic" lengthAdjust="spacing" textLength="277" x="182.25" y="27.1543">AbstractNoUiSlider&lt;NoUiSliderSingleConfig&gt;</text><line style="stroke:#272B30;stroke-width:1.5;" x1="10" x2="599" y1="39" y2="39"/><polygon fill="none" points="20,45,24,49,20,53,16,49" style="stroke:#B38D22;stroke-width:1.0;"/><text fill="#000000" font-family="sans-serif" font-size="11" lengthAdjust="spacing" textLength="215" x="29" y="53.2104">eventProviderValueChanged : Generic</text><polygon fill="none" points="20,57.8047,24,61.8047,20,65.8047,16,61.8047" style="stroke:#B38D22;stroke-width:1.0;"/><text fill="#000000" font-family="sans-serif" font-size="11" lengthAdjust="spacing" textLength="197" x="29" y="66.0151">platformEventInitialize : OSGeneric</text><polygon fill="none" points="20,70.6094,24,74.6094,20,78.6094,16,74.6094" style="stroke:#B38D22;stroke-width:1.0;"/><text fill="#000000" font-family="sans-serif" font-size="11" lengthAdjust="spacing" textLength="303" x="29" y="78.8198">platformEventValueChange : OSOnValueChangeEvent</text><polygon fill="none" points="20,83.4141,24,87.4141,20,91.4141,16,87.4141" style="stroke:#B38D22;stroke-width:1.0;"/><text fill="#000000" font-family="sans-serif" font-size="11" lengthAdjust="spacing" textLength="324" x="29" y="91.6245">providerEventsManagerInstance : IProviderEventManager</text><polygon fill="none" points="20,96.2188,24,100.2188,20,104.2188,16,100.2188" style="stroke:#B38D22;stroke-width:1.0;"/><text fill="#000000" font-family="sans-serif" font-size="11" lengthAdjust="spacing" textLength="205" x="29" y="104.4292">providerOptions : noUiSliderOptions</text><polygon fill="none" points="20,109.0234,24,113.0234,20,117.0234,16,113.0234" style="stroke:#B38D22;stroke-width:1.0;"/><text fill="#000000" font-family="sans-serif" font-size="11" lengthAdjust="spacing" textLength="106" x="29" y="117.2339">throttleTimer : any</text><polygon fill="none" points="20,121.8281,24,125.8281,20,129.8281,16,125.8281" style="stroke:#B38D22;stroke-width:1.0;"/><text fill="#000000" font-family="sans-serif" font-size="11" lengthAdjust="spacing" textLength="156" x="29" y="130.0386">throttleTimeValue : number</text><polygon fill="none" points="20,134.6328,24,138.6328,20,142.6328,16,138.6328" style="stroke:#B38D22;stroke-width:1.0;"/><text fill="#000000" font-family="sans-serif" font-size="11" lengthAdjust="spacing" textLength="123" x="29" y="142.8433">_provider : noUiSlider</text><polygon fill="none" points="20,147.4375,24,151.4375,20,155.4375,16,151.4375" style="stroke:#B38D22;stroke-width:1.0;"/><text fill="#000000" font-family="sans-serif" font-size="11" lengthAdjust="spacing" textLength="154" x="29" y="155.6479">_providerInfo : ProviderInfo</text><polygon fill="none" points="20,160.2422,24,164.2422,20,168.2422,16,164.2422" style="stroke:#B38D22;stroke-width:1.0;"/><text fill="#000000" font-family="sans-serif" font-size="11" lengthAdjust="spacing" textLength="143" x="29" y="168.4526">_selfElem : HTMLElement</text><polygon fill="none" points="20,173.0469,24,177.0469,20,181.0469,16,177.0469" style="stroke:#B38D22;stroke-width:1.0;"/><text fill="#000000" font-family="sans-serif" font-size="11" lengthAdjust="spacing" textLength="98" x="29" y="181.2573">_widgetId : string</text><rect fill="none" height="6" style="stroke:#C82930;stroke-width:1.0;" width="6" x="17" y="187.8516"/><text fill="#000000" font-family="sans-serif" font-size="11" lengthAdjust="spacing" textLength="115" x="29" y="194.062">_isInterval : boolean</text><rect fill="none" height="6" style="stroke:#C82930;stroke-width:1.0;" width="6" x="17" y="200.6563"/><text fill="#000000" font-family="sans-serif" font-size="11" lengthAdjust="spacing" textLength="235" x="29" y="206.8667">_rangeSliderProviderElem : HTMLElement</text><line style="stroke:#272B30;stroke-width:1.5;" x1="10" x2="599" y1="213.4609" y2="213.4609"/><ellipse cx="20" cy="224.4609" fill="#84BE84" rx="3" ry="3" style="stroke:#038048;stroke-width:1.0;"/><text fill="#000000" font-family="sans-serif" font-size="11" lengthAdjust="spacing" textLength="70" x="29" y="227.6714">build() : void</text><ellipse cx="20" cy="237.2656" fill="#84BE84" rx="3" ry="3" style="stroke:#038048;stroke-width:1.0;"/><text fill="#000000" font-family="sans-serif" font-size="11" lengthAdjust="spacing" textLength="399" x="29" y="240.4761">changeProperty(propertyName: string, propertyValue: unknown) : void</text><ellipse cx="20" cy="250.0703" fill="#84BE84" rx="3" ry="3" style="stroke:#038048;stroke-width:1.0;"/><text fill="#000000" font-family="sans-serif" font-size="11" lengthAdjust="spacing" textLength="195" x="29" y="253.2808">checkAddedProviderEvents() : void</text><ellipse cx="20" cy="262.875" fill="#84BE84" rx="3" ry="3" style="stroke:#038048;stroke-width:1.0;"/><text fill="#000000" font-family="sans-serif" font-size="11" lengthAdjust="spacing" textLength="205" x="29" y="266.0854">checkPendingProviderEvents() : void</text><ellipse cx="20" cy="275.6797" fill="#84BE84" rx="3" ry="3" style="stroke:#038048;stroke-width:1.0;"/><text fill="#000000" font-family="sans-serif" font-size="11" lengthAdjust="spacing" textLength="88" x="29" y="278.8901">dispose() : void</text><ellipse cx="20" cy="288.4844" fill="#84BE84" rx="3" ry="3" style="stroke:#038048;stroke-width:1.0;"/><text fill="#000000" font-family="sans-serif" font-size="11" lengthAdjust="spacing" textLength="220" x="29" y="291.6948">equalsToID(patternId: string) : boolean</text><ellipse cx="20" cy="301.2891" fill="#84BE84" rx="3" ry="3" style="stroke:#038048;stroke-width:1.0;"/><text fill="#000000" font-family="sans-serif" font-size="11" lengthAdjust="spacing" textLength="177" x="29" y="304.4995">getValue() : number | number[]</text><ellipse cx="20" cy="314.0938" fill="#84BE84" rx="3" ry="3" style="stroke:#038048;stroke-width:1.0;"/><text fill="#000000" font-family="sans-serif" font-size="11" lengthAdjust="spacing" textLength="362" x="29" y="317.3042">registerCallback(eventName: string, callback: OSGeneric) : void</text><ellipse cx="20" cy="326.8984" fill="#84BE84" rx="3" ry="3" style="stroke:#038048;stroke-width:1.0;"/><text fill="#000000" font-family="sans-serif" font-size="11" lengthAdjust="spacing" textLength="327" x="29" y="330.1089">setProviderConfigs(newConfigs: noUiSliderOptions) : void</text><ellipse cx="20" cy="339.7031" fill="#84BE84" rx="3" ry="3" style="stroke:#038048;stroke-width:1.0;"/><text fill="#000000" font-family="sans-serif" font-size="11" lengthAdjust="spacing" textLength="565" x="29" y="342.9136">setProviderEvent(eventName: string, callback: Generic, uniqueId: string, saveEvent: boolean) : void</text><ellipse cx="20" cy="352.5078" fill="#84BE84" rx="3" ry="3" style="stroke:#038048;stroke-width:1.0;"/><text fill="#000000" font-family="sans-serif" font-size="11" lengthAdjust="spacing" textLength="245" x="29" y="355.7183">setRangeIntervalChangeOnDragEnd() : void</text><ellipse cx="20" cy="365.3125" fill="#84BE84" rx="3" ry="3" style="stroke:#038048;stroke-width:1.0;"/><text fill="#000000" font-family="sans-serif" font-size="11" lengthAdjust="spacing" textLength="235" x="29" y="368.5229">unsetProviderEvent(eventId: string) : void</text><ellipse cx="20" cy="378.1172" fill="#84BE84" rx="3" ry="3" style="stroke:#038048;stroke-width:1.0;"/><text fill="#000000" font-family="sans-serif" font-size="11" lengthAdjust="spacing" textLength="311" x="29" y="381.3276">updateProviderEvents(providerInfo: ProviderInfo) : void</text><polygon fill="#FFFF44" points="20,385.9219,24,389.9219,20,393.9219,16,389.9219" style="stroke:#B38D22;stroke-width:1.0;"/><text fill="#000000" font-family="sans-serif" font-size="11" lengthAdjust="spacing" textLength="102" x="29" y="394.1323">finishBuild() : void</text><polygon fill="#FFFF44" points="20,398.7266,24,402.7266,20,406.7266,16,402.7266" style="stroke:#B38D22;stroke-width:1.0;"/><text fill="#000000" font-family="sans-serif" font-size="11" font-style="italic" lengthAdjust="spacing" textLength="131" x="29" y="406.937">prepareConfigs() : void</text><polygon fill="#FFFF44" points="20,411.5313,24,415.5313,20,419.5313,16,415.5313" style="stroke:#B38D22;stroke-width:1.0;"/><text fill="#000000" font-family="sans-serif" font-size="11" lengthAdjust="spacing" textLength="140" x="29" y="419.7417">setHtmlElements() : void</text><polygon fill="#FFFF44" points="20,424.3359,24,428.3359,20,432.3359,16,428.3359" style="stroke:#B38D22;stroke-width:1.0;"/><text fill="#000000" font-family="sans-serif" font-size="11" lengthAdjust="spacing" textLength="161" x="29" y="432.5464">setInitialCSSClasses() : void</text><polygon fill="#FFFF44" points="20,437.1406,24,441.1406,20,445.1406,16,441.1406" style="stroke:#B38D22;stroke-width:1.0;"/><text fill="#000000" font-family="sans-serif" font-size="11" lengthAdjust="spacing" textLength="378" x="29" y="445.3511">triggerPlatformEventInitialized(platFormCallback: OSGeneric) : void</text><polygon fill="#FFFF44" points="20,449.9453,24,453.9453,20,457.9453,16,453.9453" style="stroke:#B38D22;stroke-width:1.0;"/><text fill="#000000" font-family="sans-serif" font-size="11" lengthAdjust="spacing" textLength="129" x="29" y="458.1558">unsetCallbacks() : void</text><polygon fill="#FFFF44" points="20,462.75,24,466.75,20,470.75,16,466.75" style="stroke:#B38D22;stroke-width:1.0;"/><text fill="#000000" font-family="sans-serif" font-size="11" lengthAdjust="spacing" textLength="154" x="29" y="470.9604">unsetHtmlElements() : void</text><rect fill="#F24D5C" height="6" style="stroke:#C82930;stroke-width:1.0;" width="6" x="17" y="477.5547"/><text fill="#000000" font-family="sans-serif" font-size="11" lengthAdjust="spacing" textLength="174" x="29" y="483.7651">createProviderInstance() : void</text><rect fill="#F24D5C" height="6" style="stroke:#C82930;stroke-width:1.0;" width="6" x="17" y="490.3594"/><text fill="#000000" font-family="sans-serif" font-size="11" lengthAdjust="spacing" textLength="128" x="29" y="496.5698">setInitialStates() : void</text><rect fill="#F24D5C" height="6" style="stroke:#C82930;stroke-width:1.0;" width="6" x="17" y="503.1641"/><text fill="#000000" font-family="sans-serif" font-size="11" lengthAdjust="spacing" textLength="150" x="29" y="509.3745">updateRangeSlider() : void</text><rect fill="#F24D5C" height="6" style="stroke:#C82930;stroke-width:1.0;" width="6" x="17" y="515.9688"/><text fill="#000000" font-family="sans-serif" font-size="11" lengthAdjust="spacing" textLength="126" x="29" y="522.1792">_setIsDisabled() : void</text><rect fill="#F24D5C" height="6" style="stroke:#C82930;stroke-width:1.0;" width="6" x="17" y="528.7734"/><text fill="#000000" font-family="sans-serif" font-size="11" lengthAdjust="spacing" textLength="365" x="29" y="534.9839">_setOnValueChangeEvent(changeEvent: NoUISliderEvents) : void</text><rect fill="#F24D5C" height="6" style="stroke:#C82930;stroke-width:1.0;" width="6" x="17" y="541.5781"/><text fill="#000000" font-family="sans-serif" font-size="11" lengthAdjust="spacing" textLength="90" x="29" y="547.7886">_setSize() : void</text><rect fill="#F24D5C" height="6" style="stroke:#C82930;stroke-width:1.0;" width="6" x="17" y="554.3828"/><text fill="#000000" font-family="sans-serif" font-size="11" lengthAdjust="spacing" textLength="161" x="29" y="560.5933">_updateRangeValues() : void</text><!--MD5=[9280c0adb1742f7991a21917c51984ff]
reverse link AbstractNoUiSlider<NoUiSliderSingleConfig> to OSUINoUiSliderSingle--><path codeLine="91" d="M304.5,587.2 C304.5,600.42 304.5,613.66 304.5,626.83 " fill="none" id="AbstractNoUiSlider&lt;NoUiSliderSingleConfig&gt;-backto-OSUINoUiSliderSingle" style="stroke:#272B30;stroke-width:1.0;"/><polygon fill="none" points="297.5,587.17,304.5,567.17,311.5,587.17,297.5,587.17" style="stroke:#272B30;stroke-width:1.0;"/><!--MD5=[e6ef260d2da91079961bb59a37db8a7a]
@startuml
skinparam ClassArrowColor #272b30
skinparam ClassBorderColor #272b30
skinparam ClassBackgroundColor #fff
skinparam BackgroundColor #ced4da
hide empty methods
hide empty fields
class "OSUINoUiSliderSingle" {
    #eventProviderValueChanged : Generic
    #platformEventInitialize : OSGeneric
    #platformEventValueChange : OSOnValueChangeEvent
    #providerEventsManagerInstance : IProviderEventManager
    #providerOptions : noUiSliderOptions
    #throttleTimer : any
    #throttleTimeValue : number
    #_provider : noUiSlider
    #_providerInfo : ProviderInfo
    #_selfElem : HTMLElement
    #_widgetId : string
    +build() : void
    +changeProperty(propertyName: string, propertyValue: unknown) : void
    +checkAddedProviderEvents() : void
    +checkPendingProviderEvents() : void
    +dispose() : void
    +equalsToID(patternId: string) : boolean
    +getValue() : number | number[]
    +registerCallback(eventName: string, callback: OSGeneric) : void
    +resetValue() : void
    +setProviderConfigs(newConfigs: noUiSliderOptions) : void
    +setProviderEvent(eventName: string, callback: Generic, uniqueId: string, saveEvent: boolean) : void
    +setRangeIntervalChangeOnDragEnd() : void
    +setValue(value: number) : void
    +unsetProviderEvent(eventId: string) : void
    +updateProviderEvents(providerInfo: ProviderInfo) : void
    #finishBuild() : void
    #prepareConfigs() : void
    #setA11yProperties() : void
    #setCallbacks() : void
    #setHtmlElements() : void
    #setInitialCSSClasses() : void
    #triggerPlatformEventInitialized(platFormCallback: OSGeneric) : void
    #unsetCallbacks() : void
    #unsetHtmlElements() : void
    -createProviderInstance() : void
    -setInitialStates() : void
    -updateRangeSlider() : void
    -_updateRangeSlider() : void
    -_valueChangeCallback(value: number[]) : void
}
abstract class "AbstractNoUiSlider<NoUiSliderSingleConfig>" {
    #eventProviderValueChanged : Generic
    #platformEventInitialize : OSGeneric
    #platformEventValueChange : OSOnValueChangeEvent
    #providerEventsManagerInstance : IProviderEventManager
    #providerOptions : noUiSliderOptions
    #throttleTimer : any
    #throttleTimeValue : number
    #_provider : noUiSlider
    #_providerInfo : ProviderInfo
    #_selfElem : HTMLElement
    #_widgetId : string
    -_isInterval : boolean
    -_rangeSliderProviderElem : HTMLElement
    +build() : void
    +changeProperty(propertyName: string, propertyValue: unknown) : void
    +checkAddedProviderEvents() : void
    +checkPendingProviderEvents() : void
    +dispose() : void
    +equalsToID(patternId: string) : boolean
    +getValue() : number | number[]
    +registerCallback(eventName: string, callback: OSGeneric) : void
    +setProviderConfigs(newConfigs: noUiSliderOptions) : void
    +setProviderEvent(eventName: string, callback: Generic, uniqueId: string, saveEvent: boolean) : void
    +setRangeIntervalChangeOnDragEnd() : void
    +unsetProviderEvent(eventId: string) : void
    +updateProviderEvents(providerInfo: ProviderInfo) : void
    #finishBuild() : void
    {abstract} #prepareConfigs() : void
    #setHtmlElements() : void
    #setInitialCSSClasses() : void
    #triggerPlatformEventInitialized(platFormCallback: OSGeneric) : void
    #unsetCallbacks() : void
    #unsetHtmlElements() : void
    -createProviderInstance() : void
    -setInitialStates() : void
    -updateRangeSlider() : void
    -_setIsDisabled() : void
    -_setOnValueChangeEvent(changeEvent: NoUISliderEvents) : void
    -_setSize() : void
    -_updateRangeValues() : void
}
"AbstractNoUiSlider<NoUiSliderSingleConfig>" <|- - "OSUINoUiSliderSingle"
@enduml

PlantUML version 1.2021.14(Fri Nov 12 16:46:50 UTC 2021)
(GPL source distribution)
Java Runtime: OpenJDK Runtime Environment
JVM: OpenJDK 64-Bit Server VM
Default Encoding: UTF-8
Language: en
Country: null
--></g></svg>