<?xml version="1.0" encoding="us-ascii" standalone="no"?><svg xmlns="http://www.w3.org/2000/svg" xmlns:xlink="http://www.w3.org/1999/xlink" contentStyleType="text/css" height="1506px" preserveAspectRatio="none" style="width:710px;height:1506px;background:#CED4DA;" version="1.1" viewBox="0 0 710 1506" width="710px" zoomAndPan="magnify"><defs/><g><rect fill="#CED4DA" height="1506" style="stroke:none;stroke-width:1.0;" width="710" x="0" y="0"/><!--class OSUINoUiSliderInterval--><g id="elem_OSUINoUiSliderInterval"><rect codeLine="7" fill="#FFFFFF" height="691.043" id="OSUINoUiSliderInterval" rx="2.5" ry="2.5" style="stroke:#272B30;stroke-width:0.5;" width="694" x="9" y="808"/><ellipse cx="273.75" cy="824" fill="#ADD1B2" rx="11" ry="11" style="stroke:#181818;stroke-width:1.0;"/><path d="M276.2231,830.1431 Q275.6421,830.4419 275.0029,830.5913 Q274.3638,830.7407 273.6582,830.7407 Q271.1514,830.7407 269.8315,829.0889 Q268.5117,827.437 268.5117,824.3159 Q268.5117,821.1865 269.8315,819.5347 Q271.1514,817.8828 273.6582,817.8828 Q274.3638,817.8828 275.0112,818.0322 Q275.6587,818.1816 276.2231,818.4805 L276.2231,821.2031 Q275.5923,820.6221 274.9988,820.3523 Q274.4053,820.0825 273.7744,820.0825 Q272.4297,820.0825 271.7449,821.1492 Q271.0601,822.2158 271.0601,824.3159 Q271.0601,826.4077 271.7449,827.4744 Q272.4297,828.541 273.7744,828.541 Q274.4053,828.541 274.9988,828.2712 Q275.5923,828.0015 276.2231,827.4204 Z " fill="#000000"/><text fill="#000000" font-family="sans-serif" font-size="14" lengthAdjust="spacing" textLength="156" x="294.25" y="829.291">OSUINoUiSliderInterval</text><line style="stroke:#272B30;stroke-width:0.5;" x1="10" x2="702" y1="840" y2="840"/><polygon fill="none" points="20,848.7441,24,852.7441,20,856.7441,16,852.7441" style="stroke:#B38D22;stroke-width:1.0;"/><text fill="#000000" font-family="sans-serif" font-size="14" lengthAdjust="spacing" textLength="258" x="29" y="857.5352">eventProviderValueChanged : Generic</text><polygon fill="none" points="20,865.2324,24,869.2324,20,873.2324,16,869.2324" style="stroke:#B38D22;stroke-width:1.0;"/><text fill="#000000" font-family="sans-serif" font-size="14" lengthAdjust="spacing" textLength="176" x="29" y="874.0234">isProviderBased : boolean</text><polygon fill="none" points="20,881.7207,24,885.7207,20,889.7207,16,885.7207" style="stroke:#B38D22;stroke-width:1.0;"/><text fill="#000000" font-family="sans-serif" font-size="14" lengthAdjust="spacing" textLength="169" x="29" y="890.5117">noUiSliderOpts : Options</text><polygon fill="none" points="20,898.209,24,902.209,20,906.209,16,902.209" style="stroke:#B38D22;stroke-width:1.0;"/><text fill="#000000" font-family="sans-serif" font-size="14" lengthAdjust="spacing" textLength="366" x="29" y="907">platformEventValueChange : OSOnValueChangeEvent</text><polygon fill="none" points="20,914.6973,24,918.6973,20,922.6973,16,918.6973" style="stroke:#B38D22;stroke-width:1.0;"/><text fill="#000000" font-family="sans-serif" font-size="14" lengthAdjust="spacing" textLength="389" x="29" y="923.4883">providerEventsManagerInstance : IProviderEventManager</text><polygon fill="none" points="20,931.1855,24,935.1855,20,939.1855,16,935.1855" style="stroke:#B38D22;stroke-width:1.0;"/><text fill="#000000" font-family="sans-serif" font-size="14" lengthAdjust="spacing" textLength="127" x="29" y="939.9766">throttleTimer : any</text><polygon fill="none" points="20,947.6738,24,951.6738,20,955.6738,16,951.6738" style="stroke:#B38D22;stroke-width:1.0;"/><text fill="#000000" font-family="sans-serif" font-size="14" lengthAdjust="spacing" textLength="189" x="29" y="956.4648">throttleTimeValue : number</text><line style="stroke:#272B30;stroke-width:0.5;" x1="10" x2="702" y1="963.418" y2="963.418"/><ellipse cx="20" cy="977.1621" fill="#84BE84" rx="3" ry="3" style="stroke:#038048;stroke-width:1.0;"/><text fill="#000000" font-family="sans-serif" font-size="14" lengthAdjust="spacing" textLength="86" x="29" y="980.9531">build() : void</text><ellipse cx="20" cy="993.6504" fill="#84BE84" rx="3" ry="3" style="stroke:#038048;stroke-width:1.0;"/><text fill="#000000" font-family="sans-serif" font-size="14" lengthAdjust="spacing" textLength="482" x="29" y="997.4414">changeProperty(propertyName: string, propertyValue: unknown) : void</text><ellipse cx="20" cy="1010.1387" fill="#84BE84" rx="3" ry="3" style="stroke:#038048;stroke-width:1.0;"/><text fill="#000000" font-family="sans-serif" font-size="14" lengthAdjust="spacing" textLength="236" x="29" y="1013.9297">checkAddedProviderEvents() : void</text><ellipse cx="20" cy="1026.627" fill="#84BE84" rx="3" ry="3" style="stroke:#038048;stroke-width:1.0;"/><text fill="#000000" font-family="sans-serif" font-size="14" lengthAdjust="spacing" textLength="247" x="29" y="1030.418">checkPendingProviderEvents() : void</text><ellipse cx="20" cy="1043.1152" fill="#84BE84" rx="3" ry="3" style="stroke:#038048;stroke-width:1.0;"/><text fill="#000000" font-family="sans-serif" font-size="14" lengthAdjust="spacing" textLength="100" x="29" y="1046.9063">disable() : void</text><ellipse cx="20" cy="1059.6035" fill="#84BE84" rx="3" ry="3" style="stroke:#038048;stroke-width:1.0;"/><text fill="#000000" font-family="sans-serif" font-size="14" lengthAdjust="spacing" textLength="104" x="29" y="1063.3945">dispose() : void</text><ellipse cx="20" cy="1076.0918" fill="#84BE84" rx="3" ry="3" style="stroke:#038048;stroke-width:1.0;"/><text fill="#000000" font-family="sans-serif" font-size="14" lengthAdjust="spacing" textLength="97" x="29" y="1079.8828">enable() : void</text><ellipse cx="20" cy="1092.5801" fill="#84BE84" rx="3" ry="3" style="stroke:#038048;stroke-width:1.0;"/><text fill="#000000" font-family="sans-serif" font-size="14" lengthAdjust="spacing" textLength="266" x="29" y="1096.3711">equalsToID(patternId: string) : boolean</text><ellipse cx="20" cy="1109.0684" fill="#84BE84" rx="3" ry="3" style="stroke:#038048;stroke-width:1.0;"/><text fill="#000000" font-family="sans-serif" font-size="14" lengthAdjust="spacing" textLength="213" x="29" y="1112.8594">getValue() : number | number[]</text><ellipse cx="20" cy="1125.5566" fill="#84BE84" rx="3" ry="3" style="stroke:#038048;stroke-width:1.0;"/><text fill="#000000" font-family="sans-serif" font-size="14" lengthAdjust="spacing" textLength="428" x="29" y="1129.3477">registerCallback(eventName: string, callback: OSGeneric) : void</text><ellipse cx="20" cy="1142.0449" fill="#84BE84" rx="3" ry="3" style="stroke:#038048;stroke-width:1.0;"/><text fill="#000000" font-family="sans-serif" font-size="14" lengthAdjust="spacing" textLength="123" x="29" y="1145.8359">resetValue() : void</text><ellipse cx="20" cy="1158.5332" fill="#84BE84" rx="3" ry="3" style="stroke:#038048;stroke-width:1.0;"/><text fill="#000000" font-family="sans-serif" font-size="14" lengthAdjust="spacing" textLength="324" x="29" y="1162.3242">setProviderConfigs(newConfigs: Options) : void</text><ellipse cx="20" cy="1175.0215" fill="#84BE84" rx="3" ry="3" style="stroke:#038048;stroke-width:1.0;"/><text fill="#000000" font-family="sans-serif" font-size="14" lengthAdjust="spacing" textLength="668" x="29" y="1178.8125">setProviderEvent(eventName: string, callback: Generic, uniqueId: string, saveEvent: boolean) : void</text><ellipse cx="20" cy="1191.5098" fill="#84BE84" rx="3" ry="3" style="stroke:#038048;stroke-width:1.0;"/><text fill="#000000" font-family="sans-serif" font-size="14" lengthAdjust="spacing" textLength="297" x="29" y="1195.3008">setRangeIntervalChangeOnDragEnd() : void</text><ellipse cx="20" cy="1207.998" fill="#84BE84" rx="3" ry="3" style="stroke:#038048;stroke-width:1.0;"/><text fill="#000000" font-family="sans-serif" font-size="14" lengthAdjust="spacing" textLength="401" x="29" y="1211.7891">setValue(intervalStart: number, intervalEnd: number) : void</text><ellipse cx="20" cy="1224.4863" fill="#84BE84" rx="3" ry="3" style="stroke:#038048;stroke-width:1.0;"/><text fill="#000000" font-family="sans-serif" font-size="14" lengthAdjust="spacing" textLength="281" x="29" y="1228.2773">unsetProviderEvent(eventId: string) : void</text><ellipse cx="20" cy="1240.9746" fill="#84BE84" rx="3" ry="3" style="stroke:#038048;stroke-width:1.0;"/><text fill="#000000" font-family="sans-serif" font-size="14" lengthAdjust="spacing" textLength="377" x="29" y="1244.7656">updateProviderEvents(providerInfo: ProviderInfo) : void</text><polygon fill="#FFFF44" points="20,1252.4629,24,1256.4629,20,1260.4629,16,1256.4629" style="stroke:#B38D22;stroke-width:1.0;"/><text fill="#000000" font-family="sans-serif" font-size="14" lengthAdjust="spacing" textLength="123" x="29" y="1261.2539">finishBuild() : void</text><polygon fill="#FFFF44" points="20,1268.9512,24,1272.9512,20,1276.9512,16,1272.9512" style="stroke:#B38D22;stroke-width:1.0;"/><text fill="#000000" font-family="sans-serif" font-size="14" lengthAdjust="spacing" textLength="158" x="29" y="1277.7422">prepareConfigs() : void</text><polygon fill="#FFFF44" points="20,1285.4395,24,1289.4395,20,1293.4395,16,1289.4395" style="stroke:#B38D22;stroke-width:1.0;"/><text fill="#000000" font-family="sans-serif" font-size="14" lengthAdjust="spacing" textLength="99" x="29" y="1294.2305">redraw() : void</text><polygon fill="#FFFF44" points="20,1301.9277,24,1305.9277,20,1309.9277,16,1305.9277" style="stroke:#B38D22;stroke-width:1.0;"/><text fill="#000000" font-family="sans-serif" font-size="14" lengthAdjust="spacing" textLength="178" x="29" y="1310.7188">setA11YProperties() : void</text><polygon fill="#FFFF44" points="20,1318.416,24,1322.416,20,1326.416,16,1322.416" style="stroke:#B38D22;stroke-width:1.0;"/><text fill="#000000" font-family="sans-serif" font-size="14" lengthAdjust="spacing" textLength="136" x="29" y="1327.207">setCallbacks() : void</text><polygon fill="#FFFF44" points="20,1334.9043,24,1338.9043,20,1342.9043,16,1338.9043" style="stroke:#B38D22;stroke-width:1.0;"/><text fill="#000000" font-family="sans-serif" font-size="14" lengthAdjust="spacing" textLength="165" x="29" y="1343.6953">setHtmlElements() : void</text><polygon fill="#FFFF44" points="20,1351.3926,24,1355.3926,20,1359.3926,16,1355.3926" style="stroke:#B38D22;stroke-width:1.0;"/><text fill="#000000" font-family="sans-serif" font-size="14" lengthAdjust="spacing" textLength="186" x="29" y="1360.1836">setInitialCSSClasses() : void</text><polygon fill="#FFFF44" points="20,1367.8809,24,1371.8809,20,1375.8809,16,1371.8809" style="stroke:#B38D22;stroke-width:1.0;"/><text fill="#000000" font-family="sans-serif" font-size="14" lengthAdjust="spacing" textLength="570" x="29" y="1376.6719">triggerPlatformEventCallback(platFormCallback: OSGeneric, args: unknown[]) : void</text><polygon fill="#FFFF44" points="20,1384.3691,24,1388.3691,20,1392.3691,16,1388.3691" style="stroke:#B38D22;stroke-width:1.0;"/><text fill="#000000" font-family="sans-serif" font-size="14" lengthAdjust="spacing" textLength="318" x="29" y="1393.1602">triggerPlatformInitializedEventCallback() : void</text><polygon fill="#FFFF44" points="20,1400.8574,24,1404.8574,20,1408.8574,16,1404.8574" style="stroke:#B38D22;stroke-width:1.0;"/><text fill="#000000" font-family="sans-serif" font-size="14" lengthAdjust="spacing" textLength="154" x="29" y="1409.6484">unsetCallbacks() : void</text><polygon fill="#FFFF44" points="20,1417.3457,24,1421.3457,20,1425.3457,16,1421.3457" style="stroke:#B38D22;stroke-width:1.0;"/><text fill="#000000" font-family="sans-serif" font-size="14" lengthAdjust="spacing" textLength="198" x="29" y="1426.1367">unsetGlobalCallbacks() : void</text><polygon fill="#FFFF44" points="20,1433.834,24,1437.834,20,1441.834,16,1437.834" style="stroke:#B38D22;stroke-width:1.0;"/><text fill="#000000" font-family="sans-serif" font-size="14" lengthAdjust="spacing" textLength="183" x="29" y="1442.625">unsetHtmlElements() : void</text><rect fill="#F24D5C" height="6" style="stroke:#C82930;stroke-width:1.0;" width="6" x="17" y="1452.3223"/><text fill="#000000" font-family="sans-serif" font-size="14" lengthAdjust="spacing" textLength="207" x="29" y="1459.1133">createProviderInstance() : void</text><rect fill="#F24D5C" height="6" style="stroke:#C82930;stroke-width:1.0;" width="6" x="17" y="1468.8105"/><text fill="#000000" font-family="sans-serif" font-size="14" lengthAdjust="spacing" textLength="150" x="29" y="1475.6016">setInitialStates() : void</text><rect fill="#F24D5C" height="6" style="stroke:#C82930;stroke-width:1.0;" width="6" x="17" y="1485.2988"/><text fill="#000000" font-family="sans-serif" font-size="14" lengthAdjust="spacing" textLength="313" x="29" y="1492.0898">_valueChangeCallback(value: number[]) : void</text></g><!--class AbstractNoUiSlider<NoUiSliderIntervalConfig>--><g id="elem_AbstractNoUiSlider&lt;NoUiSliderIntervalConfig&gt;"><rect codeLine="48" fill="#FFFFFF" height="740.5078" id="AbstractNoUiSlider&lt;NoUiSliderIntervalConfig&gt;" rx="2.5" ry="2.5" style="stroke:#272B30;stroke-width:0.5;" width="694" x="9" y="7"/><ellipse cx="191.75" cy="23" fill="#A9DCDF" rx="11" ry="11" style="stroke:#181818;stroke-width:1.0;"/><path d="M191.6133,18.3481 L190.4595,23.4199 L192.7754,23.4199 Z M190.1191,16.1069 L193.1157,16.1069 L196.4609,28.5 L194.0122,28.5 L193.2485,25.437 L189.9697,25.437 L189.2227,28.5 L186.7739,28.5 Z " fill="#000000"/><text fill="#000000" font-family="sans-serif" font-size="14" font-style="italic" lengthAdjust="spacing" textLength="320" x="212.25" y="28.291">AbstractNoUiSlider&lt;NoUiSliderIntervalConfig&gt;</text><line style="stroke:#272B30;stroke-width:0.5;" x1="10" x2="702" y1="39" y2="39"/><polygon fill="none" points="20,47.7441,24,51.7441,20,55.7441,16,51.7441" style="stroke:#B38D22;stroke-width:1.0;"/><text fill="#000000" font-family="sans-serif" font-size="14" lengthAdjust="spacing" textLength="258" x="29" y="56.5352">eventProviderValueChanged : Generic</text><polygon fill="none" points="20,64.2324,24,68.2324,20,72.2324,16,68.2324" style="stroke:#B38D22;stroke-width:1.0;"/><text fill="#000000" font-family="sans-serif" font-size="14" lengthAdjust="spacing" textLength="176" x="29" y="73.0234">isProviderBased : boolean</text><polygon fill="none" points="20,80.7207,24,84.7207,20,88.7207,16,84.7207" style="stroke:#B38D22;stroke-width:1.0;"/><text fill="#000000" font-family="sans-serif" font-size="14" lengthAdjust="spacing" textLength="169" x="29" y="89.5117">noUiSliderOpts : Options</text><polygon fill="none" points="20,97.209,24,101.209,20,105.209,16,101.209" style="stroke:#B38D22;stroke-width:1.0;"/><text fill="#000000" font-family="sans-serif" font-size="14" lengthAdjust="spacing" textLength="366" x="29" y="106">platformEventValueChange : OSOnValueChangeEvent</text><polygon fill="none" points="20,113.6973,24,117.6973,20,121.6973,16,117.6973" style="stroke:#B38D22;stroke-width:1.0;"/><text fill="#000000" font-family="sans-serif" font-size="14" lengthAdjust="spacing" textLength="389" x="29" y="122.4883">providerEventsManagerInstance : IProviderEventManager</text><polygon fill="none" points="20,130.1855,24,134.1855,20,138.1855,16,134.1855" style="stroke:#B38D22;stroke-width:1.0;"/><text fill="#000000" font-family="sans-serif" font-size="14" lengthAdjust="spacing" textLength="127" x="29" y="138.9766">throttleTimer : any</text><polygon fill="none" points="20,146.6738,24,150.6738,20,154.6738,16,150.6738" style="stroke:#B38D22;stroke-width:1.0;"/><text fill="#000000" font-family="sans-serif" font-size="14" lengthAdjust="spacing" textLength="189" x="29" y="155.4648">throttleTimeValue : number</text><rect fill="none" height="6" style="stroke:#C82930;stroke-width:1.0;" width="6" x="17" y="165.1621"/><text fill="#000000" font-family="sans-serif" font-size="14" lengthAdjust="spacing" textLength="137" x="29" y="171.9531">_isInterval : boolean</text><rect fill="none" height="6" style="stroke:#C82930;stroke-width:1.0;" width="6" x="17" y="181.6504"/><text fill="#000000" font-family="sans-serif" font-size="14" lengthAdjust="spacing" textLength="281" x="29" y="188.4414">_rangeSliderProviderElem : HTMLElement</text><line style="stroke:#272B30;stroke-width:0.5;" x1="10" x2="702" y1="195.3945" y2="195.3945"/><ellipse cx="20" cy="209.1387" fill="#84BE84" rx="3" ry="3" style="stroke:#038048;stroke-width:1.0;"/><text fill="#000000" font-family="sans-serif" font-size="14" lengthAdjust="spacing" textLength="86" x="29" y="212.9297">build() : void</text><ellipse cx="20" cy="225.627" fill="#84BE84" rx="3" ry="3" style="stroke:#038048;stroke-width:1.0;"/><text fill="#000000" font-family="sans-serif" font-size="14" lengthAdjust="spacing" textLength="482" x="29" y="229.418">changeProperty(propertyName: string, propertyValue: unknown) : void</text><ellipse cx="20" cy="242.1152" fill="#84BE84" rx="3" ry="3" style="stroke:#038048;stroke-width:1.0;"/><text fill="#000000" font-family="sans-serif" font-size="14" lengthAdjust="spacing" textLength="236" x="29" y="245.9063">checkAddedProviderEvents() : void</text><ellipse cx="20" cy="258.6035" fill="#84BE84" rx="3" ry="3" style="stroke:#038048;stroke-width:1.0;"/><text fill="#000000" font-family="sans-serif" font-size="14" lengthAdjust="spacing" textLength="247" x="29" y="262.3945">checkPendingProviderEvents() : void</text><ellipse cx="20" cy="275.0918" fill="#84BE84" rx="3" ry="3" style="stroke:#038048;stroke-width:1.0;"/><text fill="#000000" font-family="sans-serif" font-size="14" lengthAdjust="spacing" textLength="100" x="29" y="278.8828">disable() : void</text><ellipse cx="20" cy="291.5801" fill="#84BE84" rx="3" ry="3" style="stroke:#038048;stroke-width:1.0;"/><text fill="#000000" font-family="sans-serif" font-size="14" lengthAdjust="spacing" textLength="104" x="29" y="295.3711">dispose() : void</text><ellipse cx="20" cy="308.0684" fill="#84BE84" rx="3" ry="3" style="stroke:#038048;stroke-width:1.0;"/><text fill="#000000" font-family="sans-serif" font-size="14" lengthAdjust="spacing" textLength="97" x="29" y="311.8594">enable() : void</text><ellipse cx="20" cy="324.5566" fill="#84BE84" rx="3" ry="3" style="stroke:#038048;stroke-width:1.0;"/><text fill="#000000" font-family="sans-serif" font-size="14" lengthAdjust="spacing" textLength="266" x="29" y="328.3477">equalsToID(patternId: string) : boolean</text><ellipse cx="20" cy="341.0449" fill="#84BE84" rx="3" ry="3" style="stroke:#038048;stroke-width:1.0;"/><text fill="#000000" font-family="sans-serif" font-size="14" lengthAdjust="spacing" textLength="213" x="29" y="344.8359">getValue() : number | number[]</text><ellipse cx="20" cy="357.5332" fill="#84BE84" rx="3" ry="3" style="stroke:#038048;stroke-width:1.0;"/><text fill="#000000" font-family="sans-serif" font-size="14" lengthAdjust="spacing" textLength="428" x="29" y="361.3242">registerCallback(eventName: string, callback: OSGeneric) : void</text><ellipse cx="20" cy="374.0215" fill="#84BE84" rx="3" ry="3" style="stroke:#038048;stroke-width:1.0;"/><text fill="#000000" font-family="sans-serif" font-size="14" lengthAdjust="spacing" textLength="324" x="29" y="377.8125">setProviderConfigs(newConfigs: Options) : void</text><ellipse cx="20" cy="390.5098" fill="#84BE84" rx="3" ry="3" style="stroke:#038048;stroke-width:1.0;"/><text fill="#000000" font-family="sans-serif" font-size="14" lengthAdjust="spacing" textLength="668" x="29" y="394.3008">setProviderEvent(eventName: string, callback: Generic, uniqueId: string, saveEvent: boolean) : void</text><ellipse cx="20" cy="406.998" fill="#84BE84" rx="3" ry="3" style="stroke:#038048;stroke-width:1.0;"/><text fill="#000000" font-family="sans-serif" font-size="14" lengthAdjust="spacing" textLength="297" x="29" y="410.7891">setRangeIntervalChangeOnDragEnd() : void</text><ellipse cx="20" cy="423.4863" fill="#84BE84" rx="3" ry="3" style="stroke:#038048;stroke-width:1.0;"/><text fill="#000000" font-family="sans-serif" font-size="14" lengthAdjust="spacing" textLength="281" x="29" y="427.2773">unsetProviderEvent(eventId: string) : void</text><ellipse cx="20" cy="439.9746" fill="#84BE84" rx="3" ry="3" style="stroke:#038048;stroke-width:1.0;"/><text fill="#000000" font-family="sans-serif" font-size="14" lengthAdjust="spacing" textLength="377" x="29" y="443.7656">updateProviderEvents(providerInfo: ProviderInfo) : void</text><polygon fill="#FFFF44" points="20,451.4629,24,455.4629,20,459.4629,16,455.4629" style="stroke:#B38D22;stroke-width:1.0;"/><text fill="#000000" font-family="sans-serif" font-size="14" lengthAdjust="spacing" textLength="123" x="29" y="460.2539">finishBuild() : void</text><polygon fill="#FFFF44" points="20,467.9512,24,471.9512,20,475.9512,16,471.9512" style="stroke:#B38D22;stroke-width:1.0;"/><text fill="#000000" font-family="sans-serif" font-size="14" font-style="italic" lengthAdjust="spacing" textLength="158" x="29" y="476.7422">prepareConfigs() : void</text><polygon fill="#FFFF44" points="20,484.4395,24,488.4395,20,492.4395,16,488.4395" style="stroke:#B38D22;stroke-width:1.0;"/><text fill="#000000" font-family="sans-serif" font-size="14" lengthAdjust="spacing" textLength="99" x="29" y="493.2305">redraw() : void</text><polygon fill="#FFFF44" points="20,500.9277,24,504.9277,20,508.9277,16,504.9277" style="stroke:#B38D22;stroke-width:1.0;"/><text fill="#000000" font-family="sans-serif" font-size="14" font-style="italic" lengthAdjust="spacing" textLength="178" x="29" y="509.7188">setA11YProperties() : void</text><polygon fill="#FFFF44" points="20,517.416,24,521.416,20,525.416,16,521.416" style="stroke:#B38D22;stroke-width:1.0;"/><text fill="#000000" font-family="sans-serif" font-size="14" font-style="italic" lengthAdjust="spacing" textLength="136" x="29" y="526.207">setCallbacks() : void</text><polygon fill="#FFFF44" points="20,533.9043,24,537.9043,20,541.9043,16,537.9043" style="stroke:#B38D22;stroke-width:1.0;"/><text fill="#000000" font-family="sans-serif" font-size="14" lengthAdjust="spacing" textLength="165" x="29" y="542.6953">setHtmlElements() : void</text><polygon fill="#FFFF44" points="20,550.3926,24,554.3926,20,558.3926,16,554.3926" style="stroke:#B38D22;stroke-width:1.0;"/><text fill="#000000" font-family="sans-serif" font-size="14" lengthAdjust="spacing" textLength="186" x="29" y="559.1836">setInitialCSSClasses() : void</text><polygon fill="#FFFF44" points="20,566.8809,24,570.8809,20,574.8809,16,570.8809" style="stroke:#B38D22;stroke-width:1.0;"/><text fill="#000000" font-family="sans-serif" font-size="14" lengthAdjust="spacing" textLength="570" x="29" y="575.6719">triggerPlatformEventCallback(platFormCallback: OSGeneric, args: unknown[]) : void</text><polygon fill="#FFFF44" points="20,583.3691,24,587.3691,20,591.3691,16,587.3691" style="stroke:#B38D22;stroke-width:1.0;"/><text fill="#000000" font-family="sans-serif" font-size="14" lengthAdjust="spacing" textLength="318" x="29" y="592.1602">triggerPlatformInitializedEventCallback() : void</text><polygon fill="#FFFF44" points="20,599.8574,24,603.8574,20,607.8574,16,603.8574" style="stroke:#B38D22;stroke-width:1.0;"/><text fill="#000000" font-family="sans-serif" font-size="14" lengthAdjust="spacing" textLength="154" x="29" y="608.6484">unsetCallbacks() : void</text><polygon fill="#FFFF44" points="20,616.3457,24,620.3457,20,624.3457,16,620.3457" style="stroke:#B38D22;stroke-width:1.0;"/><text fill="#000000" font-family="sans-serif" font-size="14" lengthAdjust="spacing" textLength="198" x="29" y="625.1367">unsetGlobalCallbacks() : void</text><polygon fill="#FFFF44" points="20,632.834,24,636.834,20,640.834,16,636.834" style="stroke:#B38D22;stroke-width:1.0;"/><text fill="#000000" font-family="sans-serif" font-size="14" lengthAdjust="spacing" textLength="183" x="29" y="641.625">unsetHtmlElements() : void</text><rect fill="#F24D5C" height="6" style="stroke:#C82930;stroke-width:1.0;" width="6" x="17" y="651.3223"/><text fill="#000000" font-family="sans-serif" font-size="14" lengthAdjust="spacing" textLength="207" x="29" y="658.1133">createProviderInstance() : void</text><rect fill="#F24D5C" height="6" style="stroke:#C82930;stroke-width:1.0;" width="6" x="17" y="667.8105"/><text fill="#000000" font-family="sans-serif" font-size="14" lengthAdjust="spacing" textLength="150" x="29" y="674.6016">setInitialStates() : void</text><rect fill="#F24D5C" height="6" style="stroke:#C82930;stroke-width:1.0;" width="6" x="17" y="684.2988"/><text fill="#000000" font-family="sans-serif" font-size="14" lengthAdjust="spacing" textLength="282" x="29" y="691.0898">_setIsDisabled(isDisabled: boolean) : void</text><rect fill="#F24D5C" height="6" style="stroke:#C82930;stroke-width:1.0;" width="6" x="17" y="700.7871"/><text fill="#000000" font-family="sans-serif" font-size="14" lengthAdjust="spacing" textLength="437" x="29" y="707.5781">_setOnValueChangeEvent(changeEvent: NoUISliderEvents) : void</text><rect fill="#F24D5C" height="6" style="stroke:#C82930;stroke-width:1.0;" width="6" x="17" y="717.2754"/><text fill="#000000" font-family="sans-serif" font-size="14" lengthAdjust="spacing" textLength="106" x="29" y="724.0664">_setSize() : void</text><rect fill="#F24D5C" height="6" style="stroke:#C82930;stroke-width:1.0;" width="6" x="17" y="733.7637"/><text fill="#000000" font-family="sans-serif" font-size="14" lengthAdjust="spacing" textLength="194" x="29" y="740.5547">_updateRangeValues() : void</text></g><!--reverse link AbstractNoUiSlider<NoUiSliderIntervalConfig> to OSUINoUiSliderInterval--><g id="link_AbstractNoUiSlider&lt;NoUiSliderIntervalConfig&gt;_OSUINoUiSliderInterval"><path codeLine="92" d="M356,768.31 C356,781.56 356,794.8 356,807.97 " fill="none" id="AbstractNoUiSlider&lt;NoUiSliderIntervalConfig&gt;-backto-OSUINoUiSliderInterval" style="stroke:#272B30;stroke-width:1.0;"/><polygon fill="none" points="349,768.21,356,748.21,363,768.21,349,768.21" style="stroke:#272B30;stroke-width:1.0;"/></g><!--SRC=[xLTRQzim57xFhn3jYqiJMBl189H1cdQjOMt2qWv6AKMsZXqHMN8bEQ5h-zydMxBZIvAnFPNHl4GvvpjNVJg7g0NbAPOuGME6bHf9ALPZmOH4-yUVZuEF7tggYJWLae3S3S7X8fOYuyJ1eYYgOJhg4CWdWdjpIW11akedb82U2wBgeeW2Cv8m3u3s9hDR_rhSqXap2Ebp3NA9sHvwxY7psOSbS3sLOfbhVs2MmNYEUGm43T45S90qj42gIjGfLeKw4881vbRDgn2JL2kZDLzKS6MrASCw4Z8vpwFLekIusOJN90N26RbuXKXTOOxZl02bCGzpItzQ1pYzDTLpARHcS4CJa0QA-LDNKKGrIfubWJCy33BAY7TWf4j1YPM5HM8cM0fIFtcfErpZ18P8QKbvt4Ubj70wH1bVSB7YRKSGBaQ406bahhmDi2bmOXpl11AgSC2WAqs5Qak1Ru32OuQPkX7-cPTYRPZ1VLAMTD2wuSCOxCqLFcpFq8ixtDrRZ8IOAkDdZ1aB37czWbxDJeLEbr-zOrWpAmcg7cgjCEAo7sF18nehZyFA7Il6RRKfUhWx8vTFtzmVVSnWtOq-KdXfoLcrfHFeUywJyeLPEa_ucSJnEIVTKco5rC5d6ajTzhMFIh6nB8LD1ndVN5dp0club60DBJgLBypdaHYYQUrNmtW_efog-MdtRPWt2cPKGNaTJQK48l6g9JHfZuwEVhhdH45rzILxDgWkTSBE6IJTrv1hVKurDQsVpOhfsl5j-XAR6J6jJwEAglcC-cgauou_-mZBd67kLT_TxtJhig2_W3GZDAsA6znMQg6yO28mrUo2RE_789HGk_5oRhP0wwOP0kfsmmOFo_LahifOsX5NllpAuhM70qCz76haTi_8_LxldvFkAhBS-VA-aJPkfC43LMMdMXKE7cIUdwsnYcp8O72NDrVV72_U5zjRMMp_qVvw6-ldkHmuh_-mYUh6VrXABUZxVdep-odNgpCxBeX7g-DcaXVuxd3tmlLvYCo6ykrCjJJjUfYPrhKJiGGlNb3XlfRfQ-yl5-79os2mzO_RRm00]--></g></svg>