<?xml version="1.0" encoding="UTF-8" standalone="no"?><svg xmlns="http://www.w3.org/2000/svg" xmlns:xlink="http://www.w3.org/1999/xlink" contentScriptType="application/ecmascript" contentStyleType="text/css" height="1109px" preserveAspectRatio="none" style="width:571px;height:1109px;background:#CED4DA;" version="1.1" viewBox="0 0 571 1109" width="571px" zoomAndPan="magnify"><defs><filter height="300%" id="f1p3x86llwsqei" width="300%" x="-1" y="-1"><feGaussianBlur result="blurOut" stdDeviation="2.0"/><feColorMatrix in="blurOut" result="blurOut2" type="matrix" values="0 0 0 0 0 0 0 0 0 0 0 0 0 0 0 0 0 0 .4 0"/><feOffset dx="4.0" dy="4.0" in="blurOut2" result="blurOut3"/><feBlend in="SourceGraphic" in2="blurOut3" mode="normal"/></filter></defs><g><!--MD5=[20e5546c617aa4afb843d2d9fdc6f596]
class OSUIVirtualSelectTags--><rect codeLine="7" fill="#FFFFFF" filter="url(#f1p3x86llwsqei)" height="449.6074" id="OSUIVirtualSelectTags" style="stroke:#272B30;stroke-width:1.5;" width="548" x="9" y="646"/><ellipse cx="216.75" cy="662" fill="#ADD1B2" rx="11" ry="11" style="stroke:#272B30;stroke-width:1.0;"/><path d="M219.2231,668.1431 Q218.6421,668.4419 218.0029,668.5913 Q217.3638,668.7407 216.6582,668.7407 Q214.1514,668.7407 212.8315,667.0889 Q211.5117,665.437 211.5117,662.3159 Q211.5117,659.1865 212.8315,657.5347 Q214.1514,655.8828 216.6582,655.8828 Q217.3638,655.8828 218.0112,656.0322 Q218.6587,656.1816 219.2231,656.4805 L219.2231,659.2031 Q218.5923,658.6221 217.9988,658.3523 Q217.4053,658.0825 216.7744,658.0825 Q215.4297,658.0825 214.7449,659.1492 Q214.0601,660.2158 214.0601,662.3159 Q214.0601,664.4077 214.7449,665.4744 Q215.4297,666.541 216.7744,666.541 Q217.4053,666.541 217.9988,666.2712 Q218.5923,666.0015 219.2231,665.4204 Z " fill="#000000"/><text fill="#000000" font-family="sans-serif" font-size="12" lengthAdjust="spacing" textLength="124" x="237.25" y="666.5352">OSUIVirtualSelectTags</text><line style="stroke:#272B30;stroke-width:1.5;" x1="10" x2="556" y1="678" y2="678"/><polygon fill="none" points="20,684,24,688,20,692,16,688" style="stroke:#B38D22;stroke-width:1.0;"/><text fill="#000000" font-family="sans-serif" font-size="11" lengthAdjust="spacing" textLength="304" x="29" y="692.6348">providerEventsManagerInstance : IProviderEventManager</text><polygon fill="none" points="20,696.9551,24,700.9551,20,704.9551,16,700.9551" style="stroke:#B38D22;stroke-width:1.0;"/><text fill="#000000" font-family="sans-serif" font-size="11" lengthAdjust="spacing" textLength="80" x="29" y="705.5898">_provider : any</text><polygon fill="none" points="20,709.9102,24,713.9102,20,717.9102,16,713.9102" style="stroke:#B38D22;stroke-width:1.0;"/><text fill="#000000" font-family="sans-serif" font-size="11" lengthAdjust="spacing" textLength="148" x="29" y="718.5449">_providerInfo : ProviderInfo</text><polygon fill="none" points="20,722.8652,24,726.8652,20,730.8652,16,726.8652" style="stroke:#B38D22;stroke-width:1.0;"/><text fill="#000000" font-family="sans-serif" font-size="11" lengthAdjust="spacing" textLength="131" x="29" y="731.5">_selfElem : HTMLElement</text><polygon fill="none" points="20,735.8203,24,739.8203,20,743.8203,16,739.8203" style="stroke:#B38D22;stroke-width:1.0;"/><text fill="#000000" font-family="sans-serif" font-size="11" lengthAdjust="spacing" textLength="238" x="29" y="744.4551">_virtualselectMethods : VirtualSelectMethods</text><polygon fill="none" points="20,748.7754,24,752.7754,20,756.7754,16,752.7754" style="stroke:#B38D22;stroke-width:1.0;"/><text fill="#000000" font-family="sans-serif" font-size="11" lengthAdjust="spacing" textLength="198" x="29" y="757.4102">_virtualselectOpts : VirtualSelectOpts</text><polygon fill="none" points="20,761.7305,24,765.7305,20,769.7305,16,765.7305" style="stroke:#B38D22;stroke-width:1.0;"/><text fill="#000000" font-family="sans-serif" font-size="11" lengthAdjust="spacing" textLength="92" x="29" y="770.3652">_widgetId : string</text><line style="stroke:#272B30;stroke-width:1.5;" x1="10" x2="556" y1="776.6855" y2="776.6855"/><ellipse cx="20" cy="787.6855" fill="#84BE84" rx="3" ry="3" style="stroke:#038048;stroke-width:1.0;"/><text fill="#000000" font-family="sans-serif" font-size="11" lengthAdjust="spacing" textLength="67" x="29" y="791.3203">build() : void</text><ellipse cx="20" cy="800.6406" fill="#84BE84" rx="3" ry="3" style="stroke:#038048;stroke-width:1.0;"/><text fill="#000000" font-family="sans-serif" font-size="11" lengthAdjust="spacing" textLength="377" x="29" y="804.2754">changeProperty(propertyName: string, propertyValue: unknown) : void</text><ellipse cx="20" cy="813.5957" fill="#84BE84" rx="3" ry="3" style="stroke:#038048;stroke-width:1.0;"/><text fill="#000000" font-family="sans-serif" font-size="11" lengthAdjust="spacing" textLength="186" x="29" y="817.2305">checkAddedProviderEvents() : void</text><ellipse cx="20" cy="826.5508" fill="#84BE84" rx="3" ry="3" style="stroke:#038048;stroke-width:1.0;"/><text fill="#000000" font-family="sans-serif" font-size="11" lengthAdjust="spacing" textLength="194" x="29" y="830.1855">checkPendingProviderEvents() : void</text><ellipse cx="20" cy="839.5059" fill="#84BE84" rx="3" ry="3" style="stroke:#038048;stroke-width:1.0;"/><text fill="#000000" font-family="sans-serif" font-size="11" lengthAdjust="spacing" textLength="66" x="29" y="843.1406">clear() : void</text><ellipse cx="20" cy="852.4609" fill="#84BE84" rx="3" ry="3" style="stroke:#038048;stroke-width:1.0;"/><text fill="#000000" font-family="sans-serif" font-size="11" lengthAdjust="spacing" textLength="78" x="29" y="856.0957">disable() : void</text><ellipse cx="20" cy="865.416" fill="#84BE84" rx="3" ry="3" style="stroke:#038048;stroke-width:1.0;"/><text fill="#000000" font-family="sans-serif" font-size="11" lengthAdjust="spacing" textLength="82" x="29" y="869.0508">dispose() : void</text><ellipse cx="20" cy="878.3711" fill="#84BE84" rx="3" ry="3" style="stroke:#038048;stroke-width:1.0;"/><text fill="#000000" font-family="sans-serif" font-size="11" lengthAdjust="spacing" textLength="75" x="29" y="882.0059">enable() : void</text><ellipse cx="20" cy="891.3262" fill="#84BE84" rx="3" ry="3" style="stroke:#038048;stroke-width:1.0;"/><text fill="#000000" font-family="sans-serif" font-size="11" lengthAdjust="spacing" textLength="207" x="29" y="894.9609">equalsToID(patternId: string) : boolean</text><ellipse cx="20" cy="904.2813" fill="#84BE84" rx="3" ry="3" style="stroke:#038048;stroke-width:1.0;"/><text fill="#000000" font-family="sans-serif" font-size="11" lengthAdjust="spacing" textLength="145" x="29" y="907.916">getSelectedValues() : string</text><ellipse cx="20" cy="917.2363" fill="#84BE84" rx="3" ry="3" style="stroke:#038048;stroke-width:1.0;"/><text fill="#000000" font-family="sans-serif" font-size="11" lengthAdjust="spacing" textLength="335" x="29" y="920.8711">registerCallback(eventName: string, callback: OSGeneric) : void</text><ellipse cx="20" cy="930.1914" fill="#84BE84" rx="3" ry="3" style="stroke:#038048;stroke-width:1.0;"/><text fill="#000000" font-family="sans-serif" font-size="11" lengthAdjust="spacing" textLength="304" x="29" y="933.8262">setProviderConfigs(newConfigs: VirtualSelectOpts) : void</text><ellipse cx="20" cy="943.1465" fill="#84BE84" rx="3" ry="3" style="stroke:#038048;stroke-width:1.0;"/><text fill="#000000" font-family="sans-serif" font-size="11" lengthAdjust="spacing" textLength="522" x="29" y="946.7813">setProviderEvent(eventName: string, callback: Generic, uniqueId: string, saveEvent: boolean) : void</text><ellipse cx="20" cy="956.1016" fill="#84BE84" rx="3" ry="3" style="stroke:#038048;stroke-width:1.0;"/><text fill="#000000" font-family="sans-serif" font-size="11" lengthAdjust="spacing" textLength="208" x="29" y="959.7363">togglePopup(isEnabled: boolean) : void</text><ellipse cx="20" cy="969.0566" fill="#84BE84" rx="3" ry="3" style="stroke:#038048;stroke-width:1.0;"/><text fill="#000000" font-family="sans-serif" font-size="11" lengthAdjust="spacing" textLength="221" x="29" y="972.6914">unsetProviderEvent(eventId: string) : void</text><ellipse cx="20" cy="982.0117" fill="#84BE84" rx="3" ry="3" style="stroke:#038048;stroke-width:1.0;"/><text fill="#000000" font-family="sans-serif" font-size="11" lengthAdjust="spacing" textLength="296" x="29" y="985.6465">updateProviderEvents(providerInfo: ProviderInfo) : void</text><ellipse cx="20" cy="994.9668" fill="#84BE84" rx="3" ry="3" style="stroke:#038048;stroke-width:1.0;"/><text fill="#000000" font-family="sans-serif" font-size="11" lengthAdjust="spacing" textLength="318" x="29" y="998.6016">validation(isValid: boolean, validationMessage: string) : void</text><polygon fill="#FFFF44" points="20,1002.9219,24,1006.9219,20,1010.9219,16,1006.9219" style="stroke:#B38D22;stroke-width:1.0;"/><text fill="#000000" font-family="sans-serif" font-size="11" lengthAdjust="spacing" textLength="278" x="29" y="1011.5566">createProviderInstance(triggerEvent: boolean) : void</text><polygon fill="#FFFF44" points="20,1015.877,24,1019.877,20,1023.877,16,1019.877" style="stroke:#B38D22;stroke-width:1.0;"/><text fill="#000000" font-family="sans-serif" font-size="11" lengthAdjust="spacing" textLength="96" x="29" y="1024.5117">finishBuild() : void</text><polygon fill="#FFFF44" points="20,1028.832,24,1032.832,20,1036.832,16,1032.832" style="stroke:#B38D22;stroke-width:1.0;"/><text fill="#000000" font-family="sans-serif" font-size="11" lengthAdjust="spacing" textLength="203" x="29" y="1037.4668">getSelectedOptionsStructure() : string</text><polygon fill="#FFFF44" points="20,1041.7871,24,1045.7871,20,1049.7871,16,1045.7871" style="stroke:#B38D22;stroke-width:1.0;"/><text fill="#000000" font-family="sans-serif" font-size="11" lengthAdjust="spacing" textLength="239" x="29" y="1050.4219">prepareConfigs(triggerEvent: boolean) : void</text><polygon fill="#FFFF44" points="20,1054.7422,24,1058.7422,20,1062.7422,16,1058.7422" style="stroke:#B38D22;stroke-width:1.0;"/><text fill="#000000" font-family="sans-serif" font-size="11" lengthAdjust="spacing" textLength="192" x="29" y="1063.377">redraw(triggerEvent: boolean) : void</text><polygon fill="#FFFF44" points="20,1067.6973,24,1071.6973,20,1075.6973,16,1071.6973" style="stroke:#B38D22;stroke-width:1.0;"/><text fill="#000000" font-family="sans-serif" font-size="11" lengthAdjust="spacing" textLength="107" x="29" y="1076.332">setCallbacks() : void</text><polygon fill="#FFFF44" points="20,1080.6523,24,1084.6523,20,1088.6523,16,1084.6523" style="stroke:#B38D22;stroke-width:1.0;"/><text fill="#000000" font-family="sans-serif" font-size="11" lengthAdjust="spacing" textLength="121" x="29" y="1089.2871">unsetCallbacks() : void</text><!--MD5=[35f835c038ec5536e9fb35d3abecb18b]
class AbstractVirtualSelect<VirtualSelectTagsConfig>--><rect codeLine="40" fill="#FFFFFF" filter="url(#f1p3x86llwsqei)" height="579.1582" id="AbstractVirtualSelect&lt;VirtualSelectTagsConfig&gt;" style="stroke:#272B30;stroke-width:1.5;" width="548" x="9" y="7"/><ellipse cx="142.75" cy="23" fill="#A9DCDF" rx="11" ry="11" style="stroke:#272B30;stroke-width:1.0;"/><path d="M142.6133,18.3481 L141.4595,23.4199 L143.7754,23.4199 Z M141.1191,16.1069 L144.1157,16.1069 L147.4609,28.5 L145.0122,28.5 L144.2485,25.437 L140.9697,25.437 L140.2227,28.5 L137.7739,28.5 Z " fill="#000000"/><text fill="#000000" font-family="sans-serif" font-size="12" font-style="italic" lengthAdjust="spacing" textLength="272" x="163.25" y="27.5352">AbstractVirtualSelect&lt;VirtualSelectTagsConfig&gt;</text><line style="stroke:#272B30;stroke-width:1.5;" x1="10" x2="556" y1="39" y2="39"/><polygon fill="none" points="20,45,24,49,20,53,16,49" style="stroke:#B38D22;stroke-width:1.0;"/><text fill="#000000" font-family="sans-serif" font-size="11" lengthAdjust="spacing" textLength="304" x="29" y="53.6348">providerEventsManagerInstance : IProviderEventManager</text><polygon fill="none" points="20,57.9551,24,61.9551,20,65.9551,16,61.9551" style="stroke:#B38D22;stroke-width:1.0;"/><text fill="#000000" font-family="sans-serif" font-size="11" lengthAdjust="spacing" textLength="80" x="29" y="66.5898">_provider : any</text><polygon fill="none" points="20,70.9102,24,74.9102,20,78.9102,16,74.9102" style="stroke:#B38D22;stroke-width:1.0;"/><text fill="#000000" font-family="sans-serif" font-size="11" lengthAdjust="spacing" textLength="148" x="29" y="79.5449">_providerInfo : ProviderInfo</text><polygon fill="none" points="20,83.8652,24,87.8652,20,91.8652,16,87.8652" style="stroke:#B38D22;stroke-width:1.0;"/><text fill="#000000" font-family="sans-serif" font-size="11" lengthAdjust="spacing" textLength="131" x="29" y="92.5">_selfElem : HTMLElement</text><polygon fill="none" points="20,96.8203,24,100.8203,20,104.8203,16,100.8203" style="stroke:#B38D22;stroke-width:1.0;"/><text fill="#000000" font-family="sans-serif" font-size="11" lengthAdjust="spacing" textLength="238" x="29" y="105.4551">_virtualselectMethods : VirtualSelectMethods</text><polygon fill="none" points="20,109.7754,24,113.7754,20,117.7754,16,113.7754" style="stroke:#B38D22;stroke-width:1.0;"/><text fill="#000000" font-family="sans-serif" font-size="11" lengthAdjust="spacing" textLength="198" x="29" y="118.4102">_virtualselectOpts : VirtualSelectOpts</text><polygon fill="none" points="20,122.7305,24,126.7305,20,130.7305,16,126.7305" style="stroke:#B38D22;stroke-width:1.0;"/><text fill="#000000" font-family="sans-serif" font-size="11" lengthAdjust="spacing" textLength="92" x="29" y="131.3652">_widgetId : string</text><rect fill="none" height="6" style="stroke:#C82930;stroke-width:1.0;" width="6" x="17" y="137.6855"/><text fill="#000000" font-family="sans-serif" font-size="11" lengthAdjust="spacing" textLength="180" x="29" y="144.3203">_onSelectedOptionEvent : Generic</text><rect fill="none" height="6" style="stroke:#C82930;stroke-width:1.0;" width="6" x="17" y="150.6406"/><text fill="#000000" font-family="sans-serif" font-size="11" lengthAdjust="spacing" textLength="242" x="29" y="157.2754">_platformEventInitializedCallback : OSGeneric</text><rect fill="none" height="6" style="stroke:#C82930;stroke-width:1.0;" width="6" x="17" y="163.5957"/><text fill="#000000" font-family="sans-serif" font-size="11" lengthAdjust="spacing" textLength="290" x="29" y="170.2305">_platformEventSelectedOptCallback : OSOnSelectEvent</text><line style="stroke:#272B30;stroke-width:1.5;" x1="10" x2="556" y1="176.5508" y2="176.5508"/><ellipse cx="20" cy="187.5508" fill="#84BE84" rx="3" ry="3" style="stroke:#038048;stroke-width:1.0;"/><text fill="#000000" font-family="sans-serif" font-size="11" lengthAdjust="spacing" textLength="67" x="29" y="191.1855">build() : void</text><ellipse cx="20" cy="200.5059" fill="#84BE84" rx="3" ry="3" style="stroke:#038048;stroke-width:1.0;"/><text fill="#000000" font-family="sans-serif" font-size="11" lengthAdjust="spacing" textLength="377" x="29" y="204.1406">changeProperty(propertyName: string, propertyValue: unknown) : void</text><ellipse cx="20" cy="213.4609" fill="#84BE84" rx="3" ry="3" style="stroke:#038048;stroke-width:1.0;"/><text fill="#000000" font-family="sans-serif" font-size="11" lengthAdjust="spacing" textLength="186" x="29" y="217.0957">checkAddedProviderEvents() : void</text><ellipse cx="20" cy="226.416" fill="#84BE84" rx="3" ry="3" style="stroke:#038048;stroke-width:1.0;"/><text fill="#000000" font-family="sans-serif" font-size="11" lengthAdjust="spacing" textLength="194" x="29" y="230.0508">checkPendingProviderEvents() : void</text><ellipse cx="20" cy="239.3711" fill="#84BE84" rx="3" ry="3" style="stroke:#038048;stroke-width:1.0;"/><text fill="#000000" font-family="sans-serif" font-size="11" lengthAdjust="spacing" textLength="66" x="29" y="243.0059">clear() : void</text><ellipse cx="20" cy="252.3262" fill="#84BE84" rx="3" ry="3" style="stroke:#038048;stroke-width:1.0;"/><text fill="#000000" font-family="sans-serif" font-size="11" lengthAdjust="spacing" textLength="78" x="29" y="255.9609">disable() : void</text><ellipse cx="20" cy="265.2813" fill="#84BE84" rx="3" ry="3" style="stroke:#038048;stroke-width:1.0;"/><text fill="#000000" font-family="sans-serif" font-size="11" lengthAdjust="spacing" textLength="82" x="29" y="268.916">dispose() : void</text><ellipse cx="20" cy="278.2363" fill="#84BE84" rx="3" ry="3" style="stroke:#038048;stroke-width:1.0;"/><text fill="#000000" font-family="sans-serif" font-size="11" lengthAdjust="spacing" textLength="75" x="29" y="281.8711">enable() : void</text><ellipse cx="20" cy="291.1914" fill="#84BE84" rx="3" ry="3" style="stroke:#038048;stroke-width:1.0;"/><text fill="#000000" font-family="sans-serif" font-size="11" lengthAdjust="spacing" textLength="207" x="29" y="294.8262">equalsToID(patternId: string) : boolean</text><ellipse cx="20" cy="304.1465" fill="#84BE84" rx="3" ry="3" style="stroke:#038048;stroke-width:1.0;"/><text fill="#000000" font-family="sans-serif" font-size="11" lengthAdjust="spacing" textLength="145" x="29" y="307.7813">getSelectedValues() : string</text><ellipse cx="20" cy="317.1016" fill="#84BE84" rx="3" ry="3" style="stroke:#038048;stroke-width:1.0;"/><text fill="#000000" font-family="sans-serif" font-size="11" lengthAdjust="spacing" textLength="335" x="29" y="320.7363">registerCallback(eventName: string, callback: OSGeneric) : void</text><ellipse cx="20" cy="330.0566" fill="#84BE84" rx="3" ry="3" style="stroke:#038048;stroke-width:1.0;"/><text fill="#000000" font-family="sans-serif" font-size="11" lengthAdjust="spacing" textLength="304" x="29" y="333.6914">setProviderConfigs(newConfigs: VirtualSelectOpts) : void</text><ellipse cx="20" cy="343.0117" fill="#84BE84" rx="3" ry="3" style="stroke:#038048;stroke-width:1.0;"/><text fill="#000000" font-family="sans-serif" font-size="11" lengthAdjust="spacing" textLength="522" x="29" y="346.6465">setProviderEvent(eventName: string, callback: Generic, uniqueId: string, saveEvent: boolean) : void</text><ellipse cx="20" cy="355.9668" fill="#84BE84" rx="3" ry="3" style="stroke:#038048;stroke-width:1.0;"/><text fill="#000000" font-family="sans-serif" font-size="11" lengthAdjust="spacing" textLength="208" x="29" y="359.6016">togglePopup(isEnabled: boolean) : void</text><ellipse cx="20" cy="368.9219" fill="#84BE84" rx="3" ry="3" style="stroke:#038048;stroke-width:1.0;"/><text fill="#000000" font-family="sans-serif" font-size="11" lengthAdjust="spacing" textLength="221" x="29" y="372.5566">unsetProviderEvent(eventId: string) : void</text><ellipse cx="20" cy="381.877" fill="#84BE84" rx="3" ry="3" style="stroke:#038048;stroke-width:1.0;"/><text fill="#000000" font-family="sans-serif" font-size="11" lengthAdjust="spacing" textLength="296" x="29" y="385.5117">updateProviderEvents(providerInfo: ProviderInfo) : void</text><ellipse cx="20" cy="394.832" fill="#84BE84" rx="3" ry="3" style="stroke:#038048;stroke-width:1.0;"/><text fill="#000000" font-family="sans-serif" font-size="11" lengthAdjust="spacing" textLength="318" x="29" y="398.4668">validation(isValid: boolean, validationMessage: string) : void</text><polygon fill="#FFFF44" points="20,402.7871,24,406.7871,20,410.7871,16,406.7871" style="stroke:#B38D22;stroke-width:1.0;"/><text fill="#000000" font-family="sans-serif" font-size="11" lengthAdjust="spacing" textLength="278" x="29" y="411.4219">createProviderInstance(triggerEvent: boolean) : void</text><polygon fill="#FFFF44" points="20,415.7422,24,419.7422,20,423.7422,16,419.7422" style="stroke:#B38D22;stroke-width:1.0;"/><text fill="#000000" font-family="sans-serif" font-size="11" lengthAdjust="spacing" textLength="96" x="29" y="424.377">finishBuild() : void</text><polygon fill="#FFFF44" points="20,428.6973,24,432.6973,20,436.6973,16,432.6973" style="stroke:#B38D22;stroke-width:1.0;"/><text fill="#000000" font-family="sans-serif" font-size="11" font-style="italic" lengthAdjust="spacing" textLength="203" x="29" y="437.332">getSelectedOptionsStructure() : string</text><polygon fill="#FFFF44" points="20,441.6523,24,445.6523,20,449.6523,16,445.6523" style="stroke:#B38D22;stroke-width:1.0;"/><text fill="#000000" font-family="sans-serif" font-size="11" font-style="italic" lengthAdjust="spacing" textLength="124" x="29" y="450.2871">prepareConfigs() : void</text><polygon fill="#FFFF44" points="20,454.6074,24,458.6074,20,462.6074,16,458.6074" style="stroke:#B38D22;stroke-width:1.0;"/><text fill="#000000" font-family="sans-serif" font-size="11" lengthAdjust="spacing" textLength="192" x="29" y="463.2422">redraw(triggerEvent: boolean) : void</text><polygon fill="#FFFF44" points="20,467.5625,24,471.5625,20,475.5625,16,471.5625" style="stroke:#B38D22;stroke-width:1.0;"/><text fill="#000000" font-family="sans-serif" font-size="11" lengthAdjust="spacing" textLength="107" x="29" y="476.1973">setCallbacks() : void</text><polygon fill="#FFFF44" points="20,480.5176,24,484.5176,20,488.5176,16,484.5176" style="stroke:#B38D22;stroke-width:1.0;"/><text fill="#000000" font-family="sans-serif" font-size="11" lengthAdjust="spacing" textLength="121" x="29" y="489.1523">unsetCallbacks() : void</text><rect fill="#F24D5C" height="6" style="stroke:#C82930;stroke-width:1.0;" width="6" x="17" y="495.4727"/><text fill="#000000" font-family="sans-serif" font-size="11" lengthAdjust="spacing" textLength="199" x="29" y="502.1074">_addErrorMessage(text: string) : void</text><rect fill="#F24D5C" height="6" style="stroke:#C82930;stroke-width:1.0;" width="6" x="17" y="508.4277"/><text fill="#000000" font-family="sans-serif" font-size="11" lengthAdjust="spacing" textLength="142" x="29" y="515.0625">_manageAttributes() : void</text><rect fill="#F24D5C" height="6" style="stroke:#C82930;stroke-width:1.0;" width="6" x="17" y="521.3828"/><text fill="#000000" font-family="sans-serif" font-size="11" lengthAdjust="spacing" textLength="160" x="29" y="528.0176">_manageDisableStatus() : void</text><rect fill="#F24D5C" height="6" style="stroke:#C82930;stroke-width:1.0;" width="6" x="17" y="534.3379"/><text fill="#000000" font-family="sans-serif" font-size="11" lengthAdjust="spacing" textLength="141" x="29" y="540.9727">_onSelectedOption() : void</text><rect fill="#F24D5C" height="6" style="stroke:#C82930;stroke-width:1.0;" width="6" x="17" y="547.293"/><text fill="#000000" font-family="sans-serif" font-size="11" lengthAdjust="spacing" textLength="114" x="29" y="553.9277">_setElementId() : void</text><rect fill="#F24D5C" height="6" style="stroke:#C82930;stroke-width:1.0;" width="6" x="17" y="560.248"/><text fill="#000000" font-family="sans-serif" font-size="11" lengthAdjust="spacing" textLength="112" x="29" y="566.8828">_setUpEvents() : void</text><rect fill="#F24D5C" height="6" style="stroke:#C82930;stroke-width:1.0;" width="6" x="17" y="573.2031"/><text fill="#000000" font-family="sans-serif" font-size="11" lengthAdjust="spacing" textLength="111" x="29" y="579.8379">_unsetEvents() : void</text><!--MD5=[b8f3110928025910bec79446a4c82e41]
reverse link AbstractVirtualSelect<VirtualSelectTagsConfig> to OSUIVirtualSelectTags--><path codeLine="83" d="M283,606.41 C283,619.66 283,632.85 283,645.85 " fill="none" id="AbstractVirtualSelect&lt;VirtualSelectTagsConfig&gt;-backto-OSUIVirtualSelectTags" style="stroke:#272B30;stroke-width:1.0;"/><polygon fill="none" points="276,606.27,283,586.27,290,606.27,276,606.27" style="stroke:#272B30;stroke-width:1.0;"/><!--MD5=[2c08a8306cb11b2f6ae6a8c1973f522c]
@startuml
skinparam ClassArrowColor #272b30
skinparam ClassBorderColor #272b30
skinparam ClassBackgroundColor #fff
skinparam BackgroundColor #ced4da
hide empty methods
hide empty fields
class "OSUIVirtualSelectTags" {
    #providerEventsManagerInstance : IProviderEventManager
    #_provider : any
    #_providerInfo : ProviderInfo
    #_selfElem : HTMLElement
    #_virtualselectMethods : VirtualSelectMethods
    #_virtualselectOpts : VirtualSelectOpts
    #_widgetId : string
    +build() : void
    +changeProperty(propertyName: string, propertyValue: unknown) : void
    +checkAddedProviderEvents() : void
    +checkPendingProviderEvents() : void
    +clear() : void
    +disable() : void
    +dispose() : void
    +enable() : void
    +equalsToID(patternId: string) : boolean
    +getSelectedValues() : string
    +registerCallback(eventName: string, callback: OSGeneric) : void
    +setProviderConfigs(newConfigs: VirtualSelectOpts) : void
    +setProviderEvent(eventName: string, callback: Generic, uniqueId: string, saveEvent: boolean) : void
    +togglePopup(isEnabled: boolean) : void
    +unsetProviderEvent(eventId: string) : void
    +updateProviderEvents(providerInfo: ProviderInfo) : void
    +validation(isValid: boolean, validationMessage: string) : void
    #createProviderInstance(triggerEvent: boolean) : void
    #finishBuild() : void
    #getSelectedOptionsStructure() : string
    #prepareConfigs(triggerEvent: boolean) : void
    #redraw(triggerEvent: boolean) : void
    #setCallbacks() : void
    #unsetCallbacks() : void
}
abstract class "AbstractVirtualSelect<VirtualSelectTagsConfig>" {
    #providerEventsManagerInstance : IProviderEventManager
    #_provider : any
    #_providerInfo : ProviderInfo
    #_selfElem : HTMLElement
    #_virtualselectMethods : VirtualSelectMethods
    #_virtualselectOpts : VirtualSelectOpts
    #_widgetId : string
    -_onSelectedOptionEvent : Generic
    -_platformEventInitializedCallback : OSGeneric
    -_platformEventSelectedOptCallback : OSOnSelectEvent
    +build() : void
    +changeProperty(propertyName: string, propertyValue: unknown) : void
    +checkAddedProviderEvents() : void
    +checkPendingProviderEvents() : void
    +clear() : void
    +disable() : void
    +dispose() : void
    +enable() : void
    +equalsToID(patternId: string) : boolean
    +getSelectedValues() : string
    +registerCallback(eventName: string, callback: OSGeneric) : void
    +setProviderConfigs(newConfigs: VirtualSelectOpts) : void
    +setProviderEvent(eventName: string, callback: Generic, uniqueId: string, saveEvent: boolean) : void
    +togglePopup(isEnabled: boolean) : void
    +unsetProviderEvent(eventId: string) : void
    +updateProviderEvents(providerInfo: ProviderInfo) : void
    +validation(isValid: boolean, validationMessage: string) : void
    #createProviderInstance(triggerEvent: boolean) : void
    #finishBuild() : void
    {abstract} #getSelectedOptionsStructure() : string
    {abstract} #prepareConfigs() : void
    #redraw(triggerEvent: boolean) : void
    #setCallbacks() : void
    #unsetCallbacks() : void
    -_addErrorMessage(text: string) : void
    -_manageAttributes() : void
    -_manageDisableStatus() : void
    -_onSelectedOption() : void
    -_setElementId() : void
    -_setUpEvents() : void
    -_unsetEvents() : void
}
"AbstractVirtualSelect<VirtualSelectTagsConfig>" <|- - "OSUIVirtualSelectTags"
@enduml

PlantUML version 1.2021.14(Fri Nov 12 16:46:50 WET 2021)
(GPL source distribution)
Java Runtime: Java(TM) SE Runtime Environment
JVM: Java HotSpot(TM) 64-Bit Server VM
Default Encoding: UTF-8
Language: en
Country: PT
--></g></svg>