<?xml version="1.0" encoding="us-ascii" standalone="no"?><svg xmlns="http://www.w3.org/2000/svg" xmlns:xlink="http://www.w3.org/1999/xlink" contentStyleType="text/css" height="724px" preserveAspectRatio="none" style="width:634px;height:724px;background:#CED4DA;" version="1.1" viewBox="0 0 634 724" width="634px" zoomAndPan="magnify"><defs/><g><rect fill="#CED4DA" height="724" style="stroke:none;stroke-width:1.0;" width="634" x="0" y="0"/><!--class ProgressCircleConfig--><g id="elem_ProgressCircleConfig"><rect codeLine="7" fill="#FFFFFF" height="325.0469" id="ProgressCircleConfig" rx="2.5" ry="2.5" style="stroke:#272B30;stroke-width:0.5;" width="618" x="9" y="392"/><ellipse cx="241.75" cy="408" fill="#ADD1B2" rx="11" ry="11" style="stroke:#181818;stroke-width:1.0;"/><path d="M244.7188,413.6406 Q244.1406,413.9375 243.5,414.0781 Q242.8594,414.2344 242.1563,414.2344 Q239.6563,414.2344 238.3281,412.5938 Q237.0156,410.9375 237.0156,407.8125 Q237.0156,404.6875 238.3281,403.0313 Q239.6563,401.375 242.1563,401.375 Q242.8594,401.375 243.5,401.5313 Q244.1563,401.6875 244.7188,401.9844 L244.7188,404.7031 Q244.0938,404.125 243.5,403.8594 Q242.9063,403.5781 242.2813,403.5781 Q240.9375,403.5781 240.25,404.6563 Q239.5625,405.7188 239.5625,407.8125 Q239.5625,409.9063 240.25,410.9844 Q240.9375,412.0469 242.2813,412.0469 Q242.9063,412.0469 243.5,411.7813 Q244.0938,411.5 244.7188,410.9219 L244.7188,413.6406 Z " fill="#000000"/><text fill="#000000" font-family="sans-serif" font-size="14" lengthAdjust="spacing" textLength="144" x="262.25" y="412.8467">ProgressCircleConfig</text><line style="stroke:#272B30;stroke-width:0.5;" x1="10" x2="626" y1="424" y2="424"/><ellipse cx="20" cy="437.6484" fill="none" rx="3" ry="3" style="stroke:#038048;stroke-width:1.0;"/><text fill="#000000" font-family="sans-serif" font-size="14" lengthAdjust="spacing" textLength="221" x="29" y="440.9951">AnimateInitialProgress : boolean</text><ellipse cx="20" cy="453.9453" fill="none" rx="3" ry="3" style="stroke:#038048;stroke-width:1.0;"/><text fill="#000000" font-family="sans-serif" font-size="14" lengthAdjust="spacing" textLength="155" x="29" y="457.292">ExtendedClass : string</text><ellipse cx="20" cy="470.2422" fill="none" rx="3" ry="3" style="stroke:#038048;stroke-width:1.0;"/><text fill="#000000" font-family="sans-serif" font-size="14" lengthAdjust="spacing" textLength="163" x="29" y="473.5889">InitialProgress : number</text><ellipse cx="20" cy="486.5391" fill="none" rx="3" ry="3" style="stroke:#038048;stroke-width:1.0;"/><text fill="#000000" font-family="sans-serif" font-size="14" lengthAdjust="spacing" textLength="129" x="29" y="489.8857">Progress : number</text><ellipse cx="20" cy="502.8359" fill="none" rx="3" ry="3" style="stroke:#038048;stroke-width:1.0;"/><text fill="#000000" font-family="sans-serif" font-size="14" lengthAdjust="spacing" textLength="181" x="29" y="506.1826">ProgressCircleSize : string</text><ellipse cx="20" cy="519.1328" fill="none" rx="3" ry="3" style="stroke:#038048;stroke-width:1.0;"/><text fill="#000000" font-family="sans-serif" font-size="14" lengthAdjust="spacing" textLength="150" x="29" y="522.4795">ProgressColor : string</text><ellipse cx="20" cy="535.4297" fill="none" rx="3" ry="3" style="stroke:#038048;stroke-width:1.0;"/><text fill="#000000" font-family="sans-serif" font-size="14" lengthAdjust="spacing" textLength="96" x="29" y="538.7764">Shape : string</text><ellipse cx="20" cy="551.7266" fill="none" rx="3" ry="3" style="stroke:#038048;stroke-width:1.0;"/><text fill="#000000" font-family="sans-serif" font-size="14" lengthAdjust="spacing" textLength="138" x="29" y="555.0732">Thickness : number</text><ellipse cx="20" cy="568.0234" fill="none" rx="3" ry="3" style="stroke:#038048;stroke-width:1.0;"/><text fill="#000000" font-family="sans-serif" font-size="14" lengthAdjust="spacing" textLength="116" x="29" y="571.3701">TrailColor : string</text><line style="stroke:#272B30;stroke-width:0.5;" x1="10" x2="626" y1="578.6719" y2="578.6719"/><ellipse cx="20" cy="592.3203" fill="#84BE84" rx="3" ry="3" style="stroke:#038048;stroke-width:1.0;"/><text fill="#000000" font-family="sans-serif" font-size="14" lengthAdjust="spacing" textLength="412" x="29" y="595.667">validateCanChange(_isBuilt: boolean, _key: string) : boolean</text><ellipse cx="20" cy="608.6172" fill="#84BE84" rx="3" ry="3" style="stroke:#038048;stroke-width:1.0;"/><text fill="#000000" font-family="sans-serif" font-size="14" lengthAdjust="spacing" textLength="384" x="29" y="611.9639">validateDefault(_key: string, value: unknown) : unknown</text><polygon fill="#FFFF44" points="20,619.9141,24,623.9141,20,627.9141,16,623.9141" style="stroke:#B38D22;stroke-width:1.0;"/><text fill="#000000" font-family="sans-serif" font-size="14" lengthAdjust="spacing" textLength="447" x="29" y="628.2607">validateBoolean(value: boolean, defaultValue: boolean) : boolean</text><polygon fill="#FFFF44" points="20,636.2109,24,640.2109,20,644.2109,16,640.2109" style="stroke:#B38D22;stroke-width:1.0;"/><text fill="#000000" font-family="sans-serif" font-size="14" lengthAdjust="spacing" textLength="464" x="29" y="644.5576">validateDate(value: string | Date, defaultValue: string) : string | Date</text><polygon fill="#FFFF44" points="20,652.5078,24,656.5078,20,660.5078,16,656.5078" style="stroke:#B38D22;stroke-width:1.0;"/><text fill="#000000" font-family="sans-serif" font-size="14" lengthAdjust="spacing" textLength="592" x="29" y="660.8545">validateInRange(value: unknown, defaultValue: unknown, args: unknown[]) : unknown</text><polygon fill="#FFFF44" points="20,668.8047,24,672.8047,20,676.8047,16,672.8047" style="stroke:#B38D22;stroke-width:1.0;"/><text fill="#000000" font-family="sans-serif" font-size="14" lengthAdjust="spacing" textLength="439" x="29" y="677.1514">validateNumber(value: number, defaultValue: number) : number</text><polygon fill="#FFFF44" points="20,685.1016,24,689.1016,20,693.1016,16,689.1016" style="stroke:#B38D22;stroke-width:1.0;"/><text fill="#000000" font-family="sans-serif" font-size="14" lengthAdjust="spacing" textLength="379" x="29" y="693.4482">validateString(value: string, defaultValue: string) : string</text><polygon fill="#FFFF44" points="20,701.3984,24,705.3984,20,709.3984,16,705.3984" style="stroke:#B38D22;stroke-width:1.0;"/><text fill="#000000" font-family="sans-serif" font-size="14" lengthAdjust="spacing" textLength="373" x="29" y="709.7451">validateTime(value: string, defaultValue: string) : string</text></g><!--class ProgressConfiguration--><g id="elem_ProgressConfiguration"><rect codeLine="26" fill="#FFFFFF" height="325.0469" id="ProgressConfiguration" rx="2.5" ry="2.5" style="stroke:#272B30;stroke-width:0.5;" width="618" x="9" y="7"/><ellipse cx="238.25" cy="23" fill="#A9DCDF" rx="11" ry="11" style="stroke:#181818;stroke-width:1.0;"/><path d="M238.3594,18.3438 L237.2031,23.4219 L239.5313,23.4219 L238.3594,18.3438 Z M236.875,16.1094 L239.8594,16.1094 L243.2188,28.5 L240.7656,28.5 L240,25.4375 L236.7188,25.4375 L235.9688,28.5 L233.5313,28.5 L236.875,16.1094 Z " fill="#000000"/><text fill="#000000" font-family="sans-serif" font-size="14" font-style="italic" lengthAdjust="spacing" textLength="151" x="258.75" y="27.8467">ProgressConfiguration</text><line style="stroke:#272B30;stroke-width:0.5;" x1="10" x2="626" y1="39" y2="39"/><ellipse cx="20" cy="52.6484" fill="none" rx="3" ry="3" style="stroke:#038048;stroke-width:1.0;"/><text fill="#000000" font-family="sans-serif" font-size="14" lengthAdjust="spacing" textLength="221" x="29" y="55.9951">AnimateInitialProgress : boolean</text><ellipse cx="20" cy="68.9453" fill="none" rx="3" ry="3" style="stroke:#038048;stroke-width:1.0;"/><text fill="#000000" font-family="sans-serif" font-size="14" lengthAdjust="spacing" textLength="155" x="29" y="72.292">ExtendedClass : string</text><ellipse cx="20" cy="85.2422" fill="none" rx="3" ry="3" style="stroke:#038048;stroke-width:1.0;"/><text fill="#000000" font-family="sans-serif" font-size="14" lengthAdjust="spacing" textLength="163" x="29" y="88.5889">InitialProgress : number</text><ellipse cx="20" cy="101.5391" fill="none" rx="3" ry="3" style="stroke:#038048;stroke-width:1.0;"/><text fill="#000000" font-family="sans-serif" font-size="14" lengthAdjust="spacing" textLength="129" x="29" y="104.8857">Progress : number</text><ellipse cx="20" cy="117.8359" fill="none" rx="3" ry="3" style="stroke:#038048;stroke-width:1.0;"/><text fill="#000000" font-family="sans-serif" font-size="14" lengthAdjust="spacing" textLength="181" x="29" y="121.1826">ProgressCircleSize : string</text><ellipse cx="20" cy="134.1328" fill="none" rx="3" ry="3" style="stroke:#038048;stroke-width:1.0;"/><text fill="#000000" font-family="sans-serif" font-size="14" lengthAdjust="spacing" textLength="150" x="29" y="137.4795">ProgressColor : string</text><ellipse cx="20" cy="150.4297" fill="none" rx="3" ry="3" style="stroke:#038048;stroke-width:1.0;"/><text fill="#000000" font-family="sans-serif" font-size="14" lengthAdjust="spacing" textLength="96" x="29" y="153.7764">Shape : string</text><ellipse cx="20" cy="166.7266" fill="none" rx="3" ry="3" style="stroke:#038048;stroke-width:1.0;"/><text fill="#000000" font-family="sans-serif" font-size="14" lengthAdjust="spacing" textLength="138" x="29" y="170.0732">Thickness : number</text><ellipse cx="20" cy="183.0234" fill="none" rx="3" ry="3" style="stroke:#038048;stroke-width:1.0;"/><text fill="#000000" font-family="sans-serif" font-size="14" lengthAdjust="spacing" textLength="116" x="29" y="186.3701">TrailColor : string</text><line style="stroke:#272B30;stroke-width:0.5;" x1="10" x2="626" y1="193.6719" y2="193.6719"/><ellipse cx="20" cy="207.3203" fill="#84BE84" rx="3" ry="3" style="stroke:#038048;stroke-width:1.0;"/><text fill="#000000" font-family="sans-serif" font-size="14" lengthAdjust="spacing" textLength="412" x="29" y="210.667">validateCanChange(_isBuilt: boolean, _key: string) : boolean</text><ellipse cx="20" cy="223.6172" fill="#84BE84" rx="3" ry="3" style="stroke:#038048;stroke-width:1.0;"/><text fill="#000000" font-family="sans-serif" font-size="14" lengthAdjust="spacing" textLength="384" x="29" y="226.9639">validateDefault(_key: string, value: unknown) : unknown</text><polygon fill="#FFFF44" points="20,234.9141,24,238.9141,20,242.9141,16,238.9141" style="stroke:#B38D22;stroke-width:1.0;"/><text fill="#000000" font-family="sans-serif" font-size="14" lengthAdjust="spacing" textLength="447" x="29" y="243.2607">validateBoolean(value: boolean, defaultValue: boolean) : boolean</text><polygon fill="#FFFF44" points="20,251.2109,24,255.2109,20,259.2109,16,255.2109" style="stroke:#B38D22;stroke-width:1.0;"/><text fill="#000000" font-family="sans-serif" font-size="14" lengthAdjust="spacing" textLength="464" x="29" y="259.5576">validateDate(value: string | Date, defaultValue: string) : string | Date</text><polygon fill="#FFFF44" points="20,267.5078,24,271.5078,20,275.5078,16,271.5078" style="stroke:#B38D22;stroke-width:1.0;"/><text fill="#000000" font-family="sans-serif" font-size="14" lengthAdjust="spacing" textLength="592" x="29" y="275.8545">validateInRange(value: unknown, defaultValue: unknown, args: unknown[]) : unknown</text><polygon fill="#FFFF44" points="20,283.8047,24,287.8047,20,291.8047,16,287.8047" style="stroke:#B38D22;stroke-width:1.0;"/><text fill="#000000" font-family="sans-serif" font-size="14" lengthAdjust="spacing" textLength="439" x="29" y="292.1514">validateNumber(value: number, defaultValue: number) : number</text><polygon fill="#FFFF44" points="20,300.1016,24,304.1016,20,308.1016,16,304.1016" style="stroke:#B38D22;stroke-width:1.0;"/><text fill="#000000" font-family="sans-serif" font-size="14" lengthAdjust="spacing" textLength="379" x="29" y="308.4482">validateString(value: string, defaultValue: string) : string</text><polygon fill="#FFFF44" points="20,316.3984,24,320.3984,20,324.3984,16,320.3984" style="stroke:#B38D22;stroke-width:1.0;"/><text fill="#000000" font-family="sans-serif" font-size="14" lengthAdjust="spacing" textLength="373" x="29" y="324.7451">validateTime(value: string, defaultValue: string) : string</text></g><!--reverse link ProgressConfiguration to ProgressCircleConfig--><g id="link_ProgressConfiguration_ProgressCircleConfig"><path codeLine="45" d="M318,350.09 C318,369.91 318,372.17 318,391.98 " fill="none" id="ProgressConfiguration-backto-ProgressCircleConfig" style="stroke:#272B30;stroke-width:1.0;"/><polygon fill="none" points="318,332.09,312,350.09,324,350.09,318,332.09" style="stroke:#272B30;stroke-width:1.0;"/></g><!--SRC=[xLLDIyD04BttLopsKh45KK4GBpPwy29YYnSHcMOdoP3DRDdT-Er_DyqsiPjQF-uD13PlthoTjyiZDYUUWu52H0giFJD6FqLQQIFw1yS7iyFzdWqPOsqacfyf4EUfqINB9Ir9aXNEMZb6UIIXbv54WSNSlOW2NQQbNOKIGbKXyM83iNDjT6hGseXCh33Id52w8zvwedhspfWAS7Z9v0XKGnKdOgQrGc3FkdXso19bFN9LjCuGfxwstifbCKFZgx_0VgO9lM97jINKjiFQ98Dvbp_DACvvVQEf0LBVYJo28bavZu2Z33Z5mGFPSKdAjTw7uY77bwPjjtieZS8v9b0gDrWb3qLLBV54b9opVk95yt9PD_URvh5N72pfxSxIYzu6S7U4LkMyUXi9Fu1u5mkmA_Hb9Q25QfTyKnz8QA4hrS9WKjj-tjrlj7fLNqkZwY-fA-hHtV0IMuL9FNDez3U7eSAK2lnd_qSFPjKIOYUwWQgZL1fmf7cRg6sYjedwOw8sHUZqVJJQyCFw1000]--></g></svg>