<?xml version="1.0" encoding="UTF-8" standalone="no"?><svg xmlns="http://www.w3.org/2000/svg" xmlns:xlink="http://www.w3.org/1999/xlink" contentScriptType="application/ecmascript" contentStyleType="text/css" height="835px" preserveAspectRatio="none" style="width:1076px;height:835px;background:#CED4DA;" version="1.1" viewBox="0 0 1076 835" width="1076px" zoomAndPan="magnify"><defs><filter height="300%" id="f19jsfwh8igxf5" width="300%" x="-1" y="-1"><feGaussianBlur result="blurOut" stdDeviation="2.0"/><feColorMatrix in="blurOut" result="blurOut2" type="matrix" values="0 0 0 0 0 0 0 0 0 0 0 0 0 0 0 0 0 0 .4 0"/><feOffset dx="4.0" dy="4.0" in="blurOut2" result="blurOut3"/><feBlend in="SourceGraphic" in2="blurOut3" mode="normal"/></filter></defs><g><!--MD5=[c29577ec2bfb93edeafb41f58554c075]
class ProgressConfiguration--><rect codeLine="7" fill="#FFFFFF" filter="url(#f19jsfwh8igxf5)" height="265.6797" id="ProgressConfiguration" style="stroke:#272B30;stroke-width:1.5;" width="509" x="281" y="230"/><ellipse cx="462.75" cy="246" fill="#A9DCDF" rx="11" ry="11" style="stroke:#272B30;stroke-width:1.0;"/><path d="M462.8594,241.3438 L461.7031,246.4219 L464.0313,246.4219 L462.8594,241.3438 Z M461.375,239.1094 L464.3594,239.1094 L467.7188,251.5 L465.2656,251.5 L464.5,248.4375 L461.2188,248.4375 L460.4688,251.5 L458.0313,251.5 L461.375,239.1094 Z " fill="#000000"/><text fill="#000000" font-family="sans-serif" font-size="12" font-style="italic" lengthAdjust="spacing" textLength="137" x="483.25" y="250.1543">ProgressConfiguration</text><line style="stroke:#272B30;stroke-width:1.5;" x1="282" x2="789" y1="262" y2="262"/><ellipse cx="292" cy="273" rx="3" ry="3" style="stroke:#038048;stroke-width:1.0;fill:none;"/><text fill="#000000" font-family="sans-serif" font-size="11" lengthAdjust="spacing" textLength="185" x="301" y="276.2104">AnimateInitialProgress : boolean</text><ellipse cx="292" cy="285.8047" rx="3" ry="3" style="stroke:#038048;stroke-width:1.0;fill:none;"/><text fill="#000000" font-family="sans-serif" font-size="11" lengthAdjust="spacing" textLength="129" x="301" y="289.0151">ExtendedClass : string</text><ellipse cx="292" cy="298.6094" rx="3" ry="3" style="stroke:#038048;stroke-width:1.0;fill:none;"/><text fill="#000000" font-family="sans-serif" font-size="11" lengthAdjust="spacing" textLength="138" x="301" y="301.8198">InitialProgress : number</text><ellipse cx="292" cy="311.4141" rx="3" ry="3" style="stroke:#038048;stroke-width:1.0;fill:none;"/><text fill="#000000" font-family="sans-serif" font-size="11" lengthAdjust="spacing" textLength="108" x="301" y="314.6245">Progress : number</text><ellipse cx="292" cy="324.2188" rx="3" ry="3" style="stroke:#038048;stroke-width:1.0;fill:none;"/><text fill="#000000" font-family="sans-serif" font-size="11" lengthAdjust="spacing" textLength="152" x="301" y="327.4292">ProgressCircleSize : string</text><ellipse cx="292" cy="337.0234" rx="3" ry="3" style="stroke:#038048;stroke-width:1.0;fill:none;"/><text fill="#000000" font-family="sans-serif" font-size="11" lengthAdjust="spacing" textLength="127" x="301" y="340.2339">ProgressColor : string</text><ellipse cx="292" cy="349.8281" rx="3" ry="3" style="stroke:#038048;stroke-width:1.0;fill:none;"/><text fill="#000000" font-family="sans-serif" font-size="11" lengthAdjust="spacing" textLength="81" x="301" y="353.0386">Shape : string</text><ellipse cx="292" cy="362.6328" rx="3" ry="3" style="stroke:#038048;stroke-width:1.0;fill:none;"/><text fill="#000000" font-family="sans-serif" font-size="11" lengthAdjust="spacing" textLength="113" x="301" y="365.8433">Thickness : number</text><ellipse cx="292" cy="375.4375" rx="3" ry="3" style="stroke:#038048;stroke-width:1.0;fill:none;"/><text fill="#000000" font-family="sans-serif" font-size="11" lengthAdjust="spacing" textLength="100" x="301" y="378.6479">TrailColor : string</text><line style="stroke:#272B30;stroke-width:1.5;" x1="282" x2="789" y1="385.2422" y2="385.2422"/><ellipse cx="292" cy="396.2422" fill="#84BE84" rx="3" ry="3" style="stroke:#038048;stroke-width:1.0;"/><text fill="#000000" font-family="sans-serif" font-size="11" lengthAdjust="spacing" textLength="342" x="301" y="399.4526">validateCanChange(_isBuilt: boolean, _key: string) : boolean</text><ellipse cx="292" cy="409.0469" fill="#84BE84" rx="3" ry="3" style="stroke:#038048;stroke-width:1.0;"/><text fill="#000000" font-family="sans-serif" font-size="11" lengthAdjust="spacing" textLength="316" x="301" y="412.2573">validateDefault(_key: string, value: unknown) : unknown</text><polygon fill="#FFFF44" points="292,416.8516,296,420.8516,292,424.8516,288,420.8516" style="stroke:#B38D22;stroke-width:1.0;"/><text fill="#000000" font-family="sans-serif" font-size="11" lengthAdjust="spacing" textLength="369" x="301" y="425.062">validateBoolean(value: boolean, defaultValue: boolean) : boolean</text><polygon fill="#FFFF44" points="292,429.6563,296,433.6563,292,437.6563,288,433.6563" style="stroke:#B38D22;stroke-width:1.0;"/><text fill="#000000" font-family="sans-serif" font-size="11" lengthAdjust="spacing" textLength="389" x="301" y="437.8667">validateDate(value: string | Date, defaultValue: string) : string | Date</text><polygon fill="#FFFF44" points="292,442.4609,296,446.4609,292,450.4609,288,446.4609" style="stroke:#B38D22;stroke-width:1.0;"/><text fill="#000000" font-family="sans-serif" font-size="11" lengthAdjust="spacing" textLength="483" x="301" y="450.6714">validateInRange(value: unknown, defaultValue: unknown, args: unknown[]) : unknown</text><polygon fill="#FFFF44" points="292,455.2656,296,459.2656,292,463.2656,288,459.2656" style="stroke:#B38D22;stroke-width:1.0;"/><text fill="#000000" font-family="sans-serif" font-size="11" lengthAdjust="spacing" textLength="365" x="301" y="463.4761">validateNumber(value: number, defaultValue: number) : number</text><polygon fill="#FFFF44" points="292,468.0703,296,472.0703,292,476.0703,288,472.0703" style="stroke:#B38D22;stroke-width:1.0;"/><text fill="#000000" font-family="sans-serif" font-size="11" lengthAdjust="spacing" textLength="321" x="301" y="476.2808">validateString(value: string, defaultValue: string) : string</text><polygon fill="#FFFF44" points="292,480.875,296,484.875,292,488.875,288,484.875" style="stroke:#B38D22;stroke-width:1.0;"/><text fill="#000000" font-family="sans-serif" font-size="11" lengthAdjust="spacing" textLength="315" x="301" y="489.0854">validateTime(value: string, defaultValue: string) : string</text><!--MD5=[cf034526073bc6863bceac2b0caf27a3]
class AbstractConfiguration--><rect codeLine="26" fill="#FFFFFF" filter="url(#f19jsfwh8igxf5)" height="163.2422" id="AbstractConfiguration" style="stroke:#272B30;stroke-width:1.5;" width="509" x="281" y="7"/><ellipse cx="463.25" cy="23" fill="#A9DCDF" rx="11" ry="11" style="stroke:#272B30;stroke-width:1.0;"/><path d="M463.3594,18.3438 L462.2031,23.4219 L464.5313,23.4219 L463.3594,18.3438 Z M461.875,16.1094 L464.8594,16.1094 L468.2188,28.5 L465.7656,28.5 L465,25.4375 L461.7188,25.4375 L460.9688,28.5 L458.5313,28.5 L461.875,16.1094 Z " fill="#000000"/><text fill="#000000" font-family="sans-serif" font-size="12" font-style="italic" lengthAdjust="spacing" textLength="136" x="483.75" y="27.1543">AbstractConfiguration</text><line style="stroke:#272B30;stroke-width:1.5;" x1="282" x2="789" y1="39" y2="39"/><ellipse cx="292" cy="50" rx="3" ry="3" style="stroke:#038048;stroke-width:1.0;fill:none;"/><text fill="#000000" font-family="sans-serif" font-size="11" lengthAdjust="spacing" textLength="129" x="301" y="53.2104">ExtendedClass : string</text><line style="stroke:#272B30;stroke-width:1.5;" x1="282" x2="789" y1="59.8047" y2="59.8047"/><ellipse cx="292" cy="70.8047" fill="#84BE84" rx="3" ry="3" style="stroke:#038048;stroke-width:1.0;"/><text fill="#000000" font-family="sans-serif" font-size="11" lengthAdjust="spacing" textLength="342" x="301" y="74.0151">validateCanChange(_isBuilt: boolean, _key: string) : boolean</text><ellipse cx="292" cy="83.6094" fill="#84BE84" rx="3" ry="3" style="stroke:#038048;stroke-width:1.0;"/><text fill="#000000" font-family="sans-serif" font-size="11" lengthAdjust="spacing" textLength="316" x="301" y="86.8198">validateDefault(_key: string, value: unknown) : unknown</text><polygon fill="#FFFF44" points="292,91.4141,296,95.4141,292,99.4141,288,95.4141" style="stroke:#B38D22;stroke-width:1.0;"/><text fill="#000000" font-family="sans-serif" font-size="11" lengthAdjust="spacing" textLength="369" x="301" y="99.6245">validateBoolean(value: boolean, defaultValue: boolean) : boolean</text><polygon fill="#FFFF44" points="292,104.2188,296,108.2188,292,112.2188,288,108.2188" style="stroke:#B38D22;stroke-width:1.0;"/><text fill="#000000" font-family="sans-serif" font-size="11" lengthAdjust="spacing" textLength="389" x="301" y="112.4292">validateDate(value: string | Date, defaultValue: string) : string | Date</text><polygon fill="#FFFF44" points="292,117.0234,296,121.0234,292,125.0234,288,121.0234" style="stroke:#B38D22;stroke-width:1.0;"/><text fill="#000000" font-family="sans-serif" font-size="11" lengthAdjust="spacing" textLength="483" x="301" y="125.2339">validateInRange(value: unknown, defaultValue: unknown, args: unknown[]) : unknown</text><polygon fill="#FFFF44" points="292,129.8281,296,133.8281,292,137.8281,288,133.8281" style="stroke:#B38D22;stroke-width:1.0;"/><text fill="#000000" font-family="sans-serif" font-size="11" lengthAdjust="spacing" textLength="365" x="301" y="138.0386">validateNumber(value: number, defaultValue: number) : number</text><polygon fill="#FFFF44" points="292,142.6328,296,146.6328,292,150.6328,288,146.6328" style="stroke:#B38D22;stroke-width:1.0;"/><text fill="#000000" font-family="sans-serif" font-size="11" lengthAdjust="spacing" textLength="321" x="301" y="150.8433">validateString(value: string, defaultValue: string) : string</text><polygon fill="#FFFF44" points="292,155.4375,296,159.4375,292,163.4375,288,159.4375" style="stroke:#B38D22;stroke-width:1.0;"/><text fill="#000000" font-family="sans-serif" font-size="11" lengthAdjust="spacing" textLength="315" x="301" y="163.6479">validateTime(value: string, defaultValue: string) : string</text><!--MD5=[60be731ec30f0cd045d0e82825a205a8]
class ProgressBarConfig--><rect codeLine="38" fill="#FFFFFF" filter="url(#f19jsfwh8igxf5)" height="265.6797" id="ProgressBarConfig" style="stroke:#272B30;stroke-width:1.5;" width="509" x="9" y="556"/><ellipse cx="201.25" cy="572" fill="#ADD1B2" rx="11" ry="11" style="stroke:#272B30;stroke-width:1.0;"/><path d="M204.2188,577.6406 Q203.6406,577.9375 203,578.0781 Q202.3594,578.2344 201.6563,578.2344 Q199.1563,578.2344 197.8281,576.5938 Q196.5156,574.9375 196.5156,571.8125 Q196.5156,568.6875 197.8281,567.0313 Q199.1563,565.375 201.6563,565.375 Q202.3594,565.375 203,565.5313 Q203.6563,565.6875 204.2188,565.9844 L204.2188,568.7031 Q203.5938,568.125 203,567.8594 Q202.4063,567.5781 201.7813,567.5781 Q200.4375,567.5781 199.75,568.6563 Q199.0625,569.7188 199.0625,571.8125 Q199.0625,573.9063 199.75,574.9844 Q200.4375,576.0469 201.7813,576.0469 Q202.4063,576.0469 203,575.7813 Q203.5938,575.5 204.2188,574.9219 L204.2188,577.6406 Z " fill="#000000"/><text fill="#000000" font-family="sans-serif" font-size="12" lengthAdjust="spacing" textLength="116" x="221.75" y="576.1543">ProgressBarConfig</text><line style="stroke:#272B30;stroke-width:1.5;" x1="10" x2="517" y1="588" y2="588"/><ellipse cx="20" cy="599" rx="3" ry="3" style="stroke:#038048;stroke-width:1.0;fill:none;"/><text fill="#000000" font-family="sans-serif" font-size="11" lengthAdjust="spacing" textLength="185" x="29" y="602.2104">AnimateInitialProgress : boolean</text><ellipse cx="20" cy="611.8047" rx="3" ry="3" style="stroke:#038048;stroke-width:1.0;fill:none;"/><text fill="#000000" font-family="sans-serif" font-size="11" lengthAdjust="spacing" textLength="129" x="29" y="615.0151">ExtendedClass : string</text><ellipse cx="20" cy="624.6094" rx="3" ry="3" style="stroke:#038048;stroke-width:1.0;fill:none;"/><text fill="#000000" font-family="sans-serif" font-size="11" lengthAdjust="spacing" textLength="138" x="29" y="627.8198">InitialProgress : number</text><ellipse cx="20" cy="637.4141" rx="3" ry="3" style="stroke:#038048;stroke-width:1.0;fill:none;"/><text fill="#000000" font-family="sans-serif" font-size="11" lengthAdjust="spacing" textLength="108" x="29" y="640.6245">Progress : number</text><ellipse cx="20" cy="650.2188" rx="3" ry="3" style="stroke:#038048;stroke-width:1.0;fill:none;"/><text fill="#000000" font-family="sans-serif" font-size="11" lengthAdjust="spacing" textLength="152" x="29" y="653.4292">ProgressCircleSize : string</text><ellipse cx="20" cy="663.0234" rx="3" ry="3" style="stroke:#038048;stroke-width:1.0;fill:none;"/><text fill="#000000" font-family="sans-serif" font-size="11" lengthAdjust="spacing" textLength="127" x="29" y="666.2339">ProgressColor : string</text><ellipse cx="20" cy="675.8281" rx="3" ry="3" style="stroke:#038048;stroke-width:1.0;fill:none;"/><text fill="#000000" font-family="sans-serif" font-size="11" lengthAdjust="spacing" textLength="81" x="29" y="679.0386">Shape : string</text><ellipse cx="20" cy="688.6328" rx="3" ry="3" style="stroke:#038048;stroke-width:1.0;fill:none;"/><text fill="#000000" font-family="sans-serif" font-size="11" lengthAdjust="spacing" textLength="113" x="29" y="691.8433">Thickness : number</text><ellipse cx="20" cy="701.4375" rx="3" ry="3" style="stroke:#038048;stroke-width:1.0;fill:none;"/><text fill="#000000" font-family="sans-serif" font-size="11" lengthAdjust="spacing" textLength="100" x="29" y="704.6479">TrailColor : string</text><line style="stroke:#272B30;stroke-width:1.5;" x1="10" x2="517" y1="711.2422" y2="711.2422"/><ellipse cx="20" cy="722.2422" fill="#84BE84" rx="3" ry="3" style="stroke:#038048;stroke-width:1.0;"/><text fill="#000000" font-family="sans-serif" font-size="11" lengthAdjust="spacing" textLength="342" x="29" y="725.4526">validateCanChange(_isBuilt: boolean, _key: string) : boolean</text><ellipse cx="20" cy="735.0469" fill="#84BE84" rx="3" ry="3" style="stroke:#038048;stroke-width:1.0;"/><text fill="#000000" font-family="sans-serif" font-size="11" lengthAdjust="spacing" textLength="316" x="29" y="738.2573">validateDefault(_key: string, value: unknown) : unknown</text><polygon fill="#FFFF44" points="20,742.8516,24,746.8516,20,750.8516,16,746.8516" style="stroke:#B38D22;stroke-width:1.0;"/><text fill="#000000" font-family="sans-serif" font-size="11" lengthAdjust="spacing" textLength="369" x="29" y="751.062">validateBoolean(value: boolean, defaultValue: boolean) : boolean</text><polygon fill="#FFFF44" points="20,755.6563,24,759.6563,20,763.6563,16,759.6563" style="stroke:#B38D22;stroke-width:1.0;"/><text fill="#000000" font-family="sans-serif" font-size="11" lengthAdjust="spacing" textLength="389" x="29" y="763.8667">validateDate(value: string | Date, defaultValue: string) : string | Date</text><polygon fill="#FFFF44" points="20,768.4609,24,772.4609,20,776.4609,16,772.4609" style="stroke:#B38D22;stroke-width:1.0;"/><text fill="#000000" font-family="sans-serif" font-size="11" lengthAdjust="spacing" textLength="483" x="29" y="776.6714">validateInRange(value: unknown, defaultValue: unknown, args: unknown[]) : unknown</text><polygon fill="#FFFF44" points="20,781.2656,24,785.2656,20,789.2656,16,785.2656" style="stroke:#B38D22;stroke-width:1.0;"/><text fill="#000000" font-family="sans-serif" font-size="11" lengthAdjust="spacing" textLength="365" x="29" y="789.4761">validateNumber(value: number, defaultValue: number) : number</text><polygon fill="#FFFF44" points="20,794.0703,24,798.0703,20,802.0703,16,798.0703" style="stroke:#B38D22;stroke-width:1.0;"/><text fill="#000000" font-family="sans-serif" font-size="11" lengthAdjust="spacing" textLength="321" x="29" y="802.2808">validateString(value: string, defaultValue: string) : string</text><polygon fill="#FFFF44" points="20,806.875,24,810.875,20,814.875,16,810.875" style="stroke:#B38D22;stroke-width:1.0;"/><text fill="#000000" font-family="sans-serif" font-size="11" lengthAdjust="spacing" textLength="315" x="29" y="815.0854">validateTime(value: string, defaultValue: string) : string</text><!--MD5=[9370eafe7b6c1b463805c9863f023ab7]
class ProgressCircleConfig--><rect codeLine="58" fill="#FFFFFF" filter="url(#f19jsfwh8igxf5)" height="265.6797" id="ProgressCircleConfig" style="stroke:#272B30;stroke-width:1.5;" width="509" x="553" y="556"/><ellipse cx="738.75" cy="572" fill="#ADD1B2" rx="11" ry="11" style="stroke:#272B30;stroke-width:1.0;"/><path d="M741.7188,577.6406 Q741.1406,577.9375 740.5,578.0781 Q739.8594,578.2344 739.1563,578.2344 Q736.6563,578.2344 735.3281,576.5938 Q734.0156,574.9375 734.0156,571.8125 Q734.0156,568.6875 735.3281,567.0313 Q736.6563,565.375 739.1563,565.375 Q739.8594,565.375 740.5,565.5313 Q741.1563,565.6875 741.7188,565.9844 L741.7188,568.7031 Q741.0938,568.125 740.5,567.8594 Q739.9063,567.5781 739.2813,567.5781 Q737.9375,567.5781 737.25,568.6563 Q736.5625,569.7188 736.5625,571.8125 Q736.5625,573.9063 737.25,574.9844 Q737.9375,576.0469 739.2813,576.0469 Q739.9063,576.0469 740.5,575.7813 Q741.0938,575.5 741.7188,574.9219 L741.7188,577.6406 Z " fill="#000000"/><text fill="#000000" font-family="sans-serif" font-size="12" lengthAdjust="spacing" textLength="129" x="759.25" y="576.1543">ProgressCircleConfig</text><line style="stroke:#272B30;stroke-width:1.5;" x1="554" x2="1061" y1="588" y2="588"/><ellipse cx="564" cy="599" rx="3" ry="3" style="stroke:#038048;stroke-width:1.0;fill:none;"/><text fill="#000000" font-family="sans-serif" font-size="11" lengthAdjust="spacing" textLength="185" x="573" y="602.2104">AnimateInitialProgress : boolean</text><ellipse cx="564" cy="611.8047" rx="3" ry="3" style="stroke:#038048;stroke-width:1.0;fill:none;"/><text fill="#000000" font-family="sans-serif" font-size="11" lengthAdjust="spacing" textLength="129" x="573" y="615.0151">ExtendedClass : string</text><ellipse cx="564" cy="624.6094" rx="3" ry="3" style="stroke:#038048;stroke-width:1.0;fill:none;"/><text fill="#000000" font-family="sans-serif" font-size="11" lengthAdjust="spacing" textLength="138" x="573" y="627.8198">InitialProgress : number</text><ellipse cx="564" cy="637.4141" rx="3" ry="3" style="stroke:#038048;stroke-width:1.0;fill:none;"/><text fill="#000000" font-family="sans-serif" font-size="11" lengthAdjust="spacing" textLength="108" x="573" y="640.6245">Progress : number</text><ellipse cx="564" cy="650.2188" rx="3" ry="3" style="stroke:#038048;stroke-width:1.0;fill:none;"/><text fill="#000000" font-family="sans-serif" font-size="11" lengthAdjust="spacing" textLength="152" x="573" y="653.4292">ProgressCircleSize : string</text><ellipse cx="564" cy="663.0234" rx="3" ry="3" style="stroke:#038048;stroke-width:1.0;fill:none;"/><text fill="#000000" font-family="sans-serif" font-size="11" lengthAdjust="spacing" textLength="127" x="573" y="666.2339">ProgressColor : string</text><ellipse cx="564" cy="675.8281" rx="3" ry="3" style="stroke:#038048;stroke-width:1.0;fill:none;"/><text fill="#000000" font-family="sans-serif" font-size="11" lengthAdjust="spacing" textLength="81" x="573" y="679.0386">Shape : string</text><ellipse cx="564" cy="688.6328" rx="3" ry="3" style="stroke:#038048;stroke-width:1.0;fill:none;"/><text fill="#000000" font-family="sans-serif" font-size="11" lengthAdjust="spacing" textLength="113" x="573" y="691.8433">Thickness : number</text><ellipse cx="564" cy="701.4375" rx="3" ry="3" style="stroke:#038048;stroke-width:1.0;fill:none;"/><text fill="#000000" font-family="sans-serif" font-size="11" lengthAdjust="spacing" textLength="100" x="573" y="704.6479">TrailColor : string</text><line style="stroke:#272B30;stroke-width:1.5;" x1="554" x2="1061" y1="711.2422" y2="711.2422"/><ellipse cx="564" cy="722.2422" fill="#84BE84" rx="3" ry="3" style="stroke:#038048;stroke-width:1.0;"/><text fill="#000000" font-family="sans-serif" font-size="11" lengthAdjust="spacing" textLength="342" x="573" y="725.4526">validateCanChange(_isBuilt: boolean, _key: string) : boolean</text><ellipse cx="564" cy="735.0469" fill="#84BE84" rx="3" ry="3" style="stroke:#038048;stroke-width:1.0;"/><text fill="#000000" font-family="sans-serif" font-size="11" lengthAdjust="spacing" textLength="316" x="573" y="738.2573">validateDefault(_key: string, value: unknown) : unknown</text><polygon fill="#FFFF44" points="564,742.8516,568,746.8516,564,750.8516,560,746.8516" style="stroke:#B38D22;stroke-width:1.0;"/><text fill="#000000" font-family="sans-serif" font-size="11" lengthAdjust="spacing" textLength="369" x="573" y="751.062">validateBoolean(value: boolean, defaultValue: boolean) : boolean</text><polygon fill="#FFFF44" points="564,755.6563,568,759.6563,564,763.6563,560,759.6563" style="stroke:#B38D22;stroke-width:1.0;"/><text fill="#000000" font-family="sans-serif" font-size="11" lengthAdjust="spacing" textLength="389" x="573" y="763.8667">validateDate(value: string | Date, defaultValue: string) : string | Date</text><polygon fill="#FFFF44" points="564,768.4609,568,772.4609,564,776.4609,560,772.4609" style="stroke:#B38D22;stroke-width:1.0;"/><text fill="#000000" font-family="sans-serif" font-size="11" lengthAdjust="spacing" textLength="483" x="573" y="776.6714">validateInRange(value: unknown, defaultValue: unknown, args: unknown[]) : unknown</text><polygon fill="#FFFF44" points="564,781.2656,568,785.2656,564,789.2656,560,785.2656" style="stroke:#B38D22;stroke-width:1.0;"/><text fill="#000000" font-family="sans-serif" font-size="11" lengthAdjust="spacing" textLength="365" x="573" y="789.4761">validateNumber(value: number, defaultValue: number) : number</text><polygon fill="#FFFF44" points="564,794.0703,568,798.0703,564,802.0703,560,798.0703" style="stroke:#B38D22;stroke-width:1.0;"/><text fill="#000000" font-family="sans-serif" font-size="11" lengthAdjust="spacing" textLength="321" x="573" y="802.2808">validateString(value: string, defaultValue: string) : string</text><polygon fill="#FFFF44" points="564,806.875,568,810.875,564,814.875,560,810.875" style="stroke:#B38D22;stroke-width:1.0;"/><text fill="#000000" font-family="sans-serif" font-size="11" lengthAdjust="spacing" textLength="315" x="573" y="815.0854">validateTime(value: string, defaultValue: string) : string</text><!--MD5=[d7f8d5b1581ee442e187445bcdbe2f29]
reverse link AbstractConfiguration to ProgressConfiguration--><path codeLine="37" d="M535.5,190.57 C535.5,203.41 535.5,216.71 535.5,229.95 " fill="none" id="AbstractConfiguration-backto-ProgressConfiguration" style="stroke:#272B30;stroke-width:1.0;"/><polygon fill="none" points="528.5,190.15,535.5,170.15,542.5,190.15,528.5,190.15" style="stroke:#272B30;stroke-width:1.0;"/><!--MD5=[b61f46a88010e288eb3171b205053db3]
reverse link ProgressConfiguration to ProgressBarConfig--><path codeLine="57" d="M411.61,511.58 C399.2,526.36 386.65,541.3 374.39,555.91 " fill="none" id="ProgressConfiguration-backto-ProgressBarConfig" style="stroke:#272B30;stroke-width:1.0;"/><polygon fill="none" points="406.25,507.07,424.47,496.25,416.98,516.07,406.25,507.07" style="stroke:#272B30;stroke-width:1.0;"/><!--MD5=[8918179054f5a012a43e7086bc674744]
reverse link ProgressConfiguration to ProgressCircleConfig--><path codeLine="77" d="M659.39,511.58 C671.8,526.36 684.35,541.3 696.61,555.91 " fill="none" id="ProgressConfiguration-backto-ProgressCircleConfig" style="stroke:#272B30;stroke-width:1.0;"/><polygon fill="none" points="654.02,516.07,646.53,496.25,664.75,507.07,654.02,516.07" style="stroke:#272B30;stroke-width:1.0;"/><!--MD5=[f12521a41c654bab8c51c43d59e7e8bb]
@startuml
skinparam ClassArrowColor #272b30
skinparam ClassBorderColor #272b30
skinparam ClassBackgroundColor #fff
skinparam BackgroundColor #ced4da
hide empty methods
hide empty fields
abstract class "ProgressConfiguration" {
    +AnimateInitialProgress : boolean
    +ExtendedClass : string
    +InitialProgress : number
    +Progress : number
    +ProgressCircleSize : string
    +ProgressColor : string
    +Shape : string
    +Thickness : number
    +TrailColor : string
    +validateCanChange(_isBuilt: boolean, _key: string) : boolean
    +validateDefault(_key: string, value: unknown) : unknown
    #validateBoolean(value: boolean, defaultValue: boolean) : boolean
    #validateDate(value: string | Date, defaultValue: string) : string | Date
    #validateInRange(value: unknown, defaultValue: unknown, args: unknown[]) : unknown
    #validateNumber(value: number, defaultValue: number) : number
    #validateString(value: string, defaultValue: string) : string
    #validateTime(value: string, defaultValue: string) : string
}
abstract class "AbstractConfiguration" {
    +ExtendedClass : string
    +validateCanChange(_isBuilt: boolean, _key: string) : boolean
    +validateDefault(_key: string, value: unknown) : unknown
    #validateBoolean(value: boolean, defaultValue: boolean) : boolean
    #validateDate(value: string | Date, defaultValue: string) : string | Date
    #validateInRange(value: unknown, defaultValue: unknown, args: unknown[]) : unknown
    #validateNumber(value: number, defaultValue: number) : number
    #validateString(value: string, defaultValue: string) : string
    #validateTime(value: string, defaultValue: string) : string
}
"AbstractConfiguration" <|- - "ProgressConfiguration"
class "ProgressBarConfig" {
    +AnimateInitialProgress : boolean
    +ExtendedClass : string
    +InitialProgress : number
    +Progress : number
    +ProgressCircleSize : string
    +ProgressColor : string
    +Shape : string
    +Thickness : number
    +TrailColor : string
    +validateCanChange(_isBuilt: boolean, _key: string) : boolean
    +validateDefault(_key: string, value: unknown) : unknown
    #validateBoolean(value: boolean, defaultValue: boolean) : boolean
    #validateDate(value: string | Date, defaultValue: string) : string | Date
    #validateInRange(value: unknown, defaultValue: unknown, args: unknown[]) : unknown
    #validateNumber(value: number, defaultValue: number) : number
    #validateString(value: string, defaultValue: string) : string
    #validateTime(value: string, defaultValue: string) : string
}
"ProgressConfiguration" <|- - "ProgressBarConfig"
class "ProgressCircleConfig" {
    +AnimateInitialProgress : boolean
    +ExtendedClass : string
    +InitialProgress : number
    +Progress : number
    +ProgressCircleSize : string
    +ProgressColor : string
    +Shape : string
    +Thickness : number
    +TrailColor : string
    +validateCanChange(_isBuilt: boolean, _key: string) : boolean
    +validateDefault(_key: string, value: unknown) : unknown
    #validateBoolean(value: boolean, defaultValue: boolean) : boolean
    #validateDate(value: string | Date, defaultValue: string) : string | Date
    #validateInRange(value: unknown, defaultValue: unknown, args: unknown[]) : unknown
    #validateNumber(value: number, defaultValue: number) : number
    #validateString(value: string, defaultValue: string) : string
    #validateTime(value: string, defaultValue: string) : string
}
"ProgressConfiguration" <|- - "ProgressCircleConfig"
@enduml

PlantUML version 1.2021.14(Fri Nov 12 16:46:50 UTC 2021)
(GPL source distribution)
Java Runtime: OpenJDK Runtime Environment
JVM: OpenJDK 64-Bit Server VM
Default Encoding: UTF-8
Language: en
Country: null
--></g></svg>