<?xml version="1.0" encoding="UTF-8" standalone="no"?><svg xmlns="http://www.w3.org/2000/svg" xmlns:xlink="http://www.w3.org/1999/xlink" contentScriptType="application/ecmascript" contentStyleType="text/css" height="617px" preserveAspectRatio="none" style="width:502px;height:617px;background:#CED4DA;" version="1.1" viewBox="0 0 502 617" width="502px" zoomAndPan="magnify"><defs><filter height="300%" id="f1m4jxfua6ry2a" width="300%" x="-1" y="-1"><feGaussianBlur result="blurOut" stdDeviation="2.0"/><feColorMatrix in="blurOut" result="blurOut2" type="matrix" values="0 0 0 0 0 0 0 0 0 0 0 0 0 0 0 0 0 0 .4 0"/><feOffset dx="4.0" dy="4.0" in="blurOut2" result="blurOut3"/><feBlend in="SourceGraphic" in2="blurOut3" mode="normal"/></filter></defs><g><!--MD5=[9370eafe7b6c1b463805c9863f023ab7]
class ProgressCircleConfig--><rect codeLine="7" fill="#FFFFFF" filter="url(#f1m4jxfua6ry2a)" height="268.2363" id="ProgressCircleConfig" style="stroke:#272B30;stroke-width:1.5;" width="479" x="9" y="335"/><ellipse cx="185.25" cy="351" fill="#ADD1B2" rx="11" ry="11" style="stroke:#272B30;stroke-width:1.0;"/><path d="M187.7231,357.1431 Q187.1421,357.4419 186.5029,357.5913 Q185.8638,357.7407 185.1582,357.7407 Q182.6514,357.7407 181.3315,356.0889 Q180.0117,354.437 180.0117,351.3159 Q180.0117,348.1865 181.3315,346.5347 Q182.6514,344.8828 185.1582,344.8828 Q185.8638,344.8828 186.5112,345.0322 Q187.1587,345.1816 187.7231,345.4805 L187.7231,348.2031 Q187.0923,347.6221 186.4988,347.3523 Q185.9053,347.0825 185.2744,347.0825 Q183.9297,347.0825 183.2449,348.1492 Q182.5601,349.2158 182.5601,351.3159 Q182.5601,353.4077 183.2449,354.4744 Q183.9297,355.541 185.2744,355.541 Q185.9053,355.541 186.4988,355.2712 Q187.0923,355.0015 187.7231,354.4204 Z " fill="#000000"/><text fill="#000000" font-family="sans-serif" font-size="12" lengthAdjust="spacing" textLength="118" x="205.75" y="355.5352">ProgressCircleConfig</text><line style="stroke:#272B30;stroke-width:1.5;" x1="10" x2="487" y1="367" y2="367"/><ellipse cx="20" cy="378" rx="3" ry="3" style="stroke:#038048;stroke-width:1.0;fill:none;"/><text fill="#000000" font-family="sans-serif" font-size="11" lengthAdjust="spacing" textLength="173" x="29" y="381.6348">AnimateInitialProgress : boolean</text><ellipse cx="20" cy="390.9551" rx="3" ry="3" style="stroke:#038048;stroke-width:1.0;fill:none;"/><text fill="#000000" font-family="sans-serif" font-size="11" lengthAdjust="spacing" textLength="120" x="29" y="394.5898">ExtendedClass : string</text><ellipse cx="20" cy="403.9102" rx="3" ry="3" style="stroke:#038048;stroke-width:1.0;fill:none;"/><text fill="#000000" font-family="sans-serif" font-size="11" lengthAdjust="spacing" textLength="128" x="29" y="407.5449">InitialProgress : number</text><ellipse cx="20" cy="416.8652" rx="3" ry="3" style="stroke:#038048;stroke-width:1.0;fill:none;"/><text fill="#000000" font-family="sans-serif" font-size="11" lengthAdjust="spacing" textLength="99" x="29" y="420.5">Progress : number</text><ellipse cx="20" cy="429.8203" rx="3" ry="3" style="stroke:#038048;stroke-width:1.0;fill:none;"/><text fill="#000000" font-family="sans-serif" font-size="11" lengthAdjust="spacing" textLength="141" x="29" y="433.4551">ProgressCircleSize : string</text><ellipse cx="20" cy="442.7754" rx="3" ry="3" style="stroke:#038048;stroke-width:1.0;fill:none;"/><text fill="#000000" font-family="sans-serif" font-size="11" lengthAdjust="spacing" textLength="119" x="29" y="446.4102">ProgressColor : string</text><ellipse cx="20" cy="455.7305" rx="3" ry="3" style="stroke:#038048;stroke-width:1.0;fill:none;"/><text fill="#000000" font-family="sans-serif" font-size="11" lengthAdjust="spacing" textLength="73" x="29" y="459.3652">Shape : string</text><ellipse cx="20" cy="468.6855" rx="3" ry="3" style="stroke:#038048;stroke-width:1.0;fill:none;"/><text fill="#000000" font-family="sans-serif" font-size="11" lengthAdjust="spacing" textLength="105" x="29" y="472.3203">Thickness : number</text><ellipse cx="20" cy="481.6406" rx="3" ry="3" style="stroke:#038048;stroke-width:1.0;fill:none;"/><text fill="#000000" font-family="sans-serif" font-size="11" lengthAdjust="spacing" textLength="95" x="29" y="485.2754">TrailColor : string</text><line style="stroke:#272B30;stroke-width:1.5;" x1="10" x2="487" y1="491.5957" y2="491.5957"/><ellipse cx="20" cy="502.5957" fill="#84BE84" rx="3" ry="3" style="stroke:#038048;stroke-width:1.0;"/><text fill="#000000" font-family="sans-serif" font-size="11" lengthAdjust="spacing" textLength="318" x="29" y="506.2305">validateCanChange(_isBuilt: boolean, _key: string) : boolean</text><ellipse cx="20" cy="515.5508" fill="#84BE84" rx="3" ry="3" style="stroke:#038048;stroke-width:1.0;"/><text fill="#000000" font-family="sans-serif" font-size="11" lengthAdjust="spacing" textLength="296" x="29" y="519.1855">validateDefault(_key: string, value: unknown) : unknown</text><polygon fill="#FFFF44" points="20,523.5059,24,527.5059,20,531.5059,16,527.5059" style="stroke:#B38D22;stroke-width:1.0;"/><text fill="#000000" font-family="sans-serif" font-size="11" lengthAdjust="spacing" textLength="341" x="29" y="532.1406">validateBoolean(value: boolean, defaultValue: boolean) : boolean</text><polygon fill="#FFFF44" points="20,536.4609,24,540.4609,20,544.4609,16,540.4609" style="stroke:#B38D22;stroke-width:1.0;"/><text fill="#000000" font-family="sans-serif" font-size="11" lengthAdjust="spacing" textLength="358" x="29" y="545.0957">validateDate(value: string | Date, defaultValue: string) : string | Date</text><polygon fill="#FFFF44" points="20,549.416,24,553.416,20,557.416,16,553.416" style="stroke:#B38D22;stroke-width:1.0;"/><text fill="#000000" font-family="sans-serif" font-size="11" lengthAdjust="spacing" textLength="453" x="29" y="558.0508">validateInRange(value: unknown, defaultValue: unknown, args: unknown[]) : unknown</text><polygon fill="#FFFF44" points="20,562.3711,24,566.3711,20,570.3711,16,566.3711" style="stroke:#B38D22;stroke-width:1.0;"/><text fill="#000000" font-family="sans-serif" font-size="11" lengthAdjust="spacing" textLength="339" x="29" y="571.0059">validateNumber(value: number, defaultValue: number) : number</text><polygon fill="#FFFF44" points="20,575.3262,24,579.3262,20,583.3262,16,579.3262" style="stroke:#B38D22;stroke-width:1.0;"/><text fill="#000000" font-family="sans-serif" font-size="11" lengthAdjust="spacing" textLength="298" x="29" y="583.9609">validateString(value: string, defaultValue: string) : string</text><polygon fill="#FFFF44" points="20,588.2813,24,592.2813,20,596.2813,16,592.2813" style="stroke:#B38D22;stroke-width:1.0;"/><text fill="#000000" font-family="sans-serif" font-size="11" lengthAdjust="spacing" textLength="292" x="29" y="596.916">validateTime(value: string, defaultValue: string) : string</text><!--MD5=[c29577ec2bfb93edeafb41f58554c075]
class ProgressConfiguration--><rect codeLine="26" fill="#FFFFFF" filter="url(#f1m4jxfua6ry2a)" height="268.2363" id="ProgressConfiguration" style="stroke:#272B30;stroke-width:1.5;" width="479" x="9" y="7"/><ellipse cx="181.25" cy="23" fill="#A9DCDF" rx="11" ry="11" style="stroke:#272B30;stroke-width:1.0;"/><path d="M181.1133,18.3481 L179.9595,23.4199 L182.2754,23.4199 Z M179.6191,16.1069 L182.6157,16.1069 L185.9609,28.5 L183.5122,28.5 L182.7485,25.437 L179.4697,25.437 L178.7227,28.5 L176.2739,28.5 Z " fill="#000000"/><text fill="#000000" font-family="sans-serif" font-size="12" font-style="italic" lengthAdjust="spacing" textLength="126" x="201.75" y="27.5352">ProgressConfiguration</text><line style="stroke:#272B30;stroke-width:1.5;" x1="10" x2="487" y1="39" y2="39"/><ellipse cx="20" cy="50" rx="3" ry="3" style="stroke:#038048;stroke-width:1.0;fill:none;"/><text fill="#000000" font-family="sans-serif" font-size="11" lengthAdjust="spacing" textLength="173" x="29" y="53.6348">AnimateInitialProgress : boolean</text><ellipse cx="20" cy="62.9551" rx="3" ry="3" style="stroke:#038048;stroke-width:1.0;fill:none;"/><text fill="#000000" font-family="sans-serif" font-size="11" lengthAdjust="spacing" textLength="120" x="29" y="66.5898">ExtendedClass : string</text><ellipse cx="20" cy="75.9102" rx="3" ry="3" style="stroke:#038048;stroke-width:1.0;fill:none;"/><text fill="#000000" font-family="sans-serif" font-size="11" lengthAdjust="spacing" textLength="128" x="29" y="79.5449">InitialProgress : number</text><ellipse cx="20" cy="88.8652" rx="3" ry="3" style="stroke:#038048;stroke-width:1.0;fill:none;"/><text fill="#000000" font-family="sans-serif" font-size="11" lengthAdjust="spacing" textLength="99" x="29" y="92.5">Progress : number</text><ellipse cx="20" cy="101.8203" rx="3" ry="3" style="stroke:#038048;stroke-width:1.0;fill:none;"/><text fill="#000000" font-family="sans-serif" font-size="11" lengthAdjust="spacing" textLength="141" x="29" y="105.4551">ProgressCircleSize : string</text><ellipse cx="20" cy="114.7754" rx="3" ry="3" style="stroke:#038048;stroke-width:1.0;fill:none;"/><text fill="#000000" font-family="sans-serif" font-size="11" lengthAdjust="spacing" textLength="119" x="29" y="118.4102">ProgressColor : string</text><ellipse cx="20" cy="127.7305" rx="3" ry="3" style="stroke:#038048;stroke-width:1.0;fill:none;"/><text fill="#000000" font-family="sans-serif" font-size="11" lengthAdjust="spacing" textLength="73" x="29" y="131.3652">Shape : string</text><ellipse cx="20" cy="140.6855" rx="3" ry="3" style="stroke:#038048;stroke-width:1.0;fill:none;"/><text fill="#000000" font-family="sans-serif" font-size="11" lengthAdjust="spacing" textLength="105" x="29" y="144.3203">Thickness : number</text><ellipse cx="20" cy="153.6406" rx="3" ry="3" style="stroke:#038048;stroke-width:1.0;fill:none;"/><text fill="#000000" font-family="sans-serif" font-size="11" lengthAdjust="spacing" textLength="95" x="29" y="157.2754">TrailColor : string</text><line style="stroke:#272B30;stroke-width:1.5;" x1="10" x2="487" y1="163.5957" y2="163.5957"/><ellipse cx="20" cy="174.5957" fill="#84BE84" rx="3" ry="3" style="stroke:#038048;stroke-width:1.0;"/><text fill="#000000" font-family="sans-serif" font-size="11" lengthAdjust="spacing" textLength="318" x="29" y="178.2305">validateCanChange(_isBuilt: boolean, _key: string) : boolean</text><ellipse cx="20" cy="187.5508" fill="#84BE84" rx="3" ry="3" style="stroke:#038048;stroke-width:1.0;"/><text fill="#000000" font-family="sans-serif" font-size="11" lengthAdjust="spacing" textLength="296" x="29" y="191.1855">validateDefault(_key: string, value: unknown) : unknown</text><polygon fill="#FFFF44" points="20,195.5059,24,199.5059,20,203.5059,16,199.5059" style="stroke:#B38D22;stroke-width:1.0;"/><text fill="#000000" font-family="sans-serif" font-size="11" lengthAdjust="spacing" textLength="341" x="29" y="204.1406">validateBoolean(value: boolean, defaultValue: boolean) : boolean</text><polygon fill="#FFFF44" points="20,208.4609,24,212.4609,20,216.4609,16,212.4609" style="stroke:#B38D22;stroke-width:1.0;"/><text fill="#000000" font-family="sans-serif" font-size="11" lengthAdjust="spacing" textLength="358" x="29" y="217.0957">validateDate(value: string | Date, defaultValue: string) : string | Date</text><polygon fill="#FFFF44" points="20,221.416,24,225.416,20,229.416,16,225.416" style="stroke:#B38D22;stroke-width:1.0;"/><text fill="#000000" font-family="sans-serif" font-size="11" lengthAdjust="spacing" textLength="453" x="29" y="230.0508">validateInRange(value: unknown, defaultValue: unknown, args: unknown[]) : unknown</text><polygon fill="#FFFF44" points="20,234.3711,24,238.3711,20,242.3711,16,238.3711" style="stroke:#B38D22;stroke-width:1.0;"/><text fill="#000000" font-family="sans-serif" font-size="11" lengthAdjust="spacing" textLength="339" x="29" y="243.0059">validateNumber(value: number, defaultValue: number) : number</text><polygon fill="#FFFF44" points="20,247.3262,24,251.3262,20,255.3262,16,251.3262" style="stroke:#B38D22;stroke-width:1.0;"/><text fill="#000000" font-family="sans-serif" font-size="11" lengthAdjust="spacing" textLength="298" x="29" y="255.9609">validateString(value: string, defaultValue: string) : string</text><polygon fill="#FFFF44" points="20,260.2813,24,264.2813,20,268.2813,16,264.2813" style="stroke:#B38D22;stroke-width:1.0;"/><text fill="#000000" font-family="sans-serif" font-size="11" lengthAdjust="spacing" textLength="292" x="29" y="268.916">validateTime(value: string, defaultValue: string) : string</text><!--MD5=[8918179054f5a012a43e7086bc674744]
reverse link ProgressConfiguration to ProgressCircleConfig--><path codeLine="45" d="M248.5,295.1 C248.5,308.37 248.5,321.73 248.5,334.83 " fill="none" id="ProgressConfiguration-backto-ProgressCircleConfig" style="stroke:#272B30;stroke-width:1.0;"/><polygon fill="none" points="241.5,295.07,248.5,275.07,255.5,295.07,241.5,295.07" style="stroke:#272B30;stroke-width:1.0;"/><!--MD5=[9dd376450cea41191c6079ef28d40ebd]
@startuml
skinparam ClassArrowColor #272b30
skinparam ClassBorderColor #272b30
skinparam ClassBackgroundColor #fff
skinparam BackgroundColor #ced4da
hide empty methods
hide empty fields
class "ProgressCircleConfig" {
    +AnimateInitialProgress : boolean
    +ExtendedClass : string
    +InitialProgress : number
    +Progress : number
    +ProgressCircleSize : string
    +ProgressColor : string
    +Shape : string
    +Thickness : number
    +TrailColor : string
    +validateCanChange(_isBuilt: boolean, _key: string) : boolean
    +validateDefault(_key: string, value: unknown) : unknown
    #validateBoolean(value: boolean, defaultValue: boolean) : boolean
    #validateDate(value: string | Date, defaultValue: string) : string | Date
    #validateInRange(value: unknown, defaultValue: unknown, args: unknown[]) : unknown
    #validateNumber(value: number, defaultValue: number) : number
    #validateString(value: string, defaultValue: string) : string
    #validateTime(value: string, defaultValue: string) : string
}
abstract class "ProgressConfiguration" {
    +AnimateInitialProgress : boolean
    +ExtendedClass : string
    +InitialProgress : number
    +Progress : number
    +ProgressCircleSize : string
    +ProgressColor : string
    +Shape : string
    +Thickness : number
    +TrailColor : string
    +validateCanChange(_isBuilt: boolean, _key: string) : boolean
    +validateDefault(_key: string, value: unknown) : unknown
    #validateBoolean(value: boolean, defaultValue: boolean) : boolean
    #validateDate(value: string | Date, defaultValue: string) : string | Date
    #validateInRange(value: unknown, defaultValue: unknown, args: unknown[]) : unknown
    #validateNumber(value: number, defaultValue: number) : number
    #validateString(value: string, defaultValue: string) : string
    #validateTime(value: string, defaultValue: string) : string
}
"ProgressConfiguration" <|- - "ProgressCircleConfig"
@enduml

PlantUML version 1.2021.14(Fri Nov 12 16:46:50 WET 2021)
(GPL source distribution)
Java Runtime: Java(TM) SE Runtime Environment
JVM: Java HotSpot(TM) 64-Bit Server VM
Default Encoding: UTF-8
Language: en
Country: PT
--></g></svg>