<?xml version="1.0" encoding="UTF-8" standalone="no"?><svg xmlns="http://www.w3.org/2000/svg" xmlns:xlink="http://www.w3.org/1999/xlink" contentScriptType="application/ecmascript" contentStyleType="text/css" height="561px" preserveAspectRatio="none" style="width:532px;height:561px;background:#CED4DA;" version="1.1" viewBox="0 0 532 561" width="532px" zoomAndPan="magnify"><defs><filter height="300%" id="f1kooybtn7xi9e" width="300%" x="-1" y="-1"><feGaussianBlur result="blurOut" stdDeviation="2.0"/><feColorMatrix in="blurOut" result="blurOut2" type="matrix" values="0 0 0 0 0 0 0 0 0 0 0 0 0 0 0 0 0 0 .4 0"/><feOffset dx="4.0" dy="4.0" in="blurOut2" result="blurOut3"/><feBlend in="SourceGraphic" in2="blurOut3" mode="normal"/></filter></defs><g><!--MD5=[9370eafe7b6c1b463805c9863f023ab7]
class ProgressCircleConfig--><rect codeLine="7" fill="#FFFFFF" filter="url(#f1kooybtn7xi9e)" height="240.0703" id="ProgressCircleConfig" style="stroke:#272B30;stroke-width:1.5;" width="509" x="9" y="307"/><ellipse cx="194.75" cy="323" fill="#ADD1B2" rx="11" ry="11" style="stroke:#272B30;stroke-width:1.0;"/><path d="M197.7188,328.6406 Q197.1406,328.9375 196.5,329.0781 Q195.8594,329.2344 195.1563,329.2344 Q192.6563,329.2344 191.3281,327.5938 Q190.0156,325.9375 190.0156,322.8125 Q190.0156,319.6875 191.3281,318.0313 Q192.6563,316.375 195.1563,316.375 Q195.8594,316.375 196.5,316.5313 Q197.1563,316.6875 197.7188,316.9844 L197.7188,319.7031 Q197.0938,319.125 196.5,318.8594 Q195.9063,318.5781 195.2813,318.5781 Q193.9375,318.5781 193.25,319.6563 Q192.5625,320.7188 192.5625,322.8125 Q192.5625,324.9063 193.25,325.9844 Q193.9375,327.0469 195.2813,327.0469 Q195.9063,327.0469 196.5,326.7813 Q197.0938,326.5 197.7188,325.9219 L197.7188,328.6406 Z " fill="#000000"/><text fill="#000000" font-family="sans-serif" font-size="12" lengthAdjust="spacing" textLength="129" x="215.25" y="327.1543">ProgressCircleConfig</text><line style="stroke:#272B30;stroke-width:1.5;" x1="10" x2="517" y1="339" y2="339"/><ellipse cx="20" cy="350" rx="3" ry="3" style="stroke:#038048;stroke-width:1.0;fill:none;"/><text fill="#000000" font-family="sans-serif" font-size="11" lengthAdjust="spacing" textLength="185" x="29" y="353.2104">AnimateInitialProgress : boolean</text><ellipse cx="20" cy="362.8047" rx="3" ry="3" style="stroke:#038048;stroke-width:1.0;fill:none;"/><text fill="#000000" font-family="sans-serif" font-size="11" lengthAdjust="spacing" textLength="129" x="29" y="366.0151">ExtendedClass : string</text><ellipse cx="20" cy="375.6094" rx="3" ry="3" style="stroke:#038048;stroke-width:1.0;fill:none;"/><text fill="#000000" font-family="sans-serif" font-size="11" lengthAdjust="spacing" textLength="138" x="29" y="378.8198">InitialProgress : number</text><ellipse cx="20" cy="388.4141" rx="3" ry="3" style="stroke:#038048;stroke-width:1.0;fill:none;"/><text fill="#000000" font-family="sans-serif" font-size="11" lengthAdjust="spacing" textLength="108" x="29" y="391.6245">Progress : number</text><ellipse cx="20" cy="401.2188" rx="3" ry="3" style="stroke:#038048;stroke-width:1.0;fill:none;"/><text fill="#000000" font-family="sans-serif" font-size="11" lengthAdjust="spacing" textLength="127" x="29" y="404.4292">ProgressColor : string</text><ellipse cx="20" cy="414.0234" rx="3" ry="3" style="stroke:#038048;stroke-width:1.0;fill:none;"/><text fill="#000000" font-family="sans-serif" font-size="11" lengthAdjust="spacing" textLength="81" x="29" y="417.2339">Shape : string</text><ellipse cx="20" cy="426.8281" rx="3" ry="3" style="stroke:#038048;stroke-width:1.0;fill:none;"/><text fill="#000000" font-family="sans-serif" font-size="11" lengthAdjust="spacing" textLength="113" x="29" y="430.0386">Thickness : number</text><ellipse cx="20" cy="439.6328" rx="3" ry="3" style="stroke:#038048;stroke-width:1.0;fill:none;"/><text fill="#000000" font-family="sans-serif" font-size="11" lengthAdjust="spacing" textLength="100" x="29" y="442.8433">TrailColor : string</text><line style="stroke:#272B30;stroke-width:1.5;" x1="10" x2="517" y1="449.4375" y2="449.4375"/><ellipse cx="20" cy="460.4375" fill="#84BE84" rx="3" ry="3" style="stroke:#038048;stroke-width:1.0;"/><text fill="#000000" font-family="sans-serif" font-size="11" lengthAdjust="spacing" textLength="342" x="29" y="463.6479">validateCanChange(_isBuilt: boolean, _key: string) : boolean</text><ellipse cx="20" cy="473.2422" fill="#84BE84" rx="3" ry="3" style="stroke:#038048;stroke-width:1.0;"/><text fill="#000000" font-family="sans-serif" font-size="11" lengthAdjust="spacing" textLength="316" x="29" y="476.4526">validateDefault(_key: string, value: unknown) : unknown</text><polygon fill="#FFFF44" points="20,481.0469,24,485.0469,20,489.0469,16,485.0469" style="stroke:#B38D22;stroke-width:1.0;"/><text fill="#000000" font-family="sans-serif" font-size="11" lengthAdjust="spacing" textLength="369" x="29" y="489.2573">validateBoolean(value: boolean, defaultValue: boolean) : boolean</text><polygon fill="#FFFF44" points="20,493.8516,24,497.8516,20,501.8516,16,497.8516" style="stroke:#B38D22;stroke-width:1.0;"/><text fill="#000000" font-family="sans-serif" font-size="11" lengthAdjust="spacing" textLength="389" x="29" y="502.062">validateDate(value: string | Date, defaultValue: string) : string | Date</text><polygon fill="#FFFF44" points="20,506.6563,24,510.6563,20,514.6563,16,510.6563" style="stroke:#B38D22;stroke-width:1.0;"/><text fill="#000000" font-family="sans-serif" font-size="11" lengthAdjust="spacing" textLength="483" x="29" y="514.8667">validateInRange(value: unknown, defaultValue: unknown, args: unknown[]) : unknown</text><polygon fill="#FFFF44" points="20,519.4609,24,523.4609,20,527.4609,16,523.4609" style="stroke:#B38D22;stroke-width:1.0;"/><text fill="#000000" font-family="sans-serif" font-size="11" lengthAdjust="spacing" textLength="365" x="29" y="527.6714">validateNumber(value: number, defaultValue: number) : number</text><polygon fill="#FFFF44" points="20,532.2656,24,536.2656,20,540.2656,16,536.2656" style="stroke:#B38D22;stroke-width:1.0;"/><text fill="#000000" font-family="sans-serif" font-size="11" lengthAdjust="spacing" textLength="321" x="29" y="540.4761">validateString(value: string, defaultValue: string) : string</text><!--MD5=[c29577ec2bfb93edeafb41f58554c075]
class ProgressConfiguration--><rect codeLine="24" fill="#FFFFFF" filter="url(#f1kooybtn7xi9e)" height="240.0703" id="ProgressConfiguration" style="stroke:#272B30;stroke-width:1.5;" width="509" x="9" y="7"/><ellipse cx="190.75" cy="23" fill="#A9DCDF" rx="11" ry="11" style="stroke:#272B30;stroke-width:1.0;"/><path d="M190.8594,18.3438 L189.7031,23.4219 L192.0313,23.4219 L190.8594,18.3438 Z M189.375,16.1094 L192.3594,16.1094 L195.7188,28.5 L193.2656,28.5 L192.5,25.4375 L189.2188,25.4375 L188.4688,28.5 L186.0313,28.5 L189.375,16.1094 Z " fill="#000000"/><text fill="#000000" font-family="sans-serif" font-size="12" font-style="italic" lengthAdjust="spacing" textLength="137" x="211.25" y="27.1543">ProgressConfiguration</text><line style="stroke:#272B30;stroke-width:1.5;" x1="10" x2="517" y1="39" y2="39"/><ellipse cx="20" cy="50" rx="3" ry="3" style="stroke:#038048;stroke-width:1.0;fill:none;"/><text fill="#000000" font-family="sans-serif" font-size="11" lengthAdjust="spacing" textLength="185" x="29" y="53.2104">AnimateInitialProgress : boolean</text><ellipse cx="20" cy="62.8047" rx="3" ry="3" style="stroke:#038048;stroke-width:1.0;fill:none;"/><text fill="#000000" font-family="sans-serif" font-size="11" lengthAdjust="spacing" textLength="129" x="29" y="66.0151">ExtendedClass : string</text><ellipse cx="20" cy="75.6094" rx="3" ry="3" style="stroke:#038048;stroke-width:1.0;fill:none;"/><text fill="#000000" font-family="sans-serif" font-size="11" lengthAdjust="spacing" textLength="138" x="29" y="78.8198">InitialProgress : number</text><ellipse cx="20" cy="88.4141" rx="3" ry="3" style="stroke:#038048;stroke-width:1.0;fill:none;"/><text fill="#000000" font-family="sans-serif" font-size="11" lengthAdjust="spacing" textLength="108" x="29" y="91.6245">Progress : number</text><ellipse cx="20" cy="101.2188" rx="3" ry="3" style="stroke:#038048;stroke-width:1.0;fill:none;"/><text fill="#000000" font-family="sans-serif" font-size="11" lengthAdjust="spacing" textLength="127" x="29" y="104.4292">ProgressColor : string</text><ellipse cx="20" cy="114.0234" rx="3" ry="3" style="stroke:#038048;stroke-width:1.0;fill:none;"/><text fill="#000000" font-family="sans-serif" font-size="11" lengthAdjust="spacing" textLength="81" x="29" y="117.2339">Shape : string</text><ellipse cx="20" cy="126.8281" rx="3" ry="3" style="stroke:#038048;stroke-width:1.0;fill:none;"/><text fill="#000000" font-family="sans-serif" font-size="11" lengthAdjust="spacing" textLength="113" x="29" y="130.0386">Thickness : number</text><ellipse cx="20" cy="139.6328" rx="3" ry="3" style="stroke:#038048;stroke-width:1.0;fill:none;"/><text fill="#000000" font-family="sans-serif" font-size="11" lengthAdjust="spacing" textLength="100" x="29" y="142.8433">TrailColor : string</text><line style="stroke:#272B30;stroke-width:1.5;" x1="10" x2="517" y1="149.4375" y2="149.4375"/><ellipse cx="20" cy="160.4375" fill="#84BE84" rx="3" ry="3" style="stroke:#038048;stroke-width:1.0;"/><text fill="#000000" font-family="sans-serif" font-size="11" lengthAdjust="spacing" textLength="342" x="29" y="163.6479">validateCanChange(_isBuilt: boolean, _key: string) : boolean</text><ellipse cx="20" cy="173.2422" fill="#84BE84" rx="3" ry="3" style="stroke:#038048;stroke-width:1.0;"/><text fill="#000000" font-family="sans-serif" font-size="11" lengthAdjust="spacing" textLength="316" x="29" y="176.4526">validateDefault(_key: string, value: unknown) : unknown</text><polygon fill="#FFFF44" points="20,181.0469,24,185.0469,20,189.0469,16,185.0469" style="stroke:#B38D22;stroke-width:1.0;"/><text fill="#000000" font-family="sans-serif" font-size="11" lengthAdjust="spacing" textLength="369" x="29" y="189.2573">validateBoolean(value: boolean, defaultValue: boolean) : boolean</text><polygon fill="#FFFF44" points="20,193.8516,24,197.8516,20,201.8516,16,197.8516" style="stroke:#B38D22;stroke-width:1.0;"/><text fill="#000000" font-family="sans-serif" font-size="11" lengthAdjust="spacing" textLength="389" x="29" y="202.062">validateDate(value: string | Date, defaultValue: string) : string | Date</text><polygon fill="#FFFF44" points="20,206.6563,24,210.6563,20,214.6563,16,210.6563" style="stroke:#B38D22;stroke-width:1.0;"/><text fill="#000000" font-family="sans-serif" font-size="11" lengthAdjust="spacing" textLength="483" x="29" y="214.8667">validateInRange(value: unknown, defaultValue: unknown, args: unknown[]) : unknown</text><polygon fill="#FFFF44" points="20,219.4609,24,223.4609,20,227.4609,16,223.4609" style="stroke:#B38D22;stroke-width:1.0;"/><text fill="#000000" font-family="sans-serif" font-size="11" lengthAdjust="spacing" textLength="365" x="29" y="227.6714">validateNumber(value: number, defaultValue: number) : number</text><polygon fill="#FFFF44" points="20,232.2656,24,236.2656,20,240.2656,16,236.2656" style="stroke:#B38D22;stroke-width:1.0;"/><text fill="#000000" font-family="sans-serif" font-size="11" lengthAdjust="spacing" textLength="321" x="29" y="240.4761">validateString(value: string, defaultValue: string) : string</text><!--MD5=[8918179054f5a012a43e7086bc674744]
reverse link ProgressConfiguration to ProgressCircleConfig--><path codeLine="41" d="M263.5,267.49 C263.5,280.58 263.5,293.76 263.5,306.64 " fill="none" id="ProgressConfiguration-backto-ProgressCircleConfig" style="stroke:#272B30;stroke-width:1.0;"/><polygon fill="none" points="256.5,267.06,263.5,247.06,270.5,267.06,256.5,267.06" style="stroke:#272B30;stroke-width:1.0;"/><!--MD5=[931719b2038484de399a9c926433b7a8]
@startuml
skinparam ClassArrowColor #272b30
skinparam ClassBorderColor #272b30
skinparam ClassBackgroundColor #fff
skinparam BackgroundColor #ced4da
hide empty methods
hide empty fields
class "ProgressCircleConfig" {
    +AnimateInitialProgress : boolean
    +ExtendedClass : string
    +InitialProgress : number
    +Progress : number
    +ProgressColor : string
    +Shape : string
    +Thickness : number
    +TrailColor : string
    +validateCanChange(_isBuilt: boolean, _key: string) : boolean
    +validateDefault(_key: string, value: unknown) : unknown
    #validateBoolean(value: boolean, defaultValue: boolean) : boolean
    #validateDate(value: string | Date, defaultValue: string) : string | Date
    #validateInRange(value: unknown, defaultValue: unknown, args: unknown[]) : unknown
    #validateNumber(value: number, defaultValue: number) : number
    #validateString(value: string, defaultValue: string) : string
}
abstract class "ProgressConfiguration" {
    +AnimateInitialProgress : boolean
    +ExtendedClass : string
    +InitialProgress : number
    +Progress : number
    +ProgressColor : string
    +Shape : string
    +Thickness : number
    +TrailColor : string
    +validateCanChange(_isBuilt: boolean, _key: string) : boolean
    +validateDefault(_key: string, value: unknown) : unknown
    #validateBoolean(value: boolean, defaultValue: boolean) : boolean
    #validateDate(value: string | Date, defaultValue: string) : string | Date
    #validateInRange(value: unknown, defaultValue: unknown, args: unknown[]) : unknown
    #validateNumber(value: number, defaultValue: number) : number
    #validateString(value: string, defaultValue: string) : string
}
"ProgressConfiguration" <|- - "ProgressCircleConfig"
@enduml

PlantUML version 1.2021.14(Fri Nov 12 16:46:50 UTC 2021)
(GPL source distribution)
Java Runtime: OpenJDK Runtime Environment
JVM: OpenJDK 64-Bit Server VM
Default Encoding: UTF-8
Language: en
Country: null
--></g></svg>