<?xml version="1.0" encoding="UTF-8" standalone="no"?><svg xmlns="http://www.w3.org/2000/svg" xmlns:xlink="http://www.w3.org/1999/xlink" contentScriptType="application/ecmascript" contentStyleType="text/css" height="612px" preserveAspectRatio="none" style="width:532px;height:612px;background:#CED4DA;" version="1.1" viewBox="0 0 532 612" width="532px" zoomAndPan="magnify"><defs><filter height="300%" id="f1u62s5ldzsaae" width="300%" x="-1" y="-1"><feGaussianBlur result="blurOut" stdDeviation="2.0"/><feColorMatrix in="blurOut" result="blurOut2" type="matrix" values="0 0 0 0 0 0 0 0 0 0 0 0 0 0 0 0 0 0 .4 0"/><feOffset dx="4.0" dy="4.0" in="blurOut2" result="blurOut3"/><feBlend in="SourceGraphic" in2="blurOut3" mode="normal"/></filter></defs><g><!--MD5=[60be731ec30f0cd045d0e82825a205a8]
class ProgressBarConfig--><rect codeLine="7" fill="#FFFFFF" filter="url(#f1u62s5ldzsaae)" height="265.6797" id="ProgressBarConfig" style="stroke:#272B30;stroke-width:1.5;" width="509" x="9" y="333"/><ellipse cx="201.25" cy="349" fill="#ADD1B2" rx="11" ry="11" style="stroke:#272B30;stroke-width:1.0;"/><path d="M204.2188,354.6406 Q203.6406,354.9375 203,355.0781 Q202.3594,355.2344 201.6563,355.2344 Q199.1563,355.2344 197.8281,353.5938 Q196.5156,351.9375 196.5156,348.8125 Q196.5156,345.6875 197.8281,344.0313 Q199.1563,342.375 201.6563,342.375 Q202.3594,342.375 203,342.5313 Q203.6563,342.6875 204.2188,342.9844 L204.2188,345.7031 Q203.5938,345.125 203,344.8594 Q202.4063,344.5781 201.7813,344.5781 Q200.4375,344.5781 199.75,345.6563 Q199.0625,346.7188 199.0625,348.8125 Q199.0625,350.9063 199.75,351.9844 Q200.4375,353.0469 201.7813,353.0469 Q202.4063,353.0469 203,352.7813 Q203.5938,352.5 204.2188,351.9219 L204.2188,354.6406 Z " fill="#000000"/><text fill="#000000" font-family="sans-serif" font-size="12" lengthAdjust="spacing" textLength="116" x="221.75" y="353.1543">ProgressBarConfig</text><line style="stroke:#272B30;stroke-width:1.5;" x1="10" x2="517" y1="365" y2="365"/><ellipse cx="20" cy="376" rx="3" ry="3" style="stroke:#038048;stroke-width:1.0;fill:none;"/><text fill="#000000" font-family="sans-serif" font-size="11" lengthAdjust="spacing" textLength="185" x="29" y="379.2104">AnimateInitialProgress : boolean</text><ellipse cx="20" cy="388.8047" rx="3" ry="3" style="stroke:#038048;stroke-width:1.0;fill:none;"/><text fill="#000000" font-family="sans-serif" font-size="11" lengthAdjust="spacing" textLength="129" x="29" y="392.0151">ExtendedClass : string</text><ellipse cx="20" cy="401.6094" rx="3" ry="3" style="stroke:#038048;stroke-width:1.0;fill:none;"/><text fill="#000000" font-family="sans-serif" font-size="11" lengthAdjust="spacing" textLength="138" x="29" y="404.8198">InitialProgress : number</text><ellipse cx="20" cy="414.4141" rx="3" ry="3" style="stroke:#038048;stroke-width:1.0;fill:none;"/><text fill="#000000" font-family="sans-serif" font-size="11" lengthAdjust="spacing" textLength="108" x="29" y="417.6245">Progress : number</text><ellipse cx="20" cy="427.2188" rx="3" ry="3" style="stroke:#038048;stroke-width:1.0;fill:none;"/><text fill="#000000" font-family="sans-serif" font-size="11" lengthAdjust="spacing" textLength="152" x="29" y="430.4292">ProgressCircleSize : string</text><ellipse cx="20" cy="440.0234" rx="3" ry="3" style="stroke:#038048;stroke-width:1.0;fill:none;"/><text fill="#000000" font-family="sans-serif" font-size="11" lengthAdjust="spacing" textLength="127" x="29" y="443.2339">ProgressColor : string</text><ellipse cx="20" cy="452.8281" rx="3" ry="3" style="stroke:#038048;stroke-width:1.0;fill:none;"/><text fill="#000000" font-family="sans-serif" font-size="11" lengthAdjust="spacing" textLength="81" x="29" y="456.0386">Shape : string</text><ellipse cx="20" cy="465.6328" rx="3" ry="3" style="stroke:#038048;stroke-width:1.0;fill:none;"/><text fill="#000000" font-family="sans-serif" font-size="11" lengthAdjust="spacing" textLength="113" x="29" y="468.8433">Thickness : number</text><ellipse cx="20" cy="478.4375" rx="3" ry="3" style="stroke:#038048;stroke-width:1.0;fill:none;"/><text fill="#000000" font-family="sans-serif" font-size="11" lengthAdjust="spacing" textLength="100" x="29" y="481.6479">TrailColor : string</text><line style="stroke:#272B30;stroke-width:1.5;" x1="10" x2="517" y1="488.2422" y2="488.2422"/><ellipse cx="20" cy="499.2422" fill="#84BE84" rx="3" ry="3" style="stroke:#038048;stroke-width:1.0;"/><text fill="#000000" font-family="sans-serif" font-size="11" lengthAdjust="spacing" textLength="342" x="29" y="502.4526">validateCanChange(_isBuilt: boolean, _key: string) : boolean</text><ellipse cx="20" cy="512.0469" fill="#84BE84" rx="3" ry="3" style="stroke:#038048;stroke-width:1.0;"/><text fill="#000000" font-family="sans-serif" font-size="11" lengthAdjust="spacing" textLength="316" x="29" y="515.2573">validateDefault(_key: string, value: unknown) : unknown</text><polygon fill="#FFFF44" points="20,519.8516,24,523.8516,20,527.8516,16,523.8516" style="stroke:#B38D22;stroke-width:1.0;"/><text fill="#000000" font-family="sans-serif" font-size="11" lengthAdjust="spacing" textLength="369" x="29" y="528.062">validateBoolean(value: boolean, defaultValue: boolean) : boolean</text><polygon fill="#FFFF44" points="20,532.6563,24,536.6563,20,540.6563,16,536.6563" style="stroke:#B38D22;stroke-width:1.0;"/><text fill="#000000" font-family="sans-serif" font-size="11" lengthAdjust="spacing" textLength="389" x="29" y="540.8667">validateDate(value: string | Date, defaultValue: string) : string | Date</text><polygon fill="#FFFF44" points="20,545.4609,24,549.4609,20,553.4609,16,549.4609" style="stroke:#B38D22;stroke-width:1.0;"/><text fill="#000000" font-family="sans-serif" font-size="11" lengthAdjust="spacing" textLength="483" x="29" y="553.6714">validateInRange(value: unknown, defaultValue: unknown, args: unknown[]) : unknown</text><polygon fill="#FFFF44" points="20,558.2656,24,562.2656,20,566.2656,16,562.2656" style="stroke:#B38D22;stroke-width:1.0;"/><text fill="#000000" font-family="sans-serif" font-size="11" lengthAdjust="spacing" textLength="365" x="29" y="566.4761">validateNumber(value: number, defaultValue: number) : number</text><polygon fill="#FFFF44" points="20,571.0703,24,575.0703,20,579.0703,16,575.0703" style="stroke:#B38D22;stroke-width:1.0;"/><text fill="#000000" font-family="sans-serif" font-size="11" lengthAdjust="spacing" textLength="321" x="29" y="579.2808">validateString(value: string, defaultValue: string) : string</text><polygon fill="#FFFF44" points="20,583.875,24,587.875,20,591.875,16,587.875" style="stroke:#B38D22;stroke-width:1.0;"/><text fill="#000000" font-family="sans-serif" font-size="11" lengthAdjust="spacing" textLength="315" x="29" y="592.0854">validateTime(value: string, defaultValue: string) : string</text><!--MD5=[c29577ec2bfb93edeafb41f58554c075]
class ProgressConfiguration--><rect codeLine="26" fill="#FFFFFF" filter="url(#f1u62s5ldzsaae)" height="265.6797" id="ProgressConfiguration" style="stroke:#272B30;stroke-width:1.5;" width="509" x="9" y="7"/><ellipse cx="190.75" cy="23" fill="#A9DCDF" rx="11" ry="11" style="stroke:#272B30;stroke-width:1.0;"/><path d="M190.8594,18.3438 L189.7031,23.4219 L192.0313,23.4219 L190.8594,18.3438 Z M189.375,16.1094 L192.3594,16.1094 L195.7188,28.5 L193.2656,28.5 L192.5,25.4375 L189.2188,25.4375 L188.4688,28.5 L186.0313,28.5 L189.375,16.1094 Z " fill="#000000"/><text fill="#000000" font-family="sans-serif" font-size="12" font-style="italic" lengthAdjust="spacing" textLength="137" x="211.25" y="27.1543">ProgressConfiguration</text><line style="stroke:#272B30;stroke-width:1.5;" x1="10" x2="517" y1="39" y2="39"/><ellipse cx="20" cy="50" rx="3" ry="3" style="stroke:#038048;stroke-width:1.0;fill:none;"/><text fill="#000000" font-family="sans-serif" font-size="11" lengthAdjust="spacing" textLength="185" x="29" y="53.2104">AnimateInitialProgress : boolean</text><ellipse cx="20" cy="62.8047" rx="3" ry="3" style="stroke:#038048;stroke-width:1.0;fill:none;"/><text fill="#000000" font-family="sans-serif" font-size="11" lengthAdjust="spacing" textLength="129" x="29" y="66.0151">ExtendedClass : string</text><ellipse cx="20" cy="75.6094" rx="3" ry="3" style="stroke:#038048;stroke-width:1.0;fill:none;"/><text fill="#000000" font-family="sans-serif" font-size="11" lengthAdjust="spacing" textLength="138" x="29" y="78.8198">InitialProgress : number</text><ellipse cx="20" cy="88.4141" rx="3" ry="3" style="stroke:#038048;stroke-width:1.0;fill:none;"/><text fill="#000000" font-family="sans-serif" font-size="11" lengthAdjust="spacing" textLength="108" x="29" y="91.6245">Progress : number</text><ellipse cx="20" cy="101.2188" rx="3" ry="3" style="stroke:#038048;stroke-width:1.0;fill:none;"/><text fill="#000000" font-family="sans-serif" font-size="11" lengthAdjust="spacing" textLength="152" x="29" y="104.4292">ProgressCircleSize : string</text><ellipse cx="20" cy="114.0234" rx="3" ry="3" style="stroke:#038048;stroke-width:1.0;fill:none;"/><text fill="#000000" font-family="sans-serif" font-size="11" lengthAdjust="spacing" textLength="127" x="29" y="117.2339">ProgressColor : string</text><ellipse cx="20" cy="126.8281" rx="3" ry="3" style="stroke:#038048;stroke-width:1.0;fill:none;"/><text fill="#000000" font-family="sans-serif" font-size="11" lengthAdjust="spacing" textLength="81" x="29" y="130.0386">Shape : string</text><ellipse cx="20" cy="139.6328" rx="3" ry="3" style="stroke:#038048;stroke-width:1.0;fill:none;"/><text fill="#000000" font-family="sans-serif" font-size="11" lengthAdjust="spacing" textLength="113" x="29" y="142.8433">Thickness : number</text><ellipse cx="20" cy="152.4375" rx="3" ry="3" style="stroke:#038048;stroke-width:1.0;fill:none;"/><text fill="#000000" font-family="sans-serif" font-size="11" lengthAdjust="spacing" textLength="100" x="29" y="155.6479">TrailColor : string</text><line style="stroke:#272B30;stroke-width:1.5;" x1="10" x2="517" y1="162.2422" y2="162.2422"/><ellipse cx="20" cy="173.2422" fill="#84BE84" rx="3" ry="3" style="stroke:#038048;stroke-width:1.0;"/><text fill="#000000" font-family="sans-serif" font-size="11" lengthAdjust="spacing" textLength="342" x="29" y="176.4526">validateCanChange(_isBuilt: boolean, _key: string) : boolean</text><ellipse cx="20" cy="186.0469" fill="#84BE84" rx="3" ry="3" style="stroke:#038048;stroke-width:1.0;"/><text fill="#000000" font-family="sans-serif" font-size="11" lengthAdjust="spacing" textLength="316" x="29" y="189.2573">validateDefault(_key: string, value: unknown) : unknown</text><polygon fill="#FFFF44" points="20,193.8516,24,197.8516,20,201.8516,16,197.8516" style="stroke:#B38D22;stroke-width:1.0;"/><text fill="#000000" font-family="sans-serif" font-size="11" lengthAdjust="spacing" textLength="369" x="29" y="202.062">validateBoolean(value: boolean, defaultValue: boolean) : boolean</text><polygon fill="#FFFF44" points="20,206.6563,24,210.6563,20,214.6563,16,210.6563" style="stroke:#B38D22;stroke-width:1.0;"/><text fill="#000000" font-family="sans-serif" font-size="11" lengthAdjust="spacing" textLength="389" x="29" y="214.8667">validateDate(value: string | Date, defaultValue: string) : string | Date</text><polygon fill="#FFFF44" points="20,219.4609,24,223.4609,20,227.4609,16,223.4609" style="stroke:#B38D22;stroke-width:1.0;"/><text fill="#000000" font-family="sans-serif" font-size="11" lengthAdjust="spacing" textLength="483" x="29" y="227.6714">validateInRange(value: unknown, defaultValue: unknown, args: unknown[]) : unknown</text><polygon fill="#FFFF44" points="20,232.2656,24,236.2656,20,240.2656,16,236.2656" style="stroke:#B38D22;stroke-width:1.0;"/><text fill="#000000" font-family="sans-serif" font-size="11" lengthAdjust="spacing" textLength="365" x="29" y="240.4761">validateNumber(value: number, defaultValue: number) : number</text><polygon fill="#FFFF44" points="20,245.0703,24,249.0703,20,253.0703,16,249.0703" style="stroke:#B38D22;stroke-width:1.0;"/><text fill="#000000" font-family="sans-serif" font-size="11" lengthAdjust="spacing" textLength="321" x="29" y="253.2808">validateString(value: string, defaultValue: string) : string</text><polygon fill="#FFFF44" points="20,257.875,24,261.875,20,265.875,16,261.875" style="stroke:#B38D22;stroke-width:1.0;"/><text fill="#000000" font-family="sans-serif" font-size="11" lengthAdjust="spacing" textLength="315" x="29" y="266.0854">validateTime(value: string, defaultValue: string) : string</text><!--MD5=[b61f46a88010e288eb3171b205053db3]
reverse link ProgressConfiguration to ProgressBarConfig--><path codeLine="45" d="M263.5,293.72 C263.5,306.81 263.5,319.99 263.5,332.91 " fill="none" id="ProgressConfiguration-backto-ProgressBarConfig" style="stroke:#272B30;stroke-width:1.0;"/><polygon fill="none" points="256.5,293.25,263.5,273.25,270.5,293.25,256.5,293.25" style="stroke:#272B30;stroke-width:1.0;"/><!--MD5=[57e1dec6f7397af5e7152c04c5fba8ef]
@startuml
skinparam ClassArrowColor #272b30
skinparam ClassBorderColor #272b30
skinparam ClassBackgroundColor #fff
skinparam BackgroundColor #ced4da
hide empty methods
hide empty fields
class "ProgressBarConfig" {
    +AnimateInitialProgress : boolean
    +ExtendedClass : string
    +InitialProgress : number
    +Progress : number
    +ProgressCircleSize : string
    +ProgressColor : string
    +Shape : string
    +Thickness : number
    +TrailColor : string
    +validateCanChange(_isBuilt: boolean, _key: string) : boolean
    +validateDefault(_key: string, value: unknown) : unknown
    #validateBoolean(value: boolean, defaultValue: boolean) : boolean
    #validateDate(value: string | Date, defaultValue: string) : string | Date
    #validateInRange(value: unknown, defaultValue: unknown, args: unknown[]) : unknown
    #validateNumber(value: number, defaultValue: number) : number
    #validateString(value: string, defaultValue: string) : string
    #validateTime(value: string, defaultValue: string) : string
}
abstract class "ProgressConfiguration" {
    +AnimateInitialProgress : boolean
    +ExtendedClass : string
    +InitialProgress : number
    +Progress : number
    +ProgressCircleSize : string
    +ProgressColor : string
    +Shape : string
    +Thickness : number
    +TrailColor : string
    +validateCanChange(_isBuilt: boolean, _key: string) : boolean
    +validateDefault(_key: string, value: unknown) : unknown
    #validateBoolean(value: boolean, defaultValue: boolean) : boolean
    #validateDate(value: string | Date, defaultValue: string) : string | Date
    #validateInRange(value: unknown, defaultValue: unknown, args: unknown[]) : unknown
    #validateNumber(value: number, defaultValue: number) : number
    #validateString(value: string, defaultValue: string) : string
    #validateTime(value: string, defaultValue: string) : string
}
"ProgressConfiguration" <|- - "ProgressBarConfig"
@enduml

PlantUML version 1.2021.14(Fri Nov 12 16:46:50 UTC 2021)
(GPL source distribution)
Java Runtime: OpenJDK Runtime Environment
JVM: OpenJDK 64-Bit Server VM
Default Encoding: UTF-8
Language: en
Country: null
--></g></svg>