<?xml version="1.0" encoding="us-ascii" standalone="no"?><svg xmlns="http://www.w3.org/2000/svg" xmlns:xlink="http://www.w3.org/1999/xlink" contentStyleType="text/css" height="1257px" preserveAspectRatio="none" style="width:1155px;height:1257px;background:#CED4DA;" version="1.1" viewBox="0 0 1155 1257" width="1155px" zoomAndPan="magnify"><defs/><g><rect fill="#CED4DA" height="1257" style="stroke:none;stroke-width:1.0;" width="1155" x="0" y="0"/><!--class Rating--><g id="elem_Rating"><rect codeLine="7" fill="#FFFFFF" height="756.9961" id="Rating" rx="2.5" ry="2.5" style="stroke:#272B30;stroke-width:0.5;" width="596" x="302" y="494"/><ellipse cx="573.75" cy="510" fill="#ADD1B2" rx="11" ry="11" style="stroke:#181818;stroke-width:1.0;"/><path d="M576.2231,516.1431 Q575.6421,516.4419 575.0029,516.5913 Q574.3638,516.7407 573.6582,516.7407 Q571.1514,516.7407 569.8315,515.0889 Q568.5117,513.437 568.5117,510.3159 Q568.5117,507.1865 569.8315,505.5347 Q571.1514,503.8828 573.6582,503.8828 Q574.3638,503.8828 575.0112,504.0322 Q575.6587,504.1816 576.2231,504.4805 L576.2231,507.2031 Q575.5923,506.6221 574.9988,506.3523 Q574.4053,506.0825 573.7744,506.0825 Q572.4297,506.0825 571.7449,507.1492 Q571.0601,508.2158 571.0601,510.3159 Q571.0601,512.4077 571.7449,513.4744 Q572.4297,514.541 573.7744,514.541 Q574.4053,514.541 574.9988,514.2712 Q575.5923,514.0015 576.2231,513.4204 Z " fill="#000000"/><text fill="#000000" font-family="sans-serif" font-size="14" lengthAdjust="spacing" textLength="44" x="594.25" y="515.291">Rating</text><line style="stroke:#272B30;stroke-width:0.5;" x1="303" x2="897" y1="526" y2="526"/><polygon fill="none" points="313,534.7441,317,538.7441,313,542.7441,309,538.7441" style="stroke:#B38D22;stroke-width:1.0;"/><text fill="#000000" font-family="sans-serif" font-size="14" lengthAdjust="spacing" textLength="176" x="322" y="543.5352">isProviderBased : boolean</text><rect fill="none" height="6" style="stroke:#C82930;stroke-width:1.0;" width="6" x="310" y="553.2324"/><text fill="#000000" font-family="sans-serif" font-size="14" lengthAdjust="spacing" textLength="192" x="322" y="560.0234">_clonedPlaceholders : string</text><rect fill="none" height="6" style="stroke:#C82930;stroke-width:1.0;" width="6" x="310" y="569.7207"/><text fill="#000000" font-family="sans-serif" font-size="14" lengthAdjust="spacing" textLength="164" x="322" y="576.5117">_decimalValue : number</text><rect fill="none" height="6" style="stroke:#C82930;stroke-width:1.0;" width="6" x="310" y="586.209"/><text fill="#000000" font-family="sans-serif" font-size="14" lengthAdjust="spacing" textLength="133" x="322" y="593">_disabled : boolean</text><rect fill="none" height="6" style="stroke:#C82930;stroke-width:1.0;" width="6" x="310" y="602.6973"/><text fill="#000000" font-family="sans-serif" font-size="14" lengthAdjust="spacing" textLength="205" x="322" y="609.4883">_eventOnRatingClick : Generic</text><rect fill="none" height="6" style="stroke:#C82930;stroke-width:1.0;" width="6" x="310" y="619.1855"/><text fill="#000000" font-family="sans-serif" font-size="14" lengthAdjust="spacing" textLength="151" x="322" y="625.9766">_isHalfValue : boolean</text><rect fill="none" height="6" style="stroke:#C82930;stroke-width:1.0;" width="6" x="310" y="635.6738"/><text fill="#000000" font-family="sans-serif" font-size="14" lengthAdjust="spacing" textLength="246" x="322" y="642.4648">_platformEventOnSelect : OSGeneric</text><rect fill="none" height="6" style="stroke:#C82930;stroke-width:1.0;" width="6" x="310" y="652.1621"/><text fill="#000000" font-family="sans-serif" font-size="14" lengthAdjust="spacing" textLength="239" x="322" y="658.9531">_ratingFieldsetElem : HTMLElement</text><rect fill="none" height="6" style="stroke:#C82930;stroke-width:1.0;" width="6" x="310" y="668.6504"/><text fill="#000000" font-family="sans-serif" font-size="14" lengthAdjust="spacing" textLength="223" x="322" y="675.4414">_ratingHasEventAdded : boolean</text><rect fill="none" height="6" style="stroke:#C82930;stroke-width:1.0;" width="6" x="310" y="685.1387"/><text fill="#000000" font-family="sans-serif" font-size="14" lengthAdjust="spacing" textLength="256" x="322" y="691.9297">_ratingIconStatesElem : HTMLElement</text><rect fill="none" height="6" style="stroke:#C82930;stroke-width:1.0;" width="6" x="310" y="701.627"/><text fill="#000000" font-family="sans-serif" font-size="14" lengthAdjust="spacing" textLength="175" x="322" y="708.418">_ratingInputName : string</text><line style="stroke:#272B30;stroke-width:0.5;" x1="303" x2="897" y1="715.3711" y2="715.3711"/><ellipse cx="313" cy="729.1152" fill="#84BE84" rx="3" ry="3" style="stroke:#038048;stroke-width:1.0;"/><text fill="#000000" font-family="sans-serif" font-size="14" lengthAdjust="spacing" textLength="86" x="322" y="732.9063">build() : void</text><ellipse cx="313" cy="745.6035" fill="#84BE84" rx="3" ry="3" style="stroke:#038048;stroke-width:1.0;"/><text fill="#000000" font-family="sans-serif" font-size="14" lengthAdjust="spacing" textLength="482" x="322" y="749.3945">changeProperty(propertyName: string, propertyValue: unknown) : void</text><ellipse cx="313" cy="762.0918" fill="#84BE84" rx="3" ry="3" style="stroke:#038048;stroke-width:1.0;"/><text fill="#000000" font-family="sans-serif" font-size="14" lengthAdjust="spacing" textLength="104" x="322" y="765.8828">dispose() : void</text><ellipse cx="313" cy="778.5801" fill="#84BE84" rx="3" ry="3" style="stroke:#038048;stroke-width:1.0;"/><text fill="#000000" font-family="sans-serif" font-size="14" lengthAdjust="spacing" textLength="266" x="322" y="782.3711">equalsToID(patternId: string) : boolean</text><ellipse cx="313" cy="795.0684" fill="#84BE84" rx="3" ry="3" style="stroke:#038048;stroke-width:1.0;"/><text fill="#000000" font-family="sans-serif" font-size="14" lengthAdjust="spacing" textLength="428" x="322" y="798.8594">registerCallback(eventName: string, callback: OSGeneric) : void</text><polygon fill="#FFFF44" points="313,806.5566,317,810.5566,313,814.5566,309,810.5566" style="stroke:#B38D22;stroke-width:1.0;"/><text fill="#000000" font-family="sans-serif" font-size="14" lengthAdjust="spacing" textLength="123" x="322" y="815.3477">finishBuild() : void</text><polygon fill="#FFFF44" points="313,823.0449,317,827.0449,313,831.0449,309,827.0449" style="stroke:#B38D22;stroke-width:1.0;"/><text fill="#000000" font-family="sans-serif" font-size="14" lengthAdjust="spacing" textLength="178" x="322" y="831.8359">setA11YProperties() : void</text><polygon fill="#FFFF44" points="313,839.5332,317,843.5332,313,847.5332,309,843.5332" style="stroke:#B38D22;stroke-width:1.0;"/><text fill="#000000" font-family="sans-serif" font-size="14" lengthAdjust="spacing" textLength="136" x="322" y="848.3242">setCallbacks() : void</text><polygon fill="#FFFF44" points="313,856.0215,317,860.0215,313,864.0215,309,860.0215" style="stroke:#B38D22;stroke-width:1.0;"/><text fill="#000000" font-family="sans-serif" font-size="14" lengthAdjust="spacing" textLength="165" x="322" y="864.8125">setHtmlElements() : void</text><polygon fill="#FFFF44" points="313,872.5098,317,876.5098,313,880.5098,309,876.5098" style="stroke:#B38D22;stroke-width:1.0;"/><text fill="#000000" font-family="sans-serif" font-size="14" lengthAdjust="spacing" textLength="570" x="322" y="881.3008">triggerPlatformEventCallback(platFormCallback: OSGeneric, args: unknown[]) : void</text><polygon fill="#FFFF44" points="313,888.998,317,892.998,313,896.998,309,892.998" style="stroke:#B38D22;stroke-width:1.0;"/><text fill="#000000" font-family="sans-serif" font-size="14" lengthAdjust="spacing" textLength="318" x="322" y="897.7891">triggerPlatformInitializedEventCallback() : void</text><polygon fill="#FFFF44" points="313,905.4863,317,909.4863,313,913.4863,309,909.4863" style="stroke:#B38D22;stroke-width:1.0;"/><text fill="#000000" font-family="sans-serif" font-size="14" lengthAdjust="spacing" textLength="154" x="322" y="914.2773">unsetCallbacks() : void</text><polygon fill="#FFFF44" points="313,921.9746,317,925.9746,313,929.9746,309,925.9746" style="stroke:#B38D22;stroke-width:1.0;"/><text fill="#000000" font-family="sans-serif" font-size="14" lengthAdjust="spacing" textLength="198" x="322" y="930.7656">unsetGlobalCallbacks() : void</text><polygon fill="#FFFF44" points="313,938.4629,317,942.4629,313,946.4629,309,942.4629" style="stroke:#B38D22;stroke-width:1.0;"/><text fill="#000000" font-family="sans-serif" font-size="14" lengthAdjust="spacing" textLength="183" x="322" y="947.2539">unsetHtmlElements() : void</text><rect fill="#F24D5C" height="6" style="stroke:#C82930;stroke-width:1.0;" width="6" x="310" y="956.9512"/><text fill="#000000" font-family="sans-serif" font-size="14" lengthAdjust="spacing" textLength="137" x="322" y="963.7422">_createItems() : void</text><rect fill="#F24D5C" height="6" style="stroke:#C82930;stroke-width:1.0;" width="6" x="310" y="973.4395"/><text fill="#000000" font-family="sans-serif" font-size="14" lengthAdjust="spacing" textLength="295" x="322" y="980.2305">_getDecimalValue(value: number) : number</text><rect fill="#F24D5C" height="6" style="stroke:#C82930;stroke-width:1.0;" width="6" x="310" y="989.9277"/><text fill="#000000" font-family="sans-serif" font-size="14" lengthAdjust="spacing" textLength="281" x="322" y="996.7188">_getIsHalfValue(value: number) : boolean</text><rect fill="#F24D5C" height="6" style="stroke:#C82930;stroke-width:1.0;" width="6" x="310" y="1006.416"/><text fill="#000000" font-family="sans-serif" font-size="14" lengthAdjust="spacing" textLength="143" x="322" y="1013.207">_getValue() : number</text><rect fill="#F24D5C" height="6" style="stroke:#C82930;stroke-width:1.0;" width="6" x="310" y="1022.9043"/><text fill="#000000" font-family="sans-serif" font-size="14" lengthAdjust="spacing" textLength="192" x="322" y="1029.6953">_handlePlaceholders() : void</text><rect fill="#F24D5C" height="6" style="stroke:#C82930;stroke-width:1.0;" width="6" x="310" y="1039.3926"/><text fill="#000000" font-family="sans-serif" font-size="14" lengthAdjust="spacing" textLength="194" x="322" y="1046.1836">_manageRatingEvent() : void</text><rect fill="#F24D5C" height="6" style="stroke:#C82930;stroke-width:1.0;" width="6" x="310" y="1055.8809"/><text fill="#000000" font-family="sans-serif" font-size="14" lengthAdjust="spacing" textLength="250" x="322" y="1062.6719">_ratingOnClick(e: MouseEvent) : void</text><rect fill="#F24D5C" height="6" style="stroke:#C82930;stroke-width:1.0;" width="6" x="310" y="1072.3691"/><text fill="#000000" font-family="sans-serif" font-size="14" lengthAdjust="spacing" textLength="153" x="322" y="1079.1602">_removeEvents() : void</text><rect fill="#F24D5C" height="6" style="stroke:#C82930;stroke-width:1.0;" width="6" x="310" y="1088.8574"/><text fill="#000000" font-family="sans-serif" font-size="14" lengthAdjust="spacing" textLength="235" x="322" y="1095.6484">_renderItem(index: number) : void</text><rect fill="#F24D5C" height="6" style="stroke:#C82930;stroke-width:1.0;" width="6" x="310" y="1105.3457"/><text fill="#000000" font-family="sans-serif" font-size="14" lengthAdjust="spacing" textLength="366" x="322" y="1112.1367">_setFieldsetDisabledStatus(isDisabled: boolean) : void</text><rect fill="#F24D5C" height="6" style="stroke:#C82930;stroke-width:1.0;" width="6" x="310" y="1121.834"/><text fill="#000000" font-family="sans-serif" font-size="14" lengthAdjust="spacing" textLength="191" x="322" y="1128.625">_setInitialCssClasses() : void</text><rect fill="#F24D5C" height="6" style="stroke:#C82930;stroke-width:1.0;" width="6" x="310" y="1138.3223"/><text fill="#000000" font-family="sans-serif" font-size="14" lengthAdjust="spacing" textLength="231" x="322" y="1145.1133">_setInitialPropertiesValues() : void</text><rect fill="#F24D5C" height="6" style="stroke:#C82930;stroke-width:1.0;" width="6" x="310" y="1154.8105"/><text fill="#000000" font-family="sans-serif" font-size="14" lengthAdjust="spacing" textLength="282" x="322" y="1161.6016">_setIsDisabled(isDisabled: boolean) : void</text><rect fill="#F24D5C" height="6" style="stroke:#C82930;stroke-width:1.0;" width="6" x="310" y="1171.2988"/><text fill="#000000" font-family="sans-serif" font-size="14" lengthAdjust="spacing" textLength="115" x="322" y="1178.0898">_setIsEdit() : void</text><rect fill="#F24D5C" height="6" style="stroke:#C82930;stroke-width:1.0;" width="6" x="310" y="1187.7871"/><text fill="#000000" font-family="sans-serif" font-size="14" lengthAdjust="spacing" textLength="113" x="322" y="1194.5781">_setScale() : void</text><rect fill="#F24D5C" height="6" style="stroke:#C82930;stroke-width:1.0;" width="6" x="310" y="1204.2754"/><text fill="#000000" font-family="sans-serif" font-size="14" lengthAdjust="spacing" textLength="204" x="322" y="1211.0664">_setSize(oldSize: string) : void</text><rect fill="#F24D5C" height="6" style="stroke:#C82930;stroke-width:1.0;" width="6" x="310" y="1220.7637"/><text fill="#000000" font-family="sans-serif" font-size="14" lengthAdjust="spacing" textLength="264" x="322" y="1227.5547">_setValue(triggerEvent: boolean) : void</text><rect fill="#F24D5C" height="6" style="stroke:#C82930;stroke-width:1.0;" width="6" x="310" y="1237.252"/><text fill="#000000" font-family="sans-serif" font-size="14" lengthAdjust="spacing" textLength="300" x="322" y="1244.043">_triggerOnSelectEvent(value: number) : void</text></g><!--class AbstractPattern<RatingConfig>--><g id="elem_AbstractPattern&lt;RatingConfig&gt;"><rect codeLine="52" fill="#FFFFFF" height="427.2305" id="AbstractPattern&lt;RatingConfig&gt;" rx="2.5" ry="2.5" style="stroke:#272B30;stroke-width:0.5;" width="596" x="9" y="7"/><ellipse cx="193.75" cy="23" fill="#A9DCDF" rx="11" ry="11" style="stroke:#181818;stroke-width:1.0;"/><path d="M193.6133,18.3481 L192.4595,23.4199 L194.7754,23.4199 Z M192.1191,16.1069 L195.1157,16.1069 L198.4609,28.5 L196.0122,28.5 L195.2485,25.437 L191.9697,25.437 L191.2227,28.5 L188.7739,28.5 Z " fill="#000000"/><text fill="#000000" font-family="sans-serif" font-size="14" font-style="italic" lengthAdjust="spacing" textLength="218" x="214.25" y="28.291">AbstractPattern&lt;RatingConfig&gt;</text><line style="stroke:#272B30;stroke-width:0.5;" x1="10" x2="604" y1="39" y2="39"/><polygon fill="none" points="20,47.7441,24,51.7441,20,55.7441,16,51.7441" style="stroke:#B38D22;stroke-width:1.0;"/><text fill="#000000" font-family="sans-serif" font-size="14" lengthAdjust="spacing" textLength="176" x="29" y="56.5352">isProviderBased : boolean</text><rect fill="none" height="6" style="stroke:#C82930;stroke-width:1.0;" width="6" x="17" y="66.2324"/><text fill="#000000" font-family="sans-serif" font-size="14" lengthAdjust="spacing" textLength="159" x="29" y="73.0234">_configs : RatingConfig</text><rect fill="none" height="6" style="stroke:#C82930;stroke-width:1.0;" width="6" x="17" y="82.7207"/><text fill="#000000" font-family="sans-serif" font-size="14" lengthAdjust="spacing" textLength="116" x="29" y="89.5117">_isBuilt : boolean</text><rect fill="none" height="6" style="stroke:#C82930;stroke-width:1.0;" width="6" x="17" y="99.209"/><text fill="#000000" font-family="sans-serif" font-size="14" lengthAdjust="spacing" textLength="253" x="29" y="106">_platformEventInitialized : OSGeneric</text><rect fill="none" height="6" style="stroke:#C82930;stroke-width:1.0;" width="6" x="17" y="115.6973"/><text fill="#000000" font-family="sans-serif" font-size="14" lengthAdjust="spacing" textLength="169" x="29" y="122.4883">_selfElem : HTMLElement</text><rect fill="none" height="6" style="stroke:#C82930;stroke-width:1.0;" width="6" x="17" y="132.1855"/><text fill="#000000" font-family="sans-serif" font-size="14" lengthAdjust="spacing" textLength="120" x="29" y="138.9766">_uniqueId : string</text><rect fill="none" height="6" style="stroke:#C82930;stroke-width:1.0;" width="6" x="17" y="148.6738"/><text fill="#000000" font-family="sans-serif" font-size="14" lengthAdjust="spacing" textLength="118" x="29" y="155.4648">_widgetId : string</text><line style="stroke:#272B30;stroke-width:0.5;" x1="10" x2="604" y1="162.418" y2="162.418"/><ellipse cx="20" cy="176.1621" fill="#84BE84" rx="3" ry="3" style="stroke:#038048;stroke-width:1.0;"/><text fill="#000000" font-family="sans-serif" font-size="14" lengthAdjust="spacing" textLength="86" x="29" y="179.9531">build() : void</text><ellipse cx="20" cy="192.6504" fill="#84BE84" rx="3" ry="3" style="stroke:#038048;stroke-width:1.0;"/><text fill="#000000" font-family="sans-serif" font-size="14" lengthAdjust="spacing" textLength="482" x="29" y="196.4414">changeProperty(propertyName: string, propertyValue: unknown) : void</text><ellipse cx="20" cy="209.1387" fill="#84BE84" rx="3" ry="3" style="stroke:#038048;stroke-width:1.0;"/><text fill="#000000" font-family="sans-serif" font-size="14" lengthAdjust="spacing" textLength="104" x="29" y="212.9297">dispose() : void</text><ellipse cx="20" cy="225.627" fill="#84BE84" rx="3" ry="3" style="stroke:#038048;stroke-width:1.0;"/><text fill="#000000" font-family="sans-serif" font-size="14" lengthAdjust="spacing" textLength="266" x="29" y="229.418">equalsToID(patternId: string) : boolean</text><ellipse cx="20" cy="242.1152" fill="#84BE84" rx="3" ry="3" style="stroke:#038048;stroke-width:1.0;"/><text fill="#000000" font-family="sans-serif" font-size="14" lengthAdjust="spacing" textLength="428" x="29" y="245.9063">registerCallback(eventName: string, callback: OSGeneric) : void</text><polygon fill="#FFFF44" points="20,253.6035,24,257.6035,20,261.6035,16,257.6035" style="stroke:#B38D22;stroke-width:1.0;"/><text fill="#000000" font-family="sans-serif" font-size="14" lengthAdjust="spacing" textLength="123" x="29" y="262.3945">finishBuild() : void</text><polygon fill="#FFFF44" points="20,270.0918,24,274.0918,20,278.0918,16,274.0918" style="stroke:#B38D22;stroke-width:1.0;"/><text fill="#000000" font-family="sans-serif" font-size="14" font-style="italic" lengthAdjust="spacing" textLength="178" x="29" y="278.8828">setA11YProperties() : void</text><polygon fill="#FFFF44" points="20,286.5801,24,290.5801,20,294.5801,16,290.5801" style="stroke:#B38D22;stroke-width:1.0;"/><text fill="#000000" font-family="sans-serif" font-size="14" font-style="italic" lengthAdjust="spacing" textLength="136" x="29" y="295.3711">setCallbacks() : void</text><polygon fill="#FFFF44" points="20,303.0684,24,307.0684,20,311.0684,16,307.0684" style="stroke:#B38D22;stroke-width:1.0;"/><text fill="#000000" font-family="sans-serif" font-size="14" font-style="italic" lengthAdjust="spacing" textLength="165" x="29" y="311.8594">setHtmlElements() : void</text><polygon fill="#FFFF44" points="20,319.5566,24,323.5566,20,327.5566,16,323.5566" style="stroke:#B38D22;stroke-width:1.0;"/><text fill="#000000" font-family="sans-serif" font-size="14" lengthAdjust="spacing" textLength="570" x="29" y="328.3477">triggerPlatformEventCallback(platFormCallback: OSGeneric, args: unknown[]) : void</text><polygon fill="#FFFF44" points="20,336.0449,24,340.0449,20,344.0449,16,340.0449" style="stroke:#B38D22;stroke-width:1.0;"/><text fill="#000000" font-family="sans-serif" font-size="14" lengthAdjust="spacing" textLength="318" x="29" y="344.8359">triggerPlatformInitializedEventCallback() : void</text><polygon fill="#FFFF44" points="20,352.5332,24,356.5332,20,360.5332,16,356.5332" style="stroke:#B38D22;stroke-width:1.0;"/><text fill="#000000" font-family="sans-serif" font-size="14" font-style="italic" lengthAdjust="spacing" textLength="154" x="29" y="361.3242">unsetCallbacks() : void</text><polygon fill="#FFFF44" points="20,369.0215,24,373.0215,20,377.0215,16,373.0215" style="stroke:#B38D22;stroke-width:1.0;"/><text fill="#000000" font-family="sans-serif" font-size="14" lengthAdjust="spacing" textLength="198" x="29" y="377.8125">unsetGlobalCallbacks() : void</text><polygon fill="#FFFF44" points="20,385.5098,24,389.5098,20,393.5098,16,389.5098" style="stroke:#B38D22;stroke-width:1.0;"/><text fill="#000000" font-family="sans-serif" font-size="14" font-style="italic" lengthAdjust="spacing" textLength="183" x="29" y="394.3008">unsetHtmlElements() : void</text><rect fill="#F24D5C" height="6" style="stroke:#C82930;stroke-width:1.0;" width="6" x="17" y="403.998"/><text fill="#000000" font-family="sans-serif" font-size="14" lengthAdjust="spacing" textLength="235" x="29" y="410.7891">_setCommonHtmlElements() : void</text><rect fill="#F24D5C" height="6" style="stroke:#C82930;stroke-width:1.0;" width="6" x="17" y="420.4863"/><text fill="#000000" font-family="sans-serif" font-size="14" lengthAdjust="spacing" textLength="253" x="29" y="427.2773">_unsetCommonHtmlElements() : void</text></g><!--class IRating--><g id="elem_IRating"><rect codeLine="78" fill="#FFFFFF" height="196.3945" id="IRating" rx="2.5" ry="2.5" style="stroke:#272B30;stroke-width:0.5;" width="508" x="640" y="122.5"/><ellipse cx="865.75" cy="138.5" fill="#B4A7E5" rx="11" ry="11" style="stroke:#181818;stroke-width:1.0;"/><path d="M862.1777,134.7651 L862.1777,132.6069 L869.5571,132.6069 L869.5571,134.7651 L867.0918,134.7651 L867.0918,142.8418 L869.5571,142.8418 L869.5571,145 L862.1777,145 L862.1777,142.8418 L864.6431,142.8418 L864.6431,134.7651 Z " fill="#000000"/><text fill="#000000" font-family="sans-serif" font-size="14" font-style="italic" lengthAdjust="spacing" textLength="48" x="886.25" y="143.791">IRating</text><line style="stroke:#272B30;stroke-width:0.5;" x1="641" x2="1147" y1="154.5" y2="154.5"/><ellipse cx="651" cy="168.2441" fill="none" rx="3" ry="3" style="stroke:#038048;stroke-width:1.0;"/><text fill="#000000" font-family="sans-serif" font-size="14" lengthAdjust="spacing" textLength="109" x="660" y="172.0352">isBuilt : boolean</text><ellipse cx="651" cy="184.7324" fill="none" rx="3" ry="3" style="stroke:#038048;stroke-width:1.0;"/><text fill="#000000" font-family="sans-serif" font-size="14" lengthAdjust="spacing" textLength="184" x="660" y="188.5234">selfElement : HTMLElement</text><ellipse cx="651" cy="201.2207" fill="none" rx="3" ry="3" style="stroke:#038048;stroke-width:1.0;"/><text fill="#000000" font-family="sans-serif" font-size="14" lengthAdjust="spacing" textLength="113" x="660" y="205.0117">uniqueId : string</text><ellipse cx="651" cy="217.709" fill="none" rx="3" ry="3" style="stroke:#038048;stroke-width:1.0;"/><text fill="#000000" font-family="sans-serif" font-size="14" lengthAdjust="spacing" textLength="111" x="660" y="221.5">widgetId : string</text><line style="stroke:#272B30;stroke-width:0.5;" x1="641" x2="1147" y1="228.4531" y2="228.4531"/><ellipse cx="651" cy="242.1973" fill="#84BE84" rx="3" ry="3" style="stroke:#038048;stroke-width:1.0;"/><text fill="#000000" font-family="sans-serif" font-size="14" lengthAdjust="spacing" textLength="86" x="660" y="245.9883">build() : void</text><ellipse cx="651" cy="258.6855" fill="#84BE84" rx="3" ry="3" style="stroke:#038048;stroke-width:1.0;"/><text fill="#000000" font-family="sans-serif" font-size="14" lengthAdjust="spacing" textLength="482" x="660" y="262.4766">changeProperty(propertyName: string, propertyValue: unknown) : void</text><ellipse cx="651" cy="275.1738" fill="#84BE84" rx="3" ry="3" style="stroke:#038048;stroke-width:1.0;"/><text fill="#000000" font-family="sans-serif" font-size="14" lengthAdjust="spacing" textLength="104" x="660" y="278.9648">dispose() : void</text><ellipse cx="651" cy="291.6621" fill="#84BE84" rx="3" ry="3" style="stroke:#038048;stroke-width:1.0;"/><text fill="#000000" font-family="sans-serif" font-size="14" lengthAdjust="spacing" textLength="216" x="660" y="295.4531">equalsToID(id: string) : boolean</text><ellipse cx="651" cy="308.1504" fill="#84BE84" rx="3" ry="3" style="stroke:#038048;stroke-width:1.0;"/><text fill="#000000" font-family="sans-serif" font-size="14" lengthAdjust="spacing" textLength="428" x="660" y="311.9414">registerCallback(eventName: string, callback: OSGeneric) : void</text></g><!--reverse link AbstractPattern<RatingConfig> to Rating--><g id="link_AbstractPattern&lt;RatingConfig&gt;_Rating"><path codeLine="77" d="M411.19,452.64 C417.29,466.18 423.5,479.95 429.77,493.86 " fill="none" id="AbstractPattern&lt;RatingConfig&gt;-backto-Rating" style="stroke:#272B30;stroke-width:1.0;"/><polygon fill="none" points="404.78,455.44,402.94,434.33,417.54,449.69,404.78,455.44" style="stroke:#272B30;stroke-width:1.0;"/></g><!--reverse link IRating to Rating--><g id="link_IRating_Rating"><path codeLine="89" d="M841.65,337.25 C821.22,382.42 796.54,436.97 770.87,493.72 " fill="none" id="IRating-backto-Rating" style="stroke:#272B30;stroke-width:1.0;stroke-dasharray:7.0,7.0;"/><polygon fill="none" points="835.36,334.15,849.99,318.81,848.12,339.92,835.36,334.15" style="stroke:#272B30;stroke-width:1.0;"/></g><!--SRC=[xLPjQzim4FwUNs6QBovfozeD1gKCqlGbXcqDIncCCOPidHqHMN8bELtNzh_lBB_KRt4BOx31yYNstNClEjrpPxrc8Y6AnCwC4wsdIidRcUHIEUEZjqV-wrSZtKISIaL13KD8i8wKJ0KjO64OrZ0TTG3q3IMZ5QFWG9oOEoS6iv9KrqKX0uwI80lWx7mYXebenxaVEVWRCxrGSeDWTKeqKEVOyQNaG8HLxtyFk1H05vm4i98SOHeXsYZqKI0e12mc_3FXAQ1EfB4FgjGnJNpUunOs8CoLo9EPSHQi4N890XGB2WZJSyB3qctJFE74X5B5vxcR9N083AAkbaqVolg_i0K0SyuXHj3y-iFxx15D6x0vqTRVbDAUZ7EC5qYnDCI0ViQP9vBKV2GnDCiryLF6gRkBqeraD9S5Ao8Ym7j8G9axDoaUCklIUCyffROWnqugraBUYgOZB7SYDRJSmqrAkBwMtfcR46D02O-MVdTRvvmeY9X6p8nmxcExkVQccga4XQvMxqR4SSW4qwlJxb77U0lJmyClnLaPwAw-ZDoZcfkO5yLkQp6rA0Arg3T6TOQiNIvGEkiclkSG5Ucgdb-_3Rhr13ECSFOJQ3D2qoeL0-UmoaikVS878TiFYwnKW3te6OWxgWZCMOsHxYRlbvoMkss28jfxubaNtEG0edDSnmzsCELG7nFjl68YI0GvuMtjse2SDrV2JWCNi_WWKmqMsaP2B3UvfXD6WS3eMMLSXay_weUfmR2-vLGuAsPKHkjKkqoNWkhqNTkY3sPQsx4DdJIUC4-jRalNYwn2lZ2wFgVCz3XQ8ZEXJuuDw-ArPFzrvZTH-TKM7M-hkos70bCEtlmwExrZ3Hv7nCU01CTpiO2cnViYdqKdnGwG8cJHkvVl9OlFbb7TlbeTsUmnmskZnkMUpQ61Xrj7V2hOJGeURQ_2MqOpGj7_Cx-ckIyRuF7PyT-2RXcFBTG_iXJgMV_cVkYu6beLMIGPnr8CWVA41c2Fe-TuU_AmlrzzNOwOG4o8sy3PyPfVd9D-SavAmc7S7ivD-Yat-IiPn_uSrV0UgdgUF1mSL1N_1G00]--></g></svg>