<?xml version="1.0" encoding="us-ascii" standalone="no"?><svg xmlns="http://www.w3.org/2000/svg" xmlns:xlink="http://www.w3.org/1999/xlink" contentStyleType="text/css" height="1115px" preserveAspectRatio="none" style="width:1156px;height:1115px;background:#CED4DA;" version="1.1" viewBox="0 0 1156 1115" width="1156px" zoomAndPan="magnify"><defs/><g><rect fill="#CED4DA" height="1115" style="stroke:none;stroke-width:1.0;" width="1156" x="0" y="0"/><!--class SectionIndex--><g id="elem_SectionIndex"><rect codeLine="7" fill="#FFFFFF" height="602.0938" id="SectionIndex" rx="2.5" ry="2.5" style="stroke:#272B30;stroke-width:0.5;" width="623" x="289" y="506"/><ellipse cx="551.75" cy="522" fill="#ADD1B2" rx="11" ry="11" style="stroke:#181818;stroke-width:1.0;"/><path d="M554.7188,527.6406 Q554.1406,527.9375 553.5,528.0781 Q552.8594,528.2344 552.1563,528.2344 Q549.6563,528.2344 548.3281,526.5938 Q547.0156,524.9375 547.0156,521.8125 Q547.0156,518.6875 548.3281,517.0313 Q549.6563,515.375 552.1563,515.375 Q552.8594,515.375 553.5,515.5313 Q554.1563,515.6875 554.7188,515.9844 L554.7188,518.7031 Q554.0938,518.125 553.5,517.8594 Q552.9063,517.5781 552.2813,517.5781 Q550.9375,517.5781 550.25,518.6563 Q549.5625,519.7188 549.5625,521.8125 Q549.5625,523.9063 550.25,524.9844 Q550.9375,526.0469 552.2813,526.0469 Q552.9063,526.0469 553.5,525.7813 Q554.0938,525.5 554.7188,524.9219 L554.7188,527.6406 Z " fill="#000000"/><text fill="#000000" font-family="sans-serif" font-size="14" lengthAdjust="spacing" textLength="89" x="572.25" y="526.8467">SectionIndex</text><line style="stroke:#272B30;stroke-width:0.5;" x1="290" x2="911" y1="538" y2="538"/><polygon fill="none" points="300,546.6484,304,550.6484,300,554.6484,296,550.6484" style="stroke:#B38D22;stroke-width:1.0;"/><text fill="#000000" font-family="sans-serif" font-size="14" lengthAdjust="spacing" textLength="180" x="309" y="554.9951">isProviderBased : boolean</text><rect fill="none" height="6" style="stroke:#C82930;stroke-width:1.0;" width="6" x="297" y="564.9453"/><text fill="#000000" font-family="sans-serif" font-size="14" lengthAdjust="spacing" textLength="301" x="309" y="571.292">_activeSectionIndexItem : ISectionIndexItem</text><rect fill="none" height="6" style="stroke:#C82930;stroke-width:1.0;" width="6" x="297" y="581.2422"/><text fill="#000000" font-family="sans-serif" font-size="14" lengthAdjust="spacing" textLength="263" x="309" y="587.5889">_contentPaddingTop : string | number</text><rect fill="none" height="6" style="stroke:#C82930;stroke-width:1.0;" width="6" x="297" y="597.5391"/><text fill="#000000" font-family="sans-serif" font-size="14" lengthAdjust="spacing" textLength="309" x="309" y="603.8857">_mainScrollContainerElement : HTMLElement</text><rect fill="none" height="6" style="stroke:#C82930;stroke-width:1.0;" width="6" x="297" y="613.8359"/><text fill="#000000" font-family="sans-serif" font-size="14" lengthAdjust="spacing" textLength="186" x="309" y="620.1826">_navigateOnClick : boolean</text><rect fill="none" height="6" style="stroke:#C82930;stroke-width:1.0;" width="6" x="297" y="630.1328"/><text fill="#000000" font-family="sans-serif" font-size="14" lengthAdjust="spacing" textLength="167" x="309" y="636.4795">_scrollTimeout : number</text><line style="stroke:#272B30;stroke-width:0.5;" x1="290" x2="911" y1="643.7813" y2="643.7813"/><ellipse cx="300" cy="657.4297" fill="#84BE84" rx="3" ry="3" style="stroke:#038048;stroke-width:1.0;"/><text fill="#000000" font-family="sans-serif" font-size="14" lengthAdjust="spacing" textLength="597" x="309" y="660.7764">beNotifiedByChild(childItem: SectionIndexItem, notifiedTo: ChildNotifyActionType) : void</text><ellipse cx="300" cy="673.7266" fill="#84BE84" rx="3" ry="3" style="stroke:#038048;stroke-width:1.0;"/><text fill="#000000" font-family="sans-serif" font-size="14" lengthAdjust="spacing" textLength="84" x="309" y="677.0732">build() : void</text><ellipse cx="300" cy="690.0234" fill="#84BE84" rx="3" ry="3" style="stroke:#038048;stroke-width:1.0;"/><text fill="#000000" font-family="sans-serif" font-size="14" lengthAdjust="spacing" textLength="484" x="309" y="693.3701">changeProperty(propertyName: string, propertyValue: unknown) : void</text><ellipse cx="300" cy="706.3203" fill="#84BE84" rx="3" ry="3" style="stroke:#038048;stroke-width:1.0;"/><text fill="#000000" font-family="sans-serif" font-size="14" lengthAdjust="spacing" textLength="106" x="309" y="709.667">dispose() : void</text><ellipse cx="300" cy="722.6172" fill="#84BE84" rx="3" ry="3" style="stroke:#038048;stroke-width:1.0;"/><text fill="#000000" font-family="sans-serif" font-size="14" lengthAdjust="spacing" textLength="267" x="309" y="725.9639">equalsToID(patternId: string) : boolean</text><ellipse cx="300" cy="738.9141" fill="#84BE84" rx="3" ry="3" style="stroke:#038048;stroke-width:1.0;"/><text fill="#000000" font-family="sans-serif" font-size="14" lengthAdjust="spacing" textLength="328" x="309" y="742.2607">getChildItems(type: string) : ISectionIndexItem[]</text><ellipse cx="300" cy="755.2109" fill="#84BE84" rx="3" ry="3" style="stroke:#038048;stroke-width:1.0;"/><text fill="#000000" font-family="sans-serif" font-size="14" lengthAdjust="spacing" textLength="434" x="309" y="758.5576">registerCallback(eventName: string, callback: OSGeneric) : void</text><polygon fill="#FFFF44" points="300,766.5078,304,770.5078,300,774.5078,296,770.5078" style="stroke:#B38D22;stroke-width:1.0;"/><text fill="#000000" font-family="sans-serif" font-size="14" lengthAdjust="spacing" textLength="121" x="309" y="774.8545">finishBuild() : void</text><polygon fill="#FFFF44" points="300,782.8047,304,786.8047,300,790.8047,296,786.8047" style="stroke:#B38D22;stroke-width:1.0;"/><text fill="#000000" font-family="sans-serif" font-size="14" lengthAdjust="spacing" textLength="294" x="309" y="791.1514">getChild(childId: string) : ISectionIndexItem</text><polygon fill="#FFFF44" points="300,799.1016,304,803.1016,300,807.1016,296,803.1016" style="stroke:#B38D22;stroke-width:1.0;"/><text fill="#000000" font-family="sans-serif" font-size="14" lengthAdjust="spacing" textLength="478" x="309" y="807.4482">getChildByIndex(index: number, childType: string) : ISectionIndexItem</text><polygon fill="#FFFF44" points="300,815.3984,304,819.3984,300,823.3984,296,819.3984" style="stroke:#B38D22;stroke-width:1.0;"/><text fill="#000000" font-family="sans-serif" font-size="14" lengthAdjust="spacing" textLength="263" x="309" y="823.7451">getChildIndex(childId: string) : number</text><polygon fill="#FFFF44" points="300,831.6953,304,835.6953,300,839.6953,296,835.6953" style="stroke:#B38D22;stroke-width:1.0;"/><text fill="#000000" font-family="sans-serif" font-size="14" lengthAdjust="spacing" textLength="180" x="309" y="840.042">setA11YProperties() : void</text><polygon fill="#FFFF44" points="300,847.9922,304,851.9922,300,855.9922,296,851.9922" style="stroke:#B38D22;stroke-width:1.0;"/><text fill="#000000" font-family="sans-serif" font-size="14" lengthAdjust="spacing" textLength="138" x="309" y="856.3389">setCallbacks() : void</text><polygon fill="#FFFF44" points="300,864.2891,304,868.2891,300,872.2891,296,868.2891" style="stroke:#B38D22;stroke-width:1.0;"/><text fill="#000000" font-family="sans-serif" font-size="14" lengthAdjust="spacing" textLength="300" x="309" y="872.6357">setChild(childItem: ISectionIndexItem) : void</text><polygon fill="#FFFF44" points="300,880.5859,304,884.5859,300,888.5859,296,884.5859" style="stroke:#B38D22;stroke-width:1.0;"/><text fill="#000000" font-family="sans-serif" font-size="14" lengthAdjust="spacing" textLength="169" x="309" y="888.9326">setHtmlElements() : void</text><polygon fill="#FFFF44" points="300,896.8828,304,900.8828,300,904.8828,296,900.8828" style="stroke:#B38D22;stroke-width:1.0;"/><text fill="#000000" font-family="sans-serif" font-size="14" lengthAdjust="spacing" textLength="569" x="309" y="905.2295">triggerPlatformEventCallback(platFormCallback: OSGeneric, args: unknown[]) : void</text><polygon fill="#FFFF44" points="300,913.1797,304,917.1797,300,921.1797,296,917.1797" style="stroke:#B38D22;stroke-width:1.0;"/><text fill="#000000" font-family="sans-serif" font-size="14" lengthAdjust="spacing" textLength="311" x="309" y="921.5264">triggerPlatformInitializedEventCallback() : void</text><polygon fill="#FFFF44" points="300,929.4766,304,933.4766,300,937.4766,296,933.4766" style="stroke:#B38D22;stroke-width:1.0;"/><text fill="#000000" font-family="sans-serif" font-size="14" lengthAdjust="spacing" textLength="156" x="309" y="937.8232">unsetCallbacks() : void</text><polygon fill="#FFFF44" points="300,945.7734,304,949.7734,300,953.7734,296,949.7734" style="stroke:#B38D22;stroke-width:1.0;"/><text fill="#000000" font-family="sans-serif" font-size="14" lengthAdjust="spacing" textLength="217" x="309" y="954.1201">unsetChild(childId: string) : void</text><polygon fill="#FFFF44" points="300,962.0703,304,966.0703,300,970.0703,296,966.0703" style="stroke:#B38D22;stroke-width:1.0;"/><text fill="#000000" font-family="sans-serif" font-size="14" lengthAdjust="spacing" textLength="199" x="309" y="970.417">unsetGlobalCallbacks() : void</text><polygon fill="#FFFF44" points="300,978.3672,304,982.3672,300,986.3672,296,982.3672" style="stroke:#B38D22;stroke-width:1.0;"/><text fill="#000000" font-family="sans-serif" font-size="14" lengthAdjust="spacing" textLength="187" x="309" y="986.7139">unsetHtmlElements() : void</text><rect fill="#F24D5C" height="6" style="stroke:#C82930;stroke-width:1.0;" width="6" x="297" y="996.6641"/><text fill="#000000" font-family="sans-serif" font-size="14" lengthAdjust="spacing" textLength="393" x="309" y="1003.0107">_addSectionIndexItem(childItem: SectionIndexItem) : void</text><rect fill="#F24D5C" height="6" style="stroke:#C82930;stroke-width:1.0;" width="6" x="297" y="1012.9609"/><text fill="#000000" font-family="sans-serif" font-size="14" lengthAdjust="spacing" textLength="325" x="309" y="1019.3076">_childItemHasBeenClicked(childId: string) : void</text><rect fill="#F24D5C" height="6" style="stroke:#C82930;stroke-width:1.0;" width="6" x="297" y="1029.2578"/><text fill="#000000" font-family="sans-serif" font-size="14" lengthAdjust="spacing" textLength="220" x="309" y="1035.6045">_getContentPaddingTop() : void</text><rect fill="#F24D5C" height="6" style="stroke:#C82930;stroke-width:1.0;" width="6" x="297" y="1045.5547"/><text fill="#000000" font-family="sans-serif" font-size="14" lengthAdjust="spacing" textLength="321" x="309" y="1051.9014">_removeSectionIndexItem(childId: string) : void</text><rect fill="#F24D5C" height="6" style="stroke:#C82930;stroke-width:1.0;" width="6" x="297" y="1061.8516"/><text fill="#000000" font-family="sans-serif" font-size="14" lengthAdjust="spacing" textLength="370" x="309" y="1068.1982">_setActiveChildOnClick(child: ISectionIndexItem) : void</text><rect fill="#F24D5C" height="6" style="stroke:#C82930;stroke-width:1.0;" width="6" x="297" y="1078.1484"/><text fill="#000000" font-family="sans-serif" font-size="14" lengthAdjust="spacing" textLength="375" x="309" y="1084.4951">_setActiveChildOnScroll(child: ISectionIndexItem) : void</text><rect fill="#F24D5C" height="6" style="stroke:#C82930;stroke-width:1.0;" width="6" x="297" y="1094.4453"/><text fill="#000000" font-family="sans-serif" font-size="14" lengthAdjust="spacing" textLength="149" x="309" y="1100.792">_toggleIsFixed() : void</text></g><!--class AbstractParent<SectionIndexConfig, ISectionIndexItem>--><g id="elem_AbstractParent&lt;SectionIndexConfig, ISectionIndexItem&gt;"><rect codeLine="43" fill="#FFFFFF" height="439.125" id="AbstractParent&lt;SectionIndexConfig, ISectionIndexItem&gt;" rx="2.5" ry="2.5" style="stroke:#272B30;stroke-width:0.5;" width="595" x="9" y="7"/><ellipse cx="105.25" cy="23" fill="#A9DCDF" rx="11" ry="11" style="stroke:#181818;stroke-width:1.0;"/><path d="M105.3594,18.3438 L104.2031,23.4219 L106.5313,23.4219 L105.3594,18.3438 Z M103.875,16.1094 L106.8594,16.1094 L110.2188,28.5 L107.7656,28.5 L107,25.4375 L103.7188,25.4375 L102.9688,28.5 L100.5313,28.5 L103.875,16.1094 Z " fill="#000000"/><text fill="#000000" font-family="sans-serif" font-size="14" font-style="italic" lengthAdjust="spacing" textLength="394" x="125.75" y="27.8467">AbstractParent&lt;SectionIndexConfig, ISectionIndexItem&gt;</text><line style="stroke:#272B30;stroke-width:0.5;" x1="10" x2="603" y1="39" y2="39"/><polygon fill="none" points="20,47.6484,24,51.6484,20,55.6484,16,51.6484" style="stroke:#B38D22;stroke-width:1.0;"/><text fill="#000000" font-family="sans-serif" font-size="14" lengthAdjust="spacing" textLength="180" x="29" y="55.9951">isProviderBased : boolean</text><rect fill="none" height="6" style="stroke:#C82930;stroke-width:1.0;" width="6" x="17" y="65.9453"/><text fill="#000000" font-family="sans-serif" font-size="14" lengthAdjust="spacing" textLength="262" x="29" y="72.292">_childIdsByType : Map&lt;string, string&gt;</text><rect fill="none" height="6" style="stroke:#C82930;stroke-width:1.0;" width="6" x="17" y="82.2422"/><text fill="#000000" font-family="sans-serif" font-size="14" lengthAdjust="spacing" textLength="186" x="29" y="88.5889">_childItemsByType : Object</text><line style="stroke:#272B30;stroke-width:0.5;" x1="10" x2="603" y1="95.8906" y2="95.8906"/><ellipse cx="20" cy="109.5391" fill="#84BE84" rx="3" ry="3" style="stroke:#038048;stroke-width:1.0;"/><text fill="#000000" font-family="sans-serif" font-size="14" font-style="italic" lengthAdjust="spacing" textLength="497" x="29" y="112.8857">beNotifiedByChild(childItem: ISectionIndexItem, notifiedTo: string) : void</text><ellipse cx="20" cy="125.8359" fill="#84BE84" rx="3" ry="3" style="stroke:#038048;stroke-width:1.0;"/><text fill="#000000" font-family="sans-serif" font-size="14" lengthAdjust="spacing" textLength="84" x="29" y="129.1826">build() : void</text><ellipse cx="20" cy="142.1328" fill="#84BE84" rx="3" ry="3" style="stroke:#038048;stroke-width:1.0;"/><text fill="#000000" font-family="sans-serif" font-size="14" lengthAdjust="spacing" textLength="484" x="29" y="145.4795">changeProperty(propertyName: string, propertyValue: unknown) : void</text><ellipse cx="20" cy="158.4297" fill="#84BE84" rx="3" ry="3" style="stroke:#038048;stroke-width:1.0;"/><text fill="#000000" font-family="sans-serif" font-size="14" lengthAdjust="spacing" textLength="106" x="29" y="161.7764">dispose() : void</text><ellipse cx="20" cy="174.7266" fill="#84BE84" rx="3" ry="3" style="stroke:#038048;stroke-width:1.0;"/><text fill="#000000" font-family="sans-serif" font-size="14" lengthAdjust="spacing" textLength="267" x="29" y="178.0732">equalsToID(patternId: string) : boolean</text><ellipse cx="20" cy="191.0234" fill="#84BE84" rx="3" ry="3" style="stroke:#038048;stroke-width:1.0;"/><text fill="#000000" font-family="sans-serif" font-size="14" lengthAdjust="spacing" textLength="328" x="29" y="194.3701">getChildItems(type: string) : ISectionIndexItem[]</text><ellipse cx="20" cy="207.3203" fill="#84BE84" rx="3" ry="3" style="stroke:#038048;stroke-width:1.0;"/><text fill="#000000" font-family="sans-serif" font-size="14" lengthAdjust="spacing" textLength="434" x="29" y="210.667">registerCallback(eventName: string, callback: OSGeneric) : void</text><polygon fill="#FFFF44" points="20,218.6172,24,222.6172,20,226.6172,16,222.6172" style="stroke:#B38D22;stroke-width:1.0;"/><text fill="#000000" font-family="sans-serif" font-size="14" lengthAdjust="spacing" textLength="121" x="29" y="226.9639">finishBuild() : void</text><polygon fill="#FFFF44" points="20,234.9141,24,238.9141,20,242.9141,16,238.9141" style="stroke:#B38D22;stroke-width:1.0;"/><text fill="#000000" font-family="sans-serif" font-size="14" lengthAdjust="spacing" textLength="294" x="29" y="243.2607">getChild(childId: string) : ISectionIndexItem</text><polygon fill="#FFFF44" points="20,251.2109,24,255.2109,20,259.2109,16,255.2109" style="stroke:#B38D22;stroke-width:1.0;"/><text fill="#000000" font-family="sans-serif" font-size="14" lengthAdjust="spacing" textLength="478" x="29" y="259.5576">getChildByIndex(index: number, childType: string) : ISectionIndexItem</text><polygon fill="#FFFF44" points="20,267.5078,24,271.5078,20,275.5078,16,271.5078" style="stroke:#B38D22;stroke-width:1.0;"/><text fill="#000000" font-family="sans-serif" font-size="14" lengthAdjust="spacing" textLength="263" x="29" y="275.8545">getChildIndex(childId: string) : number</text><polygon fill="#FFFF44" points="20,283.8047,24,287.8047,20,291.8047,16,287.8047" style="stroke:#B38D22;stroke-width:1.0;"/><text fill="#000000" font-family="sans-serif" font-size="14" font-style="italic" lengthAdjust="spacing" textLength="179" x="29" y="292.1514">setA11YProperties() : void</text><polygon fill="#FFFF44" points="20,300.1016,24,304.1016,20,308.1016,16,304.1016" style="stroke:#B38D22;stroke-width:1.0;"/><text fill="#000000" font-family="sans-serif" font-size="14" font-style="italic" lengthAdjust="spacing" textLength="137" x="29" y="308.4482">setCallbacks() : void</text><polygon fill="#FFFF44" points="20,316.3984,24,320.3984,20,324.3984,16,320.3984" style="stroke:#B38D22;stroke-width:1.0;"/><text fill="#000000" font-family="sans-serif" font-size="14" lengthAdjust="spacing" textLength="300" x="29" y="324.7451">setChild(childItem: ISectionIndexItem) : void</text><polygon fill="#FFFF44" points="20,332.6953,24,336.6953,20,340.6953,16,336.6953" style="stroke:#B38D22;stroke-width:1.0;"/><text fill="#000000" font-family="sans-serif" font-size="14" font-style="italic" lengthAdjust="spacing" textLength="169" x="29" y="341.042">setHtmlElements() : void</text><polygon fill="#FFFF44" points="20,348.9922,24,352.9922,20,356.9922,16,352.9922" style="stroke:#B38D22;stroke-width:1.0;"/><text fill="#000000" font-family="sans-serif" font-size="14" lengthAdjust="spacing" textLength="569" x="29" y="357.3389">triggerPlatformEventCallback(platFormCallback: OSGeneric, args: unknown[]) : void</text><polygon fill="#FFFF44" points="20,365.2891,24,369.2891,20,373.2891,16,369.2891" style="stroke:#B38D22;stroke-width:1.0;"/><text fill="#000000" font-family="sans-serif" font-size="14" lengthAdjust="spacing" textLength="311" x="29" y="373.6357">triggerPlatformInitializedEventCallback() : void</text><polygon fill="#FFFF44" points="20,381.5859,24,385.5859,20,389.5859,16,385.5859" style="stroke:#B38D22;stroke-width:1.0;"/><text fill="#000000" font-family="sans-serif" font-size="14" font-style="italic" lengthAdjust="spacing" textLength="155" x="29" y="389.9326">unsetCallbacks() : void</text><polygon fill="#FFFF44" points="20,397.8828,24,401.8828,20,405.8828,16,401.8828" style="stroke:#B38D22;stroke-width:1.0;"/><text fill="#000000" font-family="sans-serif" font-size="14" lengthAdjust="spacing" textLength="217" x="29" y="406.2295">unsetChild(childId: string) : void</text><polygon fill="#FFFF44" points="20,414.1797,24,418.1797,20,422.1797,16,418.1797" style="stroke:#B38D22;stroke-width:1.0;"/><text fill="#000000" font-family="sans-serif" font-size="14" lengthAdjust="spacing" textLength="199" x="29" y="422.5264">unsetGlobalCallbacks() : void</text><polygon fill="#FFFF44" points="20,430.4766,24,434.4766,20,438.4766,16,434.4766" style="stroke:#B38D22;stroke-width:1.0;"/><text fill="#000000" font-family="sans-serif" font-size="14" font-style="italic" lengthAdjust="spacing" textLength="187" x="29" y="438.8232">unsetHtmlElements() : void</text></g><!--class ISectionIndex--><g id="elem_ISectionIndex"><rect codeLine="70" fill="#FFFFFF" height="227.2656" id="ISectionIndex" rx="2.5" ry="2.5" style="stroke:#272B30;stroke-width:0.5;" width="510" x="639.5" y="113"/><ellipse cx="842.75" cy="129" fill="#B4A7E5" rx="11" ry="11" style="stroke:#181818;stroke-width:1.0;"/><path d="M838.6719,124.7656 L838.6719,122.6094 L846.0625,122.6094 L846.0625,124.7656 L843.5938,124.7656 L843.5938,132.8438 L846.0625,132.8438 L846.0625,135 L838.6719,135 L838.6719,132.8438 L841.1406,132.8438 L841.1406,124.7656 L838.6719,124.7656 Z " fill="#000000"/><text fill="#000000" font-family="sans-serif" font-size="14" font-style="italic" lengthAdjust="spacing" textLength="95" x="863.25" y="133.8467">ISectionIndex</text><line style="stroke:#272B30;stroke-width:0.5;" x1="640.5" x2="1148.5" y1="145" y2="145"/><ellipse cx="650.5" cy="158.6484" fill="none" rx="3" ry="3" style="stroke:#038048;stroke-width:1.0;"/><text fill="#000000" font-family="sans-serif" font-size="14" lengthAdjust="spacing" textLength="256" x="659.5" y="161.9951">contentPaddingTop : string | number</text><ellipse cx="650.5" cy="174.9453" fill="none" rx="3" ry="3" style="stroke:#038048;stroke-width:1.0;"/><text fill="#000000" font-family="sans-serif" font-size="14" lengthAdjust="spacing" textLength="110" x="659.5" y="178.292">isBuilt : boolean</text><ellipse cx="650.5" cy="191.2422" fill="none" rx="3" ry="3" style="stroke:#038048;stroke-width:1.0;"/><text fill="#000000" font-family="sans-serif" font-size="14" lengthAdjust="spacing" textLength="189" x="659.5" y="194.5889">selfElement : HTMLElement</text><ellipse cx="650.5" cy="207.5391" fill="none" rx="3" ry="3" style="stroke:#038048;stroke-width:1.0;"/><text fill="#000000" font-family="sans-serif" font-size="14" lengthAdjust="spacing" textLength="112" x="659.5" y="210.8857">uniqueId : string</text><ellipse cx="650.5" cy="223.8359" fill="none" rx="3" ry="3" style="stroke:#038048;stroke-width:1.0;"/><text fill="#000000" font-family="sans-serif" font-size="14" lengthAdjust="spacing" textLength="110" x="659.5" y="227.1826">widgetId : string</text><line style="stroke:#272B30;stroke-width:0.5;" x1="640.5" x2="1148.5" y1="234.4844" y2="234.4844"/><ellipse cx="650.5" cy="248.1328" fill="#84BE84" rx="3" ry="3" style="stroke:#038048;stroke-width:1.0;"/><text fill="#000000" font-family="sans-serif" font-size="14" lengthAdjust="spacing" textLength="405" x="659.5" y="251.4795">beNotifiedByChild(childItem: IChild, notifiedTo: string) : void</text><ellipse cx="650.5" cy="264.4297" fill="#84BE84" rx="3" ry="3" style="stroke:#038048;stroke-width:1.0;"/><text fill="#000000" font-family="sans-serif" font-size="14" lengthAdjust="spacing" textLength="84" x="659.5" y="267.7764">build() : void</text><ellipse cx="650.5" cy="280.7266" fill="#84BE84" rx="3" ry="3" style="stroke:#038048;stroke-width:1.0;"/><text fill="#000000" font-family="sans-serif" font-size="14" lengthAdjust="spacing" textLength="484" x="659.5" y="284.0732">changeProperty(propertyName: string, propertyValue: unknown) : void</text><ellipse cx="650.5" cy="297.0234" fill="#84BE84" rx="3" ry="3" style="stroke:#038048;stroke-width:1.0;"/><text fill="#000000" font-family="sans-serif" font-size="14" lengthAdjust="spacing" textLength="106" x="659.5" y="300.3701">dispose() : void</text><ellipse cx="650.5" cy="313.3203" fill="#84BE84" rx="3" ry="3" style="stroke:#038048;stroke-width:1.0;"/><text fill="#000000" font-family="sans-serif" font-size="14" lengthAdjust="spacing" textLength="217" x="659.5" y="316.667">equalsToID(id: string) : boolean</text><ellipse cx="650.5" cy="329.6172" fill="#84BE84" rx="3" ry="3" style="stroke:#038048;stroke-width:1.0;"/><text fill="#000000" font-family="sans-serif" font-size="14" lengthAdjust="spacing" textLength="434" x="659.5" y="332.9639">registerCallback(eventName: string, callback: OSGeneric) : void</text></g><!--reverse link AbstractParent<SectionIndexConfig, ISectionIndexItem> to SectionIndex--><g id="link_AbstractParent&lt;SectionIndexConfig, ISectionIndexItem&gt;_SectionIndex"><path codeLine="69" d="M425.8082,462.255 C435.7282,481.765 437.72,485.7 447.91,505.74 " fill="none" id="AbstractParent&lt;SectionIndexConfig, ISectionIndexItem&gt;-backto-SectionIndex" style="stroke:#272B30;stroke-width:1.0;"/><polygon fill="none" points="417.65,446.21,420.4599,464.9745,431.1566,459.5356,417.65,446.21" style="stroke:#272B30;stroke-width:1.0;"/></g><!--reverse link ISectionIndex to SectionIndex--><g id="link_ISectionIndex_SectionIndex"><path codeLine="83" d="M829.1348,356.1166 C804.7048,404.1866 783.07,446.77 752.97,506 " fill="none" id="ISectionIndex-backto-SectionIndex" style="stroke:#272B30;stroke-width:1.0;stroke-dasharray:7.0,7.0;"/><polygon fill="none" points="837.29,340.07,823.786,353.3982,834.4837,358.835,837.29,340.07" style="stroke:#272B30;stroke-width:1.0;"/></g><!--SRC=[xLPjJzim4FxUNs7HBqK5DDYaILM5H3jU8WseH3LfGWYvyINrSEnWEuKE-E-xlB74AIdQfccRrWzfSY-FptVdvsnkk8offX4P2shCWTRgRgo4qgIxztvlzlPDnzGjHaepqEqcrBy9jKeaAyo28AZODDG-i7UCTkQS0O4ejaiIWPqhPggYW8D0YPykG3OkmBTSIKyokDyW3ns2lout4wqMwA97r00Z0p9JIW2LcNhxcgBF0ggkdeK8pJnNLZZuIbgGTa8PupASgXXjZTNuJXw9JA8PwC8oebnU-5e9CKOV_01zA212PtGvcPv-BBuASqaNFAGMpkLOSF-c4Qd9eAOy0fMa29Mr-ZCuKvPZEjXeEPvpmNf- -ap37X1t8rj45iPJDI2PUUQzFCZifiiODX5_eJWhq9CKiIxpvrI6WBcDGTjbBovUpcW4PJwsI2dzH4M2uaJUI7Kdwq2CcrWPSE3XDg72J9NteHTJQq5BZvMucqvg-Y7OSRbTqxCOVzMqKSZBgznDGyWDGe-f43Filnuii1hr7VY5Ra3EBuu1AyZzMg3TW4jkvgDcXhfbL4KfM6jCTPVHCbFqUFeiAut1fBhfkktLeNAW5I5KsgThm1xixdukgid1E5j1VPcaLIgtuHeXDLnER2IAxdS1CS0m13qHr0PAHuTfJPuh5AFq2ANZPbcs2DMXUMwoowjMM4zoowdWNu7LLwXx9R9bwxdofH8xTiT2pQXeXNevAKXJZBb9RJlYZlUpvGar8u2SOA0zxEthj8LSidFZqX2f9dsk0KxRBQFTB7a5t-K-wvgdwPmpx6kzhGf30PuvulTGER1F7Jh3K74Oa6AO71JV4wen0SCgB2ObuCWDZRNsNprrYloOqJ8zpgW-fV6mv9pyVz-jtNVZyzaNN3dJFvHnFwqP0bxx55XHf_-q_u_JVgLtraq0n_JN3GC7-2-P2zMeVzE8Q2ovEbLFdHzbhk7ZzhPpX-vmP7yTK1_8XhVgTjr_xMMupqrwLgnxX0s8uEKxSJ-H_3O1ZpsZvk8xph3F6-9s_iiaVphfyPVPxcTf2pl3gU7mSMV7gVWt]--></g></svg>