<?xml version="1.0" encoding="UTF-8" standalone="no"?><svg xmlns="http://www.w3.org/2000/svg" xmlns:xlink="http://www.w3.org/1999/xlink" contentScriptType="application/ecmascript" contentStyleType="text/css" height="928px" preserveAspectRatio="none" style="width:931px;height:928px;background:#CED4DA;" version="1.1" viewBox="0 0 931 928" width="931px" zoomAndPan="magnify"><defs><filter height="300%" id="fwyzb72ug4ste" width="300%" x="-1" y="-1"><feGaussianBlur result="blurOut" stdDeviation="2.0"/><feColorMatrix in="blurOut" result="blurOut2" type="matrix" values="0 0 0 0 0 0 0 0 0 0 0 0 0 0 0 0 0 0 .4 0"/><feOffset dx="4.0" dy="4.0" in="blurOut2" result="blurOut3"/><feBlend in="SourceGraphic" in2="blurOut3" mode="normal"/></filter></defs><g><!--MD5=[10760952ad3526950e279de6cc5b2d50]
class SectionIndex--><rect codeLine="7" fill="#FFFFFF" filter="url(#fwyzb72ug4ste)" height="488.4727" id="SectionIndex" style="stroke:#272B30;stroke-width:1.5;" width="496" x="232" y="426"/><ellipse cx="439.75" cy="442" fill="#ADD1B2" rx="11" ry="11" style="stroke:#272B30;stroke-width:1.0;"/><path d="M442.2231,448.1431 Q441.6421,448.4419 441.0029,448.5913 Q440.3638,448.7407 439.6582,448.7407 Q437.1514,448.7407 435.8315,447.0889 Q434.5117,445.437 434.5117,442.3159 Q434.5117,439.1865 435.8315,437.5347 Q437.1514,435.8828 439.6582,435.8828 Q440.3638,435.8828 441.0112,436.0322 Q441.6587,436.1816 442.2231,436.4805 L442.2231,439.2031 Q441.5923,438.6221 440.9988,438.3523 Q440.4053,438.0825 439.7744,438.0825 Q438.4297,438.0825 437.7449,439.1492 Q437.0601,440.2158 437.0601,442.3159 Q437.0601,444.4077 437.7449,445.4744 Q438.4297,446.541 439.7744,446.541 Q440.4053,446.541 440.9988,446.2712 Q441.5923,446.0015 442.2231,445.4204 Z " fill="#000000"/><text fill="#000000" font-family="sans-serif" font-size="12" lengthAdjust="spacing" textLength="72" x="460.25" y="446.5352">SectionIndex</text><line style="stroke:#272B30;stroke-width:1.5;" x1="233" x2="727" y1="458" y2="458"/><polygon fill="none" points="243,464,247,468,243,472,239,468" style="stroke:#B38D22;stroke-width:1.0;"/><text fill="#000000" font-family="sans-serif" font-size="11" lengthAdjust="spacing" textLength="137" x="252" y="472.6348">isProviderBased : boolean</text><rect fill="none" height="6" style="stroke:#C82930;stroke-width:1.0;" width="6" x="240" y="478.9551"/><text fill="#000000" font-family="sans-serif" font-size="11" lengthAdjust="spacing" textLength="233" x="252" y="485.5898">_activeSectionIndexItem : ISectionIndexItem</text><rect fill="none" height="6" style="stroke:#C82930;stroke-width:1.0;" width="6" x="240" y="491.9102"/><text fill="#000000" font-family="sans-serif" font-size="11" lengthAdjust="spacing" textLength="204" x="252" y="498.5449">_contentPaddingTop : string | number</text><rect fill="none" height="6" style="stroke:#C82930;stroke-width:1.0;" width="6" x="240" y="504.8652"/><text fill="#000000" font-family="sans-serif" font-size="11" lengthAdjust="spacing" textLength="238" x="252" y="511.5">_mainScrollContainerElement : HTMLElement</text><rect fill="none" height="6" style="stroke:#C82930;stroke-width:1.0;" width="6" x="240" y="517.8203"/><text fill="#000000" font-family="sans-serif" font-size="11" lengthAdjust="spacing" textLength="145" x="252" y="524.4551">_navigateOnClick : boolean</text><rect fill="none" height="6" style="stroke:#C82930;stroke-width:1.0;" width="6" x="240" y="530.7754"/><text fill="#000000" font-family="sans-serif" font-size="11" lengthAdjust="spacing" textLength="131" x="252" y="537.4102">_scrollTimeout : number</text><line style="stroke:#272B30;stroke-width:1.5;" x1="233" x2="727" y1="543.7305" y2="543.7305"/><ellipse cx="243" cy="554.7305" fill="#84BE84" rx="3" ry="3" style="stroke:#038048;stroke-width:1.0;"/><text fill="#000000" font-family="sans-serif" font-size="11" lengthAdjust="spacing" textLength="470" x="252" y="558.3652">beNotifiedByChild(childItem: SectionIndexItem, notifiedTo: ChildNotifyActionType) : void</text><ellipse cx="243" cy="567.6855" fill="#84BE84" rx="3" ry="3" style="stroke:#038048;stroke-width:1.0;"/><text fill="#000000" font-family="sans-serif" font-size="11" lengthAdjust="spacing" textLength="67" x="252" y="571.3203">build() : void</text><ellipse cx="243" cy="580.6406" fill="#84BE84" rx="3" ry="3" style="stroke:#038048;stroke-width:1.0;"/><text fill="#000000" font-family="sans-serif" font-size="11" lengthAdjust="spacing" textLength="377" x="252" y="584.2754">changeProperty(propertyName: string, propertyValue: unknown) : void</text><ellipse cx="243" cy="593.5957" fill="#84BE84" rx="3" ry="3" style="stroke:#038048;stroke-width:1.0;"/><text fill="#000000" font-family="sans-serif" font-size="11" lengthAdjust="spacing" textLength="82" x="252" y="597.2305">dispose() : void</text><ellipse cx="243" cy="606.5508" fill="#84BE84" rx="3" ry="3" style="stroke:#038048;stroke-width:1.0;"/><text fill="#000000" font-family="sans-serif" font-size="11" lengthAdjust="spacing" textLength="207" x="252" y="610.1855">equalsToID(patternId: string) : boolean</text><ellipse cx="243" cy="619.5059" fill="#84BE84" rx="3" ry="3" style="stroke:#038048;stroke-width:1.0;"/><text fill="#000000" font-family="sans-serif" font-size="11" lengthAdjust="spacing" textLength="255" x="252" y="623.1406">getChildItems(type: string) : ISectionIndexItem[]</text><ellipse cx="243" cy="632.4609" fill="#84BE84" rx="3" ry="3" style="stroke:#038048;stroke-width:1.0;"/><text fill="#000000" font-family="sans-serif" font-size="11" lengthAdjust="spacing" textLength="335" x="252" y="636.0957">registerCallback(eventName: string, callback: OSGeneric) : void</text><polygon fill="#FFFF44" points="243,640.416,247,644.416,243,648.416,239,644.416" style="stroke:#B38D22;stroke-width:1.0;"/><text fill="#000000" font-family="sans-serif" font-size="11" lengthAdjust="spacing" textLength="96" x="252" y="649.0508">finishBuild() : void</text><polygon fill="#FFFF44" points="243,653.3711,247,657.3711,243,661.3711,239,657.3711" style="stroke:#B38D22;stroke-width:1.0;"/><text fill="#000000" font-family="sans-serif" font-size="11" lengthAdjust="spacing" textLength="231" x="252" y="662.0059">getChild(childId: string) : ISectionIndexItem</text><polygon fill="#FFFF44" points="243,666.3262,247,670.3262,243,674.3262,239,670.3262" style="stroke:#B38D22;stroke-width:1.0;"/><text fill="#000000" font-family="sans-serif" font-size="11" lengthAdjust="spacing" textLength="373" x="252" y="674.9609">getChildByIndex(index: number, childType: string) : ISectionIndexItem</text><polygon fill="#FFFF44" points="243,679.2813,247,683.2813,243,687.2813,239,683.2813" style="stroke:#B38D22;stroke-width:1.0;"/><text fill="#000000" font-family="sans-serif" font-size="11" lengthAdjust="spacing" textLength="208" x="252" y="687.916">getChildIndex(childId: string) : number</text><polygon fill="#FFFF44" points="243,692.2363,247,696.2363,243,700.2363,239,696.2363" style="stroke:#B38D22;stroke-width:1.0;"/><text fill="#000000" font-family="sans-serif" font-size="11" lengthAdjust="spacing" textLength="140" x="252" y="700.8711">setA11YProperties() : void</text><polygon fill="#FFFF44" points="243,705.1914,247,709.1914,243,713.1914,239,709.1914" style="stroke:#B38D22;stroke-width:1.0;"/><text fill="#000000" font-family="sans-serif" font-size="11" lengthAdjust="spacing" textLength="107" x="252" y="713.8262">setCallbacks() : void</text><polygon fill="#FFFF44" points="243,718.1465,247,722.1465,243,726.1465,239,722.1465" style="stroke:#B38D22;stroke-width:1.0;"/><text fill="#000000" font-family="sans-serif" font-size="11" lengthAdjust="spacing" textLength="234" x="252" y="726.7813">setChild(childItem: ISectionIndexItem) : void</text><polygon fill="#FFFF44" points="243,731.1016,247,735.1016,243,739.1016,239,735.1016" style="stroke:#B38D22;stroke-width:1.0;"/><text fill="#000000" font-family="sans-serif" font-size="11" lengthAdjust="spacing" textLength="129" x="252" y="739.7363">setHtmlElements() : void</text><polygon fill="#FFFF44" points="243,744.0566,247,748.0566,243,752.0566,239,748.0566" style="stroke:#B38D22;stroke-width:1.0;"/><text fill="#000000" font-family="sans-serif" font-size="11" lengthAdjust="spacing" textLength="444" x="252" y="752.6914">triggerPlatformEventCallback(platFormCallback: OSGeneric, args: unknown[]) : void</text><polygon fill="#FFFF44" points="243,757.0117,247,761.0117,243,765.0117,239,761.0117" style="stroke:#B38D22;stroke-width:1.0;"/><text fill="#000000" font-family="sans-serif" font-size="11" lengthAdjust="spacing" textLength="247" x="252" y="765.6465">triggerPlatformInitializedEventCallback() : void</text><polygon fill="#FFFF44" points="243,769.9668,247,773.9668,243,777.9668,239,773.9668" style="stroke:#B38D22;stroke-width:1.0;"/><text fill="#000000" font-family="sans-serif" font-size="11" lengthAdjust="spacing" textLength="121" x="252" y="778.6016">unsetCallbacks() : void</text><polygon fill="#FFFF44" points="243,782.9219,247,786.9219,243,790.9219,239,786.9219" style="stroke:#B38D22;stroke-width:1.0;"/><text fill="#000000" font-family="sans-serif" font-size="11" lengthAdjust="spacing" textLength="172" x="252" y="791.5566">unsetChild(childId: string) : void</text><polygon fill="#FFFF44" points="243,795.877,247,799.877,243,803.877,239,799.877" style="stroke:#B38D22;stroke-width:1.0;"/><text fill="#000000" font-family="sans-serif" font-size="11" lengthAdjust="spacing" textLength="155" x="252" y="804.5117">unsetGlobalCallbacks() : void</text><polygon fill="#FFFF44" points="243,808.832,247,812.832,243,816.832,239,812.832" style="stroke:#B38D22;stroke-width:1.0;"/><text fill="#000000" font-family="sans-serif" font-size="11" lengthAdjust="spacing" textLength="143" x="252" y="817.4668">unsetHtmlElements() : void</text><rect fill="#F24D5C" height="6" style="stroke:#C82930;stroke-width:1.0;" width="6" x="240" y="823.7871"/><text fill="#000000" font-family="sans-serif" font-size="11" lengthAdjust="spacing" textLength="305" x="252" y="830.4219">_addSectionIndexItem(childItem: SectionIndexItem) : void</text><rect fill="#F24D5C" height="6" style="stroke:#C82930;stroke-width:1.0;" width="6" x="240" y="836.7422"/><text fill="#000000" font-family="sans-serif" font-size="11" lengthAdjust="spacing" textLength="253" x="252" y="843.377">_childItemHasBeenClicked(childId: string) : void</text><rect fill="#F24D5C" height="6" style="stroke:#C82930;stroke-width:1.0;" width="6" x="240" y="849.6973"/><text fill="#000000" font-family="sans-serif" font-size="11" lengthAdjust="spacing" textLength="170" x="252" y="856.332">_getContentPaddingTop() : void</text><rect fill="#F24D5C" height="6" style="stroke:#C82930;stroke-width:1.0;" width="6" x="240" y="862.6523"/><text fill="#000000" font-family="sans-serif" font-size="11" lengthAdjust="spacing" textLength="252" x="252" y="869.2871">_removeSectionIndexItem(childId: string) : void</text><rect fill="#F24D5C" height="6" style="stroke:#C82930;stroke-width:1.0;" width="6" x="240" y="875.6074"/><text fill="#000000" font-family="sans-serif" font-size="11" lengthAdjust="spacing" textLength="292" x="252" y="882.2422">_setActiveChildOnClick(child: ISectionIndexItem) : void</text><rect fill="#F24D5C" height="6" style="stroke:#C82930;stroke-width:1.0;" width="6" x="240" y="888.5625"/><text fill="#000000" font-family="sans-serif" font-size="11" lengthAdjust="spacing" textLength="296" x="252" y="895.1973">_setActiveChildOnScroll(child: ISectionIndexItem) : void</text><rect fill="#F24D5C" height="6" style="stroke:#C82930;stroke-width:1.0;" width="6" x="240" y="901.5176"/><text fill="#000000" font-family="sans-serif" font-size="11" lengthAdjust="spacing" textLength="118" x="252" y="908.1523">_toggleIsFixed() : void</text><!--MD5=[850ffcaaae15ce50320f862d0ddbb135]
class AbstractParent<SectionIndexConfig, ISectionIndexItem>--><rect codeLine="43" fill="#FFFFFF" filter="url(#fwyzb72ug4ste)" height="358.9219" id="AbstractParent&lt;SectionIndexConfig, ISectionIndexItem&gt;" style="stroke:#272B30;stroke-width:1.5;" width="470" x="9" y="7"/><ellipse cx="79.25" cy="23" fill="#A9DCDF" rx="11" ry="11" style="stroke:#272B30;stroke-width:1.0;"/><path d="M79.1133,18.3481 L77.9595,23.4199 L80.2754,23.4199 Z M77.6191,16.1069 L80.6157,16.1069 L83.9609,28.5 L81.5122,28.5 L80.7485,25.437 L77.4697,25.437 L76.7227,28.5 L74.2739,28.5 Z " fill="#000000"/><text fill="#000000" font-family="sans-serif" font-size="12" font-style="italic" lengthAdjust="spacing" textLength="321" x="99.75" y="27.5352">AbstractParent&lt;SectionIndexConfig, ISectionIndexItem&gt;</text><line style="stroke:#272B30;stroke-width:1.5;" x1="10" x2="478" y1="39" y2="39"/><polygon fill="none" points="20,45,24,49,20,53,16,49" style="stroke:#B38D22;stroke-width:1.0;"/><text fill="#000000" font-family="sans-serif" font-size="11" lengthAdjust="spacing" textLength="137" x="29" y="53.6348">isProviderBased : boolean</text><rect fill="none" height="6" style="stroke:#C82930;stroke-width:1.0;" width="6" x="17" y="59.9551"/><text fill="#000000" font-family="sans-serif" font-size="11" lengthAdjust="spacing" textLength="205" x="29" y="66.5898">_childIdsByType : Map&lt;string, string&gt;</text><rect fill="none" height="6" style="stroke:#C82930;stroke-width:1.0;" width="6" x="17" y="72.9102"/><text fill="#000000" font-family="sans-serif" font-size="11" lengthAdjust="spacing" textLength="143" x="29" y="79.5449">_childItemsByType : Object</text><line style="stroke:#272B30;stroke-width:1.5;" x1="10" x2="478" y1="85.8652" y2="85.8652"/><ellipse cx="20" cy="96.8652" fill="#84BE84" rx="3" ry="3" style="stroke:#038048;stroke-width:1.0;"/><text fill="#000000" font-family="sans-serif" font-size="11" font-style="italic" lengthAdjust="spacing" textLength="384" x="29" y="100.5">beNotifiedByChild(childItem: ISectionIndexItem, notifiedTo: string) : void</text><ellipse cx="20" cy="109.8203" fill="#84BE84" rx="3" ry="3" style="stroke:#038048;stroke-width:1.0;"/><text fill="#000000" font-family="sans-serif" font-size="11" lengthAdjust="spacing" textLength="67" x="29" y="113.4551">build() : void</text><ellipse cx="20" cy="122.7754" fill="#84BE84" rx="3" ry="3" style="stroke:#038048;stroke-width:1.0;"/><text fill="#000000" font-family="sans-serif" font-size="11" lengthAdjust="spacing" textLength="377" x="29" y="126.4102">changeProperty(propertyName: string, propertyValue: unknown) : void</text><ellipse cx="20" cy="135.7305" fill="#84BE84" rx="3" ry="3" style="stroke:#038048;stroke-width:1.0;"/><text fill="#000000" font-family="sans-serif" font-size="11" lengthAdjust="spacing" textLength="82" x="29" y="139.3652">dispose() : void</text><ellipse cx="20" cy="148.6855" fill="#84BE84" rx="3" ry="3" style="stroke:#038048;stroke-width:1.0;"/><text fill="#000000" font-family="sans-serif" font-size="11" lengthAdjust="spacing" textLength="207" x="29" y="152.3203">equalsToID(patternId: string) : boolean</text><ellipse cx="20" cy="161.6406" fill="#84BE84" rx="3" ry="3" style="stroke:#038048;stroke-width:1.0;"/><text fill="#000000" font-family="sans-serif" font-size="11" lengthAdjust="spacing" textLength="255" x="29" y="165.2754">getChildItems(type: string) : ISectionIndexItem[]</text><ellipse cx="20" cy="174.5957" fill="#84BE84" rx="3" ry="3" style="stroke:#038048;stroke-width:1.0;"/><text fill="#000000" font-family="sans-serif" font-size="11" lengthAdjust="spacing" textLength="335" x="29" y="178.2305">registerCallback(eventName: string, callback: OSGeneric) : void</text><polygon fill="#FFFF44" points="20,182.5508,24,186.5508,20,190.5508,16,186.5508" style="stroke:#B38D22;stroke-width:1.0;"/><text fill="#000000" font-family="sans-serif" font-size="11" lengthAdjust="spacing" textLength="96" x="29" y="191.1855">finishBuild() : void</text><polygon fill="#FFFF44" points="20,195.5059,24,199.5059,20,203.5059,16,199.5059" style="stroke:#B38D22;stroke-width:1.0;"/><text fill="#000000" font-family="sans-serif" font-size="11" lengthAdjust="spacing" textLength="231" x="29" y="204.1406">getChild(childId: string) : ISectionIndexItem</text><polygon fill="#FFFF44" points="20,208.4609,24,212.4609,20,216.4609,16,212.4609" style="stroke:#B38D22;stroke-width:1.0;"/><text fill="#000000" font-family="sans-serif" font-size="11" lengthAdjust="spacing" textLength="373" x="29" y="217.0957">getChildByIndex(index: number, childType: string) : ISectionIndexItem</text><polygon fill="#FFFF44" points="20,221.416,24,225.416,20,229.416,16,225.416" style="stroke:#B38D22;stroke-width:1.0;"/><text fill="#000000" font-family="sans-serif" font-size="11" lengthAdjust="spacing" textLength="208" x="29" y="230.0508">getChildIndex(childId: string) : number</text><polygon fill="#FFFF44" points="20,234.3711,24,238.3711,20,242.3711,16,238.3711" style="stroke:#B38D22;stroke-width:1.0;"/><text fill="#000000" font-family="sans-serif" font-size="11" font-style="italic" lengthAdjust="spacing" textLength="140" x="29" y="243.0059">setA11YProperties() : void</text><polygon fill="#FFFF44" points="20,247.3262,24,251.3262,20,255.3262,16,251.3262" style="stroke:#B38D22;stroke-width:1.0;"/><text fill="#000000" font-family="sans-serif" font-size="11" font-style="italic" lengthAdjust="spacing" textLength="107" x="29" y="255.9609">setCallbacks() : void</text><polygon fill="#FFFF44" points="20,260.2813,24,264.2813,20,268.2813,16,264.2813" style="stroke:#B38D22;stroke-width:1.0;"/><text fill="#000000" font-family="sans-serif" font-size="11" lengthAdjust="spacing" textLength="234" x="29" y="268.916">setChild(childItem: ISectionIndexItem) : void</text><polygon fill="#FFFF44" points="20,273.2363,24,277.2363,20,281.2363,16,277.2363" style="stroke:#B38D22;stroke-width:1.0;"/><text fill="#000000" font-family="sans-serif" font-size="11" font-style="italic" lengthAdjust="spacing" textLength="129" x="29" y="281.8711">setHtmlElements() : void</text><polygon fill="#FFFF44" points="20,286.1914,24,290.1914,20,294.1914,16,290.1914" style="stroke:#B38D22;stroke-width:1.0;"/><text fill="#000000" font-family="sans-serif" font-size="11" lengthAdjust="spacing" textLength="444" x="29" y="294.8262">triggerPlatformEventCallback(platFormCallback: OSGeneric, args: unknown[]) : void</text><polygon fill="#FFFF44" points="20,299.1465,24,303.1465,20,307.1465,16,303.1465" style="stroke:#B38D22;stroke-width:1.0;"/><text fill="#000000" font-family="sans-serif" font-size="11" lengthAdjust="spacing" textLength="247" x="29" y="307.7813">triggerPlatformInitializedEventCallback() : void</text><polygon fill="#FFFF44" points="20,312.1016,24,316.1016,20,320.1016,16,316.1016" style="stroke:#B38D22;stroke-width:1.0;"/><text fill="#000000" font-family="sans-serif" font-size="11" font-style="italic" lengthAdjust="spacing" textLength="121" x="29" y="320.7363">unsetCallbacks() : void</text><polygon fill="#FFFF44" points="20,325.0566,24,329.0566,20,333.0566,16,329.0566" style="stroke:#B38D22;stroke-width:1.0;"/><text fill="#000000" font-family="sans-serif" font-size="11" lengthAdjust="spacing" textLength="172" x="29" y="333.6914">unsetChild(childId: string) : void</text><polygon fill="#FFFF44" points="20,338.0117,24,342.0117,20,346.0117,16,342.0117" style="stroke:#B38D22;stroke-width:1.0;"/><text fill="#000000" font-family="sans-serif" font-size="11" lengthAdjust="spacing" textLength="155" x="29" y="346.6465">unsetGlobalCallbacks() : void</text><polygon fill="#FFFF44" points="20,350.9668,24,354.9668,20,358.9668,16,354.9668" style="stroke:#B38D22;stroke-width:1.0;"/><text fill="#000000" font-family="sans-serif" font-size="11" font-style="italic" lengthAdjust="spacing" textLength="143" x="29" y="359.6016">unsetHtmlElements() : void</text><!--MD5=[7cbc53f4a164bce5d581ee5c4ee15b97]
class ISectionIndex--><rect codeLine="70" fill="#FFFFFF" filter="url(#fwyzb72ug4ste)" height="190.5059" id="ISectionIndex" style="stroke:#272B30;stroke-width:1.5;" width="403" x="514.5" y="91"/><ellipse cx="674.25" cy="107" fill="#B4A7E5" rx="11" ry="11" style="stroke:#272B30;stroke-width:1.0;"/><path d="M670.6777,103.2651 L670.6777,101.1069 L678.0571,101.1069 L678.0571,103.2651 L675.5918,103.2651 L675.5918,111.3418 L678.0571,111.3418 L678.0571,113.5 L670.6777,113.5 L670.6777,111.3418 L673.1431,111.3418 L673.1431,103.2651 Z " fill="#000000"/><text fill="#000000" font-family="sans-serif" font-size="12" font-style="italic" lengthAdjust="spacing" textLength="75" x="694.75" y="111.5352">ISectionIndex</text><line style="stroke:#272B30;stroke-width:1.5;" x1="515.5" x2="916.5" y1="123" y2="123"/><ellipse cx="525.5" cy="134" rx="3" ry="3" style="stroke:#038048;stroke-width:1.0;fill:none;"/><text fill="#000000" font-family="sans-serif" font-size="11" lengthAdjust="spacing" textLength="198" x="534.5" y="137.6348">contentPaddingTop : string | number</text><ellipse cx="525.5" cy="146.9551" rx="3" ry="3" style="stroke:#038048;stroke-width:1.0;fill:none;"/><text fill="#000000" font-family="sans-serif" font-size="11" lengthAdjust="spacing" textLength="84" x="534.5" y="150.5898">isBuilt : boolean</text><ellipse cx="525.5" cy="159.9102" rx="3" ry="3" style="stroke:#038048;stroke-width:1.0;fill:none;"/><text fill="#000000" font-family="sans-serif" font-size="11" lengthAdjust="spacing" textLength="142" x="534.5" y="163.5449">selfElement : HTMLElement</text><ellipse cx="525.5" cy="172.8652" rx="3" ry="3" style="stroke:#038048;stroke-width:1.0;fill:none;"/><text fill="#000000" font-family="sans-serif" font-size="11" lengthAdjust="spacing" textLength="88" x="534.5" y="176.5">uniqueId : string</text><ellipse cx="525.5" cy="185.8203" rx="3" ry="3" style="stroke:#038048;stroke-width:1.0;fill:none;"/><text fill="#000000" font-family="sans-serif" font-size="11" lengthAdjust="spacing" textLength="86" x="534.5" y="189.4551">widgetId : string</text><line style="stroke:#272B30;stroke-width:1.5;" x1="515.5" x2="916.5" y1="195.7754" y2="195.7754"/><ellipse cx="525.5" cy="206.7754" fill="#84BE84" rx="3" ry="3" style="stroke:#038048;stroke-width:1.0;"/><text fill="#000000" font-family="sans-serif" font-size="11" lengthAdjust="spacing" textLength="320" x="534.5" y="210.4102">beNotifiedByChild(childItem: IChild, notifiedTo: string) : void</text><ellipse cx="525.5" cy="219.7305" fill="#84BE84" rx="3" ry="3" style="stroke:#038048;stroke-width:1.0;"/><text fill="#000000" font-family="sans-serif" font-size="11" lengthAdjust="spacing" textLength="67" x="534.5" y="223.3652">build() : void</text><ellipse cx="525.5" cy="232.6855" fill="#84BE84" rx="3" ry="3" style="stroke:#038048;stroke-width:1.0;"/><text fill="#000000" font-family="sans-serif" font-size="11" lengthAdjust="spacing" textLength="377" x="534.5" y="236.3203">changeProperty(propertyName: string, propertyValue: unknown) : void</text><ellipse cx="525.5" cy="245.6406" fill="#84BE84" rx="3" ry="3" style="stroke:#038048;stroke-width:1.0;"/><text fill="#000000" font-family="sans-serif" font-size="11" lengthAdjust="spacing" textLength="82" x="534.5" y="249.2754">dispose() : void</text><ellipse cx="525.5" cy="258.5957" fill="#84BE84" rx="3" ry="3" style="stroke:#038048;stroke-width:1.0;"/><text fill="#000000" font-family="sans-serif" font-size="11" lengthAdjust="spacing" textLength="168" x="534.5" y="262.2305">equalsToID(id: string) : boolean</text><ellipse cx="525.5" cy="271.5508" fill="#84BE84" rx="3" ry="3" style="stroke:#038048;stroke-width:1.0;"/><text fill="#000000" font-family="sans-serif" font-size="11" lengthAdjust="spacing" textLength="335" x="534.5" y="275.1855">registerCallback(eventName: string, callback: OSGeneric) : void</text><!--MD5=[c04c3897488c1b343f0ece22e8c5305c]
reverse link AbstractParent<SectionIndexConfig, ISectionIndexItem> to SectionIndex--><path codeLine="69" d="M340.37,384.11 C347.13,397.91 353.99,411.91 360.86,425.92 " fill="none" id="AbstractParent&lt;SectionIndexConfig, ISectionIndexItem&gt;-backto-SectionIndex" style="stroke:#272B30;stroke-width:1.0;"/><polygon fill="none" points="334.06,387.15,331.54,366.11,346.63,380.99,334.06,387.15" style="stroke:#272B30;stroke-width:1.0;"/><!--MD5=[3ce6b6acd755a0644afa4f692b23f5a6]
reverse link ISectionIndex to SectionIndex--><path codeLine="83" d="M660.79,300.15 C642.22,338.03 620.72,381.89 599.17,425.86 " fill="none" id="ISectionIndex-backto-SectionIndex" style="stroke:#272B30;stroke-width:1.0;stroke-dasharray:7.0,7.0;"/><polygon fill="none" points="654.57,296.93,669.66,282.05,667.14,303.09,654.57,296.93" style="stroke:#272B30;stroke-width:1.0;"/><!--MD5=[a2b947999520a9fed8778e3c0b181cd9]
@startuml
skinparam ClassArrowColor #272b30
skinparam ClassBorderColor #272b30
skinparam ClassBackgroundColor #fff
skinparam BackgroundColor #ced4da
hide empty methods
hide empty fields
class "SectionIndex" {
    #isProviderBased : boolean
    -_activeSectionIndexItem : ISectionIndexItem
    -_contentPaddingTop : string | number
    -_mainScrollContainerElement : HTMLElement
    -_navigateOnClick : boolean
    -_scrollTimeout : number
    +beNotifiedByChild(childItem: SectionIndexItem, notifiedTo: ChildNotifyActionType) : void
    +build() : void
    +changeProperty(propertyName: string, propertyValue: unknown) : void
    +dispose() : void
    +equalsToID(patternId: string) : boolean
    +getChildItems(type: string) : ISectionIndexItem[]
    +registerCallback(eventName: string, callback: OSGeneric) : void
    #finishBuild() : void
    #getChild(childId: string) : ISectionIndexItem
    #getChildByIndex(index: number, childType: string) : ISectionIndexItem
    #getChildIndex(childId: string) : number
    #setA11YProperties() : void
    #setCallbacks() : void
    #setChild(childItem: ISectionIndexItem) : void
    #setHtmlElements() : void
    #triggerPlatformEventCallback(platFormCallback: OSGeneric, args: unknown[]) : void
    #triggerPlatformInitializedEventCallback() : void
    #unsetCallbacks() : void
    #unsetChild(childId: string) : void
    #unsetGlobalCallbacks() : void
    #unsetHtmlElements() : void
    -_addSectionIndexItem(childItem: SectionIndexItem) : void
    -_childItemHasBeenClicked(childId: string) : void
    -_getContentPaddingTop() : void
    -_removeSectionIndexItem(childId: string) : void
    -_setActiveChildOnClick(child: ISectionIndexItem) : void
    -_setActiveChildOnScroll(child: ISectionIndexItem) : void
    -_toggleIsFixed() : void
}
abstract class "AbstractParent<SectionIndexConfig, ISectionIndexItem>" {
    #isProviderBased : boolean
    -_childIdsByType : Map<string, string>
    -_childItemsByType : Object
    {abstract} +beNotifiedByChild(childItem: ISectionIndexItem, notifiedTo: string) : void
    +build() : void
    +changeProperty(propertyName: string, propertyValue: unknown) : void
    +dispose() : void
    +equalsToID(patternId: string) : boolean
    +getChildItems(type: string) : ISectionIndexItem[]
    +registerCallback(eventName: string, callback: OSGeneric) : void
    #finishBuild() : void
    #getChild(childId: string) : ISectionIndexItem
    #getChildByIndex(index: number, childType: string) : ISectionIndexItem
    #getChildIndex(childId: string) : number
    {abstract} #setA11YProperties() : void
    {abstract} #setCallbacks() : void
    #setChild(childItem: ISectionIndexItem) : void
    {abstract} #setHtmlElements() : void
    #triggerPlatformEventCallback(platFormCallback: OSGeneric, args: unknown[]) : void
    #triggerPlatformInitializedEventCallback() : void
    {abstract} #unsetCallbacks() : void
    #unsetChild(childId: string) : void
    #unsetGlobalCallbacks() : void
    {abstract} #unsetHtmlElements() : void
}
"AbstractParent<SectionIndexConfig, ISectionIndexItem>" <|- - "SectionIndex"
interface "ISectionIndex" {
    +contentPaddingTop : string | number
    +isBuilt : boolean
    +selfElement : HTMLElement
    +uniqueId : string
    +widgetId : string
    +beNotifiedByChild(childItem: IChild, notifiedTo: string) : void
    +build() : void
    +changeProperty(propertyName: string, propertyValue: unknown) : void
    +dispose() : void
    +equalsToID(id: string) : boolean
    +registerCallback(eventName: string, callback: OSGeneric) : void
}
"ISectionIndex" <|.. "SectionIndex"
@enduml

PlantUML version 1.2021.14(Fri Nov 12 16:46:50 WET 2021)
(GPL source distribution)
Java Runtime: Java(TM) SE Runtime Environment
JVM: Java HotSpot(TM) 64-Bit Server VM
Default Encoding: UTF-8
Language: en
Country: PT
--></g></svg>