<?xml version="1.0" encoding="UTF-8" standalone="no"?><svg xmlns="http://www.w3.org/2000/svg" xmlns:xlink="http://www.w3.org/1999/xlink" contentScriptType="application/ecmascript" contentStyleType="text/css" height="714px" preserveAspectRatio="none" style="width:908px;height:714px;background:#CED4DA;" version="1.1" viewBox="0 0 908 714" width="908px" zoomAndPan="magnify"><defs><filter height="300%" id="f5tgcyfb4bxki" width="300%" x="-1" y="-1"><feGaussianBlur result="blurOut" stdDeviation="2.0"/><feColorMatrix in="blurOut" result="blurOut2" type="matrix" values="0 0 0 0 0 0 0 0 0 0 0 0 0 0 0 0 0 0 .4 0"/><feOffset dx="4.0" dy="4.0" in="blurOut2" result="blurOut3"/><feBlend in="SourceGraphic" in2="blurOut3" mode="normal"/></filter></defs><g><!--MD5=[10760952ad3526950e279de6cc5b2d50]
class SectionIndex--><rect codeLine="7" fill="#FFFFFF" filter="url(#f5tgcyfb4bxki)" height="380.9219" id="SectionIndex" style="stroke:#272B30;stroke-width:1.5;" width="438" x="232.5" y="320"/><ellipse cx="407.25" cy="336" fill="#ADD1B2" rx="11" ry="11" style="stroke:#272B30;stroke-width:1.0;"/><path d="M410.2188,341.6406 Q409.6406,341.9375 409,342.0781 Q408.3594,342.2344 407.6563,342.2344 Q405.1563,342.2344 403.8281,340.5938 Q402.5156,338.9375 402.5156,335.8125 Q402.5156,332.6875 403.8281,331.0313 Q405.1563,329.375 407.6563,329.375 Q408.3594,329.375 409,329.5313 Q409.6563,329.6875 410.2188,329.9844 L410.2188,332.7031 Q409.5938,332.125 409,331.8594 Q408.4063,331.5781 407.7813,331.5781 Q406.4375,331.5781 405.75,332.6563 Q405.0625,333.7188 405.0625,335.8125 Q405.0625,337.9063 405.75,338.9844 Q406.4375,340.0469 407.7813,340.0469 Q408.4063,340.0469 409,339.7813 Q409.5938,339.5 410.2188,338.9219 L410.2188,341.6406 Z " fill="#000000"/><text fill="#000000" font-family="sans-serif" font-size="12" lengthAdjust="spacing" textLength="80" x="427.75" y="340.1543">SectionIndex</text><line style="stroke:#272B30;stroke-width:1.5;" x1="233.5" x2="669.5" y1="352" y2="352"/><polygon fill="none" points="243.5,358,247.5,362,243.5,366,239.5,362" style="stroke:#B38D22;stroke-width:1.0;"/><text fill="#000000" font-family="sans-serif" font-size="11" lengthAdjust="spacing" textLength="143" x="252.5" y="366.2104">_selfElem : HTMLElement</text><polygon fill="none" points="243.5,370.8047,247.5,374.8047,243.5,378.8047,239.5,374.8047" style="stroke:#B38D22;stroke-width:1.0;"/><text fill="#000000" font-family="sans-serif" font-size="11" lengthAdjust="spacing" textLength="98" x="252.5" y="379.0151">_widgetId : string</text><rect fill="none" height="6" style="stroke:#C82930;stroke-width:1.0;" width="6" x="240.5" y="385.6094"/><text fill="#000000" font-family="sans-serif" font-size="11" lengthAdjust="spacing" textLength="248" x="252.5" y="391.8198">_activeSectionIndexItem : ISectionIndexItem</text><rect fill="none" height="6" style="stroke:#C82930;stroke-width:1.0;" width="6" x="240.5" y="398.4141"/><text fill="#000000" font-family="sans-serif" font-size="11" lengthAdjust="spacing" textLength="255" x="252.5" y="404.6245">_mainScrollContainerElement : HTMLElement</text><rect fill="none" height="6" style="stroke:#C82930;stroke-width:1.0;" width="6" x="240.5" y="411.2188"/><text fill="#000000" font-family="sans-serif" font-size="11" lengthAdjust="spacing" textLength="153" x="252.5" y="417.4292">_navigateOnClick : boolean</text><rect fill="none" height="6" style="stroke:#C82930;stroke-width:1.0;" width="6" x="240.5" y="424.0234"/><text fill="#000000" font-family="sans-serif" font-size="11" lengthAdjust="spacing" textLength="139" x="252.5" y="430.2339">_scrollTimeout : number</text><line style="stroke:#272B30;stroke-width:1.5;" x1="233.5" x2="669.5" y1="436.8281" y2="436.8281"/><ellipse cx="243.5" cy="447.8281" fill="#84BE84" rx="3" ry="3" style="stroke:#038048;stroke-width:1.0;"/><text fill="#000000" font-family="sans-serif" font-size="11" lengthAdjust="spacing" textLength="412" x="252.5" y="451.0386">beNotifiedByChild(childId: string, notifiedTo: ChildNotifyActionType) : void</text><ellipse cx="243.5" cy="460.6328" fill="#84BE84" rx="3" ry="3" style="stroke:#038048;stroke-width:1.0;"/><text fill="#000000" font-family="sans-serif" font-size="11" lengthAdjust="spacing" textLength="70" x="252.5" y="463.8433">build() : void</text><ellipse cx="243.5" cy="473.4375" fill="#84BE84" rx="3" ry="3" style="stroke:#038048;stroke-width:1.0;"/><text fill="#000000" font-family="sans-serif" font-size="11" lengthAdjust="spacing" textLength="399" x="252.5" y="476.6479">changeProperty(propertyName: string, propertyValue: unknown) : void</text><ellipse cx="243.5" cy="486.2422" fill="#84BE84" rx="3" ry="3" style="stroke:#038048;stroke-width:1.0;"/><text fill="#000000" font-family="sans-serif" font-size="11" lengthAdjust="spacing" textLength="88" x="252.5" y="489.4526">dispose() : void</text><ellipse cx="243.5" cy="499.0469" fill="#84BE84" rx="3" ry="3" style="stroke:#038048;stroke-width:1.0;"/><text fill="#000000" font-family="sans-serif" font-size="11" lengthAdjust="spacing" textLength="220" x="252.5" y="502.2573">equalsToID(patternId: string) : boolean</text><ellipse cx="243.5" cy="511.8516" fill="#84BE84" rx="3" ry="3" style="stroke:#038048;stroke-width:1.0;"/><text fill="#000000" font-family="sans-serif" font-size="11" lengthAdjust="spacing" textLength="271" x="252.5" y="515.062">getChildItems(type: string) : ISectionIndexItem[]</text><polygon fill="#FFFF44" points="243.5,519.6563,247.5,523.6563,243.5,527.6563,239.5,523.6563" style="stroke:#B38D22;stroke-width:1.0;"/><text fill="#000000" font-family="sans-serif" font-size="11" lengthAdjust="spacing" textLength="102" x="252.5" y="527.8667">finishBuild() : void</text><polygon fill="#FFFF44" points="243.5,532.4609,247.5,536.4609,243.5,540.4609,239.5,536.4609" style="stroke:#B38D22;stroke-width:1.0;"/><text fill="#000000" font-family="sans-serif" font-size="11" lengthAdjust="spacing" textLength="243" x="252.5" y="540.6714">getChild(childId: string) : ISectionIndexItem</text><polygon fill="#FFFF44" points="243.5,545.2656,247.5,549.2656,243.5,553.2656,239.5,549.2656" style="stroke:#B38D22;stroke-width:1.0;"/><text fill="#000000" font-family="sans-serif" font-size="11" lengthAdjust="spacing" textLength="394" x="252.5" y="553.4761">getChildByIndex(index: number, childType: string) : ISectionIndexItem</text><polygon fill="#FFFF44" points="243.5,558.0703,247.5,562.0703,243.5,566.0703,239.5,562.0703" style="stroke:#B38D22;stroke-width:1.0;"/><text fill="#000000" font-family="sans-serif" font-size="11" lengthAdjust="spacing" textLength="217" x="252.5" y="566.2808">getChildIndex(childId: string) : number</text><polygon fill="#FFFF44" points="243.5,570.875,247.5,574.875,243.5,578.875,239.5,574.875" style="stroke:#B38D22;stroke-width:1.0;"/><text fill="#000000" font-family="sans-serif" font-size="11" lengthAdjust="spacing" textLength="333" x="252.5" y="579.0854">setChild(childId: string, childItem: ISectionIndexItem) : void</text><polygon fill="#FFFF44" points="243.5,583.6797,247.5,587.6797,243.5,591.6797,239.5,587.6797" style="stroke:#B38D22;stroke-width:1.0;"/><text fill="#000000" font-family="sans-serif" font-size="11" lengthAdjust="spacing" textLength="140" x="252.5" y="591.8901">setHtmlElements() : void</text><polygon fill="#FFFF44" points="243.5,596.4844,247.5,600.4844,243.5,604.4844,239.5,600.4844" style="stroke:#B38D22;stroke-width:1.0;"/><text fill="#000000" font-family="sans-serif" font-size="11" lengthAdjust="spacing" textLength="180" x="252.5" y="604.6948">unsetChild(childId: string) : void</text><polygon fill="#FFFF44" points="243.5,609.2891,247.5,613.2891,243.5,617.2891,239.5,613.2891" style="stroke:#B38D22;stroke-width:1.0;"/><text fill="#000000" font-family="sans-serif" font-size="11" lengthAdjust="spacing" textLength="154" x="252.5" y="617.4995">unsetHtmlElements() : void</text><rect fill="#F24D5C" height="6" style="stroke:#C82930;stroke-width:1.0;" width="6" x="240.5" y="624.0938"/><text fill="#000000" font-family="sans-serif" font-size="11" lengthAdjust="spacing" textLength="244" x="252.5" y="630.3042">_addSectionIndexItem(childId: string) : void</text><rect fill="#F24D5C" height="6" style="stroke:#C82930;stroke-width:1.0;" width="6" x="240.5" y="636.8984"/><text fill="#000000" font-family="sans-serif" font-size="11" lengthAdjust="spacing" textLength="268" x="252.5" y="643.1089">_childItemHasBeenClicked(childId: string) : void</text><rect fill="#F24D5C" height="6" style="stroke:#C82930;stroke-width:1.0;" width="6" x="240.5" y="649.7031"/><text fill="#000000" font-family="sans-serif" font-size="11" lengthAdjust="spacing" textLength="266" x="252.5" y="655.9136">_removeSectionIndexItem(childId: string) : void</text><rect fill="#F24D5C" height="6" style="stroke:#C82930;stroke-width:1.0;" width="6" x="240.5" y="662.5078"/><text fill="#000000" font-family="sans-serif" font-size="11" lengthAdjust="spacing" textLength="304" x="252.5" y="668.7183">_setActiveChildOnClick(child: ISectionIndexItem) : void</text><rect fill="#F24D5C" height="6" style="stroke:#C82930;stroke-width:1.0;" width="6" x="240.5" y="675.3125"/><text fill="#000000" font-family="sans-serif" font-size="11" lengthAdjust="spacing" textLength="310" x="252.5" y="681.5229">_setActiveChildOnScroll(child: ISectionIndexItem) : void</text><rect fill="#F24D5C" height="6" style="stroke:#C82930;stroke-width:1.0;" width="6" x="240.5" y="688.1172"/><text fill="#000000" font-family="sans-serif" font-size="11" lengthAdjust="spacing" textLength="123" x="252.5" y="694.3276">_toggleIsFixed() : void</text><!--MD5=[850ffcaaae15ce50320f862d0ddbb135]
class AbstractParent<SectionIndexConfig, ISectionIndexItem>--><rect codeLine="35" fill="#FFFFFF" filter="url(#f5tgcyfb4bxki)" height="252.875" id="AbstractParent&lt;SectionIndexConfig, ISectionIndexItem&gt;" style="stroke:#272B30;stroke-width:1.5;" width="425" x="9" y="7"/><ellipse cx="40.65" cy="23" fill="#A9DCDF" rx="11" ry="11" style="stroke:#272B30;stroke-width:1.0;"/><path d="M40.7594,18.3438 L39.6031,23.4219 L41.9313,23.4219 L40.7594,18.3438 Z M39.275,16.1094 L42.2594,16.1094 L45.6188,28.5 L43.1656,28.5 L42.4,25.4375 L39.1188,25.4375 L38.3688,28.5 L35.9313,28.5 L39.275,16.1094 Z " fill="#000000"/><text fill="#000000" font-family="sans-serif" font-size="12" font-style="italic" lengthAdjust="spacing" textLength="356" x="58.35" y="27.1543">AbstractParent&lt;SectionIndexConfig, ISectionIndexItem&gt;</text><line style="stroke:#272B30;stroke-width:1.5;" x1="10" x2="433" y1="39" y2="39"/><polygon fill="none" points="20,45,24,49,20,53,16,49" style="stroke:#B38D22;stroke-width:1.0;"/><text fill="#000000" font-family="sans-serif" font-size="11" lengthAdjust="spacing" textLength="143" x="29" y="53.2104">_selfElem : HTMLElement</text><polygon fill="none" points="20,57.8047,24,61.8047,20,65.8047,16,61.8047" style="stroke:#B38D22;stroke-width:1.0;"/><text fill="#000000" font-family="sans-serif" font-size="11" lengthAdjust="spacing" textLength="98" x="29" y="66.0151">_widgetId : string</text><rect fill="none" height="6" style="stroke:#C82930;stroke-width:1.0;" width="6" x="17" y="72.6094"/><text fill="#000000" font-family="sans-serif" font-size="11" lengthAdjust="spacing" textLength="217" x="29" y="78.8198">_childIdsByType : Map&lt;string, string&gt;</text><rect fill="none" height="6" style="stroke:#C82930;stroke-width:1.0;" width="6" x="17" y="85.4141"/><text fill="#000000" font-family="sans-serif" font-size="11" lengthAdjust="spacing" textLength="153" x="29" y="91.6245">_childItemsByType : Object</text><line style="stroke:#272B30;stroke-width:1.5;" x1="10" x2="433" y1="98.2188" y2="98.2188"/><ellipse cx="20" cy="109.2188" fill="#84BE84" rx="3" ry="3" style="stroke:#038048;stroke-width:1.0;"/><text fill="#000000" font-family="sans-serif" font-size="11" font-style="italic" lengthAdjust="spacing" textLength="324" x="29" y="112.4292">beNotifiedByChild(childId: string, notifiedTo: string) : void</text><ellipse cx="20" cy="122.0234" fill="#84BE84" rx="3" ry="3" style="stroke:#038048;stroke-width:1.0;"/><text fill="#000000" font-family="sans-serif" font-size="11" lengthAdjust="spacing" textLength="70" x="29" y="125.2339">build() : void</text><ellipse cx="20" cy="134.8281" fill="#84BE84" rx="3" ry="3" style="stroke:#038048;stroke-width:1.0;"/><text fill="#000000" font-family="sans-serif" font-size="11" lengthAdjust="spacing" textLength="399" x="29" y="138.0386">changeProperty(propertyName: string, propertyValue: unknown) : void</text><ellipse cx="20" cy="147.6328" fill="#84BE84" rx="3" ry="3" style="stroke:#038048;stroke-width:1.0;"/><text fill="#000000" font-family="sans-serif" font-size="11" lengthAdjust="spacing" textLength="88" x="29" y="150.8433">dispose() : void</text><ellipse cx="20" cy="160.4375" fill="#84BE84" rx="3" ry="3" style="stroke:#038048;stroke-width:1.0;"/><text fill="#000000" font-family="sans-serif" font-size="11" lengthAdjust="spacing" textLength="220" x="29" y="163.6479">equalsToID(patternId: string) : boolean</text><ellipse cx="20" cy="173.2422" fill="#84BE84" rx="3" ry="3" style="stroke:#038048;stroke-width:1.0;"/><text fill="#000000" font-family="sans-serif" font-size="11" lengthAdjust="spacing" textLength="271" x="29" y="176.4526">getChildItems(type: string) : ISectionIndexItem[]</text><polygon fill="#FFFF44" points="20,181.0469,24,185.0469,20,189.0469,16,185.0469" style="stroke:#B38D22;stroke-width:1.0;"/><text fill="#000000" font-family="sans-serif" font-size="11" lengthAdjust="spacing" textLength="102" x="29" y="189.2573">finishBuild() : void</text><polygon fill="#FFFF44" points="20,193.8516,24,197.8516,20,201.8516,16,197.8516" style="stroke:#B38D22;stroke-width:1.0;"/><text fill="#000000" font-family="sans-serif" font-size="11" lengthAdjust="spacing" textLength="243" x="29" y="202.062">getChild(childId: string) : ISectionIndexItem</text><polygon fill="#FFFF44" points="20,206.6563,24,210.6563,20,214.6563,16,210.6563" style="stroke:#B38D22;stroke-width:1.0;"/><text fill="#000000" font-family="sans-serif" font-size="11" lengthAdjust="spacing" textLength="394" x="29" y="214.8667">getChildByIndex(index: number, childType: string) : ISectionIndexItem</text><polygon fill="#FFFF44" points="20,219.4609,24,223.4609,20,227.4609,16,223.4609" style="stroke:#B38D22;stroke-width:1.0;"/><text fill="#000000" font-family="sans-serif" font-size="11" lengthAdjust="spacing" textLength="217" x="29" y="227.6714">getChildIndex(childId: string) : number</text><polygon fill="#FFFF44" points="20,232.2656,24,236.2656,20,240.2656,16,236.2656" style="stroke:#B38D22;stroke-width:1.0;"/><text fill="#000000" font-family="sans-serif" font-size="11" lengthAdjust="spacing" textLength="333" x="29" y="240.4761">setChild(childId: string, childItem: ISectionIndexItem) : void</text><polygon fill="#FFFF44" points="20,245.0703,24,249.0703,20,253.0703,16,249.0703" style="stroke:#B38D22;stroke-width:1.0;"/><text fill="#000000" font-family="sans-serif" font-size="11" lengthAdjust="spacing" textLength="180" x="29" y="253.2808">unsetChild(childId: string) : void</text><!--MD5=[7cbc53f4a164bce5d581ee5c4ee15b97]
class ISectionIndex--><rect codeLine="54" fill="#FFFFFF" filter="url(#f5tgcyfb4bxki)" height="163.2422" id="ISectionIndex" style="stroke:#272B30;stroke-width:1.5;" width="425" x="469" y="52"/><ellipse cx="634.25" cy="68" fill="#B4A7E5" rx="11" ry="11" style="stroke:#272B30;stroke-width:1.0;"/><path d="M630.1719,63.7656 L630.1719,61.6094 L637.5625,61.6094 L637.5625,63.7656 L635.0938,63.7656 L635.0938,71.8438 L637.5625,71.8438 L637.5625,74 L630.1719,74 L630.1719,71.8438 L632.6406,71.8438 L632.6406,63.7656 L630.1719,63.7656 Z " fill="#000000"/><text fill="#000000" font-family="sans-serif" font-size="12" font-style="italic" lengthAdjust="spacing" textLength="86" x="654.75" y="72.1543">ISectionIndex</text><line style="stroke:#272B30;stroke-width:1.5;" x1="470" x2="893" y1="84" y2="84"/><ellipse cx="480" cy="95" rx="3" ry="3" style="stroke:#038048;stroke-width:1.0;fill:none;"/><text fill="#000000" font-family="sans-serif" font-size="11" lengthAdjust="spacing" textLength="92" x="489" y="98.2104">isBuilt : boolean</text><ellipse cx="480" cy="107.8047" rx="3" ry="3" style="stroke:#038048;stroke-width:1.0;fill:none;"/><text fill="#000000" font-family="sans-serif" font-size="11" lengthAdjust="spacing" textLength="155" x="489" y="111.0151">selfElement : HTMLElement</text><ellipse cx="480" cy="120.6094" rx="3" ry="3" style="stroke:#038048;stroke-width:1.0;fill:none;"/><text fill="#000000" font-family="sans-serif" font-size="11" lengthAdjust="spacing" textLength="93" x="489" y="123.8198">uniqueId : string</text><ellipse cx="480" cy="133.4141" rx="3" ry="3" style="stroke:#038048;stroke-width:1.0;fill:none;"/><text fill="#000000" font-family="sans-serif" font-size="11" lengthAdjust="spacing" textLength="92" x="489" y="136.6245">widgetId : string</text><line style="stroke:#272B30;stroke-width:1.5;" x1="470" x2="893" y1="143.2188" y2="143.2188"/><ellipse cx="480" cy="154.2188" fill="#84BE84" rx="3" ry="3" style="stroke:#038048;stroke-width:1.0;"/><text fill="#000000" font-family="sans-serif" font-size="11" lengthAdjust="spacing" textLength="324" x="489" y="157.4292">beNotifiedByChild(childId: string, notifiedTo: string) : void</text><ellipse cx="480" cy="167.0234" fill="#84BE84" rx="3" ry="3" style="stroke:#038048;stroke-width:1.0;"/><text fill="#000000" font-family="sans-serif" font-size="11" lengthAdjust="spacing" textLength="70" x="489" y="170.2339">build() : void</text><ellipse cx="480" cy="179.8281" fill="#84BE84" rx="3" ry="3" style="stroke:#038048;stroke-width:1.0;"/><text fill="#000000" font-family="sans-serif" font-size="11" lengthAdjust="spacing" textLength="399" x="489" y="183.0386">changeProperty(propertyName: string, propertyValue: unknown) : void</text><ellipse cx="480" cy="192.6328" fill="#84BE84" rx="3" ry="3" style="stroke:#038048;stroke-width:1.0;"/><text fill="#000000" font-family="sans-serif" font-size="11" lengthAdjust="spacing" textLength="88" x="489" y="195.8433">dispose() : void</text><ellipse cx="480" cy="205.4375" fill="#84BE84" rx="3" ry="3" style="stroke:#038048;stroke-width:1.0;"/><text fill="#000000" font-family="sans-serif" font-size="11" lengthAdjust="spacing" textLength="179" x="489" y="208.6479">equalsToID(id: string) : boolean</text><!--MD5=[c04c3897488c1b343f0ece22e8c5305c]
reverse link AbstractParent<SectionIndexConfig, ISectionIndexItem> to SectionIndex--><path codeLine="53" d="M309.23,277.54 C317.75,291.44 326.49,305.68 335.23,319.93 " fill="none" id="AbstractParent&lt;SectionIndexConfig, ISectionIndexItem&gt;-backto-SectionIndex" style="stroke:#272B30;stroke-width:1.0;"/><polygon fill="none" points="303.06,280.86,298.57,260.15,314.99,273.54,303.06,280.86" style="stroke:#272B30;stroke-width:1.0;"/><!--MD5=[3ce6b6acd755a0644afa4f692b23f5a6]
reverse link ISectionIndex to SectionIndex--><path codeLine="65" d="M621.34,232.59 C604.84,259.49 586.37,289.6 567.86,319.78 " fill="none" id="ISectionIndex-backto-SectionIndex" style="stroke:#272B30;stroke-width:1.0;stroke-dasharray:7.0,7.0;"/><polygon fill="none" points="615.45,228.8,631.88,215.41,627.39,236.12,615.45,228.8" style="stroke:#272B30;stroke-width:1.0;"/><!--MD5=[54709e0cec45c5f84dbc8f0512d710a5]
@startuml
skinparam ClassArrowColor #272b30
skinparam ClassBorderColor #272b30
skinparam ClassBackgroundColor #fff
skinparam BackgroundColor #ced4da
hide empty methods
hide empty fields
class "SectionIndex" {
    #_selfElem : HTMLElement
    #_widgetId : string
    -_activeSectionIndexItem : ISectionIndexItem
    -_mainScrollContainerElement : HTMLElement
    -_navigateOnClick : boolean
    -_scrollTimeout : number
    +beNotifiedByChild(childId: string, notifiedTo: ChildNotifyActionType) : void
    +build() : void
    +changeProperty(propertyName: string, propertyValue: unknown) : void
    +dispose() : void
    +equalsToID(patternId: string) : boolean
    +getChildItems(type: string) : ISectionIndexItem[]
    #finishBuild() : void
    #getChild(childId: string) : ISectionIndexItem
    #getChildByIndex(index: number, childType: string) : ISectionIndexItem
    #getChildIndex(childId: string) : number
    #setChild(childId: string, childItem: ISectionIndexItem) : void
    #setHtmlElements() : void
    #unsetChild(childId: string) : void
    #unsetHtmlElements() : void
    -_addSectionIndexItem(childId: string) : void
    -_childItemHasBeenClicked(childId: string) : void
    -_removeSectionIndexItem(childId: string) : void
    -_setActiveChildOnClick(child: ISectionIndexItem) : void
    -_setActiveChildOnScroll(child: ISectionIndexItem) : void
    -_toggleIsFixed() : void
}
abstract class "AbstractParent<SectionIndexConfig, ISectionIndexItem>" {
    #_selfElem : HTMLElement
    #_widgetId : string
    -_childIdsByType : Map<string, string>
    -_childItemsByType : Object
    {abstract} +beNotifiedByChild(childId: string, notifiedTo: string) : void
    +build() : void
    +changeProperty(propertyName: string, propertyValue: unknown) : void
    +dispose() : void
    +equalsToID(patternId: string) : boolean
    +getChildItems(type: string) : ISectionIndexItem[]
    #finishBuild() : void
    #getChild(childId: string) : ISectionIndexItem
    #getChildByIndex(index: number, childType: string) : ISectionIndexItem
    #getChildIndex(childId: string) : number
    #setChild(childId: string, childItem: ISectionIndexItem) : void
    #unsetChild(childId: string) : void
}
"AbstractParent<SectionIndexConfig, ISectionIndexItem>" <|- - "SectionIndex"
interface "ISectionIndex" {
    +isBuilt : boolean
    +selfElement : HTMLElement
    +uniqueId : string
    +widgetId : string
    +beNotifiedByChild(childId: string, notifiedTo: string) : void
    +build() : void
    +changeProperty(propertyName: string, propertyValue: unknown) : void
    +dispose() : void
    +equalsToID(id: string) : boolean
}
"ISectionIndex" <|.. "SectionIndex"
@enduml

PlantUML version 1.2021.14(Fri Nov 12 16:46:50 UTC 2021)
(GPL source distribution)
Java Runtime: OpenJDK Runtime Environment
JVM: OpenJDK 64-Bit Server VM
Default Encoding: UTF-8
Language: en
Country: null
--></g></svg>