<?xml version="1.0" encoding="UTF-8" standalone="no"?><svg xmlns="http://www.w3.org/2000/svg" xmlns:xlink="http://www.w3.org/1999/xlink" contentScriptType="application/ecmascript" contentStyleType="text/css" height="798px" preserveAspectRatio="none" style="width:994px;height:798px;background:#CED4DA;" version="1.1" viewBox="0 0 994 798" width="994px" zoomAndPan="magnify"><defs><filter height="300%" id="fbqxm1plyyal3" width="300%" x="-1" y="-1"><feGaussianBlur result="blurOut" stdDeviation="2.0"/><feColorMatrix in="blurOut" result="blurOut2" type="matrix" values="0 0 0 0 0 0 0 0 0 0 0 0 0 0 0 0 0 0 .4 0"/><feOffset dx="4.0" dy="4.0" in="blurOut2" result="blurOut3"/><feBlend in="SourceGraphic" in2="blurOut3" mode="normal"/></filter></defs><g><!--MD5=[014a276441c362f167faaa4956b4eefc]
class SectionIndexItem--><rect codeLine="7" fill="#FFFFFF" filter="url(#fbqxm1plyyal3)" height="462.5625" id="SectionIndexItem" style="stroke:#272B30;stroke-width:1.5;" width="533" x="260" y="322"/><ellipse cx="473.75" cy="338" fill="#ADD1B2" rx="11" ry="11" style="stroke:#272B30;stroke-width:1.0;"/><path d="M476.2231,344.1431 Q475.6421,344.4419 475.0029,344.5913 Q474.3638,344.7407 473.6582,344.7407 Q471.1514,344.7407 469.8315,343.0889 Q468.5117,341.437 468.5117,338.3159 Q468.5117,335.1865 469.8315,333.5347 Q471.1514,331.8828 473.6582,331.8828 Q474.3638,331.8828 475.0112,332.0322 Q475.6587,332.1816 476.2231,332.4805 L476.2231,335.2031 Q475.5923,334.6221 474.9988,334.3523 Q474.4053,334.0825 473.7744,334.0825 Q472.4297,334.0825 471.7449,335.1492 Q471.0601,336.2158 471.0601,338.3159 Q471.0601,340.4077 471.7449,341.4744 Q472.4297,342.541 473.7744,342.541 Q474.4053,342.541 474.9988,342.2712 Q475.5923,342.0015 476.2231,341.4204 Z " fill="#000000"/><text fill="#000000" font-family="sans-serif" font-size="12" lengthAdjust="spacing" textLength="97" x="494.25" y="342.5352">SectionIndexItem</text><line style="stroke:#272B30;stroke-width:1.5;" x1="261" x2="792" y1="354" y2="354"/><rect fill="none" height="6" style="stroke:#C82930;stroke-width:1.0;" width="6" x="268" y="362"/><text fill="#000000" font-family="sans-serif" font-size="11" lengthAdjust="spacing" textLength="157" x="280" y="368.6348">_eventOnBodyScroll : Generic</text><rect fill="none" height="6" style="stroke:#C82930;stroke-width:1.0;" width="6" x="268" y="374.9551"/><text fill="#000000" font-family="sans-serif" font-size="11" lengthAdjust="spacing" textLength="127" x="280" y="381.5898">_eventOnClick : Generic</text><rect fill="none" height="6" style="stroke:#C82930;stroke-width:1.0;" width="6" x="268" y="387.9102"/><text fill="#000000" font-family="sans-serif" font-size="11" lengthAdjust="spacing" textLength="179" x="280" y="394.5449">_eventOnkeyBoardPress : Generic</text><rect fill="none" height="6" style="stroke:#C82930;stroke-width:1.0;" width="6" x="268" y="400.8652"/><text fill="#000000" font-family="sans-serif" font-size="11" lengthAdjust="spacing" textLength="129" x="280" y="407.5">_headerHeight : number</text><rect fill="none" height="6" style="stroke:#C82930;stroke-width:1.0;" width="6" x="268" y="413.8203"/><text fill="#000000" font-family="sans-serif" font-size="11" lengthAdjust="spacing" textLength="133" x="280" y="420.4551">_headerIsFixed : boolean</text><rect fill="none" height="6" style="stroke:#C82930;stroke-width:1.0;" width="6" x="268" y="426.7754"/><text fill="#000000" font-family="sans-serif" font-size="11" lengthAdjust="spacing" textLength="100" x="280" y="433.4102">_isActive : boolean</text><rect fill="none" height="6" style="stroke:#C82930;stroke-width:1.0;" width="6" x="268" y="439.7305"/><text fill="#000000" font-family="sans-serif" font-size="11" lengthAdjust="spacing" textLength="238" x="280" y="446.3652">_mainScrollContainerElement : HTMLElement</text><rect fill="none" height="6" style="stroke:#C82930;stroke-width:1.0;" width="6" x="268" y="452.6855"/><text fill="#000000" font-family="sans-serif" font-size="11" lengthAdjust="spacing" textLength="161" x="280" y="459.3203">_targetElement : HTMLElement</text><rect fill="none" height="6" style="stroke:#C82930;stroke-width:1.0;" width="6" x="268" y="465.6406"/><text fill="#000000" font-family="sans-serif" font-size="11" lengthAdjust="spacing" textLength="190" x="280" y="472.2754">_targetElementOffset : OffsetValues</text><line style="stroke:#272B30;stroke-width:1.5;" x1="261" x2="792" y1="478.5957" y2="478.5957"/><ellipse cx="271" cy="489.5957" fill="#84BE84" rx="3" ry="3" style="stroke:#038048;stroke-width:1.0;"/><text fill="#000000" font-family="sans-serif" font-size="11" lengthAdjust="spacing" textLength="67" x="280" y="493.2305">build() : void</text><ellipse cx="271" cy="502.5508" fill="#84BE84" rx="3" ry="3" style="stroke:#038048;stroke-width:1.0;"/><text fill="#000000" font-family="sans-serif" font-size="11" lengthAdjust="spacing" textLength="377" x="280" y="506.1855">changeProperty(propertyName: string, propertyValue: unknown) : void</text><ellipse cx="271" cy="515.5059" fill="#84BE84" rx="3" ry="3" style="stroke:#038048;stroke-width:1.0;"/><text fill="#000000" font-family="sans-serif" font-size="11" lengthAdjust="spacing" textLength="82" x="280" y="519.1406">dispose() : void</text><ellipse cx="271" cy="528.4609" fill="#84BE84" rx="3" ry="3" style="stroke:#038048;stroke-width:1.0;"/><text fill="#000000" font-family="sans-serif" font-size="11" lengthAdjust="spacing" textLength="207" x="280" y="532.0957">equalsToID(patternId: string) : boolean</text><ellipse cx="271" cy="541.416" fill="#84BE84" rx="3" ry="3" style="stroke:#038048;stroke-width:1.0;"/><text fill="#000000" font-family="sans-serif" font-size="11" lengthAdjust="spacing" textLength="98" x="280" y="545.0508">setIsActive() : void</text><ellipse cx="271" cy="554.3711" fill="#84BE84" rx="3" ry="3" style="stroke:#038048;stroke-width:1.0;"/><text fill="#000000" font-family="sans-serif" font-size="11" lengthAdjust="spacing" textLength="112" x="280" y="558.0059">unsetIsActive() : void</text><polygon fill="#FFFF44" points="271,562.3262,275,566.3262,271,570.3262,267,566.3262" style="stroke:#B38D22;stroke-width:1.0;"/><text fill="#000000" font-family="sans-serif" font-size="11" lengthAdjust="spacing" textLength="96" x="280" y="570.9609">finishBuild() : void</text><polygon fill="#FFFF44" points="271,575.2813,275,579.2813,271,583.2813,267,579.2813" style="stroke:#B38D22;stroke-width:1.0;"/><text fill="#000000" font-family="sans-serif" font-size="11" lengthAdjust="spacing" textLength="202" x="280" y="583.916">notifyParent(actionType: string) : void</text><polygon fill="#FFFF44" points="271,588.2363,275,592.2363,271,596.2363,267,592.2363" style="stroke:#B38D22;stroke-width:1.0;"/><text fill="#000000" font-family="sans-serif" font-size="11" lengthAdjust="spacing" textLength="140" x="280" y="596.8711">setA11YProperties() : void</text><polygon fill="#FFFF44" points="271,601.1914,275,605.1914,271,609.1914,267,605.1914" style="stroke:#B38D22;stroke-width:1.0;"/><text fill="#000000" font-family="sans-serif" font-size="11" lengthAdjust="spacing" textLength="107" x="280" y="609.8262">setCallbacks() : void</text><polygon fill="#FFFF44" points="271,614.1465,275,618.1465,271,622.1465,267,618.1465" style="stroke:#B38D22;stroke-width:1.0;"/><text fill="#000000" font-family="sans-serif" font-size="11" lengthAdjust="spacing" textLength="129" x="280" y="622.7813">setHtmlElements() : void</text><polygon fill="#FFFF44" points="271,627.1016,275,631.1016,271,635.1016,267,631.1016" style="stroke:#B38D22;stroke-width:1.0;"/><text fill="#000000" font-family="sans-serif" font-size="11" lengthAdjust="spacing" textLength="507" x="280" y="635.7363">setParentInfo(parentSelector: string, getPatternByIdAPI: Function, canBeOrphan: boolean) : void</text><polygon fill="#FFFF44" points="271,640.0566,275,644.0566,271,648.0566,267,644.0566" style="stroke:#B38D22;stroke-width:1.0;"/><text fill="#000000" font-family="sans-serif" font-size="11" lengthAdjust="spacing" textLength="121" x="280" y="648.6914">unsetCallbacks() : void</text><polygon fill="#FFFF44" points="271,653.0117,275,657.0117,271,661.0117,267,657.0117" style="stroke:#B38D22;stroke-width:1.0;"/><text fill="#000000" font-family="sans-serif" font-size="11" lengthAdjust="spacing" textLength="143" x="280" y="661.6465">unsetHtmlElements() : void</text><rect fill="#F24D5C" height="6" style="stroke:#C82930;stroke-width:1.0;" width="6" x="268" y="667.9668"/><text fill="#000000" font-family="sans-serif" font-size="11" lengthAdjust="spacing" textLength="116" x="280" y="674.6016">_onBodyScroll() : void</text><rect fill="#F24D5C" height="6" style="stroke:#C82930;stroke-width:1.0;" width="6" x="268" y="680.9219"/><text fill="#000000" font-family="sans-serif" font-size="11" lengthAdjust="spacing" textLength="268" x="280" y="687.5566">_onKeyboardPressed(event: KeyboardEvent) : void</text><rect fill="#F24D5C" height="6" style="stroke:#C82930;stroke-width:1.0;" width="6" x="268" y="693.877"/><text fill="#000000" font-family="sans-serif" font-size="11" lengthAdjust="spacing" textLength="168" x="280" y="700.5117">_onSelected(event: Event) : void</text><rect fill="#F24D5C" height="6" style="stroke:#C82930;stroke-width:1.0;" width="6" x="268" y="706.832"/><text fill="#000000" font-family="sans-serif" font-size="11" lengthAdjust="spacing" textLength="121" x="280" y="713.4668">_removeEvents() : void</text><rect fill="#F24D5C" height="6" style="stroke:#C82930;stroke-width:1.0;" width="6" x="268" y="719.7871"/><text fill="#000000" font-family="sans-serif" font-size="11" lengthAdjust="spacing" textLength="121" x="280" y="726.4219">_setHeaderSize() : void</text><rect fill="#F24D5C" height="6" style="stroke:#C82930;stroke-width:1.0;" width="6" x="268" y="732.7422"/><text fill="#000000" font-family="sans-serif" font-size="11" lengthAdjust="spacing" textLength="132" x="280" y="739.377">_setLinkAttribute() : void</text><rect fill="#F24D5C" height="6" style="stroke:#C82930;stroke-width:1.0;" width="6" x="268" y="745.6973"/><text fill="#000000" font-family="sans-serif" font-size="11" lengthAdjust="spacing" textLength="139" x="280" y="752.332">_setTargetElement() : void</text><rect fill="#F24D5C" height="6" style="stroke:#C82930;stroke-width:1.0;" width="6" x="268" y="758.6523"/><text fill="#000000" font-family="sans-serif" font-size="11" lengthAdjust="spacing" textLength="151" x="280" y="765.2871">_setTargetOffsetInfo() : void</text><rect fill="#F24D5C" height="6" style="stroke:#C82930;stroke-width:1.0;" width="6" x="268" y="771.6074"/><text fill="#000000" font-family="sans-serif" font-size="11" lengthAdjust="spacing" textLength="112" x="280" y="778.2422">_setUpEvents() : void</text><!--MD5=[a3194b61b3cc4869c8fcc1dbbe2cb4a1]
class AbstractChild<SectionIndexItemConfig, ISectionIndex>--><rect codeLine="41" fill="#FFFFFF" filter="url(#fbqxm1plyyal3)" height="255.2813" id="AbstractChild&lt;SectionIndexItemConfig, ISectionIndex&gt;" style="stroke:#272B30;stroke-width:1.5;" width="533" x="9" y="7"/><ellipse cx="114.75" cy="23" fill="#A9DCDF" rx="11" ry="11" style="stroke:#272B30;stroke-width:1.0;"/><path d="M114.6133,18.3481 L113.4595,23.4199 L115.7754,23.4199 Z M113.1191,16.1069 L116.1157,16.1069 L119.4609,28.5 L117.0122,28.5 L116.2485,25.437 L112.9697,25.437 L112.2227,28.5 L109.7739,28.5 Z " fill="#000000"/><text fill="#000000" font-family="sans-serif" font-size="12" font-style="italic" lengthAdjust="spacing" textLength="313" x="135.25" y="27.5352">AbstractChild&lt;SectionIndexItemConfig, ISectionIndex&gt;</text><line style="stroke:#272B30;stroke-width:1.5;" x1="10" x2="541" y1="39" y2="39"/><rect fill="none" height="6" style="stroke:#C82930;stroke-width:1.0;" width="6" x="17" y="47"/><text fill="#000000" font-family="sans-serif" font-size="11" lengthAdjust="spacing" textLength="119" x="29" y="53.6348">_isFirstChild : boolean</text><rect fill="none" height="6" style="stroke:#C82930;stroke-width:1.0;" width="6" x="17" y="59.9551"/><text fill="#000000" font-family="sans-serif" font-size="11" lengthAdjust="spacing" textLength="117" x="29" y="66.5898">_isLastChild : boolean</text><rect fill="none" height="6" style="stroke:#C82930;stroke-width:1.0;" width="6" x="17" y="72.9102"/><text fill="#000000" font-family="sans-serif" font-size="11" lengthAdjust="spacing" textLength="92" x="29" y="79.5449">_parentId : string</text><rect fill="none" height="6" style="stroke:#C82930;stroke-width:1.0;" width="6" x="17" y="85.8652"/><text fill="#000000" font-family="sans-serif" font-size="11" lengthAdjust="spacing" textLength="157" x="29" y="92.5">_parentObject : ISectionIndex</text><line style="stroke:#272B30;stroke-width:1.5;" x1="10" x2="541" y1="98.8203" y2="98.8203"/><ellipse cx="20" cy="109.8203" fill="#84BE84" rx="3" ry="3" style="stroke:#038048;stroke-width:1.0;"/><text fill="#000000" font-family="sans-serif" font-size="11" lengthAdjust="spacing" textLength="67" x="29" y="113.4551">build() : void</text><ellipse cx="20" cy="122.7754" fill="#84BE84" rx="3" ry="3" style="stroke:#038048;stroke-width:1.0;"/><text fill="#000000" font-family="sans-serif" font-size="11" lengthAdjust="spacing" textLength="377" x="29" y="126.4102">changeProperty(propertyName: string, propertyValue: unknown) : void</text><ellipse cx="20" cy="135.7305" fill="#84BE84" rx="3" ry="3" style="stroke:#038048;stroke-width:1.0;"/><text fill="#000000" font-family="sans-serif" font-size="11" lengthAdjust="spacing" textLength="82" x="29" y="139.3652">dispose() : void</text><ellipse cx="20" cy="148.6855" fill="#84BE84" rx="3" ry="3" style="stroke:#038048;stroke-width:1.0;"/><text fill="#000000" font-family="sans-serif" font-size="11" lengthAdjust="spacing" textLength="207" x="29" y="152.3203">equalsToID(patternId: string) : boolean</text><polygon fill="#FFFF44" points="20,156.6406,24,160.6406,20,164.6406,16,160.6406" style="stroke:#B38D22;stroke-width:1.0;"/><text fill="#000000" font-family="sans-serif" font-size="11" lengthAdjust="spacing" textLength="96" x="29" y="165.2754">finishBuild() : void</text><polygon fill="#FFFF44" points="20,169.5957,24,173.5957,20,177.5957,16,173.5957" style="stroke:#B38D22;stroke-width:1.0;"/><text fill="#000000" font-family="sans-serif" font-size="11" lengthAdjust="spacing" textLength="202" x="29" y="178.2305">notifyParent(actionType: string) : void</text><polygon fill="#FFFF44" points="20,182.5508,24,186.5508,20,190.5508,16,186.5508" style="stroke:#B38D22;stroke-width:1.0;"/><text fill="#000000" font-family="sans-serif" font-size="11" font-style="italic" lengthAdjust="spacing" textLength="140" x="29" y="191.1855">setA11YProperties() : void</text><polygon fill="#FFFF44" points="20,195.5059,24,199.5059,20,203.5059,16,199.5059" style="stroke:#B38D22;stroke-width:1.0;"/><text fill="#000000" font-family="sans-serif" font-size="11" font-style="italic" lengthAdjust="spacing" textLength="107" x="29" y="204.1406">setCallbacks() : void</text><polygon fill="#FFFF44" points="20,208.4609,24,212.4609,20,216.4609,16,212.4609" style="stroke:#B38D22;stroke-width:1.0;"/><text fill="#000000" font-family="sans-serif" font-size="11" font-style="italic" lengthAdjust="spacing" textLength="129" x="29" y="217.0957">setHtmlElements() : void</text><polygon fill="#FFFF44" points="20,221.416,24,225.416,20,229.416,16,225.416" style="stroke:#B38D22;stroke-width:1.0;"/><text fill="#000000" font-family="sans-serif" font-size="11" lengthAdjust="spacing" textLength="507" x="29" y="230.0508">setParentInfo(parentSelector: string, getPatternByIdAPI: Function, canBeOrphan: boolean) : void</text><polygon fill="#FFFF44" points="20,234.3711,24,238.3711,20,242.3711,16,238.3711" style="stroke:#B38D22;stroke-width:1.0;"/><text fill="#000000" font-family="sans-serif" font-size="11" font-style="italic" lengthAdjust="spacing" textLength="121" x="29" y="243.0059">unsetCallbacks() : void</text><polygon fill="#FFFF44" points="20,247.3262,24,251.3262,20,255.3262,16,251.3262" style="stroke:#B38D22;stroke-width:1.0;"/><text fill="#000000" font-family="sans-serif" font-size="11" font-style="italic" lengthAdjust="spacing" textLength="143" x="29" y="255.9609">unsetHtmlElements() : void</text><!--MD5=[822676b925c8e001bce71cad4a86da40]
class ISectionIndexItem--><rect codeLine="60" fill="#FFFFFF" filter="url(#fbqxm1plyyal3)" height="229.3711" id="ISectionIndexItem" style="stroke:#272B30;stroke-width:1.5;" width="403" x="577" y="20"/><ellipse cx="724.25" cy="36" fill="#B4A7E5" rx="11" ry="11" style="stroke:#272B30;stroke-width:1.0;"/><path d="M720.6777,32.2651 L720.6777,30.1069 L728.0571,30.1069 L728.0571,32.2651 L725.5918,32.2651 L725.5918,40.3418 L728.0571,40.3418 L728.0571,42.5 L720.6777,42.5 L720.6777,40.3418 L723.1431,40.3418 L723.1431,32.2651 Z " fill="#000000"/><text fill="#000000" font-family="sans-serif" font-size="12" font-style="italic" lengthAdjust="spacing" textLength="100" x="744.75" y="40.5352">ISectionIndexItem</text><line style="stroke:#272B30;stroke-width:1.5;" x1="578" x2="979" y1="52" y2="52"/><ellipse cx="588" cy="63" rx="3" ry="3" style="stroke:#038048;stroke-width:1.0;fill:none;"/><text fill="#000000" font-family="sans-serif" font-size="11" lengthAdjust="spacing" textLength="84" x="597" y="66.6348">isBuilt : boolean</text><ellipse cx="588" cy="75.9551" rx="3" ry="3" style="stroke:#038048;stroke-width:1.0;fill:none;"/><text fill="#000000" font-family="sans-serif" font-size="11" lengthAdjust="spacing" textLength="142" x="597" y="79.5898">selfElement : HTMLElement</text><ellipse cx="588" cy="88.9102" rx="3" ry="3" style="stroke:#038048;stroke-width:1.0;fill:none;"/><text fill="#000000" font-family="sans-serif" font-size="11" lengthAdjust="spacing" textLength="88" x="597" y="92.5449">uniqueId : string</text><ellipse cx="588" cy="101.8652" rx="3" ry="3" style="stroke:#038048;stroke-width:1.0;fill:none;"/><text fill="#000000" font-family="sans-serif" font-size="11" lengthAdjust="spacing" textLength="86" x="597" y="105.5">widgetId : string</text><line style="stroke:#272B30;stroke-width:1.5;" x1="578" x2="979" y1="111.8203" y2="111.8203"/><ellipse cx="588" cy="122.8203" fill="#84BE84" rx="3" ry="3" style="stroke:#038048;stroke-width:1.0;"/><text fill="#000000" font-family="sans-serif" font-size="11" lengthAdjust="spacing" textLength="67" x="597" y="126.4551">build() : void</text><ellipse cx="588" cy="135.7754" fill="#84BE84" rx="3" ry="3" style="stroke:#038048;stroke-width:1.0;"/><text fill="#000000" font-family="sans-serif" font-size="11" lengthAdjust="spacing" textLength="377" x="597" y="139.4102">changeProperty(propertyName: string, propertyValue: unknown) : void</text><ellipse cx="588" cy="148.7305" fill="#84BE84" rx="3" ry="3" style="stroke:#038048;stroke-width:1.0;"/><text fill="#000000" font-family="sans-serif" font-size="11" lengthAdjust="spacing" textLength="82" x="597" y="152.3652">dispose() : void</text><ellipse cx="588" cy="161.6855" fill="#84BE84" rx="3" ry="3" style="stroke:#038048;stroke-width:1.0;"/><text fill="#000000" font-family="sans-serif" font-size="11" lengthAdjust="spacing" textLength="168" x="597" y="165.3203">equalsToID(id: string) : boolean</text><ellipse cx="588" cy="174.6406" fill="#84BE84" rx="3" ry="3" style="stroke:#038048;stroke-width:1.0;"/><text fill="#000000" font-family="sans-serif" font-size="11" lengthAdjust="spacing" textLength="77" x="597" y="178.2754">setBlur() : void</text><ellipse cx="588" cy="187.5957" fill="#84BE84" rx="3" ry="3" style="stroke:#038048;stroke-width:1.0;"/><text fill="#000000" font-family="sans-serif" font-size="11" lengthAdjust="spacing" textLength="88" x="597" y="191.2305">setFocus() : void</text><ellipse cx="588" cy="200.5508" fill="#84BE84" rx="3" ry="3" style="stroke:#038048;stroke-width:1.0;"/><text fill="#000000" font-family="sans-serif" font-size="11" lengthAdjust="spacing" textLength="98" x="597" y="204.1855">setIsActive() : void</text><ellipse cx="588" cy="213.5059" fill="#84BE84" rx="3" ry="3" style="stroke:#038048;stroke-width:1.0;"/><text fill="#000000" font-family="sans-serif" font-size="11" lengthAdjust="spacing" textLength="106" x="597" y="217.1406">setTabindex() : void</text><ellipse cx="588" cy="226.4609" fill="#84BE84" rx="3" ry="3" style="stroke:#038048;stroke-width:1.0;"/><text fill="#000000" font-family="sans-serif" font-size="11" lengthAdjust="spacing" textLength="112" x="597" y="230.0957">unsetIsActive() : void</text><ellipse cx="588" cy="239.416" fill="#84BE84" rx="3" ry="3" style="stroke:#038048;stroke-width:1.0;"/><text fill="#000000" font-family="sans-serif" font-size="11" lengthAdjust="spacing" textLength="120" x="597" y="243.0508">unsetTabindex() : void</text><!--MD5=[499a7b6f6dac96581bf672eaca190e19]
reverse link AbstractChild<SectionIndexItemConfig, ISectionIndex> to SectionIndexItem--><path codeLine="59" d="M362.03,279.26 C370.34,293.07 378.9,307.29 387.55,321.65 " fill="none" id="AbstractChild&lt;SectionIndexItemConfig, ISectionIndex&gt;-backto-SectionIndexItem" style="stroke:#272B30;stroke-width:1.0;"/><polygon fill="none" points="355.98,282.77,351.66,262.03,367.97,275.55,355.98,282.77" style="stroke:#272B30;stroke-width:1.0;"/><!--MD5=[090a083ce839f0b2463071509fc75c46]
reverse link ISectionIndexItem to SectionIndexItem--><path codeLine="76" d="M699.44,266.32 C688.67,284.15 677.36,302.86 665.91,321.82 " fill="none" id="ISectionIndexItem-backto-SectionIndexItem" style="stroke:#272B30;stroke-width:1.0;stroke-dasharray:7.0,7.0;"/><polygon fill="none" points="693.47,262.67,709.81,249.17,705.45,269.91,693.47,262.67" style="stroke:#272B30;stroke-width:1.0;"/><!--MD5=[9550cd741fb8bbf3dbcd7fb10533aae3]
@startuml
skinparam ClassArrowColor #272b30
skinparam ClassBorderColor #272b30
skinparam ClassBackgroundColor #fff
skinparam BackgroundColor #ced4da
hide empty methods
hide empty fields
class "SectionIndexItem" {
    -_eventOnBodyScroll : Generic
    -_eventOnClick : Generic
    -_eventOnkeyBoardPress : Generic
    -_headerHeight : number
    -_headerIsFixed : boolean
    -_isActive : boolean
    -_mainScrollContainerElement : HTMLElement
    -_targetElement : HTMLElement
    -_targetElementOffset : OffsetValues
    +build() : void
    +changeProperty(propertyName: string, propertyValue: unknown) : void
    +dispose() : void
    +equalsToID(patternId: string) : boolean
    +setIsActive() : void
    +unsetIsActive() : void
    #finishBuild() : void
    #notifyParent(actionType: string) : void
    #setA11YProperties() : void
    #setCallbacks() : void
    #setHtmlElements() : void
    #setParentInfo(parentSelector: string, getPatternByIdAPI: Function, canBeOrphan: boolean) : void
    #unsetCallbacks() : void
    #unsetHtmlElements() : void
    -_onBodyScroll() : void
    -_onKeyboardPressed(event: KeyboardEvent) : void
    -_onSelected(event: Event) : void
    -_removeEvents() : void
    -_setHeaderSize() : void
    -_setLinkAttribute() : void
    -_setTargetElement() : void
    -_setTargetOffsetInfo() : void
    -_setUpEvents() : void
}
abstract class "AbstractChild<SectionIndexItemConfig, ISectionIndex>" {
    -_isFirstChild : boolean
    -_isLastChild : boolean
    -_parentId : string
    -_parentObject : ISectionIndex
    +build() : void
    +changeProperty(propertyName: string, propertyValue: unknown) : void
    +dispose() : void
    +equalsToID(patternId: string) : boolean
    #finishBuild() : void
    #notifyParent(actionType: string) : void
    {abstract} #setA11YProperties() : void
    {abstract} #setCallbacks() : void
    {abstract} #setHtmlElements() : void
    #setParentInfo(parentSelector: string, getPatternByIdAPI: Function, canBeOrphan: boolean) : void
    {abstract} #unsetCallbacks() : void
    {abstract} #unsetHtmlElements() : void
}
"AbstractChild<SectionIndexItemConfig, ISectionIndex>" <|- - "SectionIndexItem"
interface "ISectionIndexItem" {
    +isBuilt : boolean
    +selfElement : HTMLElement
    +uniqueId : string
    +widgetId : string
    +build() : void
    +changeProperty(propertyName: string, propertyValue: unknown) : void
    +dispose() : void
    +equalsToID(id: string) : boolean
    +setBlur() : void
    +setFocus() : void
    +setIsActive() : void
    +setTabindex() : void
    +unsetIsActive() : void
    +unsetTabindex() : void
}
"ISectionIndexItem" <|.. "SectionIndexItem"
@enduml

PlantUML version 1.2021.14(Fri Nov 12 16:46:50 WET 2021)
(GPL source distribution)
Java Runtime: Java(TM) SE Runtime Environment
JVM: Java HotSpot(TM) 64-Bit Server VM
Default Encoding: UTF-8
Language: en
Country: PT
--></g></svg>