<?xml version="1.0" encoding="us-ascii" standalone="no"?><svg xmlns="http://www.w3.org/2000/svg" xmlns:xlink="http://www.w3.org/1999/xlink" contentStyleType="text/css" height="1082px" preserveAspectRatio="none" style="width:1248px;height:1082px;background:#CED4DA;" version="1.1" viewBox="0 0 1248 1082" width="1248px" zoomAndPan="magnify"><defs/><g><rect fill="#CED4DA" height="1082" style="stroke:none;stroke-width:1.0;" width="1248" x="0" y="0"/><!--class SectionIndexItem--><g id="elem_SectionIndexItem"><rect codeLine="7" fill="#FFFFFF" height="618.3906" id="SectionIndexItem" rx="2.5" ry="2.5" style="stroke:#272B30;stroke-width:0.5;" width="687" x="326" y="457"/><ellipse cx="605.75" cy="473" fill="#ADD1B2" rx="11" ry="11" style="stroke:#181818;stroke-width:1.0;"/><path d="M608.7188,478.6406 Q608.1406,478.9375 607.5,479.0781 Q606.8594,479.2344 606.1563,479.2344 Q603.6563,479.2344 602.3281,477.5938 Q601.0156,475.9375 601.0156,472.8125 Q601.0156,469.6875 602.3281,468.0313 Q603.6563,466.375 606.1563,466.375 Q606.8594,466.375 607.5,466.5313 Q608.1563,466.6875 608.7188,466.9844 L608.7188,469.7031 Q608.0938,469.125 607.5,468.8594 Q606.9063,468.5781 606.2813,468.5781 Q604.9375,468.5781 604.25,469.6563 Q603.5625,470.7188 603.5625,472.8125 Q603.5625,474.9063 604.25,475.9844 Q604.9375,477.0469 606.2813,477.0469 Q606.9063,477.0469 607.5,476.7813 Q608.0938,476.5 608.7188,475.9219 L608.7188,478.6406 Z " fill="#000000"/><text fill="#000000" font-family="sans-serif" font-size="14" lengthAdjust="spacing" textLength="119" x="626.25" y="477.8467">SectionIndexItem</text><line style="stroke:#272B30;stroke-width:0.5;" x1="327" x2="1012" y1="489" y2="489"/><polygon fill="none" points="337,497.6484,341,501.6484,337,505.6484,333,501.6484" style="stroke:#B38D22;stroke-width:1.0;"/><text fill="#000000" font-family="sans-serif" font-size="14" lengthAdjust="spacing" textLength="180" x="346" y="505.9951">isProviderBased : boolean</text><rect fill="none" height="6" style="stroke:#C82930;stroke-width:1.0;" width="6" x="334" y="515.9453"/><text fill="#000000" font-family="sans-serif" font-size="14" lengthAdjust="spacing" textLength="165" x="346" y="522.292">_eventOnClick : Generic</text><rect fill="none" height="6" style="stroke:#C82930;stroke-width:1.0;" width="6" x="334" y="532.2422"/><text fill="#000000" font-family="sans-serif" font-size="14" lengthAdjust="spacing" textLength="237" x="346" y="538.5889">_eventOnkeyBoardPress : Generic</text><rect fill="none" height="6" style="stroke:#C82930;stroke-width:1.0;" width="6" x="334" y="548.5391"/><text fill="#000000" font-family="sans-serif" font-size="14" lengthAdjust="spacing" textLength="219" x="346" y="554.8857">_eventOnScreenScroll : Generic</text><rect fill="none" height="6" style="stroke:#C82930;stroke-width:1.0;" width="6" x="334" y="564.8359"/><text fill="#000000" font-family="sans-serif" font-size="14" lengthAdjust="spacing" textLength="128" x="346" y="571.1826">_isActive : boolean</text><rect fill="none" height="6" style="stroke:#C82930;stroke-width:1.0;" width="6" x="334" y="581.1328"/><text fill="#000000" font-family="sans-serif" font-size="14" lengthAdjust="spacing" textLength="309" x="346" y="587.4795">_mainScrollContainerElement : HTMLElement</text><rect fill="none" height="6" style="stroke:#C82930;stroke-width:1.0;" width="6" x="334" y="597.4297"/><text fill="#000000" font-family="sans-serif" font-size="14" lengthAdjust="spacing" textLength="213" x="346" y="603.7764">_targetElement : HTMLElement</text><line style="stroke:#272B30;stroke-width:0.5;" x1="327" x2="1012" y1="611.0781" y2="611.0781"/><ellipse cx="337" cy="624.7266" fill="#84BE84" rx="3" ry="3" style="stroke:#038048;stroke-width:1.0;"/><text fill="#000000" font-family="sans-serif" font-size="14" lengthAdjust="spacing" textLength="84" x="346" y="628.0732">build() : void</text><ellipse cx="337" cy="641.0234" fill="#84BE84" rx="3" ry="3" style="stroke:#038048;stroke-width:1.0;"/><text fill="#000000" font-family="sans-serif" font-size="14" lengthAdjust="spacing" textLength="484" x="346" y="644.3701">changeProperty(propertyName: string, propertyValue: unknown) : void</text><ellipse cx="337" cy="657.3203" fill="#84BE84" rx="3" ry="3" style="stroke:#038048;stroke-width:1.0;"/><text fill="#000000" font-family="sans-serif" font-size="14" lengthAdjust="spacing" textLength="106" x="346" y="660.667">dispose() : void</text><ellipse cx="337" cy="673.6172" fill="#84BE84" rx="3" ry="3" style="stroke:#038048;stroke-width:1.0;"/><text fill="#000000" font-family="sans-serif" font-size="14" lengthAdjust="spacing" textLength="267" x="346" y="676.9639">equalsToID(patternId: string) : boolean</text><ellipse cx="337" cy="689.9141" fill="#84BE84" rx="3" ry="3" style="stroke:#038048;stroke-width:1.0;"/><text fill="#000000" font-family="sans-serif" font-size="14" lengthAdjust="spacing" textLength="434" x="346" y="693.2607">registerCallback(eventName: string, callback: OSGeneric) : void</text><ellipse cx="337" cy="706.2109" fill="#84BE84" rx="3" ry="3" style="stroke:#038048;stroke-width:1.0;"/><text fill="#000000" font-family="sans-serif" font-size="14" lengthAdjust="spacing" textLength="125" x="346" y="709.5576">setIsActive() : void</text><ellipse cx="337" cy="722.5078" fill="#84BE84" rx="3" ry="3" style="stroke:#038048;stroke-width:1.0;"/><text fill="#000000" font-family="sans-serif" font-size="14" lengthAdjust="spacing" textLength="363" x="346" y="725.8545">setTargetScrollMargin(margin: string | number) : void</text><ellipse cx="337" cy="738.8047" fill="#84BE84" rx="3" ry="3" style="stroke:#038048;stroke-width:1.0;"/><text fill="#000000" font-family="sans-serif" font-size="14" lengthAdjust="spacing" textLength="143" x="346" y="742.1514">unsetIsActive() : void</text><polygon fill="#FFFF44" points="337,750.1016,341,754.1016,337,758.1016,333,754.1016" style="stroke:#B38D22;stroke-width:1.0;"/><text fill="#000000" font-family="sans-serif" font-size="14" lengthAdjust="spacing" textLength="121" x="346" y="758.4482">finishBuild() : void</text><polygon fill="#FFFF44" points="337,766.3984,341,770.3984,337,774.3984,333,770.3984" style="stroke:#B38D22;stroke-width:1.0;"/><text fill="#000000" font-family="sans-serif" font-size="14" lengthAdjust="spacing" textLength="257" x="346" y="774.7451">notifyParent(actionType: string) : void</text><polygon fill="#FFFF44" points="337,782.6953,341,786.6953,337,790.6953,333,786.6953" style="stroke:#B38D22;stroke-width:1.0;"/><text fill="#000000" font-family="sans-serif" font-size="14" lengthAdjust="spacing" textLength="180" x="346" y="791.042">setA11YProperties() : void</text><polygon fill="#FFFF44" points="337,798.9922,341,802.9922,337,806.9922,333,802.9922" style="stroke:#B38D22;stroke-width:1.0;"/><text fill="#000000" font-family="sans-serif" font-size="14" lengthAdjust="spacing" textLength="138" x="346" y="807.3389">setCallbacks() : void</text><polygon fill="#FFFF44" points="337,815.2891,341,819.2891,337,823.2891,333,819.2891" style="stroke:#B38D22;stroke-width:1.0;"/><text fill="#000000" font-family="sans-serif" font-size="14" lengthAdjust="spacing" textLength="169" x="346" y="823.6357">setHtmlElements() : void</text><polygon fill="#FFFF44" points="337,831.5859,341,835.5859,337,839.5859,333,835.5859" style="stroke:#B38D22;stroke-width:1.0;"/><text fill="#000000" font-family="sans-serif" font-size="14" lengthAdjust="spacing" textLength="661" x="346" y="839.9326">setParentInfo(parentSelector: string, getPatternByIdAPI: Function, canBeOrphan: boolean) : void</text><polygon fill="#FFFF44" points="337,847.8828,341,851.8828,337,855.8828,333,851.8828" style="stroke:#B38D22;stroke-width:1.0;"/><text fill="#000000" font-family="sans-serif" font-size="14" lengthAdjust="spacing" textLength="569" x="346" y="856.2295">triggerPlatformEventCallback(platFormCallback: OSGeneric, args: unknown[]) : void</text><polygon fill="#FFFF44" points="337,864.1797,341,868.1797,337,872.1797,333,868.1797" style="stroke:#B38D22;stroke-width:1.0;"/><text fill="#000000" font-family="sans-serif" font-size="14" lengthAdjust="spacing" textLength="311" x="346" y="872.5264">triggerPlatformInitializedEventCallback() : void</text><polygon fill="#FFFF44" points="337,880.4766,341,884.4766,337,888.4766,333,884.4766" style="stroke:#B38D22;stroke-width:1.0;"/><text fill="#000000" font-family="sans-serif" font-size="14" lengthAdjust="spacing" textLength="156" x="346" y="888.8232">unsetCallbacks() : void</text><polygon fill="#FFFF44" points="337,896.7734,341,900.7734,337,904.7734,333,900.7734" style="stroke:#B38D22;stroke-width:1.0;"/><text fill="#000000" font-family="sans-serif" font-size="14" lengthAdjust="spacing" textLength="199" x="346" y="905.1201">unsetGlobalCallbacks() : void</text><polygon fill="#FFFF44" points="337,913.0703,341,917.0703,337,921.0703,333,917.0703" style="stroke:#B38D22;stroke-width:1.0;"/><text fill="#000000" font-family="sans-serif" font-size="14" lengthAdjust="spacing" textLength="187" x="346" y="921.417">unsetHtmlElements() : void</text><rect fill="#F24D5C" height="6" style="stroke:#C82930;stroke-width:1.0;" width="6" x="334" y="931.3672"/><text fill="#000000" font-family="sans-serif" font-size="14" lengthAdjust="spacing" textLength="350" x="346" y="937.7139">_onKeyboardPressed(event: KeyboardEvent) : void</text><rect fill="#F24D5C" height="6" style="stroke:#C82930;stroke-width:1.0;" width="6" x="334" y="947.6641"/><text fill="#000000" font-family="sans-serif" font-size="14" lengthAdjust="spacing" textLength="162" x="346" y="954.0107">_onScreenScroll() : void</text><rect fill="#F24D5C" height="6" style="stroke:#C82930;stroke-width:1.0;" width="6" x="334" y="963.9609"/><text fill="#000000" font-family="sans-serif" font-size="14" lengthAdjust="spacing" textLength="224" x="346" y="970.3076">_onSelected(event: Event) : void</text><rect fill="#F24D5C" height="6" style="stroke:#C82930;stroke-width:1.0;" width="6" x="334" y="980.2578"/><text fill="#000000" font-family="sans-serif" font-size="14" lengthAdjust="spacing" textLength="157" x="346" y="986.6045">_removeEvents() : void</text><rect fill="#F24D5C" height="6" style="stroke:#C82930;stroke-width:1.0;" width="6" x="334" y="996.5547"/><text fill="#000000" font-family="sans-serif" font-size="14" lengthAdjust="spacing" textLength="166" x="346" y="1002.9014">_setLinkAttribute() : void</text><rect fill="#F24D5C" height="6" style="stroke:#C82930;stroke-width:1.0;" width="6" x="334" y="1012.8516"/><text fill="#000000" font-family="sans-serif" font-size="14" lengthAdjust="spacing" textLength="192" x="346" y="1019.1982">_setTargetAttributes() : void</text><rect fill="#F24D5C" height="6" style="stroke:#C82930;stroke-width:1.0;" width="6" x="334" y="1029.1484"/><text fill="#000000" font-family="sans-serif" font-size="14" lengthAdjust="spacing" textLength="182" x="346" y="1035.4951">_setTargetElement() : void</text><rect fill="#F24D5C" height="6" style="stroke:#C82930;stroke-width:1.0;" width="6" x="334" y="1045.4453"/><text fill="#000000" font-family="sans-serif" font-size="14" lengthAdjust="spacing" textLength="146" x="346" y="1051.792">_setUpEvents() : void</text><rect fill="#F24D5C" height="6" style="stroke:#C82930;stroke-width:1.0;" width="6" x="334" y="1061.7422"/><text fill="#000000" font-family="sans-serif" font-size="14" lengthAdjust="spacing" textLength="210" x="346" y="1068.0889">_unsetTargetAttributes() : void</text></g><!--class AbstractChild<SectionIndexItemConfig, ISectionIndex>--><g id="elem_AbstractChild&lt;SectionIndexItemConfig, ISectionIndex&gt;"><rect codeLine="44" fill="#FFFFFF" height="390.2344" id="AbstractChild&lt;SectionIndexItemConfig, ISectionIndex&gt;" rx="2.5" ry="2.5" style="stroke:#272B30;stroke-width:0.5;" width="687" x="9" y="7"/><ellipse cx="156.25" cy="23" fill="#A9DCDF" rx="11" ry="11" style="stroke:#181818;stroke-width:1.0;"/><path d="M156.3594,18.3438 L155.2031,23.4219 L157.5313,23.4219 L156.3594,18.3438 Z M154.875,16.1094 L157.8594,16.1094 L161.2188,28.5 L158.7656,28.5 L158,25.4375 L154.7188,25.4375 L153.9688,28.5 L151.5313,28.5 L154.875,16.1094 Z " fill="#000000"/><text fill="#000000" font-family="sans-serif" font-size="14" font-style="italic" lengthAdjust="spacing" textLength="384" x="176.75" y="27.8467">AbstractChild&lt;SectionIndexItemConfig, ISectionIndex&gt;</text><line style="stroke:#272B30;stroke-width:0.5;" x1="10" x2="695" y1="39" y2="39"/><polygon fill="none" points="20,47.6484,24,51.6484,20,55.6484,16,51.6484" style="stroke:#B38D22;stroke-width:1.0;"/><text fill="#000000" font-family="sans-serif" font-size="14" lengthAdjust="spacing" textLength="180" x="29" y="55.9951">isProviderBased : boolean</text><rect fill="none" height="6" style="stroke:#C82930;stroke-width:1.0;" width="6" x="17" y="65.9453"/><text fill="#000000" font-family="sans-serif" font-size="14" lengthAdjust="spacing" textLength="150" x="29" y="72.292">_isFirstChild : boolean</text><rect fill="none" height="6" style="stroke:#C82930;stroke-width:1.0;" width="6" x="17" y="82.2422"/><text fill="#000000" font-family="sans-serif" font-size="14" lengthAdjust="spacing" textLength="149" x="29" y="88.5889">_isLastChild : boolean</text><rect fill="none" height="6" style="stroke:#C82930;stroke-width:1.0;" width="6" x="17" y="98.5391"/><text fill="#000000" font-family="sans-serif" font-size="14" lengthAdjust="spacing" textLength="116" x="29" y="104.8857">_parentId : string</text><rect fill="none" height="6" style="stroke:#C82930;stroke-width:1.0;" width="6" x="17" y="114.8359"/><text fill="#000000" font-family="sans-serif" font-size="14" lengthAdjust="spacing" textLength="202" x="29" y="121.1826">_parentObject : ISectionIndex</text><line style="stroke:#272B30;stroke-width:0.5;" x1="10" x2="695" y1="128.4844" y2="128.4844"/><ellipse cx="20" cy="142.1328" fill="#84BE84" rx="3" ry="3" style="stroke:#038048;stroke-width:1.0;"/><text fill="#000000" font-family="sans-serif" font-size="14" lengthAdjust="spacing" textLength="84" x="29" y="145.4795">build() : void</text><ellipse cx="20" cy="158.4297" fill="#84BE84" rx="3" ry="3" style="stroke:#038048;stroke-width:1.0;"/><text fill="#000000" font-family="sans-serif" font-size="14" lengthAdjust="spacing" textLength="484" x="29" y="161.7764">changeProperty(propertyName: string, propertyValue: unknown) : void</text><ellipse cx="20" cy="174.7266" fill="#84BE84" rx="3" ry="3" style="stroke:#038048;stroke-width:1.0;"/><text fill="#000000" font-family="sans-serif" font-size="14" lengthAdjust="spacing" textLength="106" x="29" y="178.0732">dispose() : void</text><ellipse cx="20" cy="191.0234" fill="#84BE84" rx="3" ry="3" style="stroke:#038048;stroke-width:1.0;"/><text fill="#000000" font-family="sans-serif" font-size="14" lengthAdjust="spacing" textLength="267" x="29" y="194.3701">equalsToID(patternId: string) : boolean</text><ellipse cx="20" cy="207.3203" fill="#84BE84" rx="3" ry="3" style="stroke:#038048;stroke-width:1.0;"/><text fill="#000000" font-family="sans-serif" font-size="14" lengthAdjust="spacing" textLength="434" x="29" y="210.667">registerCallback(eventName: string, callback: OSGeneric) : void</text><polygon fill="#FFFF44" points="20,218.6172,24,222.6172,20,226.6172,16,222.6172" style="stroke:#B38D22;stroke-width:1.0;"/><text fill="#000000" font-family="sans-serif" font-size="14" lengthAdjust="spacing" textLength="121" x="29" y="226.9639">finishBuild() : void</text><polygon fill="#FFFF44" points="20,234.9141,24,238.9141,20,242.9141,16,238.9141" style="stroke:#B38D22;stroke-width:1.0;"/><text fill="#000000" font-family="sans-serif" font-size="14" lengthAdjust="spacing" textLength="257" x="29" y="243.2607">notifyParent(actionType: string) : void</text><polygon fill="#FFFF44" points="20,251.2109,24,255.2109,20,259.2109,16,255.2109" style="stroke:#B38D22;stroke-width:1.0;"/><text fill="#000000" font-family="sans-serif" font-size="14" font-style="italic" lengthAdjust="spacing" textLength="179" x="29" y="259.5576">setA11YProperties() : void</text><polygon fill="#FFFF44" points="20,267.5078,24,271.5078,20,275.5078,16,271.5078" style="stroke:#B38D22;stroke-width:1.0;"/><text fill="#000000" font-family="sans-serif" font-size="14" font-style="italic" lengthAdjust="spacing" textLength="137" x="29" y="275.8545">setCallbacks() : void</text><polygon fill="#FFFF44" points="20,283.8047,24,287.8047,20,291.8047,16,287.8047" style="stroke:#B38D22;stroke-width:1.0;"/><text fill="#000000" font-family="sans-serif" font-size="14" font-style="italic" lengthAdjust="spacing" textLength="169" x="29" y="292.1514">setHtmlElements() : void</text><polygon fill="#FFFF44" points="20,300.1016,24,304.1016,20,308.1016,16,304.1016" style="stroke:#B38D22;stroke-width:1.0;"/><text fill="#000000" font-family="sans-serif" font-size="14" lengthAdjust="spacing" textLength="661" x="29" y="308.4482">setParentInfo(parentSelector: string, getPatternByIdAPI: Function, canBeOrphan: boolean) : void</text><polygon fill="#FFFF44" points="20,316.3984,24,320.3984,20,324.3984,16,320.3984" style="stroke:#B38D22;stroke-width:1.0;"/><text fill="#000000" font-family="sans-serif" font-size="14" lengthAdjust="spacing" textLength="569" x="29" y="324.7451">triggerPlatformEventCallback(platFormCallback: OSGeneric, args: unknown[]) : void</text><polygon fill="#FFFF44" points="20,332.6953,24,336.6953,20,340.6953,16,336.6953" style="stroke:#B38D22;stroke-width:1.0;"/><text fill="#000000" font-family="sans-serif" font-size="14" lengthAdjust="spacing" textLength="311" x="29" y="341.042">triggerPlatformInitializedEventCallback() : void</text><polygon fill="#FFFF44" points="20,348.9922,24,352.9922,20,356.9922,16,352.9922" style="stroke:#B38D22;stroke-width:1.0;"/><text fill="#000000" font-family="sans-serif" font-size="14" font-style="italic" lengthAdjust="spacing" textLength="155" x="29" y="357.3389">unsetCallbacks() : void</text><polygon fill="#FFFF44" points="20,365.2891,24,369.2891,20,373.2891,16,369.2891" style="stroke:#B38D22;stroke-width:1.0;"/><text fill="#000000" font-family="sans-serif" font-size="14" lengthAdjust="spacing" textLength="199" x="29" y="373.6357">unsetGlobalCallbacks() : void</text><polygon fill="#FFFF44" points="20,381.5859,24,385.5859,20,389.5859,16,385.5859" style="stroke:#B38D22;stroke-width:1.0;"/><text fill="#000000" font-family="sans-serif" font-size="14" font-style="italic" lengthAdjust="spacing" textLength="187" x="29" y="389.9326">unsetHtmlElements() : void</text></g><!--class ISectionIndexItem--><g id="elem_ISectionIndexItem"><rect codeLine="68" fill="#FFFFFF" height="325.0469" id="ISectionIndexItem" rx="2.5" ry="2.5" style="stroke:#272B30;stroke-width:0.5;" width="510" x="731.5" y="39.5"/><ellipse cx="919.25" cy="55.5" fill="#B4A7E5" rx="11" ry="11" style="stroke:#181818;stroke-width:1.0;"/><path d="M915.1719,51.2656 L915.1719,49.1094 L922.5625,49.1094 L922.5625,51.2656 L920.0938,51.2656 L920.0938,59.3438 L922.5625,59.3438 L922.5625,61.5 L915.1719,61.5 L915.1719,59.3438 L917.6406,59.3438 L917.6406,51.2656 L915.1719,51.2656 Z " fill="#000000"/><text fill="#000000" font-family="sans-serif" font-size="14" font-style="italic" lengthAdjust="spacing" textLength="126" x="939.75" y="60.3467">ISectionIndexItem</text><line style="stroke:#272B30;stroke-width:0.5;" x1="732.5" x2="1240.5" y1="71.5" y2="71.5"/><ellipse cx="742.5" cy="85.1484" fill="none" rx="3" ry="3" style="stroke:#038048;stroke-width:1.0;"/><text fill="#000000" font-family="sans-serif" font-size="14" lengthAdjust="spacing" textLength="110" x="751.5" y="88.4951">isBuilt : boolean</text><ellipse cx="742.5" cy="101.4453" fill="none" rx="3" ry="3" style="stroke:#038048;stroke-width:1.0;"/><text fill="#000000" font-family="sans-serif" font-size="14" lengthAdjust="spacing" textLength="141" x="751.5" y="104.792">IsSelected : boolean</text><ellipse cx="742.5" cy="117.7422" fill="none" rx="3" ry="3" style="stroke:#038048;stroke-width:1.0;"/><text fill="#000000" font-family="sans-serif" font-size="14" lengthAdjust="spacing" textLength="189" x="751.5" y="121.0889">selfElement : HTMLElement</text><ellipse cx="742.5" cy="134.0391" fill="none" rx="3" ry="3" style="stroke:#038048;stroke-width:1.0;"/><text fill="#000000" font-family="sans-serif" font-size="14" lengthAdjust="spacing" textLength="210" x="751.5" y="137.3857">TargetElement : HTMLElement</text><ellipse cx="742.5" cy="150.3359" fill="none" rx="3" ry="3" style="stroke:#038048;stroke-width:1.0;"/><text fill="#000000" font-family="sans-serif" font-size="14" lengthAdjust="spacing" textLength="112" x="751.5" y="153.6826">uniqueId : string</text><ellipse cx="742.5" cy="166.6328" fill="none" rx="3" ry="3" style="stroke:#038048;stroke-width:1.0;"/><text fill="#000000" font-family="sans-serif" font-size="14" lengthAdjust="spacing" textLength="110" x="751.5" y="169.9795">widgetId : string</text><line style="stroke:#272B30;stroke-width:0.5;" x1="732.5" x2="1240.5" y1="177.2813" y2="177.2813"/><ellipse cx="742.5" cy="190.9297" fill="#84BE84" rx="3" ry="3" style="stroke:#038048;stroke-width:1.0;"/><text fill="#000000" font-family="sans-serif" font-size="14" lengthAdjust="spacing" textLength="84" x="751.5" y="194.2764">build() : void</text><ellipse cx="742.5" cy="207.2266" fill="#84BE84" rx="3" ry="3" style="stroke:#038048;stroke-width:1.0;"/><text fill="#000000" font-family="sans-serif" font-size="14" lengthAdjust="spacing" textLength="484" x="751.5" y="210.5732">changeProperty(propertyName: string, propertyValue: unknown) : void</text><ellipse cx="742.5" cy="223.5234" fill="#84BE84" rx="3" ry="3" style="stroke:#038048;stroke-width:1.0;"/><text fill="#000000" font-family="sans-serif" font-size="14" lengthAdjust="spacing" textLength="106" x="751.5" y="226.8701">dispose() : void</text><ellipse cx="742.5" cy="239.8203" fill="#84BE84" rx="3" ry="3" style="stroke:#038048;stroke-width:1.0;"/><text fill="#000000" font-family="sans-serif" font-size="14" lengthAdjust="spacing" textLength="217" x="751.5" y="243.167">equalsToID(id: string) : boolean</text><ellipse cx="742.5" cy="256.1172" fill="#84BE84" rx="3" ry="3" style="stroke:#038048;stroke-width:1.0;"/><text fill="#000000" font-family="sans-serif" font-size="14" lengthAdjust="spacing" textLength="434" x="751.5" y="259.4639">registerCallback(eventName: string, callback: OSGeneric) : void</text><ellipse cx="742.5" cy="272.4141" fill="#84BE84" rx="3" ry="3" style="stroke:#038048;stroke-width:1.0;"/><text fill="#000000" font-family="sans-serif" font-size="14" lengthAdjust="spacing" textLength="100" x="751.5" y="275.7607">setBlur() : void</text><ellipse cx="742.5" cy="288.7109" fill="#84BE84" rx="3" ry="3" style="stroke:#038048;stroke-width:1.0;"/><text fill="#000000" font-family="sans-serif" font-size="14" lengthAdjust="spacing" textLength="115" x="751.5" y="292.0576">setFocus() : void</text><ellipse cx="742.5" cy="305.0078" fill="#84BE84" rx="3" ry="3" style="stroke:#038048;stroke-width:1.0;"/><text fill="#000000" font-family="sans-serif" font-size="14" lengthAdjust="spacing" textLength="125" x="751.5" y="308.3545">setIsActive() : void</text><ellipse cx="742.5" cy="321.3047" fill="#84BE84" rx="3" ry="3" style="stroke:#038048;stroke-width:1.0;"/><text fill="#000000" font-family="sans-serif" font-size="14" lengthAdjust="spacing" textLength="136" x="751.5" y="324.6514">setTabindex() : void</text><ellipse cx="742.5" cy="337.6016" fill="#84BE84" rx="3" ry="3" style="stroke:#038048;stroke-width:1.0;"/><text fill="#000000" font-family="sans-serif" font-size="14" lengthAdjust="spacing" textLength="143" x="751.5" y="340.9482">unsetIsActive() : void</text><ellipse cx="742.5" cy="353.8984" fill="#84BE84" rx="3" ry="3" style="stroke:#038048;stroke-width:1.0;"/><text fill="#000000" font-family="sans-serif" font-size="14" lengthAdjust="spacing" textLength="154" x="751.5" y="357.2451">unsetTabindex() : void</text></g><!--reverse link AbstractChild<SectionIndexItemConfig, ISectionIndex> to SectionIndexItem--><g id="link_AbstractChild&lt;SectionIndexItemConfig, ISectionIndex&gt;_SectionIndexItem"><path codeLine="67" d="M470.8805,412.8795 C481.7905,432.2295 484.21,436.51 495.58,456.66 " fill="none" id="AbstractChild&lt;SectionIndexItemConfig, ISectionIndex&gt;-backto-SectionIndexItem" style="stroke:#272B30;stroke-width:1.0;"/><polygon fill="none" points="462.04,397.2,465.654,415.8263,476.107,409.9327,462.04,397.2" style="stroke:#272B30;stroke-width:1.0;"/></g><!--reverse link ISectionIndexItem to SectionIndexItem--><g id="link_ISectionIndexItem_SectionIndexItem"><path codeLine="87" d="M886.3943,380.4765 C869.9743,409.5765 861.22,425.1 843.36,456.76 " fill="none" id="ISectionIndexItem-backto-SectionIndexItem" style="stroke:#272B30;stroke-width:1.0;stroke-dasharray:7.0,7.0;"/><polygon fill="none" points="895.24,364.8,881.1688,377.528,891.6198,383.4251,895.24,364.8" style="stroke:#272B30;stroke-width:1.0;"/></g><!--SRC=[xLRRRXen47tdAwpmiX4XQj9AbL1K2MWkgwO52Lgfggh8kvu55w-ziRsaDCc_T_O2OMyalQaFBG-mE-TuPdncFDWik8oefY4P2cfCNsjrCrH2QT8-VddiFN_MCaN6G6a6UZU5-ekPLh5aEIq8WYrE1VQ1lM2qDUSC28IHNP4Gx5mnisqAE0Yq-4a0iZS1tt8bNSdWgsiXt2EtBOAVDZTZhPQuJ0-e0KPwn5DA09KftBs29KWxaaF1_GM2vo11Sxy8Bc0rK5IpiGQCrK2Q-1eW-LP2L3ZSz36_9LJ2XvJdQuPAMdm1VIeWH8z8lPY-lSpVShgbUWQscT7nOYwOiu_GKd6MsVmvbJD06IBGTkL4-SCx6aAF6Akvd1sGjVK35J6QOxcGwaOM7J5k8cMWv1wkOohCLBcldOXQ2rgwRErtlxJXZeOPDyWPKY4yhBkJgbTCnS-n7XbDSXcB4GrODnVKgI3JLA9CqxVupAKJfZ_h0EIEo3ZqG1UNnhBHRJlWaflveAfjMohBWzMOQjo5GzCUdAuYsDx_0na3z8-EFkQLu62S2hxMfGQwiA78Qrs3PYcuCb1OXUHn0WBFXD8FkiuILbgWmSfb_R7R8sUnJ7DEH9S36Ea8UsLJic8Gz3ARWHuBQWEbmzEaS9ioHcWzG-kmMhi3WlARJKjz-hpJhIkvvLJmRy2A4OghqcerYPM2vq9vLEoaD2lQlLBo3QoypQa7bdLgZwpDQNQLHTjJeEeogyc3hpeV6aArX1If98KvNtAvw5iKpOijrE1P-syOff6IRxm6Vn_LHqyrQ_P_tw8UjXeU0f8FvNx-FfpZmJafZsWSU077jdItWLTF7jpSd75jCjyru2LjmhBZuIP0TZ8Azf7t1TD1h93MlpDSVzEikrttmlsZOwz4RJYn9TR_OLWlpI_EnOghUftlMpzvja_kkjsQorgBIwn4G7qWUsxJLQx3JTALjjprhbcFrJ9YG0GxxahJnovJiUJNCPGdHUU6CrnNCV_TwS3__9rh869TlM-TAJyspWzTq3oUrDPvylsha__pbDTX6zPqoydTuM5DZtq7]--></g></svg>