<?xml version="1.0" encoding="us-ascii" standalone="no"?><svg xmlns="http://www.w3.org/2000/svg" xmlns:xlink="http://www.w3.org/1999/xlink" contentStyleType="text/css" height="1422px" preserveAspectRatio="none" style="width:1979px;height:1422px;background:#CED4DA;" version="1.1" viewBox="0 0 1979 1422" width="1979px" zoomAndPan="magnify"><defs/><g><rect fill="#CED4DA" height="1422" style="stroke:none;stroke-width:1.0;" width="1979" x="0" y="0"/><!--class Sidebar--><g id="elem_Sidebar"><rect codeLine="7" fill="#FFFFFF" height="921.8789" id="Sidebar" rx="2.5" ry="2.5" style="stroke:#272B30;stroke-width:0.5;" width="968" x="410" y="494"/><ellipse cx="863.75" cy="510" fill="#ADD1B2" rx="11" ry="11" style="stroke:#181818;stroke-width:1.0;"/><path d="M866.2231,516.1431 Q865.6421,516.4419 865.0029,516.5913 Q864.3638,516.7407 863.6582,516.7407 Q861.1514,516.7407 859.8315,515.0889 Q858.5117,513.437 858.5117,510.3159 Q858.5117,507.1865 859.8315,505.5347 Q861.1514,503.8828 863.6582,503.8828 Q864.3638,503.8828 865.0112,504.0322 Q865.6587,504.1816 866.2231,504.4805 L866.2231,507.2031 Q865.5923,506.6221 864.9988,506.3523 Q864.4053,506.0825 863.7744,506.0825 Q862.4297,506.0825 861.7449,507.1492 Q861.0601,508.2158 861.0601,510.3159 Q861.0601,512.4077 861.7449,513.4744 Q862.4297,514.541 863.7744,514.541 Q864.4053,514.541 864.9988,514.2712 Q865.5923,514.0015 866.2231,513.4204 Z " fill="#000000"/><text fill="#000000" font-family="sans-serif" font-size="14" lengthAdjust="spacing" textLength="52" x="884.25" y="515.291">Sidebar</text><line style="stroke:#272B30;stroke-width:0.5;" x1="411" x2="1377" y1="526" y2="526"/><polygon fill="none" points="421,534.7441,425,538.7441,421,542.7441,417,538.7441" style="stroke:#B38D22;stroke-width:1.0;"/><text fill="#000000" font-family="sans-serif" font-size="14" lengthAdjust="spacing" textLength="176" x="430" y="543.5352">isProviderBased : boolean</text><rect fill="none" height="6" style="stroke:#C82930;stroke-width:1.0;" width="6" x="418" y="553.2324"/><text fill="#000000" font-family="sans-serif" font-size="14" lengthAdjust="spacing" textLength="294" x="430" y="560.0234">_animateOnDragInstance : AnimateOnDrag</text><rect fill="none" height="6" style="stroke:#C82930;stroke-width:1.0;" width="6" x="418" y="569.7207"/><text fill="#000000" font-family="sans-serif" font-size="14" lengthAdjust="spacing" textLength="230" x="430" y="576.5117">_clickedOutsideElement : boolean</text><rect fill="none" height="6" style="stroke:#C82930;stroke-width:1.0;" width="6" x="418" y="586.209"/><text fill="#000000" font-family="sans-serif" font-size="14" lengthAdjust="spacing" textLength="214" x="430" y="593">_clickOutsideToClose : boolean</text><rect fill="none" height="6" style="stroke:#C82930;stroke-width:1.0;" width="6" x="418" y="602.6973"/><text fill="#000000" font-family="sans-serif" font-size="14" lengthAdjust="spacing" textLength="231" x="430" y="609.4883">_currentDirectionCssClass : string</text><rect fill="none" height="6" style="stroke:#C82930;stroke-width:1.0;" width="6" x="418" y="619.1855"/><text fill="#000000" font-family="sans-serif" font-size="14" lengthAdjust="spacing" textLength="192" x="430" y="625.9766">_eventOverlayClick : Generic</text><rect fill="none" height="6" style="stroke:#C82930;stroke-width:1.0;" width="6" x="418" y="635.6738"/><text fill="#000000" font-family="sans-serif" font-size="14" lengthAdjust="spacing" textLength="243" x="430" y="642.4648">_eventOverlayMouseDown : Generic</text><rect fill="none" height="6" style="stroke:#C82930;stroke-width:1.0;" width="6" x="418" y="652.1621"/><text fill="#000000" font-family="sans-serif" font-size="14" lengthAdjust="spacing" textLength="221" x="430" y="658.9531">_eventSidebarKeypress : Generic</text><rect fill="none" height="6" style="stroke:#C82930;stroke-width:1.0;" width="6" x="418" y="668.6504"/><text fill="#000000" font-family="sans-serif" font-size="14" lengthAdjust="spacing" textLength="273" x="430" y="675.4414">_focusManagerInstance : FocusManager</text><rect fill="none" height="6" style="stroke:#C82930;stroke-width:1.0;" width="6" x="418" y="685.1387"/><text fill="#000000" font-family="sans-serif" font-size="14" lengthAdjust="spacing" textLength="217" x="430" y="691.9297">_focusTrapInstance : FocusTrap</text><rect fill="none" height="6" style="stroke:#C82930;stroke-width:1.0;" width="6" x="418" y="701.627"/><text fill="#000000" font-family="sans-serif" font-size="14" lengthAdjust="spacing" textLength="235" x="430" y="708.418">_gestureEventInstance : DragEvent</text><rect fill="none" height="6" style="stroke:#C82930;stroke-width:1.0;" width="6" x="418" y="718.1152"/><text fill="#000000" font-family="sans-serif" font-size="14" lengthAdjust="spacing" textLength="196" x="430" y="724.9063">_hasGestureEvents : boolean</text><rect fill="none" height="6" style="stroke:#C82930;stroke-width:1.0;" width="6" x="418" y="734.6035"/><text fill="#000000" font-family="sans-serif" font-size="14" lengthAdjust="spacing" textLength="123" x="430" y="741.3945">_isOpen : boolean</text><rect fill="none" height="6" style="stroke:#C82930;stroke-width:1.0;" width="6" x="418" y="751.0918"/><text fill="#000000" font-family="sans-serif" font-size="14" lengthAdjust="spacing" textLength="182" x="430" y="757.8828">_parentSelf : HTMLElement</text><rect fill="none" height="6" style="stroke:#C82930;stroke-width:1.0;" width="6" x="418" y="767.5801"/><text fill="#000000" font-family="sans-serif" font-size="14" lengthAdjust="spacing" textLength="307" x="430" y="774.3711">_platformEventOnToggle : OSOnToggleEvent</text><line style="stroke:#272B30;stroke-width:0.5;" x1="411" x2="1377" y1="781.3242" y2="781.3242"/><ellipse cx="421" cy="795.0684" fill="#84BE84" rx="3" ry="3" style="stroke:#038048;stroke-width:1.0;"/><text fill="#000000" font-family="sans-serif" font-size="14" lengthAdjust="spacing" textLength="86" x="430" y="798.8594">build() : void</text><ellipse cx="421" cy="811.5566" fill="#84BE84" rx="3" ry="3" style="stroke:#038048;stroke-width:1.0;"/><text fill="#000000" font-family="sans-serif" font-size="14" lengthAdjust="spacing" textLength="482" x="430" y="815.3477">changeProperty(propertyName: string, propertyValue: unknown) : void</text><ellipse cx="421" cy="828.0449" fill="#84BE84" rx="3" ry="3" style="stroke:#038048;stroke-width:1.0;"/><text fill="#000000" font-family="sans-serif" font-size="14" lengthAdjust="spacing" textLength="396" x="430" y="831.8359">clickOutsideToClose(closeOnOutSideClick: boolean) : void</text><ellipse cx="421" cy="844.5332" fill="#84BE84" rx="3" ry="3" style="stroke:#038048;stroke-width:1.0;"/><text fill="#000000" font-family="sans-serif" font-size="14" lengthAdjust="spacing" textLength="86" x="430" y="848.3242">close() : void</text><ellipse cx="421" cy="861.0215" fill="#84BE84" rx="3" ry="3" style="stroke:#038048;stroke-width:1.0;"/><text fill="#000000" font-family="sans-serif" font-size="14" lengthAdjust="spacing" textLength="104" x="430" y="864.8125">dispose() : void</text><ellipse cx="421" cy="877.5098" fill="#84BE84" rx="3" ry="3" style="stroke:#038048;stroke-width:1.0;"/><text fill="#000000" font-family="sans-serif" font-size="14" lengthAdjust="spacing" textLength="266" x="430" y="881.3008">equalsToID(patternId: string) : boolean</text><ellipse cx="421" cy="893.998" fill="#84BE84" rx="3" ry="3" style="stroke:#038048;stroke-width:1.0;"/><text fill="#000000" font-family="sans-serif" font-size="14" lengthAdjust="spacing" textLength="86" x="430" y="897.7891">open() : void</text><ellipse cx="421" cy="910.4863" fill="#84BE84" rx="3" ry="3" style="stroke:#038048;stroke-width:1.0;"/><text fill="#000000" font-family="sans-serif" font-size="14" lengthAdjust="spacing" textLength="428" x="430" y="914.2773">registerCallback(eventName: string, callback: OSGeneric) : void</text><ellipse cx="421" cy="926.9746" fill="#84BE84" rx="3" ry="3" style="stroke:#038048;stroke-width:1.0;"/><text fill="#000000" font-family="sans-serif" font-size="14" lengthAdjust="spacing" textLength="199" x="430" y="930.7656">removeGestureEvents() : void</text><ellipse cx="421" cy="943.4629" fill="#84BE84" rx="3" ry="3" style="stroke:#038048;stroke-width:1.0;"/><text fill="#000000" font-family="sans-serif" font-size="14" lengthAdjust="spacing" textLength="305" x="430" y="947.2539">toggleGestures(enableSwipe: boolean) : void</text><polygon fill="#FFFF44" points="421,954.9512,425,958.9512,421,962.9512,417,958.9512" style="stroke:#B38D22;stroke-width:1.0;"/><text fill="#000000" font-family="sans-serif" font-size="14" lengthAdjust="spacing" textLength="123" x="430" y="963.7422">finishBuild() : void</text><polygon fill="#FFFF44" points="421,971.4395,425,975.4395,421,979.4395,417,975.4395" style="stroke:#B38D22;stroke-width:1.0;"/><text fill="#000000" font-family="sans-serif" font-size="14" lengthAdjust="spacing" textLength="178" x="430" y="980.2305">setA11YProperties() : void</text><polygon fill="#FFFF44" points="421,987.9277,425,991.9277,421,995.9277,417,991.9277" style="stroke:#B38D22;stroke-width:1.0;"/><text fill="#000000" font-family="sans-serif" font-size="14" lengthAdjust="spacing" textLength="136" x="430" y="996.7188">setCallbacks() : void</text><polygon fill="#FFFF44" points="421,1004.416,425,1008.416,421,1012.416,417,1008.416" style="stroke:#B38D22;stroke-width:1.0;"/><text fill="#000000" font-family="sans-serif" font-size="14" lengthAdjust="spacing" textLength="942" x="430" y="1013.207">setGestureEvents(onGestureStartCallback: GestureStart, onGestureMoveCallback: GestureMove, onGestureEndCallback: GestureEnd) : void</text><polygon fill="#FFFF44" points="421,1020.9043,425,1024.9043,421,1028.9043,417,1024.9043" style="stroke:#B38D22;stroke-width:1.0;"/><text fill="#000000" font-family="sans-serif" font-size="14" lengthAdjust="spacing" textLength="165" x="430" y="1029.6953">setHtmlElements() : void</text><polygon fill="#FFFF44" points="421,1037.3926,425,1041.3926,421,1045.3926,417,1041.3926" style="stroke:#B38D22;stroke-width:1.0;"/><text fill="#000000" font-family="sans-serif" font-size="14" lengthAdjust="spacing" textLength="570" x="430" y="1046.1836">triggerPlatformEventCallback(platFormCallback: OSGeneric, args: unknown[]) : void</text><polygon fill="#FFFF44" points="421,1053.8809,425,1057.8809,421,1061.8809,417,1057.8809" style="stroke:#B38D22;stroke-width:1.0;"/><text fill="#000000" font-family="sans-serif" font-size="14" lengthAdjust="spacing" textLength="318" x="430" y="1062.6719">triggerPlatformInitializedEventCallback() : void</text><polygon fill="#FFFF44" points="421,1070.3691,425,1074.3691,421,1078.3691,417,1074.3691" style="stroke:#B38D22;stroke-width:1.0;"/><text fill="#000000" font-family="sans-serif" font-size="14" lengthAdjust="spacing" textLength="154" x="430" y="1079.1602">unsetCallbacks() : void</text><polygon fill="#FFFF44" points="421,1086.8574,425,1090.8574,421,1094.8574,417,1090.8574" style="stroke:#B38D22;stroke-width:1.0;"/><text fill="#000000" font-family="sans-serif" font-size="14" lengthAdjust="spacing" textLength="198" x="430" y="1095.6484">unsetGlobalCallbacks() : void</text><polygon fill="#FFFF44" points="421,1103.3457,425,1107.3457,421,1111.3457,417,1107.3457" style="stroke:#B38D22;stroke-width:1.0;"/><text fill="#000000" font-family="sans-serif" font-size="14" lengthAdjust="spacing" textLength="183" x="430" y="1112.1367">unsetHtmlElements() : void</text><rect fill="#F24D5C" height="6" style="stroke:#C82930;stroke-width:1.0;" width="6" x="418" y="1121.834"/><text fill="#000000" font-family="sans-serif" font-size="14" lengthAdjust="spacing" textLength="145" x="430" y="1128.625">_closeSidebar() : void</text><rect fill="#F24D5C" height="6" style="stroke:#C82930;stroke-width:1.0;" width="6" x="418" y="1138.3223"/><text fill="#000000" font-family="sans-serif" font-size="14" lengthAdjust="spacing" textLength="204" x="430" y="1145.1133">_handleFocusBehavior() : void</text><rect fill="#F24D5C" height="6" style="stroke:#C82930;stroke-width:1.0;" width="6" x="418" y="1154.8105"/><text fill="#000000" font-family="sans-serif" font-size="14" lengthAdjust="spacing" textLength="202" x="430" y="1161.6016">_handleGestureEvents() : void</text><rect fill="#F24D5C" height="6" style="stroke:#C82930;stroke-width:1.0;" width="6" x="418" y="1171.2988"/><text fill="#000000" font-family="sans-serif" font-size="14" lengthAdjust="spacing" textLength="525" x="430" y="1178.0898">_onGestureEnd(offsetX: number, offsetY: number, timeTaken: number) : void</text><rect fill="#F24D5C" height="6" style="stroke:#C82930;stroke-width:1.0;" width="6" x="418" y="1187.7871"/><text fill="#000000" font-family="sans-serif" font-size="14" lengthAdjust="spacing" textLength="665" x="430" y="1194.5781">_onGestureMove(x: number, y: number, offsetX: number, offsetY: number, evt: TouchEvent) : void</text><rect fill="#F24D5C" height="6" style="stroke:#C82930;stroke-width:1.0;" width="6" x="418" y="1204.2754"/><text fill="#000000" font-family="sans-serif" font-size="14" lengthAdjust="spacing" textLength="309" x="430" y="1211.0664">_onGestureStart(x: number, y: number) : void</text><rect fill="#F24D5C" height="6" style="stroke:#C82930;stroke-width:1.0;" width="6" x="418" y="1220.7637"/><text fill="#000000" font-family="sans-serif" font-size="14" lengthAdjust="spacing" textLength="145" x="430" y="1227.5547">_openSidebar() : void</text><rect fill="#F24D5C" height="6" style="stroke:#C82930;stroke-width:1.0;" width="6" x="418" y="1237.252"/><text fill="#000000" font-family="sans-serif" font-size="14" lengthAdjust="spacing" textLength="389" x="430" y="1244.043">_overlayClickCallback(_args: string, e: MouseEvent) : void</text><rect fill="#F24D5C" height="6" style="stroke:#C82930;stroke-width:1.0;" width="6" x="418" y="1253.7402"/><text fill="#000000" font-family="sans-serif" font-size="14" lengthAdjust="spacing" textLength="440" x="430" y="1260.5313">_overlayMouseDownCallback(_args: string, e: MouseEvent) : void</text><rect fill="#F24D5C" height="6" style="stroke:#C82930;stroke-width:1.0;" width="6" x="418" y="1270.2285"/><text fill="#000000" font-family="sans-serif" font-size="14" lengthAdjust="spacing" textLength="153" x="430" y="1277.0195">_removeEvents() : void</text><rect fill="#F24D5C" height="6" style="stroke:#C82930;stroke-width:1.0;" width="6" x="418" y="1286.7168"/><text fill="#000000" font-family="sans-serif" font-size="14" lengthAdjust="spacing" textLength="140" x="430" y="1293.5078">_setDirection() : void</text><rect fill="#F24D5C" height="6" style="stroke:#C82930;stroke-width:1.0;" width="6" x="418" y="1303.2051"/><text fill="#000000" font-family="sans-serif" font-size="14" lengthAdjust="spacing" textLength="154" x="430" y="1309.9961">_setHasOverlay() : void</text><rect fill="#F24D5C" height="6" style="stroke:#C82930;stroke-width:1.0;" width="6" x="418" y="1319.6934"/><text fill="#000000" font-family="sans-serif" font-size="14" lengthAdjust="spacing" textLength="191" x="430" y="1326.4844">_setInitialCssClasses() : void</text><rect fill="#F24D5C" height="6" style="stroke:#C82930;stroke-width:1.0;" width="6" x="418" y="1336.1816"/><text fill="#000000" font-family="sans-serif" font-size="14" lengthAdjust="spacing" textLength="117" x="430" y="1342.9727">_setWidth() : void</text><rect fill="#F24D5C" height="6" style="stroke:#C82930;stroke-width:1.0;" width="6" x="418" y="1352.6699"/><text fill="#000000" font-family="sans-serif" font-size="14" lengthAdjust="spacing" textLength="346" x="430" y="1359.4609">_sidebarKeypressCallback(e: KeyboardEvent) : void</text><rect fill="#F24D5C" height="6" style="stroke:#C82930;stroke-width:1.0;" width="6" x="418" y="1369.1582"/><text fill="#000000" font-family="sans-serif" font-size="14" lengthAdjust="spacing" textLength="102" x="430" y="1375.9492">_toggle() : void</text><rect fill="#F24D5C" height="6" style="stroke:#C82930;stroke-width:1.0;" width="6" x="418" y="1385.6465"/><text fill="#000000" font-family="sans-serif" font-size="14" lengthAdjust="spacing" textLength="371" x="430" y="1392.4375">_toggleGesturesSidebar(enableSwipes: boolean) : void</text><rect fill="#F24D5C" height="6" style="stroke:#C82930;stroke-width:1.0;" width="6" x="418" y="1402.1348"/><text fill="#000000" font-family="sans-serif" font-size="14" lengthAdjust="spacing" textLength="210" x="430" y="1408.9258">_triggerOnToggleEvent() : void</text></g><!--class AbstractPattern<SidebarConfig>--><g id="elem_AbstractPattern&lt;SidebarConfig&gt;"><rect codeLine="62" fill="#FFFFFF" height="427.2305" id="AbstractPattern&lt;SidebarConfig&gt;" rx="2.5" ry="2.5" style="stroke:#272B30;stroke-width:0.5;" width="596" x="9" y="7"/><ellipse cx="189.75" cy="23" fill="#A9DCDF" rx="11" ry="11" style="stroke:#181818;stroke-width:1.0;"/><path d="M189.6133,18.3481 L188.4595,23.4199 L190.7754,23.4199 Z M188.1191,16.1069 L191.1157,16.1069 L194.4609,28.5 L192.0122,28.5 L191.2485,25.437 L187.9697,25.437 L187.2227,28.5 L184.7739,28.5 Z " fill="#000000"/><text fill="#000000" font-family="sans-serif" font-size="14" font-style="italic" lengthAdjust="spacing" textLength="226" x="210.25" y="28.291">AbstractPattern&lt;SidebarConfig&gt;</text><line style="stroke:#272B30;stroke-width:0.5;" x1="10" x2="604" y1="39" y2="39"/><polygon fill="none" points="20,47.7441,24,51.7441,20,55.7441,16,51.7441" style="stroke:#B38D22;stroke-width:1.0;"/><text fill="#000000" font-family="sans-serif" font-size="14" lengthAdjust="spacing" textLength="176" x="29" y="56.5352">isProviderBased : boolean</text><rect fill="none" height="6" style="stroke:#C82930;stroke-width:1.0;" width="6" x="17" y="66.2324"/><text fill="#000000" font-family="sans-serif" font-size="14" lengthAdjust="spacing" textLength="167" x="29" y="73.0234">_configs : SidebarConfig</text><rect fill="none" height="6" style="stroke:#C82930;stroke-width:1.0;" width="6" x="17" y="82.7207"/><text fill="#000000" font-family="sans-serif" font-size="14" lengthAdjust="spacing" textLength="116" x="29" y="89.5117">_isBuilt : boolean</text><rect fill="none" height="6" style="stroke:#C82930;stroke-width:1.0;" width="6" x="17" y="99.209"/><text fill="#000000" font-family="sans-serif" font-size="14" lengthAdjust="spacing" textLength="253" x="29" y="106">_platformEventInitialized : OSGeneric</text><rect fill="none" height="6" style="stroke:#C82930;stroke-width:1.0;" width="6" x="17" y="115.6973"/><text fill="#000000" font-family="sans-serif" font-size="14" lengthAdjust="spacing" textLength="169" x="29" y="122.4883">_selfElem : HTMLElement</text><rect fill="none" height="6" style="stroke:#C82930;stroke-width:1.0;" width="6" x="17" y="132.1855"/><text fill="#000000" font-family="sans-serif" font-size="14" lengthAdjust="spacing" textLength="120" x="29" y="138.9766">_uniqueId : string</text><rect fill="none" height="6" style="stroke:#C82930;stroke-width:1.0;" width="6" x="17" y="148.6738"/><text fill="#000000" font-family="sans-serif" font-size="14" lengthAdjust="spacing" textLength="118" x="29" y="155.4648">_widgetId : string</text><line style="stroke:#272B30;stroke-width:0.5;" x1="10" x2="604" y1="162.418" y2="162.418"/><ellipse cx="20" cy="176.1621" fill="#84BE84" rx="3" ry="3" style="stroke:#038048;stroke-width:1.0;"/><text fill="#000000" font-family="sans-serif" font-size="14" lengthAdjust="spacing" textLength="86" x="29" y="179.9531">build() : void</text><ellipse cx="20" cy="192.6504" fill="#84BE84" rx="3" ry="3" style="stroke:#038048;stroke-width:1.0;"/><text fill="#000000" font-family="sans-serif" font-size="14" lengthAdjust="spacing" textLength="482" x="29" y="196.4414">changeProperty(propertyName: string, propertyValue: unknown) : void</text><ellipse cx="20" cy="209.1387" fill="#84BE84" rx="3" ry="3" style="stroke:#038048;stroke-width:1.0;"/><text fill="#000000" font-family="sans-serif" font-size="14" lengthAdjust="spacing" textLength="104" x="29" y="212.9297">dispose() : void</text><ellipse cx="20" cy="225.627" fill="#84BE84" rx="3" ry="3" style="stroke:#038048;stroke-width:1.0;"/><text fill="#000000" font-family="sans-serif" font-size="14" lengthAdjust="spacing" textLength="266" x="29" y="229.418">equalsToID(patternId: string) : boolean</text><ellipse cx="20" cy="242.1152" fill="#84BE84" rx="3" ry="3" style="stroke:#038048;stroke-width:1.0;"/><text fill="#000000" font-family="sans-serif" font-size="14" lengthAdjust="spacing" textLength="428" x="29" y="245.9063">registerCallback(eventName: string, callback: OSGeneric) : void</text><polygon fill="#FFFF44" points="20,253.6035,24,257.6035,20,261.6035,16,257.6035" style="stroke:#B38D22;stroke-width:1.0;"/><text fill="#000000" font-family="sans-serif" font-size="14" lengthAdjust="spacing" textLength="123" x="29" y="262.3945">finishBuild() : void</text><polygon fill="#FFFF44" points="20,270.0918,24,274.0918,20,278.0918,16,274.0918" style="stroke:#B38D22;stroke-width:1.0;"/><text fill="#000000" font-family="sans-serif" font-size="14" font-style="italic" lengthAdjust="spacing" textLength="178" x="29" y="278.8828">setA11YProperties() : void</text><polygon fill="#FFFF44" points="20,286.5801,24,290.5801,20,294.5801,16,290.5801" style="stroke:#B38D22;stroke-width:1.0;"/><text fill="#000000" font-family="sans-serif" font-size="14" font-style="italic" lengthAdjust="spacing" textLength="136" x="29" y="295.3711">setCallbacks() : void</text><polygon fill="#FFFF44" points="20,303.0684,24,307.0684,20,311.0684,16,307.0684" style="stroke:#B38D22;stroke-width:1.0;"/><text fill="#000000" font-family="sans-serif" font-size="14" font-style="italic" lengthAdjust="spacing" textLength="165" x="29" y="311.8594">setHtmlElements() : void</text><polygon fill="#FFFF44" points="20,319.5566,24,323.5566,20,327.5566,16,323.5566" style="stroke:#B38D22;stroke-width:1.0;"/><text fill="#000000" font-family="sans-serif" font-size="14" lengthAdjust="spacing" textLength="570" x="29" y="328.3477">triggerPlatformEventCallback(platFormCallback: OSGeneric, args: unknown[]) : void</text><polygon fill="#FFFF44" points="20,336.0449,24,340.0449,20,344.0449,16,340.0449" style="stroke:#B38D22;stroke-width:1.0;"/><text fill="#000000" font-family="sans-serif" font-size="14" lengthAdjust="spacing" textLength="318" x="29" y="344.8359">triggerPlatformInitializedEventCallback() : void</text><polygon fill="#FFFF44" points="20,352.5332,24,356.5332,20,360.5332,16,356.5332" style="stroke:#B38D22;stroke-width:1.0;"/><text fill="#000000" font-family="sans-serif" font-size="14" font-style="italic" lengthAdjust="spacing" textLength="154" x="29" y="361.3242">unsetCallbacks() : void</text><polygon fill="#FFFF44" points="20,369.0215,24,373.0215,20,377.0215,16,373.0215" style="stroke:#B38D22;stroke-width:1.0;"/><text fill="#000000" font-family="sans-serif" font-size="14" lengthAdjust="spacing" textLength="198" x="29" y="377.8125">unsetGlobalCallbacks() : void</text><polygon fill="#FFFF44" points="20,385.5098,24,389.5098,20,393.5098,16,389.5098" style="stroke:#B38D22;stroke-width:1.0;"/><text fill="#000000" font-family="sans-serif" font-size="14" font-style="italic" lengthAdjust="spacing" textLength="183" x="29" y="394.3008">unsetHtmlElements() : void</text><rect fill="#F24D5C" height="6" style="stroke:#C82930;stroke-width:1.0;" width="6" x="17" y="403.998"/><text fill="#000000" font-family="sans-serif" font-size="14" lengthAdjust="spacing" textLength="235" x="29" y="410.7891">_setCommonHtmlElements() : void</text><rect fill="#F24D5C" height="6" style="stroke:#C82930;stroke-width:1.0;" width="6" x="17" y="420.4863"/><text fill="#000000" font-family="sans-serif" font-size="14" lengthAdjust="spacing" textLength="253" x="29" y="427.2773">_unsetCommonHtmlElements() : void</text></g><!--class ISidebar--><g id="elem_ISidebar"><rect codeLine="88" fill="#FFFFFF" height="278.8359" id="ISidebar" rx="2.5" ry="2.5" style="stroke:#272B30;stroke-width:0.5;" width="508" x="640" y="81"/><ellipse cx="861.75" cy="97" fill="#B4A7E5" rx="11" ry="11" style="stroke:#181818;stroke-width:1.0;"/><path d="M858.1777,93.2651 L858.1777,91.1069 L865.5571,91.1069 L865.5571,93.2651 L863.0918,93.2651 L863.0918,101.3418 L865.5571,101.3418 L865.5571,103.5 L858.1777,103.5 L858.1777,101.3418 L860.6431,101.3418 L860.6431,93.2651 Z " fill="#000000"/><text fill="#000000" font-family="sans-serif" font-size="14" font-style="italic" lengthAdjust="spacing" textLength="56" x="882.25" y="102.291">ISidebar</text><line style="stroke:#272B30;stroke-width:0.5;" x1="641" x2="1147" y1="113" y2="113"/><ellipse cx="651" cy="126.7441" fill="none" rx="3" ry="3" style="stroke:#038048;stroke-width:1.0;"/><text fill="#000000" font-family="sans-serif" font-size="14" lengthAdjust="spacing" textLength="109" x="660" y="130.5352">isBuilt : boolean</text><ellipse cx="651" cy="143.2324" fill="none" rx="3" ry="3" style="stroke:#038048;stroke-width:1.0;"/><text fill="#000000" font-family="sans-serif" font-size="14" lengthAdjust="spacing" textLength="116" x="660" y="147.0234">isOpen : boolean</text><ellipse cx="651" cy="159.7207" fill="none" rx="3" ry="3" style="stroke:#038048;stroke-width:1.0;"/><text fill="#000000" font-family="sans-serif" font-size="14" lengthAdjust="spacing" textLength="184" x="660" y="163.5117">selfElement : HTMLElement</text><ellipse cx="651" cy="176.209" fill="none" rx="3" ry="3" style="stroke:#038048;stroke-width:1.0;"/><text fill="#000000" font-family="sans-serif" font-size="14" lengthAdjust="spacing" textLength="113" x="660" y="180">uniqueId : string</text><ellipse cx="651" cy="192.6973" fill="none" rx="3" ry="3" style="stroke:#038048;stroke-width:1.0;"/><text fill="#000000" font-family="sans-serif" font-size="14" lengthAdjust="spacing" textLength="111" x="660" y="196.4883">widgetId : string</text><line style="stroke:#272B30;stroke-width:0.5;" x1="641" x2="1147" y1="203.4414" y2="203.4414"/><ellipse cx="651" cy="217.1855" fill="#84BE84" rx="3" ry="3" style="stroke:#038048;stroke-width:1.0;"/><text fill="#000000" font-family="sans-serif" font-size="14" lengthAdjust="spacing" textLength="86" x="660" y="220.9766">build() : void</text><ellipse cx="651" cy="233.6738" fill="#84BE84" rx="3" ry="3" style="stroke:#038048;stroke-width:1.0;"/><text fill="#000000" font-family="sans-serif" font-size="14" lengthAdjust="spacing" textLength="482" x="660" y="237.4648">changeProperty(propertyName: string, propertyValue: unknown) : void</text><ellipse cx="651" cy="250.1621" fill="#84BE84" rx="3" ry="3" style="stroke:#038048;stroke-width:1.0;"/><text fill="#000000" font-family="sans-serif" font-size="14" lengthAdjust="spacing" textLength="396" x="660" y="253.9531">clickOutsideToClose(closeOnOutSIdeClick: boolean) : void</text><ellipse cx="651" cy="266.6504" fill="#84BE84" rx="3" ry="3" style="stroke:#038048;stroke-width:1.0;"/><text fill="#000000" font-family="sans-serif" font-size="14" lengthAdjust="spacing" textLength="86" x="660" y="270.4414">close() : void</text><ellipse cx="651" cy="283.1387" fill="#84BE84" rx="3" ry="3" style="stroke:#038048;stroke-width:1.0;"/><text fill="#000000" font-family="sans-serif" font-size="14" lengthAdjust="spacing" textLength="104" x="660" y="286.9297">dispose() : void</text><ellipse cx="651" cy="299.627" fill="#84BE84" rx="3" ry="3" style="stroke:#038048;stroke-width:1.0;"/><text fill="#000000" font-family="sans-serif" font-size="14" lengthAdjust="spacing" textLength="216" x="660" y="303.418">equalsToID(id: string) : boolean</text><ellipse cx="651" cy="316.1152" fill="#84BE84" rx="3" ry="3" style="stroke:#038048;stroke-width:1.0;"/><text fill="#000000" font-family="sans-serif" font-size="14" lengthAdjust="spacing" textLength="253" x="660" y="319.9063">open(isOpenedByApi: boolean) : void</text><ellipse cx="651" cy="332.6035" fill="#84BE84" rx="3" ry="3" style="stroke:#038048;stroke-width:1.0;"/><text fill="#000000" font-family="sans-serif" font-size="14" lengthAdjust="spacing" textLength="428" x="660" y="336.3945">registerCallback(eventName: string, callback: OSGeneric) : void</text><ellipse cx="651" cy="349.0918" fill="#84BE84" rx="3" ry="3" style="stroke:#038048;stroke-width:1.0;"/><text fill="#000000" font-family="sans-serif" font-size="14" lengthAdjust="spacing" textLength="305" x="660" y="352.8828">toggleGestures(enableSwipe: boolean) : void</text></g><!--class IDragEvent--><g id="elem_IDragEvent"><rect codeLine="105" fill="#FFFFFF" height="113.9531" id="IDragEvent" rx="2.5" ry="2.5" style="stroke:#272B30;stroke-width:0.5;" width="789" x="1183.5" y="163.5"/><ellipse cx="1536.75" cy="179.5" fill="#B4A7E5" rx="11" ry="11" style="stroke:#181818;stroke-width:1.0;"/><path d="M1533.1777,175.7651 L1533.1777,173.6069 L1540.5571,173.6069 L1540.5571,175.7651 L1538.0918,175.7651 L1538.0918,183.8418 L1540.5571,183.8418 L1540.5571,186 L1533.1777,186 L1533.1777,183.8418 L1535.6431,183.8418 L1535.6431,175.7651 Z " fill="#000000"/><text fill="#000000" font-family="sans-serif" font-size="14" font-style="italic" lengthAdjust="spacing" textLength="74" x="1557.25" y="184.791">IDragEvent</text><line style="stroke:#272B30;stroke-width:0.5;" x1="1184.5" x2="1971.5" y1="195.5" y2="195.5"/><ellipse cx="1194.5" cy="209.2441" fill="none" rx="3" ry="3" style="stroke:#038048;stroke-width:1.0;"/><text fill="#000000" font-family="sans-serif" font-size="14" lengthAdjust="spacing" textLength="228" x="1203.5" y="213.0352">gestureEventInstance : DragEvent</text><ellipse cx="1194.5" cy="225.7324" fill="none" rx="3" ry="3" style="stroke:#038048;stroke-width:1.0;"/><text fill="#000000" font-family="sans-serif" font-size="14" lengthAdjust="spacing" textLength="189" x="1203.5" y="229.5234">hasGestureEvents : boolean</text><line style="stroke:#272B30;stroke-width:0.5;" x1="1184.5" x2="1971.5" y1="236.4766" y2="236.4766"/><ellipse cx="1194.5" cy="250.2207" fill="#84BE84" rx="3" ry="3" style="stroke:#038048;stroke-width:1.0;"/><text fill="#000000" font-family="sans-serif" font-size="14" lengthAdjust="spacing" textLength="199" x="1203.5" y="254.0117">removeGestureEvents() : void</text><ellipse cx="1194.5" cy="266.709" fill="#84BE84" rx="3" ry="3" style="stroke:#038048;stroke-width:1.0;"/><text fill="#000000" font-family="sans-serif" font-size="14" lengthAdjust="spacing" textLength="763" x="1203.5" y="270.5">setGestureEvents(onGestureStart: GestureStart, onGestureMove: GestureMove, onGestureEnd: GestureEnd) : any</text></g><!--reverse link AbstractPattern<SidebarConfig> to Sidebar--><g id="link_AbstractPattern&lt;SidebarConfig&gt;_Sidebar"><path codeLine="87" d="M490.33,450.27 C501.72,464.49 513.38,479.04 525.21,493.8 " fill="none" id="AbstractPattern&lt;SidebarConfig&gt;-backto-Sidebar" style="stroke:#272B30;stroke-width:1.0;"/><polygon fill="none" points="484.62,454.34,477.57,434.35,495.54,445.58,484.62,454.34" style="stroke:#272B30;stroke-width:1.0;"/></g><!--reverse link ISidebar to Sidebar--><g id="link_ISidebar_Sidebar"><path codeLine="104" d="M894,380.2 C894,415.03 894,453.61 894,493.8 " fill="none" id="ISidebar-backto-Sidebar" style="stroke:#272B30;stroke-width:1.0;stroke-dasharray:7.0,7.0;"/><polygon fill="none" points="887,380.14,894,360.14,901,380.14,887,380.14" style="stroke:#272B30;stroke-width:1.0;"/></g><!--reverse link IDragEvent to Sidebar--><g id="link_IDragEvent_Sidebar"><path codeLine="111" d="M1511.55,292.66 C1464.56,342.98 1397.09,415.24 1323.85,493.67 " fill="none" id="IDragEvent-backto-Sidebar" style="stroke:#272B30;stroke-width:1.0;stroke-dasharray:7.0,7.0;"/><polygon fill="none" points="1506.7,287.6,1525.46,277.76,1516.93,297.16,1506.7,287.6" style="stroke:#272B30;stroke-width:1.0;"/></g><!--SRC=[rLTjRzis4FxkNo4aNrmuATfkG84W660xQM9igGF4Q5SCGq299vamHQeavTHhyzztb2bPecGvsr8CxOUWVkxX7NdlqYicCg986amvqNgib7oOIYvLSFpcxPlmfrS3tMHCfAAW-YaaMYLAve8wMXp7DKvB707zcPB1ab488CtC9aZ1B2NLTIXcm169h87Ww0u58L57mTT1WF-EcRvLSesWcX0DD3WBGYav4568J- -9O2anC1SNYYGpeGqH4I1hNCSTD-8iMW6TvqQZmaiEAGZJqbYm76SXfrngQ7DofV3i1LCG6IR5LEl2GKZKHZ5HMeGrikPhK9nifbOl4gv0W69H1-D6vXekv8FePZdN_0gRJ45XgqcAPPJh6o980ghcYNSrkCvSA9BvD8ivJWBQv0ekhUKQpRgpm1njIVHLZQbRhc9wde5emPWnzad0OnHTBsv-S-4enPoOMAgqK3eN2vaat9gVtvK_TfSOXJdZTFW2nMl9w1QBbaGaWBcJWJAROUR-yvwaKCRe92ZH3uJd2ETY9T3xdg9sEWmZ-tSk4BKnAG9RlSy_RVbDZ3ATjL7ud1Ek5t9sCSo8CQ34Z9OtVU6vRuJN5jvv1GdJU6nAE0-n48T5pZJV6pcPzQFB7Lz9AjVG2AXdnXJETmmz14523dSFB8Dk3np7J32zdBH3TAp1Z5-__kHYn42tvULZEaJDIqhXVjyPegfZja9sw4bGiMxmbIsI1MkSIsnZFWMnraMkJSfTylhNHBSdM7MtzMIkucDJ_1sYqtPGJWAY4bqbv1z_zggT2MOOuUmle4qBpLEvw75e8RpYCYIybxB_iRPnObQx9kNBi1efXwB7J619rapkeVJatkbzFJP36STueT_F0f6d8IYCN05ysW66fR0WAn0bj4-TZVpmo-xWnbVQPmNMvYnOo3nQ5fVUPwD8mKuZ_WcixJrUbBL9KaNvVfihPOrZ7HPpfFCotfpvDpgsBQ8xFkYOQYHsoAw9TfEkG-Yok9oaqANy8wDcsSAROt7N_yu2n4995ErwnxQH3JlHihsLOQXrETtTvl3ajYWRuscd_N50GlGkYKpW5fsn-tsxRVRdpjPKYfWblpnv_uaAlXsx3GNLyBMDjxtZDCPhhNy4jIPKkPt7jk8xntGksESSPjJVUnuOJJ2a7lvz1_KpZDNdcA7x1zxNCWKU3yu-Zxgd9Nki7sGGrM_z7sTIIrNVUBAMP9fAqKVQNgY7zZWuMBddtqvFTnyo0oQG5HFSdezctjVDgBi-HvqxywYinEr7Yr-Ce-vQ7FqVfNXWPvvzXvsP7LYMjou5EjcCCxR7yBEiqFzaGSPasgN4-RUNB_UaJVNHLINEaxxEHWS-pfwmxXzOj7iNx9x5sb-eYTWKpgWzjEcElm40]--></g></svg>