<?xml version="1.0" encoding="UTF-8" standalone="no"?><svg xmlns="http://www.w3.org/2000/svg" xmlns:xlink="http://www.w3.org/1999/xlink" contentScriptType="application/ecmascript" contentStyleType="text/css" height="927px" preserveAspectRatio="none" style="width:1566px;height:927px;background:#CED4DA;" version="1.1" viewBox="0 0 1566 927" width="1566px" zoomAndPan="magnify"><defs><filter height="300%" id="f1f6efmozms4yl" width="300%" x="-1" y="-1"><feGaussianBlur result="blurOut" stdDeviation="2.0"/><feColorMatrix in="blurOut" result="blurOut2" type="matrix" values="0 0 0 0 0 0 0 0 0 0 0 0 0 0 0 0 0 0 .4 0"/><feOffset dx="4.0" dy="4.0" in="blurOut2" result="blurOut3"/><feBlend in="SourceGraphic" in2="blurOut3" mode="normal"/></filter></defs><g><!--MD5=[e3b91d17c0c31b689adfde5f95e55499]
class Sidebar--><rect codeLine="7" fill="#FFFFFF" filter="url(#f1f6efmozms4yl)" height="643.9336" id="Sidebar" style="stroke:#272B30;stroke-width:1.5;" width="671" x="313" y="270"/><ellipse cx="622.25" cy="286" fill="#ADD1B2" rx="11" ry="11" style="stroke:#272B30;stroke-width:1.0;"/><path d="M624.7231,292.1431 Q624.1421,292.4419 623.5029,292.5913 Q622.8638,292.7407 622.1582,292.7407 Q619.6514,292.7407 618.3315,291.0889 Q617.0117,289.437 617.0117,286.3159 Q617.0117,283.1865 618.3315,281.5347 Q619.6514,279.8828 622.1582,279.8828 Q622.8638,279.8828 623.5112,280.0322 Q624.1587,280.1816 624.7231,280.4805 L624.7231,283.2031 Q624.0923,282.6221 623.4988,282.3523 Q622.9053,282.0825 622.2744,282.0825 Q620.9297,282.0825 620.2449,283.1492 Q619.5601,284.2158 619.5601,286.3159 Q619.5601,288.4077 620.2449,289.4744 Q620.9297,290.541 622.2744,290.541 Q622.9053,290.541 623.4988,290.2712 Q624.0923,290.0015 624.7231,289.4204 Z " fill="#000000"/><text fill="#000000" font-family="sans-serif" font-size="12" lengthAdjust="spacing" textLength="44" x="642.75" y="290.5352">Sidebar</text><line style="stroke:#272B30;stroke-width:1.5;" x1="314" x2="983" y1="302" y2="302"/><polygon fill="none" points="324,308,328,312,324,316,320,312" style="stroke:#B38D22;stroke-width:1.0;"/><text fill="#000000" font-family="sans-serif" font-size="11" lengthAdjust="spacing" textLength="131" x="333" y="316.6348">_selfElem : HTMLElement</text><polygon fill="none" points="324,320.9551,328,324.9551,324,328.9551,320,324.9551" style="stroke:#B38D22;stroke-width:1.0;"/><text fill="#000000" font-family="sans-serif" font-size="11" lengthAdjust="spacing" textLength="92" x="333" y="329.5898">_widgetId : string</text><rect fill="none" height="6" style="stroke:#C82930;stroke-width:1.0;" width="6" x="321" y="335.9102"/><text fill="#000000" font-family="sans-serif" font-size="11" lengthAdjust="spacing" textLength="230" x="333" y="342.5449">_animateOnDragInstance : AnimateOnDrag</text><rect fill="none" height="6" style="stroke:#C82930;stroke-width:1.0;" width="6" x="321" y="348.8652"/><text fill="#000000" font-family="sans-serif" font-size="11" lengthAdjust="spacing" textLength="185" x="333" y="355.5">_currentDirectionCssClass : string</text><rect fill="none" height="6" style="stroke:#C82930;stroke-width:1.0;" width="6" x="321" y="361.8203"/><text fill="#000000" font-family="sans-serif" font-size="11" lengthAdjust="spacing" textLength="152" x="333" y="368.4551">_eventOverlayClick : Generic</text><rect fill="none" height="6" style="stroke:#C82930;stroke-width:1.0;" width="6" x="321" y="374.7754"/><text fill="#000000" font-family="sans-serif" font-size="11" lengthAdjust="spacing" textLength="174" x="333" y="381.4102">_eventSidebarKeypress : Generic</text><rect fill="none" height="6" style="stroke:#C82930;stroke-width:1.0;" width="6" x="321" y="387.7305"/><text fill="#000000" font-family="sans-serif" font-size="11" lengthAdjust="spacing" textLength="188" x="333" y="394.3652">_firstFocusableElem : HTMLElement</text><rect fill="none" height="6" style="stroke:#C82930;stroke-width:1.0;" width="6" x="321" y="400.6855"/><text fill="#000000" font-family="sans-serif" font-size="11" lengthAdjust="spacing" textLength="178" x="333" y="407.3203">_focusableElems : HTMLElement[]</text><rect fill="none" height="6" style="stroke:#C82930;stroke-width:1.0;" width="6" x="321" y="413.6406"/><text fill="#000000" font-family="sans-serif" font-size="11" lengthAdjust="spacing" textLength="185" x="333" y="420.2754">_gestureEventInstance : DragEvent</text><rect fill="none" height="6" style="stroke:#C82930;stroke-width:1.0;" width="6" x="321" y="426.5957"/><text fill="#000000" font-family="sans-serif" font-size="11" lengthAdjust="spacing" textLength="154" x="333" y="433.2305">_hasGestureEvents : boolean</text><rect fill="none" height="6" style="stroke:#C82930;stroke-width:1.0;" width="6" x="321" y="439.5508"/><text fill="#000000" font-family="sans-serif" font-size="11" lengthAdjust="spacing" textLength="96" x="333" y="446.1855">_isOpen : boolean</text><rect fill="none" height="6" style="stroke:#C82930;stroke-width:1.0;" width="6" x="321" y="452.5059"/><text fill="#000000" font-family="sans-serif" font-size="11" lengthAdjust="spacing" textLength="185" x="333" y="459.1406">_lastFocusableElem : HTMLElement</text><rect fill="none" height="6" style="stroke:#C82930;stroke-width:1.0;" width="6" x="321" y="465.4609"/><text fill="#000000" font-family="sans-serif" font-size="11" lengthAdjust="spacing" textLength="187" x="333" y="472.0957">_onToggle : OSSidebarToggleEvent</text><line style="stroke:#272B30;stroke-width:1.5;" x1="314" x2="983" y1="478.416" y2="478.416"/><ellipse cx="324" cy="489.416" fill="#84BE84" rx="3" ry="3" style="stroke:#038048;stroke-width:1.0;"/><text fill="#000000" font-family="sans-serif" font-size="11" lengthAdjust="spacing" textLength="67" x="333" y="493.0508">build() : void</text><ellipse cx="324" cy="502.3711" fill="#84BE84" rx="3" ry="3" style="stroke:#038048;stroke-width:1.0;"/><text fill="#000000" font-family="sans-serif" font-size="11" lengthAdjust="spacing" textLength="377" x="333" y="506.0059">changeProperty(propertyName: string, propertyValue: unknown) : void</text><ellipse cx="324" cy="515.3262" fill="#84BE84" rx="3" ry="3" style="stroke:#038048;stroke-width:1.0;"/><text fill="#000000" font-family="sans-serif" font-size="11" lengthAdjust="spacing" textLength="68" x="333" y="518.9609">close() : void</text><ellipse cx="324" cy="528.2813" fill="#84BE84" rx="3" ry="3" style="stroke:#038048;stroke-width:1.0;"/><text fill="#000000" font-family="sans-serif" font-size="11" lengthAdjust="spacing" textLength="82" x="333" y="531.916">dispose() : void</text><ellipse cx="324" cy="541.2363" fill="#84BE84" rx="3" ry="3" style="stroke:#038048;stroke-width:1.0;"/><text fill="#000000" font-family="sans-serif" font-size="11" lengthAdjust="spacing" textLength="207" x="333" y="544.8711">equalsToID(patternId: string) : boolean</text><ellipse cx="324" cy="554.1914" fill="#84BE84" rx="3" ry="3" style="stroke:#038048;stroke-width:1.0;"/><text fill="#000000" font-family="sans-serif" font-size="11" lengthAdjust="spacing" textLength="67" x="333" y="557.8262">open() : void</text><ellipse cx="324" cy="567.1465" fill="#84BE84" rx="3" ry="3" style="stroke:#038048;stroke-width:1.0;"/><text fill="#000000" font-family="sans-serif" font-size="11" lengthAdjust="spacing" textLength="297" x="333" y="570.7813">registerCallback(callback: OSSidebarToggleEvent) : void</text><ellipse cx="324" cy="580.1016" fill="#84BE84" rx="3" ry="3" style="stroke:#038048;stroke-width:1.0;"/><text fill="#000000" font-family="sans-serif" font-size="11" lengthAdjust="spacing" textLength="157" x="333" y="583.7363">removeGestureEvents() : void</text><ellipse cx="324" cy="593.0566" fill="#84BE84" rx="3" ry="3" style="stroke:#038048;stroke-width:1.0;"/><text fill="#000000" font-family="sans-serif" font-size="11" lengthAdjust="spacing" textLength="236" x="333" y="596.6914">toggleGestures(enableSwipe: boolean) : void</text><polygon fill="#FFFF44" points="324,601.0117,328,605.0117,324,609.0117,320,605.0117" style="stroke:#B38D22;stroke-width:1.0;"/><text fill="#000000" font-family="sans-serif" font-size="11" lengthAdjust="spacing" textLength="96" x="333" y="609.6465">finishBuild() : void</text><polygon fill="#FFFF44" points="324,613.9668,328,617.9668,324,621.9668,320,617.9668" style="stroke:#B38D22;stroke-width:1.0;"/><text fill="#000000" font-family="sans-serif" font-size="11" lengthAdjust="spacing" textLength="140" x="333" y="622.6016">setA11YProperties() : void</text><polygon fill="#FFFF44" points="324,626.9219,328,630.9219,324,634.9219,320,630.9219" style="stroke:#B38D22;stroke-width:1.0;"/><text fill="#000000" font-family="sans-serif" font-size="11" lengthAdjust="spacing" textLength="107" x="333" y="635.5566">setCallbacks() : void</text><polygon fill="#FFFF44" points="324,639.877,328,643.877,324,647.877,320,643.877" style="stroke:#B38D22;stroke-width:1.0;"/><text fill="#000000" font-family="sans-serif" font-size="11" lengthAdjust="spacing" textLength="645" x="333" y="648.5117">setGestureEvents(onGestureStart: onGestureStart, onGestureMove: onGestureMove, onGestureEnd: onGestureEnd) : void</text><polygon fill="#FFFF44" points="324,652.832,328,656.832,324,660.832,320,656.832" style="stroke:#B38D22;stroke-width:1.0;"/><text fill="#000000" font-family="sans-serif" font-size="11" lengthAdjust="spacing" textLength="129" x="333" y="661.4668">setHtmlElements() : void</text><polygon fill="#FFFF44" points="324,665.7871,328,669.7871,324,673.7871,320,669.7871" style="stroke:#B38D22;stroke-width:1.0;"/><text fill="#000000" font-family="sans-serif" font-size="11" lengthAdjust="spacing" textLength="121" x="333" y="674.4219">unsetCallbacks() : void</text><polygon fill="#FFFF44" points="324,678.7422,328,682.7422,324,686.7422,320,682.7422" style="stroke:#B38D22;stroke-width:1.0;"/><text fill="#000000" font-family="sans-serif" font-size="11" lengthAdjust="spacing" textLength="143" x="333" y="687.377">unsetHtmlElements() : void</text><rect fill="#F24D5C" height="6" style="stroke:#C82930;stroke-width:1.0;" width="6" x="321" y="693.6973"/><text fill="#000000" font-family="sans-serif" font-size="11" lengthAdjust="spacing" textLength="114" x="333" y="700.332">_closeSidebar() : void</text><rect fill="#F24D5C" height="6" style="stroke:#C82930;stroke-width:1.0;" width="6" x="321" y="706.6523"/><text fill="#000000" font-family="sans-serif" font-size="11" lengthAdjust="spacing" textLength="159" x="333" y="713.2871">_handleGestureEvents() : void</text><rect fill="#F24D5C" height="6" style="stroke:#C82930;stroke-width:1.0;" width="6" x="321" y="719.6074"/><text fill="#000000" font-family="sans-serif" font-size="11" lengthAdjust="spacing" textLength="409" x="333" y="726.2422">_onGestureEnd(offsetX: number, offsetY: number, timeTaken: number) : void</text><rect fill="#F24D5C" height="6" style="stroke:#C82930;stroke-width:1.0;" width="6" x="321" y="732.5625"/><text fill="#000000" font-family="sans-serif" font-size="11" lengthAdjust="spacing" textLength="520" x="333" y="739.1973">_onGestureMove(x: number, y: number, offsetX: number, offsetY: number, evt: TouchEvent) : void</text><rect fill="#F24D5C" height="6" style="stroke:#C82930;stroke-width:1.0;" width="6" x="321" y="745.5176"/><text fill="#000000" font-family="sans-serif" font-size="11" lengthAdjust="spacing" textLength="242" x="333" y="752.1523">_onGestureStart(x: number, y: number) : void</text><rect fill="#F24D5C" height="6" style="stroke:#C82930;stroke-width:1.0;" width="6" x="321" y="758.4727"/><text fill="#000000" font-family="sans-serif" font-size="11" lengthAdjust="spacing" textLength="113" x="333" y="765.1074">_openSidebar() : void</text><rect fill="#F24D5C" height="6" style="stroke:#C82930;stroke-width:1.0;" width="6" x="321" y="771.4277"/><text fill="#000000" font-family="sans-serif" font-size="11" lengthAdjust="spacing" textLength="306" x="333" y="778.0625">_overlayClickCallback(_args: string, e: MouseEvent) : void</text><rect fill="#F24D5C" height="6" style="stroke:#C82930;stroke-width:1.0;" width="6" x="321" y="784.3828"/><text fill="#000000" font-family="sans-serif" font-size="11" lengthAdjust="spacing" textLength="121" x="333" y="791.0176">_removeEvents() : void</text><rect fill="#F24D5C" height="6" style="stroke:#C82930;stroke-width:1.0;" width="6" x="321" y="797.3379"/><text fill="#000000" font-family="sans-serif" font-size="11" lengthAdjust="spacing" textLength="111" x="333" y="803.9727">_setDirection() : void</text><rect fill="#F24D5C" height="6" style="stroke:#C82930;stroke-width:1.0;" width="6" x="321" y="810.293"/><text fill="#000000" font-family="sans-serif" font-size="11" lengthAdjust="spacing" textLength="214" x="333" y="816.9277">_setFocusableElementsTabindex() : void</text><rect fill="#F24D5C" height="6" style="stroke:#C82930;stroke-width:1.0;" width="6" x="321" y="823.248"/><text fill="#000000" font-family="sans-serif" font-size="11" lengthAdjust="spacing" textLength="123" x="333" y="829.8828">_setHasOverlay() : void</text><rect fill="#F24D5C" height="6" style="stroke:#C82930;stroke-width:1.0;" width="6" x="321" y="836.2031"/><text fill="#000000" font-family="sans-serif" font-size="11" lengthAdjust="spacing" textLength="152" x="333" y="842.8379">_setInitialCssClasses() : void</text><rect fill="#F24D5C" height="6" style="stroke:#C82930;stroke-width:1.0;" width="6" x="321" y="849.1582"/><text fill="#000000" font-family="sans-serif" font-size="11" lengthAdjust="spacing" textLength="92" x="333" y="855.793">_setWidth() : void</text><rect fill="#F24D5C" height="6" style="stroke:#C82930;stroke-width:1.0;" width="6" x="321" y="862.1133"/><text fill="#000000" font-family="sans-serif" font-size="11" lengthAdjust="spacing" textLength="272" x="333" y="868.748">_sidebarKeypressCallback(e: KeyboardEvent) : void</text><rect fill="#F24D5C" height="6" style="stroke:#C82930;stroke-width:1.0;" width="6" x="321" y="875.0684"/><text fill="#000000" font-family="sans-serif" font-size="11" lengthAdjust="spacing" textLength="80" x="333" y="881.7031">_toggle() : void</text><rect fill="#F24D5C" height="6" style="stroke:#C82930;stroke-width:1.0;" width="6" x="321" y="888.0234"/><text fill="#000000" font-family="sans-serif" font-size="11" lengthAdjust="spacing" textLength="288" x="333" y="894.6582">_toggleGesturesSidebar(enableSwipes: boolean) : void</text><rect fill="#F24D5C" height="6" style="stroke:#C82930;stroke-width:1.0;" width="6" x="321" y="900.9785"/><text fill="#000000" font-family="sans-serif" font-size="11" lengthAdjust="spacing" textLength="165" x="333" y="907.6133">_triggerOnToggleEvent() : void</text><!--MD5=[184066357b4a8c50bbe6185eaf2a7d8e]
class AbstractPattern<SidebarConfig>--><rect codeLine="55" fill="#FFFFFF" filter="url(#f1f6efmozms4yl)" height="203.4609" id="AbstractPattern&lt;SidebarConfig&gt;" style="stroke:#272B30;stroke-width:1.5;" width="403" x="9" y="7"/><ellipse cx="111.75" cy="23" fill="#A9DCDF" rx="11" ry="11" style="stroke:#272B30;stroke-width:1.0;"/><path d="M111.6133,18.3481 L110.4595,23.4199 L112.7754,23.4199 Z M110.1191,16.1069 L113.1157,16.1069 L116.4609,28.5 L114.0122,28.5 L113.2485,25.437 L109.9697,25.437 L109.2227,28.5 L106.7739,28.5 Z " fill="#000000"/><text fill="#000000" font-family="sans-serif" font-size="12" font-style="italic" lengthAdjust="spacing" textLength="189" x="132.25" y="27.5352">AbstractPattern&lt;SidebarConfig&gt;</text><line style="stroke:#272B30;stroke-width:1.5;" x1="10" x2="411" y1="39" y2="39"/><polygon fill="none" points="20,45,24,49,20,53,16,49" style="stroke:#B38D22;stroke-width:1.0;"/><text fill="#000000" font-family="sans-serif" font-size="11" lengthAdjust="spacing" textLength="131" x="29" y="53.6348">_selfElem : HTMLElement</text><polygon fill="none" points="20,57.9551,24,61.9551,20,65.9551,16,61.9551" style="stroke:#B38D22;stroke-width:1.0;"/><text fill="#000000" font-family="sans-serif" font-size="11" lengthAdjust="spacing" textLength="92" x="29" y="66.5898">_widgetId : string</text><rect fill="none" height="6" style="stroke:#C82930;stroke-width:1.0;" width="6" x="17" y="72.9102"/><text fill="#000000" font-family="sans-serif" font-size="11" lengthAdjust="spacing" textLength="131" x="29" y="79.5449">_configs : SidebarConfig</text><rect fill="none" height="6" style="stroke:#C82930;stroke-width:1.0;" width="6" x="17" y="85.8652"/><text fill="#000000" font-family="sans-serif" font-size="11" lengthAdjust="spacing" textLength="90" x="29" y="92.5">_isBuilt : boolean</text><rect fill="none" height="6" style="stroke:#C82930;stroke-width:1.0;" width="6" x="17" y="98.8203"/><text fill="#000000" font-family="sans-serif" font-size="11" lengthAdjust="spacing" textLength="94" x="29" y="105.4551">_uniqueId : string</text><line style="stroke:#272B30;stroke-width:1.5;" x1="10" x2="411" y1="111.7754" y2="111.7754"/><ellipse cx="20" cy="122.7754" fill="#84BE84" rx="3" ry="3" style="stroke:#038048;stroke-width:1.0;"/><text fill="#000000" font-family="sans-serif" font-size="11" lengthAdjust="spacing" textLength="67" x="29" y="126.4102">build() : void</text><ellipse cx="20" cy="135.7305" fill="#84BE84" rx="3" ry="3" style="stroke:#038048;stroke-width:1.0;"/><text fill="#000000" font-family="sans-serif" font-size="11" lengthAdjust="spacing" textLength="377" x="29" y="139.3652">changeProperty(propertyName: string, propertyValue: unknown) : void</text><ellipse cx="20" cy="148.6855" fill="#84BE84" rx="3" ry="3" style="stroke:#038048;stroke-width:1.0;"/><text fill="#000000" font-family="sans-serif" font-size="11" lengthAdjust="spacing" textLength="82" x="29" y="152.3203">dispose() : void</text><ellipse cx="20" cy="161.6406" fill="#84BE84" rx="3" ry="3" style="stroke:#038048;stroke-width:1.0;"/><text fill="#000000" font-family="sans-serif" font-size="11" lengthAdjust="spacing" textLength="207" x="29" y="165.2754">equalsToID(patternId: string) : boolean</text><polygon fill="#FFFF44" points="20,169.5957,24,173.5957,20,177.5957,16,173.5957" style="stroke:#B38D22;stroke-width:1.0;"/><text fill="#000000" font-family="sans-serif" font-size="11" lengthAdjust="spacing" textLength="96" x="29" y="178.2305">finishBuild() : void</text><polygon fill="#FFFF44" points="20,182.5508,24,186.5508,20,190.5508,16,186.5508" style="stroke:#B38D22;stroke-width:1.0;"/><text fill="#000000" font-family="sans-serif" font-size="11" lengthAdjust="spacing" textLength="198" x="29" y="191.1855">_unsetCommonHtmlElements() : void</text><rect fill="#F24D5C" height="6" style="stroke:#C82930;stroke-width:1.0;" width="6" x="17" y="197.5059"/><text fill="#000000" font-family="sans-serif" font-size="11" lengthAdjust="spacing" textLength="184" x="29" y="204.1406">_setCommonHtmlElements() : void</text><!--MD5=[269732d4b4d4bad0949a96b3ba380c4a]
class ISidebar--><rect codeLine="70" fill="#FFFFFF" filter="url(#f1f6efmozms4yl)" height="203.4609" id="ISidebar" style="stroke:#272B30;stroke-width:1.5;" width="403" x="447" y="7"/><ellipse cx="620.75" cy="23" fill="#B4A7E5" rx="11" ry="11" style="stroke:#272B30;stroke-width:1.0;"/><path d="M617.1777,19.2651 L617.1777,17.1069 L624.5571,17.1069 L624.5571,19.2651 L622.0918,19.2651 L622.0918,27.3418 L624.5571,27.3418 L624.5571,29.5 L617.1777,29.5 L617.1777,27.3418 L619.6431,27.3418 L619.6431,19.2651 Z " fill="#000000"/><text fill="#000000" font-family="sans-serif" font-size="12" font-style="italic" lengthAdjust="spacing" textLength="47" x="641.25" y="27.5352">ISidebar</text><line style="stroke:#272B30;stroke-width:1.5;" x1="448" x2="849" y1="39" y2="39"/><ellipse cx="458" cy="50" rx="3" ry="3" style="stroke:#038048;stroke-width:1.0;fill:none;"/><text fill="#000000" font-family="sans-serif" font-size="11" lengthAdjust="spacing" textLength="84" x="467" y="53.6348">isBuilt : boolean</text><ellipse cx="458" cy="62.9551" rx="3" ry="3" style="stroke:#038048;stroke-width:1.0;fill:none;"/><text fill="#000000" font-family="sans-serif" font-size="11" lengthAdjust="spacing" textLength="142" x="467" y="66.5898">selfElement : HTMLElement</text><ellipse cx="458" cy="75.9102" rx="3" ry="3" style="stroke:#038048;stroke-width:1.0;fill:none;"/><text fill="#000000" font-family="sans-serif" font-size="11" lengthAdjust="spacing" textLength="88" x="467" y="79.5449">uniqueId : string</text><ellipse cx="458" cy="88.8652" rx="3" ry="3" style="stroke:#038048;stroke-width:1.0;fill:none;"/><text fill="#000000" font-family="sans-serif" font-size="11" lengthAdjust="spacing" textLength="86" x="467" y="92.5">widgetId : string</text><line style="stroke:#272B30;stroke-width:1.5;" x1="448" x2="849" y1="98.8203" y2="98.8203"/><ellipse cx="458" cy="109.8203" fill="#84BE84" rx="3" ry="3" style="stroke:#038048;stroke-width:1.0;"/><text fill="#000000" font-family="sans-serif" font-size="11" lengthAdjust="spacing" textLength="67" x="467" y="113.4551">build() : void</text><ellipse cx="458" cy="122.7754" fill="#84BE84" rx="3" ry="3" style="stroke:#038048;stroke-width:1.0;"/><text fill="#000000" font-family="sans-serif" font-size="11" lengthAdjust="spacing" textLength="377" x="467" y="126.4102">changeProperty(propertyName: string, propertyValue: unknown) : void</text><ellipse cx="458" cy="135.7305" fill="#84BE84" rx="3" ry="3" style="stroke:#038048;stroke-width:1.0;"/><text fill="#000000" font-family="sans-serif" font-size="11" lengthAdjust="spacing" textLength="68" x="467" y="139.3652">close() : void</text><ellipse cx="458" cy="148.6855" fill="#84BE84" rx="3" ry="3" style="stroke:#038048;stroke-width:1.0;"/><text fill="#000000" font-family="sans-serif" font-size="11" lengthAdjust="spacing" textLength="82" x="467" y="152.3203">dispose() : void</text><ellipse cx="458" cy="161.6406" fill="#84BE84" rx="3" ry="3" style="stroke:#038048;stroke-width:1.0;"/><text fill="#000000" font-family="sans-serif" font-size="11" lengthAdjust="spacing" textLength="168" x="467" y="165.2754">equalsToID(id: string) : boolean</text><ellipse cx="458" cy="174.5957" fill="#84BE84" rx="3" ry="3" style="stroke:#038048;stroke-width:1.0;"/><text fill="#000000" font-family="sans-serif" font-size="11" lengthAdjust="spacing" textLength="67" x="467" y="178.2305">open() : void</text><ellipse cx="458" cy="187.5508" fill="#84BE84" rx="3" ry="3" style="stroke:#038048;stroke-width:1.0;"/><text fill="#000000" font-family="sans-serif" font-size="11" lengthAdjust="spacing" textLength="232" x="467" y="191.1855">registerCallback(callback: OSGeneric) : void</text><ellipse cx="458" cy="200.5059" fill="#84BE84" rx="3" ry="3" style="stroke:#038048;stroke-width:1.0;"/><text fill="#000000" font-family="sans-serif" font-size="11" lengthAdjust="spacing" textLength="212" x="467" y="204.1406">toggleGestures(enableSwipe: any) : void</text><!--MD5=[c7d384d600a3e0242a06a7a8e7e541d9]
class IDragEvent--><rect codeLine="85" fill="#FFFFFF" filter="url(#f1f6efmozms4yl)" height="99.8203" id="IDragEvent" style="stroke:#272B30;stroke-width:1.5;" width="667" x="885" y="58.5"/><ellipse cx="1183.25" cy="74.5" fill="#B4A7E5" rx="11" ry="11" style="stroke:#272B30;stroke-width:1.0;"/><path d="M1179.6777,70.7651 L1179.6777,68.6069 L1187.0571,68.6069 L1187.0571,70.7651 L1184.5918,70.7651 L1184.5918,78.8418 L1187.0571,78.8418 L1187.0571,81 L1179.6777,81 L1179.6777,78.8418 L1182.1431,78.8418 L1182.1431,70.7651 Z " fill="#000000"/><text fill="#000000" font-family="sans-serif" font-size="12" font-style="italic" lengthAdjust="spacing" textLength="62" x="1203.75" y="79.0352">IDragEvent</text><line style="stroke:#272B30;stroke-width:1.5;" x1="886" x2="1551" y1="90.5" y2="90.5"/><ellipse cx="896" cy="101.5" rx="3" ry="3" style="stroke:#038048;stroke-width:1.0;fill:none;"/><text fill="#000000" font-family="sans-serif" font-size="11" lengthAdjust="spacing" textLength="179" x="905" y="105.1348">gestureEventInstance : DragEvent</text><ellipse cx="896" cy="114.4551" rx="3" ry="3" style="stroke:#038048;stroke-width:1.0;fill:none;"/><text fill="#000000" font-family="sans-serif" font-size="11" lengthAdjust="spacing" textLength="148" x="905" y="118.0898">hasGestureEvents : boolean</text><line style="stroke:#272B30;stroke-width:1.5;" x1="886" x2="1551" y1="124.4102" y2="124.4102"/><ellipse cx="896" cy="135.4102" fill="#84BE84" rx="3" ry="3" style="stroke:#038048;stroke-width:1.0;"/><text fill="#000000" font-family="sans-serif" font-size="11" lengthAdjust="spacing" textLength="157" x="905" y="139.0449">removeGestureEvents() : void</text><ellipse cx="896" cy="148.3652" fill="#84BE84" rx="3" ry="3" style="stroke:#038048;stroke-width:1.0;"/><text fill="#000000" font-family="sans-serif" font-size="11" lengthAdjust="spacing" textLength="641" x="905" y="152">setGestureEvents(onGestureStart: onGestureStart, onGestureMove: onGestureMove, onGestureEnd: onGestureEnd) : any</text><!--MD5=[c7821bf27d84137dbf1cc9265e1627f4]
reverse link AbstractPattern<SidebarConfig> to Sidebar--><path codeLine="69" d="M315.75,225.21 C328.66,239.39 342.29,254.38 356.38,269.86 " fill="none" id="AbstractPattern&lt;SidebarConfig&gt;-backto-Sidebar" style="stroke:#272B30;stroke-width:1.0;"/><polygon fill="none" points="310.33,229.65,302.05,210.14,320.69,220.23,310.33,229.65" style="stroke:#272B30;stroke-width:1.0;"/><!--MD5=[3f69e444cc7e31a92ba3fc9ea432dfe9]
reverse link ISidebar to Sidebar--><path codeLine="84" d="M648.5,230.22 C648.5,242.91 648.5,256.19 648.5,269.86 " fill="none" id="ISidebar-backto-Sidebar" style="stroke:#272B30;stroke-width:1.0;stroke-dasharray:7.0,7.0;"/><polygon fill="none" points="641.5,230.15,648.5,210.14,655.5,230.14,641.5,230.15" style="stroke:#272B30;stroke-width:1.0;"/><!--MD5=[6ae073522ab6ca4f8f1cb3d419ad49e6]
reverse link IDragEvent to Sidebar--><path codeLine="91" d="M1145.04,171.55 C1102.16,207.77 1044.67,256.34 984.03,307.57 " fill="none" id="IDragEvent-backto-Sidebar" style="stroke:#272B30;stroke-width:1.0;stroke-dasharray:7.0,7.0;"/><polygon fill="none" points="1140.65,166.1,1160.44,158.54,1149.68,176.8,1140.65,166.1" style="stroke:#272B30;stroke-width:1.0;"/><!--MD5=[f4ea02462511fcfd18a85d685ea259d6]
@startuml
skinparam ClassArrowColor #272b30
skinparam ClassBorderColor #272b30
skinparam ClassBackgroundColor #fff
skinparam BackgroundColor #ced4da
hide empty methods
hide empty fields
class "Sidebar" {
    #_selfElem : HTMLElement
    #_widgetId : string
    -_animateOnDragInstance : AnimateOnDrag
    -_currentDirectionCssClass : string
    -_eventOverlayClick : Generic
    -_eventSidebarKeypress : Generic
    -_firstFocusableElem : HTMLElement
    -_focusableElems : HTMLElement[]
    -_gestureEventInstance : DragEvent
    -_hasGestureEvents : boolean
    -_isOpen : boolean
    -_lastFocusableElem : HTMLElement
    -_onToggle : OSSidebarToggleEvent
    +build() : void
    +changeProperty(propertyName: string, propertyValue: unknown) : void
    +close() : void
    +dispose() : void
    +equalsToID(patternId: string) : boolean
    +open() : void
    +registerCallback(callback: OSSidebarToggleEvent) : void
    +removeGestureEvents() : void
    +toggleGestures(enableSwipe: boolean) : void
    #finishBuild() : void
    #setA11YProperties() : void
    #setCallbacks() : void
    #setGestureEvents(onGestureStart: onGestureStart, onGestureMove: onGestureMove, onGestureEnd: onGestureEnd) : void
    #setHtmlElements() : void
    #unsetCallbacks() : void
    #unsetHtmlElements() : void
    -_closeSidebar() : void
    -_handleGestureEvents() : void
    -_onGestureEnd(offsetX: number, offsetY: number, timeTaken: number) : void
    -_onGestureMove(x: number, y: number, offsetX: number, offsetY: number, evt: TouchEvent) : void
    -_onGestureStart(x: number, y: number) : void
    -_openSidebar() : void
    -_overlayClickCallback(_args: string, e: MouseEvent) : void
    -_removeEvents() : void
    -_setDirection() : void
    -_setFocusableElementsTabindex() : void
    -_setHasOverlay() : void
    -_setInitialCssClasses() : void
    -_setWidth() : void
    -_sidebarKeypressCallback(e: KeyboardEvent) : void
    -_toggle() : void
    -_toggleGesturesSidebar(enableSwipes: boolean) : void
    -_triggerOnToggleEvent() : void
}
abstract class "AbstractPattern<SidebarConfig>" {
    #_selfElem : HTMLElement
    #_widgetId : string
    -_configs : SidebarConfig
    -_isBuilt : boolean
    -_uniqueId : string
    +build() : void
    +changeProperty(propertyName: string, propertyValue: unknown) : void
    +dispose() : void
    +equalsToID(patternId: string) : boolean
    #finishBuild() : void
    #_unsetCommonHtmlElements() : void
    -_setCommonHtmlElements() : void
}
"AbstractPattern<SidebarConfig>" <|- - "Sidebar"
interface "ISidebar" {
    +isBuilt : boolean
    +selfElement : HTMLElement
    +uniqueId : string
    +widgetId : string
    +build() : void
    +changeProperty(propertyName: string, propertyValue: unknown) : void
    +close() : void
    +dispose() : void
    +equalsToID(id: string) : boolean
    +open() : void
    +registerCallback(callback: OSGeneric) : void
    +toggleGestures(enableSwipe: any) : void
}
"ISidebar" <|.. "Sidebar"
interface "IDragEvent" {
    +gestureEventInstance : DragEvent
    +hasGestureEvents : boolean
    +removeGestureEvents() : void
    +setGestureEvents(onGestureStart: onGestureStart, onGestureMove: onGestureMove, onGestureEnd: onGestureEnd) : any
}
"IDragEvent" <|.. "Sidebar"
@enduml

PlantUML version 1.2021.14(Fri Nov 12 16:46:50 WET 2021)
(GPL source distribution)
Java Runtime: Java(TM) SE Runtime Environment
JVM: Java HotSpot(TM) 64-Bit Server VM
Default Encoding: UTF-8
Language: en
Country: PT
--></g></svg>