<?xml version="1.0" encoding="UTF-8" standalone="no"?><svg xmlns="http://www.w3.org/2000/svg" xmlns:xlink="http://www.w3.org/1999/xlink" contentScriptType="application/ecmascript" contentStyleType="text/css" height="907px" preserveAspectRatio="none" style="width:1625px;height:907px;background:#CED4DA;" version="1.1" viewBox="0 0 1625 907" width="1625px" zoomAndPan="magnify"><defs><filter height="300%" id="f154b19k9lyem9" width="300%" x="-1" y="-1"><feGaussianBlur result="blurOut" stdDeviation="2.0"/><feColorMatrix in="blurOut" result="blurOut2" type="matrix" values="0 0 0 0 0 0 0 0 0 0 0 0 0 0 0 0 0 0 .4 0"/><feOffset dx="4.0" dy="4.0" in="blurOut2" result="blurOut3"/><feBlend in="SourceGraphic" in2="blurOut3" mode="normal"/></filter></defs><g><!--MD5=[e3b91d17c0c31b689adfde5f95e55499]
class Sidebar--><rect codeLine="7" fill="#FFFFFF" filter="url(#f154b19k9lyem9)" height="624.2109" id="Sidebar" style="stroke:#272B30;stroke-width:1.5;" width="826" x="268.5" y="269"/><ellipse cx="653.25" cy="285" fill="#ADD1B2" rx="11" ry="11" style="stroke:#272B30;stroke-width:1.0;"/><path d="M656.2188,290.6406 Q655.6406,290.9375 655,291.0781 Q654.3594,291.2344 653.6563,291.2344 Q651.1563,291.2344 649.8281,289.5938 Q648.5156,287.9375 648.5156,284.8125 Q648.5156,281.6875 649.8281,280.0313 Q651.1563,278.375 653.6563,278.375 Q654.3594,278.375 655,278.5313 Q655.6563,278.6875 656.2188,278.9844 L656.2188,281.7031 Q655.5938,281.125 655,280.8594 Q654.4063,280.5781 653.7813,280.5781 Q652.4375,280.5781 651.75,281.6563 Q651.0625,282.7188 651.0625,284.8125 Q651.0625,286.9063 651.75,287.9844 Q652.4375,289.0469 653.7813,289.0469 Q654.4063,289.0469 655,288.7813 Q655.5938,288.5 656.2188,287.9219 L656.2188,290.6406 Z " fill="#000000"/><text fill="#000000" font-family="sans-serif" font-size="12" lengthAdjust="spacing" textLength="48" x="673.75" y="289.1543">Sidebar</text><line style="stroke:#272B30;stroke-width:1.5;" x1="269.5" x2="1093.5" y1="301" y2="301"/><polygon fill="none" points="279.5,307,283.5,311,279.5,315,275.5,311" style="stroke:#B38D22;stroke-width:1.0;"/><text fill="#000000" font-family="sans-serif" font-size="11" lengthAdjust="spacing" textLength="143" x="288.5" y="315.2104">_selfElem : HTMLElement</text><polygon fill="none" points="279.5,319.8047,283.5,323.8047,279.5,327.8047,275.5,323.8047" style="stroke:#B38D22;stroke-width:1.0;"/><text fill="#000000" font-family="sans-serif" font-size="11" lengthAdjust="spacing" textLength="98" x="288.5" y="328.0151">_widgetId : string</text><rect fill="none" height="6" style="stroke:#C82930;stroke-width:1.0;" width="6" x="276.5" y="334.6094"/><text fill="#000000" font-family="sans-serif" font-size="11" lengthAdjust="spacing" textLength="244" x="288.5" y="340.8198">_animateOnDragInstance : AnimateOnDrag</text><rect fill="none" height="6" style="stroke:#C82930;stroke-width:1.0;" width="6" x="276.5" y="347.4141"/><text fill="#000000" font-family="sans-serif" font-size="11" lengthAdjust="spacing" textLength="196" x="288.5" y="353.6245">_currentDirectionCssClass : string</text><rect fill="none" height="6" style="stroke:#C82930;stroke-width:1.0;" width="6" x="276.5" y="360.2188"/><text fill="#000000" font-family="sans-serif" font-size="11" lengthAdjust="spacing" textLength="162" x="288.5" y="366.4292">_eventOverlayClick : Generic</text><rect fill="none" height="6" style="stroke:#C82930;stroke-width:1.0;" width="6" x="276.5" y="373.0234"/><text fill="#000000" font-family="sans-serif" font-size="11" lengthAdjust="spacing" textLength="190" x="288.5" y="379.2339">_eventSidebarKeypress : Generic</text><rect fill="none" height="6" style="stroke:#C82930;stroke-width:1.0;" width="6" x="276.5" y="385.8281"/><text fill="#000000" font-family="sans-serif" font-size="11" lengthAdjust="spacing" textLength="182" x="288.5" y="392.0386">_focusTrapInstance : FocusTrap</text><rect fill="none" height="6" style="stroke:#C82930;stroke-width:1.0;" width="6" x="276.5" y="398.6328"/><text fill="#000000" font-family="sans-serif" font-size="11" lengthAdjust="spacing" textLength="199" x="288.5" y="404.8433">_gestureEventInstance : DragEvent</text><rect fill="none" height="6" style="stroke:#C82930;stroke-width:1.0;" width="6" x="276.5" y="411.4375"/><text fill="#000000" font-family="sans-serif" font-size="11" lengthAdjust="spacing" textLength="168" x="288.5" y="417.6479">_hasGestureEvents : boolean</text><rect fill="none" height="6" style="stroke:#C82930;stroke-width:1.0;" width="6" x="276.5" y="424.2422"/><text fill="#000000" font-family="sans-serif" font-size="11" lengthAdjust="spacing" textLength="103" x="288.5" y="430.4526">_isOpen : boolean</text><rect fill="none" height="6" style="stroke:#C82930;stroke-width:1.0;" width="6" x="276.5" y="437.0469"/><text fill="#000000" font-family="sans-serif" font-size="11" lengthAdjust="spacing" textLength="172" x="288.5" y="443.2573">_onToggle : OSOnToggleEvent</text><rect fill="none" height="6" style="stroke:#C82930;stroke-width:1.0;" width="6" x="276.5" y="449.8516"/><text fill="#000000" font-family="sans-serif" font-size="11" lengthAdjust="spacing" textLength="153" x="288.5" y="456.062">_parentSelf : HTMLElement</text><line style="stroke:#272B30;stroke-width:1.5;" x1="269.5" x2="1093.5" y1="462.6563" y2="462.6563"/><ellipse cx="279.5" cy="473.6563" fill="#84BE84" rx="3" ry="3" style="stroke:#038048;stroke-width:1.0;"/><text fill="#000000" font-family="sans-serif" font-size="11" lengthAdjust="spacing" textLength="70" x="288.5" y="476.8667">build() : void</text><ellipse cx="279.5" cy="486.4609" fill="#84BE84" rx="3" ry="3" style="stroke:#038048;stroke-width:1.0;"/><text fill="#000000" font-family="sans-serif" font-size="11" lengthAdjust="spacing" textLength="399" x="288.5" y="489.6714">changeProperty(propertyName: string, propertyValue: unknown) : void</text><ellipse cx="279.5" cy="499.2656" fill="#84BE84" rx="3" ry="3" style="stroke:#038048;stroke-width:1.0;"/><text fill="#000000" font-family="sans-serif" font-size="11" lengthAdjust="spacing" textLength="73" x="288.5" y="502.4761">close() : void</text><ellipse cx="279.5" cy="512.0703" fill="#84BE84" rx="3" ry="3" style="stroke:#038048;stroke-width:1.0;"/><text fill="#000000" font-family="sans-serif" font-size="11" lengthAdjust="spacing" textLength="88" x="288.5" y="515.2808">dispose() : void</text><ellipse cx="279.5" cy="524.875" fill="#84BE84" rx="3" ry="3" style="stroke:#038048;stroke-width:1.0;"/><text fill="#000000" font-family="sans-serif" font-size="11" lengthAdjust="spacing" textLength="220" x="288.5" y="528.0854">equalsToID(patternId: string) : boolean</text><ellipse cx="279.5" cy="537.6797" fill="#84BE84" rx="3" ry="3" style="stroke:#038048;stroke-width:1.0;"/><text fill="#000000" font-family="sans-serif" font-size="11" lengthAdjust="spacing" textLength="71" x="288.5" y="540.8901">open() : void</text><ellipse cx="279.5" cy="550.4844" fill="#84BE84" rx="3" ry="3" style="stroke:#038048;stroke-width:1.0;"/><text fill="#000000" font-family="sans-serif" font-size="11" lengthAdjust="spacing" textLength="290" x="288.5" y="553.6948">registerCallback(callback: OSOnToggleEvent) : void</text><ellipse cx="279.5" cy="563.2891" fill="#84BE84" rx="3" ry="3" style="stroke:#038048;stroke-width:1.0;"/><text fill="#000000" font-family="sans-serif" font-size="11" lengthAdjust="spacing" textLength="170" x="288.5" y="566.4995">removeGestureEvents() : void</text><ellipse cx="279.5" cy="576.0938" fill="#84BE84" rx="3" ry="3" style="stroke:#038048;stroke-width:1.0;"/><text fill="#000000" font-family="sans-serif" font-size="11" lengthAdjust="spacing" textLength="256" x="288.5" y="579.3042">toggleGestures(enableSwipe: boolean) : void</text><polygon fill="#FFFF44" points="279.5,583.8984,283.5,587.8984,279.5,591.8984,275.5,587.8984" style="stroke:#B38D22;stroke-width:1.0;"/><text fill="#000000" font-family="sans-serif" font-size="11" lengthAdjust="spacing" textLength="102" x="288.5" y="592.1089">finishBuild() : void</text><polygon fill="#FFFF44" points="279.5,596.7031,283.5,600.7031,279.5,604.7031,275.5,600.7031" style="stroke:#B38D22;stroke-width:1.0;"/><text fill="#000000" font-family="sans-serif" font-size="11" lengthAdjust="spacing" textLength="148" x="288.5" y="604.9136">setA11YProperties() : void</text><polygon fill="#FFFF44" points="279.5,609.5078,283.5,613.5078,279.5,617.5078,275.5,613.5078" style="stroke:#B38D22;stroke-width:1.0;"/><text fill="#000000" font-family="sans-serif" font-size="11" lengthAdjust="spacing" textLength="115" x="288.5" y="617.7183">setCallbacks() : void</text><polygon fill="#FFFF44" points="279.5,622.3125,283.5,626.3125,279.5,630.3125,275.5,626.3125" style="stroke:#B38D22;stroke-width:1.0;"/><text fill="#000000" font-family="sans-serif" font-size="11" lengthAdjust="spacing" textLength="800" x="288.5" y="630.5229">setGestureEvents(onGestureStartCallback: GestureStart, onGestureMoveCallback: GestureMove, onGestureEndCallback: GestureEnd) : void</text><polygon fill="#FFFF44" points="279.5,635.1172,283.5,639.1172,279.5,643.1172,275.5,639.1172" style="stroke:#B38D22;stroke-width:1.0;"/><text fill="#000000" font-family="sans-serif" font-size="11" lengthAdjust="spacing" textLength="140" x="288.5" y="643.3276">setHtmlElements() : void</text><polygon fill="#FFFF44" points="279.5,647.9219,283.5,651.9219,279.5,655.9219,275.5,651.9219" style="stroke:#B38D22;stroke-width:1.0;"/><text fill="#000000" font-family="sans-serif" font-size="11" lengthAdjust="spacing" textLength="129" x="288.5" y="656.1323">unsetCallbacks() : void</text><polygon fill="#FFFF44" points="279.5,660.7266,283.5,664.7266,279.5,668.7266,275.5,664.7266" style="stroke:#B38D22;stroke-width:1.0;"/><text fill="#000000" font-family="sans-serif" font-size="11" lengthAdjust="spacing" textLength="154" x="288.5" y="668.937">unsetHtmlElements() : void</text><rect fill="#F24D5C" height="6" style="stroke:#C82930;stroke-width:1.0;" width="6" x="276.5" y="675.5313"/><text fill="#000000" font-family="sans-serif" font-size="11" lengthAdjust="spacing" textLength="123" x="288.5" y="681.7417">_closeSidebar() : void</text><rect fill="#F24D5C" height="6" style="stroke:#C82930;stroke-width:1.0;" width="6" x="276.5" y="688.3359"/><text fill="#000000" font-family="sans-serif" font-size="11" lengthAdjust="spacing" textLength="146" x="288.5" y="694.5464">_handleFocusTrap() : void</text><rect fill="#F24D5C" height="6" style="stroke:#C82930;stroke-width:1.0;" width="6" x="276.5" y="701.1406"/><text fill="#000000" font-family="sans-serif" font-size="11" lengthAdjust="spacing" textLength="171" x="288.5" y="707.3511">_handleGestureEvents() : void</text><rect fill="#F24D5C" height="6" style="stroke:#C82930;stroke-width:1.0;" width="6" x="276.5" y="713.9453"/><text fill="#000000" font-family="sans-serif" font-size="11" lengthAdjust="spacing" textLength="441" x="288.5" y="720.1558">_onGestureEnd(offsetX: number, offsetY: number, timeTaken: number) : void</text><rect fill="#F24D5C" height="6" style="stroke:#C82930;stroke-width:1.0;" width="6" x="276.5" y="726.75"/><text fill="#000000" font-family="sans-serif" font-size="11" lengthAdjust="spacing" textLength="560" x="288.5" y="732.9604">_onGestureMove(x: number, y: number, offsetX: number, offsetY: number, evt: TouchEvent) : void</text><rect fill="#F24D5C" height="6" style="stroke:#C82930;stroke-width:1.0;" width="6" x="276.5" y="739.5547"/><text fill="#000000" font-family="sans-serif" font-size="11" lengthAdjust="spacing" textLength="261" x="288.5" y="745.7651">_onGestureStart(x: number, y: number) : void</text><rect fill="#F24D5C" height="6" style="stroke:#C82930;stroke-width:1.0;" width="6" x="276.5" y="752.3594"/><text fill="#000000" font-family="sans-serif" font-size="11" lengthAdjust="spacing" textLength="121" x="288.5" y="758.5698">_openSidebar() : void</text><rect fill="#F24D5C" height="6" style="stroke:#C82930;stroke-width:1.0;" width="6" x="276.5" y="765.1641"/><text fill="#000000" font-family="sans-serif" font-size="11" lengthAdjust="spacing" textLength="327" x="288.5" y="771.3745">_overlayClickCallback(_args: string, e: MouseEvent) : void</text><rect fill="#F24D5C" height="6" style="stroke:#C82930;stroke-width:1.0;" width="6" x="276.5" y="777.9688"/><text fill="#000000" font-family="sans-serif" font-size="11" lengthAdjust="spacing" textLength="130" x="288.5" y="784.1792">_removeEvents() : void</text><rect fill="#F24D5C" height="6" style="stroke:#C82930;stroke-width:1.0;" width="6" x="276.5" y="790.7734"/><text fill="#000000" font-family="sans-serif" font-size="11" lengthAdjust="spacing" textLength="117" x="288.5" y="796.9839">_setDirection() : void</text><rect fill="#F24D5C" height="6" style="stroke:#C82930;stroke-width:1.0;" width="6" x="276.5" y="803.5781"/><text fill="#000000" font-family="sans-serif" font-size="11" lengthAdjust="spacing" textLength="132" x="288.5" y="809.7886">_setHasOverlay() : void</text><rect fill="#F24D5C" height="6" style="stroke:#C82930;stroke-width:1.0;" width="6" x="276.5" y="816.3828"/><text fill="#000000" font-family="sans-serif" font-size="11" lengthAdjust="spacing" textLength="165" x="288.5" y="822.5933">_setInitialCssClasses() : void</text><rect fill="#F24D5C" height="6" style="stroke:#C82930;stroke-width:1.0;" width="6" x="276.5" y="829.1875"/><text fill="#000000" font-family="sans-serif" font-size="11" lengthAdjust="spacing" textLength="97" x="288.5" y="835.3979">_setWidth() : void</text><rect fill="#F24D5C" height="6" style="stroke:#C82930;stroke-width:1.0;" width="6" x="276.5" y="841.9922"/><text fill="#000000" font-family="sans-serif" font-size="11" lengthAdjust="spacing" textLength="291" x="288.5" y="848.2026">_sidebarKeypressCallback(e: KeyboardEvent) : void</text><rect fill="#F24D5C" height="6" style="stroke:#C82930;stroke-width:1.0;" width="6" x="276.5" y="854.7969"/><text fill="#000000" font-family="sans-serif" font-size="11" lengthAdjust="spacing" textLength="84" x="288.5" y="861.0073">_toggle() : void</text><rect fill="#F24D5C" height="6" style="stroke:#C82930;stroke-width:1.0;" width="6" x="276.5" y="867.6016"/><text fill="#000000" font-family="sans-serif" font-size="11" lengthAdjust="spacing" textLength="313" x="288.5" y="873.812">_toggleGesturesSidebar(enableSwipes: boolean) : void</text><rect fill="#F24D5C" height="6" style="stroke:#C82930;stroke-width:1.0;" width="6" x="276.5" y="880.4063"/><text fill="#000000" font-family="sans-serif" font-size="11" lengthAdjust="spacing" textLength="172" x="288.5" y="886.6167">_triggerOnToggleEvent() : void</text><!--MD5=[184066357b4a8c50bbe6185eaf2a7d8e]
class AbstractPattern<SidebarConfig>--><rect codeLine="54" fill="#FFFFFF" filter="url(#f154b19k9lyem9)" height="201.6563" id="AbstractPattern&lt;SidebarConfig&gt;" style="stroke:#272B30;stroke-width:1.5;" width="425" x="9" y="7"/><ellipse cx="114.75" cy="23" fill="#A9DCDF" rx="11" ry="11" style="stroke:#272B30;stroke-width:1.0;"/><path d="M114.8594,18.3438 L113.7031,23.4219 L116.0313,23.4219 L114.8594,18.3438 Z M113.375,16.1094 L116.3594,16.1094 L119.7188,28.5 L117.2656,28.5 L116.5,25.4375 L113.2188,25.4375 L112.4688,28.5 L110.0313,28.5 L113.375,16.1094 Z " fill="#000000"/><text fill="#000000" font-family="sans-serif" font-size="12" font-style="italic" lengthAdjust="spacing" textLength="205" x="135.25" y="27.1543">AbstractPattern&lt;SidebarConfig&gt;</text><line style="stroke:#272B30;stroke-width:1.5;" x1="10" x2="433" y1="39" y2="39"/><polygon fill="none" points="20,45,24,49,20,53,16,49" style="stroke:#B38D22;stroke-width:1.0;"/><text fill="#000000" font-family="sans-serif" font-size="11" lengthAdjust="spacing" textLength="143" x="29" y="53.2104">_selfElem : HTMLElement</text><polygon fill="none" points="20,57.8047,24,61.8047,20,65.8047,16,61.8047" style="stroke:#B38D22;stroke-width:1.0;"/><text fill="#000000" font-family="sans-serif" font-size="11" lengthAdjust="spacing" textLength="98" x="29" y="66.0151">_widgetId : string</text><rect fill="none" height="6" style="stroke:#C82930;stroke-width:1.0;" width="6" x="17" y="72.6094"/><text fill="#000000" font-family="sans-serif" font-size="11" lengthAdjust="spacing" textLength="139" x="29" y="78.8198">_configs : SidebarConfig</text><rect fill="none" height="6" style="stroke:#C82930;stroke-width:1.0;" width="6" x="17" y="85.4141"/><text fill="#000000" font-family="sans-serif" font-size="11" lengthAdjust="spacing" textLength="98" x="29" y="91.6245">_isBuilt : boolean</text><rect fill="none" height="6" style="stroke:#C82930;stroke-width:1.0;" width="6" x="17" y="98.2188"/><text fill="#000000" font-family="sans-serif" font-size="11" lengthAdjust="spacing" textLength="99" x="29" y="104.4292">_uniqueId : string</text><line style="stroke:#272B30;stroke-width:1.5;" x1="10" x2="433" y1="111.0234" y2="111.0234"/><ellipse cx="20" cy="122.0234" fill="#84BE84" rx="3" ry="3" style="stroke:#038048;stroke-width:1.0;"/><text fill="#000000" font-family="sans-serif" font-size="11" lengthAdjust="spacing" textLength="70" x="29" y="125.2339">build() : void</text><ellipse cx="20" cy="134.8281" fill="#84BE84" rx="3" ry="3" style="stroke:#038048;stroke-width:1.0;"/><text fill="#000000" font-family="sans-serif" font-size="11" lengthAdjust="spacing" textLength="399" x="29" y="138.0386">changeProperty(propertyName: string, propertyValue: unknown) : void</text><ellipse cx="20" cy="147.6328" fill="#84BE84" rx="3" ry="3" style="stroke:#038048;stroke-width:1.0;"/><text fill="#000000" font-family="sans-serif" font-size="11" lengthAdjust="spacing" textLength="88" x="29" y="150.8433">dispose() : void</text><ellipse cx="20" cy="160.4375" fill="#84BE84" rx="3" ry="3" style="stroke:#038048;stroke-width:1.0;"/><text fill="#000000" font-family="sans-serif" font-size="11" lengthAdjust="spacing" textLength="220" x="29" y="163.6479">equalsToID(patternId: string) : boolean</text><polygon fill="#FFFF44" points="20,168.2422,24,172.2422,20,176.2422,16,172.2422" style="stroke:#B38D22;stroke-width:1.0;"/><text fill="#000000" font-family="sans-serif" font-size="11" lengthAdjust="spacing" textLength="102" x="29" y="176.4526">finishBuild() : void</text><polygon fill="#FFFF44" points="20,181.0469,24,185.0469,20,189.0469,16,185.0469" style="stroke:#B38D22;stroke-width:1.0;"/><text fill="#000000" font-family="sans-serif" font-size="11" lengthAdjust="spacing" textLength="211" x="29" y="189.2573">_unsetCommonHtmlElements() : void</text><rect fill="#F24D5C" height="6" style="stroke:#C82930;stroke-width:1.0;" width="6" x="17" y="195.8516"/><text fill="#000000" font-family="sans-serif" font-size="11" lengthAdjust="spacing" textLength="197" x="29" y="202.062">_setCommonHtmlElements() : void</text><!--MD5=[269732d4b4d4bad0949a96b3ba380c4a]
class ISidebar--><rect codeLine="69" fill="#FFFFFF" filter="url(#f154b19k9lyem9)" height="201.6563" id="ISidebar" style="stroke:#272B30;stroke-width:1.5;" width="425" x="469" y="7"/><ellipse cx="651.25" cy="23" fill="#B4A7E5" rx="11" ry="11" style="stroke:#272B30;stroke-width:1.0;"/><path d="M647.1719,18.7656 L647.1719,16.6094 L654.5625,16.6094 L654.5625,18.7656 L652.0938,18.7656 L652.0938,26.8438 L654.5625,26.8438 L654.5625,29 L647.1719,29 L647.1719,26.8438 L649.6406,26.8438 L649.6406,18.7656 L647.1719,18.7656 Z " fill="#000000"/><text fill="#000000" font-family="sans-serif" font-size="12" font-style="italic" lengthAdjust="spacing" textLength="52" x="671.75" y="27.1543">ISidebar</text><line style="stroke:#272B30;stroke-width:1.5;" x1="470" x2="893" y1="39" y2="39"/><ellipse cx="480" cy="50" rx="3" ry="3" style="stroke:#038048;stroke-width:1.0;fill:none;"/><text fill="#000000" font-family="sans-serif" font-size="11" lengthAdjust="spacing" textLength="92" x="489" y="53.2104">isBuilt : boolean</text><ellipse cx="480" cy="62.8047" rx="3" ry="3" style="stroke:#038048;stroke-width:1.0;fill:none;"/><text fill="#000000" font-family="sans-serif" font-size="11" lengthAdjust="spacing" textLength="155" x="489" y="66.0151">selfElement : HTMLElement</text><ellipse cx="480" cy="75.6094" rx="3" ry="3" style="stroke:#038048;stroke-width:1.0;fill:none;"/><text fill="#000000" font-family="sans-serif" font-size="11" lengthAdjust="spacing" textLength="93" x="489" y="78.8198">uniqueId : string</text><ellipse cx="480" cy="88.4141" rx="3" ry="3" style="stroke:#038048;stroke-width:1.0;fill:none;"/><text fill="#000000" font-family="sans-serif" font-size="11" lengthAdjust="spacing" textLength="92" x="489" y="91.6245">widgetId : string</text><line style="stroke:#272B30;stroke-width:1.5;" x1="470" x2="893" y1="98.2188" y2="98.2188"/><ellipse cx="480" cy="109.2188" fill="#84BE84" rx="3" ry="3" style="stroke:#038048;stroke-width:1.0;"/><text fill="#000000" font-family="sans-serif" font-size="11" lengthAdjust="spacing" textLength="70" x="489" y="112.4292">build() : void</text><ellipse cx="480" cy="122.0234" fill="#84BE84" rx="3" ry="3" style="stroke:#038048;stroke-width:1.0;"/><text fill="#000000" font-family="sans-serif" font-size="11" lengthAdjust="spacing" textLength="399" x="489" y="125.2339">changeProperty(propertyName: string, propertyValue: unknown) : void</text><ellipse cx="480" cy="134.8281" fill="#84BE84" rx="3" ry="3" style="stroke:#038048;stroke-width:1.0;"/><text fill="#000000" font-family="sans-serif" font-size="11" lengthAdjust="spacing" textLength="73" x="489" y="138.0386">close() : void</text><ellipse cx="480" cy="147.6328" fill="#84BE84" rx="3" ry="3" style="stroke:#038048;stroke-width:1.0;"/><text fill="#000000" font-family="sans-serif" font-size="11" lengthAdjust="spacing" textLength="88" x="489" y="150.8433">dispose() : void</text><ellipse cx="480" cy="160.4375" fill="#84BE84" rx="3" ry="3" style="stroke:#038048;stroke-width:1.0;"/><text fill="#000000" font-family="sans-serif" font-size="11" lengthAdjust="spacing" textLength="179" x="489" y="163.6479">equalsToID(id: string) : boolean</text><ellipse cx="480" cy="173.2422" fill="#84BE84" rx="3" ry="3" style="stroke:#038048;stroke-width:1.0;"/><text fill="#000000" font-family="sans-serif" font-size="11" lengthAdjust="spacing" textLength="71" x="489" y="176.4526">open() : void</text><ellipse cx="480" cy="186.0469" fill="#84BE84" rx="3" ry="3" style="stroke:#038048;stroke-width:1.0;"/><text fill="#000000" font-family="sans-serif" font-size="11" lengthAdjust="spacing" textLength="249" x="489" y="189.2573">registerCallback(callback: OSGeneric) : void</text><ellipse cx="480" cy="198.8516" fill="#84BE84" rx="3" ry="3" style="stroke:#038048;stroke-width:1.0;"/><text fill="#000000" font-family="sans-serif" font-size="11" lengthAdjust="spacing" textLength="231" x="489" y="202.062">toggleGestures(enableSwipe: any) : void</text><!--MD5=[c7d384d600a3e0242a06a7a8e7e541d9]
class IDragEvent--><rect codeLine="84" fill="#FFFFFF" filter="url(#f154b19k9lyem9)" height="99.2188" id="IDragEvent" style="stroke:#272B30;stroke-width:1.5;" width="682" x="929.5" y="58.5"/><ellipse cx="1231.75" cy="74.5" fill="#B4A7E5" rx="11" ry="11" style="stroke:#272B30;stroke-width:1.0;"/><path d="M1227.6719,70.2656 L1227.6719,68.1094 L1235.0625,68.1094 L1235.0625,70.2656 L1232.5938,70.2656 L1232.5938,78.3438 L1235.0625,78.3438 L1235.0625,80.5 L1227.6719,80.5 L1227.6719,78.3438 L1230.1406,78.3438 L1230.1406,70.2656 L1227.6719,70.2656 Z " fill="#000000"/><text fill="#000000" font-family="sans-serif" font-size="12" font-style="italic" lengthAdjust="spacing" textLength="69" x="1252.25" y="78.6543">IDragEvent</text><line style="stroke:#272B30;stroke-width:1.5;" x1="930.5" x2="1610.5" y1="90.5" y2="90.5"/><ellipse cx="940.5" cy="101.5" rx="3" ry="3" style="stroke:#038048;stroke-width:1.0;fill:none;"/><text fill="#000000" font-family="sans-serif" font-size="11" lengthAdjust="spacing" textLength="193" x="949.5" y="104.7104">gestureEventInstance : DragEvent</text><ellipse cx="940.5" cy="114.3047" rx="3" ry="3" style="stroke:#038048;stroke-width:1.0;fill:none;"/><text fill="#000000" font-family="sans-serif" font-size="11" lengthAdjust="spacing" textLength="162" x="949.5" y="117.5151">hasGestureEvents : boolean</text><line style="stroke:#272B30;stroke-width:1.5;" x1="930.5" x2="1610.5" y1="124.1094" y2="124.1094"/><ellipse cx="940.5" cy="135.1094" fill="#84BE84" rx="3" ry="3" style="stroke:#038048;stroke-width:1.0;"/><text fill="#000000" font-family="sans-serif" font-size="11" lengthAdjust="spacing" textLength="170" x="949.5" y="138.3198">removeGestureEvents() : void</text><ellipse cx="940.5" cy="147.9141" fill="#84BE84" rx="3" ry="3" style="stroke:#038048;stroke-width:1.0;"/><text fill="#000000" font-family="sans-serif" font-size="11" lengthAdjust="spacing" textLength="656" x="949.5" y="151.1245">setGestureEvents(onGestureStart: GestureStart, onGestureMove: GestureMove, onGestureEnd: GestureEnd) : any</text><!--MD5=[c7821bf27d84137dbf1cc9265e1627f4]
reverse link AbstractPattern<SidebarConfig> to Sidebar--><path codeLine="68" d="M333.63,223.81 C347.63,238.15 362.43,253.3 377.72,268.96 " fill="none" id="AbstractPattern&lt;SidebarConfig&gt;-backto-Sidebar" style="stroke:#272B30;stroke-width:1.0;"/><polygon fill="none" points="328.3,228.37,319.34,209.18,338.32,218.59,328.3,228.37" style="stroke:#272B30;stroke-width:1.0;"/><!--MD5=[3f69e444cc7e31a92ba3fc9ea432dfe9]
reverse link ISidebar to Sidebar--><path codeLine="83" d="M681.5,229.28 C681.5,241.98 681.5,255.28 681.5,268.96 " fill="none" id="ISidebar-backto-Sidebar" style="stroke:#272B30;stroke-width:1.0;stroke-dasharray:7.0,7.0;"/><polygon fill="none" points="674.5,229.18,681.5,209.18,688.5,229.18,674.5,229.18" style="stroke:#272B30;stroke-width:1.0;"/><!--MD5=[6ae073522ab6ca4f8f1cb3d419ad49e6]
reverse link IDragEvent to Sidebar--><path codeLine="90" d="M1193.71,170.4 C1159.69,197.61 1116.89,231.83 1070.61,268.85 " fill="none" id="IDragEvent-backto-Sidebar" style="stroke:#272B30;stroke-width:1.0;stroke-dasharray:7.0,7.0;"/><polygon fill="none" points="1189.69,164.65,1209.69,157.63,1198.44,175.59,1189.69,164.65" style="stroke:#272B30;stroke-width:1.0;"/><!--MD5=[f18fdb4dfbddf11a86c60b584421b7cb]
@startuml
skinparam ClassArrowColor #272b30
skinparam ClassBorderColor #272b30
skinparam ClassBackgroundColor #fff
skinparam BackgroundColor #ced4da
hide empty methods
hide empty fields
class "Sidebar" {
    #_selfElem : HTMLElement
    #_widgetId : string
    -_animateOnDragInstance : AnimateOnDrag
    -_currentDirectionCssClass : string
    -_eventOverlayClick : Generic
    -_eventSidebarKeypress : Generic
    -_focusTrapInstance : FocusTrap
    -_gestureEventInstance : DragEvent
    -_hasGestureEvents : boolean
    -_isOpen : boolean
    -_onToggle : OSOnToggleEvent
    -_parentSelf : HTMLElement
    +build() : void
    +changeProperty(propertyName: string, propertyValue: unknown) : void
    +close() : void
    +dispose() : void
    +equalsToID(patternId: string) : boolean
    +open() : void
    +registerCallback(callback: OSOnToggleEvent) : void
    +removeGestureEvents() : void
    +toggleGestures(enableSwipe: boolean) : void
    #finishBuild() : void
    #setA11YProperties() : void
    #setCallbacks() : void
    #setGestureEvents(onGestureStartCallback: GestureStart, onGestureMoveCallback: GestureMove, onGestureEndCallback: GestureEnd) : void
    #setHtmlElements() : void
    #unsetCallbacks() : void
    #unsetHtmlElements() : void
    -_closeSidebar() : void
    -_handleFocusTrap() : void
    -_handleGestureEvents() : void
    -_onGestureEnd(offsetX: number, offsetY: number, timeTaken: number) : void
    -_onGestureMove(x: number, y: number, offsetX: number, offsetY: number, evt: TouchEvent) : void
    -_onGestureStart(x: number, y: number) : void
    -_openSidebar() : void
    -_overlayClickCallback(_args: string, e: MouseEvent) : void
    -_removeEvents() : void
    -_setDirection() : void
    -_setHasOverlay() : void
    -_setInitialCssClasses() : void
    -_setWidth() : void
    -_sidebarKeypressCallback(e: KeyboardEvent) : void
    -_toggle() : void
    -_toggleGesturesSidebar(enableSwipes: boolean) : void
    -_triggerOnToggleEvent() : void
}
abstract class "AbstractPattern<SidebarConfig>" {
    #_selfElem : HTMLElement
    #_widgetId : string
    -_configs : SidebarConfig
    -_isBuilt : boolean
    -_uniqueId : string
    +build() : void
    +changeProperty(propertyName: string, propertyValue: unknown) : void
    +dispose() : void
    +equalsToID(patternId: string) : boolean
    #finishBuild() : void
    #_unsetCommonHtmlElements() : void
    -_setCommonHtmlElements() : void
}
"AbstractPattern<SidebarConfig>" <|- - "Sidebar"
interface "ISidebar" {
    +isBuilt : boolean
    +selfElement : HTMLElement
    +uniqueId : string
    +widgetId : string
    +build() : void
    +changeProperty(propertyName: string, propertyValue: unknown) : void
    +close() : void
    +dispose() : void
    +equalsToID(id: string) : boolean
    +open() : void
    +registerCallback(callback: OSGeneric) : void
    +toggleGestures(enableSwipe: any) : void
}
"ISidebar" <|.. "Sidebar"
interface "IDragEvent" {
    +gestureEventInstance : DragEvent
    +hasGestureEvents : boolean
    +removeGestureEvents() : void
    +setGestureEvents(onGestureStart: GestureStart, onGestureMove: GestureMove, onGestureEnd: GestureEnd) : any
}
"IDragEvent" <|.. "Sidebar"
@enduml

PlantUML version 1.2021.14(Fri Nov 12 16:46:50 UTC 2021)
(GPL source distribution)
Java Runtime: OpenJDK Runtime Environment
JVM: OpenJDK 64-Bit Server VM
Default Encoding: UTF-8
Language: en
Country: null
--></g></svg>