<?xml version="1.0" encoding="UTF-8" standalone="no"?><svg xmlns="http://www.w3.org/2000/svg" xmlns:xlink="http://www.w3.org/1999/xlink" contentScriptType="application/ecmascript" contentStyleType="text/css" height="817px" preserveAspectRatio="none" style="width:542px;height:817px;background:#CED4DA;" version="1.1" viewBox="0 0 542 817" width="542px" zoomAndPan="magnify"><defs><filter height="300%" id="f147qdl58iw9ap" width="300%" x="-1" y="-1"><feGaussianBlur result="blurOut" stdDeviation="2.0"/><feColorMatrix in="blurOut" result="blurOut2" type="matrix" values="0 0 0 0 0 0 0 0 0 0 0 0 0 0 0 0 0 0 .4 0"/><feOffset dx="4.0" dy="4.0" in="blurOut2" result="blurOut3"/><feBlend in="SourceGraphic" in2="blurOut3" mode="normal"/></filter></defs><g><!--MD5=[83d421feb00d35ddff7db91c7572d969]
class SplideConfig--><rect codeLine="7" fill="#FFFFFF" filter="url(#f147qdl58iw9ap)" height="406.5313" id="SplideConfig" style="stroke:#272B30;stroke-width:1.5;" width="519" x="9" y="397"/><ellipse cx="225.75" cy="413" fill="#ADD1B2" rx="11" ry="11" style="stroke:#272B30;stroke-width:1.0;"/><path d="M228.7188,418.6406 Q228.1406,418.9375 227.5,419.0781 Q226.8594,419.2344 226.1563,419.2344 Q223.6563,419.2344 222.3281,417.5938 Q221.0156,415.9375 221.0156,412.8125 Q221.0156,409.6875 222.3281,408.0313 Q223.6563,406.375 226.1563,406.375 Q226.8594,406.375 227.5,406.5313 Q228.1563,406.6875 228.7188,406.9844 L228.7188,409.7031 Q228.0938,409.125 227.5,408.8594 Q226.9063,408.5781 226.2813,408.5781 Q224.9375,408.5781 224.25,409.6563 Q223.5625,410.7188 223.5625,412.8125 Q223.5625,414.9063 224.25,415.9844 Q224.9375,417.0469 226.2813,417.0469 Q226.9063,417.0469 227.5,416.7813 Q228.0938,416.5 228.7188,415.9219 L228.7188,418.6406 Z " fill="#000000"/><text fill="#000000" font-family="sans-serif" font-size="12" lengthAdjust="spacing" textLength="77" x="246.25" y="417.1543">SplideConfig</text><line style="stroke:#272B30;stroke-width:1.5;" x1="10" x2="527" y1="429" y2="429"/><ellipse cx="20" cy="440" rx="3" ry="3" style="stroke:#038048;stroke-width:1.0;fill:none;"/><text fill="#000000" font-family="sans-serif" font-size="11" lengthAdjust="spacing" textLength="105" x="29" y="443.2104">AutoPlay : boolean</text><ellipse cx="20" cy="452.8047" rx="3" ry="3" style="stroke:#038048;stroke-width:1.0;fill:none;"/><text fill="#000000" font-family="sans-serif" font-size="11" lengthAdjust="spacing" textLength="148" x="29" y="456.0151">Direction : LTR | RTL | TTB</text><ellipse cx="20" cy="465.6094" rx="3" ry="3" style="stroke:#038048;stroke-width:1.0;fill:none;"/><text fill="#000000" font-family="sans-serif" font-size="11" lengthAdjust="spacing" textLength="129" x="29" y="468.8198">ExtendedClass : string</text><ellipse cx="20" cy="478.4141" rx="3" ry="3" style="stroke:#038048;stroke-width:1.0;fill:none;"/><text fill="#000000" font-family="sans-serif" font-size="11" lengthAdjust="spacing" textLength="137" x="29" y="481.6245">Height : string | number</text><ellipse cx="20" cy="491.2188" rx="3" ry="3" style="stroke:#038048;stroke-width:1.0;fill:none;"/><text fill="#000000" font-family="sans-serif" font-size="11" lengthAdjust="spacing" textLength="134" x="29" y="494.4292">ItemsDesktop : number</text><ellipse cx="20" cy="504.0234" rx="3" ry="3" style="stroke:#038048;stroke-width:1.0;fill:none;"/><text fill="#000000" font-family="sans-serif" font-size="11" lengthAdjust="spacing" textLength="156" x="29" y="507.2339">ItemsGap : string | number</text><ellipse cx="20" cy="516.8281" rx="3" ry="3" style="stroke:#038048;stroke-width:1.0;fill:none;"/><text fill="#000000" font-family="sans-serif" font-size="11" lengthAdjust="spacing" textLength="123" x="29" y="520.0386">ItemsPhone : number</text><ellipse cx="20" cy="529.6328" rx="3" ry="3" style="stroke:#038048;stroke-width:1.0;fill:none;"/><text fill="#000000" font-family="sans-serif" font-size="11" lengthAdjust="spacing" textLength="123" x="29" y="532.8433">ItemsTablet : number</text><ellipse cx="20" cy="542.4375" rx="3" ry="3" style="stroke:#038048;stroke-width:1.0;fill:none;"/><text fill="#000000" font-family="sans-serif" font-size="11" lengthAdjust="spacing" textLength="84" x="29" y="545.6479">Loop : boolean</text><ellipse cx="20" cy="555.2422" rx="3" ry="3" style="stroke:#038048;stroke-width:1.0;fill:none;"/><text fill="#000000" font-family="sans-serif" font-size="11" lengthAdjust="spacing" textLength="130" x="29" y="558.4526">Navigation : Navigation</text><ellipse cx="20" cy="568.0469" rx="3" ry="3" style="stroke:#038048;stroke-width:1.0;fill:none;"/><text fill="#000000" font-family="sans-serif" font-size="11" lengthAdjust="spacing" textLength="146" x="29" y="571.2573">Padding : string | number</text><ellipse cx="20" cy="580.8516" rx="3" ry="3" style="stroke:#038048;stroke-width:1.0;fill:none;"/><text fill="#000000" font-family="sans-serif" font-size="11" lengthAdjust="spacing" textLength="146" x="29" y="584.062">StartingPosition : number</text><polygon fill="none" points="20,588.6563,24,592.6563,20,596.6563,16,592.6563" style="stroke:#B38D22;stroke-width:1.0;"/><text fill="#000000" font-family="sans-serif" font-size="11" lengthAdjust="spacing" textLength="205" x="29" y="596.8667">_providerExtendedOptions : Options</text><rect fill="none" height="6" style="stroke:#C82930;stroke-width:1.0;" width="6" x="17" y="603.4609"/><text fill="#000000" font-family="sans-serif" font-size="11" lengthAdjust="spacing" textLength="153" x="29" y="609.6714">_providerOptions : Options</text><line style="stroke:#272B30;stroke-width:1.5;" x1="10" x2="527" y1="616.2656" y2="616.2656"/><ellipse cx="20" cy="627.2656" fill="#84BE84" rx="3" ry="3" style="stroke:#038048;stroke-width:1.0;"/><text fill="#000000" font-family="sans-serif" font-size="11" lengthAdjust="spacing" textLength="165" x="29" y="630.4761">getProviderConfig() : Options</text><ellipse cx="20" cy="640.0703" fill="#84BE84" rx="3" ry="3" style="stroke:#038048;stroke-width:1.0;"/><text fill="#000000" font-family="sans-serif" font-size="11" lengthAdjust="spacing" textLength="289" x="29" y="643.2808">setExtensibilityConfigs(newConfigs: Options) : void</text><ellipse cx="20" cy="652.875" fill="#84BE84" rx="3" ry="3" style="stroke:#038048;stroke-width:1.0;"/><text fill="#000000" font-family="sans-serif" font-size="11" lengthAdjust="spacing" textLength="330" x="29" y="656.0854">validateCanChange(isBuilt: boolean, key: string) : boolean</text><ellipse cx="20" cy="665.6797" fill="#84BE84" rx="3" ry="3" style="stroke:#038048;stroke-width:1.0;"/><text fill="#000000" font-family="sans-serif" font-size="11" lengthAdjust="spacing" textLength="310" x="29" y="668.8901">validateDefault(key: string, value: unknown) : unknown</text><polygon fill="#FFFF44" points="20,673.4844,24,677.4844,20,681.4844,16,677.4844" style="stroke:#B38D22;stroke-width:1.0;"/><text fill="#000000" font-family="sans-serif" font-size="11" lengthAdjust="spacing" textLength="493" x="29" y="681.6948">mergeConfigs(commonConfigs: any, specificConfigs: any, extendedConfigs: any) : any</text><polygon fill="#FFFF44" points="20,686.2891,24,690.2891,20,694.2891,16,690.2891" style="stroke:#B38D22;stroke-width:1.0;"/><text fill="#000000" font-family="sans-serif" font-size="11" lengthAdjust="spacing" textLength="369" x="29" y="694.4995">validateBoolean(value: boolean, defaultValue: boolean) : boolean</text><polygon fill="#FFFF44" points="20,699.0938,24,703.0938,20,707.0938,16,703.0938" style="stroke:#B38D22;stroke-width:1.0;"/><text fill="#000000" font-family="sans-serif" font-size="11" lengthAdjust="spacing" textLength="389" x="29" y="707.3042">validateDate(value: string | Date, defaultValue: string) : string | Date</text><polygon fill="#FFFF44" points="20,711.8984,24,715.8984,20,719.8984,16,715.8984" style="stroke:#B38D22;stroke-width:1.0;"/><text fill="#000000" font-family="sans-serif" font-size="11" lengthAdjust="spacing" textLength="483" x="29" y="720.1089">validateInRange(value: unknown, defaultValue: unknown, args: unknown[]) : unknown</text><polygon fill="#FFFF44" points="20,724.7031,24,728.7031,20,732.7031,16,728.7031" style="stroke:#B38D22;stroke-width:1.0;"/><text fill="#000000" font-family="sans-serif" font-size="11" lengthAdjust="spacing" textLength="365" x="29" y="732.9136">validateNumber(value: number, defaultValue: number) : number</text><polygon fill="#FFFF44" points="20,737.5078,24,741.5078,20,745.5078,16,741.5078" style="stroke:#B38D22;stroke-width:1.0;"/><text fill="#000000" font-family="sans-serif" font-size="11" lengthAdjust="spacing" textLength="321" x="29" y="745.7183">validateString(value: string, defaultValue: string) : string</text><polygon fill="#FFFF44" points="20,750.3125,24,754.3125,20,758.3125,16,754.3125" style="stroke:#B38D22;stroke-width:1.0;"/><text fill="#000000" font-family="sans-serif" font-size="11" lengthAdjust="spacing" textLength="315" x="29" y="758.5229">validateTime(value: string, defaultValue: string) : string</text><rect fill="#F24D5C" height="6" style="stroke:#C82930;stroke-width:1.0;" width="6" x="17" y="765.1172"/><text fill="#000000" font-family="sans-serif" font-size="11" lengthAdjust="spacing" textLength="158" x="29" y="771.3276">_getArrowConfig() : boolean</text><rect fill="#F24D5C" height="6" style="stroke:#C82930;stroke-width:1.0;" width="6" x="17" y="777.9219"/><text fill="#000000" font-family="sans-serif" font-size="11" lengthAdjust="spacing" textLength="216" x="29" y="784.1323">_getDirectionConfig() : LTR | RTL | TTB</text><rect fill="#F24D5C" height="6" style="stroke:#C82930;stroke-width:1.0;" width="6" x="17" y="790.7266"/><text fill="#000000" font-family="sans-serif" font-size="11" lengthAdjust="spacing" textLength="184" x="29" y="796.937">_getPaginationConfig() : boolean</text><!--MD5=[eb6a85cabefbf3cc45c514bc4cf0b019]
class AbstractCarouselConfig--><rect codeLine="37" fill="#FFFFFF" filter="url(#f147qdl58iw9ap)" height="329.7031" id="AbstractCarouselConfig" style="stroke:#272B30;stroke-width:1.5;" width="519" x="9" y="7"/><ellipse cx="191.75" cy="23" fill="#A9DCDF" rx="11" ry="11" style="stroke:#272B30;stroke-width:1.0;"/><path d="M191.8594,18.3438 L190.7031,23.4219 L193.0313,23.4219 L191.8594,18.3438 Z M190.375,16.1094 L193.3594,16.1094 L196.7188,28.5 L194.2656,28.5 L193.5,25.4375 L190.2188,25.4375 L189.4688,28.5 L187.0313,28.5 L190.375,16.1094 Z " fill="#000000"/><text fill="#000000" font-family="sans-serif" font-size="12" font-style="italic" lengthAdjust="spacing" textLength="145" x="212.25" y="27.1543">AbstractCarouselConfig</text><line style="stroke:#272B30;stroke-width:1.5;" x1="10" x2="527" y1="39" y2="39"/><ellipse cx="20" cy="50" rx="3" ry="3" style="stroke:#038048;stroke-width:1.0;fill:none;"/><text fill="#000000" font-family="sans-serif" font-size="11" lengthAdjust="spacing" textLength="105" x="29" y="53.2104">AutoPlay : boolean</text><ellipse cx="20" cy="62.8047" rx="3" ry="3" style="stroke:#038048;stroke-width:1.0;fill:none;"/><text fill="#000000" font-family="sans-serif" font-size="11" lengthAdjust="spacing" textLength="148" x="29" y="66.0151">Direction : LTR | RTL | TTB</text><ellipse cx="20" cy="75.6094" rx="3" ry="3" style="stroke:#038048;stroke-width:1.0;fill:none;"/><text fill="#000000" font-family="sans-serif" font-size="11" lengthAdjust="spacing" textLength="129" x="29" y="78.8198">ExtendedClass : string</text><ellipse cx="20" cy="88.4141" rx="3" ry="3" style="stroke:#038048;stroke-width:1.0;fill:none;"/><text fill="#000000" font-family="sans-serif" font-size="11" lengthAdjust="spacing" textLength="137" x="29" y="91.6245">Height : string | number</text><ellipse cx="20" cy="101.2188" rx="3" ry="3" style="stroke:#038048;stroke-width:1.0;fill:none;"/><text fill="#000000" font-family="sans-serif" font-size="11" lengthAdjust="spacing" textLength="134" x="29" y="104.4292">ItemsDesktop : number</text><ellipse cx="20" cy="114.0234" rx="3" ry="3" style="stroke:#038048;stroke-width:1.0;fill:none;"/><text fill="#000000" font-family="sans-serif" font-size="11" lengthAdjust="spacing" textLength="156" x="29" y="117.2339">ItemsGap : string | number</text><ellipse cx="20" cy="126.8281" rx="3" ry="3" style="stroke:#038048;stroke-width:1.0;fill:none;"/><text fill="#000000" font-family="sans-serif" font-size="11" lengthAdjust="spacing" textLength="123" x="29" y="130.0386">ItemsPhone : number</text><ellipse cx="20" cy="139.6328" rx="3" ry="3" style="stroke:#038048;stroke-width:1.0;fill:none;"/><text fill="#000000" font-family="sans-serif" font-size="11" lengthAdjust="spacing" textLength="123" x="29" y="142.8433">ItemsTablet : number</text><ellipse cx="20" cy="152.4375" rx="3" ry="3" style="stroke:#038048;stroke-width:1.0;fill:none;"/><text fill="#000000" font-family="sans-serif" font-size="11" lengthAdjust="spacing" textLength="84" x="29" y="155.6479">Loop : boolean</text><ellipse cx="20" cy="165.2422" rx="3" ry="3" style="stroke:#038048;stroke-width:1.0;fill:none;"/><text fill="#000000" font-family="sans-serif" font-size="11" lengthAdjust="spacing" textLength="130" x="29" y="168.4526">Navigation : Navigation</text><ellipse cx="20" cy="178.0469" rx="3" ry="3" style="stroke:#038048;stroke-width:1.0;fill:none;"/><text fill="#000000" font-family="sans-serif" font-size="11" lengthAdjust="spacing" textLength="146" x="29" y="181.2573">Padding : string | number</text><ellipse cx="20" cy="190.8516" rx="3" ry="3" style="stroke:#038048;stroke-width:1.0;fill:none;"/><text fill="#000000" font-family="sans-serif" font-size="11" lengthAdjust="spacing" textLength="146" x="29" y="194.062">StartingPosition : number</text><line style="stroke:#272B30;stroke-width:1.5;" x1="10" x2="527" y1="200.6563" y2="200.6563"/><ellipse cx="20" cy="211.6563" fill="#84BE84" rx="3" ry="3" style="stroke:#038048;stroke-width:1.0;"/><text fill="#000000" font-family="sans-serif" font-size="11" font-style="italic" lengthAdjust="spacing" textLength="143" x="29" y="214.8667">getProviderConfig() : any</text><ellipse cx="20" cy="224.4609" fill="#84BE84" rx="3" ry="3" style="stroke:#038048;stroke-width:1.0;"/><text fill="#000000" font-family="sans-serif" font-size="11" lengthAdjust="spacing" textLength="330" x="29" y="227.6714">validateCanChange(isBuilt: boolean, key: string) : boolean</text><ellipse cx="20" cy="237.2656" fill="#84BE84" rx="3" ry="3" style="stroke:#038048;stroke-width:1.0;"/><text fill="#000000" font-family="sans-serif" font-size="11" lengthAdjust="spacing" textLength="310" x="29" y="240.4761">validateDefault(key: string, value: unknown) : unknown</text><polygon fill="#FFFF44" points="20,245.0703,24,249.0703,20,253.0703,16,249.0703" style="stroke:#B38D22;stroke-width:1.0;"/><text fill="#000000" font-family="sans-serif" font-size="11" lengthAdjust="spacing" textLength="493" x="29" y="253.2808">mergeConfigs(commonConfigs: any, specificConfigs: any, extendedConfigs: any) : any</text><polygon fill="#FFFF44" points="20,257.875,24,261.875,20,265.875,16,261.875" style="stroke:#B38D22;stroke-width:1.0;"/><text fill="#000000" font-family="sans-serif" font-size="11" lengthAdjust="spacing" textLength="369" x="29" y="266.0854">validateBoolean(value: boolean, defaultValue: boolean) : boolean</text><polygon fill="#FFFF44" points="20,270.6797,24,274.6797,20,278.6797,16,274.6797" style="stroke:#B38D22;stroke-width:1.0;"/><text fill="#000000" font-family="sans-serif" font-size="11" lengthAdjust="spacing" textLength="389" x="29" y="278.8901">validateDate(value: string | Date, defaultValue: string) : string | Date</text><polygon fill="#FFFF44" points="20,283.4844,24,287.4844,20,291.4844,16,287.4844" style="stroke:#B38D22;stroke-width:1.0;"/><text fill="#000000" font-family="sans-serif" font-size="11" lengthAdjust="spacing" textLength="483" x="29" y="291.6948">validateInRange(value: unknown, defaultValue: unknown, args: unknown[]) : unknown</text><polygon fill="#FFFF44" points="20,296.2891,24,300.2891,20,304.2891,16,300.2891" style="stroke:#B38D22;stroke-width:1.0;"/><text fill="#000000" font-family="sans-serif" font-size="11" lengthAdjust="spacing" textLength="365" x="29" y="304.4995">validateNumber(value: number, defaultValue: number) : number</text><polygon fill="#FFFF44" points="20,309.0938,24,313.0938,20,317.0938,16,313.0938" style="stroke:#B38D22;stroke-width:1.0;"/><text fill="#000000" font-family="sans-serif" font-size="11" lengthAdjust="spacing" textLength="321" x="29" y="317.3042">validateString(value: string, defaultValue: string) : string</text><polygon fill="#FFFF44" points="20,321.8984,24,325.8984,20,329.8984,16,325.8984" style="stroke:#B38D22;stroke-width:1.0;"/><text fill="#000000" font-family="sans-serif" font-size="11" lengthAdjust="spacing" textLength="315" x="29" y="330.1089">validateTime(value: string, defaultValue: string) : string</text><!--MD5=[0cd2fe99fb309b46be7795196fc49d98]
reverse link AbstractCarouselConfig to SplideConfig--><path codeLine="61" d="M268.5,357.55 C268.5,370.53 268.5,383.67 268.5,396.75 " fill="none" id="AbstractCarouselConfig-backto-SplideConfig" style="stroke:#272B30;stroke-width:1.0;"/><polygon fill="none" points="261.5,357.29,268.5,337.29,275.5,357.29,261.5,357.29" style="stroke:#272B30;stroke-width:1.0;"/><!--MD5=[74140dc84109269049110a939e424ce1]
@startuml
skinparam ClassArrowColor #272b30
skinparam ClassBorderColor #272b30
skinparam ClassBackgroundColor #fff
skinparam BackgroundColor #ced4da
hide empty methods
hide empty fields
class "SplideConfig" {
    +AutoPlay : boolean
    +Direction : LTR | RTL | TTB
    +ExtendedClass : string
    +Height : string | number
    +ItemsDesktop : number
    +ItemsGap : string | number
    +ItemsPhone : number
    +ItemsTablet : number
    +Loop : boolean
    +Navigation : Navigation
    +Padding : string | number
    +StartingPosition : number
    #_providerExtendedOptions : Options
    -_providerOptions : Options
    +getProviderConfig() : Options
    +setExtensibilityConfigs(newConfigs: Options) : void
    +validateCanChange(isBuilt: boolean, key: string) : boolean
    +validateDefault(key: string, value: unknown) : unknown
    #mergeConfigs(commonConfigs: any, specificConfigs: any, extendedConfigs: any) : any
    #validateBoolean(value: boolean, defaultValue: boolean) : boolean
    #validateDate(value: string | Date, defaultValue: string) : string | Date
    #validateInRange(value: unknown, defaultValue: unknown, args: unknown[]) : unknown
    #validateNumber(value: number, defaultValue: number) : number
    #validateString(value: string, defaultValue: string) : string
    #validateTime(value: string, defaultValue: string) : string
    -_getArrowConfig() : boolean
    -_getDirectionConfig() : LTR | RTL | TTB
    -_getPaginationConfig() : boolean
}
abstract class "AbstractCarouselConfig" {
    +AutoPlay : boolean
    +Direction : LTR | RTL | TTB
    +ExtendedClass : string
    +Height : string | number
    +ItemsDesktop : number
    +ItemsGap : string | number
    +ItemsPhone : number
    +ItemsTablet : number
    +Loop : boolean
    +Navigation : Navigation
    +Padding : string | number
    +StartingPosition : number
    {abstract} +getProviderConfig() : any
    +validateCanChange(isBuilt: boolean, key: string) : boolean
    +validateDefault(key: string, value: unknown) : unknown
    #mergeConfigs(commonConfigs: any, specificConfigs: any, extendedConfigs: any) : any
    #validateBoolean(value: boolean, defaultValue: boolean) : boolean
    #validateDate(value: string | Date, defaultValue: string) : string | Date
    #validateInRange(value: unknown, defaultValue: unknown, args: unknown[]) : unknown
    #validateNumber(value: number, defaultValue: number) : number
    #validateString(value: string, defaultValue: string) : string
    #validateTime(value: string, defaultValue: string) : string
}
"AbstractCarouselConfig" <|- - "SplideConfig"
@enduml

PlantUML version 1.2021.14(Fri Nov 12 16:46:50 UTC 2021)
(GPL source distribution)
Java Runtime: OpenJDK Runtime Environment
JVM: OpenJDK 64-Bit Server VM
Default Encoding: UTF-8
Language: en
Country: null
--></g></svg>