<?xml version="1.0" encoding="us-ascii" standalone="no"?><svg xmlns="http://www.w3.org/2000/svg" xmlns:xlink="http://www.w3.org/1999/xlink" contentStyleType="text/css" height="1422px" preserveAspectRatio="none" style="width:1155px;height:1422px;background:#CED4DA;" version="1.1" viewBox="0 0 1155 1422" width="1155px" zoomAndPan="magnify"><defs/><g><rect fill="#CED4DA" height="1422" style="stroke:none;stroke-width:1.0;" width="1155" x="0" y="0"/><!--class Submenu--><g id="elem_Submenu"><rect codeLine="7" fill="#FFFFFF" height="921.8789" id="Submenu" rx="2.5" ry="2.5" style="stroke:#272B30;stroke-width:0.5;" width="596" x="302" y="494"/><ellipse cx="563.25" cy="510" fill="#ADD1B2" rx="11" ry="11" style="stroke:#181818;stroke-width:1.0;"/><path d="M565.7231,516.1431 Q565.1421,516.4419 564.5029,516.5913 Q563.8638,516.7407 563.1582,516.7407 Q560.6514,516.7407 559.3315,515.0889 Q558.0117,513.437 558.0117,510.3159 Q558.0117,507.1865 559.3315,505.5347 Q560.6514,503.8828 563.1582,503.8828 Q563.8638,503.8828 564.5112,504.0322 Q565.1587,504.1816 565.7231,504.4805 L565.7231,507.2031 Q565.0923,506.6221 564.4988,506.3523 Q563.9053,506.0825 563.2744,506.0825 Q561.9297,506.0825 561.2449,507.1492 Q560.5601,508.2158 560.5601,510.3159 Q560.5601,512.4077 561.2449,513.4744 Q561.9297,514.541 563.2744,514.541 Q563.9053,514.541 564.4988,514.2712 Q565.0923,514.0015 565.7231,513.4204 Z " fill="#000000"/><text fill="#000000" font-family="sans-serif" font-size="14" lengthAdjust="spacing" textLength="65" x="583.75" y="515.291">Submenu</text><line style="stroke:#272B30;stroke-width:0.5;" x1="303" x2="897" y1="526" y2="526"/><ellipse cx="313" cy="539.7441" fill="none" rx="3" ry="3" style="stroke:#038048;stroke-width:1.0;"/><text fill="#000000" font-family="sans-serif" font-size="14" lengthAdjust="spacing" textLength="234" x="322" y="543.5352">hasClickOutsideToClose : boolean</text><polygon fill="none" points="313,551.2324,317,555.2324,313,559.2324,309,555.2324" style="stroke:#B38D22;stroke-width:1.0;"/><text fill="#000000" font-family="sans-serif" font-size="14" lengthAdjust="spacing" textLength="176" x="322" y="560.0234">isProviderBased : boolean</text><rect fill="none" height="6" style="stroke:#C82930;stroke-width:1.0;" width="6" x="310" y="569.7207"/><text fill="#000000" font-family="sans-serif" font-size="14" lengthAdjust="spacing" textLength="220" x="322" y="576.5117">_eventBalloonKeypress : Generic</text><rect fill="none" height="6" style="stroke:#C82930;stroke-width:1.0;" width="6" x="310" y="586.209"/><text fill="#000000" font-family="sans-serif" font-size="14" lengthAdjust="spacing" textLength="141" x="322" y="593">_eventClick : Generic</text><rect fill="none" height="6" style="stroke:#C82930;stroke-width:1.0;" width="6" x="310" y="602.6973"/><text fill="#000000" font-family="sans-serif" font-size="14" lengthAdjust="spacing" textLength="169" x="322" y="609.4883">_eventKeypress : Generic</text><rect fill="none" height="6" style="stroke:#C82930;stroke-width:1.0;" width="6" x="310" y="619.1855"/><text fill="#000000" font-family="sans-serif" font-size="14" lengthAdjust="spacing" textLength="209" x="322" y="625.9766">_eventOnMouseEnter : Generic</text><rect fill="none" height="6" style="stroke:#C82930;stroke-width:1.0;" width="6" x="310" y="635.6738"/><text fill="#000000" font-family="sans-serif" font-size="14" lengthAdjust="spacing" textLength="211" x="322" y="642.4648">_eventOnMouseLeave : Generic</text><rect fill="none" height="6" style="stroke:#C82930;stroke-width:1.0;" width="6" x="310" y="652.1621"/><text fill="#000000" font-family="sans-serif" font-size="14" lengthAdjust="spacing" textLength="273" x="322" y="658.9531">_focusManagerInstance : FocusManager</text><rect fill="none" height="6" style="stroke:#C82930;stroke-width:1.0;" width="6" x="310" y="668.6504"/><text fill="#000000" font-family="sans-serif" font-size="14" lengthAdjust="spacing" textLength="217" x="322" y="675.4414">_focusTrapInstance : FocusTrap</text><rect fill="none" height="6" style="stroke:#C82930;stroke-width:1.0;" width="6" x="310" y="685.1387"/><text fill="#000000" font-family="sans-serif" font-size="14" lengthAdjust="spacing" textLength="184" x="322" y="691.9297">_globalEventBody : Generic</text><rect fill="none" height="6" style="stroke:#C82930;stroke-width:1.0;" width="6" x="310" y="701.627"/><text fill="#000000" font-family="sans-serif" font-size="14" lengthAdjust="spacing" textLength="175" x="322" y="708.418">_hasActiveLinks : boolean</text><rect fill="none" height="6" style="stroke:#C82930;stroke-width:1.0;" width="6" x="310" y="718.1152"/><text fill="#000000" font-family="sans-serif" font-size="14" lengthAdjust="spacing" textLength="161" x="322" y="724.9063">_hasElements : boolean</text><rect fill="none" height="6" style="stroke:#C82930;stroke-width:1.0;" width="6" x="310" y="734.6035"/><text fill="#000000" font-family="sans-serif" font-size="14" lengthAdjust="spacing" textLength="127" x="322" y="741.3945">_isActive : boolean</text><rect fill="none" height="6" style="stroke:#C82930;stroke-width:1.0;" width="6" x="310" y="751.0918"/><text fill="#000000" font-family="sans-serif" font-size="14" lengthAdjust="spacing" textLength="123" x="322" y="757.8828">_isOpen : boolean</text><rect fill="none" height="6" style="stroke:#C82930;stroke-width:1.0;" width="6" x="310" y="767.5801"/><text fill="#000000" font-family="sans-serif" font-size="14" lengthAdjust="spacing" textLength="312" x="322" y="774.3711">_platformEventOnToggleCallback : OSGeneric</text><rect fill="none" height="6" style="stroke:#C82930;stroke-width:1.0;" width="6" x="310" y="784.0684"/><text fill="#000000" font-family="sans-serif" font-size="14" lengthAdjust="spacing" textLength="307" x="322" y="790.8594">_submenuActiveLinksElement : HTMLElement</text><rect fill="none" height="6" style="stroke:#C82930;stroke-width:1.0;" width="6" x="310" y="800.5566"/><text fill="#000000" font-family="sans-serif" font-size="14" lengthAdjust="spacing" textLength="344" x="322" y="807.3477">_submenuAllLinksElement : HTMLAnchorElement[]</text><rect fill="none" height="6" style="stroke:#C82930;stroke-width:1.0;" width="6" x="310" y="817.0449"/><text fill="#000000" font-family="sans-serif" font-size="14" lengthAdjust="spacing" textLength="280" x="322" y="823.8359">_submenuHeaderElement : HTMLElement</text><rect fill="none" height="6" style="stroke:#C82930;stroke-width:1.0;" width="6" x="310" y="833.5332"/><text fill="#000000" font-family="sans-serif" font-size="14" lengthAdjust="spacing" textLength="266" x="322" y="840.3242">_submenuLinksElement : HTMLElement</text><line style="stroke:#272B30;stroke-width:0.5;" x1="303" x2="897" y1="847.2773" y2="847.2773"/><ellipse cx="313" cy="861.0215" fill="#84BE84" rx="3" ry="3" style="stroke:#038048;stroke-width:1.0;"/><text fill="#000000" font-family="sans-serif" font-size="14" lengthAdjust="spacing" textLength="86" x="322" y="864.8125">build() : void</text><ellipse cx="313" cy="877.5098" fill="#84BE84" rx="3" ry="3" style="stroke:#038048;stroke-width:1.0;"/><text fill="#000000" font-family="sans-serif" font-size="14" lengthAdjust="spacing" textLength="482" x="322" y="881.3008">changeProperty(propertyName: string, propertyValue: unknown) : void</text><ellipse cx="313" cy="893.998" fill="#84BE84" rx="3" ry="3" style="stroke:#038048;stroke-width:1.0;"/><text fill="#000000" font-family="sans-serif" font-size="14" lengthAdjust="spacing" textLength="393" x="322" y="897.7891">clickOutsideToClose(clickOutsideToClose: boolean) : void</text><ellipse cx="313" cy="910.4863" fill="#84BE84" rx="3" ry="3" style="stroke:#038048;stroke-width:1.0;"/><text fill="#000000" font-family="sans-serif" font-size="14" lengthAdjust="spacing" textLength="86" x="322" y="914.2773">close() : void</text><ellipse cx="313" cy="926.9746" fill="#84BE84" rx="3" ry="3" style="stroke:#038048;stroke-width:1.0;"/><text fill="#000000" font-family="sans-serif" font-size="14" lengthAdjust="spacing" textLength="104" x="322" y="930.7656">dispose() : void</text><ellipse cx="313" cy="943.4629" fill="#84BE84" rx="3" ry="3" style="stroke:#038048;stroke-width:1.0;"/><text fill="#000000" font-family="sans-serif" font-size="14" lengthAdjust="spacing" textLength="266" x="322" y="947.2539">equalsToID(patternId: string) : boolean</text><ellipse cx="313" cy="959.9512" fill="#84BE84" rx="3" ry="3" style="stroke:#038048;stroke-width:1.0;"/><text fill="#000000" font-family="sans-serif" font-size="14" lengthAdjust="spacing" textLength="86" x="322" y="963.7422">open() : void</text><ellipse cx="313" cy="976.4395" fill="#84BE84" rx="3" ry="3" style="stroke:#038048;stroke-width:1.0;"/><text fill="#000000" font-family="sans-serif" font-size="14" lengthAdjust="spacing" textLength="428" x="322" y="980.2305">registerCallback(eventName: string, callback: OSGeneric) : void</text><ellipse cx="313" cy="992.9277" fill="#84BE84" rx="3" ry="3" style="stroke:#038048;stroke-width:1.0;"/><text fill="#000000" font-family="sans-serif" font-size="14" lengthAdjust="spacing" textLength="168" x="322" y="996.7188">setOpenOnHover() : void</text><ellipse cx="313" cy="1009.416" fill="#84BE84" rx="3" ry="3" style="stroke:#038048;stroke-width:1.0;"/><text fill="#000000" font-family="sans-serif" font-size="14" lengthAdjust="spacing" textLength="168" x="322" y="1013.207">updateOnRender() : void</text><polygon fill="#FFFF44" points="313,1020.9043,317,1024.9043,313,1028.9043,309,1024.9043" style="stroke:#B38D22;stroke-width:1.0;"/><text fill="#000000" font-family="sans-serif" font-size="14" lengthAdjust="spacing" textLength="123" x="322" y="1029.6953">finishBuild() : void</text><polygon fill="#FFFF44" points="313,1037.3926,317,1041.3926,313,1045.3926,309,1041.3926" style="stroke:#B38D22;stroke-width:1.0;"/><text fill="#000000" font-family="sans-serif" font-size="14" lengthAdjust="spacing" textLength="178" x="322" y="1046.1836">setA11YProperties() : void</text><polygon fill="#FFFF44" points="313,1053.8809,317,1057.8809,313,1061.8809,309,1057.8809" style="stroke:#B38D22;stroke-width:1.0;"/><text fill="#000000" font-family="sans-serif" font-size="14" lengthAdjust="spacing" textLength="136" x="322" y="1062.6719">setCallbacks() : void</text><polygon fill="#FFFF44" points="313,1070.3691,317,1074.3691,313,1078.3691,309,1074.3691" style="stroke:#B38D22;stroke-width:1.0;"/><text fill="#000000" font-family="sans-serif" font-size="14" lengthAdjust="spacing" textLength="165" x="322" y="1079.1602">setHtmlElements() : void</text><polygon fill="#FFFF44" points="313,1086.8574,317,1090.8574,313,1094.8574,309,1090.8574" style="stroke:#B38D22;stroke-width:1.0;"/><text fill="#000000" font-family="sans-serif" font-size="14" lengthAdjust="spacing" textLength="150" x="322" y="1095.6484">setInitialStates() : void</text><polygon fill="#FFFF44" points="313,1103.3457,317,1107.3457,313,1111.3457,309,1107.3457" style="stroke:#B38D22;stroke-width:1.0;"/><text fill="#000000" font-family="sans-serif" font-size="14" lengthAdjust="spacing" textLength="570" x="322" y="1112.1367">triggerPlatformEventCallback(platFormCallback: OSGeneric, args: unknown[]) : void</text><polygon fill="#FFFF44" points="313,1119.834,317,1123.834,313,1127.834,309,1123.834" style="stroke:#B38D22;stroke-width:1.0;"/><text fill="#000000" font-family="sans-serif" font-size="14" lengthAdjust="spacing" textLength="318" x="322" y="1128.625">triggerPlatformInitializedEventCallback() : void</text><polygon fill="#FFFF44" points="313,1136.3223,317,1140.3223,313,1144.3223,309,1140.3223" style="stroke:#B38D22;stroke-width:1.0;"/><text fill="#000000" font-family="sans-serif" font-size="14" lengthAdjust="spacing" textLength="154" x="322" y="1145.1133">unsetCallbacks() : void</text><polygon fill="#FFFF44" points="313,1152.8105,317,1156.8105,313,1160.8105,309,1156.8105" style="stroke:#B38D22;stroke-width:1.0;"/><text fill="#000000" font-family="sans-serif" font-size="14" lengthAdjust="spacing" textLength="198" x="322" y="1161.6016">unsetGlobalCallbacks() : void</text><polygon fill="#FFFF44" points="313,1169.2988,317,1173.2988,313,1177.2988,309,1173.2988" style="stroke:#B38D22;stroke-width:1.0;"/><text fill="#000000" font-family="sans-serif" font-size="14" lengthAdjust="spacing" textLength="183" x="322" y="1178.0898">unsetHtmlElements() : void</text><rect fill="#F24D5C" height="6" style="stroke:#C82930;stroke-width:1.0;" width="6" x="310" y="1187.7871"/><text fill="#000000" font-family="sans-serif" font-size="14" lengthAdjust="spacing" textLength="374" x="322" y="1194.5781">_bodyClickCallback(_args: string, e: MouseEvent) : void</text><rect fill="#F24D5C" height="6" style="stroke:#C82930;stroke-width:1.0;" width="6" x="310" y="1204.2754"/><text fill="#000000" font-family="sans-serif" font-size="14" lengthAdjust="spacing" textLength="196" x="322" y="1211.0664">_checkForActiveLinks() : void</text><rect fill="#F24D5C" height="6" style="stroke:#C82930;stroke-width:1.0;" width="6" x="310" y="1220.7637"/><text fill="#000000" font-family="sans-serif" font-size="14" lengthAdjust="spacing" textLength="146" x="322" y="1227.5547">_clickCallback() : void</text><rect fill="#F24D5C" height="6" style="stroke:#C82930;stroke-width:1.0;" width="6" x="310" y="1237.252"/><text fill="#000000" font-family="sans-serif" font-size="14" lengthAdjust="spacing" textLength="204" x="322" y="1244.043">_handleFocusBehavior() : void</text><rect fill="#F24D5C" height="6" style="stroke:#C82930;stroke-width:1.0;" width="6" x="310" y="1253.7402"/><text fill="#000000" font-family="sans-serif" font-size="14" lengthAdjust="spacing" textLength="345" x="322" y="1260.5313">_keypressBalloonCallback(e: KeyboardEvent) : void</text><rect fill="#F24D5C" height="6" style="stroke:#C82930;stroke-width:1.0;" width="6" x="310" y="1270.2285"/><text fill="#000000" font-family="sans-serif" font-size="14" lengthAdjust="spacing" textLength="294" x="322" y="1277.0195">_keypressCallback(e: KeyboardEvent) : void</text><rect fill="#F24D5C" height="6" style="stroke:#C82930;stroke-width:1.0;" width="6" x="310" y="1286.7168"/><text fill="#000000" font-family="sans-serif" font-size="14" lengthAdjust="spacing" textLength="313" x="322" y="1293.5078">_onMouseEnterCallback(e: MouseEvent) : void</text><rect fill="#F24D5C" height="6" style="stroke:#C82930;stroke-width:1.0;" width="6" x="310" y="1303.2051"/><text fill="#000000" font-family="sans-serif" font-size="14" lengthAdjust="spacing" textLength="315" x="322" y="1309.9961">_onMouseLeaveCallback(e: MouseEvent) : void</text><rect fill="#F24D5C" height="6" style="stroke:#C82930;stroke-width:1.0;" width="6" x="310" y="1319.6934"/><text fill="#000000" font-family="sans-serif" font-size="14" lengthAdjust="spacing" textLength="150" x="322" y="1326.4844">_removeActive() : void</text><rect fill="#F24D5C" height="6" style="stroke:#C82930;stroke-width:1.0;" width="6" x="310" y="1336.1816"/><text fill="#000000" font-family="sans-serif" font-size="14" lengthAdjust="spacing" textLength="153" x="322" y="1342.9727">_removeEvents() : void</text><rect fill="#F24D5C" height="6" style="stroke:#C82930;stroke-width:1.0;" width="6" x="310" y="1352.6699"/><text fill="#000000" font-family="sans-serif" font-size="14" lengthAdjust="spacing" textLength="119" x="322" y="1359.4609">_setActive() : void</text><rect fill="#F24D5C" height="6" style="stroke:#C82930;stroke-width:1.0;" width="6" x="310" y="1369.1582"/><text fill="#000000" font-family="sans-serif" font-size="14" lengthAdjust="spacing" textLength="94" x="322" y="1375.9492">_show() : void</text><rect fill="#F24D5C" height="6" style="stroke:#C82930;stroke-width:1.0;" width="6" x="310" y="1385.6465"/><text fill="#000000" font-family="sans-serif" font-size="14" lengthAdjust="spacing" textLength="167" x="322" y="1392.4375">_toggleSubmenu() : void</text><rect fill="#F24D5C" height="6" style="stroke:#C82930;stroke-width:1.0;" width="6" x="310" y="1402.1348"/><text fill="#000000" font-family="sans-serif" font-size="14" lengthAdjust="spacing" textLength="211" x="322" y="1408.9258">_updateA11yProperties() : void</text></g><!--class AbstractPattern<SubmenuConfig>--><g id="elem_AbstractPattern&lt;SubmenuConfig&gt;"><rect codeLine="62" fill="#FFFFFF" height="427.2305" id="AbstractPattern&lt;SubmenuConfig&gt;" rx="2.5" ry="2.5" style="stroke:#272B30;stroke-width:0.5;" width="596" x="9" y="7"/><ellipse cx="183.25" cy="23" fill="#A9DCDF" rx="11" ry="11" style="stroke:#181818;stroke-width:1.0;"/><path d="M183.1133,18.3481 L181.9595,23.4199 L184.2754,23.4199 Z M181.6191,16.1069 L184.6157,16.1069 L187.9609,28.5 L185.5122,28.5 L184.7485,25.437 L181.4697,25.437 L180.7227,28.5 L178.2739,28.5 Z " fill="#000000"/><text fill="#000000" font-family="sans-serif" font-size="14" font-style="italic" lengthAdjust="spacing" textLength="239" x="203.75" y="28.291">AbstractPattern&lt;SubmenuConfig&gt;</text><line style="stroke:#272B30;stroke-width:0.5;" x1="10" x2="604" y1="39" y2="39"/><polygon fill="none" points="20,47.7441,24,51.7441,20,55.7441,16,51.7441" style="stroke:#B38D22;stroke-width:1.0;"/><text fill="#000000" font-family="sans-serif" font-size="14" lengthAdjust="spacing" textLength="176" x="29" y="56.5352">isProviderBased : boolean</text><rect fill="none" height="6" style="stroke:#C82930;stroke-width:1.0;" width="6" x="17" y="66.2324"/><text fill="#000000" font-family="sans-serif" font-size="14" lengthAdjust="spacing" textLength="180" x="29" y="73.0234">_configs : SubmenuConfig</text><rect fill="none" height="6" style="stroke:#C82930;stroke-width:1.0;" width="6" x="17" y="82.7207"/><text fill="#000000" font-family="sans-serif" font-size="14" lengthAdjust="spacing" textLength="116" x="29" y="89.5117">_isBuilt : boolean</text><rect fill="none" height="6" style="stroke:#C82930;stroke-width:1.0;" width="6" x="17" y="99.209"/><text fill="#000000" font-family="sans-serif" font-size="14" lengthAdjust="spacing" textLength="253" x="29" y="106">_platformEventInitialized : OSGeneric</text><rect fill="none" height="6" style="stroke:#C82930;stroke-width:1.0;" width="6" x="17" y="115.6973"/><text fill="#000000" font-family="sans-serif" font-size="14" lengthAdjust="spacing" textLength="169" x="29" y="122.4883">_selfElem : HTMLElement</text><rect fill="none" height="6" style="stroke:#C82930;stroke-width:1.0;" width="6" x="17" y="132.1855"/><text fill="#000000" font-family="sans-serif" font-size="14" lengthAdjust="spacing" textLength="120" x="29" y="138.9766">_uniqueId : string</text><rect fill="none" height="6" style="stroke:#C82930;stroke-width:1.0;" width="6" x="17" y="148.6738"/><text fill="#000000" font-family="sans-serif" font-size="14" lengthAdjust="spacing" textLength="118" x="29" y="155.4648">_widgetId : string</text><line style="stroke:#272B30;stroke-width:0.5;" x1="10" x2="604" y1="162.418" y2="162.418"/><ellipse cx="20" cy="176.1621" fill="#84BE84" rx="3" ry="3" style="stroke:#038048;stroke-width:1.0;"/><text fill="#000000" font-family="sans-serif" font-size="14" lengthAdjust="spacing" textLength="86" x="29" y="179.9531">build() : void</text><ellipse cx="20" cy="192.6504" fill="#84BE84" rx="3" ry="3" style="stroke:#038048;stroke-width:1.0;"/><text fill="#000000" font-family="sans-serif" font-size="14" lengthAdjust="spacing" textLength="482" x="29" y="196.4414">changeProperty(propertyName: string, propertyValue: unknown) : void</text><ellipse cx="20" cy="209.1387" fill="#84BE84" rx="3" ry="3" style="stroke:#038048;stroke-width:1.0;"/><text fill="#000000" font-family="sans-serif" font-size="14" lengthAdjust="spacing" textLength="104" x="29" y="212.9297">dispose() : void</text><ellipse cx="20" cy="225.627" fill="#84BE84" rx="3" ry="3" style="stroke:#038048;stroke-width:1.0;"/><text fill="#000000" font-family="sans-serif" font-size="14" lengthAdjust="spacing" textLength="266" x="29" y="229.418">equalsToID(patternId: string) : boolean</text><ellipse cx="20" cy="242.1152" fill="#84BE84" rx="3" ry="3" style="stroke:#038048;stroke-width:1.0;"/><text fill="#000000" font-family="sans-serif" font-size="14" lengthAdjust="spacing" textLength="428" x="29" y="245.9063">registerCallback(eventName: string, callback: OSGeneric) : void</text><polygon fill="#FFFF44" points="20,253.6035,24,257.6035,20,261.6035,16,257.6035" style="stroke:#B38D22;stroke-width:1.0;"/><text fill="#000000" font-family="sans-serif" font-size="14" lengthAdjust="spacing" textLength="123" x="29" y="262.3945">finishBuild() : void</text><polygon fill="#FFFF44" points="20,270.0918,24,274.0918,20,278.0918,16,274.0918" style="stroke:#B38D22;stroke-width:1.0;"/><text fill="#000000" font-family="sans-serif" font-size="14" font-style="italic" lengthAdjust="spacing" textLength="178" x="29" y="278.8828">setA11YProperties() : void</text><polygon fill="#FFFF44" points="20,286.5801,24,290.5801,20,294.5801,16,290.5801" style="stroke:#B38D22;stroke-width:1.0;"/><text fill="#000000" font-family="sans-serif" font-size="14" font-style="italic" lengthAdjust="spacing" textLength="136" x="29" y="295.3711">setCallbacks() : void</text><polygon fill="#FFFF44" points="20,303.0684,24,307.0684,20,311.0684,16,307.0684" style="stroke:#B38D22;stroke-width:1.0;"/><text fill="#000000" font-family="sans-serif" font-size="14" font-style="italic" lengthAdjust="spacing" textLength="165" x="29" y="311.8594">setHtmlElements() : void</text><polygon fill="#FFFF44" points="20,319.5566,24,323.5566,20,327.5566,16,323.5566" style="stroke:#B38D22;stroke-width:1.0;"/><text fill="#000000" font-family="sans-serif" font-size="14" lengthAdjust="spacing" textLength="570" x="29" y="328.3477">triggerPlatformEventCallback(platFormCallback: OSGeneric, args: unknown[]) : void</text><polygon fill="#FFFF44" points="20,336.0449,24,340.0449,20,344.0449,16,340.0449" style="stroke:#B38D22;stroke-width:1.0;"/><text fill="#000000" font-family="sans-serif" font-size="14" lengthAdjust="spacing" textLength="318" x="29" y="344.8359">triggerPlatformInitializedEventCallback() : void</text><polygon fill="#FFFF44" points="20,352.5332,24,356.5332,20,360.5332,16,356.5332" style="stroke:#B38D22;stroke-width:1.0;"/><text fill="#000000" font-family="sans-serif" font-size="14" font-style="italic" lengthAdjust="spacing" textLength="154" x="29" y="361.3242">unsetCallbacks() : void</text><polygon fill="#FFFF44" points="20,369.0215,24,373.0215,20,377.0215,16,373.0215" style="stroke:#B38D22;stroke-width:1.0;"/><text fill="#000000" font-family="sans-serif" font-size="14" lengthAdjust="spacing" textLength="198" x="29" y="377.8125">unsetGlobalCallbacks() : void</text><polygon fill="#FFFF44" points="20,385.5098,24,389.5098,20,393.5098,16,389.5098" style="stroke:#B38D22;stroke-width:1.0;"/><text fill="#000000" font-family="sans-serif" font-size="14" font-style="italic" lengthAdjust="spacing" textLength="183" x="29" y="394.3008">unsetHtmlElements() : void</text><rect fill="#F24D5C" height="6" style="stroke:#C82930;stroke-width:1.0;" width="6" x="17" y="403.998"/><text fill="#000000" font-family="sans-serif" font-size="14" lengthAdjust="spacing" textLength="235" x="29" y="410.7891">_setCommonHtmlElements() : void</text><rect fill="#F24D5C" height="6" style="stroke:#C82930;stroke-width:1.0;" width="6" x="17" y="420.4863"/><text fill="#000000" font-family="sans-serif" font-size="14" lengthAdjust="spacing" textLength="253" x="29" y="427.2773">_unsetCommonHtmlElements() : void</text></g><!--class ISubmenu--><g id="elem_ISubmenu"><rect codeLine="88" fill="#FFFFFF" height="295.3242" id="ISubmenu" rx="2.5" ry="2.5" style="stroke:#272B30;stroke-width:0.5;" width="508" x="640" y="73"/><ellipse cx="855.25" cy="89" fill="#B4A7E5" rx="11" ry="11" style="stroke:#181818;stroke-width:1.0;"/><path d="M851.6777,85.2651 L851.6777,83.1069 L859.0571,83.1069 L859.0571,85.2651 L856.5918,85.2651 L856.5918,93.3418 L859.0571,93.3418 L859.0571,95.5 L851.6777,95.5 L851.6777,93.3418 L854.1431,93.3418 L854.1431,85.2651 Z " fill="#000000"/><text fill="#000000" font-family="sans-serif" font-size="14" font-style="italic" lengthAdjust="spacing" textLength="69" x="875.75" y="94.291">ISubmenu</text><line style="stroke:#272B30;stroke-width:0.5;" x1="641" x2="1147" y1="105" y2="105"/><ellipse cx="651" cy="118.7441" fill="none" rx="3" ry="3" style="stroke:#038048;stroke-width:1.0;"/><text fill="#000000" font-family="sans-serif" font-size="14" lengthAdjust="spacing" textLength="109" x="660" y="122.5352">isBuilt : boolean</text><ellipse cx="651" cy="135.2324" fill="none" rx="3" ry="3" style="stroke:#038048;stroke-width:1.0;"/><text fill="#000000" font-family="sans-serif" font-size="14" lengthAdjust="spacing" textLength="116" x="660" y="139.0234">isOpen : boolean</text><ellipse cx="651" cy="151.7207" fill="none" rx="3" ry="3" style="stroke:#038048;stroke-width:1.0;"/><text fill="#000000" font-family="sans-serif" font-size="14" lengthAdjust="spacing" textLength="184" x="660" y="155.5117">selfElement : HTMLElement</text><ellipse cx="651" cy="168.209" fill="none" rx="3" ry="3" style="stroke:#038048;stroke-width:1.0;"/><text fill="#000000" font-family="sans-serif" font-size="14" lengthAdjust="spacing" textLength="113" x="660" y="172">uniqueId : string</text><ellipse cx="651" cy="184.6973" fill="none" rx="3" ry="3" style="stroke:#038048;stroke-width:1.0;"/><text fill="#000000" font-family="sans-serif" font-size="14" lengthAdjust="spacing" textLength="111" x="660" y="188.4883">widgetId : string</text><line style="stroke:#272B30;stroke-width:0.5;" x1="641" x2="1147" y1="195.4414" y2="195.4414"/><ellipse cx="651" cy="209.1855" fill="#84BE84" rx="3" ry="3" style="stroke:#038048;stroke-width:1.0;"/><text fill="#000000" font-family="sans-serif" font-size="14" lengthAdjust="spacing" textLength="86" x="660" y="212.9766">build() : void</text><ellipse cx="651" cy="225.6738" fill="#84BE84" rx="3" ry="3" style="stroke:#038048;stroke-width:1.0;"/><text fill="#000000" font-family="sans-serif" font-size="14" lengthAdjust="spacing" textLength="482" x="660" y="229.4648">changeProperty(propertyName: string, propertyValue: unknown) : void</text><ellipse cx="651" cy="242.1621" fill="#84BE84" rx="3" ry="3" style="stroke:#038048;stroke-width:1.0;"/><text fill="#000000" font-family="sans-serif" font-size="14" lengthAdjust="spacing" textLength="393" x="660" y="245.9531">clickOutsideToClose(clickOutsideToClose: boolean) : void</text><ellipse cx="651" cy="258.6504" fill="#84BE84" rx="3" ry="3" style="stroke:#038048;stroke-width:1.0;"/><text fill="#000000" font-family="sans-serif" font-size="14" lengthAdjust="spacing" textLength="86" x="660" y="262.4414">close() : void</text><ellipse cx="651" cy="275.1387" fill="#84BE84" rx="3" ry="3" style="stroke:#038048;stroke-width:1.0;"/><text fill="#000000" font-family="sans-serif" font-size="14" lengthAdjust="spacing" textLength="104" x="660" y="278.9297">dispose() : void</text><ellipse cx="651" cy="291.627" fill="#84BE84" rx="3" ry="3" style="stroke:#038048;stroke-width:1.0;"/><text fill="#000000" font-family="sans-serif" font-size="14" lengthAdjust="spacing" textLength="216" x="660" y="295.418">equalsToID(id: string) : boolean</text><ellipse cx="651" cy="308.1152" fill="#84BE84" rx="3" ry="3" style="stroke:#038048;stroke-width:1.0;"/><text fill="#000000" font-family="sans-serif" font-size="14" lengthAdjust="spacing" textLength="253" x="660" y="311.9063">open(isOpenedByApi: boolean) : void</text><ellipse cx="651" cy="324.6035" fill="#84BE84" rx="3" ry="3" style="stroke:#038048;stroke-width:1.0;"/><text fill="#000000" font-family="sans-serif" font-size="14" lengthAdjust="spacing" textLength="428" x="660" y="328.3945">registerCallback(eventName: string, callback: OSGeneric) : void</text><ellipse cx="651" cy="341.0918" fill="#84BE84" rx="3" ry="3" style="stroke:#038048;stroke-width:1.0;"/><text fill="#000000" font-family="sans-serif" font-size="14" lengthAdjust="spacing" textLength="168" x="660" y="344.8828">setOpenOnHover() : void</text><ellipse cx="651" cy="357.5801" fill="#84BE84" rx="3" ry="3" style="stroke:#038048;stroke-width:1.0;"/><text fill="#000000" font-family="sans-serif" font-size="14" lengthAdjust="spacing" textLength="168" x="660" y="361.3711">updateOnRender() : void</text></g><!--reverse link AbstractPattern<SubmenuConfig> to Submenu--><g id="link_AbstractPattern&lt;SubmenuConfig&gt;_Submenu"><path codeLine="87" d="M399.61,453.02 C404.95,466.37 410.4,479.99 415.92,493.8 " fill="none" id="AbstractPattern&lt;SubmenuConfig&gt;-backto-Submenu" style="stroke:#272B30;stroke-width:1.0;"/><polygon fill="none" points="393.07,455.52,392.14,434.35,406.07,450.32,393.07,455.52" style="stroke:#272B30;stroke-width:1.0;"/></g><!--reverse link ISubmenu to Submenu--><g id="link_ISubmenu_Submenu"><path codeLine="105" d="M827.41,387.4 C814.22,420.28 799.77,456.28 784.76,493.68 " fill="none" id="ISubmenu-backto-Submenu" style="stroke:#272B30;stroke-width:1.0;stroke-dasharray:7.0,7.0;"/><polygon fill="none" points="821.09,384.36,835.03,368.41,834.08,389.58,821.09,384.36" style="stroke:#272B30;stroke-width:1.0;"/></g><!--SRC=[pLPjQzim4FwUNs7QBnbfozvWKCeWoRerh5tA6WPZZ29RPrj4bZn9JidQ_lUTRJcrPSSfhAFBf_ZkkTFfNfwJNZAH4aKIRyg9rcEbvCrKSgcy_TVlNljlNWvq4p6HYeBgXv1W6IcP2MfXOHZMC2rr0FGj9OEOKV0WIStQIy34akgwA6J0KHBa1tXxLvcVWCZslDk1XxzHJFIKis0vpun6cuMSSgd1E_PyAJaGKQ3scRvKSeLwDI4QgAC-l8OL23CXd4ifFiCwLO1d7NkVG81YGHrK7DQjwZUSYmkPQJWL1bGluXp82bg8K0QPlY22HA1cGXiYWXpqiIQk8nUAf2uibrbCnALF-6bnQqdNhTCmg-F0i1MSCx7KhNIX-fG3ri6qTSnQTYZcAOYMEEN4X58bfsKA5ZAAE4on53uf4Zs_QeQcomQeXMT3GUpPukBSVZbepZkWOn74KbdPZvzDapCWs2wFyBqZXf6VCKw7Br2raeoMiY0c8WBioHIKMGzJ- -SBIU3OqqOn4HrubVGRuHcACx4KyaOuZjgzF-oGRPBkMkVufemodRQby2iZN2_axCCm9GPRMCne5UaBfwOZ35iuzWeYfj6iAkomwFZcVGEhgzMywKI3oLjeBixa2fHpGfPIOc0kleAWhd8_P8BfUDAkn3xw7BzwzTsMWe5kwwkOErHd9k7L9BIrCy4C8_pAO62k6kySuSnUrhj_avny9ZwYTDhEo857LAGttV3ZPwzR6m7x3RHvGjCg4ptNB9IV2iBeXMpFnU6rZoHJCEScWElo6bNjiGrAUioZT8o3688bfgCsygx_eE7RKUAiKGu51KuW9YicbGjPMkgsA-2XIuyzP7LV4aMx8glC7ekNjHrGjzbwTLbR2OyoK93WR9IP6dRg2gjM0lCnw3JIiRnnPQRWQBk9NMKvXpXJwwwPkXyG7sjE0kFPXJwstvSbhPnOjrCfGXQzh_RypWqU5FXy7JKSR7PFFlkcV_dKXgLhxm0Fy_RkN0MPOByocELsPKTR-GsZ4VA08_-tA-492Fmfs7exvzvMBN2_atuTw1R-SL0zfFm_iMuzwhyau9QhFYxEJv998aKVg0oe1tO_s3cv9tU7XmyFzW7BMIya-1xTcxcl-Exv77K-6KVL96vvRtNFukWvHl4PNcTinxEiJ2dGoNgSiYq7FzzZ3RlgeJTExewE7lhd3m00]--></g></svg>