<?xml version="1.0" encoding="UTF-8" standalone="no"?><svg xmlns="http://www.w3.org/2000/svg" xmlns:xlink="http://www.w3.org/1999/xlink" contentScriptType="application/ecmascript" contentStyleType="text/css" height="753px" preserveAspectRatio="none" style="width:908px;height:753px;background:#CED4DA;" version="1.1" viewBox="0 0 908 753" width="908px" zoomAndPan="magnify"><defs><filter height="300%" id="fh24udxemb82k" width="300%" x="-1" y="-1"><feGaussianBlur result="blurOut" stdDeviation="2.0"/><feColorMatrix in="blurOut" result="blurOut2" type="matrix" values="0 0 0 0 0 0 0 0 0 0 0 0 0 0 0 0 0 0 .4 0"/><feOffset dx="4.0" dy="4.0" in="blurOut2" result="blurOut3"/><feBlend in="SourceGraphic" in2="blurOut3" mode="normal"/></filter></defs><g><!--MD5=[8ee927d1a0b655bb8138921af99c174f]
class SwipeEvents--><rect codeLine="7" fill="#FFFFFF" filter="url(#fh24udxemb82k)" height="406.5313" id="SwipeEvents" style="stroke:#272B30;stroke-width:1.5;" width="478" x="212.5" y="333"/><ellipse cx="408.25" cy="349" fill="#ADD1B2" rx="11" ry="11" style="stroke:#272B30;stroke-width:1.0;"/><path d="M411.2188,354.6406 Q410.6406,354.9375 410,355.0781 Q409.3594,355.2344 408.6563,355.2344 Q406.1563,355.2344 404.8281,353.5938 Q403.5156,351.9375 403.5156,348.8125 Q403.5156,345.6875 404.8281,344.0313 Q406.1563,342.375 408.6563,342.375 Q409.3594,342.375 410,342.5313 Q410.6563,342.6875 411.2188,342.9844 L411.2188,345.7031 Q410.5938,345.125 410,344.8594 Q409.4063,344.5781 408.7813,344.5781 Q407.4375,344.5781 406.75,345.6563 Q406.0625,346.7188 406.0625,348.8125 Q406.0625,350.9063 406.75,351.9844 Q407.4375,353.0469 408.7813,353.0469 Q409.4063,353.0469 410,352.7813 Q410.5938,352.5 411.2188,351.9219 L411.2188,354.6406 Z " fill="#000000"/><text fill="#000000" font-family="sans-serif" font-size="12" lengthAdjust="spacing" textLength="78" x="428.75" y="353.1543">SwipeEvents</text><line style="stroke:#272B30;stroke-width:1.5;" x1="213.5" x2="689.5" y1="365" y2="365"/><rect fill="none" height="6" style="stroke:#C82930;stroke-width:1.0;" width="6" x="220.5" y="373"/><text fill="#000000" font-family="sans-serif" font-size="11" lengthAdjust="spacing" textLength="166" x="232.5" y="379.2104">_gestureMoveEvent : Generic</text><rect fill="none" height="6" style="stroke:#C82930;stroke-width:1.0;" width="6" x="220.5" y="385.8047"/><text fill="#000000" font-family="sans-serif" font-size="11" lengthAdjust="spacing" textLength="165" x="232.5" y="392.0151">_gestureStartEvent : Generic</text><rect fill="none" height="6" style="stroke:#C82930;stroke-width:1.0;" width="6" x="220.5" y="398.6094"/><text fill="#000000" font-family="sans-serif" font-size="11" lengthAdjust="spacing" textLength="190" x="232.5" y="404.8198">_swipableElement : HTMLElement</text><rect fill="none" height="6" style="stroke:#C82930;stroke-width:1.0;" width="6" x="220.5" y="411.4141"/><text fill="#000000" font-family="sans-serif" font-size="11" lengthAdjust="spacing" textLength="173" x="232.5" y="417.6245">_swipeDownCallback : Generic</text><rect fill="none" height="6" style="stroke:#C82930;stroke-width:1.0;" width="6" x="220.5" y="424.2188"/><text fill="#000000" font-family="sans-serif" font-size="11" lengthAdjust="spacing" textLength="163" x="232.5" y="430.4292">_swipeLeftCallback : Generic</text><rect fill="none" height="6" style="stroke:#C82930;stroke-width:1.0;" width="6" x="220.5" y="437.0234"/><text fill="#000000" font-family="sans-serif" font-size="11" lengthAdjust="spacing" textLength="170" x="232.5" y="443.2339">_swipeRightCallback : Generic</text><rect fill="none" height="6" style="stroke:#C82930;stroke-width:1.0;" width="6" x="220.5" y="449.8281"/><text fill="#000000" font-family="sans-serif" font-size="11" lengthAdjust="spacing" textLength="157" x="232.5" y="456.0386">_swipeUpCallback : Generic</text><rect fill="none" height="6" style="stroke:#C82930;stroke-width:1.0;" width="6" x="220.5" y="462.6328"/><text fill="#000000" font-family="sans-serif" font-size="11" lengthAdjust="spacing" textLength="116" x="232.5" y="468.8433">_threshold : number</text><rect fill="none" height="6" style="stroke:#C82930;stroke-width:1.0;" width="6" x="220.5" y="475.4375"/><text fill="#000000" font-family="sans-serif" font-size="11" lengthAdjust="spacing" textLength="104" x="232.5" y="481.6479">_velocity : number</text><line style="stroke:#272B30;stroke-width:1.5;" x1="213.5" x2="689.5" y1="488.2422" y2="488.2422"/><ellipse cx="223.5" cy="499.2422" fill="#84BE84" rx="3" ry="3" style="stroke:#038048;stroke-width:1.0;"/><text fill="#000000" font-family="sans-serif" font-size="11" lengthAdjust="spacing" textLength="70" x="232.5" y="502.4526">build() : void</text><ellipse cx="223.5" cy="512.0469" fill="#84BE84" rx="3" ry="3" style="stroke:#038048;stroke-width:1.0;"/><text fill="#000000" font-family="sans-serif" font-size="11" lengthAdjust="spacing" textLength="399" x="232.5" y="515.2573">changeProperty(propertyName: string, propertyValue: unknown) : void</text><ellipse cx="223.5" cy="524.8516" fill="#84BE84" rx="3" ry="3" style="stroke:#038048;stroke-width:1.0;"/><text fill="#000000" font-family="sans-serif" font-size="11" lengthAdjust="spacing" textLength="88" x="232.5" y="528.062">dispose() : void</text><ellipse cx="223.5" cy="537.6563" fill="#84BE84" rx="3" ry="3" style="stroke:#038048;stroke-width:1.0;"/><text fill="#000000" font-family="sans-serif" font-size="11" lengthAdjust="spacing" textLength="220" x="232.5" y="540.8667">equalsToID(patternId: string) : boolean</text><ellipse cx="223.5" cy="550.4609" fill="#84BE84" rx="3" ry="3" style="stroke:#038048;stroke-width:1.0;"/><text fill="#000000" font-family="sans-serif" font-size="11" lengthAdjust="spacing" textLength="452" x="232.5" y="553.6714">EventGestureEnd(offsetX: number, offsetY: number, timeTaken: number) : void</text><ellipse cx="223.5" cy="563.2656" fill="#84BE84" rx="3" ry="3" style="stroke:#038048;stroke-width:1.0;"/><text fill="#000000" font-family="sans-serif" font-size="11" lengthAdjust="spacing" textLength="253" x="232.5" y="566.4761">EventGestureMove(event: TouchEvent) : void</text><ellipse cx="223.5" cy="576.0703" fill="#84BE84" rx="3" ry="3" style="stroke:#038048;stroke-width:1.0;"/><text fill="#000000" font-family="sans-serif" font-size="11" lengthAdjust="spacing" textLength="362" x="232.5" y="579.2808">registerCallback(eventName: string, callback: OSGeneric) : void</text><polygon fill="#FFFF44" points="223.5,583.875,227.5,587.875,223.5,591.875,219.5,587.875" style="stroke:#B38D22;stroke-width:1.0;"/><text fill="#000000" font-family="sans-serif" font-size="11" lengthAdjust="spacing" textLength="102" x="232.5" y="592.0854">finishBuild() : void</text><polygon fill="#FFFF44" points="223.5,596.6797,227.5,600.6797,223.5,604.6797,219.5,600.6797" style="stroke:#B38D22;stroke-width:1.0;"/><text fill="#000000" font-family="sans-serif" font-size="11" lengthAdjust="spacing" textLength="148" x="232.5" y="604.8901">setA11YProperties() : void</text><polygon fill="#FFFF44" points="223.5,609.4844,227.5,613.4844,223.5,617.4844,219.5,613.4844" style="stroke:#B38D22;stroke-width:1.0;"/><text fill="#000000" font-family="sans-serif" font-size="11" lengthAdjust="spacing" textLength="115" x="232.5" y="617.6948">setCallbacks() : void</text><polygon fill="#FFFF44" points="223.5,622.2891,227.5,626.2891,223.5,630.2891,219.5,626.2891" style="stroke:#B38D22;stroke-width:1.0;"/><text fill="#000000" font-family="sans-serif" font-size="11" lengthAdjust="spacing" textLength="140" x="232.5" y="630.4995">setHtmlElements() : void</text><polygon fill="#FFFF44" points="223.5,635.0938,227.5,639.0938,223.5,643.0938,219.5,639.0938" style="stroke:#B38D22;stroke-width:1.0;"/><text fill="#000000" font-family="sans-serif" font-size="11" lengthAdjust="spacing" textLength="129" x="232.5" y="643.3042">unsetCallbacks() : void</text><polygon fill="#FFFF44" points="223.5,647.8984,227.5,651.8984,223.5,655.8984,219.5,651.8984" style="stroke:#B38D22;stroke-width:1.0;"/><text fill="#000000" font-family="sans-serif" font-size="11" lengthAdjust="spacing" textLength="154" x="232.5" y="656.1089">unsetHtmlElements() : void</text><rect fill="#F24D5C" height="6" style="stroke:#C82930;stroke-width:1.0;" width="6" x="220.5" y="662.7031"/><text fill="#000000" font-family="sans-serif" font-size="11" lengthAdjust="spacing" textLength="176" x="232.5" y="668.9136">_removeEventListeners() : void</text><rect fill="#F24D5C" height="6" style="stroke:#C82930;stroke-width:1.0;" width="6" x="220.5" y="675.5078"/><text fill="#000000" font-family="sans-serif" font-size="11" lengthAdjust="spacing" textLength="151" x="232.5" y="681.7183">_setEventListeners() : void</text><rect fill="#F24D5C" height="6" style="stroke:#C82930;stroke-width:1.0;" width="6" x="220.5" y="688.3125"/><text fill="#000000" font-family="sans-serif" font-size="11" lengthAdjust="spacing" textLength="152" x="232.5" y="694.5229">_triggerSwipeDown() : void</text><rect fill="#F24D5C" height="6" style="stroke:#C82930;stroke-width:1.0;" width="6" x="220.5" y="701.1172"/><text fill="#000000" font-family="sans-serif" font-size="11" lengthAdjust="spacing" textLength="142" x="232.5" y="707.3276">_triggerSwipeLeft() : void</text><rect fill="#F24D5C" height="6" style="stroke:#C82930;stroke-width:1.0;" width="6" x="220.5" y="713.9219"/><text fill="#000000" font-family="sans-serif" font-size="11" lengthAdjust="spacing" textLength="149" x="232.5" y="720.1323">_triggerSwipeRight() : void</text><rect fill="#F24D5C" height="6" style="stroke:#C82930;stroke-width:1.0;" width="6" x="220.5" y="726.7266"/><text fill="#000000" font-family="sans-serif" font-size="11" lengthAdjust="spacing" textLength="136" x="232.5" y="732.937">_triggerSwipeUp() : void</text><!--MD5=[d94361a96c5a4c6a93d32f6b62492731]
class AbstractPattern<SwipeEventsConfig>--><rect codeLine="37" fill="#FFFFFF" filter="url(#fh24udxemb82k)" height="265.6797" id="AbstractPattern&lt;SwipeEventsConfig&gt;" style="stroke:#272B30;stroke-width:1.5;" width="425" x="9" y="7"/><ellipse cx="99.75" cy="23" fill="#A9DCDF" rx="11" ry="11" style="stroke:#272B30;stroke-width:1.0;"/><path d="M99.8594,18.3438 L98.7031,23.4219 L101.0313,23.4219 L99.8594,18.3438 Z M98.375,16.1094 L101.3594,16.1094 L104.7188,28.5 L102.2656,28.5 L101.5,25.4375 L98.2188,25.4375 L97.4688,28.5 L95.0313,28.5 L98.375,16.1094 Z " fill="#000000"/><text fill="#000000" font-family="sans-serif" font-size="12" font-style="italic" lengthAdjust="spacing" textLength="235" x="120.25" y="27.1543">AbstractPattern&lt;SwipeEventsConfig&gt;</text><line style="stroke:#272B30;stroke-width:1.5;" x1="10" x2="433" y1="39" y2="39"/><rect fill="none" height="6" style="stroke:#C82930;stroke-width:1.0;" width="6" x="17" y="47"/><text fill="#000000" font-family="sans-serif" font-size="11" lengthAdjust="spacing" textLength="167" x="29" y="53.2104">_configs : SwipeEventsConfig</text><rect fill="none" height="6" style="stroke:#C82930;stroke-width:1.0;" width="6" x="17" y="59.8047"/><text fill="#000000" font-family="sans-serif" font-size="11" lengthAdjust="spacing" textLength="98" x="29" y="66.0151">_isBuilt : boolean</text><rect fill="none" height="6" style="stroke:#C82930;stroke-width:1.0;" width="6" x="17" y="72.6094"/><text fill="#000000" font-family="sans-serif" font-size="11" lengthAdjust="spacing" textLength="143" x="29" y="78.8198">_selfElem : HTMLElement</text><rect fill="none" height="6" style="stroke:#C82930;stroke-width:1.0;" width="6" x="17" y="85.4141"/><text fill="#000000" font-family="sans-serif" font-size="11" lengthAdjust="spacing" textLength="99" x="29" y="91.6245">_uniqueId : string</text><rect fill="none" height="6" style="stroke:#C82930;stroke-width:1.0;" width="6" x="17" y="98.2188"/><text fill="#000000" font-family="sans-serif" font-size="11" lengthAdjust="spacing" textLength="98" x="29" y="104.4292">_widgetId : string</text><line style="stroke:#272B30;stroke-width:1.5;" x1="10" x2="433" y1="111.0234" y2="111.0234"/><ellipse cx="20" cy="122.0234" fill="#84BE84" rx="3" ry="3" style="stroke:#038048;stroke-width:1.0;"/><text fill="#000000" font-family="sans-serif" font-size="11" lengthAdjust="spacing" textLength="70" x="29" y="125.2339">build() : void</text><ellipse cx="20" cy="134.8281" fill="#84BE84" rx="3" ry="3" style="stroke:#038048;stroke-width:1.0;"/><text fill="#000000" font-family="sans-serif" font-size="11" lengthAdjust="spacing" textLength="399" x="29" y="138.0386">changeProperty(propertyName: string, propertyValue: unknown) : void</text><ellipse cx="20" cy="147.6328" fill="#84BE84" rx="3" ry="3" style="stroke:#038048;stroke-width:1.0;"/><text fill="#000000" font-family="sans-serif" font-size="11" lengthAdjust="spacing" textLength="88" x="29" y="150.8433">dispose() : void</text><ellipse cx="20" cy="160.4375" fill="#84BE84" rx="3" ry="3" style="stroke:#038048;stroke-width:1.0;"/><text fill="#000000" font-family="sans-serif" font-size="11" lengthAdjust="spacing" textLength="220" x="29" y="163.6479">equalsToID(patternId: string) : boolean</text><polygon fill="#FFFF44" points="20,168.2422,24,172.2422,20,176.2422,16,172.2422" style="stroke:#B38D22;stroke-width:1.0;"/><text fill="#000000" font-family="sans-serif" font-size="11" lengthAdjust="spacing" textLength="102" x="29" y="176.4526">finishBuild() : void</text><polygon fill="#FFFF44" points="20,181.0469,24,185.0469,20,189.0469,16,185.0469" style="stroke:#B38D22;stroke-width:1.0;"/><text fill="#000000" font-family="sans-serif" font-size="11" font-style="italic" lengthAdjust="spacing" textLength="148" x="29" y="189.2573">setA11YProperties() : void</text><polygon fill="#FFFF44" points="20,193.8516,24,197.8516,20,201.8516,16,197.8516" style="stroke:#B38D22;stroke-width:1.0;"/><text fill="#000000" font-family="sans-serif" font-size="11" font-style="italic" lengthAdjust="spacing" textLength="114" x="29" y="202.062">setCallbacks() : void</text><polygon fill="#FFFF44" points="20,206.6563,24,210.6563,20,214.6563,16,210.6563" style="stroke:#B38D22;stroke-width:1.0;"/><text fill="#000000" font-family="sans-serif" font-size="11" font-style="italic" lengthAdjust="spacing" textLength="139" x="29" y="214.8667">setHtmlElements() : void</text><polygon fill="#FFFF44" points="20,219.4609,24,223.4609,20,227.4609,16,223.4609" style="stroke:#B38D22;stroke-width:1.0;"/><text fill="#000000" font-family="sans-serif" font-size="11" font-style="italic" lengthAdjust="spacing" textLength="128" x="29" y="227.6714">unsetCallbacks() : void</text><polygon fill="#FFFF44" points="20,232.2656,24,236.2656,20,240.2656,16,236.2656" style="stroke:#B38D22;stroke-width:1.0;"/><text fill="#000000" font-family="sans-serif" font-size="11" font-style="italic" lengthAdjust="spacing" textLength="153" x="29" y="240.4761">unsetHtmlElements() : void</text><rect fill="#F24D5C" height="6" style="stroke:#C82930;stroke-width:1.0;" width="6" x="17" y="247.0703"/><text fill="#000000" font-family="sans-serif" font-size="11" lengthAdjust="spacing" textLength="197" x="29" y="253.2808">_setCommonHtmlElements() : void</text><rect fill="#F24D5C" height="6" style="stroke:#C82930;stroke-width:1.0;" width="6" x="17" y="259.875"/><text fill="#000000" font-family="sans-serif" font-size="11" lengthAdjust="spacing" textLength="211" x="29" y="266.0854">_unsetCommonHtmlElements() : void</text><!--MD5=[64c928c84d705bf3a17bcea82688d460]
class ISwipeEvents--><rect codeLine="57" fill="#FFFFFF" filter="url(#fh24udxemb82k)" height="176.0469" id="ISwipeEvents" style="stroke:#272B30;stroke-width:1.5;" width="425" x="469" y="52"/><ellipse cx="636.25" cy="68" fill="#B4A7E5" rx="11" ry="11" style="stroke:#272B30;stroke-width:1.0;"/><path d="M632.1719,63.7656 L632.1719,61.6094 L639.5625,61.6094 L639.5625,63.7656 L637.0938,63.7656 L637.0938,71.8438 L639.5625,71.8438 L639.5625,74 L632.1719,74 L632.1719,71.8438 L634.6406,71.8438 L634.6406,63.7656 L632.1719,63.7656 Z " fill="#000000"/><text fill="#000000" font-family="sans-serif" font-size="12" font-style="italic" lengthAdjust="spacing" textLength="82" x="656.75" y="72.1543">ISwipeEvents</text><line style="stroke:#272B30;stroke-width:1.5;" x1="470" x2="893" y1="84" y2="84"/><ellipse cx="480" cy="95" rx="3" ry="3" style="stroke:#038048;stroke-width:1.0;fill:none;"/><text fill="#000000" font-family="sans-serif" font-size="11" lengthAdjust="spacing" textLength="154" x="489" y="98.2104">EventGestureEnd : Generic</text><ellipse cx="480" cy="107.8047" rx="3" ry="3" style="stroke:#038048;stroke-width:1.0;fill:none;"/><text fill="#000000" font-family="sans-serif" font-size="11" lengthAdjust="spacing" textLength="162" x="489" y="111.0151">EventGestureMove : Generic</text><ellipse cx="480" cy="120.6094" rx="3" ry="3" style="stroke:#038048;stroke-width:1.0;fill:none;"/><text fill="#000000" font-family="sans-serif" font-size="11" lengthAdjust="spacing" textLength="92" x="489" y="123.8198">isBuilt : boolean</text><ellipse cx="480" cy="133.4141" rx="3" ry="3" style="stroke:#038048;stroke-width:1.0;fill:none;"/><text fill="#000000" font-family="sans-serif" font-size="11" lengthAdjust="spacing" textLength="155" x="489" y="136.6245">selfElement : HTMLElement</text><ellipse cx="480" cy="146.2188" rx="3" ry="3" style="stroke:#038048;stroke-width:1.0;fill:none;"/><text fill="#000000" font-family="sans-serif" font-size="11" lengthAdjust="spacing" textLength="93" x="489" y="149.4292">uniqueId : string</text><ellipse cx="480" cy="159.0234" rx="3" ry="3" style="stroke:#038048;stroke-width:1.0;fill:none;"/><text fill="#000000" font-family="sans-serif" font-size="11" lengthAdjust="spacing" textLength="92" x="489" y="162.2339">widgetId : string</text><line style="stroke:#272B30;stroke-width:1.5;" x1="470" x2="893" y1="168.8281" y2="168.8281"/><ellipse cx="480" cy="179.8281" fill="#84BE84" rx="3" ry="3" style="stroke:#038048;stroke-width:1.0;"/><text fill="#000000" font-family="sans-serif" font-size="11" lengthAdjust="spacing" textLength="70" x="489" y="183.0386">build() : void</text><ellipse cx="480" cy="192.6328" fill="#84BE84" rx="3" ry="3" style="stroke:#038048;stroke-width:1.0;"/><text fill="#000000" font-family="sans-serif" font-size="11" lengthAdjust="spacing" textLength="399" x="489" y="195.8433">changeProperty(propertyName: string, propertyValue: unknown) : void</text><ellipse cx="480" cy="205.4375" fill="#84BE84" rx="3" ry="3" style="stroke:#038048;stroke-width:1.0;"/><text fill="#000000" font-family="sans-serif" font-size="11" lengthAdjust="spacing" textLength="88" x="489" y="208.6479">dispose() : void</text><ellipse cx="480" cy="218.2422" fill="#84BE84" rx="3" ry="3" style="stroke:#038048;stroke-width:1.0;"/><text fill="#000000" font-family="sans-serif" font-size="11" lengthAdjust="spacing" textLength="179" x="489" y="221.4526">equalsToID(id: string) : boolean</text><!--MD5=[684d18004ab0b7d6e5a88abae73cefc3]
reverse link AbstractPattern<SwipeEventsConfig> to SwipeEvents--><path codeLine="56" d="M308.7,290.56 C316.79,304.44 325.07,318.65 333.38,332.9 " fill="none" id="AbstractPattern&lt;SwipeEventsConfig&gt;-backto-SwipeEvents" style="stroke:#272B30;stroke-width:1.0;"/><polygon fill="none" points="302.59,293.99,298.57,273.19,314.69,286.94,302.59,293.99" style="stroke:#272B30;stroke-width:1.0;"/><!--MD5=[a43d19e21be9f9bb797f151c6c9dd8db]
reverse link ISwipeEvents to SwipeEvents--><path codeLine="69" d="M620.65,245.38 C604.87,272.43 587.34,302.5 569.71,332.75 " fill="none" id="ISwipeEvents-backto-SwipeEvents" style="stroke:#272B30;stroke-width:1.0;stroke-dasharray:7.0,7.0;"/><polygon fill="none" points="614.62,241.82,630.74,228.06,626.71,248.87,614.62,241.82" style="stroke:#272B30;stroke-width:1.0;"/><!--MD5=[e43d0ba1fbef3e5bfd8d210e10a741dc]
@startuml
skinparam ClassArrowColor #272b30
skinparam ClassBorderColor #272b30
skinparam ClassBackgroundColor #fff
skinparam BackgroundColor #ced4da
hide empty methods
hide empty fields
class "SwipeEvents" {
    -_gestureMoveEvent : Generic
    -_gestureStartEvent : Generic
    -_swipableElement : HTMLElement
    -_swipeDownCallback : Generic
    -_swipeLeftCallback : Generic
    -_swipeRightCallback : Generic
    -_swipeUpCallback : Generic
    -_threshold : number
    -_velocity : number
    +build() : void
    +changeProperty(propertyName: string, propertyValue: unknown) : void
    +dispose() : void
    +equalsToID(patternId: string) : boolean
    +EventGestureEnd(offsetX: number, offsetY: number, timeTaken: number) : void
    +EventGestureMove(event: TouchEvent) : void
    +registerCallback(eventName: string, callback: OSGeneric) : void
    #finishBuild() : void
    #setA11YProperties() : void
    #setCallbacks() : void
    #setHtmlElements() : void
    #unsetCallbacks() : void
    #unsetHtmlElements() : void
    -_removeEventListeners() : void
    -_setEventListeners() : void
    -_triggerSwipeDown() : void
    -_triggerSwipeLeft() : void
    -_triggerSwipeRight() : void
    -_triggerSwipeUp() : void
}
abstract class "AbstractPattern<SwipeEventsConfig>" {
    -_configs : SwipeEventsConfig
    -_isBuilt : boolean
    -_selfElem : HTMLElement
    -_uniqueId : string
    -_widgetId : string
    +build() : void
    +changeProperty(propertyName: string, propertyValue: unknown) : void
    +dispose() : void
    +equalsToID(patternId: string) : boolean
    #finishBuild() : void
    {abstract} #setA11YProperties() : void
    {abstract} #setCallbacks() : void
    {abstract} #setHtmlElements() : void
    {abstract} #unsetCallbacks() : void
    {abstract} #unsetHtmlElements() : void
    -_setCommonHtmlElements() : void
    -_unsetCommonHtmlElements() : void
}
"AbstractPattern<SwipeEventsConfig>" <|- - "SwipeEvents"
interface "ISwipeEvents" {
    +EventGestureEnd : Generic
    +EventGestureMove : Generic
    +isBuilt : boolean
    +selfElement : HTMLElement
    +uniqueId : string
    +widgetId : string
    +build() : void
    +changeProperty(propertyName: string, propertyValue: unknown) : void
    +dispose() : void
    +equalsToID(id: string) : boolean
}
"ISwipeEvents" <|.. "SwipeEvents"
@enduml

PlantUML version 1.2021.14(Fri Nov 12 16:46:50 UTC 2021)
(GPL source distribution)
Java Runtime: OpenJDK Runtime Environment
JVM: OpenJDK 64-Bit Server VM
Default Encoding: UTF-8
Language: en
Country: null
--></g></svg>