<?xml version="1.0" encoding="us-ascii" standalone="no"?><svg xmlns="http://www.w3.org/2000/svg" xmlns:xlink="http://www.w3.org/1999/xlink" contentStyleType="text/css" height="482px" preserveAspectRatio="none" style="width:631px;height:482px;background:#CED4DA;" version="1.1" viewBox="0 0 631 482" width="631px" zoomAndPan="magnify"><defs/><g><rect fill="#CED4DA" height="482" style="stroke:none;stroke-width:1.0;" width="631" x="0" y="0"/><!--class SwipeEventsConfig--><g id="elem_SwipeEventsConfig"><rect codeLine="7" fill="#FFFFFF" height="212.8828" id="SwipeEventsConfig" rx="2.5" ry="2.5" style="stroke:#272B30;stroke-width:0.5;" width="615" x="9" y="263"/><ellipse cx="247.25" cy="279" fill="#ADD1B2" rx="11" ry="11" style="stroke:#181818;stroke-width:1.0;"/><path d="M249.7231,285.1431 Q249.1421,285.4419 248.5029,285.5913 Q247.8638,285.7407 247.1582,285.7407 Q244.6514,285.7407 243.3315,284.0889 Q242.0117,282.437 242.0117,279.3159 Q242.0117,276.1865 243.3315,274.5347 Q244.6514,272.8828 247.1582,272.8828 Q247.8638,272.8828 248.5112,273.0322 Q249.1587,273.1816 249.7231,273.4805 L249.7231,276.2031 Q249.0923,275.6221 248.4988,275.3523 Q247.9053,275.0825 247.2744,275.0825 Q245.9297,275.0825 245.2449,276.1492 Q244.5601,277.2158 244.5601,279.3159 Q244.5601,281.4077 245.2449,282.4744 Q245.9297,283.541 247.2744,283.541 Q247.9053,283.541 248.4988,283.2712 Q249.0923,283.0015 249.7231,282.4204 Z " fill="#000000"/><text fill="#000000" font-family="sans-serif" font-size="14" lengthAdjust="spacing" textLength="130" x="267.75" y="284.291">SwipeEventsConfig</text><line style="stroke:#272B30;stroke-width:0.5;" x1="10" x2="623" y1="295" y2="295"/><ellipse cx="20" cy="308.7441" fill="none" rx="3" ry="3" style="stroke:#038048;stroke-width:1.0;"/><text fill="#000000" font-family="sans-serif" font-size="14" lengthAdjust="spacing" textLength="153" x="29" y="312.5352">ExtendedClass : string</text><ellipse cx="20" cy="325.2324" fill="none" rx="3" ry="3" style="stroke:#038048;stroke-width:1.0;"/><text fill="#000000" font-family="sans-serif" font-size="14" lengthAdjust="spacing" textLength="112" x="29" y="329.0234">WidgetId : string</text><line style="stroke:#272B30;stroke-width:0.5;" x1="10" x2="623" y1="335.9766" y2="335.9766"/><ellipse cx="20" cy="349.7207" fill="#84BE84" rx="3" ry="3" style="stroke:#038048;stroke-width:1.0;"/><text fill="#000000" font-family="sans-serif" font-size="14" lengthAdjust="spacing" textLength="409" x="29" y="353.5117">validateCanChange(_isBuilt: boolean, _key: string) : boolean</text><ellipse cx="20" cy="366.209" fill="#84BE84" rx="3" ry="3" style="stroke:#038048;stroke-width:1.0;"/><text fill="#000000" font-family="sans-serif" font-size="14" lengthAdjust="spacing" textLength="382" x="29" y="370">validateDefault(_key: string, value: unknown) : unknown</text><polygon fill="#FFFF44" points="20,377.6973,24,381.6973,20,385.6973,16,381.6973" style="stroke:#B38D22;stroke-width:1.0;"/><text fill="#000000" font-family="sans-serif" font-size="14" lengthAdjust="spacing" textLength="444" x="29" y="386.4883">validateBoolean(value: boolean, defaultValue: boolean) : boolean</text><polygon fill="#FFFF44" points="20,394.1855,24,398.1855,20,402.1855,16,398.1855" style="stroke:#B38D22;stroke-width:1.0;"/><text fill="#000000" font-family="sans-serif" font-size="14" lengthAdjust="spacing" textLength="460" x="29" y="402.9766">validateDate(value: string | Date, defaultValue: string) : string | Date</text><polygon fill="#FFFF44" points="20,410.6738,24,414.6738,20,418.6738,16,414.6738" style="stroke:#B38D22;stroke-width:1.0;"/><text fill="#000000" font-family="sans-serif" font-size="14" lengthAdjust="spacing" textLength="589" x="29" y="419.4648">validateInRange(value: unknown, defaultValue: unknown, args: unknown[]) : unknown</text><polygon fill="#FFFF44" points="20,427.1621,24,431.1621,20,435.1621,16,431.1621" style="stroke:#B38D22;stroke-width:1.0;"/><text fill="#000000" font-family="sans-serif" font-size="14" lengthAdjust="spacing" textLength="438" x="29" y="435.9531">validateNumber(value: number, defaultValue: number) : number</text><polygon fill="#FFFF44" points="20,443.6504,24,447.6504,20,451.6504,16,447.6504" style="stroke:#B38D22;stroke-width:1.0;"/><text fill="#000000" font-family="sans-serif" font-size="14" lengthAdjust="spacing" textLength="382" x="29" y="452.4414">validateString(value: string, defaultValue: string) : string</text><polygon fill="#FFFF44" points="20,460.1387,24,464.1387,20,468.1387,16,464.1387" style="stroke:#B38D22;stroke-width:1.0;"/><text fill="#000000" font-family="sans-serif" font-size="14" lengthAdjust="spacing" textLength="375" x="29" y="468.9297">validateTime(value: string, defaultValue: string) : string</text></g><!--class AbstractConfiguration--><g id="elem_AbstractConfiguration"><rect codeLine="19" fill="#FFFFFF" height="196.3945" id="AbstractConfiguration" rx="2.5" ry="2.5" style="stroke:#272B30;stroke-width:0.5;" width="615" x="9" y="7"/><ellipse cx="235.75" cy="23" fill="#A9DCDF" rx="11" ry="11" style="stroke:#181818;stroke-width:1.0;"/><path d="M235.6133,18.3481 L234.4595,23.4199 L236.7754,23.4199 Z M234.1191,16.1069 L237.1157,16.1069 L240.4609,28.5 L238.0122,28.5 L237.2485,25.437 L233.9697,25.437 L233.2227,28.5 L230.7739,28.5 Z " fill="#000000"/><text fill="#000000" font-family="sans-serif" font-size="14" font-style="italic" lengthAdjust="spacing" textLength="153" x="256.25" y="28.291">AbstractConfiguration</text><line style="stroke:#272B30;stroke-width:0.5;" x1="10" x2="623" y1="39" y2="39"/><ellipse cx="20" cy="52.7441" fill="none" rx="3" ry="3" style="stroke:#038048;stroke-width:1.0;"/><text fill="#000000" font-family="sans-serif" font-size="14" lengthAdjust="spacing" textLength="153" x="29" y="56.5352">ExtendedClass : string</text><line style="stroke:#272B30;stroke-width:0.5;" x1="10" x2="623" y1="63.4883" y2="63.4883"/><ellipse cx="20" cy="77.2324" fill="#84BE84" rx="3" ry="3" style="stroke:#038048;stroke-width:1.0;"/><text fill="#000000" font-family="sans-serif" font-size="14" lengthAdjust="spacing" textLength="409" x="29" y="81.0234">validateCanChange(_isBuilt: boolean, _key: string) : boolean</text><ellipse cx="20" cy="93.7207" fill="#84BE84" rx="3" ry="3" style="stroke:#038048;stroke-width:1.0;"/><text fill="#000000" font-family="sans-serif" font-size="14" lengthAdjust="spacing" textLength="382" x="29" y="97.5117">validateDefault(_key: string, value: unknown) : unknown</text><polygon fill="#FFFF44" points="20,105.209,24,109.209,20,113.209,16,109.209" style="stroke:#B38D22;stroke-width:1.0;"/><text fill="#000000" font-family="sans-serif" font-size="14" lengthAdjust="spacing" textLength="444" x="29" y="114">validateBoolean(value: boolean, defaultValue: boolean) : boolean</text><polygon fill="#FFFF44" points="20,121.6973,24,125.6973,20,129.6973,16,125.6973" style="stroke:#B38D22;stroke-width:1.0;"/><text fill="#000000" font-family="sans-serif" font-size="14" lengthAdjust="spacing" textLength="460" x="29" y="130.4883">validateDate(value: string | Date, defaultValue: string) : string | Date</text><polygon fill="#FFFF44" points="20,138.1855,24,142.1855,20,146.1855,16,142.1855" style="stroke:#B38D22;stroke-width:1.0;"/><text fill="#000000" font-family="sans-serif" font-size="14" lengthAdjust="spacing" textLength="589" x="29" y="146.9766">validateInRange(value: unknown, defaultValue: unknown, args: unknown[]) : unknown</text><polygon fill="#FFFF44" points="20,154.6738,24,158.6738,20,162.6738,16,158.6738" style="stroke:#B38D22;stroke-width:1.0;"/><text fill="#000000" font-family="sans-serif" font-size="14" lengthAdjust="spacing" textLength="438" x="29" y="163.4648">validateNumber(value: number, defaultValue: number) : number</text><polygon fill="#FFFF44" points="20,171.1621,24,175.1621,20,179.1621,16,175.1621" style="stroke:#B38D22;stroke-width:1.0;"/><text fill="#000000" font-family="sans-serif" font-size="14" lengthAdjust="spacing" textLength="382" x="29" y="179.9531">validateString(value: string, defaultValue: string) : string</text><polygon fill="#FFFF44" points="20,187.6504,24,191.6504,20,195.6504,16,191.6504" style="stroke:#B38D22;stroke-width:1.0;"/><text fill="#000000" font-family="sans-serif" font-size="14" lengthAdjust="spacing" textLength="375" x="29" y="196.4414">validateTime(value: string, defaultValue: string) : string</text></g><!--reverse link AbstractConfiguration to SwipeEventsConfig--><g id="link_AbstractConfiguration_SwipeEventsConfig"><path codeLine="30" d="M316.5,223.68 C316.5,236.75 316.5,250 316.5,262.91 " fill="none" id="AbstractConfiguration-backto-SwipeEventsConfig" style="stroke:#272B30;stroke-width:1.0;"/><polygon fill="none" points="309.5,223.37,316.5,203.37,323.5,223.37,309.5,223.37" style="stroke:#272B30;stroke-width:1.0;"/></g><!--SRC=[xPHDJy9048Rl_HKJk624nA292V42XGCN3sBqO0oPTgTbqtQNx6v18lvt-orRHV5EaoOxxymyEzEygOwuMAF21DmOjHuh9RUkZAM2xl1sw5rVETgkc4Z5IFrUWduKAfaALfK5GN1Gyotj4xjXwAmu8w1aRNQGa5b9fW-bW5ESANv-0NGMMxwcsOQ4qQuK0GyxyEv0zbpEtWm9HgoO14QWZU8YB7FFd8LavgmbRp3c30svADmLYf1wIwudAO_D23mfOqBHXsL4kxhj0fg4JPXIW6biUeV5VSYoAOqW5P6GMv4tLyUYkLitJqfYhoflRcObzCcIsoCqb6dsreXo0DX3BhP1NwjOPJPjBXwA3sAlq4OrCgfGD-7Bwz5LxzF48rLJHH6reQMQ8ygJJLWKCzkB_hMXJNZa2Vsp_yD1BpkYRw3ouRYAInEc2WsNuYGldartDjs9fZlcihlzOF3Jh_0J]--></g></svg>