<?xml version="1.0" encoding="UTF-8" standalone="no"?><svg xmlns="http://www.w3.org/2000/svg" xmlns:xlink="http://www.w3.org/1999/xlink" contentScriptType="application/ecmascript" contentStyleType="text/css" height="707px" preserveAspectRatio="none" style="width:864px;height:707px;background:#CED4DA;" version="1.1" viewBox="0 0 864 707" width="864px" zoomAndPan="magnify"><defs><filter height="300%" id="fib7sj9iqwe26" width="300%" x="-1" y="-1"><feGaussianBlur result="blurOut" stdDeviation="2.0"/><feColorMatrix in="blurOut" result="blurOut2" type="matrix" values="0 0 0 0 0 0 0 0 0 0 0 0 0 0 0 0 0 0 .4 0"/><feOffset dx="4.0" dy="4.0" in="blurOut2" result="blurOut3"/><feBlend in="SourceGraphic" in2="blurOut3" mode="normal"/></filter></defs><g><!--MD5=[8ee927d1a0b655bb8138921af99c174f]
class SwipeEvents--><rect codeLine="7" fill="#FFFFFF" filter="url(#fib7sj9iqwe26)" height="423.6973" id="SwipeEvents" style="stroke:#272B30;stroke-width:1.5;" width="444" x="207.5" y="270"/><ellipse cx="390.25" cy="286" fill="#ADD1B2" rx="11" ry="11" style="stroke:#272B30;stroke-width:1.0;"/><path d="M392.7231,292.1431 Q392.1421,292.4419 391.5029,292.5913 Q390.8638,292.7407 390.1582,292.7407 Q387.6514,292.7407 386.3315,291.0889 Q385.0117,289.437 385.0117,286.3159 Q385.0117,283.1865 386.3315,281.5347 Q387.6514,279.8828 390.1582,279.8828 Q390.8638,279.8828 391.5112,280.0322 Q392.1587,280.1816 392.7231,280.4805 L392.7231,283.2031 Q392.0923,282.6221 391.4988,282.3523 Q390.9053,282.0825 390.2744,282.0825 Q388.9297,282.0825 388.2449,283.1492 Q387.5601,284.2158 387.5601,286.3159 Q387.5601,288.4077 388.2449,289.4744 Q388.9297,290.541 390.2744,290.541 Q390.9053,290.541 391.4988,290.2712 Q392.0923,290.0015 392.7231,289.4204 Z " fill="#000000"/><text fill="#000000" font-family="sans-serif" font-size="12" lengthAdjust="spacing" textLength="70" x="410.75" y="290.5352">SwipeEvents</text><line style="stroke:#272B30;stroke-width:1.5;" x1="208.5" x2="650.5" y1="302" y2="302"/><polygon fill="none" points="218.5,308,222.5,312,218.5,316,214.5,312" style="stroke:#B38D22;stroke-width:1.0;"/><text fill="#000000" font-family="sans-serif" font-size="11" lengthAdjust="spacing" textLength="131" x="227.5" y="316.6348">_selfElem : HTMLElement</text><polygon fill="none" points="218.5,320.9551,222.5,324.9551,218.5,328.9551,214.5,324.9551" style="stroke:#B38D22;stroke-width:1.0;"/><text fill="#000000" font-family="sans-serif" font-size="11" lengthAdjust="spacing" textLength="92" x="227.5" y="329.5898">_widgetId : string</text><rect fill="none" height="6" style="stroke:#C82930;stroke-width:1.0;" width="6" x="215.5" y="335.9102"/><text fill="#000000" font-family="sans-serif" font-size="11" lengthAdjust="spacing" textLength="154" x="227.5" y="342.5449">_gestureMoveEvent : Generic</text><rect fill="none" height="6" style="stroke:#C82930;stroke-width:1.0;" width="6" x="215.5" y="348.8652"/><text fill="#000000" font-family="sans-serif" font-size="11" lengthAdjust="spacing" textLength="151" x="227.5" y="355.5">_gestureStartEvent : Generic</text><rect fill="none" height="6" style="stroke:#C82930;stroke-width:1.0;" width="6" x="215.5" y="361.8203"/><text fill="#000000" font-family="sans-serif" font-size="11" lengthAdjust="spacing" textLength="175" x="227.5" y="368.4551">_swipableElement : HTMLElement</text><rect fill="none" height="6" style="stroke:#C82930;stroke-width:1.0;" width="6" x="215.5" y="374.7754"/><text fill="#000000" font-family="sans-serif" font-size="11" lengthAdjust="spacing" textLength="161" x="227.5" y="381.4102">_swipeDownCallback : Generic</text><rect fill="none" height="6" style="stroke:#C82930;stroke-width:1.0;" width="6" x="215.5" y="387.7305"/><text fill="#000000" font-family="sans-serif" font-size="11" lengthAdjust="spacing" textLength="151" x="227.5" y="394.3652">_swipeLeftCallback : Generic</text><rect fill="none" height="6" style="stroke:#C82930;stroke-width:1.0;" width="6" x="215.5" y="400.6855"/><text fill="#000000" font-family="sans-serif" font-size="11" lengthAdjust="spacing" textLength="159" x="227.5" y="407.3203">_swipeRightCallback : Generic</text><rect fill="none" height="6" style="stroke:#C82930;stroke-width:1.0;" width="6" x="215.5" y="413.6406"/><text fill="#000000" font-family="sans-serif" font-size="11" lengthAdjust="spacing" textLength="146" x="227.5" y="420.2754">_swipeUpCallback : Generic</text><rect fill="none" height="6" style="stroke:#C82930;stroke-width:1.0;" width="6" x="215.5" y="426.5957"/><text fill="#000000" font-family="sans-serif" font-size="11" lengthAdjust="spacing" textLength="109" x="227.5" y="433.2305">_threshold : number</text><rect fill="none" height="6" style="stroke:#C82930;stroke-width:1.0;" width="6" x="215.5" y="439.5508"/><text fill="#000000" font-family="sans-serif" font-size="11" lengthAdjust="spacing" textLength="98" x="227.5" y="446.1855">_velocity : number</text><line style="stroke:#272B30;stroke-width:1.5;" x1="208.5" x2="650.5" y1="452.5059" y2="452.5059"/><ellipse cx="218.5" cy="463.5059" fill="#84BE84" rx="3" ry="3" style="stroke:#038048;stroke-width:1.0;"/><text fill="#000000" font-family="sans-serif" font-size="11" lengthAdjust="spacing" textLength="67" x="227.5" y="467.1406">build() : void</text><ellipse cx="218.5" cy="476.4609" fill="#84BE84" rx="3" ry="3" style="stroke:#038048;stroke-width:1.0;"/><text fill="#000000" font-family="sans-serif" font-size="11" lengthAdjust="spacing" textLength="377" x="227.5" y="480.0957">changeProperty(propertyName: string, propertyValue: unknown) : void</text><ellipse cx="218.5" cy="489.416" fill="#84BE84" rx="3" ry="3" style="stroke:#038048;stroke-width:1.0;"/><text fill="#000000" font-family="sans-serif" font-size="11" lengthAdjust="spacing" textLength="82" x="227.5" y="493.0508">dispose() : void</text><ellipse cx="218.5" cy="502.3711" fill="#84BE84" rx="3" ry="3" style="stroke:#038048;stroke-width:1.0;"/><text fill="#000000" font-family="sans-serif" font-size="11" lengthAdjust="spacing" textLength="207" x="227.5" y="506.0059">equalsToID(patternId: string) : boolean</text><ellipse cx="218.5" cy="515.3262" fill="#84BE84" rx="3" ry="3" style="stroke:#038048;stroke-width:1.0;"/><text fill="#000000" font-family="sans-serif" font-size="11" lengthAdjust="spacing" textLength="418" x="227.5" y="518.9609">EventGestureEnd(offsetX: number, offsetY: number, timeTaken: number) : void</text><ellipse cx="218.5" cy="528.2813" fill="#84BE84" rx="3" ry="3" style="stroke:#038048;stroke-width:1.0;"/><text fill="#000000" font-family="sans-serif" font-size="11" lengthAdjust="spacing" textLength="237" x="227.5" y="531.916">EventGestureMove(event: TouchEvent) : void</text><ellipse cx="218.5" cy="541.2363" fill="#84BE84" rx="3" ry="3" style="stroke:#038048;stroke-width:1.0;"/><text fill="#000000" font-family="sans-serif" font-size="11" lengthAdjust="spacing" textLength="335" x="227.5" y="544.8711">registerCallback(eventName: string, callback: OSGeneric) : void</text><polygon fill="#FFFF44" points="218.5,549.1914,222.5,553.1914,218.5,557.1914,214.5,553.1914" style="stroke:#B38D22;stroke-width:1.0;"/><text fill="#000000" font-family="sans-serif" font-size="11" lengthAdjust="spacing" textLength="96" x="227.5" y="557.8262">finishBuild() : void</text><polygon fill="#FFFF44" points="218.5,562.1465,222.5,566.1465,218.5,570.1465,214.5,566.1465" style="stroke:#B38D22;stroke-width:1.0;"/><text fill="#000000" font-family="sans-serif" font-size="11" lengthAdjust="spacing" textLength="107" x="227.5" y="570.7813">setCallbacks() : void</text><polygon fill="#FFFF44" points="218.5,575.1016,222.5,579.1016,218.5,583.1016,214.5,579.1016" style="stroke:#B38D22;stroke-width:1.0;"/><text fill="#000000" font-family="sans-serif" font-size="11" lengthAdjust="spacing" textLength="129" x="227.5" y="583.7363">setHtmlElements() : void</text><polygon fill="#FFFF44" points="218.5,588.0566,222.5,592.0566,218.5,596.0566,214.5,592.0566" style="stroke:#B38D22;stroke-width:1.0;"/><text fill="#000000" font-family="sans-serif" font-size="11" lengthAdjust="spacing" textLength="121" x="227.5" y="596.6914">unsetCallbacks() : void</text><polygon fill="#FFFF44" points="218.5,601.0117,222.5,605.0117,218.5,609.0117,214.5,605.0117" style="stroke:#B38D22;stroke-width:1.0;"/><text fill="#000000" font-family="sans-serif" font-size="11" lengthAdjust="spacing" textLength="143" x="227.5" y="609.6465">unsetHtmlElements() : void</text><rect fill="#F24D5C" height="6" style="stroke:#C82930;stroke-width:1.0;" width="6" x="215.5" y="615.9668"/><text fill="#000000" font-family="sans-serif" font-size="11" lengthAdjust="spacing" textLength="164" x="227.5" y="622.6016">_removeEventListeners() : void</text><rect fill="#F24D5C" height="6" style="stroke:#C82930;stroke-width:1.0;" width="6" x="215.5" y="628.9219"/><text fill="#000000" font-family="sans-serif" font-size="11" lengthAdjust="spacing" textLength="140" x="227.5" y="635.5566">_setEventListeners() : void</text><rect fill="#F24D5C" height="6" style="stroke:#C82930;stroke-width:1.0;" width="6" x="215.5" y="641.877"/><text fill="#000000" font-family="sans-serif" font-size="11" lengthAdjust="spacing" textLength="143" x="227.5" y="648.5117">_triggerSwipeDown() : void</text><rect fill="#F24D5C" height="6" style="stroke:#C82930;stroke-width:1.0;" width="6" x="215.5" y="654.832"/><text fill="#000000" font-family="sans-serif" font-size="11" lengthAdjust="spacing" textLength="133" x="227.5" y="661.4668">_triggerSwipeLeft() : void</text><rect fill="#F24D5C" height="6" style="stroke:#C82930;stroke-width:1.0;" width="6" x="215.5" y="667.7871"/><text fill="#000000" font-family="sans-serif" font-size="11" lengthAdjust="spacing" textLength="141" x="227.5" y="674.4219">_triggerSwipeRight() : void</text><rect fill="#F24D5C" height="6" style="stroke:#C82930;stroke-width:1.0;" width="6" x="215.5" y="680.7422"/><text fill="#000000" font-family="sans-serif" font-size="11" lengthAdjust="spacing" textLength="128" x="227.5" y="687.377">_triggerSwipeUp() : void</text><!--MD5=[d94361a96c5a4c6a93d32f6b62492731]
class AbstractPattern<SwipeEventsConfig>--><rect codeLine="38" fill="#FFFFFF" filter="url(#fib7sj9iqwe26)" height="203.4609" id="AbstractPattern&lt;SwipeEventsConfig&gt;" style="stroke:#272B30;stroke-width:1.5;" width="403" x="9" y="7"/><ellipse cx="98.75" cy="23" fill="#A9DCDF" rx="11" ry="11" style="stroke:#272B30;stroke-width:1.0;"/><path d="M98.6133,18.3481 L97.4595,23.4199 L99.7754,23.4199 Z M97.1191,16.1069 L100.1157,16.1069 L103.4609,28.5 L101.0122,28.5 L100.2485,25.437 L96.9697,25.437 L96.2227,28.5 L93.7739,28.5 Z " fill="#000000"/><text fill="#000000" font-family="sans-serif" font-size="12" font-style="italic" lengthAdjust="spacing" textLength="215" x="119.25" y="27.5352">AbstractPattern&lt;SwipeEventsConfig&gt;</text><line style="stroke:#272B30;stroke-width:1.5;" x1="10" x2="411" y1="39" y2="39"/><polygon fill="none" points="20,45,24,49,20,53,16,49" style="stroke:#B38D22;stroke-width:1.0;"/><text fill="#000000" font-family="sans-serif" font-size="11" lengthAdjust="spacing" textLength="131" x="29" y="53.6348">_selfElem : HTMLElement</text><polygon fill="none" points="20,57.9551,24,61.9551,20,65.9551,16,61.9551" style="stroke:#B38D22;stroke-width:1.0;"/><text fill="#000000" font-family="sans-serif" font-size="11" lengthAdjust="spacing" textLength="92" x="29" y="66.5898">_widgetId : string</text><rect fill="none" height="6" style="stroke:#C82930;stroke-width:1.0;" width="6" x="17" y="72.9102"/><text fill="#000000" font-family="sans-serif" font-size="11" lengthAdjust="spacing" textLength="156" x="29" y="79.5449">_configs : SwipeEventsConfig</text><rect fill="none" height="6" style="stroke:#C82930;stroke-width:1.0;" width="6" x="17" y="85.8652"/><text fill="#000000" font-family="sans-serif" font-size="11" lengthAdjust="spacing" textLength="90" x="29" y="92.5">_isBuilt : boolean</text><rect fill="none" height="6" style="stroke:#C82930;stroke-width:1.0;" width="6" x="17" y="98.8203"/><text fill="#000000" font-family="sans-serif" font-size="11" lengthAdjust="spacing" textLength="94" x="29" y="105.4551">_uniqueId : string</text><line style="stroke:#272B30;stroke-width:1.5;" x1="10" x2="411" y1="111.7754" y2="111.7754"/><ellipse cx="20" cy="122.7754" fill="#84BE84" rx="3" ry="3" style="stroke:#038048;stroke-width:1.0;"/><text fill="#000000" font-family="sans-serif" font-size="11" lengthAdjust="spacing" textLength="67" x="29" y="126.4102">build() : void</text><ellipse cx="20" cy="135.7305" fill="#84BE84" rx="3" ry="3" style="stroke:#038048;stroke-width:1.0;"/><text fill="#000000" font-family="sans-serif" font-size="11" lengthAdjust="spacing" textLength="377" x="29" y="139.3652">changeProperty(propertyName: string, propertyValue: unknown) : void</text><ellipse cx="20" cy="148.6855" fill="#84BE84" rx="3" ry="3" style="stroke:#038048;stroke-width:1.0;"/><text fill="#000000" font-family="sans-serif" font-size="11" lengthAdjust="spacing" textLength="82" x="29" y="152.3203">dispose() : void</text><ellipse cx="20" cy="161.6406" fill="#84BE84" rx="3" ry="3" style="stroke:#038048;stroke-width:1.0;"/><text fill="#000000" font-family="sans-serif" font-size="11" lengthAdjust="spacing" textLength="207" x="29" y="165.2754">equalsToID(patternId: string) : boolean</text><polygon fill="#FFFF44" points="20,169.5957,24,173.5957,20,177.5957,16,173.5957" style="stroke:#B38D22;stroke-width:1.0;"/><text fill="#000000" font-family="sans-serif" font-size="11" lengthAdjust="spacing" textLength="96" x="29" y="178.2305">finishBuild() : void</text><polygon fill="#FFFF44" points="20,182.5508,24,186.5508,20,190.5508,16,186.5508" style="stroke:#B38D22;stroke-width:1.0;"/><text fill="#000000" font-family="sans-serif" font-size="11" lengthAdjust="spacing" textLength="198" x="29" y="191.1855">_unsetCommonHtmlElements() : void</text><rect fill="#F24D5C" height="6" style="stroke:#C82930;stroke-width:1.0;" width="6" x="17" y="197.5059"/><text fill="#000000" font-family="sans-serif" font-size="11" lengthAdjust="spacing" textLength="184" x="29" y="204.1406">_setCommonHtmlElements() : void</text><!--MD5=[64c928c84d705bf3a17bcea82688d460]
class ISwipeEvents--><rect codeLine="53" fill="#FFFFFF" filter="url(#fib7sj9iqwe26)" height="177.5508" id="ISwipeEvents" style="stroke:#272B30;stroke-width:1.5;" width="403" x="447" y="19.5"/><ellipse cx="607.75" cy="35.5" fill="#B4A7E5" rx="11" ry="11" style="stroke:#272B30;stroke-width:1.0;"/><path d="M604.1777,31.7651 L604.1777,29.6069 L611.5571,29.6069 L611.5571,31.7651 L609.0918,31.7651 L609.0918,39.8418 L611.5571,39.8418 L611.5571,42 L604.1777,42 L604.1777,39.8418 L606.6431,39.8418 L606.6431,31.7651 Z " fill="#000000"/><text fill="#000000" font-family="sans-serif" font-size="12" font-style="italic" lengthAdjust="spacing" textLength="73" x="628.25" y="40.0352">ISwipeEvents</text><line style="stroke:#272B30;stroke-width:1.5;" x1="448" x2="849" y1="51.5" y2="51.5"/><ellipse cx="458" cy="62.5" rx="3" ry="3" style="stroke:#038048;stroke-width:1.0;fill:none;"/><text fill="#000000" font-family="sans-serif" font-size="11" lengthAdjust="spacing" textLength="119" x="467" y="66.1348">EventGestureEnd : any</text><ellipse cx="458" cy="75.4551" rx="3" ry="3" style="stroke:#038048;stroke-width:1.0;fill:none;"/><text fill="#000000" font-family="sans-serif" font-size="11" lengthAdjust="spacing" textLength="127" x="467" y="79.0898">EventGestureMove : any</text><ellipse cx="458" cy="88.4102" rx="3" ry="3" style="stroke:#038048;stroke-width:1.0;fill:none;"/><text fill="#000000" font-family="sans-serif" font-size="11" lengthAdjust="spacing" textLength="84" x="467" y="92.0449">isBuilt : boolean</text><ellipse cx="458" cy="101.3652" rx="3" ry="3" style="stroke:#038048;stroke-width:1.0;fill:none;"/><text fill="#000000" font-family="sans-serif" font-size="11" lengthAdjust="spacing" textLength="142" x="467" y="105">selfElement : HTMLElement</text><ellipse cx="458" cy="114.3203" rx="3" ry="3" style="stroke:#038048;stroke-width:1.0;fill:none;"/><text fill="#000000" font-family="sans-serif" font-size="11" lengthAdjust="spacing" textLength="88" x="467" y="117.9551">uniqueId : string</text><ellipse cx="458" cy="127.2754" rx="3" ry="3" style="stroke:#038048;stroke-width:1.0;fill:none;"/><text fill="#000000" font-family="sans-serif" font-size="11" lengthAdjust="spacing" textLength="86" x="467" y="130.9102">widgetId : string</text><line style="stroke:#272B30;stroke-width:1.5;" x1="448" x2="849" y1="137.2305" y2="137.2305"/><ellipse cx="458" cy="148.2305" fill="#84BE84" rx="3" ry="3" style="stroke:#038048;stroke-width:1.0;"/><text fill="#000000" font-family="sans-serif" font-size="11" lengthAdjust="spacing" textLength="67" x="467" y="151.8652">build() : void</text><ellipse cx="458" cy="161.1855" fill="#84BE84" rx="3" ry="3" style="stroke:#038048;stroke-width:1.0;"/><text fill="#000000" font-family="sans-serif" font-size="11" lengthAdjust="spacing" textLength="377" x="467" y="164.8203">changeProperty(propertyName: string, propertyValue: unknown) : void</text><ellipse cx="458" cy="174.1406" fill="#84BE84" rx="3" ry="3" style="stroke:#038048;stroke-width:1.0;"/><text fill="#000000" font-family="sans-serif" font-size="11" lengthAdjust="spacing" textLength="82" x="467" y="177.7754">dispose() : void</text><ellipse cx="458" cy="187.0957" fill="#84BE84" rx="3" ry="3" style="stroke:#038048;stroke-width:1.0;"/><text fill="#000000" font-family="sans-serif" font-size="11" lengthAdjust="spacing" textLength="168" x="467" y="190.7305">equalsToID(id: string) : boolean</text><!--MD5=[684d18004ab0b7d6e5a88abae73cefc3]
reverse link AbstractPattern<SwipeEventsConfig> to SwipeEvents--><path codeLine="52" d="M280.12,227.6 C288.16,241.24 296.53,255.44 305.02,269.85 " fill="none" id="AbstractPattern&lt;SwipeEventsConfig&gt;-backto-SwipeEvents" style="stroke:#272B30;stroke-width:1.0;"/><polygon fill="none" points="273.89,230.82,269.76,210.03,285.95,223.71,273.89,230.82" style="stroke:#272B30;stroke-width:1.0;"/><!--MD5=[a43d19e21be9f9bb797f151c6c9dd8db]
reverse link ISwipeEvents to SwipeEvents--><path codeLine="65" d="M586.4,214.84 C576.16,232.22 565.23,250.75 554.09,269.65 " fill="none" id="ISwipeEvents-backto-SwipeEvents" style="stroke:#272B30;stroke-width:1.0;stroke-dasharray:7.0,7.0;"/><polygon fill="none" points="580.41,211.21,596.6,197.54,592.47,218.32,580.41,211.21" style="stroke:#272B30;stroke-width:1.0;"/><!--MD5=[aec8f0be3173ce185dd119304ed475a5]
@startuml
skinparam ClassArrowColor #272b30
skinparam ClassBorderColor #272b30
skinparam ClassBackgroundColor #fff
skinparam BackgroundColor #ced4da
hide empty methods
hide empty fields
class "SwipeEvents" {
    #_selfElem : HTMLElement
    #_widgetId : string
    -_gestureMoveEvent : Generic
    -_gestureStartEvent : Generic
    -_swipableElement : HTMLElement
    -_swipeDownCallback : Generic
    -_swipeLeftCallback : Generic
    -_swipeRightCallback : Generic
    -_swipeUpCallback : Generic
    -_threshold : number
    -_velocity : number
    +build() : void
    +changeProperty(propertyName: string, propertyValue: unknown) : void
    +dispose() : void
    +equalsToID(patternId: string) : boolean
    +EventGestureEnd(offsetX: number, offsetY: number, timeTaken: number) : void
    +EventGestureMove(event: TouchEvent) : void
    +registerCallback(eventName: string, callback: OSGeneric) : void
    #finishBuild() : void
    #setCallbacks() : void
    #setHtmlElements() : void
    #unsetCallbacks() : void
    #unsetHtmlElements() : void
    -_removeEventListeners() : void
    -_setEventListeners() : void
    -_triggerSwipeDown() : void
    -_triggerSwipeLeft() : void
    -_triggerSwipeRight() : void
    -_triggerSwipeUp() : void
}
abstract class "AbstractPattern<SwipeEventsConfig>" {
    #_selfElem : HTMLElement
    #_widgetId : string
    -_configs : SwipeEventsConfig
    -_isBuilt : boolean
    -_uniqueId : string
    +build() : void
    +changeProperty(propertyName: string, propertyValue: unknown) : void
    +dispose() : void
    +equalsToID(patternId: string) : boolean
    #finishBuild() : void
    #_unsetCommonHtmlElements() : void
    -_setCommonHtmlElements() : void
}
"AbstractPattern<SwipeEventsConfig>" <|- - "SwipeEvents"
interface "ISwipeEvents" {
    +EventGestureEnd : any
    +EventGestureMove : any
    +isBuilt : boolean
    +selfElement : HTMLElement
    +uniqueId : string
    +widgetId : string
    +build() : void
    +changeProperty(propertyName: string, propertyValue: unknown) : void
    +dispose() : void
    +equalsToID(id: string) : boolean
}
"ISwipeEvents" <|.. "SwipeEvents"
@enduml

PlantUML version 1.2021.14(Fri Nov 12 16:46:50 WET 2021)
(GPL source distribution)
Java Runtime: Java(TM) SE Runtime Environment
JVM: Java HotSpot(TM) 64-Bit Server VM
Default Encoding: UTF-8
Language: en
Country: PT
--></g></svg>