<?xml version="1.0" encoding="us-ascii" standalone="no"?><svg xmlns="http://www.w3.org/2000/svg" xmlns:xlink="http://www.w3.org/1999/xlink" contentStyleType="text/css" height="647px" preserveAspectRatio="none" style="width:1039px;height:647px;background:#CED4DA;" version="1.1" viewBox="0 0 1039 647" width="1039px" zoomAndPan="magnify"><defs/><g><rect fill="#CED4DA" height="647" style="stroke:none;stroke-width:1.0;" width="1039" x="0" y="0"/><!--class SwipeEvent--><g id="elem_SwipeEvent"><rect codeLine="7" fill="#FFFFFF" height="245.8594" id="SwipeEvent" rx="2.5" ry="2.5" style="stroke:#272B30;stroke-width:0.5;" width="1023" x="9" y="395"/><ellipse cx="477.75" cy="411" fill="#ADD1B2" rx="11" ry="11" style="stroke:#181818;stroke-width:1.0;"/><path d="M480.2231,417.1431 Q479.6421,417.4419 479.0029,417.5913 Q478.3638,417.7407 477.6582,417.7407 Q475.1514,417.7407 473.8315,416.0889 Q472.5117,414.437 472.5117,411.3159 Q472.5117,408.1865 473.8315,406.5347 Q475.1514,404.8828 477.6582,404.8828 Q478.3638,404.8828 479.0112,405.0322 Q479.6587,405.1816 480.2231,405.4805 L480.2231,408.2031 Q479.5923,407.6221 478.9988,407.3523 Q478.4053,407.0825 477.7744,407.0825 Q476.4297,407.0825 475.7449,408.1492 Q475.0601,409.2158 475.0601,411.3159 Q475.0601,413.4077 475.7449,414.4744 Q476.4297,415.541 477.7744,415.541 Q478.4053,415.541 478.9988,415.2712 Q479.5923,415.0015 480.2231,414.4204 Z " fill="#000000"/><text fill="#000000" font-family="sans-serif" font-size="14" lengthAdjust="spacing" textLength="77" x="498.25" y="416.291">SwipeEvent</text><line style="stroke:#272B30;stroke-width:0.5;" x1="10" x2="1031" y1="427" y2="427"/><rect fill="none" height="6" style="stroke:#C82930;stroke-width:1.0;" width="6" x="17" y="437.7441"/><text fill="#000000" font-family="sans-serif" font-size="14" lengthAdjust="spacing" textLength="207" x="29" y="444.5352">_swipeDownCallback : Generic</text><rect fill="none" height="6" style="stroke:#C82930;stroke-width:1.0;" width="6" x="17" y="454.2324"/><text fill="#000000" font-family="sans-serif" font-size="14" lengthAdjust="spacing" textLength="193" x="29" y="461.0234">_swipeLeftCallback : Generic</text><rect fill="none" height="6" style="stroke:#C82930;stroke-width:1.0;" width="6" x="17" y="470.7207"/><text fill="#000000" font-family="sans-serif" font-size="14" lengthAdjust="spacing" textLength="204" x="29" y="477.5117">_swipeRightCallback : Generic</text><rect fill="none" height="6" style="stroke:#C82930;stroke-width:1.0;" width="6" x="17" y="487.209"/><text fill="#000000" font-family="sans-serif" font-size="14" lengthAdjust="spacing" textLength="187" x="29" y="494">_swipeUpCallback : Generic</text><rect fill="none" height="6" style="stroke:#C82930;stroke-width:1.0;" width="6" x="17" y="503.6973"/><text fill="#000000" font-family="sans-serif" font-size="14" lengthAdjust="spacing" textLength="139" x="29" y="510.4883">_threshold : number</text><rect fill="none" height="6" style="stroke:#C82930;stroke-width:1.0;" width="6" x="17" y="520.1855"/><text fill="#000000" font-family="sans-serif" font-size="14" lengthAdjust="spacing" textLength="124" x="29" y="526.9766">_velocity : number</text><line style="stroke:#272B30;stroke-width:0.5;" x1="10" x2="1031" y1="533.9297" y2="533.9297"/><ellipse cx="20" cy="547.6738" fill="#84BE84" rx="3" ry="3" style="stroke:#038048;stroke-width:1.0;"/><text fill="#000000" font-family="sans-serif" font-size="14" lengthAdjust="spacing" textLength="997" x="29" y="551.4648">setSwipeEvents(swipeDownCallback: SwipeDown, swipeLeftCallback: SwipeLeft, swipeRightCallback: SwipeRight, swipeUpCallback: SwipeUp) : void</text><ellipse cx="20" cy="564.1621" fill="#84BE84" rx="3" ry="3" style="stroke:#038048;stroke-width:1.0;"/><text fill="#000000" font-family="sans-serif" font-size="14" lengthAdjust="spacing" textLength="176" x="29" y="567.9531">unsetTouchEvents() : void</text><polygon fill="#FFFF44" points="20,575.6504,24,579.6504,20,583.6504,16,579.6504" style="stroke:#B38D22;stroke-width:1.0;"/><text fill="#000000" font-family="sans-serif" font-size="14" lengthAdjust="spacing" textLength="654" x="29" y="584.4414">setCallbacks(onStartCallback: Generic, onMoveCallback: Generic, onEndCallback: Generic) : void</text><polygon fill="#FFFF44" points="20,592.1387,24,596.1387,20,600.1387,16,596.1387" style="stroke:#B38D22;stroke-width:1.0;"/><text fill="#000000" font-family="sans-serif" font-size="14" lengthAdjust="spacing" textLength="169" x="29" y="600.9297">setEventListeners() : void</text><polygon fill="#FFFF44" points="20,608.627,24,612.627,20,616.627,16,612.627" style="stroke:#B38D22;stroke-width:1.0;"/><text fill="#000000" font-family="sans-serif" font-size="14" lengthAdjust="spacing" textLength="947" x="29" y="617.418">setSwipeCallbacks(swipeDownCallback: Generic, swipeLeftCallback: Generic, swipeRightCallback: Generic, swipeUpCallback: Generic) : void</text><rect fill="#F24D5C" height="6" style="stroke:#C82930;stroke-width:1.0;" width="6" x="17" y="627.1152"/><text fill="#000000" font-family="sans-serif" font-size="14" lengthAdjust="spacing" textLength="525" x="29" y="633.9063">_onGestureEnd(offsetX: number, offsetY: number, timeTaken: number) : void</text></g><!--class AbstractGestureEvent--><g id="elem_AbstractGestureEvent"><rect codeLine="21" fill="#FFFFFF" height="328.3008" id="AbstractGestureEvent" rx="2.5" ry="2.5" style="stroke:#272B30;stroke-width:0.5;" width="680" x="180.5" y="7"/><ellipse cx="442.75" cy="23" fill="#A9DCDF" rx="11" ry="11" style="stroke:#181818;stroke-width:1.0;"/><path d="M442.6133,18.3481 L441.4595,23.4199 L443.7754,23.4199 Z M441.1191,16.1069 L444.1157,16.1069 L447.4609,28.5 L445.0122,28.5 L444.2485,25.437 L440.9697,25.437 L440.2227,28.5 L437.7739,28.5 Z " fill="#000000"/><text fill="#000000" font-family="sans-serif" font-size="14" font-style="italic" lengthAdjust="spacing" textLength="147" x="463.25" y="28.291">AbstractGestureEvent</text><line style="stroke:#272B30;stroke-width:0.5;" x1="181.5" x2="859.5" y1="39" y2="39"/><rect fill="none" height="6" style="stroke:#C82930;stroke-width:1.0;" width="6" x="188.5" y="49.7441"/><text fill="#000000" font-family="sans-serif" font-size="14" lengthAdjust="spacing" textLength="134" x="200.5" y="56.5352">_endEvent : Generic</text><rect fill="none" height="6" style="stroke:#C82930;stroke-width:1.0;" width="6" x="188.5" y="66.2324"/><text fill="#000000" font-family="sans-serif" font-size="14" lengthAdjust="spacing" textLength="206" x="200.5" y="73.0234">_endTriggerCallback : Generic</text><rect fill="none" height="6" style="stroke:#C82930;stroke-width:1.0;" width="6" x="188.5" y="82.7207"/><text fill="#000000" font-family="sans-serif" font-size="14" lengthAdjust="spacing" textLength="224" x="200.5" y="89.5117">_gestureParams : GestureParams</text><rect fill="none" height="6" style="stroke:#C82930;stroke-width:1.0;" width="6" x="188.5" y="99.209"/><text fill="#000000" font-family="sans-serif" font-size="14" lengthAdjust="spacing" textLength="145" x="200.5" y="106">_moveEvent : Generic</text><rect fill="none" height="6" style="stroke:#C82930;stroke-width:1.0;" width="6" x="188.5" y="115.6973"/><text fill="#000000" font-family="sans-serif" font-size="14" lengthAdjust="spacing" textLength="217" x="200.5" y="122.4883">_moveTriggerCallback : Generic</text><rect fill="none" height="6" style="stroke:#C82930;stroke-width:1.0;" width="6" x="188.5" y="132.1855"/><text fill="#000000" font-family="sans-serif" font-size="14" lengthAdjust="spacing" textLength="139" x="200.5" y="138.9766">_startEvent : Generic</text><rect fill="none" height="6" style="stroke:#C82930;stroke-width:1.0;" width="6" x="188.5" y="148.6738"/><text fill="#000000" font-family="sans-serif" font-size="14" lengthAdjust="spacing" textLength="211" x="200.5" y="155.4648">_startTriggerCallback : Generic</text><rect fill="none" height="6" style="stroke:#C82930;stroke-width:1.0;" width="6" x="188.5" y="165.1621"/><text fill="#000000" font-family="sans-serif" font-size="14" lengthAdjust="spacing" textLength="208" x="200.5" y="171.9531">_targetElement : HTMLElement</text><line style="stroke:#272B30;stroke-width:0.5;" x1="181.5" x2="859.5" y1="178.9063" y2="178.9063"/><ellipse cx="191.5" cy="192.6504" fill="#84BE84" rx="3" ry="3" style="stroke:#038048;stroke-width:1.0;"/><text fill="#000000" font-family="sans-serif" font-size="14" lengthAdjust="spacing" textLength="176" x="200.5" y="196.4414">unsetTouchEvents() : void</text><polygon fill="#FFFF44" points="191.5,204.1387,195.5,208.1387,191.5,212.1387,187.5,208.1387" style="stroke:#B38D22;stroke-width:1.0;"/><text fill="#000000" font-family="sans-serif" font-size="14" lengthAdjust="spacing" textLength="654" x="200.5" y="212.9297">setCallbacks(onStartCallback: Generic, onMoveCallback: Generic, onEndCallback: Generic) : void</text><polygon fill="#FFFF44" points="191.5,220.627,195.5,224.627,191.5,228.627,187.5,224.627" style="stroke:#B38D22;stroke-width:1.0;"/><text fill="#000000" font-family="sans-serif" font-size="14" lengthAdjust="spacing" textLength="169" x="200.5" y="229.418">setEventListeners() : void</text><polygon fill="#FFFF44" points="191.5,237.1152,195.5,241.1152,191.5,245.1152,187.5,241.1152" style="stroke:#B38D22;stroke-width:1.0;"/><text fill="#000000" font-family="sans-serif" font-size="14" font-style="italic" lengthAdjust="spacing" textLength="255" x="200.5" y="245.9063">setSwipeEvents(args: Generic[]) : void</text><rect fill="#F24D5C" height="6" style="stroke:#C82930;stroke-width:1.0;" width="6" x="188.5" y="255.6035"/><text fill="#000000" font-family="sans-serif" font-size="14" lengthAdjust="spacing" textLength="164" x="200.5" y="262.3945">_eventTouchEnd() : void</text><rect fill="#F24D5C" height="6" style="stroke:#C82930;stroke-width:1.0;" width="6" x="188.5" y="272.0918"/><text fill="#000000" font-family="sans-serif" font-size="14" lengthAdjust="spacing" textLength="282" x="200.5" y="278.8828">_eventTouchMove(evt: TouchEvent) : void</text><rect fill="#F24D5C" height="6" style="stroke:#C82930;stroke-width:1.0;" width="6" x="188.5" y="288.5801"/><text fill="#000000" font-family="sans-serif" font-size="14" lengthAdjust="spacing" textLength="278" x="200.5" y="295.3711">_eventTouchStart(evt: TouchEvent) : void</text><rect fill="#F24D5C" height="6" style="stroke:#C82930;stroke-width:1.0;" width="6" x="188.5" y="305.0684"/><text fill="#000000" font-family="sans-serif" font-size="14" lengthAdjust="spacing" textLength="207" x="200.5" y="311.8594">_removeEventListeners() : void</text><rect fill="#F24D5C" height="6" style="stroke:#C82930;stroke-width:1.0;" width="6" x="188.5" y="321.5566"/><text fill="#000000" font-family="sans-serif" font-size="14" lengthAdjust="spacing" textLength="161" x="200.5" y="328.3477">_unsetCallbacks() : void</text></g><!--reverse link AbstractGestureEvent to SwipeEvent--><g id="link_AbstractGestureEvent_SwipeEvent"><path codeLine="40" d="M520.5,355.46 C520.5,368.82 520.5,382.1 520.5,394.96 " fill="none" id="AbstractGestureEvent-backto-SwipeEvent" style="stroke:#272B30;stroke-width:1.0;"/><polygon fill="none" points="513.5,355.15,520.5,335.15,527.5,355.15,513.5,355.15" style="stroke:#272B30;stroke-width:1.0;"/></g><!--SRC=[rLJ1Yjim4BtdAqJsaj8rBDj28VIocmtf8GkbIQ2bbA1OOrl4bemaEvGq_zwH8iTsR6_EwvlUUzQycNcstdEHKqKpCakfrazAoSDCfbAHkySlZxjF3oFTLZnBnK2zBQ7XFbQo4CpBeYXgQ3fq2EmpewE4Co2GvUOloS0aakac57584Gbj0J9U7NWEynA46PFZYE0JRBN5NkH1p6YQxh08cP85250yR2gM49ct5JzudDoGRF91tYGAT29JXemeiXqeJvIGof1ZAotyemPJTwCddIwcP5L1zwJJWMSjvDcMUqyxpFErTKzkyWzegPISdGqL0YsjPH4ctbABlaEoka1Ff5WPgXhb_2pkYHIlieHUOewRlyOxDLpj9TV6yZqUdFNQIC_OBXLxXjRchaRM9flpwZCRRALOW3Q50cni8gC8tVsiTepzEk1N3HYUmPhkGLJGvRhJYEwqKJGqnEVyoP-h0kt4Ws0EwMGGYRNYSOmVwb1Cu_EDt-qdgHtRE7jDXXliBs2PMnMqJKR_wuwwzJvgOin12jdvYc_hrwK_lPUW7gjzdkhCUg_OdBvS-llFLQJ0YiwjOQO6IUjy0gMPadeCWs8tW1jg1PUT3xGKRDtOwyasqZiGrw__Wg3ro_uF]--></g></svg>