<?xml version="1.0" encoding="UTF-8" standalone="no"?><svg xmlns="http://www.w3.org/2000/svg" xmlns:xlink="http://www.w3.org/1999/xlink" contentScriptType="application/ecmascript" contentStyleType="text/css" height="824px" preserveAspectRatio="none" style="width:994px;height:824px;background:#CED4DA;" version="1.1" viewBox="0 0 994 824" width="994px" zoomAndPan="magnify"><defs><filter height="300%" id="fuzr4y3sp612j" width="300%" x="-1" y="-1"><feGaussianBlur result="blurOut" stdDeviation="2.0"/><feColorMatrix in="blurOut" result="blurOut2" type="matrix" values="0 0 0 0 0 0 0 0 0 0 0 0 0 0 0 0 0 0 .4 0"/><feOffset dx="4.0" dy="4.0" in="blurOut2" result="blurOut3"/><feBlend in="SourceGraphic" in2="blurOut3" mode="normal"/></filter></defs><g><!--MD5=[5f8b1b7ab7f341d02d1acf1a48874d28]
class TabsContentItem--><rect codeLine="7" fill="#FFFFFF" filter="url(#fuzr4y3sp612j)" height="410.7422" id="TabsContentItem" style="stroke:#272B30;stroke-width:1.5;" width="533" x="260" y="400"/><ellipse cx="473.25" cy="416" fill="#ADD1B2" rx="11" ry="11" style="stroke:#272B30;stroke-width:1.0;"/><path d="M475.7231,422.1431 Q475.1421,422.4419 474.5029,422.5913 Q473.8638,422.7407 473.1582,422.7407 Q470.6514,422.7407 469.3315,421.0889 Q468.0117,419.437 468.0117,416.3159 Q468.0117,413.1865 469.3315,411.5347 Q470.6514,409.8828 473.1582,409.8828 Q473.8638,409.8828 474.5112,410.0322 Q475.1587,410.1816 475.7231,410.4805 L475.7231,413.2031 Q475.0923,412.6221 474.4988,412.3523 Q473.9053,412.0825 473.2744,412.0825 Q471.9297,412.0825 471.2449,413.1492 Q470.5601,414.2158 470.5601,416.3159 Q470.5601,418.4077 471.2449,419.4744 Q471.9297,420.541 473.2744,420.541 Q473.9053,420.541 474.4988,420.2712 Q475.0923,420.0015 475.7231,419.4204 Z " fill="#000000"/><text fill="#000000" font-family="sans-serif" font-size="12" lengthAdjust="spacing" textLength="98" x="493.75" y="420.5352">TabsContentItem</text><line style="stroke:#272B30;stroke-width:1.5;" x1="261" x2="792" y1="432" y2="432"/><polygon fill="none" points="271,438,275,442,271,446,267,442" style="stroke:#B38D22;stroke-width:1.0;"/><text fill="#000000" font-family="sans-serif" font-size="11" lengthAdjust="spacing" textLength="137" x="280" y="446.6348">isProviderBased : boolean</text><rect fill="none" height="6" style="stroke:#C82930;stroke-width:1.0;" width="6" x="268" y="452.9551"/><text fill="#000000" font-family="sans-serif" font-size="11" lengthAdjust="spacing" textLength="100" x="280" y="459.5898">_dataTab : number</text><rect fill="none" height="6" style="stroke:#C82930;stroke-width:1.0;" width="6" x="268" y="465.9102"/><text fill="#000000" font-family="sans-serif" font-size="11" lengthAdjust="spacing" textLength="195" x="280" y="472.5449">_focusableElements : HTMLElement[]</text><rect fill="none" height="6" style="stroke:#C82930;stroke-width:1.0;" width="6" x="268" y="478.8652"/><text fill="#000000" font-family="sans-serif" font-size="11" lengthAdjust="spacing" textLength="100" x="280" y="485.5">_isActive : boolean</text><line style="stroke:#272B30;stroke-width:1.5;" x1="261" x2="792" y1="491.8203" y2="491.8203"/><ellipse cx="271" cy="502.8203" fill="#84BE84" rx="3" ry="3" style="stroke:#038048;stroke-width:1.0;"/><text fill="#000000" font-family="sans-serif" font-size="11" lengthAdjust="spacing" textLength="67" x="280" y="506.4551">build() : void</text><ellipse cx="271" cy="515.7754" fill="#84BE84" rx="3" ry="3" style="stroke:#038048;stroke-width:1.0;"/><text fill="#000000" font-family="sans-serif" font-size="11" lengthAdjust="spacing" textLength="377" x="280" y="519.4102">changeProperty(propertyName: string, propertyValue: unknown) : void</text><ellipse cx="271" cy="528.7305" fill="#84BE84" rx="3" ry="3" style="stroke:#038048;stroke-width:1.0;"/><text fill="#000000" font-family="sans-serif" font-size="11" lengthAdjust="spacing" textLength="82" x="280" y="532.3652">dispose() : void</text><ellipse cx="271" cy="541.6855" fill="#84BE84" rx="3" ry="3" style="stroke:#038048;stroke-width:1.0;"/><text fill="#000000" font-family="sans-serif" font-size="11" lengthAdjust="spacing" textLength="207" x="280" y="545.3203">equalsToID(patternId: string) : boolean</text><ellipse cx="271" cy="554.6406" fill="#84BE84" rx="3" ry="3" style="stroke:#038048;stroke-width:1.0;"/><text fill="#000000" font-family="sans-serif" font-size="11" lengthAdjust="spacing" textLength="120" x="280" y="558.2754">getDataTab() : number</text><ellipse cx="271" cy="567.5957" fill="#84BE84" rx="3" ry="3" style="stroke:#038048;stroke-width:1.0;"/><text fill="#000000" font-family="sans-serif" font-size="11" lengthAdjust="spacing" textLength="129" x="280" y="571.2305">getOffsetLeft() : number</text><ellipse cx="271" cy="580.5508" fill="#84BE84" rx="3" ry="3" style="stroke:#038048;stroke-width:1.0;"/><text fill="#000000" font-family="sans-serif" font-size="11" lengthAdjust="spacing" textLength="335" x="280" y="584.1855">registerCallback(eventName: string, callback: OSGeneric) : void</text><ellipse cx="271" cy="593.5059" fill="#84BE84" rx="3" ry="3" style="stroke:#038048;stroke-width:1.0;"/><text fill="#000000" font-family="sans-serif" font-size="11" lengthAdjust="spacing" textLength="290" x="280" y="597.1406">setAriaLabelledByAttribute(headerItemId: string) : void</text><ellipse cx="271" cy="606.4609" fill="#84BE84" rx="3" ry="3" style="stroke:#038048;stroke-width:1.0;"/><text fill="#000000" font-family="sans-serif" font-size="11" lengthAdjust="spacing" textLength="191" x="280" y="610.0957">setDataTab(dataTab: number) : void</text><ellipse cx="271" cy="619.416" fill="#84BE84" rx="3" ry="3" style="stroke:#038048;stroke-width:1.0;"/><text fill="#000000" font-family="sans-serif" font-size="11" lengthAdjust="spacing" textLength="98" x="280" y="623.0508">setIsActive() : void</text><ellipse cx="271" cy="632.3711" fill="#84BE84" rx="3" ry="3" style="stroke:#038048;stroke-width:1.0;"/><text fill="#000000" font-family="sans-serif" font-size="11" lengthAdjust="spacing" textLength="316" x="280" y="636.0059">setOnDragObserver(observer: IntersectionObserver) : void</text><ellipse cx="271" cy="645.3262" fill="#84BE84" rx="3" ry="3" style="stroke:#038048;stroke-width:1.0;"/><text fill="#000000" font-family="sans-serif" font-size="11" lengthAdjust="spacing" textLength="341" x="280" y="648.9609">unobserveDragObserver(observer: IntersectionObserver) : void</text><ellipse cx="271" cy="658.2813" fill="#84BE84" rx="3" ry="3" style="stroke:#038048;stroke-width:1.0;"/><text fill="#000000" font-family="sans-serif" font-size="11" lengthAdjust="spacing" textLength="112" x="280" y="661.916">unsetIsActive() : void</text><polygon fill="#FFFF44" points="271,666.2363,275,670.2363,271,674.2363,267,670.2363" style="stroke:#B38D22;stroke-width:1.0;"/><text fill="#000000" font-family="sans-serif" font-size="11" lengthAdjust="spacing" textLength="96" x="280" y="674.8711">finishBuild() : void</text><polygon fill="#FFFF44" points="271,679.1914,275,683.1914,271,687.1914,267,683.1914" style="stroke:#B38D22;stroke-width:1.0;"/><text fill="#000000" font-family="sans-serif" font-size="11" lengthAdjust="spacing" textLength="202" x="280" y="687.8262">notifyParent(actionType: string) : void</text><polygon fill="#FFFF44" points="271,692.1465,275,696.1465,271,700.1465,267,696.1465" style="stroke:#B38D22;stroke-width:1.0;"/><text fill="#000000" font-family="sans-serif" font-size="11" lengthAdjust="spacing" textLength="236" x="280" y="700.7813">setA11YProperties(isUpdate: boolean) : void</text><polygon fill="#FFFF44" points="271,705.1016,275,709.1016,271,713.1016,267,709.1016" style="stroke:#B38D22;stroke-width:1.0;"/><text fill="#000000" font-family="sans-serif" font-size="11" lengthAdjust="spacing" textLength="107" x="280" y="713.7363">setCallbacks() : void</text><polygon fill="#FFFF44" points="271,718.0566,275,722.0566,271,726.0566,267,722.0566" style="stroke:#B38D22;stroke-width:1.0;"/><text fill="#000000" font-family="sans-serif" font-size="11" lengthAdjust="spacing" textLength="129" x="280" y="726.6914">setHtmlElements() : void</text><polygon fill="#FFFF44" points="271,731.0117,275,735.0117,271,739.0117,267,735.0117" style="stroke:#B38D22;stroke-width:1.0;"/><text fill="#000000" font-family="sans-serif" font-size="11" lengthAdjust="spacing" textLength="507" x="280" y="739.6465">setParentInfo(parentSelector: string, getPatternByIdAPI: Function, canBeOrphan: boolean) : void</text><polygon fill="#FFFF44" points="271,743.9668,275,747.9668,271,751.9668,267,747.9668" style="stroke:#B38D22;stroke-width:1.0;"/><text fill="#000000" font-family="sans-serif" font-size="11" lengthAdjust="spacing" textLength="444" x="280" y="752.6016">triggerPlatformEventCallback(platFormCallback: OSGeneric, args: unknown[]) : void</text><polygon fill="#FFFF44" points="271,756.9219,275,760.9219,271,764.9219,267,760.9219" style="stroke:#B38D22;stroke-width:1.0;"/><text fill="#000000" font-family="sans-serif" font-size="11" lengthAdjust="spacing" textLength="247" x="280" y="765.5566">triggerPlatformInitializedEventCallback() : void</text><polygon fill="#FFFF44" points="271,769.877,275,773.877,271,777.877,267,773.877" style="stroke:#B38D22;stroke-width:1.0;"/><text fill="#000000" font-family="sans-serif" font-size="11" lengthAdjust="spacing" textLength="121" x="280" y="778.5117">unsetCallbacks() : void</text><polygon fill="#FFFF44" points="271,782.832,275,786.832,271,790.832,267,786.832" style="stroke:#B38D22;stroke-width:1.0;"/><text fill="#000000" font-family="sans-serif" font-size="11" lengthAdjust="spacing" textLength="155" x="280" y="791.4668">unsetGlobalCallbacks() : void</text><polygon fill="#FFFF44" points="271,795.7871,275,799.7871,271,803.7871,267,799.7871" style="stroke:#B38D22;stroke-width:1.0;"/><text fill="#000000" font-family="sans-serif" font-size="11" lengthAdjust="spacing" textLength="143" x="280" y="804.4219">unsetHtmlElements() : void</text><!--MD5=[5e783571e28b61301801f26fac385a81]
class AbstractChild<TabsContentItemConfig, ITabs>--><rect codeLine="37" fill="#FFFFFF" filter="url(#fuzr4y3sp612j)" height="320.0566" id="AbstractChild&lt;TabsContentItemConfig, ITabs&gt;" style="stroke:#272B30;stroke-width:1.5;" width="533" x="9" y="13.5"/><ellipse cx="135.75" cy="29.5" fill="#A9DCDF" rx="11" ry="11" style="stroke:#272B30;stroke-width:1.0;"/><path d="M135.6133,24.8481 L134.4595,29.9199 L136.7754,29.9199 Z M134.1191,22.6069 L137.1157,22.6069 L140.4609,35 L138.0122,35 L137.2485,31.937 L133.9697,31.937 L133.2227,35 L130.7739,35 Z " fill="#000000"/><text fill="#000000" font-family="sans-serif" font-size="12" font-style="italic" lengthAdjust="spacing" textLength="271" x="156.25" y="34.0352">AbstractChild&lt;TabsContentItemConfig, ITabs&gt;</text><line style="stroke:#272B30;stroke-width:1.5;" x1="10" x2="541" y1="45.5" y2="45.5"/><polygon fill="none" points="20,51.5,24,55.5,20,59.5,16,55.5" style="stroke:#B38D22;stroke-width:1.0;"/><text fill="#000000" font-family="sans-serif" font-size="11" lengthAdjust="spacing" textLength="137" x="29" y="60.1348">isProviderBased : boolean</text><rect fill="none" height="6" style="stroke:#C82930;stroke-width:1.0;" width="6" x="17" y="66.4551"/><text fill="#000000" font-family="sans-serif" font-size="11" lengthAdjust="spacing" textLength="119" x="29" y="73.0898">_isFirstChild : boolean</text><rect fill="none" height="6" style="stroke:#C82930;stroke-width:1.0;" width="6" x="17" y="79.4102"/><text fill="#000000" font-family="sans-serif" font-size="11" lengthAdjust="spacing" textLength="117" x="29" y="86.0449">_isLastChild : boolean</text><rect fill="none" height="6" style="stroke:#C82930;stroke-width:1.0;" width="6" x="17" y="92.3652"/><text fill="#000000" font-family="sans-serif" font-size="11" lengthAdjust="spacing" textLength="92" x="29" y="99">_parentId : string</text><rect fill="none" height="6" style="stroke:#C82930;stroke-width:1.0;" width="6" x="17" y="105.3203"/><text fill="#000000" font-family="sans-serif" font-size="11" lengthAdjust="spacing" textLength="114" x="29" y="111.9551">_parentObject : ITabs</text><line style="stroke:#272B30;stroke-width:1.5;" x1="10" x2="541" y1="118.2754" y2="118.2754"/><ellipse cx="20" cy="129.2754" fill="#84BE84" rx="3" ry="3" style="stroke:#038048;stroke-width:1.0;"/><text fill="#000000" font-family="sans-serif" font-size="11" lengthAdjust="spacing" textLength="67" x="29" y="132.9102">build() : void</text><ellipse cx="20" cy="142.2305" fill="#84BE84" rx="3" ry="3" style="stroke:#038048;stroke-width:1.0;"/><text fill="#000000" font-family="sans-serif" font-size="11" lengthAdjust="spacing" textLength="377" x="29" y="145.8652">changeProperty(propertyName: string, propertyValue: unknown) : void</text><ellipse cx="20" cy="155.1855" fill="#84BE84" rx="3" ry="3" style="stroke:#038048;stroke-width:1.0;"/><text fill="#000000" font-family="sans-serif" font-size="11" lengthAdjust="spacing" textLength="82" x="29" y="158.8203">dispose() : void</text><ellipse cx="20" cy="168.1406" fill="#84BE84" rx="3" ry="3" style="stroke:#038048;stroke-width:1.0;"/><text fill="#000000" font-family="sans-serif" font-size="11" lengthAdjust="spacing" textLength="207" x="29" y="171.7754">equalsToID(patternId: string) : boolean</text><ellipse cx="20" cy="181.0957" fill="#84BE84" rx="3" ry="3" style="stroke:#038048;stroke-width:1.0;"/><text fill="#000000" font-family="sans-serif" font-size="11" lengthAdjust="spacing" textLength="335" x="29" y="184.7305">registerCallback(eventName: string, callback: OSGeneric) : void</text><polygon fill="#FFFF44" points="20,189.0508,24,193.0508,20,197.0508,16,193.0508" style="stroke:#B38D22;stroke-width:1.0;"/><text fill="#000000" font-family="sans-serif" font-size="11" lengthAdjust="spacing" textLength="96" x="29" y="197.6855">finishBuild() : void</text><polygon fill="#FFFF44" points="20,202.0059,24,206.0059,20,210.0059,16,206.0059" style="stroke:#B38D22;stroke-width:1.0;"/><text fill="#000000" font-family="sans-serif" font-size="11" lengthAdjust="spacing" textLength="202" x="29" y="210.6406">notifyParent(actionType: string) : void</text><polygon fill="#FFFF44" points="20,214.9609,24,218.9609,20,222.9609,16,218.9609" style="stroke:#B38D22;stroke-width:1.0;"/><text fill="#000000" font-family="sans-serif" font-size="11" font-style="italic" lengthAdjust="spacing" textLength="140" x="29" y="223.5957">setA11YProperties() : void</text><polygon fill="#FFFF44" points="20,227.916,24,231.916,20,235.916,16,231.916" style="stroke:#B38D22;stroke-width:1.0;"/><text fill="#000000" font-family="sans-serif" font-size="11" font-style="italic" lengthAdjust="spacing" textLength="107" x="29" y="236.5508">setCallbacks() : void</text><polygon fill="#FFFF44" points="20,240.8711,24,244.8711,20,248.8711,16,244.8711" style="stroke:#B38D22;stroke-width:1.0;"/><text fill="#000000" font-family="sans-serif" font-size="11" font-style="italic" lengthAdjust="spacing" textLength="129" x="29" y="249.5059">setHtmlElements() : void</text><polygon fill="#FFFF44" points="20,253.8262,24,257.8262,20,261.8262,16,257.8262" style="stroke:#B38D22;stroke-width:1.0;"/><text fill="#000000" font-family="sans-serif" font-size="11" lengthAdjust="spacing" textLength="507" x="29" y="262.4609">setParentInfo(parentSelector: string, getPatternByIdAPI: Function, canBeOrphan: boolean) : void</text><polygon fill="#FFFF44" points="20,266.7813,24,270.7813,20,274.7813,16,270.7813" style="stroke:#B38D22;stroke-width:1.0;"/><text fill="#000000" font-family="sans-serif" font-size="11" lengthAdjust="spacing" textLength="444" x="29" y="275.416">triggerPlatformEventCallback(platFormCallback: OSGeneric, args: unknown[]) : void</text><polygon fill="#FFFF44" points="20,279.7363,24,283.7363,20,287.7363,16,283.7363" style="stroke:#B38D22;stroke-width:1.0;"/><text fill="#000000" font-family="sans-serif" font-size="11" lengthAdjust="spacing" textLength="247" x="29" y="288.3711">triggerPlatformInitializedEventCallback() : void</text><polygon fill="#FFFF44" points="20,292.6914,24,296.6914,20,300.6914,16,296.6914" style="stroke:#B38D22;stroke-width:1.0;"/><text fill="#000000" font-family="sans-serif" font-size="11" font-style="italic" lengthAdjust="spacing" textLength="121" x="29" y="301.3262">unsetCallbacks() : void</text><polygon fill="#FFFF44" points="20,305.6465,24,309.6465,20,313.6465,16,309.6465" style="stroke:#B38D22;stroke-width:1.0;"/><text fill="#000000" font-family="sans-serif" font-size="11" lengthAdjust="spacing" textLength="155" x="29" y="314.2813">unsetGlobalCallbacks() : void</text><polygon fill="#FFFF44" points="20,318.6016,24,322.6016,20,326.6016,16,322.6016" style="stroke:#B38D22;stroke-width:1.0;"/><text fill="#000000" font-family="sans-serif" font-size="11" font-style="italic" lengthAdjust="spacing" textLength="143" x="29" y="327.2363">unsetHtmlElements() : void</text><!--MD5=[a97cacaa17be7b93161d248ee0cca94d]
class ITabsContentItem--><rect codeLine="61" fill="#FFFFFF" filter="url(#fuzr4y3sp612j)" height="333.0117" id="ITabsContentItem" style="stroke:#272B30;stroke-width:1.5;" width="403" x="577" y="7"/><ellipse cx="723.75" cy="23" fill="#B4A7E5" rx="11" ry="11" style="stroke:#272B30;stroke-width:1.0;"/><path d="M720.1777,19.2651 L720.1777,17.1069 L727.5571,17.1069 L727.5571,19.2651 L725.0918,19.2651 L725.0918,27.3418 L727.5571,27.3418 L727.5571,29.5 L720.1777,29.5 L720.1777,27.3418 L722.6431,27.3418 L722.6431,19.2651 Z " fill="#000000"/><text fill="#000000" font-family="sans-serif" font-size="12" font-style="italic" lengthAdjust="spacing" textLength="101" x="744.25" y="27.5352">ITabsContentItem</text><line style="stroke:#272B30;stroke-width:1.5;" x1="578" x2="979" y1="39" y2="39"/><ellipse cx="588" cy="50" rx="3" ry="3" style="stroke:#038048;stroke-width:1.0;fill:none;"/><text fill="#000000" font-family="sans-serif" font-size="11" lengthAdjust="spacing" textLength="94" x="597" y="53.6348">IsActive : boolean</text><ellipse cx="588" cy="62.9551" rx="3" ry="3" style="stroke:#038048;stroke-width:1.0;fill:none;"/><text fill="#000000" font-family="sans-serif" font-size="11" lengthAdjust="spacing" textLength="84" x="597" y="66.5898">isBuilt : boolean</text><ellipse cx="588" cy="75.9102" rx="3" ry="3" style="stroke:#038048;stroke-width:1.0;fill:none;"/><text fill="#000000" font-family="sans-serif" font-size="11" lengthAdjust="spacing" textLength="142" x="597" y="79.5449">selfElement : HTMLElement</text><ellipse cx="588" cy="88.8652" rx="3" ry="3" style="stroke:#038048;stroke-width:1.0;fill:none;"/><text fill="#000000" font-family="sans-serif" font-size="11" lengthAdjust="spacing" textLength="88" x="597" y="92.5">uniqueId : string</text><ellipse cx="588" cy="101.8203" rx="3" ry="3" style="stroke:#038048;stroke-width:1.0;fill:none;"/><text fill="#000000" font-family="sans-serif" font-size="11" lengthAdjust="spacing" textLength="86" x="597" y="105.4551">widgetId : string</text><line style="stroke:#272B30;stroke-width:1.5;" x1="578" x2="979" y1="111.7754" y2="111.7754"/><ellipse cx="588" cy="122.7754" fill="#84BE84" rx="3" ry="3" style="stroke:#038048;stroke-width:1.0;"/><text fill="#000000" font-family="sans-serif" font-size="11" lengthAdjust="spacing" textLength="67" x="597" y="126.4102">build() : void</text><ellipse cx="588" cy="135.7305" fill="#84BE84" rx="3" ry="3" style="stroke:#038048;stroke-width:1.0;"/><text fill="#000000" font-family="sans-serif" font-size="11" lengthAdjust="spacing" textLength="377" x="597" y="139.3652">changeProperty(propertyName: string, propertyValue: unknown) : void</text><ellipse cx="588" cy="148.6855" fill="#84BE84" rx="3" ry="3" style="stroke:#038048;stroke-width:1.0;"/><text fill="#000000" font-family="sans-serif" font-size="11" lengthAdjust="spacing" textLength="82" x="597" y="152.3203">dispose() : void</text><ellipse cx="588" cy="161.6406" fill="#84BE84" rx="3" ry="3" style="stroke:#038048;stroke-width:1.0;"/><text fill="#000000" font-family="sans-serif" font-size="11" lengthAdjust="spacing" textLength="168" x="597" y="165.2754">equalsToID(id: string) : boolean</text><ellipse cx="588" cy="174.5957" fill="#84BE84" rx="3" ry="3" style="stroke:#038048;stroke-width:1.0;"/><text fill="#000000" font-family="sans-serif" font-size="11" lengthAdjust="spacing" textLength="120" x="597" y="178.2305">getDataTab() : number</text><ellipse cx="588" cy="187.5508" fill="#84BE84" rx="3" ry="3" style="stroke:#038048;stroke-width:1.0;"/><text fill="#000000" font-family="sans-serif" font-size="11" lengthAdjust="spacing" textLength="129" x="597" y="191.1855">getOffsetLeft() : number</text><ellipse cx="588" cy="200.5059" fill="#84BE84" rx="3" ry="3" style="stroke:#038048;stroke-width:1.0;"/><text fill="#000000" font-family="sans-serif" font-size="11" lengthAdjust="spacing" textLength="335" x="597" y="204.1406">registerCallback(eventName: string, callback: OSGeneric) : void</text><ellipse cx="588" cy="213.4609" fill="#84BE84" rx="3" ry="3" style="stroke:#038048;stroke-width:1.0;"/><text fill="#000000" font-family="sans-serif" font-size="11" lengthAdjust="spacing" textLength="290" x="597" y="217.0957">setAriaLabelledByAttribute(headerItemId: string) : void</text><ellipse cx="588" cy="226.416" fill="#84BE84" rx="3" ry="3" style="stroke:#038048;stroke-width:1.0;"/><text fill="#000000" font-family="sans-serif" font-size="11" lengthAdjust="spacing" textLength="77" x="597" y="230.0508">setBlur() : void</text><ellipse cx="588" cy="239.3711" fill="#84BE84" rx="3" ry="3" style="stroke:#038048;stroke-width:1.0;"/><text fill="#000000" font-family="sans-serif" font-size="11" lengthAdjust="spacing" textLength="191" x="597" y="243.0059">setDataTab(dataTab: number) : void</text><ellipse cx="588" cy="252.3262" fill="#84BE84" rx="3" ry="3" style="stroke:#038048;stroke-width:1.0;"/><text fill="#000000" font-family="sans-serif" font-size="11" lengthAdjust="spacing" textLength="88" x="597" y="255.9609">setFocus() : void</text><ellipse cx="588" cy="265.2813" fill="#84BE84" rx="3" ry="3" style="stroke:#038048;stroke-width:1.0;"/><text fill="#000000" font-family="sans-serif" font-size="11" lengthAdjust="spacing" textLength="98" x="597" y="268.916">setIsActive() : void</text><ellipse cx="588" cy="278.2363" fill="#84BE84" rx="3" ry="3" style="stroke:#038048;stroke-width:1.0;"/><text fill="#000000" font-family="sans-serif" font-size="11" lengthAdjust="spacing" textLength="316" x="597" y="281.8711">setOnDragObserver(observer: IntersectionObserver) : void</text><ellipse cx="588" cy="291.1914" fill="#84BE84" rx="3" ry="3" style="stroke:#038048;stroke-width:1.0;"/><text fill="#000000" font-family="sans-serif" font-size="11" lengthAdjust="spacing" textLength="106" x="597" y="294.8262">setTabindex() : void</text><ellipse cx="588" cy="304.1465" fill="#84BE84" rx="3" ry="3" style="stroke:#038048;stroke-width:1.0;"/><text fill="#000000" font-family="sans-serif" font-size="11" lengthAdjust="spacing" textLength="341" x="597" y="307.7813">unobserveDragObserver(observer: IntersectionObserver) : void</text><ellipse cx="588" cy="317.1016" fill="#84BE84" rx="3" ry="3" style="stroke:#038048;stroke-width:1.0;"/><text fill="#000000" font-family="sans-serif" font-size="11" lengthAdjust="spacing" textLength="112" x="597" y="320.7363">unsetIsActive() : void</text><ellipse cx="588" cy="330.0566" fill="#84BE84" rx="3" ry="3" style="stroke:#038048;stroke-width:1.0;"/><text fill="#000000" font-family="sans-serif" font-size="11" lengthAdjust="spacing" textLength="120" x="597" y="333.6914">unsetTabindex() : void</text><!--MD5=[1012112161e9c7330871ff1bdc767e33]
reverse link AbstractChild<TabsContentItemConfig, ITabs> to TabsContentItem--><path codeLine="60" d="M378.53,351 C387.91,367.07 397.46,383.43 406.97,399.72 " fill="none" id="AbstractChild&lt;TabsContentItemConfig, ITabs&gt;-backto-TabsContentItem" style="stroke:#272B30;stroke-width:1.0;"/><polygon fill="none" points="372.47,354.5,368.43,333.7,384.56,347.44,372.47,354.5" style="stroke:#272B30;stroke-width:1.0;"/><!--MD5=[a22cea0e0b7934a6142e4888277e8d34]
reverse link ITabsContentItem to TabsContentItem--><path codeLine="85" d="M671.16,357.65 C663.01,371.57 654.74,385.67 646.51,399.72 " fill="none" id="ITabsContentItem-backto-TabsContentItem" style="stroke:#272B30;stroke-width:1.0;stroke-dasharray:7.0,7.0;"/><polygon fill="none" points="665.28,353.85,681.43,340.13,677.36,360.93,665.28,353.85" style="stroke:#272B30;stroke-width:1.0;"/><!--MD5=[889e61d29edeca6bc0d4a6677931cff1]
@startuml
skinparam ClassArrowColor #272b30
skinparam ClassBorderColor #272b30
skinparam ClassBackgroundColor #fff
skinparam BackgroundColor #ced4da
hide empty methods
hide empty fields
class "TabsContentItem" {
    #isProviderBased : boolean
    -_dataTab : number
    -_focusableElements : HTMLElement[]
    -_isActive : boolean
    +build() : void
    +changeProperty(propertyName: string, propertyValue: unknown) : void
    +dispose() : void
    +equalsToID(patternId: string) : boolean
    +getDataTab() : number
    +getOffsetLeft() : number
    +registerCallback(eventName: string, callback: OSGeneric) : void
    +setAriaLabelledByAttribute(headerItemId: string) : void
    +setDataTab(dataTab: number) : void
    +setIsActive() : void
    +setOnDragObserver(observer: IntersectionObserver) : void
    +unobserveDragObserver(observer: IntersectionObserver) : void
    +unsetIsActive() : void
    #finishBuild() : void
    #notifyParent(actionType: string) : void
    #setA11YProperties(isUpdate: boolean) : void
    #setCallbacks() : void
    #setHtmlElements() : void
    #setParentInfo(parentSelector: string, getPatternByIdAPI: Function, canBeOrphan: boolean) : void
    #triggerPlatformEventCallback(platFormCallback: OSGeneric, args: unknown[]) : void
    #triggerPlatformInitializedEventCallback() : void
    #unsetCallbacks() : void
    #unsetGlobalCallbacks() : void
    #unsetHtmlElements() : void
}
abstract class "AbstractChild<TabsContentItemConfig, ITabs>" {
    #isProviderBased : boolean
    -_isFirstChild : boolean
    -_isLastChild : boolean
    -_parentId : string
    -_parentObject : ITabs
    +build() : void
    +changeProperty(propertyName: string, propertyValue: unknown) : void
    +dispose() : void
    +equalsToID(patternId: string) : boolean
    +registerCallback(eventName: string, callback: OSGeneric) : void
    #finishBuild() : void
    #notifyParent(actionType: string) : void
    {abstract} #setA11YProperties() : void
    {abstract} #setCallbacks() : void
    {abstract} #setHtmlElements() : void
    #setParentInfo(parentSelector: string, getPatternByIdAPI: Function, canBeOrphan: boolean) : void
    #triggerPlatformEventCallback(platFormCallback: OSGeneric, args: unknown[]) : void
    #triggerPlatformInitializedEventCallback() : void
    {abstract} #unsetCallbacks() : void
    #unsetGlobalCallbacks() : void
    {abstract} #unsetHtmlElements() : void
}
"AbstractChild<TabsContentItemConfig, ITabs>" <|- - "TabsContentItem"
interface "ITabsContentItem" {
    +IsActive : boolean
    +isBuilt : boolean
    +selfElement : HTMLElement
    +uniqueId : string
    +widgetId : string
    +build() : void
    +changeProperty(propertyName: string, propertyValue: unknown) : void
    +dispose() : void
    +equalsToID(id: string) : boolean
    +getDataTab() : number
    +getOffsetLeft() : number
    +registerCallback(eventName: string, callback: OSGeneric) : void
    +setAriaLabelledByAttribute(headerItemId: string) : void
    +setBlur() : void
    +setDataTab(dataTab: number) : void
    +setFocus() : void
    +setIsActive() : void
    +setOnDragObserver(observer: IntersectionObserver) : void
    +setTabindex() : void
    +unobserveDragObserver(observer: IntersectionObserver) : void
    +unsetIsActive() : void
    +unsetTabindex() : void
}
"ITabsContentItem" <|.. "TabsContentItem"
@enduml

PlantUML version 1.2021.14(Fri Nov 12 16:46:50 WET 2021)
(GPL source distribution)
Java Runtime: Java(TM) SE Runtime Environment
JVM: Java HotSpot(TM) 64-Bit Server VM
Default Encoding: UTF-8
Language: en
Country: PT
--></g></svg>