<?xml version="1.0" encoding="UTF-8" standalone="no"?><svg xmlns="http://www.w3.org/2000/svg" xmlns:xlink="http://www.w3.org/1999/xlink" contentScriptType="application/ecmascript" contentStyleType="text/css" height="752px" preserveAspectRatio="none" style="width:1054px;height:752px;background:#CED4DA;" version="1.1" viewBox="0 0 1054 752" width="1054px" zoomAndPan="magnify"><defs><filter height="300%" id="f4ggvz5dmkore" width="300%" x="-1" y="-1"><feGaussianBlur result="blurOut" stdDeviation="2.0"/><feColorMatrix in="blurOut" result="blurOut2" type="matrix" values="0 0 0 0 0 0 0 0 0 0 0 0 0 0 0 0 0 0 .4 0"/><feOffset dx="4.0" dy="4.0" in="blurOut2" result="blurOut3"/><feBlend in="SourceGraphic" in2="blurOut3" mode="normal"/></filter></defs><g><!--MD5=[3b1fbec47010594bd24d1d1326e187ba]
class TabsHeaderItem--><rect codeLine="7" fill="#FFFFFF" filter="url(#f4ggvz5dmkore)" height="380.9219" id="TabsHeaderItem" style="stroke:#272B30;stroke-width:1.5;" width="571" x="275" y="358"/><ellipse cx="504.75" cy="374" fill="#ADD1B2" rx="11" ry="11" style="stroke:#272B30;stroke-width:1.0;"/><path d="M507.7188,379.6406 Q507.1406,379.9375 506.5,380.0781 Q505.8594,380.2344 505.1563,380.2344 Q502.6563,380.2344 501.3281,378.5938 Q500.0156,376.9375 500.0156,373.8125 Q500.0156,370.6875 501.3281,369.0313 Q502.6563,367.375 505.1563,367.375 Q505.8594,367.375 506.5,367.5313 Q507.1563,367.6875 507.7188,367.9844 L507.7188,370.7031 Q507.0938,370.125 506.5,369.8594 Q505.9063,369.5781 505.2813,369.5781 Q503.9375,369.5781 503.25,370.6563 Q502.5625,371.7188 502.5625,373.8125 Q502.5625,375.9063 503.25,376.9844 Q503.9375,378.0469 505.2813,378.0469 Q505.9063,378.0469 506.5,377.7813 Q507.0938,377.5 507.7188,376.9219 L507.7188,379.6406 Z " fill="#000000"/><text fill="#000000" font-family="sans-serif" font-size="12" lengthAdjust="spacing" textLength="103" x="525.25" y="378.1543">TabsHeaderItem</text><line style="stroke:#272B30;stroke-width:1.5;" x1="276" x2="845" y1="390" y2="390"/><polygon fill="none" points="286,396,290,400,286,404,282,400" style="stroke:#B38D22;stroke-width:1.0;"/><text fill="#000000" font-family="sans-serif" font-size="11" lengthAdjust="spacing" textLength="143" x="295" y="404.2104">_selfElem : HTMLElement</text><polygon fill="none" points="286,408.8047,290,412.8047,286,416.8047,282,412.8047" style="stroke:#B38D22;stroke-width:1.0;"/><text fill="#000000" font-family="sans-serif" font-size="11" lengthAdjust="spacing" textLength="98" x="295" y="417.0151">_widgetId : string</text><rect fill="none" height="6" style="stroke:#C82930;stroke-width:1.0;" width="6" x="283" y="423.6094"/><text fill="#000000" font-family="sans-serif" font-size="11" lengthAdjust="spacing" textLength="108" x="295" y="429.8198">_dataTab : number</text><rect fill="none" height="6" style="stroke:#C82930;stroke-width:1.0;" width="6" x="283" y="436.4141"/><text fill="#000000" font-family="sans-serif" font-size="11" lengthAdjust="spacing" textLength="163" x="295" y="442.6245">_eventOnTabsClick : Generic</text><rect fill="none" height="6" style="stroke:#C82930;stroke-width:1.0;" width="6" x="283" y="449.2188"/><text fill="#000000" font-family="sans-serif" font-size="11" lengthAdjust="spacing" textLength="106" x="295" y="455.4292">_isActive : boolean</text><line style="stroke:#272B30;stroke-width:1.5;" x1="276" x2="845" y1="462.0234" y2="462.0234"/><ellipse cx="286" cy="473.0234" fill="#84BE84" rx="3" ry="3" style="stroke:#038048;stroke-width:1.0;"/><text fill="#000000" font-family="sans-serif" font-size="11" lengthAdjust="spacing" textLength="70" x="295" y="476.2339">build() : void</text><ellipse cx="286" cy="485.8281" fill="#84BE84" rx="3" ry="3" style="stroke:#038048;stroke-width:1.0;"/><text fill="#000000" font-family="sans-serif" font-size="11" lengthAdjust="spacing" textLength="399" x="295" y="489.0386">changeProperty(propertyName: string, propertyValue: unknown) : void</text><ellipse cx="286" cy="498.6328" fill="#84BE84" rx="3" ry="3" style="stroke:#038048;stroke-width:1.0;"/><text fill="#000000" font-family="sans-serif" font-size="11" lengthAdjust="spacing" textLength="84" x="295" y="501.8433">disable() : void</text><ellipse cx="286" cy="511.4375" fill="#84BE84" rx="3" ry="3" style="stroke:#038048;stroke-width:1.0;"/><text fill="#000000" font-family="sans-serif" font-size="11" lengthAdjust="spacing" textLength="88" x="295" y="514.6479">dispose() : void</text><ellipse cx="286" cy="524.2422" fill="#84BE84" rx="3" ry="3" style="stroke:#038048;stroke-width:1.0;"/><text fill="#000000" font-family="sans-serif" font-size="11" lengthAdjust="spacing" textLength="81" x="295" y="527.4526">enable() : void</text><ellipse cx="286" cy="537.0469" fill="#84BE84" rx="3" ry="3" style="stroke:#038048;stroke-width:1.0;"/><text fill="#000000" font-family="sans-serif" font-size="11" lengthAdjust="spacing" textLength="220" x="295" y="540.2573">equalsToID(patternId: string) : boolean</text><ellipse cx="286" cy="549.8516" fill="#84BE84" rx="3" ry="3" style="stroke:#038048;stroke-width:1.0;"/><text fill="#000000" font-family="sans-serif" font-size="11" lengthAdjust="spacing" textLength="129" x="295" y="553.062">getDataTab() : number</text><ellipse cx="286" cy="562.6563" fill="#84BE84" rx="3" ry="3" style="stroke:#038048;stroke-width:1.0;"/><text fill="#000000" font-family="sans-serif" font-size="11" lengthAdjust="spacing" textLength="297" x="295" y="565.8667">setAriaControlsAttribute(contentItemId: string) : void</text><ellipse cx="286" cy="575.4609" fill="#84BE84" rx="3" ry="3" style="stroke:#038048;stroke-width:1.0;"/><text fill="#000000" font-family="sans-serif" font-size="11" lengthAdjust="spacing" textLength="206" x="295" y="578.6714">setDataTab(dataTab: number) : void</text><ellipse cx="286" cy="588.2656" fill="#84BE84" rx="3" ry="3" style="stroke:#038048;stroke-width:1.0;"/><text fill="#000000" font-family="sans-serif" font-size="11" lengthAdjust="spacing" textLength="94" x="295" y="591.4761">setFocus() : void</text><ellipse cx="286" cy="601.0703" fill="#84BE84" rx="3" ry="3" style="stroke:#038048;stroke-width:1.0;"/><text fill="#000000" font-family="sans-serif" font-size="11" lengthAdjust="spacing" textLength="104" x="295" y="604.2808">setIsActive() : void</text><ellipse cx="286" cy="613.875" fill="#84BE84" rx="3" ry="3" style="stroke:#038048;stroke-width:1.0;"/><text fill="#000000" font-family="sans-serif" font-size="11" lengthAdjust="spacing" textLength="118" x="295" y="617.0854">unsetIsActive() : void</text><polygon fill="#FFFF44" points="286,621.6797,290,625.6797,286,629.6797,282,625.6797" style="stroke:#B38D22;stroke-width:1.0;"/><text fill="#000000" font-family="sans-serif" font-size="11" lengthAdjust="spacing" textLength="102" x="295" y="629.8901">finishBuild() : void</text><polygon fill="#FFFF44" points="286,634.4844,290,638.4844,286,642.4844,282,638.4844" style="stroke:#B38D22;stroke-width:1.0;"/><text fill="#000000" font-family="sans-serif" font-size="11" lengthAdjust="spacing" textLength="213" x="295" y="642.6948">notifyParent(actionType: string) : void</text><polygon fill="#FFFF44" points="286,647.2891,290,651.2891,286,655.2891,282,651.2891" style="stroke:#B38D22;stroke-width:1.0;"/><text fill="#000000" font-family="sans-serif" font-size="11" lengthAdjust="spacing" textLength="251" x="295" y="655.4995">setA11YProperties(isUpdate: boolean) : void</text><polygon fill="#FFFF44" points="286,660.0938,290,664.0938,286,668.0938,282,664.0938" style="stroke:#B38D22;stroke-width:1.0;"/><text fill="#000000" font-family="sans-serif" font-size="11" lengthAdjust="spacing" textLength="115" x="295" y="668.3042">setCallbacks() : void</text><polygon fill="#FFFF44" points="286,672.8984,290,676.8984,286,680.8984,282,676.8984" style="stroke:#B38D22;stroke-width:1.0;"/><text fill="#000000" font-family="sans-serif" font-size="11" lengthAdjust="spacing" textLength="545" x="295" y="681.1089">setParentInfo(parentSelector: string, getPatternByIdAPI: Function, canBeOrphan: boolean) : void</text><polygon fill="#FFFF44" points="286,685.7031,290,689.7031,286,693.7031,282,689.7031" style="stroke:#B38D22;stroke-width:1.0;"/><text fill="#000000" font-family="sans-serif" font-size="11" lengthAdjust="spacing" textLength="129" x="295" y="693.9136">unsetCallbacks() : void</text><rect fill="#F24D5C" height="6" style="stroke:#C82930;stroke-width:1.0;" width="6" x="283" y="700.5078"/><text fill="#000000" font-family="sans-serif" font-size="11" lengthAdjust="spacing" textLength="144" x="295" y="706.7183">_handleClickEvent() : void</text><rect fill="#F24D5C" height="6" style="stroke:#C82930;stroke-width:1.0;" width="6" x="283" y="713.3125"/><text fill="#000000" font-family="sans-serif" font-size="11" lengthAdjust="spacing" textLength="130" x="295" y="719.5229">_removeEvents() : void</text><rect fill="#F24D5C" height="6" style="stroke:#C82930;stroke-width:1.0;" width="6" x="283" y="726.1172"/><text fill="#000000" font-family="sans-serif" font-size="11" lengthAdjust="spacing" textLength="120" x="295" y="732.3276">_setUpEvents() : void</text><!--MD5=[1bd4738e916a3d62276b4eddbda2d86d]
class AbstractChild<TabsHeaderItemConfig, ITabs>--><rect codeLine="35" fill="#FFFFFF" filter="url(#f4ggvz5dmkore)" height="214.4609" id="AbstractChild&lt;TabsHeaderItemConfig, ITabs&gt;" style="stroke:#272B30;stroke-width:1.5;" width="571" x="9" y="45.5"/><ellipse cx="147.75" cy="61.5" fill="#A9DCDF" rx="11" ry="11" style="stroke:#272B30;stroke-width:1.0;"/><path d="M147.8594,56.8438 L146.7031,61.9219 L149.0313,61.9219 L147.8594,56.8438 Z M146.375,54.6094 L149.3594,54.6094 L152.7188,67 L150.2656,67 L149.5,63.9375 L146.2188,63.9375 L145.4688,67 L143.0313,67 L146.375,54.6094 Z " fill="#000000"/><text fill="#000000" font-family="sans-serif" font-size="12" font-style="italic" lengthAdjust="spacing" textLength="285" x="168.25" y="65.6543">AbstractChild&lt;TabsHeaderItemConfig, ITabs&gt;</text><line style="stroke:#272B30;stroke-width:1.5;" x1="10" x2="579" y1="77.5" y2="77.5"/><polygon fill="none" points="20,83.5,24,87.5,20,91.5,16,87.5" style="stroke:#B38D22;stroke-width:1.0;"/><text fill="#000000" font-family="sans-serif" font-size="11" lengthAdjust="spacing" textLength="143" x="29" y="91.7104">_selfElem : HTMLElement</text><polygon fill="none" points="20,96.3047,24,100.3047,20,104.3047,16,100.3047" style="stroke:#B38D22;stroke-width:1.0;"/><text fill="#000000" font-family="sans-serif" font-size="11" lengthAdjust="spacing" textLength="98" x="29" y="104.5151">_widgetId : string</text><rect fill="none" height="6" style="stroke:#C82930;stroke-width:1.0;" width="6" x="17" y="111.1094"/><text fill="#000000" font-family="sans-serif" font-size="11" lengthAdjust="spacing" textLength="126" x="29" y="117.3198">_isFirstChild : boolean</text><rect fill="none" height="6" style="stroke:#C82930;stroke-width:1.0;" width="6" x="17" y="123.9141"/><text fill="#000000" font-family="sans-serif" font-size="11" lengthAdjust="spacing" textLength="125" x="29" y="130.1245">_isLastChild : boolean</text><rect fill="none" height="6" style="stroke:#C82930;stroke-width:1.0;" width="6" x="17" y="136.7188"/><text fill="#000000" font-family="sans-serif" font-size="11" lengthAdjust="spacing" textLength="98" x="29" y="142.9292">_parentId : string</text><rect fill="none" height="6" style="stroke:#C82930;stroke-width:1.0;" width="6" x="17" y="149.5234"/><text fill="#000000" font-family="sans-serif" font-size="11" lengthAdjust="spacing" textLength="122" x="29" y="155.7339">_parentObject : ITabs</text><line style="stroke:#272B30;stroke-width:1.5;" x1="10" x2="579" y1="162.3281" y2="162.3281"/><ellipse cx="20" cy="173.3281" fill="#84BE84" rx="3" ry="3" style="stroke:#038048;stroke-width:1.0;"/><text fill="#000000" font-family="sans-serif" font-size="11" lengthAdjust="spacing" textLength="70" x="29" y="176.5386">build() : void</text><ellipse cx="20" cy="186.1328" fill="#84BE84" rx="3" ry="3" style="stroke:#038048;stroke-width:1.0;"/><text fill="#000000" font-family="sans-serif" font-size="11" lengthAdjust="spacing" textLength="399" x="29" y="189.3433">changeProperty(propertyName: string, propertyValue: unknown) : void</text><ellipse cx="20" cy="198.9375" fill="#84BE84" rx="3" ry="3" style="stroke:#038048;stroke-width:1.0;"/><text fill="#000000" font-family="sans-serif" font-size="11" lengthAdjust="spacing" textLength="88" x="29" y="202.1479">dispose() : void</text><ellipse cx="20" cy="211.7422" fill="#84BE84" rx="3" ry="3" style="stroke:#038048;stroke-width:1.0;"/><text fill="#000000" font-family="sans-serif" font-size="11" lengthAdjust="spacing" textLength="220" x="29" y="214.9526">equalsToID(patternId: string) : boolean</text><polygon fill="#FFFF44" points="20,219.5469,24,223.5469,20,227.5469,16,223.5469" style="stroke:#B38D22;stroke-width:1.0;"/><text fill="#000000" font-family="sans-serif" font-size="11" lengthAdjust="spacing" textLength="102" x="29" y="227.7573">finishBuild() : void</text><polygon fill="#FFFF44" points="20,232.3516,24,236.3516,20,240.3516,16,236.3516" style="stroke:#B38D22;stroke-width:1.0;"/><text fill="#000000" font-family="sans-serif" font-size="11" lengthAdjust="spacing" textLength="213" x="29" y="240.562">notifyParent(actionType: string) : void</text><polygon fill="#FFFF44" points="20,245.1563,24,249.1563,20,253.1563,16,249.1563" style="stroke:#B38D22;stroke-width:1.0;"/><text fill="#000000" font-family="sans-serif" font-size="11" lengthAdjust="spacing" textLength="545" x="29" y="253.3667">setParentInfo(parentSelector: string, getPatternByIdAPI: Function, canBeOrphan: boolean) : void</text><!--MD5=[8ed90dd5402d8b4987d381f4b2872a93]
class ITabsHeaderItem--><rect codeLine="51" fill="#FFFFFF" filter="url(#f4ggvz5dmkore)" height="291.2891" id="ITabsHeaderItem" style="stroke:#272B30;stroke-width:1.5;" width="425" x="615" y="7"/><ellipse cx="769.75" cy="23" fill="#B4A7E5" rx="11" ry="11" style="stroke:#272B30;stroke-width:1.0;"/><path d="M765.6719,18.7656 L765.6719,16.6094 L773.0625,16.6094 L773.0625,18.7656 L770.5938,18.7656 L770.5938,26.8438 L773.0625,26.8438 L773.0625,29 L765.6719,29 L765.6719,26.8438 L768.1406,26.8438 L768.1406,18.7656 L765.6719,18.7656 Z " fill="#000000"/><text fill="#000000" font-family="sans-serif" font-size="12" font-style="italic" lengthAdjust="spacing" textLength="107" x="790.25" y="27.1543">ITabsHeaderItem</text><line style="stroke:#272B30;stroke-width:1.5;" x1="616" x2="1039" y1="39" y2="39"/><ellipse cx="626" cy="50" rx="3" ry="3" style="stroke:#038048;stroke-width:1.0;fill:none;"/><text fill="#000000" font-family="sans-serif" font-size="11" lengthAdjust="spacing" textLength="92" x="635" y="53.2104">isBuilt : boolean</text><ellipse cx="626" cy="62.8047" rx="3" ry="3" style="stroke:#038048;stroke-width:1.0;fill:none;"/><text fill="#000000" font-family="sans-serif" font-size="11" lengthAdjust="spacing" textLength="155" x="635" y="66.0151">selfElement : HTMLElement</text><ellipse cx="626" cy="75.6094" rx="3" ry="3" style="stroke:#038048;stroke-width:1.0;fill:none;"/><text fill="#000000" font-family="sans-serif" font-size="11" lengthAdjust="spacing" textLength="93" x="635" y="78.8198">uniqueId : string</text><ellipse cx="626" cy="88.4141" rx="3" ry="3" style="stroke:#038048;stroke-width:1.0;fill:none;"/><text fill="#000000" font-family="sans-serif" font-size="11" lengthAdjust="spacing" textLength="92" x="635" y="91.6245">widgetId : string</text><line style="stroke:#272B30;stroke-width:1.5;" x1="616" x2="1039" y1="98.2188" y2="98.2188"/><ellipse cx="626" cy="109.2188" fill="#84BE84" rx="3" ry="3" style="stroke:#038048;stroke-width:1.0;"/><text fill="#000000" font-family="sans-serif" font-size="11" lengthAdjust="spacing" textLength="70" x="635" y="112.4292">build() : void</text><ellipse cx="626" cy="122.0234" fill="#84BE84" rx="3" ry="3" style="stroke:#038048;stroke-width:1.0;"/><text fill="#000000" font-family="sans-serif" font-size="11" lengthAdjust="spacing" textLength="399" x="635" y="125.2339">changeProperty(propertyName: string, propertyValue: unknown) : void</text><ellipse cx="626" cy="134.8281" fill="#84BE84" rx="3" ry="3" style="stroke:#038048;stroke-width:1.0;"/><text fill="#000000" font-family="sans-serif" font-size="11" lengthAdjust="spacing" textLength="81" x="635" y="138.0386">disable() : any</text><ellipse cx="626" cy="147.6328" fill="#84BE84" rx="3" ry="3" style="stroke:#038048;stroke-width:1.0;"/><text fill="#000000" font-family="sans-serif" font-size="11" lengthAdjust="spacing" textLength="88" x="635" y="150.8433">dispose() : void</text><ellipse cx="626" cy="160.4375" fill="#84BE84" rx="3" ry="3" style="stroke:#038048;stroke-width:1.0;"/><text fill="#000000" font-family="sans-serif" font-size="11" lengthAdjust="spacing" textLength="78" x="635" y="163.6479">enable() : any</text><ellipse cx="626" cy="173.2422" fill="#84BE84" rx="3" ry="3" style="stroke:#038048;stroke-width:1.0;"/><text fill="#000000" font-family="sans-serif" font-size="11" lengthAdjust="spacing" textLength="179" x="635" y="176.4526">equalsToID(id: string) : boolean</text><ellipse cx="626" cy="186.0469" fill="#84BE84" rx="3" ry="3" style="stroke:#038048;stroke-width:1.0;"/><text fill="#000000" font-family="sans-serif" font-size="11" lengthAdjust="spacing" textLength="105" x="635" y="189.2573">getDataTab() : any</text><ellipse cx="626" cy="198.8516" fill="#84BE84" rx="3" ry="3" style="stroke:#038048;stroke-width:1.0;"/><text fill="#000000" font-family="sans-serif" font-size="11" lengthAdjust="spacing" textLength="294" x="635" y="202.062">setAriaControlsAttribute(contentItemId: string) : any</text><ellipse cx="626" cy="211.6563" fill="#84BE84" rx="3" ry="3" style="stroke:#038048;stroke-width:1.0;"/><text fill="#000000" font-family="sans-serif" font-size="11" lengthAdjust="spacing" textLength="84" x="635" y="214.8667">setBlur() : void</text><ellipse cx="626" cy="224.4609" fill="#84BE84" rx="3" ry="3" style="stroke:#038048;stroke-width:1.0;"/><text fill="#000000" font-family="sans-serif" font-size="11" lengthAdjust="spacing" textLength="203" x="635" y="227.6714">setDataTab(dataTab: number) : any</text><ellipse cx="626" cy="237.2656" fill="#84BE84" rx="3" ry="3" style="stroke:#038048;stroke-width:1.0;"/><text fill="#000000" font-family="sans-serif" font-size="11" lengthAdjust="spacing" textLength="91" x="635" y="240.4761">setFocus() : any</text><ellipse cx="626" cy="250.0703" fill="#84BE84" rx="3" ry="3" style="stroke:#038048;stroke-width:1.0;"/><text fill="#000000" font-family="sans-serif" font-size="11" lengthAdjust="spacing" textLength="101" x="635" y="253.2808">setIsActive() : any</text><ellipse cx="626" cy="262.875" fill="#84BE84" rx="3" ry="3" style="stroke:#038048;stroke-width:1.0;"/><text fill="#000000" font-family="sans-serif" font-size="11" lengthAdjust="spacing" textLength="112" x="635" y="266.0854">setTabindex() : void</text><ellipse cx="626" cy="275.6797" fill="#84BE84" rx="3" ry="3" style="stroke:#038048;stroke-width:1.0;"/><text fill="#000000" font-family="sans-serif" font-size="11" lengthAdjust="spacing" textLength="115" x="635" y="278.8901">unsetIsActive() : any</text><ellipse cx="626" cy="288.4844" fill="#84BE84" rx="3" ry="3" style="stroke:#038048;stroke-width:1.0;"/><text fill="#000000" font-family="sans-serif" font-size="11" lengthAdjust="spacing" textLength="126" x="635" y="291.6948">unsetTabindex() : void</text><!--MD5=[df46eb738ebf798136c520786abdf414]
reverse link AbstractChild<TabsHeaderItemConfig, ITabs> to TabsHeaderItem--><path codeLine="50" d="M377.39,276.28 C394.84,302.12 413.64,329.97 432.31,357.62 " fill="none" id="AbstractChild&lt;TabsHeaderItemConfig, ITabs&gt;-backto-TabsHeaderItem" style="stroke:#272B30;stroke-width:1.0;"/><polygon fill="none" points="371.52,280.1,366.13,259.6,383.13,272.26,371.52,280.1" style="stroke:#272B30;stroke-width:1.0;"/><!--MD5=[256f04e2fdc72998215694b2216990bf]
reverse link ITabsHeaderItem to TabsHeaderItem--><path codeLine="72" d="M717.88,315.26 C708.35,329.33 698.65,343.64 688.99,357.9 " fill="none" id="ITabsHeaderItem-backto-TabsHeaderItem" style="stroke:#272B30;stroke-width:1.0;stroke-dasharray:7.0,7.0;"/><polygon fill="none" points="712.39,310.88,729.41,298.25,723.98,318.74,712.39,310.88" style="stroke:#272B30;stroke-width:1.0;"/><!--MD5=[6ce827af78c7ff557abcc0136693fff1]
@startuml
skinparam ClassArrowColor #272b30
skinparam ClassBorderColor #272b30
skinparam ClassBackgroundColor #fff
skinparam BackgroundColor #ced4da
hide empty methods
hide empty fields
class "TabsHeaderItem" {
    #_selfElem : HTMLElement
    #_widgetId : string
    -_dataTab : number
    -_eventOnTabsClick : Generic
    -_isActive : boolean
    +build() : void
    +changeProperty(propertyName: string, propertyValue: unknown) : void
    +disable() : void
    +dispose() : void
    +enable() : void
    +equalsToID(patternId: string) : boolean
    +getDataTab() : number
    +setAriaControlsAttribute(contentItemId: string) : void
    +setDataTab(dataTab: number) : void
    +setFocus() : void
    +setIsActive() : void
    +unsetIsActive() : void
    #finishBuild() : void
    #notifyParent(actionType: string) : void
    #setA11YProperties(isUpdate: boolean) : void
    #setCallbacks() : void
    #setParentInfo(parentSelector: string, getPatternByIdAPI: Function, canBeOrphan: boolean) : void
    #unsetCallbacks() : void
    -_handleClickEvent() : void
    -_removeEvents() : void
    -_setUpEvents() : void
}
abstract class "AbstractChild<TabsHeaderItemConfig, ITabs>" {
    #_selfElem : HTMLElement
    #_widgetId : string
    -_isFirstChild : boolean
    -_isLastChild : boolean
    -_parentId : string
    -_parentObject : ITabs
    +build() : void
    +changeProperty(propertyName: string, propertyValue: unknown) : void
    +dispose() : void
    +equalsToID(patternId: string) : boolean
    #finishBuild() : void
    #notifyParent(actionType: string) : void
    #setParentInfo(parentSelector: string, getPatternByIdAPI: Function, canBeOrphan: boolean) : void
}
"AbstractChild<TabsHeaderItemConfig, ITabs>" <|- - "TabsHeaderItem"
interface "ITabsHeaderItem" {
    +isBuilt : boolean
    +selfElement : HTMLElement
    +uniqueId : string
    +widgetId : string
    +build() : void
    +changeProperty(propertyName: string, propertyValue: unknown) : void
    +disable() : any
    +dispose() : void
    +enable() : any
    +equalsToID(id: string) : boolean
    +getDataTab() : any
    +setAriaControlsAttribute(contentItemId: string) : any
    +setBlur() : void
    +setDataTab(dataTab: number) : any
    +setFocus() : any
    +setIsActive() : any
    +setTabindex() : void
    +unsetIsActive() : any
    +unsetTabindex() : void
}
"ITabsHeaderItem" <|.. "TabsHeaderItem"
@enduml

PlantUML version 1.2021.14(Fri Nov 12 16:46:50 UTC 2021)
(GPL source distribution)
Java Runtime: OpenJDK Runtime Environment
JVM: OpenJDK 64-Bit Server VM
Default Encoding: UTF-8
Language: en
Country: null
--></g></svg>