<?xml version="1.0" encoding="us-ascii" standalone="no"?><svg xmlns="http://www.w3.org/2000/svg" xmlns:xlink="http://www.w3.org/1999/xlink" contentStyleType="text/css" height="1060px" preserveAspectRatio="none" style="width:1236px;height:1060px;background:#CED4DA;" version="1.1" viewBox="0 0 1236 1060" width="1236px" zoomAndPan="magnify"><defs/><g><rect fill="#CED4DA" height="1060" style="stroke:none;stroke-width:1.0;" width="1236" x="0" y="0"/><!--class TabsHeaderItem--><g id="elem_TabsHeaderItem"><rect codeLine="7" fill="#FFFFFF" height="575.625" id="TabsHeaderItem" rx="2.5" ry="2.5" style="stroke:#272B30;stroke-width:0.5;" width="677" x="323" y="478"/><ellipse cx="601.25" cy="494" fill="#ADD1B2" rx="11" ry="11" style="stroke:#181818;stroke-width:1.0;"/><path d="M603.7231,500.1431 Q603.1421,500.4419 602.5029,500.5913 Q601.8638,500.7407 601.1582,500.7407 Q598.6514,500.7407 597.3315,499.0889 Q596.0117,497.437 596.0117,494.3159 Q596.0117,491.1865 597.3315,489.5347 Q598.6514,487.8828 601.1582,487.8828 Q601.8638,487.8828 602.5112,488.0322 Q603.1587,488.1816 603.7231,488.4805 L603.7231,491.2031 Q603.0923,490.6221 602.4988,490.3523 Q601.9053,490.0825 601.2744,490.0825 Q599.9297,490.0825 599.2449,491.1492 Q598.5601,492.2158 598.5601,494.3159 Q598.5601,496.4077 599.2449,497.4744 Q599.9297,498.541 601.2744,498.541 Q601.9053,498.541 602.4988,498.2712 Q603.0923,498.0015 603.7231,497.4204 Z " fill="#000000"/><text fill="#000000" font-family="sans-serif" font-size="14" lengthAdjust="spacing" textLength="112" x="621.75" y="499.291">TabsHeaderItem</text><line style="stroke:#272B30;stroke-width:0.5;" x1="324" x2="999" y1="510" y2="510"/><polygon fill="none" points="334,518.7441,338,522.7441,334,526.7441,330,522.7441" style="stroke:#B38D22;stroke-width:1.0;"/><text fill="#000000" font-family="sans-serif" font-size="14" lengthAdjust="spacing" textLength="176" x="343" y="527.5352">isProviderBased : boolean</text><rect fill="none" height="6" style="stroke:#C82930;stroke-width:1.0;" width="6" x="331" y="537.2324"/><text fill="#000000" font-family="sans-serif" font-size="14" lengthAdjust="spacing" textLength="129" x="343" y="544.0234">_dataTab : number</text><rect fill="none" height="6" style="stroke:#C82930;stroke-width:1.0;" width="6" x="331" y="553.7207"/><text fill="#000000" font-family="sans-serif" font-size="14" lengthAdjust="spacing" textLength="194" x="343" y="560.5117">_eventOnTabsClick : Generic</text><rect fill="none" height="6" style="stroke:#C82930;stroke-width:1.0;" width="6" x="331" y="570.209"/><text fill="#000000" font-family="sans-serif" font-size="14" lengthAdjust="spacing" textLength="127" x="343" y="577">_isActive : boolean</text><line style="stroke:#272B30;stroke-width:0.5;" x1="324" x2="999" y1="583.9531" y2="583.9531"/><ellipse cx="334" cy="597.6973" fill="#84BE84" rx="3" ry="3" style="stroke:#038048;stroke-width:1.0;"/><text fill="#000000" font-family="sans-serif" font-size="14" lengthAdjust="spacing" textLength="86" x="343" y="601.4883">build() : void</text><ellipse cx="334" cy="614.1855" fill="#84BE84" rx="3" ry="3" style="stroke:#038048;stroke-width:1.0;"/><text fill="#000000" font-family="sans-serif" font-size="14" lengthAdjust="spacing" textLength="482" x="343" y="617.9766">changeProperty(propertyName: string, propertyValue: unknown) : void</text><ellipse cx="334" cy="630.6738" fill="#84BE84" rx="3" ry="3" style="stroke:#038048;stroke-width:1.0;"/><text fill="#000000" font-family="sans-serif" font-size="14" lengthAdjust="spacing" textLength="100" x="343" y="634.4648">disable() : void</text><ellipse cx="334" cy="647.1621" fill="#84BE84" rx="3" ry="3" style="stroke:#038048;stroke-width:1.0;"/><text fill="#000000" font-family="sans-serif" font-size="14" lengthAdjust="spacing" textLength="104" x="343" y="650.9531">dispose() : void</text><ellipse cx="334" cy="663.6504" fill="#84BE84" rx="3" ry="3" style="stroke:#038048;stroke-width:1.0;"/><text fill="#000000" font-family="sans-serif" font-size="14" lengthAdjust="spacing" textLength="97" x="343" y="667.4414">enable() : void</text><ellipse cx="334" cy="680.1387" fill="#84BE84" rx="3" ry="3" style="stroke:#038048;stroke-width:1.0;"/><text fill="#000000" font-family="sans-serif" font-size="14" lengthAdjust="spacing" textLength="266" x="343" y="683.9297">equalsToID(patternId: string) : boolean</text><ellipse cx="334" cy="696.627" fill="#84BE84" rx="3" ry="3" style="stroke:#038048;stroke-width:1.0;"/><text fill="#000000" font-family="sans-serif" font-size="14" lengthAdjust="spacing" textLength="155" x="343" y="700.418">getDataTab() : number</text><ellipse cx="334" cy="713.1152" fill="#84BE84" rx="3" ry="3" style="stroke:#038048;stroke-width:1.0;"/><text fill="#000000" font-family="sans-serif" font-size="14" lengthAdjust="spacing" textLength="428" x="343" y="716.9063">registerCallback(eventName: string, callback: OSGeneric) : void</text><ellipse cx="334" cy="729.6035" fill="#84BE84" rx="3" ry="3" style="stroke:#038048;stroke-width:1.0;"/><text fill="#000000" font-family="sans-serif" font-size="14" lengthAdjust="spacing" textLength="362" x="343" y="733.3945">setAriaControlsAttribute(contentItemId: string) : void</text><ellipse cx="334" cy="746.0918" fill="#84BE84" rx="3" ry="3" style="stroke:#038048;stroke-width:1.0;"/><text fill="#000000" font-family="sans-serif" font-size="14" lengthAdjust="spacing" textLength="246" x="343" y="749.8828">setDataTab(dataTab: number) : void</text><ellipse cx="334" cy="762.5801" fill="#84BE84" rx="3" ry="3" style="stroke:#038048;stroke-width:1.0;"/><text fill="#000000" font-family="sans-serif" font-size="14" lengthAdjust="spacing" textLength="111" x="343" y="766.3711">setFocus() : void</text><ellipse cx="334" cy="779.0684" fill="#84BE84" rx="3" ry="3" style="stroke:#038048;stroke-width:1.0;"/><text fill="#000000" font-family="sans-serif" font-size="14" lengthAdjust="spacing" textLength="123" x="343" y="782.8594">setIsActive() : void</text><ellipse cx="334" cy="795.5566" fill="#84BE84" rx="3" ry="3" style="stroke:#038048;stroke-width:1.0;"/><text fill="#000000" font-family="sans-serif" font-size="14" lengthAdjust="spacing" textLength="141" x="343" y="799.3477">unsetIsActive() : void</text><ellipse cx="334" cy="812.0449" fill="#84BE84" rx="3" ry="3" style="stroke:#038048;stroke-width:1.0;"/><text fill="#000000" font-family="sans-serif" font-size="14" lengthAdjust="spacing" textLength="168" x="343" y="815.8359">updateOnRender() : void</text><polygon fill="#FFFF44" points="334,823.5332,338,827.5332,334,831.5332,330,827.5332" style="stroke:#B38D22;stroke-width:1.0;"/><text fill="#000000" font-family="sans-serif" font-size="14" lengthAdjust="spacing" textLength="123" x="343" y="832.3242">finishBuild() : void</text><polygon fill="#FFFF44" points="334,840.0215,338,844.0215,334,848.0215,330,844.0215" style="stroke:#B38D22;stroke-width:1.0;"/><text fill="#000000" font-family="sans-serif" font-size="14" lengthAdjust="spacing" textLength="257" x="343" y="848.8125">notifyParent(actionType: string) : void</text><polygon fill="#FFFF44" points="334,856.5098,338,860.5098,334,864.5098,330,860.5098" style="stroke:#B38D22;stroke-width:1.0;"/><text fill="#000000" font-family="sans-serif" font-size="14" lengthAdjust="spacing" textLength="302" x="343" y="865.3008">setA11YProperties(isUpdate: boolean) : void</text><polygon fill="#FFFF44" points="334,872.998,338,876.998,334,880.998,330,876.998" style="stroke:#B38D22;stroke-width:1.0;"/><text fill="#000000" font-family="sans-serif" font-size="14" lengthAdjust="spacing" textLength="136" x="343" y="881.7891">setCallbacks() : void</text><polygon fill="#FFFF44" points="334,889.4863,338,893.4863,334,897.4863,330,893.4863" style="stroke:#B38D22;stroke-width:1.0;"/><text fill="#000000" font-family="sans-serif" font-size="14" lengthAdjust="spacing" textLength="165" x="343" y="898.2773">setHtmlElements() : void</text><polygon fill="#FFFF44" points="334,905.9746,338,909.9746,334,913.9746,330,909.9746" style="stroke:#B38D22;stroke-width:1.0;"/><text fill="#000000" font-family="sans-serif" font-size="14" lengthAdjust="spacing" textLength="651" x="343" y="914.7656">setParentInfo(parentSelector: string, getPatternByIdAPI: Function, canBeOrphan: boolean) : void</text><polygon fill="#FFFF44" points="334,922.4629,338,926.4629,334,930.4629,330,926.4629" style="stroke:#B38D22;stroke-width:1.0;"/><text fill="#000000" font-family="sans-serif" font-size="14" lengthAdjust="spacing" textLength="570" x="343" y="931.2539">triggerPlatformEventCallback(platFormCallback: OSGeneric, args: unknown[]) : void</text><polygon fill="#FFFF44" points="334,938.9512,338,942.9512,334,946.9512,330,942.9512" style="stroke:#B38D22;stroke-width:1.0;"/><text fill="#000000" font-family="sans-serif" font-size="14" lengthAdjust="spacing" textLength="318" x="343" y="947.7422">triggerPlatformInitializedEventCallback() : void</text><polygon fill="#FFFF44" points="334,955.4395,338,959.4395,334,963.4395,330,959.4395" style="stroke:#B38D22;stroke-width:1.0;"/><text fill="#000000" font-family="sans-serif" font-size="14" lengthAdjust="spacing" textLength="154" x="343" y="964.2305">unsetCallbacks() : void</text><polygon fill="#FFFF44" points="334,971.9277,338,975.9277,334,979.9277,330,975.9277" style="stroke:#B38D22;stroke-width:1.0;"/><text fill="#000000" font-family="sans-serif" font-size="14" lengthAdjust="spacing" textLength="198" x="343" y="980.7188">unsetGlobalCallbacks() : void</text><polygon fill="#FFFF44" points="334,988.416,338,992.416,334,996.416,330,992.416" style="stroke:#B38D22;stroke-width:1.0;"/><text fill="#000000" font-family="sans-serif" font-size="14" lengthAdjust="spacing" textLength="183" x="343" y="997.207">unsetHtmlElements() : void</text><rect fill="#F24D5C" height="6" style="stroke:#C82930;stroke-width:1.0;" width="6" x="331" y="1006.9043"/><text fill="#000000" font-family="sans-serif" font-size="14" lengthAdjust="spacing" textLength="175" x="343" y="1013.6953">_handleClickEvent() : void</text><rect fill="#F24D5C" height="6" style="stroke:#C82930;stroke-width:1.0;" width="6" x="331" y="1023.3926"/><text fill="#000000" font-family="sans-serif" font-size="14" lengthAdjust="spacing" textLength="153" x="343" y="1030.1836">_removeEvents() : void</text><rect fill="#F24D5C" height="6" style="stroke:#C82930;stroke-width:1.0;" width="6" x="331" y="1039.8809"/><text fill="#000000" font-family="sans-serif" font-size="14" lengthAdjust="spacing" textLength="141" x="343" y="1046.6719">_setUpEvents() : void</text></g><!--class AbstractChild<TabsHeaderItemConfig, ITabs>--><g id="elem_AbstractChild&lt;TabsHeaderItemConfig, ITabs&gt;"><rect codeLine="41" fill="#FFFFFF" height="394.2539" id="AbstractChild&lt;TabsHeaderItemConfig, ITabs&gt;" rx="2.5" ry="2.5" style="stroke:#272B30;stroke-width:0.5;" width="677" x="9" y="15.5"/><ellipse cx="184.25" cy="31.5" fill="#A9DCDF" rx="11" ry="11" style="stroke:#181818;stroke-width:1.0;"/><path d="M184.1133,26.8481 L182.9595,31.9199 L185.2754,31.9199 Z M182.6191,24.6069 L185.6157,24.6069 L188.9609,37 L186.5122,37 L185.7485,33.937 L182.4697,33.937 L181.7227,37 L179.2739,37 Z " fill="#000000"/><text fill="#000000" font-family="sans-serif" font-size="14" font-style="italic" lengthAdjust="spacing" textLength="318" x="204.75" y="36.791">AbstractChild&lt;TabsHeaderItemConfig, ITabs&gt;</text><line style="stroke:#272B30;stroke-width:0.5;" x1="10" x2="685" y1="47.5" y2="47.5"/><polygon fill="none" points="20,56.2441,24,60.2441,20,64.2441,16,60.2441" style="stroke:#B38D22;stroke-width:1.0;"/><text fill="#000000" font-family="sans-serif" font-size="14" lengthAdjust="spacing" textLength="176" x="29" y="65.0352">isProviderBased : boolean</text><rect fill="none" height="6" style="stroke:#C82930;stroke-width:1.0;" width="6" x="17" y="74.7324"/><text fill="#000000" font-family="sans-serif" font-size="14" lengthAdjust="spacing" textLength="152" x="29" y="81.5234">_isFirstChild : boolean</text><rect fill="none" height="6" style="stroke:#C82930;stroke-width:1.0;" width="6" x="17" y="91.2207"/><text fill="#000000" font-family="sans-serif" font-size="14" lengthAdjust="spacing" textLength="149" x="29" y="98.0117">_isLastChild : boolean</text><rect fill="none" height="6" style="stroke:#C82930;stroke-width:1.0;" width="6" x="17" y="107.709"/><text fill="#000000" font-family="sans-serif" font-size="14" lengthAdjust="spacing" textLength="117" x="29" y="114.5">_parentId : string</text><rect fill="none" height="6" style="stroke:#C82930;stroke-width:1.0;" width="6" x="17" y="124.1973"/><text fill="#000000" font-family="sans-serif" font-size="14" lengthAdjust="spacing" textLength="145" x="29" y="130.9883">_parentObject : ITabs</text><line style="stroke:#272B30;stroke-width:0.5;" x1="10" x2="685" y1="137.9414" y2="137.9414"/><ellipse cx="20" cy="151.6855" fill="#84BE84" rx="3" ry="3" style="stroke:#038048;stroke-width:1.0;"/><text fill="#000000" font-family="sans-serif" font-size="14" lengthAdjust="spacing" textLength="86" x="29" y="155.4766">build() : void</text><ellipse cx="20" cy="168.1738" fill="#84BE84" rx="3" ry="3" style="stroke:#038048;stroke-width:1.0;"/><text fill="#000000" font-family="sans-serif" font-size="14" lengthAdjust="spacing" textLength="482" x="29" y="171.9648">changeProperty(propertyName: string, propertyValue: unknown) : void</text><ellipse cx="20" cy="184.6621" fill="#84BE84" rx="3" ry="3" style="stroke:#038048;stroke-width:1.0;"/><text fill="#000000" font-family="sans-serif" font-size="14" lengthAdjust="spacing" textLength="104" x="29" y="188.4531">dispose() : void</text><ellipse cx="20" cy="201.1504" fill="#84BE84" rx="3" ry="3" style="stroke:#038048;stroke-width:1.0;"/><text fill="#000000" font-family="sans-serif" font-size="14" lengthAdjust="spacing" textLength="266" x="29" y="204.9414">equalsToID(patternId: string) : boolean</text><ellipse cx="20" cy="217.6387" fill="#84BE84" rx="3" ry="3" style="stroke:#038048;stroke-width:1.0;"/><text fill="#000000" font-family="sans-serif" font-size="14" lengthAdjust="spacing" textLength="428" x="29" y="221.4297">registerCallback(eventName: string, callback: OSGeneric) : void</text><polygon fill="#FFFF44" points="20,229.127,24,233.127,20,237.127,16,233.127" style="stroke:#B38D22;stroke-width:1.0;"/><text fill="#000000" font-family="sans-serif" font-size="14" lengthAdjust="spacing" textLength="123" x="29" y="237.918">finishBuild() : void</text><polygon fill="#FFFF44" points="20,245.6152,24,249.6152,20,253.6152,16,249.6152" style="stroke:#B38D22;stroke-width:1.0;"/><text fill="#000000" font-family="sans-serif" font-size="14" lengthAdjust="spacing" textLength="257" x="29" y="254.4063">notifyParent(actionType: string) : void</text><polygon fill="#FFFF44" points="20,262.1035,24,266.1035,20,270.1035,16,266.1035" style="stroke:#B38D22;stroke-width:1.0;"/><text fill="#000000" font-family="sans-serif" font-size="14" font-style="italic" lengthAdjust="spacing" textLength="178" x="29" y="270.8945">setA11YProperties() : void</text><polygon fill="#FFFF44" points="20,278.5918,24,282.5918,20,286.5918,16,282.5918" style="stroke:#B38D22;stroke-width:1.0;"/><text fill="#000000" font-family="sans-serif" font-size="14" font-style="italic" lengthAdjust="spacing" textLength="136" x="29" y="287.3828">setCallbacks() : void</text><polygon fill="#FFFF44" points="20,295.0801,24,299.0801,20,303.0801,16,299.0801" style="stroke:#B38D22;stroke-width:1.0;"/><text fill="#000000" font-family="sans-serif" font-size="14" font-style="italic" lengthAdjust="spacing" textLength="165" x="29" y="303.8711">setHtmlElements() : void</text><polygon fill="#FFFF44" points="20,311.5684,24,315.5684,20,319.5684,16,315.5684" style="stroke:#B38D22;stroke-width:1.0;"/><text fill="#000000" font-family="sans-serif" font-size="14" lengthAdjust="spacing" textLength="651" x="29" y="320.3594">setParentInfo(parentSelector: string, getPatternByIdAPI: Function, canBeOrphan: boolean) : void</text><polygon fill="#FFFF44" points="20,328.0566,24,332.0566,20,336.0566,16,332.0566" style="stroke:#B38D22;stroke-width:1.0;"/><text fill="#000000" font-family="sans-serif" font-size="14" lengthAdjust="spacing" textLength="570" x="29" y="336.8477">triggerPlatformEventCallback(platFormCallback: OSGeneric, args: unknown[]) : void</text><polygon fill="#FFFF44" points="20,344.5449,24,348.5449,20,352.5449,16,348.5449" style="stroke:#B38D22;stroke-width:1.0;"/><text fill="#000000" font-family="sans-serif" font-size="14" lengthAdjust="spacing" textLength="318" x="29" y="353.3359">triggerPlatformInitializedEventCallback() : void</text><polygon fill="#FFFF44" points="20,361.0332,24,365.0332,20,369.0332,16,365.0332" style="stroke:#B38D22;stroke-width:1.0;"/><text fill="#000000" font-family="sans-serif" font-size="14" font-style="italic" lengthAdjust="spacing" textLength="154" x="29" y="369.8242">unsetCallbacks() : void</text><polygon fill="#FFFF44" points="20,377.5215,24,381.5215,20,385.5215,16,381.5215" style="stroke:#B38D22;stroke-width:1.0;"/><text fill="#000000" font-family="sans-serif" font-size="14" lengthAdjust="spacing" textLength="198" x="29" y="386.3125">unsetGlobalCallbacks() : void</text><polygon fill="#FFFF44" points="20,394.0098,24,398.0098,20,402.0098,16,398.0098" style="stroke:#B38D22;stroke-width:1.0;"/><text fill="#000000" font-family="sans-serif" font-size="14" font-style="italic" lengthAdjust="spacing" textLength="183" x="29" y="402.8008">unsetHtmlElements() : void</text></g><!--class ITabsHeaderItem--><g id="elem_ITabsHeaderItem"><rect codeLine="65" fill="#FFFFFF" height="410.7422" id="ITabsHeaderItem" rx="2.5" ry="2.5" style="stroke:#272B30;stroke-width:0.5;" width="508" x="721.5" y="7"/><ellipse cx="913.25" cy="23" fill="#B4A7E5" rx="11" ry="11" style="stroke:#181818;stroke-width:1.0;"/><path d="M909.6777,19.2651 L909.6777,17.1069 L917.0571,17.1069 L917.0571,19.2651 L914.5918,19.2651 L914.5918,27.3418 L917.0571,27.3418 L917.0571,29.5 L909.6777,29.5 L909.6777,27.3418 L912.1431,27.3418 L912.1431,19.2651 Z " fill="#000000"/><text fill="#000000" font-family="sans-serif" font-size="14" font-style="italic" lengthAdjust="spacing" textLength="116" x="933.75" y="28.291">ITabsHeaderItem</text><line style="stroke:#272B30;stroke-width:0.5;" x1="722.5" x2="1228.5" y1="39" y2="39"/><ellipse cx="732.5" cy="52.7441" fill="none" rx="3" ry="3" style="stroke:#038048;stroke-width:1.0;"/><text fill="#000000" font-family="sans-serif" font-size="14" lengthAdjust="spacing" textLength="120" x="741.5" y="56.5352">IsActive : boolean</text><ellipse cx="732.5" cy="69.2324" fill="none" rx="3" ry="3" style="stroke:#038048;stroke-width:1.0;"/><text fill="#000000" font-family="sans-serif" font-size="14" lengthAdjust="spacing" textLength="109" x="741.5" y="73.0234">isBuilt : boolean</text><ellipse cx="732.5" cy="85.7207" fill="none" rx="3" ry="3" style="stroke:#038048;stroke-width:1.0;"/><text fill="#000000" font-family="sans-serif" font-size="14" lengthAdjust="spacing" textLength="184" x="741.5" y="89.5117">selfElement : HTMLElement</text><ellipse cx="732.5" cy="102.209" fill="none" rx="3" ry="3" style="stroke:#038048;stroke-width:1.0;"/><text fill="#000000" font-family="sans-serif" font-size="14" lengthAdjust="spacing" textLength="113" x="741.5" y="106">uniqueId : string</text><ellipse cx="732.5" cy="118.6973" fill="none" rx="3" ry="3" style="stroke:#038048;stroke-width:1.0;"/><text fill="#000000" font-family="sans-serif" font-size="14" lengthAdjust="spacing" textLength="111" x="741.5" y="122.4883">widgetId : string</text><line style="stroke:#272B30;stroke-width:0.5;" x1="722.5" x2="1228.5" y1="129.4414" y2="129.4414"/><ellipse cx="732.5" cy="143.1855" fill="#84BE84" rx="3" ry="3" style="stroke:#038048;stroke-width:1.0;"/><text fill="#000000" font-family="sans-serif" font-size="14" lengthAdjust="spacing" textLength="86" x="741.5" y="146.9766">build() : void</text><ellipse cx="732.5" cy="159.6738" fill="#84BE84" rx="3" ry="3" style="stroke:#038048;stroke-width:1.0;"/><text fill="#000000" font-family="sans-serif" font-size="14" lengthAdjust="spacing" textLength="482" x="741.5" y="163.4648">changeProperty(propertyName: string, propertyValue: unknown) : void</text><ellipse cx="732.5" cy="176.1621" fill="#84BE84" rx="3" ry="3" style="stroke:#038048;stroke-width:1.0;"/><text fill="#000000" font-family="sans-serif" font-size="14" lengthAdjust="spacing" textLength="100" x="741.5" y="179.9531">disable() : void</text><ellipse cx="732.5" cy="192.6504" fill="#84BE84" rx="3" ry="3" style="stroke:#038048;stroke-width:1.0;"/><text fill="#000000" font-family="sans-serif" font-size="14" lengthAdjust="spacing" textLength="104" x="741.5" y="196.4414">dispose() : void</text><ellipse cx="732.5" cy="209.1387" fill="#84BE84" rx="3" ry="3" style="stroke:#038048;stroke-width:1.0;"/><text fill="#000000" font-family="sans-serif" font-size="14" lengthAdjust="spacing" textLength="97" x="741.5" y="212.9297">enable() : void</text><ellipse cx="732.5" cy="225.627" fill="#84BE84" rx="3" ry="3" style="stroke:#038048;stroke-width:1.0;"/><text fill="#000000" font-family="sans-serif" font-size="14" lengthAdjust="spacing" textLength="216" x="741.5" y="229.418">equalsToID(id: string) : boolean</text><ellipse cx="732.5" cy="242.1152" fill="#84BE84" rx="3" ry="3" style="stroke:#038048;stroke-width:1.0;"/><text fill="#000000" font-family="sans-serif" font-size="14" lengthAdjust="spacing" textLength="155" x="741.5" y="245.9063">getDataTab() : number</text><ellipse cx="732.5" cy="258.6035" fill="#84BE84" rx="3" ry="3" style="stroke:#038048;stroke-width:1.0;"/><text fill="#000000" font-family="sans-serif" font-size="14" lengthAdjust="spacing" textLength="428" x="741.5" y="262.3945">registerCallback(eventName: string, callback: OSGeneric) : void</text><ellipse cx="732.5" cy="275.0918" fill="#84BE84" rx="3" ry="3" style="stroke:#038048;stroke-width:1.0;"/><text fill="#000000" font-family="sans-serif" font-size="14" lengthAdjust="spacing" textLength="362" x="741.5" y="278.8828">setAriaControlsAttribute(contentItemId: string) : void</text><ellipse cx="732.5" cy="291.5801" fill="#84BE84" rx="3" ry="3" style="stroke:#038048;stroke-width:1.0;"/><text fill="#000000" font-family="sans-serif" font-size="14" lengthAdjust="spacing" textLength="98" x="741.5" y="295.3711">setBlur() : void</text><ellipse cx="732.5" cy="308.0684" fill="#84BE84" rx="3" ry="3" style="stroke:#038048;stroke-width:1.0;"/><text fill="#000000" font-family="sans-serif" font-size="14" lengthAdjust="spacing" textLength="246" x="741.5" y="311.8594">setDataTab(dataTab: number) : void</text><ellipse cx="732.5" cy="324.5566" fill="#84BE84" rx="3" ry="3" style="stroke:#038048;stroke-width:1.0;"/><text fill="#000000" font-family="sans-serif" font-size="14" lengthAdjust="spacing" textLength="111" x="741.5" y="328.3477">setFocus() : void</text><ellipse cx="732.5" cy="341.0449" fill="#84BE84" rx="3" ry="3" style="stroke:#038048;stroke-width:1.0;"/><text fill="#000000" font-family="sans-serif" font-size="14" lengthAdjust="spacing" textLength="123" x="741.5" y="344.8359">setIsActive() : void</text><ellipse cx="732.5" cy="357.5332" fill="#84BE84" rx="3" ry="3" style="stroke:#038048;stroke-width:1.0;"/><text fill="#000000" font-family="sans-serif" font-size="14" lengthAdjust="spacing" textLength="136" x="741.5" y="361.3242">setTabindex() : void</text><ellipse cx="732.5" cy="374.0215" fill="#84BE84" rx="3" ry="3" style="stroke:#038048;stroke-width:1.0;"/><text fill="#000000" font-family="sans-serif" font-size="14" lengthAdjust="spacing" textLength="141" x="741.5" y="377.8125">unsetIsActive() : void</text><ellipse cx="732.5" cy="390.5098" fill="#84BE84" rx="3" ry="3" style="stroke:#038048;stroke-width:1.0;"/><text fill="#000000" font-family="sans-serif" font-size="14" lengthAdjust="spacing" textLength="154" x="741.5" y="394.3008">unsetTabindex() : void</text><ellipse cx="732.5" cy="406.998" fill="#84BE84" rx="3" ry="3" style="stroke:#038048;stroke-width:1.0;"/><text fill="#000000" font-family="sans-serif" font-size="14" lengthAdjust="spacing" textLength="168" x="741.5" y="410.7891">updateOnRender() : void</text></g><!--reverse link AbstractChild<TabsHeaderItemConfig, ITabs> to TabsHeaderItem--><g id="link_AbstractChild&lt;TabsHeaderItemConfig, ITabs&gt;_TabsHeaderItem"><path codeLine="64" d="M469.28,427.39 C478.73,443.99 488.36,460.89 498.01,477.86 " fill="none" id="AbstractChild&lt;TabsHeaderItemConfig, ITabs&gt;-backto-TabsHeaderItem" style="stroke:#272B30;stroke-width:1.0;"/><polygon fill="none" points="463.12,430.72,459.31,409.88,475.29,423.8,463.12,430.72" style="stroke:#272B30;stroke-width:1.0;"/></g><!--reverse link ITabsHeaderItem to TabsHeaderItem--><g id="link_ITabsHeaderItem_TabsHeaderItem"><path codeLine="89" d="M849.08,435.53 C841.19,449.41 833.18,463.47 825.15,477.57 " fill="none" id="ITabsHeaderItem-backto-TabsHeaderItem" style="stroke:#272B30;stroke-width:1.0;stroke-dasharray:7.0,7.0;"/><polygon fill="none" points="843.05,431.99,859.02,418.07,855.21,438.92,843.05,431.99" style="stroke:#272B30;stroke-width:1.0;"/></g><!--SRC=[xLPjInj14FwUNt6OBoSnKcsX4AIGHAC7jWar5aefidSxTvbcR_VStOjDrV_UkSl5UYy9bOeWD9-IvvcPdPrvTZ9cZZ9XciNEK31Z-bghcw4IIZljm_U7_jitBLEs62ZDGMytOS4yqYgLl30Bm_2HJOqEWB_Zh3L33Wx4YLqwCTYPukOn5288GeBi06Tdodnp1emoyIp4Eyvjow5F6yr4gmKvwG4pm9sUuoibWCcSxbvnPXcv4YxJs0TTmB00QSSo2peK6Co9FmK96eF204q_iBY0Ii2EdwBWxYx12uLyXGKp9YEWF1BGTkacnPTFB8QUOwn66UqvQ_GB4od1gPnBTIFBWJWQvWjmQsYYJ1K5sM0AroaJPggyOpTXreAM7b-di5kzIWJsU5MTFCgZ-dGqH6Z8VSY4yAbvRbwlyeM2WkivuukYTkLa3DY-HZPKqcebJD-IevzQS0D2A5pMnt9w9TzrRaK7rmdMx4OgI8rRWxsYWHKcbLkuXCw2iVmCalHK9jiXIZIpGRtzRQaiXii9qtGdbr5W9QVB11elriwASd3mjH0BWd7HNERdFdIdvh3kGkMM6NLcOt4Y8AQZ6zXLJfuC5SaX-te10WAhz9ykHfbLhfJ1qkFzYTTpHgdCBv6rM0vWh1FIzuRiA4eKWPu8PaEbuvDC9W-YIGWT4JgiAsNFOJeo3y_Ws_UjOJs95fd0Ny3B9vIzyjvkAbPEdWhbCx7LP7D5krTK1ouW7nXv7bLUGwmMa5CrNmfzcLIf-nOD8Aj9D4unvlh5x-6CX7PK7dhqaaAaddaP_E6lHo2Q4MgpYjX0dhDDt4epNaQiv5B2n_uFqX9nUJelCnsRvk1JHjvppBLdcWItwyxVDms5RQORv5kn-ZyPcalpZqEY5ggvplUj9xtaexjkjxRYj93-9dN80d1slERrf-DjM5FGPFgqLTY028jaYJgRVZmlVgt_7F4wXUg3xzmW9p7Ku5Up2k6htO468jNk2sr6n50mfDNdvrDs9hd5RyC-HO-ZfkUZk_tzsWlu3G00]--></g></svg>