<?xml version="1.0" encoding="us-ascii" standalone="no"?><svg xmlns="http://www.w3.org/2000/svg" xmlns:xlink="http://www.w3.org/1999/xlink" contentStyleType="text/css" height="466px" preserveAspectRatio="none" style="width:631px;height:466px;background:#CED4DA;" version="1.1" viewBox="0 0 631 466" width="631px" zoomAndPan="magnify"><defs/><g><rect fill="#CED4DA" height="466" style="stroke:none;stroke-width:1.0;" width="631" x="0" y="0"/><!--class TabsContentItemConfig--><g id="elem_TabsContentItemConfig"><rect codeLine="7" fill="#FFFFFF" height="196.3945" id="TabsContentItemConfig" rx="2.5" ry="2.5" style="stroke:#272B30;stroke-width:0.5;" width="615" x="9" y="263"/><ellipse cx="230.25" cy="279" fill="#ADD1B2" rx="11" ry="11" style="stroke:#181818;stroke-width:1.0;"/><path d="M232.7231,285.1431 Q232.1421,285.4419 231.5029,285.5913 Q230.8638,285.7407 230.1582,285.7407 Q227.6514,285.7407 226.3315,284.0889 Q225.0117,282.437 225.0117,279.3159 Q225.0117,276.1865 226.3315,274.5347 Q227.6514,272.8828 230.1582,272.8828 Q230.8638,272.8828 231.5112,273.0322 Q232.1587,273.1816 232.7231,273.4805 L232.7231,276.2031 Q232.0923,275.6221 231.4988,275.3523 Q230.9053,275.0825 230.2744,275.0825 Q228.9297,275.0825 228.2449,276.1492 Q227.5601,277.2158 227.5601,279.3159 Q227.5601,281.4077 228.2449,282.4744 Q228.9297,283.541 230.2744,283.541 Q230.9053,283.541 231.4988,283.2712 Q232.0923,283.0015 232.7231,282.4204 Z " fill="#000000"/><text fill="#000000" font-family="sans-serif" font-size="14" lengthAdjust="spacing" textLength="164" x="250.75" y="284.291">TabsContentItemConfig</text><line style="stroke:#272B30;stroke-width:0.5;" x1="10" x2="623" y1="295" y2="295"/><ellipse cx="20" cy="308.7441" fill="none" rx="3" ry="3" style="stroke:#038048;stroke-width:1.0;"/><text fill="#000000" font-family="sans-serif" font-size="14" lengthAdjust="spacing" textLength="153" x="29" y="312.5352">ExtendedClass : string</text><line style="stroke:#272B30;stroke-width:0.5;" x1="10" x2="623" y1="319.4883" y2="319.4883"/><ellipse cx="20" cy="333.2324" fill="#84BE84" rx="3" ry="3" style="stroke:#038048;stroke-width:1.0;"/><text fill="#000000" font-family="sans-serif" font-size="14" lengthAdjust="spacing" textLength="409" x="29" y="337.0234">validateCanChange(_isBuilt: boolean, _key: string) : boolean</text><ellipse cx="20" cy="349.7207" fill="#84BE84" rx="3" ry="3" style="stroke:#038048;stroke-width:1.0;"/><text fill="#000000" font-family="sans-serif" font-size="14" lengthAdjust="spacing" textLength="382" x="29" y="353.5117">validateDefault(_key: string, value: unknown) : unknown</text><polygon fill="#FFFF44" points="20,361.209,24,365.209,20,369.209,16,365.209" style="stroke:#B38D22;stroke-width:1.0;"/><text fill="#000000" font-family="sans-serif" font-size="14" lengthAdjust="spacing" textLength="444" x="29" y="370">validateBoolean(value: boolean, defaultValue: boolean) : boolean</text><polygon fill="#FFFF44" points="20,377.6973,24,381.6973,20,385.6973,16,381.6973" style="stroke:#B38D22;stroke-width:1.0;"/><text fill="#000000" font-family="sans-serif" font-size="14" lengthAdjust="spacing" textLength="460" x="29" y="386.4883">validateDate(value: string | Date, defaultValue: string) : string | Date</text><polygon fill="#FFFF44" points="20,394.1855,24,398.1855,20,402.1855,16,398.1855" style="stroke:#B38D22;stroke-width:1.0;"/><text fill="#000000" font-family="sans-serif" font-size="14" lengthAdjust="spacing" textLength="589" x="29" y="402.9766">validateInRange(value: unknown, defaultValue: unknown, args: unknown[]) : unknown</text><polygon fill="#FFFF44" points="20,410.6738,24,414.6738,20,418.6738,16,414.6738" style="stroke:#B38D22;stroke-width:1.0;"/><text fill="#000000" font-family="sans-serif" font-size="14" lengthAdjust="spacing" textLength="438" x="29" y="419.4648">validateNumber(value: number, defaultValue: number) : number</text><polygon fill="#FFFF44" points="20,427.1621,24,431.1621,20,435.1621,16,431.1621" style="stroke:#B38D22;stroke-width:1.0;"/><text fill="#000000" font-family="sans-serif" font-size="14" lengthAdjust="spacing" textLength="382" x="29" y="435.9531">validateString(value: string, defaultValue: string) : string</text><polygon fill="#FFFF44" points="20,443.6504,24,447.6504,20,451.6504,16,447.6504" style="stroke:#B38D22;stroke-width:1.0;"/><text fill="#000000" font-family="sans-serif" font-size="14" lengthAdjust="spacing" textLength="375" x="29" y="452.4414">validateTime(value: string, defaultValue: string) : string</text></g><!--class AbstractConfiguration--><g id="elem_AbstractConfiguration"><rect codeLine="18" fill="#FFFFFF" height="196.3945" id="AbstractConfiguration" rx="2.5" ry="2.5" style="stroke:#272B30;stroke-width:0.5;" width="615" x="9" y="7"/><ellipse cx="235.75" cy="23" fill="#A9DCDF" rx="11" ry="11" style="stroke:#181818;stroke-width:1.0;"/><path d="M235.6133,18.3481 L234.4595,23.4199 L236.7754,23.4199 Z M234.1191,16.1069 L237.1157,16.1069 L240.4609,28.5 L238.0122,28.5 L237.2485,25.437 L233.9697,25.437 L233.2227,28.5 L230.7739,28.5 Z " fill="#000000"/><text fill="#000000" font-family="sans-serif" font-size="14" font-style="italic" lengthAdjust="spacing" textLength="153" x="256.25" y="28.291">AbstractConfiguration</text><line style="stroke:#272B30;stroke-width:0.5;" x1="10" x2="623" y1="39" y2="39"/><ellipse cx="20" cy="52.7441" fill="none" rx="3" ry="3" style="stroke:#038048;stroke-width:1.0;"/><text fill="#000000" font-family="sans-serif" font-size="14" lengthAdjust="spacing" textLength="153" x="29" y="56.5352">ExtendedClass : string</text><line style="stroke:#272B30;stroke-width:0.5;" x1="10" x2="623" y1="63.4883" y2="63.4883"/><ellipse cx="20" cy="77.2324" fill="#84BE84" rx="3" ry="3" style="stroke:#038048;stroke-width:1.0;"/><text fill="#000000" font-family="sans-serif" font-size="14" lengthAdjust="spacing" textLength="409" x="29" y="81.0234">validateCanChange(_isBuilt: boolean, _key: string) : boolean</text><ellipse cx="20" cy="93.7207" fill="#84BE84" rx="3" ry="3" style="stroke:#038048;stroke-width:1.0;"/><text fill="#000000" font-family="sans-serif" font-size="14" lengthAdjust="spacing" textLength="382" x="29" y="97.5117">validateDefault(_key: string, value: unknown) : unknown</text><polygon fill="#FFFF44" points="20,105.209,24,109.209,20,113.209,16,109.209" style="stroke:#B38D22;stroke-width:1.0;"/><text fill="#000000" font-family="sans-serif" font-size="14" lengthAdjust="spacing" textLength="444" x="29" y="114">validateBoolean(value: boolean, defaultValue: boolean) : boolean</text><polygon fill="#FFFF44" points="20,121.6973,24,125.6973,20,129.6973,16,125.6973" style="stroke:#B38D22;stroke-width:1.0;"/><text fill="#000000" font-family="sans-serif" font-size="14" lengthAdjust="spacing" textLength="460" x="29" y="130.4883">validateDate(value: string | Date, defaultValue: string) : string | Date</text><polygon fill="#FFFF44" points="20,138.1855,24,142.1855,20,146.1855,16,142.1855" style="stroke:#B38D22;stroke-width:1.0;"/><text fill="#000000" font-family="sans-serif" font-size="14" lengthAdjust="spacing" textLength="589" x="29" y="146.9766">validateInRange(value: unknown, defaultValue: unknown, args: unknown[]) : unknown</text><polygon fill="#FFFF44" points="20,154.6738,24,158.6738,20,162.6738,16,158.6738" style="stroke:#B38D22;stroke-width:1.0;"/><text fill="#000000" font-family="sans-serif" font-size="14" lengthAdjust="spacing" textLength="438" x="29" y="163.4648">validateNumber(value: number, defaultValue: number) : number</text><polygon fill="#FFFF44" points="20,171.1621,24,175.1621,20,179.1621,16,175.1621" style="stroke:#B38D22;stroke-width:1.0;"/><text fill="#000000" font-family="sans-serif" font-size="14" lengthAdjust="spacing" textLength="382" x="29" y="179.9531">validateString(value: string, defaultValue: string) : string</text><polygon fill="#FFFF44" points="20,187.6504,24,191.6504,20,195.6504,16,191.6504" style="stroke:#B38D22;stroke-width:1.0;"/><text fill="#000000" font-family="sans-serif" font-size="14" lengthAdjust="spacing" textLength="375" x="29" y="196.4414">validateTime(value: string, defaultValue: string) : string</text></g><!--reverse link AbstractConfiguration to TabsContentItemConfig--><g id="link_AbstractConfiguration_TabsContentItemConfig"><path codeLine="29" d="M316.5,223.14 C316.5,236.46 316.5,249.92 316.5,262.94 " fill="none" id="AbstractConfiguration-backto-TabsContentItemConfig" style="stroke:#272B30;stroke-width:1.0;"/><polygon fill="none" points="309.5,223.11,316.5,203.11,323.5,223.11,309.5,223.11" style="stroke:#272B30;stroke-width:1.0;"/></g><!--SRC=[xPJ1IiD048RlUOgXlLHiGQeW52zjwg4N3rgyY9H9Tf8kINRBxiPQhEzkaatIRgIAuB61mCxCFz_EX9_eX8iDAip0Jr7hgL9owyjKAkYFRyV1zPMdNSLCAaRgPmc6IQnaBbWjYwBeIFEj71AxOUYjEIEWR6Dsa95PIwQFKn6djCY4vGNGMsAWVIaC2RCmb1N7YCSz-F2WU2xltui28rPD0nFGHd4HszeRffoX8H-5lqOHqs35zIpdgPb086LAA8QmIcZNj5r0Mt09SuemJytWM3o4efhJ17AH2BaLPNDzh9hxJVFC4WUrlBsPMUYpa-wEq5BcnTiWx02mXpBP1HrMSMGkRI4Ugm_Yhj15jMbKiMx3bzUJgpxaMK2geOegwa9jjaJOaqjugcPs5_rjGvUmv1dziV_JApnc58O6QjDDwzYwBLTek1HdqvrDzv-cE-Mok_reTEg_zmK0]--></g></svg>