<?xml version="1.0" encoding="us-ascii" standalone="no"?><svg xmlns="http://www.w3.org/2000/svg" xmlns:xlink="http://www.w3.org/1999/xlink" contentStyleType="text/css" height="1654px" preserveAspectRatio="none" style="width:1755px;height:1654px;background:#CED4DA;" version="1.1" viewBox="0 0 1755 1654" width="1755px" zoomAndPan="magnify"><defs/><g><rect fill="#CED4DA" height="1654" style="stroke:none;stroke-width:1.0;" width="1755" x="0" y="0"/><!--class Tabs--><g id="elem_Tabs"><rect codeLine="7" fill="#FFFFFF" height="1136.2266" id="Tabs" rx="2.5" ry="2.5" style="stroke:#272B30;stroke-width:0.5;" width="885" x="333.5" y="511"/><ellipse cx="755.25" cy="527" fill="#ADD1B2" rx="11" ry="11" style="stroke:#181818;stroke-width:1.0;"/><path d="M757.7231,533.1431 Q757.1421,533.4419 756.5029,533.5913 Q755.8638,533.7407 755.1582,533.7407 Q752.6514,533.7407 751.3315,532.0889 Q750.0117,530.437 750.0117,527.3159 Q750.0117,524.1865 751.3315,522.5347 Q752.6514,520.8828 755.1582,520.8828 Q755.8638,520.8828 756.5112,521.0322 Q757.1587,521.1816 757.7231,521.4805 L757.7231,524.2031 Q757.0923,523.6221 756.4988,523.3523 Q755.9053,523.0825 755.2744,523.0825 Q753.9297,523.0825 753.2449,524.1492 Q752.5601,525.2158 752.5601,527.3159 Q752.5601,529.4077 753.2449,530.4744 Q753.9297,531.541 755.2744,531.541 Q755.9053,531.541 756.4988,531.2712 Q757.0923,531.0015 757.7231,530.4204 Z " fill="#000000"/><text fill="#000000" font-family="sans-serif" font-size="14" lengthAdjust="spacing" textLength="33" x="775.75" y="532.291">Tabs</text><line style="stroke:#272B30;stroke-width:0.5;" x1="334.5" x2="1217.5" y1="543" y2="543"/><polygon fill="none" points="344.5,551.7441,348.5,555.7441,344.5,559.7441,340.5,555.7441" style="stroke:#B38D22;stroke-width:1.0;"/><text fill="#000000" font-family="sans-serif" font-size="14" lengthAdjust="spacing" textLength="176" x="353.5" y="560.5352">isProviderBased : boolean</text><rect fill="none" height="6" style="stroke:#C82930;stroke-width:1.0;" width="6" x="341.5" y="570.2324"/><text fill="#000000" font-family="sans-serif" font-size="14" lengthAdjust="spacing" textLength="316" x="353.5" y="577.0234">_activeTabContentElement : ITabsContentItem</text><rect fill="none" height="6" style="stroke:#C82930;stroke-width:1.0;" width="6" x="341.5" y="586.7207"/><text fill="#000000" font-family="sans-serif" font-size="14" lengthAdjust="spacing" textLength="304" x="353.5" y="593.5117">_activeTabHeaderElement : ITabsHeaderItem</text><rect fill="none" height="6" style="stroke:#C82930;stroke-width:1.0;" width="6" x="341.5" y="603.209"/><text fill="#000000" font-family="sans-serif" font-size="14" lengthAdjust="spacing" textLength="225" x="353.5" y="610">_currentOrientation : Orientation</text><rect fill="none" height="6" style="stroke:#C82930;stroke-width:1.0;" width="6" x="341.5" y="619.6973"/><text fill="#000000" font-family="sans-serif" font-size="14" lengthAdjust="spacing" textLength="233" x="353.5" y="626.4883">_currentVerticalPositon : Direction</text><rect fill="none" height="6" style="stroke:#C82930;stroke-width:1.0;" width="6" x="341.5" y="636.1855"/><text fill="#000000" font-family="sans-serif" font-size="14" lengthAdjust="spacing" textLength="256" x="353.5" y="642.9766">_dragObserver : IntersectionObserver</text><rect fill="none" height="6" style="stroke:#C82930;stroke-width:1.0;" width="6" x="341.5" y="652.6738"/><text fill="#000000" font-family="sans-serif" font-size="14" lengthAdjust="spacing" textLength="238" x="353.5" y="659.4648">_eventOnHeaderKeypress : Generic</text><rect fill="none" height="6" style="stroke:#C82930;stroke-width:1.0;" width="6" x="341.5" y="669.1621"/><text fill="#000000" font-family="sans-serif" font-size="14" lengthAdjust="spacing" textLength="172" x="353.5" y="675.9531">_eventOnResize : Generic</text><rect fill="none" height="6" style="stroke:#C82930;stroke-width:1.0;" width="6" x="341.5" y="685.6504"/><text fill="#000000" font-family="sans-serif" font-size="14" lengthAdjust="spacing" textLength="192" x="353.5" y="692.4414">_hasDragGestures : boolean</text><rect fill="none" height="6" style="stroke:#C82930;stroke-width:1.0;" width="6" x="341.5" y="702.1387"/><text fill="#000000" font-family="sans-serif" font-size="14" lengthAdjust="spacing" textLength="196" x="353.5" y="708.9297">_hasSingleContent : boolean</text><rect fill="none" height="6" style="stroke:#C82930;stroke-width:1.0;" width="6" x="341.5" y="718.627"/><text fill="#000000" font-family="sans-serif" font-size="14" lengthAdjust="spacing" textLength="205" x="353.5" y="725.418">_headerItemsLength : number</text><rect fill="none" height="6" style="stroke:#C82930;stroke-width:1.0;" width="6" x="341.5" y="735.1152"/><text fill="#000000" font-family="sans-serif" font-size="14" lengthAdjust="spacing" textLength="350" x="353.5" y="741.9063">_platformEventTabsOnChange : OSOnChangeEvent</text><rect fill="none" height="6" style="stroke:#C82930;stroke-width:1.0;" width="6" x="341.5" y="751.6035"/><text fill="#000000" font-family="sans-serif" font-size="14" lengthAdjust="spacing" textLength="364" x="353.5" y="758.3945">_requestAnimationFrameOnIndicatorResize : number</text><rect fill="none" height="6" style="stroke:#C82930;stroke-width:1.0;" width="6" x="341.5" y="768.0918"/><text fill="#000000" font-family="sans-serif" font-size="14" lengthAdjust="spacing" textLength="251" x="353.5" y="774.8828">_tabsContentElement : HTMLElement</text><rect fill="none" height="6" style="stroke:#C82930;stroke-width:1.0;" width="6" x="341.5" y="784.5801"/><text fill="#000000" font-family="sans-serif" font-size="14" lengthAdjust="spacing" textLength="245" x="353.5" y="791.3711">_tabsHeaderElement : HTMLElement</text><rect fill="none" height="6" style="stroke:#C82930;stroke-width:1.0;" width="6" x="341.5" y="801.0684"/><text fill="#000000" font-family="sans-serif" font-size="14" lengthAdjust="spacing" textLength="257" x="353.5" y="807.8594">_tabsIndicatorElement : HTMLElement</text><line style="stroke:#272B30;stroke-width:0.5;" x1="334.5" x2="1217.5" y1="814.8125" y2="814.8125"/><ellipse cx="344.5" cy="828.5566" fill="#84BE84" rx="3" ry="3" style="stroke:#038048;stroke-width:1.0;"/><text fill="#000000" font-family="sans-serif" font-size="14" lengthAdjust="spacing" textLength="727" x="353.5" y="832.3477">beNotifiedByChild(childItem: TabsHeaderItem | TabsContentItem, notifiedTo: ChildNotifyActionType) : void</text><ellipse cx="344.5" cy="845.0449" fill="#84BE84" rx="3" ry="3" style="stroke:#038048;stroke-width:1.0;"/><text fill="#000000" font-family="sans-serif" font-size="14" lengthAdjust="spacing" textLength="86" x="353.5" y="848.8359">build() : void</text><ellipse cx="344.5" cy="861.5332" fill="#84BE84" rx="3" ry="3" style="stroke:#038048;stroke-width:1.0;"/><text fill="#000000" font-family="sans-serif" font-size="14" lengthAdjust="spacing" textLength="482" x="353.5" y="865.3242">changeProperty(propertyName: string, propertyValue: unknown) : void</text><ellipse cx="344.5" cy="878.0215" fill="#84BE84" rx="3" ry="3" style="stroke:#038048;stroke-width:1.0;"/><text fill="#000000" font-family="sans-serif" font-size="14" lengthAdjust="spacing" textLength="859" x="353.5" y="881.8125">changeTab(tabIndex: number, tabsHeaderItem: ITabsHeaderItem, triggerEvent: boolean, triggeredByObserver: boolean) : void</text><ellipse cx="344.5" cy="894.5098" fill="#84BE84" rx="3" ry="3" style="stroke:#038048;stroke-width:1.0;"/><text fill="#000000" font-family="sans-serif" font-size="14" lengthAdjust="spacing" textLength="104" x="353.5" y="898.3008">dispose() : void</text><ellipse cx="344.5" cy="910.998" fill="#84BE84" rx="3" ry="3" style="stroke:#038048;stroke-width:1.0;"/><text fill="#000000" font-family="sans-serif" font-size="14" lengthAdjust="spacing" textLength="266" x="353.5" y="914.7891">equalsToID(patternId: string) : boolean</text><ellipse cx="344.5" cy="927.4863" fill="#84BE84" rx="3" ry="3" style="stroke:#038048;stroke-width:1.0;"/><text fill="#000000" font-family="sans-serif" font-size="14" lengthAdjust="spacing" textLength="465" x="353.5" y="931.2773">getChildItems(type: string) : (ITabsHeaderItem | ITabsContentItem)[]</text><ellipse cx="344.5" cy="943.9746" fill="#84BE84" rx="3" ry="3" style="stroke:#038048;stroke-width:1.0;"/><text fill="#000000" font-family="sans-serif" font-size="14" lengthAdjust="spacing" textLength="428" x="353.5" y="947.7656">registerCallback(eventName: string, callback: OSGeneric) : void</text><ellipse cx="344.5" cy="960.4629" fill="#84BE84" rx="3" ry="3" style="stroke:#038048;stroke-width:1.0;"/><text fill="#000000" font-family="sans-serif" font-size="14" lengthAdjust="spacing" textLength="371" x="353.5" y="964.2539">toggleDragGestures(addDragGestures: boolean) : void</text><polygon fill="#FFFF44" points="344.5,971.9512,348.5,975.9512,344.5,979.9512,340.5,975.9512" style="stroke:#B38D22;stroke-width:1.0;"/><text fill="#000000" font-family="sans-serif" font-size="14" lengthAdjust="spacing" textLength="123" x="353.5" y="980.7422">finishBuild() : void</text><polygon fill="#FFFF44" points="344.5,988.4395,348.5,992.4395,344.5,996.4395,340.5,992.4395" style="stroke:#B38D22;stroke-width:1.0;"/><text fill="#000000" font-family="sans-serif" font-size="14" lengthAdjust="spacing" textLength="425" x="353.5" y="997.2305">getChild(childId: string) : ITabsHeaderItem | ITabsContentItem</text><polygon fill="#FFFF44" points="344.5,1004.9277,348.5,1008.9277,344.5,1012.9277,340.5,1008.9277" style="stroke:#B38D22;stroke-width:1.0;"/><text fill="#000000" font-family="sans-serif" font-size="14" lengthAdjust="spacing" textLength="608" x="353.5" y="1013.7188">getChildByIndex(index: number, childType: string) : ITabsHeaderItem | ITabsContentItem</text><polygon fill="#FFFF44" points="344.5,1021.416,348.5,1025.416,344.5,1029.416,340.5,1025.416" style="stroke:#B38D22;stroke-width:1.0;"/><text fill="#000000" font-family="sans-serif" font-size="14" lengthAdjust="spacing" textLength="267" x="353.5" y="1030.207">getChildIndex(childId: string) : number</text><polygon fill="#FFFF44" points="344.5,1037.9043,348.5,1041.9043,344.5,1045.9043,340.5,1041.9043" style="stroke:#B38D22;stroke-width:1.0;"/><text fill="#000000" font-family="sans-serif" font-size="14" lengthAdjust="spacing" textLength="178" x="353.5" y="1046.6953">setA11YProperties() : void</text><polygon fill="#FFFF44" points="344.5,1054.3926,348.5,1058.3926,344.5,1062.3926,340.5,1058.3926" style="stroke:#B38D22;stroke-width:1.0;"/><text fill="#000000" font-family="sans-serif" font-size="14" lengthAdjust="spacing" textLength="136" x="353.5" y="1063.1836">setCallbacks() : void</text><polygon fill="#FFFF44" points="344.5,1070.8809,348.5,1074.8809,344.5,1078.8809,340.5,1074.8809" style="stroke:#B38D22;stroke-width:1.0;"/><text fill="#000000" font-family="sans-serif" font-size="14" lengthAdjust="spacing" textLength="429" x="353.5" y="1079.6719">setChild(childItem: ITabsHeaderItem | ITabsContentItem) : void</text><polygon fill="#FFFF44" points="344.5,1087.3691,348.5,1091.3691,344.5,1095.3691,340.5,1091.3691" style="stroke:#B38D22;stroke-width:1.0;"/><text fill="#000000" font-family="sans-serif" font-size="14" lengthAdjust="spacing" textLength="165" x="353.5" y="1096.1602">setHtmlElements() : void</text><polygon fill="#FFFF44" points="344.5,1103.8574,348.5,1107.8574,344.5,1111.8574,340.5,1107.8574" style="stroke:#B38D22;stroke-width:1.0;"/><text fill="#000000" font-family="sans-serif" font-size="14" lengthAdjust="spacing" textLength="570" x="353.5" y="1112.6484">triggerPlatformEventCallback(platFormCallback: OSGeneric, args: unknown[]) : void</text><polygon fill="#FFFF44" points="344.5,1120.3457,348.5,1124.3457,344.5,1128.3457,340.5,1124.3457" style="stroke:#B38D22;stroke-width:1.0;"/><text fill="#000000" font-family="sans-serif" font-size="14" lengthAdjust="spacing" textLength="318" x="353.5" y="1129.1367">triggerPlatformInitializedEventCallback() : void</text><polygon fill="#FFFF44" points="344.5,1136.834,348.5,1140.834,344.5,1144.834,340.5,1140.834" style="stroke:#B38D22;stroke-width:1.0;"/><text fill="#000000" font-family="sans-serif" font-size="14" lengthAdjust="spacing" textLength="154" x="353.5" y="1145.625">unsetCallbacks() : void</text><polygon fill="#FFFF44" points="344.5,1153.3223,348.5,1157.3223,344.5,1161.3223,340.5,1157.3223" style="stroke:#B38D22;stroke-width:1.0;"/><text fill="#000000" font-family="sans-serif" font-size="14" lengthAdjust="spacing" textLength="219" x="353.5" y="1162.1133">unsetChild(childId: string) : void</text><polygon fill="#FFFF44" points="344.5,1169.8105,348.5,1173.8105,344.5,1177.8105,340.5,1173.8105" style="stroke:#B38D22;stroke-width:1.0;"/><text fill="#000000" font-family="sans-serif" font-size="14" lengthAdjust="spacing" textLength="198" x="353.5" y="1178.6016">unsetGlobalCallbacks() : void</text><polygon fill="#FFFF44" points="344.5,1186.2988,348.5,1190.2988,344.5,1194.2988,340.5,1190.2988" style="stroke:#B38D22;stroke-width:1.0;"/><text fill="#000000" font-family="sans-serif" font-size="14" lengthAdjust="spacing" textLength="183" x="353.5" y="1195.0898">unsetHtmlElements() : void</text><rect fill="#F24D5C" height="6" style="stroke:#C82930;stroke-width:1.0;" width="6" x="341.5" y="1204.7871"/><text fill="#000000" font-family="sans-serif" font-size="14" lengthAdjust="spacing" textLength="445" x="353.5" y="1211.5781">_addContentItem(tabsContentChildItem: TabsContentItem) : void</text><rect fill="#F24D5C" height="6" style="stroke:#C82930;stroke-width:1.0;" width="6" x="341.5" y="1221.2754"/><text fill="#000000" font-family="sans-serif" font-size="14" lengthAdjust="spacing" textLength="128" x="353.5" y="1228.0664">_addEvents() : void</text><rect fill="#F24D5C" height="6" style="stroke:#C82930;stroke-width:1.0;" width="6" x="341.5" y="1237.7637"/><text fill="#000000" font-family="sans-serif" font-size="14" lengthAdjust="spacing" textLength="427" x="353.5" y="1244.5547">_addHeaderItem(tabsHeaderChildItem: TabsHeaderItem) : void</text><rect fill="#F24D5C" height="6" style="stroke:#C82930;stroke-width:1.0;" width="6" x="341.5" y="1254.252"/><text fill="#000000" font-family="sans-serif" font-size="14" lengthAdjust="spacing" textLength="602" x="353.5" y="1261.043">_changeActiveContentItem(newTabIndex: number, triggeredByObserver: boolean) : void</text><rect fill="#F24D5C" height="6" style="stroke:#C82930;stroke-width:1.0;" width="6" x="341.5" y="1270.7402"/><text fill="#000000" font-family="sans-serif" font-size="14" lengthAdjust="spacing" textLength="459" x="353.5" y="1277.5313">_changeActiveHeaderItem(newHeaderItem: ITabsHeaderItem) : void</text><rect fill="#F24D5C" height="6" style="stroke:#C82930;stroke-width:1.0;" width="6" x="341.5" y="1287.2285"/><text fill="#000000" font-family="sans-serif" font-size="14" lengthAdjust="spacing" textLength="312" x="353.5" y="1294.0195">_getTargetIndex(tabIndex: number) : number</text><rect fill="#F24D5C" height="6" style="stroke:#C82930;stroke-width:1.0;" width="6" x="341.5" y="1303.7168"/><text fill="#000000" font-family="sans-serif" font-size="14" lengthAdjust="spacing" textLength="321" x="353.5" y="1310.5078">_handleKeypressEvent(e: KeyboardEvent) : void</text><rect fill="#F24D5C" height="6" style="stroke:#C82930;stroke-width:1.0;" width="6" x="341.5" y="1320.2051"/><text fill="#000000" font-family="sans-serif" font-size="14" lengthAdjust="spacing" textLength="206" x="353.5" y="1326.9961">_handleOnResizeEvent() : void</text><rect fill="#F24D5C" height="6" style="stroke:#C82930;stroke-width:1.0;" width="6" x="341.5" y="1336.6934"/><text fill="#000000" font-family="sans-serif" font-size="14" lengthAdjust="spacing" textLength="192" x="353.5" y="1343.4844">_handleTabIndicator() : void</text><rect fill="#F24D5C" height="6" style="stroke:#C82930;stroke-width:1.0;" width="6" x="341.5" y="1353.1816"/><text fill="#000000" font-family="sans-serif" font-size="14" lengthAdjust="spacing" textLength="281" x="353.5" y="1359.9727">_prepareHeaderAndContentItems() : void</text><rect fill="#F24D5C" height="6" style="stroke:#C82930;stroke-width:1.0;" width="6" x="341.5" y="1369.6699"/><text fill="#000000" font-family="sans-serif" font-size="14" lengthAdjust="spacing" textLength="343" x="353.5" y="1376.4609">_removeContentItem(childContentId: string) : void</text><rect fill="#F24D5C" height="6" style="stroke:#C82930;stroke-width:1.0;" width="6" x="341.5" y="1386.1582"/><text fill="#000000" font-family="sans-serif" font-size="14" lengthAdjust="spacing" textLength="153" x="353.5" y="1392.9492">_removeEvents() : void</text><rect fill="#F24D5C" height="6" style="stroke:#C82930;stroke-width:1.0;" width="6" x="341.5" y="1402.6465"/><text fill="#000000" font-family="sans-serif" font-size="14" lengthAdjust="spacing" textLength="331" x="353.5" y="1409.4375">_removeHeaderItem(childHeaderId: string) : void</text><rect fill="#F24D5C" height="6" style="stroke:#C82930;stroke-width:1.0;" width="6" x="341.5" y="1419.1348"/><text fill="#000000" font-family="sans-serif" font-size="14" lengthAdjust="spacing" textLength="456" x="353.5" y="1425.9258">_scrollToTargetContent(newContentItem: ITabsContentItem) : void</text><rect fill="#F24D5C" height="6" style="stroke:#C82930;stroke-width:1.0;" width="6" x="341.5" y="1435.623"/><text fill="#000000" font-family="sans-serif" font-size="14" lengthAdjust="spacing" textLength="377" x="353.5" y="1442.4141">_setContentAutoHeight(hasAutoHeight: boolean) : void</text><rect fill="#F24D5C" height="6" style="stroke:#C82930;stroke-width:1.0;" width="6" x="341.5" y="1452.1113"/><text fill="#000000" font-family="sans-serif" font-size="14" lengthAdjust="spacing" textLength="173" x="353.5" y="1458.9023">_setDragObserver() : void</text><rect fill="#F24D5C" height="6" style="stroke:#C82930;stroke-width:1.0;" width="6" x="341.5" y="1468.5996"/><text fill="#000000" font-family="sans-serif" font-size="14" lengthAdjust="spacing" textLength="421" x="353.5" y="1475.3906">_setHeaderItemsCustomProperty(itemsLength: number) : void</text><rect fill="#F24D5C" height="6" style="stroke:#C82930;stroke-width:1.0;" width="6" x="341.5" y="1485.0879"/><text fill="#000000" font-family="sans-serif" font-size="14" lengthAdjust="spacing" textLength="215" x="353.5" y="1491.8789">_setHeight(height: string) : void</text><rect fill="#F24D5C" height="6" style="stroke:#C82930;stroke-width:1.0;" width="6" x="341.5" y="1501.5762"/><text fill="#000000" font-family="sans-serif" font-size="14" lengthAdjust="spacing" textLength="170" x="353.5" y="1508.3672">_setInitialOptions() : void</text><rect fill="#F24D5C" height="6" style="stroke:#C82930;stroke-width:1.0;" width="6" x="341.5" y="1518.0645"/><text fill="#000000" font-family="sans-serif" font-size="14" lengthAdjust="spacing" textLength="274" x="353.5" y="1524.8555">_setIsJustified(isJustified: boolean) : void</text><rect fill="#F24D5C" height="6" style="stroke:#C82930;stroke-width:1.0;" width="6" x="341.5" y="1534.5527"/><text fill="#000000" font-family="sans-serif" font-size="14" lengthAdjust="spacing" textLength="318" x="353.5" y="1541.3438">_setOrientation(orientation: Orientation) : void</text><rect fill="#F24D5C" height="6" style="stroke:#C82930;stroke-width:1.0;" width="6" x="341.5" y="1551.041"/><text fill="#000000" font-family="sans-serif" font-size="14" lengthAdjust="spacing" textLength="259" x="353.5" y="1557.832">_setPosition(position: Direction) : void</text><rect fill="#F24D5C" height="6" style="stroke:#C82930;stroke-width:1.0;" width="6" x="341.5" y="1567.5293"/><text fill="#000000" font-family="sans-serif" font-size="14" lengthAdjust="spacing" textLength="569" x="353.5" y="1574.3203">_setTabHeaderItemDisabledStatus(childHeaderId: string, isDisabled: boolean) : void</text><rect fill="#F24D5C" height="6" style="stroke:#C82930;stroke-width:1.0;" width="6" x="341.5" y="1584.0176"/><text fill="#000000" font-family="sans-serif" font-size="14" lengthAdjust="spacing" textLength="410" x="353.5" y="1590.8086">_tabHeaderItemHasBeenClicked(childHeaderId: string) : void</text><rect fill="#F24D5C" height="6" style="stroke:#C82930;stroke-width:1.0;" width="6" x="341.5" y="1600.5059"/><text fill="#000000" font-family="sans-serif" font-size="14" lengthAdjust="spacing" textLength="342" x="353.5" y="1607.2969">_triggerOnChangeEvent(activeTab: number) : void</text><rect fill="#F24D5C" height="6" style="stroke:#C82930;stroke-width:1.0;" width="6" x="341.5" y="1616.9941"/><text fill="#000000" font-family="sans-serif" font-size="14" lengthAdjust="spacing" textLength="191" x="353.5" y="1623.7852">_unsetDragObserver() : void</text><rect fill="#F24D5C" height="6" style="stroke:#C82930;stroke-width:1.0;" width="6" x="341.5" y="1633.4824"/><text fill="#000000" font-family="sans-serif" font-size="14" lengthAdjust="spacing" textLength="391" x="353.5" y="1640.2734">_updateItemsConnection(updateDataTab: boolean) : void</text></g><!--class AbstractParent<TabsConfig, ITabsContentItem | ITabsHeaderItem>--><g id="elem_AbstractParent&lt;TabsConfig, ITabsContentItem | ITabsHeaderItem&gt;"><rect codeLine="75" fill="#FFFFFF" height="443.7188" id="AbstractParent&lt;TabsConfig, ITabsContentItem | ITabsHeaderItem&gt;" rx="2.5" ry="2.5" style="stroke:#272B30;stroke-width:0.5;" width="648" x="9" y="7"/><ellipse cx="98.25" cy="23" fill="#A9DCDF" rx="11" ry="11" style="stroke:#181818;stroke-width:1.0;"/><path d="M98.1133,18.3481 L96.9595,23.4199 L99.2754,23.4199 Z M96.6191,16.1069 L99.6157,16.1069 L102.9609,28.5 L100.5122,28.5 L99.7485,25.437 L96.4697,25.437 L95.7227,28.5 L93.2739,28.5 Z " fill="#000000"/><text fill="#000000" font-family="sans-serif" font-size="14" font-style="italic" lengthAdjust="spacing" textLength="461" x="118.75" y="28.291">AbstractParent&lt;TabsConfig, ITabsContentItem | ITabsHeaderItem&gt;</text><line style="stroke:#272B30;stroke-width:0.5;" x1="10" x2="656" y1="39" y2="39"/><polygon fill="none" points="20,47.7441,24,51.7441,20,55.7441,16,51.7441" style="stroke:#B38D22;stroke-width:1.0;"/><text fill="#000000" font-family="sans-serif" font-size="14" lengthAdjust="spacing" textLength="176" x="29" y="56.5352">isProviderBased : boolean</text><rect fill="none" height="6" style="stroke:#C82930;stroke-width:1.0;" width="6" x="17" y="66.2324"/><text fill="#000000" font-family="sans-serif" font-size="14" lengthAdjust="spacing" textLength="259" x="29" y="73.0234">_childIdsByType : Map&lt;string, string&gt;</text><rect fill="none" height="6" style="stroke:#C82930;stroke-width:1.0;" width="6" x="17" y="82.7207"/><text fill="#000000" font-family="sans-serif" font-size="14" lengthAdjust="spacing" textLength="181" x="29" y="89.5117">_childItemsByType : Object</text><line style="stroke:#272B30;stroke-width:0.5;" x1="10" x2="656" y1="96.4648" y2="96.4648"/><ellipse cx="20" cy="110.209" fill="#84BE84" rx="3" ry="3" style="stroke:#038048;stroke-width:1.0;"/><text fill="#000000" font-family="sans-serif" font-size="14" font-style="italic" lengthAdjust="spacing" textLength="622" x="29" y="114">beNotifiedByChild(childItem: ITabsContentItem | ITabsHeaderItem, notifiedTo: string) : void</text><ellipse cx="20" cy="126.6973" fill="#84BE84" rx="3" ry="3" style="stroke:#038048;stroke-width:1.0;"/><text fill="#000000" font-family="sans-serif" font-size="14" lengthAdjust="spacing" textLength="86" x="29" y="130.4883">build() : void</text><ellipse cx="20" cy="143.1855" fill="#84BE84" rx="3" ry="3" style="stroke:#038048;stroke-width:1.0;"/><text fill="#000000" font-family="sans-serif" font-size="14" lengthAdjust="spacing" textLength="482" x="29" y="146.9766">changeProperty(propertyName: string, propertyValue: unknown) : void</text><ellipse cx="20" cy="159.6738" fill="#84BE84" rx="3" ry="3" style="stroke:#038048;stroke-width:1.0;"/><text fill="#000000" font-family="sans-serif" font-size="14" lengthAdjust="spacing" textLength="104" x="29" y="163.4648">dispose() : void</text><ellipse cx="20" cy="176.1621" fill="#84BE84" rx="3" ry="3" style="stroke:#038048;stroke-width:1.0;"/><text fill="#000000" font-family="sans-serif" font-size="14" lengthAdjust="spacing" textLength="266" x="29" y="179.9531">equalsToID(patternId: string) : boolean</text><ellipse cx="20" cy="192.6504" fill="#84BE84" rx="3" ry="3" style="stroke:#038048;stroke-width:1.0;"/><text fill="#000000" font-family="sans-serif" font-size="14" lengthAdjust="spacing" textLength="455" x="29" y="196.4414">getChildItems(type: string) : ITabsContentItem | ITabsHeaderItem[]</text><ellipse cx="20" cy="209.1387" fill="#84BE84" rx="3" ry="3" style="stroke:#038048;stroke-width:1.0;"/><text fill="#000000" font-family="sans-serif" font-size="14" lengthAdjust="spacing" textLength="428" x="29" y="212.9297">registerCallback(eventName: string, callback: OSGeneric) : void</text><polygon fill="#FFFF44" points="20,220.627,24,224.627,20,228.627,16,224.627" style="stroke:#B38D22;stroke-width:1.0;"/><text fill="#000000" font-family="sans-serif" font-size="14" lengthAdjust="spacing" textLength="123" x="29" y="229.418">finishBuild() : void</text><polygon fill="#FFFF44" points="20,237.1152,24,241.1152,20,245.1152,16,241.1152" style="stroke:#B38D22;stroke-width:1.0;"/><text fill="#000000" font-family="sans-serif" font-size="14" lengthAdjust="spacing" textLength="425" x="29" y="245.9063">getChild(childId: string) : ITabsContentItem | ITabsHeaderItem</text><polygon fill="#FFFF44" points="20,253.6035,24,257.6035,20,261.6035,16,257.6035" style="stroke:#B38D22;stroke-width:1.0;"/><text fill="#000000" font-family="sans-serif" font-size="14" lengthAdjust="spacing" textLength="608" x="29" y="262.3945">getChildByIndex(index: number, childType: string) : ITabsContentItem | ITabsHeaderItem</text><polygon fill="#FFFF44" points="20,270.0918,24,274.0918,20,278.0918,16,274.0918" style="stroke:#B38D22;stroke-width:1.0;"/><text fill="#000000" font-family="sans-serif" font-size="14" lengthAdjust="spacing" textLength="267" x="29" y="278.8828">getChildIndex(childId: string) : number</text><polygon fill="#FFFF44" points="20,286.5801,24,290.5801,20,294.5801,16,290.5801" style="stroke:#B38D22;stroke-width:1.0;"/><text fill="#000000" font-family="sans-serif" font-size="14" font-style="italic" lengthAdjust="spacing" textLength="178" x="29" y="295.3711">setA11YProperties() : void</text><polygon fill="#FFFF44" points="20,303.0684,24,307.0684,20,311.0684,16,307.0684" style="stroke:#B38D22;stroke-width:1.0;"/><text fill="#000000" font-family="sans-serif" font-size="14" font-style="italic" lengthAdjust="spacing" textLength="136" x="29" y="311.8594">setCallbacks() : void</text><polygon fill="#FFFF44" points="20,319.5566,24,323.5566,20,327.5566,16,323.5566" style="stroke:#B38D22;stroke-width:1.0;"/><text fill="#000000" font-family="sans-serif" font-size="14" lengthAdjust="spacing" textLength="429" x="29" y="328.3477">setChild(childItem: ITabsContentItem | ITabsHeaderItem) : void</text><polygon fill="#FFFF44" points="20,336.0449,24,340.0449,20,344.0449,16,340.0449" style="stroke:#B38D22;stroke-width:1.0;"/><text fill="#000000" font-family="sans-serif" font-size="14" font-style="italic" lengthAdjust="spacing" textLength="165" x="29" y="344.8359">setHtmlElements() : void</text><polygon fill="#FFFF44" points="20,352.5332,24,356.5332,20,360.5332,16,356.5332" style="stroke:#B38D22;stroke-width:1.0;"/><text fill="#000000" font-family="sans-serif" font-size="14" lengthAdjust="spacing" textLength="570" x="29" y="361.3242">triggerPlatformEventCallback(platFormCallback: OSGeneric, args: unknown[]) : void</text><polygon fill="#FFFF44" points="20,369.0215,24,373.0215,20,377.0215,16,373.0215" style="stroke:#B38D22;stroke-width:1.0;"/><text fill="#000000" font-family="sans-serif" font-size="14" lengthAdjust="spacing" textLength="318" x="29" y="377.8125">triggerPlatformInitializedEventCallback() : void</text><polygon fill="#FFFF44" points="20,385.5098,24,389.5098,20,393.5098,16,389.5098" style="stroke:#B38D22;stroke-width:1.0;"/><text fill="#000000" font-family="sans-serif" font-size="14" font-style="italic" lengthAdjust="spacing" textLength="154" x="29" y="394.3008">unsetCallbacks() : void</text><polygon fill="#FFFF44" points="20,401.998,24,405.998,20,409.998,16,405.998" style="stroke:#B38D22;stroke-width:1.0;"/><text fill="#000000" font-family="sans-serif" font-size="14" lengthAdjust="spacing" textLength="219" x="29" y="410.7891">unsetChild(childId: string) : void</text><polygon fill="#FFFF44" points="20,418.4863,24,422.4863,20,426.4863,16,422.4863" style="stroke:#B38D22;stroke-width:1.0;"/><text fill="#000000" font-family="sans-serif" font-size="14" lengthAdjust="spacing" textLength="198" x="29" y="427.2773">unsetGlobalCallbacks() : void</text><polygon fill="#FFFF44" points="20,434.9746,24,438.9746,20,442.9746,16,438.9746" style="stroke:#B38D22;stroke-width:1.0;"/><text fill="#000000" font-family="sans-serif" font-size="14" font-style="italic" lengthAdjust="spacing" textLength="183" x="29" y="443.7656">unsetHtmlElements() : void</text></g><!--class ITabs--><g id="elem_ITabs"><rect codeLine="102" fill="#FFFFFF" height="245.8594" id="ITabs" rx="2.5" ry="2.5" style="stroke:#272B30;stroke-width:0.5;" width="1056" x="692" y="106"/><ellipse cx="1197.25" cy="122" fill="#B4A7E5" rx="11" ry="11" style="stroke:#181818;stroke-width:1.0;"/><path d="M1193.6777,118.2651 L1193.6777,116.1069 L1201.0571,116.1069 L1201.0571,118.2651 L1198.5918,118.2651 L1198.5918,126.3418 L1201.0571,126.3418 L1201.0571,128.5 L1193.6777,128.5 L1193.6777,126.3418 L1196.1431,126.3418 L1196.1431,118.2651 Z " fill="#000000"/><text fill="#000000" font-family="sans-serif" font-size="14" font-style="italic" lengthAdjust="spacing" textLength="37" x="1217.75" y="127.291">ITabs</text><line style="stroke:#272B30;stroke-width:0.5;" x1="693" x2="1747" y1="138" y2="138"/><ellipse cx="703" cy="151.7441" fill="none" rx="3" ry="3" style="stroke:#038048;stroke-width:1.0;"/><text fill="#000000" font-family="sans-serif" font-size="14" lengthAdjust="spacing" textLength="109" x="712" y="155.5352">isBuilt : boolean</text><ellipse cx="703" cy="168.2324" fill="none" rx="3" ry="3" style="stroke:#038048;stroke-width:1.0;"/><text fill="#000000" font-family="sans-serif" font-size="14" lengthAdjust="spacing" textLength="184" x="712" y="172.0234">selfElement : HTMLElement</text><ellipse cx="703" cy="184.7207" fill="none" rx="3" ry="3" style="stroke:#038048;stroke-width:1.0;"/><text fill="#000000" font-family="sans-serif" font-size="14" lengthAdjust="spacing" textLength="113" x="712" y="188.5117">uniqueId : string</text><ellipse cx="703" cy="201.209" fill="none" rx="3" ry="3" style="stroke:#038048;stroke-width:1.0;"/><text fill="#000000" font-family="sans-serif" font-size="14" lengthAdjust="spacing" textLength="111" x="712" y="205">widgetId : string</text><line style="stroke:#272B30;stroke-width:0.5;" x1="693" x2="1747" y1="211.9531" y2="211.9531"/><ellipse cx="703" cy="225.6973" fill="#84BE84" rx="3" ry="3" style="stroke:#038048;stroke-width:1.0;"/><text fill="#000000" font-family="sans-serif" font-size="14" lengthAdjust="spacing" textLength="411" x="712" y="229.4883">beNotifiedByChild(childItem: IChild, notifiedTo: string) : void</text><ellipse cx="703" cy="242.1855" fill="#84BE84" rx="3" ry="3" style="stroke:#038048;stroke-width:1.0;"/><text fill="#000000" font-family="sans-serif" font-size="14" lengthAdjust="spacing" textLength="86" x="712" y="245.9766">build() : void</text><ellipse cx="703" cy="258.6738" fill="#84BE84" rx="3" ry="3" style="stroke:#038048;stroke-width:1.0;"/><text fill="#000000" font-family="sans-serif" font-size="14" lengthAdjust="spacing" textLength="482" x="712" y="262.4648">changeProperty(propertyName: string, propertyValue: unknown) : void</text><ellipse cx="703" cy="275.1621" fill="#84BE84" rx="3" ry="3" style="stroke:#038048;stroke-width:1.0;"/><text fill="#000000" font-family="sans-serif" font-size="14" lengthAdjust="spacing" textLength="1030" x="712" y="278.9531">changeTab(tabIndex: number, tabsHeaderItem: ITabsHeaderItem, blockObserver: boolean, triggerEvent: boolean, triggeredByObserver: boolean) : void</text><ellipse cx="703" cy="291.6504" fill="#84BE84" rx="3" ry="3" style="stroke:#038048;stroke-width:1.0;"/><text fill="#000000" font-family="sans-serif" font-size="14" lengthAdjust="spacing" textLength="104" x="712" y="295.4414">dispose() : void</text><ellipse cx="703" cy="308.1387" fill="#84BE84" rx="3" ry="3" style="stroke:#038048;stroke-width:1.0;"/><text fill="#000000" font-family="sans-serif" font-size="14" lengthAdjust="spacing" textLength="216" x="712" y="311.9297">equalsToID(id: string) : boolean</text><ellipse cx="703" cy="324.627" fill="#84BE84" rx="3" ry="3" style="stroke:#038048;stroke-width:1.0;"/><text fill="#000000" font-family="sans-serif" font-size="14" lengthAdjust="spacing" textLength="428" x="712" y="328.418">registerCallback(eventName: string, callback: OSGeneric) : void</text><ellipse cx="703" cy="341.1152" fill="#84BE84" rx="3" ry="3" style="stroke:#038048;stroke-width:1.0;"/><text fill="#000000" font-family="sans-serif" font-size="14" lengthAdjust="spacing" textLength="371" x="712" y="344.9063">toggleDragGestures(addDragGestures: boolean) : void</text></g><!--reverse link AbstractParent<TabsConfig, ITabsContentItem | ITabsHeaderItem> to Tabs--><g id="link_AbstractParent&lt;TabsConfig, ITabsContentItem | ITabsHeaderItem&gt;_Tabs"><path codeLine="101" d="M457.83,468.94 C464.98,482.63 472.29,496.64 479.74,510.89 " fill="none" id="AbstractParent&lt;TabsConfig, ITabsContentItem | ITabsHeaderItem&gt;-backto-Tabs" style="stroke:#272B30;stroke-width:1.0;"/><polygon fill="none" points="451.58,472.11,448.53,451.14,463.99,465.63,451.58,472.11" style="stroke:#272B30;stroke-width:1.0;"/></g><!--reverse link ITabs to Tabs--><g id="link_ITabs_Tabs"><path codeLine="116" d="M1146.55,370.29 C1124.93,411.58 1099.83,459.51 1073.09,510.59 " fill="none" id="ITabs-backto-Tabs" style="stroke:#272B30;stroke-width:1.0;stroke-dasharray:7.0,7.0;"/><polygon fill="none" points="1140.43,366.87,1155.91,352.4,1152.84,373.37,1140.43,366.87" style="stroke:#272B30;stroke-width:1.0;"/></g><!--SRC=[rLXjRzis4FxkNo4qNnGaATPkm00ZA63BRUAjhOF5A30KnK29PvcBJAeabTHhyjztb2YPecGbGTOMomT798_tyjp3uqdgYl6SIB89eemeDP5It4GY4p8uUFdho_ZddqQgBJ4Lae8S5Y79LIf5mQaLMwrMZandEG7w2oMZDQCGm2RNss03UYseSgTM33ASIOo1uDcInEfPy7KKuDy1KnTINAEed185D1W7iH0P45ukd_n54isk0RT4WclW-dK66_o7SdEZnyxEDMpy3UT0KAidNqqwuaaX9Qul9CDVefdWAEgCsc8VG6gMaEn2AAPBqHcJa3Y2L99q4IkGro2DKNHFgagYdhQIS6tiyigZts6RIq1qni4PS90iQKlz0Ohz0vtLDL4pD7W6IXUulOCUhbyodcPWSUeAD7Yejy1JlKO9NcpYniiy8tebvEQrySCWkE3Hcl3K-BAuh0VbgjqXuNE1_amusvG8la7Um8BFEKNaj91DA2qxUfVCNShEb-_Usf4ZvYUsNwgnjr_mA8RtGZDa9vrkepNBQ9YONmF7E6ZJ9RWDFBuT1znkNefnK6uljMqdPRQNsnmEqUYrODHQAuo5zbnImeT784TcRSFSFhn7oCQ1qXAJTnpKinz8Lk1qmQ-ukE5zYj3548F7sE5B3V1ne5kHT4u22aYMfWYfoMB3a6RQe5DpjrbjMwTCvKA15nmIWMHgAUQpC2SQ3mAVqpggGu-AHodeg0PVXHhHSqN3UIST_la__FYfqYGXPGgjHIJBOgnNONc6sf0cTisGs1wfjkzQf7XitCCL4ahTSJyK1ol6cLfFkxa-g2Eq96j1SNzuRHtJRPdZaBKpNMfUUjWzLdUbkST9vy0UAD2J5o_-jCnb24yxM5olyUzRyW_R0zBhwpZNcyoUPj-29Uw5MxiQDfYAzWPdeou5ZWCYKzMSi8-V1jNEETECP5ZCQDj2UrV11x2e5lUnmfCxoqHCia5L-q71cv5I1y_GgRXHk-hjGxrKKORQftkNlN1NSA9zzTJRNvMlINbtkqvok5bswzb3wr9Rh-CWgXqeY9uEF1TBv0Newc3uzVNGlyhG9CsWlj5Bl48ya3WH2o8h03qJrPRwcg-sz8fKO5GNco-1vh19is5Ek9liJhuaR4GRwP9-zKG_2-jj_HIerXoGIursl4-XIgJ8igMe0BRcJNeSryR3jG2LD3idXHRdmDAr3h7rsOtsqGDtpfo6BUmkx-9HKQ6qs3HtDTirJIuL_EsLCzQBVWmCiyfIiiXDvw1wt9Yhtz1wsMs4RFSy49VJmuPYzzngRhkxoiRMRCdjWzFXTgMRBjlWCsEAn1dGIzHTgFxi7mTCrNBxVDUkqdEYfW0yobXo1VH1bBBLeTMQXirRmPvKbSLpY0f5Jec6YWU2ymgHi9gT4KrArNv0ToFahPPeFB3lFXCxlY3cTUBKydh541cVvFKTk0FZrOFVcknTegPRqmpWyZkIdzOfgFw_QecQk1hXHVmtnbUkVwq3kBkdMxxV-tQ_t9EwRziWV_CMzNu4_ii6zIbzvg2JJ-mp7w7x8Nscmx_xMavFzD7Tvw3dGvR-9usew_Ltwaax9lkXkXizkIwUtfwSs2zB8sQ-kQn80i6pkVkjwOWfSrpyZo172hBLm4U2WhFF1SnDaQrGgAPl63KjeJyzN2JBcHzS29_qfI3EH7BLQRg_nnS4jhyk_x0NVYIkPTZfxVFdbd__0W00]--></g></svg>