<?xml version="1.0" encoding="us-ascii" standalone="no"?><svg xmlns="http://www.w3.org/2000/svg" xmlns:xlink="http://www.w3.org/1999/xlink" contentStyleType="text/css" height="977px" preserveAspectRatio="none" style="width:1236px;height:977px;background:#CED4DA;" version="1.1" viewBox="0 0 1236 977" width="1236px" zoomAndPan="magnify"><defs/><g><rect fill="#CED4DA" height="977" style="stroke:none;stroke-width:1.0;" width="1236" x="0" y="0"/><!--class TabsContentItem--><g id="elem_TabsContentItem"><rect codeLine="7" fill="#FFFFFF" height="509.6719" id="TabsContentItem" rx="2.5" ry="2.5" style="stroke:#272B30;stroke-width:0.5;" width="677" x="323" y="461"/><ellipse cx="598.25" cy="477" fill="#ADD1B2" rx="11" ry="11" style="stroke:#181818;stroke-width:1.0;"/><path d="M600.7231,483.1431 Q600.1421,483.4419 599.5029,483.5913 Q598.8638,483.7407 598.1582,483.7407 Q595.6514,483.7407 594.3315,482.0889 Q593.0117,480.437 593.0117,477.3159 Q593.0117,474.1865 594.3315,472.5347 Q595.6514,470.8828 598.1582,470.8828 Q598.8638,470.8828 599.5112,471.0322 Q600.1587,471.1816 600.7231,471.4805 L600.7231,474.2031 Q600.0923,473.6221 599.4988,473.3523 Q598.9053,473.0825 598.2744,473.0825 Q596.9297,473.0825 596.2449,474.1492 Q595.5601,475.2158 595.5601,477.3159 Q595.5601,479.4077 596.2449,480.4744 Q596.9297,481.541 598.2744,481.541 Q598.9053,481.541 599.4988,481.2712 Q600.0923,481.0015 600.7231,480.4204 Z " fill="#000000"/><text fill="#000000" font-family="sans-serif" font-size="14" lengthAdjust="spacing" textLength="118" x="618.75" y="482.291">TabsContentItem</text><line style="stroke:#272B30;stroke-width:0.5;" x1="324" x2="999" y1="493" y2="493"/><polygon fill="none" points="334,501.7441,338,505.7441,334,509.7441,330,505.7441" style="stroke:#B38D22;stroke-width:1.0;"/><text fill="#000000" font-family="sans-serif" font-size="14" lengthAdjust="spacing" textLength="176" x="343" y="510.5352">isProviderBased : boolean</text><rect fill="none" height="6" style="stroke:#C82930;stroke-width:1.0;" width="6" x="331" y="520.2324"/><text fill="#000000" font-family="sans-serif" font-size="14" lengthAdjust="spacing" textLength="129" x="343" y="527.0234">_dataTab : number</text><rect fill="none" height="6" style="stroke:#C82930;stroke-width:1.0;" width="6" x="331" y="536.7207"/><text fill="#000000" font-family="sans-serif" font-size="14" lengthAdjust="spacing" textLength="250" x="343" y="543.5117">_focusableElements : HTMLElement[]</text><rect fill="none" height="6" style="stroke:#C82930;stroke-width:1.0;" width="6" x="331" y="553.209"/><text fill="#000000" font-family="sans-serif" font-size="14" lengthAdjust="spacing" textLength="127" x="343" y="560">_isActive : boolean</text><line style="stroke:#272B30;stroke-width:0.5;" x1="324" x2="999" y1="566.9531" y2="566.9531"/><ellipse cx="334" cy="580.6973" fill="#84BE84" rx="3" ry="3" style="stroke:#038048;stroke-width:1.0;"/><text fill="#000000" font-family="sans-serif" font-size="14" lengthAdjust="spacing" textLength="86" x="343" y="584.4883">build() : void</text><ellipse cx="334" cy="597.1855" fill="#84BE84" rx="3" ry="3" style="stroke:#038048;stroke-width:1.0;"/><text fill="#000000" font-family="sans-serif" font-size="14" lengthAdjust="spacing" textLength="482" x="343" y="600.9766">changeProperty(propertyName: string, propertyValue: unknown) : void</text><ellipse cx="334" cy="613.6738" fill="#84BE84" rx="3" ry="3" style="stroke:#038048;stroke-width:1.0;"/><text fill="#000000" font-family="sans-serif" font-size="14" lengthAdjust="spacing" textLength="104" x="343" y="617.4648">dispose() : void</text><ellipse cx="334" cy="630.1621" fill="#84BE84" rx="3" ry="3" style="stroke:#038048;stroke-width:1.0;"/><text fill="#000000" font-family="sans-serif" font-size="14" lengthAdjust="spacing" textLength="266" x="343" y="633.9531">equalsToID(patternId: string) : boolean</text><ellipse cx="334" cy="646.6504" fill="#84BE84" rx="3" ry="3" style="stroke:#038048;stroke-width:1.0;"/><text fill="#000000" font-family="sans-serif" font-size="14" lengthAdjust="spacing" textLength="155" x="343" y="650.4414">getDataTab() : number</text><ellipse cx="334" cy="663.1387" fill="#84BE84" rx="3" ry="3" style="stroke:#038048;stroke-width:1.0;"/><text fill="#000000" font-family="sans-serif" font-size="14" lengthAdjust="spacing" textLength="164" x="343" y="666.9297">getOffsetLeft() : number</text><ellipse cx="334" cy="679.627" fill="#84BE84" rx="3" ry="3" style="stroke:#038048;stroke-width:1.0;"/><text fill="#000000" font-family="sans-serif" font-size="14" lengthAdjust="spacing" textLength="428" x="343" y="683.418">registerCallback(eventName: string, callback: OSGeneric) : void</text><ellipse cx="334" cy="696.1152" fill="#84BE84" rx="3" ry="3" style="stroke:#038048;stroke-width:1.0;"/><text fill="#000000" font-family="sans-serif" font-size="14" lengthAdjust="spacing" textLength="371" x="343" y="699.9063">setAriaLabelledByAttribute(headerItemId: string) : void</text><ellipse cx="334" cy="712.6035" fill="#84BE84" rx="3" ry="3" style="stroke:#038048;stroke-width:1.0;"/><text fill="#000000" font-family="sans-serif" font-size="14" lengthAdjust="spacing" textLength="246" x="343" y="716.3945">setDataTab(dataTab: number) : void</text><ellipse cx="334" cy="729.0918" fill="#84BE84" rx="3" ry="3" style="stroke:#038048;stroke-width:1.0;"/><text fill="#000000" font-family="sans-serif" font-size="14" lengthAdjust="spacing" textLength="123" x="343" y="732.8828">setIsActive() : void</text><ellipse cx="334" cy="745.5801" fill="#84BE84" rx="3" ry="3" style="stroke:#038048;stroke-width:1.0;"/><text fill="#000000" font-family="sans-serif" font-size="14" lengthAdjust="spacing" textLength="397" x="343" y="749.3711">setOnDragObserver(observer: IntersectionObserver) : void</text><ellipse cx="334" cy="762.0684" fill="#84BE84" rx="3" ry="3" style="stroke:#038048;stroke-width:1.0;"/><text fill="#000000" font-family="sans-serif" font-size="14" lengthAdjust="spacing" textLength="429" x="343" y="765.8594">unobserveDragObserver(observer: IntersectionObserver) : void</text><ellipse cx="334" cy="778.5566" fill="#84BE84" rx="3" ry="3" style="stroke:#038048;stroke-width:1.0;"/><text fill="#000000" font-family="sans-serif" font-size="14" lengthAdjust="spacing" textLength="141" x="343" y="782.3477">unsetIsActive() : void</text><polygon fill="#FFFF44" points="334,790.0449,338,794.0449,334,798.0449,330,794.0449" style="stroke:#B38D22;stroke-width:1.0;"/><text fill="#000000" font-family="sans-serif" font-size="14" lengthAdjust="spacing" textLength="123" x="343" y="798.8359">finishBuild() : void</text><polygon fill="#FFFF44" points="334,806.5332,338,810.5332,334,814.5332,330,810.5332" style="stroke:#B38D22;stroke-width:1.0;"/><text fill="#000000" font-family="sans-serif" font-size="14" lengthAdjust="spacing" textLength="257" x="343" y="815.3242">notifyParent(actionType: string) : void</text><polygon fill="#FFFF44" points="334,823.0215,338,827.0215,334,831.0215,330,827.0215" style="stroke:#B38D22;stroke-width:1.0;"/><text fill="#000000" font-family="sans-serif" font-size="14" lengthAdjust="spacing" textLength="302" x="343" y="831.8125">setA11YProperties(isUpdate: boolean) : void</text><polygon fill="#FFFF44" points="334,839.5098,338,843.5098,334,847.5098,330,843.5098" style="stroke:#B38D22;stroke-width:1.0;"/><text fill="#000000" font-family="sans-serif" font-size="14" lengthAdjust="spacing" textLength="136" x="343" y="848.3008">setCallbacks() : void</text><polygon fill="#FFFF44" points="334,855.998,338,859.998,334,863.998,330,859.998" style="stroke:#B38D22;stroke-width:1.0;"/><text fill="#000000" font-family="sans-serif" font-size="14" lengthAdjust="spacing" textLength="165" x="343" y="864.7891">setHtmlElements() : void</text><polygon fill="#FFFF44" points="334,872.4863,338,876.4863,334,880.4863,330,876.4863" style="stroke:#B38D22;stroke-width:1.0;"/><text fill="#000000" font-family="sans-serif" font-size="14" lengthAdjust="spacing" textLength="651" x="343" y="881.2773">setParentInfo(parentSelector: string, getPatternByIdAPI: Function, canBeOrphan: boolean) : void</text><polygon fill="#FFFF44" points="334,888.9746,338,892.9746,334,896.9746,330,892.9746" style="stroke:#B38D22;stroke-width:1.0;"/><text fill="#000000" font-family="sans-serif" font-size="14" lengthAdjust="spacing" textLength="570" x="343" y="897.7656">triggerPlatformEventCallback(platFormCallback: OSGeneric, args: unknown[]) : void</text><polygon fill="#FFFF44" points="334,905.4629,338,909.4629,334,913.4629,330,909.4629" style="stroke:#B38D22;stroke-width:1.0;"/><text fill="#000000" font-family="sans-serif" font-size="14" lengthAdjust="spacing" textLength="318" x="343" y="914.2539">triggerPlatformInitializedEventCallback() : void</text><polygon fill="#FFFF44" points="334,921.9512,338,925.9512,334,929.9512,330,925.9512" style="stroke:#B38D22;stroke-width:1.0;"/><text fill="#000000" font-family="sans-serif" font-size="14" lengthAdjust="spacing" textLength="154" x="343" y="930.7422">unsetCallbacks() : void</text><polygon fill="#FFFF44" points="334,938.4395,338,942.4395,334,946.4395,330,942.4395" style="stroke:#B38D22;stroke-width:1.0;"/><text fill="#000000" font-family="sans-serif" font-size="14" lengthAdjust="spacing" textLength="198" x="343" y="947.2305">unsetGlobalCallbacks() : void</text><polygon fill="#FFFF44" points="334,954.9277,338,958.9277,334,962.9277,330,958.9277" style="stroke:#B38D22;stroke-width:1.0;"/><text fill="#000000" font-family="sans-serif" font-size="14" lengthAdjust="spacing" textLength="183" x="343" y="963.7188">unsetHtmlElements() : void</text></g><!--class AbstractChild<TabsContentItemConfig, ITabs>--><g id="elem_AbstractChild&lt;TabsContentItemConfig, ITabs&gt;"><rect codeLine="37" fill="#FFFFFF" height="394.2539" id="AbstractChild&lt;TabsContentItemConfig, ITabs&gt;" rx="2.5" ry="2.5" style="stroke:#272B30;stroke-width:0.5;" width="677" x="9" y="7"/><ellipse cx="181.25" cy="23" fill="#A9DCDF" rx="11" ry="11" style="stroke:#181818;stroke-width:1.0;"/><path d="M181.1133,18.3481 L179.9595,23.4199 L182.2754,23.4199 Z M179.6191,16.1069 L182.6157,16.1069 L185.9609,28.5 L183.5122,28.5 L182.7485,25.437 L179.4697,25.437 L178.7227,28.5 L176.2739,28.5 Z " fill="#000000"/><text fill="#000000" font-family="sans-serif" font-size="14" font-style="italic" lengthAdjust="spacing" textLength="324" x="201.75" y="28.291">AbstractChild&lt;TabsContentItemConfig, ITabs&gt;</text><line style="stroke:#272B30;stroke-width:0.5;" x1="10" x2="685" y1="39" y2="39"/><polygon fill="none" points="20,47.7441,24,51.7441,20,55.7441,16,51.7441" style="stroke:#B38D22;stroke-width:1.0;"/><text fill="#000000" font-family="sans-serif" font-size="14" lengthAdjust="spacing" textLength="176" x="29" y="56.5352">isProviderBased : boolean</text><rect fill="none" height="6" style="stroke:#C82930;stroke-width:1.0;" width="6" x="17" y="66.2324"/><text fill="#000000" font-family="sans-serif" font-size="14" lengthAdjust="spacing" textLength="152" x="29" y="73.0234">_isFirstChild : boolean</text><rect fill="none" height="6" style="stroke:#C82930;stroke-width:1.0;" width="6" x="17" y="82.7207"/><text fill="#000000" font-family="sans-serif" font-size="14" lengthAdjust="spacing" textLength="149" x="29" y="89.5117">_isLastChild : boolean</text><rect fill="none" height="6" style="stroke:#C82930;stroke-width:1.0;" width="6" x="17" y="99.209"/><text fill="#000000" font-family="sans-serif" font-size="14" lengthAdjust="spacing" textLength="117" x="29" y="106">_parentId : string</text><rect fill="none" height="6" style="stroke:#C82930;stroke-width:1.0;" width="6" x="17" y="115.6973"/><text fill="#000000" font-family="sans-serif" font-size="14" lengthAdjust="spacing" textLength="145" x="29" y="122.4883">_parentObject : ITabs</text><line style="stroke:#272B30;stroke-width:0.5;" x1="10" x2="685" y1="129.4414" y2="129.4414"/><ellipse cx="20" cy="143.1855" fill="#84BE84" rx="3" ry="3" style="stroke:#038048;stroke-width:1.0;"/><text fill="#000000" font-family="sans-serif" font-size="14" lengthAdjust="spacing" textLength="86" x="29" y="146.9766">build() : void</text><ellipse cx="20" cy="159.6738" fill="#84BE84" rx="3" ry="3" style="stroke:#038048;stroke-width:1.0;"/><text fill="#000000" font-family="sans-serif" font-size="14" lengthAdjust="spacing" textLength="482" x="29" y="163.4648">changeProperty(propertyName: string, propertyValue: unknown) : void</text><ellipse cx="20" cy="176.1621" fill="#84BE84" rx="3" ry="3" style="stroke:#038048;stroke-width:1.0;"/><text fill="#000000" font-family="sans-serif" font-size="14" lengthAdjust="spacing" textLength="104" x="29" y="179.9531">dispose() : void</text><ellipse cx="20" cy="192.6504" fill="#84BE84" rx="3" ry="3" style="stroke:#038048;stroke-width:1.0;"/><text fill="#000000" font-family="sans-serif" font-size="14" lengthAdjust="spacing" textLength="266" x="29" y="196.4414">equalsToID(patternId: string) : boolean</text><ellipse cx="20" cy="209.1387" fill="#84BE84" rx="3" ry="3" style="stroke:#038048;stroke-width:1.0;"/><text fill="#000000" font-family="sans-serif" font-size="14" lengthAdjust="spacing" textLength="428" x="29" y="212.9297">registerCallback(eventName: string, callback: OSGeneric) : void</text><polygon fill="#FFFF44" points="20,220.627,24,224.627,20,228.627,16,224.627" style="stroke:#B38D22;stroke-width:1.0;"/><text fill="#000000" font-family="sans-serif" font-size="14" lengthAdjust="spacing" textLength="123" x="29" y="229.418">finishBuild() : void</text><polygon fill="#FFFF44" points="20,237.1152,24,241.1152,20,245.1152,16,241.1152" style="stroke:#B38D22;stroke-width:1.0;"/><text fill="#000000" font-family="sans-serif" font-size="14" lengthAdjust="spacing" textLength="257" x="29" y="245.9063">notifyParent(actionType: string) : void</text><polygon fill="#FFFF44" points="20,253.6035,24,257.6035,20,261.6035,16,257.6035" style="stroke:#B38D22;stroke-width:1.0;"/><text fill="#000000" font-family="sans-serif" font-size="14" font-style="italic" lengthAdjust="spacing" textLength="178" x="29" y="262.3945">setA11YProperties() : void</text><polygon fill="#FFFF44" points="20,270.0918,24,274.0918,20,278.0918,16,274.0918" style="stroke:#B38D22;stroke-width:1.0;"/><text fill="#000000" font-family="sans-serif" font-size="14" font-style="italic" lengthAdjust="spacing" textLength="136" x="29" y="278.8828">setCallbacks() : void</text><polygon fill="#FFFF44" points="20,286.5801,24,290.5801,20,294.5801,16,290.5801" style="stroke:#B38D22;stroke-width:1.0;"/><text fill="#000000" font-family="sans-serif" font-size="14" font-style="italic" lengthAdjust="spacing" textLength="165" x="29" y="295.3711">setHtmlElements() : void</text><polygon fill="#FFFF44" points="20,303.0684,24,307.0684,20,311.0684,16,307.0684" style="stroke:#B38D22;stroke-width:1.0;"/><text fill="#000000" font-family="sans-serif" font-size="14" lengthAdjust="spacing" textLength="651" x="29" y="311.8594">setParentInfo(parentSelector: string, getPatternByIdAPI: Function, canBeOrphan: boolean) : void</text><polygon fill="#FFFF44" points="20,319.5566,24,323.5566,20,327.5566,16,323.5566" style="stroke:#B38D22;stroke-width:1.0;"/><text fill="#000000" font-family="sans-serif" font-size="14" lengthAdjust="spacing" textLength="570" x="29" y="328.3477">triggerPlatformEventCallback(platFormCallback: OSGeneric, args: unknown[]) : void</text><polygon fill="#FFFF44" points="20,336.0449,24,340.0449,20,344.0449,16,340.0449" style="stroke:#B38D22;stroke-width:1.0;"/><text fill="#000000" font-family="sans-serif" font-size="14" lengthAdjust="spacing" textLength="318" x="29" y="344.8359">triggerPlatformInitializedEventCallback() : void</text><polygon fill="#FFFF44" points="20,352.5332,24,356.5332,20,360.5332,16,356.5332" style="stroke:#B38D22;stroke-width:1.0;"/><text fill="#000000" font-family="sans-serif" font-size="14" font-style="italic" lengthAdjust="spacing" textLength="154" x="29" y="361.3242">unsetCallbacks() : void</text><polygon fill="#FFFF44" points="20,369.0215,24,373.0215,20,377.0215,16,373.0215" style="stroke:#B38D22;stroke-width:1.0;"/><text fill="#000000" font-family="sans-serif" font-size="14" lengthAdjust="spacing" textLength="198" x="29" y="377.8125">unsetGlobalCallbacks() : void</text><polygon fill="#FFFF44" points="20,385.5098,24,389.5098,20,393.5098,16,389.5098" style="stroke:#B38D22;stroke-width:1.0;"/><text fill="#000000" font-family="sans-serif" font-size="14" font-style="italic" lengthAdjust="spacing" textLength="183" x="29" y="394.3008">unsetHtmlElements() : void</text></g><!--class ITabsContentItem--><g id="elem_ITabsContentItem"><rect codeLine="61" fill="#FFFFFF" height="394.2539" id="ITabsContentItem" rx="2.5" ry="2.5" style="stroke:#272B30;stroke-width:0.5;" width="508" x="721.5" y="7"/><ellipse cx="910.25" cy="23" fill="#B4A7E5" rx="11" ry="11" style="stroke:#181818;stroke-width:1.0;"/><path d="M906.6777,19.2651 L906.6777,17.1069 L914.0571,17.1069 L914.0571,19.2651 L911.5918,19.2651 L911.5918,27.3418 L914.0571,27.3418 L914.0571,29.5 L906.6777,29.5 L906.6777,27.3418 L909.1431,27.3418 L909.1431,19.2651 Z " fill="#000000"/><text fill="#000000" font-family="sans-serif" font-size="14" font-style="italic" lengthAdjust="spacing" textLength="122" x="930.75" y="28.291">ITabsContentItem</text><line style="stroke:#272B30;stroke-width:0.5;" x1="722.5" x2="1228.5" y1="39" y2="39"/><ellipse cx="732.5" cy="52.7441" fill="none" rx="3" ry="3" style="stroke:#038048;stroke-width:1.0;"/><text fill="#000000" font-family="sans-serif" font-size="14" lengthAdjust="spacing" textLength="109" x="741.5" y="56.5352">isBuilt : boolean</text><ellipse cx="732.5" cy="69.2324" fill="none" rx="3" ry="3" style="stroke:#038048;stroke-width:1.0;"/><text fill="#000000" font-family="sans-serif" font-size="14" lengthAdjust="spacing" textLength="184" x="741.5" y="73.0234">selfElement : HTMLElement</text><ellipse cx="732.5" cy="85.7207" fill="none" rx="3" ry="3" style="stroke:#038048;stroke-width:1.0;"/><text fill="#000000" font-family="sans-serif" font-size="14" lengthAdjust="spacing" textLength="113" x="741.5" y="89.5117">uniqueId : string</text><ellipse cx="732.5" cy="102.209" fill="none" rx="3" ry="3" style="stroke:#038048;stroke-width:1.0;"/><text fill="#000000" font-family="sans-serif" font-size="14" lengthAdjust="spacing" textLength="111" x="741.5" y="106">widgetId : string</text><line style="stroke:#272B30;stroke-width:0.5;" x1="722.5" x2="1228.5" y1="112.9531" y2="112.9531"/><ellipse cx="732.5" cy="126.6973" fill="#84BE84" rx="3" ry="3" style="stroke:#038048;stroke-width:1.0;"/><text fill="#000000" font-family="sans-serif" font-size="14" lengthAdjust="spacing" textLength="86" x="741.5" y="130.4883">build() : void</text><ellipse cx="732.5" cy="143.1855" fill="#84BE84" rx="3" ry="3" style="stroke:#038048;stroke-width:1.0;"/><text fill="#000000" font-family="sans-serif" font-size="14" lengthAdjust="spacing" textLength="482" x="741.5" y="146.9766">changeProperty(propertyName: string, propertyValue: unknown) : void</text><ellipse cx="732.5" cy="159.6738" fill="#84BE84" rx="3" ry="3" style="stroke:#038048;stroke-width:1.0;"/><text fill="#000000" font-family="sans-serif" font-size="14" lengthAdjust="spacing" textLength="104" x="741.5" y="163.4648">dispose() : void</text><ellipse cx="732.5" cy="176.1621" fill="#84BE84" rx="3" ry="3" style="stroke:#038048;stroke-width:1.0;"/><text fill="#000000" font-family="sans-serif" font-size="14" lengthAdjust="spacing" textLength="216" x="741.5" y="179.9531">equalsToID(id: string) : boolean</text><ellipse cx="732.5" cy="192.6504" fill="#84BE84" rx="3" ry="3" style="stroke:#038048;stroke-width:1.0;"/><text fill="#000000" font-family="sans-serif" font-size="14" lengthAdjust="spacing" textLength="155" x="741.5" y="196.4414">getDataTab() : number</text><ellipse cx="732.5" cy="209.1387" fill="#84BE84" rx="3" ry="3" style="stroke:#038048;stroke-width:1.0;"/><text fill="#000000" font-family="sans-serif" font-size="14" lengthAdjust="spacing" textLength="164" x="741.5" y="212.9297">getOffsetLeft() : number</text><ellipse cx="732.5" cy="225.627" fill="#84BE84" rx="3" ry="3" style="stroke:#038048;stroke-width:1.0;"/><text fill="#000000" font-family="sans-serif" font-size="14" lengthAdjust="spacing" textLength="428" x="741.5" y="229.418">registerCallback(eventName: string, callback: OSGeneric) : void</text><ellipse cx="732.5" cy="242.1152" fill="#84BE84" rx="3" ry="3" style="stroke:#038048;stroke-width:1.0;"/><text fill="#000000" font-family="sans-serif" font-size="14" lengthAdjust="spacing" textLength="371" x="741.5" y="245.9063">setAriaLabelledByAttribute(headerItemId: string) : void</text><ellipse cx="732.5" cy="258.6035" fill="#84BE84" rx="3" ry="3" style="stroke:#038048;stroke-width:1.0;"/><text fill="#000000" font-family="sans-serif" font-size="14" lengthAdjust="spacing" textLength="98" x="741.5" y="262.3945">setBlur() : void</text><ellipse cx="732.5" cy="275.0918" fill="#84BE84" rx="3" ry="3" style="stroke:#038048;stroke-width:1.0;"/><text fill="#000000" font-family="sans-serif" font-size="14" lengthAdjust="spacing" textLength="246" x="741.5" y="278.8828">setDataTab(dataTab: number) : void</text><ellipse cx="732.5" cy="291.5801" fill="#84BE84" rx="3" ry="3" style="stroke:#038048;stroke-width:1.0;"/><text fill="#000000" font-family="sans-serif" font-size="14" lengthAdjust="spacing" textLength="111" x="741.5" y="295.3711">setFocus() : void</text><ellipse cx="732.5" cy="308.0684" fill="#84BE84" rx="3" ry="3" style="stroke:#038048;stroke-width:1.0;"/><text fill="#000000" font-family="sans-serif" font-size="14" lengthAdjust="spacing" textLength="123" x="741.5" y="311.8594">setIsActive() : void</text><ellipse cx="732.5" cy="324.5566" fill="#84BE84" rx="3" ry="3" style="stroke:#038048;stroke-width:1.0;"/><text fill="#000000" font-family="sans-serif" font-size="14" lengthAdjust="spacing" textLength="397" x="741.5" y="328.3477">setOnDragObserver(observer: IntersectionObserver) : void</text><ellipse cx="732.5" cy="341.0449" fill="#84BE84" rx="3" ry="3" style="stroke:#038048;stroke-width:1.0;"/><text fill="#000000" font-family="sans-serif" font-size="14" lengthAdjust="spacing" textLength="136" x="741.5" y="344.8359">setTabindex() : void</text><ellipse cx="732.5" cy="357.5332" fill="#84BE84" rx="3" ry="3" style="stroke:#038048;stroke-width:1.0;"/><text fill="#000000" font-family="sans-serif" font-size="14" lengthAdjust="spacing" textLength="429" x="741.5" y="361.3242">unobserveDragObserver(observer: IntersectionObserver) : void</text><ellipse cx="732.5" cy="374.0215" fill="#84BE84" rx="3" ry="3" style="stroke:#038048;stroke-width:1.0;"/><text fill="#000000" font-family="sans-serif" font-size="14" lengthAdjust="spacing" textLength="141" x="741.5" y="377.8125">unsetIsActive() : void</text><ellipse cx="732.5" cy="390.5098" fill="#84BE84" rx="3" ry="3" style="stroke:#038048;stroke-width:1.0;"/><text fill="#000000" font-family="sans-serif" font-size="14" lengthAdjust="spacing" textLength="154" x="741.5" y="394.3008">unsetTabindex() : void</text></g><!--reverse link AbstractChild<TabsContentItemConfig, ITabs> to TabsContentItem--><g id="link_AbstractChild&lt;TabsContentItemConfig, ITabs&gt;_TabsContentItem"><path codeLine="60" d="M478.71,418.12 C487.36,432.16 496.11,446.38 504.86,460.59 " fill="none" id="AbstractChild&lt;TabsContentItemConfig, ITabs&gt;-backto-TabsContentItem" style="stroke:#272B30;stroke-width:1.0;"/><polygon fill="none" points="472.75,421.79,468.23,401.09,484.67,414.45,472.75,421.79" style="stroke:#272B30;stroke-width:1.0;"/></g><!--reverse link ITabsContentItem to TabsContentItem--><g id="link_ITabsContentItem_TabsContentItem"><path codeLine="84" d="M844.29,418.12 C835.64,432.16 826.89,446.38 818.14,460.59 " fill="none" id="ITabsContentItem-backto-TabsContentItem" style="stroke:#272B30;stroke-width:1.0;stroke-dasharray:7.0,7.0;"/><polygon fill="none" points="838.33,414.45,854.77,401.09,850.25,421.79,838.33,414.45" style="stroke:#272B30;stroke-width:1.0;"/></g><!--SRC=[xLPjQzim4FwUNo6QBovzOUq6Wr06ITgqXcm9D1kCKePidHojikH9ShgixN_VsR6xEah2jfQEZUMJSy_T-NJtFFBPAw4oQcXA-f9QspL6N_Urr8Qq3ryVHYzVj6pJewSD0xFPXSPNYT6vOfKRv_o1ZmV7m5unsfeA1WJIpCr92cwgcNreuW8aMkBY1MHhGYFRryg1Sg63T8lSj0Z-siAEZPvXbEbH2unqIAIr1AfAUEyJeuvYBDfLdaPWAZFNSMvf9E54GeevBJgSJTuEgxyNbvMViDtOYHaivTs9SY5Pi8tccHPiOOkdL2M0vMHWt3p8geTtD8KEiSu8bUoIslg1oXpDkRfI-ber4p5XCsrXAJryoQcq4nqU1nbr3emAMPrtUxc-1DpnukHbbWTdBw0HvnRS4BZpK0E9i9YyJwMCS6u1pB0VpJF45TOXe_DJK614t2mLatUDe4CQWPJ0UlEkmz0eTn1CWUAiYX4sgsy4rwLNmwihzFp2QZg1XupKiQ79AB9WPc02NJrqI8WKCXOmJAiQRaRdgl9-H8QrjRMvKC9EUpvzsaexmUTZQh3V0ItJJ-OPh6nIk-ZmmS77Ycm2R23i-mpx1VT4y0BgaTh0WyvSAcib-EYYfb1nZSmh7iz1ulcr-K69fF0gITcRXwmx3ZjaaAlo40LVL0z69aDzhAaEioG9cB6aZckJdXISksTWXjO1Mli-xNO9DOczbz75vSQqeH9EK2c-0Mk-eHbLZczTiqhmLEg8oeqkgpjwry9hp1cSBgdkjMxrlpz5HXmjtNBuo0LsDopiRtxwpXDs88nTf5m13kawR37Ti00MWstOHz5dd3fYPJb_nptu5DVP4sdsfXxztIhvRd9TGxGbh_yQNjsQHyhPIxLEsRycvQFRlJr_gsc9ukF2QGnaAropykm8Mr3HBLFTWkHLNSrbflueYIyvB6jxvremdBjd_hEw5l_gOjEJkGb-UzqP54jhy3nR44PZAK8n-1eyutwqmFmtexnyFHpTxk_x6leE]--></g></svg>