<?xml version="1.0" encoding="us-ascii" standalone="no"?><svg xmlns="http://www.w3.org/2000/svg" xmlns:xlink="http://www.w3.org/1999/xlink" contentStyleType="text/css" height="1702px" preserveAspectRatio="none" style="width:1156px;height:1702px;background:#CED4DA;" version="1.1" viewBox="0 0 1156 1702" width="1156px" zoomAndPan="magnify"><defs/><g><rect fill="#CED4DA" height="1702" style="stroke:none;stroke-width:1.0;" width="1156" x="0" y="0"/><!--class Tooltip--><g id="elem_Tooltip"><rect codeLine="7" fill="#FFFFFF" height="1205.0781" id="Tooltip" rx="2.5" ry="2.5" style="stroke:#272B30;stroke-width:0.5;" width="680" x="260.5" y="490"/><ellipse cx="572.75" cy="506" fill="#ADD1B2" rx="11" ry="11" style="stroke:#181818;stroke-width:1.0;"/><path d="M575.7188,511.6406 Q575.1406,511.9375 574.5,512.0781 Q573.8594,512.2344 573.1563,512.2344 Q570.6563,512.2344 569.3281,510.5938 Q568.0156,508.9375 568.0156,505.8125 Q568.0156,502.6875 569.3281,501.0313 Q570.6563,499.375 573.1563,499.375 Q573.8594,499.375 574.5,499.5313 Q575.1563,499.6875 575.7188,499.9844 L575.7188,502.7031 Q575.0938,502.125 574.5,501.8594 Q573.9063,501.5781 573.2813,501.5781 Q571.9375,501.5781 571.25,502.6563 Q570.5625,503.7188 570.5625,505.8125 Q570.5625,507.9063 571.25,508.9844 Q571.9375,510.0469 573.2813,510.0469 Q573.9063,510.0469 574.5,509.7813 Q575.0938,509.5 575.7188,508.9219 L575.7188,511.6406 Z " fill="#000000"/><text fill="#000000" font-family="sans-serif" font-size="14" lengthAdjust="spacing" textLength="47" x="593.25" y="510.8467">Tooltip</text><line style="stroke:#272B30;stroke-width:0.5;" x1="261.5" x2="939.5" y1="522" y2="522"/><polygon fill="none" points="271.5,530.6484,275.5,534.6484,271.5,538.6484,267.5,534.6484" style="stroke:#B38D22;stroke-width:1.0;"/><text fill="#000000" font-family="sans-serif" font-size="14" lengthAdjust="spacing" textLength="180" x="280.5" y="538.9951">isProviderBased : boolean</text><rect fill="none" height="6" style="stroke:#C82930;stroke-width:1.0;" width="6" x="268.5" y="548.9453"/><text fill="#000000" font-family="sans-serif" font-size="14" lengthAdjust="spacing" textLength="261" x="280.5" y="555.292">_activeScreenElement : HTMLElement</text><rect fill="none" height="6" style="stroke:#C82930;stroke-width:1.0;" width="6" x="268.5" y="565.2422"/><text fill="#000000" font-family="sans-serif" font-size="14" lengthAdjust="spacing" textLength="326" x="280.5" y="571.5889">_eventBalloonWrapperOnMouseEnter : Generic</text><rect fill="none" height="6" style="stroke:#C82930;stroke-width:1.0;" width="6" x="268.5" y="581.5391"/><text fill="#000000" font-family="sans-serif" font-size="14" lengthAdjust="spacing" textLength="329" x="280.5" y="587.8857">_eventBalloonWrapperOnMouseLeave : Generic</text><rect fill="none" height="6" style="stroke:#C82930;stroke-width:1.0;" width="6" x="268.5" y="597.8359"/><text fill="#000000" font-family="sans-serif" font-size="14" lengthAdjust="spacing" textLength="246" x="280.5" y="604.1826">_eventIconOnMouseEnter : Generic</text><rect fill="none" height="6" style="stroke:#C82930;stroke-width:1.0;" width="6" x="268.5" y="614.1328"/><text fill="#000000" font-family="sans-serif" font-size="14" lengthAdjust="spacing" textLength="249" x="280.5" y="620.4795">_eventIconOnMouseLeave : Generic</text><rect fill="none" height="6" style="stroke:#C82930;stroke-width:1.0;" width="6" x="268.5" y="630.4297"/><text fill="#000000" font-family="sans-serif" font-size="14" lengthAdjust="spacing" textLength="216" x="280.5" y="636.7764">_eventOnBalloonClick : Generic</text><rect fill="none" height="6" style="stroke:#C82930;stroke-width:1.0;" width="6" x="268.5" y="646.7266"/><text fill="#000000" font-family="sans-serif" font-size="14" lengthAdjust="spacing" textLength="160" x="280.5" y="653.0732">_eventOnBlur : Generic</text><rect fill="none" height="6" style="stroke:#C82930;stroke-width:1.0;" width="6" x="268.5" y="663.0234"/><text fill="#000000" font-family="sans-serif" font-size="14" lengthAdjust="spacing" textLength="165" x="280.5" y="669.3701">_eventOnClick : Generic</text><rect fill="none" height="6" style="stroke:#C82930;stroke-width:1.0;" width="6" x="268.5" y="679.3203"/><text fill="#000000" font-family="sans-serif" font-size="14" lengthAdjust="spacing" textLength="175" x="280.5" y="685.667">_eventOnFocus : Generic</text><rect fill="none" height="6" style="stroke:#C82930;stroke-width:1.0;" width="6" x="268.5" y="695.6172"/><text fill="#000000" font-family="sans-serif" font-size="14" lengthAdjust="spacing" textLength="197" x="280.5" y="701.9639">_eventOnKeypress : Generic</text><rect fill="none" height="6" style="stroke:#C82930;stroke-width:1.0;" width="6" x="268.5" y="711.9141"/><text fill="#000000" font-family="sans-serif" font-size="14" lengthAdjust="spacing" textLength="240" x="280.5" y="718.2607">_eventOnOpenedBalloon : Generic</text><rect fill="none" height="6" style="stroke:#C82930;stroke-width:1.0;" width="6" x="268.5" y="728.2109"/><text fill="#000000" font-family="sans-serif" font-size="14" lengthAdjust="spacing" textLength="219" x="280.5" y="734.5576">_eventOnScreenScroll : Generic</text><rect fill="none" height="6" style="stroke:#C82930;stroke-width:1.0;" width="6" x="268.5" y="744.5078"/><text fill="#000000" font-family="sans-serif" font-size="14" lengthAdjust="spacing" textLength="234" x="280.5" y="750.8545">_eventOnWindowResize : Generic</text><rect fill="none" height="6" style="stroke:#C82930;stroke-width:1.0;" width="6" x="268.5" y="760.8047"/><text fill="#000000" font-family="sans-serif" font-size="14" lengthAdjust="spacing" textLength="279" x="280.5" y="767.1514">_focusManagerInstance : FocusManager</text><rect fill="none" height="6" style="stroke:#C82930;stroke-width:1.0;" width="6" x="268.5" y="777.1016"/><text fill="#000000" font-family="sans-serif" font-size="14" lengthAdjust="spacing" textLength="310" x="280.5" y="783.4482">_intersectionObserver : IntersectionObserver</text><rect fill="none" height="6" style="stroke:#C82930;stroke-width:1.0;" width="6" x="268.5" y="793.3984"/><text fill="#000000" font-family="sans-serif" font-size="14" lengthAdjust="spacing" textLength="280" x="280.5" y="799.7451">_isBalloonWrapperMouseEnter : boolean</text><rect fill="none" height="6" style="stroke:#C82930;stroke-width:1.0;" width="6" x="268.5" y="809.6953"/><text fill="#000000" font-family="sans-serif" font-size="14" lengthAdjust="spacing" textLength="200" x="280.5" y="816.042">_isIconMouseEnter : boolean</text><rect fill="none" height="6" style="stroke:#C82930;stroke-width:1.0;" width="6" x="268.5" y="825.9922"/><text fill="#000000" font-family="sans-serif" font-size="14" lengthAdjust="spacing" textLength="125" x="280.5" y="832.3389">_isOpen : boolean</text><rect fill="none" height="6" style="stroke:#C82930;stroke-width:1.0;" width="6" x="268.5" y="842.2891"/><text fill="#000000" font-family="sans-serif" font-size="14" lengthAdjust="spacing" textLength="181" x="280.5" y="848.6357">_isOpenedByApi : boolean</text><rect fill="none" height="6" style="stroke:#C82930;stroke-width:1.0;" width="6" x="268.5" y="858.5859"/><text fill="#000000" font-family="sans-serif" font-size="14" lengthAdjust="spacing" textLength="124" x="280.5" y="864.9326">_isSafari : boolean</text><rect fill="none" height="6" style="stroke:#C82930;stroke-width:1.0;" width="6" x="268.5" y="874.8828"/><text fill="#000000" font-family="sans-serif" font-size="14" lengthAdjust="spacing" textLength="314" x="280.5" y="881.2295">_platformEventOnToggleCallback : OSGeneric</text><rect fill="none" height="6" style="stroke:#C82930;stroke-width:1.0;" width="6" x="268.5" y="891.1797"/><text fill="#000000" font-family="sans-serif" font-size="14" lengthAdjust="spacing" textLength="288" x="280.5" y="897.5264">_requestAnimationOnBodyScroll : number</text><rect fill="none" height="6" style="stroke:#C82930;stroke-width:1.0;" width="6" x="268.5" y="907.4766"/><text fill="#000000" font-family="sans-serif" font-size="14" lengthAdjust="spacing" textLength="317" x="280.5" y="913.8232">_requestAnimationOnWindowResize : number</text><rect fill="none" height="6" style="stroke:#C82930;stroke-width:1.0;" width="6" x="268.5" y="923.7734"/><text fill="#000000" font-family="sans-serif" font-size="14" lengthAdjust="spacing" textLength="305" x="280.5" y="930.1201">_selfElementBoundingClientRect : DOMRect</text><rect fill="none" height="6" style="stroke:#C82930;stroke-width:1.0;" width="6" x="268.5" y="940.0703"/><text fill="#000000" font-family="sans-serif" font-size="14" lengthAdjust="spacing" textLength="340" x="280.5" y="946.417">_tooltipBalloonContentActiveElem : HTMLElement</text><rect fill="none" height="6" style="stroke:#C82930;stroke-width:1.0;" width="6" x="268.5" y="956.3672"/><text fill="#000000" font-family="sans-serif" font-size="14" lengthAdjust="spacing" textLength="299" x="280.5" y="962.7139">_tooltipBalloonContentElem : HTMLElement</text><rect fill="none" height="6" style="stroke:#C82930;stroke-width:1.0;" width="6" x="268.5" y="972.6641"/><text fill="#000000" font-family="sans-serif" font-size="14" lengthAdjust="spacing" textLength="245" x="280.5" y="979.0107">_tooltipBalloonPositionClass : string</text><rect fill="none" height="6" style="stroke:#C82930;stroke-width:1.0;" width="6" x="268.5" y="988.9609"/><text fill="#000000" font-family="sans-serif" font-size="14" lengthAdjust="spacing" textLength="301" x="280.5" y="995.3076">_tooltipBalloonWrapperElem : HTMLElement</text><rect fill="none" height="6" style="stroke:#C82930;stroke-width:1.0;" width="6" x="268.5" y="1005.2578"/><text fill="#000000" font-family="sans-serif" font-size="14" lengthAdjust="spacing" textLength="221" x="280.5" y="1011.6045">_tooltipIconElem : HTMLElement</text><line style="stroke:#272B30;stroke-width:0.5;" x1="261.5" x2="939.5" y1="1018.9063" y2="1018.9063"/><ellipse cx="271.5" cy="1032.5547" fill="#84BE84" rx="3" ry="3" style="stroke:#038048;stroke-width:1.0;"/><text fill="#000000" font-family="sans-serif" font-size="14" lengthAdjust="spacing" textLength="84" x="280.5" y="1035.9014">build() : void</text><ellipse cx="271.5" cy="1048.8516" fill="#84BE84" rx="3" ry="3" style="stroke:#038048;stroke-width:1.0;"/><text fill="#000000" font-family="sans-serif" font-size="14" lengthAdjust="spacing" textLength="484" x="280.5" y="1052.1982">changeProperty(propertyName: string, propertyValue: unknown) : void</text><ellipse cx="271.5" cy="1065.1484" fill="#84BE84" rx="3" ry="3" style="stroke:#038048;stroke-width:1.0;"/><text fill="#000000" font-family="sans-serif" font-size="14" lengthAdjust="spacing" textLength="88" x="280.5" y="1068.4951">close() : void</text><ellipse cx="271.5" cy="1081.4453" fill="#84BE84" rx="3" ry="3" style="stroke:#038048;stroke-width:1.0;"/><text fill="#000000" font-family="sans-serif" font-size="14" lengthAdjust="spacing" textLength="106" x="280.5" y="1084.792">dispose() : void</text><ellipse cx="271.5" cy="1097.7422" fill="#84BE84" rx="3" ry="3" style="stroke:#038048;stroke-width:1.0;"/><text fill="#000000" font-family="sans-serif" font-size="14" lengthAdjust="spacing" textLength="267" x="280.5" y="1101.0889">equalsToID(patternId: string) : boolean</text><ellipse cx="271.5" cy="1114.0391" fill="#84BE84" rx="3" ry="3" style="stroke:#038048;stroke-width:1.0;"/><text fill="#000000" font-family="sans-serif" font-size="14" lengthAdjust="spacing" textLength="87" x="280.5" y="1117.3857">open() : void</text><ellipse cx="271.5" cy="1130.3359" fill="#84BE84" rx="3" ry="3" style="stroke:#038048;stroke-width:1.0;"/><text fill="#000000" font-family="sans-serif" font-size="14" lengthAdjust="spacing" textLength="434" x="280.5" y="1133.6826">registerCallback(eventName: string, callback: OSGeneric) : void</text><polygon fill="#FFFF44" points="271.5,1141.6328,275.5,1145.6328,271.5,1149.6328,267.5,1145.6328" style="stroke:#B38D22;stroke-width:1.0;"/><text fill="#000000" font-family="sans-serif" font-size="14" lengthAdjust="spacing" textLength="121" x="280.5" y="1149.9795">finishBuild() : void</text><polygon fill="#FFFF44" points="271.5,1157.9297,275.5,1161.9297,271.5,1165.9297,267.5,1161.9297" style="stroke:#B38D22;stroke-width:1.0;"/><text fill="#000000" font-family="sans-serif" font-size="14" lengthAdjust="spacing" textLength="180" x="280.5" y="1166.2764">setA11YProperties() : void</text><polygon fill="#FFFF44" points="271.5,1174.2266,275.5,1178.2266,271.5,1182.2266,267.5,1178.2266" style="stroke:#B38D22;stroke-width:1.0;"/><text fill="#000000" font-family="sans-serif" font-size="14" lengthAdjust="spacing" textLength="138" x="280.5" y="1182.5732">setCallbacks() : void</text><polygon fill="#FFFF44" points="271.5,1190.5234,275.5,1194.5234,271.5,1198.5234,267.5,1194.5234" style="stroke:#B38D22;stroke-width:1.0;"/><text fill="#000000" font-family="sans-serif" font-size="14" lengthAdjust="spacing" textLength="169" x="280.5" y="1198.8701">setHtmlElements() : void</text><polygon fill="#FFFF44" points="271.5,1206.8203,275.5,1210.8203,271.5,1214.8203,267.5,1210.8203" style="stroke:#B38D22;stroke-width:1.0;"/><text fill="#000000" font-family="sans-serif" font-size="14" lengthAdjust="spacing" textLength="569" x="280.5" y="1215.167">triggerPlatformEventCallback(platFormCallback: OSGeneric, args: unknown[]) : void</text><polygon fill="#FFFF44" points="271.5,1223.1172,275.5,1227.1172,271.5,1231.1172,267.5,1227.1172" style="stroke:#B38D22;stroke-width:1.0;"/><text fill="#000000" font-family="sans-serif" font-size="14" lengthAdjust="spacing" textLength="311" x="280.5" y="1231.4639">triggerPlatformInitializedEventCallback() : void</text><polygon fill="#FFFF44" points="271.5,1239.4141,275.5,1243.4141,271.5,1247.4141,267.5,1243.4141" style="stroke:#B38D22;stroke-width:1.0;"/><text fill="#000000" font-family="sans-serif" font-size="14" lengthAdjust="spacing" textLength="156" x="280.5" y="1247.7607">unsetCallbacks() : void</text><polygon fill="#FFFF44" points="271.5,1255.7109,275.5,1259.7109,271.5,1263.7109,267.5,1259.7109" style="stroke:#B38D22;stroke-width:1.0;"/><text fill="#000000" font-family="sans-serif" font-size="14" lengthAdjust="spacing" textLength="199" x="280.5" y="1264.0576">unsetGlobalCallbacks() : void</text><polygon fill="#FFFF44" points="271.5,1272.0078,275.5,1276.0078,271.5,1280.0078,267.5,1276.0078" style="stroke:#B38D22;stroke-width:1.0;"/><text fill="#000000" font-family="sans-serif" font-size="14" lengthAdjust="spacing" textLength="187" x="280.5" y="1280.3545">unsetHtmlElements() : void</text><rect fill="#F24D5C" height="6" style="stroke:#C82930;stroke-width:1.0;" width="6" x="268.5" y="1290.3047"/><text fill="#000000" font-family="sans-serif" font-size="14" lengthAdjust="spacing" textLength="204" x="280.5" y="1296.6514">_moveBalloonElement() : void</text><rect fill="#F24D5C" height="6" style="stroke:#C82930;stroke-width:1.0;" width="6" x="268.5" y="1306.6016"/><text fill="#000000" font-family="sans-serif" font-size="14" lengthAdjust="spacing" textLength="263" x="280.5" y="1312.9482">_onBalloonClick(e: MouseEvent) : void</text><rect fill="#F24D5C" height="6" style="stroke:#C82930;stroke-width:1.0;" width="6" x="268.5" y="1322.8984"/><text fill="#000000" font-family="sans-serif" font-size="14" lengthAdjust="spacing" textLength="269" x="280.5" y="1329.2451">_onBalloonWrapperMouseEnter() : void</text><rect fill="#F24D5C" height="6" style="stroke:#C82930;stroke-width:1.0;" width="6" x="268.5" y="1339.1953"/><text fill="#000000" font-family="sans-serif" font-size="14" lengthAdjust="spacing" textLength="272" x="280.5" y="1345.542">_onBalloonWrapperMouseLeave() : void</text><rect fill="#F24D5C" height="6" style="stroke:#C82930;stroke-width:1.0;" width="6" x="268.5" y="1355.4922"/><text fill="#000000" font-family="sans-serif" font-size="14" lengthAdjust="spacing" textLength="103" x="280.5" y="1361.8389">_onBlur() : void</text><rect fill="#F24D5C" height="6" style="stroke:#C82930;stroke-width:1.0;" width="6" x="268.5" y="1371.7891"/><text fill="#000000" font-family="sans-serif" font-size="14" lengthAdjust="spacing" textLength="212" x="280.5" y="1378.1357">_onClick(e: MouseEvent) : void</text><rect fill="#F24D5C" height="6" style="stroke:#C82930;stroke-width:1.0;" width="6" x="268.5" y="1388.0859"/><text fill="#000000" font-family="sans-serif" font-size="14" lengthAdjust="spacing" textLength="118" x="280.5" y="1394.4326">_onFocus() : void</text><rect fill="#F24D5C" height="6" style="stroke:#C82930;stroke-width:1.0;" width="6" x="268.5" y="1404.3828"/><text fill="#000000" font-family="sans-serif" font-size="14" lengthAdjust="spacing" textLength="189" x="280.5" y="1410.7295">_onIconMouseEnter() : void</text><rect fill="#F24D5C" height="6" style="stroke:#C82930;stroke-width:1.0;" width="6" x="268.5" y="1420.6797"/><text fill="#000000" font-family="sans-serif" font-size="14" lengthAdjust="spacing" textLength="192" x="280.5" y="1427.0264">_onIconMouseLeave() : void</text><rect fill="#F24D5C" height="6" style="stroke:#C82930;stroke-width:1.0;" width="6" x="268.5" y="1436.9766"/><text fill="#000000" font-family="sans-serif" font-size="14" lengthAdjust="spacing" textLength="318" x="280.5" y="1443.3232">_onkeypressCallback(e: KeyboardEvent) : void</text><rect fill="#F24D5C" height="6" style="stroke:#C82930;stroke-width:1.0;" width="6" x="268.5" y="1453.2734"/><text fill="#000000" font-family="sans-serif" font-size="14" lengthAdjust="spacing" textLength="183" x="280.5" y="1459.6201">_onOpenedBalloon() : void</text><rect fill="#F24D5C" height="6" style="stroke:#C82930;stroke-width:1.0;" width="6" x="268.5" y="1469.5703"/><text fill="#000000" font-family="sans-serif" font-size="14" lengthAdjust="spacing" textLength="162" x="280.5" y="1475.917">_onScreenScroll() : void</text><rect fill="#F24D5C" height="6" style="stroke:#C82930;stroke-width:1.0;" width="6" x="268.5" y="1485.8672"/><text fill="#000000" font-family="sans-serif" font-size="14" lengthAdjust="spacing" textLength="177" x="280.5" y="1492.2139">_onWindowResize() : void</text><rect fill="#F24D5C" height="6" style="stroke:#C82930;stroke-width:1.0;" width="6" x="268.5" y="1502.1641"/><text fill="#000000" font-family="sans-serif" font-size="14" lengthAdjust="spacing" textLength="215" x="280.5" y="1508.5107">_setBalloonCoordinates() : void</text><rect fill="#F24D5C" height="6" style="stroke:#C82930;stroke-width:1.0;" width="6" x="268.5" y="1518.4609"/><text fill="#000000" font-family="sans-serif" font-size="14" lengthAdjust="spacing" textLength="564" x="280.5" y="1524.8076">_setBalloonPosition(isIntersecting: boolean, boundingClientRect: DOMRect) : void</text><rect fill="#F24D5C" height="6" style="stroke:#C82930;stroke-width:1.0;" width="6" x="268.5" y="1534.7578"/><text fill="#000000" font-family="sans-serif" font-size="14" lengthAdjust="spacing" textLength="654" x="280.5" y="1541.1045">_setBalloonWrapperExtendedClass(newExtendedClass: string, preExtendedClass: string) : void</text><rect fill="#F24D5C" height="6" style="stroke:#C82930;stroke-width:1.0;" width="6" x="268.5" y="1551.0547"/><text fill="#000000" font-family="sans-serif" font-size="14" lengthAdjust="spacing" textLength="160" x="280.5" y="1557.4014">_setCssClasses() : void</text><rect fill="#F24D5C" height="6" style="stroke:#C82930;stroke-width:1.0;" width="6" x="268.5" y="1567.3516"/><text fill="#000000" font-family="sans-serif" font-size="14" lengthAdjust="spacing" textLength="143" x="280.5" y="1573.6982">_setObserver() : void</text><rect fill="#F24D5C" height="6" style="stroke:#C82930;stroke-width:1.0;" width="6" x="268.5" y="1583.6484"/><text fill="#000000" font-family="sans-serif" font-size="14" lengthAdjust="spacing" textLength="146" x="280.5" y="1589.9951">_setUpEvents() : void</text><rect fill="#F24D5C" height="6" style="stroke:#C82930;stroke-width:1.0;" width="6" x="268.5" y="1599.9453"/><text fill="#000000" font-family="sans-serif" font-size="14" lengthAdjust="spacing" textLength="142" x="280.5" y="1606.292">_triggerClose() : void</text><rect fill="#F24D5C" height="6" style="stroke:#C82930;stroke-width:1.0;" width="6" x="268.5" y="1616.2422"/><text fill="#000000" font-family="sans-serif" font-size="14" lengthAdjust="spacing" textLength="141" x="280.5" y="1622.5889">_triggerOpen() : void</text><rect fill="#F24D5C" height="6" style="stroke:#C82930;stroke-width:1.0;" width="6" x="268.5" y="1632.5391"/><text fill="#000000" font-family="sans-serif" font-size="14" lengthAdjust="spacing" textLength="145" x="280.5" y="1638.8857">_unsetEvents() : void</text><rect fill="#F24D5C" height="6" style="stroke:#C82930;stroke-width:1.0;" width="6" x="268.5" y="1648.8359"/><text fill="#000000" font-family="sans-serif" font-size="14" lengthAdjust="spacing" textLength="161" x="280.5" y="1655.1826">_unsetObserver() : void</text><rect fill="#F24D5C" height="6" style="stroke:#C82930;stroke-width:1.0;" width="6" x="268.5" y="1665.1328"/><text fill="#000000" font-family="sans-serif" font-size="14" lengthAdjust="spacing" textLength="158" x="280.5" y="1671.4795">_updateIsHover() : void</text><rect fill="#F24D5C" height="6" style="stroke:#C82930;stroke-width:1.0;" width="6" x="268.5" y="1681.4297"/><text fill="#000000" font-family="sans-serif" font-size="14" lengthAdjust="spacing" textLength="162" x="280.5" y="1687.7764">_updateIsVisible() : void</text></g><!--class AbstractPattern<TooltipConfig>--><g id="elem_AbstractPattern&lt;TooltipConfig&gt;"><rect codeLine="80" fill="#FFFFFF" height="422.8281" id="AbstractPattern&lt;TooltipConfig&gt;" rx="2.5" ry="2.5" style="stroke:#272B30;stroke-width:0.5;" width="595" x="9" y="7"/><ellipse cx="191.75" cy="23" fill="#A9DCDF" rx="11" ry="11" style="stroke:#181818;stroke-width:1.0;"/><path d="M191.8594,18.3438 L190.7031,23.4219 L193.0313,23.4219 L191.8594,18.3438 Z M190.375,16.1094 L193.3594,16.1094 L196.7188,28.5 L194.2656,28.5 L193.5,25.4375 L190.2188,25.4375 L189.4688,28.5 L187.0313,28.5 L190.375,16.1094 Z " fill="#000000"/><text fill="#000000" font-family="sans-serif" font-size="14" font-style="italic" lengthAdjust="spacing" textLength="221" x="212.25" y="27.8467">AbstractPattern&lt;TooltipConfig&gt;</text><line style="stroke:#272B30;stroke-width:0.5;" x1="10" x2="603" y1="39" y2="39"/><polygon fill="none" points="20,47.6484,24,51.6484,20,55.6484,16,51.6484" style="stroke:#B38D22;stroke-width:1.0;"/><text fill="#000000" font-family="sans-serif" font-size="14" lengthAdjust="spacing" textLength="180" x="29" y="55.9951">isProviderBased : boolean</text><rect fill="none" height="6" style="stroke:#C82930;stroke-width:1.0;" width="6" x="17" y="65.9453"/><text fill="#000000" font-family="sans-serif" font-size="14" lengthAdjust="spacing" textLength="161" x="29" y="72.292">_configs : TooltipConfig</text><rect fill="none" height="6" style="stroke:#C82930;stroke-width:1.0;" width="6" x="17" y="82.2422"/><text fill="#000000" font-family="sans-serif" font-size="14" lengthAdjust="spacing" textLength="117" x="29" y="88.5889">_isBuilt : boolean</text><rect fill="none" height="6" style="stroke:#C82930;stroke-width:1.0;" width="6" x="17" y="98.5391"/><text fill="#000000" font-family="sans-serif" font-size="14" lengthAdjust="spacing" textLength="252" x="29" y="104.8857">_platformEventInitialized : OSGeneric</text><rect fill="none" height="6" style="stroke:#C82930;stroke-width:1.0;" width="6" x="17" y="114.8359"/><text fill="#000000" font-family="sans-serif" font-size="14" lengthAdjust="spacing" textLength="173" x="29" y="121.1826">_selfElem : HTMLElement</text><rect fill="none" height="6" style="stroke:#C82930;stroke-width:1.0;" width="6" x="17" y="131.1328"/><text fill="#000000" font-family="sans-serif" font-size="14" lengthAdjust="spacing" textLength="119" x="29" y="137.4795">_uniqueId : string</text><rect fill="none" height="6" style="stroke:#C82930;stroke-width:1.0;" width="6" x="17" y="147.4297"/><text fill="#000000" font-family="sans-serif" font-size="14" lengthAdjust="spacing" textLength="117" x="29" y="153.7764">_widgetId : string</text><line style="stroke:#272B30;stroke-width:0.5;" x1="10" x2="603" y1="161.0781" y2="161.0781"/><ellipse cx="20" cy="174.7266" fill="#84BE84" rx="3" ry="3" style="stroke:#038048;stroke-width:1.0;"/><text fill="#000000" font-family="sans-serif" font-size="14" lengthAdjust="spacing" textLength="84" x="29" y="178.0732">build() : void</text><ellipse cx="20" cy="191.0234" fill="#84BE84" rx="3" ry="3" style="stroke:#038048;stroke-width:1.0;"/><text fill="#000000" font-family="sans-serif" font-size="14" lengthAdjust="spacing" textLength="484" x="29" y="194.3701">changeProperty(propertyName: string, propertyValue: unknown) : void</text><ellipse cx="20" cy="207.3203" fill="#84BE84" rx="3" ry="3" style="stroke:#038048;stroke-width:1.0;"/><text fill="#000000" font-family="sans-serif" font-size="14" lengthAdjust="spacing" textLength="106" x="29" y="210.667">dispose() : void</text><ellipse cx="20" cy="223.6172" fill="#84BE84" rx="3" ry="3" style="stroke:#038048;stroke-width:1.0;"/><text fill="#000000" font-family="sans-serif" font-size="14" lengthAdjust="spacing" textLength="267" x="29" y="226.9639">equalsToID(patternId: string) : boolean</text><ellipse cx="20" cy="239.9141" fill="#84BE84" rx="3" ry="3" style="stroke:#038048;stroke-width:1.0;"/><text fill="#000000" font-family="sans-serif" font-size="14" lengthAdjust="spacing" textLength="434" x="29" y="243.2607">registerCallback(eventName: string, callback: OSGeneric) : void</text><polygon fill="#FFFF44" points="20,251.2109,24,255.2109,20,259.2109,16,255.2109" style="stroke:#B38D22;stroke-width:1.0;"/><text fill="#000000" font-family="sans-serif" font-size="14" lengthAdjust="spacing" textLength="121" x="29" y="259.5576">finishBuild() : void</text><polygon fill="#FFFF44" points="20,267.5078,24,271.5078,20,275.5078,16,271.5078" style="stroke:#B38D22;stroke-width:1.0;"/><text fill="#000000" font-family="sans-serif" font-size="14" font-style="italic" lengthAdjust="spacing" textLength="179" x="29" y="275.8545">setA11YProperties() : void</text><polygon fill="#FFFF44" points="20,283.8047,24,287.8047,20,291.8047,16,287.8047" style="stroke:#B38D22;stroke-width:1.0;"/><text fill="#000000" font-family="sans-serif" font-size="14" font-style="italic" lengthAdjust="spacing" textLength="137" x="29" y="292.1514">setCallbacks() : void</text><polygon fill="#FFFF44" points="20,300.1016,24,304.1016,20,308.1016,16,304.1016" style="stroke:#B38D22;stroke-width:1.0;"/><text fill="#000000" font-family="sans-serif" font-size="14" font-style="italic" lengthAdjust="spacing" textLength="169" x="29" y="308.4482">setHtmlElements() : void</text><polygon fill="#FFFF44" points="20,316.3984,24,320.3984,20,324.3984,16,320.3984" style="stroke:#B38D22;stroke-width:1.0;"/><text fill="#000000" font-family="sans-serif" font-size="14" lengthAdjust="spacing" textLength="569" x="29" y="324.7451">triggerPlatformEventCallback(platFormCallback: OSGeneric, args: unknown[]) : void</text><polygon fill="#FFFF44" points="20,332.6953,24,336.6953,20,340.6953,16,336.6953" style="stroke:#B38D22;stroke-width:1.0;"/><text fill="#000000" font-family="sans-serif" font-size="14" lengthAdjust="spacing" textLength="311" x="29" y="341.042">triggerPlatformInitializedEventCallback() : void</text><polygon fill="#FFFF44" points="20,348.9922,24,352.9922,20,356.9922,16,352.9922" style="stroke:#B38D22;stroke-width:1.0;"/><text fill="#000000" font-family="sans-serif" font-size="14" font-style="italic" lengthAdjust="spacing" textLength="155" x="29" y="357.3389">unsetCallbacks() : void</text><polygon fill="#FFFF44" points="20,365.2891,24,369.2891,20,373.2891,16,369.2891" style="stroke:#B38D22;stroke-width:1.0;"/><text fill="#000000" font-family="sans-serif" font-size="14" lengthAdjust="spacing" textLength="199" x="29" y="373.6357">unsetGlobalCallbacks() : void</text><polygon fill="#FFFF44" points="20,381.5859,24,385.5859,20,389.5859,16,385.5859" style="stroke:#B38D22;stroke-width:1.0;"/><text fill="#000000" font-family="sans-serif" font-size="14" font-style="italic" lengthAdjust="spacing" textLength="187" x="29" y="389.9326">unsetHtmlElements() : void</text><rect fill="#F24D5C" height="6" style="stroke:#C82930;stroke-width:1.0;" width="6" x="17" y="399.8828"/><text fill="#000000" font-family="sans-serif" font-size="14" lengthAdjust="spacing" textLength="239" x="29" y="406.2295">_setCommonHtmlElements() : void</text><rect fill="#F24D5C" height="6" style="stroke:#C82930;stroke-width:1.0;" width="6" x="17" y="416.1797"/><text fill="#000000" font-family="sans-serif" font-size="14" lengthAdjust="spacing" textLength="257" x="29" y="422.5264">_unsetCommonHtmlElements() : void</text></g><!--class ITooltip--><g id="elem_ITooltip"><rect codeLine="106" fill="#FFFFFF" height="243.5625" id="ITooltip" rx="2.5" ry="2.5" style="stroke:#272B30;stroke-width:0.5;" width="510" x="639.5" y="96.5"/><ellipse cx="864.75" cy="112.5" fill="#B4A7E5" rx="11" ry="11" style="stroke:#181818;stroke-width:1.0;"/><path d="M860.6719,108.2656 L860.6719,106.1094 L868.0625,106.1094 L868.0625,108.2656 L865.5938,108.2656 L865.5938,116.3438 L868.0625,116.3438 L868.0625,118.5 L860.6719,118.5 L860.6719,116.3438 L863.1406,116.3438 L863.1406,108.2656 L860.6719,108.2656 Z " fill="#000000"/><text fill="#000000" font-family="sans-serif" font-size="14" font-style="italic" lengthAdjust="spacing" textLength="51" x="885.25" y="117.3467">ITooltip</text><line style="stroke:#272B30;stroke-width:0.5;" x1="640.5" x2="1148.5" y1="128.5" y2="128.5"/><ellipse cx="650.5" cy="142.1484" fill="none" rx="3" ry="3" style="stroke:#038048;stroke-width:1.0;"/><text fill="#000000" font-family="sans-serif" font-size="14" lengthAdjust="spacing" textLength="110" x="659.5" y="145.4951">isBuilt : boolean</text><ellipse cx="650.5" cy="158.4453" fill="none" rx="3" ry="3" style="stroke:#038048;stroke-width:1.0;"/><text fill="#000000" font-family="sans-serif" font-size="14" lengthAdjust="spacing" textLength="118" x="659.5" y="161.792">isOpen : boolean</text><ellipse cx="650.5" cy="174.7422" fill="none" rx="3" ry="3" style="stroke:#038048;stroke-width:1.0;"/><text fill="#000000" font-family="sans-serif" font-size="14" lengthAdjust="spacing" textLength="189" x="659.5" y="178.0889">selfElement : HTMLElement</text><ellipse cx="650.5" cy="191.0391" fill="none" rx="3" ry="3" style="stroke:#038048;stroke-width:1.0;"/><text fill="#000000" font-family="sans-serif" font-size="14" lengthAdjust="spacing" textLength="112" x="659.5" y="194.3857">uniqueId : string</text><ellipse cx="650.5" cy="207.3359" fill="none" rx="3" ry="3" style="stroke:#038048;stroke-width:1.0;"/><text fill="#000000" font-family="sans-serif" font-size="14" lengthAdjust="spacing" textLength="110" x="659.5" y="210.6826">widgetId : string</text><line style="stroke:#272B30;stroke-width:0.5;" x1="640.5" x2="1148.5" y1="217.9844" y2="217.9844"/><ellipse cx="650.5" cy="231.6328" fill="#84BE84" rx="3" ry="3" style="stroke:#038048;stroke-width:1.0;"/><text fill="#000000" font-family="sans-serif" font-size="14" lengthAdjust="spacing" textLength="84" x="659.5" y="234.9795">build() : void</text><ellipse cx="650.5" cy="247.9297" fill="#84BE84" rx="3" ry="3" style="stroke:#038048;stroke-width:1.0;"/><text fill="#000000" font-family="sans-serif" font-size="14" lengthAdjust="spacing" textLength="484" x="659.5" y="251.2764">changeProperty(propertyName: string, propertyValue: unknown) : void</text><ellipse cx="650.5" cy="264.2266" fill="#84BE84" rx="3" ry="3" style="stroke:#038048;stroke-width:1.0;"/><text fill="#000000" font-family="sans-serif" font-size="14" lengthAdjust="spacing" textLength="88" x="659.5" y="267.5732">close() : void</text><ellipse cx="650.5" cy="280.5234" fill="#84BE84" rx="3" ry="3" style="stroke:#038048;stroke-width:1.0;"/><text fill="#000000" font-family="sans-serif" font-size="14" lengthAdjust="spacing" textLength="106" x="659.5" y="283.8701">dispose() : void</text><ellipse cx="650.5" cy="296.8203" fill="#84BE84" rx="3" ry="3" style="stroke:#038048;stroke-width:1.0;"/><text fill="#000000" font-family="sans-serif" font-size="14" lengthAdjust="spacing" textLength="217" x="659.5" y="300.167">equalsToID(id: string) : boolean</text><ellipse cx="650.5" cy="313.1172" fill="#84BE84" rx="3" ry="3" style="stroke:#038048;stroke-width:1.0;"/><text fill="#000000" font-family="sans-serif" font-size="14" lengthAdjust="spacing" textLength="257" x="659.5" y="316.4639">open(isOpenedByApi: boolean) : void</text><ellipse cx="650.5" cy="329.4141" fill="#84BE84" rx="3" ry="3" style="stroke:#038048;stroke-width:1.0;"/><text fill="#000000" font-family="sans-serif" font-size="14" lengthAdjust="spacing" textLength="434" x="659.5" y="332.7607">registerCallback(eventName: string, callback: OSGeneric) : void</text></g><!--reverse link AbstractPattern<TooltipConfig> to Tooltip--><g id="link_AbstractPattern&lt;TooltipConfig&gt;_Tooltip"><path codeLine="105" d="M383.2335,447.0857 C389.6935,466.2357 390.67,469.14 397.59,489.66 " fill="none" id="AbstractPattern&lt;TooltipConfig&gt;-backto-Tooltip" style="stroke:#272B30;stroke-width:1.0;"/><polygon fill="none" points="377.48,430.03,377.5483,449.0035,388.9188,445.1679,377.48,430.03" style="stroke:#272B30;stroke-width:1.0;"/></g><!--reverse link ITooltip to Tooltip--><g id="link_ITooltip_Tooltip"><path codeLine="120" d="M847.8679,357.8062 C833.5079,400.3862 822.01,434.5 803.35,489.84 " fill="none" id="ITooltip-backto-Tooltip" style="stroke:#272B30;stroke-width:1.0;stroke-dasharray:7.0,7.0;"/><polygon fill="none" points="853.62,340.75,842.1825,355.8888,853.5532,359.7235,853.62,340.75" style="stroke:#272B30;stroke-width:1.0;"/></g><!--SRC=[rLTHRzis47xthn2I5nUEYxKRCA082jXkqXXhwg19Mmp3453YII5CaHf9sVFQ_FUTP4gMH4eEjXR3yX38Tn-FnplUVKUzPY8ZYgJ1WXEjPqh9xK9ogOBJbp-_37_yOQJRYBbK5DGmX4JhHCbSK0kBuxY1STGHq9ye6Jqm2W6acTa5APW7INLJ53FWA8cA3OAJEocvOTb9y6KKuDyfqpTARX2jvaG33Lu58IA0Y58zlIUHOHkuZHI0kE2GWZ28kRgxVcT_MHniy7jEE9TIV5Oaoq2jnBNCDLm80mhNl0K1YaL7yU-0RC2FNqPI7BVQG0tOMWcx-uApQDsBuRdgqmqkl9HHhlkKly0kKw1xzQiCfTJwrmVQvmJ_IyxxC9-Pe7Bx0JJxomr3NBXuJGH9G2s5DaH41UYo8RP8LWHR0ru5Z6oeGMtAs2yzucg5RkUsbRFs3MEwIDWWe8X7ZnZ3j9jbpAEz9J5HhYBZnCHIfHVx2Dt99E6mG6T3KcPpTTkEae8_Sj1c9bXAoeEAkQIxEkmYJyFwr2wsau0MMWEFRH7DYw9c8i4hXRy-O4WH_6PrNNnPjDaNRdLf9OPAc5bPdOKHRr5wrpmHVICrAyvGDYR4QwFGGI_KvlYOuIBDFPX9c3DEnyzGjP6CxcNH0n49O7j2ssOtpkp7Uv92vSvPK4a_4PwZE1Th8RUYOuXB3HtZbEdCbMB-2DTtSlbcd163br4iQRNNiyvLck36ehDUGS8qBglkqxYimxR7aTKrhbhBo6dC1DCFSpSYfnhCxCMBNsr866XNN-tiKLsPbDkWTxNeMeBbVjEiZVeCHSLSedJXEduM49NeEko__JveTYdmHX6EfK3RExHNvMBW7ANoBPSXuOEG_iDExrEv0NjrBQIBa2ro66FszlsfyBeFwdIwyLEG9KDvaCWxhlGftfJjsrtQxh43-Xw7rfQo3ZVxLO0q5agYgD-H5ecv1flqvMgRVREhnUpM7GrdAYQ80TqFgXhP68cc9YoHrCLyXX_TxbittrwhLS_x4rig1LfsoR60RKlGR5FWrRZs5nZZ0k4zKiMo7jN7h4o3iyhMuCBjWRLkvJIowNrPH7wBfQhFapoZc8wblf83oazCiv0tt7aSaH03WiDcOEVKcVrzis_3vtPkHGwBMVBwoUDhLE8B_cePE4mfs6NDy8pGw5gUyQ0YSI_nvOBXGB2aNVhSCfg0wSg_Bmb-0yBxlkpsfRe2ZqU9hWFj8O8Ewdz2Vqsl_oKJEgQ6IB7OIQQf54EWlKC3iCVHqSez_pgT7jwXe_9j4HDyUfmiEu_JYRy-9zu7mQGnJlicJ7yjJlwBKln7yoWxCeYsdaCruDkEfvZTGuxElpv_ViZZtm00]--></g></svg>