<?xml version="1.0" encoding="us-ascii" standalone="no"?><svg xmlns="http://www.w3.org/2000/svg" xmlns:xlink="http://www.w3.org/1999/xlink" contentStyleType="text/css" height="479px" preserveAspectRatio="none" style="width:634px;height:479px;background:#CED4DA;" version="1.1" viewBox="0 0 634 479" width="634px" zoomAndPan="magnify"><defs/><g><rect fill="#CED4DA" height="479" style="stroke:none;stroke-width:1.0;" width="634" x="0" y="0"/><!--class TouchEventsConfig--><g id="elem_TouchEventsConfig"><rect codeLine="7" fill="#FFFFFF" height="210.9688" id="TouchEventsConfig" rx="2.5" ry="2.5" style="stroke:#272B30;stroke-width:0.5;" width="618" x="9" y="262"/><ellipse cx="246.25" cy="278" fill="#ADD1B2" rx="11" ry="11" style="stroke:#181818;stroke-width:1.0;"/><path d="M249.2188,283.6406 Q248.6406,283.9375 248,284.0781 Q247.3594,284.2344 246.6563,284.2344 Q244.1563,284.2344 242.8281,282.5938 Q241.5156,280.9375 241.5156,277.8125 Q241.5156,274.6875 242.8281,273.0313 Q244.1563,271.375 246.6563,271.375 Q247.3594,271.375 248,271.5313 Q248.6563,271.6875 249.2188,271.9844 L249.2188,274.7031 Q248.5938,274.125 248,273.8594 Q247.4063,273.5781 246.7813,273.5781 Q245.4375,273.5781 244.75,274.6563 Q244.0625,275.7188 244.0625,277.8125 Q244.0625,279.9063 244.75,280.9844 Q245.4375,282.0469 246.7813,282.0469 Q247.4063,282.0469 248,281.7813 Q248.5938,281.5 249.2188,280.9219 L249.2188,283.6406 Z " fill="#000000"/><text fill="#000000" font-family="sans-serif" font-size="14" lengthAdjust="spacing" textLength="135" x="266.75" y="282.8467">TouchEventsConfig</text><line style="stroke:#272B30;stroke-width:0.5;" x1="10" x2="626" y1="294" y2="294"/><ellipse cx="20" cy="307.6484" fill="none" rx="3" ry="3" style="stroke:#038048;stroke-width:1.0;"/><text fill="#000000" font-family="sans-serif" font-size="14" lengthAdjust="spacing" textLength="155" x="29" y="310.9951">ExtendedClass : string</text><ellipse cx="20" cy="323.9453" fill="none" rx="3" ry="3" style="stroke:#038048;stroke-width:1.0;"/><text fill="#000000" font-family="sans-serif" font-size="14" lengthAdjust="spacing" textLength="112" x="29" y="327.292">WidgetId : string</text><line style="stroke:#272B30;stroke-width:0.5;" x1="10" x2="626" y1="334.5938" y2="334.5938"/><ellipse cx="20" cy="348.2422" fill="#84BE84" rx="3" ry="3" style="stroke:#038048;stroke-width:1.0;"/><text fill="#000000" font-family="sans-serif" font-size="14" lengthAdjust="spacing" textLength="412" x="29" y="351.5889">validateCanChange(_isBuilt: boolean, _key: string) : boolean</text><ellipse cx="20" cy="364.5391" fill="#84BE84" rx="3" ry="3" style="stroke:#038048;stroke-width:1.0;"/><text fill="#000000" font-family="sans-serif" font-size="14" lengthAdjust="spacing" textLength="384" x="29" y="367.8857">validateDefault(_key: string, value: unknown) : unknown</text><polygon fill="#FFFF44" points="20,375.8359,24,379.8359,20,383.8359,16,379.8359" style="stroke:#B38D22;stroke-width:1.0;"/><text fill="#000000" font-family="sans-serif" font-size="14" lengthAdjust="spacing" textLength="447" x="29" y="384.1826">validateBoolean(value: boolean, defaultValue: boolean) : boolean</text><polygon fill="#FFFF44" points="20,392.1328,24,396.1328,20,400.1328,16,396.1328" style="stroke:#B38D22;stroke-width:1.0;"/><text fill="#000000" font-family="sans-serif" font-size="14" lengthAdjust="spacing" textLength="464" x="29" y="400.4795">validateDate(value: string | Date, defaultValue: string) : string | Date</text><polygon fill="#FFFF44" points="20,408.4297,24,412.4297,20,416.4297,16,412.4297" style="stroke:#B38D22;stroke-width:1.0;"/><text fill="#000000" font-family="sans-serif" font-size="14" lengthAdjust="spacing" textLength="592" x="29" y="416.7764">validateInRange(value: unknown, defaultValue: unknown, args: unknown[]) : unknown</text><polygon fill="#FFFF44" points="20,424.7266,24,428.7266,20,432.7266,16,428.7266" style="stroke:#B38D22;stroke-width:1.0;"/><text fill="#000000" font-family="sans-serif" font-size="14" lengthAdjust="spacing" textLength="439" x="29" y="433.0732">validateNumber(value: number, defaultValue: number) : number</text><polygon fill="#FFFF44" points="20,441.0234,24,445.0234,20,449.0234,16,445.0234" style="stroke:#B38D22;stroke-width:1.0;"/><text fill="#000000" font-family="sans-serif" font-size="14" lengthAdjust="spacing" textLength="379" x="29" y="449.3701">validateString(value: string, defaultValue: string) : string</text><polygon fill="#FFFF44" points="20,457.3203,24,461.3203,20,465.3203,16,461.3203" style="stroke:#B38D22;stroke-width:1.0;"/><text fill="#000000" font-family="sans-serif" font-size="14" lengthAdjust="spacing" textLength="373" x="29" y="465.667">validateTime(value: string, defaultValue: string) : string</text></g><!--class AbstractConfiguration--><g id="elem_AbstractConfiguration"><rect codeLine="19" fill="#FFFFFF" height="194.6719" id="AbstractConfiguration" rx="2.5" ry="2.5" style="stroke:#272B30;stroke-width:0.5;" width="618" x="9" y="7"/><ellipse cx="239.25" cy="23" fill="#A9DCDF" rx="11" ry="11" style="stroke:#181818;stroke-width:1.0;"/><path d="M239.3594,18.3438 L238.2031,23.4219 L240.5313,23.4219 L239.3594,18.3438 Z M237.875,16.1094 L240.8594,16.1094 L244.2188,28.5 L241.7656,28.5 L241,25.4375 L237.7188,25.4375 L236.9688,28.5 L234.5313,28.5 L237.875,16.1094 Z " fill="#000000"/><text fill="#000000" font-family="sans-serif" font-size="14" font-style="italic" lengthAdjust="spacing" textLength="149" x="259.75" y="27.8467">AbstractConfiguration</text><line style="stroke:#272B30;stroke-width:0.5;" x1="10" x2="626" y1="39" y2="39"/><ellipse cx="20" cy="52.6484" fill="none" rx="3" ry="3" style="stroke:#038048;stroke-width:1.0;"/><text fill="#000000" font-family="sans-serif" font-size="14" lengthAdjust="spacing" textLength="155" x="29" y="55.9951">ExtendedClass : string</text><line style="stroke:#272B30;stroke-width:0.5;" x1="10" x2="626" y1="63.2969" y2="63.2969"/><ellipse cx="20" cy="76.9453" fill="#84BE84" rx="3" ry="3" style="stroke:#038048;stroke-width:1.0;"/><text fill="#000000" font-family="sans-serif" font-size="14" lengthAdjust="spacing" textLength="412" x="29" y="80.292">validateCanChange(_isBuilt: boolean, _key: string) : boolean</text><ellipse cx="20" cy="93.2422" fill="#84BE84" rx="3" ry="3" style="stroke:#038048;stroke-width:1.0;"/><text fill="#000000" font-family="sans-serif" font-size="14" lengthAdjust="spacing" textLength="384" x="29" y="96.5889">validateDefault(_key: string, value: unknown) : unknown</text><polygon fill="#FFFF44" points="20,104.5391,24,108.5391,20,112.5391,16,108.5391" style="stroke:#B38D22;stroke-width:1.0;"/><text fill="#000000" font-family="sans-serif" font-size="14" lengthAdjust="spacing" textLength="447" x="29" y="112.8857">validateBoolean(value: boolean, defaultValue: boolean) : boolean</text><polygon fill="#FFFF44" points="20,120.8359,24,124.8359,20,128.8359,16,124.8359" style="stroke:#B38D22;stroke-width:1.0;"/><text fill="#000000" font-family="sans-serif" font-size="14" lengthAdjust="spacing" textLength="464" x="29" y="129.1826">validateDate(value: string | Date, defaultValue: string) : string | Date</text><polygon fill="#FFFF44" points="20,137.1328,24,141.1328,20,145.1328,16,141.1328" style="stroke:#B38D22;stroke-width:1.0;"/><text fill="#000000" font-family="sans-serif" font-size="14" lengthAdjust="spacing" textLength="592" x="29" y="145.4795">validateInRange(value: unknown, defaultValue: unknown, args: unknown[]) : unknown</text><polygon fill="#FFFF44" points="20,153.4297,24,157.4297,20,161.4297,16,157.4297" style="stroke:#B38D22;stroke-width:1.0;"/><text fill="#000000" font-family="sans-serif" font-size="14" lengthAdjust="spacing" textLength="439" x="29" y="161.7764">validateNumber(value: number, defaultValue: number) : number</text><polygon fill="#FFFF44" points="20,169.7266,24,173.7266,20,177.7266,16,173.7266" style="stroke:#B38D22;stroke-width:1.0;"/><text fill="#000000" font-family="sans-serif" font-size="14" lengthAdjust="spacing" textLength="379" x="29" y="178.0732">validateString(value: string, defaultValue: string) : string</text><polygon fill="#FFFF44" points="20,186.0234,24,190.0234,20,194.0234,16,190.0234" style="stroke:#B38D22;stroke-width:1.0;"/><text fill="#000000" font-family="sans-serif" font-size="14" lengthAdjust="spacing" textLength="373" x="29" y="194.3701">validateTime(value: string, defaultValue: string) : string</text></g><!--reverse link AbstractConfiguration to TouchEventsConfig--><g id="link_AbstractConfiguration_TouchEventsConfig"><path codeLine="30" d="M318,220.32 C318,239.76 318,242.27 318,261.96 " fill="none" id="AbstractConfiguration-backto-TouchEventsConfig" style="stroke:#272B30;stroke-width:1.0;"/><polygon fill="none" points="318,202.32,312,220.32,324,220.32,318,202.32" style="stroke:#272B30;stroke-width:1.0;"/></g><!--SRC=[xPHDIyD048Rl-HL3UwdOWbH1A5xQj8TUF6ZHWqZPP2V9acItx4ThiVvtysqsMgtt1W8xxymyEnDUecB6DqII5Do4A3MLKknSaGW9_V7jsBk-SfHTCHEIelozXFXnA8NXj2eBWg1Lyotj8xsXn8aOHS1qe_UGeeu4LMqfO9XaYfzV0BsLC7wqs2BNoXKyO64FtXt8dil5cqPEaHQJm0IKbeo7PUwPqH3radRaBKaO9HfTmjs8y107QwPcXYLw0fuG2H8-X7MC-xhj0fg4JPXZG4oY1-tY8MHPWnCmFEPYn_FcwbWqz-lcMKaSLENDpRI4FbboTuI6Ci_U6b4E00V8nIxeQnMhpAOj-KFnGUmLkgX69Z9KJVZoUdJLUvDwA6igBw8kj5HpH7co2O_5pFQYVsre4rOinN_sVpZ4oux4rr3vS5h5fGcD99e9Vf8NpwOxc-v4qnrpsTrXDFhfL_W9]--></g></svg>