<?xml version="1.0" encoding="us-ascii" standalone="no"?><svg xmlns="http://www.w3.org/2000/svg" xmlns:xlink="http://www.w3.org/1999/xlink" contentStyleType="text/css" height="1192px" preserveAspectRatio="none" style="width:1155px;height:1192px;background:#CED4DA;" version="1.1" viewBox="0 0 1155 1192" width="1155px" zoomAndPan="magnify"><defs/><g><rect fill="#CED4DA" height="1192" style="stroke:none;stroke-width:1.0;" width="1155" x="0" y="0"/><!--class TouchEvents--><g id="elem_TouchEvents"><rect codeLine="7" fill="#FFFFFF" height="691.043" id="TouchEvents" rx="2.5" ry="2.5" style="stroke:#272B30;stroke-width:0.5;" width="596" x="302" y="494"/><ellipse cx="552.25" cy="510" fill="#ADD1B2" rx="11" ry="11" style="stroke:#181818;stroke-width:1.0;"/><path d="M554.7231,516.1431 Q554.1421,516.4419 553.5029,516.5913 Q552.8638,516.7407 552.1582,516.7407 Q549.6514,516.7407 548.3315,515.0889 Q547.0117,513.437 547.0117,510.3159 Q547.0117,507.1865 548.3315,505.5347 Q549.6514,503.8828 552.1582,503.8828 Q552.8638,503.8828 553.5112,504.0322 Q554.1587,504.1816 554.7231,504.4805 L554.7231,507.2031 Q554.0923,506.6221 553.4988,506.3523 Q552.9053,506.0825 552.2744,506.0825 Q550.9297,506.0825 550.2449,507.1492 Q549.5601,508.2158 549.5601,510.3159 Q549.5601,512.4077 550.2449,513.4744 Q550.9297,514.541 552.2744,514.541 Q552.9053,514.541 553.4988,514.2712 Q554.0923,514.0015 554.7231,513.4204 Z " fill="#000000"/><text fill="#000000" font-family="sans-serif" font-size="14" lengthAdjust="spacing" textLength="87" x="572.75" y="515.291">TouchEvents</text><line style="stroke:#272B30;stroke-width:0.5;" x1="303" x2="897" y1="526" y2="526"/><polygon fill="none" points="313,534.7441,317,538.7441,313,542.7441,309,538.7441" style="stroke:#B38D22;stroke-width:1.0;"/><text fill="#000000" font-family="sans-serif" font-size="14" lengthAdjust="spacing" textLength="176" x="322" y="543.5352">isProviderBased : boolean</text><rect fill="none" height="6" style="stroke:#C82930;stroke-width:1.0;" width="6" x="310" y="553.2324"/><text fill="#000000" font-family="sans-serif" font-size="14" lengthAdjust="spacing" textLength="132" x="322" y="560.0234">_currentX : number</text><rect fill="none" height="6" style="stroke:#C82930;stroke-width:1.0;" width="6" x="310" y="569.7207"/><text fill="#000000" font-family="sans-serif" font-size="14" lengthAdjust="spacing" textLength="132" x="322" y="576.5117">_currentY : number</text><rect fill="none" height="6" style="stroke:#C82930;stroke-width:1.0;" width="6" x="310" y="586.209"/><text fill="#000000" font-family="sans-serif" font-size="14" lengthAdjust="spacing" textLength="134" x="322" y="593">_endEvent : Generic</text><rect fill="none" height="6" style="stroke:#C82930;stroke-width:1.0;" width="6" x="310" y="602.6973"/><text fill="#000000" font-family="sans-serif" font-size="14" lengthAdjust="spacing" textLength="192" x="322" y="609.4883">_endEventCallback : Generic</text><rect fill="none" height="6" style="stroke:#C82930;stroke-width:1.0;" width="6" x="310" y="619.1855"/><text fill="#000000" font-family="sans-serif" font-size="14" lengthAdjust="spacing" textLength="202" x="322" y="625.9766">_eventMoveCallback : Generic</text><rect fill="none" height="6" style="stroke:#C82930;stroke-width:1.0;" width="6" x="310" y="635.6738"/><text fill="#000000" font-family="sans-serif" font-size="14" lengthAdjust="spacing" textLength="198" x="322" y="642.4648">_eventStartCallback : Generic</text><rect fill="none" height="6" style="stroke:#C82930;stroke-width:1.0;" width="6" x="310" y="652.1621"/><text fill="#000000" font-family="sans-serif" font-size="14" lengthAdjust="spacing" textLength="145" x="322" y="658.9531">_moveEvent : Generic</text><rect fill="none" height="6" style="stroke:#C82930;stroke-width:1.0;" width="6" x="310" y="668.6504"/><text fill="#000000" font-family="sans-serif" font-size="14" lengthAdjust="spacing" textLength="139" x="322" y="675.4414">_startEvent : Generic</text><rect fill="none" height="6" style="stroke:#C82930;stroke-width:1.0;" width="6" x="310" y="685.1387"/><text fill="#000000" font-family="sans-serif" font-size="14" lengthAdjust="spacing" textLength="138" x="322" y="691.9297">_startTime : number</text><rect fill="none" height="6" style="stroke:#C82930;stroke-width:1.0;" width="6" x="310" y="701.627"/><text fill="#000000" font-family="sans-serif" font-size="14" lengthAdjust="spacing" textLength="113" x="322" y="708.418">_startX : number</text><rect fill="none" height="6" style="stroke:#C82930;stroke-width:1.0;" width="6" x="310" y="718.1152"/><text fill="#000000" font-family="sans-serif" font-size="14" lengthAdjust="spacing" textLength="113" x="322" y="724.9063">_startY : number</text><rect fill="none" height="6" style="stroke:#C82930;stroke-width:1.0;" width="6" x="310" y="734.6035"/><text fill="#000000" font-family="sans-serif" font-size="14" lengthAdjust="spacing" textLength="145" x="322" y="741.3945">_timeTaken : number</text><rect fill="none" height="6" style="stroke:#C82930;stroke-width:1.0;" width="6" x="310" y="751.0918"/><text fill="#000000" font-family="sans-serif" font-size="14" lengthAdjust="spacing" textLength="191" x="322" y="757.8828">_touchingElement : boolean</text><rect fill="none" height="6" style="stroke:#C82930;stroke-width:1.0;" width="6" x="310" y="767.5801"/><text fill="#000000" font-family="sans-serif" font-size="14" lengthAdjust="spacing" textLength="230" x="322" y="774.3711">_trackableElement : HTMLElement</text><rect fill="none" height="6" style="stroke:#C82930;stroke-width:1.0;" width="6" x="310" y="784.0684"/><text fill="#000000" font-family="sans-serif" font-size="14" lengthAdjust="spacing" textLength="142" x="322" y="790.8594">_translateX : number</text><rect fill="none" height="6" style="stroke:#C82930;stroke-width:1.0;" width="6" x="310" y="800.5566"/><text fill="#000000" font-family="sans-serif" font-size="14" lengthAdjust="spacing" textLength="142" x="322" y="807.3477">_translateY : number</text><line style="stroke:#272B30;stroke-width:0.5;" x1="303" x2="897" y1="814.3008" y2="814.3008"/><ellipse cx="313" cy="828.0449" fill="#84BE84" rx="3" ry="3" style="stroke:#038048;stroke-width:1.0;"/><text fill="#000000" font-family="sans-serif" font-size="14" lengthAdjust="spacing" textLength="86" x="322" y="831.8359">build() : void</text><ellipse cx="313" cy="844.5332" fill="#84BE84" rx="3" ry="3" style="stroke:#038048;stroke-width:1.0;"/><text fill="#000000" font-family="sans-serif" font-size="14" lengthAdjust="spacing" textLength="482" x="322" y="848.3242">changeProperty(propertyName: string, propertyValue: unknown) : void</text><ellipse cx="313" cy="861.0215" fill="#84BE84" rx="3" ry="3" style="stroke:#038048;stroke-width:1.0;"/><text fill="#000000" font-family="sans-serif" font-size="14" lengthAdjust="spacing" textLength="104" x="322" y="864.8125">dispose() : void</text><ellipse cx="313" cy="877.5098" fill="#84BE84" rx="3" ry="3" style="stroke:#038048;stroke-width:1.0;"/><text fill="#000000" font-family="sans-serif" font-size="14" lengthAdjust="spacing" textLength="266" x="322" y="881.3008">equalsToID(patternId: string) : boolean</text><ellipse cx="313" cy="893.998" fill="#84BE84" rx="3" ry="3" style="stroke:#038048;stroke-width:1.0;"/><text fill="#000000" font-family="sans-serif" font-size="14" lengthAdjust="spacing" textLength="428" x="322" y="897.7891">registerCallback(eventName: string, callback: OSGeneric) : void</text><polygon fill="#FFFF44" points="313,905.4863,317,909.4863,313,913.4863,309,909.4863" style="stroke:#B38D22;stroke-width:1.0;"/><text fill="#000000" font-family="sans-serif" font-size="14" lengthAdjust="spacing" textLength="123" x="322" y="914.2773">finishBuild() : void</text><polygon fill="#FFFF44" points="313,921.9746,317,925.9746,313,929.9746,309,925.9746" style="stroke:#B38D22;stroke-width:1.0;"/><text fill="#000000" font-family="sans-serif" font-size="14" lengthAdjust="spacing" textLength="178" x="322" y="930.7656">setA11YProperties() : void</text><polygon fill="#FFFF44" points="313,938.4629,317,942.4629,313,946.4629,309,942.4629" style="stroke:#B38D22;stroke-width:1.0;"/><text fill="#000000" font-family="sans-serif" font-size="14" lengthAdjust="spacing" textLength="136" x="322" y="947.2539">setCallbacks() : void</text><polygon fill="#FFFF44" points="313,954.9512,317,958.9512,313,962.9512,309,958.9512" style="stroke:#B38D22;stroke-width:1.0;"/><text fill="#000000" font-family="sans-serif" font-size="14" lengthAdjust="spacing" textLength="165" x="322" y="963.7422">setHtmlElements() : void</text><polygon fill="#FFFF44" points="313,971.4395,317,975.4395,313,979.4395,309,975.4395" style="stroke:#B38D22;stroke-width:1.0;"/><text fill="#000000" font-family="sans-serif" font-size="14" lengthAdjust="spacing" textLength="570" x="322" y="980.2305">triggerPlatformEventCallback(platFormCallback: OSGeneric, args: unknown[]) : void</text><polygon fill="#FFFF44" points="313,987.9277,317,991.9277,313,995.9277,309,991.9277" style="stroke:#B38D22;stroke-width:1.0;"/><text fill="#000000" font-family="sans-serif" font-size="14" lengthAdjust="spacing" textLength="318" x="322" y="996.7188">triggerPlatformInitializedEventCallback() : void</text><polygon fill="#FFFF44" points="313,1004.416,317,1008.416,313,1012.416,309,1008.416" style="stroke:#B38D22;stroke-width:1.0;"/><text fill="#000000" font-family="sans-serif" font-size="14" lengthAdjust="spacing" textLength="154" x="322" y="1013.207">unsetCallbacks() : void</text><polygon fill="#FFFF44" points="313,1020.9043,317,1024.9043,313,1028.9043,309,1024.9043" style="stroke:#B38D22;stroke-width:1.0;"/><text fill="#000000" font-family="sans-serif" font-size="14" lengthAdjust="spacing" textLength="198" x="322" y="1029.6953">unsetGlobalCallbacks() : void</text><polygon fill="#FFFF44" points="313,1037.3926,317,1041.3926,313,1045.3926,309,1041.3926" style="stroke:#B38D22;stroke-width:1.0;"/><text fill="#000000" font-family="sans-serif" font-size="14" lengthAdjust="spacing" textLength="183" x="322" y="1046.1836">unsetHtmlElements() : void</text><rect fill="#F24D5C" height="6" style="stroke:#C82930;stroke-width:1.0;" width="6" x="310" y="1055.8809"/><text fill="#000000" font-family="sans-serif" font-size="14" lengthAdjust="spacing" textLength="164" x="322" y="1062.6719">_eventTouchEnd() : void</text><rect fill="#F24D5C" height="6" style="stroke:#C82930;stroke-width:1.0;" width="6" x="310" y="1072.3691"/><text fill="#000000" font-family="sans-serif" font-size="14" lengthAdjust="spacing" textLength="282" x="322" y="1079.1602">_eventTouchMove(evt: TouchEvent) : void</text><rect fill="#F24D5C" height="6" style="stroke:#C82930;stroke-width:1.0;" width="6" x="310" y="1088.8574"/><text fill="#000000" font-family="sans-serif" font-size="14" lengthAdjust="spacing" textLength="278" x="322" y="1095.6484">_eventTouchStart(evt: TouchEvent) : void</text><rect fill="#F24D5C" height="6" style="stroke:#C82930;stroke-width:1.0;" width="6" x="310" y="1105.3457"/><text fill="#000000" font-family="sans-serif" font-size="14" lengthAdjust="spacing" textLength="207" x="322" y="1112.1367">_removeEventListeners() : void</text><rect fill="#F24D5C" height="6" style="stroke:#C82930;stroke-width:1.0;" width="6" x="310" y="1121.834"/><text fill="#000000" font-family="sans-serif" font-size="14" lengthAdjust="spacing" textLength="176" x="322" y="1128.625">_setEventListeners() : void</text><rect fill="#F24D5C" height="6" style="stroke:#C82930;stroke-width:1.0;" width="6" x="310" y="1138.3223"/><text fill="#000000" font-family="sans-serif" font-size="14" lengthAdjust="spacing" textLength="174" x="322" y="1145.1133">_triggerTouchEnd() : void</text><rect fill="#F24D5C" height="6" style="stroke:#C82930;stroke-width:1.0;" width="6" x="310" y="1154.8105"/><text fill="#000000" font-family="sans-serif" font-size="14" lengthAdjust="spacing" textLength="309" x="322" y="1161.6016">_triggerTouchMove(event: TouchEvent) : void</text><rect fill="#F24D5C" height="6" style="stroke:#C82930;stroke-width:1.0;" width="6" x="310" y="1171.2988"/><text fill="#000000" font-family="sans-serif" font-size="14" lengthAdjust="spacing" textLength="180" x="322" y="1178.0898">_triggerTouchStart() : void</text></g><!--class AbstractPattern<TouchEventsConfig>--><g id="elem_AbstractPattern&lt;TouchEventsConfig&gt;"><rect codeLine="48" fill="#FFFFFF" height="427.2305" id="AbstractPattern&lt;TouchEventsConfig&gt;" rx="2.5" ry="2.5" style="stroke:#272B30;stroke-width:0.5;" width="596" x="9" y="7"/><ellipse cx="172.25" cy="23" fill="#A9DCDF" rx="11" ry="11" style="stroke:#181818;stroke-width:1.0;"/><path d="M172.1133,18.3481 L170.9595,23.4199 L173.2754,23.4199 Z M170.6191,16.1069 L173.6157,16.1069 L176.9609,28.5 L174.5122,28.5 L173.7485,25.437 L170.4697,25.437 L169.7227,28.5 L167.2739,28.5 Z " fill="#000000"/><text fill="#000000" font-family="sans-serif" font-size="14" font-style="italic" lengthAdjust="spacing" textLength="261" x="192.75" y="28.291">AbstractPattern&lt;TouchEventsConfig&gt;</text><line style="stroke:#272B30;stroke-width:0.5;" x1="10" x2="604" y1="39" y2="39"/><polygon fill="none" points="20,47.7441,24,51.7441,20,55.7441,16,51.7441" style="stroke:#B38D22;stroke-width:1.0;"/><text fill="#000000" font-family="sans-serif" font-size="14" lengthAdjust="spacing" textLength="176" x="29" y="56.5352">isProviderBased : boolean</text><rect fill="none" height="6" style="stroke:#C82930;stroke-width:1.0;" width="6" x="17" y="66.2324"/><text fill="#000000" font-family="sans-serif" font-size="14" lengthAdjust="spacing" textLength="202" x="29" y="73.0234">_configs : TouchEventsConfig</text><rect fill="none" height="6" style="stroke:#C82930;stroke-width:1.0;" width="6" x="17" y="82.7207"/><text fill="#000000" font-family="sans-serif" font-size="14" lengthAdjust="spacing" textLength="116" x="29" y="89.5117">_isBuilt : boolean</text><rect fill="none" height="6" style="stroke:#C82930;stroke-width:1.0;" width="6" x="17" y="99.209"/><text fill="#000000" font-family="sans-serif" font-size="14" lengthAdjust="spacing" textLength="253" x="29" y="106">_platformEventInitialized : OSGeneric</text><rect fill="none" height="6" style="stroke:#C82930;stroke-width:1.0;" width="6" x="17" y="115.6973"/><text fill="#000000" font-family="sans-serif" font-size="14" lengthAdjust="spacing" textLength="169" x="29" y="122.4883">_selfElem : HTMLElement</text><rect fill="none" height="6" style="stroke:#C82930;stroke-width:1.0;" width="6" x="17" y="132.1855"/><text fill="#000000" font-family="sans-serif" font-size="14" lengthAdjust="spacing" textLength="120" x="29" y="138.9766">_uniqueId : string</text><rect fill="none" height="6" style="stroke:#C82930;stroke-width:1.0;" width="6" x="17" y="148.6738"/><text fill="#000000" font-family="sans-serif" font-size="14" lengthAdjust="spacing" textLength="118" x="29" y="155.4648">_widgetId : string</text><line style="stroke:#272B30;stroke-width:0.5;" x1="10" x2="604" y1="162.418" y2="162.418"/><ellipse cx="20" cy="176.1621" fill="#84BE84" rx="3" ry="3" style="stroke:#038048;stroke-width:1.0;"/><text fill="#000000" font-family="sans-serif" font-size="14" lengthAdjust="spacing" textLength="86" x="29" y="179.9531">build() : void</text><ellipse cx="20" cy="192.6504" fill="#84BE84" rx="3" ry="3" style="stroke:#038048;stroke-width:1.0;"/><text fill="#000000" font-family="sans-serif" font-size="14" lengthAdjust="spacing" textLength="482" x="29" y="196.4414">changeProperty(propertyName: string, propertyValue: unknown) : void</text><ellipse cx="20" cy="209.1387" fill="#84BE84" rx="3" ry="3" style="stroke:#038048;stroke-width:1.0;"/><text fill="#000000" font-family="sans-serif" font-size="14" lengthAdjust="spacing" textLength="104" x="29" y="212.9297">dispose() : void</text><ellipse cx="20" cy="225.627" fill="#84BE84" rx="3" ry="3" style="stroke:#038048;stroke-width:1.0;"/><text fill="#000000" font-family="sans-serif" font-size="14" lengthAdjust="spacing" textLength="266" x="29" y="229.418">equalsToID(patternId: string) : boolean</text><ellipse cx="20" cy="242.1152" fill="#84BE84" rx="3" ry="3" style="stroke:#038048;stroke-width:1.0;"/><text fill="#000000" font-family="sans-serif" font-size="14" lengthAdjust="spacing" textLength="428" x="29" y="245.9063">registerCallback(eventName: string, callback: OSGeneric) : void</text><polygon fill="#FFFF44" points="20,253.6035,24,257.6035,20,261.6035,16,257.6035" style="stroke:#B38D22;stroke-width:1.0;"/><text fill="#000000" font-family="sans-serif" font-size="14" lengthAdjust="spacing" textLength="123" x="29" y="262.3945">finishBuild() : void</text><polygon fill="#FFFF44" points="20,270.0918,24,274.0918,20,278.0918,16,274.0918" style="stroke:#B38D22;stroke-width:1.0;"/><text fill="#000000" font-family="sans-serif" font-size="14" font-style="italic" lengthAdjust="spacing" textLength="178" x="29" y="278.8828">setA11YProperties() : void</text><polygon fill="#FFFF44" points="20,286.5801,24,290.5801,20,294.5801,16,290.5801" style="stroke:#B38D22;stroke-width:1.0;"/><text fill="#000000" font-family="sans-serif" font-size="14" font-style="italic" lengthAdjust="spacing" textLength="136" x="29" y="295.3711">setCallbacks() : void</text><polygon fill="#FFFF44" points="20,303.0684,24,307.0684,20,311.0684,16,307.0684" style="stroke:#B38D22;stroke-width:1.0;"/><text fill="#000000" font-family="sans-serif" font-size="14" font-style="italic" lengthAdjust="spacing" textLength="165" x="29" y="311.8594">setHtmlElements() : void</text><polygon fill="#FFFF44" points="20,319.5566,24,323.5566,20,327.5566,16,323.5566" style="stroke:#B38D22;stroke-width:1.0;"/><text fill="#000000" font-family="sans-serif" font-size="14" lengthAdjust="spacing" textLength="570" x="29" y="328.3477">triggerPlatformEventCallback(platFormCallback: OSGeneric, args: unknown[]) : void</text><polygon fill="#FFFF44" points="20,336.0449,24,340.0449,20,344.0449,16,340.0449" style="stroke:#B38D22;stroke-width:1.0;"/><text fill="#000000" font-family="sans-serif" font-size="14" lengthAdjust="spacing" textLength="318" x="29" y="344.8359">triggerPlatformInitializedEventCallback() : void</text><polygon fill="#FFFF44" points="20,352.5332,24,356.5332,20,360.5332,16,356.5332" style="stroke:#B38D22;stroke-width:1.0;"/><text fill="#000000" font-family="sans-serif" font-size="14" font-style="italic" lengthAdjust="spacing" textLength="154" x="29" y="361.3242">unsetCallbacks() : void</text><polygon fill="#FFFF44" points="20,369.0215,24,373.0215,20,377.0215,16,373.0215" style="stroke:#B38D22;stroke-width:1.0;"/><text fill="#000000" font-family="sans-serif" font-size="14" lengthAdjust="spacing" textLength="198" x="29" y="377.8125">unsetGlobalCallbacks() : void</text><polygon fill="#FFFF44" points="20,385.5098,24,389.5098,20,393.5098,16,389.5098" style="stroke:#B38D22;stroke-width:1.0;"/><text fill="#000000" font-family="sans-serif" font-size="14" font-style="italic" lengthAdjust="spacing" textLength="183" x="29" y="394.3008">unsetHtmlElements() : void</text><rect fill="#F24D5C" height="6" style="stroke:#C82930;stroke-width:1.0;" width="6" x="17" y="403.998"/><text fill="#000000" font-family="sans-serif" font-size="14" lengthAdjust="spacing" textLength="235" x="29" y="410.7891">_setCommonHtmlElements() : void</text><rect fill="#F24D5C" height="6" style="stroke:#C82930;stroke-width:1.0;" width="6" x="17" y="420.4863"/><text fill="#000000" font-family="sans-serif" font-size="14" lengthAdjust="spacing" textLength="253" x="29" y="427.2773">_unsetCommonHtmlElements() : void</text></g><!--class ITouchEvents--><g id="elem_ITouchEvents"><rect codeLine="74" fill="#FFFFFF" height="196.3945" id="ITouchEvents" rx="2.5" ry="2.5" style="stroke:#272B30;stroke-width:0.5;" width="508" x="640" y="122.5"/><ellipse cx="844.25" cy="138.5" fill="#B4A7E5" rx="11" ry="11" style="stroke:#181818;stroke-width:1.0;"/><path d="M840.6777,134.7651 L840.6777,132.6069 L848.0571,132.6069 L848.0571,134.7651 L845.5918,134.7651 L845.5918,142.8418 L848.0571,142.8418 L848.0571,145 L840.6777,145 L840.6777,142.8418 L843.1431,142.8418 L843.1431,134.7651 Z " fill="#000000"/><text fill="#000000" font-family="sans-serif" font-size="14" font-style="italic" lengthAdjust="spacing" textLength="91" x="864.75" y="143.791">ITouchEvents</text><line style="stroke:#272B30;stroke-width:0.5;" x1="641" x2="1147" y1="154.5" y2="154.5"/><ellipse cx="651" cy="168.2441" fill="none" rx="3" ry="3" style="stroke:#038048;stroke-width:1.0;"/><text fill="#000000" font-family="sans-serif" font-size="14" lengthAdjust="spacing" textLength="109" x="660" y="172.0352">isBuilt : boolean</text><ellipse cx="651" cy="184.7324" fill="none" rx="3" ry="3" style="stroke:#038048;stroke-width:1.0;"/><text fill="#000000" font-family="sans-serif" font-size="14" lengthAdjust="spacing" textLength="184" x="660" y="188.5234">selfElement : HTMLElement</text><ellipse cx="651" cy="201.2207" fill="none" rx="3" ry="3" style="stroke:#038048;stroke-width:1.0;"/><text fill="#000000" font-family="sans-serif" font-size="14" lengthAdjust="spacing" textLength="113" x="660" y="205.0117">uniqueId : string</text><ellipse cx="651" cy="217.709" fill="none" rx="3" ry="3" style="stroke:#038048;stroke-width:1.0;"/><text fill="#000000" font-family="sans-serif" font-size="14" lengthAdjust="spacing" textLength="111" x="660" y="221.5">widgetId : string</text><line style="stroke:#272B30;stroke-width:0.5;" x1="641" x2="1147" y1="228.4531" y2="228.4531"/><ellipse cx="651" cy="242.1973" fill="#84BE84" rx="3" ry="3" style="stroke:#038048;stroke-width:1.0;"/><text fill="#000000" font-family="sans-serif" font-size="14" lengthAdjust="spacing" textLength="86" x="660" y="245.9883">build() : void</text><ellipse cx="651" cy="258.6855" fill="#84BE84" rx="3" ry="3" style="stroke:#038048;stroke-width:1.0;"/><text fill="#000000" font-family="sans-serif" font-size="14" lengthAdjust="spacing" textLength="482" x="660" y="262.4766">changeProperty(propertyName: string, propertyValue: unknown) : void</text><ellipse cx="651" cy="275.1738" fill="#84BE84" rx="3" ry="3" style="stroke:#038048;stroke-width:1.0;"/><text fill="#000000" font-family="sans-serif" font-size="14" lengthAdjust="spacing" textLength="104" x="660" y="278.9648">dispose() : void</text><ellipse cx="651" cy="291.6621" fill="#84BE84" rx="3" ry="3" style="stroke:#038048;stroke-width:1.0;"/><text fill="#000000" font-family="sans-serif" font-size="14" lengthAdjust="spacing" textLength="216" x="660" y="295.4531">equalsToID(id: string) : boolean</text><ellipse cx="651" cy="308.1504" fill="#84BE84" rx="3" ry="3" style="stroke:#038048;stroke-width:1.0;"/><text fill="#000000" font-family="sans-serif" font-size="14" lengthAdjust="spacing" textLength="428" x="660" y="311.9414">registerCallback(eventName: string, callback: OSGeneric) : void</text></g><!--reverse link AbstractPattern<TouchEventsConfig> to TouchEvents--><g id="link_AbstractPattern&lt;TouchEventsConfig&gt;_TouchEvents"><path codeLine="73" d="M416.76,452.63 C423.21,466.21 429.75,480 436.35,493.88 " fill="none" id="AbstractPattern&lt;TouchEventsConfig&gt;-backto-TouchEvents" style="stroke:#272B30;stroke-width:1.0;"/><polygon fill="none" points="410.3,455.34,408.04,434.27,422.94,449.33,410.3,455.34" style="stroke:#272B30;stroke-width:1.0;"/></g><!--reverse link ITouchEvents to TouchEvents--><g id="link_ITouchEvents_TouchEvents"><path codeLine="85" d="M839.03,336.85 C817.34,382.39 791.16,437.32 764.2,493.89 " fill="none" id="ITouchEvents-backto-TouchEvents" style="stroke:#272B30;stroke-width:1.0;stroke-dasharray:7.0,7.0;"/><polygon fill="none" points="832.82,333.63,847.74,318.58,845.46,339.65,832.82,333.63" style="stroke:#272B30;stroke-width:1.0;"/></g><!--SRC=[vLPTQzim57tFhn3DIqhQidQ3GGY3DklQGBi56aRB64EshXqHMN8bEQLhyzztRIk9lriOWutbARxdw7xgN6IMNCPKquXC13NcL6lrC552QT8_UN_YlNtJCsN6cT8CT3U5-ijGgqGoHmk2eC2fmJwmTups5fm1WIYsZoG2kr3C54q11u4MFmr0zkOgyHVdAv3Mx96d7i5VdvkPLYiyeS-e0KP6n5DA09KPVFZ3JxJ60xS8o2JoG9VjTrKxI9P5GFi5ID3Shm0JAeI7nTG9ANgjLj3DkB5Kjpk9y7npV9EUwu3cF89gCHbmssYj5Mxn_9mkGTQ0jEjSXkS2eZnwkSDMOo7K4x0ZNCwlhzpNZYIDe1PgsMoHIaP3B-623VRHkbASvJP_GMK8EF4Oj7qSnExFPnh1Y1YhCSq3ih5-fI91SoANKZt8iYF6JQmCLDp3VKA5cQlfnq5ChGKjfspZTxzI-513o0roDhCSPECjf-8xR4I-tBYPbIBs0owvMPpLI-qRiAV7ntUkLWwcZcyYDq2NDX9k0bKKKmj3q3FiUQ1qLBhKWnYjdz0wgIT-GAWEpRQVtxvtkfrARZaL_2UKPLD99f4TTMJWXL0U5PsKzcATvlB58LaxcEeM1sX7PBTaMicPX5zWQzXA-Igz9jZ2McwOUZV1zRGj_IBi2a1l7KaL3-H5R0dh7lLCAcLBtBOzTT-pN0dZmlQTA1dmyCFhbt36DwIOcdFY6Doa6gWlbxXuImjtYXGkvhQR8aXlGUF-III_Js2QdikrwUmFd8LWg_R_VFSyRQx2-iKrLA6soBJ2-aUMKp7htznJDLTTAokDfA98oIvIdb07RTrxbOB7puU7vPTLZqja1zG7iZTjU78DcxKwtEYl-GamR5RWyAyK8FzpoiEnb9iwVZuwAW_W5m00]--></g></svg>