<?xml version="1.0" encoding="us-ascii" standalone="no"?><svg xmlns="http://www.w3.org/2000/svg" xmlns:xlink="http://www.w3.org/1999/xlink" contentStyleType="text/css" height="610px" preserveAspectRatio="none" style="width:634px;height:610px;background:#CED4DA;" version="1.1" viewBox="0 0 634 610" width="634px" zoomAndPan="magnify"><defs/><g><rect fill="#CED4DA" height="610" style="stroke:none;stroke-width:1.0;" width="634" x="0" y="0"/><!--class VideoConfig--><g id="elem_VideoConfig"><rect codeLine="7" fill="#FFFFFF" height="341.3438" id="VideoConfig" rx="2.5" ry="2.5" style="stroke:#272B30;stroke-width:0.5;" width="618" x="9" y="262"/><ellipse cx="272.25" cy="278" fill="#ADD1B2" rx="11" ry="11" style="stroke:#181818;stroke-width:1.0;"/><path d="M275.2188,283.6406 Q274.6406,283.9375 274,284.0781 Q273.3594,284.2344 272.6563,284.2344 Q270.1563,284.2344 268.8281,282.5938 Q267.5156,280.9375 267.5156,277.8125 Q267.5156,274.6875 268.8281,273.0313 Q270.1563,271.375 272.6563,271.375 Q273.3594,271.375 274,271.5313 Q274.6563,271.6875 275.2188,271.9844 L275.2188,274.7031 Q274.5938,274.125 274,273.8594 Q273.4063,273.5781 272.7813,273.5781 Q271.4375,273.5781 270.75,274.6563 Q270.0625,275.7188 270.0625,277.8125 Q270.0625,279.9063 270.75,280.9844 Q271.4375,282.0469 272.7813,282.0469 Q273.4063,282.0469 274,281.7813 Q274.5938,281.5 275.2188,280.9219 L275.2188,283.6406 Z " fill="#000000"/><text fill="#000000" font-family="sans-serif" font-size="14" lengthAdjust="spacing" textLength="83" x="292.75" y="282.8467">VideoConfig</text><line style="stroke:#272B30;stroke-width:0.5;" x1="10" x2="626" y1="294" y2="294"/><ellipse cx="20" cy="307.6484" fill="none" rx="3" ry="3" style="stroke:#038048;stroke-width:1.0;"/><text fill="#000000" font-family="sans-serif" font-size="14" lengthAdjust="spacing" textLength="128" x="29" y="310.9951">Autoplay : boolean</text><ellipse cx="20" cy="323.9453" fill="none" rx="3" ry="3" style="stroke:#038048;stroke-width:1.0;"/><text fill="#000000" font-family="sans-serif" font-size="14" lengthAdjust="spacing" textLength="113" x="29" y="327.292">Captions : string</text><ellipse cx="20" cy="340.2422" fill="none" rx="3" ry="3" style="stroke:#038048;stroke-width:1.0;"/><text fill="#000000" font-family="sans-serif" font-size="14" lengthAdjust="spacing" textLength="127" x="29" y="343.5889">Controls : boolean</text><ellipse cx="20" cy="356.5391" fill="none" rx="3" ry="3" style="stroke:#038048;stroke-width:1.0;"/><text fill="#000000" font-family="sans-serif" font-size="14" lengthAdjust="spacing" textLength="155" x="29" y="359.8857">ExtendedClass : string</text><ellipse cx="20" cy="372.8359" fill="none" rx="3" ry="3" style="stroke:#038048;stroke-width:1.0;"/><text fill="#000000" font-family="sans-serif" font-size="14" lengthAdjust="spacing" textLength="97" x="29" y="376.1826">Height : string</text><ellipse cx="20" cy="389.1328" fill="none" rx="3" ry="3" style="stroke:#038048;stroke-width:1.0;"/><text fill="#000000" font-family="sans-serif" font-size="14" lengthAdjust="spacing" textLength="103" x="29" y="392.4795">Loop : boolean</text><ellipse cx="20" cy="405.4297" fill="none" rx="3" ry="3" style="stroke:#038048;stroke-width:1.0;"/><text fill="#000000" font-family="sans-serif" font-size="14" lengthAdjust="spacing" textLength="113" x="29" y="408.7764">Muted : boolean</text><ellipse cx="20" cy="421.7266" fill="none" rx="3" ry="3" style="stroke:#038048;stroke-width:1.0;"/><text fill="#000000" font-family="sans-serif" font-size="14" lengthAdjust="spacing" textLength="124" x="29" y="425.0732">PosterURL : string</text><ellipse cx="20" cy="438.0234" fill="none" rx="3" ry="3" style="stroke:#038048;stroke-width:1.0;"/><text fill="#000000" font-family="sans-serif" font-size="14" lengthAdjust="spacing" textLength="79" x="29" y="441.3701">URL : string</text><ellipse cx="20" cy="454.3203" fill="none" rx="3" ry="3" style="stroke:#038048;stroke-width:1.0;"/><text fill="#000000" font-family="sans-serif" font-size="14" lengthAdjust="spacing" textLength="91" x="29" y="457.667">Width : string</text><line style="stroke:#272B30;stroke-width:0.5;" x1="10" x2="626" y1="464.9688" y2="464.9688"/><ellipse cx="20" cy="478.6172" fill="#84BE84" rx="3" ry="3" style="stroke:#038048;stroke-width:1.0;"/><text fill="#000000" font-family="sans-serif" font-size="14" lengthAdjust="spacing" textLength="412" x="29" y="481.9639">validateCanChange(_isBuilt: boolean, _key: string) : boolean</text><ellipse cx="20" cy="494.9141" fill="#84BE84" rx="3" ry="3" style="stroke:#038048;stroke-width:1.0;"/><text fill="#000000" font-family="sans-serif" font-size="14" lengthAdjust="spacing" textLength="384" x="29" y="498.2607">validateDefault(_key: string, value: unknown) : unknown</text><polygon fill="#FFFF44" points="20,506.2109,24,510.2109,20,514.2109,16,510.2109" style="stroke:#B38D22;stroke-width:1.0;"/><text fill="#000000" font-family="sans-serif" font-size="14" lengthAdjust="spacing" textLength="447" x="29" y="514.5576">validateBoolean(value: boolean, defaultValue: boolean) : boolean</text><polygon fill="#FFFF44" points="20,522.5078,24,526.5078,20,530.5078,16,526.5078" style="stroke:#B38D22;stroke-width:1.0;"/><text fill="#000000" font-family="sans-serif" font-size="14" lengthAdjust="spacing" textLength="464" x="29" y="530.8545">validateDate(value: string | Date, defaultValue: string) : string | Date</text><polygon fill="#FFFF44" points="20,538.8047,24,542.8047,20,546.8047,16,542.8047" style="stroke:#B38D22;stroke-width:1.0;"/><text fill="#000000" font-family="sans-serif" font-size="14" lengthAdjust="spacing" textLength="592" x="29" y="547.1514">validateInRange(value: unknown, defaultValue: unknown, args: unknown[]) : unknown</text><polygon fill="#FFFF44" points="20,555.1016,24,559.1016,20,563.1016,16,559.1016" style="stroke:#B38D22;stroke-width:1.0;"/><text fill="#000000" font-family="sans-serif" font-size="14" lengthAdjust="spacing" textLength="439" x="29" y="563.4482">validateNumber(value: number, defaultValue: number) : number</text><polygon fill="#FFFF44" points="20,571.3984,24,575.3984,20,579.3984,16,575.3984" style="stroke:#B38D22;stroke-width:1.0;"/><text fill="#000000" font-family="sans-serif" font-size="14" lengthAdjust="spacing" textLength="379" x="29" y="579.7451">validateString(value: string, defaultValue: string) : string</text><polygon fill="#FFFF44" points="20,587.6953,24,591.6953,20,595.6953,16,591.6953" style="stroke:#B38D22;stroke-width:1.0;"/><text fill="#000000" font-family="sans-serif" font-size="14" lengthAdjust="spacing" textLength="373" x="29" y="596.042">validateTime(value: string, defaultValue: string) : string</text></g><!--class AbstractConfiguration--><g id="elem_AbstractConfiguration"><rect codeLine="27" fill="#FFFFFF" height="194.6719" id="AbstractConfiguration" rx="2.5" ry="2.5" style="stroke:#272B30;stroke-width:0.5;" width="618" x="9" y="7"/><ellipse cx="239.25" cy="23" fill="#A9DCDF" rx="11" ry="11" style="stroke:#181818;stroke-width:1.0;"/><path d="M239.3594,18.3438 L238.2031,23.4219 L240.5313,23.4219 L239.3594,18.3438 Z M237.875,16.1094 L240.8594,16.1094 L244.2188,28.5 L241.7656,28.5 L241,25.4375 L237.7188,25.4375 L236.9688,28.5 L234.5313,28.5 L237.875,16.1094 Z " fill="#000000"/><text fill="#000000" font-family="sans-serif" font-size="14" font-style="italic" lengthAdjust="spacing" textLength="149" x="259.75" y="27.8467">AbstractConfiguration</text><line style="stroke:#272B30;stroke-width:0.5;" x1="10" x2="626" y1="39" y2="39"/><ellipse cx="20" cy="52.6484" fill="none" rx="3" ry="3" style="stroke:#038048;stroke-width:1.0;"/><text fill="#000000" font-family="sans-serif" font-size="14" lengthAdjust="spacing" textLength="155" x="29" y="55.9951">ExtendedClass : string</text><line style="stroke:#272B30;stroke-width:0.5;" x1="10" x2="626" y1="63.2969" y2="63.2969"/><ellipse cx="20" cy="76.9453" fill="#84BE84" rx="3" ry="3" style="stroke:#038048;stroke-width:1.0;"/><text fill="#000000" font-family="sans-serif" font-size="14" lengthAdjust="spacing" textLength="412" x="29" y="80.292">validateCanChange(_isBuilt: boolean, _key: string) : boolean</text><ellipse cx="20" cy="93.2422" fill="#84BE84" rx="3" ry="3" style="stroke:#038048;stroke-width:1.0;"/><text fill="#000000" font-family="sans-serif" font-size="14" lengthAdjust="spacing" textLength="384" x="29" y="96.5889">validateDefault(_key: string, value: unknown) : unknown</text><polygon fill="#FFFF44" points="20,104.5391,24,108.5391,20,112.5391,16,108.5391" style="stroke:#B38D22;stroke-width:1.0;"/><text fill="#000000" font-family="sans-serif" font-size="14" lengthAdjust="spacing" textLength="447" x="29" y="112.8857">validateBoolean(value: boolean, defaultValue: boolean) : boolean</text><polygon fill="#FFFF44" points="20,120.8359,24,124.8359,20,128.8359,16,124.8359" style="stroke:#B38D22;stroke-width:1.0;"/><text fill="#000000" font-family="sans-serif" font-size="14" lengthAdjust="spacing" textLength="464" x="29" y="129.1826">validateDate(value: string | Date, defaultValue: string) : string | Date</text><polygon fill="#FFFF44" points="20,137.1328,24,141.1328,20,145.1328,16,141.1328" style="stroke:#B38D22;stroke-width:1.0;"/><text fill="#000000" font-family="sans-serif" font-size="14" lengthAdjust="spacing" textLength="592" x="29" y="145.4795">validateInRange(value: unknown, defaultValue: unknown, args: unknown[]) : unknown</text><polygon fill="#FFFF44" points="20,153.4297,24,157.4297,20,161.4297,16,157.4297" style="stroke:#B38D22;stroke-width:1.0;"/><text fill="#000000" font-family="sans-serif" font-size="14" lengthAdjust="spacing" textLength="439" x="29" y="161.7764">validateNumber(value: number, defaultValue: number) : number</text><polygon fill="#FFFF44" points="20,169.7266,24,173.7266,20,177.7266,16,173.7266" style="stroke:#B38D22;stroke-width:1.0;"/><text fill="#000000" font-family="sans-serif" font-size="14" lengthAdjust="spacing" textLength="379" x="29" y="178.0732">validateString(value: string, defaultValue: string) : string</text><polygon fill="#FFFF44" points="20,186.0234,24,190.0234,20,194.0234,16,190.0234" style="stroke:#B38D22;stroke-width:1.0;"/><text fill="#000000" font-family="sans-serif" font-size="14" lengthAdjust="spacing" textLength="373" x="29" y="194.3701">validateTime(value: string, defaultValue: string) : string</text></g><!--reverse link AbstractConfiguration to VideoConfig--><g id="link_AbstractConfiguration_VideoConfig"><path codeLine="38" d="M318,220.43 C318,239.29 318,241.57 318,261.99 " fill="none" id="AbstractConfiguration-backto-VideoConfig" style="stroke:#272B30;stroke-width:1.0;"/><polygon fill="none" points="318,202.43,312,220.43,324,220.43,318,202.43" style="stroke:#272B30;stroke-width:1.0;"/></g><!--SRC=[xPJRIWCn48Rl-nJ1tbIq82e8uasx2WfLn4Ez495fCxiRciqiEQX5VNVtR1EfXtiN5f8__toJMMRMB8JAGKF68Wd6ZBIcvuWaQTRVFTYTxUtqZEyOa-QelxV0V95eSeetjZYELpnVZkV8zpdqKi6HOPRR9SlGfiJDgXGBb8KoBnEmZMbnG16fM2GRxBN7YcThv2pb4fRiaCs898AgzGXoAqYPGZTM2vKqCYchIPhGVl9YKN7aLIb1p2cA9BM1E27AGyYviyX3yPACHNrxDGa0NvKxmMqQQ4yW1GUB4QWe1PNWu56OiHFITccssUC2bstOPfY_9HnZ34xQmQfvcnMd3W-PKmj5pweCRfPLSByD7jV4GMFlClCQElNay0eTvRXuMqHz0VR6IZ44VPRYsNpQcRggFeXVGeZgPD29wRRt3sjBlN3P37LBLTKkXDPgYQXNFk6wkhDVw4yL-eGRaU4VuzzxC2kMCBUicPPHiwy7ncaevw6Rc-yQ_h_f_flkbqsthikEteP3_uVz0G00]--></g></svg>