<?xml version="1.0" encoding="UTF-8" standalone="no"?><svg xmlns="http://www.w3.org/2000/svg" xmlns:xlink="http://www.w3.org/1999/xlink" contentScriptType="application/ecmascript" contentStyleType="text/css" height="734px" preserveAspectRatio="none" style="width:502px;height:734px;background:#CED4DA;" version="1.1" viewBox="0 0 502 734" width="502px" zoomAndPan="magnify"><defs><filter height="300%" id="fhwoyo2zh8wsf" width="300%" x="-1" y="-1"><feGaussianBlur result="blurOut" stdDeviation="2.0"/><feColorMatrix in="blurOut" result="blurOut2" type="matrix" values="0 0 0 0 0 0 0 0 0 0 0 0 0 0 0 0 0 0 .4 0"/><feOffset dx="4.0" dy="4.0" in="blurOut2" result="blurOut3"/><feBlend in="SourceGraphic" in2="blurOut3" mode="normal"/></filter></defs><g><!--MD5=[5fa763e222f257fed8d57e365afe5ba7]
class VirtualSelectSearchConfig--><rect codeLine="7" fill="#FFFFFF" filter="url(#fhwoyo2zh8wsf)" height="307.1016" id="VirtualSelectSearchConfig" style="stroke:#272B30;stroke-width:1.5;" width="479" x="9" y="413"/><ellipse cx="172.25" cy="429" fill="#ADD1B2" rx="11" ry="11" style="stroke:#272B30;stroke-width:1.0;"/><path d="M174.7231,435.1431 Q174.1421,435.4419 173.5029,435.5913 Q172.8638,435.7407 172.1582,435.7407 Q169.6514,435.7407 168.3315,434.0889 Q167.0117,432.437 167.0117,429.3159 Q167.0117,426.1865 168.3315,424.5347 Q169.6514,422.8828 172.1582,422.8828 Q172.8638,422.8828 173.5112,423.0322 Q174.1587,423.1816 174.7231,423.4805 L174.7231,426.2031 Q174.0923,425.6221 173.4988,425.3523 Q172.9053,425.0825 172.2744,425.0825 Q170.9297,425.0825 170.2449,426.1492 Q169.5601,427.2158 169.5601,429.3159 Q169.5601,431.4077 170.2449,432.4744 Q170.9297,433.541 172.2744,433.541 Q172.9053,433.541 173.4988,433.2712 Q174.0923,433.0015 174.7231,432.4204 Z " fill="#000000"/><text fill="#000000" font-family="sans-serif" font-size="12" lengthAdjust="spacing" textLength="144" x="192.75" y="433.5352">VirtualSelectSearchConfig</text><line style="stroke:#272B30;stroke-width:1.5;" x1="10" x2="487" y1="445" y2="445"/><ellipse cx="20" cy="456" rx="3" ry="3" style="stroke:#038048;stroke-width:1.0;fill:none;"/><text fill="#000000" font-family="sans-serif" font-size="11" lengthAdjust="spacing" textLength="171" x="29" y="459.6348">AllowMultipleSelection : boolean</text><ellipse cx="20" cy="468.9551" rx="3" ry="3" style="stroke:#038048;stroke-width:1.0;fill:none;"/><text fill="#000000" font-family="sans-serif" font-size="11" lengthAdjust="spacing" textLength="93" x="29" y="472.5898">ElementId : string</text><ellipse cx="20" cy="481.9102" rx="3" ry="3" style="stroke:#038048;stroke-width:1.0;fill:none;"/><text fill="#000000" font-family="sans-serif" font-size="11" lengthAdjust="spacing" textLength="120" x="29" y="485.5449">ExtendedClass : string</text><ellipse cx="20" cy="494.8652" rx="3" ry="3" style="stroke:#038048;stroke-width:1.0;fill:none;"/><text fill="#000000" font-family="sans-serif" font-size="11" lengthAdjust="spacing" textLength="107" x="29" y="498.5">IsDisabled : boolean</text><ellipse cx="20" cy="507.8203" rx="3" ry="3" style="stroke:#038048;stroke-width:1.0;fill:none;"/><text fill="#000000" font-family="sans-serif" font-size="11" lengthAdjust="spacing" textLength="119" x="29" y="511.4551">NoResultsText : string</text><ellipse cx="20" cy="520.7754" rx="3" ry="3" style="stroke:#038048;stroke-width:1.0;fill:none;"/><text fill="#000000" font-family="sans-serif" font-size="11" lengthAdjust="spacing" textLength="173" x="29" y="524.4102">OptionsList : DropDownOption[]</text><ellipse cx="20" cy="533.7305" rx="3" ry="3" style="stroke:#038048;stroke-width:1.0;fill:none;"/><text fill="#000000" font-family="sans-serif" font-size="11" lengthAdjust="spacing" textLength="80" x="29" y="537.3652">Prompt : string</text><ellipse cx="20" cy="546.6855" rx="3" ry="3" style="stroke:#038048;stroke-width:1.0;fill:none;"/><text fill="#000000" font-family="sans-serif" font-size="11" lengthAdjust="spacing" textLength="116" x="29" y="550.3203">SearchPrompt : string</text><ellipse cx="20" cy="559.6406" rx="3" ry="3" style="stroke:#038048;stroke-width:1.0;fill:none;"/><text fill="#000000" font-family="sans-serif" font-size="11" lengthAdjust="spacing" textLength="198" x="29" y="563.2754">SelectedOptions : DropDownOption[]</text><ellipse cx="20" cy="572.5957" rx="3" ry="3" style="stroke:#038048;stroke-width:1.0;fill:none;"/><text fill="#000000" font-family="sans-serif" font-size="11" lengthAdjust="spacing" textLength="176" x="29" y="576.2305">ShowDropboxAsPopup : boolean</text><line style="stroke:#272B30;stroke-width:1.5;" x1="10" x2="487" y1="582.5508" y2="582.5508"/><ellipse cx="20" cy="593.5508" fill="#84BE84" rx="3" ry="3" style="stroke:#038048;stroke-width:1.0;"/><text fill="#000000" font-family="sans-serif" font-size="11" lengthAdjust="spacing" textLength="207" x="29" y="597.1855">getProviderConfig() : VirtualSelectOpts</text><ellipse cx="20" cy="606.5059" fill="#84BE84" rx="3" ry="3" style="stroke:#038048;stroke-width:1.0;"/><text fill="#000000" font-family="sans-serif" font-size="11" lengthAdjust="spacing" textLength="319" x="29" y="610.1406">setDropboxWrapperConfig(showAsPopup: boolean) : string</text><ellipse cx="20" cy="619.4609" fill="#84BE84" rx="3" ry="3" style="stroke:#038048;stroke-width:1.0;"/><text fill="#000000" font-family="sans-serif" font-size="11" lengthAdjust="spacing" textLength="318" x="29" y="623.0957">validateCanChange(_isBuilt: boolean, _key: string) : boolean</text><ellipse cx="20" cy="632.416" fill="#84BE84" rx="3" ry="3" style="stroke:#038048;stroke-width:1.0;"/><text fill="#000000" font-family="sans-serif" font-size="11" lengthAdjust="spacing" textLength="290" x="29" y="636.0508">validateDefault(key: string, value: unknown) : unknown</text><polygon fill="#FFFF44" points="20,640.3711,24,644.3711,20,648.3711,16,644.3711" style="stroke:#B38D22;stroke-width:1.0;"/><text fill="#000000" font-family="sans-serif" font-size="11" lengthAdjust="spacing" textLength="341" x="29" y="649.0059">validateBoolean(value: boolean, defaultValue: boolean) : boolean</text><polygon fill="#FFFF44" points="20,653.3262,24,657.3262,20,661.3262,16,657.3262" style="stroke:#B38D22;stroke-width:1.0;"/><text fill="#000000" font-family="sans-serif" font-size="11" lengthAdjust="spacing" textLength="358" x="29" y="661.9609">validateDate(value: string | Date, defaultValue: string) : string | Date</text><polygon fill="#FFFF44" points="20,666.2813,24,670.2813,20,674.2813,16,670.2813" style="stroke:#B38D22;stroke-width:1.0;"/><text fill="#000000" font-family="sans-serif" font-size="11" lengthAdjust="spacing" textLength="453" x="29" y="674.916">validateInRange(value: unknown, defaultValue: unknown, args: unknown[]) : unknown</text><polygon fill="#FFFF44" points="20,679.2363,24,683.2363,20,687.2363,16,683.2363" style="stroke:#B38D22;stroke-width:1.0;"/><text fill="#000000" font-family="sans-serif" font-size="11" lengthAdjust="spacing" textLength="339" x="29" y="687.8711">validateNumber(value: number, defaultValue: number) : number</text><polygon fill="#FFFF44" points="20,692.1914,24,696.1914,20,700.1914,16,696.1914" style="stroke:#B38D22;stroke-width:1.0;"/><text fill="#000000" font-family="sans-serif" font-size="11" lengthAdjust="spacing" textLength="298" x="29" y="700.8262">validateString(value: string, defaultValue: string) : string</text><polygon fill="#FFFF44" points="20,705.1465,24,709.1465,20,713.1465,16,709.1465" style="stroke:#B38D22;stroke-width:1.0;"/><text fill="#000000" font-family="sans-serif" font-size="11" lengthAdjust="spacing" textLength="159" x="29" y="713.7813">_getSelectedValues() : string[]</text><!--MD5=[d083cb4325ddab693ce4333aca45f609]
class AbstractVirtualSelectConfig--><rect codeLine="29" fill="#FFFFFF" filter="url(#fhwoyo2zh8wsf)" height="345.9668" id="AbstractVirtualSelectConfig" style="stroke:#272B30;stroke-width:1.5;" width="479" x="9" y="7"/><ellipse cx="167.25" cy="23" fill="#A9DCDF" rx="11" ry="11" style="stroke:#272B30;stroke-width:1.0;"/><path d="M167.1133,18.3481 L165.9595,23.4199 L168.2754,23.4199 Z M165.6191,16.1069 L168.6157,16.1069 L171.9609,28.5 L169.5122,28.5 L168.7485,25.437 L165.4697,25.437 L164.7227,28.5 L162.2739,28.5 Z " fill="#000000"/><text fill="#000000" font-family="sans-serif" font-size="12" font-style="italic" lengthAdjust="spacing" textLength="154" x="187.75" y="27.5352">AbstractVirtualSelectConfig</text><line style="stroke:#272B30;stroke-width:1.5;" x1="10" x2="487" y1="39" y2="39"/><ellipse cx="20" cy="50" rx="3" ry="3" style="stroke:#038048;stroke-width:1.0;fill:none;"/><text fill="#000000" font-family="sans-serif" font-size="11" lengthAdjust="spacing" textLength="93" x="29" y="53.6348">ElementId : string</text><ellipse cx="20" cy="62.9551" rx="3" ry="3" style="stroke:#038048;stroke-width:1.0;fill:none;"/><text fill="#000000" font-family="sans-serif" font-size="11" lengthAdjust="spacing" textLength="120" x="29" y="66.5898">ExtendedClass : string</text><ellipse cx="20" cy="75.9102" rx="3" ry="3" style="stroke:#038048;stroke-width:1.0;fill:none;"/><text fill="#000000" font-family="sans-serif" font-size="11" lengthAdjust="spacing" textLength="107" x="29" y="79.5449">IsDisabled : boolean</text><ellipse cx="20" cy="88.8652" rx="3" ry="3" style="stroke:#038048;stroke-width:1.0;fill:none;"/><text fill="#000000" font-family="sans-serif" font-size="11" lengthAdjust="spacing" textLength="119" x="29" y="92.5">NoResultsText : string</text><ellipse cx="20" cy="101.8203" rx="3" ry="3" style="stroke:#038048;stroke-width:1.0;fill:none;"/><text fill="#000000" font-family="sans-serif" font-size="11" lengthAdjust="spacing" textLength="173" x="29" y="105.4551">OptionsList : DropDownOption[]</text><ellipse cx="20" cy="114.7754" rx="3" ry="3" style="stroke:#038048;stroke-width:1.0;fill:none;"/><text fill="#000000" font-family="sans-serif" font-size="11" lengthAdjust="spacing" textLength="80" x="29" y="118.4102">Prompt : string</text><ellipse cx="20" cy="127.7305" rx="3" ry="3" style="stroke:#038048;stroke-width:1.0;fill:none;"/><text fill="#000000" font-family="sans-serif" font-size="11" lengthAdjust="spacing" textLength="116" x="29" y="131.3652">SearchPrompt : string</text><ellipse cx="20" cy="140.6855" rx="3" ry="3" style="stroke:#038048;stroke-width:1.0;fill:none;"/><text fill="#000000" font-family="sans-serif" font-size="11" lengthAdjust="spacing" textLength="198" x="29" y="144.3203">SelectedOptions : DropDownOption[]</text><ellipse cx="20" cy="153.6406" rx="3" ry="3" style="stroke:#038048;stroke-width:1.0;fill:none;"/><text fill="#000000" font-family="sans-serif" font-size="11" lengthAdjust="spacing" textLength="176" x="29" y="157.2754">ShowDropboxAsPopup : boolean</text><line style="stroke:#272B30;stroke-width:1.5;" x1="10" x2="487" y1="163.5957" y2="163.5957"/><ellipse cx="20" cy="174.5957" fill="#84BE84" rx="3" ry="3" style="stroke:#038048;stroke-width:1.0;"/><text fill="#000000" font-family="sans-serif" font-size="11" lengthAdjust="spacing" textLength="207" x="29" y="178.2305">getProviderConfig() : VirtualSelectOpts</text><ellipse cx="20" cy="187.5508" fill="#84BE84" rx="3" ry="3" style="stroke:#038048;stroke-width:1.0;"/><text fill="#000000" font-family="sans-serif" font-size="11" lengthAdjust="spacing" textLength="319" x="29" y="191.1855">setDropboxWrapperConfig(showAsPopup: boolean) : string</text><ellipse cx="20" cy="200.5059" fill="#84BE84" rx="3" ry="3" style="stroke:#038048;stroke-width:1.0;"/><text fill="#000000" font-family="sans-serif" font-size="11" lengthAdjust="spacing" textLength="318" x="29" y="204.1406">validateCanChange(_isBuilt: boolean, _key: string) : boolean</text><ellipse cx="20" cy="213.4609" fill="#84BE84" rx="3" ry="3" style="stroke:#038048;stroke-width:1.0;"/><text fill="#000000" font-family="sans-serif" font-size="11" lengthAdjust="spacing" textLength="290" x="29" y="217.0957">validateDefault(key: string, value: unknown) : unknown</text><polygon fill="#FFFF44" points="20,221.416,24,225.416,20,229.416,16,225.416" style="stroke:#B38D22;stroke-width:1.0;"/><text fill="#000000" font-family="sans-serif" font-size="11" lengthAdjust="spacing" textLength="341" x="29" y="230.0508">validateBoolean(value: boolean, defaultValue: boolean) : boolean</text><polygon fill="#FFFF44" points="20,234.3711,24,238.3711,20,242.3711,16,238.3711" style="stroke:#B38D22;stroke-width:1.0;"/><text fill="#000000" font-family="sans-serif" font-size="11" lengthAdjust="spacing" textLength="358" x="29" y="243.0059">validateDate(value: string | Date, defaultValue: string) : string | Date</text><polygon fill="#FFFF44" points="20,247.3262,24,251.3262,20,255.3262,16,251.3262" style="stroke:#B38D22;stroke-width:1.0;"/><text fill="#000000" font-family="sans-serif" font-size="11" lengthAdjust="spacing" textLength="453" x="29" y="255.9609">validateInRange(value: unknown, defaultValue: unknown, args: unknown[]) : unknown</text><polygon fill="#FFFF44" points="20,260.2813,24,264.2813,20,268.2813,16,264.2813" style="stroke:#B38D22;stroke-width:1.0;"/><text fill="#000000" font-family="sans-serif" font-size="11" lengthAdjust="spacing" textLength="339" x="29" y="268.916">validateNumber(value: number, defaultValue: number) : number</text><polygon fill="#FFFF44" points="20,273.2363,24,277.2363,20,281.2363,16,277.2363" style="stroke:#B38D22;stroke-width:1.0;"/><text fill="#000000" font-family="sans-serif" font-size="11" lengthAdjust="spacing" textLength="298" x="29" y="281.8711">validateString(value: string, defaultValue: string) : string</text><polygon fill="#FFFF44" points="20,286.1914,24,290.1914,20,294.1914,16,290.1914" style="stroke:#B38D22;stroke-width:1.0;"/><text fill="#000000" font-family="sans-serif" font-size="11" font-style="italic" lengthAdjust="spacing" textLength="159" x="29" y="294.8262">_getSelectedValues() : string[]</text><rect fill="#F24D5C" height="6" style="stroke:#C82930;stroke-width:1.0;" width="6" x="17" y="301.1465"/><text fill="#000000" font-family="sans-serif" font-size="11" lengthAdjust="spacing" textLength="252" x="29" y="307.7813">_checkForFigType(index: number) : FigureType</text><rect fill="#F24D5C" height="6" style="stroke:#C82930;stroke-width:1.0;" width="6" x="17" y="314.1016"/><text fill="#000000" font-family="sans-serif" font-size="11" lengthAdjust="spacing" textLength="241" x="29" y="320.7363">_getOptionIconPrefix(index: number) : string</text><rect fill="#F24D5C" height="6" style="stroke:#C82930;stroke-width:1.0;" width="6" x="17" y="327.0566"/><text fill="#000000" font-family="sans-serif" font-size="11" lengthAdjust="spacing" textLength="250" x="29" y="333.6914">_getOptionImagePrefix(index: number) : string</text><rect fill="#F24D5C" height="6" style="stroke:#C82930;stroke-width:1.0;" width="6" x="17" y="340.0117"/><text fill="#000000" font-family="sans-serif" font-size="11" lengthAdjust="spacing" textLength="283" x="29" y="346.6465">_getOptionInfo(data: VirtualSelectOptionInfo) : string</text><!--MD5=[a8429c11277426958c00a0b9cece18ed]
reverse link AbstractVirtualSelectConfig to VirtualSelectSearchConfig--><path codeLine="54" d="M248.5,373.12 C248.5,386.4 248.5,399.68 248.5,412.7 " fill="none" id="AbstractVirtualSelectConfig-backto-VirtualSelectSearchConfig" style="stroke:#272B30;stroke-width:1.0;"/><polygon fill="none" points="241.5,373.01,248.5,353.01,255.5,373.01,241.5,373.01" style="stroke:#272B30;stroke-width:1.0;"/><!--MD5=[d1f2f14d16135f97572c9004b401b123]
@startuml
skinparam ClassArrowColor #272b30
skinparam ClassBorderColor #272b30
skinparam ClassBackgroundColor #fff
skinparam BackgroundColor #ced4da
hide empty methods
hide empty fields
class "VirtualSelectSearchConfig" {
    +AllowMultipleSelection : boolean
    +ElementId : string
    +ExtendedClass : string
    +IsDisabled : boolean
    +NoResultsText : string
    +OptionsList : DropDownOption[]
    +Prompt : string
    +SearchPrompt : string
    +SelectedOptions : DropDownOption[]
    +ShowDropboxAsPopup : boolean
    +getProviderConfig() : VirtualSelectOpts
    +setDropboxWrapperConfig(showAsPopup: boolean) : string
    +validateCanChange(_isBuilt: boolean, _key: string) : boolean
    +validateDefault(key: string, value: unknown) : unknown
    #validateBoolean(value: boolean, defaultValue: boolean) : boolean
    #validateDate(value: string | Date, defaultValue: string) : string | Date
    #validateInRange(value: unknown, defaultValue: unknown, args: unknown[]) : unknown
    #validateNumber(value: number, defaultValue: number) : number
    #validateString(value: string, defaultValue: string) : string
    #_getSelectedValues() : string[]
}
abstract class "AbstractVirtualSelectConfig" {
    +ElementId : string
    +ExtendedClass : string
    +IsDisabled : boolean
    +NoResultsText : string
    +OptionsList : DropDownOption[]
    +Prompt : string
    +SearchPrompt : string
    +SelectedOptions : DropDownOption[]
    +ShowDropboxAsPopup : boolean
    +getProviderConfig() : VirtualSelectOpts
    +setDropboxWrapperConfig(showAsPopup: boolean) : string
    +validateCanChange(_isBuilt: boolean, _key: string) : boolean
    +validateDefault(key: string, value: unknown) : unknown
    #validateBoolean(value: boolean, defaultValue: boolean) : boolean
    #validateDate(value: string | Date, defaultValue: string) : string | Date
    #validateInRange(value: unknown, defaultValue: unknown, args: unknown[]) : unknown
    #validateNumber(value: number, defaultValue: number) : number
    #validateString(value: string, defaultValue: string) : string
    {abstract} #_getSelectedValues() : string[]
    -_checkForFigType(index: number) : FigureType
    -_getOptionIconPrefix(index: number) : string
    -_getOptionImagePrefix(index: number) : string
    -_getOptionInfo(data: VirtualSelectOptionInfo) : string
}
"AbstractVirtualSelectConfig" <|- - "VirtualSelectSearchConfig"
@enduml

PlantUML version 1.2021.14(Fri Nov 12 16:46:50 WET 2021)
(GPL source distribution)
Java Runtime: Java(TM) SE Runtime Environment
JVM: Java HotSpot(TM) 64-Bit Server VM
Default Encoding: UTF-8
Language: en
Country: PT
--></g></svg>