<?xml version="1.0" encoding="UTF-8" standalone="no"?><svg xmlns="http://www.w3.org/2000/svg" xmlns:xlink="http://www.w3.org/1999/xlink" contentScriptType="application/ecmascript" contentStyleType="text/css" height="766px" preserveAspectRatio="none" style="width:570px;height:766px;background:#CED4DA;" version="1.1" viewBox="0 0 570 766" width="570px" zoomAndPan="magnify"><defs><filter height="300%" id="foun2s5zfiqzx" width="300%" x="-1" y="-1"><feGaussianBlur result="blurOut" stdDeviation="2.0"/><feColorMatrix in="blurOut" result="blurOut2" type="matrix" values="0 0 0 0 0 0 0 0 0 0 0 0 0 0 0 0 0 0 .4 0"/><feOffset dx="4.0" dy="4.0" in="blurOut2" result="blurOut3"/><feBlend in="SourceGraphic" in2="blurOut3" mode="normal"/></filter></defs><g><!--MD5=[983c72bc973049137026ec4fffd0c0e8]
class VirtualSelectTagsConfig--><rect codeLine="7" fill="#FFFFFF" filter="url(#foun2s5zfiqzx)" height="304.0938" id="VirtualSelectTagsConfig" style="stroke:#272B30;stroke-width:1.5;" width="547" x="9" y="448"/><ellipse cx="204.25" cy="464" fill="#ADD1B2" rx="11" ry="11" style="stroke:#272B30;stroke-width:1.0;"/><path d="M207.2188,469.6406 Q206.6406,469.9375 206,470.0781 Q205.3594,470.2344 204.6563,470.2344 Q202.1563,470.2344 200.8281,468.5938 Q199.5156,466.9375 199.5156,463.8125 Q199.5156,460.6875 200.8281,459.0313 Q202.1563,457.375 204.6563,457.375 Q205.3594,457.375 206,457.5313 Q206.6563,457.6875 207.2188,457.9844 L207.2188,460.7031 Q206.5938,460.125 206,459.8594 Q205.4063,459.5781 204.7813,459.5781 Q203.4375,459.5781 202.75,460.6563 Q202.0625,461.7188 202.0625,463.8125 Q202.0625,465.9063 202.75,466.9844 Q203.4375,468.0469 204.7813,468.0469 Q205.4063,468.0469 206,467.7813 Q206.5938,467.5 207.2188,466.9219 L207.2188,469.6406 Z " fill="#000000"/><text fill="#000000" font-family="sans-serif" font-size="12" lengthAdjust="spacing" textLength="148" x="224.75" y="468.1543">VirtualSelectTagsConfig</text><line style="stroke:#272B30;stroke-width:1.5;" x1="10" x2="555" y1="480" y2="480"/><ellipse cx="20" cy="491" rx="3" ry="3" style="stroke:#038048;stroke-width:1.0;fill:none;"/><text fill="#000000" font-family="sans-serif" font-size="11" lengthAdjust="spacing" textLength="101" x="29" y="494.2104">ElementId : string</text><ellipse cx="20" cy="503.8047" rx="3" ry="3" style="stroke:#038048;stroke-width:1.0;fill:none;"/><text fill="#000000" font-family="sans-serif" font-size="11" lengthAdjust="spacing" textLength="129" x="29" y="507.0151">ExtendedClass : string</text><ellipse cx="20" cy="516.6094" rx="3" ry="3" style="stroke:#038048;stroke-width:1.0;fill:none;"/><text fill="#000000" font-family="sans-serif" font-size="11" lengthAdjust="spacing" textLength="116" x="29" y="519.8198">IsDisabled : boolean</text><ellipse cx="20" cy="529.4141" rx="3" ry="3" style="stroke:#038048;stroke-width:1.0;fill:none;"/><text fill="#000000" font-family="sans-serif" font-size="11" lengthAdjust="spacing" textLength="126" x="29" y="532.6245">NoResultsText : string</text><ellipse cx="20" cy="542.2188" rx="3" ry="3" style="stroke:#038048;stroke-width:1.0;fill:none;"/><text fill="#000000" font-family="sans-serif" font-size="11" lengthAdjust="spacing" textLength="179" x="29" y="545.4292">OptionsList : DropDownOption[]</text><ellipse cx="20" cy="555.0234" rx="3" ry="3" style="stroke:#038048;stroke-width:1.0;fill:none;"/><text fill="#000000" font-family="sans-serif" font-size="11" lengthAdjust="spacing" textLength="86" x="29" y="558.2339">Prompt : string</text><ellipse cx="20" cy="567.8281" rx="3" ry="3" style="stroke:#038048;stroke-width:1.0;fill:none;"/><text fill="#000000" font-family="sans-serif" font-size="11" lengthAdjust="spacing" textLength="126" x="29" y="571.0386">SearchPrompt : string</text><ellipse cx="20" cy="580.6328" rx="3" ry="3" style="stroke:#038048;stroke-width:1.0;fill:none;"/><text fill="#000000" font-family="sans-serif" font-size="11" lengthAdjust="spacing" textLength="208" x="29" y="583.8433">SelectedOptions : DropDownOption[]</text><ellipse cx="20" cy="593.4375" rx="3" ry="3" style="stroke:#038048;stroke-width:1.0;fill:none;"/><text fill="#000000" font-family="sans-serif" font-size="11" lengthAdjust="spacing" textLength="184" x="29" y="596.6479">ShowDropboxAsPopup : boolean</text><line style="stroke:#272B30;stroke-width:1.5;" x1="10" x2="555" y1="603.2422" y2="603.2422"/><ellipse cx="20" cy="614.2422" fill="#84BE84" rx="3" ry="3" style="stroke:#038048;stroke-width:1.0;"/><text fill="#000000" font-family="sans-serif" font-size="11" lengthAdjust="spacing" textLength="219" x="29" y="617.4526">getProviderConfig() : VirtualSelectOpts</text><ellipse cx="20" cy="627.0469" fill="#84BE84" rx="3" ry="3" style="stroke:#038048;stroke-width:1.0;"/><text fill="#000000" font-family="sans-serif" font-size="11" lengthAdjust="spacing" textLength="342" x="29" y="630.2573">validateCanChange(_isBuilt: boolean, _key: string) : boolean</text><ellipse cx="20" cy="639.8516" fill="#84BE84" rx="3" ry="3" style="stroke:#038048;stroke-width:1.0;"/><text fill="#000000" font-family="sans-serif" font-size="11" lengthAdjust="spacing" textLength="310" x="29" y="643.062">validateDefault(key: string, value: unknown) : unknown</text><ellipse cx="20" cy="652.6563" fill="#84BE84" rx="3" ry="3" style="stroke:#038048;stroke-width:1.0;"/><text fill="#000000" font-family="sans-serif" font-size="11" lengthAdjust="spacing" textLength="521" x="29" y="655.8667">validateExtensibilityConfigs(newConfigs: VirtualSelectOpts, providerInfo: ProviderInfo) : void</text><polygon fill="#FFFF44" points="20,660.4609,24,664.4609,20,668.4609,16,664.4609" style="stroke:#B38D22;stroke-width:1.0;"/><text fill="#000000" font-family="sans-serif" font-size="11" lengthAdjust="spacing" textLength="418" x="29" y="668.6714">mergeConfigs(providerOptions: any, providerExtendedOptions: any) : any</text><polygon fill="#FFFF44" points="20,673.2656,24,677.2656,20,681.2656,16,677.2656" style="stroke:#B38D22;stroke-width:1.0;"/><text fill="#000000" font-family="sans-serif" font-size="11" lengthAdjust="spacing" textLength="369" x="29" y="681.4761">validateBoolean(value: boolean, defaultValue: boolean) : boolean</text><polygon fill="#FFFF44" points="20,686.0703,24,690.0703,20,694.0703,16,690.0703" style="stroke:#B38D22;stroke-width:1.0;"/><text fill="#000000" font-family="sans-serif" font-size="11" lengthAdjust="spacing" textLength="389" x="29" y="694.2808">validateDate(value: string | Date, defaultValue: string) : string | Date</text><polygon fill="#FFFF44" points="20,698.875,24,702.875,20,706.875,16,702.875" style="stroke:#B38D22;stroke-width:1.0;"/><text fill="#000000" font-family="sans-serif" font-size="11" lengthAdjust="spacing" textLength="483" x="29" y="707.0854">validateInRange(value: unknown, defaultValue: unknown, args: unknown[]) : unknown</text><polygon fill="#FFFF44" points="20,711.6797,24,715.6797,20,719.6797,16,715.6797" style="stroke:#B38D22;stroke-width:1.0;"/><text fill="#000000" font-family="sans-serif" font-size="11" lengthAdjust="spacing" textLength="365" x="29" y="719.8901">validateNumber(value: number, defaultValue: number) : number</text><polygon fill="#FFFF44" points="20,724.4844,24,728.4844,20,732.4844,16,728.4844" style="stroke:#B38D22;stroke-width:1.0;"/><text fill="#000000" font-family="sans-serif" font-size="11" lengthAdjust="spacing" textLength="321" x="29" y="732.6948">validateString(value: string, defaultValue: string) : string</text><polygon fill="#FFFF44" points="20,737.2891,24,741.2891,20,745.2891,16,741.2891" style="stroke:#B38D22;stroke-width:1.0;"/><text fill="#000000" font-family="sans-serif" font-size="11" lengthAdjust="spacing" textLength="172" x="29" y="745.4995">_getSelectedValues() : string[]</text><!--MD5=[d083cb4325ddab693ce4333aca45f609]
class AbstractVirtualSelectConfig--><rect codeLine="29" fill="#FFFFFF" filter="url(#foun2s5zfiqzx)" height="380.9219" id="AbstractVirtualSelectConfig" style="stroke:#272B30;stroke-width:1.5;" width="547" x="9" y="7"/><ellipse cx="193.25" cy="23" fill="#A9DCDF" rx="11" ry="11" style="stroke:#272B30;stroke-width:1.0;"/><path d="M193.3594,18.3438 L192.2031,23.4219 L194.5313,23.4219 L193.3594,18.3438 Z M191.875,16.1094 L194.8594,16.1094 L198.2188,28.5 L195.7656,28.5 L195,25.4375 L191.7188,25.4375 L190.9688,28.5 L188.5313,28.5 L191.875,16.1094 Z " fill="#000000"/><text fill="#000000" font-family="sans-serif" font-size="12" font-style="italic" lengthAdjust="spacing" textLength="170" x="213.75" y="27.1543">AbstractVirtualSelectConfig</text><line style="stroke:#272B30;stroke-width:1.5;" x1="10" x2="555" y1="39" y2="39"/><ellipse cx="20" cy="50" rx="3" ry="3" style="stroke:#038048;stroke-width:1.0;fill:none;"/><text fill="#000000" font-family="sans-serif" font-size="11" lengthAdjust="spacing" textLength="101" x="29" y="53.2104">ElementId : string</text><ellipse cx="20" cy="62.8047" rx="3" ry="3" style="stroke:#038048;stroke-width:1.0;fill:none;"/><text fill="#000000" font-family="sans-serif" font-size="11" lengthAdjust="spacing" textLength="129" x="29" y="66.0151">ExtendedClass : string</text><ellipse cx="20" cy="75.6094" rx="3" ry="3" style="stroke:#038048;stroke-width:1.0;fill:none;"/><text fill="#000000" font-family="sans-serif" font-size="11" lengthAdjust="spacing" textLength="116" x="29" y="78.8198">IsDisabled : boolean</text><ellipse cx="20" cy="88.4141" rx="3" ry="3" style="stroke:#038048;stroke-width:1.0;fill:none;"/><text fill="#000000" font-family="sans-serif" font-size="11" lengthAdjust="spacing" textLength="126" x="29" y="91.6245">NoResultsText : string</text><ellipse cx="20" cy="101.2188" rx="3" ry="3" style="stroke:#038048;stroke-width:1.0;fill:none;"/><text fill="#000000" font-family="sans-serif" font-size="11" lengthAdjust="spacing" textLength="179" x="29" y="104.4292">OptionsList : DropDownOption[]</text><ellipse cx="20" cy="114.0234" rx="3" ry="3" style="stroke:#038048;stroke-width:1.0;fill:none;"/><text fill="#000000" font-family="sans-serif" font-size="11" lengthAdjust="spacing" textLength="86" x="29" y="117.2339">Prompt : string</text><ellipse cx="20" cy="126.8281" rx="3" ry="3" style="stroke:#038048;stroke-width:1.0;fill:none;"/><text fill="#000000" font-family="sans-serif" font-size="11" lengthAdjust="spacing" textLength="126" x="29" y="130.0386">SearchPrompt : string</text><ellipse cx="20" cy="139.6328" rx="3" ry="3" style="stroke:#038048;stroke-width:1.0;fill:none;"/><text fill="#000000" font-family="sans-serif" font-size="11" lengthAdjust="spacing" textLength="208" x="29" y="142.8433">SelectedOptions : DropDownOption[]</text><ellipse cx="20" cy="152.4375" rx="3" ry="3" style="stroke:#038048;stroke-width:1.0;fill:none;"/><text fill="#000000" font-family="sans-serif" font-size="11" lengthAdjust="spacing" textLength="184" x="29" y="155.6479">ShowDropboxAsPopup : boolean</text><rect fill="none" height="6" style="stroke:#C82930;stroke-width:1.0;" width="6" x="17" y="162.2422"/><text fill="#000000" font-family="sans-serif" font-size="11" lengthAdjust="spacing" textLength="259" x="29" y="168.4526">_providerExtendedOptions : VirtualSelectOpts</text><rect fill="none" height="6" style="stroke:#C82930;stroke-width:1.0;" width="6" x="17" y="175.0469"/><text fill="#000000" font-family="sans-serif" font-size="11" lengthAdjust="spacing" textLength="207" x="29" y="181.2573">_providerOptions : VirtualSelectOpts</text><line style="stroke:#272B30;stroke-width:1.5;" x1="10" x2="555" y1="187.8516" y2="187.8516"/><ellipse cx="20" cy="198.8516" fill="#84BE84" rx="3" ry="3" style="stroke:#038048;stroke-width:1.0;"/><text fill="#000000" font-family="sans-serif" font-size="11" lengthAdjust="spacing" textLength="219" x="29" y="202.062">getProviderConfig() : VirtualSelectOpts</text><ellipse cx="20" cy="211.6563" fill="#84BE84" rx="3" ry="3" style="stroke:#038048;stroke-width:1.0;"/><text fill="#000000" font-family="sans-serif" font-size="11" lengthAdjust="spacing" textLength="342" x="29" y="214.8667">validateCanChange(_isBuilt: boolean, _key: string) : boolean</text><ellipse cx="20" cy="224.4609" fill="#84BE84" rx="3" ry="3" style="stroke:#038048;stroke-width:1.0;"/><text fill="#000000" font-family="sans-serif" font-size="11" lengthAdjust="spacing" textLength="310" x="29" y="227.6714">validateDefault(key: string, value: unknown) : unknown</text><ellipse cx="20" cy="237.2656" fill="#84BE84" rx="3" ry="3" style="stroke:#038048;stroke-width:1.0;"/><text fill="#000000" font-family="sans-serif" font-size="11" lengthAdjust="spacing" textLength="521" x="29" y="240.4761">validateExtensibilityConfigs(newConfigs: VirtualSelectOpts, providerInfo: ProviderInfo) : void</text><polygon fill="#FFFF44" points="20,245.0703,24,249.0703,20,253.0703,16,249.0703" style="stroke:#B38D22;stroke-width:1.0;"/><text fill="#000000" font-family="sans-serif" font-size="11" lengthAdjust="spacing" textLength="418" x="29" y="253.2808">mergeConfigs(providerOptions: any, providerExtendedOptions: any) : any</text><polygon fill="#FFFF44" points="20,257.875,24,261.875,20,265.875,16,261.875" style="stroke:#B38D22;stroke-width:1.0;"/><text fill="#000000" font-family="sans-serif" font-size="11" lengthAdjust="spacing" textLength="369" x="29" y="266.0854">validateBoolean(value: boolean, defaultValue: boolean) : boolean</text><polygon fill="#FFFF44" points="20,270.6797,24,274.6797,20,278.6797,16,274.6797" style="stroke:#B38D22;stroke-width:1.0;"/><text fill="#000000" font-family="sans-serif" font-size="11" lengthAdjust="spacing" textLength="389" x="29" y="278.8901">validateDate(value: string | Date, defaultValue: string) : string | Date</text><polygon fill="#FFFF44" points="20,283.4844,24,287.4844,20,291.4844,16,287.4844" style="stroke:#B38D22;stroke-width:1.0;"/><text fill="#000000" font-family="sans-serif" font-size="11" lengthAdjust="spacing" textLength="483" x="29" y="291.6948">validateInRange(value: unknown, defaultValue: unknown, args: unknown[]) : unknown</text><polygon fill="#FFFF44" points="20,296.2891,24,300.2891,20,304.2891,16,300.2891" style="stroke:#B38D22;stroke-width:1.0;"/><text fill="#000000" font-family="sans-serif" font-size="11" lengthAdjust="spacing" textLength="365" x="29" y="304.4995">validateNumber(value: number, defaultValue: number) : number</text><polygon fill="#FFFF44" points="20,309.0938,24,313.0938,20,317.0938,16,313.0938" style="stroke:#B38D22;stroke-width:1.0;"/><text fill="#000000" font-family="sans-serif" font-size="11" lengthAdjust="spacing" textLength="321" x="29" y="317.3042">validateString(value: string, defaultValue: string) : string</text><polygon fill="#FFFF44" points="20,321.8984,24,325.8984,20,329.8984,16,325.8984" style="stroke:#B38D22;stroke-width:1.0;"/><text fill="#000000" font-family="sans-serif" font-size="11" font-style="italic" lengthAdjust="spacing" textLength="170" x="29" y="330.1089">_getSelectedValues() : string[]</text><rect fill="#F24D5C" height="6" style="stroke:#C82930;stroke-width:1.0;" width="6" x="17" y="336.7031"/><text fill="#000000" font-family="sans-serif" font-size="11" lengthAdjust="spacing" textLength="263" x="29" y="342.9136">_checkForFigType(index: number) : FigureType</text><rect fill="#F24D5C" height="6" style="stroke:#C82930;stroke-width:1.0;" width="6" x="17" y="349.5078"/><text fill="#000000" font-family="sans-serif" font-size="11" lengthAdjust="spacing" textLength="251" x="29" y="355.7183">_getOptionIconPrefix(index: number) : string</text><rect fill="#F24D5C" height="6" style="stroke:#C82930;stroke-width:1.0;" width="6" x="17" y="362.3125"/><text fill="#000000" font-family="sans-serif" font-size="11" lengthAdjust="spacing" textLength="263" x="29" y="368.5229">_getOptionImagePrefix(index: number) : string</text><rect fill="#F24D5C" height="6" style="stroke:#C82930;stroke-width:1.0;" width="6" x="17" y="375.1172"/><text fill="#000000" font-family="sans-serif" font-size="11" lengthAdjust="spacing" textLength="297" x="29" y="381.3276">_getOptionInfo(data: VirtualSelectOptionInfo) : string</text><!--MD5=[92ac54dfe84d9ec9b6d1c092140519bd]
reverse link AbstractVirtualSelectConfig to VirtualSelectTagsConfig--><path codeLine="57" d="M282.5,408.38 C282.5,421.68 282.5,434.92 282.5,447.86 " fill="none" id="AbstractVirtualSelectConfig-backto-VirtualSelectTagsConfig" style="stroke:#272B30;stroke-width:1.0;"/><polygon fill="none" points="275.5,408.19,282.5,388.19,289.5,408.19,275.5,408.19" style="stroke:#272B30;stroke-width:1.0;"/><!--MD5=[1d303bab8b08a8d0bbaefeae3fbd13c1]
@startuml
skinparam ClassArrowColor #272b30
skinparam ClassBorderColor #272b30
skinparam ClassBackgroundColor #fff
skinparam BackgroundColor #ced4da
hide empty methods
hide empty fields
class "VirtualSelectTagsConfig" {
    +ElementId : string
    +ExtendedClass : string
    +IsDisabled : boolean
    +NoResultsText : string
    +OptionsList : DropDownOption[]
    +Prompt : string
    +SearchPrompt : string
    +SelectedOptions : DropDownOption[]
    +ShowDropboxAsPopup : boolean
    +getProviderConfig() : VirtualSelectOpts
    +validateCanChange(_isBuilt: boolean, _key: string) : boolean
    +validateDefault(key: string, value: unknown) : unknown
    +validateExtensibilityConfigs(newConfigs: VirtualSelectOpts, providerInfo: ProviderInfo) : void
    #mergeConfigs(providerOptions: any, providerExtendedOptions: any) : any
    #validateBoolean(value: boolean, defaultValue: boolean) : boolean
    #validateDate(value: string | Date, defaultValue: string) : string | Date
    #validateInRange(value: unknown, defaultValue: unknown, args: unknown[]) : unknown
    #validateNumber(value: number, defaultValue: number) : number
    #validateString(value: string, defaultValue: string) : string
    #_getSelectedValues() : string[]
}
abstract class "AbstractVirtualSelectConfig" {
    +ElementId : string
    +ExtendedClass : string
    +IsDisabled : boolean
    +NoResultsText : string
    +OptionsList : DropDownOption[]
    +Prompt : string
    +SearchPrompt : string
    +SelectedOptions : DropDownOption[]
    +ShowDropboxAsPopup : boolean
    -_providerExtendedOptions : VirtualSelectOpts
    -_providerOptions : VirtualSelectOpts
    +getProviderConfig() : VirtualSelectOpts
    +validateCanChange(_isBuilt: boolean, _key: string) : boolean
    +validateDefault(key: string, value: unknown) : unknown
    +validateExtensibilityConfigs(newConfigs: VirtualSelectOpts, providerInfo: ProviderInfo) : void
    #mergeConfigs(providerOptions: any, providerExtendedOptions: any) : any
    #validateBoolean(value: boolean, defaultValue: boolean) : boolean
    #validateDate(value: string | Date, defaultValue: string) : string | Date
    #validateInRange(value: unknown, defaultValue: unknown, args: unknown[]) : unknown
    #validateNumber(value: number, defaultValue: number) : number
    #validateString(value: string, defaultValue: string) : string
    {abstract} #_getSelectedValues() : string[]
    -_checkForFigType(index: number) : FigureType
    -_getOptionIconPrefix(index: number) : string
    -_getOptionImagePrefix(index: number) : string
    -_getOptionInfo(data: VirtualSelectOptionInfo) : string
}
"AbstractVirtualSelectConfig" <|- - "VirtualSelectTagsConfig"
@enduml

PlantUML version 1.2021.14(Fri Nov 12 16:46:50 UTC 2021)
(GPL source distribution)
Java Runtime: OpenJDK Runtime Environment
JVM: OpenJDK 64-Bit Server VM
Default Encoding: UTF-8
Language: en
Country: null
--></g></svg>