<?xml version="1.0" encoding="us-ascii" standalone="no"?><svg xmlns="http://www.w3.org/2000/svg" xmlns:xlink="http://www.w3.org/1999/xlink" contentStyleType="text/css" height="1131px" preserveAspectRatio="none" style="width:636px;height:1131px;background:#CED4DA;" version="1.1" viewBox="0 0 636 1131" width="636px" zoomAndPan="magnify"><defs/><g><rect fill="#CED4DA" height="1131" style="stroke:none;stroke-width:1.0;" width="636" x="0" y="0"/><!--class VirtualSelectTagsConfig--><g id="elem_VirtualSelectTagsConfig"><rect codeLine="7" fill="#FFFFFF" height="455.4219" id="VirtualSelectTagsConfig" rx="2.5" ry="2.5" style="stroke:#272B30;stroke-width:0.5;" width="620" x="9" y="669"/><ellipse cx="233.25" cy="685" fill="#ADD1B2" rx="11" ry="11" style="stroke:#181818;stroke-width:1.0;"/><path d="M236.2188,690.6406 Q235.6406,690.9375 235,691.0781 Q234.3594,691.2344 233.6563,691.2344 Q231.1563,691.2344 229.8281,689.5938 Q228.5156,687.9375 228.5156,684.8125 Q228.5156,681.6875 229.8281,680.0313 Q231.1563,678.375 233.6563,678.375 Q234.3594,678.375 235,678.5313 Q235.6563,678.6875 236.2188,678.9844 L236.2188,681.7031 Q235.5938,681.125 235,680.8594 Q234.4063,680.5781 233.7813,680.5781 Q232.4375,680.5781 231.75,681.6563 Q231.0625,682.7188 231.0625,684.8125 Q231.0625,686.9063 231.75,687.9844 Q232.4375,689.0469 233.7813,689.0469 Q234.4063,689.0469 235,688.7813 Q235.5938,688.5 236.2188,687.9219 L236.2188,690.6406 Z " fill="#000000"/><text fill="#000000" font-family="sans-serif" font-size="14" lengthAdjust="spacing" textLength="163" x="253.75" y="689.8467">VirtualSelectTagsConfig</text><line style="stroke:#272B30;stroke-width:0.5;" x1="10" x2="628" y1="701" y2="701"/><ellipse cx="20" cy="714.6484" fill="none" rx="3" ry="3" style="stroke:#038048;stroke-width:1.0;"/><text fill="#000000" font-family="sans-serif" font-size="14" lengthAdjust="spacing" textLength="121" x="29" y="717.9951">ElementId : string</text><ellipse cx="20" cy="730.9453" fill="none" rx="3" ry="3" style="stroke:#038048;stroke-width:1.0;"/><text fill="#000000" font-family="sans-serif" font-size="14" lengthAdjust="spacing" textLength="155" x="29" y="734.292">ExtendedClass : string</text><ellipse cx="20" cy="747.2422" fill="none" rx="3" ry="3" style="stroke:#038048;stroke-width:1.0;"/><text fill="#000000" font-family="sans-serif" font-size="14" lengthAdjust="spacing" textLength="140" x="29" y="750.5889">IsDisabled : boolean</text><ellipse cx="20" cy="763.5391" fill="none" rx="3" ry="3" style="stroke:#038048;stroke-width:1.0;"/><text fill="#000000" font-family="sans-serif" font-size="14" lengthAdjust="spacing" textLength="155" x="29" y="766.8857">NoOptionsText : string</text><ellipse cx="20" cy="779.8359" fill="none" rx="3" ry="3" style="stroke:#038048;stroke-width:1.0;"/><text fill="#000000" font-family="sans-serif" font-size="14" lengthAdjust="spacing" textLength="153" x="29" y="783.1826">NoResultsText : string</text><ellipse cx="20" cy="796.1328" fill="none" rx="3" ry="3" style="stroke:#038048;stroke-width:1.0;"/><text fill="#000000" font-family="sans-serif" font-size="14" lengthAdjust="spacing" textLength="220" x="29" y="799.4795">OptionsList : DropDownOption[]</text><ellipse cx="20" cy="812.4297" fill="none" rx="3" ry="3" style="stroke:#038048;stroke-width:1.0;"/><text fill="#000000" font-family="sans-serif" font-size="14" lengthAdjust="spacing" textLength="231" x="29" y="815.7764">PopupDropboxBreakpoint : string</text><ellipse cx="20" cy="828.7266" fill="none" rx="3" ry="3" style="stroke:#038048;stroke-width:1.0;"/><text fill="#000000" font-family="sans-serif" font-size="14" lengthAdjust="spacing" textLength="102" x="29" y="832.0732">Prompt : string</text><ellipse cx="20" cy="845.0234" fill="none" rx="3" ry="3" style="stroke:#038048;stroke-width:1.0;"/><text fill="#000000" font-family="sans-serif" font-size="14" lengthAdjust="spacing" textLength="241" x="29" y="848.3701">SanitizeDropdownValues : boolean</text><ellipse cx="20" cy="861.3203" fill="none" rx="3" ry="3" style="stroke:#038048;stroke-width:1.0;"/><text fill="#000000" font-family="sans-serif" font-size="14" lengthAdjust="spacing" textLength="150" x="29" y="864.667">SearchPrompt : string</text><ellipse cx="20" cy="877.6172" fill="none" rx="3" ry="3" style="stroke:#038048;stroke-width:1.0;"/><text fill="#000000" font-family="sans-serif" font-size="14" lengthAdjust="spacing" textLength="228" x="29" y="880.9639">ShowDropboxAsPopup : boolean</text><ellipse cx="20" cy="893.9141" fill="none" rx="3" ry="3" style="stroke:#038048;stroke-width:1.0;"/><text fill="#000000" font-family="sans-serif" font-size="14" lengthAdjust="spacing" textLength="260" x="29" y="897.2607">StartingSelection : DropDownOption[]</text><polygon fill="none" points="20,905.2109,24,909.2109,20,913.2109,16,909.2109" style="stroke:#B38D22;stroke-width:1.0;"/><text fill="#000000" font-family="sans-serif" font-size="14" lengthAdjust="spacing" textLength="307" x="29" y="913.5576">providerExtendedOptions : VirtualSelectOpts</text><line style="stroke:#272B30;stroke-width:0.5;" x1="10" x2="628" y1="920.8594" y2="920.8594"/><ellipse cx="20" cy="934.5078" fill="#84BE84" rx="3" ry="3" style="stroke:#038048;stroke-width:1.0;"/><text fill="#000000" font-family="sans-serif" font-size="14" lengthAdjust="spacing" textLength="264" x="29" y="937.8545">getProviderConfig() : VirtualSelectOpts</text><ellipse cx="20" cy="950.8047" fill="#84BE84" rx="3" ry="3" style="stroke:#038048;stroke-width:1.0;"/><text fill="#000000" font-family="sans-serif" font-size="14" lengthAdjust="spacing" textLength="413" x="29" y="954.1514">setExtensibilityConfigs(newConfigs: VirtualSelectOpts) : void</text><ellipse cx="20" cy="967.1016" fill="#84BE84" rx="3" ry="3" style="stroke:#038048;stroke-width:1.0;"/><text fill="#000000" font-family="sans-serif" font-size="14" lengthAdjust="spacing" textLength="412" x="29" y="970.4482">validateCanChange(_isBuilt: boolean, _key: string) : boolean</text><ellipse cx="20" cy="983.3984" fill="#84BE84" rx="3" ry="3" style="stroke:#038048;stroke-width:1.0;"/><text fill="#000000" font-family="sans-serif" font-size="14" lengthAdjust="spacing" textLength="377" x="29" y="986.7451">validateDefault(key: string, value: unknown) : unknown</text><polygon fill="#FFFF44" points="20,994.6953,24,998.6953,20,1002.6953,16,998.6953" style="stroke:#B38D22;stroke-width:1.0;"/><text fill="#000000" font-family="sans-serif" font-size="14" lengthAdjust="spacing" textLength="202" x="29" y="1003.042">getSelectedValues() : string[]</text><polygon fill="#FFFF44" points="20,1010.9922,24,1014.9922,20,1018.9922,16,1014.9922" style="stroke:#B38D22;stroke-width:1.0;"/><text fill="#000000" font-family="sans-serif" font-size="14" lengthAdjust="spacing" textLength="594" x="29" y="1019.3389">mergeConfigs(commonConfigs: any, specificConfigs: any, extendedConfigs: any) : any</text><polygon fill="#FFFF44" points="20,1027.2891,24,1031.2891,20,1035.2891,16,1031.2891" style="stroke:#B38D22;stroke-width:1.0;"/><text fill="#000000" font-family="sans-serif" font-size="14" lengthAdjust="spacing" textLength="447" x="29" y="1035.6357">validateBoolean(value: boolean, defaultValue: boolean) : boolean</text><polygon fill="#FFFF44" points="20,1043.5859,24,1047.5859,20,1051.5859,16,1047.5859" style="stroke:#B38D22;stroke-width:1.0;"/><text fill="#000000" font-family="sans-serif" font-size="14" lengthAdjust="spacing" textLength="464" x="29" y="1051.9326">validateDate(value: string | Date, defaultValue: string) : string | Date</text><polygon fill="#FFFF44" points="20,1059.8828,24,1063.8828,20,1067.8828,16,1063.8828" style="stroke:#B38D22;stroke-width:1.0;"/><text fill="#000000" font-family="sans-serif" font-size="14" lengthAdjust="spacing" textLength="592" x="29" y="1068.2295">validateInRange(value: unknown, defaultValue: unknown, args: unknown[]) : unknown</text><polygon fill="#FFFF44" points="20,1076.1797,24,1080.1797,20,1084.1797,16,1080.1797" style="stroke:#B38D22;stroke-width:1.0;"/><text fill="#000000" font-family="sans-serif" font-size="14" lengthAdjust="spacing" textLength="439" x="29" y="1084.5264">validateNumber(value: number, defaultValue: number) : number</text><polygon fill="#FFFF44" points="20,1092.4766,24,1096.4766,20,1100.4766,16,1096.4766" style="stroke:#B38D22;stroke-width:1.0;"/><text fill="#000000" font-family="sans-serif" font-size="14" lengthAdjust="spacing" textLength="379" x="29" y="1100.8232">validateString(value: string, defaultValue: string) : string</text><polygon fill="#FFFF44" points="20,1108.7734,24,1112.7734,20,1116.7734,16,1112.7734" style="stroke:#B38D22;stroke-width:1.0;"/><text fill="#000000" font-family="sans-serif" font-size="14" lengthAdjust="spacing" textLength="373" x="29" y="1117.1201">validateTime(value: string, defaultValue: string) : string</text></g><!--class AbstractVirtualSelectConfig--><g id="elem_AbstractVirtualSelectConfig"><rect codeLine="34" fill="#FFFFFF" height="602.0938" id="AbstractVirtualSelectConfig" rx="2.5" ry="2.5" style="stroke:#272B30;stroke-width:0.5;" width="620" x="9" y="7"/><ellipse cx="221.25" cy="23" fill="#A9DCDF" rx="11" ry="11" style="stroke:#181818;stroke-width:1.0;"/><path d="M221.3594,18.3438 L220.2031,23.4219 L222.5313,23.4219 L221.3594,18.3438 Z M219.875,16.1094 L222.8594,16.1094 L226.2188,28.5 L223.7656,28.5 L223,25.4375 L219.7188,25.4375 L218.9688,28.5 L216.5313,28.5 L219.875,16.1094 Z " fill="#000000"/><text fill="#000000" font-family="sans-serif" font-size="14" font-style="italic" lengthAdjust="spacing" textLength="187" x="241.75" y="27.8467">AbstractVirtualSelectConfig</text><line style="stroke:#272B30;stroke-width:0.5;" x1="10" x2="628" y1="39" y2="39"/><ellipse cx="20" cy="52.6484" fill="none" rx="3" ry="3" style="stroke:#038048;stroke-width:1.0;"/><text fill="#000000" font-family="sans-serif" font-size="14" lengthAdjust="spacing" textLength="121" x="29" y="55.9951">ElementId : string</text><ellipse cx="20" cy="68.9453" fill="none" rx="3" ry="3" style="stroke:#038048;stroke-width:1.0;"/><text fill="#000000" font-family="sans-serif" font-size="14" lengthAdjust="spacing" textLength="155" x="29" y="72.292">ExtendedClass : string</text><ellipse cx="20" cy="85.2422" fill="none" rx="3" ry="3" style="stroke:#038048;stroke-width:1.0;"/><text fill="#000000" font-family="sans-serif" font-size="14" lengthAdjust="spacing" textLength="140" x="29" y="88.5889">IsDisabled : boolean</text><ellipse cx="20" cy="101.5391" fill="none" rx="3" ry="3" style="stroke:#038048;stroke-width:1.0;"/><text fill="#000000" font-family="sans-serif" font-size="14" lengthAdjust="spacing" textLength="155" x="29" y="104.8857">NoOptionsText : string</text><ellipse cx="20" cy="117.8359" fill="none" rx="3" ry="3" style="stroke:#038048;stroke-width:1.0;"/><text fill="#000000" font-family="sans-serif" font-size="14" lengthAdjust="spacing" textLength="153" x="29" y="121.1826">NoResultsText : string</text><ellipse cx="20" cy="134.1328" fill="none" rx="3" ry="3" style="stroke:#038048;stroke-width:1.0;"/><text fill="#000000" font-family="sans-serif" font-size="14" lengthAdjust="spacing" textLength="220" x="29" y="137.4795">OptionsList : DropDownOption[]</text><ellipse cx="20" cy="150.4297" fill="none" rx="3" ry="3" style="stroke:#038048;stroke-width:1.0;"/><text fill="#000000" font-family="sans-serif" font-size="14" lengthAdjust="spacing" textLength="231" x="29" y="153.7764">PopupDropboxBreakpoint : string</text><ellipse cx="20" cy="166.7266" fill="none" rx="3" ry="3" style="stroke:#038048;stroke-width:1.0;"/><text fill="#000000" font-family="sans-serif" font-size="14" lengthAdjust="spacing" textLength="102" x="29" y="170.0732">Prompt : string</text><ellipse cx="20" cy="183.0234" fill="none" rx="3" ry="3" style="stroke:#038048;stroke-width:1.0;"/><text fill="#000000" font-family="sans-serif" font-size="14" lengthAdjust="spacing" textLength="241" x="29" y="186.3701">SanitizeDropdownValues : boolean</text><ellipse cx="20" cy="199.3203" fill="none" rx="3" ry="3" style="stroke:#038048;stroke-width:1.0;"/><text fill="#000000" font-family="sans-serif" font-size="14" lengthAdjust="spacing" textLength="150" x="29" y="202.667">SearchPrompt : string</text><ellipse cx="20" cy="215.6172" fill="none" rx="3" ry="3" style="stroke:#038048;stroke-width:1.0;"/><text fill="#000000" font-family="sans-serif" font-size="14" lengthAdjust="spacing" textLength="228" x="29" y="218.9639">ShowDropboxAsPopup : boolean</text><ellipse cx="20" cy="231.9141" fill="none" rx="3" ry="3" style="stroke:#038048;stroke-width:1.0;"/><text fill="#000000" font-family="sans-serif" font-size="14" lengthAdjust="spacing" textLength="260" x="29" y="235.2607">StartingSelection : DropDownOption[]</text><polygon fill="none" points="20,243.2109,24,247.2109,20,251.2109,16,247.2109" style="stroke:#B38D22;stroke-width:1.0;"/><text fill="#000000" font-family="sans-serif" font-size="14" lengthAdjust="spacing" textLength="307" x="29" y="251.5576">providerExtendedOptions : VirtualSelectOpts</text><rect fill="none" height="6" style="stroke:#C82930;stroke-width:1.0;" width="6" x="17" y="261.5078"/><text fill="#000000" font-family="sans-serif" font-size="14" lengthAdjust="spacing" textLength="329" x="29" y="267.8545">_groupedOptionsList : GroupDropDownOption[]</text><rect fill="none" height="6" style="stroke:#C82930;stroke-width:1.0;" width="6" x="17" y="277.8047"/><text fill="#000000" font-family="sans-serif" font-size="14" lengthAdjust="spacing" textLength="248" x="29" y="284.1514">_providerOptions : VirtualSelectOpts</text><line style="stroke:#272B30;stroke-width:0.5;" x1="10" x2="628" y1="291.4531" y2="291.4531"/><ellipse cx="20" cy="305.1016" fill="#84BE84" rx="3" ry="3" style="stroke:#038048;stroke-width:1.0;"/><text fill="#000000" font-family="sans-serif" font-size="14" lengthAdjust="spacing" textLength="264" x="29" y="308.4482">getProviderConfig() : VirtualSelectOpts</text><ellipse cx="20" cy="321.3984" fill="#84BE84" rx="3" ry="3" style="stroke:#038048;stroke-width:1.0;"/><text fill="#000000" font-family="sans-serif" font-size="14" lengthAdjust="spacing" textLength="413" x="29" y="324.7451">setExtensibilityConfigs(newConfigs: VirtualSelectOpts) : void</text><ellipse cx="20" cy="337.6953" fill="#84BE84" rx="3" ry="3" style="stroke:#038048;stroke-width:1.0;"/><text fill="#000000" font-family="sans-serif" font-size="14" lengthAdjust="spacing" textLength="412" x="29" y="341.042">validateCanChange(_isBuilt: boolean, _key: string) : boolean</text><ellipse cx="20" cy="353.9922" fill="#84BE84" rx="3" ry="3" style="stroke:#038048;stroke-width:1.0;"/><text fill="#000000" font-family="sans-serif" font-size="14" lengthAdjust="spacing" textLength="377" x="29" y="357.3389">validateDefault(key: string, value: unknown) : unknown</text><polygon fill="#FFFF44" points="20,365.2891,24,369.2891,20,373.2891,16,369.2891" style="stroke:#B38D22;stroke-width:1.0;"/><text fill="#000000" font-family="sans-serif" font-size="14" font-style="italic" lengthAdjust="spacing" textLength="201" x="29" y="373.6357">getSelectedValues() : string[]</text><polygon fill="#FFFF44" points="20,381.5859,24,385.5859,20,389.5859,16,385.5859" style="stroke:#B38D22;stroke-width:1.0;"/><text fill="#000000" font-family="sans-serif" font-size="14" lengthAdjust="spacing" textLength="594" x="29" y="389.9326">mergeConfigs(commonConfigs: any, specificConfigs: any, extendedConfigs: any) : any</text><polygon fill="#FFFF44" points="20,397.8828,24,401.8828,20,405.8828,16,401.8828" style="stroke:#B38D22;stroke-width:1.0;"/><text fill="#000000" font-family="sans-serif" font-size="14" lengthAdjust="spacing" textLength="447" x="29" y="406.2295">validateBoolean(value: boolean, defaultValue: boolean) : boolean</text><polygon fill="#FFFF44" points="20,414.1797,24,418.1797,20,422.1797,16,418.1797" style="stroke:#B38D22;stroke-width:1.0;"/><text fill="#000000" font-family="sans-serif" font-size="14" lengthAdjust="spacing" textLength="464" x="29" y="422.5264">validateDate(value: string | Date, defaultValue: string) : string | Date</text><polygon fill="#FFFF44" points="20,430.4766,24,434.4766,20,438.4766,16,434.4766" style="stroke:#B38D22;stroke-width:1.0;"/><text fill="#000000" font-family="sans-serif" font-size="14" lengthAdjust="spacing" textLength="592" x="29" y="438.8232">validateInRange(value: unknown, defaultValue: unknown, args: unknown[]) : unknown</text><polygon fill="#FFFF44" points="20,446.7734,24,450.7734,20,454.7734,16,450.7734" style="stroke:#B38D22;stroke-width:1.0;"/><text fill="#000000" font-family="sans-serif" font-size="14" lengthAdjust="spacing" textLength="439" x="29" y="455.1201">validateNumber(value: number, defaultValue: number) : number</text><polygon fill="#FFFF44" points="20,463.0703,24,467.0703,20,471.0703,16,467.0703" style="stroke:#B38D22;stroke-width:1.0;"/><text fill="#000000" font-family="sans-serif" font-size="14" lengthAdjust="spacing" textLength="379" x="29" y="471.417">validateString(value: string, defaultValue: string) : string</text><polygon fill="#FFFF44" points="20,479.3672,24,483.3672,20,487.3672,16,483.3672" style="stroke:#B38D22;stroke-width:1.0;"/><text fill="#000000" font-family="sans-serif" font-size="14" lengthAdjust="spacing" textLength="373" x="29" y="487.7139">validateTime(value: string, defaultValue: string) : string</text><rect fill="#F24D5C" height="6" style="stroke:#C82930;stroke-width:1.0;" width="6" x="17" y="497.6641"/><text fill="#000000" font-family="sans-serif" font-size="14" lengthAdjust="spacing" textLength="398" x="29" y="504.0107">_checkForFigType(option: DropDownOption) : FigureType</text><rect fill="#F24D5C" height="6" style="stroke:#C82930;stroke-width:1.0;" width="6" x="17" y="513.9609"/><text fill="#000000" font-family="sans-serif" font-size="14" lengthAdjust="spacing" textLength="438" x="29" y="520.3076">_getGroupedOptionsList() : [boolean, GroupDropDownOption[]]</text><rect fill="#F24D5C" height="6" style="stroke:#C82930;stroke-width:1.0;" width="6" x="17" y="530.2578"/><text fill="#000000" font-family="sans-serif" font-size="14" lengthAdjust="spacing" textLength="377" x="29" y="536.6045">_getOptionIconPrefix(option: DropDownOption) : string</text><rect fill="#F24D5C" height="6" style="stroke:#C82930;stroke-width:1.0;" width="6" x="17" y="546.5547"/><text fill="#000000" font-family="sans-serif" font-size="14" lengthAdjust="spacing" textLength="390" x="29" y="552.9014">_getOptionImagePrefix(option: DropDownOption) : string</text><rect fill="#F24D5C" height="6" style="stroke:#C82930;stroke-width:1.0;" width="6" x="17" y="562.8516"/><text fill="#000000" font-family="sans-serif" font-size="14" lengthAdjust="spacing" textLength="358" x="29" y="569.1982">_getOptionInfo(data: VirtualSelectOptionInfo) : string</text><rect fill="#F24D5C" height="6" style="stroke:#C82930;stroke-width:1.0;" width="6" x="17" y="579.1484"/><text fill="#000000" font-family="sans-serif" font-size="14" lengthAdjust="spacing" textLength="446" x="29" y="585.4951">_getOptionsList() : DropDownOption[] | GroupDropDownOption[]</text><rect fill="#F24D5C" height="6" style="stroke:#C82930;stroke-width:1.0;" width="6" x="17" y="595.4453"/><text fill="#000000" font-family="sans-serif" font-size="14" lengthAdjust="spacing" textLength="244" x="29" y="601.792">_groupOptions() : [boolean, Object]</text></g><!--reverse link AbstractVirtualSelectConfig to VirtualSelectTagsConfig--><g id="link_AbstractVirtualSelectConfig_VirtualSelectTagsConfig"><path codeLine="70" d="M319,627.12 C319,647.13 319,649.1 319,668.65 " fill="none" id="AbstractVirtualSelectConfig-backto-VirtualSelectTagsConfig" style="stroke:#272B30;stroke-width:1.0;"/><polygon fill="none" points="319,609.12,313,627.12,325,627.12,319,609.12" style="stroke:#272B30;stroke-width:1.0;"/></g><!--SRC=[xLRRQkCm47tFLuZsnMKRMBeB2sLVccHR0aiRcf2N4e9iZHrjR8sHv5osxR-lPCb9x5psyhQGG8WycdCqPqOpZffpaLD9Cz9DgL9tKkAoYobASddpvIRyzB6bwXuTb0paQHSQpHE9XM3UBOxZ7P-zxGZOPqPRCyw0G9RhDSb0pv2fNLFC8JMMo1v0BiPSweAcGqWXqYEQg2wAc2SNvBL5pEV3jnGo4BhFo2rHMdAHUFjAWs30oZWRUttLuug6ALXGY9W25Mxd4PzopL6e4Qnq0_M8pw2AL1_QywZlNDcTdiIyXqlXh2yJvpF0lCZjLeYhZWGwpv6B9j50eab2mpYaWcl-4ooO6TunJGjGpTY7G6KqEqmmmwK_-KwLSUo1DPNQ-BiycwYFoRZC9IvCiMILO2_T-DTAPSpAKIUW1nxZQXTS7NTMe4jYnKEUShrs21K8MFhb0QZbMo1dZc91KyweXYuLtHaL2GHJhZe5J_L6ypMPpc5TvUYgcOoAeGSnDGKFTdoloS8c_vOKOYvCRYpMBrrwZ5eN631NfbAj0rSfp40cK2cBCCjGRCHHiRucAeU8npogMw6wqZjMIsv-76yLTyU92Noe6z7CwHdNp4tr6vQU-LOKBdxoHgonIRJDOisjpjONpsKjwkbhKctCL5g1_l5bifVcYlQno4AG5QiedvgapceftAhEC2nZhWlzdS8wmuXdy9VuznODpP96clWvT-UVQvVxFEl-hrdNdjhNNRvnz3bwiCQ39xIdrH7dCRhRtwzLUxoV9-fveluflZsDPX3Dxr7UysIqpY70igkQxMrXngEGO9sgpWNziDUyvLLxsPJxO2DFjWJEr8zG32J4V7NY_5hOMsX64_XNh8WnCDcZ-wtjTuzZjsARwipLEpM-odddEHh9UWf_cDCdvbrt-kNszQtTFlu__nS0]--></g></svg>