<?xml version="1.0" encoding="UTF-8" standalone="no"?><svg xmlns="http://www.w3.org/2000/svg" xmlns:xlink="http://www.w3.org/1999/xlink" contentScriptType="application/ecmascript" contentStyleType="text/css" height="449px" preserveAspectRatio="none" style="width:316px;height:449px;background:#CED4DA;" version="1.1" viewBox="0 0 316 449" width="316px" zoomAndPan="magnify"><defs><filter height="300%" id="f1bz7kgjt6yenh" width="300%" x="-1" y="-1"><feGaussianBlur result="blurOut" stdDeviation="2.0"/><feColorMatrix in="blurOut" result="blurOut2" type="matrix" values="0 0 0 0 0 0 0 0 0 0 0 0 0 0 0 0 0 0 .4 0"/><feOffset dx="4.0" dy="4.0" in="blurOut2" result="blurOut3"/><feBlend in="SourceGraphic" in2="blurOut3" mode="normal"/></filter></defs><g><!--MD5=[cd84bac72777306b7212405d8f5fec3a]
class WindowResize--><rect codeLine="7" fill="#FFFFFF" filter="url(#f1bz7kgjt6yenh)" height="177.5508" id="WindowResize" style="stroke:#272B30;stroke-width:1.5;" width="257" x="27" y="258"/><ellipse cx="110.25" cy="274" fill="#ADD1B2" rx="11" ry="11" style="stroke:#272B30;stroke-width:1.0;"/><path d="M112.7231,280.1431 Q112.1421,280.4419 111.5029,280.5913 Q110.8638,280.7407 110.1582,280.7407 Q107.6514,280.7407 106.3315,279.0889 Q105.0117,277.437 105.0117,274.3159 Q105.0117,271.1865 106.3315,269.5347 Q107.6514,267.8828 110.1582,267.8828 Q110.8638,267.8828 111.5112,268.0322 Q112.1587,268.1816 112.7231,268.4805 L112.7231,271.2031 Q112.0923,270.6221 111.4988,270.3523 Q110.9053,270.0825 110.2744,270.0825 Q108.9297,270.0825 108.2449,271.1492 Q107.5601,272.2158 107.5601,274.3159 Q107.5601,276.4077 108.2449,277.4744 Q108.9297,278.541 110.2744,278.541 Q110.9053,278.541 111.4988,278.2712 Q112.0923,278.0015 112.7231,277.4204 Z " fill="#000000"/><text fill="#000000" font-family="sans-serif" font-size="12" lengthAdjust="spacing" textLength="82" x="130.75" y="278.5352">WindowResize</text><line style="stroke:#272B30;stroke-width:1.5;" x1="28" x2="283" y1="290" y2="290"/><polygon fill="none" points="38,296,42,300,38,304,34,300" style="stroke:#B38D22;stroke-width:1.0;"/><text fill="#000000" font-family="sans-serif" font-size="11" lengthAdjust="spacing" textLength="190" x="47" y="304.6348">eventCallback : EventListenerObject</text><polygon fill="none" points="38,308.9551,42,312.9551,38,316.9551,34,312.9551" style="stroke:#B38D22;stroke-width:1.0;"/><text fill="#000000" font-family="sans-serif" font-size="11" lengthAdjust="spacing" textLength="114" x="47" y="317.5898">useCapture : boolean</text><rect fill="none" height="6" style="stroke:#C82930;stroke-width:1.0;" width="6" x="35" y="323.9102"/><text fill="#000000" font-family="sans-serif" font-size="11" lengthAdjust="spacing" textLength="98" x="47" y="330.5449">_timeout : number</text><line style="stroke:#272B30;stroke-width:1.5;" x1="28" x2="283" y1="336.8652" y2="336.8652"/><ellipse cx="38" cy="347.8652" fill="#84BE84" rx="3" ry="3" style="stroke:#038048;stroke-width:1.0;"/><text fill="#000000" font-family="sans-serif" font-size="11" lengthAdjust="spacing" textLength="89" x="47" y="351.5">addEvent() : void</text><ellipse cx="38" cy="360.8203" fill="#84BE84" rx="3" ry="3" style="stroke:#038048;stroke-width:1.0;"/><text fill="#000000" font-family="sans-serif" font-size="11" lengthAdjust="spacing" textLength="205" x="47" y="364.4551">addHandler(handler: OSGeneric) : void</text><ellipse cx="38" cy="373.7754" fill="#84BE84" rx="3" ry="3" style="stroke:#038048;stroke-width:1.0;"/><text fill="#000000" font-family="sans-serif" font-size="11" lengthAdjust="spacing" textLength="127" x="47" y="377.4102">hasHandlers() : boolean</text><ellipse cx="38" cy="386.7305" fill="#84BE84" rx="3" ry="3" style="stroke:#038048;stroke-width:1.0;"/><text fill="#000000" font-family="sans-serif" font-size="11" lengthAdjust="spacing" textLength="109" x="47" y="390.3652">removeEvent() : void</text><ellipse cx="38" cy="399.6855" fill="#84BE84" rx="3" ry="3" style="stroke:#038048;stroke-width:1.0;"/><text fill="#000000" font-family="sans-serif" font-size="11" lengthAdjust="spacing" textLength="225" x="47" y="403.3203">removeHandler(handler: OSGeneric) : void</text><ellipse cx="38" cy="412.6406" fill="#84BE84" rx="3" ry="3" style="stroke:#038048;stroke-width:1.0;"/><text fill="#000000" font-family="sans-serif" font-size="11" lengthAdjust="spacing" textLength="231" x="47" y="416.2754">trigger(data: string, args: unknown[]) : void</text><rect fill="#F24D5C" height="6" style="stroke:#C82930;stroke-width:1.0;" width="6" x="35" y="422.5957"/><text fill="#000000" font-family="sans-serif" font-size="11" lengthAdjust="spacing" textLength="223" x="47" y="429.2305">_windowTrigger(evt: WindowResize) : void</text><!--MD5=[4c1cb893fee4f5a1fd154e0da76e287e]
class AbstractListener<string>--><rect codeLine="19" fill="#FFFFFF" filter="url(#f1bz7kgjt6yenh)" height="190.5059" id="AbstractListener&lt;string&gt;" style="stroke:#272B30;stroke-width:1.5;" width="293" x="9" y="7"/><ellipse cx="78.75" cy="23" fill="#A9DCDF" rx="11" ry="11" style="stroke:#272B30;stroke-width:1.0;"/><path d="M78.6133,18.3481 L77.4595,23.4199 L79.7754,23.4199 Z M77.1191,16.1069 L80.1157,16.1069 L83.4609,28.5 L81.0122,28.5 L80.2485,25.437 L76.9697,25.437 L76.2227,28.5 L73.7739,28.5 Z " fill="#000000"/><text fill="#000000" font-family="sans-serif" font-size="12" font-style="italic" lengthAdjust="spacing" textLength="145" x="99.25" y="27.5352">AbstractListener&lt;string&gt;</text><line style="stroke:#272B30;stroke-width:1.5;" x1="10" x2="301" y1="39" y2="39"/><polygon fill="none" points="20,45,24,49,20,53,16,49" style="stroke:#B38D22;stroke-width:1.0;"/><text fill="#000000" font-family="sans-serif" font-size="11" lengthAdjust="spacing" textLength="190" x="29" y="53.6348">eventCallback : EventListenerObject</text><polygon fill="none" points="20,57.9551,24,61.9551,20,65.9551,16,61.9551" style="stroke:#B38D22;stroke-width:1.0;"/><text fill="#000000" font-family="sans-serif" font-size="11" lengthAdjust="spacing" textLength="114" x="29" y="66.5898">useCapture : boolean</text><rect fill="none" height="6" style="stroke:#C82930;stroke-width:1.0;" width="6" x="17" y="72.9102"/><text fill="#000000" font-family="sans-serif" font-size="11" lengthAdjust="spacing" textLength="106" x="29" y="79.5449">_eventName : string</text><rect fill="none" height="6" style="stroke:#C82930;stroke-width:1.0;" width="6" x="17" y="85.8652"/><text fill="#000000" font-family="sans-serif" font-size="11" lengthAdjust="spacing" textLength="267" x="29" y="92.5">_eventTarget : HTMLElement | Document | Window</text><rect fill="none" height="6" style="stroke:#C82930;stroke-width:1.0;" width="6" x="17" y="98.8203"/><text fill="#000000" font-family="sans-serif" font-size="11" lengthAdjust="spacing" textLength="231" x="29" y="105.4551">_eventType : HTMLEvent | BalloonOnToggle</text><line style="stroke:#272B30;stroke-width:1.5;" x1="10" x2="301" y1="111.7754" y2="111.7754"/><ellipse cx="20" cy="122.7754" fill="#84BE84" rx="3" ry="3" style="stroke:#038048;stroke-width:1.0;"/><text fill="#000000" font-family="sans-serif" font-size="11" lengthAdjust="spacing" textLength="89" x="29" y="126.4102">addEvent() : void</text><ellipse cx="20" cy="135.7305" fill="#84BE84" rx="3" ry="3" style="stroke:#038048;stroke-width:1.0;"/><text fill="#000000" font-family="sans-serif" font-size="11" lengthAdjust="spacing" textLength="205" x="29" y="139.3652">addHandler(handler: OSGeneric) : void</text><ellipse cx="20" cy="148.6855" fill="#84BE84" rx="3" ry="3" style="stroke:#038048;stroke-width:1.0;"/><text fill="#000000" font-family="sans-serif" font-size="11" lengthAdjust="spacing" textLength="127" x="29" y="152.3203">hasHandlers() : boolean</text><ellipse cx="20" cy="161.6406" fill="#84BE84" rx="3" ry="3" style="stroke:#038048;stroke-width:1.0;"/><text fill="#000000" font-family="sans-serif" font-size="11" lengthAdjust="spacing" textLength="109" x="29" y="165.2754">removeEvent() : void</text><ellipse cx="20" cy="174.5957" fill="#84BE84" rx="3" ry="3" style="stroke:#038048;stroke-width:1.0;"/><text fill="#000000" font-family="sans-serif" font-size="11" lengthAdjust="spacing" textLength="225" x="29" y="178.2305">removeHandler(handler: OSGeneric) : void</text><ellipse cx="20" cy="187.5508" fill="#84BE84" rx="3" ry="3" style="stroke:#038048;stroke-width:1.0;"/><text fill="#000000" font-family="sans-serif" font-size="11" lengthAdjust="spacing" textLength="231" x="29" y="191.1855">trigger(data: string, args: unknown[]) : void</text><!--MD5=[b428b2a55eab916b1cf9827bc5d30c8e]
reverse link AbstractListener<string> to WindowResize--><path codeLine="32" d="M155.5,218.36 C155.5,231.68 155.5,245.11 155.5,258 " fill="none" id="AbstractListener&lt;string&gt;-backto-WindowResize" style="stroke:#272B30;stroke-width:1.0;"/><polygon fill="none" points="148.5,218.3,155.5,198.3,162.5,218.3,148.5,218.3" style="stroke:#272B30;stroke-width:1.0;"/><!--MD5=[ad92732123228e90d38e9b1d8c39d7c3]
@startuml
skinparam ClassArrowColor #272b30
skinparam ClassBorderColor #272b30
skinparam ClassBackgroundColor #fff
skinparam BackgroundColor #ced4da
hide empty methods
hide empty fields
class "WindowResize" {
    #eventCallback : EventListenerObject
    #useCapture : boolean
    -_timeout : number
    +addEvent() : void
    +addHandler(handler: OSGeneric) : void
    +hasHandlers() : boolean
    +removeEvent() : void
    +removeHandler(handler: OSGeneric) : void
    +trigger(data: string, args: unknown[]) : void
    -_windowTrigger(evt: WindowResize) : void
}
abstract class "AbstractListener<string>" {
    #eventCallback : EventListenerObject
    #useCapture : boolean
    -_eventName : string
    -_eventTarget : HTMLElement | Document | Window
    -_eventType : HTMLEvent | BalloonOnToggle
    +addEvent() : void
    +addHandler(handler: OSGeneric) : void
    +hasHandlers() : boolean
    +removeEvent() : void
    +removeHandler(handler: OSGeneric) : void
    +trigger(data: string, args: unknown[]) : void
}
"AbstractListener<string>" <|- - "WindowResize"
@enduml

PlantUML version 1.2021.14(Fri Nov 12 16:46:50 WET 2021)
(GPL source distribution)
Java Runtime: Java(TM) SE Runtime Environment
JVM: Java HotSpot(TM) 64-Bit Server VM
Default Encoding: UTF-8
Language: en
Country: PT
--></g></svg>